<svg xmlns="http://www.w3.org/2000/svg" width="16" height="16" fill="#dedede"><path d="M8.002 0a8 8 0 0 0 0 16 8 8 0 1 0 0-16m0 .889a7.111 7.111 0 1 1 0 14.222 7.111 7.111 0 1 1 0-14.222"/><path d="M8.002 2.667a5.333 5.333 0 1 0-.001 10.667 5.333 5.333 0 0 0 .002-10.667zm0 .444A4.89 4.89 0 0 1 12.891 8a4.89 4.89 0 0 1-4.889 4.889A4.89 4.89 0 0 1 3.114 8a4.89 4.89 0 0 1 4.889-4.889zm0 2.223A2.666 2.666 0 0 0 5.336 8a2.67 2.67 0 0 0 2.667 2.667 2.666 2.666 0 1 0-.001-5.333m0 .444a2.222 2.222 0 1 1 0 4.444 2.222 2.222 0 0 1 0-4.444" opacity=".5"/><path d="m12.981 2.437.629.629-5.251 5.251-.629-.629z"/></svg>