<svg xmlns="http://www.w3.org/2000/svg" xml:space="preserve" width="16" height="16"><path d="M8 .035c-.475 0-.631.383-.631.858V11.74L3.093 7.65c-.336-.336-.703-.467-.952-.194-.26.284-.17.641.165.977l5.247 5.064h.001c.326.292.502.298.867.032l.025-.032h.001l5.22-5.012c.336-.336.477-.758.192-1.03-.284-.27-.644-.073-.98.263L8.631 11.74V.893c0-.475-.156-.858-.631-.858M2.572 14.927c-.475 0-.857.24-.857.537s.382.536.857.536h10.856c.475 0 .857-.24.857-.536 0-.298-.382-.537-.857-.537z" style="fill:#66d2b8!important;fill-opacity:1;stroke:none;stroke-width:.489342;stroke-linecap:round;stroke-linejoin:round;paint-order:stroke fill markers!important"/></svg>