<svg xmlns="http://www.w3.org/2000/svg" xmlns:xlink="http://www.w3.org/1999/xlink" xml:space="preserve" width="16" height="16"><defs><linearGradient id="a"><stop offset="0" style="stop-color:#38c393;stop-opacity:1"/><stop offset="1" style="stop-color:#0c98a4;stop-opacity:1"/></linearGradient><linearGradient xlink:href="#a" id="b" x1="8" x2="8" y1="0" y2="16.055" gradientUnits="userSpaceOnUse"/></defs><path d="M8 .035c-.475 0-.631.383-.631.858V11.74L3.093 7.65c-.336-.336-.703-.467-.952-.194-.26.284-.17.641.165.977l5.247 5.064h.001c.326.292.502.298.867.032l.025-.032h.001l5.22-5.012c.336-.336.477-.758.192-1.03-.284-.27-.644-.073-.98.263L8.631 11.74V.893c0-.475-.156-.858-.631-.858M2.572 14.927c-.475 0-.857.24-.857.537s.382.536.857.536h10.856c.475 0 .857-.24.857-.536 0-.298-.382-.537-.857-.537z" style="fill:url(#b)#38c495ff!important;fill-opacity:1;stroke:none;stroke-width:.489342;stroke-linecap:round;stroke-linejoin:round;paint-order:stroke fill markers!important"/><path d="M20.3 1.606c-1.108 0-2 .892-2 2v9c0 1.108.892 2 2 2h12c1.108 0 2-.892 2-2v-9c0-1.108-.892-2-2-2zm0 1h1v1h-2c0-.554.446-1 1-1m2 0h8v5h-8zm9 0h1c.554 0 1 .446 1 1h-2zm-12 2h2v1h-2zm12 0h2v1h-2zm-12 2h2v1h-2zm12 0h2v1h-2zm-12 2h2v1h-2zm3 0h8v5h-8zm9 0h2v1h-2zm-12 2h2v1h-2zm12 0h2v1h-2zm-12 2h2v1h-1c-.554 0-1-.446-1-1m12 0h2c0 .554-.446 1-1 1h-1z" style="color:#dedede;fill:currentColor"/></svg>