<svg xmlns="http://www.w3.org/2000/svg" width="16" height="16"><path fill="#dedede" d="M12.779 1c-2.96 0-3.517 4-1.85 4s4.812-4 1.85-4M8.23 2a2 2 0 0 0-.151.01c-1.695.204-1.1 2.939-.197 2.99.873.05 1.829-2.992.349-3zM5.14 3a1.4 1.4 0 0 0-.405.049c-1.586.401-.241 2.057.647 1.945.806-.101.923-1.947-.242-1.994M2.929 5a1.05 1.05 0 0 0-.459.105c-1.304.616.44 2.102 1.207 1.872.671-.202.243-1.954-.748-1.977m6.082 1c-2.334-.037-5.412 1.065-5.938 3.279C2.505 11.676 5.416 15 8.45 15c1.493 0 3.215-.671 3.537-2.279.245-1.226-3.091-.698-2.978.113.135.973-.563.818-1.438.191-2.57-2.025 4.61-2.991 4.123-5.718-.151-.849-1.283-1.283-2.683-1.305z"/></svg>