<svg xmlns="http://www.w3.org/2000/svg" width="16" height="16"><path fill="#dedede" d="M5.898 12.375s-.612.356.434.475c1.269.144 1.916.125 3.313-.141a6 6 0 0 0 .881.431c-3.131 1.341-7.087-.078-4.628-.766m-.381-1.753s-.684.506.362.616c1.353.141 2.425.15 4.275-.206 0 0 .256.259.659.4-3.791 1.109-8.009.091-5.297-.809M8.741 7.65c.772.887-.203 1.688-.203 1.688s1.959-1.012 1.059-2.278C8.756 5.879 8.113 5.291 11.6 3.269c.003 0-5.475 1.369-2.859 4.381m4.144 6.019s.453.372-.497.662c-1.809.547-7.525.712-9.112.022-.572-.247.5-.594.837-.666.35-.075.553-.062.553-.062-.634-.447-4.103.878-1.763 1.256 6.381 1.037 11.637-.466 9.981-1.213M6.191 8.806s-2.909.691-1.031.941c.794.106 2.375.081 3.847-.041 1.203-.1 2.412-.319 2.412-.319s-.425.181-.731.391c-2.953.778-8.656.416-7.015-.378 1.391-.669 2.519-.594 2.519-.594m5.219 2.916c3.003-1.559 1.613-3.059.644-2.856-.238.05-.344.094-.344.094s.088-.137.256-.197c1.916-.675 3.391 1.988-.619 3.041 0-.003.047-.044.063-.081M9.598 0S11.26 1.662 8.02 4.219c-2.597 2.05-.594 3.222 0 4.556-1.516-1.369-2.628-2.572-1.881-3.694C7.235 3.441 10.27 2.641 9.598 0m-3.11 15.95c2.881.184 7.306-.103 7.409-1.466 0 0-.2.516-2.381.928-2.459.463-5.494.409-7.29.113 0-.003.369.303 2.263.425"/></svg>