<svg xmlns="http://www.w3.org/2000/svg" width="16" height="16"><path fill="#dedede" d="M8 0a8 8 0 1 0 0 16A8 8 0 1 0 8 0m-.094 1H8a7 7 0 1 1 0 14 7 7 0 0 1-2.816-.592 2.2 2.2 0 0 0 .271-.461c.122-.294.178-.602.17-.91l2.789-1.994.068.002a3.033 3.033 0 0 0 .001-6.065 3.03 3.03 0 0 0-3.025 3.031v.039l-1.949 2.834a2.2 2.2 0 0 0-.934.164 2 2 0 0 0-.373.197l-.508-.209A7 7 0 0 1 7.906 1m.576 4.992c1.112 0 2.02.906 2.02 2.02s-.907 2.022-2.02 2.022a2.02 2.02 0 1 1 0-4.041zm.004.498c-.836 0-1.514.679-1.514 1.518a1.516 1.516 0 1 0 3.03 0c0-.839-.679-1.518-1.515-1.518zm-5.053 4.898c.213.002.428.044.637.131.421.175.749.504.922.926a1.7 1.7 0 0 1-.004 1.307 1.7 1.7 0 0 1-.27.43 7 7 0 0 1-.441-.254 1.3 1.3 0 0 0 .23-.361 1.26 1.26 0 0 0-.676-1.645l-1.02-.422c.197-.075.408-.113.621-.111z"/></svg>