<svg xmlns="http://www.w3.org/2000/svg" width="16" height="16"><path fill="#dedede" d="M8 0a8 8 0 0 0-8 8 8 8 0 0 0 3.938 6.878.556.556 0 0 0 .888-.444.56.56 0 0 0-.266-.474A6.89 6.89 0 0 1 1.111 8a6.889 6.889 0 1 1 13.778 0 6.89 6.89 0 0 1-3.45 5.959l.002.003A.556.556 0 0 0 11.713 15a.56.56 0 0 0 .326-.107A8 8 0 0 0 16 8a8 8 0 0 0-8-8m0 2.222A5.78 5.78 0 0 0 2.222 8a5.78 5.78 0 0 0 2.846 4.969.56.56 0 0 0 .315.099.556.556 0 0 0 .256-1.049l-.004-.003A4.667 4.667 0 0 1 8 3.333a4.667 4.667 0 0 1 2.329 8.704.556.556 0 0 0 .277 1.036.56.56 0 0 0 .278-.076l.001.002A5.778 5.778 0 0 0 8 2.222m0 2.444a3.333 3.333 0 0 0-1.708 6.19l.034.02.011.007a.556.556 0 0 0 .819-.49.56.56 0 0 0-.284-.483A2.222 2.222 0 0 1 8 5.777a2.222 2.222 0 0 1 1.109 4.145l.001.001a.556.556 0 0 0 .286 1.031.56.56 0 0 0 .268-.069l.008-.005.045-.029A3.333 3.333 0 0 0 8 4.666M8 7.11a.889.889 0 1 0 0 1.778.889.889 0 1 0 0-1.778"/></svg>