<svg xmlns="http://www.w3.org/2000/svg" width="16" height="16"><path fill="#dedede" d="M7.877 2.008c-.021.003-.04.016-.061.02a1 1 0 0 0-.207.07c-.036.016-.075.017-.109.037-.018.01-.026.028-.043.039a1 1 0 0 0-.16.141c-.043.044-.086.085-.119.135-.013.019-.033.03-.045.051L3.957 8H1a1 1 0 1 0 0 2h8.735L8.58 8H6.268L8 4.998l1.154-2-.287-.498c-.012-.02-.032-.031-.045-.051-.033-.05-.076-.091-.119-.135a1 1 0 0 0-.16-.141c-.017-.011-.025-.029-.043-.039-.035-.02-.073-.022-.109-.037a1 1 0 0 0-.207-.07A1 1 0 0 0 8 2.016c-.041 0-.082-.013-.123-.008m1.856 1.99-1.154 2L9.732 8l1.154 2 2.248 3.893a.997.997 0 0 0 1.365.367 1 1 0 0 0 .367-1.367L13.197 10H15a1 1 0 1 0 0-2h-2.957L9.732 3.998zM2.225 11l-1.092 1.893A1 1 0 0 0 1.5 14.26a.997.997 0 0 0 1.365-.367L4.535 11z"/></svg>