<svg xmlns="http://www.w3.org/2000/svg" width="16" height="16"><path fill="#dedede" d="M8 0 1 4.234v7.531L8 16l7-4.234V4.234zm1.193 5c.147.008.224.07.207.17l-.521 2.963 1.406-.018c.148-.002.235.085.195.195s-.192.201-.34.203l-1.639.021c-.134.002-.222-.069-.203-.168L8.57 6.82l-2.029 3.998c-.048.094-.177.171-.309.18L6.211 11c-.12.002-.205-.056-.205-.143l-.035-2.301-1.299 1.229a.42.42 0 0 1-.309.109c-.107-.008-.175-.069-.174-.148l.033-1.24-2.018.027c-.147.002-.235-.085-.195-.195s.193-.203.34-.205l2.227-.029c.123-.002.208.06.205.148l-.023.887L6.035 7.93c.077-.074.198-.119.303-.109s.177.063.18.141l.027 1.797 2.322-4.576c.05-.1.19-.178.326-.182zm4.602 3.068c.147-.002.235.085.195.195s-.193.201-.34.203l-.902.014c-.147.002-.235-.087-.195-.197s.193-.201.34-.203zm-1.824.023c.147-.002.235.087.195.197s-.193.201-.34.203l-.848.012c-.147.002-.235-.087-.195-.197s.193-.201.34-.203z"/></svg>