<svg xmlns="http://www.w3.org/2000/svg" width="16" height="16"><path fill="#dedede" d="M7.092 2.047c-3.556 0-2.728 3.248-4.549 4.227-.063.036-.098.068-.154.104 1.201-.715 2.68-1.312 4.252-1.717a17.4 17.4 0 0 1 3.926-.559h.096C9.462 3.76 9.33 2.047 7.092 2.047m3.875 2.955a17.3 17.3 0 0 0-3.926.559C2.655 6.689-.471 9.144.059 11.043c.306 1.085 1.778 1.801 3.971 1.932l-.004-.023c-.118-1.027.533-1.92 1.297-2.525s1.746-1.045 2.85-1.279 2.136-.223 3 .037c.812.244 1.576.778 1.764 1.693 2.198-1.232 3.338-2.718 3.008-3.92-.35-1.258-2.259-2.008-4.977-1.955zM9.662 10a1.859 3.577 76.001 0 0-1.377.143 1.859 3.577 76.001 0 0-3.279 2.6 1.859 3.577 76.001 0 0 3.709 1.115 1.859 3.577 76.001 0 0 3.277-2.6A1.859 3.577 76.001 0 0 9.662 10"/></svg>