<svg xmlns="http://www.w3.org/2000/svg" width="16" height="16"><path fill="#dedede" d="M8 3.021a8.93 8.93 0 0 0-6.85 3.201.638.638 0 0 0 .49 1.049.64.64 0 0 0 .49-.227A7.66 7.66 0 0 1 8 4.299a7.66 7.66 0 0 1 5.87 2.745.64.64 0 0 0 .49.228.638.638 0 0 0 .49-1.049A8.94 8.94 0 0 0 8 3.022zm0 2.707a6.38 6.38 0 0 0-4.892 2.286.639.639 0 1 0 .978.822A5.1 5.1 0 0 1 8 7.006c1.51 0 2.937.667 3.914 1.83a.64.64 0 0 0 .49.228.638.638 0 0 0 .488-1.049A6.38 6.38 0 0 0 8 5.728m0 2.813a3.83 3.83 0 0 0-2.936 1.37.64.64 0 0 0 .079.9.636.636 0 0 0 .9-.078A2.55 2.55 0 0 1 8 9.819c.755 0 1.468.333 1.957.915a.637.637 0 0 0 .9.078.64.64 0 0 0 .079-.9A3.83 3.83 0 0 0 8 8.541m-.055 2.426c-.5.048-.981.422-.997.978a1.052 1.052 0 0 0 2.104 0c-.089-.747-.607-1.026-1.107-.978"/></svg>