<svg xmlns="http://www.w3.org/2000/svg" width="16" height="16"><path fill="#dedede" d="M7.984.002c-.38.032-.379.351-.516 1.138a6.912 6.877 0 0 0-.763.107C6.369.437 6.251.153 5.933.261c-.366.123-.28.436-.223 1.257A6.912 6.877 0 0 0 5 1.81c-.568-.684-.762-.922-1.036-.725-.309.222-.144.497.145 1.241a6.912 6.877 0 0 0-.616.473c-.715-.528-.962-.71-1.181-.453-.248.291-.016.515.449 1.176a6.912 6.877 0 0 0-.464.6c-.75-.278-1.027-.441-1.245-.129-.193.275.046.468.737 1.022a6.912 6.877 0 0 0-.297.712C.703 5.653.394 5.571.264 5.926c-.114.313.164.438.957.788a6.912 6.877 0 0 0-.098.754c-.778.15-1.099.156-1.123.533-.021.328.28.373 1.114.482a6.912 6.877 0 0 0 .109.804C.51 9.6.202 9.68.262 10.051c.053.33.358.302 1.232.221a6.912 6.877 0 0 0 .31.741c-.609.471-.887.626-.739.969.133.309.424.205 1.259-.089a6.912 6.877 0 0 0 .451.583c-.46.673-.69.901-.437 1.19.22.252.465.067 1.163-.462a6.912 6.877 0 0 0 .618.475c-.28.777-.448 1.056-.129 1.274.279.191.468-.052 1.024-.754l-.136-.08a6.912 6.877 0 0 0 .812.346c-.054.798-.132 1.109.23 1.23.313.104.431-.173.752-.953a6.912 6.877 0 0 0 .783.105c.148.883.197 1.185.533 1.152.378-.037.372-.358.495-1.143a6.912 6.877 0 0 0 .79-.103c.325.791.444 1.072.759.967.362-.121.284-.432.23-1.23a6.912 6.877 0 0 0 .716-.292c.54.682.731.921 1.007.732.313-.214.154-.492-.116-1.237a6.912 6.877 0 0 0 .638-.487c.669.506.913.683 1.129.435.246-.282.03-.513-.406-1.147a6.912 6.877 0 0 0 .466-.594c.816.288 1.105.388 1.236.083.147-.341-.126-.495-.728-.96a6.912 6.877 0 0 0 .315-.75c.859.079 1.163.107 1.216-.221.059-.367-.244-.452-.944-.757a6.912 6.877 0 0 0 .103-.81c.825-.108 1.123-.156 1.102-.482-.024-.373-.341-.384-1.1-.529a6.912 6.877 0 0 0-.105-.768c.78-.344 1.055-.469.942-.779-.129-.353-.435-.275-1.21-.201a6.912 6.877 0 0 0-.299-.723c.677-.544.912-.736.721-1.009-.218-.31-.494-.149-1.236.127a6.912 6.877 0 0 0-.478-.614c.502-.707.676-.957.417-1.167-.291-.236-.513-.014-1.136.444a6.912 6.877 0 0 0-.632-.482c.332-.809.448-1.089.147-1.237-.346-.169-.506.111-1.044.732a6.912 6.877 0 0 0-.716-.292c.074-.885.104-1.191-.23-1.241-.374-.057-.45.252-.761.975a6.912 6.877 0 0 0-.783-.096C8.363.276 8.319-.026 7.984.002m-.277 2.114c.765-.013 1.673.122 1.968.25 1.285.391 2.472 1.11 3.484 2.781.188.311.325.613.386.888.061.29.038.629-.15.895-.161.212-.36.41-.638.435-.865.081-2.04.035-2.966.025-.156-.002-.303-.065-.348-.114-.274-.172-.46-.546-.766-.652-.488-.226-.686-.037-.962-.375L6.268 3.774c-.327-.567-.113-1.136.379-1.442.193-.149.601-.209 1.06-.217zm-3.41 1.748q.06-.002.121.004c.264.036.535.112.694.342.495.713 1.032 1.755 1.478 2.565.075.136.092.296.071.359-.016.323-.252.667-.194.984.043.535.305.615.145 1.02l-1.453 2.476c-.335.562-.935.653-1.444.375-.599-.251-1.404-2.136-1.457-2.647-.289-1.309-.244-2.696.719-4.395.179-.317.376-.582.587-.77.196-.171.455-.304.734-.313zM8 7.428a.571.571 0 1 1 0 1.143.571.571 0 1 1 0-1.143m3.143 1.197h.002l1.431.029c.656.008 1.036.484 1.049 1.063.081.643-1.154 2.281-1.571 2.583-.991.904-2.217 1.558-4.173 1.576a3 3 0 0 1-.962-.123c-.281-.096-.56-.286-.694-.583-.101-.246-.171-.521-.051-.772.371-.784 1.006-1.768 1.486-2.558a.56.56 0 0 1 .277-.241c.289-.148.706-.115.953-.324.443-.304.38-.572.812-.636l1.442-.013z"/></svg>