<svg xmlns="http://www.w3.org/2000/svg" width="16" height="16" fill="#dedede"><path d="M2 2C.892 2 0 2.892 0 4v9c0 1.108.892 2 2 2h7.678a4.5 4.5 0 0 1-.916-1H2a1 1 0 0 1-1-1V7h14v.76a4.5 4.5 0 0 1 1 .914V5c0-1.108-.892-2-2-2H6.371c-.58-.023-.605.077-1.039-.357S4.719 2 4 2zm0 1h2c.311 0 .52 0 .998.471s.639.529 1 .529H14a1 1 0 0 1 1 1v1H1V4a1 1 0 0 1 1-1m10.5 5a3.5 3.5 0 1 0 0 7 3.5 3.5 0 1 0 0-7m0 1a.5.5 0 0 1 .5.5V11h1.5a.5.5 0 1 1 0 1H13v1.5a.5.5 0 1 1-1 0V12h-1.5a.5.5 0 1 1 0-1H12V9.5a.5.5 0 0 1 .5-.5"/></svg>