<svg xmlns="http://www.w3.org/2000/svg" width="16" height="16"><path fill="#dedede" d="M2.084 0A1.08 1.08 0 0 0 1 1.084v13.832A1.08 1.08 0 0 0 2.084 16h10.832A1.08 1.08 0 0 0 14 14.916V5h-.004L9 .004V0H7.58zM2 1h4v.879h.869c.097 0 .182-.07.182-.176 0-.094.093-.17.176-.17h.186v.035c0 .072.049.137.121.137h.104c.072 0 .119-.064.119-.137V1.31c0-.072-.047-.139-.119-.139h-.104c-.072 0-.121.066-.121.139v.033h-.176c-.084 0-.186-.059-.186-.174 0-.081-.08-.17-.168-.17H8v.678a.17.17 0 0 0-.051.115c0 .114-.101.174-.186.174h-.176v-.033c0-.072-.049-.139-.121-.139h-.104c-.072 0-.119.066-.119.139v.258c0 .072.047.137.119.137h.104c.072 0 .121-.064.121-.137v-.035h.186c.083 0 .176.076.176.17 0 .049.022.087.051.117v.484a.17.17 0 0 0-.051.115c0 .114-.101.176-.186.176h-.176v-.035c0-.072-.049-.139-.121-.139h-.104c-.072 0-.119.066-.119.139v.258c0 .072.047.139.119.139h.104c.072 0 .121-.066.121-.139v-.033h.186c.083 0 .176.076.176.17A.16.16 0 0 0 8 3.693v.48a.17.17 0 0 0-.051.115c0 .114-.101.174-.186.174h-.176V4.43c0-.072-.049-.139-.121-.139h-.104c-.072 0-.119.066-.119.139v.258c0 .072.047.137.119.137h.104c.072 0 .121-.064.121-.137v-.035h.186c.083 0 .176.076.176.17 0 .049.022.087.051.117v.484a.17.17 0 0 0-.051.115c0 .114-.101.176-.186.176h-.176V5.68c0-.072-.049-.139-.121-.139h-.104c-.072 0-.119.066-.119.139v.258c0 .072.047.139.119.139h.104c.072 0 .121-.066.121-.139v-.033h.186c.083 0 .176.076.176.17 0 .105.085.174.182.174H9V6h4v9H2zm6.998.416L12.582 5H9V2.873h-.002V2.5H9v-.877h-.002zM6 2.25v.879h.869c.097 0 .182-.068.182-.174 0-.094.093-.17.176-.17h.186v.033c0 .072.049.139.121.139h.104c.072 0 .119-.066.119-.139V2.56c0-.072-.047-.137-.119-.137h-.104c-.072 0-.121.064-.121.137v.035h-.176c-.084 0-.186-.061-.186-.176 0-.081-.08-.17-.168-.17zm0 1.252v.877h.869c.097 0 .182-.068.182-.174 0-.094.093-.17.176-.17h.186v.035c0 .072.049.137.121.137h.104c.072 0 .119-.064.119-.137v-.258c0-.072-.047-.139-.119-.139h-.104c-.072 0-.121.066-.121.139v.033h-.176c-.084 0-.186-.059-.186-.174 0-.081-.08-.17-.168-.17zm0 1.25v.879h.869c.097 0 .182-.068.182-.174 0-.094.093-.17.176-.17h.186v.033c0 .072.049.139.121.139h.104c.072 0 .119-.066.119-.139v-.258c0-.072-.047-.139-.119-.139h-.104c-.072 0-.121.066-.121.139v.035h-.176c-.084 0-.186-.061-.186-.176 0-.081-.08-.17-.168-.17zm0 1.246v.877h.869c.097 0 .182-.068.182-.174 0-.094.093-.17.176-.17h.186v.035c0 .072.049.137.121.137h.104c.072 0 .119-.064.119-.137v-.258c0-.072-.047-.139-.119-.139h-.104c-.072 0-.121.066-.121.139v.033h-.176c-.084 0-.186-.059-.186-.174 0-.081-.08-.17-.168-.17zm2.117.623c-.088 0-.168.089-.168.17 0 .114-.101.174-.186.174h-.176V6.93c0-.072-.049-.137-.121-.137h-.104c-.072 0-.119.064-.119.137v.26c0 .072.047.137.119.137h.104c.072 0 .121-.064.121-.137v-.035h.186c.083 0 .176.076.176.17 0 .105.085.174.182.174H9v-.877zM6 7.248v.879h.869c.097 0 .182-.068.182-.174 0-.094.093-.17.176-.17h.186v.033c0 .072.049.139.121.139h.104c.072 0 .119-.066.119-.139v-.258c0-.072-.047-.139-.119-.139h-.104c-.072 0-.121.066-.121.139v.035h-.176c-.084 0-.186-.061-.186-.176 0-.081-.08-.17-.168-.17zm2.117.623c-.088 0-.168.089-.168.17 0 .114-.101.174-.186.174h-.176v-.033c0-.072-.049-.139-.121-.139h-.104c-.072 0-.119.066-.119.139v.258c0 .072.047.139.119.139h.104c.072 0 .121-.066.121-.139v-.035h.186c.083 0 .176.076.176.17 0 .105.085.176.182.176H9v-.879zM6 8.5v2.994A1.51 1.51 0 0 0 7.506 13 1.5 1.5 0 0 0 9 11.494V9H7.756v-.191c0-.072-.047-.137-.119-.137h-.104c-.072 0-.121.064-.121.137v.035h-.176c-.084 0-.186-.059-.186-.174 0-.081-.08-.17-.168-.17zm1.506 2.32a.67.67 0 0 1 .674.674.68.68 0 0 1-.674.686.69.69 0 0 1-.686-.686.68.68 0 0 1 .686-.674"/></svg>