<svg xmlns="http://www.w3.org/2000/svg" width="16" height="16"><path fill="#dedede" d="M8 0C3.568 0 0 3.568 0 8a7.98 7.98 0 0 0 5.541 7.613v-1.662c-2.025.447-2.451-.891-2.451-.891-.331-.855-.809-1.082-.809-1.082-.661-.459.049-.451.049-.451.731.052 1.115.764 1.115.764.649 1.13 1.704.805 2.119.615.066-.478.255-.805.463-.99-1.617-.187-3.018-1.22-3.018-4.055 0-.807.587-1.868 1.052-2.384-.075-.187-.326-1.339.07-2.357 0 0 .038-.012.117-.016.237-.011.77.438 1.813 1.156A8 8 0 0 1 8 3.99a6.4 6.4 0 0 1 1.816.27c1.043-.718 1.709-1.169 1.945-1.158h.002a.5.5 0 0 1 .117.016c.397 1.018.147 2.172.072 2.359C12.419 5.993 13 7.053 13 7.861c0 2.842-1.701 3.866-3.322 4.049.261.228.326.681.326 1.371L10 15v.74c3.457-.885 6-4 6-7.74 0-4.432-3.568-8-8-8"/></svg>