<svg xmlns="http://www.w3.org/2000/svg" width="16" height="16" fill="#dedede"><path d="M8 2c-1.642 0-2.957.05-4.012.268-.527.109-.998.259-1.42.52s-.799.679-.959 1.189C.834 6.446 0 8.627 0 11.334 0 12.864 1.358 14 2.953 14c1.554 0 2.678-1.12 3.129-2.312l-.023.057.473-1.051c.494-.095.969-.162 1.457-.156h.023c.488-.005.963.061 1.457.156l.473 1.051-.023-.057C10.369 12.88 11.493 14 13.047 14 14.642 14 16 12.864 16 11.334c0-2.707-.834-4.888-1.609-7.357-.16-.511-.537-.928-.959-1.189s-.893-.411-1.42-.52C10.957 2.05 9.642 2 8 2m0 1c3.235 0 5.111.235 5.438 1.275.785 2.5 1.563 4.559 1.563 7.059 0 .833-.871 1.666-1.953 1.666s-1.853-.766-2.193-1.666l-.543-1.207c-.03-.103-.13-.33-.311-.375a8 8 0 0 0-2-.215c-.65-.007-1.3.047-2 .215-.181.045-.28.272-.311.375l-.543 1.207c-.34.9-1.112 1.666-2.193 1.666S1 12.167 1 11.334c0-2.5.778-4.559 1.563-7.059C2.889 3.235 4.765 3 8 3"/><rect width="5" height="1" x="3" y="6" ry=".5"/><rect width="5" height="1" x="4" y="-6" ry=".5" transform="rotate(90)"/><circle cx="12" cy="6" r="1"/><circle cx="10" cy="8" r="1"/></svg>