<svg xmlns="http://www.w3.org/2000/svg" width="16" height="16" fill="#dedede"><path d="M4 3.34c-.573.278-.98.663-1.17.91L.205 7.678A1 1 0 0 0 0 8.285V12c0 1.108.892 2 2 2h11a1.997 1.997 0 0 0 2-2V8.285a1 1 0 0 0-.205-.607L12.17 4.25c-.19-.248-.597-.632-1.17-.91v1.131a2.4 2.4 0 0 1 .375.387L13.781 8H9.949a2.5 2.5 0 0 1-4.894 0H1.219l2.406-3.143c.098-.129.225-.262.375-.387zM1 9h3.342A3.5 3.5 0 0 0 7.5 11a3.49 3.49 0 0 0 3.146-2H14v3a1 1 0 0 1-1 1H2a1 1 0 0 1-1-1zm6.5-1a.5.5 0 0 1-.5-.5V2.707L5.732 3.975a.5.5 0 0 1-.707-.707l2.121-2.121a.5.5 0 0 1 .166-.109A.5.5 0 0 1 7.5 1a.5.5 0 0 1 .188.037.5.5 0 0 1 .166.109l2.121 2.121a.5.5 0 0 1-.707.707L8 2.707V7.5a.5.5 0 0 1-.5.5"/></svg>