<svg xmlns="http://www.w3.org/2000/svg" width="16" height="16"><path fill="#dedede" d="M7.5 1a.5.5 0 0 0-.5.5v4.793L5.732 5.025a.5.5 0 0 0-.707.707l2.121 2.121a.5.5 0 0 0 .166.109A.5.5 0 0 0 7.5 8a.5.5 0 0 0 .188-.037.5.5 0 0 0 .166-.109l2.121-2.121a.5.5 0 0 0-.707-.707L8 6.293V1.5a.5.5 0 0 0-.5-.5M5 3.029A3.3 3.3 0 0 0 2.83 4.25L.205 7.678A1 1 0 0 0 0 8.285V12c0 1.108.892 2 2 2h11a1.997 1.997 0 0 0 2-2V8.285a1 1 0 0 0-.205-.607L12.17 4.25A3.3 3.3 0 0 0 10 3.029v1.016a1.92 1.92 0 0 1 1.375.813L13.781 8H9.949a2.5 2.5 0 0 1-4.894 0H1.22l2.406-3.143A1.92 1.92 0 0 1 5 4.045zM1 9h3.342A3.5 3.5 0 0 0 7.5 11a3.5 3.5 0 0 0 3.152-2H14v3a1 1 0 0 1-1 1H2a1 1 0 0 1-1-1z"/></svg>