<svg xmlns="http://www.w3.org/2000/svg" width="16" height="16" fill="#dedede"><path d="M5.075 0c-.4 0-.796.485-1.177.901s-.909 1.096-.909 1.627v12.293A1.19 1.19 0 0 0 4.194 16h7.589a1.19 1.19 0 0 0 1.206-1.179V2.528c0-.53-.528-1.211-.909-1.627S11.302 0 10.902 0H7.347zm.799.657h4.229c.354 0 .683.131.935.417l.645.75c.31.404.396.633.396 1.056H3.897c0-.422.086-.652.396-1.056l.645-.75c.251-.286.581-.417.935-.417zM3.897 3.556h8.182v11.556H3.897z"/><path d="M3.898 3.56h8.182v11.556H3.898z" opacity=".3"/><ellipse cx="7.989" cy="1.62" rx="1.151" ry=".347"/><path fill-rule="evenodd" d="M8.02 1.27s.1-.206.331-.265-.1.373-.331.265"/></svg>