<svg xmlns="http://www.w3.org/2000/svg" width="16" height="16"><path fill="#dedede" d="M8.002.365a.5.5 0 0 0-.469.32L5.662 5.539l-5.187.273a.5.5 0 0 0-.291.889l4.035 3.283-1.334 5.022a.5.5 0 0 0 .756.549L8 12.73l4.359 2.824a.5.5 0 0 0 .756-.549l-1.334-5.021 4.035-3.283a.5.5 0 0 0-.291-.889l-5.187-.273L8.467.686a.5.5 0 0 0-.465-.32zM8 2.256l1.521 3.945a.5.5 0 0 0 .439.32l4.215.223L10.9 9.412a.5.5 0 0 0-.168.516l1.084 4.084-3.545-2.297a.5.5 0 0 0-.543 0l-3.545 2.297 1.084-4.084a.5.5 0 0 0-.168-.516L1.824 6.744l4.215-.223a.5.5 0 0 0 .439-.32z"/></svg>