<svg xmlns="http://www.w3.org/2000/svg" viewBox="0 0 22 330"><defs><style id="current-color-scheme" type="text/css">.ColorScheme-Text{color:#eff0f1}</style></defs><g fill="currentColor" stroke-width="1.778"><path d="M10 3c-.17 0-.31.137-.31.307L9.146 5.76q-.348.117-.677.276L6.354 4.69c-.144-.091-.314-.12-.435 0L4.612 5.997a.307.307 0 0 0 0 .435l1.349 2.12q-.161.327-.279.672l-2.453.544c-.17 0-.307.14-.307.31v1.844c0 .17.14.273.307.31l2.453.544q.114.342.271.667l-1.351 2.125c-.092.144-.121.314 0 .435l1.304 1.307c.12.12.317.12.438 0l2.125-1.354q.329.165.677.284l.544 2.453c0 .17.14.307.31.307h1.844c.17 0 .273-.14.31-.307l.544-2.453q.348-.117.677-.276l2.115 1.346c.12.12.314.12.434 0l1.308-1.307c.12-.12.091-.291 0-.435l-1.35-2.12q.162-.327.28-.672l2.453-.544c.166-.037.307-.14.307-.31v-1.844c0-.17-.137-.31-.307-.31l-2.454-.544a6 6 0 0 0-.28-.685l1.34-2.107a.307.307 0 0 0 0-.435L15.917 4.69c-.12-.12-.291-.091-.435 0l-2.117 1.346a6 6 0 0 0-.667-.276l-.544-2.453c-.037-.166-.14-.307-.31-.307zm.922 5.333A2.667 2.667 0 0 1 13.589 11a2.667 2.667 0 0 1-2.667 2.667A2.667 2.667 0 0 1 8.255 11a2.667 2.667 0 0 1 2.667-2.667M10.841 24.947a.31.31 0 0 0-.34.274l-.798 2.382q-.358.079-.702.204l-1.962-1.56c-.134-.106-.3-.153-.433-.045L5.17 27.365a.307.307 0 0 0-.045.433l1.12 2.249a6 6 0 0 0-.347.639l-2.497.285a.31.31 0 0 0-.338.276l-.193 1.834c-.017.17.112.286.274.34l2.382.798q.077.352.2.69l-1.566 1.973c-.106.133-.153.3-.046.433l1.161 1.436a.31.31 0 0 0 .435.046l2.255-1.125q.31.198.644.353l.285 2.497c-.018.17.106.32.276.338l1.833.192c.17.018.287-.111.34-.273l.798-2.383q.358-.078.703-.203l1.962 1.56c.107.132.3.152.432.045l1.437-1.163c.133-.108.122-.28.046-.433l-1.12-2.249a6 6 0 0 0 .347-.639l2.497-.285c.169-.02.32-.106.338-.276l.192-1.834a.31.31 0 0 0-.273-.34l-2.383-.798a6 6 0 0 0-.208-.71l1.554-1.955a.307.307 0 0 0 .046-.433l-1.161-1.436c-.107-.133-.28-.122-.433-.046L13.87 28.32a6 6 0 0 0-.634-.344l-.285-2.497c-.02-.17-.107-.32-.276-.338zm.36 5.4a2.667 2.667 0 0 1 2.373 2.932 2.667 2.667 0 0 1-2.93 2.373 2.667 2.667 0 0 1-2.374-2.93 2.667 2.667 0 0 1 2.93-2.374M11.683 46.983a.31.31 0 0 0-.367.236l-1.042 2.287a6 6 0 0 0-.72.129l-1.788-1.757c-.122-.12-.283-.183-.426-.09l-1.55 1.007a.307.307 0 0 0-.09.425l.878 2.354q-.225.285-.412.6l-2.513.022a.31.31 0 0 0-.365.239l-.383 1.803c-.035.167.081.297.236.367l2.286 1.043q.04.358.127.708L3.79 58.154c-.12.121-.183.282-.09.425l1.004 1.55a.31.31 0 0 0 .428.091l2.36-.883q.287.23.603.419l.022 2.512a.31.31 0 0 0 .24.365l1.803.384c.167.035.296-.081.367-.236l1.043-2.287a6 6 0 0 0 .72-.13l1.788 1.757a.307.307 0 0 0 .425.091l1.55-1.007c.144-.093.15-.266.091-.425l-.879-2.354q.226-.286.413-.6l2.512-.022c.17 0 .33-.072.365-.24l.384-1.803a.31.31 0 0 0-.237-.367l-2.286-1.042a6 6 0 0 0-.133-.728l1.75-1.782a.307.307 0 0 0 .09-.426l-1.004-1.55c-.092-.143-.265-.15-.425-.09l-2.35.877a6 6 0 0 0-.596-.41l-.022-2.512c-.002-.17-.072-.33-.24-.365zm-.207 5.409a2.667 2.667 0 0 1 2.054 3.162 2.667 2.667 0 0 1-3.163 2.054 2.667 2.667 0 0 1-2.054-3.162 2.667 2.667 0 0 1 3.163-2.054M12.517 69.107a.31.31 0 0 0-.39.196l-1.275 2.165a6 6 0 0 0-.73.053l-1.594-1.934c-.109-.131-.262-.211-.414-.134l-1.647.84a.307.307 0 0 0-.135.413l.628 2.433a6 6 0 0 0-.473.553l-2.5-.24a.31.31 0 0 0-.389.199l-.57 1.753c-.052.163.05.304.197.39L5.39 77.07q.002.36.051.718L3.5 79.39c-.131.108-.211.262-.134.413l.837 1.647a.31.31 0 0 0 .416.135l2.44-.631q.261.258.556.48l-.241 2.5a.31.31 0 0 0 .2.388l1.753.57c.162.053.303-.05.39-.196l1.276-2.165a6 6 0 0 0 .729-.054l1.595 1.934a.307.307 0 0 0 .414.135l1.647-.84c.152-.077.177-.248.134-.413l-.628-2.433q.254-.26.473-.553l2.501.24c.17.017.336-.037.388-.2l.57-1.753a.31.31 0 0 0-.196-.39l-2.165-1.275a6 6 0 0 0-.056-.738l1.926-1.59a.307.307 0 0 0 .135-.413l-.837-1.647c-.077-.152-.249-.177-.414-.134l-2.43.626a6 6 0 0 0-.548-.469l.24-2.5c.016-.17-.037-.336-.2-.389zm-.771 5.357a2.667 2.667 0 0 1 1.712 3.36 2.667 2.667 0 0 1-3.36 1.712 2.667 2.667 0 0 1-1.712-3.36 2.667 2.667 0 0 1 3.36-1.712M13.333 91.317a.31.31 0 0 0-.408.154l-1.495 2.02a6 6 0 0 0-.73-.023l-1.385-2.09c-.094-.142-.238-.238-.397-.177l-1.726.662a.307.307 0 0 0-.177.398l.37 2.485a6 6 0 0 0-.528.5l-2.462-.5a.31.31 0 0 0-.407.158l-.75 1.684c-.069.156.018.307.155.408l2.02 1.495q-.035.36-.024.72L3.29 100.6c-.142.095-.238.24-.177.398l.66 1.725a.31.31 0 0 0 .4.178l2.492-.373q.234.285.503.535l-.5 2.462a.31.31 0 0 0 .158.407l1.684.75c.156.07.307-.018.408-.155l1.495-2.02q.365.036.73.024l1.385 2.09c.061.159.238.238.397.177l1.726-.663c.16-.06.202-.228.177-.397l-.37-2.485a6 6 0 0 0 .528-.5l2.462.5c.167.034.338-.002.407-.158l.75-1.685a.31.31 0 0 0-.155-.408l-2.02-1.495q.036-.368.022-.74l2.082-1.379a.307.307 0 0 0 .177-.397l-.66-1.725c-.06-.16-.228-.202-.397-.177l-2.482.369a6 6 0 0 0-.497-.524l.501-2.462c.034-.167-.002-.337-.158-.407zm-1.327 5.247a2.667 2.667 0 0 1 1.352 3.52 2.667 2.667 0 0 1-3.52 1.352 2.667 2.667 0 0 1-1.352-3.52 2.667 2.667 0 0 1 3.52-1.352M14.123 113.612a.31.31 0 0 0-.422.11l-1.697 1.853a6 6 0 0 0-.725-.1l-1.158-2.223c-.079-.15-.212-.261-.377-.217l-1.785.478a.307.307 0 0 0-.218.377l.108 2.51a6 6 0 0 0-.577.443l-2.396-.755a.31.31 0 0 0-.421.114l-.922 1.597c-.086.148-.015.307.11.422l1.853 1.698a6 6 0 0 0-.099.713l-2.233 1.164c-.15.08-.261.212-.217.377l.476 1.784a.31.31 0 0 0 .38.219l2.516-.11q.203.308.445.584l-.755 2.397a.31.31 0 0 0 .114.42l1.597.923c.148.085.307.014.422-.111l1.698-1.853q.36.074.724.1l1.159 2.223a.307.307 0 0 0 .376.217l1.786-.478c.165-.044.225-.206.217-.377l-.108-2.51q.303-.202.577-.442l2.397.755c.162.051.336.033.421-.115l.922-1.597a.31.31 0 0 0-.111-.422l-1.853-1.698q.074-.364.1-.733l2.214-1.154a.307.307 0 0 0 .218-.377l-.477-1.784c-.044-.165-.206-.225-.376-.218l-2.507.107q-.2-.3-.44-.572l.756-2.397c.05-.162.033-.335-.115-.42zm-1.868 5.08a2.667 2.667 0 0 1 .976 3.642 2.667 2.667 0 0 1-3.643.976 2.667 2.667 0 0 1-.976-3.643 2.667 2.667 0 0 1 3.643-.976M14.878 135.988a.31.31 0 0 0-.431.066l-1.882 1.665a6 6 0 0 0-.71-.175l-.92-2.332c-.062-.158-.183-.282-.352-.256l-1.826.29a.307.307 0 0 0-.255.351l-.155 2.508q-.322.17-.62.38l-2.305-1.002a.31.31 0 0 0-.43.07l-1.084 1.492c-.1.138-.047.304.066.431l1.665 1.883q-.108.344-.173.698l-2.342.925c-.159.063-.282.183-.256.352l.287 1.824a.31.31 0 0 0 .354.257l2.515.154q.17.327.381.628L5.404 148.5c-.1.138-.069.33.07.43l1.491 1.085c.138.1.304.046.432-.067l1.882-1.665q.35.112.71.175l.92 2.332a.307.307 0 0 0 .351.256l1.826-.29c.168-.026.245-.181.256-.351l.154-2.508q.324-.17.62-.38l2.305 1.002c.157.068.33.068.431-.07l1.084-1.492a.31.31 0 0 0-.067-.431l-1.664-1.883q.11-.353.175-.719l2.323-.916a.307.307 0 0 0 .256-.352l-.287-1.824c-.027-.169-.182-.246-.352-.256l-2.504-.155a6 6 0 0 0-.377-.616l1.001-2.304c.068-.157.068-.33-.07-.43zm-2.389 4.856a2.667 2.667 0 0 1 .59 3.725 2.667 2.667 0 0 1-3.725.59 2.667 2.667 0 0 1-.59-3.725 2.667 2.667 0 0 1 3.725-.59M15.59 158.44a.31.31 0 0 0-.436.022l-2.046 1.458a6 6 0 0 0-.688-.248l-.67-2.415c-.046-.164-.154-.3-.324-.291l-1.846.097a.307.307 0 0 0-.291.323l-.416 2.478q-.338.135-.657.313L6.03 158.94a.31.31 0 0 0-.436.024l-1.233 1.37c-.114.127-.078.298.02.436l1.46 2.046q-.145.33-.245.677l-2.426.675c-.165.046-.3.153-.292.323l.095 1.844a.31.31 0 0 0 .325.293l2.486.416q.134.343.313.664l-1.237 2.187a.31.31 0 0 0 .025.436l1.37 1.233c.127.114.297.078.436-.02l2.046-1.46q.335.147.688.248l.67 2.416c.01.17.153.3.323.291l1.847-.097c.17-.009.262-.155.29-.323l.417-2.478q.338-.135.656-.313l2.187 1.237c.149.085.322.103.436-.024l1.234-1.37a.31.31 0 0 0-.021-.437l-1.459-2.045q.148-.34.25-.698l2.406-.668c.17-.009.3-.153.29-.323l-.094-1.845c-.01-.17-.155-.262-.323-.29l-2.474-.417a6 6 0 0 0-.311-.651l1.237-2.187c.083-.149.102-.322-.025-.436zm-2.884 4.58a2.667 2.667 0 0 1 .197 3.767 2.667 2.667 0 0 1-3.766.197 2.667 2.667 0 0 1-.197-3.766 2.667 2.667 0 0 1 3.766-.197M16.25 180.965a.31.31 0 0 0-.436-.024l-2.187 1.237a6 6 0 0 0-.658-.319l-.415-2.472c-.028-.168-.12-.315-.29-.324l-1.847-.096a.307.307 0 0 0-.323.29l-.673 2.422a6 6 0 0 0-.685.242l-2.046-1.459a.31.31 0 0 0-.436-.02l-1.37 1.233c-.127.114-.109.287-.025.436l1.237 2.187q-.179.314-.314.647l-2.484.418c-.168.028-.314.12-.323.29l-.099 1.845a.31.31 0 0 0 .293.325l2.428.673q.098.355.243.693l-1.46 2.046a.31.31 0 0 0-.02.436l1.233 1.37c.114.127.288.109.436.025l2.187-1.237q.319.18.659.318l.414 2.473c-.009.17.12.314.29.323l1.847.097c.17.009.278-.127.323-.291l.673-2.421a6 6 0 0 0 .686-.242l2.046 1.458c.138.1.309.136.436.021l1.37-1.233a.31.31 0 0 0 .025-.436l-1.237-2.187q.182-.323.32-.668l2.463-.413c.17.01.315-.12.324-.29l.098-1.845c.01-.17-.127-.278-.29-.323l-2.418-.673a6 6 0 0 0-.24-.68l1.458-2.046c.099-.139.135-.309.021-.436zm-3.347 4.254a2.667 2.667 0 0 1-.197 3.766 2.667 2.667 0 0 1-3.766-.197 2.667 2.667 0 0 1 .197-3.766 2.667 2.667 0 0 1 3.766.197M16.852 203.556a.31.31 0 0 0-.43-.07l-2.305 1.001a6 6 0 0 0-.622-.385l-.153-2.502c-.011-.17-.088-.325-.256-.352l-1.826-.29a.307.307 0 0 0-.352.256l-.922 2.338q-.36.06-.707.17l-1.882-1.666a.31.31 0 0 0-.432-.066l-1.491 1.084c-.138.1-.138.274-.07.43l1.001 2.305q-.21.294-.38.61l-2.514.157c-.17.01-.325.087-.351.255l-.291 1.824a.31.31 0 0 0 .257.354l2.345.923q.06.363.168.715l-1.665 1.882a.31.31 0 0 0-.066.431l1.083 1.492c.1.138.275.138.431.07l2.305-1.002q.298.213.621.386l.154 2.502a.307.307 0 0 0 .255.352l1.826.29c.169.026.29-.098.352-.256l.922-2.338q.36-.06.708-.17l1.882 1.666c.127.113.293.166.431.066l1.492-1.084c.138-.1.17-.293.07-.43l-1.002-2.305q.215-.302.39-.63l2.492-.153a.307.307 0 0 0 .352-.256l.29-1.824c.027-.168-.097-.29-.255-.352l-2.334-.921a6 6 0 0 0-.168-.702l1.664-1.882c.113-.128.167-.293.067-.431zm-3.773 3.88a2.667 2.667 0 0 1-.59 3.725 2.667 2.667 0 0 1-3.725-.59 2.667 2.667 0 0 1 .59-3.724 2.667 2.667 0 0 1 3.725.59M17.389 226.206a.31.31 0 0 0-.421-.114l-2.397.755a6 6 0 0 0-.577-.449l.108-2.504c.007-.17-.053-.333-.217-.377l-1.786-.478a.307.307 0 0 0-.377.217l-1.16 2.228a6 6 0 0 0-.722.095l-1.698-1.852a.31.31 0 0 0-.422-.112l-1.597.922c-.147.086-.166.259-.114.421l.755 2.397q-.24.27-.442.568l-2.516-.108c-.17-.007-.333.053-.377.217l-.48 1.784a.31.31 0 0 0 .22.379l2.234 1.163q.022.367.093.728l-1.852 1.698a.31.31 0 0 0-.112.422l.922 1.597c.086.147.259.166.421.115l2.397-.756q.274.243.578.449l-.11 2.504a.307.307 0 0 0 .218.377l1.786.478c.165.044.298-.066.377-.217l1.161-2.228q.364-.024.721-.095l1.698 1.853c.115.125.274.196.422.11l1.597-.921a.31.31 0 0 0 .115-.421l-.755-2.397q.245-.277.452-.586l2.495.108a.307.307 0 0 0 .377-.217l.48-1.784c.044-.164-.067-.297-.218-.376l-2.224-1.16a6 6 0 0 0-.095-.716l1.853-1.698c.125-.115.196-.274.11-.422zm-4.158 3.465a2.667 2.667 0 0 1-.976 3.643 2.667 2.667 0 0 1-3.643-.976 2.667 2.667 0 0 1 .976-3.643 2.667 2.667 0 0 1 3.643.976M17.855 248.91a.31.31 0 0 0-.407-.159l-2.462.5a6 6 0 0 0-.528-.506l.37-2.479c.025-.169-.018-.336-.177-.397l-1.726-.663a.307.307 0 0 0-.397.177l-1.388 2.095a6 6 0 0 0-.727.018l-1.495-2.02a.31.31 0 0 0-.408-.154l-1.684.75c-.156.07-.192.24-.159.406l.501 2.463a6 6 0 0 0-.499.519l-2.49-.37c-.17-.026-.337.017-.398.176l-.664 1.724a.31.31 0 0 0 .178.4l2.102 1.39a5.5 5.5 0 0 0 .016.734l-2.02 1.495a.31.31 0 0 0-.155.408l.75 1.684c.07.156.24.192.407.158l2.462-.5q.247.271.528.506l-.37 2.48a.307.307 0 0 0 .177.397l1.726.662c.159.061.303-.035.397-.177l1.388-2.094q.364.014.727-.019l1.495 2.02c.101.137.252.224.408.155l1.685-.75a.31.31 0 0 0 .158-.407l-.5-2.463q.273-.25.51-.535l2.47.368a.307.307 0 0 0 .398-.177l.664-1.723c.06-.16-.035-.303-.177-.398l-2.091-1.386q.015-.361-.02-.721l2.02-1.495c.137-.102.225-.252.155-.408zm-4.497 3.01a2.667 2.667 0 0 1-1.352 3.521 2.667 2.667 0 0 1-3.52-1.351 2.667 2.667 0 0 1 1.35-3.52 2.667 2.667 0 0 1 3.522 1.35M18.245 271.657a.31.31 0 0 0-.388-.2l-2.501.24a6 6 0 0 0-.472-.558l.627-2.427c.042-.165.017-.336-.134-.414l-1.648-.84a.307.307 0 0 0-.413.135l-1.6 1.938a6 6 0 0 0-.725-.057l-1.275-2.165a.31.31 0 0 0-.39-.197l-1.753.57c-.163.053-.216.218-.2.388l.24 2.501a6 6 0 0 0-.55.464l-2.439-.629c-.165-.042-.336-.017-.413.135l-.84 1.644a.31.31 0 0 0 .135.416l1.944 1.603a5.5 5.5 0 0 0-.06.732l-2.165 1.275a.31.31 0 0 0-.197.39l.57 1.753c.053.163.218.217.388.2l2.501-.24q.217.295.472.558l-.627 2.428a.307.307 0 0 0 .134.413l1.648.84c.151.077.305-.003.413-.135l1.6-1.938q.36.053.724.058l1.276 2.165c.086.147.227.249.39.196l1.753-.57a.31.31 0 0 0 .2-.388l-.24-2.5q.298-.222.564-.48l2.418.624a.307.307 0 0 0 .414-.134l.84-1.645c.078-.152-.003-.305-.134-.413l-1.935-1.598q.052-.357.057-.72l2.164-1.275c.147-.087.25-.227.197-.39zm-4.787 2.525a2.667 2.667 0 0 1-1.713 3.36 2.667 2.667 0 0 1-3.36-1.712 2.667 2.667 0 0 1 1.712-3.36 2.667 2.667 0 0 1 3.36 1.712M18.555 294.44a.31.31 0 0 0-.365-.238l-2.513-.023a6 6 0 0 0-.41-.605l.877-2.348c.059-.16.052-.332-.09-.425l-1.551-1.007a.307.307 0 0 0-.426.09l-1.793 1.76a6 6 0 0 0-.715-.132l-1.042-2.287a.31.31 0 0 0-.367-.236l-1.804.383c-.166.036-.237.195-.239.365l-.022 2.513a6 6 0 0 0-.596.404l-2.36-.88c-.16-.06-.332-.053-.425.09l-1.007 1.548a.31.31 0 0 0 .09.428l1.767 1.797a5.5 5.5 0 0 0-.137.72L3.141 297.4a.31.31 0 0 0-.236.367l.383 1.804c.035.166.194.237.365.239l2.513.022q.185.316.41.605l-.877 2.348a.307.307 0 0 0 .09.426l1.55 1.007c.144.093.305.029.426-.09l1.793-1.76q.354.09.715.132l1.043 2.287c.07.155.2.271.367.236l1.803-.384a.31.31 0 0 0 .24-.365l.022-2.512q.32-.19.611-.418l2.34.874a.307.307 0 0 0 .425-.09l1.008-1.548c.093-.143.029-.304-.09-.426l-1.758-1.79q.09-.35.132-.71l2.286-1.043c.155-.07.272-.2.236-.367zm-5.025 2.011a2.667 2.667 0 0 1-2.054 3.163 2.667 2.667 0 0 1-3.163-2.054 2.667 2.667 0 0 1 2.054-3.163 2.667 2.667 0 0 1 3.163 2.054M18.781 317.253a.31.31 0 0 0-.338-.276l-2.497-.285a6 6 0 0 0-.345-.645l1.118-2.243c.076-.153.087-.326-.045-.433l-1.437-1.163a.307.307 0 0 0-.433.045l-1.967 1.563a6 6 0 0 0-.697-.207l-.798-2.383a.31.31 0 0 0-.34-.273l-1.834.193c-.17.018-.256.169-.276.338l-.285 2.497q-.328.148-.634.339l-2.255-1.122c-.153-.076-.325-.087-.432.045l-1.164 1.434a.31.31 0 0 0 .046.435l1.568 1.972a5.5 5.5 0 0 0-.211.703l-2.383.798a.31.31 0 0 0-.273.34l.193 1.834c.018.17.168.256.338.276l2.496.285q.152.333.345.644l-1.117 2.244a.307.307 0 0 0 .045.432l1.437 1.164c.132.107.299.06.432-.045l1.967-1.564q.341.127.698.207l.797 2.383c.054.162.17.291.34.273l1.834-.192a.31.31 0 0 0 .276-.338l.285-2.497q.338-.154.652-.351l2.235 1.113a.307.307 0 0 0 .433-.045l1.164-1.434c.107-.133.06-.3-.046-.433l-1.56-1.965q.126-.339.205-.691l2.383-.798c.161-.055.291-.17.273-.34zm-5.208 1.474a2.667 2.667 0 0 1-2.373 2.93 2.667 2.667 0 0 1-2.93-2.372 2.667 2.667 0 0 1 2.373-2.931 2.667 2.667 0 0 1 2.93 2.373" class="ColorScheme-Text"/></g></svg>