<svg xmlns="http://www.w3.org/2000/svg" xmlns:xlink="http://www.w3.org/1999/xlink" width="64" height="64"><defs><linearGradient id="b"><stop stop-color="#2a2c2f"/><stop offset="1" stop-color="#424649"/></linearGradient><linearGradient id="a"><stop stop-color="#c6cdd1"/><stop offset="1" stop-color="#e0e5e7"/></linearGradient><linearGradient id="c"><stop stop-color="#7e8f9e"/><stop offset="1" stop-color="#84ced5"/></linearGradient><linearGradient id="j"><stop stop-color="#e4a56d"/><stop offset="1" stop-color="#a7bd78"/></linearGradient><linearGradient id="d"><stop stop-color="#c3a278"/><stop offset="1" stop-color="#68a"/></linearGradient><linearGradient id="k"><stop stop-color="#6588af"/><stop offset="1" stop-color="#8ba8cd"/></linearGradient><linearGradient id="e"><stop stop-color="#89ad8b"/><stop offset="1" stop-color="#82b3c7"/></linearGradient><linearGradient id="l"><stop stop-color="#e1b16f"/><stop offset="1" stop-color="#99bf83"/></linearGradient><linearGradient id="f"><stop stop-color="#99c487"/><stop offset="1" stop-color="#b4d99e"/></linearGradient><linearGradient id="m"><stop stop-color="#75d5c7"/><stop offset="1" stop-color="#66afb9"/></linearGradient><linearGradient id="g"><stop stop-color="#5c7b9e"/><stop offset="1" stop-color="#839dc0"/></linearGradient><linearGradient id="h"><stop stop-color="#7fbcc6"/><stop offset="1" stop-color="#8ee4e3"/></linearGradient><linearGradient id="i"><stop stop-color="#84d5d7"/><stop offset="1" stop-color="#84a8ba"/></linearGradient><linearGradient xlink:href="#a" id="n" x2="0" y1="547.798" y2="536.798" gradientTransform="matrix(1.16667 0 0 1.0909 -444.667 -541.598)" gradientUnits="userSpaceOnUse"/><linearGradient xlink:href="#b" id="o" x2="0" y1="536.798" y2="503.798" gradientTransform="matrix(1.08333 0 0 1.0909 -410.619 -541.598)" gradientUnits="userSpaceOnUse"/><linearGradient xlink:href="#c" id="p" x2="0" y1="541.798" y2="489.798" gradientTransform="matrix(1.0871 0 0 1.1 -420.941 -539.778)" gradientUnits="userSpaceOnUse"/><linearGradient xlink:href="#d" id="r" x1="404.571" x2="421.571" gradientTransform="matrix(1.07952 0 0 1.14286 -417.744 -562.483)" gradientUnits="userSpaceOnUse"/><linearGradient xlink:href="#e" id="t" x1="421.571" x2="438.571" gradientTransform="matrix(1.04899 0 0 1.1 -404.222 -539.778)" gradientUnits="userSpaceOnUse"/><linearGradient xlink:href="#f" id="v" x1="404.571" x2="391.571" y1="510.798" y2="498.798" gradientTransform="matrix(1.1 0 0 1.1 -426.028 -539.778)" gradientUnits="userSpaceOnUse"/><linearGradient xlink:href="#g" id="x" x1="428.571" x2="438.571" y1="495.798" y2="504.798" gradientTransform="matrix(1.04899 0 0 1.0625 -404.221 -521.036)" gradientUnits="userSpaceOnUse"/><linearGradient xlink:href="#h" id="y" x1="421.571" x2="406.571" gradientTransform="matrix(1.0871 0 0 1.1 -420.941 -539.778)" gradientUnits="userSpaceOnUse"/><linearGradient xlink:href="#i" id="z" x1="421.571" x2="436.571" gradientTransform="matrix(1.0871 0 0 1.1 -420.941 -539.778)" gradientUnits="userSpaceOnUse"/><linearGradient xlink:href="#j" id="q" x1="394.571" x2="404.571" y1="535.798" y2="522.798" gradientTransform="matrix(1.1 0 0 1.14286 -426.028 -562.483)" gradientUnits="userSpaceOnUse"/><linearGradient xlink:href="#k" id="s" x1="430.571" x2="437.5" y1="536.798" y2="524.798" gradientTransform="matrix(1.1078 0 0 1.14286 -430.02 -562.483)" gradientUnits="userSpaceOnUse"/><linearGradient xlink:href="#l" id="u" x1="387.571" x2="401.571" y1="525.798" y2="513.798" gradientTransform="matrix(1.1 0 0 1.27514 -426.028 -629.216)" gradientUnits="userSpaceOnUse"/><linearGradient xlink:href="#m" id="w" x1="404.571" x2="421.571" y1="501.798" y2="501.616" gradientTransform="matrix(1.11765 0 0 1.1 -433.168 -539.778)" gradientUnits="userSpaceOnUse"/></defs><path d="M25 44v12h14V44Z" style="fill:url(#n)"/><path d="M12 8a5.98 5.98 0 0 0-5.53 3.66A6 6 0 0 0 6 14v27a5.98 5.98 0 0 0 3.66 5.53A6 6 0 0 0 12 47h40a5.98 5.98 0 0 0 5.53-3.66A6 6 0 0 0 58 41V14a5.98 5.98 0 0 0-3.66-5.53A6 6 0 0 0 52 8Z" style="fill:url(#o)"/><path d="M12 10c-.554 0-1.081.11-1.56.312a4 4 0 0 0-1.27.858c-.361.361-.655.79-.857 1.27A4 4 0 0 0 8 14v29h47.832V13.162c-.052-.24-.05-.5-.144-.723a4 4 0 0 0-.857-1.27 4 4 0 0 0-1.27-.857 4 4 0 0 0-1.56-.312Z" style="fill:url(#p)"/><path d="M19 27 8 36.41V43h11z" style="fill:url(#q);fill-rule:evenodd"/><path d="M19 28v15h18.352Z" style="fill:url(#r);fill-rule:evenodd"/><path d="M56 27 37 43h19z" style="fill:url(#s);fill-rule:evenodd"/><path d="M38 36.4V12l18 15-18 16Z" style="fill:url(#t);fill-rule:evenodd"/><path d="M8 18v21l11-11Z" style="fill:url(#u);fill-rule:evenodd"/><path d="M12 10c-.554 0-1.081.11-1.56.312a4 4 0 0 0-1.27.858c-.361.361-.655.79-.857 1.27A4 4 0 0 0 8 14v4.543L19 28V10Z" style="fill:url(#v);fill-rule:evenodd"/><path d="M19 10v18l19-16-3-2Z" style="fill:url(#w);fill-rule:evenodd"/><path d="M56 27V14a4 4 0 0 0-.312-1.56 4 4 0 0 0-.857-1.27 4 4 0 0 0-1.27-.858 4 4 0 0 0-1.56-.312H40.549L38 12Z" style="fill:url(#x);fill-rule:evenodd"/><path d="m35 10 3 2v-2z" style="fill:url(#y);fill-rule:evenodd"/><path d="M38 10v2l3-2z" style="fill:url(#z);fill-rule:evenodd"/><path d="M20 55h24v1H20Z" style="fill:#99a1a7"/><path d="M10 12h20v17H10Z" style="fill:#fff;fill-opacity:.78399999"/><path d="M11 13v4h4.167v-3h-1.042l-1.042-1z" style="fill:#3580ca"/><path d="M19 13v5h4v-3l-2-2z" style="fill:#f95"/><path d="m21 13 2 2h-2z" style="fill:#d45500;fill-rule:evenodd"/><path d="M11 14h5v4h-5z" style="fill:#7aabdc"/><path d="M25 13v5h4v-3l-2-2z" style="fill:#71c837"/><path d="m27 13 2 2h-2z" style="fill:#447821;fill-rule:evenodd"/><g transform="translate(-376.571 -491.798)"><path d="M384.571 530.798h48v4h-48z" style="fill:#fff;fill-opacity:.78399999"/><circle cx="429.571" cy="532.798" r="1" style="fill:#4d4d4d"/><path d="M386.571 531.798v1h1v-1zm1 1v1h1v-1z" style="fill:#4d4d4d"/></g></svg>