<svg xmlns="http://www.w3.org/2000/svg" viewBox="0 0 64 64"><path id="a" fill="url(#a)" d="M30.9 10A20.86 20.86 0 0 0 10 30.9v1c0-7.3 3.72-13.71 9.38-17.45.3.2.68.29 1 .47.31.19.66.3.99.47.32-.17.62-.37.96-.52h-.02A20.9 20.9 0 0 1 30.9 13h2.18c3.08 0 5.98.68 8.6 1.86h-.02c.34.16.64.36.96.53.33-.17.68-.28 1-.47.3-.18.69-.27 1-.47A20.85 20.85 0 0 1 54 31.91v-1C54 19.32 44.68 10 33.1 10z"/><path id="b" fill="url(#b)" d="M32 6C18.7 6 8 16.7 8 30v7a1 1 0 0 0 1 1h2a1 1 0 0 0 1-1v-9c0-11.08 8.92-20 20-20s20 8.92 20 20v9a1 1 0 0 0 1 1h2a1 1 0 0 0 1-1v-7C56 16.7 45.3 6 32 6"/><path fill="#1a89f3" d="M32 7c-11.08 0-20 8.92-20 20v1c0-11.08 8.92-20 20-20s20 8.92 20 20v-1c0-11.08-8.92-20-20-20M8 36v1a1 1 0 0 0 1 1h2a1 1 0 0 0 1-1v-1a1 1 0 0 1-1 1H9a1 1 0 0 1-1-1m44 0v1a1 1 0 0 0 1 1h2a1 1 0 0 0 1-1v-1a1 1 0 0 1-1 1h-2a1 1 0 0 1-1-1"/><path id="c" fill="url(#c)" d="M16 36s-3 0-3 2c0 0-2 5-5 5a1 1 0 0 0-1 1v6c0 .55.45 1 1 1 2 0 5 5 5 5 0 2 3 2 3 2h1s3 0 3-2V38c0-2-3-2-3-2zm31 0s-3 0-3 2v18c0 2 3 2 3 2h1s3 0 3-2c0 0 2-5 5-5 .55 0 1-.448 1-1v-6c0-.55-.448-1-1-1-3 0-5-5-5-5 0-2-3-2-3-2z"/><path id="d" fill="url(#d)" fill-rule="evenodd" d="M14 36.46v21.07c-.55-.29-1-.76-1-1.53 0 0-2-5-5-5a1 1 0 0 1-1-1v-6a1 1 0 0 1 1-1c3 0 5-5 5-5 0-.77.45-1.24 1-1.54"/><path id="e" fill="url(#e)" fill-rule="evenodd" d="M50 36.46v21.07c.55-.29 1-.76 1-1.53 0 0 2-5 5-5a1 1 0 0 0 1-1v-6a1 1 0 0 0-1-1c-3 0-5-5-5-5 0-.77-.45-1.24-1-1.54"/><path fill="#1c1e20" d="M7 49v1c0 .55.45 1 1 1 2 0 5 5 5 5 0 2 3 2 3 2h1s3 0 3-2v-1c0 2-3 2-3 2h-1s-3 0-3-2c0 0-2-5-5-5a1 1 0 0 1-1-1m50 0c0 .55-.448 1-1 1-3 0-5 5-5 5 0 2-3 2-3 2h-1s-3 0-3-2v1c0 2 3 2 3 2h1s3 0 3-2c0 0 2-5 5-5 .55 0 1-.448 1-1z"/><path fill="#8ca5ad" d="M9 38v4h2v-4zm44 0v4h2v-4z"/><path fill="#afc0c6" d="M14 36.47c-.55.29-1 .76-1 1.5v18c0 .77.45 1.24 1 1.5zm36.01 0v21.06c.54-.29 1-.76 1-1.5V38c0-.77-.46-1.24-1-1.5zM10 41a1 1 0 0 0-1 1v11a1 1 0 0 0 2 0V42c0-.55-.45-1-1-1m44 0c-.55 0-1 .45-1 1v11c0 .55.45 1 1 1s1-.45 1-1V42c0-.55-.45-1-1-1"/><path fill="#2b2d30" d="M10 46a1 1 0 0 0-1 1 1 1 0 0 0 1 1 1 1 0 0 0 1-1 1 1 0 0 0-1-1m44 0a1 1 0 0 0-1 1 1 1 0 0 0 1 1 1 1 0 0 0 1-1 1 1 0 0 0-1-1"/><path id="f" fill="url(#f)" d="M59 46c0-1.5-1-2-2-2v5.5c0 1.933-1.5 3.5-5.5 3.5H39v2h13c4.5 0 6.5-2.5 6.5-4.5.5-.5.5-1.752.5-2.5z"/><path id="g" fill="url(#g)" d="M35 52h4c1.108 0 2 .892 2 2s-.892 2-2 2h-4c-1.108 0-2-.892-2-2s.892-2 2-2"/><path fill="#1c1e20" fill-rule="evenodd" d="m32 11-1 2h2zm1 2h.1c1.2 0 2.4.11 3.56.31L36 12l-1 1-1-1Zm-2 0-1-1-1 1-1-1-.66 1.31c1.16-.2 2.35-.31 3.57-.31Zm3 41.5-.527.791c.367.434.915.709 1.527.709Zm1 1.5h2l-1-1.5zm2 0h2l-1-1.5zm2 0c.612 0 1.16-.275 1.527-.709L40 54.5Z"/></svg>