<svg xmlns="http://www.w3.org/2000/svg" xmlns:xlink="http://www.w3.org/1999/xlink" width="64" height="64"><defs><linearGradient id="a"><stop style="stop-color:#2a2c2f"/><stop offset="1" style="stop-color:#424649"/></linearGradient><linearGradient xlink:href="#a" id="g" x2="0" y1="58" y2="36" gradientUnits="userSpaceOnUse"/><linearGradient xlink:href="#a" id="f" x2="0" y1="58" y2="36" gradientTransform="matrix(-1 0 0 1 439.571 491.798)" gradientUnits="userSpaceOnUse"/><linearGradient xlink:href="#a" id="d" x2="0" y1="16" y2="6" gradientUnits="userSpaceOnUse"/><linearGradient xlink:href="#b" id="e" x2="0" y1="28" y2="6" gradientTransform="translate(376.571 491.798)" gradientUnits="userSpaceOnUse"/><linearGradient id="b"><stop style="stop-color:#197cf1"/><stop offset="1" style="stop-color:#20bcfa"/></linearGradient><linearGradient xlink:href="#c" id="h" x1="49" x2="56" y1="37" y2="44" gradientTransform="translate(376.571 491.798)" gradientUnits="userSpaceOnUse"/><linearGradient id="c"><stop style="stop-color:#292c2f"/><stop offset="1" style="stop-opacity:0"/></linearGradient><linearGradient xlink:href="#c" id="i" x1="56" x2="49" y1="37" y2="44" gradientTransform="matrix(-1 0 0 1 439.571 491.798)" gradientUnits="userSpaceOnUse"/></defs><g transform="translate(-376.571 -491.798)"><path d="M30.908 10A20.86 20.86 0 0 0 10 30.908v1c0-7.314 3.723-13.72 9.379-17.455.305.202.683.285 1 .47.313.185.665.298.988.466.325-.167.627-.37.961-.52l-.02-.008a20.9 20.9 0 0 1 8.6-1.861h2.184c3.074 0 5.976.68 8.6 1.861l-.02.008c.334.15.636.353.96.52.324-.168.676-.281.99-.465.316-.186.694-.27 1-.47A20.85 20.85 0 0 1 54 31.907v-1A20.86 20.86 0 0 0 33.092 10z" style="fill:url(#d)" transform="translate(376.571 491.798)"/><path d="M408.571 497.798c-13.296 0-24 10.704-24 24v7c0 .554.446 1 1 1h2c.554 0 1-.446 1-1v-9c0-11.08 8.92-20 20-20s20 8.92 20 20v9c0 .554.446 1 1 1h2c.554 0 1-.446 1-1v-7c0-13.296-10.704-24-24-24" style="fill:url(#e)"/><path d="M32 7c-11.08 0-20 8.92-20 20v1c0-11.08 8.92-20 20-20s20 8.92 20 20v-1c0-11.08-8.92-20-20-20M8 36v1c0 .554.446 1 1 1h2c.554 0 1-.446 1-1v-1c0 .554-.446 1-1 1H9c-.554 0-1-.446-1-1m44 0v1c0 .554.446 1 1 1h2c.554 0 1-.446 1-1v-1c0 .554-.446 1-1 1h-2c-.554 0-1-.446-1-1" style="fill:#1a89f3" transform="translate(376.571 491.798)"/><path d="M423.571 527.798s3 0 3 2c0 0 2 5 5 5 .554 0 1 .446 1 1v6c0 .554-.446 1-1 1-3 0-5 5-5 5 0 2-3 2-3 2h-1s-3 0-3-2v-18c0-2 3-2 3-2z" style="fill:url(#f)"/><path d="M432.571 540.798v1c0 .554-.446 1-1 1-3 0-5 5-5 5 0 2-3 2-3 2h-1s-3 0-3-2v-1c0 2 3 2 3 2h1s3 0 3-2c0 0 2-5 5-5 .554 0 1-.446 1-1" style="fill:#1c1e20"/><rect width="2" height="4" x="385.571" y="529.798" rx="0" style="fill:#8ca5ad"/><path d="M16 36s-3 0-3 2c0 0-2 5-5 5-.554 0-1 .446-1 1v6c0 .554.446 1 1 1 3 0 5 5 5 5 0 2 3 2 3 2h1s3 0 3-2V38c0-2-3-2-3-2z" style="fill:url(#g)" transform="translate(376.571 491.798)"/><path d="M383.571 540.798v1c0 .554.446 1 1 1 3 0 5 5 5 5 0 2 3 2 3 2h1s3 0 3-2v-1c0 2-3 2-3 2h-1s-3 0-3-2c0 0-2-5-5-5-.554 0-1-.446-1-1" style="fill:#1c1e20"/><rect width="2" height="13" x="385.571" y="532.798" rx="1" style="fill:#afc0c6"/><circle cx="386.571" cy="538.798" r="1" style="fill:#2b2d30"/><rect width="2" height="4" x="-431.571" y="529.798" rx="0" style="fill:#8ca5ad" transform="scale(-1 1)"/><rect width="2" height="13" x="-431.571" y="532.798" rx="1" style="fill:#afc0c6" transform="scale(-1 1)"/><circle cx="-430.571" cy="538.798" r="1" style="fill:#2b2d30" transform="scale(-1 1)"/><path d="M13.994 36.469c-.547.29-.994.76-.994 1.531v18c0 .77.447 1.24.994 1.531 0-.01.006-.02.006-.031v-21c0-.011-.005-.02-.006-.031" style="fill:#afc0c6" transform="translate(376.571 491.798)"/><path d="M425.577 528.267c.548.29.994.76.994 1.531v18c0 .77-.446 1.24-.994 1.531 0-.01-.006-.02-.006-.031v-21c0-.011.005-.02.006-.031" style="fill:#afc0c6"/><path d="m32 11-1 2h2zm1 2h.092c1.217 0 2.407.11 3.564.313L36 12l-1 1-1-1zm-2 0-1-1-1 1-1-1-.656 1.313A20.7 20.7 0 0 1 30.908 13z" style="fill:#1c1e20;fill-rule:evenodd" transform="translate(376.571 491.798)"/><path d="M425.571 528.265v21.066c.55-.29 1-.76 1-1.533 0 0 2-5 5-5 .554 0 1-.446 1-1v-6c0-.554-.446-1-1-1-3 0-5-5-5-5 0-.773-.45-1.242-1-1.533" style="fill:url(#h);fill-rule:evenodd"/><path d="M390.571 528.265v21.066c-.55-.29-1-.76-1-1.533 0 0-2-5-5-5-.554 0-1-.446-1-1v-6c0-.554.446-1 1-1 3 0 5-5 5-5 0-.773.45-1.242 1-1.533" style="fill:url(#i);fill-rule:evenodd"/></g></svg>