<svg xmlns="http://www.w3.org/2000/svg" xmlns:xlink="http://www.w3.org/1999/xlink" width="64" height="64"><defs><linearGradient id="a"><stop style="stop-color:#63984b"/><stop offset="1" style="stop-color:#8fc278"/></linearGradient><linearGradient xlink:href="#a" id="b" x1="382.571" x2="434.571" y1="523.798" y2="523.798" gradientUnits="userSpaceOnUse"/><linearGradient id="c" x1="32" x2="32" y1="11" y2="53" gradientTransform="translate(377.813 493.007)scale(.97059)" gradientUnits="userSpaceOnUse"><stop offset="0" stop-color="#eac57b"/><stop offset="1" stop-color="#ebcb8b"/></linearGradient><linearGradient id="e" x1="8.467" x2="8.467" y1="284.83" y2="292.24" gradientTransform="translate(0 -280.1)" gradientUnits="userSpaceOnUse"><stop offset="0" stop-color="#4c566a"/><stop offset="1" stop-color="#3b4252"/></linearGradient><filter id="d" width="1.12" height="1.12" x="-.06" y="-.06" color-interpolation-filters="sRGB"><feGaussianBlur stdDeviation=".185"/></filter></defs><g transform="translate(-376.571 -491.798)"><circle cx="408.571" cy="523.798" r="26" fill-rule="evenodd" style="fill:url(#b);fill-opacity:1"/><path fill="url(#c)" d="M396.254 507.598v3.85h-3.883v1.941h3.883v1.941h-3.883v1.942h3.883v1.94h-3.883v1.942h3.883v1.941h-3.883v1.941h3.883v1.941h-3.883v1.942h3.883v1.94h-3.883v1.942h3.883v1.941h-3.883v1.941h3.883v3.915h1.94v-3.915h1.942v3.915h1.941v-3.915h1.942v3.915h1.94v-3.915h1.942v3.915h1.941v-3.915h1.941v3.915h1.941v-3.915h1.942v3.915h1.94v-3.915h1.942v3.915h1.941v-3.915h3.882v-1.94h-3.882V532.8h3.882v-1.941h-3.882v-1.941h3.882v-1.942h-3.882v-1.94h3.882v-1.942h-3.882v-1.941h3.882v-1.941h-3.882v-1.941h3.882v-1.942h-3.882v-1.94h3.882v-1.942h-3.882v-3.85h-1.941v3.85h-1.941v-3.85h-1.941v3.85h-1.942v-3.85h-1.94v3.85h-1.942v-3.85h-1.941v3.85h-1.941v-3.85h-1.941v3.85h-1.942v-3.85h-1.941v3.85h-1.941v-3.85zm1.94 5.79h1.942v1.942h-1.941zm3.883 0h1.941v1.942h-1.94zm3.882 0h1.942v1.942h-1.942zm3.883 0h1.941v1.942h-1.941zm3.882 0h1.941v1.942h-1.94zm3.882 0h1.942v1.942h-1.942zm-19.411 3.883h1.94v1.941h-1.94zm3.882 0h1.941v1.941h-1.941zm3.882 0h1.941v1.941h-1.94zm3.882 0h1.942v1.941h-1.942zm3.883 0h1.94v1.941h-1.94zm3.882 0h1.941v1.941h-1.941Zm-19.412 3.883h1.941v1.94h-1.94zm3.882 0h1.942v1.94h-1.942zm3.883 0h1.941v1.94h-1.941zm3.882 0h1.941v1.94h-1.94zm3.882 0h1.942v1.94h-1.942zm3.883 0h1.94v1.94h-1.94zm-19.412 3.882h1.941v1.941h-1.941zm3.882 0h1.941v1.941h-1.94zm3.882 0h1.942v1.941h-1.942zm3.883 0h1.94v1.941h-1.94zm3.882 0h1.941v1.941h-1.941Zm3.882 0h1.941v1.941h-1.94zm-19.412 3.882h1.942v1.941h-1.942zm3.883 0h1.94v1.941h-1.94zm3.882 0h1.941v1.941h-1.94zm3.882 0h1.942v1.941h-1.942zm3.883 0h1.94v1.941h-1.94zm3.882 0h1.941v1.941h-1.941zm-19.412 3.883h1.941v1.94h-1.94zm3.882 0h1.942v1.94h-1.942zm3.883 0h1.94v1.94h-1.94zm3.882 0h1.941v1.94h-1.941Zm3.882 0h1.941v1.94h-1.94zm3.883 0h1.94v1.94h-1.94z" style="fill:url(#c)"/><g fill-rule="evenodd" transform="matrix(3.66843 0 0 3.66843 377.813 493.113)"><rect width="7.408" height="7.408" x="4.762" y="4.731" filter="url(#d)" opacity=".5" rx=".529" ry=".529"/><rect width="7.408" height="7.408" x="4.762" y="4.731" fill="url(#e)" rx=".529" ry=".529" style="fill:url(#e)"/><g fill="#2e3440" transform="translate(0 -280.09)"><circle cx="5.424" cy="285.49" r=".132" opacity=".35" style="paint-order:stroke fill markers"/><circle cx="11.509" cy="285.49" r=".132" opacity=".35" style="paint-order:stroke fill markers"/><circle cx="5.424" cy="291.58" r=".132" opacity=".35" style="paint-order:stroke fill markers"/><circle cx="11.509" cy="291.58" r=".132" opacity=".35" style="paint-order:stroke fill markers"/></g></g><path fill="#eceff4" d="m408.872 514.463 1.456.485s.602 1.855 1.088 2.34c.767.768 3.765 2.513 3.765 6.396 0 2.912-1.942 4.853-4.368 6.309 2.426-2.426 3.397-3.397 3.397-6.309 0-3.882-3.882-4.368-3.882-4.368v10.568c0 1.08-1.018 2.872-2.679 3.561-2.105.873-4.311.375-4.926-1.111s.592-3.397 2.697-4.269c1.257-.52 2.436-.64 3.452-.202z"/></g></svg>