<svg xmlns="http://www.w3.org/2000/svg" xmlns:xlink="http://www.w3.org/1999/xlink" width="64" height="64"><defs><linearGradient id="c"><stop style="stop-color:#bcfd93"/><stop offset="1" style="stop-color:#fafff5"/></linearGradient><linearGradient xlink:href="#a" id="f" x2="0" y1="545.798" y2="517.798" gradientTransform="matrix(1.85714 0 0 1.85714 -343.347 -455.827)" gradientUnits="userSpaceOnUse"/><linearGradient id="b"><stop style="stop-color:#292c2f"/><stop offset="1" style="stop-opacity:0"/></linearGradient><linearGradient xlink:href="#b" id="i" x1="9" x2="23" y1="9" y2="23" gradientTransform="matrix(2 0 0 2 1 0)" gradientUnits="userSpaceOnUse"/><linearGradient xlink:href="#c" id="j" x2="0" y1="538.798" y2="524.798" gradientTransform="matrix(2 0 0 2 -399.571 -531.798)" gradientUnits="userSpaceOnUse"/><linearGradient id="a"><stop style="stop-color:#34495e"/><stop offset="1" style="stop-color:#1c7865"/></linearGradient><linearGradient id="e"><stop style="stop-color:#c9ce3b"/><stop offset="1" style="stop-color:#c9ce3b;stop-opacity:0"/></linearGradient><linearGradient id="d"><stop style="stop-color:#16a085"/><stop offset="1" style="stop-color:#2ecc71"/></linearGradient><linearGradient xlink:href="#d" id="g" x1="32.436" x2="32" y1="58" y2="30" gradientUnits="userSpaceOnUse"/><linearGradient xlink:href="#e" id="h" x1="10" x2="54" gradientUnits="userSpaceOnUse"/></defs><g transform="translate(-368.571 -499.798)"><rect width="52" height="52" x="374.571" y="505.798" rx="26" style="fill:url(#f)"/><path d="M20.438 37.586c-2.946-.015-7.834.402-11.06 7.264 4.242 7.475 12.078 12.622 21.194 13.11Q31.3 58 32 58c.551 0 1.098-.023 1.64-.057q.188-.012.374-.027a26 26 0 0 0 4.765-.807q.175-.047.348-.097.63-.178 1.246-.387.14-.045.277-.094.748-.26 1.473-.562l.016-.006c.474-.2.939-.418 1.398-.645q.149-.074.295-.15.585-.3 1.154-.627.107-.06.213-.121a26 26 0 0 0 2.647-1.783q.05-.04.1-.078.597-.465 1.165-.961.043-.036.084-.073a26 26 0 0 0 2.297-2.293q.01-.008.02-.02l.031-.038q.517-.59 1-1.211l.025-.03.016-.019c.67-.867 1.286-1.78 1.844-2.73l.006-.008c-15.537 6.29-22.249-5.751-32.71-7.574-.364.001-.799-.014-1.287-.016" style="fill:url(#g);fill-rule:evenodd" transform="translate(368.571 499.798)"/><path d="M20.438 37.586c-2.946-.015-7.834.402-11.06 7.264.09.155.189.303.28.457 3.223-6.324 7.916-6.736 10.78-6.721.487.002.922.018 1.287.016 10.272 1.79 16.936 13.423 31.884 7.884q.428-.639.819-1.302l.006-.008c-15.537 6.29-22.249-5.751-32.71-7.574-.364.001-.799-.014-1.287-.016" style="fill:url(#h);fill-rule:evenodd" transform="translate(368.571 499.798)"/><path d="M33 18v12h.227v1.648L25 34l6 6v6l10.295 10.295a25.96 25.96 0 0 0 15-15z" style="fill:url(#i);opacity:.2;fill-rule:evenodd" transform="translate(368.571 499.798)"/><path d="m401.571 517.798-8 16h6v12l8-16h-6z" style="fill:url(#j);fill-rule:evenodd"/><path d="M6.012 31.5c-.003.167-.012.332-.012.5 0 14.404 11.596 26 26 26s26-11.596 26-26c0-.168-.009-.333-.012-.5C57.723 45.67 46.236 57 32 57S6.277 45.67 6.012 31.5" style="fill:#128269" transform="translate(368.571 499.798)"/></g></svg>