<svg xmlns="http://www.w3.org/2000/svg" xmlns:xlink="http://www.w3.org/1999/xlink" viewBox="0 0 64 64"><defs><linearGradient id="a"><stop offset="0" stop-color="#94a2a9"/><stop offset="1" stop-color="#bec8cc"/></linearGradient><linearGradient id="i" x2="0" y1="557.8" y2="505.8" gradientTransform="matrix(.46467 0 0 .48276 -175.66 -225.28)" gradientUnits="userSpaceOnUse"><stop offset="0" stop-color="#197cf1"/><stop offset="1" stop-color="#20bcfa"/></linearGradient><linearGradient id="h" x1="50.5" x2="50.5" y1="23" y2="41" gradientTransform="matrix(-.4 0 0 -.77778 64.2 61.889)" gradientUnits="userSpaceOnUse"><stop offset="0" stop-color="#2f3943"/><stop offset="1" stop-color="#4d5662"/></linearGradient><linearGradient xlink:href="#a" id="d" x1="399.07" x2="399.07" y1="592.66" y2="500.8" gradientTransform="matrix(.77819 0 0 .28303 -290.55 -117.74)" gradientUnits="userSpaceOnUse"/><linearGradient id="j" x1="44" x2="44" y1="19" y2="11" gradientTransform="translate(2 2)" gradientUnits="userSpaceOnUse"><stop offset="0" stop-color="#2f3943"/><stop offset="1" stop-color="#535d6a"/></linearGradient><linearGradient xlink:href="#a" id="c" x1="54" x2="54" y1="49" y2="25" gradientUnits="userSpaceOnUse"/><linearGradient xlink:href="#a" id="b" x1="24" x2="24" y1="22" y2="13" gradientTransform="translate(-1 2)" gradientUnits="userSpaceOnUse"/><linearGradient id="e" x1="28" x2="38" y1="30" y2="40" gradientUnits="userSpaceOnUse"><stop offset="0" stop-color="#292c2f"/><stop offset="1" stop-color="#292c2f" stop-opacity=".265"/></linearGradient></defs><path fill="url(#b)" d="m17 15-9 9h6l5-5h10l3 5h5l-3-5h2v-4z"/><path fill="url(#c)" d="m58 25-14 4.98v14L58 49l3-.02v-24z"/><circle cx="31" cy="32" r="1" fill="red" fill-opacity=".967"/><path fill="url(#d)" d="M6 24c-1.662 0-3 1.338-3 3v20c0 1.662 1.338 3 3 3h32c1.662 0 3-1.338 3-3V27c0-1.662-1.338-3-3-3z"/><path fill="url(#e)" d="M27.707 29.293 7.293 44.707 11.586 49H38c1.662 0 3-1.338 3-3v-5.414l-9.293-9.293-1 1z" opacity=".2"/><path fill="url(#h)" d="M44 44V30h-3v14z"/><path fill="url(#i)" d="M8 30v14h19V30z"/><path fill="url(#j)" d="M36 19c0 3 18 1.868 21 0 1-.667 1-1.437 1-2s0-1.333-1-2c-3-2-21-3-21 0z"/><path fill="#31363b" d="M8 29c-.554 0-1 .446-1 1v14c0 .554.446 1 1 1h19c.554 0 1-.446 1-1V30c0-.554-.446-1-1-1zm0 1h19v8l-4-2-5 4-2-2-8 6zm4.5 1.523a2.5 2.5 0 0 0-2.5 2.5 2.5 2.5 0 0 0 2.5 2.5 2.5 2.5 0 0 0 2.5-2.5 2.5 2.5 0 0 0-2.5-2.5"/><g fill-opacity=".967"><path fill="#da4453" d="M31.707 31.293a1 1 0 0 0-1.414 0 1 1 0 0 0 0 1.414 1 1 0 0 0 1.414 0 1 1 0 0 0 0-1.414"/><path fill="#31363b" d="M31 35a1 1 0 0 0-1 1 1 1 0 0 0 1 1 1 1 0 0 0 1-1 1 1 0 0 0-1-1M31 39a1 1 0 0 0-1 1 1 1 0 0 0 1 1 1 1 0 0 0 1-1 1 1 0 0 0-1-1"/></g><path fill="#292c2f" d="M3 46v1c0 1.662 1.338 3 3 3h32c1.662 0 3-1.338 3-3v-1c0 1.662-1.338 3-3 3H6c-1.662 0-3-1.338-3-3" opacity=".4"/></svg>