<svg xmlns="http://www.w3.org/2000/svg" xmlns:xlink="http://www.w3.org/1999/xlink" width="64" height="64"><defs><linearGradient id="f"><stop style="stop-color:#a1adb3"/><stop offset="1" style="stop-color:#bfc7cb"/></linearGradient><linearGradient id="b"><stop style="stop-color:#c6cdd1"/><stop offset="1" style="stop-color:#e0e5e7"/></linearGradient><linearGradient id="g"><stop/><stop offset="1" style="stop-opacity:0"/></linearGradient><linearGradient id="a"><stop style="stop-color:#2e5d89"/><stop offset="1" style="stop-color:#1b92f4"/></linearGradient><linearGradient id="d"><stop style="stop-color:#2f3943"/><stop offset="1" style="stop-color:#4d5662"/></linearGradient><linearGradient id="e"><stop style="stop-color:#18222a"/><stop offset="1" style="stop-color:#566069"/></linearGradient><linearGradient xlink:href="#b" id="i" x2="0" y1="531.798" y2="501.699" gradientTransform="matrix(1.15093 0 0 1.41666 -61.444 -211.58)" gradientUnits="userSpaceOnUse"/><linearGradient xlink:href="#c" id="j" x2="0" y1="530.798" y2="528.798" gradientTransform="matrix(1.5936 0 0 1.59103 -218.932 -330.318)" gradientUnits="userSpaceOnUse"/><linearGradient id="c"><stop style="stop-color:#f33777"/><stop offset="1" style="stop-color:#fd2d65"/></linearGradient><linearGradient xlink:href="#a" id="p" x1="402.405" x2="415.571" y1="514.632" y2="527.798" gradientTransform="matrix(1.0624 0 0 1.06068 -32.709 -26.514)" gradientUnits="userSpaceOnUse"/><linearGradient xlink:href="#a" id="q" x1="397.478" x2="415.571" y1="509.704" y2="527.798" gradientTransform="matrix(.84992 0 0 .84855 54.105 83.755)" gradientUnits="userSpaceOnUse"/><linearGradient xlink:href="#a" id="r" x1="386.061" x2="415.571" y1="498.288" y2="527.798" gradientTransform="matrix(.63744 0 0 .63641 140.918 194.022)" gradientUnits="userSpaceOnUse"/><linearGradient xlink:href="#d" id="n" x1="398.572" x2="418.571" y1="508.798" y2="528.798" gradientTransform="matrix(-1.0624 0 0 -1.06068 835.423 1076.168)" gradientUnits="userSpaceOnUse"/><linearGradient xlink:href="#e" id="o" x1="398.305" x2="419.771" y1="509.531" y2="530.998" gradientTransform="matrix(.83474 0 0 .8334 60.305 91.63)" gradientUnits="userSpaceOnUse"/><linearGradient xlink:href="#f" id="m" x1="421.571" x2="398.571" y1="530.798" y2="507.798" gradientTransform="matrix(1.0624 0 0 1.06068 -32.709 -26.514)" gradientUnits="userSpaceOnUse"/><linearGradient xlink:href="#g" id="l" x2="0" y1="519.798" y2="541.011" gradientTransform="matrix(.75123 -.75002 .75123 .75002 -296.061 441.405)" gradientUnits="userSpaceOnUse"/><linearGradient xlink:href="#d" id="t" x2="0" y1="41" y2="23" gradientTransform="matrix(1.0624 0 0 1.06068 374.797 490.856)" gradientUnits="userSpaceOnUse"/></defs><g transform="translate(-376.571 -491.798)"><rect width="55.245" height="34" x="381.171" y="507.798" rx="7.437" ry="7.454" style="fill:url(#i);stroke-width:2.1231;stroke-linecap:round;stroke-linejoin:round"/><path d="M427.386 511.013a1.594 1.591 0 0 0-1.594 1.591 1.594 1.591 0 0 0 1.594 1.591 1.594 1.591 0 0 0 1.593-1.59 1.594 1.591 0 0 0-1.593-1.592" style="fill:url(#j);stroke-width:.106155;stroke-linecap:square"/><path d="m413.378 512.826-24.041 24.002.728.727h34.665v-11.274z" style="opacity:.2;fill:url(#l);stroke-width:2.1231;stroke-linecap:round;stroke-linejoin:round"/><ellipse cx="401.357" cy="524.827" rx="16.998" ry="16.971" style="fill:url(#m);stroke-width:2.1231;stroke-linecap:round;stroke-linejoin:round"/><path d="M386.484 524.827a14.874 14.85 0 0 1 14.873-14.85 14.874 14.85 0 0 1 14.874 14.85 14.874 14.85 0 0 1-14.874 14.85 14.874 14.85 0 0 1-14.873-14.85" style="fill:url(#n);stroke-width:2.1231;stroke-linecap:round;stroke-linejoin:round"/><ellipse cx="401.357" cy="524.827" rx="11.686" ry="11.668" style="fill:url(#o);stroke-width:2.1231;stroke-linecap:round;stroke-linejoin:round"/><ellipse cx="401.357" cy="524.827" rx="10.624" ry="10.607" style="fill:url(#p);stroke-width:2.1231;stroke-linecap:round;stroke-linejoin:round"/><ellipse cx="401.357" cy="524.827" rx="8.499" ry="8.485" style="fill:url(#q);stroke-width:2.1231;stroke-linecap:round;stroke-linejoin:round"/><ellipse cx="401.357" cy="524.827" rx="6.374" ry="6.364" style="fill:url(#r);stroke-width:2.1231;stroke-linecap:round;stroke-linejoin:round"/><ellipse cx="401.357" cy="524.827" rx="4.25" ry="4.243" style="fill:#2c3e50;stroke-width:2.1231;stroke-linecap:round;stroke-linejoin:round"/><ellipse cx="398.17" cy="521.645" rx="1.062" ry="1.061" style="fill:#84cbfe;stroke-width:2.1231;stroke-linecap:round;stroke-linejoin:round"/><ellipse cx="396.045" cy="519.524" rx="1.594" ry="1.591" style="fill:#84cbfe;stroke-width:2.1231;stroke-linecap:round;stroke-linejoin:round"/><path d="M433.23 515.252a2.12 2.12 0 0 0-2.126 2.121v14.85c0 1.175.948 2.121 2.125 2.121h3.187v-19.092h-2.125z" style="fill:url(#t);stroke-width:1.06155;stroke-linecap:round"/></g></svg>