<svg xmlns="http://www.w3.org/2000/svg" xmlns:xlink="http://www.w3.org/1999/xlink" width="64" height="64"><defs><linearGradient id="d"><stop style="stop-color:#c6cdd1"/><stop offset="1" style="stop-color:#e0e5e7"/></linearGradient><linearGradient id="e"><stop/><stop offset="1" style="stop-opacity:0"/></linearGradient><linearGradient id="a"><stop style="stop-color:#2e5d89"/><stop offset="1" style="stop-color:#1b92f4"/></linearGradient><linearGradient xlink:href="#a" id="n" x1="402.405" x2="415.571" y1="514.632" y2="527.798" gradientTransform="matrix(1.2 0 0 1.2 -81.715 -104.96)" gradientUnits="userSpaceOnUse"/><linearGradient xlink:href="#a" id="p" x1="397.478" x2="415.571" y1="509.704" y2="527.798" gradientTransform="translate(0 -1)" gradientUnits="userSpaceOnUse"/><linearGradient xlink:href="#a" id="q" x1="386.061" x2="415.571" y1="498.288" y2="527.798" gradientTransform="matrix(.7 0 0 .7 122.571 154.939)" gradientUnits="userSpaceOnUse"/><linearGradient id="b"><stop style="stop-color:#2f3943"/><stop offset="1" style="stop-color:#4d5662"/></linearGradient><linearGradient id="c"><stop style="stop-color:#18222a"/><stop offset="1" style="stop-color:#566069"/></linearGradient><linearGradient xlink:href="#b" id="l" x1="398.572" x2="418.571" y1="508.798" y2="528.798" gradientTransform="rotate(179.904 452.348 574.992)scale(1.21429)" gradientUnits="userSpaceOnUse"/><linearGradient xlink:href="#b" id="r" x2="0" y1="28" y2="12" gradientTransform="matrix(1.25 0 0 1.1875 383.071 495.548)" gradientUnits="userSpaceOnUse"/><linearGradient xlink:href="#b" id="s" x2="0" y1="28" y2="12" gradientTransform="matrix(-1.25 0 0 1.1875 433.971 495.548)" gradientUnits="userSpaceOnUse"/><linearGradient xlink:href="#c" id="j" x1="405.571" x2="411.571" y1="534.798" y2="538.798" gradientTransform="matrix(1.25 0 0 .7091 -102.145 157.572)" gradientUnits="userSpaceOnUse"/><linearGradient xlink:href="#c" id="m" x1="398.305" x2="419.771" y1="509.531" y2="530.998" gradientTransform="translate(29.183 36.128)scale(.92857)" gradientUnits="userSpaceOnUse"/><linearGradient xlink:href="#d" id="k" x1="421.571" x2="398.571" y1="530.798" y2="507.798" gradientTransform="translate(-76.607 -98.462)scale(1.1875)" gradientUnits="userSpaceOnUse"/><linearGradient xlink:href="#d" id="g" x2="0" y1="531.798" y2="501.699" gradientTransform="matrix(1.08333 0 0 1.20455 -34.047 -106.778)" gradientUnits="userSpaceOnUse"/><linearGradient xlink:href="#e" id="h" x2="0" y1="519.798" y2="541.011" gradientTransform="rotate(-45 330.753 656.36)scale(1.18182)" gradientUnits="userSpaceOnUse"/><linearGradient xlink:href="#e" id="i" x1="410.571" x2="413.571" y1="538.798" y2="541.798" gradientTransform="matrix(1.27273 0 0 1.42424 -111.338 -225.85)" gradientUnits="userSpaceOnUse"/><linearGradient xlink:href="#d" id="f" x2="0" y1="537.798" y2="539.798" gradientTransform="matrix(1.1875 0 0 1.6591 -76.607 -351.916)" gradientUnits="userSpaceOnUse"/></defs><g transform="translate(-376.571 -491.798)"><rect width="38" height="6.636" x="389.571" y="540.343" rx="3.525" ry="3.318" style="fill:url(#f);stroke-width:2.20606;stroke-linecap:round;stroke-linejoin:round"/><rect width="52" height="28.909" x="382.572" y="504.889" rx="7" ry="7.909" style="fill:url(#g);stroke-width:2;stroke-linecap:round;stroke-linejoin:round"/><path d="M421.943 505.7 395.2 532.441l.81.81h38.561v-12.56z" style="fill:url(#h);opacity:.2;stroke-linecap:round;stroke-linejoin:round;stroke-width:2"/><path d="m403.571 541.525 3.819 4.273h10.181l-3.818-4.273z" style="fill:url(#i);opacity:.2;fill-rule:evenodd"/><path d="M403.571 536.798h10v4.727s-1.25 1.182-5 1.182-5-1.182-5-1.182z" style="fill:url(#j);stroke-linecap:round;stroke-linejoin:round;stroke-width:2"/><circle cx="408.571" cy="518.798" r="19" style="fill:url(#k);stroke-linecap:round;stroke-linejoin:round;stroke-width:2"/><path d="M391.571 518.798a17 17 0 0 1 17-17 17 17 0 0 1 17 17 17 17 0 0 1-17 17 17 17 0 0 1-17-17" style="fill:url(#l);stroke-linecap:round;stroke-linejoin:round;stroke-width:2"/><circle cx="408.571" cy="518.798" r="13" style="fill:url(#m);stroke-linecap:round;stroke-linejoin:round;stroke-width:2"/><circle cx="408.571" cy="518.798" r="12" style="fill:url(#n);stroke-linecap:round;stroke-linejoin:round;stroke-width:2"/><circle cx="408.571" cy="518.798" r="10" style="fill:url(#p);stroke-linecap:round;stroke-linejoin:round;stroke-width:2"/><circle cx="408.571" cy="518.798" r="7" style="fill:url(#q);stroke-linecap:round;stroke-linejoin:round;stroke-width:2"/><circle cx="408.571" cy="518.798" r="5" style="fill:#2c3e50;stroke-linecap:round;stroke-linejoin:round;stroke-width:2"/><path d="M383.071 509.798v19h2.5c1.385 0 2.5-1.06 2.5-2.375v-14.25c0-1.316-1.115-2.375-2.5-2.375z" style="fill:url(#r);stroke-width:2;stroke-linecap:round;stroke-linejoin:round"/><path d="M433.971 509.798v19h-2.5c-1.385 0-2.5-1.06-2.5-2.375v-14.25c0-1.316 1.115-2.375 2.5-2.375z" style="fill:url(#s);stroke-width:2;stroke-linecap:round;stroke-linejoin:round"/><circle cx="431.571" cy="514.298" r="1.5" style="fill:#11d116;stroke-width:2;stroke-linecap:round;stroke-linejoin:round"/><circle cx="405.571" cy="515.798" r="1" style="fill:#84cbfe;stroke-linecap:round;stroke-linejoin:round;stroke-width:2"/><circle cx="402.571" cy="512.798" r="2" style="fill:#84cbfe;stroke-linecap:round;stroke-linejoin:round;stroke-width:2"/></g></svg>