<svg xmlns="http://www.w3.org/2000/svg" xmlns:xlink="http://www.w3.org/1999/xlink" width="64" height="64"><defs><linearGradient id="m"><stop stop-color="#2a2c2f"/><stop offset="1" stop-color="#424649"/></linearGradient><linearGradient id="n"><stop stop-color="#7e8f9e"/><stop offset="1" stop-color="#84ced5"/></linearGradient><linearGradient xlink:href="#b" id="r" x1="394.571" x2="404.571" y1="535.798" y2="522.798" gradientTransform="matrix(1.1 0 0 1.14286 -49.457 -68.685)" gradientUnits="userSpaceOnUse"/><linearGradient id="b"><stop stop-color="#e4a56d"/><stop offset="1" stop-color="#a7bd78"/></linearGradient><linearGradient xlink:href="#c" id="s" x1="404.571" x2="421.571" gradientTransform="matrix(1.07952 0 0 1.14286 -41.173 -68.685)" gradientUnits="userSpaceOnUse"/><linearGradient id="c"><stop stop-color="#c3a278"/><stop offset="1" stop-color="#68a"/></linearGradient><linearGradient xlink:href="#d" id="t" x1="430.571" x2="437.5" y1="536.798" y2="524.798" gradientTransform="matrix(1.1078 0 0 1.14286 -53.449 -68.685)" gradientUnits="userSpaceOnUse"/><linearGradient id="d"><stop stop-color="#6588af"/><stop offset="1" stop-color="#8ba8cd"/></linearGradient><linearGradient xlink:href="#e" id="u" x1="421.571" x2="438.571" gradientTransform="matrix(1.04899 0 0 1.1 -27.651 -45.98)" gradientUnits="userSpaceOnUse"/><linearGradient id="e"><stop stop-color="#89ad8b"/><stop offset="1" stop-color="#82b3c7"/></linearGradient><linearGradient xlink:href="#f" id="v" x1="387.571" x2="401.571" y1="525.798" y2="513.798" gradientTransform="matrix(1.1 0 0 1.27514 -49.457 -135.418)" gradientUnits="userSpaceOnUse"/><linearGradient id="f"><stop stop-color="#e1b16f"/><stop offset="1" stop-color="#99bf83"/></linearGradient><linearGradient xlink:href="#g" id="w" x1="404.571" x2="391.571" y1="510.798" y2="498.798" gradientTransform="matrix(1.1 0 0 1.1 -426.028 -537.778)" gradientUnits="userSpaceOnUse"/><linearGradient id="g"><stop stop-color="#99c487"/><stop offset="1" stop-color="#b4d99e"/></linearGradient><linearGradient xlink:href="#h" id="x" x1="404.571" x2="421.571" y1="501.798" y2="501.616" gradientTransform="matrix(1.11765 0 0 1.1 -56.597 -45.98)" gradientUnits="userSpaceOnUse"/><linearGradient id="h"><stop stop-color="#75d5c7"/><stop offset="1" stop-color="#66afb9"/></linearGradient><linearGradient xlink:href="#i" id="y" x1="428.571" x2="438.571" y1="495.798" y2="504.798" gradientTransform="matrix(1.04899 0 0 1.0625 -404.222 -519.036)" gradientUnits="userSpaceOnUse"/><linearGradient id="i"><stop stop-color="#5c7b9e"/><stop offset="1" stop-color="#839dc0"/></linearGradient><linearGradient xlink:href="#j" id="z" x1="421.571" x2="406.571" gradientTransform="matrix(1.0871 0 0 1.1 -44.37 -45.98)" gradientUnits="userSpaceOnUse"/><linearGradient id="j"><stop stop-color="#7fbcc6"/><stop offset="1" stop-color="#8ee4e3"/></linearGradient><linearGradient xlink:href="#k" id="A" x1="421.571" x2="436.571" gradientTransform="matrix(1.0871 0 0 1.1 -44.37 -45.98)" gradientUnits="userSpaceOnUse"/><linearGradient id="k"><stop stop-color="#84d5d7"/><stop offset="1" stop-color="#84a8ba"/></linearGradient><linearGradient xlink:href="#l" id="B" x1="409.495" x2="409.571" y1="544.663" y2="503.798" gradientTransform="matrix(1.08333 0 0 1.02778 -34.048 -14.995)" gradientUnits="userSpaceOnUse"/><linearGradient xlink:href="#m" id="D" x2="0" y1="540.798" y2="536.798" gradientUnits="userSpaceOnUse"/><linearGradient id="l"><stop stop-color="#197cf1"/><stop offset="1" stop-color="#20bcfa"/></linearGradient><linearGradient xlink:href="#m" id="o" x1="409.495" x2="409.571" y1="544.663" y2="503.798" gradientTransform="matrix(1.08333 0 0 1.02778 -34.048 -15.995)" gradientUnits="userSpaceOnUse"/><linearGradient xlink:href="#n" id="q" x2="0" y1="541.798" y2="489.798" gradientTransform="matrix(1.0871 0 0 1.1 -44.37 -45.98)" gradientUnits="userSpaceOnUse"/></defs><g transform="translate(-376.571 -491.798)"><path d="M388.571 501.798a5.98 5.98 0 0 0-5.53 3.66 6 6 0 0 0-.47 2.34v31h52v-31a5.98 5.98 0 0 0-3.66-5.53 6 6 0 0 0-2.34-.47z" style="fill:url(#o)"/><path d="M388.571 503.798c-.554 0-1.081.11-1.56.312a4 4 0 0 0-1.27.858c-.361.361-.655.79-.857 1.27a4 4 0 0 0-.313 1.56v29h47.832V506.96c-.052-.24-.05-.5-.144-.723a4 4 0 0 0-.857-1.27 4 4 0 0 0-1.27-.857 4 4 0 0 0-1.56-.312z" style="fill:url(#q)"/><path d="m395.571 520.798-11 9.41v6.59h11z" style="fill:url(#r);fill-rule:evenodd"/><path d="M395.571 521.798v15h18.352z" style="fill:url(#s);fill-rule:evenodd"/><path d="m432.571 520.798-19 16h19z" style="fill:url(#t);fill-rule:evenodd"/><path d="M414.571 530.198v-24.4l18 15-18 16z" style="fill:url(#u);fill-rule:evenodd"/><path d="M384.571 511.798v21l11-11z" style="fill:url(#v);fill-rule:evenodd"/><path d="M12 12c-.554 0-1.082.11-1.56.313a4 4 0 0 0-1.27.857 4 4 0 0 0-.857 1.27A4 4 0 0 0 8 16v4.543L19 30V12Z" style="fill:url(#w);fill-rule:evenodd" transform="translate(376.571 491.798)"/><path d="M395.571 503.798v18l19-16-3-2z" style="fill:url(#x);fill-rule:evenodd"/><path d="M56 29V16c0-.554-.11-1.082-.313-1.56a4 4 0 0 0-.857-1.27 4 4 0 0 0-1.27-.857A4 4 0 0 0 52 12H40.549L38 14Z" style="fill:url(#y);fill-rule:evenodd" transform="translate(376.571 491.798)"/><path d="m411.571 503.798 3 2v-2z" style="fill:url(#z);fill-rule:evenodd"/><path d="M414.571 503.798v2l3-2z" style="fill:url(#A);fill-rule:evenodd"/><path d="M384.571 532.798h48v4h-48z" style="fill:#fff;fill-opacity:.78399999"/><circle cx="429.571" cy="534.798" r="1" style="fill:#4d4d4d"/><path d="M386.571 533.798v1h1v-1zm1 1v1h1v-1z" style="fill:#4d4d4d"/><path d="M386.571 505.798h20v17h-20z" style="fill:#fff;fill-opacity:.78399999"/><path d="M387.571 506.798v4h4.167v-3h-1.042l-1.041-1z" style="fill:#3580ca"/><path d="M395.571 506.798v5h4v-3l-2-2z" style="fill:#f95"/><path d="m397.571 506.798 2 2h-2z" style="fill:#d45500;fill-rule:evenodd"/><path d="M387.571 507.798h5v4h-5z" style="fill:#7aabdc"/><path d="M401.571 506.798v5h4v-3l-2-2z" style="fill:#71c837"/><path d="m403.571 506.798 2 2h-2z" style="fill:#447821;fill-rule:evenodd"/><path d="M380.571 540.798v2a2 2 0 0 0 2 2h52a2 2 0 0 0 2-2v-2z" style="fill:url(#B)"/><circle cx="384.571" cy="542.798" r="1" style="fill:#fff;fill-opacity:.78399999"/><path d="M380.571 540.798h56l-2-2h-52z" style="fill:url(#D);fill-rule:evenodd"/><path d="M380.571 541.798v1a2 2 0 0 0 2 2h52a2 2 0 0 0 2-2v-1a2 2 0 0 1-2 2h-52a2 2 0 0 1-2-2" style="fill:#0b66cb"/></g></svg>