<svg xmlns="http://www.w3.org/2000/svg" xmlns:xlink="http://www.w3.org/1999/xlink" width="64" height="64"><defs><linearGradient id="a"><stop style="stop-color:#63984b"/><stop offset="1" style="stop-color:#8fc278"/></linearGradient><linearGradient id="b"><stop style="stop-color:#2a2c2f"/><stop offset="1" style="stop-color:#424649"/></linearGradient><linearGradient id="c"><stop style="stop-color:#292c2f"/><stop offset="1" style="stop-opacity:0"/></linearGradient><linearGradient id="f" x1="-42" x2="-6" y1="-24" y2="-24" gradientTransform="matrix(.77034 0 0 .77032 -505.296 -390.082)" gradientUnits="userSpaceOnUse"><stop offset="0" stop-color="#d0d0d0"/><stop offset="1" stop-color="#f1eeee"/></linearGradient><linearGradient xlink:href="#b" id="h" x2="0" y1="536.798" y2="522.798" gradientTransform="translate(8.333 -7.033)" gradientUnits="userSpaceOnUse"/><linearGradient xlink:href="#c" id="g" x1="7" x2="24" y1="10" y2="27" gradientTransform="translate(392.904 508.765)" gradientUnits="userSpaceOnUse"/><linearGradient xlink:href="#a" id="d" x1="382.571" x2="434.571" y1="523.798" y2="523.798" gradientUnits="userSpaceOnUse"/><filter id="e" width="1.12" height="1.12" x="-.06" y="-.06" color-interpolation-filters="sRGB"><feGaussianBlur stdDeviation=".22"/></filter></defs><g transform="translate(-376.571 -491.798)"><circle cx="408.571" cy="523.798" r="26" fill-rule="evenodd" style="fill-opacity:1;fill:url(#d)"/><rect width="8.792" height="8.792" x="-292.93" y="-12.927" filter="url(#e)" opacity=".25" rx=".44" ry=".55" transform="matrix(0 -3.15415 -3.15409 0 381.663 -386.289)"/><rect width="27.732" height="27.732" x="-537.658" y="-422.436" fill="url(#f)" rx="1.387" ry="1.733" style="fill:url(#f)" transform="scale(1 -1)rotate(90)"/><path d="M422.102 539.394v.693h-.693v-.693zm-.693.693v.694h-.694v-.694zm-.694 0h-.693v-.693h.693zm-.693 0v.694h-.693v-.694zm-.693 0h-.694v-.693h.694zm-.694 0v.694h-.693v-.694zm-.693 0h-.693v-.693h.693zm-.693 0v.694h-.694v-.694zm-.694 0h-.693v-.693h.693zm-.693 0v.694h-.693v-.694zm-.693 0h-.694v-.693h.694zm-.694 0v.694h-.693v-.694zm-.693 0h-.693v-.693h.693zm-.693 0v.694h-.693v-.694zm-.693 0h-.694v-.693h.694zm-.694 0v.694h-.693v-.694z" color="#000" style="text-indent:0;text-decoration-line:none;text-transform:none;fill:#000;fill-opacity:.77551001;stroke-width:2.0656"/><path fill-rule="evenodd" d="m424.875 539.394-1.386 1.387h1.386z" style="fill:#000;fill-opacity:.77551001;stroke-width:2.0656"/><path d="M394.37 539.394v.693h.693v-.693zm.693.693v.694h.693v-.694zm.693 0h.693v-.693h-.693zm.693 0v.694h.694v-.694zm.694 0h.693v-.693h-.693zm.693 0v.694h.693v-.694zm.693 0h.693v-.693h-.693zm.693 0v.694h.694v-.694zm.694 0h.693v-.693h-.693zm.693 0v.694h.693v-.694zm.693 0h.694v-.693h-.694zm.694 0v.694h.693v-.694zm.693 0h.693v-.693h-.693zm.693 0v.694h.694v-.694zm.694 0h.693v-.693h-.693zm.693 0v.694h.693v-.694z" color="#000" style="text-indent:0;text-decoration-line:none;text-transform:none;fill:#000;fill-opacity:.77551001;stroke-width:2.0656"/><path d="M425.569 524.141h-.694v-.693h.694zm-.694-.693h-.693v-.694h.693zm0-.694v-.693h.694v.693zm0-.693h-.693v-.693h.693zm0-.693v-.693h.694v.693zm0-.693h-.693v-.694h.693zm0-.694v-.693h.694v.693zm0-.693h-.693v-.693h.693zm0-.693v-.694h.694v.694zm0-.694h-.693v-.693h.693zm0-.693v-.693h.694v.693zm0-.693h-.693v-.694h.693zm0-.694v-.693h.694v.693zm0-.693h-.693v-.693h.693zm0-.693v-.694h.694v.694zm0-.694h-.693v-.693h.693z" color="#000" style="text-indent:0;text-decoration-line:none;text-transform:none;fill:#050505;fill-opacity:.77551001;stroke-width:2.0656"/><path d="M424.182 531.074v.694h.693v-.694zm.693.694v.693h.694v-.693zm0 .693h-.693v.693h.693zm0 .693v.694h.694v-.694zm0 .694h-.693v.693h.693zm0 .693v.693h.694v-.693zm0 .693h-.693v.694h.693zm0 .694v.693h.694v-.693zm0 .693h-.693v.693h.693z" color="#000" style="text-indent:0;text-decoration-line:none;text-transform:none;fill:#000;fill-opacity:.77551001;stroke-width:2.0656"/><path d="M404.904 517.865v1.5l7.217 7.183-1.217 1.217 7 7v-10l-2-2-2.533 2.533-7.467-7.433zm-2 5.4v2.2l4 3.974v2.326l7 7h4v-1.58l-14-13.92z" style="opacity:.2;fill:url(#g);fill-rule:evenodd"/><path d="M405.404 517.765a.873.873 0 0 0-.875.875c0 .485.39.875.875.875s.875-.39.875-.875a.873.873 0 0 0-.875-.875m5.5 0-2 2 3 3-3 3 2 2 3-3 2-2-2-2zm-7.687 5.25a1.31 1.31 0 0 0-1.313 1.312 1.31 1.31 0 0 0 1.313 1.313 1.31 1.31 0 0 0 1.312-1.313 1.31 1.31 0 0 0-1.312-1.312m3.937 5.25c-.97 0-1.75.78-1.75 1.75s.78 1.75 1.75 1.75 1.75-.78 1.75-1.75-.78-1.75-1.75-1.75" style="fill:url(#h)"/></g></svg>