<svg xmlns="http://www.w3.org/2000/svg" xmlns:xlink="http://www.w3.org/1999/xlink" width="64" height="64"><linearGradient xlink:href="#a" id="k" x1="32" x2="32" y1="35" y2="29" gradientUnits="userSpaceOnUse"/><linearGradient id="e" x1="32" x2="32" y1="36" y2="28" gradientUnits="userSpaceOnUse"><stop offset="0" stop-color="#5c7274"/><stop offset="1" stop-color="#a4a4a4"/></linearGradient><linearGradient xlink:href="#b" id="i" x1="32" x2="32" y1="58" y2="40" gradientUnits="userSpaceOnUse"/><linearGradient id="h" x1="25.637" x2="57.998" y1="40.676" y2="40.676" gradientUnits="userSpaceOnUse"><stop offset="0" stop-color="#292c2f"/><stop offset="1" stop-color="#292c2f" stop-opacity="0"/></linearGradient><linearGradient xlink:href="#c" id="j" x1="46" x2="53.135" y1="40" y2="47.135" gradientUnits="userSpaceOnUse"/><linearGradient id="c"><stop offset="0" stop-color="#292c2f"/><stop offset="1" stop-opacity="0"/></linearGradient><linearGradient id="d" x1="32" x2="32" y1="32" y2="6" gradientUnits="userSpaceOnUse"><stop offset="0" stop-color="#1190d9"/><stop offset="1" stop-color="#73c4ef"/></linearGradient><linearGradient id="b" x1="32" x2="32" y1="41" y2="23" gradientUnits="userSpaceOnUse"><stop offset="0" stop-color="#cecece"/><stop offset="1" stop-color="#ececec"/></linearGradient><linearGradient id="a" x1="6" x2="6" y1="58" y2="6" gradientUnits="userSpaceOnUse"><stop offset="0" stop-color="#98a7b0"/><stop offset="1" stop-color="#dde1e3"/></linearGradient><linearGradient xlink:href="#c" id="g" x1="26" x2="50" y1="26" y2="50" gradientUnits="userSpaceOnUse"/><linearGradient xlink:href="#c" id="f" x1="35" x2="52" y1="32" y2="49" gradientUnits="userSpaceOnUse"/><path fill="url(#a)" d="M32 6C17.597 6 6.002 17.596 6.002 32S17.597 58 32 58s25.998-11.596 25.998-26S46.403 6 32 6m0 23c1.662 0 3 1.338 3 3s-1.338 3-3 3-3-1.338-3-3 1.338-3 3-3"/><path fill="#292c2f" d="M6.002 31.191c-.005.218 0 .436 0 .655C6.002 46.335 17.597 58 32 58s25.998-11.665 25.998-26.154c0-.22.005-.437 0-.655C57.654 45.375 46.185 57 32 57S6.346 45.375 6.002 31.191" opacity=".4"/><path fill="url(#d)" d="M32 6v21a5 5 0 0 1 5 5h20.998C57.998 17.596 46.403 6 32 6"/><path fill="#292c2f" d="M36.898 31A5 5 0 0 1 37 32h20.998c0-.335-.013-.668-.025-1z" opacity=".2"/><path fill="#292c2f" d="M32 27a5 5 0 1 0 0 10 5 5 0 0 0 0-10m0 2c1.662 0 3 1.338 3 3s-1.338 3-3 3-3-1.338-3-3 1.338-3 3-3" opacity=".2"/><path fill="url(#b)" d="M32 23a9 9 0 1 0 0 18 9 9 0 0 0 0-18m0 4a5 5 0 1 1 0 10 5 5 0 0 1 0-10"/><path fill="#292c2f" d="M37 28a1 1 0 1 1 0-2 1 1 0 0 1 0 2M27 38a1 1 0 1 1 0-2 1 1 0 0 1 0 2m1-11a1 1 0 1 1-2 0 1 1 0 0 1 2 0m10 10a1 1 0 1 1-2 0 1 1 0 0 1 2 0" opacity=".4"/><path fill="url(#e)" d="M32 28a4 4 0 1 0 0 8 4 4 0 0 0 0-8m0 1a3 3 0 1 1 0 6 3 3 0 0 1 0-6"/><path fill="#4d4d4d" d="M33 25a1 1 0 1 1-2 0 1 1 0 0 1 2 0m7 7a1 1 0 1 1-2 0 1 1 0 0 1 2 0m-7 7a1 1 0 1 1-2 0 1 1 0 0 1 2 0m-7-7a1 1 0 1 1-2 0 1 1 0 0 1 2 0"/><path fill="#7f8c8d" d="M40.979 32.424A9 9 0 0 1 32 41a9 9 0 0 1-8.979-8.424A9 9 0 0 0 23 33a9 9 0 0 0 9 9 9 9 0 0 0 9-9 9 9 0 0 0-.021-.576"/><path fill="url(#f)" d="m44.719 32 10.883 10.88A25.9 25.9 0 0 0 57.998 32z" opacity=".2"/><path fill="url(#g)" d="M41 32a9 9 0 0 1-9 9 9 9 0 0 1-6.36-2.64l-.003.003 9.5 9.5L37 46l1-2 8-4 7.135 7.135a26 26 0 0 0 2.486-4.242L44.727 32zm11.967 15.389c-.086.116-.177.228-.264.343zm-1.705 2.095c-.053.058-.11.113-.162.17zM49.54 51.2q-.12.112-.24.223zm-2.01 1.658q-.152.116-.306.229zm-2.203 1.475q-.165.099-.334.193zm-2.371 1.258-.066.03.004.003z" opacity=".3"/><path fill="url(#h)" d="M41 32h3.727l-6.27-6.27A9 9 0 0 1 41 32" opacity=".2"/><path fill="#292c2f" d="m46 40-8 4-1 2-3 3-10.447 7.6C26.2 57.503 29.039 58 32 58c.218 0 .432-.01.648-.016L37 52l3-3 2-1z" opacity=".2"/><path fill="url(#i)" d="m46 40-8 4-1 2-3 3-10.447 7.6C26.2 57.503 29.039 58 32 58c.218 0 .432-.01.648-.016L37 52l3-3 2-1zm-6 4.586L41.414 46 40 47.414 38.586 46zM36.586 48 38 49.414l-.586.586H36v-1.414zM34 51a1 1 0 0 1 1 1 1 1 0 0 1-1 1 1 1 0 0 1-1-1 1 1 0 0 1 1-1m-3 2 2 2-1.654 1.984a25.5 25.5 0 0 1-4.516-.51zm-4.035 4.51c.096.019.193.033.289.05-.096-.017-.193-.031-.29-.05z"/><path fill="#292c2f" d="M36 48.586 31 53l2 2 4.414-5H36zM38.586 46l-2 2L38 49.414l2-2zM44 42l-4 2.586L41.414 46z" opacity=".1"/><path fill="url(#j)" d="m46 40-4 8-2 1-3 3-4.352 5.984a25.91 25.91 0 0 0 20.5-10.836z" opacity=".2"/><circle cx="32" cy="32" r="3" fill="url(#k)"/></svg>