<svg xmlns="http://www.w3.org/2000/svg" xmlns:xlink="http://www.w3.org/1999/xlink" width="64" height="64"><defs><linearGradient id="e"><stop stop-color="#020303"/><stop offset="1" stop-color="#424649" stop-opacity="0"/></linearGradient><linearGradient id="d"><stop stop-color="#197cf1"/><stop offset="1" stop-color="#20bcfa"/></linearGradient><linearGradient xlink:href="#a" id="j" x2="0" y1="52" y2="36" gradientUnits="userSpaceOnUse"/><linearGradient id="a"><stop stop-color="#7cbaf8"/><stop offset="1" stop-color="#f4fcff"/></linearGradient><linearGradient xlink:href="#b" id="f" x2="0" y1="551.798" y2="528.798" gradientTransform="matrix(.63587 0 0 1 144.251 -31)" gradientUnits="userSpaceOnUse"/><linearGradient id="b"><stop stop-color="#c6cdd1"/><stop offset="1" stop-color="#e0e5e7"/></linearGradient><linearGradient xlink:href="#c" id="l" x1="398.571" x2="400.571" gradientTransform="matrix(2 0 0 2 -384.571 -537.798)" gradientUnits="userSpaceOnUse"/><linearGradient id="c"><stop stop-color="#faae2a"/><stop offset="1" stop-color="#ffc35a"/></linearGradient><linearGradient xlink:href="#c" id="k" x1="398.571" x2="400.571" gradientTransform="matrix(2 0 0 2 -396.571 -537.798)" gradientUnits="userSpaceOnUse"/><linearGradient xlink:href="#d" id="g" x2="0" y1="557.798" y2="505.798" gradientTransform="matrix(.78261 0 0 1 83.254 -8)" gradientUnits="userSpaceOnUse"/><linearGradient xlink:href="#e" id="h" x1="14" x2="34" y1="14" y2="34" gradientTransform="translate(386.571 513.798)" gradientUnits="userSpaceOnUse"/><linearGradient xlink:href="#e" id="i" x1="14" x2="34" y1="14" y2="34" gradientTransform="translate(386.571 513.798)" gradientUnits="userSpaceOnUse"/></defs><g transform="translate(-376.571 -491.798)"><rect width="26" height="24" x="395.571" y="497.798" rx="0" style="fill:url(#f)"/><path d="M392.571 520.798v22.256a6.75 6.75 0 0 0 1.971 4.773 6.73 6.73 0 0 0 4.774 1.971h18.511a6.75 6.75 0 0 0 4.774-1.97 6.73 6.73 0 0 0 1.97-4.774v-22.256h-25.255z" style="fill:url(#g)"/><path d="M422.003 548.23c.188-.151.428-.233.598-.403a6.73 6.73 0 0 0 1.97-4.773v-2.256l-8-8-3.293 3.293-8-8-1.414 1.414 8 8-.293.293z" style="opacity:.2;fill:url(#h)"/><path d="M411.743 549.798h6.084c.257 0 .474-.117.723-.145l-15.418-15.416-2.121 2.122 5.5 5.5-1.354 1.353z" style="opacity:.2;fill:url(#i)"/><path d="M28 36c-.554 0-1 .446-1 1s.446 1 1 1 1-.446 1-1-.446-1-1-1m7 0-2 2 3 3-3 3 2 2 3-3 2-2zm-9.5 6c-.831 0-1.5.669-1.5 1.5s.669 1.5 1.5 1.5 1.5-.669 1.5-1.5-.669-1.5-1.5-1.5m4.5 6c-1.108 0-2 .892-2 2s.892 2 2 2 2-.892 2-2-.892-2-2-2" style="fill:url(#j)" transform="translate(376.571 491.798)"/><path d="M394.335 547.519c.083.092.12.22.207.308a6.73 6.73 0 0 0 4.774 1.971h18.511a6.75 6.75 0 0 0 4.774-1.97c.087-.088.124-.217.207-.31z" style="fill:#0c69cf"/><path d="M398.571 501.798h8v8h-8zm12.001 0h8v8h-8z" style="fill:#23262c"/><path d="M400.571 501.798h4v8h-4z" style="fill:url(#k)"/><path d="M412.572 501.798h4v8h-4z" style="fill:url(#l)"/></g></svg>