<svg xmlns="http://www.w3.org/2000/svg" width="64" height="64" xmlns:v="https://vecta.io/nano"><style><![CDATA[.F{fill:#2e3440}.G{filter:url(#J)}.H{fill:url(#I)}.I{fill:url(#H)}.J{color-interpolation-filters:sRGB}]]></style><defs><linearGradient id="A" x1="3.728" x2="60.591" y1="52.975" y2="52.975" href="#Q"><stop stop-color="#2e3440" offset="0"/><stop stop-color="#55627a" offset=".017"/><stop stop-color="#272c37" offset=".06"/><stop stop-color="#242934" offset=".915"/><stop stop-color="#5b667b" offset=".969"/><stop stop-color="#2e3440" offset="1"/></linearGradient><linearGradient id="B" x1="2.974" x2="60.989" y1="55.03" y2="55.03" href="#Q"><stop stop-color="#7b88a1" offset="0"/><stop stop-color="#a6aebf" offset=".056"/><stop stop-color="#4c566a" offset=".115"/><stop stop-color="#7b88a1" offset=".505"/><stop stop-color="#4c566a" offset=".915"/><stop stop-color="#a6aebf" offset=".962"/><stop stop-color="#7b88a1" offset="1"/></linearGradient><linearGradient id="C" x1="32.005" x2="32.005" y1="48.45" y2="3.936" href="#Q"><stop stop-color="#d8dee9" offset="0"/><stop stop-color="#a6aebf" offset="1"/></linearGradient><filter id="D" x="0" y="0" width="1" height="1" class="J"><feColorMatrix values="1.46053 0 0 0 -0.230263 0 1.46053 0 0 -0.230263 0 0 1.46053 0 -0.230263 0 0 0 1 0"/></filter><filter id="E" x="0" y="0" width="1" height="1" class="J"><feColorMatrix values="1.46053 0 0 -0.186158 -0.230263 0 1.46053 0 -0.186158 -0.230263 0 0 1.46053 -0.186158 -0.230263 0 0 0 1 0"/></filter><filter id="F" x="-.135" y="-.257" width="1.271" height="1.513" class="J"><feGaussianBlur stdDeviation="0.3 0.11"/></filter><radialGradient id="G" cx="51.065" cy="55.008" r="3.377" gradientTransform="matrix(1 0 0 .23046 0 42.331)" href="#Q"><stop stop-color="#aeeeff" offset="0"/><stop stop-color="#2f6bff" offset="1"/></radialGradient><linearGradient id="H" x1="7.248" x2="7.778" y1="48.415" y2="45.829" href="#Q"><stop stop-color="#7f89a6" offset=".293"/><stop stop-color="#404040" offset="1"/></linearGradient><linearGradient id="I" x1="6.198" x2="8.518" y1="47.597" y2="47.973" href="#Q"><stop offset="0"/><stop stop-color="#1c1c1c" offset=".613"/><stop stop-color="#939393" offset=".773"/><stop stop-color="#0d0d0d" offset="1"/></linearGradient><filter id="J" x="0" y="0" width="1" height="1" class="J"><feColorMatrix values="1.39474 0 0 -0.0634223 -0.197368 0 1.39474 0 -0.0634223 -0.197368 0 0 1.39474 -0.0634223 -0.197368 0 0 0 1 0"/></filter><radialGradient id="K" cx="51.221" cy="59.927" r="4.022" gradientTransform="matrix(1 0 0 .17582 -.13258 44.529)" href="#Q"><stop stop-color="#bbd2e6" offset="0"/><stop stop-color="#2f64c7" offset="1"/></radialGradient><linearGradient id="L" x1="25.456" x2="25.809" y1="13.612" y2="5.569" href="#Q"><stop stop-color="#1e2029" offset="0"/><stop stop-color="#353d49" offset="1"/></linearGradient><linearGradient id="M" x1="22.133" x2="22.133" y1="55.711" y2="54.556" href="#Q"><stop stop-color="#a17600" offset="0"/><stop stop-color="#695800" offset="1"/></linearGradient><radialGradient id="N" cx="30.406" cy="61.094" r="12.469" gradientTransform="matrix(1 0 0 .072682 .125 50.605)" href="#Q"><stop stop-color="#080808" offset="0"/><stop stop-color="#080808" stop-opacity=".823" offset="1"/></radialGradient><filter id="O" x="0" y="0" width="1" height="1" class="J"><feColorMatrix values="1.39474 0 0 0.267832 -0.197368 0 1.39474 0 0.267832 -0.197368 0 0 1.39474 0.267832 -0.197368 0 0 0 1 0"/></filter><path id="P" d="M7.429 46.8a.139.605 2.576 0 0-.148.404.766.139 23.938 0 0-.578-.11.766.139 23.938 0 0 .382.315.139.766 66.062 0 0-.382.31.139.766 66.062 0 0 .56-.106.139.605 2.576 0 0 .11.397.139.605 2.576 0 0 .15-.401.766.139 23.938 0 0 .579.11.766.139 23.938 0 0-.382-.31.139.766 66.062 0 0 .382-.314.139.766 66.062 0 0-.564.106.139.605 2.576 0 0-.11-.401"/><linearGradient id="Q" gradientUnits="userSpaceOnUse"/></defs><path transform="matrix(1.0321 0 0 1 -.82991 0)" d="M3.766 47.356v4.976c0 2.447 2.518 4.438 5.654 4.5v.002h44.726c3.161-.041 5.707-2.041 5.707-4.502V47.36L48.24 51.205H15.338z" fill="url(#A)" filter="url(#D)"/><path d="M14.615 2c-3.537 0-5.358 1.757-5.711 5.413l-5.816 39.53c-.307 2.965 2.399 5.38 5.38 5.38H55.53c2.98 0 5.687-2.415 5.38-5.38l-5.816-39.53C54.742 3.757 52.921 2 49.383 2H31.296z" fill="url(#C)" filter="url(#E)"/><path d="M15.527 7.041h22.599c.369 0 .643.297.665.665l.285 4.627c.022.368-.297.666-.666.666H15.032c-.368 0-.685-.298-.665-.666l.494-4.627c.029-.367.297-.665.666-.665z" fill="url(#L)"/><path d="M15.725 8.065l-.012.118h.094l.012-.116zm8.354 0l-.015.307c-.016-.033-.041-.06-.073-.078s-.071-.024-.109-.021c-.067-.003-.133.027-.175.08-.051.062-.08.139-.08.216a.33.33 0 0 0 .058.219.2.2 0 0 0 .168.083c.044 0 .081-.009.112-.027s.061-.044.081-.075l-.004.085h.095l.039-.789zm1.455 0l-.005.118h.098l.005-.116zm.847 0l-.027.789h.099l.009-.277.289.277h.126l-.314-.303.316-.268h-.12l-.296.251.016-.468zm-4.56.03l-.049.758h.109l.023-.363h.38l-.022.363h.107l.046-.758h-.106l-.019.309h-.38l.02-.309zm2.892 0l-.034.758h.217c.151 0 .264-.031.338-.092s.113-.159.119-.29-.023-.225-.091-.285-.181-.092-.332-.092zm-8.02.029l-.016.158h-.073l-.007.075h.073l-.03.308c-.007.071.003.121.029.148s.074.04.148.04h.101l.008-.079h-.101c-.035 0-.062-.006-.075-.017l-.005-.006c-.009-.014-.013-.043-.009-.086l.03-.308h.199l.007-.075h-.199l.015-.156zm3.266 0l-.012.158h-.069l-.006.075h.069l-.024.308c-.006.071.004.121.03.148s.08.04.155.04h.099l.006-.079h-.099c-.04 0-.067-.007-.079-.021l-.002-.002c-.01-.014-.014-.043-.011-.086l.023-.308h.199l.006-.075h-.199l.012-.156zm4.858.055h.128c.107 0 .184.024.229.071s.071.121.067.222-.033.178-.086.226-.127.071-.234.071h-.132zm-8.562.094a.24.24 0 0 0-.17.099l.009-.088h-.098l-.058.569h.099l.033-.323c.006-.055.021-.099.055-.13a.18.18 0 0 1 .131-.048c.042 0 .074.015.092.042a.18.18 0 0 1 .022.117l-.034.342h.097l.034-.344a.25.25 0 0 0-.036-.178c-.031-.039-.079-.059-.146-.059h-.002c-.009-.001-.018-.001-.028 0zm1.053 0a.31.31 0 0 0-.183.08c-.061.062-.096.142-.098.224-.009.09.011.158.061.211s.123.08.218.081c.074.001.148-.015.217-.044l.008-.088a.46.46 0 0 1-.216.052c-.063 0-.11-.015-.144-.048-.035-.041-.051-.094-.047-.15h.444l.004-.044c.01-.073-.008-.145-.05-.201-.044-.049-.11-.076-.18-.073a.28.28 0 0 0-.033 0zm.705 0c-.03.003-.059.011-.087.025-.035.017-.065.043-.087.075l.008-.088h-.098l-.052.569h.101l.027-.3c.006-.064.024-.115.055-.149a.17.17 0 0 1 .131-.052.13.13 0 0 1 .041.004c.012.003.023.008.032.015l.009-.096-.025-.004h-.024a.24.24 0 0 0-.03 0zm.445 0c-.04 0-.077.008-.108.025s-.067.043-.091.075l.008-.088h-.094l-.05.569h.095l.028-.323c.005-.055.025-.099.059-.13s.074-.048.124-.048c.044 0 .076.015.097.042s.026.064.022.117l-.029.342h.095l.029-.344c.007-.078-.006-.137-.036-.178s-.08-.059-.147-.059zm.642 0a.3.3 0 0 0-.215.082.33.33 0 0 0-.095.222c-.008.09.013.158.063.211s.132.085.214.083a.54.54 0 0 0 .221-.044l.007-.088a.45.45 0 0 1-.216.052c-.064 0-.112-.017-.144-.05-.035-.04-.052-.093-.049-.148h.444l.003-.044a.27.27 0 0 0-.055-.201c-.044-.05-.109-.077-.179-.075zm.701 0a.27.27 0 0 0-.12.027c-.034.018-.062.043-.083.075l.007-.09h-.098l-.045.571h.099l.024-.302a.24.24 0 0 1 .055-.147c.031-.034.082-.055.13-.052a.13.13 0 0 1 .041.004c.012.003.023.008.032.015l.008-.097-.025-.004zm.815 0a.3.3 0 0 0-.215.082.33.33 0 0 0-.093.222c-.007.09.015.158.065.211s.133.085.215.083a.54.54 0 0 0 .22-.044l.006-.088a.45.45 0 0 1-.213.052c-.063 0-.112-.017-.146-.05-.035-.04-.053-.093-.05-.148h.444l.003-.044a.27.27 0 0 0-.055-.201.23.23 0 0 0-.18-.075zm2.203 0c-.068 0-.137.013-.201.038l-.005.088a.45.45 0 0 1 .095-.038c.032-.008.063-.01.095-.01.052 0 .093.012.12.036s.043.061.04.1v.01h-.136c-.087-.001-.153.015-.198.048s-.076.088-.078.144.012.101.045.135.081.048.141.048a.26.26 0 0 0 .122-.027c.035-.017.066-.043.087-.075l-.005.087h.095l.018-.326c.005-.086-.012-.151-.052-.193s-.099-.063-.183-.063zm.738 0c-.041-.001-.082.009-.12.027a.2.2 0 0 0-.085.075l.005-.09h-.094l-.031.571h.097l.016-.302c.003-.064.019-.113.049-.147s.081-.055.129-.052a.13.13 0 0 1 .041.004c.012.003.026.009.039.015l.001-.097-.027-.004zm2.419 0c-.047.003-.092.018-.132.044s-.064.075-.064.122.011.08.037.105.069.043.128.054l.029.008c.06.013.099.028.117.042s.025.031.024.056-.016.051-.04.065a.22.22 0 0 1-.104.023.53.53 0 0 1-.209-.056l-.004.098a.84.84 0 0 0 .206.037c.062.002.124-.015.178-.048.044-.027.071-.073.073-.123a.14.14 0 0 0-.043-.111c-.041-.032-.09-.052-.142-.059l-.035-.008c-.036-.005-.07-.017-.101-.034-.016-.012-.023-.029-.022-.052 0-.028.013-.048.038-.061a.22.22 0 0 1 .109-.023c.06.001.119.014.172.04l.003-.088a.4.4 0 0 0-.082-.023 1.03 1.03 0 0 0-.102-.008c-.013-.001-.024-.001-.035 0zm-10.27.011l-.06.571h.095l.059-.571zm9.821 0l-.023.571h.101l.023-.571zm-8.209.067h.024c.047 0 .08.013.106.044a.16.16 0 0 1 .034.123l-.343.004c.007-.047.032-.092.069-.126a.2.2 0 0 1 .11-.044zm1.753 0c.008-.001.016-.001.024 0 .047-.001.084.013.111.044s.042.077.037.123l-.345.004c.007-.047.031-.092.068-.126a.19.19 0 0 1 .106-.044zm1.516 0h.024c.048-.001.086.013.113.044s.041.078.037.123l-.343.004a.21.21 0 0 1 .062-.126c.031-.025.069-.041.108-.044zm3.318 0c.051 0 .09.02.117.059a.25.25 0 0 1 .035.159c-.003.069-.02.123-.05.163a.15.15 0 0 1-.125.06c-.051 0-.092-.021-.117-.06a.28.28 0 0 1-.037-.163.27.27 0 0 1 .054-.159.15.15 0 0 1 .123-.059zm-1.086.218a.28.28 0 0 1 .041 0h.099l-.001.021c-.002.054-.023.106-.06.148s-.082.057-.132.056c-.033.001-.065-.01-.089-.031a.09.09 0 0 1-.031-.079c.003-.042.019-.071.051-.088.039-.016.08-.025.122-.027zm-7.155.718l-.009.085h15.999v-.085zm8.232.402l-.076.002-.031.617h.078l.011-.217.216.217h.1l-.24-.237.249-.209h-.095l-.23.189zm-8.338.002l-.009.091h.076l.009-.09zm6.478 0l-.015.238c-.013-.024-.033-.044-.058-.057a.2.2 0 0 0-.084-.018c-.053-.002-.104.021-.139.062-.039.05-.06.109-.061.17-.005.069.01.126.041.168s.077.066.13.065c.03 0 .059-.007.087-.02s.049-.033.065-.057l-.004.065h.074l.038-.617zm1.126 0l-.005.091h.074l.005-.09zm1.402 0l-.004.091h.074l.004-.09zm-4.279.023l-.044.594h.08l.02-.28h.297l-.02.28h.082l.042-.594h-.081l-.017.246h-.297l.018-.246zm2.239 0l-.035.594h.172c.117 0 .204-.024.261-.073s.089-.122.094-.223-.017-.178-.069-.226-.135-.072-.252-.072zm-6.144.021l-.076.002-.013.127h-.054l-.006.057h.054l-.024.238c-.006.057.002.096.022.118s.057.029.113.029h.078l.006-.059h-.078c-.027 0-.046-.006-.056-.014l-.005-.006c-.006-.012-.007-.036-.003-.069l.024-.238h.151l.006-.057h-.151zm2.532 0l-.074.002-.011.127h-.054l-.005.057h.054l-.02.238c-.005.057.003.096.022.118s.059.029.117.029h.078l.005-.059h-.078c-.027 0-.048-.006-.059-.014l-.006-.006c-.007-.012-.009-.036-.006-.069l.02-.238h.153l.005-.057H18.9zm6.476 0l-.072.002-.005.127h-.054l-.002.057h.054l-.01.238c-.002.057.006.096.025.118s.06.029.118.029h.078l.002-.059h-.078c-.029 0-.051-.007-.061-.016v-.002l-.002-.002c-.007-.012-.012-.036-.011-.069l.01-.238h.155l.002-.057h-.155zm2.536 0l-.074.002-.003.127h-.058l-.001.057h.058l-.006.238c-.001.057.009.096.029.118s.061.029.119.029h.076l.001-.059h-.076c-.027 0-.049-.006-.059-.014l-.006-.006c-.008-.012-.011-.036-.01-.069l.006-.238h.153l.001-.057h-.153zm-5.322.047h.101c.083 0 .142.019.178.057s.053.094.05.174-.028.138-.07.174-.102.057-.185.057h-.102zm-5.23.07l-.016.002c-.031-.001-.063.005-.093.018s-.05.035-.067.06l.006-.068h-.074l-.042.444h.074l.022-.235c.005-.049.019-.087.044-.113s.064-.044.101-.043l.029.004c.01.003.02.007.027.012l.007-.076zm.819 0a.19.19 0 0 0-.022.002c-.061-.004-.123.019-.169.062s-.071.111-.073.174c-.006.07.01.126.047.166s.096.061.168.061a.41.41 0 0 0 .086-.006c.028-.005.057-.015.084-.027l.006-.069c-.053.027-.11.041-.167.041-.049.001-.087-.012-.112-.037-.027-.032-.04-.074-.035-.117h.343l.003-.033a.21.21 0 0 0-.04-.158c-.029-.034-.071-.055-.118-.059zm.543 0l-.018.002c-.032-.001-.065.005-.095.018a.16.16 0 0 0-.063.06l.006-.068h-.078l-.038.444h.078l.02-.235c.003-.049.016-.087.039-.113s.062-.043.099-.043c.012 0 .024.001.035.004s.02.007.027.012l.006-.076zm1.153 0l.002.002c-.031-.001-.062.005-.091.018a.18.18 0 0 0-.066.06l.005-.068h-.078l-.034.444h.078l.018-.235c.003-.049.017-.087.041-.113s.065-.045.103-.043l.03.004c.01.003.019.007.027.012l.006-.076-.02-.004zm1.165 0l-.002.002a.43.43 0 0 0-.155.029l-.005.068c.047-.024.098-.038.15-.039.04 0 .07.009.09.027s.034.049.03.08l-.001.008h-.106c-.067 0-.117.012-.152.037s-.06.069-.062.113.009.076.035.102.068.04.109.039a.2.2 0 0 0 .093-.02c.029-.014.051-.035.068-.061l-.005.069h.076l.017-.255c.005-.068-.009-.118-.04-.15s-.076-.051-.142-.051zm.571 0l.002.002c-.032-.001-.064.005-.095.018s-.048.035-.064.06l.005-.068h-.076l-.029.444h.074l.015-.235c.004-.049.019-.087.043-.113s.062-.043.098-.043c.012 0 .025.001.036.004s.018.007.025.012l.005-.076-.024-.004zm4.747 0v.002c-.03-.001-.06.005-.088.018a.16.16 0 0 0-.064.06l.002-.068h-.078l-.016.444h.078l.008-.235c0-.049.011-.087.034-.113s.063-.045.101-.043l.03.004c.01.003.019.007.027.012l.003-.076-.02-.004zm.839 0c-.008 0-.016.001-.024.002-.06-.004-.12.019-.163.062-.042.049-.065.111-.063.174-.002.07.016.126.057.166s.1.061.172.061a.42.42 0 0 0 .086-.006c.028-.006.056-.015.083-.027l.002-.069c-.052.025-.108.039-.165.041-.048.001-.086-.012-.115-.037-.029-.032-.044-.074-.042-.117h.343l.001-.033c.004-.057-.013-.114-.049-.158-.031-.034-.074-.055-.122-.059zm.539 0l-.016.002a.21.21 0 0 0-.092.018c-.026.014-.048.035-.063.06l.002-.068h-.074l-.012.444h.074l.006-.235c.002-.049.015-.087.039-.113s.06-.043.097-.043l.03.004c.011.003.021.007.03.012l.002-.076zm.636 0c-.008 0-.016.001-.024.002a.21.21 0 0 0-.164.062c-.042.049-.064.111-.062.174a.22.22 0 0 0 .058.166c.043.041.1.061.172.061a.42.42 0 0 0 .168-.033l.001-.069a.35.35 0 0 1-.164.041c-.048.001-.086-.012-.115-.037-.029-.032-.045-.074-.043-.117h.345l.001-.033c.004-.057-.014-.114-.051-.158a.18.18 0 0 0-.122-.059zm.541 0l-.018.002a.21.21 0 0 0-.092.018c-.026.014-.047.035-.061.06l.001-.068h-.078l-.009.444h.078l.004-.235c0-.049.01-.087.032-.113a.13.13 0 0 1 .098-.043c.012 0 .022.001.034.004s.02.007.028.012l.001-.076zm-12.958.002c-.022.003-.043.009-.063.018a.26.26 0 0 0-.068.06l.007-.068h-.078l-.046.444h.076l.026-.251c.004-.043.02-.076.046-.102s.061-.041.095-.039.059.011.074.031.023.052.018.094l-.027.266h.072l.027-.27c.009-.05-.001-.099-.028-.139-.022-.03-.059-.045-.109-.045h-.024zm.815 0a.23.23 0 0 0-.141.062c-.047.048-.075.11-.079.174-.006.07.011.126.05.166s.092.061.164.061c.029 0 .062.001.09-.006a.45.45 0 0 0 .082-.027l.006-.069a.44.44 0 0 1-.165.041c-.049.001-.087-.012-.112-.037a.15.15 0 0 1-.036-.117h.341l.003-.033c.008-.057-.006-.114-.039-.158a.17.17 0 0 0-.138-.057c-.009-.001-.017-.001-.026 0zm.867 0c-.021.002-.042.008-.061.018a.23.23 0 0 0-.071.06l.006-.068h-.072l-.041.444h.072l.023-.251c.005-.043.022-.076.049-.102s.06-.041.095-.039.059.011.075.031.019.052.013.094l-.024.266h.078l.024-.27c.009-.05-.002-.099-.029-.139-.024-.031-.062-.046-.115-.045h-.022zm1.671 0c-.052.003-.103.025-.142.062a.27.27 0 0 0-.076.174c-.005.07.013.126.052.166s.095.061.167.061a.43.43 0 0 0 .172-.033l.005-.069c-.054.025-.111.039-.169.041-.05.001-.089-.012-.115-.037-.027-.032-.04-.074-.036-.117h.343l.003-.033c.008-.057-.006-.114-.039-.158s-.085-.059-.139-.057c-.009-.001-.017-.001-.026 0zm4.178 0c-.036.002-.071.014-.101.033s-.051.057-.051.094.006.063.025.084a.18.18 0 0 0 .097.041l.027.008c.045.01.075.021.088.031s.017.025.016.045-.01.039-.028.049a.16.16 0 0 1-.083.018.38.38 0 0 1-.161-.041l-.004.076a.59.59 0 0 0 .162.027c.055.001.104-.012.137-.035s.053-.059.055-.098-.006-.067-.025-.088c-.033-.024-.072-.04-.113-.045l-.023-.008a.31.31 0 0 1-.08-.025c-.013-.008-.019-.024-.016-.039 0-.021.011-.041.029-.053.027-.011.056-.016.084-.016a.3.3 0 0 1 .136.031l.003-.068a.3.3 0 0 0-.067-.018.51.51 0 0 0-.079-.004.24.24 0 0 0-.028 0zm1.486 0c-.022.002-.043.008-.062.018a.21.21 0 0 0-.066.06l.003-.068h-.074l-.02.444h.074l.011-.251c.001-.043.013-.076.038-.102a.13.13 0 0 1 .099-.039c.037.002.058.011.074.031s.022.052.02.094l-.011.266h.078l.011-.27h-.004c.003-.061-.009-.107-.034-.139s-.065-.046-.117-.045zm.817 0c-.052.003-.101.026-.138.062-.044.048-.069.11-.068.174-.002.07.017.126.059.166s.095.061.167.061c.058.001.116-.01.171-.033l.003-.069a.42.42 0 0 1-.167.041c-.05.001-.087-.012-.114-.037-.029-.032-.044-.074-.041-.117h.343l.001-.033a.22.22 0 0 0-.048-.158c-.035-.039-.087-.059-.141-.057-.009-.001-.017-.001-.026 0zm.867 0a.18.18 0 0 0-.064.018.23.23 0 0 0-.064.06l.002-.068h-.072l-.015.444h.072l.008-.251c.001-.043.015-.076.039-.102s.061-.041.097-.039.06.011.077.031.023.052.021.094l-.008.266h.072l.008-.27c.003-.061-.008-.107-.033-.139s-.065-.046-.118-.045h-.022zm-11.132.01l-.046.444h.078l.046-.444zm7.615 0l-.024.444h.072l.024-.444zm1.404 0l-.02.444h.074l.02-.444zm-2.676.049l.014.002c.039 0 .068.015.089.045s.031.073.028.127c0 .044-.016.089-.044.125-.024.03-.056.045-.095.045-.058 0-.067-.014-.089-.045a.19.19 0 0 1-.028-.125.23.23 0 0 1 .044-.127.11.11 0 0 1 .081-.047zm3.927 0c.054 0 .083.012.104.037a.14.14 0 0 1 .032.096h-.267c.003-.037.02-.071.048-.098a.15.15 0 0 1 .083-.035zm1.363 0c.053 0 .081.012.102.037a.14.14 0 0 1 .031.096h-.265c.004-.037.021-.072.049-.098.023-.02.052-.032.083-.035zm1.174 0c.054 0 .084.012.107.037s.034.061.032.096h-.265c.002-.036.018-.071.044-.098.023-.02.052-.032.082-.035zm-11.557.002c.054 0 .082.013.102.037s.029.059.025.094h-.265a.17.17 0 0 1 .051-.098c.025-.02.056-.031.087-.033zm1.363 0c.054 0 .083.013.102.037s.031.059.028.094h-.267c.005-.037.024-.071.052-.098.025-.019.054-.031.084-.033zm1.174 0c.055 0 .083.012.103.037a.12.12 0 0 1 .028.094h-.267c.004-.036.022-.071.05-.098.025-.02.055-.031.086-.033zm1.757.168h.074l-.001.016c-.003.048-.018.087-.044.117s-.066.044-.104.041c-.026.002-.051-.006-.07-.022s-.022-.036-.02-.061c.002-.033.016-.057.041-.072s.066-.02.125-.02zm2.773.416l-.078.002-.032.624h.078l.011-.22.218.22h.1l-.239-.239.25-.211h-.096l-.232.193zm-8.386.002l-.009.09h.078l.009-.09zm6.514 0l-.015.24a.14.14 0 0 0-.058-.057c-.026-.013-.055-.019-.085-.02-.053-.001-.106.023-.14.065-.039.05-.06.111-.061.172-.005.07.01.128.041.17s.078.065.13.063c.03 0 .059-.006.087-.018s.049-.034.066-.059l-.004.067h.072l.039-.624zm1.132 0l-.005.09h.074l.005-.09zm1.41 0l-.004.09h.074l.004-.09zm-4.303.024l-.044.6h.082l.021-.285h.298l-.02.285h.082l.042-.6h-.082l-.018.248h-.298l.018-.248zm2.253 0l-.036.6h.172c.118 0 .205-.025.263-.073s.089-.123.095-.225-.017-.182-.069-.231-.136-.071-.254-.071zm-6.252.022l-.013.13h-.054l-.006.057h.054l-.024.241c-.006.057.002.097.022.119s.057.03.113.03h.078l.006-.061h-.078c-.027 0-.046-.004-.057-.012l-.004-.004c-.007-.012-.009-.036-.005-.071l.024-.241h.152l.006-.057h-.152l.013-.13zm2.547 0l-.011.13h-.054l-.005.057h.054l-.02.241c-.005.057.003.097.022.119s.06.03.118.03h.078l.005-.061h-.078c-.027 0-.049-.004-.059-.012l-.004-.004c-.008-.012-.01-.036-.008-.071l.02-.241h.154l.005-.057h-.154l.011-.13zm6.512 0l-.005.13h-.054l-.002.057h.054l-.01.241c-.002.057.006.097.025.119s.061.03.119.03h.078l.002-.061h-.078c-.029 0-.051-.005-.062-.014l-.002-.002c-.009-.012-.012-.036-.011-.071l.01-.241h.156l.002-.057h-.156l.005-.13zm2.547 0l-.003.13h-.058l-.001.057h.058l-.006.241c-.001.057.009.097.029.119s.061.03.12.03h.076l.001-.061h-.076c-.027 0-.049-.004-.06-.012l-.004-.004c-.009-.012-.013-.036-.012-.071l.006-.241h.154l.001-.057H27.9l.003-.13zm-5.276.045h.102c.083 0 .142.021.178.059s.053.095.05.175-.028.139-.07.176-.102.055-.186.055h-.102zm-1.558.071l-.002.002a.43.43 0 0 0-.156.03l-.005.069c.047-.025.099-.038.151-.039.039 0 .069.009.09.028s.034.05.031.081l-.001.008h-.106c-.068 0-.117.012-.153.038s-.06.07-.062.115.009.077.035.103.068.041.11.04c.032.001.064-.006.094-.02a.18.18 0 0 0 .068-.061l-.005.069h.076l.017-.257c.005-.069-.009-.119-.04-.152s-.076-.051-.142-.051zm-5.09.002a.21.21 0 0 0-.088.02c-.028.013-.048.037-.066.061l.007-.069h-.078l-.046.449h.076l.026-.253c.005-.044.02-.08.047-.105s.061-.04.096-.038.059.009.075.03.021.054.016.097l-.027.269h.074l.027-.273c.01-.051 0-.102-.028-.142-.023-.031-.059-.046-.109-.045zm.798 0a.23.23 0 0 0-.142.065c-.047.049-.076.111-.079.176-.006.071.011.127.05.168s.092.063.164.061c.029 0 .063-.001.091-.008s.056-.014.083-.026l.007-.069c-.053.025-.11.039-.166.042-.049.001-.087-.012-.113-.038-.028-.032-.041-.075-.037-.119h.342l.003-.036c.008-.058-.005-.115-.039-.16-.033-.039-.084-.06-.139-.057-.009-.001-.017-.001-.026 0zm.552 0a.22.22 0 0 0-.07.018c-.023.01-.051.036-.068.061l.006-.069h-.074l-.042.449h.074l.022-.237c.005-.05.019-.088.045-.114a.14.14 0 0 1 .102-.043l.029.006c.01.003.02.005.027.01l.007-.075c-.007-.002-.014-.003-.02-.004h-.016-.024zm.32 0c-.021.002-.042.008-.062.018-.028.015-.052.036-.072.061l.006-.069h-.072l-.041.449h.072l.023-.253c.005-.044.023-.078.049-.103s.061-.041.096-.039.059.011.075.032.019.052.013.095l-.024.269h.078l.024-.273a.19.19 0 0 0-.029-.14c-.024-.031-.063-.046-.116-.045h-.022zm.496 0c-.053.003-.104.025-.144.063-.046.05-.072.113-.074.178-.006.071.01.127.047.168s.097.061.169.059c.029.001.058-.001.087-.006a.45.45 0 0 0 .085-.028l.006-.067c-.053.027-.11.041-.168.042-.049.001-.087-.012-.113-.038-.028-.033-.04-.076-.035-.121h.344l.003-.034c.008-.058-.006-.115-.04-.16-.034-.04-.086-.061-.141-.057-.009-.001-.017-.001-.026 0zm.552 0a.22.22 0 0 0-.071.018.16.16 0 0 0-.063.061l.006-.069h-.078l-.038.449h.078l.02-.237c.003-.05.016-.088.04-.114s.063-.044.1-.043c.012 0 .023.003.035.006s.02.005.027.01l.006-.075c-.007-.002-.014-.003-.02-.004h-.018-.024zm.632 0c-.053.003-.104.025-.143.063a.27.27 0 0 0-.076.178c-.005.071.014.127.055.168s.093.061.166.059a.43.43 0 0 0 .173-.034l.005-.067a.46.46 0 0 1-.17.042c-.05.001-.089-.012-.115-.038a.16.16 0 0 1-.036-.121h.344l.003-.034c.008-.058-.006-.115-.039-.16a.17.17 0 0 0-.139-.057c-.009-.001-.017-.001-.026 0zm.548 0c-.023.002-.046.008-.067.018-.027.014-.05.036-.067.061l.005-.069h-.078l-.035.449h.078l.018-.237c.003-.05.017-.088.041-.114s.065-.045.103-.043l.03.006c.01.003.019.005.027.01l.006-.075c-.007-.002-.014-.003-.02-.004h-.018-.024zm1.745 0c-.024.002-.048.008-.071.018s-.049.036-.064.061l.005-.069h-.076l-.03.449h.074l.016-.237c.004-.05.017-.088.042-.114s.063-.045.101-.043l.036.006c.009.003.017.005.025.01l.005-.075c-.009-.002-.017-.003-.024-.004h-.014-.024zm1.907 0a.22.22 0 0 0-.102.033c-.031.019-.051.057-.051.095s.006.064.025.085.052.033.098.041l.028.008c.045.01.075.022.088.032s.017.025.016.045-.01.04-.029.049c-.026.014-.055.021-.083.02a.38.38 0 0 1-.162-.044l-.004.077c.052.017.107.026.163.028s.105-.012.138-.036.054-.06.055-.099-.006-.067-.025-.089c-.033-.024-.072-.04-.114-.045l-.024-.006a.3.3 0 0 1-.081-.028c-.013-.009-.019-.024-.016-.039 0-.021.011-.041.029-.053.027-.011.056-.016.085-.016a.3.3 0 0 1 .136.032l.004-.069c-.021-.008-.044-.014-.067-.018a.52.52 0 0 0-.08-.004.24.24 0 0 0-.028 0zm1.493 0c-.022.002-.043.008-.063.018-.026.015-.049.036-.067.061l.003-.069h-.074l-.02.449h.074l.011-.253c.001-.044.014-.078.039-.103s.063-.042.1-.039.058.011.075.032.022.052.02.095l-.011.269h.078l.011-.273h-.004c.003-.062-.009-.108-.034-.14s-.065-.046-.118-.045zm.822 0c-.052.003-.101.026-.138.063a.26.26 0 0 0-.069.178c-.002.071.017.127.06.168s.096.061.168.059c.059.001.117-.011.172-.034l.003-.067c-.053.025-.11.039-.168.042-.05.001-.088-.012-.115-.038-.029-.033-.044-.076-.041-.121h.344l.001-.034c.005-.058-.012-.115-.048-.16a.18.18 0 0 0-.142-.057c-.009-.001-.017-.001-.026 0zm.55 0c-.023.002-.045.008-.067.018a.16.16 0 0 0-.064.061l.002-.069h-.078l-.016.449h.078l.008-.237c0-.05.011-.088.034-.114s.063-.045.102-.043l.03.006c.01.003.02.005.028.01l.003-.075-.02-.004h-.018-.022zm.322 0c-.022.002-.044.008-.065.018-.025.016-.047.037-.064.061l.002-.069h-.072l-.015.449h.072l.008-.253c.001-.044.015-.078.039-.103s.061-.041.097-.039.06.011.077.032.023.052.021.095l-.009.269h.072l.009-.273c.003-.062-.008-.108-.034-.14s-.065-.046-.119-.045h-.022zm.496 0c-.053.003-.103.025-.14.063-.043.05-.066.113-.063.178-.002.071.017.127.057.168s.1.061.173.059a.41.41 0 0 0 .086-.006.43.43 0 0 0 .083-.028l.002-.067c-.052.025-.108.039-.166.042a.16.16 0 0 1-.115-.038c-.03-.033-.045-.076-.042-.121h.344l.001-.034c.005-.058-.013-.115-.05-.16s-.091-.061-.146-.057h-.024zm.552 0c-.024.002-.048.008-.07.018s-.049.035-.064.061l.002-.069h-.074l-.012.449h.074l.006-.237c.002-.05.013-.088.037-.114a.13.13 0 0 1 .099-.043l.03.006c.012.003.021.005.03.01l.002-.075-.022-.004h-.016-.022zm.628 0c-.053.003-.102.025-.139.063-.043.05-.065.113-.062.178-.002.071.018.127.058.168s.101.061.173.059a.41.41 0 0 0 .086-.006.37.37 0 0 0 .083-.028l.001-.067c-.051.027-.108.041-.165.042-.049.001-.086-.012-.113-.038-.031-.033-.047-.076-.045-.121h.346l.001-.034c.004-.058-.014-.115-.051-.16s-.091-.061-.147-.057c-.009-.001-.017-.001-.026 0zm.552 0a.21.21 0 0 0-.068.018.15.15 0 0 0-.061.061l.001-.069h-.078l-.009.449h.078l.005-.237c0-.05.01-.088.032-.114s.061-.045.099-.043c.012 0 .022.003.034.006s.02.005.028.01l.001-.075c-.007-.002-.014-.003-.02-.004h-.018-.024zm-13.417.01l-.047.449h.078l.047-.449zm7.655 0l-.025.449h.074l.024-.449zm1.412 0l-.021.449h.074l.02-.449zm-7.792.049l-.002.002c.037 0 .066.013.086.037a.13.13 0 0 1 .027.097h-.268c.005-.038.023-.073.052-.101s.068-.037.105-.036zm1.37 0l-.002.002c.038 0 .067.013.087.037a.13.13 0 0 1 .028.097h-.268a.17.17 0 0 1 .053-.101c.029-.027.067-.037.103-.036zm1.18 0v.002c.038 0 .065.013.085.037s.032.061.026.097h-.266c.004-.038.022-.073.05-.101s.068-.037.105-.036zm2.566 0v.002a.1.1 0 0 1 .089.045c.02.03.031.076.028.13 0 .045-.016.089-.044.127-.024.03-.056.046-.095.046-.058 0-.068-.014-.089-.046-.024-.037-.033-.082-.028-.127s.016-.092.044-.13a.11.11 0 0 1 .095-.047zm3.934 0c.054 0 .083.013.105.037s.035.061.032.097h-.268c.003-.037.02-.072.048-.099a.15.15 0 0 1 .083-.036zm1.37 0c.053 0 .08.013.101.037s.035.061.033.097h-.266c.004-.037.021-.073.049-.099.023-.02.052-.033.083-.036zm1.18 0c.054 0 .085.013.107.037s.034.061.032.097h-.266c.002-.037.018-.072.044-.099.023-.02.052-.033.083-.036zm-7.301.172h.074l-.001.016c-.003.049-.018.088-.044.119s-.065.044-.103.042c-.027.002-.053-.005-.073-.022s-.022-.036-.02-.061c.002-.034.016-.058.041-.073s.066-.02.125-.02zm-5.642.422l-.01.093h.078l.01-.093zm6.549 0l-.015.243a.14.14 0 0 0-.059-.058.2.2 0 0 0-.085-.02c-.054-.001-.106.023-.141.066a.29.29 0 0 0-.061.174c-.005.071.01.129.041.172s.078.065.131.064c.03 0 .06-.006.088-.018a.18.18 0 0 0 .066-.058l-.004.066h.073l.039-.63zm1.138 0l-.005.093h.074l.005-.093zm.664 0l-.032.63h.079l.011-.222.219.222h.101l-.238-.24.252-.211h-.096l-.233.193.019-.372zm.753 0l-.004.093h.074l.004-.093zm-4.326.024l-.045.606h.083l.021-.286h.3l-.02.286h.083l.043-.606h-.082l-.018.251h-.3l.018-.251zm2.265 0l-.036.606h.173c.118 0 .206-.025.264-.074s.09-.124.095-.228-.017-.182-.069-.231-.136-.074-.255-.074zm-6.285.024l-.013.129h-.054l-.006.058h.054l-.024.243c-.006.058.002.098.022.12s.058.03.114.03h.079l.006-.06h-.079c-.027 0-.047-.006-.057-.014l-.004-.004c-.007-.012-.009-.037-.005-.072l.024-.243h.153l.006-.058h-.153l.013-.129zm2.56 0l-.011.129h-.054l-.005.058h.054l-.02.243c-.005.058.003.098.022.12s.059.03.118.03h.079l.005-.06h-.079c-.027 0-.049-.006-.059-.014l-.004-.004c-.009-.012-.011-.037-.008-.072l.02-.243h.155l.005-.058h-.155l.011-.129zm6.547 0l-.005.129h-.054l-.002.058h.054l-.01.243c-.002.058.006.098.025.12s.061.03.12.03h.079l.002-.06h-.079c-.029 0-.051-.007-.062-.016l-.002-.002c-.009-.012-.012-.037-.011-.072l.01-.243h.157l.002-.058h-.157l.005-.129zm2.56 0l-.003.129h-.058l-.001.058h.058l-.006.243c-.001.058.009.098.029.12s.06.03.118.03h.079l.001-.06h-.079c-.027 0-.047-.006-.058-.014l-.004-.004c-.009-.012-.013-.037-.012-.072l.006-.243h.155l.001-.058h-.155l.003-.129zm-5.304.046h.102c.084 0 .143.019.18.058s.053.096.05.177-.029.141-.07.178-.103.058-.187.058h-.103zm-6.682.072a.22.22 0 0 0-.088.02c-.026.016-.049.037-.067.062l.007-.07h-.078l-.047.453h.077l.026-.256c.005-.044.02-.078.047-.104s.061-.042.097-.04.059.011.075.032.021.053.016.096l-.027.272h.075l.028-.276a.19.19 0 0 0-.028-.144c-.023-.031-.06-.046-.112-.046zm.828 0c-.061-.003-.123.021-.169.066a.28.28 0 0 0-.08.178c-.006.072.011.128.05.17s.093.063.165.062c.029 0 .063-.001.091-.008a.45.45 0 0 0 .083-.026l.007-.07c-.053.025-.11.039-.167.042-.05.001-.088-.012-.113-.038-.028-.032-.041-.075-.037-.12h.344l.003-.036c.008-.058-.006-.115-.039-.16s-.084-.062-.139-.06zm.553 0c-.032-.001-.064.006-.094.02s-.051.036-.068.062l.006-.07h-.074l-.043.453h.075l.022-.24c.005-.05.019-.089.045-.116s.065-.045.103-.044l.03.004c.01.003.018.007.025.012l.007-.078-.018-.004zm.32 0c-.029-.001-.058.006-.084.02s-.052.037-.072.062l.006-.07h-.072l-.042.453h.073l.023-.256c.005-.044.023-.078.05-.104a.13.13 0 0 1 .096-.04c.035.002.06.011.076.032s.02.053.016.096l-.024.272h.077l.025-.276c.009-.051-.001-.103-.029-.144-.024-.031-.063-.046-.116-.046zm.476 0c-.053.003-.105.027-.144.066-.046.05-.072.113-.074.178-.006.072.01.128.047.17s.097.063.17.062c.029 0 .058-.002.087-.008a.44.44 0 0 0 .085-.026l.006-.07c-.053.027-.111.042-.169.042-.05.001-.088-.012-.114-.038a.16.16 0 0 1-.036-.12h.346l.003-.036a.22.22 0 0 0-.041-.16.16.16 0 0 0-.142-.06c-.009-.001-.017-.001-.026 0zm.579 0c-.033-.001-.066.006-.096.02s-.049.036-.064.062l.006-.07h-.078l-.039.453h.079l.02-.24c.003-.05.016-.089.04-.116s.063-.044.1-.044c.012 0 .024.001.036.004s.02.007.027.012l.006-.078-.02-.004zm.611 0c-.053.003-.105.027-.144.066-.047.049-.074.113-.077.178a.21.21 0 0 0 .055.17c.041.042.093.063.166.062a.44.44 0 0 0 .174-.034l.006-.07a.44.44 0 0 1-.171.042c-.05.001-.09-.012-.116-.038-.028-.033-.041-.076-.037-.12h.346l.003-.036a.22.22 0 0 0-.04-.16c-.034-.04-.085-.062-.14-.06-.009-.001-.017-.001-.026 0zm.573 0c-.031 0-.061.007-.09.02a.16.16 0 0 0-.067.062l.005-.07h-.078l-.035.453h.079l.019-.24c.003-.05.017-.089.041-.116s.065-.046.104-.044l.03.004a.11.11 0 0 1 .027.012l.006-.078-.02-.004h-.018zm1.176 0a.43.43 0 0 0-.157.032l-.005.07c.047-.025.099-.039.152-.04.039 0 .069.009.091.028s.034.05.031.082v.008h-.107c-.068 0-.118.012-.154.038s-.061.071-.062.116.009.078.035.104a.15.15 0 0 0 .11.038c.032.001.064-.005.094-.018a.16.16 0 0 0 .069-.062l-.005.068h.077l.017-.258c.005-.069-.009-.12-.04-.154s-.077-.052-.143-.052zm.579 0c-.032-.001-.064.006-.094.02s-.049.036-.064.062l.005-.07h-.076l-.03.453h.075l.016-.24c.004-.05.019-.089.044-.116s.062-.044.099-.044l.036.004c.01.003.018.007.025.012l.005-.078-.024-.004h-.014zm1.895 0a.21.21 0 0 0-.102.036c-.03.021-.051.058-.051.096s.006.065.026.086.052.036.098.046l.028.004c.046.01.076.02.089.03s.017.026.016.046-.01.042-.029.052a.16.16 0 0 1-.084.018.38.38 0 0 1-.163-.042l-.004.078a.61.61 0 0 0 .164.026c.058.001.105-.01.139-.034a.13.13 0 0 0 .056-.1c.002-.038-.006-.069-.026-.09-.033-.025-.073-.04-.114-.046l-.024-.008c-.028-.005-.056-.015-.081-.028-.012-.008-.018-.023-.016-.038 0-.021.011-.042.029-.054.027-.011.056-.017.085-.016.048-.001.095.009.137.03l.003-.068c-.021-.009-.044-.016-.067-.02a.63.63 0 0 0-.08-.004c-.011-.001-.019-.001-.028 0zm1.521 0a.17.17 0 0 0-.083.02c-.027.015-.051.037-.069.062l.003-.07h-.072l-.02.453h.073l.011-.256c.001-.044.016-.078.041-.104a.13.13 0 0 1 .1-.04.09.09 0 0 1 .075.032c.016.022.023.053.02.096l-.012.272h.079l.012-.276h-.004c.003-.063-.009-.111-.034-.144s-.066-.046-.119-.046zm.806 0c-.052.004-.102.027-.139.066-.045.049-.069.113-.069.178-.002.072.017.128.06.17s.096.063.169.062a.43.43 0 0 0 .173-.034l.003-.07c-.053.026-.111.04-.169.042-.05.001-.088-.012-.115-.038a.17.17 0 0 1-.042-.12h.346l.001-.036a.23.23 0 0 0-.048-.16.18.18 0 0 0-.142-.06c-.009-.001-.017-.001-.026 0zm.575 0a.21.21 0 0 0-.089.02c-.028.013-.049.036-.064.062l.003-.07h-.078l-.016.453h.079l.008-.24c0-.05.011-.089.034-.116s.064-.046.102-.044l.03.004c.01.003.02.007.028.012l.003-.078-.02-.004zm.324 0c-.03 0-.06.007-.087.02s-.048.037-.064.062l.002-.07h-.074l-.015.453h.075l.009-.256c.001-.044.015-.078.04-.104s.061-.041.098-.04.06.011.077.032.023.053.021.096l-.009.272h.073l.009-.276c.003-.063-.01-.111-.036-.144s-.064-.046-.117-.046zm.474 0c-.052.004-.102.027-.139.066a.26.26 0 0 0-.064.178c-.002.072.017.128.057.17s.101.063.174.062a.42.42 0 0 0 .17-.034l.002-.07a.42.42 0 0 1-.166.042c-.048.001-.087-.012-.116-.038-.029-.033-.045-.076-.043-.12h.346l.001-.036a.23.23 0 0 0-.05-.16c-.036-.045-.091-.063-.147-.06-.009-.001-.017-.001-.026 0zm.579 0a.21.21 0 0 0-.093.02.16.16 0 0 0-.064.062l.002-.07h-.074l-.012.453h.075l.006-.24c.002-.05.013-.089.037-.116s.062-.045.1-.044l.03.004c.012.003.021.007.03.012l.002-.078-.022-.004zm.609 0a.21.21 0 0 0-.14.066.26.26 0 0 0-.062.178c-.002.072.018.128.059.17s.101.063.174.062c.029 0 .058-.002.087-.008a.4.4 0 0 0 .083-.026l.001-.07c-.051.027-.108.042-.166.042-.049.001-.086-.012-.114-.038a.17.17 0 0 1-.046-.12h.348v-.036a.23.23 0 0 0-.053-.16c-.037-.041-.09-.063-.145-.06-.009-.001-.017-.001-.026 0zm.579 0a.21.21 0 0 0-.093.02c-.026.014-.048.036-.061.062l.001-.07h-.078l-.009.453h.079l.005-.24a.18.18 0 0 1 .032-.116c.022-.027.061-.045.099-.044.01 0 .024.002.034.004s.02.007.028.012l.001-.078-.02-.004zm-13.51.012l-.047.453h.079l.047-.453zm7.694 0l-.025.453h.075l.025-.453zm1.419 0l-.021.453h.075l.021-.453zm-7.851.05l.016.002c.038 0 .067.013.087.038s.031.06.027.096h-.27a.17.17 0 0 1 .052-.1.16.16 0 0 1 .088-.036zm1.377 0l.018.002c.037 0 .065.013.085.038s.031.06.028.096h-.268c.005-.037.023-.073.051-.1.025-.02.055-.033.086-.036zm1.186 0l.018.002c.037 0 .067.013.087.038s.03.061.025.096h-.268c.004-.037.022-.073.05-.1a.16.16 0 0 1 .087-.036zm2.583 0l.014.002c.04 0 .07.015.09.046s.032.074.028.13c0 .045-.014.09-.042.128-.025.031-.057.046-.096.046-.059 0-.07-.014-.092-.046-.024-.037-.034-.082-.028-.128s.017-.091.044-.13c.019-.027.049-.045.081-.048zm3.971 0c.054 0 .084.013.105.038s.033.062.031.098h-.268a.16.16 0 0 1 .046-.102.15.15 0 0 1 .086-.034zm1.375 0c.054 0 .083.013.103.038s.035.062.033.098h-.27c.003-.038.021-.075.049-.102.024-.02.053-.032.083-.034zm1.188 0c.055 0 .084.013.106.038a.14.14 0 0 1 .034.098h-.268c.002-.038.018-.074.044-.102.024-.02.053-.032.083-.034zm-7.342.174h.075l-.001.016c-.002.049-.016.089-.042.12s-.067.045-.106.042c-.026.002-.052-.007-.071-.024s-.022-.035-.02-.06a.09.09 0 0 1 .042-.076c.026-.016.064-.019.124-.018z" fill="#eceff4"/><path d="M3.054 52.246l-.019.185c-.308 2.965 2.405 5.381 5.394 5.381h47.138c2.987 0 5.7-2.415 5.392-5.38l-.015-.162c-.289 2.51-2.719 4.426-5.378 4.426H8.427c-2.667 0-5.097-1.928-5.373-4.449z" fill="url(#B)"/><g transform="translate(.75)" class="G"><ellipse cx="7.399" cy="47.614" rx="1.284" ry="1.052" paint-order="fill markers stroke" class="H"/><ellipse cx="7.403" cy="47.542" rx="1.239" ry=".927" paint-order="fill markers stroke" class="I"/><use href="#P" class="F"/></g><g transform="matrix(.77628 0 0 .77628 5.7758 -13.66)" class="G"><ellipse cx="7.399" cy="47.614" rx="1.284" ry="1.052" paint-order="fill markers stroke" class="H"/><ellipse cx="7.403" cy="47.542" rx="1.239" ry=".927" paint-order="fill markers stroke" class="I"/><use href="#P" class="F"/></g><g transform="matrix(.60824 0 0 .60824 9.5943 -24.879)" class="G"><ellipse cx="7.399" cy="47.614" rx="1.284" ry="1.052" paint-order="fill markers stroke" class="H"/><ellipse cx="7.403" cy="47.542" rx="1.239" ry=".927" paint-order="fill markers stroke" class="I"/><use href="#P" class="F"/></g><g transform="matrix(-1 0 0 1 63.73 -.012592)" class="G"><ellipse cx="7.399" cy="47.614" rx="1.284" ry="1.052" paint-order="fill markers stroke" class="H"/><ellipse cx="7.403" cy="47.542" rx="1.239" ry=".927" paint-order="fill markers stroke" class="I"/><use href="#P" class="F"/></g><g transform="matrix(-.77628 0 0 .77628 58.705 -13.672)" class="G"><ellipse cx="7.399" cy="47.614" rx="1.284" ry="1.052" paint-order="fill markers stroke" class="H"/><ellipse cx="7.403" cy="47.542" rx="1.239" ry=".927" paint-order="fill markers stroke" class="I"/><use href="#P" class="F"/></g><g transform="matrix(-.60824 0 0 .60824 54.886 -24.891)" class="G"><ellipse cx="7.399" cy="47.614" rx="1.284" ry="1.052" paint-order="fill markers stroke" class="H"/><ellipse cx="7.403" cy="47.542" rx="1.239" ry=".927" paint-order="fill markers stroke" class="I"/><use href="#P" class="F"/></g><path d="M34.978 8.44c-.154 0-.191.153-.28.28l-1.996 2.842c-.088.126.122.28.276.28h4.064c.154 0 .362-.152.276-.28L35.416 8.72c-.085-.128-.125-.28-.28-.28zm.034 1.058c.131 0 .235.126.235.28v.62c0 .154-.104.28-.235.28s-.238-.126-.238-.28v-.62c0-.154.107-.28.238-.28m-.015 1.346a.22.197 0 0 1 .015 0 .22.197 0 0 1 .22.196.22.197 0 0 1-.22.197.22.197 0 0 1-.219-.197.22.197 0 0 1 .204-.196z" fill="#eceff4"/><rect transform="matrix(1.4711 0 0 1.3189 -24.058 -17.54)" x="48.408" y="54.494" width="5.314" height="1.029" ry=".394" fill="url(#G)" filter="url(#F)"/><rect x="47.067" y="54.359" width="8.043" height="1.414" ry=".677" fill="url(#K)"/><rect x="18.062" y="54.139" width="24.938" height="1.813" ry=".688" fill="url(#N)" filter="url(#O)"/><path d="M19.072 54.545v1.148h6.045v-1.148zm6.738.021v1.148h16.318v-1.148z" fill="url(#M)"/><path d="M40.472 27.202l-2.776.019-.22-3.849 2.683-.015c2.959-.017 5.143-1.669 4.889-3.622-.245-1.884-2.684-3.353-5.457-3.341s-4.981 1.507-4.918 3.395l.058 1.77-5.29.029.028-1.772c.03-1.89-2.206-3.364-4.995-3.352s-5.225 1.512-5.44 3.407c-.223 1.965 2.009 3.598 4.989 3.581l2.696-.016-.154 3.859-2.791.018c-3.086.02-5.795 1.857-6.059 4.183-.274 2.421 2.187 4.435 5.505 4.408s6.029-2.08 6.067-4.494l.032-2.104 5.666-.04.069 2.095v.005c.079 2.411 2.821 4.416 6.117 4.389 3.291-.027 5.694-2.071 5.381-4.474-.301-2.309-3.017-4.101-6.08-4.08zm-.747-9.15c1.41-.007 2.631.746 2.733 1.697.103.968-.993 1.773-2.449 1.781l-2.639.015-.101-1.769c-.054-.952 1.046-1.717 2.456-1.725zm-18.08 1.807c.084-.956 1.303-1.723 2.721-1.731s2.536.749 2.497 1.703l-.071 1.773-2.651.015c-1.465.008-2.582-.787-2.495-1.76zm1.72 13.778c-1.628.013-2.859-.966-2.753-2.163.105-1.173 1.461-2.117 3.031-2.128l2.84-.02-.085 2.106c-.047 1.196-1.406 2.193-3.033 2.206m5.986-6.362l.06-3.855 5.379-.031.126 3.849zM40.985 33.5c-1.617.014-2.985-.962-3.054-2.154l-.12-2.1 2.826-.019c1.559-.011 2.92.91 3.043 2.077.125 1.19-1.079 2.183-2.695 2.196" opacity=".25" class="F"/></svg>