<svg xmlns="http://www.w3.org/2000/svg" xmlns:xlink="http://www.w3.org/1999/xlink" fill="none" viewBox="0 0 64 64"><defs><linearGradient id="a" x1="22.357" x2="32.692" y1="7" y2="52.844" gradientUnits="userSpaceOnUse"><stop offset="0" stop-color="#26343c"/><stop offset=".45" stop-color="#1a2530"/><stop offset="1" stop-color="#121920"/></linearGradient><linearGradient id="b" x1="5" x2="59" y1="53" y2="53" gradientUnits="userSpaceOnUse"><stop offset="0" stop-color="#161d24"/><stop offset=".5" stop-color="#08121c"/><stop offset="1" stop-color="#121920"/></linearGradient><linearGradient id="c" x1="5" x2="59" y1="7" y2="7" gradientUnits="userSpaceOnUse"><stop offset="0" stop-color="#42545f"/><stop offset=".5" stop-color="#334551"/><stop offset="1" stop-color="#283742"/></linearGradient><linearGradient id="d" x1="41.198" x2="4.072" y1="10.165" y2="36.048" gradientUnits="userSpaceOnUse"><stop offset="0" stop-color="#1abc9c"/><stop offset="1" stop-color="#2980b9"/></linearGradient><linearGradient id="e" x1="27.662" x2="53.865" y1="33.059" y2="38.168" gradientUnits="userSpaceOnUse"><stop offset="0" stop-color="#cc4a5e"/><stop offset="1" stop-color="#aa478a"/></linearGradient><linearGradient id="f"><stop offset="0" stop-color="#334545"/><stop offset="1" stop-color="#536161"/></linearGradient><linearGradient xlink:href="#f" id="g" x1="21.957" x2="15.652" y1="58.527" y2="37.826" gradientUnits="userSpaceOnUse"/><linearGradient xlink:href="#f" id="h" x1="31.045" x2="22.09" y1="41.917" y2="36.713" gradientUnits="userSpaceOnUse"/><linearGradient id="i"><stop offset="0"/><stop offset="1" stop-opacity="0"/></linearGradient><linearGradient xlink:href="#i" id="j" x1="9" x2="9" y1="11" y2="49" gradientUnits="userSpaceOnUse"/><linearGradient id="k" x1="5" x2="36.427" y1="8" y2="39.153" gradientUnits="userSpaceOnUse"><stop offset="0" stop-color="#fff" stop-opacity=".4"/><stop offset="1" stop-color="#fff" stop-opacity=".15"/></linearGradient><linearGradient xlink:href="#i" id="l" x1="31" x2="61" y1="21.5" y2="54" gradientUnits="userSpaceOnUse"/><linearGradient id="m" x1="34.072" x2="34.072" y1="21.615" y2="59.003" gradientUnits="userSpaceOnUse"><stop offset="0" stop-color="#fccec0"/><stop offset="1" stop-color="#c98350"/></linearGradient><linearGradient id="n" x1="34.688" x2="34.688" y1="40.767" y2="59.003" gradientUnits="userSpaceOnUse"><stop offset="0" stop-color="#a96535" stop-opacity="0"/><stop offset="1" stop-color="#a96535"/></linearGradient><linearGradient id="o" x1="34.688" x2="34.688" y1="21.86" y2="46.5" gradientUnits="userSpaceOnUse"><stop offset="0" stop-color="#fff"/><stop offset="1" stop-color="#fff" stop-opacity=".5"/></linearGradient><style id="current-color-scheme" type="text/css">.ColorScheme-Highlight{color:#3daee9}</style></defs><path fill="url(#a)" d="M5 11a4 4 0 0 1 4-4h46a4 4 0 0 1 4 4v38a4 4 0 0 1-4 4H9a4 4 0 0 1-4-4z"/><path fill="url(#b)" d="M55 53a4 4 0 0 0 4-4v-1a4 4 0 0 1-4 4H9a4 4 0 0 1-4-4v1a4 4 0 0 0 4 4z"/><path fill="url(#c)" d="M9 7a4 4 0 0 0-4 4v1a4 4 0 0 1 4-4h46a4 4 0 0 1 4 4v-1a4 4 0 0 0-4-4z"/><path fill="url(#d)" d="M10 11a1 1 0 0 0-1 1v36a1 1 0 0 0 1 1h44a1 1 0 0 0 1-1V12a1 1 0 0 0-1-1z"/><path fill="url(#e)" d="M54.662 11.25 9 45l2 4h43a1 1 0 0 0 1-1V11.989a1 1 0 0 0-.338-.739"/><path fill="#aa478a" d="M54.662 11.25 23.5 34.28 55 24V11.983a1 1 0 0 0-.339-.733"/><path fill="url(#g)" d="M23.5 34.283 9 45v3a1 1 0 0 0 1 1h33z"/><path fill="url(#h)" d="M43 49 23.5 34.28 23.378 49z"/><path fill="url(#j)" d="M9 12a1 1 0 0 1 1-1h44a1 1 0 0 1 1 1v36a1 1 0 0 1-1 1H10a1 1 0 0 1-1-1z" opacity=".1"/><path fill="url(#k)" d="M5 12a4 4 0 0 1 4-4h46a4 4 0 0 1 4 4v36a4 4 0 0 1-4 4H9a4 4 0 0 1-4-4z" opacity=".1"/><path d="M42 24a10 10 0 0 1-10 10 10 10 0 0 1-10-10 10 10 0 0 1 10-10 10 10 0 0 1 10 10" class="ColorScheme-Highlight" opacity=".5" style="fill:currentColor"/><path d="M40 24a8 8 0 0 1-8 8 8 8 0 0 1-8-8 8 8 0 0 1 8-8 8 8 0 0 1 8 8" class="ColorScheme-Highlight" style="fill:currentColor"/><path fill="#000" fill-opacity=".4" d="M40 24a8 8 0 0 1-8 8 8 8 0 0 1-8-8 8 8 0 0 1 8-8 8 8 0 0 1 8 8"/><path fill="url(#l)" d="m59 48.5-26-26V53h26z" opacity=".2"/><path fill="url(#m)" d="M33.356 58.5c4.219.562 9.469.51 10.084.5h.121c3.827-.025 6.806-2.341 7.273-5.965L52 45c1-6-3.5-7.5-5-4.5 0-3.5-4-5.5-6-2.5 0-3-4-5-6-2V25c0-4-6-5-6 0v20.5s-1.005-1.505-2-2.5c-6.818-6.818-9-1-9-1 4 3 7.856 15.5 15.356 16.5"/><path fill="url(#n)" fill-rule="evenodd" d="M33.357 57.5c4.218.563 9.468.51 10.083.5h.121c3.749-.024 6.827-2.281 7.391-5.778l-.118.813c-.467 3.623-3.446 5.94-7.273 5.965h-.12c-.616.01-5.866.062-10.085-.5-4.81-.641-8.122-6.015-10.934-10.577C20.85 45.373 19.434 43.076 18 42c1.308 1.17 2.986 2.594 4.422 4.923 2.812 4.562 6.124 9.936 10.934 10.577m17.595-5.278.032-.222q-.014.111-.032.222" clip-rule="evenodd"/><g fill="url(#o)" opacity=".5"><path d="M18 42c.87-1.308 3.743-3.257 9 2 .995.995 2 1.5 2 1.5s-1.005-1.505-2-2.5c-6.818-6.818-9-1-9-1M29 26c0-5 6-4 6 0v-1c0-4-6-5-6 0zM35 36c2-3 6-1 6 2 2-3 6-1 6 2.5 1.4-2.802 5.418-1.679 5.129 3.369-.26-4.185-3.826-4.975-5.129-2.369 0-3.5-4-5.5-6-2.5 0-3-4-5-6-2z"/></g></svg>