<svg xmlns="http://www.w3.org/2000/svg" xmlns:xlink="http://www.w3.org/1999/xlink" width="64" height="64"><defs><linearGradient id="a"><stop style="stop-color:#2e5d89"/><stop offset="1" style="stop-color:#1b92f4"/></linearGradient><linearGradient id="d"><stop style="stop-color:#147de1"/><stop offset=".7" style="stop-color:#88bff4"/><stop offset="1" style="stop-color:#3995ed"/></linearGradient><linearGradient id="b"><stop style="stop-color:#23262c"/><stop offset=".7" style="stop-color:#4e5462"/><stop offset="1" style="stop-color:#23262c"/></linearGradient><linearGradient id="c"><stop style="stop-color:#74868f"/><stop offset=".7" style="stop-color:#d3d9dc"/><stop offset="1" style="stop-color:#d6dddf"/></linearGradient><linearGradient id="e"><stop style="stop-color:#292c2f"/><stop offset="1" style="stop-opacity:0"/></linearGradient><linearGradient id="j" x1="8.664" x2="8.618" y1="15.931" y2="1" gradientTransform="matrix(3.44805 0 0 3.44805 379.378 494.605)" gradientUnits="userSpaceOnUse"><stop offset="0" stop-color="#88c0d0"/><stop offset="1" stop-color="#5e81ac"/></linearGradient><linearGradient xlink:href="#b" id="l" x1="407.348" x2="408.571" gradientTransform="translate(-246.917 -348.874)scale(1.63489)" gradientUnits="userSpaceOnUse"/><linearGradient xlink:href="#c" id="m" x1="407.348" x2="408.571" gradientTransform="translate(-246.917 -348.874)scale(1.63489)" gradientUnits="userSpaceOnUse"/><linearGradient xlink:href="#d" id="n" x1="407.348" x2="408.571" gradientTransform="translate(-246.917 -348.874)scale(1.63489)" gradientUnits="userSpaceOnUse"/><linearGradient xlink:href="#b" id="o" x1="22.777" x2="24" gradientTransform="translate(381.816 494.4)scale(1.63489)" gradientUnits="userSpaceOnUse"/><linearGradient xlink:href="#e" id="k" x1="400.571" x2="414.571" y1="525.798" y2="539.798" gradientTransform="translate(-242.876 -343.535)scale(1.625)" gradientUnits="userSpaceOnUse"/></defs><g transform="translate(-376.571 -491.798)"><rect width="52" height="52" x="382.571" y="497.798" fill="url(#j)" rx="26" ry="26" style="fill:url(#j)"/><path fill="#fff" d="M405.21 506.101q-.143.006-.285.015c-.165.01-3.568-.015-3.568-.015-2.751 0-4.402 1.1-4.402 4.952 0 1.05.022 3.444 0 4.536v10.937c.024 1.179 0 3.283 0 4.333 0 4.094 1.1 5.502 6.774 5.158 0 0 .837-.026 1.48 0z" opacity=".15"/><ellipse cx="401.283" cy="529.982" rx="3.385" ry="3.3" style="fill:#fff;fill-opacity:1;stroke-width:1.03028"/><ellipse cx="401.283" cy="521.184" rx="3.385" ry="3.3" style="fill:#fff;fill-opacity:1;stroke-width:1.03028"/><ellipse cx="401.283" cy="512.39" rx="3.385" ry="3.3" style="fill:#fff;fill-opacity:1;stroke-width:1.03028"/><path d="m421.053 511.384-1 23 8 8h6v-18z" style="opacity:.2;fill:url(#k);fill-rule:evenodd"/><path d="M419.053 511.384h2v12h-2z" style="fill:url(#l)"/><path d="M419.053 523.384h2v8.619h-2z" style="fill:url(#m)"/><path d="M419.053 530.384h2v1.619h-2z" style="fill:url(#n)"/><path d="M419.053 532.003v.381l1 2 1-2v-.381z" style="fill:url(#o);fill-rule:evenodd"/></g></svg>