<svg xmlns="http://www.w3.org/2000/svg" xmlns:xlink="http://www.w3.org/1999/xlink" viewBox="0 0 64 64"><defs><filter id="h" width="1.044" height="1.206" x="-.022" y="-.103" color-interpolation-filters="sRGB"><feGaussianBlur stdDeviation=".472"/></filter><filter id="f" width="1.103" height="1.144" x="-.051" y="-.072" color-interpolation-filters="sRGB"><feGaussianBlur stdDeviation="1.113"/></filter><filter id="k" width="1.085" height="1.202" x="-.043" y="-.101" color-interpolation-filters="sRGB"><feGaussianBlur stdDeviation=".463"/></filter><linearGradient id="a"><stop offset="0" style="stop-color:#ffb8ff;stop-opacity:1"/><stop offset="1" style="stop-color:#2a7fff;stop-opacity:1"/></linearGradient><linearGradient xlink:href="#a" id="e" x1="6" x2="58" y1="58" y2="6" gradientUnits="userSpaceOnUse"/></defs><linearGradient id="s" x1="47" x2="47" y1="25" y2="21" gradientTransform="matrix(.71705 0 0 .70855 8.955 7.884)" gradientUnits="userSpaceOnUse"><stop offset="0" stop-color="#fdae23"/><stop offset="1" stop-color="#fdca73"/></linearGradient><linearGradient id="t" x1="51" x2="51" y1="29" y2="25" gradientTransform="matrix(.71705 0 0 .70855 8.955 7.884)" gradientUnits="userSpaceOnUse"><stop offset="0" stop-color="#da4453"/><stop offset="1" stop-color="#e47681"/></linearGradient><linearGradient id="v" x1="43" x2="43" y1="29" y2="25" gradientTransform="matrix(.71705 0 0 .70855 8.955 7.884)" gradientUnits="userSpaceOnUse"><stop offset="0" stop-color="#0c85dc"/><stop offset="1" stop-color="#43aaf5"/></linearGradient><linearGradient id="u" x1="47" x2="47" y1="33" y2="29" gradientTransform="matrix(.71705 0 0 .70855 8.955 7.884)" gradientUnits="userSpaceOnUse"><stop offset="0" stop-color="#27ab5f"/><stop offset="1" stop-color="#4bd786"/></linearGradient><linearGradient id="b"><stop offset="0" stop-color="#0f1419"/><stop offset="1" stop-color="#22282e"/></linearGradient><linearGradient id="d"><stop offset="0" stop-color="#171e25"/><stop offset="1" stop-color="#333c45"/></linearGradient><linearGradient id="c"><stop offset="0" stop-color="#6f7881"/><stop offset="1" stop-color="#b0b4b8"/></linearGradient><linearGradient id="g" x1="32" x2="32" y1="53" y2="16" gradientTransform="matrix(.71705 0 0 .70855 8.955 7.884)" gradientUnits="userSpaceOnUse"><stop offset="0" stop-color="#535a61"/><stop offset=".27" stop-color="#6f7881"/><stop offset="1" stop-color="#adb6bb"/></linearGradient><radialGradient xlink:href="#b" id="n" cx="387.57" cy="537.57" r="1" gradientTransform="matrix(2.8682 .0003 -.0016 14.87955 -1097.523 -7954.09)" gradientUnits="userSpaceOnUse"/><linearGradient xlink:href="#c" id="i" x1="22" x2="22" y1="32" y2="22" gradientTransform="matrix(.71705 0 0 .70855 8.955 7.884)" gradientUnits="userSpaceOnUse"/><linearGradient xlink:href="#d" id="j" x1="12" x2="12" y1="32" y2="22" gradientTransform="matrix(.71705 0 0 .70855 8.955 7.884)" gradientUnits="userSpaceOnUse"/><linearGradient xlink:href="#c" id="l" x1="32" x2="32" y1="45" y2="34" gradientTransform="matrix(.71705 0 0 .70855 8.955 7.884)" gradientUnits="userSpaceOnUse"/><linearGradient xlink:href="#d" id="m" x1="32" x2="32" y1="43" y2="36" gradientTransform="matrix(.71705 0 0 .70855 8.955 7.884)" gradientUnits="userSpaceOnUse"/><radialGradient xlink:href="#b" id="o" cx="387.57" cy="537.57" r="1" gradientTransform="matrix(-2.8682 .00001 .0001 14.87955 1162.184 -7954.09)" gradientUnits="userSpaceOnUse"/><circle cx="32" cy="32" r="26" style="fill-opacity:1;fill:url(#e)"/><path d="M15.002 15.996a9 14 0 0 0-9 14v18.5a4.5 4.5 0 0 0 4.5 4.5 4.5 4.5 0 0 0 3.18-1.32l8.68-8.68h19.28l8.68 8.68a4.5 4.5 0 0 0 3.18 1.32 4.5 4.5 0 0 0 4.5-4.5v-18.5a9 14 0 0 0-9-14z" filter="url(#f)" opacity=".25" style="fill-rule:evenodd" transform="matrix(.71705 0 0 .70855 8.955 7.884)"/><path fill="url(#g)" d="M19.712 19.218a6.453 9.92 0 0 0-6.453 9.92v13.108a3.227 3.188 0 0 0 3.226 3.188 3.227 3.188 0 0 0 2.28-.935l6.224-6.15h13.825l6.224 6.15a3.227 3.188 0 0 0 2.28.935 3.227 3.188 0 0 0 3.227-3.188V29.138a6.453 9.92 0 0 0-6.453-9.92z" style="fill:url(#g);fill-rule:evenodd;stroke-width:.712785"/><path fill="#292c2f" d="m22.36 42-8.68 8.68A4.5 4.5 0 0 1 10.5 52 4.5 4.5 0 0 1 6 47.5v1a4.5 4.5 0 0 0 4.5 4.5 4.5 4.5 0 0 0 3.18-1.32L22.36 43h19.28l8.68 8.68A4.5 4.5 0 0 0 53.5 53a4.5 4.5 0 0 0 4.5-4.5v-1a4.5 4.5 0 0 1-4.5 4.5 4.5 4.5 0 0 1-3.18-1.32L41.64 42Z" filter="url(#h)" opacity=".2" style="fill-rule:evenodd" transform="matrix(.71705 0 0 .70855 8.955 7.884)"/><path fill="#6f7881" d="M47.677 27.012a5.02 4.96 0 0 1-5.02 4.96 5.02 4.96 0 0 1-5.019-4.96 5.02 4.96 0 0 1 5.02-4.96 5.02 4.96 0 0 1 5.019 4.96m-21.512 0a5.02 4.96 0 0 1-5.019 4.96 5.02 4.96 0 0 1-5.02-4.96 5.02 4.96 0 0 1 5.02-4.96 5.02 4.96 0 0 1 5.02 4.96" style="fill-rule:evenodd;stroke-width:.712785"/><ellipse cx="21.145" cy="27.015" fill="url(#i)" rx="3.585" ry="3.543" style="fill:url(#i);fill-rule:evenodd;stroke-width:.712785"/><path fill="url(#j)" d="M21.146 23.47a3.585 3.543 0 0 0-1.434.3v1.825h-1.85a3.585 3.543 0 0 0-.301 1.417 3.585 3.543 0 0 0 .304 1.417h1.847v1.828a3.585 3.543 0 0 0 1.434.298 3.585 3.543 0 0 0 1.434-.3v-1.826h1.85a3.585 3.543 0 0 0 .301-1.417 3.585 3.543 0 0 0-.302-1.417H22.58v-1.828a3.585 3.543 0 0 0-1.434-.298" style="fill:url(#j);fill-rule:evenodd;stroke-width:.712785"/><path d="M45.002 39.496a5.5 5.5 0 0 1-5.5 5.5 5.5 5.5 0 0 1-5.5-5.5 5.5 5.5 0 0 1 5.5-5.5 5.5 5.5 0 0 1 5.5 5.5m-15 0a5.5 5.5 0 0 1-5.5 5.5 5.5 5.5 0 0 1-5.5-5.5 5.5 5.5 0 0 1 5.5-5.5 5.5 5.5 0 0 1 5.5 5.5" filter="url(#k)" opacity=".25" style="fill-rule:evenodd" transform="matrix(.71705 0 0 .70855 8.955 7.884)"/><path fill="url(#l)" d="M41.223 35.869a3.944 3.897 0 0 1-3.943 3.897 3.944 3.897 0 0 1-3.944-3.897 3.944 3.897 0 0 1 3.944-3.897 3.944 3.897 0 0 1 3.943 3.897m-10.755 0a3.944 3.897 0 0 1-3.944 3.897 3.944 3.897 0 0 1-3.944-3.897 3.944 3.897 0 0 1 3.944-3.897 3.944 3.897 0 0 1 3.944 3.897" style="fill:url(#l);fill-rule:evenodd;stroke-width:.712785"/><path fill="url(#m)" d="M39.79 35.869a2.51 2.48 0 0 1-2.51 2.48 2.51 2.48 0 0 1-2.51-2.48 2.51 2.48 0 0 1 2.51-2.48 2.51 2.48 0 0 1 2.51 2.48m-10.756 0a2.51 2.48 0 0 1-2.51 2.48 2.51 2.48 0 0 1-2.51-2.48 2.51 2.48 0 0 1 2.51-2.48 2.51 2.48 0 0 1 2.51 2.48" style="fill:url(#m);fill-rule:evenodd;stroke-width:.712785"/><path fill="url(#n)" d="M13.259 29.846v12.4a3.227 3.188 0 0 0 1.36 2.594 2.868 4.96 0 0 0 1.508-4.366v-5.668a2.868 4.96 0 0 0-2.868-4.96" style="fill:url(#n);fill-rule:evenodd;stroke-width:.712785"/><path fill="url(#o)" d="M50.545 29.846v12.4a3.227 3.188 0 0 1-1.358 2.594 2.868 4.96 0 0 1-1.51-4.366v-5.668a2.868 4.96 0 0 1 2.868-4.96" style="fill:url(#o);fill-rule:evenodd;stroke-width:.712785"/><ellipse cx="42.656" cy="24.181" fill="url(#s)" rx="1.434" ry="1.417" style="fill:url(#s);fill-rule:evenodd;stroke-width:.712785"/><ellipse cx="45.524" cy="27.015" fill="url(#t)" rx="1.434" ry="1.417" style="fill:url(#t);fill-rule:evenodd;stroke-width:.712785"/><ellipse cx="42.656" cy="29.849" fill="url(#u)" rx="1.434" ry="1.417" style="fill:url(#u);fill-rule:evenodd;stroke-width:.712785"/><ellipse cx="39.788" cy="27.015" fill="url(#v)" rx="1.434" ry="1.417" style="fill:url(#v);fill-rule:evenodd;stroke-width:.712785"/></svg>