<svg xmlns="http://www.w3.org/2000/svg" xmlns:xlink="http://www.w3.org/1999/xlink" width="64" height="64"><defs><linearGradient id="b"><stop offset="0" style="stop-color:#2d4153;stop-opacity:1"/><stop offset="1" style="stop-color:#566069"/></linearGradient><linearGradient id="a"><stop style="stop-color:#197cf1"/><stop offset="1" style="stop-color:#21c9fb"/></linearGradient><linearGradient xlink:href="#a" id="d" x1="20" x2="8" y1="19" y2="10" gradientTransform="matrix(2 0 0 2 377.071 489.445)" gradientUnits="userSpaceOnUse"/><linearGradient xlink:href="#b" id="c" x1="382.571" x2="434.571" y1="497.798" y2="549.798" gradientUnits="userSpaceOnUse"/></defs><g transform="translate(-376.571 -491.798)"><circle cx="408.571" cy="523.798" r="26" fill-rule="evenodd" style="fill-opacity:1;fill:url(#c)"/><path d="M422.437 505.108v1.734h5.784a26 26 0 0 0-1.64-1.734zm0 3.467v1.733h6.934v-1.733zm0 3.467v1.733h6.934v-1.733zm0 3.466v1.734h6.934v-1.734zm0 3.467v1.733h6.934v-1.733zm0 3.466v1.734h6.934v-1.734zM388.86 537.7c-.604 0-1.089.5-1.089 1.122v.554a26 26 0 0 0 2.79 3.155h15.188c.603 0 1.088-.5 1.088-1.122v-2.587c0-.622-.485-1.122-1.088-1.122zm22.533 0c-.604 0-1.089.5-1.089 1.122v2.587c0 .622.485 1.122 1.089 1.122h15.223a26 26 0 0 0 2.754-3.164v-.545c0-.622-.485-1.122-1.088-1.122z" opacity=".25" style="fill:#ededed;fill-opacity:1;opacity:.79540248"/><path d="M403.071 509.445a4 4 0 0 0-4 4 4 4 0 0 0 3 3.872v-2.145a2 2 0 0 1-1-1.727 2 2 0 0 1 2-2 2 2 0 0 1 2 2 2 2 0 0 1-.02.27l1.688 1.312a4 4 0 0 0 .332-1.582 4 4 0 0 0-4-4zm0 4 .012 19.5 5.989-8h9z" style="fill:url(#d);stroke-width:2;stroke-linejoin:round"/></g></svg>