<svg xmlns="http://www.w3.org/2000/svg" xmlns:xlink="http://www.w3.org/1999/xlink" width="64" height="64"><defs><linearGradient id="b"><stop style="stop-color:#1f2021"/><stop offset="1" style="stop-color:#272b2d"/></linearGradient><linearGradient xlink:href="#a" id="e" x2="0" y1="543.798" y2="503.798" gradientTransform="matrix(1.02718 0 0 1 -394.979 -499.798)" gradientUnits="userSpaceOnUse"/><linearGradient id="a"><stop style="stop-color:#2a2c2f"/><stop offset="1" style="stop-color:#424649"/></linearGradient><linearGradient id="c"><stop style="stop-color:#c61423"/><stop offset="1" style="stop-color:#dc2b41"/></linearGradient><linearGradient xlink:href="#b" id="f" x2="0" y1="543.798" y2="511.798" gradientUnits="userSpaceOnUse"/><linearGradient xlink:href="#c" id="h" x2="0" y1="520.347" y2="503.798" gradientUnits="userSpaceOnUse"/><linearGradient xlink:href="#d" id="g" x1="24" x2="48" y1="32" y2="56" gradientUnits="userSpaceOnUse"/><linearGradient id="d"><stop style="stop-color:#292c2f"/><stop offset="1" style="stop-opacity:0"/></linearGradient></defs><g transform="translate(-376.571 -491.798)"><path d="M388.571 510.798c-.554 0-1 .446-1 1v7c0 .554.446 1 1 1h2v-9z" style="fill:#afc0c6"/><path d="M11 6v14h2v13h-2v25h42V28h-1v-5h1V13l-7-7z" style="fill:url(#e)" transform="translate(376.571 491.798)"/><path d="M387.571 548.798h42v1h-42z" style="stroke-opacity:.550265;fill:#1c1e20;stroke-width:2.8"/><rect width="15.6" height="15.6" x="400.772" y="506.898" rx="7.8" style="fill:#abb9be;stroke-width:.1"/><path d="M390.571 511.798h36v32h-36z" style="fill:url(#f)"/><path d="m28.707 31.293-1.414 1.414 8.05 8.05-.224.243 17 17H53v-8.88L39.805 35.923 36.7 39.287zm-2.146 6.146-2.122 2.122 5.5 5.5-1.353 1.353L40.172 58h6.95z" style="fill:url(#g);opacity:.2" transform="translate(376.571 491.798)"/><path d="M390.571 505.798h36v11h-36z" style="fill:url(#h)"/><rect width="31" height="2" x="393.071" y="545.798" rx="1" style="fill:#1c1e20"/><path d="M387.571 511.798h2v1h-2z" style="fill:#96aab5"/><path d="M404.571 522.798c-.554 0-1 .446-1 1s.446 1 1 1 1-.446 1-1-.446-1-1-1M411.571 522.798l-2 2 3 3-3 3 2 2 3-3 2-2zM402.071 528.798c-.83 0-1.5.669-1.5 1.5s.67 1.5 1.5 1.5c.831 0 1.5-.669 1.5-1.5s-.669-1.5-1.5-1.5M406.571 534.798c-1.108 0-2 .892-2 2s.892 2 2 2 2-.892 2-2-.892-2-2-2" style="fill:#afc0c6"/><path d="M16 16v1h12v-1zm0 2v1h18v-1zm0 2v1h8v-1zm0 2v1h5v-1z" style="fill:#dfe6e8" transform="translate(376.571 491.798)"/><path d="m394.571 519.798-1 1-1-1z" style="fill:#dfe6e8;fill-rule:evenodd"/><path d="M43 47v1h5v-1zm0 2v1h2v-1z" style="fill:#afc0c6" transform="translate(376.571 491.798)"/></g></svg>