<svg xmlns="http://www.w3.org/2000/svg" xmlns:xlink="http://www.w3.org/1999/xlink" width="64" height="64"><defs><linearGradient id="d" x1="32" x2="50.199" y1="32" y2="50.2" gradientUnits="userSpaceOnUse"><stop stop-color="#292c2f"/><stop offset="1" stop-opacity="0"/></linearGradient><linearGradient xlink:href="#a" id="c" x1="-592.821" x2="-592.821" y1="58" y2="6"/><linearGradient xlink:href="#b" id="e" x1="-184.303" x2="-184.303" y1="41" y2="23"/><linearGradient xlink:href="#b" id="f" x1="414.571" x2="434.571" y1="-618.946" y2="-618.946"/><linearGradient id="a" gradientUnits="userSpaceOnUse"><stop stop-color="#bdc3c7"/><stop offset="1" stop-color="#dadfe1"/></linearGradient><linearGradient id="b" gradientUnits="userSpaceOnUse"><stop stop-color="#566472"/><stop offset="1" stop-color="#6c7a89"/></linearGradient><linearGradient xlink:href="#a" id="g" x1="-.001" x2="-.001" y1="545.791" y2="533.791"/></defs><g transform="translate(-376.571 -491.798)"><path fill="url(#c)" d="M32 6C17.597 6 6.002 17.596 6.002 32S17.597 58 32 58s25.998-11.596 25.998-26S46.403 6 32 6m0 23c1.662 0 3 1.338 3 3s-1.338 3-3 3-3-1.338-3-3 1.338-3 3-3" transform="translate(376.571 491.798)"/><path fill="url(#d)" fill-rule="evenodd" d="m38.125 25.375-.555.883A8 8 0 0 1 32 40a8 8 0 0 1-6.33-3.123l-.951.498 17.965 18.309a25.95 25.95 0 0 0 12.998-13zm-1.1 1.752-2.289 3.65A3 3 0 0 1 35 32a2.993 2.993 0 0 1-4.719 2.455l-3.717 1.951A7 7 0 0 0 39 32a7 7 0 0 0-1.975-4.873" opacity=".2" transform="translate(376.571 491.798)"/><path fill="url(#e)" d="M32 23a8.98 8.98 0 0 0-9 9 8.98 8.98 0 0 0 9 9 8.98 8.98 0 0 0 9-9 8.98 8.98 0 0 0-9-9m0 1a8 8 0 1 1 0 16 8 8 0 1 1 0-16m0 1a7 7 0 1 0 0 14 7 7 0 1 0 0-14m0 4c1.662 0 3 1.338 3 3s-1.338 3-3 3-3-1.338-3-3 1.338-3 3-3" transform="translate(376.571 491.798)"/><path fill="#2e3132" fill-opacity=".294" d="M382.573 522.989v.654c0 14.489 11.595 26.154 25.998 26.154s25.998-11.665 25.998-26.154v-.654c-.344 14.183-11.814 25.809-25.998 25.809s-25.654-11.625-25.998-25.809m25.998-7.191a8 8 0 1 0 0 16 8 8 0 1 0 0-16m0 1a7 7 0 1 1 0 14 7 7 0 1 1 0-14"/><circle cx="424.571" cy="507.798" r="10" fill="url(#f)"/><path fill="url(#g)" fill-rule="evenodd" d="M421.379 501.798a4.01 4.01 0 0 1 3.191 3.945 4.02 4.02 0 0 1-1.285 2.95 3 3 0 0 1-.715-1.943c0-.165.026-.323.051-.48a4.01 4.01 0 0 0-2.05 3.5c0 2.232 1.783 4.028 4 4.028s4-1.796 4-4.028a7.986 7.986 0 0 0-7.192-7.972"/></g></svg>