<svg xmlns="http://www.w3.org/2000/svg" xmlns:xlink="http://www.w3.org/1999/xlink" width="64" height="64"><defs><linearGradient xlink:href="#a" id="f" x1="408.572" x2="422.571" y1="523.798" y2="537.798" gradientTransform="matrix(1.29989 0 0 1.3 -499.097 -648.937)" gradientUnits="userSpaceOnUse"/><linearGradient id="a"><stop style="stop-color:#292c2f"/><stop offset="1" style="stop-opacity:0"/></linearGradient><linearGradient xlink:href="#b" id="d" x2="0" y1="540.798" y2="506.798" gradientTransform="matrix(1.52928 0 0 1.52941 -592.82 -769.103)" gradientUnits="userSpaceOnUse"/><linearGradient xlink:href="#c" id="g" x2="0" y1="540.798" y2="506.798" gradientTransform="translate(-184.303 -245.305)scale(.52941)" gradientUnits="userSpaceOnUse"/><linearGradient xlink:href="#a" id="h" x1="407.557" x2="418.327" y1="522.916" y2="533.685" gradientTransform="matrix(1.29989 0 0 1.3 -112.208 -177.993)" gradientUnits="userSpaceOnUse"/><linearGradient id="c"><stop style="stop-color:#fbd783"/><stop offset="1" style="stop-color:#fcdf9c"/></linearGradient><linearGradient id="b"><stop style="stop-color:#f9b425"/><stop offset="1" style="stop-color:#f9bf3b"/></linearGradient><linearGradient xlink:href="#c" id="e" x2="0" y1="517.798" y2="497.798" gradientTransform="translate(-376.571 -491.798)" gradientUnits="userSpaceOnUse"/></defs><path d="M32 6A25.94 25.94 0 0 0 6.002 32c0 14.404 11.595 26 25.998 26a25.94 25.94 0 0 0 25.998-26C57.998 17.596 46.403 6 32 6m0 23c1.662 0 3 1.338 3 3s-1.338 3-3 3-3-1.338-3-3 1.338-3 3-3" style="fill:url(#d)"/><path d="M48 6a10 10 0 0 0-10 10 10 10 0 0 0 10 10 10 10 0 0 0 10-10A10 10 0 0 0 48 6" style="shape-rendering:auto;color-interpolation-filters:linearRGB;fill:url(#e);image-rendering:auto;text-rendering:auto;color:#000;stroke-linecap:round;color-rendering:auto;color-interpolation:sRGB"/><path d="m38.125 25.375-.555.883A8 8 0 0 1 40 32a8 8 0 0 1-8 8 8 8 0 0 1-6.33-3.123l-.951.498 17.965 18.309a25.95 25.95 0 0 0 12.998-13zm-1.1 1.752-2.289 3.65a2.993 2.993 0 0 1-4.455 3.678l-3.717 1.951A7 7 0 0 0 32 39a7 7 0 0 0 7-7 7 7 0 0 0-1.975-4.873" style="fill:url(#f);opacity:.2;fill-rule:evenodd"/><path d="M32 23a8.98 8.98 0 0 0-9 9c0 4.986 4.014 9 9 9s9-4.014 9-9-4.014-9-9-9m0 1a8 8 0 0 1 8 8 8 8 0 0 1-8 8 8 8 0 0 1-8-8 8 8 0 0 1 8-8m0 1a7 7 0 0 0-7 7 7 7 0 0 0 7 7 7 7 0 0 0 7-7 7 7 0 0 0-7-7m0 4c1.662 0 3 1.338 3 3s-1.338 3-3 3-3-1.338-3-3 1.338-3 3-3" style="fill:url(#g)"/><path d="M6.002 31.191c-.005.218 0 .436 0 .655C6.002 46.335 17.597 58 32 58s25.998-11.665 25.998-26.154c0-.22.005-.437 0-.655C57.654 45.375 46.185 57 32 57S6.346 45.375 6.002 31.191" style="fill:#2e3132;fill-opacity:.294118"/><path d="M32 24a8 8 0 0 0-8 8 8 8 0 0 0 8 8 8 8 0 0 0 8-8 8 8 0 0 0-8-8m0 1a7 7 0 0 1 7 7 7 7 0 0 1-7 7 7 7 0 0 1-7-7 7 7 0 0 1 7-7" style="fill:#2e3132;fill-opacity:.294118;stroke-linecap:round"/><path d="m422.571 512.798-1 1h-3l16 16v-21l-4-4z" style="fill:url(#h);opacity:.2;fill-rule:evenodd" transform="translate(-376.571 -491.798)"/><path d="m427.557 501.79-9.093 9.145.009.01-.011 2.844h3.006l.103.009 9-9-3-3-.025-.01zm-1.314 2.733 1.414 1.425-5.461 5.503.018-.689h-1.5l-.002-.667zm-6.277 6.324-.002.671h1.5l.002.668-.84.847-.664-.001-.748-.759v-.668z" style="fill:#efa407" transform="translate(-376.571 -491.798)"/></svg>