<svg xmlns="http://www.w3.org/2000/svg" xmlns:xlink="http://www.w3.org/1999/xlink" width="64" height="64"><defs><linearGradient xlink:href="#a" id="e" x1="408.572" x2="422.571" y1="523.798" y2="537.798" gradientTransform="matrix(1.29989 0 0 1.3 -499.097 -648.937)" gradientUnits="userSpaceOnUse"/><linearGradient id="a"><stop style="stop-color:#292c2f"/><stop offset="1" style="stop-opacity:0"/></linearGradient><linearGradient xlink:href="#b" id="d" x2="0" y1="540.798" y2="506.798" gradientTransform="matrix(1.52928 0 0 1.52941 -592.82 -769.103)" gradientUnits="userSpaceOnUse"/><linearGradient xlink:href="#c" id="f" x2="0" y1="540.798" y2="506.798" gradientTransform="translate(-184.303 -245.305)scale(.52941)" gradientUnits="userSpaceOnUse"/><linearGradient xlink:href="#c" id="g" x1="29.735" x2="47.735" gradientTransform="translate(381.533 -618.946)scale(1.11111)" gradientUnits="userSpaceOnUse"/><linearGradient id="b"><stop style="stop-color:#e00a5e"/><stop offset="1" style="stop-color:#f62870"/></linearGradient><linearGradient id="c"><stop style="stop-color:#f78fb9"/><stop offset="1" style="stop-color:#f7a5c4"/></linearGradient><linearGradient xlink:href="#a" id="h" x1="407.557" x2="418.327" y1="522.916" y2="533.685" gradientTransform="matrix(1.29989 0 0 1.3 -112.208 -177.993)" gradientUnits="userSpaceOnUse"/><linearGradient xlink:href="#b" id="i" x2="0" y1="1050.362" y2="1038.362" gradientUnits="userSpaceOnUse"/></defs><g transform="translate(-376.571 -491.798)"><path d="M32 6A25.94 25.94 0 0 0 6.002 32c0 14.404 11.595 26 25.998 26a25.94 25.94 0 0 0 25.998-26C57.998 17.596 46.403 6 32 6m0 23c1.662 0 3 1.338 3 3s-1.338 3-3 3-3-1.338-3-3 1.338-3 3-3" style="fill:url(#d)" transform="translate(376.571 491.798)"/><path d="m38.125 25.375-.555.883A8 8 0 0 1 40 32a8 8 0 0 1-8 8 8 8 0 0 1-6.33-3.123l-.951.498 17.965 18.309a25.95 25.95 0 0 0 12.998-13zm-1.1 1.752-2.289 3.65a2.993 2.993 0 0 1-4.455 3.678l-3.717 1.951A7 7 0 0 0 32 39a7 7 0 0 0 7-7 7 7 0 0 0-1.975-4.873" style="fill:url(#e);opacity:.2;fill-rule:evenodd" transform="translate(376.571 491.798)"/><path d="M32 23a8.98 8.98 0 0 0-9 9c0 4.986 4.014 9 9 9s9-4.014 9-9-4.014-9-9-9m0 1a8 8 0 0 1 8 8 8 8 0 0 1-8 8 8 8 0 0 1-8-8 8 8 0 0 1 8-8m0 1a7 7 0 0 0-7 7 7 7 0 0 0 7 7 7 7 0 0 0 7-7 7 7 0 0 0-7-7m0 4c1.662 0 3 1.338 3 3s-1.338 3-3 3-3-1.338-3-3 1.338-3 3-3" style="fill:url(#f)" transform="translate(376.571 491.798)"/><path d="M6.002 31.191c-.005.218 0 .436 0 .655C6.002 46.335 17.597 58 32 58s25.998-11.665 25.998-26.154c0-.22.005-.437 0-.655C57.654 45.375 46.185 57 32 57S6.346 45.375 6.002 31.191" style="fill:#2e3132;fill-opacity:.29411766" transform="translate(376.571 491.798)"/><path d="M32 24a8 8 0 0 0-8 8 8 8 0 0 0 8 8 8 8 0 0 0 8-8 8 8 0 0 0-8-8m0 1a7 7 0 0 1 7 7 7 7 0 0 1-7 7 7 7 0 0 1-7-7 7 7 0 0 1 7-7" style="fill:#fff;fill-opacity:.662651;stroke-linecap:round" transform="translate(376.571 491.798)"/><circle cx="424.571" cy="507.798" r="10" style="fill:url(#g);stroke-linecap:round"/><path d="M430.571 513.798h-12l16 16v-24l-4-4z" style="fill:url(#h);opacity:.2;fill-rule:evenodd"/><path d="M2 1038.362v12h12v-12zm3 1h6v4H5zm-2 1h1v1H3zm9 0h1v1h-1zm-9 3.5h1v1H3zm9 0h1v1h-1zm-7 1.5h6v4H5zm-2 2h1v1H3zm9 0h1v1h-1z" style="fill:url(#i)" transform="translate(416.571 -536.564)"/></g></svg>