<svg xmlns="http://www.w3.org/2000/svg" width="64" height="64"><defs><linearGradient id="b" x1="32" x2="50.199" y1="32" y2="50.2" gradientUnits="userSpaceOnUse"><stop stop-color="#292c2f"/><stop offset="1" stop-opacity="0"/></linearGradient><linearGradient id="a" x1="-592.821" x2="-592.821" y1="58" y2="6" gradientUnits="userSpaceOnUse"><stop stop-color="#8e44ad"/><stop offset="1" stop-color="#9b59b6"/></linearGradient><linearGradient id="c" x1="-184.303" x2="-184.303" y1="41" y2="23" gradientUnits="userSpaceOnUse"><stop stop-color="#d3bdd7"/><stop offset="1" stop-color="#dcc6e0"/></linearGradient></defs><path fill="url(#a)" d="M32 6A25.94 25.94 0 0 0 6.002 32c0 14.404 11.595 26 25.998 26a25.94 25.94 0 0 0 25.998-26C57.998 17.596 46.403 6 32 6m0 23c1.662 0 3 1.338 3 3s-1.338 3-3 3-3-1.338-3-3 1.338-3 3-3"/><path fill="url(#b)" fill-rule="evenodd" d="m38.125 25.375-.555.883A8 8 0 0 1 32 40a8 8 0 0 1-6.33-3.123l-.951.498 17.965 18.309a25.95 25.95 0 0 0 12.998-13zm-1.1 1.752-2.289 3.65a2.993 2.993 0 0 1-4.455 3.678l-3.717 1.951A7 7 0 0 0 39 32a7 7 0 0 0-1.975-4.873" opacity=".2"/><path fill="url(#c)" d="M32 23a8.98 8.98 0 0 0-9 9 8.98 8.98 0 0 0 9 9 8.98 8.98 0 0 0 9-9 8.98 8.98 0 0 0-9-9m0 1a8 8 0 1 1 0 16 8 8 0 1 1 0-16m0 1a7 7 0 1 0 0 14 7 7 0 1 0 0-14m0 4c1.662 0 3 1.338 3 3s-1.338 3-3 3-3-1.338-3-3 1.338-3 3-3"/><path fill="#2e3132" fill-opacity=".294" d="M6.002 31.191v.655C6.002 46.335 17.597 58 32 58s25.998-11.665 25.998-26.154v-.655C57.654 45.375 46.185 57 32 57S6.346 45.375 6.002 31.191M32 24a8 8 0 1 0 0 16 8 8 0 1 0 0-16m0 1a7 7 0 1 1 0 14 7 7 0 1 1 0-14"/><path fill="url(#c)" d="M424.571 497.798c-5.523 0-10 4.477-10 10s4.477 10 10 10 10-4.477 10-10-4.477-10-10-10" transform="translate(-376.571 -491.798)"/><path fill="#8e45ad" d="M44.809 10A4.01 4.01 0 0 1 48 13.945a4.02 4.02 0 0 1-1.285 2.95A3 3 0 0 1 46 14.952c0-.165.026-.323.051-.48a4.01 4.01 0 0 0-2.05 3.5c0 2.232 1.783 4.028 4 4.028s4-1.796 4-4.028A7.986 7.986 0 0 0 44.809 10"/></svg>