<svg xmlns="http://www.w3.org/2000/svg" xmlns:xlink="http://www.w3.org/1999/xlink" width="64" height="64"><defs><linearGradient xlink:href="#a" id="c" x1="432.233" x2="401.079" gradientTransform="matrix(0 1.02718 1 0 -499.798 -395.979)" gradientUnits="userSpaceOnUse"/><linearGradient id="a"><stop style="stop-color:#2a2c2f"/><stop offset="1" style="stop-color:#424649"/></linearGradient><linearGradient xlink:href="#b" id="d" x1="24" x2="48" y1="32" y2="56" gradientTransform="translate(362.571 479.798)" gradientUnits="userSpaceOnUse"/><linearGradient id="b"><stop style="stop-color:#292c2f"/><stop offset="1" style="stop-opacity:0"/></linearGradient></defs><path d="M6 16v25l7 7h45v-5.361A4 4 0 0 1 57 40a4 4 0 0 1 1-2.639V16H6" style="fill:url(#c)"/><path d="m12 47 1 1h45v-1H12" style="stroke-opacity:.550265;fill:#1c1e20;stroke-width:2.8"/><path d="m391.278 511.09-1.414 1.415 8.051 8.05-.224.243 17 17h.88v-8.88l-13.195-13.196-3.103 3.363zm-2.146 6.147-2.121 2.122 5.5 5.5-1.354 1.353 11.586 11.586h6.95z" style="fill:url(#d);opacity:.2" transform="translate(-376.571 -491.798)"/><path d="M390.571 510.798c-.554 0-1 .446-1 1s.446 1 1 1 1-.446 1-1-.446-1-1-1M397.571 510.798l-2 2 3 3-3 3 2 2 3-3 2-2zM388.071 516.798c-.83 0-1.5.669-1.5 1.5s.67 1.5 1.5 1.5c.831 0 1.5-.669 1.5-1.5s-.669-1.5-1.5-1.5M392.571 522.798c-1.108 0-2 .892-2 2s.892 2 2 2 2-.892 2-2-.892-2-2-2M414.571 529.798v1h12v-1zm0 2v1h18v-1zm0 2v1h8v-1zm0 2v1h5v-1zM391.571 532.798v1h5v-1zm0 2v1h2v-1z" style="fill:#afc0c6" transform="translate(-376.571 -491.798)"/><path d="m432.571 511.798-1 1-1-1z" style="fill:#dfe6e8;fill-rule:evenodd" transform="translate(-376.571 -491.798)"/></svg>