<svg xmlns="http://www.w3.org/2000/svg" xmlns:xlink="http://www.w3.org/1999/xlink" width="64" height="64"><defs><linearGradient id="a"><stop style="stop-color:#63984b"/><stop offset="1" style="stop-color:#8fc278"/></linearGradient><linearGradient id="b"><stop style="stop-color:#2a2c2f"/><stop offset="1" style="stop-color:#424649"/></linearGradient><linearGradient xlink:href="#a" id="e" x2="0" y1="549.798" y2="497.798" gradientTransform="translate(0 -29)" gradientUnits="userSpaceOnUse"/><linearGradient xlink:href="#b" id="i" x2="0" y1="527.798" y2="518.798" gradientTransform="matrix(.85714 0 0 .88889 60.653 46.644)" gradientUnits="userSpaceOnUse"/><linearGradient xlink:href="#b" id="k" x2="0" y1="527.798" y2="518.798" gradientTransform="matrix(.85714 0 0 .88889 52.653 46.644)" gradientUnits="userSpaceOnUse"/><linearGradient xlink:href="#b" id="l" x2="0" y1="527.798" y2="518.798" gradientTransform="matrix(.85714 0 0 .88889 44.653 46.644)" gradientUnits="userSpaceOnUse"/><linearGradient id="c"><stop style="stop-color:#eef1f2"/><stop offset="1" style="stop-color:#f9fafb"/></linearGradient><linearGradient xlink:href="#c" id="j" x2="0" y1="526.798" y2="519.798" gradientTransform="translate(0 -11)" gradientUnits="userSpaceOnUse"/><linearGradient xlink:href="#d" id="h" x1="408.571" x2="417.571" y1="518.798" y2="527.798" gradientTransform="translate(0 -11)" gradientUnits="userSpaceOnUse"/><linearGradient id="d"><stop style="stop-color:#292c2f"/><stop offset="1" style="stop-opacity:0"/></linearGradient><linearGradient xlink:href="#d" id="f" x1="408.571" x2="417.571" y1="518.798" y2="527.798" gradientTransform="translate(8 -11)" gradientUnits="userSpaceOnUse"/><linearGradient xlink:href="#d" id="g" x1="408.571" x2="417.571" y1="518.798" y2="527.798" gradientTransform="translate(16 -11)" gradientUnits="userSpaceOnUse"/><linearGradient xlink:href="#a" id="m" x2="0" y1="549.798" y2="497.798" gradientTransform="translate(0 -7)" gradientUnits="userSpaceOnUse"/><linearGradient xlink:href="#d" id="n" x1="408.571" x2="417.571" y1="518.798" y2="527.798" gradientTransform="translate(8 11)" gradientUnits="userSpaceOnUse"/><linearGradient xlink:href="#d" id="o" x1="408.571" x2="417.571" y1="518.798" y2="527.798" gradientTransform="translate(16 11)" gradientUnits="userSpaceOnUse"/><linearGradient xlink:href="#d" id="p" x1="408.571" x2="417.571" y1="518.798" y2="527.798" gradientTransform="translate(0 11)" gradientUnits="userSpaceOnUse"/><linearGradient xlink:href="#b" id="q" x2="0" y1="527.798" y2="518.798" gradientTransform="matrix(.85714 0 0 .88889 60.653 68.644)" gradientUnits="userSpaceOnUse"/><linearGradient xlink:href="#c" id="r" x2="0" y1="526.798" y2="519.798" gradientTransform="translate(0 11)" gradientUnits="userSpaceOnUse"/><linearGradient xlink:href="#b" id="s" x2="0" y1="527.798" y2="518.798" gradientTransform="matrix(.85714 0 0 .88889 52.653 68.644)" gradientUnits="userSpaceOnUse"/><linearGradient xlink:href="#b" id="t" x2="0" y1="527.798" y2="518.798" gradientTransform="matrix(.85714 0 0 .88889 44.653 68.644)" gradientUnits="userSpaceOnUse"/></defs><path d="M382.571 504.798v16h52v-16z" style="fill:url(#e)" transform="translate(-376.571 -491.798)"/><path d="m422.571 507.798-6 8 5 5h13v-1z" style="fill:url(#f);opacity:.2;fill-rule:evenodd" transform="translate(-376.571 -491.798)"/><path d="m430.571 507.798-6 8 5 5h5v-9z" style="fill:url(#g);opacity:.2;fill-rule:evenodd" transform="translate(-376.571 -491.798)"/><path d="m408.571 515.798 6-8 13 13h-15 1z" style="fill:url(#h);opacity:.2;fill-rule:evenodd" transform="translate(-376.571 -491.798)"/><path d="M382.571 519.798h52v1h-52z" style="fill:#dce269" transform="translate(-376.571 -491.798)"/><path d="M424.571 507.798h6v8h-6z" style="fill:url(#i)" transform="translate(-376.571 -491.798)"/><path d="M431.571 507.798v1h1v-1zm1 1v1h1v-1zm0 1h-1v1h1zm0 1v1h1v-1zm0 1h-1v1h1zm0 1v1h1v-1zm0 1h-1v1h1zm0 1v1h1v-1zm0 1h-1v1h1zm0 1v1h1v-1zm-1 0h-1v1h1zm-1 1h-1v1h1zm-1 0v-1h-1v1zm-1 0h-1v1h1zm-1 0v-1h-1v1z" style="fill:#dee372;opacity:.6" transform="translate(-376.571 -491.798)"/><path d="M385.571 508.798h19v7h-19z" style="fill:url(#j)" transform="translate(-376.571 -491.798)"/><path d="M416.571 507.798h6v8h-6z" style="fill:url(#k)" transform="translate(-376.571 -491.798)"/><path d="M408.571 507.798h6v8h-6z" style="fill:url(#l)" transform="translate(-376.571 -491.798)"/><path d="M386.571 509.798h8v1h-8z" style="fill:#f55" transform="translate(-376.571 -491.798)"/><path d="M386.571 511.798h3v1h-3zM390.571 511.798h4v1h-4zM390.571 513.798v1h-1v1h10v-1h-1v-1h-1v1h-2v-1h-1v1h-1v-1h-1v1h-1v-1z" style="fill:#35383b" transform="translate(-376.571 -491.798)"/><path d="M382.571 526.798v16h52v-16z" style="fill:url(#m)" transform="translate(-376.571 -491.798)"/><path d="m422.571 529.798-6 8 5 5h13v-1z" style="fill:url(#n);opacity:.2;fill-rule:evenodd" transform="translate(-376.571 -491.798)"/><path d="m430.571 529.798-6 8 5 5h5v-9z" style="fill:url(#o);opacity:.2;fill-rule:evenodd" transform="translate(-376.571 -491.798)"/><path d="m408.571 537.798 6-8 13 13h-15 1z" style="fill:url(#p);opacity:.2;fill-rule:evenodd" transform="translate(-376.571 -491.798)"/><path d="M382.571 541.798h52v1h-52z" style="fill:#dce269" transform="translate(-376.571 -491.798)"/><path d="M424.571 529.798h6v8h-6z" style="fill:url(#q)" transform="translate(-376.571 -491.798)"/><path d="M431.571 529.798v1h1v-1zm1 1v1h1v-1zm0 1h-1v1h1zm0 1v1h1v-1zm0 1h-1v1h1zm0 1v1h1v-1zm0 1h-1v1h1zm0 1v1h1v-1zm0 1h-1v1h1zm0 1v1h1v-1zm-1 0h-1v1h1zm-1 1h-1v1h1zm-1 0v-1h-1v1zm-1 0h-1v1h1zm-1 0v-1h-1v1z" style="fill:#dee372;opacity:.6" transform="translate(-376.571 -491.798)"/><path d="M385.571 530.798h19v7h-19z" style="fill:url(#r)" transform="translate(-376.571 -491.798)"/><path d="M416.571 529.798h6v8h-6z" style="fill:url(#s)" transform="translate(-376.571 -491.798)"/><path d="M408.571 529.798h6v8h-6z" style="fill:url(#t)" transform="translate(-376.571 -491.798)"/><path d="M386.571 531.798h8v1h-8z" style="fill:#f55" transform="translate(-376.571 -491.798)"/><path d="M386.571 533.798h3v1h-3zM390.571 533.798h4v1h-4zM390.571 535.798v1h-1v1h10v-1h-1v-1h-1v1h-2v-1h-1v1h-1v-1h-1v1h-1v-1z" style="fill:#35383b" transform="translate(-376.571 -491.798)"/></svg>