<svg xmlns="http://www.w3.org/2000/svg" xmlns:xlink="http://www.w3.org/1999/xlink" width="64" height="64"><defs><linearGradient xlink:href="#a" id="e" x2="0" y1="545.798" y2="517.798" gradientTransform="matrix(1.66667 0 0 1.85714 -259.048 -463.826)" gradientUnits="userSpaceOnUse"/><linearGradient id="a"><stop style="stop-color:#2a2c2f"/><stop offset="1" style="stop-color:#424649"/></linearGradient><linearGradient id="d"><stop style="stop-color:#ee6406"/><stop offset="1" style="stop-color:#ffce0d"/></linearGradient><linearGradient id="c"><stop style="stop-opacity:0"/><stop offset="1" style="stop-opacity:.452632"/></linearGradient><linearGradient id="b"><stop stop-color="#21c9fb"/><stop offset="1" stop-color="#197cf1"/></linearGradient><linearGradient xlink:href="#b" id="f" x2="0" y1="535.798" y2="505.798" gradientTransform="matrix(1.18182 0 0 1.2 -50.286 -97.16)" gradientUnits="userSpaceOnUse"/><linearGradient xlink:href="#d" id="i" x1="33" x2="24" y1="21" y2="12" gradientTransform="matrix(1.28571 0 0 1.28571 401.714 500.798)" gradientUnits="userSpaceOnUse"/><linearGradient xlink:href="#d" id="h" x1="419.41" x2="399.249" gradientTransform="matrix(1.24 0 0 1 -74.497 9.5)" gradientUnits="userSpaceOnUse"/><radialGradient xlink:href="#c" id="g" cx="408.571" cy="520.798" r="22" gradientTransform="matrix(1.18182 0 0 .81818 -50.286 101.69)" gradientUnits="userSpaceOnUse"/></defs><g transform="translate(-376.571 -491.798)"><rect width="30" height="52" x="393.571" y="497.798" rx="5" ry="5" style="fill:url(#e)"/><rect width="22" height="1.008" x="397.571" y="548.798" rx=".917" ry=".384" style="fill:#1c1e20;stroke-width:.957427"/><path d="M395.571 502.798h26v42h-26z" style="fill:#fff"/><path d="M405.071 545.798h7v2h-7zM405.071 499.798h7v2h-7z" style="fill:#1c1e20"/><g transform="translate(-24 -4)"><path d="M419.571 506.798h27v42h-27z" style="stroke-opacity:.550265;fill:url(#f);stroke-width:2.8"/><path d="M419.571 506.798h27v42h-27z" style="stroke-opacity:.550265;fill:url(#g);opacity:.85;stroke-width:2.8"/><path d="M419.571 540.798h27v5h-27zM419.571 506.798h27v8h-27z" style="opacity:.85;fill-opacity:.621053;stroke-width:.1"/><path d="M421.191 542.798c-.343 0-.62.223-.62.5s.277.5.62.5h18.38v-1z" style="fill:url(#h);stroke-width:.1"/><path d="M432.571 518.798a8.98 8.98 0 0 0-9 9c0 4.986 4.014 9 9 9s9-4.014 9-9-4.014-9-9-9m0 1a8 8 0 0 1 8 8 8 8 0 0 1-8 8 8 8 0 0 1-8-8 8 8 0 0 1 8-8" style="fill:#fff;opacity:.85;fill-opacity:.452632;stroke-width:.1"/><path d="M432.571 518.798v1a8 8 0 0 1 8 8h1c0-4.986-4.014-9-9-9" style="fill:url(#i);opacity:.85;stroke-width:.1"/><g transform="translate(24 4)"><rect width="5.909" height="6" x="405.617" y="520.798" rx="2.955" ry="3" style="opacity:.8;stroke-width:.1"/><path d="m410.344 523.798-2.954-1.8v3.6z" style="fill:#fff;fill-rule:evenodd"/></g><path d="M440.571 542.798v1h4.385c.34 0 .615-.223.615-.5s-.274-.5-.615-.5z" style="fill:#999;stroke-width:.1"/><rect width="3" height="3" x="438.571" y="541.798" rx="1.5" style="fill:#fff;stroke-width:.1"/></g></g></svg>