<svg xmlns="http://www.w3.org/2000/svg" xmlns:xlink="http://www.w3.org/1999/xlink" width="64" height="64" viewBox="0 0 16.934 16.934"><defs><linearGradient id="c" x1="8.467" x2="8.467" y1=".529" y2="16.405" gradientTransform="matrix(.86667 0 0 .86667 20.593 1.129)" gradientUnits="userSpaceOnUse"><stop offset="0" stop-color="#7f8c8d"/><stop offset="1" stop-color="#bdc3c7"/></linearGradient><filter id="d" width="1.064" height="1.082" x="-.032" y="-.041" color-interpolation-filters="sRGB"><feGaussianBlur stdDeviation=".198"/></filter></defs><linearGradient id="b"><stop offset="0" stop-color="#232629"/><stop offset="1" stop-color="#a2abae"/></linearGradient><linearGradient id="a"><stop offset="0" stop-color="#31363b"/><stop offset="1" stop-color="#31363b" stop-opacity="0"/></linearGradient><linearGradient id="e" x1="8.467" x2="8.467" y1="2.646" y2="14.288" gradientTransform="matrix(.74482 0 0 .74482 2.161 2.847)" gradientUnits="userSpaceOnUse"><stop offset="0" stop-color="#232629"/><stop offset="1" stop-color="#292c2f"/></linearGradient><linearGradient id="f" x1="4.234" x2="4.234" y1="290.65" y2="291.18" gradientTransform="matrix(2 0 0 3.9999 -1.588 -1159.9)" gradientUnits="userSpaceOnUse"><stop offset="0" stop-color="#fdbc4b" stop-opacity=".8"/><stop offset="1" stop-color="#fdbc4b" stop-opacity="0"/></linearGradient><linearGradient xlink:href="#a" id="g" x1="4.233" x2="4.233" y1="295.41" y2="294.62" gradientTransform="matrix(2.5 0 0 2 -2.116 -576.54)" gradientUnits="userSpaceOnUse"/><linearGradient xlink:href="#a" id="h" x1="4.587" x2="4.587" y1="295.41" y2="294.62" gradientTransform="matrix(.75 0 0 2 1.852 -578.12)" gradientUnits="userSpaceOnUse"/><linearGradient xlink:href="#a" id="i" x1="3.88" x2="3.88" y1="295.41" y2="294.62" gradientTransform="matrix(.75 0 0 2 8.732 -578.12)" gradientUnits="userSpaceOnUse"/><linearGradient xlink:href="#a" id="j" x1="7.411" x2="7.411" y1="295.41" y2="294.62" gradientTransform="matrix(.25 0 0 4 14.552 -1173.2)" gradientUnits="userSpaceOnUse"/><linearGradient xlink:href="#a" id="k" x1="1.061" x2="1.061" y1="295.41" y2="294.62" gradientTransform="matrix(.25 0 0 4 .264 -1173.2)" gradientUnits="userSpaceOnUse"/><linearGradient xlink:href="#a" id="l" x1="4.444" x2="4.444" y1="295.41" y2="294.62" gradientTransform="matrix(1.25 0 0 3.3333 -2.38 -973.6)" gradientUnits="userSpaceOnUse"/><linearGradient xlink:href="#a" id="m" x1="4.021" x2="4.021" y1="295.41" y2="294.62" gradientTransform="matrix(1.25 0 0 3.3333 8.732 -973.6)" gradientUnits="userSpaceOnUse"/><radialGradient xlink:href="#b" id="n" cx="-1.146" cy="-291.92" r=".265" gradientTransform="matrix(-7.9877 .00034 -.0006 -13.98 -6.686 -4075.8)" gradientUnits="userSpaceOnUse"/><radialGradient xlink:href="#b" id="p" cx="-1.146" cy="-291.92" r=".265" gradientTransform="matrix(7.9877 .00013 .00023 -13.979 23.513 -4075.5)" gradientUnits="userSpaceOnUse"/><circle cx="8.467" cy="8.467" r="6.879" fill="url(#c)" fill-rule="evenodd" style="fill:url(#c);paint-order:fill markers stroke"/><path d="M1.589 3.019v2.646h-.53v.53h.53V8.31h-.53v.529h.53v2.646h2.645v1.587h1.588v1.587h5.292v-1.587H12.7v-1.588h2.646V8.84h.53v-.53h-.53V6.195h.53v-.53h-.53V3.02z" filter="url(#d)" opacity=".25" transform="matrix(.74482 0 0 .74482 2.16 2.569)"/><path fill="url(#e)" d="M3.344 4.817v1.971h-.395v.395h.395v1.576h-.395v.394h.395v1.97h1.97v1.183h1.183v1.182h3.941v-1.182h1.182v-1.183h1.97v-1.97h.395v-.395h-.395V7.183h.395v-.395h-.395v-1.97Z" style="fill:url(#e);stroke-width:.744815"/><g stroke-width="2"><path fill="url(#f)" d="M2.646 2.646h.53v2.117h-.53zm1.588 0h.529v2.117h-.53zm1.587 0h.53v2.117h-.53zm7.938 0h.53v2.117h-.53zm-1.588 0h.53v2.117h-.53zm-1.587 0h.529v2.117h-.53zm-1.588 0h.53v2.117h-.53zm-1.587 0h.529v2.117h-.53z" style="fill:url(#f)" transform="matrix(.74482 0 0 .74482 2.161 2.847)"/><path fill="url(#g)" d="M5.821 12.7h5.292v1.588H5.82Z" style="fill:url(#g)" transform="matrix(.74482 0 0 .74482 2.161 2.847)"/><path fill="url(#h)" d="M4.234 11.113H5.82V12.7H4.234Z" style="fill:url(#h)" transform="matrix(.74482 0 0 .74482 2.161 2.847)"/><path fill="url(#i)" d="M11.113 11.113H12.7V12.7h-1.588z" style="fill:url(#i)" transform="matrix(.74482 0 0 .74482 2.161 2.847)"/><path fill="url(#j)" d="M15.346 5.292v.53h.53v-.53zm0 2.646v.529h.53v-.53z" style="fill:url(#j)" transform="matrix(.74482 0 0 .74482 2.161 2.847)"/><path fill="url(#k)" d="M1.058 5.292v.53h.53v-.53zm0 2.646v.529h.53v-.53z" style="fill:url(#k)" transform="matrix(.74482 0 0 .74482 2.161 2.847)"/><path fill="url(#l)" d="M1.588 8.467h2.646v2.646H1.588Z" style="fill:url(#l)" transform="matrix(.74482 0 0 .74482 2.161 2.847)"/><path fill="url(#m)" d="M12.7 8.467h2.646v2.646H12.7Z" style="fill:url(#m)" transform="matrix(.74482 0 0 .74482 2.161 2.847)"/><path fill="url(#n)" d="M2.117 7.938H1.058V5.82h1.059z" style="fill:url(#n)" transform="matrix(.74482 0 0 .74482 2.161 2.847)"/><path fill="url(#p)" d="M14.817 7.938h1.059V5.82h-1.059z" style="fill:url(#p)" transform="matrix(.74482 0 0 .74482 2.161 2.847)"/></g></svg>