<svg xmlns="http://www.w3.org/2000/svg" width="64" height="64"><defs><linearGradient id="a" x1="32" x2="32" y1="11" y2="53" gradientUnits="userSpaceOnUse"><stop offset="0" stop-color="#d08770"/><stop offset="1" stop-color="#ebcb8b"/></linearGradient><linearGradient id="c" x1="8.467" x2="8.467" y1="284.83" y2="292.24" gradientUnits="userSpaceOnUse"><stop offset="0" stop-color="#d8dee9"/><stop offset="1" stop-color="#eceff4"/></linearGradient><linearGradient id="d" x1="32" x2="32" y1="23.447" y2="40.553" gradientTransform="matrix(.73644 0 0 .73644 385.006 500.283)" gradientUnits="userSpaceOnUse"><stop offset="0" stop-color="#5e81ac" style="stop-color:#364d69;stop-opacity:1"/><stop offset="1" stop-color="#88c0d0" style="stop-color:#3f8ba0;stop-opacity:1"/></linearGradient><filter id="b" width="1.12" height="1.12" x="-.06" y="-.06" color-interpolation-filters="sRGB"><feGaussianBlur stdDeviation=".185"/></filter></defs><g transform="translate(-376.571 -491.798)"><circle cx="408.571" cy="523.798" r="26" fill-rule="evenodd" style="fill:#577da0;fill-opacity:1"/><g transform="translate(377.151 -547.031)scale(3.71113)"><path d="M19 15.033V19h-4v2h4v2h-4v2h4v2h-4v2h4v2h-4v2h4v2h-4v2h4v2h-4v2h4v2h-4v2h4v4.033h2V45h2v4.033h2V45h2v4.033h2V45h2v4.033h2V45h2v4.033h2V45h2v4.033h2V45h2v4.033h2V45h4v-2h-4v-2h4v-2h-4v-2h4v-2h-4v-2h4v-2h-4v-2h4v-2h-4v-2h4v-2h-4v-2h4v-2h-4v-3.967h-2V19h-2v-3.967h-2V19h-2v-3.967h-2V19h-2v-3.967h-2V19h-2v-3.967h-2V19h-2v-3.967h-2V19h-2v-3.967ZM21 21h2v2h-2zm4 0h2v2h-2zm4 0h2v2h-2zm4 0h2v2h-2zm4 0h2v2h-2zm4 0h2v2h-2zm-20 4h2v2h-2zm4 0h2v2h-2zm4 0h2v2h-2zm4 0h2v2h-2zm4 0h2v2h-2zm4 0h2v2h-2zm-20 4h2v2h-2zm4 0h2v2h-2zm4 0h2v2h-2zm4 0h2v2h-2zm4 0h2v2h-2zm4 0h2v2h-2zm-20 4h2v2h-2zm4 0h2v2h-2zm4 0h2v2h-2zm4 0h2v2h-2zm4 0h2v2h-2zm4 0h2v2h-2zm-20 4h2v2h-2zm4 0h2v2h-2zm4 0h2v2h-2zm4 0h2v2h-2zm4 0h2v2h-2zm4 0h2v2h-2zm-20 4h2v2h-2zm4 0h2v2h-2zm4 0h2v2h-2zm4 0h2v2h-2zm4 0h2v2h-2zm4 0h2v2h-2z" style="fill:url(#a)" transform="translate(0 280.07)scale(.26458)"/><rect width="7.408" height="7.408" x="4.762" y="284.83" fill-rule="evenodd" filter="url(#f-6)" opacity=".5" rx=".529" ry=".529" style="filter:url(#b)"/><rect width="7.408" height="7.408" x="4.762" y="284.83" fill-rule="evenodd" rx=".529" ry=".529" style="fill:url(#c)"/></g><g fill="#2e3440" fill-rule="evenodd" transform="translate(377.151 -546.998)scale(3.71113)"><circle cx="5.424" cy="285.49" r=".132" opacity=".35" style="paint-order:stroke fill markers;opacity:1"/><circle cx="11.509" cy="285.49" r=".132" opacity=".35" style="paint-order:stroke fill markers;opacity:.98565121"/><circle cx="5.424" cy="291.58" r=".132" opacity=".35" style="paint-order:stroke fill markers;opacity:1"/><circle cx="11.509" cy="291.58" r=".132" opacity=".35" style="paint-order:stroke fill markers;opacity:1"/></g><path d="M408.452 514.852c-5.06 0-9.837 2.234-13.11 6.127a1.221 1.221 0 0 0 .935 2.011c.35 0 .696-.148.938-.436a14.66 14.66 0 0 1 11.236-5.255c4.335 0 8.431 1.915 11.237 5.253a1.223 1.223 0 0 0 1.873-1.573 17.1 17.1 0 0 0-13.11-6.127zm0 5.183a12.22 12.22 0 0 0-9.366 4.375 1.224 1.224 0 0 0 1.873 1.574 9.77 9.77 0 0 1 7.493-3.502 9.77 9.77 0 0 1 7.49 3.502c.242.29.59.436.938.436a1.225 1.225 0 0 0 .938-2.01 12.22 12.22 0 0 0-9.366-4.375zm0 5.382c-2.17 0-4.218.958-5.62 2.626a1.22 1.22 0 0 0 .151 1.722 1.217 1.217 0 0 0 1.723-.15 4.881 4.881 0 0 1 7.49 0 1.22 1.22 0 0 0 1.725.15 1.22 1.22 0 0 0 .15-1.722 7.33 7.33 0 0 0-5.619-2.626m.255 4.64c-1.071-.076-2.234.68-2.27 1.878a2.015 2.015 0 0 0 4.03 0c-.149-1.251-.927-1.817-1.76-1.877" style="fill:url(#d)"/></g></svg>