<svg xmlns="http://www.w3.org/2000/svg" xmlns:xlink="http://www.w3.org/1999/xlink" width="64" height="64" viewBox="0 0 16.934 16.934"><defs><filter id="s" width="1.504" height="1.252" x="-.252" y="-.126" color-interpolation-filters="sRGB"><feGaussianBlur stdDeviation=".111"/></filter><filter id="u" width="1.504" height="1.252" x="-.252" y="-.126" color-interpolation-filters="sRGB"><feGaussianBlur stdDeviation=".111"/></filter><filter id="f" width="1.112" height="1.129" x="-.056" y="-.064" color-interpolation-filters="sRGB"><feGaussianBlur stdDeviation=".298"/></filter><linearGradient xlink:href="#a" id="e" x1="8.467" x2="8.467" y1=".529" y2="16.405" gradientTransform="matrix(.86667 0 0 .86667 1.129 1.129)" gradientUnits="userSpaceOnUse"/></defs><linearGradient id="a" x2="0" y1="15.346" y2="1.588" gradientTransform="translate(22.459)" gradientUnits="userSpaceOnUse"><stop offset="0" stop-color="#7f8c8d"/><stop offset="1" stop-color="#bdc3c7"/></linearGradient><linearGradient id="d"><stop offset="0" stop-color="#232629"/><stop offset="1" stop-color="#9aa4a6"/></linearGradient><linearGradient id="b"><stop offset="0" stop-color="#31363b"/><stop offset="1" stop-color="#31363b" stop-opacity="0"/></linearGradient><linearGradient id="g" x1="16.001" x2="16.001" y1="27.001" y2="6" gradientTransform="matrix(.4586 0 0 -.4586 1.129 15.117)" gradientUnits="userSpaceOnUse"><stop offset="0" stop-color="#232629"/><stop offset="1" stop-color="#292c2f"/></linearGradient><linearGradient id="h" x1="4.234" x2="4.234" y1="290.65" y2="291.18" gradientTransform="matrix(1.73334 0 0 -3.46659 -.247 1019.896)" gradientUnits="userSpaceOnUse"><stop offset="0" stop-color="#fdbc4b" stop-opacity=".8"/><stop offset="1" stop-color="#fdbc4b" stop-opacity="0"/></linearGradient><linearGradient xlink:href="#b" id="i" x1="4.233" x2="4.233" y1="295.15" y2="294.62" gradientTransform="matrix(2.16667 0 0 -1.73334 -.705 514.326)" gradientUnits="userSpaceOnUse"/><linearGradient xlink:href="#b" id="j" x1="4.587" x2="4.587" y1="295.15" y2="294.62" gradientTransform="matrix(.65 0 0 -1.73334 2.734 515.704)" gradientUnits="userSpaceOnUse"/><linearGradient xlink:href="#b" id="k" x1="3.88" x2="3.88" y1="295.15" y2="294.62" gradientTransform="matrix(.65 0 0 -1.73334 8.697 515.704)" gradientUnits="userSpaceOnUse"/><linearGradient xlink:href="#b" id="l" x1="7.41" x2="7.41" y1="295.41" y2="294.62" gradientTransform="matrix(.21667 0 0 3.46667 12.824 -1014)" gradientUnits="userSpaceOnUse"/><linearGradient xlink:href="#b" id="m" x1="1.062" x2="1.062" y1="295.41" y2="294.62" gradientTransform="matrix(.21667 0 0 3.46667 2.275 -1014)" gradientUnits="userSpaceOnUse"/><linearGradient xlink:href="#b" id="n" x1="4.587" x2="4.587" y1="295.25" y2="294.62" gradientTransform="matrix(.65 0 0 -2.88887 1.358 858.446)" gradientUnits="userSpaceOnUse"/><linearGradient xlink:href="#b" id="q" x1="3.88" x2="3.88" y1="295.25" y2="294.62" gradientTransform="matrix(.65 0 0 -2.88887 10.073 858.446)" gradientUnits="userSpaceOnUse"/><radialGradient xlink:href="#d" id="r" cx="-1.147" cy="-291.92" r=".265" gradientTransform="matrix(-7.9877 .00005 -.0001 -13.978 -5.48 -4073.5)" gradientUnits="userSpaceOnUse"/><radialGradient xlink:href="#d" id="t" cx="-1.146" cy="-291.92" r=".265" gradientTransform="matrix(7.9877 -.00015 -.00026 -13.979 22.31 -4073.8)" gradientUnits="userSpaceOnUse"/><circle cx="8.467" cy="8.467" r="6.879" fill="url(#e)" fill-rule="evenodd" style="fill:url(#e);paint-order:fill markers stroke"/><path d="M5.821 1.852V3.44H4.233v1.586H2.646v2.117h-.53v.53h.53v2.116h-.53v.53h.53v2.645h11.642v-2.646h.53V7.144h-.53V5.026H12.7V3.44h-1.587V1.852z" filter="url(#f)" opacity=".25" transform="matrix(.86667 0 0 .86667 1.129 1.129)"/><path fill="url(#g)" d="M6.174 2.734V4.11H4.798v1.375H3.422V7.32h-.46v.458h.46v1.835h-.46v.458h.46v2.294h10.09V10.07h.46v-2.75h-.46V5.485h-1.376V4.11H10.76V2.734z" style="fill:url(#g)"/><path fill="url(#h)" d="M4.798 12.365h.459v-1.834h-.46zm1.376 0h.46v-1.834h-.46zm5.503 0h.46v-1.834h-.46zm-1.375 0h.458v-1.834h-.46zm-1.377 0h.46v-1.834h-.46zm-1.375 0h.459v-1.834h-.46z" style="fill:url(#h)"/><path fill="url(#i)" d="M6.174 3.651h4.586v-.917H6.173Z" style="fill:url(#i)"/><path fill="url(#j)" d="M4.798 5.027h1.376V4.11H4.798z" style="fill:url(#j)"/><path fill="url(#k)" d="M10.76 5.027h1.376V4.11H10.76z" style="fill:url(#k)"/><path fill="url(#l)" d="M13.512 7.32v.459h.46v-.46Zm0 2.294v.458h.46v-.46Z" style="fill:url(#l)"/><path fill="url(#m)" d="M2.964 7.32v.459h.458v-.46Zm0 2.294v.458h.458v-.46Z" style="fill:url(#m)"/><path fill="url(#n)" d="M3.422 7.32h1.376V5.486H3.422z" style="fill:url(#n)"/><path fill="url(#q)" d="M12.136 7.32h1.376V5.486h-1.376Z" style="fill:url(#q)"/><path fill="url(#r)" d="M3.175 9.79H2.117V7.673h1.058z" filter="url(#s)" style="fill:url(#r)" transform="matrix(.86667 0 0 .86667 1.129 1.129)"/><path fill="url(#t)" d="M13.759 9.79h1.058V7.673H13.76Z" filter="url(#u)" style="fill:url(#t)" transform="matrix(.86667 0 0 .86667 1.129 1.129)"/></svg>