<svg xmlns="http://www.w3.org/2000/svg" viewBox="0 0 64 64"><defs><linearGradient id="a" x1="31.756" x2="30.031" y1="44.109" y2="25.774" gradientTransform="matrix(4.0863 0 0 4.0001 -111.78 -117.75)" gradientUnits="userSpaceOnUse"><stop offset="0" stop-color="#353535"/><stop offset="1" stop-color="#979797"/></linearGradient></defs><path fill="url(#a)" stroke="#050505" stroke-linecap="round" stroke-linejoin="round" d="M22.686 6.568h18.629c1.823 0 3.291 1.437 3.291 3.222v44.305c0 1.785-1.468 3.222-3.291 3.222H22.686c-1.823 0-3.291-1.437-3.291-3.222V9.79c0-1.785 1.468-3.222 3.291-3.222" style="paint-order:stroke fill markers"/><path fill="none" stroke="#000" stroke-width="1.163" d="M22.684 6.568h18.632c1.824 0 3.292 1.42 3.292 3.186v44.382c0 1.764-1.468 3.185-3.292 3.185H22.684c-1.824 0-3.292-1.42-3.292-3.185V9.754c0-1.765 1.468-3.186 3.292-3.186z"/><g stroke-width="0"><path fill="#a5a5a5" d="M27.066 54.241a.46.46 0 0 0-.462.462.46.46 0 0 0 .462.463h9.867a.46.46 0 0 0 .464-.463.46.46 0 0 0-.464-.462z"/><rect width="10.629" height="2.775" x="26.686" y="8.741" fill-opacity=".906" ry="1.388" style="paint-order:markers fill stroke"/><g stroke-miterlimit="4.4" transform="translate(1.487)"><rect width="4.303" height="4.251" x="20.027" y="48.01" fill="#69cf50" ry="1.319"/><rect width="4.303" height="4.251" x="25.584" y="48.01" fill="#34b9ff" ry="1.319" style="paint-order:markers fill stroke"/><rect width="4.303" height="4.251" x="31.14" y="48.01" fill="#69cf50" ry="1.319" style="paint-order:markers fill stroke"/><rect width="4.303" height="4.251" x="36.697" y="48.01" fill="#e74064" ry="1.319" style="paint-order:markers fill stroke"/></g></g></svg>