<svg xmlns="http://www.w3.org/2000/svg" xmlns:xlink="http://www.w3.org/1999/xlink" viewBox="0 0 64 64"><defs><linearGradient id="a"><stop offset="0" stop-color="#eef1f2"/><stop offset="1" stop-color="#f9fafb"/></linearGradient><linearGradient id="b" x2="0" y1="531.798" y2="501.699" gradientTransform="matrix(1.08333 0 0 1.375 -34.047 -189.425)" gradientUnits="userSpaceOnUse"><stop offset="0" stop-color="#c6cdd1"/><stop offset="1" stop-color="#e0e5e7"/></linearGradient><linearGradient id="d" x2="0" y1="514.798" y2="511.798" gradientTransform="matrix(1 0 0 2.28572 0 -664.885)" gradientUnits="userSpaceOnUse"><stop offset="0" stop-color="#18222a"/><stop offset="1" stop-color="#566069"/></linearGradient><linearGradient id="i" x1="391.571" x2="395.573" y1="533.798" y2="537.8" gradientTransform="translate(0 -22)" gradientUnits="userSpaceOnUse"><stop offset="0"/><stop offset="1" stop-opacity="0"/></linearGradient><linearGradient xlink:href="#a" id="e" x2="0" y1="505.798" y2="503.798" gradientTransform="translate(0 -12)" gradientUnits="userSpaceOnUse"/><linearGradient xlink:href="#a" id="g" x2="0" y1="519.798" y2="507.798" gradientTransform="matrix(1 0 0 1.33333 0 -181.266)" gradientUnits="userSpaceOnUse"/><linearGradient xlink:href="#a" id="f" x2="0" y1="507.798" y2="505.798" gradientTransform="translate(0 -12)" gradientUnits="userSpaceOnUse"/><linearGradient id="h" x1="425.571" x2="390.571" y1="524.798" y2="511.798" gradientTransform="matrix(1 0 0 .33333 0 341.199)" gradientUnits="userSpaceOnUse"><stop offset="0" stop-color="#2f3943"/><stop offset="1" stop-color="#4d5662"/></linearGradient><linearGradient id="c" x1="4.081" x2="0" y1="12" y2="12" gradientTransform="matrix(0 1 -.875 0 425.196 525.798)" gradientUnits="userSpaceOnUse"><stop offset="0" stop-color="#99a1a7"/><stop offset="1" stop-color="#737b81"/></linearGradient></defs><g stroke-linecap="round" transform="translate(-376.571 -485.798)"><rect width="52" height="33" x="382.571" y="508.798" fill="url(#b)" rx="0"/><path fill="#99a1a7" d="M389.571 524.798c-.52 0-.993.495-1 1v16h1v-16h38v16h1v-16c0-.505-.503-1-1-1z"/><path fill="#737b81" d="M382.571 541.798h52v2h-52z"/><path fill="url(#c)" d="M415.571 525.798h-14v2c0 1.108.78 2 1.75 2h10.5c.97 0 1.75-1 1.75-2z"/></g><g stroke-linejoin="round" stroke-width=".5"><path fill="url(#d)" d="M390.571 495.798h36v16h-36z" transform="translate(-376.571 -485.798)"/><path fill="url(#e)" d="M392.571 491.798h32v16h-32z" transform="translate(-376.571 -485.798)"/><path fill="url(#f)" d="M392.571 493.798h32v12h-32z" transform="translate(-376.571 -485.798)"/><path fill="url(#g)" d="M392.571 495.798h32v16h-32z" transform="translate(-376.571 -485.798)"/></g><g stroke-linecap="round" transform="translate(-376.571 -485.798)"><circle cx="432.571" cy="515.798" r="1" fill="#11d116"/><path fill="#99a1a7" d="M382.571 517.798h52v1h-52z"/><path fill="url(#h)" d="M390.571 511.798v2c0 .969 1.006 2 2 2h32c1.108 0 2-1.011 2-2v-2z"/></g><path fill="url(#i)" fill-rule="evenodd" d="m390.571 511.798 14 14h22v-14z" opacity=".2" transform="translate(-376.571 -485.798)"/><path fill="#566069" d="M31 34a.25.25 0 1 0 0 .5.25.25 0 1 0 0-.5m1.75 0-.5.5.75.75-.75.75.5.5L34 35.25zm-2.375 1.5a.374.374 0 1 0 0 .75.374.374 0 1 0 0-.75M31.5 37a.499.499 0 1 0 0 1 .499.499 0 1 0 0-1"/></svg>