<svg xmlns="http://www.w3.org/2000/svg" xmlns:xlink="http://www.w3.org/1999/xlink" width="64" height="64"><defs><linearGradient id="n"><stop style="stop-color:#eef1f2"/><stop offset="1" style="stop-color:#f9fafb"/></linearGradient><linearGradient id="j"><stop style="stop-color:#c6cdd1"/><stop offset="1" style="stop-color:#e0e5e7"/></linearGradient><linearGradient id="b"><stop style="stop-color:#2a2c2f"/><stop offset="1" style="stop-color:#424649"/></linearGradient><linearGradient id="m"><stop style="stop-color:#e74c3c"/><stop offset=".25" style="stop-color:#f39c1f"/><stop offset=".5" style="stop-color:#11d116"/><stop offset=".75" style="stop-color:#3498db"/><stop offset="1" style="stop-color:#9b59b6"/></linearGradient><linearGradient id="l"><stop/><stop offset="1" style="stop-opacity:0"/></linearGradient><linearGradient id="i"><stop style="stop-color:#2e5d89"/><stop offset="1" style="stop-color:#1b92f4"/></linearGradient><linearGradient id="k"><stop style="stop-color:#18222a"/><stop offset="1" style="stop-color:#566069"/></linearGradient><linearGradient xlink:href="#j" id="p" x2="0" y1="531.798" y2="501.699" gradientTransform="matrix(1.08333 0 0 1.16667 -34.047 -84.633)" gradientUnits="userSpaceOnUse"/><linearGradient xlink:href="#k" id="r" x2="0" y1="533.798" y2="537.798" gradientTransform="matrix(1.11111 0 0 1 -45.396 0)" gradientUnits="userSpaceOnUse"/><linearGradient xlink:href="#k" id="s" x2="0" y1="514.798" y2="511.798" gradientTransform="matrix(1 0 0 2.28572 0 -664.885)" gradientUnits="userSpaceOnUse"/><linearGradient xlink:href="#l" id="v" x1="391.571" x2="404.571" y1="533.798" y2="546.798" gradientTransform="translate(-2)" gradientUnits="userSpaceOnUse"/><linearGradient xlink:href="#l" id="B" x1="391.571" x2="404.571" y1="533.798" y2="546.798" gradientTransform="translate(0 -22)" gradientUnits="userSpaceOnUse"/><linearGradient xlink:href="#m" id="u" x1="394.571" x2="422.571" gradientTransform="matrix(1.14286 0 0 1 -58.367 0)" gradientUnits="userSpaceOnUse"/><linearGradient xlink:href="#n" id="t" x2="0" y1="505.798" y2="503.798" gradientTransform="translate(0 -12)" gradientUnits="userSpaceOnUse"/><linearGradient xlink:href="#n" id="x" x2="0" y1="519.798" y2="507.798" gradientTransform="matrix(1 0 0 1.33333 0 -181.266)" gradientUnits="userSpaceOnUse"/><linearGradient xlink:href="#n" id="w" x2="0" y1="507.798" y2="505.798" gradientTransform="translate(0 -12)" gradientUnits="userSpaceOnUse"/><linearGradient id="o"><stop style="stop-color:#2f3943"/><stop offset="1" style="stop-color:#4d5662"/></linearGradient><linearGradient xlink:href="#o" id="y" x2="0" y1="28" y2="12" gradientTransform="translate(382.571 501.798)" gradientUnits="userSpaceOnUse"/><linearGradient xlink:href="#o" id="z" x2="0" y1="28" y2="12" gradientTransform="matrix(-1 0 0 1 434.571 501.798)" gradientUnits="userSpaceOnUse"/><linearGradient xlink:href="#o" id="A" x1="425.571" x2="390.571" y1="524.798" y2="511.798" gradientUnits="userSpaceOnUse"/></defs><g transform="translate(-376.571 -485.798)"><rect width="52" height="28" x="382.571" y="507.798" rx="0" style="fill:url(#p);stroke-linecap:round;stroke-linejoin:round;stroke-width:2"/><path d="M382.571 535.798h52v2h-52z" style="fill:#737b81;stroke-linecap:round;stroke-linejoin:round;stroke-width:2"/><path d="M388.571 533.798h40v7h-40z" style="fill:url(#r);stroke-linejoin:round;stroke-width:.5"/><path d="M390.571 533.798h36v10h-36z" style="fill:#eff0f1;stroke-linejoin:round;stroke-width:.5"/><path d="M390.571 495.798h36v16h-36z" style="fill:url(#s);stroke-linejoin:round;stroke-width:.5"/><path d="M392.571 491.798h32v16h-32z" style="fill:url(#t);stroke-linejoin:round;stroke-width:.5"/><path d="M392.571 533.798h32v8h-32z" style="fill:url(#u);stroke-linejoin:round;stroke-width:.5"/><path d="m388.571 533.798 10 10h24v-3h2v-7z" style="fill:url(#v);opacity:.2;fill-rule:evenodd"/><path d="M392.571 493.798h32v12h-32z" style="fill:url(#w);stroke-linejoin:round;stroke-width:.5"/><path d="M392.571 495.798h32v16h-32z" style="fill:url(#x);stroke-linejoin:round;stroke-width:.5"/><path d="M382.571 509.798v22h2c1.108 0 2-.892 2-2v-18c0-1.108-1-2-2-2z" style="fill:url(#y);stroke-linecap:round;stroke-linejoin:round;stroke-width:2"/><path d="M434.571 509.798v22h-2c-1.108 0-2-.892-2-2v-18c0-1.108 1-2 2-2z" style="fill:url(#z);stroke-linecap:round;stroke-linejoin:round;stroke-width:2"/><circle cx="432.571" cy="529.798" r="1" style="fill:#11d116;stroke-linecap:round;stroke-linejoin:round;stroke-width:2"/><path d="M386.571 527.798h44v1h-44z" style="fill:#99a1a7;stroke-linecap:round;stroke-linejoin:bevel;stroke-width:2"/><path d="M390.571 511.798v10c0 1.108.892 2 2 2h32c1.108 0 2-.892 2-2v-10z" style="fill:url(#A);stroke-linecap:round;stroke-linejoin:bevel;stroke-width:2"/><path d="m390.571 511.798 14 14h22v-14z" style="fill:url(#B);opacity:.2;fill-rule:evenodd"/><path d="M407.571 515.798a.25.25 0 1 0 0 .5.25.25 0 1 0 0-.5m1.75 0-.5.5.75.75-.25.25-.25.25-.25.25.5.5.25-.25.25-.25.25-.25.5-.5zm-2.375 1.5a.374.374 0 1 0 0 .75.374.374 0 1 0 0-.75m1.125 1.5a.499.499 0 1 0 0 1 .499.499 0 1 0 0-1" style="fill:#d9d9d9"/></g></svg>