<svg xmlns="http://www.w3.org/2000/svg" xmlns:xlink="http://www.w3.org/1999/xlink" width="64" height="64"><defs><linearGradient id="e"><stop style="stop-color:#84cbfe"/><stop offset="1" style="stop-color:#84cbfe;stop-opacity:0"/></linearGradient><linearGradient id="b"><stop/><stop offset="1" style="stop-opacity:0"/></linearGradient><linearGradient xlink:href="#a" id="g" x2="0" y1="543.798" y2="503.798" gradientTransform="matrix(1.43788 0 0 1.125 -178.898 -63.975)" gradientUnits="userSpaceOnUse"/><linearGradient id="a"><stop style="stop-color:#c6cdd1"/><stop offset="1" style="stop-color:#e0e5e7"/></linearGradient><linearGradient xlink:href="#b" id="n" x1="390.571" x2="418.571" y1="507.674" y2="535.798" gradientTransform="matrix(1.2888 0 0 1.2938 -117.794 -153.988)" gradientUnits="userSpaceOnUse"/><linearGradient id="d"><stop style="stop-color:#2e5d89"/><stop offset="1" style="stop-color:#1b92f4"/></linearGradient><linearGradient id="c"><stop style="stop-color:#2f3943"/><stop offset="1" style="stop-color:#4d5662"/></linearGradient><linearGradient id="f"><stop style="stop-color:#18222a"/><stop offset="1" style="stop-color:#566069"/></linearGradient><linearGradient xlink:href="#c" id="k" x2="0" y1="507.798" y2="503.798" gradientTransform="matrix(1.3 0 0 1.25 -122.571 -131.952)" gradientUnits="userSpaceOnUse"/><linearGradient xlink:href="#a" id="i" x1="43" x2="8" y1="46" y2="37" gradientTransform="matrix(1.28889 0 0 1.3 377.838 492.598)" gradientUnits="userSpaceOnUse"/><linearGradient xlink:href="#d" id="j" x2="0" y1="509.798" y2="537.798" gradientTransform="matrix(1.3125 0 0 1.35714 -127.679 -187.071)" gradientUnits="userSpaceOnUse"/><linearGradient xlink:href="#c" id="o" x1="3" x2="-1" gradientTransform="matrix(0 1.3125 -1.28571 0 426.571 544.798)" gradientUnits="userSpaceOnUse"/><linearGradient xlink:href="#e" id="m" x2="0" y1="-521.798" y2="-518.798" gradientTransform="matrix(1.25 0 0 1.33334 -102.143 174.936)" gradientUnits="userSpaceOnUse"/><linearGradient xlink:href="#e" id="l" x2="0" y1="-521.798" y2="-518.798" gradientTransform="matrix(1.25 0 0 1.33334 -102.143 1218.532)" gradientUnits="userSpaceOnUse"/><linearGradient xlink:href="#f" id="p" x2="0" y1="505.798" y2="509.798" gradientTransform="matrix(1.3 0 0 1.3 -122.571 -157.14)" gradientUnits="userSpaceOnUse"/><linearGradient xlink:href="#a" id="h" x2="0" y1="509.798" y2="537.798" gradientTransform="matrix(1.37812 0 0 1.41049 -154.438 -215.265)" gradientUnits="userSpaceOnUse"/></defs><g transform="translate(-376.571 -491.798)"><rect width="46.012" height="45" x="385.571" y="502.798" rx="0" style="fill:url(#g)"/><path d="M386.571 503.798h44v40h-44z" style="fill:url(#h);stroke-linecap:round;stroke-linejoin:bevel;stroke-width:6.2"/><path d="M385.571 544.531v3.267c0 1.476.916 2 2.38 2h41.62c1 0 2-1 2-2v-3z" style="fill:url(#i)"/><path d="M387.571 504.798h42v38h-42z" style="fill:url(#j);stroke-linecap:round;stroke-linejoin:bevel;stroke-width:6.2"/><path d="M385.571 502.798v-3c0-1 1-2 2.045-2h41.955c1 0 2 1 2 2v3z" style="fill:url(#k)"/><path d="M388.571 520.798h40v2h-40z" style="fill:#84cbfe;stroke-linecap:round;stroke-linejoin:bevel;stroke-width:6.2"/><path d="M388.571 522.798h40v4h-40z" style="fill:url(#l);opacity:.2;stroke-linecap:round;stroke-linejoin:bevel;stroke-width:6.2"/><path d="M388.571-520.798h40v4h-40z" style="fill:url(#m);opacity:.2;stroke-linecap:round;stroke-linejoin:bevel;stroke-width:6.2" transform="scale(1 -1)"/><path d="M389.571 514.798h22v27h-22z" style="fill:#eff0f1;stroke-linecap:round;stroke-linejoin:bevel;stroke-width:6.2"/><path d="m385.571 502.836 41 41.962h5v-42z" style="fill:url(#n);opacity:.2;fill-rule:evenodd"/><path d="M426.571 544.798h-36v2c0 1 1 2 2 2h32c1 0 2-1 2-2z" style="fill:url(#o);stroke-linecap:round;stroke-linejoin:round;stroke-width:2"/><circle cx="-546.798" cy="-423.571" r="1" style="fill:#11d116;stroke-linecap:round;stroke-linejoin:round;stroke-width:2" transform="scale(1 -1)rotate(90)"/><path d="M385.571 499.798h46v3h-46z" style="fill:url(#p);stroke-linecap:round;stroke-linejoin:bevel;stroke-width:6.2"/></g></svg>