<svg xmlns="http://www.w3.org/2000/svg" viewBox="0 0 64 64"><defs><linearGradient id="a" x1="31.756" x2="30.031" y1="44.109" y2="25.774" gradientTransform="matrix(4.0863 0 0 4.00007 -113.095 -117.745)" gradientUnits="userSpaceOnUse"><stop offset="0" stop-color="#242424"/><stop offset="1" stop-color="#878787"/></linearGradient></defs><path fill="url(#a)" stroke="#050505" d="M21.371 5.987H42.63c1.823 0 3.291 1.437 3.291 3.221v44.887c0 1.785-1.468 3.222-3.291 3.222H21.37c-1.823 0-3.291-1.437-3.291-3.222V9.208c0-1.784 1.468-3.221 3.291-3.221z"/><path fill="#aa5cf9" d="M25.482 49.246a1.956 1.956 0 0 1-1.95 1.956 1.956 1.956 0 0 1-1.963-1.943 1.956 1.956 0 0 1 1.937-1.97 1.956 1.956 0 0 1 1.975 1.93" style="paint-order:stroke fill markers"/><path fill="#34b9ff" d="M31.267 49.246a1.956 1.956 0 0 1-1.95 1.956 1.956 1.956 0 0 1-1.963-1.943 1.956 1.956 0 0 1 1.937-1.97 1.956 1.956 0 0 1 1.976 1.93" style="paint-order:stroke fill markers"/><path fill="#8ace6c" d="M37.043 49.215a1.956 1.956 0 0 1-1.95 1.956 1.956 1.956 0 0 1-1.963-1.943 1.956 1.956 0 0 1 1.937-1.97 1.956 1.956 0 0 1 1.975 1.93"/><path fill="#ffb446" d="M42.818 49.39a1.956 1.956 0 0 1-1.95 1.956 1.956 1.956 0 0 1-1.963-1.943 1.956 1.956 0 0 1 1.937-1.97 1.956 1.956 0 0 1 1.976 1.93" style="paint-order:stroke fill markers"/><path fill="#dadada" d="M41 9a.887.887 0 0 1-.884.886.887.887 0 0 1-.89-.88.887.887 0 0 1 .878-.893.887.887 0 0 1 .896.875" style="paint-order:stroke fill markers"/><path d="M22.439 9.973a1.08 1.08 0 0 1-1.078 1.081 1.08 1.08 0 0 1-1.085-1.074 1.08 1.08 0 0 1 1.07-1.088 1.08 1.08 0 0 1 1.092 1.067" style="paint-order:stroke fill markers"/><path fill="none" d="M31.243 49.667a2.02 2.02 0 0 1-2.013 2.02 2.02 2.02 0 0 1-2.027-2.007 2.02 2.02 0 0 1 2-2.033 2.02 2.02 0 0 1 2.04 1.993" style="paint-order:stroke fill markers"/><path fill="#a5a5a5" d="M27.067 54.411a.46.46 0 0 0-.462.462.46.46 0 0 0 .462.463h9.866a.46.46 0 0 0 .464-.463.46.46 0 0 0-.464-.462z"/><path fill="#dadada" d="M43.459 9a.887.887 0 0 1-.884.886.887.887 0 0 1-.89-.88.887.887 0 0 1 .878-.893.887.887 0 0 1 .895.875" style="paint-order:stroke fill markers"/></svg>