<svg xmlns="http://www.w3.org/2000/svg" xmlns:xlink="http://www.w3.org/1999/xlink" width="64" height="64"><defs><linearGradient id="a"><stop style="stop-color:#2a2c2f"/><stop offset="1" style="stop-color:#424649"/></linearGradient><linearGradient xlink:href="#a" id="h" x2="0" y1="536.798" y2="503.798" gradientTransform="matrix(1.08333 0 0 1.0909 -36.048 -47.8)" gradientUnits="userSpaceOnUse"/><linearGradient xlink:href="#b" id="g" x2="0" y1="547.798" y2="536.798" gradientTransform="matrix(.5 0 0 .72727 198.286 146.402)" gradientUnits="userSpaceOnUse"/><linearGradient id="b"><stop style="stop-color:#c6cdd1"/><stop offset="1" style="stop-color:#e0e5e7"/></linearGradient><linearGradient id="e"><stop style="stop-color:#ee6406"/><stop offset="1" style="stop-color:#ffce0d"/></linearGradient><linearGradient id="d"><stop style="stop-opacity:0"/><stop offset="1" style="stop-opacity:.452632"/></linearGradient><linearGradient id="c"><stop stop-color="#21c9fb"/><stop offset="1" stop-color="#197cf1"/></linearGradient><linearGradient xlink:href="#c" id="i" x2="0" y1="535.798" y2="505.798" gradientTransform="matrix(1.18182 0 0 1.2 -74.286 -103.16)" gradientUnits="userSpaceOnUse"/><linearGradient xlink:href="#e" id="l" x1="33" x2="24" y1="21" y2="12" gradientTransform="matrix(1.28571 0 0 1.28571 377.714 494.798)" gradientUnits="userSpaceOnUse"/><linearGradient xlink:href="#e" id="k" x1="428.571" x2="388.571" gradientTransform="matrix(1.24 0 0 1 -98.497 .5)" gradientUnits="userSpaceOnUse"/><linearGradient xlink:href="#b" id="f" x2="0" y1="547.798" y2="536.798" gradientTransform="matrix(.5 0 0 .72727 210.286 146.402)" gradientUnits="userSpaceOnUse"/><radialGradient xlink:href="#d" id="j" cx="408.571" cy="520.798" r="22" gradientTransform="matrix(1.18182 0 0 .81818 -74.286 95.69)" gradientUnits="userSpaceOnUse"/></defs><g transform="translate(-376.571 -491.798)"><path d="M411.571 536.798v8h6v-8z" style="stroke-opacity:.550265;fill:url(#f);stroke-width:2.8"/><path d="M399.571 536.798v8h6v-8z" style="stroke-opacity:.550265;fill:url(#g);stroke-width:2.8"/><rect width="64" height="35" x="376.571" y="502.798" ry="6" style="fill:url(#h);stroke-width:2.8;stroke-opacity:.550265"/><path d="M384.571 503.798h48v33h-48z" style="stroke-opacity:.550265;fill:url(#i);stroke-width:2.8"/><path d="M384.571 503.798h48v33h-48z" style="stroke-opacity:.550265;fill:url(#j);opacity:.85;stroke-width:2.8"/><path d="M384.571 531.798h48v4.8h-48zM384.571 503.99h48v4.808h-48z" style="opacity:.85;fill-opacity:.621053;stroke-width:.1"/><path d="M385.191 533.798c-.343 0-.62.223-.62.5s.277.5.62.5h30.38v-1z" style="fill:url(#k);stroke-width:.1"/><path d="M408.571 512.798a8.98 8.98 0 0 0-9 9c0 4.986 4.014 9 9 9s9-4.014 9-9-4.014-9-9-9m0 1a8 8 0 0 1 8 8 8 8 0 0 1-8 8 8 8 0 0 1-8-8 8 8 0 0 1 8-8" style="fill:#fff;opacity:.85;fill-opacity:.452632;stroke-width:.1"/><path d="M408.571 512.798v1a8 8 0 0 1 8 8h1c0-4.986-4.014-9-9-9" style="fill:url(#l);opacity:.85;stroke-width:.1"/><g transform="translate(0 -2)"><rect width="5.909" height="6" x="405.617" y="520.798" rx="2.955" ry="3" style="opacity:.8;stroke-width:.1"/><path d="m410.344 523.798-2.954-1.8v3.6z" style="fill:#fff;fill-rule:evenodd"/></g><path d="M416.571 533.798v1h15.385c.341 0 .615-.223.615-.5s-.274-.5-.615-.5z" style="fill:#999;stroke-width:.1"/><rect width="3" height="3" x="414.571" y="532.798" rx="1.5" style="fill:#fff;stroke-width:.1"/><rect width="28" height="1" x="394.571" y="543.798" ry=".5" style="fill:#99a1a7;stroke-width:2.8;stroke-opacity:.550265"/><rect width="4" height="28" x="434.571" y="505.798" rx="2" style="fill:#1e2426"/><rect width="4" height="28" x="378.571" y="505.798" rx="2" style="fill:#1e2426"/></g></svg>