<svg xmlns="http://www.w3.org/2000/svg" viewBox="0 0 32 32"><linearGradient id="a" x2="0" y1="44" y2="7" gradientTransform="matrix(-.75676 0 0 .75676 35.297 -3.297)" gradientUnits="userSpaceOnUse"><stop offset="0" stop-color="#faae2a"/><stop offset="1" stop-color="#ffc35a"/></linearGradient><linearGradient id="b" x1="7.923" x2="23" y1="5.769" y2="20.846" gradientUnits="userSpaceOnUse"><stop offset="0" stop-color="#292c2f"/><stop offset="1" stop-opacity="0"/></linearGradient><linearGradient id="c" x2="0" y1="30" y2="2" gradientTransform="matrix(1.07692 0 0 -1.07692 -1.23 27.308)" gradientUnits="userSpaceOnUse"><stop offset="0" stop-color="#fcd994"/><stop offset="1" stop-color="#fff6e1"/></linearGradient><g stroke-width=".538"><path fill="url(#a)" fill-rule="evenodd" d="M30 4v16c0 1.14-1 2-2 2H16l-7 7v-7H4c-1 0-2-.9-2-2V4c0-.932.953-2 2-2h24c1 0 2 .873 2 2"/><path fill="url(#b)" fill-rule="evenodd" d="m16 4 9 15H7l6 6 3-3 14-2v-2z" opacity=".2"/><path fill="url(#c)" d="M16 4 7 19h18zm0 1.962 7.235 12.056H8.765zm-1 4.027V15l2 .011V10zM15 16v1h2v-1z"/><path fill="#e59305" fill-rule="evenodd" d="M2.3 21c.329.416.7 1 1.6 1h5v-1zm13.6 0-7 7v1l7-7h11c1.1 0 2.09.116 2.8-1z"/></g></svg>