<svg xmlns="http://www.w3.org/2000/svg" viewBox="0 0 48 48"><defs><path id="b" d="M33.02 13.02c-.652.18-1.746 1.621-2.301 1.727-.637.121-2.535-1.133-2.977-.668s.953 2.305.875 2.941-1.898 2.066-1.586 2.625 2.508-.191 3.09.078 1.391 2.391 2.023 2.27.59-2.391 1.031-2.859 2.738-.578 2.816-1.215-2.105-1.281-2.422-1.84.27-2.789-.316-3.059c-.07-.031-.145-.023-.238 0m.004 0"/><path id="c" d="M22.07 21c-1.27.176-1.438 4.789-2.363 5.68s-5.469.852-5.695 2.121 4.04 2.863 4.602 4.03c.559 1.16-.879 5.496.25 6.102s3.965-3 5.234-3.176 4.941 2.543 5.863 1.652c.93-.891-1.617-4.707-1.391-5.977s3.934-3.926 3.375-5.082-4.945.098-6.074-.512-2.527-5.01-3.801-4.828m0-.008"/><linearGradient id="a" x1="0" x2="0" y1="47" y2="1" gradientUnits="userSpaceOnUse"><stop stop-color="#333"/><stop offset="1" stop-color="#3d3d3d"/></linearGradient></defs><path d="M36.31 5c5.859 4.062 9.688 10.831 9.688 18.5 0 12.426-10.07 22.5-22.5 22.5-7.669 0-14.438-3.828-18.5-9.688a23.2 23.2 0 0 0 3.781 4.969 22.92 22.92 0 0 0 15.469 5.969c12.703 0 23-10.298 23-23a22.92 22.92 0 0 0-5.969-15.469A23.2 23.2 0 0 0 36.31 5m4.969 3.781A22.9 22.9 0 0 1 47.498 24.5c0 12.703-10.297 23-23 23a22.9 22.9 0 0 1-15.719-6.219C12.939 45.425 18.662 48 24.998 48c12.703 0 23-10.298 23-23 0-6.335-2.575-12.06-6.719-16.219" opacity=".05"/><path d="M41.28 8.781a22.92 22.92 0 0 1 5.969 15.469c0 12.703-10.297 23-23 23A22.92 22.92 0 0 1 8.78 41.281 22.9 22.9 0 0 0 24.499 47.5c12.703 0 23-10.298 23-23A22.9 22.9 0 0 0 41.28 8.781" opacity=".1"/><path d="M31.25 2.375C39.865 5.529 46 13.792 46 23.505c0 12.426-10.07 22.5-22.5 22.5-9.708 0-17.971-6.135-21.12-14.75a23 23 0 0 0 44.875-7 23 23 0 0 0-16-21.875z" opacity=".2"/><path fill="url(#a)" d="M24 1c12.703 0 23 10.297 23 23S36.703 47 24 47 1 36.703 1 24 11.297 1 24 1"/><g opacity=".1"><use href="#b"/><use href="#c"/></g><g fill="#78cfff"><use x="-1" y="-1" href="#b"/><use x="-1" y="-1" href="#c"/></g><path d="M40.03 7.531A22.92 22.92 0 0 1 45.999 23c0 12.703-10.297 23-23 23A22.92 22.92 0 0 1 7.53 40.031C11.708 44.322 17.54 47 23.999 47c12.703 0 23-10.298 23-23 0-6.462-2.677-12.291-6.969-16.469" opacity=".1"/></svg>