<svg xmlns="http://www.w3.org/2000/svg" xmlns:xlink="http://www.w3.org/1999/xlink" width="48" height="48"><defs><linearGradient id="d" x1="60.824" x2="60.824" y1="-9.815" y2="-4.774" gradientTransform="matrix(2.7658 0 0 2.67906 -144.245 43.51)" gradientUnits="userSpaceOnUse"><stop offset="0" stop-color="#88c0d0"/><stop offset="1" stop-color="#5e81ac"/></linearGradient><linearGradient xlink:href="#a" id="e" x1="61.74" x2="54.282" y1="-3.539" y2="-3.606" gradientTransform="translate(-37.531 13.848)scale(.75551)" gradientUnits="userSpaceOnUse"/><linearGradient id="a" x1="61.74" x2="54.282" y1="-3.539" y2="-3.606" gradientUnits="userSpaceOnUse"><stop offset="0" stop-color="#81a1c1" style="stop-color:#5983ae;stop-opacity:1"/><stop offset="1" stop-color="#6a8fb4"/></linearGradient><linearGradient xlink:href="#b" id="f" x1="57.029" x2="62.129" y1="-8.209" y2="-14.574" gradientTransform="translate(-37.531 13.848)scale(.75551)" gradientUnits="userSpaceOnUse"/><linearGradient id="b" x1="57.029" x2="62.129" y1="-8.209" y2="-14.574" gradientUnits="userSpaceOnUse"><stop offset="0" stop-color="#5e81ac"/><stop offset="1" stop-color="#51739e"/></linearGradient><filter id="c" width="1.308" height="1.308" x="-.154" y="-.154" color-interpolation-filters="sRGB"><feGaussianBlur stdDeviation=".358"/></filter><filter id="g" width="1.11" height="1.064" x="-.055" y="-.032" color-interpolation-filters="sRGB"><feGaussianBlur stdDeviation=".263"/></filter><filter id="h" width="1.037" height="1.021" x="-.018" y="-.011" color-interpolation-filters="sRGB"><feGaussianBlur stdDeviation=".092"/></filter></defs><path fill="#5e81ac" fill-rule="evenodd" d="M63.62-6.832a2.79 2.796 0 0 1-2.79 2.796 2.79 2.796 0 0 1-2.789-2.796 2.79 2.796 0 0 1 2.79-2.796 2.79 2.796 0 0 1 2.789 2.796" filter="url(#c)" opacity=".511" transform="matrix(2.7658 0 0 2.67906 -144.245 43.51)"/><path fill-rule="evenodd" d="M31.717 24a7.715 7.49 0 0 1-7.715 7.49A7.715 7.49 0 0 1 16.288 24a7.715 7.49 0 0 1 7.714-7.49A7.715 7.49 0 0 1 31.717 24" style="fill:url(#d)"/><path d="M3.656 5.156a5.737 5.75 0 0 0-.965 3.19 5.737 5.75 0 0 0 5.736 5.75 5.737 5.75 0 0 0 .187-.003l2.327-3.795-.65-.133a2.583 2.59 0 0 1-1.872.81 2.583 2.59 0 0 1-2.514-1.999z" style="fill:url(#e)" transform="matrix(3.66085 0 0 3.54602 -6.85 -5.596)"/><path d="M8.857 5.834a2.564 2.564 0 0 1 2.145 2.55 2.6 2.6 0 0 1-.86 1.925l-2.197 3.765q.24.021.482.022c3.168 0 5.736-2.574 5.736-5.75a5.8 5.8 0 0 0-.582-2.507" style="fill:#63a5c0;fill-opacity:1" transform="matrix(3.66085 0 0 3.54602 -6.85 -5.596)"/><path d="M5.946 9.124a2.583 2.59 0 0 1-.111-.739 2.583 2.59 0 0 1 2.583-2.59 2.583 2.59 0 0 1 .44.039l4.739.02a5.737 5.75 0 0 0-5.17-3.258 5.737 5.75 0 0 0-4.77 2.561" style="fill:url(#f)" transform="matrix(3.66085 0 0 3.54602 -6.85 -5.596)"/><g fill="#2e3440" stroke-width="1.324"><path d="m206.05-43.479 11.453 19.846a12.924 12.955 0 0 1-.553-3.697 12.924 12.955 0 0 1 .428-3.244z" filter="url(#g)" opacity=".134" transform="matrix(.73178 0 0 .70882 -144.245 43.51)"/><path d="m206.05-43.479 11.453 19.846a12.924 12.955 0 0 1-.553-3.697 12.924 12.955 0 0 1 .428-3.244z" filter="url(#g)" opacity=".134" transform="matrix(-.36666 -.61342 .63329 -.35516 124.879 155.952)"/><path d="m205.95-44.255 12.091 20.982c-.362-1.2-.775-2.629-1.095-4.057.005-1.096-.023-2.476.256-3.535z" filter="url(#h)" opacity=".134" style="mix-blend-mode:normal" transform="scale(-.73176 -.7088)rotate(-59.43 93.71 198.919)"/></g></svg>