<svg xmlns="http://www.w3.org/2000/svg" width="22" height="22"><linearGradient id="a" x2="0" y1="540.798" y2="522.798" gradientTransform="matrix(.625 0 0 .77778 -239.357 -402.62)" gradientUnits="userSpaceOnUse"><stop offset="0" stop-color="#c6cdd1"/><stop offset="1" stop-color="#e0e5e7"/></linearGradient><path fill="url(#a)" d="M1 4h20v14H1z" opacity=".99"/><path fill="#abb4ba" d="M1 17h20v1H1z"/><path fill="#31c281" d="M15 5v1h1V5zm2 0v1h1V5zm2 0v1h1V5z"/><path fill="#536161" d="M2 8v2h1V8zm2 0v2h2V8zm3 0v2h2V8zm3 0v2h2V8zm3 0v2h2V8zm3 0v2h4V8zM2 11v2h2v-2zm3 0v2h2v-2zm3 0v2h2v-2zm3 0v2h2v-2zm3 0v2h2v-2zm3 0v2h3v-2zM2 14v2h3v-2zm4 0v2h8v-2zm9 0v2h2v-2zm3 0v2h2v-2z"/><path fill="#334545" d="M2 9v1h1V9zm2 0v1h2V9zm3 0v1h2V9zm3 0v1h2V9zm3 0v1h2V9zm3 0v1h4V9zM2 12v1h2v-1zm3 0v1h2v-1zm3 0v1h2v-1zm3 0v1h2v-1zm3 0v1h2v-1zm3 0v1h3v-1zM2 15v1h3v-1zm4 0v1h8v-1zm9 0v1h2v-1zm3 0v1h2v-1z"/></svg>