<svg xmlns="http://www.w3.org/2000/svg" width="64" height="64"><defs><radialGradient id="a" cx="32" cy="32" r="27.5" fx="32" fy="32" gradientUnits="userSpaceOnUse"><stop offset="0" stop-color="#141414"/><stop offset="1" stop-color="#3c3c3c"/></radialGradient><filter id="c" width="1.123" height="1.117" x="-.062" y="-.058" color-interpolation-filters="sRGB"><feGaussianBlur stdDeviation=".976"/></filter><path id="b" d="M26.553 10.074c-3.935 2.076-7.228 5.959-7.322 10.581-.075 2.399.425 4.928 1.598 6.995 4.114.07 8.351 2.419 9.794 6.421 2.114 5.29-.374 12.312-5.936 14.261-2.853 1.027-6.025.569-8.782-.538 3.769 2.373 8.787 3.281 12.837 1.042C30.862 47.713 32.729 46.014 34 44c-2.001-3.607-2.081-8.446.661-11.703 3.514-4.479 10.835-5.859 15.308-2.02 2.316 1.954 3.504 4.93 3.924 7.87.169-4.446-1.547-9.241-5.5-11.632-2.032-1.296-4.433-2.006-6.815-2.171-2.124 3.537-6.275 6.028-10.467 5.286-5.633-.795-10.495-6.436-9.407-12.228.532-2.984 2.519-5.5 4.852-7.329z"/></defs><g transform="matrix(.92264 0 0 .92264 2.476 2.476)"><circle cx="32" cy="32" r="30" fill="#fff"/><circle cx="32" cy="32" r="27.5" fill="url(#a)"/><g fill-rule="evenodd"><use filter="url(#c)" href="#b" opacity=".5"/><use fill="#f9f9f9" href="#b"/></g></g></svg>