<svg xmlns="http://www.w3.org/2000/svg" viewBox="0 0 48 48"><defs><linearGradient id="a" x1="0" x2="0" y1="47" y2="1" gradientUnits="userSpaceOnUse"><stop offset="0" stop-color="#ebebeb"/><stop offset="1" stop-color="#f5f5f5"/></linearGradient><linearGradient id="b" x2="0" y1="47" y2="1" gradientUnits="userSpaceOnUse"><stop offset="0" stop-color="#2da8e6"/><stop offset="1" stop-color="#40b0e8"/></linearGradient><radialGradient id="c" cx="23.8" cy="23.8" r="12.5" gradientUnits="userSpaceOnUse"><stop offset="0"/><stop offset="1" stop-opacity="0"/></radialGradient></defs><path d="M35.51 6.32c5.463 3.787 9.032 10.098 9.032 17.248 0 11.584-9.388 20.976-20.976 20.976-7.15 0-13.46-3.569-17.248-9.032a21.7 21.7 0 0 0 3.525 4.633 21.37 21.37 0 0 0 14.422 5.564c11.843 0 21.443-9.6 21.443-21.442a21.37 21.37 0 0 0-5.565-14.422A21.6 21.6 0 0 0 35.51 6.32m4.633 3.525A21.36 21.36 0 0 1 45.94 24.5c0 11.843-9.6 21.443-21.443 21.443-5.67 0-10.82-2.204-14.655-5.798 3.879 3.863 9.214 6.264 15.121 6.264 11.843 0 21.443-9.601 21.443-21.443 0-5.906-2.4-11.243-6.264-15.12" opacity=".05"/><path d="M40.144 9.845a21.37 21.37 0 0 1 5.565 14.422c0 11.843-9.6 21.442-21.443 21.442a21.37 21.37 0 0 1-14.422-5.564A21.36 21.36 0 0 0 24.5 45.943c11.843 0 21.443-9.601 21.443-21.443 0-5.67-2.204-10.82-5.798-14.655" opacity=".1"/><path d="M30.793 3.873c8.032 2.94 13.751 10.644 13.751 19.7 0 11.584-9.388 20.976-20.976 20.976-9.051 0-16.755-5.72-19.69-13.751a21.443 21.443 0 0 0 41.836-6.527A21.44 21.44 0 0 0 30.798 3.878z" opacity=".2"/><path fill="url(#a)" d="m28.412 1.428-10.932.516a23 23 0 0 0-10.627 6.73l-5.395 10.74A23 23 0 0 0 .999 24c0 2.525.412 4.953 1.164 7.227l6.326 9.756a22.93 22.93 0 0 0 11.09 5.588l11.267-.608a23 23 0 0 0 10.353-6.699l5.293-10.481.006.006A23 23 0 0 0 47 24c0-2.536-.416-4.973-1.174-7.254l-6.707-10.06h.002a22.84 22.84 0 0 0-10.709-5.258" transform="matrix(.93229 0 0 .93229 1.659 1.659)"/><path fill-opacity=".098" d="m24.034 2.591-5.48 13.224-3.21 3.467c-2.914-2.114-6.642-7-6.59-10.283a22 22 0 0 0-1.095 1.2l-4.495 8.938c.684 2.836 5.842 6.027 9.43 6.924.426.106.854.19 1.282.276a11.2 11.2 0 0 0 1.365 4.129c-2.978 1.336-8.257 2.112-11.323.989a21.46 21.46 0 0 0 6.782 9.36c3.25-.327 7.398-2.816 9.042-4.568.3-.321.586-.656.873-.99a11.2 11.2 0 0 0 4.299.883l-.876 9.333c2.75 0 5.375-.523 7.79-1.466 1.106-3.192.546-6.395-.119-8.875-.093-.349-.206-.688-.311-1.03a11.2 11.2 0 0 0 3.25-3.548c2.095 1.517 4.608 4.46 5.845 7.22a21.4 21.4 0 0 0 4.556-9.44c-2.121-2.227-5.603-4.081-7.649-4.558-.445-.103-.893-.187-1.342-.27A11.2 11.2 0 0 0 34.67 19.4c2.574-1.15 6.863-1.883 9.965-1.341a21.4 21.4 0 0 0-5.489-9.245l-9.896 5.823-4.208-.852c.317-3.319 2.232-8.428 4.654-10.439a21.5 21.5 0 0 0-5.66-.759"/><path fill="url(#b)" d="M24 1a23 23 0 0 0-6.52.943c-2.215 3.451-1.427 8.6-.701 11.148.709 2.492 1.71 4.884 2.74 7.248-1.774-.426-3.462-1.019-5.02-1.896-2.727-1.575-6.597-6.103-7.637-9.783A22.93 22.93 0 0 0 1.45 19.431c1.856 2.524 6.122 4.957 9.27 5.744 2.536.634 5.102.907 7.652 1.127-1.178 1.216-2.459 2.3-3.924 3.166-2.73 1.58-8.601 2.668-12.307 1.721a23 23 0 0 0 6.371 9.826c3.51-.278 8.08-2.998 9.869-4.914s3.341-4.057 4.85-6.209c.456 1.689.749 3.384.764 5.105 0 3.174-1.891 8.855-4.42 11.57a23.07 23.07 0 0 0 11.27-.605c1.663-3.962 1.23-7.882.379-11.05-.691-2.578-1.701-4.995-2.746-7.371 1.777.417 3.479 1.01 5.072 1.908 2.736 1.576 6.62 6.127 7.646 9.813a22.94 22.94 0 0 0 5.297-10.479c-2.01-2.887-6.62-5.463-9.166-6.06-2.537-.59-5.144-.862-7.742-1.092 1.192-1.225 2.473-2.309 3.916-3.16 2.733-1.578 8.611-2.666 12.316-1.715a23 23 0 0 0-6.695-10.07h-.002c-3.108.37-7.312 2.832-9.553 5.148-1.834 1.897-3.366 4-4.844 6.121-.431-1.62-.708-3.261-.725-4.953-.003-3.174 1.887-8.855 4.416-11.57a23 23 0 0 0-4.42-.43V.998z" transform="matrix(.93229 0 0 .93229 1.659 1.659)"/><path d="M38.978 8.68A21.37 21.37 0 0 1 44.543 23.1c0 11.843-9.6 21.443-21.442 21.443A21.37 21.37 0 0 1 8.679 38.98c3.895 4 9.332 6.497 15.354 6.497 11.843 0 21.442-9.6 21.442-21.442 0-6.025-2.495-11.459-6.497-15.354" opacity=".1"/><path fill-opacity=".098" d="M14.692 29.363a11.2 11.2 0 0 0 4.69 5.295c3.226-3.71 4.54-7.742 4.649-.37 0 .53-.07 1.147-.176 1.798 2.44.245 4.892-.32 6.98-1.606l-.065-.277c-1.236-4.907-5.172-9.164 2.169-5.087.554.319 1.16.776 1.777 1.32a11.16 11.16 0 0 0 1.435-5.47 11 11 0 0 0-.237-2.23c-4.61-1.014-9.495.021-3.013-3.856a10 10 0 0 1 1.085-.521c-1.5-2.043-6.094-4.177-6.094-4.177-6.297 5.39-7.468 11.187-13.2 15.18"/><path fill="url(#c)" d="M36.3 23.8a12.5 12.5 0 0 1-25 0 12.5 12.5 0 1 1 25 0" transform="matrix(.93229 0 0 .93229 1.659 1.659)"/><path fill="#f7f7f7" d="M35.221 24.034a11.187 11.187 0 0 1-22.375 0 11.187 11.187 0 1 1 22.375 0"/><path d="M31.188 25.4 21.9 31.397c-.365.233-.664.033-.664-.551V19.098c0-.667.29-.78.664-.55l9.288 5.996c.414.267.396.6 0 .856" opacity=".1"/><path fill="#37ace7" d="m30.256 24.468-9.289 5.997c-.364.233-.663.032-.663-.551V18.166c0-.668.29-.78.663-.551l9.289 5.996c.414.268.396.6 0 .857"/></svg>