<?xml version="1.0" encoding="UTF-8"?>
<svg width="96" height="96" version="1.1" viewBox="0 0 25.4 25.4" xmlns="http://www.w3.org/2000/svg">
 <path d="M7.588 19.415c-.49-.055-.99-.223-1.398-.47a3.48 3.48 0 0 1-1.675-2.655c-.027-.268-.027-10.375 0-10.473.025-.091.118-.196.212-.238.068-.031.142-.034.926-.034.941 0 .932-.001 1.052.121.113.114.105-.288.105 5.28 0 5.668-.01 5.244.124 5.526a1.29 1.29 0 0 0 .527.526c.273.131-.147.122 5.507.122l5.186-.034a.43.43 0 0 0 .213-.238c.014-.05.019-1.221.015-4.07l-.006-4.001-.042-.115c-.108-.297-.321-.542-.584-.672-.239-.118-.348-.133-.923-.126l-.495.006-.08.056a.42.42 0 0 0-.131.156l-.051.1v3.17 3.17l-.043.082c-.028.053-.074.101-.133.137l-.09.055-.863.006c-.969.006-.963.007-1.083-.125-.036-.04-.074-.104-.084-.142-.013-.048-.02-1.058-.02-3.219l-.034-3.223a.43.43 0 0 0-.238-.213c-.048-.014-.339-.019-.925-.015l-.855.006-.08.056a.42.42 0 0 0-.131.156l-.051.1v3.169 3.169l-.044.083c-.029.054-.075.102-.133.139l-.089.055-.863.006c-.969.006-.963.007-1.083-.125-.036-.039-.074-.104-.084-.142-.027-.099-.028-8.618 0-8.716.025-.091.118-.196.212-.238.071-.032.245-.034 4.071-.034l4.177.019c.773.084 1.495.426 2.066.979a3.59 3.59 0 0 1 .981 1.854l.041.213V13.9v5.289l-.05.075c-.032.049-.084.092-.147.124l-.097.048-6.335-.003-6.474-.018z" fill="#f9f9f9" opacity=".67564"/>
</svg>
