<svg xmlns="http://www.w3.org/2000/svg" width="64" height="64"><defs><linearGradient id="c" x1="376.571" x2="376.571" y1="544.798" y2="502.798" href="#a"><stop stop-color="#63984b"/><stop offset="1" stop-color="#8fc278"/></linearGradient><linearGradient id="i" x1="437.171" x2="437.171" y1="537.797" y2="517.797" href="#a"><stop stop-color="#2a2c2f"/><stop offset="1" stop-color="#424649"/></linearGradient><linearGradient id="l" x1="-376.572" x2="-376.572" y1="25" y2="18" href="#a"><stop stop-color="#e00a5e"/><stop offset="1" stop-color="#f62870"/></linearGradient><linearGradient id="m" x1="-376.572" x2="-376.572" y1="25" y2="18" href="#a"><stop stop-color="#f9b425"/><stop offset="1" stop-color="#f9bf3b"/></linearGradient><linearGradient id="n" x1="-376.572" x2="-376.572" y1="25" y2="18" href="#a"><stop stop-color="#22a7f0"/><stop offset="1" stop-color="#19b5fe"/></linearGradient><linearGradient id="o" x1="-376.572" x2="-376.572" y1="25" y2="18" href="#a"><stop stop-color="#26c281"/><stop offset="1" stop-color="#3fc380"/></linearGradient><linearGradient id="b" href="#a"><stop stop-color="#292c2f"/><stop offset="1" stop-opacity="0"/></linearGradient><linearGradient id="h" x1="396.571" x2="424.571" y1="510.798" y2="538.798" href="#b"/><linearGradient id="g" x1="370.571" x2="400.571" y1="496.798" y2="526.798" href="#b"/><linearGradient id="f" x1="370.571" x2="400.571" y1="502.798" y2="532.798" href="#b"/><linearGradient id="e" x1="370.571" x2="400.571" y1="508.798" y2="538.798" href="#b"/><linearGradient id="d" x1="370.571" x2="400.571" y1="514.798" y2="544.798" href="#b"/><linearGradient id="a" gradientUnits="userSpaceOnUse"/><path id="j" d="M6 21a1 1 0 0 0-1 1v2a1 1 0 0 0 1 1h1v-4z"/><path id="k" d="M386.571 512.798v4h3.9c.036 0 .065-.016.1-.019v.019h1v-4h-1v.019c-.034-.004-.064-.019-.1-.019z"/></defs><path fill="url(#c)" d="M382.571 502.798v42h4v-4h12v4h30v-4h8v-30h-50v-8z" transform="translate(-376.571 -491.798)"/><g fill-rule="evenodd"><path fill="url(#d)" d="m391.571 530.798-5 4 6 6h6v4h7z" opacity=".2" transform="translate(-376.571 -491.798)"/><path fill="url(#e)" d="m391.571 524.798-5 4 12 12 4 4h9z" opacity=".2" transform="translate(-376.571 -491.798)"/><path fill="url(#f)" d="m391.571 518.798-5 4 22 22h9z" opacity=".2" transform="translate(-376.571 -491.798)"/><path fill="url(#g)" d="m391.571 512.798-5 4 28 28h9z" opacity=".2" transform="translate(-376.571 -491.798)"/><path fill="url(#h)" d="m424.571 517.798-20 20 6 7h18v-4h6v-13z" opacity=".2" transform="translate(-376.571 -491.798)"/></g><path fill="#dce269" d="M22 52h30v1H22z"/><path d="M30 47v1h1v-1zm1 1v1h1v-1zm1 0h1v-1h-1zm1 0v1h1v-1zm1 0h1v-1h-1zm1 0v1h1v-1zm1 0h1v-1h-1zm1 0v1h1v-1zm1 0h1v-1h-1zm1 0v1h1v-1zm1 0h1v-1h-1zm1 0v1h1v-1zm1 0h1v-1h-1zm1 0v1h1v-1zm1 0h1v-1h-1zm1 0v1h1v-1zm-31-2v1h1v-1zm1 1v1h1v-1zm1 0h1v-1h-1zm1 0v1h1v-1zm1 0h1v-1h-1zm-4 0h-1v1h1z"/><path fill="url(#i)" fill-rule="evenodd" d="M404.671 517.798h20v20h-20z" transform="translate(-376.571 -491.798)"/><path fill="#afc0c6" d="M6 11h4v42H6z"/><path fill="#96aab5" d="M6 11h1v42H6z"/><path d="M46 23v1h-1v-1zm-1 1v1h-1v-1zm-1 0h-1v-1h1zm-1 0v1h-1v-1zm-1 0h-1v-1h1zm-1 0v1h-1v-1zm-1 0h-1v-1h1zm-1 0v1h-1v-1zm-1 0h-1v-1h1zm-1 0v1h-1v-1zm-1 0h-1v-1h1zm-1 0v1h-1v-1zm-1 0h-1v-1h1zm-1 0v1h-1v-1zm-1 0h-1v-1h1zm-1 0v1h-1v-1z"/><use fill="#afc0c6" href="#j"/><use fill="url(#l)" href="#k" transform="translate(-376.571 -491.798)"/><use y="6" fill="#afc0c6" href="#j"/><use y="6" fill="url(#m)" href="#k" transform="translate(-376.571 -491.798)"/><use y="12" fill="#afc0c6" href="#j"/><use y="12" fill="url(#n)" href="#k" transform="translate(-376.571 -491.798)"/><use y="18" fill="#afc0c6" href="#j"/><use y="18" fill="url(#o)" href="#k" transform="translate(-376.571 -491.798)"/><path d="M10 42h5v1h-5zm0-6h5v1h-5zm0-6h5v1h-5zm0-6h5v1h-5z" opacity=".09"/><path fill="#afc0c6" d="M33.1 31.5v2h-1v2h-1v1h1v2h1v1h1v-2h1v-1h2v1h1v1h1v1h1v2h1v-1h1v-2h1v-1h1v-1h1v-1h-1v-1h-1v-1h-1v-2h-1v-1h-1v2h-1v1h-1v1h-1v1h-2v-1h-1v-3z"/></svg>