<svg xmlns="http://www.w3.org/2000/svg" width="96" height="96" xmlns:v="https://vecta.io/nano"><defs><filter color-interpolation-filters="sRGB"  x="-.048" y="-.048" width="1.095" height="1.097"><feGaussianBlur stdDeviation="1.71"/></filter><linearGradient x1="48" y1="89.202" x2="48" y2="6.786" id="B" gradientUnits="userSpaceOnUse"><stop offset="0" stop-color="#4e7f15"/><stop offset="1" stop-color="#a0de42"/></linearGradient><linearGradient id="C" x1="48" y1="89.202" x2="48" y2="6.786" gradientUnits="userSpaceOnUse"><stop offset="0"/><stop offset="1" stop-color="#fff"/></linearGradient><linearGradient id="D" x1="29.477" y1="29.757" x2="44.711" y2="93.172" gradientUnits="userSpaceOnUse"><stop offset="0"/><stop offset="1" stop-opacity="0"/></linearGradient></defs><rect width="82.405" height="82.405" rx="10.276" ry="9.783" x="6.798" y="6.798" fill="url(#B)"/><path d="M17.074 6.798c-5.693 0-10.277 4.363-10.277 9.783v62.838c0 5.42 4.584 9.783 10.277 9.783h61.852c5.693 0 10.277-4.363 10.277-9.783V16.581c0-5.42-4.585-9.783-10.277-9.783zm.459 2.18h60.936c5.608 0 10.123 4.133 10.123 9.266v59.514c0 5.133-4.515 9.266-10.123 9.266H17.533c-5.608 0-10.125-4.133-10.125-9.266V18.243c0-5.133 4.517-9.266 10.125-9.266z" opacity=".396" fill="url(#C)"/><path d="M26.221 69.808s-5.315-5.207-5.698-8.971c-.092-.904-.091-35.05.001-35.38.086-.308.403-.661.72-.805.233-.105.482-.114 3.15-.114 3.201 0 3.58.408 3.58.408l8.243 8.531.763-8.825s.834-.114 13.847-.115l14.206.065c2.631.284 7.026 3.306 7.026 3.306l16.533 17.572-.016 32.764s.092 3.225-2.888 6.016-6.441 2.731-6.441 2.731l-36.619.033z" opacity=".195" fill="url(#D)"/><path d="M30.977 71.397c-1.665-.186-3.366-.754-4.756-1.588-3.243-1.946-5.315-5.207-5.698-8.971-.092-.904-.091-35.05.001-35.38.086-.308.403-.661.72-.805.233-.105.482-.114 3.15-.114 3.201 0 3.17-.002 3.58.408.385.386.358-.972.358 17.839 0 19.148-.032 17.717.423 18.667.318.665 1.115 1.454 1.794 1.777.93.442-.499.411 18.73.411l17.64-.114c.316-.142.634-.496.724-.805.049-.168.063-4.125.05-13.751l-.019-13.516-.143-.389c-.368-1.004-1.093-1.832-1.987-2.27-.813-.398-1.185-.448-3.139-.426l-1.682.019-.273.188c-.179.123-.333.305-.446.527l-.173.339v10.71 10.71l-.147.276c-.096.181-.251.34-.452.463l-.305.188-2.934.017c-3.296.019-3.276.021-3.682-.424-.121-.133-.25-.35-.287-.481-.046-.164-.067-3.574-.069-10.876l-.116-10.888c-.143-.313-.499-.629-.811-.72-.163-.048-1.152-.063-3.146-.05l-2.908.019-.273.188c-.179.123-.333.305-.446.527l-.173.339v10.705 10.705l-.15.281c-.098.183-.255.346-.452.468l-.302.188-2.934.017c-3.296.019-3.276.022-3.682-.424-.121-.133-.25-.35-.287-.481-.093-.333-.094-29.113-.001-29.446.086-.308.403-.661.72-.805.242-.109.834-.114 13.847-.115l14.206.065c2.631.284 5.084 1.439 7.026 3.306 1.647 1.584 2.875 3.889 3.336 6.264l.14.72v17.869 17.869l-.169.254c-.11.165-.285.311-.501.418l-.332.164-21.548-.007-22.021-.061z" fill="#f6f6f6"/></svg>