<svg xmlns="http://www.w3.org/2000/svg" width="22" height="22"><path fill="currentColor" d="M4.339 6.286c-1.903 0-2.041 2.016-2.041 2.016v5.432s.162 2.885 3.017 2.885h11.419c2.855 0 2.982-2.91 2.982-2.91V8.279s-.152-1.992-2.055-1.992zm.076.645 13.267.01c1 .001 1.318 1.13 1.318 1.13H3s.254-1.132 1.254-1.139zM2.979 8.767h16L19 13.75s-.27 2.186-2.27 2.186H5.236c-2 0-2.237-2.195-2.237-2.195zm1.47 1.158-.003.76h1.876l.003-.76zm2.814 0-.004.76h1.876l.003-.76zm2.813 0-.003.76h1.875l.003-.76zm2.813 0-.003.76h1.875l.004-.76zm2.813 0-.003.76h1.876l.003-.76zM4.45 11.801l-.003.76h1.876l.003-.76zm2.814 0-.004.76h1.876l.003-.76zm2.813 0-.003.76h1.875l.003-.76zm2.813 0-.003.76h1.875l.004-.76zm2.813 0-.003.76h1.876l.003-.76zM4.45 13.676l-.003.76h1.876l.003-.76zm2.814 0-.004.76h7.502l.004-.76zm8.44 0-.004.76h1.876l.003-.76z" style="color:#fcfcfc" transform="matrix(1.0923 0 0 1.0923 -1.015 -1.015)"/><path fill="none" d="M-1.015-1.015h24.03v24.03h-24.03z"/></svg>