<svg xmlns="http://www.w3.org/2000/svg" height="64" viewBox="0 0 48 48" width="64" xmlns:v="https://vecta.io/nano"><linearGradient id="A" gradientUnits="userSpaceOnUse" x1="3.78" x2="44.22" y1="34.795" y2="34.795"><stop offset="0" stop-color="#ffe031"/><stop offset="1" stop-color="#fa0075"/></linearGradient><linearGradient id="B" gradientUnits="userSpaceOnUse" x1="19.97" x2="18.573" y1="20.458" y2="36.472"><stop offset="0" stop-color="#43e97b"/><stop offset=".978" stop-color="#38f9d7"/></linearGradient><linearGradient id="C" gradientUnits="userSpaceOnUse" x1="3.998" x2="43.998" y1="13.225" y2="13.225"><stop offset="0" stop-color="#00c6ff"/><stop offset=".987" stop-color="#0072ff"/></linearGradient><path d="M33.11 30.66l-1.79-.89 1.78-3.58 1.79.89 6.645 3.312c1.482.738 1.521 2.01.087 2.838L26.598 41.9c-1.434.828-3.762.828-5.196 0L6.378 33.23c-1.434-.828-1.395-2.1.087-2.838l6.645-3.312 1.79-.89 1.78 3.58-1.79.89-1.775.884c-.494.246-.507.67-.029.945l10.048 5.792c.478.275 1.254.275 1.732 0l10.048-5.792c.478-.275.465-.699-.029-.945z" fill="url(#A)"/><path d="M33.05 21.39l-1.76-.95 1.9-3.52 1.76.95 6.517 3.5c1.459.784 1.479 2.092.045 2.92L26.598 32.9c-1.434.828-3.762.828-5.196 0L6.488 24.29c-1.434-.828-1.414-2.136.045-2.92l6.517-3.5 1.76-.95 1.9 3.52-1.76.95-1.96 1.056c-.486.261-.492.698-.014.974l10.158 5.86c.478.276 1.254.276 1.732 0l10.158-5.86c.478-.276.472-.713-.014-.974z" fill="url(#B)"/><path d="M21 19.36c.955.552 1.282 1.777.73 2.735a2 2 0 0 1-2.73.735L6.598 15.67c-1.434-.828-1.434-2.172 0-3l14.804-8.55c1.434-.828 3.762-.828 5.196 0l14.804 8.55c1.434.828 1.434 2.172 0 3L29 22.83a2 2 0 0 1-2.73-.735c-.552-.958-.225-2.183.73-2.735l8.134-4.69c.478-.276.478-.724 0-1L24.866 7.74c-.478-.276-1.254-.276-1.732 0l-10.268 5.93c-.478.276-.478.724 0 1z" fill="url(#C)"/></svg>