<svg xmlns="http://www.w3.org/2000/svg" viewBox="0 0 48 48"><defs><linearGradient id="a" x2="0" y1="1" y2="47" gradientUnits="userSpaceOnUse"><stop offset="0" stop-color="#5c55a5"/><stop offset="1" stop-color="#544d96"/></linearGradient></defs><path d="M36.31 5c5.859 4.062 9.688 10.831 9.688 18.5 0 12.426-10.07 22.5-22.5 22.5-7.669 0-14.438-3.828-18.5-9.688a23.2 23.2 0 0 0 3.781 4.969 22.92 22.92 0 0 0 15.469 5.969c12.703 0 23-10.298 23-23a22.92 22.92 0 0 0-5.969-15.469A23.2 23.2 0 0 0 36.31 5m4.969 3.781A22.9 22.9 0 0 1 47.498 24.5c0 12.703-10.297 23-23 23a22.9 22.9 0 0 1-15.719-6.219C12.939 45.425 18.662 48 24.998 48c12.703 0 23-10.298 23-23 0-6.335-2.575-12.06-6.719-16.219" opacity=".05"/><path d="M41.28 8.781a22.92 22.92 0 0 1 5.969 15.469c0 12.703-10.297 23-23 23A22.92 22.92 0 0 1 8.78 41.281 22.9 22.9 0 0 0 24.499 47.5c12.703 0 23-10.298 23-23A22.9 22.9 0 0 0 41.28 8.781" opacity=".1"/><path d="M31.25 2.375C39.865 5.529 46 13.792 46 23.505c0 12.426-10.07 22.5-22.5 22.5-9.708 0-17.971-6.135-21.12-14.75a23 23 0 0 0 44.875-7 23 23 0 0 0-16-21.875z" opacity=".2"/><circle cx="24" cy="24" r="23" fill="url(#a)"/><path d="M40.03 7.531A22.92 22.92 0 0 1 45.999 23c0 12.703-10.297 23-23 23A22.92 22.92 0 0 1 7.53 40.031C11.708 44.322 17.54 47 23.999 47c12.703 0 23-10.298 23-23 0-6.462-2.677-12.291-6.969-16.469M33 12c-1.647.014-3 1.353-3 3 0 .578.172 1.116.459 1.576l-3.193 3.99A4.94 4.94 0 0 0 25 20a5 5 0 0 0-4.898 4H13.73A1.98 1.98 0 0 0 12 23c-1.086.016-2 .914-2 2a2 2 0 0 0 3.73 1h6.371A5 5 0 0 0 30 25c0-1.216-.452-2.315-1.174-3.182l3.197-3.994A3 3 0 0 0 33 18a3 3 0 0 0 3-3c0-1.657-1.353-3.014-3-3m-15 2c-1.095.013-2 .905-2 2s.895 2 2 2a2 2 0 0 0 2-2c0-1.105-.905-2.013-2-2m15 0a1 1 0 1 1 0 2 1 1 0 1 1 0-2m-12.947 3.418-1.186.918 2.221 2.855 1.18-.928zM25 23a2 2 0 1 1 0 4c-1.105 0-2-.905-2-2s.893-2 2-2m-13 1a1 1 0 1 1 0 2 1 1 0 1 1 0-2m17.377 4.314-1.062 1.063 2.611 2.611 1.063-1.062zm-7.26 1.324-.838 1.889 1.371.607.83-1.869zM33.501 31a2.5 2.5 0 1 0 0 5 2.5 2.5 0 1 0 0-5m-12.5 1c-1.095.013-2 .905-2 2s.895 2 2 2a2 2 0 0 0 2-2c0-1.105-.905-2.013-2-2" opacity=".1"/><path fill="#b3afda" d="m19.053 16.418-1.186.918 2.221 2.855 1.18-.928zm9.324 10.896-1.062 1.063 2.611 2.611 1.063-1.062zm-7.26 1.324-.838 1.889 1.371.607.83-1.869z"/><path fill="#f9f8fc" d="M32 11c-1.647.014-3 1.353-3 3 0 .578.172 1.116.459 1.576l-3.193 3.99A4.94 4.94 0 0 0 24 19a5 5 0 0 0-4.898 4H12.73A1.98 1.98 0 0 0 11 22c-1.086.016-2 .914-2 2a2 2 0 0 0 3.73 1h6.371A5 5 0 0 0 29 24c0-1.216-.452-2.315-1.174-3.182l3.197-3.994A3 3 0 0 0 32 17a3 3 0 0 0 3-3c0-1.657-1.353-3.014-3-3m-15 2c-1.095.013-2 .905-2 2s.895 2 2 2a2 2 0 0 0 2-2c0-1.105-.905-2.013-2-2m15 0a1 1 0 1 1 0 2 1 1 0 1 1 0-2m-8 9a2 2 0 1 1 0 4c-1.105 0-2-.905-2-2s.893-2 2-2m-13 1a1 1 0 1 1 0 2 1 1 0 1 1 0-2m21.5 7a2.5 2.5 0 1 0 0 5 2.5 2.5 0 1 0 0-5M20 31c-1.095.013-2 .905-2 2s.895 2 2 2a2 2 0 0 0 2-2c0-1.105-.905-2.013-2-2"/></svg>