<svg xmlns="http://www.w3.org/2000/svg" width="64" height="64"><defs><linearGradient id="d" href="#a"><stop stop-color="#84cbfe"/><stop offset="1" stop-color="#84cbfe" stop-opacity="0"/></linearGradient><linearGradient id="e" x1="-178.898" x2="-178.898" y1="547.798" y2="502.798" href="#b"/><linearGradient id="b" href="#a"><stop stop-color="#c6cdd1"/><stop offset="1" stop-color="#e0e5e7"/></linearGradient><linearGradient id="l" x1="385.571" x2="421.658" y1="502.836" y2="539.223" href="#a"><stop/><stop offset="1" stop-opacity="0"/></linearGradient><linearGradient id="c" href="#a"><stop stop-color="#2f3943"/><stop offset="1" stop-color="#4d5662"/></linearGradient><linearGradient id="i" x1="-122.571" x2="-122.571" y1="502.798" y2="497.798" href="#c"/><linearGradient id="g" x1="433.26" x2="388.149" y1="552.398" y2="540.698" href="#b"/><linearGradient id="h" x1="-127.679" x2="-127.679" y1="504.798" y2="542.798" href="#a"><stop stop-color="#2e5d89"/><stop offset="1" stop-color="#1b92f4"/></linearGradient><linearGradient id="m" x1="3" x2="-1" gradientTransform="matrix(0 1.3125 -1.28571 0 426.571 544.798)" href="#c"/><linearGradient id="k" x1="-102.143" x2="-102.143" y1="-520.798" y2="-516.798" href="#d"/><linearGradient id="j" x1="-102.143" x2="-102.143" y1="522.798" y2="526.798" href="#d"/><linearGradient id="n" x1="-122.571" x2="-122.571" y1="500.398" y2="505.598" href="#a"><stop stop-color="#18222a"/><stop offset="1" stop-color="#566069"/></linearGradient><linearGradient id="f" x1="-154.438" x2="-154.438" y1="503.798" y2="543.292" href="#b"/><linearGradient id="a" gradientUnits="userSpaceOnUse"/></defs><g transform="translate(-376.571 -491.798)"><path fill="url(#e)" d="M385.571 502.798h46.012v45h-46.012z"/><path fill="url(#f)" d="M386.571 503.798h44v40h-44z"/><path fill="url(#g)" d="M385.571 544.531v3.267c0 1.476.916 2 2.379 2h41.621c1 0 2-1 2-2v-3z"/><path fill="url(#h)" d="M387.571 504.798h42v38h-42z"/><path fill="url(#i)" d="M385.571 502.798v-3c0-1 1-2 2.045-2h41.955c1 0 2 1 2 2v3z"/><path fill="#84cbfe" d="M388.571 520.798h40v2h-40z"/><path fill="url(#j)" d="M388.571 522.798h40v4h-40z" opacity=".2"/><path fill="url(#k)" d="M388.571-520.798h40v4h-40z" opacity=".2" transform="scale(1 -1)"/><path fill="#eff0f1" d="M389.571 514.798h22v27h-22z"/><path fill="url(#l)" fill-rule="evenodd" d="m385.571 502.836 41 41.962h5v-42z" opacity=".2"/><path fill="url(#m)" d="M426.571 544.798h-36v2c0 1 1 2 2 2h32c1 0 2-1 2-2z"/><circle cx="-546.798" cy="-423.571" r="1" fill="#11d116" transform="scale(1 -1)rotate(90)"/><path fill="url(#n)" d="M385.571 499.798h46v3h-46z"/></g></svg>