<svg xmlns="http://www.w3.org/2000/svg" width="400" height="400"><path fill="#18a497" d="M91.292 39.002h216.82c28.894 0 52.252 23.342 52.252 52.236v216.764c0 28.894-23.358 52.236-52.252 52.236H124.619l-.612-138.41h-.072v-.982c0-52.477 41.671-94.888 93.223-94.888 30.929 0 55.937 25.45 55.937 56.935s-25.007 56.935-55.937 56.935c-10.299 0-18.643-8.489-18.643-18.981 0-10.484 8.344-18.981 18.643-18.981s18.643-8.489 18.643-18.981c0-10.484-8.344-18.981-18.643-18.981-30.929 0-55.937 25.45-55.937 56.935s25.007 56.935 55.937 56.935c51.552 0 93.223-42.411 93.223-94.888s-41.671-94.888-93.223-94.888c-72.174 0-130.533 59.373-130.533 132.842v1.151h-.314l.612 138.064c-26.858-2.205-47.907-24.637-47.907-52.051V91.238c0-28.894 23.358-52.236 52.252-52.236z"/></svg>