<svg xmlns="http://www.w3.org/2000/svg" xmlns:xlink="http://www.w3.org/1999/xlink" width="64" height="64" viewBox="0 0 16.933 16.933"><defs><linearGradient id="a"><stop offset="0" stop-color="#7f7fff"/><stop offset="1" stop-color="#a57fff"/></linearGradient><linearGradient xlink:href="#a" id="b" x1="8.604" x2="56.045" y1="32.874" y2="32.874" gradientUnits="userSpaceOnUse"/><filter id="c" width="1" height="1" x="0" y="0" color-interpolation-filters="sRGB"><feComposite in2="SourceGraphic" k2="1" operator="arithmetic" result="composite1"/><feColorMatrix in="composite1" result="colormatrix1" type="saturate" values="1"/><feFlood flood-color="#B66262" result="flood1"/><feBlend in="flood1" in2="colormatrix1" mode="multiply" result="blend1"/><feBlend in2="blend1" mode="screen" result="blend2"/><feColorMatrix in="blend2" result="colormatrix2" type="saturate" values="1"/><feComposite in="colormatrix2" in2="SourceGraphic" k2="1" operator="in" result="composite2"/></filter></defs><g fill="url(#b)" filter="url(#c)" transform="matrix(0 .26458 .25788 0 .214 .032)"><rect width="48" height="56" x="8" y="4" ry="5" style="paint-order:stroke fill markers"/><path fill-rule="evenodd" d="M56 46 42 60h9c2.77 0 5-2.23 5-5z" opacity=".15" style="paint-order:stroke fill markers"/></g><g fill="#fff" color="#000"><path d="m9.77 8.654-.785 1.208 1.521 2.34h2.117l-2.307-3.548a.325.325 0 0 0-.546 0" opacity=".25"/><path d="m6.7 7.474-3.073 4.729h6.879L7.433 7.474a.437.437 0 0 0-.733 0M11.565 4.795a1.323 1.323 0 1 0 0 2.645 1.323 1.323 0 0 0 0-2.645" opacity=".65"/></g></svg>