<svg xmlns="http://www.w3.org/2000/svg" viewBox="0 0 48 48"><defs><linearGradient id="a" x2="0" y1="1" y2="47" gradientUnits="userSpaceOnUse"><stop offset="0" style="stop-color:#ee5050"/><stop offset="1" style="stop-color:#ec3e3e"/></linearGradient></defs><path d="M36.31 5c5.859 4.062 9.688 10.831 9.688 18.5 0 12.426-10.07 22.5-22.5 22.5-7.669 0-14.438-3.828-18.5-9.688a23.2 23.2 0 0 0 3.781 4.969 22.92 22.92 0 0 0 15.469 5.969c12.703 0 23-10.298 23-23a22.92 22.92 0 0 0-5.969-15.469A23.2 23.2 0 0 0 36.31 5m4.969 3.781A22.9 22.9 0 0 1 47.498 24.5c0 12.703-10.297 23-23 23a22.9 22.9 0 0 1-15.719-6.219C12.939 45.425 18.662 48 24.998 48c12.703 0 23-10.298 23-23 0-6.335-2.575-12.06-6.719-16.219" style="opacity:.05"/><path d="M41.28 8.781a22.92 22.92 0 0 1 5.969 15.469c0 12.703-10.297 23-23 23A22.92 22.92 0 0 1 8.78 41.281 22.9 22.9 0 0 0 24.499 47.5c12.703 0 23-10.298 23-23A22.9 22.9 0 0 0 41.28 8.781" style="opacity:.1"/><path d="M31.25 2.375C39.865 5.529 46 13.792 46 23.505c0 12.426-10.07 22.5-22.5 22.5-9.708 0-17.971-6.135-21.12-14.75a23 23 0 0 0 44.875-7 23 23 0 0 0-16-21.875z" style="opacity:.2"/><circle cx="24" cy="24" r="23" style="fill:url(#a)"/><path d="M40.03 7.531A22.92 22.92 0 0 1 45.999 23c0 12.703-10.297 23-23 23A22.92 22.92 0 0 1 7.53 40.031C11.708 44.322 17.54 47 23.999 47c12.703 0 23-10.298 23-23 0-6.462-2.677-12.291-6.969-16.469" style="opacity:.1"/><path d="M25 10c-.67 0-1.337.057-2 .152V25h4V10.15c-.663-.094-1.33-.15-2-.15m4 .545v4.22A10.995 10.995 0 0 1 36 25c.003 6.075-4.925 11-11 11s-11-4.925-11-11a11 11 0 0 1 7-10.246v-4.196A14.995 14.995 0 0 0 10 25c-.004 8.285 6.716 15 15 15s15-6.715 15-15a15 15 0 0 0-11-14.455z" style="opacity:.1;paint-order:normal"/><path d="M24 9c-.67 0-1.337.057-2 .152V24h4V9.15c-.663-.094-1.33-.15-2-.15m4 .545v4.22A10.995 10.995 0 0 1 35 24c.003 6.075-4.925 11-11 11s-11-4.925-11-11a11 11 0 0 1 7-10.246V9.558A14.995 14.995 0 0 0 9 24c-.004 8.285 6.716 15 15 15s15-6.715 15-15A15 15 0 0 0 28 9.544z" style="fill:#f9f9f9;paint-order:normal"/></svg>