<svg xmlns="http://www.w3.org/2000/svg" viewBox="0 0 48 48"><defs><linearGradient id="a" x1="1" x2="47" gradientTransform="rotate(-90 24 24)" gradientUnits="userSpaceOnUse"><stop offset="0" style="stop-color:#df5a48"/><stop offset="1" style="stop-color:#e26a5a"/></linearGradient></defs><path d="M36.31 5c5.859 4.062 9.688 10.831 9.688 18.5 0 12.426-10.07 22.5-22.5 22.5-7.669 0-14.438-3.828-18.5-9.688a23.2 23.2 0 0 0 3.781 4.969 22.92 22.92 0 0 0 15.469 5.969c12.703 0 23-10.298 23-23a22.92 22.92 0 0 0-5.969-15.469A23.2 23.2 0 0 0 36.31 5m4.969 3.781A22.9 22.9 0 0 1 47.498 24.5c0 12.703-10.297 23-23 23a22.9 22.9 0 0 1-15.719-6.219C12.939 45.425 18.662 48 24.998 48c12.703 0 23-10.298 23-23 0-6.335-2.575-12.06-6.719-16.219" style="opacity:.05"/><path d="M41.28 8.781a22.92 22.92 0 0 1 5.969 15.469c0 12.703-10.297 23-23 23A22.92 22.92 0 0 1 8.78 41.281 22.9 22.9 0 0 0 24.499 47.5c12.703 0 23-10.298 23-23A22.9 22.9 0 0 0 41.28 8.781" style="opacity:.1"/><path d="M31.25 2.375C39.865 5.529 46 13.792 46 23.505c0 12.426-10.07 22.5-22.5 22.5-9.708 0-17.971-6.135-21.12-14.75a23 23 0 0 0 44.875-7 23 23 0 0 0-16-21.875z" style="opacity:.2"/><path d="M24 1c12.703 0 23 10.297 23 23S36.703 47 24 47 1 36.703 1 24 11.297 1 24 1" style="fill:url(#a)"/><path d="M40.03 7.531A22.92 22.92 0 0 1 45.999 23c0 12.703-10.297 23-23 23A22.92 22.92 0 0 1 7.53 40.031C11.708 44.322 17.54 47 23.999 47c12.703 0 23-10.298 23-23 0-6.462-2.677-12.291-6.969-16.469" style="opacity:.1"/><path d="M25 12c-4.5 0-9 3-9 7.5s4 5.5 4.752 9.5l.002.002c-.55.319-.826.81-.826 1.418 0 .418.142.775.44 1.08q-.438.456-.44 1.082.001.888.795 1.371a1.53 1.53 0 0 0-.227.797q-.002.78.555 1.205.548.421 1.361.422.35.743 1.057 1.184c.464.29.975.44 1.531.44.55 0 1.05-.146 1.521-.44a2.74 2.74 0 0 0 1.061-1.184c.539 0 .985-.142 1.353-.422.373-.287.561-.684.561-1.205q-.001-.404-.23-.797.79-.487.789-1.37 0-.627-.44-1.083c.294-.305.44-.662.44-1.08 0-.613-.277-1.105-.823-1.42h-.013c.78-3.786 4.781-5 4.783-9.5S29.5 12 25 12z" style="opacity:.1"/><path d="M24 11c-4.5 0-9 3-9 7.5s4 5.5 4.752 9.5l2.25 2H26l2.219-2C29 24.214 33 23 33.002 18.5S28.5 11 24 11" style="fill:#f2d473"/><path d="M19.758 28c-.553.319-.83.81-.83 1.42 0 .418.142.775.44 1.08q-.438.456-.44 1.082.002.888.795 1.371a1.53 1.53 0 0 0-.227.797q-.002.78.555 1.205.549.421 1.361.422.35.744 1.057 1.184c.464.29.975.439 1.531.439.55 0 1.05-.145 1.522-.44a2.74 2.74 0 0 0 1.06-1.183c.539 0 .985-.142 1.354-.422.372-.287.56-.684.56-1.205q-.001-.404-.23-.797c.528-.326.789-.78.789-1.371q0-.626-.44-1.082c.294-.305.44-.662.44-1.08 0-.613-.277-1.105-.823-1.42z" style="fill:#d0d4d4"/><path d="M19 29a1.5 1.5 0 0 0-.062.406c0 .21.02.414.093.594h9.906a1.6 1.6 0 0 0 .125-.594c0-.152-.029-.272-.064-.406zm.06 2a1.6 1.6 0 0 0-.124.594c0 .148.028.275.062.406h10c.033-.131.063-.26.063-.406a1.6 1.6 0 0 0-.125-.594zm.627 2a1.56 1.56 0 0 0-.187.75c0 .087.021.17.031.25h8.938c0-.08.031-.163.031-.25 0-.248-.059-.508-.188-.75z" style="fill:#ecf0f0"/><path d="m21 17.5-1.45 1L23 23v5h2v-5l3.45-4.5-1.45-1-3 4.125z" style="fill:#495f6d"/></svg>