<svg xmlns="http://www.w3.org/2000/svg" width="48" height="48"><rect width="42" height="42" x="3" y="3" fill="#3098ec" rx="21"/><path d="m25.023 12.509-.734.023.037.832c1.28-.092 2.555.078 3.799.365l.188-.81c-1.014-.26-2.376-.395-3.289-.41zm-2.426.191c-1.172.162-2.355.585-3.291.971l.33.764c1.091-.479 2.034-.692 3.072-.908l-.111-.826zm7.344.707c-.071.268-.181.524-.271.785 1.001.454 2.012.976 2.836 1.524l.463-.691c-.977-.658-2.056-1.199-3.027-1.617zm-12.154 1.029c-1.025.603-1.964 1.423-2.687 2.135l.584.594c.763-.802 1.661-1.436 2.502-1.998l-.398-.73zm7.131 1.07c-2.652 0-5.196.947-7.071 2.632s-2.929 3.971-2.929 6.354c.003 2.389 1.064 4.679 2.949 6.363l.252 4.269c.008.14.091.265.218.332s.28.064.405-.006l3.916-2.215c.741.157 1.499.238 2.26.24 5.522 0 9.999-4.022 10-8.984 0-2.383-1.053-4.669-2.929-6.354s-4.419-2.632-7.071-2.632zm9.398.619-.586.594c.835.783 1.457 1.656 1.998 2.49l.732-.393c-.577-1.04-1.427-1.976-2.145-2.691zm-20.33 1.789c-.726 1.006-1.142 2.001-1.551 3.078l.799.229c.314-1.033.82-1.921 1.439-2.842zm23.211 2.443-.77.313c.419.988.582 2.047.658 3.109l.832-.047c.004-1.171-.343-2.283-.721-3.375zm-25.146 2.301c-.216 1.146-.142 2.311.043 3.453l.82-.139c-.23-1.051-.16-2.119-.045-3.176zm25.004 2.693c-.109 1.087-.465 2.1-.873 3.104l.77.316c.497-1.113.758-2.301.93-3.328-.277-.038-.551-.058-.826-.09zm-23.754 2.146-.771.309a16.7 16.7 0 0 0 1.629 3.041c.198-.197.435-.343.652-.514-.661-.862-1.109-1.834-1.51-2.836m22.1 2.328c-.568.939-1.438 1.738-2.129 2.383l.525.646c.909-.717 1.642-1.613 2.293-2.562zM15.87 31.536l-.584.592.357.352.146 2.508.83-.051-.166-2.824-.584-.576zm16.094 1.637c-.929.599-2.008 1.046-2.902 1.357l.26.791c1.24-.382 2.099-.874 3.107-1.457zm-9.957 1.691-2.551 1.445.412.725 2.295-1.299.393.062.131-.824zm5.482.076c-1.052.217-2.124.252-3.193.211l-.047.832c1.255.084 2.337-.066 3.43-.228zm-10.77 1.66-.832.049.063 1.059c-.008.403.145.668.49.775s1.193-.181 1.98-.627l-.412-.725c-.342.315-1.04.67-1.168.592s-.105-.794-.121-1.123" opacity=".1"/><path fill="#f9f9f9" d="M23.918 14.506c-5.523 0-10 4.023-10 8.985.002 2.389 1.064 4.68 2.95 6.364l.252 4.27c.008.14.091.266.218.332s.281.064.406-.006l3.916-2.216c.74.157 1.498.238 2.259.241 5.523 0 10-4.023 10-8.985s-4.477-8.985-10-8.985z"/><path fill="#b4dcf3" d="m23.29 11.532.037.832c1.28-.092 2.554.077 3.798.364l.188-.811c-1.352-.346-3.324-.47-4.023-.386zm-4.983 1.138.33.764c1.091-.479 2.034-.691 3.072-.907l-.111-.826c-1.172.162-2.355.584-3.291.97zm10.362.523c1.001.454 2.012.974 2.835 1.522l.463-.691c-.977-.658-2.056-1.198-3.027-1.616-.071.268-.181.525-.272.785zM14.098 15.57l.585.594c.763-.802 1.662-1.435 2.503-1.998l-.399-.73c-1.025.603-1.966 1.423-2.689 2.135zm18.632.149c.835.783 1.455 1.657 1.997 2.491l.733-.394c-.577-1.04-1.427-1.976-2.145-2.691zm-21.296 4.273.8.229c.314-1.033.82-1.921 1.439-2.842l-.688-.466c-.726 1.006-1.142 2.002-1.551 3.079m23.993-.321c.419.988.583 2.046.659 3.108l.831-.047c.004-1.171-.342-2.283-.72-3.374zm-24.335 5.441.821-.139c-.23-1.051-.161-2.118-.045-3.175l-.819-.139c-.216 1.146-.142 2.31.043 3.453m24.088 2.344.77.315c.497-1.113.758-2.301.929-3.328l-.825-.09c-.109 1.087-.466 2.101-.874 3.104zm-23.652-.648a16.7 16.7 0 0 0 1.629 3.04c.198-.197.436-.343.653-.513-.661-.862-1.109-1.834-1.51-2.836zm20.742 4.401.526.646c.909-.717 1.641-1.612 2.292-2.562l-.688-.466c-.568.939-1.439 1.736-2.13 2.381zm-17.987-.082.358.352.147 2.507.831-.049-.166-2.826-.585-.576zM28.06 33.53l.258.791c1.24-.382 2.098-.874 3.107-1.457l-.463-.691c-.929.599-2.008 1.046-2.902 1.357m-9.606 1.78.411.725 2.296-1.3.393.063.131-.825-.681-.108zm4.84-1.159-.047.832c1.255.084 2.335-.067 3.428-.229l-.188-.813c-1.052.217-2.124.251-3.193.21m-8.409 1.498.063 1.06c-.008.403.145.668.491.776s1.192-.182 1.979-.629l-.411-.725c-.342.315-1.041.672-1.169.593s-.106-.795-.121-1.124z"/></svg>