<svg xmlns="http://www.w3.org/2000/svg" xmlns:xlink="http://www.w3.org/1999/xlink" width="24" height="24"><defs><linearGradient id="c"><stop offset="0" style="stop-color:#33383a;stop-opacity:1"/><stop offset="1" style="stop-color:#485052;stop-opacity:1"/></linearGradient><linearGradient id="a" x1="428.816" x2="388.865" y1="547.634" y2="499.679" gradientTransform="matrix(.45 0 0 .45 -207.465 783.495)" gradientUnits="userSpaceOnUse"><stop stop-color="#2a2c2f"/><stop offset="1" stop-color="#536161"/></linearGradient><linearGradient id="b" x1="31.82" x2="9.344" y1="43.723" y2="7.308" gradientTransform="matrix(.45 0 0 .45 -1.609 1002.799)" gradientUnits="userSpaceOnUse"><stop stop-color="#536161" style="stop-color:#dce1e1;stop-opacity:1"/><stop offset="1" stop-color="#f4f5f5" style="stop-color:#fbfbfb;stop-opacity:1"/></linearGradient><linearGradient id="d" x1="406.501" x2="419.974" y1="527.014" y2="539.825" gradientTransform="matrix(.45 0 0 .45 -174.665 777.889)" gradientUnits="userSpaceOnUse"><stop stop-color="#292c2f"/><stop offset="1" stop-opacity="0"/></linearGradient><linearGradient xlink:href="#a" id="e" x1="19.685" x2="2" y1="19.814" y2="2" gradientTransform="translate(-.857 1029.742)scale(1.07533)" gradientUnits="userSpaceOnUse"><stop offset="0" stop-color="#be1111" style="stop-color:#2a2c2f;stop-opacity:1"/><stop offset="1" stop-color="#e74c3c" style="stop-color:#536161;stop-opacity:1"/></linearGradient><linearGradient xlink:href="#b" id="f" x1="31.82" x2="9.344" y1="43.723" y2="7.308" gradientTransform="matrix(.44969 0 0 .45519 .033 1030.702)" gradientUnits="userSpaceOnUse"/><linearGradient xlink:href="#c" id="g" x1="28.407" x2="17.319" y1="26.08" y2="15.302" gradientTransform="matrix(.44969 0 0 .45519 .033 1030.702)" gradientUnits="userSpaceOnUse"/><linearGradient xlink:href="#d" id="h" x1="406.501" x2="419.974" y1="527.014" y2="539.825" gradientTransform="matrix(.44969 0 0 .45519 -172.904 803.2)" gradientUnits="userSpaceOnUse"/></defs><g transform="translate(1 -1029.362)"><rect width="19.356" height="19.356" x="1.294" y="1031.893" ry="3.226" style="fill:url(#e);fill-opacity:1;stroke-width:1.07534"/><path d="M1.294 1046.948v1.075a3.22 3.22 0 0 0 3.226 3.226h12.904a3.22 3.22 0 0 0 3.226-3.226v-1.075a3.22 3.22 0 0 1-3.226 3.226H4.52a3.22 3.22 0 0 1-3.226-3.226" style="opacity:.2;fill:#000;fill-opacity:1;stroke-width:1.07534"/><path d="m9.213 1037.074-.636.644 3.861 3.908-3.86 3.909.635.643 4.497-4.552-.636-.643z" style="fill:url(#f);stroke:url(#g);stroke-width:.0904859;stroke-miterlimit:4;stroke-dasharray:none;stroke-opacity:1"/><path d="m9.216 1046.178 4.31 4.364h6.296v-2.732l-6.11-6.184z" style="opacity:.4;fill:url(#h);fill-rule:evenodd;stroke-width:.646328"/><path d="M4.414 1031.893c-1.776 0-2.743 1.464-3.027 2.572h19.17c-.284-1.108-1.251-2.572-3.026-2.572z" style="opacity:.3;fill:#fff;fill-opacity:1;stroke-width:.696787"/><path d="M1.389 1048.692c.27 1.113 1.238 2.614 3.036 2.614h13.12c1.797 0 2.765-1.501 3.035-2.614z" style="opacity:.3;fill:teal;fill-opacity:1;stroke-width:.696787"/><path fill="none" d="M-3.675 1045.004h27.261v4.676H-3.675z" style="fill:green;fill-opacity:0;stroke-width:.97334"/></g></svg>