<svg xmlns="http://www.w3.org/2000/svg" width="64" height="64" image-rendering="optimizeSpeed"><defs><linearGradient id="b" x1="-40.805" x2="-40.805" y1="12.436" y2="51.563" gradientUnits="userSpaceOnUse"><stop offset="0" stop-color="#fedede"/><stop offset="1" stop-color="#fdc3cb"/></linearGradient><linearGradient id="a" x1="32.648" x2="32.648" y1="7.554" y2="62.113" gradientUnits="userSpaceOnUse"><stop offset="0" stop-color="#ff4b00"/><stop offset="1" stop-color="#f50f2d"/></linearGradient></defs><circle cx="32" cy="32" r="30" fill="url(#a)"/><path d="M12.436 32c0 10.805 8.76 19.564 19.564 19.564q.978-1.223 0-2.609a16.96 16.96 0 0 1-16.956-16.956z" opacity=".15"/><path fill="url(#b)" d="M-40.805 12.436a19.564 19.564 0 0 0-19.563 19.563 19.6 19.6 0 0 0 1.193 6.691l7.935-11.908h-5.689a16.96 16.96 0 0 1 16.124-11.74 16.956 16.956 0 0 1 16.956 16.956 16.956 16.956 0 0 1-16.956 16.956v2.607A19.564 19.564 0 0 0-21.242 32a19.564 19.564 0 0 0-19.563-19.563z" transform="translate(72.806 .001)"/></svg>