<svg xmlns="http://www.w3.org/2000/svg" width="64" height="64" image-rendering="optimizeSpeed"><defs><linearGradient id="b" x1="-66.914" x2="-66.914" y1="-1.756" y2="64.927" href="#a"><stop offset="0" stop-color="#ffbc64"/><stop offset="1" stop-color="#f34f17"/></linearGradient><linearGradient id="e" x1="30.899" x2="30.317" y1="42.756" y2="56.627" href="#a"><stop offset="0" stop-color="#e35600"/><stop offset="1" stop-color="#f69600"/></linearGradient><linearGradient id="f" x1="38.772" x2="30.899" y1="58.747" y2="5.888" href="#a"><stop offset="0" stop-color="#e95c00"/><stop offset="1" stop-color="#ffa000"/></linearGradient><linearGradient id="g" x1="25.576" x2="38.365" y1="17.986" y2="16.948" href="#a"><stop offset="0" stop-color="#dbd4cf"/><stop offset=".529" stop-color="#dedfe1"/><stop offset="1" stop-color="#dad4d1"/></linearGradient><linearGradient id="h" x1="19.007" x2="45.144" y1="38.679" y2="38.679" href="#a"><stop offset="0" stop-color="#dbd4cf"/><stop offset=".502" stop-color="#dedfe1"/><stop offset="1" stop-color="#dad4d1"/></linearGradient><linearGradient id="a" gradientUnits="userSpaceOnUse"/><filter id="d" width="1.116" height="1.124" x="-.058" y="-.062" color-interpolation-filters="sRGB"><feGaussianBlur stdDeviation=".898"/></filter><path id="c" d="M-67.514 36.636c4.615 0 8.478-1.568 8.712-3.615l-2.17-6.087c-.511 1.472-3.33 2.509-6.542 2.509s-6.031-1.038-6.542-2.509l-2.169 6.087c.233 2.047 4.096 3.615 8.71 3.615zm0-12.946c2.169 0 4.184-.672 4.774-1.714l-1.953-5.478c-.293-.824-1.622-1.251-2.821-1.251s-2.528.428-2.822 1.252l-1.953 5.478c.59 1.043 2.606 1.714 4.774 1.714zm16.954 14.853-7.251-2.92.835 2.33c-.042 2.469-4.835 4.437-10.538 4.437s-10.496-1.968-10.537-4.437l.834-2.33-7.25 2.92c-2.033.819-2.118 2.336-.189 3.37l13.636 7.312c1.928 1.034 5.085 1.034 7.013 0l13.636-7.312c1.929-1.034 1.843-2.551-.189-3.37"/></defs><path fill="url(#b)" d="m-37.456 32-.032-1.499q-.509-11.464-8.753-19.717Q-55.027 2.002-67.455 2c-12.428-.002-15.358 2.93-21.212 8.785S-97.455 23.715-97.455 32s2.93 15.358 8.788 21.212c5.482 5.492 12.049 8.409 19.672 8.756a41 41 0 0 0 1.54.032c8.285 0 15.358-2.934 21.215-8.788s8.785-12.93 8.785-21.212z"/><use filter="url(#d)" href="#c" opacity=".3"/><use y="-1" fill="#fff" href="#c"/><g fill-rule="evenodd"><path fill="#cb5600" d="M10.587 53.926s-.718.776-.908 1.404c-.134.44-.185 1.095.054 1.487.176.288.407.579.743.579l42.254.054c.385.001 1.117-.066 1.417-.496.307-.437.298-1.412.083-1.9-.227-.513-1.294-.743-1.294-.743z"/><path fill="url(#e)" d="M14.696 38.99c-.723 0-1.474.557-1.684 1.251l-5.054 16.74c-.21.694.203 1.254.926 1.254H55.49c.551 0 .867-.425.707-.954L50.96 39.943a1.42 1.42 0 0 0-1.281-.954z" transform="matrix(.92547 0 0 .92547 2.385 2.385)"/><path fill-opacity=".078" d="m19.715 38.469-2.266 7.483s.24 1.562 1.729 3.05l7.278 7.279H53.74c.51 0 .803-.392.655-.882l-4.848-16.047c-.148-.49-.674-.884-1.184-.884z"/><path fill="url(#f)" d="M31.966 4.501c-1.202-.013-1.909.077-2.618.61-.324.243-.579.821-.732 1.237L16.277 47.076s.543 3.523 4.909 5.24c3.022 1.188 6.142 1.346 10.996 1.398 5.406.058 7.608-.473 11.142-1.705a7.6 7.6 0 0 0 3.314-2.172c1.141-1.21 1.11-2.93 1.11-2.93L35.059 5.591a1.6 1.6 0 0 0-.28-.391c-.754-.714-1.896-.69-2.813-.699" transform="matrix(.92547 0 0 .92547 2.385 2.385)"/><path fill="url(#g)" d="M37.164 12.207c-1.351.447-3.197.724-5.236.724-2.005 0-3.826-.268-5.171-.702l-3.02 9.828c2.03 1.047 5.003 1.709 8.318 1.709 3.249 0 6.173-.634 8.2-1.645z" transform="matrix(.92547 0 0 .92547 2.385 2.385)"/></g><path fill="url(#h)" d="m21.529 32.193-2.522 8.617c3.194 2.668 7.769 4.354 12.993 4.354 5.247 0 9.951-1.701 13.144-4.39l-2.651-8.561c-2.44 1.931-6.225 3.171-10.471 3.171-4.261 0-8.052-1.248-10.493-3.19z" paint-order="stroke fill markers"/></svg>