<svg xmlns="http://www.w3.org/2000/svg" width="48" height="48"><defs><linearGradient id="d" href="#a"><stop stop-color="#363d4a"/><stop offset="1" stop-color="#020a13"/></linearGradient><linearGradient id="c" href="#a"><stop stop-color="#1c2b38" stop-opacity="0"/><stop offset="1" stop-color="#526c8d"/></linearGradient><linearGradient id="b" href="#a"><stop stop-color="#60a09a"/><stop offset="1" stop-color="#a8cbba" stop-opacity="0"/></linearGradient><linearGradient id="e" x1="434.571" x2="384.571" y1="543.798" y2="503.798" href="#a"><stop stop-color="#e3dfd6"/><stop offset="1" stop-color="#f4f1e8"/></linearGradient><linearGradient id="f" x1="384.571" x2="384.571" y1="543.798" y2="503.798" href="#a"><stop stop-color="#1d1e1e"/><stop offset="1" stop-color="#44484c"/></linearGradient><linearGradient id="h" x2="0" y1="536.798" y2="510.798" href="#a"><stop stop-color="#f3e7e1"/><stop offset=".615" stop-color="#c4c2c6"/><stop offset="1" stop-color="#566e90"/></linearGradient><linearGradient id="j" x2="0" y1="536.798" y2="530.798" href="#a"><stop stop-color="#a8cbba"/><stop offset=".615" stop-color="#a7c9bb"/><stop offset="1" stop-color="#4c6a87"/></linearGradient><linearGradient id="k" x1="9" x2="19" href="#b"/><linearGradient id="l" x1="423.571" x2="413.571" y1="499.798" y2="499.798" href="#b"/><linearGradient id="m" x2="0" y1="22" y2="15" href="#c"/><linearGradient id="n" x1="396.571" x2="396.571" y1="517.798" y2="510.798" href="#c"/><linearGradient id="o" x2="0" y1="532.798" y2="510.798" href="#d"/><linearGradient id="p" x1="432.571" x2="432.571" y1="33" y2="11" href="#d"/><linearGradient id="i" x1="418.571" x2="410.571" y1="530.798" y2="523.798" href="#a"><stop stop-color="#f3e8e2"/><stop offset="1" stop-color="#ebe0dc" stop-opacity="0"/></linearGradient><linearGradient id="g" x1="6" x2="30" y1="14" y2="38" href="#a"><stop stop-color="#383e51"/><stop offset="1" stop-color="#655c6f" stop-opacity="0"/></linearGradient><linearGradient id="a" gradientUnits="userSpaceOnUse"/></defs><path fill="url(#e)" d="M384.571 503.798h48v40h-48z" transform="translate(-384.571 -499.798)"/><path fill="url(#f)" d="M384.571 503.798v40h48v-40h-46zm4 4h40v32h-40z" transform="translate(-384.571 -499.798)"/><path fill="url(#g)" fill-rule="evenodd" d="M40 11 8 37l6 6 1 1h33V19l-4-4z" opacity=".2"/><path fill="#202224" d="M0 43h48v1H0z"/><path fill="url(#h)" d="M392.571 510.798h32v26h-32z" transform="translate(-384.571 -499.798)"/><path fill="url(#i)" fill-rule="evenodd" d="M397.571 530.798h22l3-13-25 6z" transform="translate(-384.571 -499.798)"/><path fill="url(#j)" d="M392.571 530.798h32v6h-32z" transform="translate(-384.571 -499.798)"/><g fill-rule="evenodd"><path fill="#2c333f" d="M8 31v4c2.608-1.278 7.101-2.18 7-4z" opacity=".4"/><path fill="url(#k)" d="M8 31v5.938C20.888 36.788 17.826 31 17.826 31z" opacity=".6"/><path fill="#2c333f" d="M40 31v4c-1.4-3.024-7.073-2.219-7-4z" opacity=".4"/><path fill="url(#l)" d="M424.571 530.798v5.938c-12.888-.15-9.826-5.937-9.826-5.937z" opacity=".6" transform="translate(-384.571 -499.798)"/></g><path fill="url(#m)" d="M18.783 14.949c-2.182.001-4.192.791-5.248 2.064C10.412 17.175 8.001 18.912 8 21c0 2.209 2.686 4 6 4 2.182-.001 4.192-.791 5.248-2.064a8.5 8.5 0 0 0 2.02-.35c.742.473 1.729.737 2.756.738 2.209 0 3.999-1.194 4-2.666-.003-1.319-1.453-2.438-3.41-2.633-.641-1.801-3.053-3.074-5.83-3.076z" opacity=".6"/><path fill="url(#n)" d="M415.355 510.747a6 4 0 0 0-5.248 2.064 6 4 0 0 0-5.535 3.986 6 4 0 0 0 6 4 6 4 0 0 0 5.248-2.064 6 4 0 0 0 2.02-.35 4 2.667 0 0 0 2.756.738 4 2.667 0 0 0 4-2.666 4 2.667 0 0 0-3.41-2.633 6 4 0 0 0-5.83-3.076z" opacity=".6" transform="translate(-384.571 -499.798)"/><g fill-rule="evenodd"><path fill="url(#o)" d="M392.571 532.798h1l5-1c1 0 2-2 2-3s-1-7-2-7-4-5-4-6v-5h-2z" transform="translate(-384.571 -499.798)"/><path fill="#1a212c" d="M13.481 21.723c-.195.068-.36.157-.48.277-1 1 1.681 2.052 2 3 .45 1.339 1.152 2.495 0 5 2.559.337-2.803 1.421-7 3h1l5-1c1 0 2-2 2-3s-1-7-2-7c-.138 0-.319-.111-.52-.277"/><path fill="#242b37" d="M15.311 29.645c-1 0-1 0-2 1a2.6 2.6 0 0 1-.455.338c-.952-.087-1.904-.982-2.855-.982-1 0-1 2-2 3l3-1 .244-.09 1.066-.266 3-1c.744-.482.111-.689 0-1"/><path fill="#1e2e2f" d="M8 33v-7s4 0 3 1l-1 1s-1 1-1 2v1s.628.222 0 1c-.32.396-.837 1.095-1 1"/><path fill="url(#p)" d="M38 11s0 1-1 2 1 2 1 2c-1.667.581-3.333.65-5 2l1 5c-1 0-2 6-2 7s1 3 2 3 5 1 5 1h1V11z"/><path fill="#1a212c" d="M34.52 21.723c.195.068.36.157.48.277 1 1-1.681 2.052-2 3-.45 1.339-1.152 2.495 0 5-2.559.337 2.803 1.421 7 3h-1l-5-1c-1 0-2-2-2-3s1-7 2-7c.138 0 .319-.111.52-.277"/><path fill="#242b37" d="M32.69 29.645c1 0 1 0 2 1 .113.113.275.226.455.338.952-.087 1.904-.982 2.855-.982 1 0 1 2 2 3l-3-1-.244-.09-1.066-.266-3-1c-.744-.482-.111-.689 0-1"/><path fill="#1e2e2f" d="M40 33v-7s-4 0-3 1l1 1s1 1 1 2v1s-.628.222 0 1c.32.396.837 1.095 1 1"/></g></svg>