<svg xmlns="http://www.w3.org/2000/svg" width="48" height="48" xmlns:v="https://vecta.io/nano"><defs><linearGradient id="A" x1="32.611" y1="42.939" x2="16.123" y2="3.947" gradientUnits="userSpaceOnUse"><stop offset="0" stop-color="#88c0d0"/><stop offset="1" stop-color="#5e81ac"/></linearGradient><path id="B" d="M31.686 20.468h3.782c.789 0 1.416.627 1.416 1.416v3.782c0 .789-.627 1.416-1.416 1.416h-3.782c-.789 0-1.416-.627-1.416-1.416v-3.782a1.42 1.42 0 0 1 1.416-1.416z"/></defs><rect rx="21" y="3" x="2.95" height="42" width="42" fill="url(#A)"/><path d="M2.962 23.475L2.95 24c0 11.634 9.366 21 21 21s21-9.366 21-21c0-.176-.008-.35-.012-.525A20.95 20.95 0 0 1 23.95 43.95 20.95 20.95 0 0 1 2.962 23.475z" fill="#2c2e31" fill-opacity=".235"/><path d="M26.686 17.018a4.95 4.95 0 0 1 0 6.91l-8.301 8.49-8.311-8.48c-1.876-1.914-1.876-4.996 0-6.91a4.71 4.71 0 0 1 6.772 0l1.53 1.561 1.539-1.57a4.71 4.71 0 0 1 6.772 0z" fill="#bf616a"/><g fill="#d8dee9"><use href="#B"/><use href="#B" y="-10.867"/><use href="#B" y="10.867"/></g></svg>