<svg xmlns="http://www.w3.org/2000/svg" height="48" width="48" xmlns:v="https://vecta.io/nano"><defs><linearGradient id="A" x1="3" y1="45" x2="45" y2="3" href="#G"><stop offset="0" stop-color="#2a7fff"/><stop offset="1" stop-color="#d5e5ff"/></linearGradient><linearGradient id="B" x1="32.539" y1="23.466" x2="43.039" y2="37.716" href="#G"><stop offset="0"/><stop offset="1" stop-opacity="0"/></linearGradient><linearGradient id="C" x1="20.539" y1="22.716" x2="34.039" y2="37.716" href="#G"><stop offset="0" stop-color="#3daee9"/><stop offset="1" stop-color="#2a7aaf"/></linearGradient><linearGradient id="D" x1="21.289" y1="36.216" x2="22.039" y2="40.716" href="#G"><stop offset="0" stop-color="#318bba"/><stop offset="1" stop-color="#115c92"/></linearGradient><linearGradient id="E" x1="22.039" y1="24.216" x2="22.039" y2="27.216" href="#G"><stop offset="0" stop-color="#194d6f"/><stop offset="1" stop-color="#0c3d61"/></linearGradient><linearGradient id="F" x1="13.789" y1="28.716" x2="13.789" y2="31.716" href="#G"><stop offset="0" stop-color="#fcfcfc" stop-opacity=".8"/><stop offset="1" stop-color="#fcfcfc" stop-opacity=".45"/></linearGradient><linearGradient id="G" gradientUnits="userSpaceOnUse"/></defs><linearGradient id="H" gradientUnits="userSpaceOnUse"><stop offset="0" stop-opacity=".102"/><stop offset="1" stop-opacity=".03"/></linearGradient><linearGradient gradientUnits="userSpaceOnUse" x1="30" x2="30" y1="-5.246" y2="44"><stop offset="0" stop-color="#fcfcfc"/><stop offset="1" stop-color="#cacaca"/></linearGradient><linearGradient x1="92.275" x2="92.275" href="#H" y1="33.116" y2="-5.884"/><linearGradient x1="119.275" x2="119.275" href="#H" y1="33.116" y2="-5.884"/><circle cx="24" cy="24" r="21" fill="url(#A)"/><path d="M17 12.616v1h14v-1zm0 3v1h12v-1zm0 3v1h13v-1z" fill="#4d4d4d"/><path d="M34 12.616v1h5v-1zm0 6v1h5v-1z" fill="#da4453"/><path d="M34 15.616h5v1h-5z" fill="#27ae60"/><path d="M19.039 36.966h21v.75h-21z" fill="#979797"/><path d="M33.596 23.159l6.443 6.435v8.123h-7.5v-15z" fill="url(#B)" opacity=".1"/><path d="M11.539 22.716c-.831 0-1.5.669-1.5 1.5v8.336c.449.212.75.778.75 1.414s-.301 1.202-.75 1.414v.836c0 .831.669 1.5 1.5 1.5h21c.831 0 1.5-.669 1.5-1.5v-12c0-.831-.669-1.5-1.5-1.5z" fill="url(#C)"/><path d="M10.039 35.466v.75c0 .831.669 1.5 1.5 1.5h21c.831 0 1.5-.669 1.5-1.5v-.75c0 .831-.669 1.5-1.5 1.5h-21c-.831 0-1.5-.669-1.5-1.5z" fill="url(#D)"/><path d="M10.039 24.216h24v3h-24z" fill="url(#E)"/><path d="M11.914 28.716c-.208 0-.375.167-.375.375v2.25c0 .208.167.375.375.375h3.75c.208 0 .375-.167.375-.375v-2.25c0-.208-.167-.375-.375-.375z" fill="url(#F)"/><path d="M15.289 33.966v.75h3v-.75zm3.75 0v.75h3v-.75zm3.75 0v.75h3v-.75zm3.75 0v.75h3v-.75z" fill="#1f5b83"/></svg>