<svg xmlns="http://www.w3.org/2000/svg" height="48" width="48" xmlns:v="https://vecta.io/nano"><defs><linearGradient id="A" x1="45.258" x2="3.31" y1="49.025" y2="-1.327" gradientUnits="userSpaceOnUse"><stop stop-color="#bdc3c7" offset="0"/><stop stop-color="#eff0f1" offset="1"/></linearGradient><linearGradient id="B" x1="38.264" y1="38.646" x2="7.417" y2="11.226" gradientUnits="userSpaceOnUse"><stop stop-color="#2e5d89"/><stop offset="1" stop-color="#1b92f4"/></linearGradient><linearGradient id="C" x1="38.775" y1="38.731" x2="7.927" y2="11.311" gradientUnits="userSpaceOnUse"><stop stop-color="#06a370"/><stop offset="1" stop-color="#22d1b0"/></linearGradient><path id="D" d="M13.961 15.919h1.613v.807h-1.613z"/><path id="E" d="M16.381 15.919h2.42v.807h-2.42z"/><path id="F" d="M19.607 15.919h4.033v.807h-4.033z"/></defs><linearGradient gradientUnits="userSpaceOnUse" x1="6" x2="44" y1="4" y2="44"><stop offset="0" stop-color="#d8dcde"/><stop offset="1" stop-color="#f9fafb"/></linearGradient><linearGradient id="G" gradientUnits="userSpaceOnUse" x1="8" y1="8"><stop offset="0"/><stop offset="1" stop-opacity="0"/></linearGradient><linearGradient gradientTransform="matrix(0 1 1 0 0 0)" x2="16" href="#G" y2="16"/><linearGradient gradientTransform="matrix(-.00282 .99376 .65925 -.00423 4.893 .177)" gradientUnits="userSpaceOnUse" x1="44.177" x2="44.106" y1="18.554" y2="1.868"><stop offset="0" stop-color="#c9963c"/><stop offset="1" stop-color="#f6cd7b"/></linearGradient><linearGradient gradientUnits="userSpaceOnUse" x2="4" y1="47" y2="47" x1="8"><stop offset="0" stop-color="#2f3943"/><stop offset="1" stop-color="#4d5662"/></linearGradient><linearGradient  gradientTransform="matrix(0 1 1 0 0 25)" x2="16" href="#G" y2="16"/><rect x="3" y="3" width="42" height="42" rx="21" fill="#95a5a6"/><rect x="3" y="3" width="42" height="40.95" rx="21" ry="20.475" fill="url(#A)"/><path fill="url(#B)" d="M11.701 11.226v1.714h11.139v-1.714zm17.994 18.851l-5.998 3.428 5.998 3.462v-1.749h8.569V31.79h-8.569z"/><path fill="url(#C)" d="M25.065 11.311v1.714h11.139v-1.714zM18.21 31.876v1.714H9.641v3.428h8.569v1.749l5.998-3.462z"/><g fill="#474747"><use href="#D"/><use href="#E"/><use href="#F"/><path d="M13.961 17.532h3.227v.807h-3.227z"/><use href="#D" x="4.033" y="1.613"/><use href="#D" y="4.84"/><use href="#E" y="4.84"/><use href="#D" y="6.453"/><use href="#F" x="-3.226" y="6.453"/><use href="#E" x="4.84" y="6.453"/><path d="M13.961 25.599h4.84v.807h-4.84z"/><use href="#E" x="3.226" y="9.68"/><use href="#F" x="-5.646" y="11.293"/><use href="#F" x="-0.806" y="11.293"/><use href="#D" x="12.1"/><use href="#E" x="12.1"/><path d="M26.061 17.532h3.227v.807h-3.227z"/><use href="#D" x="12.1" y="4.84"/><use href="#D" x="12.1" y="6.453"/><use href="#F" x="8.874" y="6.453"/><path d="M26.061 25.599h4.84v.807h-4.84z"/><use href="#F" x="6.454" y="11.293"/><use href="#F" x="11.294" y="11.293"/></g></svg>