<svg xmlns="http://www.w3.org/2000/svg" width="32" height="32" xmlns:v="https://vecta.io/nano"><defs><linearGradient id="A" y1="544.798" y2="518.798" x2="28.612" x1="28.612" gradientUnits="userSpaceOnUse"><stop stop-color="#197cf1"/><stop offset="1" stop-color="#20bcfa"/></linearGradient><linearGradient id="B" y1="30" y2="2" x2="0" gradientUnits="userSpaceOnUse"><stop stop-color="#7cbaf8"/><stop offset="1" stop-color="#f4fcff"/></linearGradient><linearGradient id="C" y1="9" x1="9" y2="23" x2="23" gradientUnits="userSpaceOnUse"><stop stop-color="#292c2f"/><stop offset="1" stop-opacity="0"/></linearGradient></defs><g transform="translate(-384.571 -515.798)"><rect width="26" x="387.571" y="518.798" rx="13" height="26" fill="url(#A)"/><g transform="translate(384.571 515.798)"><path d="M17 9l-2 2 2 2-2 10 8 8h3 3 2v-4-4L17 9z" fill="url(#C)" opacity=".2" fill-rule="evenodd"/><path d="M16 2C8.413 2 2.289 7.979 2.025 15.5c-.006.167-.025.331-.025.5a13.97 13.97 0 0 0 14 14 13.97 13.97 0 0 0 14-14c0-.169-.02-.333-.025-.5C29.711 7.979 23.587 2 16 2zm0 1c7.202 0 13 5.798 13 13s-5.798 13-13 13S3 23.202 3 16 8.798 3 16 3zm-1 6v2h2V9zm0 4v10h2V13z" fill="url(#B)"/></g></g></svg>