<svg xmlns="http://www.w3.org/2000/svg" width="32" height="32" xmlns:v="https://vecta.io/nano"><circle r="15" cy="-1106.5" cx="16" transform="matrix(1 0 0 -1 0 -1090.5)" opacity=".3" fill="#3b5a87"/><path d="M14.292 16.5c.31.011.554.231.554.5v2h8.077c.32 0 .577.223.577.5v2c0 .276-.257.5-.577.5h-8.077v2c-.001.19-.126.364-.324.448a.65.65 0 0 1-.606-.054l-5.192-3.5a.48.48 0 0 1-.223-.395.48.48 0 0 1 .223-.395l5.192-3.499a.64.64 0 0 1 .376-.105zm3.415-9c-.31.011-.554.231-.554.5v2H9.077c-.32 0-.577.223-.577.5v2c0 .277.257.5.577.5h8.077v2c.001.19.126.364.324.448a.65.65 0 0 0 .606-.054l5.192-3.5a.48.48 0 0 0 .222-.394.48.48 0 0 0-.222-.394l-5.192-3.5a.64.64 0 0 0-.376-.105z" fill="#d6dbf1"/></svg>