<svg xmlns="http://www.w3.org/2000/svg" width="32" height="32" xmlns:v="https://vecta.io/nano"><path d="M16 1C7.723 1 1 7.723 1 16s6.723 15 15 15 15-6.723 15-15S24.277 1 16 1z" opacity=".3" fill="#3b5a87"/><g fill="#d6dbf1"><path d="M16.025 14.92c.604 0 1.094-.484 1.094-1.08V8.08c0-.596-.49-1.08-1.094-1.08s-1.094.484-1.094 1.08v5.76c0 .596.49 1.08 1.094 1.08zm4.179-4.884c-.433-.251-.99-.108-1.244.32a.89.89 0 0 0 .324 1.229c1.871 1.092 3.097 3.026 3.099 5.333-.007 3.471-2.847 6.28-6.358 6.286-3.511-.006-6.352-2.815-6.358-6.286.002-2.307 1.228-4.241 3.1-5.333.433-.251.577-.801.323-1.229s-.81-.571-1.243-.319v-.001c-2.393 1.384-3.999 3.924-3.996 6.881 0 4.465 3.497 8.083 8.175 8.083 4.633 0 8.174-3.618 8.175-8.083.003-2.958-1.605-5.498-3.996-6.881z"/><ellipse cx="27.04" cy="27" rx="4.04" ry="4" fill-rule="evenodd"/></g><path d="M27.983 30.2c.13 0 .236-.106.236-.237v-3.081h1.414c.209 0 .315-.255.167-.405l-2.592-2.608c-.044-.044-.104-.069-.167-.069s-.122.025-.167.069l-2.592 2.608c-.148.148-.044.404.167.404h1.414v3.081c0 .131.106.237.236.237zm-.943-5.828z" fill="#2d4568"/></svg>