<svg xmlns="http://www.w3.org/2000/svg" width="32" height="32" xmlns:v="https://vecta.io/nano"><circle cx="16" cy="16" r="16" opacity="0"/><circle r="15" cy="16" cx="16" opacity=".3" fill="#3b5a87"/><path d="M16.233 12.257h3.71l-4.709 4.714c-.428.429-.571 1-.285 1.572.143.429.713.857 1.284.857h7.135c.856 0 1.427-.571 1.427-1.429 0-.714-.571-1.428-1.427-1.428h-3.71l4.709-4.714c.428-.429.571-1 .285-1.572-.143-.429-.713-.857-1.284-.857h-7.135c-.713 0-1.427.571-1.427 1.429a1.43 1.43 0 0 0 1.427 1.428zM7.46 18.212h2.226L6.86 21.038c-.257.257-.343.599-.171.942.086.257.428.514.771.514h4.281c.514 0 .856-.342.856-.856 0-.428-.342-.856-.856-.856H9.514l2.825-2.825c.257-.257.343-.599.171-.942-.086-.257-.428-.514-.771-.514H7.46c-.428 0-.856.342-.856.856s.428.856.856.856z" fill="#d6dbf1"/></svg>