<svg xmlns="http://www.w3.org/2000/svg" width="32" height="32" xmlns:v="https://vecta.io/nano"><path d="M16 1C7.723 1 1 7.723 1 16s6.723 15 15 15 15-6.723 15-15S24.277 1 16 1z" opacity=".3" fill="#3b5a87"/><path d="M22.847 12.82a1 1 0 0 0-1.344-.341c-.473.284-.606.89-.322 1.363a6 6 0 0 1 .852 3.749c-.284 2.916-2.689 5.226-5.604 5.434-3.541.246-6.494-2.594-6.456-6.078a6.09 6.09 0 0 1 5.926-5.983h.038v1.439c0 .417.454.682.814.454l3.881-2.424a.53.53 0 0 0 0-.909l-3.863-2.443c-.36-.227-.814.038-.814.454v1.458c-4.601.038-8.274 3.938-7.933 8.615a8 8 0 0 0 7.365 7.365c4.696.36 8.615-3.37 8.615-7.99.019-1.515-.417-2.954-1.155-4.165z" fill="#d6dbf1"/></svg>