<svg xmlns="http://www.w3.org/2000/svg" viewBox="0 0 32 32" xmlns:v="https://vecta.io/nano"><path d="M16 1C7.723 1 1 7.723 1 16s6.723 15 15 15 15-6.723 15-15S24.277 1 16 1z" opacity=".3" fill="#3b5a87"/><path d="M16 4A12.023 12 0 0 0 4.106 14.645h23.816A12.023 12 0 0 0 16 4zm0 1.275a10.746 10.725 0 0 1 10.476 8.352H5.554A10.746 10.725 0 0 1 16 5.275zM8.485 10.75v1.5h5.01v-1.5zm6.012 0v1.5h3.006v-1.5zm4.008 0v1.5h5.01v-1.5zM4 16.336A12.023 12 0 0 0 16 28a12.023 12 0 0 0 12-11.664zm1.364 1.037h21.29A10.746 10.725 0 0 1 16 26.725a10.746 10.725 0 0 1-10.636-9.352zM9.988 19a1.5 1.5 0 1 0 0 3 1.5 1.5 0 1 0 0-3zm4.008 0a1.5 1.5 0 1 0 0 3 1.5 1.5 0 1 0 0-3zm4.008 0a1.5 1.5 0 1 0 0 3 1.5 1.5 0 1 0 0-3zm4.008 0a1.5 1.5 0 1 0 0 3 1.5 1.5 0 1 0 0-3z" fill="#bac8df"/></svg>