<svg xmlns="http://www.w3.org/2000/svg" width="32" height="32" xmlns:v="https://vecta.io/nano"><path d="M16 1C7.724 1 1 7.724 1 16s6.724 15 15 15 15-6.724 15-15S24.276 1 16 1z" opacity=".3" fill="#3b5a87"/><g fill="#d6dbf1"><path d="M16 7c-4.97 0-9 4.03-9 9s4.03 9 9 9 9-4.03 9-9-4.03-9-9-9zm0 16.499A7.51 7.51 0 0 1 8.501 16 7.51 7.51 0 0 1 16 8.501 7.51 7.51 0 0 1 23.499 16 7.51 7.51 0 0 1 16 23.499z"/><use href="#B"/><use href="#B" y="1.114"/><path d="M10.3 14.707h2.561l-1.85 1.81.64.557 1.85-1.741v2.506h.854v-2.506l1.423 1.392v-1.184l-.782-.835h.782v-.835h-.782l.782-.835v-1.184l-1.423 1.392v-2.506h-.854v2.506l-1.85-1.81-.64.627 1.85 1.81H10.3zm9.034 2.925v-5.709c0-.696-.64-1.323-1.352-1.323s-1.352.557-1.352 1.323v5.709c-.569.418-.925 1.044-.925 1.741 0 1.184.996 2.228 2.276 2.228 1.209 0 2.276-.975 2.276-2.228 0-.696-.356-1.323-.925-1.741zm-1.362.265l.014.03-.016-.017.001.001-.011-6.668.023-.015.008-.02.004 6.704-.014.009z"/><use href="#B" y="-1.044"/></g><defs ><path id="B" d="M20.116 14.568h1.494v.418h-1.494z"/></defs></svg>