<svg xmlns="http://www.w3.org/2000/svg" width="32" height="32" xmlns:v="https://vecta.io/nano"><path d="M16 1C7.723 1 1 7.723 1 16s6.723 15 15 15 15-6.723 15-15S24.277 1 16 1z" opacity=".3" fill="#3b5a87"/><path d="M23 9c-.589 0-1.133.175-1.594.469.043.464.008.923-.008 1.336A2 2 0 0 1 25 12a2 2 0 0 1-3.992.164c-.184.419-.465.77-.696 1.1C20.784 14.287 21.797 15 23 15c1.661 0 2.998-1.338 2.998-3S24.661 9 23 9zm-7 9c4.432 0 8 3.568 8 8H8c0-4.432 3.568-8 8-8zm0-1c-4.986 0-9 3.717-9 8.333V27h18v-1.667C25 20.717 20.986 17 16 17zm6.977-1c-1.262 0-2.396.479-3.275 1.24.38.156.766.336 1.142.508.629-.442 1.347-.748 2.131-.748 2.227 0 4.023 2.338 4.023 4H24.27c.196.339.302.648.449 1H28v-1c0-2.769-2.24-4.999-5.021-5zM16 6a4 4 0 1 1 0 8 4 4 0 1 1 0-8zm0-1a5 5 0 1 0 0 10c2.351 0 4.323-1.622 4.857-3.808A5.01 5.01 0 0 0 21 10a5 5 0 0 0-5-5zM9.023 16c1.262 0 2.396.479 3.275 1.24-.404.163-.805.355-1.156.516-.615-.45-1.333-.756-2.117-.756-2.227 0-4.023 2.338-4.023 4H7.73c-.187.333-.318.69-.449 1H4v-1c0-2.769 2.24-4.999 5.021-5zm-.025-7c.589 0 1.133.175 1.594.469-.048.46-.009.928.008 1.336A2 2 0 0 0 6.998 12a2 2 0 0 0 3.992.164c.188.403.472.77.696 1.1C11.214 14.287 10.201 15 8.998 15 7.337 15 6 13.662 6 12s1.337-3 2.998-3z" fill="#bac8df"/></svg>