<svg xmlns="http://www.w3.org/2000/svg" width="22" height="22" fill="#bac8df" xmlns:v="https://vecta.io/nano"><path d="M0 0v22h22V0z" opacity=".001"/><path d="M13.258 3c-3.171 0-5.741 2.57-5.742 5.741 0 1.398.5 2.677 1.33 3.673l-1.178 1.178c-.591-.26-1.303-.172-1.783.307l-2.428 2.427a1.57 1.57 0 0 0 0 2.214c.612.612 1.602.612 2.214 0l2.428-2.427c.481-.481.569-1.192.292-1.774l1.192-1.187c.996.83 2.276 1.33 3.673 1.33 3.171 0 5.741-2.57 5.742-5.741S16.43 3 13.258 3zm0 9.395a3.66 3.66 0 0 1-3.654-3.654 3.66 3.66 0 0 1 3.654-3.654 3.66 3.66 0 0 1 3.654 3.654 3.66 3.66 0 0 1-3.654 3.654z"/></svg>