<svg xmlns="http://www.w3.org/2000/svg" xmlns:xlink="http://www.w3.org/1999/xlink" width="64" height="64"><defs><linearGradient xlink:href="#a" id="b" x1="0" x2="0" y1="60.774" y2="2.345" gradientUnits="userSpaceOnUse"/><linearGradient id="a" x2="0" y1="392.36" y2="336.36" gradientTransform="translate(254 -254)" gradientUnits="userSpaceOnUse"><stop stop-color="#fff" stop-opacity="0"/><stop offset="1" stop-color="#fff" stop-opacity=".2"/></linearGradient><linearGradient id="c" x1="41.616" x2="54" y1="17.475" y2="31" gradientUnits="userSpaceOnUse"><stop stop-color="#060606"/><stop offset="1" stop-opacity="0"/></linearGradient></defs><path d="M40 3H15c-2.77 0-5 2.23-5 5v48c0 2.77 2.23 5 5 5h34c2.77 0 5-2.23 5-5V17Z" style="fill:#47cffb"/><g style="color:#000;opacity:.4;isolation:auto;mix-blend-mode:normal;solid-color:#000;solid-opacity:1;stroke-width:34.13000107"><path d="M32.806 21.14a.917.917 0 0 1-.92.914c-.51 0-.92-.41-.92-.914v-2.253a.92.92 0 0 1 .92-.917c.51 0 .92.41.92.917zm-.141 15.934c0 .416-.34.753-.759.753h-.04a.756.756 0 0 1-.76-.753v-2.435c0-.416.34-.756.76-.756h.04c.42 0 .76.337.76.756z" overflow="visible" style="overflow:visible;isolation:auto;mix-blend-mode:normal;solid-color:#000;solid-opacity:1"/><path d="M41.458 44.243c.305-.313.404-.794.208-1.216l-7.618-16.15q-.008-.066-.006-.138c0-.158.059-.304.153-.418a3.73 3.73 0 0 0 1.494-2.986c0-2.069-1.685-3.742-3.765-3.745a3.73 3.73 0 0 0-3.768 3.745c0 1.219.583 2.303 1.491 2.986a.64.64 0 0 1 .156.418q.001.071-.006.138l-7.618 16.15c-.197.42-.1.903.208 1.216l-1.202 2.441 1.9-2.057a1.1 1.1 0 0 0 1.27-.592l7.264-15.394a.36.36 0 0 1 .287-.138h.036a.36.36 0 0 1 .284.138l7.263 15.394c.226.487.768.724 1.269.592l1.899 2.057zm-9.534-18.755a2.154 2.154 0 1 1 0-4.307c1.195 0 2.162.964 2.162 2.154s-.967 2.153-2.162 2.153" overflow="visible" style="overflow:visible;isolation:auto;mix-blend-mode:normal;solid-color:#000;solid-opacity:1"/><path d="M40.175 35.928c0 .272-.22.492-.495.492H24.09a.494.494 0 0 1-.496-.492v-.003c0-.272.223-.492.495-.492h15.59a.496.496 0 0 1 .496.495" overflow="visible" style="overflow:visible;isolation:auto;mix-blend-mode:normal;solid-color:#000;solid-opacity:1"/></g><path d="M40 3H15c-2.77 0-5 2.23-5 5v48c0 2.77 2.23 5 5 5h34c2.77 0 5-2.23 5-5V17Z" style="fill:url(#b)"/><path d="M40 3H15c-2.77 0-5 2.23-5 5v1.014a5 5 0 0 1 1.46-3.54A5 5 0 0 1 15 4.015h25V4Z" style="opacity:.5;fill:#fff"/><path d="M54 54.86a5 5 0 0 1-1.46 3.538A5 5 0 0 1 49 59.86H15a5 5 0 0 1-3.54-1.46A5 5 0 0 1 10 54.86V56c0 2.77 2.23 5 5 5h34c2.77 0 5-2.23 5-5z" style="opacity:.25;fill-opacity:.99199997"/><path d="M40 3v11.535A2.456 2.456 0 0 0 42.465 17H54Z" style="opacity:.4;fill-rule:evenodd"/><path d="M40.73 16.283 54 31V17H42.465c-.68 0-1.29-.276-1.735-.717" style="opacity:.20100002;fill:url(#c);fill-rule:evenodd"/></svg>