<svg xmlns="http://www.w3.org/2000/svg" xmlns:xlink="http://www.w3.org/1999/xlink" width="64" height="64"><defs><linearGradient xlink:href="#a" id="b" x1="0" x2="0" y1="60.774" y2="2.345" gradientUnits="userSpaceOnUse"/><linearGradient id="a" x2="0" y1="392.36" y2="336.36" gradientTransform="translate(254 -254)" gradientUnits="userSpaceOnUse"><stop stop-color="#fff" stop-opacity="0"/><stop offset="1" stop-color="#fff" stop-opacity=".2"/></linearGradient><linearGradient id="c" x1="41.616" x2="54" y1="17.475" y2="31" gradientUnits="userSpaceOnUse"><stop stop-color="#060606"/><stop offset="1" stop-opacity="0"/></linearGradient></defs><path d="M40 3H15c-2.77 0-5 2.23-5 5v48c0 2.77 2.23 5 5 5h34c2.77 0 5-2.23 5-5V17Z" style="fill:#d2d6d9"/><g style="color:#000;isolation:auto;mix-blend-mode:normal;solid-color:#000;solid-opacity:1;fill:#4b5560"><path d="M35.883 29.17c.035-.284.062-.572.062-.865s-.027-.581-.062-.865l1.876-1.468a.44.44 0 0 0 .106-.568l-1.774-3.074a.44.44 0 0 0-.541-.191l-2.209.891a6.7 6.7 0 0 0-1.499-.874l-.333-2.351a.46.46 0 0 0-.444-.373h-3.548a.45.45 0 0 0-.439.373l-.333 2.351a6.6 6.6 0 0 0-1.499.874l-2.209-.891c-.2-.075-.43 0-.541.191l-1.774 3.074a.445.445 0 0 0 .106.568L22.7 27.44a7 7 0 0 0-.062.865c0 .293.027.581.062.865l-1.872 1.468a.44.44 0 0 0-.106.568l1.774 3.074c.111.191.342.271.541.191l2.209-.891c.457.35.958.648 1.499.874l.333 2.351a.45.45 0 0 0 .439.373h3.548a.45.45 0 0 0 .439-.373l.333-2.351a6.6 6.6 0 0 0 1.499-.874l2.209.891c.2.075.43 0 .541-.191l1.774-3.074a.445.445 0 0 0-.106-.568zm-6.591 2.24a3.103 3.103 0 0 1-3.105-3.105 3.103 3.103 0 0 1 3.105-3.105 3.103 3.103 0 0 1 3.105 3.105 3.103 3.103 0 0 1-3.105 3.105M40.96 44.841c.122-.17.241-.346.343-.534s.187-.383.263-.578l1.721-.285a.325.325 0 0 0 .268-.328l-.062-2.597a.32.32 0 0 0-.281-.312l-1.732-.202a5 5 0 0 0-.657-1.087l.611-1.627a.335.335 0 0 0-.154-.395L39 35.652a.33.33 0 0 0-.413.085l-1.038 1.394a4.8 4.8 0 0 0-1.27.036l-1.107-1.348a.325.325 0 0 0-.415-.067l-2.218 1.353a.326.326 0 0 0-.131.402l.688 1.6c-.122.17-.241.346-.343.534a5 5 0 0 0-.263.578l-1.718.287a.325.325 0 0 0-.268.328l.062 2.597a.32.32 0 0 0 .281.312l1.732.202c.171.385.389.752.657 1.087l-.611 1.627a.33.33 0 0 0 .152.393l2.28 1.244a.33.33 0 0 0 .413-.085l1.038-1.394q.642.066 1.27-.036l1.107 1.348a.325.325 0 0 0 .415.067l2.218-1.353a.326.326 0 0 0 .131-.402zm-5.02-.872a2.27 2.27 0 0 1-.906-3.084 2.27 2.27 0 0 1 3.084-.906 2.27 2.27 0 0 1 .906 3.084 2.27 2.27 0 0 1-3.084.906" overflow="visible" style="overflow:visible;isolation:auto;mix-blend-mode:normal;solid-color:#000;solid-opacity:1"/></g><path d="M40 3H15c-2.77 0-5 2.23-5 5v48c0 2.77 2.23 5 5 5h34c2.77 0 5-2.23 5-5V17Z" style="fill:url(#b)"/><path d="M40 3H15c-2.77 0-5 2.23-5 5v1.014a5 5 0 0 1 1.46-3.54A5 5 0 0 1 15 4.015h25V4Z" style="opacity:.5;fill:#fff"/><path d="M54 54.86a5 5 0 0 1-1.46 3.538A5 5 0 0 1 49 59.86H15a5 5 0 0 1-3.54-1.46A5 5 0 0 1 10 54.86V56c0 2.77 2.23 5 5 5h34c2.77 0 5-2.23 5-5z" style="opacity:.25;fill-opacity:.99199997"/><path d="M40 3v11.535A2.456 2.456 0 0 0 42.465 17H54Z" style="fill:#5e6b78;fill-rule:evenodd"/><path d="M40.73 16.283 54 31V17H42.465c-.68 0-1.29-.276-1.735-.717" style="opacity:.2;fill:url(#c);fill-rule:evenodd"/></svg>