<svg xmlns="http://www.w3.org/2000/svg" xmlns:xlink="http://www.w3.org/1999/xlink" width="64" height="64"><defs><linearGradient xlink:href="#a" id="b" x1="0" x2="0" y1="60.774" y2="2.345" gradientUnits="userSpaceOnUse"/><linearGradient id="a" x2="0" y1="392.36" y2="336.36" gradientTransform="translate(254 -254)" gradientUnits="userSpaceOnUse"><stop stop-color="#fff" stop-opacity="0"/><stop offset="1" stop-color="#fff" stop-opacity=".2"/></linearGradient><linearGradient id="c" x1="41.616" x2="54" y1="17.475" y2="31" gradientUnits="userSpaceOnUse"><stop stop-color="#060606"/><stop offset="1" stop-opacity="0"/></linearGradient></defs><path d="M40 3H15c-2.77 0-5 2.23-5 5v48c0 2.77 2.23 5 5 5h34c2.77 0 5-2.23 5-5V17Z" style="fill:#8542c2"/><path d="M40 3H15c-2.77 0-5 2.23-5 5v48c0 2.77 2.23 5 5 5h34c2.77 0 5-2.23 5-5V17Z" style="fill:url(#b)"/><path d="M40 3H15c-2.77 0-5 2.23-5 5v1.014a5 5 0 0 1 1.46-3.54A5 5 0 0 1 15 4.015h25V4Z" style="opacity:.5;fill:#fff"/><path d="M54 54.86a5 5 0 0 1-1.46 3.538A5 5 0 0 1 49 59.86H15a5 5 0 0 1-3.54-1.46A5 5 0 0 1 10 54.86V56c0 2.77 2.23 5 5 5h34c2.77 0 5-2.23 5-5z" style="opacity:.25;fill-opacity:.99199997"/><path d="M40 3v11.535A2.456 2.456 0 0 0 42.465 17H54Z" style="opacity:.5;fill:#fff;fill-rule:evenodd"/><path d="M40.73 16.283 54 31V17H42.465c-.68 0-1.29-.276-1.735-.717" style="opacity:.1;fill:url(#c);fill-rule:evenodd"/><path d="M32 22c-6.075 0-11 1.343-11 3v10a11 3 0 0 0 1 1.242 11 3 0 0 0 .012.006 11 3 0 0 0 .476.252 11 3 0 0 0 .032.014 11 3 0 0 0 .55.232 11 3 0 0 0 .065.024 11 3 0 0 0 .59.2 11 3 0 0 0 .132.042 11 3 0 0 0 .65.18 11 3 0 0 0 .1.025 11 3 0 0 0 .774.176 11 3 0 0 0 .053.01 11 3 0 0 0 .814.15 11 3 0 0 0 .139.023 11 3 0 0 0 .779.115 11 3 0 0 0 .22.03 11 3 0 0 0 .737.082 11 3 0 0 0 .367.037 11 3 0 0 0 .54.045 11 3 0 0 0 .591.04 11 3 0 0 0 .49.026 11 3 0 0 0 .576.024 11 3 0 0 0 .463.013A11 3 0 0 0 32 38a11 3 0 0 0 .959-.014 11 3 0 0 0 .414-.013 11 3 0 0 0 .717-.03 11 3 0 0 0 .346-.021 11 3 0 0 0 .707-.049 11 3 0 0 0 .318-.03 11 3 0 0 0 .768-.075 11 3 0 0 0 .18-.022 11 3 0 0 0 .808-.107 11 3 0 0 0 .213-.035 11 3 0 0 0 .677-.112 11 3 0 0 0 .313-.06 11 3 0 0 0 .596-.125 11 3 0 0 0 .195-.047 11 3 0 0 0 .662-.168 11 3 0 0 0 .014-.004 11 3 0 0 0 .023-.008 11 3 0 0 0 .701-.219 11 3 0 0 0 .637-.244 11 3 0 0 0 .002 0 11 3 0 0 0 .006-.002 11 3 0 0 0 .535-.254 11 3 0 0 0 .006-.004 11 3 0 0 0 .203-.115A11 3 0 0 0 43 35V25c0-1.657-4.925-3-11-3m0 16h-1v3h1v1h-8v-1h-3v3h3v-1h16v1h3v-3h-3v1h-7v-1h1v-3zm0-15c5.523 0 10 .895 10 2s-4.477 2-10 2-10-.895-10-2 4.477-2 10-2m-10 3.242c1.784 1.069 5.692 1.756 10 1.758 4.308-.001 8.216-.688 10-1.758V30c0 1.105-4.477 2-10 2s-10-.895-10-2zm0 5c1.784 1.069 5.692 1.756 10 1.758 4.308-.001 8.216-.688 10-1.758V35a10 2 0 0 1-10 2 10 2 0 0 1-10-2v-2ZM32 39h1v1h-1zm-10 3h1v1h-1zm19 0h1v1h-1z" style="opacity:.75;fill:#fff"/></svg>