<svg xmlns="http://www.w3.org/2000/svg" xmlns:xlink="http://www.w3.org/1999/xlink" viewBox="0 0 64 64"><defs><linearGradient id="b" x1="41.616" x2="54" y1="17.475" y2="31" gradientTransform="translate(0 -.015)" gradientUnits="userSpaceOnUse"><stop stop-color="#060606"/><stop offset="1" stop-opacity="0"/></linearGradient><linearGradient xlink:href="#a" id="c" x1="0" x2="0" y1="60.774" y2="2.345" gradientUnits="userSpaceOnUse"/><linearGradient id="a" x2="0" y1="392.36" y2="336.36" gradientTransform="translate(254 -254)" gradientUnits="userSpaceOnUse"><stop stop-color="#fff" stop-opacity="0"/><stop offset="1" stop-color="#fff" stop-opacity=".2"/></linearGradient></defs><path d="m32 22.9-.26.2L23 27v12l9 4 9-4V27Zm0 1.17v5.3l-.5.33-7.5-2.14Zm8 4V38.4l-8 3.4V30.6Z" style="fill:#fff;fill-opacity:.7"/><path d="M40 2.985H15c-2.77 0-5 2.23-5 5v48c0 2.77 2.23 5 5 5h34c2.77 0 5-2.23 5-5v-39z" style="fill:#209ae7"/><path d="M40 2.985H15c-2.77 0-5 2.23-5 5v1.014a5 5 0 0 1 1.46-3.54A5 5 0 0 1 15 4h25v-.015Z" style="opacity:.5;fill:#fff"/><path d="M54 54.845a5 5 0 0 1-1.46 3.538A5 5 0 0 1 49 59.845H15a5 5 0 0 1-3.54-1.46 5 5 0 0 1-1.46-3.54v1.14c0 2.77 2.23 5 5 5h34c2.77 0 5-2.23 5-5z" style="opacity:.25;fill-opacity:.992"/><path d="M40 2.985V14.52a2.456 2.456 0 0 0 2.465 2.465H54z" style="opacity:.5;fill:#fff;fill-rule:evenodd"/><path d="M40.73 16.268 54 30.985v-14H42.465c-.68 0-1.29-.276-1.735-.717" style="opacity:.2;fill:url(#b);fill-rule:evenodd"/><path d="M40 3H15c-2.77 0-5 2.23-5 5v48c0 2.77 2.23 5 5 5h34c2.77 0 5-2.23 5-5V17Z" style="fill:url(#c)"/><path d="m31 23-.26.2L22 27.1v12l9 4 9-4v-12zm0 1.17v5.3l-.5.33-7.5-2.14Zm8 4V38.5l-8 3.4V30.7Z" style="fill:#fff;fill-opacity:.7"/></svg>