<svg xmlns="http://www.w3.org/2000/svg" xmlns:xlink="http://www.w3.org/1999/xlink" width="64" height="64"><defs><linearGradient xlink:href="#a" id="b" x1="0" x2="0" y1="60.774" y2="2.345" gradientUnits="userSpaceOnUse"/><linearGradient id="a" x2="0" y1="392.36" y2="336.36" gradientTransform="translate(254 -254)" gradientUnits="userSpaceOnUse"><stop stop-color="#fff" stop-opacity="0"/><stop offset="1" stop-color="#fff" stop-opacity=".2"/></linearGradient><linearGradient id="c" x1="41.616" x2="54" y1="17.475" y2="31" gradientUnits="userSpaceOnUse"><stop stop-color="#060606"/><stop offset="1" stop-opacity="0"/></linearGradient></defs><path d="M40 3H15c-2.77 0-5 2.23-5 5v48c0 2.77 2.23 5 5 5h34c2.77 0 5-2.23 5-5V17Z" style="fill:#45c545"/><path d="M40 3H15c-2.77 0-5 2.23-5 5v48c0 2.77 2.23 5 5 5h34c2.77 0 5-2.23 5-5V17Z" style="fill:url(#b)"/><path d="M40 3H15c-2.77 0-5 2.23-5 5v1.014a5 5 0 0 1 1.46-3.54A5 5 0 0 1 15 4.015h25V4Z" style="opacity:.5;fill:#fff"/><path d="M54 54.86a5 5 0 0 1-1.46 3.538A5 5 0 0 1 49 59.86H15a5 5 0 0 1-3.54-1.46A5 5 0 0 1 10 54.86V56c0 2.77 2.23 5 5 5h34c2.77 0 5-2.23 5-5z" style="opacity:.25;fill-opacity:.99199997"/><path d="M40 3v11.535A2.456 2.456 0 0 0 42.465 17H54Z" style="opacity:.6;fill-rule:evenodd"/><path d="M23.76 38.58c-.252.452-.452 1.132-.452 1.561 0 .1 0 .226.024.402l-3.147-5.413a1.4 1.4 0 0 1-.176-.654c0-.228.075-.504.176-.68l1.51-2.644-1.686-.956 5.49-.102 2.668 4.81-1.712-.982zm2.417-15.26c.478-.831 1.26-1.285 2.216-1.285 1.032 0 1.839.48 2.417 1.46l.857 1.435-2.972 5.138-4.81-2.795zm.352 19.615a2.633 2.633 0 0 1-2.618-2.619c0-.403.176-1.083.428-1.51l.805-1.436h5.968v5.565zm4.786-19.766c-.378-.654-.881-1.108-1.486-1.36h6.195c.554 0 .982.227 1.234.655l1.536 2.619 1.661-.983-2.67 4.785-5.463-.077 1.687-.956-2.695-4.684m9.543 14.25c.755 0 1.385-.2 1.913-.603l-3.123 5.438c-.251.428-.704.68-1.232.68h-2.947v1.939l-2.82-4.708 2.82-4.71v1.965h5.39m2.415-4.533c.228.403.354.83.354 1.284 0 .907-.58 1.864-1.385 2.316-.378.203-.907.33-1.435.33h-1.663l-2.97-5.138 4.809-2.745z" overflow="visible" style="color:#000;overflow:visible;opacity:.7;isolation:auto;mix-blend-mode:normal;solid-color:#000;solid-opacity:1"/><path d="M40.73 16.283 54 31V17H42.465c-.68 0-1.29-.276-1.735-.717" style="opacity:.2;fill:url(#c);fill-rule:evenodd"/></svg>