<svg xmlns="http://www.w3.org/2000/svg" xmlns:xlink="http://www.w3.org/1999/xlink" viewBox="0 0 64 64"><defs><linearGradient xlink:href="#a" id="c" x1="0" x2="0" y1="60.774" y2="2.345" gradientTransform="translate(0 -.015)" gradientUnits="userSpaceOnUse"/><linearGradient id="a" x2="0" y1="392.36" y2="336.36" gradientTransform="translate(254 -254)" gradientUnits="userSpaceOnUse"><stop stop-color="#fff" stop-opacity="0"/><stop offset="1" stop-color="#fff" stop-opacity=".2"/></linearGradient><linearGradient id="b" x1="41.616" x2="54" y1="17.475" y2="31" gradientTransform="translate(0 -.015)" gradientUnits="userSpaceOnUse"><stop stop-color="#060606"/><stop offset="1" stop-opacity="0"/></linearGradient></defs><path d="M40 2.985H15c-2.77 0-5 2.23-5 5v48c0 2.77 2.23 5 5 5h34c2.77 0 5-2.23 5-5v-39z" style="fill:#209ae7"/><path d="M40 2.985H15c-2.77 0-5 2.23-5 5v1.014a5 5 0 0 1 1.46-3.54A5 5 0 0 1 15 4h25v-.015Z" style="opacity:.5;fill:#fff"/><path d="M54 54.845a5 5 0 0 1-1.46 3.538A5 5 0 0 1 49 59.845H15a5 5 0 0 1-3.54-1.46 5 5 0 0 1-1.46-3.54v1.14c0 2.77 2.23 5 5 5h34c2.77 0 5-2.23 5-5z" style="opacity:.25;fill-opacity:.99199997"/><path d="M40 2.985V14.52a2.456 2.456 0 0 0 2.465 2.465H54Z" style="opacity:.5;fill:#fff;fill-rule:evenodd"/><path d="M40.73 16.268 54 30.985v-14H42.465c-.68 0-1.29-.276-1.735-.717" style="opacity:.2;fill:url(#b);fill-rule:evenodd"/><path d="M22 22v6h-2v15c0 .762.261 1 1 1h23V29c0-.762-.261-1-1-1h-6v-6zm1 1h13v5h-4c-.627-.863-1.454-1.497-2.5-1.5-1.048 0-1.871.635-2.5 1.5h-4zm-2 6h22v4h-9.666c-1.477 0-2.834 1.477-2.834 3 0 1.524 1.36 3.11 2.834 3H43v4H21Zm14 5.5c.736 0 1.5.74 1.5 1.5s-.764 1.5-1.5 1.5-1.5-.74-1.5-1.5.764-1.5 1.5-1.5" style="opacity:.75;fill:#fff"/><path d="M40 2.985H15c-2.77 0-5 2.23-5 5v48c0 2.77 2.23 5 5 5h34c2.77 0 5-2.23 5-5v-39z" style="fill:url(#c)"/></svg>