<svg xmlns="http://www.w3.org/2000/svg" xmlns:xlink="http://www.w3.org/1999/xlink" width="64" height="64"><defs><linearGradient xlink:href="#a" id="b" x1="0" x2="0" y1="60.774" y2="2.345" gradientUnits="userSpaceOnUse"/><linearGradient id="a" x2="0" y1="392.36" y2="336.36" gradientTransform="translate(254 -254)" gradientUnits="userSpaceOnUse"><stop stop-color="#fff" stop-opacity="0"/><stop offset="1" stop-color="#fff" stop-opacity=".2"/></linearGradient><linearGradient id="c" x1="41.616" x2="54" y1="17.475" y2="31" gradientUnits="userSpaceOnUse"><stop stop-color="#060606"/><stop offset="1" stop-opacity="0"/></linearGradient></defs><path d="M40 3H15c-2.77 0-5 2.23-5 5v48c0 2.77 2.23 5 5 5h34c2.77 0 5-2.23 5-5V17Z" style="fill:#555"/><path d="M40 3H15c-2.77 0-5 2.23-5 5v48c0 2.77 2.23 5 5 5h34c2.77 0 5-2.23 5-5V17Z" style="fill:url(#b)"/><path d="M40 3H15c-2.77 0-5 2.23-5 5v1.014a5 5 0 0 1 1.46-3.54A5 5 0 0 1 15 4.015h25V4Z" style="opacity:.5;fill:#fff"/><path d="M54 54.86a5 5 0 0 1-1.46 3.538A5 5 0 0 1 49 59.86H15a5 5 0 0 1-3.54-1.46A5 5 0 0 1 10 54.86V56c0 2.77 2.23 5 5 5h34c2.77 0 5-2.23 5-5z" style="opacity:.25;fill-opacity:.99199997"/><path d="M40 3v11.535A2.456 2.456 0 0 0 42.465 17H54Z" style="opacity:.5;fill:#fff;fill-rule:evenodd"/><path d="M20 24v22h26V24Zm18 1a1 1 0 1 1 0 2 1 1 0 0 1 0-2m3 0a1 1 0 1 1 0 2 1 1 0 0 1 0-2m3 0a1 1 0 1 1 0 2 1 1 0 0 1 0-2m-23 3h24v17H21Zm12.5 2c-.972 0-1.88.341-2.52.98-.64.64-.98 1.547-.98 2.52h2c0-.528.159-.87.395-1.105.235-.235.578-.395 1.105-.395.528 0 .87.159 1.105.395.235.235.395.578.395 1.105 0 .458-.09.653-.21.826-.522.526-1.153.976-1.66 1.406-.571.43-1.13.992-1.13 1.768v.5h2v-.5c.711-.728 1.77-1.362 2.43-2.03.348-.498.57-1.178.57-1.97 0-.972-.341-1.88-.98-2.52-.64-.64-1.547-.98-2.52-.98M32 40v2h2v-2z" overflow="visible" style="color:#000;overflow:visible;isolation:auto;mix-blend-mode:normal;solid-color:#000;solid-opacity:1;fill:#343434"/><path d="M19 23v22h26V23Zm18 1a1 1 0 1 1 0 2 1 1 0 0 1 0-2m3 0a1 1 0 1 1 0 2 1 1 0 0 1 0-2m3 0a1 1 0 1 1 0 2 1 1 0 0 1 0-2m-23 3h24v17H20Zm12.5 2c-.972 0-1.88.341-2.52.98-.64.64-.98 1.547-.98 2.52h2c0-.528.159-.87.395-1.105.235-.235.578-.395 1.105-.395.528 0 .87.159 1.105.395.235.235.395.578.395 1.105 0 .458-.09.653-.21.826-.522.526-1.153.976-1.66 1.406-.571.43-1.13.992-1.13 1.768v.5h2v-.5c.711-.728 1.77-1.362 2.43-2.03.348-.498.57-1.178.57-1.97 0-.972-.341-1.88-.98-2.52-.64-.64-1.547-.98-2.52-.98M31 39v2h2v-2z" style="color:#000;fill:#e0e0e0"/><path d="M40.73 16.283 54 31V17H42.465c-.68 0-1.29-.276-1.735-.717" style="opacity:.4;fill:url(#c);fill-rule:evenodd"/></svg>