<svg xmlns="http://www.w3.org/2000/svg" xmlns:xlink="http://www.w3.org/1999/xlink" width="64" height="64"><defs><linearGradient id="a" x2="0" y1="392.36" y2="336.36" gradientTransform="translate(-14 -332.36)" gradientUnits="userSpaceOnUse"><stop stop-color="#fff" stop-opacity="0"/><stop offset="1" stop-color="#fff" stop-opacity=".15"/></linearGradient><linearGradient xlink:href="#a" id="b" x1="-50" x2="-50" y1="61" y2="3" gradientTransform="translate(60)" gradientUnits="userSpaceOnUse"/></defs><path d="M10 3v58h37.216A6.77 6.77 0 0 0 54 54.217V9.783A6.77 6.77 0 0 0 47.217 3H16.783Z" style="opacity:1;fill:#da2c2c;fill-opacity:1;fill-rule:nonzero;stroke:none;stroke-width:2;stroke-linejoin:miter;stroke-miterlimit:4;stroke-dasharray:none;stroke-opacity:1"/><path d="M26.301 17.981c-.363.013-.752.11-1.179.293-3.813 1.629-1 5.371 3.856 8.793.029-.656.047-1.298.04-1.913-4.147-2.838-5.763-5.656-3.768-6.321 2.139-.885 3.718 1.737 3.768 6.321.26.177.521.351.794.53-.101-4.172-1.016-7.444-3.151-7.685a2.5 2.5 0 0 0-.36-.016m3.511 7.701-.497-.788-.631.544-.132.828.832 1.569.418-.201a47.6 47.6 0 0 0 9.273 4.76l.931.542 1.287.031c1.186-.703.479-.962 4.789-1.495l-4.856.369c-3.746-1.45-7.94-3.887-11.417-6.159m9.343 6.692c.562.045 4.52-.647 6.264-.815.667-.087 3.31-.277 3.444 1.67.456-1.061-.23-2.066-1.71-2.381-2.287-.512-6.693 1.103-7.998 1.526m2.526-.492c-.68.244-1.828.219-2.562.517 1.041.533 6.371 1.947 8.528 1.542.345-.054 1.289-.316 1.325-1.076-1.728 1.201-6.498.358-7.291-.982m1.421.022c-.559-.179-3.444.709-4.02.49-3.547 1.182-7.432 2.883-10.591 4.698l-.915.181-.707 1.262-.949 1.235 1.07 1.065.837-1.374c3.699-2.218 11.01-5.83 15.277-7.56m-15.277 7.56q-.679.408-1.293.799c-.474 1.345-1.84 4.302-2.778 4.211l-.446.371c1.441.828 3.335-1.76 4.518-5.381m-4.072 5.01c-2.488-1.468 1.599-3.621 2.778-4.211a35 35 0 0 0 .754-2.46c-3.715 2.312-6.04 4.709-4.796 6.293.3.383.539.659.816.748m3.979-7.04c.385-.239.79-.474 1.204-.712a47 47 0 0 0 1.318-9.458 37 37 0 0 1-.826-.568c-.157 3.502-.808 7.457-1.694 10.738" style="color:#000;opacity:.8;color-interpolation:sRGB;color-interpolation-filters:linearRGB;fill:#fff;color-rendering:auto;image-rendering:auto;shape-rendering:auto;text-rendering:auto"/><path fill="#fff" fill-opacity=".252" d="M16 4h1v56h-1z"/><path fill-opacity=".083" d="M17 4h1v56h-1z" color="#000"/><path d="M10 3v58h37.216A6.77 6.77 0 0 0 54 54.217V9.783A6.77 6.77 0 0 0 47.217 3H16.783Z" style="opacity:1;fill:url(#b);fill-opacity:1;fill-rule:nonzero;stroke:none;stroke-width:2;stroke-linejoin:miter;stroke-miterlimit:4;stroke-dasharray:none;stroke-opacity:1"/><path d="M54 53.203a6.77 6.77 0 0 1-6.783 6.783H10V61h37.216A6.77 6.77 0 0 0 54 54.217z" style="opacity:.25;fill:#000;fill-opacity:1;fill-rule:nonzero;stroke:none;stroke-width:2;stroke-linejoin:miter;stroke-miterlimit:4;stroke-dasharray:none;stroke-opacity:1"/><path d="M10 3v1.014h37.216A6.77 6.77 0 0 1 54 10.797V9.783A6.77 6.77 0 0 0 47.217 3H16.783Z" style="opacity:.5;fill:#fff;fill-opacity:1;fill-rule:nonzero;stroke:none;stroke-width:2;stroke-linejoin:miter;stroke-miterlimit:4;stroke-dasharray:none;stroke-opacity:1"/></svg>