<svg xmlns="http://www.w3.org/2000/svg" xmlns:xlink="http://www.w3.org/1999/xlink" width="64" height="64"><defs><linearGradient id="a"><stop offset="0" style="stop-color:#fff;stop-opacity:0"/><stop offset="1" style="stop-color:#fff;stop-opacity:.2"/></linearGradient><linearGradient xlink:href="#a" id="b" x1="58" x2="58" y1="393.953" y2="324.659" gradientTransform="matrix(1 0 0 .84587 -47 -272.735)" gradientUnits="userSpaceOnUse"/></defs><path d="M13.084 11A6.07 6.07 0 0 0 7 17.084v37.832A6.07 6.07 0 0 0 13.084 61h37.832A6.07 6.07 0 0 0 57 54.916V17.084A6.07 6.07 0 0 0 50.916 11z" style="color:#000;clip-rule:nonzero;display:inline;overflow:visible;visibility:visible;opacity:1;isolation:auto;mix-blend-mode:normal;color-interpolation:sRGB;color-interpolation-filters:linearRGB;solid-color:#000;solid-opacity:1;fill:#db3333;fill-opacity:1;fill-rule:nonzero;stroke:none;stroke-width:1;stroke-linecap:butt;stroke-linejoin:miter;stroke-miterlimit:4;stroke-dasharray:none;stroke-dashoffset:0;stroke-opacity:1;marker:none;color-rendering:auto;image-rendering:auto;shape-rendering:auto;text-rendering:auto"/><path d="M24.45 40.012c-6.065-.358-11.272 4.267-11.63 10.332-.09 1.494.129 2.935.592 4.265l.941-.332a10 10 0 0 1-.536-3.874c.326-5.513 5.06-9.718 10.573-9.392s9.719 5.06 9.393 10.572a10 10 0 0 1-.239 1.612l.973.226c.13-.577.228-1.168.264-1.778.358-6.065-4.267-11.272-10.332-11.63m-.119 1.997a9 9 0 0 0-2.408.192l.184.985a8 8 0 0 1 2.165-.179 8 8 0 0 1 7.514 8.458 8 8 0 0 1-.13.995l1.003.059q.09-.494.125-.994a9 9 0 0 0-8.453-9.516m-5 1.183a9 9 0 0 0-3.68 3.985l.87.518a8 8 0 0 1 3.26-3.607zm-4.405 6.359a9 9 0 0 0-.11.911q-.027.501 0 1.002l1.01.06a8 8 0 0 1-.012-1.003q.021-.353.076-.704z" style="color:#000;clip-rule:nonzero;display:inline;overflow:visible;visibility:visible;opacity:.75;isolation:auto;mix-blend-mode:normal;color-interpolation:sRGB;color-interpolation-filters:linearRGB;solid-color:#000;solid-opacity:1;fill:#fff;fill-opacity:1;fill-rule:nonzero;stroke:none;stroke-width:2;stroke-linecap:square;stroke-linejoin:miter;stroke-miterlimit:4;stroke-dasharray:none;stroke-dashoffset:0;stroke-opacity:1;marker:none;color-rendering:auto;image-rendering:auto;shape-rendering:auto;text-rendering:auto"/><path d="M33.716 53.794 25.914 51.2v-.011c-.169-2.855-3.803-2.344-3.992-.236a2 2 0 0 0 3.703 1.158l-.024.04 7.8 2.593zm-7.821-2.436q-.008.05-.018.098.01-.048.018-.098m-.979-.228a1 1 0 1 1-1.996-.118 1 1 0 0 1 1.996.118" style="fill:#fcbcbe"/><path d="M40 12v2h2v-2zm2 2v2h2v-2zm0 2h-2v2h2zm0 2v2h2v-2zm0 2h-2v2h2zm0 2v2h2v-2zm0 2h-2v2h2zm-2 3v4h1v4h2v-4h1v-4zm1 1h2v2h-2z" style="opacity:.75;fill:#fff;fill-opacity:1"/><path d="M13.084 11A6.07 6.07 0 0 0 7 17.084v1.014a6.07 6.07 0 0 1 6.084-6.084h37.832A6.07 6.07 0 0 1 57 18.098v-1.014A6.07 6.07 0 0 0 50.916 11z" style="color:#000;clip-rule:nonzero;display:inline;overflow:visible;visibility:visible;opacity:.5;isolation:auto;mix-blend-mode:normal;color-interpolation:sRGB;color-interpolation-filters:linearRGB;solid-color:#000;solid-opacity:1;fill:#fff;fill-opacity:1;fill-rule:nonzero;stroke:none;stroke-width:1;stroke-linecap:butt;stroke-linejoin:miter;stroke-miterlimit:4;stroke-dasharray:none;stroke-dashoffset:0;stroke-opacity:1;marker:none;color-rendering:auto;image-rendering:auto;shape-rendering:auto;text-rendering:auto"/><path d="M57 54.03a6.07 6.07 0 0 1-6.084 6.084H13.084A6.07 6.07 0 0 1 7 54.03v.886A6.07 6.07 0 0 0 13.084 61h37.832A6.07 6.07 0 0 0 57 54.916Z" style="color:#000;clip-rule:nonzero;display:inline;overflow:visible;visibility:visible;opacity:.25;isolation:auto;mix-blend-mode:normal;color-interpolation:sRGB;color-interpolation-filters:linearRGB;solid-color:#000;solid-opacity:1;fill:#000;fill-opacity:1;fill-rule:nonzero;stroke:none;stroke-width:1;stroke-linecap:butt;stroke-linejoin:miter;stroke-miterlimit:4;stroke-dasharray:none;stroke-dashoffset:0;stroke-opacity:1;marker:none;color-rendering:auto;image-rendering:auto;shape-rendering:auto;text-rendering:auto"/><path d="M13.084 11A6.07 6.07 0 0 0 7 17.084v37.832A6.07 6.07 0 0 0 13.084 61h37.832A6.07 6.07 0 0 0 57 54.916V17.084A6.07 6.07 0 0 0 50.916 11z" style="color:#000;clip-rule:nonzero;display:inline;overflow:visible;visibility:visible;opacity:.55199998;isolation:auto;mix-blend-mode:normal;color-interpolation:sRGB;color-interpolation-filters:linearRGB;solid-color:#000;solid-opacity:1;fill:url(#b);fill-opacity:1;fill-rule:nonzero;stroke:none;stroke-width:1;stroke-linecap:butt;stroke-linejoin:miter;stroke-miterlimit:4;stroke-dasharray:none;stroke-dashoffset:0;stroke-opacity:1;marker:none;color-rendering:auto;image-rendering:auto;shape-rendering:auto;text-rendering:auto"/></svg>