<svg xmlns="http://www.w3.org/2000/svg" xmlns:xlink="http://www.w3.org/1999/xlink" width="64" height="64"><defs><linearGradient xlink:href="#a" id="b" x1="0" x2="0" y1="60.774" y2="2.345" gradientUnits="userSpaceOnUse"/><linearGradient id="a" x2="0" y1="392.36" y2="336.36" gradientTransform="translate(254 -254)" gradientUnits="userSpaceOnUse"><stop stop-color="#fff" stop-opacity="0"/><stop offset="1" stop-color="#fff" stop-opacity=".2"/></linearGradient><linearGradient id="c" x1="41.616" x2="54" y1="17.475" y2="31" gradientUnits="userSpaceOnUse"><stop stop-color="#060606"/><stop offset="1" stop-opacity="0"/></linearGradient></defs><path d="M40 3H15c-2.77 0-5 2.23-5 5v48c0 2.77 2.23 5 5 5h34c2.77 0 5-2.23 5-5V17Z" style="fill:#2e6ea9"/><path d="M27.14 43.808c-.439-.114-.394-.237.329-.912 1.245-1.163 1.453-2.322 1.098-6.137-.283-3.041-.346-3.274-.822-3.02-1.029.551-2.316-.16-3.776-2.086-.722-.952-.791-1.231-.667-2.716.076-.91.231-2.01.345-2.44.175-.664.118-.786-.363-.786-.314 0-.732-.195-.93-.434-.499-.601.39-1.567 1.443-1.567.428 0 .938-.193 1.134-.429.505-.609 1.278-.531 2.146.215.922.793 1.236 2.63.718 4.2-.586 1.775-.179 1.949.641.274.459-.937 1.106-1.755 1.639-2.069.485-.286 1.193-1.014 1.573-1.617.381-.603.859-1.203 1.061-1.333.623-.399 2.336-.947 2.975-.951.87-.005 2.038 1.013 2.246 1.96.098.448.623 1.503 1.165 2.345.543.842.987 1.679.987 1.859s.386.813.858 1.407c.706.889.855 1.337.846 2.541-.014 1.651-.903 3.756-1.228 2.907-.103-.268-.06-.724.096-1.015.325-.607.038-3.298-.314-2.946-.245.245-.406 2.871-.337 5.516.089 3.435-.078 6.674-.349 6.76-.692.22-.995-.351-.711-1.342.428-1.493.34-5.461-.135-6.088-.219-.29-.484-1.029-.587-1.642-.104-.614-.3-1.185-.437-1.269-.451-.278-1.131 1.525-1.131 2.998 0 1.153-.174 1.686-.858 2.63-.968 1.336-1.043 1.731-.429 2.241.479.398.572 1.307.16 1.562-.148.091-.534-.118-.858-.466-.458-.491-.589-.532-.589-.183 0 .523-1.06.877-1.645.55-.313-.175-.239-.331.336-.708 1.024-.671.925-1.221-.443-2.472-1.067-.975-1.162-1.171-.987-2.039.554-2.747.551-2.818-.088-2.818-.419 0-.603.18-.603.59 0 .325-.142.856-.315 1.18-.306.572-.397 1.032-1.138 5.733-.369 2.343-.46 2.432-2.055 2.02m7.675-4.99c.371-.718.425-1.333.266-3.03-.212-2.257-.367-2.336-.985-.499-.212.629-.624 1.45-.916 1.825-.68.873-.668 1.137.091 1.944.812.864.988.837 1.545-.239" overflow="visible" style="color:#000;overflow:visible;opacity:.7;isolation:auto;mix-blend-mode:normal;solid-color:#000;solid-opacity:1"/><path d="M40 3H15c-2.77 0-5 2.23-5 5v48c0 2.77 2.23 5 5 5h34c2.77 0 5-2.23 5-5V17Z" style="fill:url(#b)"/><path d="M40 3H15c-2.77 0-5 2.23-5 5v1.014a5 5 0 0 1 1.46-3.54A5 5 0 0 1 15 4.015h25V4Z" style="opacity:.5;fill:#fff"/><path d="M54 54.86a5 5 0 0 1-1.46 3.538A5 5 0 0 1 49 59.86H15a5 5 0 0 1-3.54-1.46A5 5 0 0 1 10 54.86V56c0 2.77 2.23 5 5 5h34c2.77 0 5-2.23 5-5z" style="opacity:.25;fill-opacity:.99199997"/><path d="M40 3v11.535A2.456 2.456 0 0 0 42.465 17H54Z" style="opacity:.5;fill-rule:evenodd"/><path d="M40.73 16.283 54 31V17H42.465c-.68 0-1.29-.276-1.735-.717" style="opacity:.2;fill:url(#c);fill-rule:evenodd"/></svg>