<svg xmlns="http://www.w3.org/2000/svg" xmlns:xlink="http://www.w3.org/1999/xlink" width="64" height="64"><defs><linearGradient id="a" x2="0" y1="392.36" y2="336.36" gradientTransform="translate(-108 -332.36)" gradientUnits="userSpaceOnUse"><stop stop-color="#fff" stop-opacity="0"/><stop offset="1" stop-color="#fff" stop-opacity=".2"/></linearGradient><linearGradient id="c" x1="41.616" x2="54" y1="17.475" y2="31" gradientUnits="userSpaceOnUse"><stop stop-color="#060606"/><stop offset="1" stop-opacity="0"/></linearGradient><linearGradient xlink:href="#a" id="b" x1="10" x2="10" y1="61" y2="3" gradientTransform="translate(-40)" gradientUnits="userSpaceOnUse"/></defs><path d="M15 3c-2.77 0-5 2.23-5 5v53l2.75-2 2.75 2 2.75-2L21 61l2.75-2 2.75 2 2.75-2L32 61l2.75-2 2.75 2 2.75-2L43 61l2.75-2 2.75 2 2.75-2L54 61V17L40 3Z" style="fill:#ccc"/><path d="M12.75 58 10 60v1l2.75-2 2.75 2 2.75-2L21 61l2.75-2 2.75 2 2.75-2L32 61l2.75-2 2.75 2 2.75-2L43 61l2.75-2 2.75 2 2.75-2L54 61v-1l-2.75-2-2.75 2-2.75-2L43 60l-2.75-2-2.75 2-2.75-2L32 60l-2.75-2-2.75 2-2.75-2L21 60l-2.75-2-2.75 2Z" style="color:#000;opacity:.25"/><path d="M32.143 23a11 11 0 0 0-.62.01 11 11 0 0 0-10.52 11.308 11 11 0 0 0 11.157 10.68A11 11 0 0 0 43 34l-.018-.637A11 11 0 0 0 32.142 23m-.576 1.01a10 10 0 0 1 10.416 9.412L42 34a10 10 0 0 1-9.855 9.998 10 10 0 0 1-10.141-9.709 10 10 0 0 1 9.562-10.28M31 26v9h8v-1h-7v-8z" style="color:#4d4d4d;opacity:.5"/><path d="M15 3c-2.77 0-5 2.23-5 5v53l2.75-2 2.75 2 2.75-2L21 61l2.75-2 2.75 2 2.75-2L32 61l2.75-2 2.75 2 2.75-2L43 61l2.75-2 2.75 2 2.75-2L54 61V17L40 3Z" style="fill:url(#b)"/><path d="M40 3v11.535A2.456 2.456 0 0 0 42.465 17H54Z" style="opacity:.5;fill:#fff;fill-rule:evenodd"/><path d="M40.73 16.283 54 31V17H42.465c-.68 0-1.29-.276-1.735-.717" style="opacity:.2;fill:url(#c);fill-rule:evenodd"/><path d="M40 3H15c-2.77 0-5 2.23-5 5v1.014a5 5 0 0 1 1.46-3.54A5 5 0 0 1 15 4.015h25V4Z" style="opacity:.5;fill:#fff"/></svg>