<svg xmlns="http://www.w3.org/2000/svg" xmlns:xlink="http://www.w3.org/1999/xlink" width="64" height="64"><defs><linearGradient id="a" x2="0" y1="392.36" y2="320.48" gradientTransform="matrix(1 0 0 .84587 -34 -272.73)" gradientUnits="userSpaceOnUse"><stop stop-color="#fff" stop-opacity="0"/><stop offset="1" stop-color="#fff" stop-opacity=".2"/></linearGradient><linearGradient xlink:href="#a" id="b" x1="-75" x2="-75" y1="59" y2="-1" gradientTransform="translate(40)" gradientUnits="userSpaceOnUse"/><linearGradient id="c" x1="41.616" x2="54" y1="17.475" y2="31" gradientTransform="translate(6 8)" gradientUnits="userSpaceOnUse"><stop stop-color="#060606"/><stop offset="1" stop-opacity="0"/></linearGradient></defs><path d="M46 11H9c-2.77 0-5 2.23-5 5v40c0 2.77 2.23 5 5 5h46c2.77 0 5-2.23 5-5V25Z" style="fill:#fc7676"/><path d="M16.928 20.527q-.091-.008-.137.037c-.968.968 16.932 17.9 16.932 17.9l4.959 4.719c-.142 4.217 3.768 3.856 4.85 5.748.474.83-.458 1.891-1.322 1.949 1.716.566 3.735-2.696 3.041-4.557-.829-2.221-1.836-2.852-3.414-3.525-.652-.278-1.768-.101-2.428-.342l-4.596-5.08s-16-16.686-17.885-16.85" style="opacity:.6"/><path d="M23.365 38.764c.083 1.719 1.17 6.732 6.57 10.386 4.548 3.077 12.867 1.966 12.733.218-1.83-2.273-4.891-.853-4.931-6.295-1.78.013-3.695-.266-3.624.483.299 3.138-4.676.875-6.605-2.326-3.443-5.215-4.143-4.453-4.142-2.466m7.664 2.364c-.295 0-.532.097-.645.291-.224.389.139 1.02.814 1.41s1.404.391 1.629.002c.224-.389-.141-1.02-.816-1.41-.338-.195-.982.002-.982-.293" style="opacity:.6"/><path d="M46 11H9c-2.77 0-5 2.23-5 5v40c0 2.77 2.23 5 5 5h46c2.77 0 5-2.23 5-5V25Z" style="fill:url(#b)"/><path d="M60 54.986a5 5 0 0 1-1.46 3.54 5 5 0 0 1-3.54 1.46H9a5 5 0 0 1-3.54-1.46A5 5 0 0 1 4 54.985V56c0 2.77 2.23 5 5 5h46c2.77 0 5-2.23 5-5z" style="opacity:.25"/><path d="M46 11H9c-2.77 0-5 2.23-5 5v1.14a5 5 0 0 1 1.46-3.538A5 5 0 0 1 9 12.14h37z" style="opacity:.3;fill:#fff"/><path d="M46.73 24.283 60 39V25H48.465c-.68 0-1.29-.276-1.735-.717" style="opacity:.1;fill:url(#c);fill-rule:evenodd"/><path d="M46 11v11.535A2.456 2.456 0 0 0 48.465 25H60Z" style="opacity:.6;fill-rule:evenodd"/></svg>