<svg xmlns="http://www.w3.org/2000/svg" xmlns:xlink="http://www.w3.org/1999/xlink" width="64" height="64"><defs><linearGradient xlink:href="#a" id="b" x1="-50" x2="-50" y1="61" y2="3" gradientTransform="translate(60)" gradientUnits="userSpaceOnUse"/><linearGradient id="a" x2="0" y1="392.36" y2="336.36" gradientTransform="translate(-14 -332.36)" gradientUnits="userSpaceOnUse"><stop stop-color="#fff" stop-opacity="0"/><stop offset="1" stop-color="#fff" stop-opacity=".15"/></linearGradient></defs><path d="M10 3v58h37.216A6.77 6.77 0 0 0 54 54.217V9.783A6.77 6.77 0 0 0 47.217 3H16.783Z" style="opacity:1;fill:#afdde9;fill-opacity:1;fill-rule:nonzero;stroke:none;stroke-width:2;stroke-linejoin:miter;stroke-miterlimit:4;stroke-dasharray:none;stroke-opacity:1"/><path fill-opacity=".057" d="M17 4h1v56h-1z"/><path fill="#fff" fill-opacity=".321" d="M16 4h1v56h-1z"/><path fill-rule="evenodd" d="M26 41.943v-20.4h3v3.886h4c1 0 1 .972 1 .972v14.57c0 .972-1 .972-1 .972z"/><path fill="#f90" d="M44 23.889 52 32l-8 8-8-8z"/><path fill-rule="evenodd" d="M21 41.943v-14.57h-1v-1.944h1v-2.914s0 .972 0 0c0-.971 1-.971 1-.971h3v1.943h-1v1.942h1v1.943h-1v14.57z"/><path fill="#afdde9" d="M29.001 27.372h2v12.629h-2z" opacity=".99"/><path d="M47.35 36.015h-6.422v-1.313q.736-.517 1.473-1.099.741-.581 1.186-1.003.665-.624.945-1.089t.28-.917q0-.545-.363-.838-.357-.3-1.032-.299c-.337 0-.716.112-1.066.203-.348.09-.585.17-1.025.34H41v-1.614c.26-.11.786-.195 1.291-.305a7 7 0 0 1 1.527-.166q1.538 0 2.345.63.808.624.808 1.771 0 .753-.39 1.43-.385.678-1.181 1.398-.5.448-1.005.827-.505.375-.72.523h3.675z"/><path d="M10 3v58h37.216A6.77 6.77 0 0 0 54 54.217V9.783A6.77 6.77 0 0 0 47.217 3H16.783Z" style="opacity:1;fill:url(#b);fill-opacity:1;fill-rule:nonzero;stroke:none;stroke-width:2;stroke-linejoin:miter;stroke-miterlimit:4;stroke-dasharray:none;stroke-opacity:1"/><path d="M54 53.203a6.77 6.77 0 0 1-6.783 6.783H10V61h37.216A6.77 6.77 0 0 0 54 54.217z" style="opacity:.25;fill:#000;fill-opacity:1;fill-rule:nonzero;stroke:none;stroke-width:2;stroke-linejoin:miter;stroke-miterlimit:4;stroke-dasharray:none;stroke-opacity:1"/><path d="M10 3v1.014h37.216A6.77 6.77 0 0 1 54 10.797V9.783A6.77 6.77 0 0 0 47.217 3H16.783Z" style="opacity:.5;fill:#fff;fill-opacity:1;fill-rule:nonzero;stroke:none;stroke-width:2;stroke-linejoin:miter;stroke-miterlimit:4;stroke-dasharray:none;stroke-opacity:1"/></svg>