<svg xmlns="http://www.w3.org/2000/svg" xmlns:xlink="http://www.w3.org/1999/xlink" width="64" height="64"><defs><linearGradient xlink:href="#a" id="b" x1="-50" x2="-50" y1="61" y2="3" gradientTransform="translate(60)" gradientUnits="userSpaceOnUse"/><linearGradient id="a" x2="0" y1="392.36" y2="336.36" gradientTransform="translate(-14 -332.36)" gradientUnits="userSpaceOnUse"><stop stop-color="#fff" stop-opacity="0"/><stop offset="1" stop-color="#fff" stop-opacity=".15"/></linearGradient></defs><path d="M10 3v58h37.216A6.77 6.77 0 0 0 54 54.217V9.783A6.77 6.77 0 0 0 47.217 3H16.783Z" style="opacity:1;fill:#f9d24c;fill-opacity:1;fill-rule:nonzero;stroke:none;stroke-width:2;stroke-linejoin:miter;stroke-miterlimit:4;stroke-dasharray:none;stroke-opacity:1"/><path d="M16 4h1v56h-1z" style="fill:#fff;fill-opacity:.25200004"/><path d="M17 4h1v56h-1z" style="color:#000;color-interpolation:sRGB;color-interpolation-filters:linearRGB;fill-opacity:.08299997;color-rendering:auto;image-rendering:auto;shape-rendering:auto;text-rendering:auto"/><path d="M10 3v58h37.216A6.77 6.77 0 0 0 54 54.217V9.783A6.77 6.77 0 0 0 47.217 3H16.783Z" style="opacity:1;fill:url(#b);fill-opacity:1;fill-rule:nonzero;stroke:none;stroke-width:2;stroke-linejoin:miter;stroke-miterlimit:4;stroke-dasharray:none;stroke-opacity:1"/><path d="M54 53.203a6.77 6.77 0 0 1-6.783 6.783H10V61h37.216A6.77 6.77 0 0 0 54 54.217z" style="opacity:.25;fill:#000;fill-opacity:1;fill-rule:nonzero;stroke:none;stroke-width:2;stroke-linejoin:miter;stroke-miterlimit:4;stroke-dasharray:none;stroke-opacity:1"/><path d="M10 3v1.014h37.216A6.77 6.77 0 0 1 54 10.797V9.783A6.77 6.77 0 0 0 47.217 3H16.783Z" style="opacity:.5;fill:#fff;fill-opacity:1;fill-rule:nonzero;stroke:none;stroke-width:2;stroke-linejoin:miter;stroke-miterlimit:4;stroke-dasharray:none;stroke-opacity:1"/><path d="m34 38.92-6.916-6.917L34 25.092l2.307 2.302-4.614 4.609L34 34.311l6.916-6.917-6.03-6.02a1.26 1.26 0 0 0-1.779 0l-9.739 9.74a1.26 1.26 0 0 0 0 1.786l9.739 9.74c.489.489 1.29.489 1.779 0l9.739-9.74a1.26 1.26 0 0 0 0-1.786l-1.412-1.412zm0 0" style="color:#000;opacity:.75;color-interpolation:sRGB;color-interpolation-filters:linearRGB;fill:#fff;color-rendering:auto;image-rendering:auto;shape-rendering:auto;text-rendering:auto"/></svg>