<svg xmlns="http://www.w3.org/2000/svg" xmlns:xlink="http://www.w3.org/1999/xlink" width="64" height="64"><defs><linearGradient xlink:href="#a" id="b" x1="0" x2="0" y1="60.774" y2="2.345" gradientUnits="userSpaceOnUse"/><linearGradient id="a" x2="0" y1="392.36" y2="336.36" gradientTransform="translate(254 -254)" gradientUnits="userSpaceOnUse"><stop stop-color="#fff" stop-opacity="0"/><stop offset="1" stop-color="#fff" stop-opacity=".2"/></linearGradient><linearGradient id="c" x1="41.616" x2="54" y1="17.475" y2="31" gradientUnits="userSpaceOnUse"><stop stop-color="#060606"/><stop offset="1" stop-opacity="0"/></linearGradient></defs><path d="M40 3H15c-2.77 0-5 2.23-5 5v48c0 2.77 2.23 5 5 5h34c2.77 0 5-2.23 5-5V17Z" style="fill:#8993c0"/><path d="M40 3H15c-2.77 0-5 2.23-5 5v48c0 2.77 2.23 5 5 5h34c2.77 0 5-2.23 5-5V17Z" style="fill:url(#b)"/><path d="M40 3H15c-2.77 0-5 2.23-5 5v1.014a5 5 0 0 1 1.46-3.54A5 5 0 0 1 15 4.015h25V4Z" style="opacity:.5;fill:#fff"/><path d="M54 54.86a5 5 0 0 1-1.46 3.538A5 5 0 0 1 49 59.86H15a5 5 0 0 1-3.54-1.46A5 5 0 0 1 10 54.86V56c0 2.77 2.23 5 5 5h34c2.77 0 5-2.23 5-5z" style="opacity:.25;fill-opacity:.99199997"/><path d="M40 3v11.535A2.456 2.456 0 0 0 42.465 17H54Z" style="opacity:.5;fill-rule:evenodd"/><path d="M40.73 16.283 54 31V17H42.465c-.68 0-1.29-.276-1.735-.717" style="opacity:.1;fill:url(#c);fill-rule:evenodd"/><path d="M28.016 21.838v2h-7.02v1.994h11.195a15.8 15.8 0 0 1-3.177 5.373 15.7 15.7 0 0 1-2.315-3.357h-2a17.6 17.6 0 0 0 2.987 4.57l-5.102 5.03 1.424 1.421 5.01-5.01 3.117 3.118.761-2.047-2.544-2.518.029-.03a17.54 17.54 0 0 0 3.719-6.544h2.935v-2h-7.02v-2zm8.523 8.01-4.51 12.029h2l1.123-3.01h4.762l1.133 3.01h2l-4.508-12.03zm.998 2.68 1.625 4.34h-3.248z" overflow="visible" style="color:#4d4d4d;overflow:visible;opacity:.6;isolation:auto;mix-blend-mode:normal;solid-color:#000;solid-opacity:1;fill-rule:evenodd"/></svg>