<svg xmlns="http://www.w3.org/2000/svg" xmlns:xlink="http://www.w3.org/1999/xlink" width="64" height="64"><defs><linearGradient xlink:href="#a" id="b" x1="0" x2="0" y1="60.774" y2="2.345" gradientUnits="userSpaceOnUse"/><linearGradient id="a" x2="0" y1="392.36" y2="336.36" gradientTransform="translate(254 -254)" gradientUnits="userSpaceOnUse"><stop stop-color="#fff" stop-opacity="0"/><stop offset="1" stop-color="#fff" stop-opacity=".2"/></linearGradient><linearGradient id="c" x1="41.616" x2="54" y1="17.475" y2="31" gradientUnits="userSpaceOnUse"><stop stop-color="#060606"/><stop offset="1" stop-opacity="0"/></linearGradient></defs><path d="M40 3H15c-2.77 0-5 2.23-5 5v48c0 2.77 2.23 5 5 5h34c2.77 0 5-2.23 5-5V17Z" style="fill:#8373d7"/><path d="m33.05 24.68-5.318 17.59h1.045l5.318-17.59zm7.967.744v.01c-1.347-.012-2.694.373-3.871 1.049.003.297-.005 1.037-.002 1.334 1.3-.781 2.851-1.772 4.381-1.477 1.091.219 2.376.996 2.523 2.138.156 1.021-.599 2.133-1.335 2.821-.89.974-2.079 1.753-2.574 3.02-.277.848-.117 1.798-.141 2.684.379-.02.489.024.867 0 .006-.999-.267-2.184.465-3.03.611-.977 1.708-1.649 2.474-2.492.694-.711 1.285-1.593 1.275-2.615.035-1.332-.831-2.643-2.094-3.092-.621-.255-1.303-.352-1.969-.348zm-17.02 2.574-6 6 6 6 .707-.707-5.293-5.293 5.293-5.293zm17 11-.982.014-.018 1.986h1z" style="color:#000;opacity:.7"/><path d="M40 3H15c-2.77 0-5 2.23-5 5v48c0 2.77 2.23 5 5 5h34c2.77 0 5-2.23 5-5V17Z" style="fill:url(#b)"/><path d="M40 3H15c-2.77 0-5 2.23-5 5v1.014a5 5 0 0 1 1.46-3.54A5 5 0 0 1 15 4.015h25V4Z" style="opacity:.5;fill:#fff"/><path d="M54 54.86a5 5 0 0 1-1.46 3.538A5 5 0 0 1 49 59.86H15a5 5 0 0 1-3.54-1.46A5 5 0 0 1 10 54.86V56c0 2.77 2.23 5 5 5h34c2.77 0 5-2.23 5-5z" style="opacity:.25;fill-opacity:.99199997"/><path d="M40 3v11.535A2.456 2.456 0 0 0 42.465 17H54Z" style="opacity:.5;fill-rule:evenodd"/><path d="M40.73 16.283 54 31V17H42.465c-.68 0-1.29-.276-1.735-.717" style="opacity:.2;fill:url(#c);fill-rule:evenodd"/></svg>