<svg xmlns="http://www.w3.org/2000/svg" xmlns:xlink="http://www.w3.org/1999/xlink" viewBox="0 0 64 64"><defs><linearGradient xlink:href="#a" id="b" x1="0" x2="0" y1="60.774" y2="2.345" gradientTransform="translate(.5)" gradientUnits="userSpaceOnUse"/><linearGradient id="a" x2="0" y1="392.36" y2="336.36" gradientTransform="translate(254 -254)" gradientUnits="userSpaceOnUse"><stop stop-color="#fff" stop-opacity="0"/><stop offset="1" stop-color="#fff" stop-opacity=".2"/></linearGradient><linearGradient id="c" x1="41.616" x2="54" y1="17.475" y2="31" gradientTransform="translate(.5)" gradientUnits="userSpaceOnUse"><stop stop-color="#060606"/><stop offset="1" stop-opacity="0"/></linearGradient></defs><g style="opacity:.75"><path d="M29.168 18.873c-1.272.283-2.53.676-3.71 1.27.028 1.042.095 2.04.232 3.053-.458.294-.94.545-1.368.889-.434.334-.878.654-1.272 1.046a24 24 0 0 0-2.476-1.44c-.924.994-1.788 2.067-2.494 3.269.555.87 1.15 1.746 1.7 2.428v7.373l.041.002 4.52.436a.49.49 0 0 1 .439.45l.14 1.996 3.942.282.272-1.842a.49.49 0 0 1 .481-.416h4.77c.24 0 .445.177.48.416l.272 1.842 3.943-.282.14-1.995a.49.49 0 0 1 .438-.45l4.519-.437.04-.002v-.588h.002v-6.785a27 27 0 0 0 1.7-2.428c-.705-1.202-1.57-2.275-2.494-3.27-.857.432-1.69.92-2.476 1.44-.393-.39-.837-.71-1.272-1.045-.428-.344-.91-.595-1.367-.889a28 28 0 0 0 .23-3.053c-1.179-.594-2.437-.987-3.71-1.27a26 26 0 0 0-1.376 2.682 9.4 9.4 0 0 0-1.445-.115v-.001h-.018a9.4 9.4 0 0 0-1.445.116 26 26 0 0 0-1.378-2.682M25.592 29.66a2.723 2.723 0 1 1 .002 5.446 2.723 2.723 0 0 1-.002-5.446m12.816 0a2.723 2.723 0 1 1 0 5.446 2.723 2.723 0 0 1 0-5.446M32 31.252c.484 0 .877.357.877.797v2.508c0 .44-.393.796-.877.796-.485 0-.877-.356-.877-.796v-2.508c0-.44.392-.797.877-.797" style="fill:#fff;fill-opacity:1;fill-rule:nonzero;stroke:none;stroke-width:.0399999"/><path d="m40.162 38.129-.14 2.005a.49.49 0 0 1-.451.452l-4.815.344h-.035a.49.49 0 0 1-.48-.415l-.277-1.872h-3.928l-.277 1.872a.486.486 0 0 1-.516.415l-4.814-.344a.49.49 0 0 1-.451-.452l-.14-2.005-4.065-.392c.002.436.008.915.008 1.01 0 4.293 5.445 6.356 12.21 6.38h.017c6.766-.024 12.209-2.087 12.209-6.38 0-.097.006-.573.008-1.01zM27.66 32.543a1.807 1.807 0 1 1-3.614 0 1.807 1.807 0 0 1 3.615 0M36.339 32.543a1.807 1.807 0 1 0 3.614 0 1.807 1.807 0 0 0-3.614 0" style="fill:#fff;fill-opacity:1;fill-rule:nonzero;stroke:none;stroke-width:.0399999"/></g><path d="M40.5 3h-25c-2.77 0-5 2.23-5 5v48c0 2.77 2.23 5 5 5h34c2.77 0 5-2.23 5-5V17Z" style="fill:#38a5ea"/><path d="M40.5 3h-25c-2.77 0-5 2.23-5 5v48c0 2.77 2.23 5 5 5h34c2.77 0 5-2.23 5-5V17Z" style="fill:url(#b)"/><path d="M40.5 3h-25c-2.77 0-5 2.23-5 5v1.014a5 5 0 0 1 1.46-3.54 5 5 0 0 1 3.54-1.459h25V4Z" style="opacity:.5;fill:#fff"/><path d="M54.5 54.86a5 5 0 0 1-1.46 3.538 5 5 0 0 1-3.54 1.462h-34a5 5 0 0 1-3.54-1.46 5 5 0 0 1-1.46-3.54V56c0 2.77 2.23 5 5 5h34c2.77 0 5-2.23 5-5z" style="opacity:.25;fill-opacity:.992"/><path d="M40.5 3v11.535A2.456 2.456 0 0 0 42.965 17H54.5z" style="opacity:.5;fill:#fff;fill-rule:evenodd"/><path d="M41.23 16.283 54.5 31V17H42.965c-.68 0-1.29-.276-1.735-.717" style="opacity:.1;fill:url(#c);fill-rule:evenodd"/><g style="opacity:.75"><path d="M29.168 18.873c-1.272.283-2.53.676-3.71 1.27.028 1.042.095 2.04.232 3.053-.458.294-.94.545-1.368.889-.434.334-.878.654-1.272 1.046a24 24 0 0 0-2.476-1.44c-.924.994-1.788 2.067-2.494 3.269.555.87 1.15 1.746 1.7 2.428v7.373l.041.002 4.52.436a.49.49 0 0 1 .439.45l.14 1.996 3.942.282.272-1.842a.49.49 0 0 1 .481-.416h4.77c.24 0 .445.177.48.416l.272 1.842 3.943-.282.14-1.995a.49.49 0 0 1 .438-.45l4.519-.437.04-.002v-.588h.002v-6.785a27 27 0 0 0 1.7-2.428c-.705-1.202-1.57-2.275-2.494-3.27-.857.432-1.69.92-2.476 1.44-.393-.39-.837-.71-1.272-1.045-.428-.344-.91-.595-1.367-.889a28 28 0 0 0 .23-3.053c-1.179-.594-2.437-.987-3.71-1.27a26 26 0 0 0-1.376 2.682 9.4 9.4 0 0 0-1.445-.115v-.001h-.018a9.4 9.4 0 0 0-1.445.116 26 26 0 0 0-1.378-2.682M25.592 29.66a2.723 2.723 0 1 1 .002 5.446 2.723 2.723 0 0 1-.002-5.446m12.816 0a2.723 2.723 0 1 1 0 5.446 2.723 2.723 0 0 1 0-5.446M32 31.252c.484 0 .877.357.877.797v2.508c0 .44-.393.796-.877.796-.485 0-.877-.356-.877-.796v-2.508c0-.44.392-.797.877-.797" style="fill:#fff;fill-opacity:1;fill-rule:nonzero;stroke:none;stroke-width:.0399999" transform="translate(.42 4.748)"/><path d="m40.162 38.129-.14 2.005a.49.49 0 0 1-.451.452l-4.815.344h-.035a.49.49 0 0 1-.48-.415l-.277-1.872h-3.928l-.277 1.872a.486.486 0 0 1-.516.415l-4.814-.344a.49.49 0 0 1-.451-.452l-.14-2.005-4.065-.392c.002.436.008.915.008 1.01 0 4.293 5.445 6.356 12.21 6.38h.017c6.766-.024 12.209-2.087 12.209-6.38 0-.097.006-.573.008-1.01zM27.66 32.543a1.807 1.807 0 1 1-3.614 0 1.807 1.807 0 0 1 3.615 0M36.339 32.543a1.807 1.807 0 1 0 3.614 0 1.807 1.807 0 0 0-3.614 0" style="fill:#fff;fill-opacity:1;fill-rule:nonzero;stroke:none;stroke-width:.0399999" transform="translate(.42 4.748)"/></g></svg>