<svg xmlns="http://www.w3.org/2000/svg" xmlns:xlink="http://www.w3.org/1999/xlink" width="64" height="64"><defs><linearGradient id="a"><stop offset="0" style="stop-color:#fff;stop-opacity:0"/><stop offset="1" style="stop-color:#fff;stop-opacity:.2"/></linearGradient><linearGradient xlink:href="#a" id="b" x1="58" x2="58" y1="393.953" y2="324.659" gradientTransform="matrix(1 0 0 .84587 -47 -272.735)" gradientUnits="userSpaceOnUse"/></defs><path d="M13.084 11A6.07 6.07 0 0 0 7 17.084v37.832A6.07 6.07 0 0 0 13.084 61h37.832A6.07 6.07 0 0 0 57 54.916V17.084A6.07 6.07 0 0 0 50.916 11Z" style="color:#000;clip-rule:nonzero;display:inline;overflow:visible;visibility:visible;opacity:1;isolation:auto;mix-blend-mode:normal;color-interpolation:sRGB;color-interpolation-filters:linearRGB;solid-color:#000;solid-opacity:1;fill:#e6506e;fill-opacity:1;fill-rule:nonzero;stroke:none;stroke-width:1;stroke-linecap:butt;stroke-linejoin:miter;stroke-miterlimit:4;stroke-dasharray:none;stroke-dashoffset:0;stroke-opacity:1;marker:none;color-rendering:auto;image-rendering:auto;shape-rendering:auto;text-rendering:auto"/><path d="M21.536 57.937c-1.18-.197-2.872-.865-3.92-1.549-2.302-1.501-3.806-3.168-4.736-5.25-.31-.692-.478-1.23-.961-3.056-.12-.454-.27-.954-.333-1.11-.105-.266-.11-.355-.064-1.24.044-.84.186-1.976.262-2.095.015-.024.05-.029.078-.013.094.056.18-.202.266-.79.047-.323.12-.66.163-.751s.116-.292.162-.446c.106-.355.251-.628.698-1.316.197-.303.402-.632.455-.733.062-.118.13-.175.194-.163.06.011.16-.065.265-.203.454-.6 2.596-2.371 2.794-2.311.055.016.28-.058.503-.165.402-.194.579-.24.579-.147 0 .026-.059.087-.13.134-.124.083-.122.084.072.04.11-.026.297-.063.413-.082q.216-.034.184-.108c-.018-.043.024-.087.103-.107.197-.05.505-.042.505.014 0 .067-.176.135-.316.122-.095-.01-.1-.001-.028.045.07.047.071.057.005.058-.045 0-.067.015-.049.032s.138-.02.266-.083.363-.14.522-.173c.195-.04.288-.087.288-.145 0-.074.091-.08.703-.049.386.02.97.079 1.296.13.593.092.593.092.814-.03.265-.146.692-.165.804-.036a1 1 0 0 0 .25.174c.159.079.17.079.103.001-.127-.147-.001-.143.489.015 1.58.508 2.87 1.412 3.825 2.685.227.302.24.438.026.254l-.123-.105.094.176a.8.8 0 0 1 .094.242c0 .036.152.304.338.595.418.655.535.876.507.957-.012.034-.197-.196-.412-.513a14 14 0 0 0-.706-.949c-.259-.306-.327-.358-.38-.293a.34.34 0 0 1-.192.098l-.128.017.127.238c.07.131.135.212.147.18.06-.175.341.054.469.38.041.107.151.325.245.486.093.16.157.303.143.317s-.1-.03-.189-.098l-.163-.123.111.183c.062.1.164.224.228.273.08.063.118.16.121.313.007.282.175.615.266.527.143-.136.172-.05.136.397-.026.33-.012.548.05.779.096.35.075.437-.064.273-.088-.104-.09-.104-.05.004.085.232.149.578.131.715-.033.254-.132.148-.166-.177l-.034-.318-.01.338c-.005.186-.05.545-.1.798-.052.256-.077.566-.059.697.035.248.01.257-.205.08-.088-.072-.103-.058-.163.157-.05.18-.05.284.002.435.037.109.06.257.048.328-.025.166-.163.218-.163.061 0-.196-.078-.126-.315.284-.642 1.106-1.658 1.962-2.807 2.366-.678.238-1.133.326-1.897.368l-.688.038.34.1c.274.082.435.094.832.063.519-.04 1.129-.148 1.405-.25q.165-.06.223-.005c.09.086-.709.425-1.183.502-.807.131-1.887-.01-2.84-.372-.647-.245-1.607-.883-1.46-.97.028-.017.21.067.406.185.25.152.355.192.355.135 0-.108.037-.103.235.032.18.123.73.35 1.127.465.433.126.265-.026-.315-.286-1.835-.82-2.597-1.642-2.976-3.208-.14-.574.01-1.834.263-2.228.065-.1.117-.223.117-.273 0-.218.38-.794.768-1.168.686-.657 1.398-.93 2.323-.89.448.02.639.058 1.01.2.423.161.954.499.791.502a2 2 0 0 1-.372-.12c-.254-.1-.416-.121-.992-.123-.808-.003-1.203.107-1.778.495-.815.55-1.269 1.185-1.43 1.999-.107.546-.11.698-.026 1.24.048.312.082.404.143.382.05-.02.08.009.08.075 0 .194.439.98.743 1.33.733.845 1.918 1.384 3.042 1.384.584 0 1.056-.107 1.49-.34.175-.092.395-.206.49-.252.333-.163.54-.348.783-.702.134-.196.28-.357.325-.357.065 0 .063.028-.015.151-.256.406.345-.332.656-.805l.348-.53-.038-.348c-.036-.334-.03-.355.136-.523.16-.161.175-.21.193-.642.017-.387.005-.467-.066-.468-.066 0-.094-.102-.123-.44-.037-.449-.418-1.956-.506-2.009-.027-.016-.1-.16-.165-.322-.215-.545-.594-1.068-1.183-1.639-.849-.82-1.917-1.454-2.927-1.735-.859-.24-2.317-.152-3.355.2-.507.171-1.007.399-1.091.496-.038.044-.094.066-.123.049-.031-.019-.023-.068.02-.118.192-.22-.443.184-.852.544-.247.218-.458.402-.47.41-.01.008.038 0 .107-.017.117-.029.121-.021.058.092-.04.072-.25.202-.508.315-.433.188-.713.395-.936.692-.088.118-.094.144-.023.118.049-.018.09-.007.09.025 0 .157-.15.333-.37.436-.488.227-1.347 1.444-1.806 2.56-.205.498-.202.48-.09.48.117 0 .109.128-.052.816-.235 1-.236.969.02 2.377.312 1.716.494 2.29.84 2.644.081.084.16.261.196.439a.87.87 0 0 0 .244.486c.12.122.16.197.114.213-.09.032.194.438.453.647.13.106.227.141.331.122.23-.042.463.085.822.446.373.375.41.476.163.442-.159-.023-.162-.019-.084.096.045.066.211.225.37.353.221.18.278.257.25.341-.04.121.075.234.333.33.16.058.212.185.092.224-.037.011.19.234.502.495.352.294.589.456.622.424.09-.083.204-.058.206.046.002.112.103.23.468.547.23.2.287.224.428.187.13-.034.21-.012.393.106.363.235.583.33.771.33.186 0 .212.05.116.223-.051.092-.04.107.077.107.075 0 .286.05.47.11.417.137.59.147.486.026-.154-.179.01-.13.561.167.77.415 1.16.462 2.695.328.228-.02.302-.008.302.047 0 .048-.198.12-.56.204-.476.11-.73.131-1.706.143-.77.01-1.295-.01-1.596-.06zm-.785-8.252a.6.6 0 0 0-.158-.113l-.157-.092.135.113c.132.11.18.135.18.092m7.898-5.769q-.03-.064-.035.034c-.003.058.011.09.03.072.02-.019.021-.066.004-.106zm-13.053-5.81c.071-.088.07-.09-.022-.021-.055.041-.1.085-.1.096 0 .045.047.016.122-.075m.652-.51c.058-.06.091-.11.076-.11a.5.5 0 0 0-.133.11c-.057.06-.09.11-.075.11.016 0 .075-.05.132-.11m.722-.387c.19-.061.297-.072.337-.034.04.039.188.016.463-.07.223-.07.394-.138.382-.15s-.196.034-.407.102c-.29.093-.395.106-.428.056-.054-.085-.576.083-.8.257l-.154.12.165-.095c.09-.053.29-.136.442-.186m1.654-.14c.167-.047.293-.095.28-.107-.026-.026-.62.138-.62.17 0 .034.006.033.34-.062m.951-.3.23-.04-.201-.005a.76.76 0 0 0-.344.08q-.14.082-.029.045c.063-.022.218-.057.344-.08zm.456-.103c.018-.028-.02-.037-.083-.021-.134.033-.15.07-.032.07.046 0 .097-.022.115-.05m1.852.016c-.02-.018-.069-.02-.11-.004q-.067.028.035.034c.06.002.094-.011.075-.03zm-.343-.06a.5.5 0 0 0-.2 0c-.056.014-.01.026.1.026s.155-.011.1-.025m-.572-.056a3 3 0 0 0-.46 0c-.134.01-.038.02.214.02.253 0 .363-.008.246-.02m-.749-.049c-.019-.018-.068-.02-.11-.004q-.067.027.035.034c.06.002.094-.011.075-.03zm-.388 13.23c-.584-.401-.8-.609-.8-.768 0-.084.02-.153.044-.153.082 0 1.06.978 1.038 1.04-.013.035-.13-.014-.282-.118m-.3-1.02c-.304-.294-.401-.452-.279-.452.074 0 .639.62.639.701 0 .039-.007.07-.016.07s-.164-.143-.344-.318m3.357-1.204c-.16-.062-.06-.177.2-.23.15-.032.389-.106.53-.167.141-.06.267-.1.28-.089.012.012-.052.135-.143.272-.164.249-.166.25-.48.246a2 2 0 0 1-.387-.032m1.72-1.231c-.154-.06-.16-.162-.031-.508.11-.297.226-.356.162-.082a10 10 0 0 0-.069.316l-.026.138.114-.125c.068-.075.131-.249.154-.426.022-.166.062-.288.09-.271.071.042.064.477-.013.77-.067.256-.127.285-.38.188M11.036 45.6c-.02-.048-.035-.236-.035-.418 0-.24.02-.324.072-.307.085.027.135.812.051.812-.03 0-.069-.04-.088-.087m13.799-1.288c-.09-.115-.117-.207-.091-.303.052-.199.187-.17.288.06.155.357.02.525-.197.243m-13.811-.874c-.004-.312 0-.321.144-.316.122.004.152.035.166.173.016.156-.161.465-.266.465-.022 0-.042-.144-.044-.322m14.868-6.766c.008-.493.095-.66.162-.315.047.24-.013.665-.104.737-.05.04-.064-.068-.058-.422m-7.537-.296c.023-.066.815-.377.96-.377.172 0-.135.202-.49.322-.396.134-.501.146-.47.055" style="color:#000;clip-rule:nonzero;display:inline;overflow:visible;visibility:visible;opacity:.75;isolation:auto;mix-blend-mode:normal;color-interpolation:sRGB;color-interpolation-filters:linearRGB;solid-color:#000;solid-opacity:1;fill:#fff;fill-opacity:1;fill-rule:nonzero;stroke-width:1;stroke-linecap:butt;stroke-linejoin:miter;stroke-miterlimit:4;stroke-dasharray:none;stroke-dashoffset:0;stroke-opacity:1;color-rendering:auto;image-rendering:auto;shape-rendering:auto;text-rendering:auto"/><path d="M40 12v2h2v-2zm2 2v2h2v-2zm0 2h-2v2h2zm0 2v2h2v-2zm0 2h-2v2h2zm0 2v2h2v-2zm0 2h-2v2h2zm-2 3v4h1v4h2v-4h1v-4zm1 1h2v2h-2z" style="opacity:.75;fill:#fff;fill-opacity:1"/><path d="M13.084 11A6.07 6.07 0 0 0 7 17.084v1.014a6.07 6.07 0 0 1 6.084-6.084h37.832A6.07 6.07 0 0 1 57 18.098v-1.014A6.07 6.07 0 0 0 50.916 11Z" style="color:#000;clip-rule:nonzero;display:inline;overflow:visible;visibility:visible;opacity:.5;isolation:auto;mix-blend-mode:normal;color-interpolation:sRGB;color-interpolation-filters:linearRGB;solid-color:#000;solid-opacity:1;fill:#fff;fill-opacity:1;fill-rule:nonzero;stroke:none;stroke-width:1;stroke-linecap:butt;stroke-linejoin:miter;stroke-miterlimit:4;stroke-dasharray:none;stroke-dashoffset:0;stroke-opacity:1;marker:none;color-rendering:auto;image-rendering:auto;shape-rendering:auto;text-rendering:auto"/><path d="M57 54.03a6.07 6.07 0 0 1-6.084 6.084H13.084A6.07 6.07 0 0 1 7 54.03v.886A6.07 6.07 0 0 0 13.084 61h37.832A6.07 6.07 0 0 0 57 54.916Z" style="color:#000;clip-rule:nonzero;display:inline;overflow:visible;visibility:visible;opacity:.25;isolation:auto;mix-blend-mode:normal;color-interpolation:sRGB;color-interpolation-filters:linearRGB;solid-color:#000;solid-opacity:1;fill:#000;fill-opacity:1;fill-rule:nonzero;stroke:none;stroke-width:1;stroke-linecap:butt;stroke-linejoin:miter;stroke-miterlimit:4;stroke-dasharray:none;stroke-dashoffset:0;stroke-opacity:1;marker:none;color-rendering:auto;image-rendering:auto;shape-rendering:auto;text-rendering:auto"/><path d="M13.084 11A6.07 6.07 0 0 0 7 17.084v37.832A6.07 6.07 0 0 0 13.084 61h37.832A6.07 6.07 0 0 0 57 54.916V17.084A6.07 6.07 0 0 0 50.916 11Z" style="color:#000;clip-rule:nonzero;display:inline;overflow:visible;visibility:visible;opacity:.55199998;isolation:auto;mix-blend-mode:normal;color-interpolation:sRGB;color-interpolation-filters:linearRGB;solid-color:#000;solid-opacity:1;fill:url(#b);fill-opacity:1;fill-rule:nonzero;stroke:none;stroke-width:1;stroke-linecap:butt;stroke-linejoin:miter;stroke-miterlimit:4;stroke-dasharray:none;stroke-dashoffset:0;stroke-opacity:1;marker:none;color-rendering:auto;image-rendering:auto;shape-rendering:auto;text-rendering:auto"/></svg>