<svg xmlns="http://www.w3.org/2000/svg" width="64" height="64"><defs><linearGradient id="a" x2="0" y1="3" y2="61" gradientTransform="matrix(1 0 0 -1 0 64)" gradientUnits="userSpaceOnUse"><stop stop-color="#cf000f"/><stop offset="1" stop-color="#d91e18"/></linearGradient><linearGradient id="b" x2="0" y1="61" y2="47" gradientTransform="matrix(1 0 0 -1 0 64)" gradientUnits="userSpaceOnUse"><stop offset="0" stop-color="#fb9fa2"/><stop offset="1" stop-color="#fb7d80"/></linearGradient><linearGradient id="c" x1="40" x2="54" y1="17" y2="31" gradientUnits="userSpaceOnUse"><stop stop-color="#383e51"/><stop offset="1" stop-color="#655c6f" stop-opacity="0"/></linearGradient></defs><path fill="url(#a)" d="M15 61c-3 0-5-2-5-5V8c0-3 2-5 5-5h25l14 14v39c0 3-2 5-5 5h-9z"/><g fill-rule="evenodd"><path fill="url(#b)" d="M54 17 40 3v14z"/><path fill="url(#c)" d="m40 17 14 14V17z" opacity=".2"/></g><path fill="#fcbcbe" d="M32 19.333c-4.432 0-8 3.568-8 8a7.97 7.97 0 0 0 3.111 6.33V46L32 42.444 36.889 46V33.663A7.97 7.97 0 0 0 40 27.333c0-4.432-3.568-8-8-8"/><path d="M40 2.9H15c-2.77 0-5 2.23-5 5v1.014a5 5 0 0 1 1.46-3.54A5 5 0 0 1 15 3.915h25V3.9Z" style="opacity:.5;fill:#fff"/><path d="M54 54.9a5 5 0 0 1-1.46 3.538A5 5 0 0 1 49 59.9H15a5 5 0 0 1-3.54-1.46A5 5 0 0 1 10 54.9v1.14c0 2.77 2.23 5 5 5h34c2.77 0 5-2.23 5-5z" style="opacity:.25;fill-opacity:.992"/></svg>