<svg xmlns="http://www.w3.org/2000/svg" width="64" height="64"><defs><linearGradient id="a" x1="41.616" x2="54" y1="17.475" y2="31" gradientUnits="userSpaceOnUse"><stop stop-color="#060606"/><stop offset="1" stop-opacity="0"/></linearGradient></defs><path d="M40 3H15c-2.77 0-5 2.23-5 5v48c0 2.77 2.23 5 5 5h34c2.77 0 5-2.23 5-5V17Z" style="fill:#326197"/><path d="m33.407 24.508-3.128 18.395-3.16-6.683L18 41.448a16.452 16.514 0 0 0 .248.724l7.944-3.673 4.842 10.009 3.694-22.935L46 25.358a16.452 16.514 0 0 0-.574-.657z" style="opacity:.9;fill:#fff"/><path d="M40 3H15c-2.77 0-5 2.23-5 5v1.014a5 5 0 0 1 1.46-3.54A5 5 0 0 1 15 4.015h25V4Z" style="opacity:.5;fill:#fff"/><path d="M54 54.86a5 5 0 0 1-1.46 3.538A5 5 0 0 1 49 59.86H15a5 5 0 0 1-3.54-1.46A5 5 0 0 1 10 54.86V56c0 2.77 2.23 5 5 5h34c2.77 0 5-2.23 5-5z" style="opacity:.25;fill-opacity:.99199997"/><path d="M40 3v11.535A2.456 2.456 0 0 0 42.465 17H54Z" style="opacity:.5;fill:#fff;fill-rule:evenodd"/><path d="M40.73 16.283 54 31V17H42.465c-.68 0-1.29-.276-1.735-.717" style="opacity:.1;fill:url(#a);fill-rule:evenodd"/></svg>