<svg xmlns="http://www.w3.org/2000/svg" xmlns:xlink="http://www.w3.org/1999/xlink" width="64" height="64"><defs><linearGradient xlink:href="#a" id="b" x1="0" x2="0" y1="60.774" y2="2.345" gradientUnits="userSpaceOnUse"/><linearGradient id="a" x2="0" y1="392.36" y2="336.36" gradientTransform="translate(254 -254)" gradientUnits="userSpaceOnUse"><stop stop-color="#fff" stop-opacity="0"/><stop offset="1" stop-color="#fff" stop-opacity=".2"/></linearGradient><linearGradient id="c" x1="41.616" x2="54" y1="17.475" y2="31" gradientUnits="userSpaceOnUse"><stop stop-color="#060606"/><stop offset="1" stop-opacity="0"/></linearGradient></defs><path d="M40 3H15c-2.77 0-5 2.23-5 5v48c0 2.77 2.23 5 5 5h34c2.77 0 5-2.23 5-5V17Z" style="fill:#fc963a"/><path d="M30 22v6h1v-6zm4 2v3h1v-3zm-8 1v4h1v-4zm-3 5v7c0 3.324 2.676 6 6 6h-5v1h14v-1h-5a5.98 5.98 0 0 0 5.652-4H40.5c1.385 0 2.5-1.115 2.5-2.5v-2c0-1.385-1.115-2.5-2.5-2.5H39v-2zm1 1h14v6c0 2.77-2.23 5-5 5h-4c-2.77 0-5-2.23-5-5zm15 2h1.672c.736 0 1.328.592 1.328 1.328v2.344c0 .736-.592 1.328-1.328 1.328H38.91c.054-.326.09-.658.09-1Z" style="opacity:.7"/><path d="M40 3H15c-2.77 0-5 2.23-5 5v48c0 2.77 2.23 5 5 5h34c2.77 0 5-2.23 5-5V17Z" style="fill:url(#b)"/><path d="M40 3H15c-2.77 0-5 2.23-5 5v1.014a5 5 0 0 1 1.46-3.54A5 5 0 0 1 15 4.015h25V4Z" style="opacity:.5;fill:#fff"/><path d="M54 54.86a5 5 0 0 1-1.46 3.538A5 5 0 0 1 49 59.86H15a5 5 0 0 1-3.54-1.46A5 5 0 0 1 10 54.86V56c0 2.77 2.23 5 5 5h34c2.77 0 5-2.23 5-5z" style="opacity:.25;fill-opacity:.99199997"/><path d="M40 3v11.535A2.456 2.456 0 0 0 42.465 17H54Z" style="fill:#66380e;fill-rule:evenodd"/><path d="M40.73 16.283 54 31V17H42.465c-.68 0-1.29-.276-1.735-.717" style="opacity:.2;fill:url(#c);fill-rule:evenodd"/></svg>