<svg xmlns="http://www.w3.org/2000/svg" xmlns:xlink="http://www.w3.org/1999/xlink" width="64" height="64"><defs><linearGradient xlink:href="#a" id="b" x1="0" x2="0" y1="60.774" y2="2.345" gradientUnits="userSpaceOnUse"/><linearGradient id="a" x2="0" y1="392.36" y2="336.36" gradientTransform="translate(254 -254)" gradientUnits="userSpaceOnUse"><stop stop-color="#fff" stop-opacity="0"/><stop offset="1" stop-color="#fff" stop-opacity=".2"/></linearGradient><linearGradient id="c" x1="41.616" x2="54" y1="17.475" y2="31" gradientUnits="userSpaceOnUse"><stop stop-color="#060606"/><stop offset="1" stop-opacity="0"/></linearGradient></defs><path d="M40 3H15c-2.77 0-5 2.23-5 5v48c0 2.77 2.23 5 5 5h34c2.77 0 5-2.23 5-5V17Z" style="fill:#555"/><path d="M30.3 20c-1.254 0-2.889.693-4.384 1.857-.897.377-1.527 1.249-1.527 2.263 0 .318.061.628.179.917-1.55.294-2.724 1.629-2.724 3.23q0 .501.152.978c-.639.617-1 1.454-1 2.339 0 .692.22 1.334.595 1.865a3.2 3.2 0 0 0-.595 1.868c0 1.197.667 2.293 1.724 2.871a4 4 0 0 0-.027.446c0 1.614 1.078 3.041 2.64 3.527a3.8 3.8 0 0 0 3.27 1.838 3.8 3.8 0 0 0 3.393-2.057 3.8 3.8 0 0 0 3.393 2.057 3.8 3.8 0 0 0 3.272-1.838c1.563-.486 2.638-1.913 2.638-3.527q0-.224-.027-.446a3.28 3.28 0 0 0 1.724-2.871c0-.676-.204-1.318-.593-1.868.374-.53.593-1.173.593-1.865 0-.885-.361-1.723-1-2.339q.152-.477.152-.978c0-1.6-1.174-2.936-2.724-3.23a2.4 2.4 0 0 0 .179-.917c0-1.014-.63-1.886-1.527-2.263C36.581 20.693 34.947 20 33.692 20a2.11 2.11 0 0 0-1.697.85 2.1 2.1 0 0 0-1.697-.85m0 .778c.716 0 1.299.57 1.299 1.27v5.03a2.1 2.1 0 0 0-1.299-.444.393.393 0 0 0-.398.389c0 .215.178.389.398.389.716 0 1.299.57 1.299 1.27v9.344a3.8 3.8 0 0 0-2.01-1.31.4.4 0 0 0-.488.275.39.39 0 0 0 .281.477c1.306.343 2.217 1.505 2.217 2.826 0 1.615-1.344 2.929-2.995 2.929a3 3 0 0 1-2.65-1.569.4.4 0 0 0-.25-.194c-1.305-.343-2.215-1.504-2.215-2.824q0-.298.06-.589a.39.39 0 0 0-.228-.433 2.51 2.51 0 0 1-1.529-2.296c0-.451.119-.882.347-1.264a3.4 3.4 0 0 0 2.223.824c.22 0 .398-.174.398-.389a.393.393 0 0 0-.398-.389c-1.418 0-2.57-1.129-2.57-2.515 0-.746.337-1.45.924-1.929a.38.38 0 0 0 .113-.444 2.4 2.4 0 0 1-.189-.944c0-1.386 1.152-2.513 2.57-2.513s2.572 1.127 2.572 2.513c0 .215.178.389.398.389s.398-.174.398-.389c0-1.744-1.395-3.174-3.151-3.283a1.65 1.65 0 0 1-.242-.864c0-.693.43-1.288 1.043-1.546a.3.3 0 0 0 .068-.029q.286-.108.61-.109c.666 0 1.261.364 1.552.949a.4.4 0 0 0 .53.179.383.383 0 0 0 .183-.519 2.52 2.52 0 0 0-1.685-1.319c1.015-.605 2.01-.949 2.812-.949m3.393 0c.798 0 1.797.344 2.812.949a2.53 2.53 0 0 0-1.685 1.319.384.384 0 0 0 .183.519.4.4 0 0 0 .532-.179 1.71 1.71 0 0 1 1.55-.949 1.7 1.7 0 0 1 .68.138 1.68 1.68 0 0 1 1.043 1.546c0 .307-.085.604-.244.864-1.756.109-3.149 1.539-3.149 3.283 0 .215.178.389.398.389s.398-.174.398-.389c0-1.386 1.152-2.513 2.57-2.513s2.572 1.127 2.572 2.513q0 .488-.189.944a.38.38 0 0 0 .113.444c.587.48.924 1.183.924 1.929 0 1.386-1.154 2.515-2.572 2.515a.393.393 0 0 0-.398.389c0 .215.178.389.398.389.852 0 1.629-.312 2.223-.824.228.382.349.813.349 1.264 0 .991-.6 1.892-1.529 2.296a.39.39 0 0 0-.228.433c.04.193.06.392.06.589 0 1.32-.912 2.48-2.217 2.824a.4.4 0 0 0-.248.194 3 3 0 0 1-2.652 1.569c-1.652 0-2.995-1.314-2.995-2.929q0-.165-.016-.326a.4.4 0 0 0 .016-.103V27.024c0-.7.583-1.27 1.299-1.27.22 0 .398-.174.398-.389a.393.393 0 0 0-.398-.389c-.49 0-.941.167-1.299.444v-3.373c0-.7.583-1.27 1.299-1.27m5.938 6.686a.393.393 0 0 0-.398.389c0 1.386-1.152 2.513-2.57 2.513a2.58 2.58 0 0 1-1.837-.753.407.407 0 0 0-.564-.006.38.38 0 0 0-.006.549c.551.55 1.264.887 2.036.969.183 1.183 1.23 2.093 2.49 2.093.22 0 .398-.174.398-.389a.393.393 0 0 0-.398-.389 1.72 1.72 0 0 1-1.683-1.325c1.65-.211 2.929-1.592 2.929-3.262a.393.393 0 0 0-.398-.389m-14.42.416a.39.39 0 0 0-.398.387c0 1.67 1.279 3.054 2.929 3.264a1.716 1.716 0 0 1-1.683 1.323.393.393 0 0 0-.398.389c0 .215.178.389.398.389 1.26 0 2.308-.91 2.49-2.093a3.37 3.37 0 0 0 2.036-.967.384.384 0 0 0-.006-.551.403.403 0 0 0-.562.006 2.58 2.58 0 0 1-1.837.755c-1.418 0-2.572-1.129-2.572-2.515a.39.39 0 0 0-.398-.387m8.483 5.804a.393.393 0 0 0-.398.389c0 .215.178.389.398.389 1.418 0 2.572 1.129 2.572 2.515q0 .133-.016.265c-1.234.489-2.106 1.673-2.106 3.052 0 .215.178.389.398.389s.398-.174.398-.389c0-1.386 1.154-2.515 2.572-2.515.22 0 .398-.174.398-.389a.393.393 0 0 0-.398-.389q-.23 0-.452.031l.002-.055c0-1.815-1.511-3.293-3.368-3.293m-4.664.829c-1.856 0-3.368 1.478-3.368 3.293l.002.055a4 4 0 0 0-.452-.031.393.393 0 0 0-.398.389c0 .215.178.389.398.389 1.418 0 2.572 1.129 2.572 2.515 0 .215.178.389.398.389s.398-.174.398-.389c0-1.379-.872-2.564-2.106-3.052a3 3 0 0 1-.016-.265c0-1.386 1.154-2.515 2.572-2.515.22 0 .398-.174.398-.389a.393.393 0 0 0-.398-.389" overflow="visible" style="color:#000;overflow:visible;opacity:.75;isolation:auto;mix-blend-mode:normal;solid-color:#000;solid-opacity:1;fill:#e0e0e0"/><path d="M40 3H15c-2.77 0-5 2.23-5 5v48c0 2.77 2.23 5 5 5h34c2.77 0 5-2.23 5-5V17Z" style="fill:url(#b)"/><path d="M40 3H15c-2.77 0-5 2.23-5 5v1.014a5 5 0 0 1 1.46-3.54A5 5 0 0 1 15 4.015h25V4Z" style="opacity:.5;fill:#fff"/><path d="M54 54.86a5 5 0 0 1-1.46 3.538A5 5 0 0 1 49 59.86H15a5 5 0 0 1-3.54-1.46A5 5 0 0 1 10 54.86V56c0 2.77 2.23 5 5 5h34c2.77 0 5-2.23 5-5z" style="opacity:.25;fill-opacity:.99199997"/><path d="M40 3v11.535A2.456 2.456 0 0 0 42.465 17H54Z" style="opacity:.5;fill:#fff;fill-rule:evenodd"/><path d="M40.73 16.283 54 31V17H42.465c-.68 0-1.29-.276-1.735-.717" style="opacity:.1;fill:url(#c);fill-rule:evenodd"/></svg>