<svg xmlns="http://www.w3.org/2000/svg" xmlns:xlink="http://www.w3.org/1999/xlink" width="64" height="64"><defs><linearGradient id="a"><stop offset="0" style="stop-color:#fff;stop-opacity:0"/><stop offset="1" style="stop-color:#fff;stop-opacity:.2"/></linearGradient><linearGradient xlink:href="#a" id="b" x1="58" x2="58" y1="393.953" y2="324.659" gradientTransform="matrix(1 0 0 .84587 -47 -272.735)" gradientUnits="userSpaceOnUse"/></defs><path d="M13.084 11A6.07 6.07 0 0 0 7 17.084v37.832A6.07 6.07 0 0 0 13.084 61h37.832A6.07 6.07 0 0 0 57 54.916V17.084A6.07 6.07 0 0 0 50.916 11z" style="color:#000;clip-rule:nonzero;display:inline;overflow:visible;visibility:visible;opacity:1;isolation:auto;mix-blend-mode:normal;color-interpolation:sRGB;color-interpolation-filters:linearRGB;solid-color:#000;solid-opacity:1;fill:#ff8b23;fill-opacity:1;fill-rule:nonzero;stroke:none;stroke-width:1;stroke-linecap:butt;stroke-linejoin:miter;stroke-miterlimit:4;stroke-dasharray:none;stroke-dashoffset:0;stroke-opacity:1;marker:none;color-rendering:auto;image-rendering:auto;shape-rendering:auto;text-rendering:auto"/><path d="M20 35v6h1v-6zm4 2v3h1v-3zm-8 1v4h1v-4zm-3 5v7c0 3.324 2.676 6 6 6h-5v1h14v-1h-5a5.98 5.98 0 0 0 5.652-4H30.5c1.385 0 2.5-1.115 2.5-2.5v-2c0-1.385-1.115-2.5-2.5-2.5H29v-2zm1 1h14v6c0 2.77-2.23 5-5 5h-4c-2.77 0-5-2.23-5-5zm15 2h1.672c.736 0 1.328.592 1.328 1.328v2.344c0 .736-.592 1.328-1.328 1.328H28.91c.054-.326.09-.658.09-1zM40 12v2h2v-2zm2 2v2h2v-2zm0 2h-2v2h2zm0 2v2h2v-2zm0 2h-2v2h2zm0 2v2h2v-2zm0 2h-2v2h2zm-2 3v4h1v4h2v-4h1v-4zm1 1h2v2h-2z" style="opacity:.4;fill:#000;fill-opacity:1"/><path d="M13.084 11A6.07 6.07 0 0 0 7 17.084v37.832A6.07 6.07 0 0 0 13.084 61h37.832A6.07 6.07 0 0 0 57 54.916V17.084A6.07 6.07 0 0 0 50.916 11z" style="color:#000;clip-rule:nonzero;display:inline;overflow:visible;visibility:visible;opacity:.55199998;isolation:auto;mix-blend-mode:normal;color-interpolation:sRGB;color-interpolation-filters:linearRGB;solid-color:#000;solid-opacity:1;fill:url(#b);fill-opacity:1;fill-rule:nonzero;stroke:none;stroke-width:1;stroke-linecap:butt;stroke-linejoin:miter;stroke-miterlimit:4;stroke-dasharray:none;stroke-dashoffset:0;stroke-opacity:1;marker:none;color-rendering:auto;image-rendering:auto;shape-rendering:auto;text-rendering:auto"/><path d="M13.084 11A6.07 6.07 0 0 0 7 17.084v1.014a6.07 6.07 0 0 1 6.084-6.084h37.832A6.07 6.07 0 0 1 57 18.098v-1.014A6.07 6.07 0 0 0 50.916 11z" style="color:#000;clip-rule:nonzero;display:inline;overflow:visible;visibility:visible;opacity:.5;isolation:auto;mix-blend-mode:normal;color-interpolation:sRGB;color-interpolation-filters:linearRGB;solid-color:#000;solid-opacity:1;fill:#fff;fill-opacity:1;fill-rule:nonzero;stroke:none;stroke-width:1;stroke-linecap:butt;stroke-linejoin:miter;stroke-miterlimit:4;stroke-dasharray:none;stroke-dashoffset:0;stroke-opacity:1;marker:none;color-rendering:auto;image-rendering:auto;shape-rendering:auto;text-rendering:auto"/><path d="M57 54.03a6.07 6.07 0 0 1-6.084 6.084H13.084A6.07 6.07 0 0 1 7 54.03v.886A6.07 6.07 0 0 0 13.084 61h37.832A6.07 6.07 0 0 0 57 54.916Z" style="color:#000;clip-rule:nonzero;display:inline;overflow:visible;visibility:visible;opacity:.25;isolation:auto;mix-blend-mode:normal;color-interpolation:sRGB;color-interpolation-filters:linearRGB;solid-color:#000;solid-opacity:1;fill:#000;fill-opacity:1;fill-rule:nonzero;stroke:none;stroke-width:1;stroke-linecap:butt;stroke-linejoin:miter;stroke-miterlimit:4;stroke-dasharray:none;stroke-dashoffset:0;stroke-opacity:1;marker:none;color-rendering:auto;image-rendering:auto;shape-rendering:auto;text-rendering:auto"/></svg>