<svg xmlns="http://www.w3.org/2000/svg" xmlns:xlink="http://www.w3.org/1999/xlink" width="64" height="64"><defs><linearGradient xlink:href="#a" id="b" x1="0" x2="0" y1="60.774" y2="2.345" gradientUnits="userSpaceOnUse"/><linearGradient id="a" x2="0" y1="392.36" y2="336.36" gradientTransform="translate(254 -254)" gradientUnits="userSpaceOnUse"><stop stop-color="#fff" stop-opacity="0"/><stop offset="1" stop-color="#fff" stop-opacity=".2"/></linearGradient><linearGradient id="c" x1="41.616" x2="54" y1="17.475" y2="31" gradientUnits="userSpaceOnUse"><stop stop-color="#060606"/><stop offset="1" stop-opacity="0"/></linearGradient></defs><path d="M40 3H15c-2.77 0-5 2.23-5 5v48c0 2.77 2.23 5 5 5h34c2.77 0 5-2.23 5-5V17Z" style="fill:#cea886"/><path d="M40 3H15c-2.77 0-5 2.23-5 5v48c0 2.77 2.23 5 5 5h34c2.77 0 5-2.23 5-5V17Z" style="fill:url(#b)"/><path d="M40 3H15c-2.77 0-5 2.23-5 5v1.014a5 5 0 0 1 1.46-3.54A5 5 0 0 1 15 4.015h25V4Z" style="opacity:.5;fill:#fff"/><path d="M54 54.86a5 5 0 0 1-1.46 3.538A5 5 0 0 1 49 59.86H15a5 5 0 0 1-3.54-1.46A5 5 0 0 1 10 54.86V56c0 2.77 2.23 5 5 5h34c2.77 0 5-2.23 5-5z" style="opacity:.25;fill-opacity:.99199997"/><path d="M40 3v11.535A2.456 2.456 0 0 0 42.465 17H54Z" style="opacity:.5;fill-rule:evenodd"/><path d="M40.73 16.283 54 31V17H42.465c-.68 0-1.29-.276-1.735-.717" style="opacity:.2;fill:url(#c);fill-rule:evenodd"/><path d="M29.694 41.36c-1.808 0-3.04-.906-2.712-3.214.411-2.884 2.136-3.832 7.601-4.615.04 0 1.725-.288 1.725-.288l-.699 5.109c-1.48 1.853-4.149 3.01-5.916 3.01m5.628-.248.083 2.389h2.341l2.136-15.45c.658-4.697-2.01-6.06-5.751-6.06-2.671 0-5.3.783-6.86 1.689l.451 2.554c1.685-.823 3.986-1.401 6.079-1.401 2.589 0 3.533 1.278 3.205 3.749l-.37 2.349-1.931.247c-4.97.783-9.819 1.566-10.598 7.086-.576 3.955 1.767 5.727 4.889 5.727 1.973 0 4.396-.741 6.327-2.884" overflow="visible" style="color:#000;overflow:visible;opacity:.4;isolation:auto;mix-blend-mode:normal;solid-color:#000;solid-opacity:1"/></svg>