<svg xmlns="http://www.w3.org/2000/svg" xmlns:xlink="http://www.w3.org/1999/xlink" width="64" height="64"><defs><linearGradient xlink:href="#a" id="b" x1="0" x2="0" y1="60.774" y2="2.345" gradientUnits="userSpaceOnUse"/><linearGradient id="a" x2="0" y1="392.36" y2="336.36" gradientTransform="translate(254 -254)" gradientUnits="userSpaceOnUse"><stop stop-color="#fff" stop-opacity="0"/><stop offset="1" stop-color="#fff" stop-opacity=".2"/></linearGradient><linearGradient id="c" x1="41.616" x2="54" y1="17.475" y2="31" gradientUnits="userSpaceOnUse"><stop stop-color="#060606"/><stop offset="1" stop-opacity="0"/></linearGradient></defs><path d="M40 3H15c-2.77 0-5 2.23-5 5v48c0 2.77 2.23 5 5 5h34c2.77 0 5-2.23 5-5V17Z" style="fill:#8542c2"/><path d="M32 22a11 3 0 0 0-2.125.059q-.03 0-.061.002c-.059.003-.113.008-.172.012a11 3 0 0 0-1.924.164 11 3 0 0 0-.002 0 11 3 0 0 0-1.782.263q-.055.009-.111.018a11 3 0 0 0-1.518.344q-.057.013-.113.027a11 3 0 0 0-1.215.4c-.057.022-.119.044-.174.066a11 3 0 0 0-.222.102c-.11.05-.22.1-.32.152a11 3 0 0 0-.194.11c-.093.053-.186.106-.268.161a11 3 0 0 0-.139.104q-.12.09-.22.182a11 3 0 0 0-.096.101 1.5 1.5 0 0 0-.154.188 11 3 0 0 0-.069.121 1 1 0 0 0-.074.166A11 3 0 0 0 21 25v10a11 3 0 0 0 1 1.242 11 3 0 0 0 .012.006 11 3 0 0 0 .476.252 11 3 0 0 0 .032.014 11 3 0 0 0 .55.232 11 3 0 0 0 .065.024 11 3 0 0 0 .59.2 11 3 0 0 0 .132.042 11 3 0 0 0 .65.18 11 3 0 0 0 .1.025 11 3 0 0 0 .774.176 11 3 0 0 0 .053.01 11 3 0 0 0 .814.15 11 3 0 0 0 .139.023 11 3 0 0 0 .779.115 11 3 0 0 0 .22.03 11 3 0 0 0 .737.082 11 3 0 0 0 .367.037 11 3 0 0 0 .54.045 11 3 0 0 0 .591.04 11 3 0 0 0 .49.026 11 3 0 0 0 .576.024 11 3 0 0 0 .463.013A11 3 0 0 0 32 38a11 3 0 0 0 .959-.014 11 3 0 0 0 .414-.013 11 3 0 0 0 .717-.03 11 3 0 0 0 .346-.021 11 3 0 0 0 .707-.049 11 3 0 0 0 .318-.03 11 3 0 0 0 .768-.075 11 3 0 0 0 .18-.022 11 3 0 0 0 .808-.107 11 3 0 0 0 .213-.035 11 3 0 0 0 .677-.112 11 3 0 0 0 .313-.06 11 3 0 0 0 .596-.125 11 3 0 0 0 .195-.047 11 3 0 0 0 .662-.168 11 3 0 0 0 .014-.004 11 3 0 0 0 .023-.008 11 3 0 0 0 .701-.219 11 3 0 0 0 .637-.244 11 3 0 0 0 .002 0 11 3 0 0 0 .006-.002 11 3 0 0 0 .535-.254 11 3 0 0 0 .006-.004 11 3 0 0 0 .203-.115A11 3 0 0 0 43 35v-4h-2.385c-1.732.596-4.922 1-8.615 1-5.523 0-10-.9-10-2v-3.758l.004.002a11 3 0 0 0 .744.371l.031.014a11 3 0 0 0 .93.34 11 3 0 0 0 1.058.287l.088.02a11 3 0 0 0 2.512.441l.11.014a11 3 0 0 0 1.316.137l.115.01a11 3 0 0 0 1.398.086q.162.006.326.01A11 3 0 0 0 32 28a11 3 0 0 0 3-.117v-.977a10 2 0 0 1-1 .053v-.01a43 43 0 0 1-4.016.01 43 43 0 0 1-1.714-.105 10 2 0 0 1-.29-.023 34 34 0 0 1-1.5-.164l-.095-.012a24 24 0 0 1-1.354-.225 10 2 0 0 1-.139-.026c-.393-.08-.746-.166-1.068-.258a10 2 0 0 1-.172-.049 7 7 0 0 1-.764-.28 10 2 0 0 1-.177-.079c-.03-.015-.054-.03-.082-.045a10 2 0 0 1-.233-.14l-.084-.066a10 2 0 0 1-.133-.118c-.027-.029-.047-.058-.068-.088a10 2 0 0 1-.068-.113C22.02 25.11 22 25.06 22 25a10 2 0 0 1 .2-.396 10 2 0 0 1 .622-.397 6.4 6.4 0 0 1 .816-.301 10 2 0 0 1 .104-.033 10 2 0 0 1 .004-.002q.515-.15 1.154-.277l.045-.01a24 24 0 0 1 1.375-.23 10 2 0 0 1 .142-.019c.456-.06.946-.113 1.451-.158a10 2 0 0 1 .35-.03 44 44 0 0 1 1.594-.099 10 2 0 0 1 .22-.01 43 43 0 0 1 3.923.013v-.01a10 2 0 0 1 1 .053v-.98A11 3 0 0 0 32 22m0 16h-1v3h1v1h-8v-1h-3v3h3v-1h16v1h3v-3h-3v1h-7v-1h1v-3zm7-16v3h1v-1.219A2.96 2.96 0 0 1 41 26c0 1.662-1.338 3-3 3h-2v1h2c2.216 0 4-1.784 4-4a3.95 3.95 0 0 0-1.373-3H42v-1zm-17 9.24c1.784 1.07 5.692 1.759 10 1.76 4.31-.001 8.22-.69 10-1.76V35a10 2 0 0 1-10 2 10 2 0 0 1-10-2v-2ZM32 39h1v1h-1zm-10 3h1v1h-1zm19 0h1v1h-1z" style="opacity:.75;fill:#fff"/><path d="M40 3H15c-2.77 0-5 2.23-5 5v48c0 2.77 2.23 5 5 5h34c2.77 0 5-2.23 5-5V17Z" style="fill:url(#b)"/><path d="M40 3H15c-2.77 0-5 2.23-5 5v1.014a5 5 0 0 1 1.46-3.54A5 5 0 0 1 15 4.015h25V4Z" style="opacity:.5;fill:#fff"/><path d="M54 54.86a5 5 0 0 1-1.46 3.538A5 5 0 0 1 49 59.86H15a5 5 0 0 1-3.54-1.46A5 5 0 0 1 10 54.86V56c0 2.77 2.23 5 5 5h34c2.77 0 5-2.23 5-5z" style="opacity:.25;fill-opacity:.99199997"/><path d="M40 3v11.535A2.456 2.456 0 0 0 42.465 17H54Z" style="opacity:.5;fill:#fff;fill-rule:evenodd"/><path d="M40.73 16.283 54 31V17H42.465c-.68 0-1.29-.276-1.735-.717" style="opacity:.1;fill:url(#c);fill-rule:evenodd"/></svg>