<svg xmlns="http://www.w3.org/2000/svg" xmlns:xlink="http://www.w3.org/1999/xlink" width="64" height="64"><defs><linearGradient id="e" x1="41.616" x2="54" y1="17.475" y2="31" gradientUnits="userSpaceOnUse"><stop stop-color="#060606"/><stop offset="1" stop-opacity="0"/></linearGradient><linearGradient xlink:href="#a" id="c" x1="10" x2="10" y1="61" y2="3" gradientTransform="translate(-40)" gradientUnits="userSpaceOnUse"/><linearGradient xlink:href="#b" id="d" x1="40" x2="40" y1="3" y2="21.562" gradientTransform="translate(-40)" gradientUnits="userSpaceOnUse"/></defs><linearGradient id="b" x2="0" y1="61" y2="47" gradientTransform="matrix(1 0 0 -1 0 64)" gradientUnits="userSpaceOnUse"><stop offset="0" stop-color="#fddda3"/><stop offset="1" stop-color="#fde3a7"/></linearGradient><linearGradient id="a" x2="0" y1="3" y2="61" gradientTransform="matrix(1 0 0 -1 0 64)" gradientUnits="userSpaceOnUse"><stop offset="0" stop-color="#f39c12"/><stop offset="1" stop-color="#f89406"/></linearGradient><path d="M40 3H15c-2.77 0-5 2.23-5 5v48c0 2.77 2.23 5 5 5h34c2.77 0 5-2.23 5-5V17Z" style="fill:url(#c)"/><path d="M40 3H15c-2.77 0-5 2.23-5 5v1.014a5 5 0 0 1 1.46-3.54A5 5 0 0 1 15 4.015h25V4Z" style="opacity:.5;fill:#fff"/><path d="M54 54.86a5 5 0 0 1-1.46 3.538A5 5 0 0 1 49 59.86H15a5 5 0 0 1-3.54-1.46A5 5 0 0 1 10 54.86V56c0 2.77 2.23 5 5 5h34c2.77 0 5-2.23 5-5z" style="opacity:.25;fill-opacity:.99199997"/><path d="M40 3v11.535A2.456 2.456 0 0 0 42.465 17H54Z" style="fill:url(#d);fill-rule:evenodd"/><path d="M40.73 16.283 54 31V17H42.465c-.68 0-1.29-.276-1.735-.717" style="opacity:.20100002;fill:url(#e);fill-rule:evenodd"/><g style="fill:#fde3a7"><path d="M30 22c-1.662 0-3 1.338-3 3v2h5v1h-7c-2.216 0-4 1.784-4 4v2c0 2.216 1.784 4 4 4v-2a3.98 3.98 0 0 1 2.926-3.838q.22-.059.449-.1c.205-.031.411-.062.625-.062h7.225A2.98 2.98 0 0 0 37 30v-5c0-1.662-1.338-3-3-3zm-1 2c.554 0 1 .446 1 1s-.446 1-1 1-1-.446-1-1 .446-1 1-1" style="fill-rule:evenodd"/><path d="M31.563 33q-1.706 0-2.565 1.393-.866 1.398-.865 4.11-.001 2.707.865 4.104.86 1.392 2.564 1.393 1.698 0 2.57-1.393.427-.681.647-1.697.22-1.015.221-2.406 0-1.392-.22-2.408-.22-1.023-.647-1.703-.867-1.392-2.57-1.393m0 1.137q1.015 0 1.505 1.086c.088.191.16.417.225.664l-3.686 3.685q-.033-.495-.033-1.068 0-1.143.121-1.945.128-.812.375-1.344.49-1.079 1.493-1.078m1.96 3.29q.035.5.036 1.077 0 2.208-.49 3.281-.491 1.079-1.506 1.078-.995.001-1.493-1.078a4 4 0 0 1-.23-.674zm3.406 5.32h2.313v-7.89l-1.753 1.996-.81-.987L39.227 33h1.488v9.747H43V44h-6.071z"/></g></svg>