<svg xmlns="http://www.w3.org/2000/svg" xmlns:xlink="http://www.w3.org/1999/xlink" width="64" height="64"><defs><linearGradient id="c" x1="41.616" x2="54" y1="17.475" y2="31" gradientUnits="userSpaceOnUse"><stop stop-color="#060606"/><stop offset="1" stop-opacity="0"/></linearGradient><linearGradient xlink:href="#a" id="b" x1="0" x2="0" y1="60.774" y2="2.345" gradientUnits="userSpaceOnUse"/><linearGradient id="a" x2="0" y1="392.36" y2="336.36" gradientTransform="translate(254 -254)" gradientUnits="userSpaceOnUse"><stop stop-color="#fff" stop-opacity="0"/><stop offset="1" stop-color="#fff" stop-opacity=".2"/></linearGradient></defs><path d="M40 3H15c-2.77 0-5 2.23-5 5v48c0 2.77 2.23 5 5 5h34c2.77 0 5-2.23 5-5V17Z" style="fill:#282828"/><g style="color:#000;fill:#fff"><g style="opacity:.13999999"><path d="M28 35h3v3h-3z" overflow="visible" style="overflow:visible;isolation:auto;mix-blend-mode:normal;solid-color:#000;solid-opacity:1;marker:none"/><path d="M31 35h3v3h-3z" overflow="visible" style="overflow:visible;isolation:auto;mix-blend-mode:normal;solid-color:#000;solid-opacity:1;fill-opacity:.531;marker:none"/><path d="M34 35h3v3h-3z" overflow="visible" style="overflow:visible;isolation:auto;mix-blend-mode:normal;solid-color:#000;solid-opacity:1;fill-opacity:.34900004;marker:none"/><path d="M34 38h3v3h-3z" overflow="visible" style="overflow:visible;isolation:auto;mix-blend-mode:normal;solid-color:#000;solid-opacity:1;marker:none"/><path d="M31 38h3v3h-3z" overflow="visible" style="overflow:visible;isolation:auto;mix-blend-mode:normal;solid-color:#000;solid-opacity:1;fill-opacity:.722;marker:none"/><path d="M28 38h3v3h-3z" overflow="visible" style="overflow:visible;isolation:auto;mix-blend-mode:normal;solid-color:#000;solid-opacity:1;fill-opacity:.531;marker:none"/><path d="M28 41h3v3h-3z" overflow="visible" style="overflow:visible;isolation:auto;mix-blend-mode:normal;solid-color:#000;solid-opacity:1;fill-opacity:.34900004;marker:none"/><path d="M31 41h3v3h-3z" overflow="visible" style="overflow:visible;isolation:auto;mix-blend-mode:normal;solid-color:#000;solid-opacity:1;marker:none"/><path d="M34 41h3v3h-3z" overflow="visible" style="overflow:visible;isolation:auto;mix-blend-mode:normal;solid-color:#000;solid-opacity:1;fill-opacity:.34900004;marker:none"/><path d="M34 44h3v3h-3z" overflow="visible" style="overflow:visible;isolation:auto;mix-blend-mode:normal;solid-color:#000;solid-opacity:1;fill-opacity:.21100003;marker:none"/><path d="M31 44h3v3h-3z" overflow="visible" style="overflow:visible;isolation:auto;mix-blend-mode:normal;solid-color:#000;solid-opacity:1;fill-opacity:.531;marker:none"/><path d="M28 44h3v3h-3z" overflow="visible" style="overflow:visible;isolation:auto;mix-blend-mode:normal;solid-color:#000;solid-opacity:1;fill-opacity:.722;marker:none"/><path d="M37 44h3v3h-3z" overflow="visible" style="overflow:visible;isolation:auto;mix-blend-mode:normal;solid-color:#000;solid-opacity:1;marker:none"/><path d="M37 41h3v3h-3z" overflow="visible" style="overflow:visible;isolation:auto;mix-blend-mode:normal;solid-color:#000;solid-opacity:1;fill-opacity:.531;marker:none"/><path d="M37 38h3v3h-3z" overflow="visible" style="overflow:visible;isolation:auto;mix-blend-mode:normal;solid-color:#000;solid-opacity:1;fill-opacity:.21100003;marker:none"/><path d="M37 35h3v3h-3z" overflow="visible" style="overflow:visible;isolation:auto;mix-blend-mode:normal;solid-color:#000;solid-opacity:1;fill-opacity:.722;marker:none"/></g><path d="M10 11h3V8h-3z" overflow="visible" style="overflow:visible;opacity:.13999999;isolation:auto;mix-blend-mode:normal;solid-color:#000;solid-opacity:1;marker:none"/><path d="M13 11h3V8h-3z" overflow="visible" style="overflow:visible;opacity:.13999999;isolation:auto;mix-blend-mode:normal;solid-color:#000;solid-opacity:1;fill-opacity:.531;marker:none"/><path d="M16 11h3V8h-3z" overflow="visible" style="overflow:visible;opacity:.13999999;isolation:auto;mix-blend-mode:normal;solid-color:#000;solid-opacity:1;fill-opacity:.34900004;marker:none"/><path d="M16 8h3V5h-3z" overflow="visible" style="overflow:visible;opacity:.13999999;isolation:auto;mix-blend-mode:normal;solid-color:#000;solid-opacity:1;marker:none"/><path d="M13 8h3V5h-3z" overflow="visible" style="overflow:visible;opacity:.13999999;isolation:auto;mix-blend-mode:normal;solid-color:#000;solid-opacity:1;fill-opacity:.722;marker:none"/><path d="M16 5h3V3h-3z" overflow="visible" style="overflow:visible;opacity:.13999999;isolation:auto;mix-blend-mode:normal;solid-color:#000;solid-opacity:1;fill-opacity:.34900004;marker:none"/><path d="M19 5h3V3h-3z" overflow="visible" style="overflow:visible;opacity:.13999999;isolation:auto;mix-blend-mode:normal;solid-color:#000;solid-opacity:1;fill-opacity:.531;marker:none"/><path d="M19 8h3V5h-3z" overflow="visible" style="overflow:visible;opacity:.13999999;isolation:auto;mix-blend-mode:normal;solid-color:#000;solid-opacity:1;fill-opacity:.21100003;marker:none"/><path d="M19 11h3V8h-3z" overflow="visible" style="overflow:visible;opacity:.13999999;isolation:auto;mix-blend-mode:normal;solid-color:#000;solid-opacity:1;fill-opacity:.722;marker:none"/><path d="M22 11h3V8h-3z" overflow="visible" style="overflow:visible;opacity:.13999999;isolation:auto;mix-blend-mode:normal;solid-color:#000;solid-opacity:1;marker:none"/><path d="M25 11h3V8h-3z" overflow="visible" style="overflow:visible;opacity:.13999999;isolation:auto;mix-blend-mode:normal;solid-color:#000;solid-opacity:1;fill-opacity:.531;marker:none"/><path d="M28 11h3V8h-3z" overflow="visible" style="overflow:visible;opacity:.13999999;isolation:auto;mix-blend-mode:normal;solid-color:#000;solid-opacity:1;fill-opacity:.34900004;marker:none"/><path d="M28 8h3V5h-3z" overflow="visible" style="overflow:visible;opacity:.13999999;isolation:auto;mix-blend-mode:normal;solid-color:#000;solid-opacity:1;marker:none"/><path d="M25 8h3V5h-3z" overflow="visible" style="overflow:visible;opacity:.13999999;isolation:auto;mix-blend-mode:normal;solid-color:#000;solid-opacity:1;fill-opacity:.722;marker:none"/><path d="M22 8h3V5h-3z" overflow="visible" style="overflow:visible;opacity:.13999999;isolation:auto;mix-blend-mode:normal;solid-color:#000;solid-opacity:1;fill-opacity:.531;marker:none"/><path d="M22 5h3V3h-3z" overflow="visible" style="overflow:visible;opacity:.13999999;isolation:auto;mix-blend-mode:normal;solid-color:#000;solid-opacity:1;fill-opacity:.34900004;marker:none"/><path d="M25 5h3V3h-3z" overflow="visible" style="overflow:visible;opacity:.13999999;isolation:auto;mix-blend-mode:normal;solid-color:#000;solid-opacity:1;marker:none"/><path d="M28 5h3V3h-3z" overflow="visible" style="overflow:visible;opacity:.13999999;isolation:auto;mix-blend-mode:normal;solid-color:#000;solid-opacity:1;fill-opacity:.34900004;marker:none"/><path d="M31 5h3V3h-3z" overflow="visible" style="overflow:visible;opacity:.13999999;isolation:auto;mix-blend-mode:normal;solid-color:#000;solid-opacity:1;fill-opacity:.531;marker:none"/><path d="M31 8h3V5h-3z" overflow="visible" style="overflow:visible;opacity:.13999999;isolation:auto;mix-blend-mode:normal;solid-color:#000;solid-opacity:1;fill-opacity:.21100003;marker:none"/><path d="M31 11h3V8h-3z" overflow="visible" style="overflow:visible;opacity:.13999999;isolation:auto;mix-blend-mode:normal;solid-color:#000;solid-opacity:1;fill-opacity:.722;marker:none"/><path d="M37 3h3v2h-3z" overflow="visible" style="overflow:visible;opacity:.21700003;isolation:auto;mix-blend-mode:normal;solid-color:#000;solid-opacity:1;fill-opacity:.722;marker:none"/><path d="M34 3h3v2h-3z" overflow="visible" style="overflow:visible;opacity:.21700003;isolation:auto;mix-blend-mode:normal;solid-color:#000;solid-opacity:1;fill-opacity:.531;marker:none"/><path d="M34 5h3v3h-3z" overflow="visible" style="overflow:visible;opacity:.21700003;isolation:auto;mix-blend-mode:normal;solid-color:#000;solid-opacity:1;fill-opacity:.34900004;marker:none"/><path d="M37 5h3v3h-3z" overflow="visible" style="overflow:visible;opacity:.21700003;isolation:auto;mix-blend-mode:normal;solid-color:#000;solid-opacity:1;marker:none"/><path d="M37 8h3v3h-3z" overflow="visible" style="overflow:visible;opacity:.21700003;isolation:auto;mix-blend-mode:normal;solid-color:#000;solid-opacity:1;fill-opacity:.531;marker:none"/><path d="M34 8h3v3h-3z" overflow="visible" style="overflow:visible;opacity:.21700003;isolation:auto;mix-blend-mode:normal;solid-color:#000;solid-opacity:1;fill-opacity:.722;marker:none"/><g style="opacity:.13999999"><path d="M40 23h-3v-3h3z" overflow="visible" style="overflow:visible;isolation:auto;mix-blend-mode:normal;solid-color:#000;solid-opacity:1;marker:none"/><path d="M37 23h-3v-3h3z" overflow="visible" style="overflow:visible;isolation:auto;mix-blend-mode:normal;solid-color:#000;solid-opacity:1;fill-opacity:.531;marker:none"/><path d="M34 23h-3v-3h3z" overflow="visible" style="overflow:visible;isolation:auto;mix-blend-mode:normal;solid-color:#000;solid-opacity:1;fill-opacity:.34900004;marker:none"/><path d="M34 20h-3v-3h3z" overflow="visible" style="overflow:visible;isolation:auto;mix-blend-mode:normal;solid-color:#000;solid-opacity:1;marker:none"/><path d="M37 20h-3v-3h3z" overflow="visible" style="overflow:visible;isolation:auto;mix-blend-mode:normal;solid-color:#000;solid-opacity:1;fill-opacity:.722;marker:none"/><path d="M40 20h-3v-3h3z" overflow="visible" style="overflow:visible;isolation:auto;mix-blend-mode:normal;solid-color:#000;solid-opacity:1;fill-opacity:.531;marker:none"/><path d="M40 17h-3v-3h3z" overflow="visible" style="overflow:visible;isolation:auto;mix-blend-mode:normal;solid-color:#000;solid-opacity:1;fill-opacity:.34900004;marker:none"/><path d="M37 17h-3v-3h3z" overflow="visible" style="overflow:visible;isolation:auto;mix-blend-mode:normal;solid-color:#000;solid-opacity:1;marker:none"/><path d="M34 17h-3v-3h3z" overflow="visible" style="overflow:visible;isolation:auto;mix-blend-mode:normal;solid-color:#000;solid-opacity:1;fill-opacity:.34900004;marker:none"/><path d="M34 14h-3v-3h3z" overflow="visible" style="overflow:visible;isolation:auto;mix-blend-mode:normal;solid-color:#000;solid-opacity:1;fill-opacity:.21100003;marker:none"/><path d="M37 14h-3v-3h3z" overflow="visible" style="overflow:visible;isolation:auto;mix-blend-mode:normal;solid-color:#000;solid-opacity:1;fill-opacity:.531;marker:none"/><path d="M40 14h-3v-3h3z" overflow="visible" style="overflow:visible;isolation:auto;mix-blend-mode:normal;solid-color:#000;solid-opacity:1;fill-opacity:.722;marker:none"/><path d="M31 14h-3v-3h3z" overflow="visible" style="overflow:visible;isolation:auto;mix-blend-mode:normal;solid-color:#000;solid-opacity:1;marker:none"/><path d="M31 17h-3v-3h3z" overflow="visible" style="overflow:visible;isolation:auto;mix-blend-mode:normal;solid-color:#000;solid-opacity:1;fill-opacity:.531;marker:none"/><path d="M31 20h-3v-3h3z" overflow="visible" style="overflow:visible;isolation:auto;mix-blend-mode:normal;solid-color:#000;solid-opacity:1;fill-opacity:.21100003;marker:none"/><path d="M31 23h-3v-3h3z" overflow="visible" style="overflow:visible;isolation:auto;mix-blend-mode:normal;solid-color:#000;solid-opacity:1;fill-opacity:.722;marker:none"/></g><g style="opacity:.13999999"><path d="M28 11v3h-3v-3z" overflow="visible" style="overflow:visible;isolation:auto;mix-blend-mode:normal;solid-color:#000;solid-opacity:1;marker:none"/><path d="M28 14v3h-3v-3z" overflow="visible" style="overflow:visible;isolation:auto;mix-blend-mode:normal;solid-color:#000;solid-opacity:1;fill-opacity:.531;marker:none"/><path d="M28 17v3h-3v-3z" overflow="visible" style="overflow:visible;isolation:auto;mix-blend-mode:normal;solid-color:#000;solid-opacity:1;fill-opacity:.34900004;marker:none"/><path d="M25 17v3h-3v-3z" overflow="visible" style="overflow:visible;isolation:auto;mix-blend-mode:normal;solid-color:#000;solid-opacity:1;marker:none"/><path d="M25 14v3h-3v-3z" overflow="visible" style="overflow:visible;isolation:auto;mix-blend-mode:normal;solid-color:#000;solid-opacity:1;fill-opacity:.722;marker:none"/><path d="M25 11v3h-3v-3z" overflow="visible" style="overflow:visible;isolation:auto;mix-blend-mode:normal;solid-color:#000;solid-opacity:1;fill-opacity:.531;marker:none"/><path d="M22 11v3h-3v-3z" overflow="visible" style="overflow:visible;isolation:auto;mix-blend-mode:normal;solid-color:#000;solid-opacity:1;fill-opacity:.34900004;marker:none"/><path d="M22 14v3h-3v-3z" overflow="visible" style="overflow:visible;isolation:auto;mix-blend-mode:normal;solid-color:#000;solid-opacity:1;marker:none"/><path d="M22 17v3h-3v-3z" overflow="visible" style="overflow:visible;isolation:auto;mix-blend-mode:normal;solid-color:#000;solid-opacity:1;fill-opacity:.34900004;marker:none"/><path d="M19 17v3h-3v-3z" overflow="visible" style="overflow:visible;isolation:auto;mix-blend-mode:normal;solid-color:#000;solid-opacity:1;fill-opacity:.21100003;marker:none"/><path d="M19 14v3h-3v-3z" overflow="visible" style="overflow:visible;isolation:auto;mix-blend-mode:normal;solid-color:#000;solid-opacity:1;fill-opacity:.531;marker:none"/><path d="M19 11v3h-3v-3z" overflow="visible" style="overflow:visible;isolation:auto;mix-blend-mode:normal;solid-color:#000;solid-opacity:1;fill-opacity:.722;marker:none"/><path d="M19 20v3h-3v-3z" overflow="visible" style="overflow:visible;isolation:auto;mix-blend-mode:normal;solid-color:#000;solid-opacity:1;marker:none"/><path d="M22 20v3h-3v-3z" overflow="visible" style="overflow:visible;isolation:auto;mix-blend-mode:normal;solid-color:#000;solid-opacity:1;fill-opacity:.531;marker:none"/><path d="M25 20v3h-3v-3z" overflow="visible" style="overflow:visible;isolation:auto;mix-blend-mode:normal;solid-color:#000;solid-opacity:1;fill-opacity:.21100003;marker:none"/><path d="M28 20v3h-3v-3z" overflow="visible" style="overflow:visible;isolation:auto;mix-blend-mode:normal;solid-color:#000;solid-opacity:1;fill-opacity:.722;marker:none"/></g><path d="M16 11h-3v3h3z" overflow="visible" style="overflow:visible;opacity:.13999999;isolation:auto;mix-blend-mode:normal;solid-color:#000;solid-opacity:1;marker:none"/><path d="M13 11h-3v3h3z" overflow="visible" style="overflow:visible;opacity:.13999999;isolation:auto;mix-blend-mode:normal;solid-color:#000;solid-opacity:1;fill-opacity:.531;marker:none"/><path d="M13 14h-3v3h3z" overflow="visible" style="overflow:visible;opacity:.13999999;isolation:auto;mix-blend-mode:normal;solid-color:#000;solid-opacity:1;fill-opacity:.722;marker:none"/><path d="M16 14h-3v3h3z" overflow="visible" style="overflow:visible;opacity:.13999999;isolation:auto;mix-blend-mode:normal;solid-color:#000;solid-opacity:1;fill-opacity:.531;marker:none"/><path d="M16 17h-3v3h3z" overflow="visible" style="overflow:visible;opacity:.13999999;isolation:auto;mix-blend-mode:normal;solid-color:#000;solid-opacity:1;fill-opacity:.34900004;marker:none"/><path d="M13 17h-3v3h3z" overflow="visible" style="overflow:visible;opacity:.13999999;isolation:auto;mix-blend-mode:normal;solid-color:#000;solid-opacity:1;marker:none"/><path d="M13 20h-3v3h3z" overflow="visible" style="overflow:visible;opacity:.13999999;isolation:auto;mix-blend-mode:normal;solid-color:#000;solid-opacity:1;fill-opacity:.531;marker:none"/><path d="M16 20h-3v3h3z" overflow="visible" style="overflow:visible;opacity:.13999999;isolation:auto;mix-blend-mode:normal;solid-color:#000;solid-opacity:1;fill-opacity:.722;marker:none"/><path d="M46 23h-3v-3h3z" overflow="visible" style="overflow:visible;opacity:.28000004;isolation:auto;mix-blend-mode:normal;solid-color:#000;solid-opacity:1;fill-opacity:.34900004;marker:none"/><path d="M43 23h-3v-3h3z" overflow="visible" style="overflow:visible;opacity:.20800003;isolation:auto;mix-blend-mode:normal;solid-color:#000;solid-opacity:1;marker:none"/><path d="M43 20h-3v-3h3z" overflow="visible" style="overflow:visible;opacity:.28000004;isolation:auto;mix-blend-mode:normal;solid-color:#000;solid-opacity:1;fill-opacity:.531;marker:none"/><path d="M46 20h-3v-3h3z" overflow="visible" style="overflow:visible;opacity:.28000004;isolation:auto;mix-blend-mode:normal;solid-color:#000;solid-opacity:1;fill-opacity:.722;marker:none"/><path d="M52 23h-3v-3h3z" overflow="visible" style="overflow:visible;opacity:.20200004;isolation:auto;mix-blend-mode:normal;solid-color:#000;solid-opacity:1;fill-opacity:.34900004;marker:none"/><path d="M49 23h-3v-3h3z" overflow="visible" style="overflow:visible;opacity:.19200003;isolation:auto;mix-blend-mode:normal;solid-color:#000;solid-opacity:1;marker:none"/><path d="M49 20h-3v-3h3z" overflow="visible" style="overflow:visible;opacity:.20200004;isolation:auto;mix-blend-mode:normal;solid-color:#000;solid-opacity:1;fill-opacity:.531;marker:none"/><path d="M52 20h-3v-3h3z" overflow="visible" style="overflow:visible;opacity:.20200004;isolation:auto;mix-blend-mode:normal;solid-color:#000;solid-opacity:1;fill-opacity:.722;marker:none"/><path d="M54 23h-2v-3h2z" overflow="visible" style="overflow:visible;opacity:.20200004;isolation:auto;mix-blend-mode:normal;solid-color:#000;solid-opacity:1;marker:none"/><path d="M54 20h-2v-3h2z" overflow="visible" style="overflow:visible;opacity:.20200004;isolation:auto;mix-blend-mode:normal;solid-color:#000;solid-opacity:1;fill-opacity:.531;marker:none"/><g style="opacity:.13999999"><path d="M40 35h-3v-3h3z" overflow="visible" style="overflow:visible;isolation:auto;mix-blend-mode:normal;solid-color:#000;solid-opacity:1;marker:none"/><path d="M37 35h-3v-3h3z" overflow="visible" style="overflow:visible;isolation:auto;mix-blend-mode:normal;solid-color:#000;solid-opacity:1;fill-opacity:.531;marker:none"/><path d="M34 35h-3v-3h3z" overflow="visible" style="overflow:visible;isolation:auto;mix-blend-mode:normal;solid-color:#000;solid-opacity:1;fill-opacity:.34900004;marker:none"/><path d="M34 32h-3v-3h3z" overflow="visible" style="overflow:visible;isolation:auto;mix-blend-mode:normal;solid-color:#000;solid-opacity:1;marker:none"/><path d="M37 32h-3v-3h3z" overflow="visible" style="overflow:visible;isolation:auto;mix-blend-mode:normal;solid-color:#000;solid-opacity:1;fill-opacity:.722;marker:none"/><path d="M40 32h-3v-3h3z" overflow="visible" style="overflow:visible;isolation:auto;mix-blend-mode:normal;solid-color:#000;solid-opacity:1;fill-opacity:.531;marker:none"/><path d="M40 29h-3v-3h3z" overflow="visible" style="overflow:visible;isolation:auto;mix-blend-mode:normal;solid-color:#000;solid-opacity:1;fill-opacity:.34900004;marker:none"/><path d="M37 29h-3v-3h3z" overflow="visible" style="overflow:visible;isolation:auto;mix-blend-mode:normal;solid-color:#000;solid-opacity:1;marker:none"/><path d="M34 29h-3v-3h3z" overflow="visible" style="overflow:visible;isolation:auto;mix-blend-mode:normal;solid-color:#000;solid-opacity:1;fill-opacity:.34900004;marker:none"/><path d="M34 26h-3v-3h3z" overflow="visible" style="overflow:visible;isolation:auto;mix-blend-mode:normal;solid-color:#000;solid-opacity:1;fill-opacity:.21100003;marker:none"/><path d="M37 26h-3v-3h3z" overflow="visible" style="overflow:visible;isolation:auto;mix-blend-mode:normal;solid-color:#000;solid-opacity:1;fill-opacity:.531;marker:none"/><path d="M40 26h-3v-3h3z" overflow="visible" style="overflow:visible;isolation:auto;mix-blend-mode:normal;solid-color:#000;solid-opacity:1;fill-opacity:.722;marker:none"/><path d="M31 26h-3v-3h3z" overflow="visible" style="overflow:visible;isolation:auto;mix-blend-mode:normal;solid-color:#000;solid-opacity:1;marker:none"/><path d="M31 29h-3v-3h3z" overflow="visible" style="overflow:visible;isolation:auto;mix-blend-mode:normal;solid-color:#000;solid-opacity:1;fill-opacity:.531;marker:none"/><path d="M31 32h-3v-3h3z" overflow="visible" style="overflow:visible;isolation:auto;mix-blend-mode:normal;solid-color:#000;solid-opacity:1;fill-opacity:.21100003;marker:none"/><path d="M31 35h-3v-3h3z" overflow="visible" style="overflow:visible;isolation:auto;mix-blend-mode:normal;solid-color:#000;solid-opacity:1;fill-opacity:.722;marker:none"/></g><g style="opacity:.13999999"><path d="M28 23v3h-3v-3z" overflow="visible" style="overflow:visible;isolation:auto;mix-blend-mode:normal;solid-color:#000;solid-opacity:1;marker:none"/><path d="M28 26v3h-3v-3z" overflow="visible" style="overflow:visible;isolation:auto;mix-blend-mode:normal;solid-color:#000;solid-opacity:1;fill-opacity:.531;marker:none"/><path d="M28 29v3h-3v-3z" overflow="visible" style="overflow:visible;isolation:auto;mix-blend-mode:normal;solid-color:#000;solid-opacity:1;fill-opacity:.34900004;marker:none"/><path d="M25 29v3h-3v-3z" overflow="visible" style="overflow:visible;isolation:auto;mix-blend-mode:normal;solid-color:#000;solid-opacity:1;marker:none"/><path d="M25 26v3h-3v-3z" overflow="visible" style="overflow:visible;isolation:auto;mix-blend-mode:normal;solid-color:#000;solid-opacity:1;fill-opacity:.722;marker:none"/><path d="M25 23v3h-3v-3z" overflow="visible" style="overflow:visible;isolation:auto;mix-blend-mode:normal;solid-color:#000;solid-opacity:1;fill-opacity:.531;marker:none"/><path d="M22 23v3h-3v-3z" overflow="visible" style="overflow:visible;isolation:auto;mix-blend-mode:normal;solid-color:#000;solid-opacity:1;fill-opacity:.34900004;marker:none"/><path d="M22 26v3h-3v-3z" overflow="visible" style="overflow:visible;isolation:auto;mix-blend-mode:normal;solid-color:#000;solid-opacity:1;marker:none"/><path d="M22 29v3h-3v-3z" overflow="visible" style="overflow:visible;isolation:auto;mix-blend-mode:normal;solid-color:#000;solid-opacity:1;fill-opacity:.34900004;marker:none"/><path d="M19 29v3h-3v-3z" overflow="visible" style="overflow:visible;isolation:auto;mix-blend-mode:normal;solid-color:#000;solid-opacity:1;fill-opacity:.21100003;marker:none"/><path d="M19 26v3h-3v-3z" overflow="visible" style="overflow:visible;isolation:auto;mix-blend-mode:normal;solid-color:#000;solid-opacity:1;fill-opacity:.531;marker:none"/><path d="M19 23v3h-3v-3z" overflow="visible" style="overflow:visible;isolation:auto;mix-blend-mode:normal;solid-color:#000;solid-opacity:1;fill-opacity:.722;marker:none"/><path d="M19 32v3h-3v-3z" overflow="visible" style="overflow:visible;isolation:auto;mix-blend-mode:normal;solid-color:#000;solid-opacity:1;marker:none"/><path d="M22 32v3h-3v-3z" overflow="visible" style="overflow:visible;isolation:auto;mix-blend-mode:normal;solid-color:#000;solid-opacity:1;fill-opacity:.531;marker:none"/><path d="M25 32v3h-3v-3z" overflow="visible" style="overflow:visible;isolation:auto;mix-blend-mode:normal;solid-color:#000;solid-opacity:1;fill-opacity:.21100003;marker:none"/><path d="M28 32v3h-3v-3z" overflow="visible" style="overflow:visible;isolation:auto;mix-blend-mode:normal;solid-color:#000;solid-opacity:1;fill-opacity:.722;marker:none"/></g><path d="M16 23h-3v3h3z" overflow="visible" style="overflow:visible;opacity:.13999999;isolation:auto;mix-blend-mode:normal;solid-color:#000;solid-opacity:1;marker:none"/><path d="M13 23h-3v3h3z" overflow="visible" style="overflow:visible;opacity:.13999999;isolation:auto;mix-blend-mode:normal;solid-color:#000;solid-opacity:1;fill-opacity:.531;marker:none"/><path d="M13 26h-3v3h3z" overflow="visible" style="overflow:visible;opacity:.13999999;isolation:auto;mix-blend-mode:normal;solid-color:#000;solid-opacity:1;fill-opacity:.722;marker:none"/><path d="M16 26h-3v3h3z" overflow="visible" style="overflow:visible;opacity:.13999999;isolation:auto;mix-blend-mode:normal;solid-color:#000;solid-opacity:1;fill-opacity:.531;marker:none"/><path d="M16 29h-3v3h3z" overflow="visible" style="overflow:visible;opacity:.13999999;isolation:auto;mix-blend-mode:normal;solid-color:#000;solid-opacity:1;fill-opacity:.34900004;marker:none"/><path d="M13 29h-3v3h3z" overflow="visible" style="overflow:visible;opacity:.13999999;isolation:auto;mix-blend-mode:normal;solid-color:#000;solid-opacity:1;marker:none"/><path d="M13 32h-3v3h3z" overflow="visible" style="overflow:visible;opacity:.13999999;isolation:auto;mix-blend-mode:normal;solid-color:#000;solid-opacity:1;fill-opacity:.531;marker:none"/><path d="M16 32h-3v3h3z" overflow="visible" style="overflow:visible;opacity:.13999999;isolation:auto;mix-blend-mode:normal;solid-color:#000;solid-opacity:1;fill-opacity:.722;marker:none"/><g style="opacity:.13999999"><path d="M52 35h-3v-3h3z" overflow="visible" style="overflow:visible;isolation:auto;mix-blend-mode:normal;solid-color:#000;solid-opacity:1;marker:none"/><path d="M49 35h-3v-3h3z" overflow="visible" style="overflow:visible;isolation:auto;mix-blend-mode:normal;solid-color:#000;solid-opacity:1;fill-opacity:.531;marker:none"/><path d="M46 35h-3v-3h3z" overflow="visible" style="overflow:visible;isolation:auto;mix-blend-mode:normal;solid-color:#000;solid-opacity:1;fill-opacity:.34900004;marker:none"/><path d="M46 32h-3v-3h3z" overflow="visible" style="overflow:visible;isolation:auto;mix-blend-mode:normal;solid-color:#000;solid-opacity:1;marker:none"/><path d="M49 32h-3v-3h3z" overflow="visible" style="overflow:visible;isolation:auto;mix-blend-mode:normal;solid-color:#000;solid-opacity:1;fill-opacity:.722;marker:none"/><path d="M52 32h-3v-3h3z" overflow="visible" style="overflow:visible;isolation:auto;mix-blend-mode:normal;solid-color:#000;solid-opacity:1;fill-opacity:.531;marker:none"/><path d="M52 29h-3v-3h3z" overflow="visible" style="overflow:visible;isolation:auto;mix-blend-mode:normal;solid-color:#000;solid-opacity:1;fill-opacity:.34900004;marker:none"/><path d="M49 29h-3v-3h3z" overflow="visible" style="overflow:visible;isolation:auto;mix-blend-mode:normal;solid-color:#000;solid-opacity:1;marker:none"/><path d="M46 29h-3v-3h3z" overflow="visible" style="overflow:visible;isolation:auto;mix-blend-mode:normal;solid-color:#000;solid-opacity:1;fill-opacity:.34900004;marker:none"/><path d="M46 26h-3v-3h3z" overflow="visible" style="overflow:visible;isolation:auto;mix-blend-mode:normal;solid-color:#000;solid-opacity:1;fill-opacity:.21100003;marker:none"/><path d="M49 26h-3v-3h3z" overflow="visible" style="overflow:visible;isolation:auto;mix-blend-mode:normal;solid-color:#000;solid-opacity:1;fill-opacity:.531;marker:none"/><path d="M52 26h-3v-3h3z" overflow="visible" style="overflow:visible;isolation:auto;mix-blend-mode:normal;solid-color:#000;solid-opacity:1;fill-opacity:.722;marker:none"/><path d="M43 26h-3v-3h3z" overflow="visible" style="overflow:visible;isolation:auto;mix-blend-mode:normal;solid-color:#000;solid-opacity:1;marker:none"/><path d="M43 29h-3v-3h3z" overflow="visible" style="overflow:visible;isolation:auto;mix-blend-mode:normal;solid-color:#000;solid-opacity:1;fill-opacity:.531;marker:none"/><path d="M43 32h-3v-3h3z" overflow="visible" style="overflow:visible;isolation:auto;mix-blend-mode:normal;solid-color:#000;solid-opacity:1;fill-opacity:.21100003;marker:none"/><path d="M43 35h-3v-3h3z" overflow="visible" style="overflow:visible;isolation:auto;mix-blend-mode:normal;solid-color:#000;solid-opacity:1;fill-opacity:.722;marker:none"/></g><path d="M54 26h-2v-3h2z" overflow="visible" style="overflow:visible;opacity:.13999999;isolation:auto;mix-blend-mode:normal;solid-color:#000;solid-opacity:1;marker:none"/><path d="M54 29h-2v-3h2z" overflow="visible" style="overflow:visible;opacity:.13999999;isolation:auto;mix-blend-mode:normal;solid-color:#000;solid-opacity:1;fill-opacity:.531;marker:none"/><path d="M54 35h-2v-3h2z" overflow="visible" style="overflow:visible;opacity:.13999999;isolation:auto;mix-blend-mode:normal;solid-color:#000;solid-opacity:1;fill-opacity:.722;marker:none"/><path d="M10 47h3v-3h-3z" overflow="visible" style="overflow:visible;opacity:.13999999;isolation:auto;mix-blend-mode:normal;solid-color:#000;solid-opacity:1;fill-opacity:.34900004;marker:none"/><path d="M10 44h3v-3h-3z" overflow="visible" style="overflow:visible;opacity:.13999999;isolation:auto;mix-blend-mode:normal;solid-color:#000;solid-opacity:1;marker:none"/><path d="M10 41h3v-3h-3z" overflow="visible" style="overflow:visible;opacity:.13999999;isolation:auto;mix-blend-mode:normal;solid-color:#000;solid-opacity:1;fill-opacity:.34900004;marker:none"/><path d="M10 38h3v-3h-3z" overflow="visible" style="overflow:visible;opacity:.13999999;isolation:auto;mix-blend-mode:normal;solid-color:#000;solid-opacity:1;fill-opacity:.21100003;marker:none"/><path d="M13 38h3v-3h-3z" overflow="visible" style="overflow:visible;opacity:.13999999;isolation:auto;mix-blend-mode:normal;solid-color:#000;solid-opacity:1;marker:none"/><path d="M13 41h3v-3h-3z" overflow="visible" style="overflow:visible;opacity:.13999999;isolation:auto;mix-blend-mode:normal;solid-color:#000;solid-opacity:1;fill-opacity:.531;marker:none"/><path d="M13 44h3v-3h-3z" overflow="visible" style="overflow:visible;opacity:.13999999;isolation:auto;mix-blend-mode:normal;solid-color:#000;solid-opacity:1;fill-opacity:.21100003;marker:none"/><path d="M13 47h3v-3h-3z" overflow="visible" style="overflow:visible;opacity:.13999999;isolation:auto;mix-blend-mode:normal;solid-color:#000;solid-opacity:1;fill-opacity:.722;marker:none"/><g style="opacity:.13999999"><path d="M28 35v3h-3v-3z" overflow="visible" style="overflow:visible;isolation:auto;mix-blend-mode:normal;solid-color:#000;solid-opacity:1;marker:none"/><path d="M28 38v3h-3v-3z" overflow="visible" style="overflow:visible;isolation:auto;mix-blend-mode:normal;solid-color:#000;solid-opacity:1;fill-opacity:.531;marker:none"/><path d="M28 41v3h-3v-3z" overflow="visible" style="overflow:visible;isolation:auto;mix-blend-mode:normal;solid-color:#000;solid-opacity:1;fill-opacity:.34900004;marker:none"/><path d="M25 41v3h-3v-3z" overflow="visible" style="overflow:visible;isolation:auto;mix-blend-mode:normal;solid-color:#000;solid-opacity:1;marker:none"/><path d="M25 38v3h-3v-3z" overflow="visible" style="overflow:visible;isolation:auto;mix-blend-mode:normal;solid-color:#000;solid-opacity:1;fill-opacity:.722;marker:none"/><path d="M25 35v3h-3v-3z" overflow="visible" style="overflow:visible;isolation:auto;mix-blend-mode:normal;solid-color:#000;solid-opacity:1;fill-opacity:.531;marker:none"/><path d="M22 35v3h-3v-3z" overflow="visible" style="overflow:visible;isolation:auto;mix-blend-mode:normal;solid-color:#000;solid-opacity:1;fill-opacity:.34900004;marker:none"/><path d="M22 38v3h-3v-3z" overflow="visible" style="overflow:visible;isolation:auto;mix-blend-mode:normal;solid-color:#000;solid-opacity:1;marker:none"/><path d="M22 41v3h-3v-3z" overflow="visible" style="overflow:visible;isolation:auto;mix-blend-mode:normal;solid-color:#000;solid-opacity:1;fill-opacity:.34900004;marker:none"/><path d="M19 41v3h-3v-3z" overflow="visible" style="overflow:visible;isolation:auto;mix-blend-mode:normal;solid-color:#000;solid-opacity:1;fill-opacity:.21100003;marker:none"/><path d="M19 38v3h-3v-3z" overflow="visible" style="overflow:visible;isolation:auto;mix-blend-mode:normal;solid-color:#000;solid-opacity:1;fill-opacity:.531;marker:none"/><path d="M19 35v3h-3v-3z" overflow="visible" style="overflow:visible;isolation:auto;mix-blend-mode:normal;solid-color:#000;solid-opacity:1;fill-opacity:.722;marker:none"/><path d="M19 44v3h-3v-3z" overflow="visible" style="overflow:visible;isolation:auto;mix-blend-mode:normal;solid-color:#000;solid-opacity:1;marker:none"/><path d="M22 44v3h-3v-3z" overflow="visible" style="overflow:visible;isolation:auto;mix-blend-mode:normal;solid-color:#000;solid-opacity:1;fill-opacity:.531;marker:none"/><path d="M25 44v3h-3v-3z" overflow="visible" style="overflow:visible;isolation:auto;mix-blend-mode:normal;solid-color:#000;solid-opacity:1;fill-opacity:.21100003;marker:none"/><path d="M28 44v3h-3v-3z" overflow="visible" style="overflow:visible;isolation:auto;mix-blend-mode:normal;solid-color:#000;solid-opacity:1;fill-opacity:.722;marker:none"/></g><g style="opacity:.13999999"><path d="M40 47h3v-3h-3z" overflow="visible" style="overflow:visible;isolation:auto;mix-blend-mode:normal;solid-color:#000;solid-opacity:1;marker:none"/><path d="M43 47h3v-3h-3z" overflow="visible" style="overflow:visible;isolation:auto;mix-blend-mode:normal;solid-color:#000;solid-opacity:1;fill-opacity:.531;marker:none"/><path d="M46 47h3v-3h-3z" overflow="visible" style="overflow:visible;isolation:auto;mix-blend-mode:normal;solid-color:#000;solid-opacity:1;fill-opacity:.34900004;marker:none"/><path d="M46 44h3v-3h-3z" overflow="visible" style="overflow:visible;isolation:auto;mix-blend-mode:normal;solid-color:#000;solid-opacity:1;marker:none"/><path d="M43 44h3v-3h-3z" overflow="visible" style="overflow:visible;isolation:auto;mix-blend-mode:normal;solid-color:#000;solid-opacity:1;fill-opacity:.722;marker:none"/><path d="M40 44h3v-3h-3z" overflow="visible" style="overflow:visible;isolation:auto;mix-blend-mode:normal;solid-color:#000;solid-opacity:1;fill-opacity:.531;marker:none"/><path d="M40 41h3v-3h-3z" overflow="visible" style="overflow:visible;isolation:auto;mix-blend-mode:normal;solid-color:#000;solid-opacity:1;fill-opacity:.34900004;marker:none"/><path d="M43 41h3v-3h-3z" overflow="visible" style="overflow:visible;isolation:auto;mix-blend-mode:normal;solid-color:#000;solid-opacity:1;marker:none"/><path d="M46 41h3v-3h-3z" overflow="visible" style="overflow:visible;isolation:auto;mix-blend-mode:normal;solid-color:#000;solid-opacity:1;fill-opacity:.34900004;marker:none"/><path d="M46 38h3v-3h-3z" overflow="visible" style="overflow:visible;isolation:auto;mix-blend-mode:normal;solid-color:#000;solid-opacity:1;fill-opacity:.21100003;marker:none"/><path d="M43 38h3v-3h-3z" overflow="visible" style="overflow:visible;isolation:auto;mix-blend-mode:normal;solid-color:#000;solid-opacity:1;fill-opacity:.531;marker:none"/><path d="M40 38h3v-3h-3z" overflow="visible" style="overflow:visible;isolation:auto;mix-blend-mode:normal;solid-color:#000;solid-opacity:1;fill-opacity:.722;marker:none"/><path d="M49 38h3v-3h-3z" overflow="visible" style="overflow:visible;isolation:auto;mix-blend-mode:normal;solid-color:#000;solid-opacity:1;marker:none"/><path d="M49 41h3v-3h-3z" overflow="visible" style="overflow:visible;isolation:auto;mix-blend-mode:normal;solid-color:#000;solid-opacity:1;fill-opacity:.531;marker:none"/><path d="M49 44h3v-3h-3z" overflow="visible" style="overflow:visible;isolation:auto;mix-blend-mode:normal;solid-color:#000;solid-opacity:1;fill-opacity:.21100003;marker:none"/><path d="M49 47h3v-3h-3z" overflow="visible" style="overflow:visible;isolation:auto;mix-blend-mode:normal;solid-color:#000;solid-opacity:1;fill-opacity:.722;marker:none"/></g><path d="M52 35h2v3h-2z" overflow="visible" style="overflow:visible;opacity:.13999999;isolation:auto;mix-blend-mode:normal;solid-color:#000;solid-opacity:1;marker:none"/><path d="M52 38h2v3h-2z" overflow="visible" style="overflow:visible;opacity:.13999999;isolation:auto;mix-blend-mode:normal;solid-color:#000;solid-opacity:1;fill-opacity:.531;marker:none"/><path d="M52 41h2v3h-2z" overflow="visible" style="overflow:visible;opacity:.13999999;isolation:auto;mix-blend-mode:normal;solid-color:#000;solid-opacity:1;fill-opacity:.34900004;marker:none"/><path d="M52 44h2v3h-2z" overflow="visible" style="overflow:visible;opacity:.13999999;isolation:auto;mix-blend-mode:normal;solid-color:#000;solid-opacity:1;fill-opacity:.722;marker:none"/><g style="opacity:.13999999"><path d="M40 59h-3v-3h3z" overflow="visible" style="overflow:visible;isolation:auto;mix-blend-mode:normal;solid-color:#000;solid-opacity:1;marker:none"/><path d="M37 59h-3v-3h3z" overflow="visible" style="overflow:visible;isolation:auto;mix-blend-mode:normal;solid-color:#000;solid-opacity:1;fill-opacity:.531;marker:none"/><path d="M34 59h-3v-3h3z" overflow="visible" style="overflow:visible;isolation:auto;mix-blend-mode:normal;solid-color:#000;solid-opacity:1;fill-opacity:.34900004;marker:none"/><path d="M34 56h-3v-3h3z" overflow="visible" style="overflow:visible;isolation:auto;mix-blend-mode:normal;solid-color:#000;solid-opacity:1;marker:none"/><path d="M37 56h-3v-3h3z" overflow="visible" style="overflow:visible;isolation:auto;mix-blend-mode:normal;solid-color:#000;solid-opacity:1;fill-opacity:.722;marker:none"/><path d="M40 56h-3v-3h3z" overflow="visible" style="overflow:visible;isolation:auto;mix-blend-mode:normal;solid-color:#000;solid-opacity:1;fill-opacity:.531;marker:none"/><path d="M40 53h-3v-3h3z" overflow="visible" style="overflow:visible;isolation:auto;mix-blend-mode:normal;solid-color:#000;solid-opacity:1;fill-opacity:.34900004;marker:none"/><path d="M37 53h-3v-3h3z" overflow="visible" style="overflow:visible;isolation:auto;mix-blend-mode:normal;solid-color:#000;solid-opacity:1;marker:none"/><path d="M34 53h-3v-3h3z" overflow="visible" style="overflow:visible;isolation:auto;mix-blend-mode:normal;solid-color:#000;solid-opacity:1;fill-opacity:.34900004;marker:none"/><path d="M34 50h-3v-3h3z" overflow="visible" style="overflow:visible;isolation:auto;mix-blend-mode:normal;solid-color:#000;solid-opacity:1;fill-opacity:.21100003;marker:none"/><path d="M37 50h-3v-3h3z" overflow="visible" style="overflow:visible;isolation:auto;mix-blend-mode:normal;solid-color:#000;solid-opacity:1;fill-opacity:.531;marker:none"/><path d="M40 50h-3v-3h3z" overflow="visible" style="overflow:visible;isolation:auto;mix-blend-mode:normal;solid-color:#000;solid-opacity:1;fill-opacity:.722;marker:none"/><path d="M31 50h-3v-3h3z" overflow="visible" style="overflow:visible;isolation:auto;mix-blend-mode:normal;solid-color:#000;solid-opacity:1;marker:none"/><path d="M31 53h-3v-3h3z" overflow="visible" style="overflow:visible;isolation:auto;mix-blend-mode:normal;solid-color:#000;solid-opacity:1;fill-opacity:.531;marker:none"/><path d="M31 56h-3v-3h3z" overflow="visible" style="overflow:visible;isolation:auto;mix-blend-mode:normal;solid-color:#000;solid-opacity:1;fill-opacity:.21100003;marker:none"/><path d="M31 59h-3v-3h3z" overflow="visible" style="overflow:visible;isolation:auto;mix-blend-mode:normal;solid-color:#000;solid-opacity:1;fill-opacity:.722;marker:none"/></g><g style="opacity:.13999999"><path d="M28 47v3h-3v-3z" overflow="visible" style="overflow:visible;isolation:auto;mix-blend-mode:normal;solid-color:#000;solid-opacity:1;marker:none"/><path d="M28 50v3h-3v-3z" overflow="visible" style="overflow:visible;isolation:auto;mix-blend-mode:normal;solid-color:#000;solid-opacity:1;fill-opacity:.531;marker:none"/><path d="M28 53v3h-3v-3z" overflow="visible" style="overflow:visible;isolation:auto;mix-blend-mode:normal;solid-color:#000;solid-opacity:1;fill-opacity:.34900004;marker:none"/><path d="M25 53v3h-3v-3z" overflow="visible" style="overflow:visible;isolation:auto;mix-blend-mode:normal;solid-color:#000;solid-opacity:1;marker:none"/><path d="M25 50v3h-3v-3z" overflow="visible" style="overflow:visible;isolation:auto;mix-blend-mode:normal;solid-color:#000;solid-opacity:1;fill-opacity:.722;marker:none"/><path d="M25 47v3h-3v-3z" overflow="visible" style="overflow:visible;isolation:auto;mix-blend-mode:normal;solid-color:#000;solid-opacity:1;fill-opacity:.531;marker:none"/><path d="M22 47v3h-3v-3z" overflow="visible" style="overflow:visible;isolation:auto;mix-blend-mode:normal;solid-color:#000;solid-opacity:1;fill-opacity:.34900004;marker:none"/><path d="M22 50v3h-3v-3z" overflow="visible" style="overflow:visible;isolation:auto;mix-blend-mode:normal;solid-color:#000;solid-opacity:1;marker:none"/><path d="M22 53v3h-3v-3z" overflow="visible" style="overflow:visible;isolation:auto;mix-blend-mode:normal;solid-color:#000;solid-opacity:1;fill-opacity:.34900004;marker:none"/><path d="M19 53v3h-3v-3z" overflow="visible" style="overflow:visible;isolation:auto;mix-blend-mode:normal;solid-color:#000;solid-opacity:1;fill-opacity:.21100003;marker:none"/><path d="M19 50v3h-3v-3z" overflow="visible" style="overflow:visible;isolation:auto;mix-blend-mode:normal;solid-color:#000;solid-opacity:1;fill-opacity:.531;marker:none"/><path d="M19 47v3h-3v-3z" overflow="visible" style="overflow:visible;isolation:auto;mix-blend-mode:normal;solid-color:#000;solid-opacity:1;fill-opacity:.722;marker:none"/><path d="M19 56v3h-3v-3z" overflow="visible" style="overflow:visible;isolation:auto;mix-blend-mode:normal;solid-color:#000;solid-opacity:1;marker:none"/><path d="M22 56v3h-3v-3z" overflow="visible" style="overflow:visible;isolation:auto;mix-blend-mode:normal;solid-color:#000;solid-opacity:1;fill-opacity:.531;marker:none"/><path d="M25 56v3h-3v-3z" overflow="visible" style="overflow:visible;isolation:auto;mix-blend-mode:normal;solid-color:#000;solid-opacity:1;fill-opacity:.21100003;marker:none"/><path d="M28 56v3h-3v-3z" overflow="visible" style="overflow:visible;isolation:auto;mix-blend-mode:normal;solid-color:#000;solid-opacity:1;fill-opacity:.722;marker:none"/></g><path d="M16 47h-3v3h3z" overflow="visible" style="overflow:visible;opacity:.13999999;isolation:auto;mix-blend-mode:normal;solid-color:#000;solid-opacity:1;marker:none"/><path d="M13 47h-3v3h3z" overflow="visible" style="overflow:visible;opacity:.13999999;isolation:auto;mix-blend-mode:normal;solid-color:#000;solid-opacity:1;fill-opacity:.531;marker:none"/><path d="M13 50h-3v3h3z" overflow="visible" style="overflow:visible;opacity:.13999999;isolation:auto;mix-blend-mode:normal;solid-color:#000;solid-opacity:1;fill-opacity:.722;marker:none"/><path d="M16 50h-3v3h3z" overflow="visible" style="overflow:visible;opacity:.13999999;isolation:auto;mix-blend-mode:normal;solid-color:#000;solid-opacity:1;fill-opacity:.531;marker:none"/><path d="M16 53h-3v3h3z" overflow="visible" style="overflow:visible;opacity:.13999999;isolation:auto;mix-blend-mode:normal;solid-color:#000;solid-opacity:1;fill-opacity:.34900004;marker:none"/><path d="M13 53h-3v3h3z" overflow="visible" style="overflow:visible;opacity:.13999999;isolation:auto;mix-blend-mode:normal;solid-color:#000;solid-opacity:1;marker:none"/><path d="M16 56h-3v3h3z" overflow="visible" style="overflow:visible;opacity:.13999999;isolation:auto;mix-blend-mode:normal;solid-color:#000;solid-opacity:1;fill-opacity:.722;marker:none"/><g style="opacity:.13999999"><path d="M52 59h-3v-3h3z" overflow="visible" style="overflow:visible;isolation:auto;mix-blend-mode:normal;solid-color:#000;solid-opacity:1;marker:none"/><path d="M49 59h-3v-3h3z" overflow="visible" style="overflow:visible;isolation:auto;mix-blend-mode:normal;solid-color:#000;solid-opacity:1;fill-opacity:.531;marker:none"/><path d="M46 59h-3v-3h3z" overflow="visible" style="overflow:visible;isolation:auto;mix-blend-mode:normal;solid-color:#000;solid-opacity:1;fill-opacity:.34900004;marker:none"/><path d="M46 56h-3v-3h3z" overflow="visible" style="overflow:visible;isolation:auto;mix-blend-mode:normal;solid-color:#000;solid-opacity:1;marker:none"/><path d="M49 56h-3v-3h3z" overflow="visible" style="overflow:visible;isolation:auto;mix-blend-mode:normal;solid-color:#000;solid-opacity:1;fill-opacity:.722;marker:none"/><path d="M52 56h-3v-3h3z" overflow="visible" style="overflow:visible;isolation:auto;mix-blend-mode:normal;solid-color:#000;solid-opacity:1;fill-opacity:.531;marker:none"/><path d="M52 53h-3v-3h3z" overflow="visible" style="overflow:visible;isolation:auto;mix-blend-mode:normal;solid-color:#000;solid-opacity:1;fill-opacity:.34900004;marker:none"/><path d="M49 53h-3v-3h3z" overflow="visible" style="overflow:visible;isolation:auto;mix-blend-mode:normal;solid-color:#000;solid-opacity:1;marker:none"/><path d="M46 53h-3v-3h3z" overflow="visible" style="overflow:visible;isolation:auto;mix-blend-mode:normal;solid-color:#000;solid-opacity:1;fill-opacity:.34900004;marker:none"/><path d="M46 50h-3v-3h3z" overflow="visible" style="overflow:visible;isolation:auto;mix-blend-mode:normal;solid-color:#000;solid-opacity:1;fill-opacity:.21100003;marker:none"/><path d="M49 50h-3v-3h3z" overflow="visible" style="overflow:visible;isolation:auto;mix-blend-mode:normal;solid-color:#000;solid-opacity:1;fill-opacity:.531;marker:none"/><path d="M52 50h-3v-3h3z" overflow="visible" style="overflow:visible;isolation:auto;mix-blend-mode:normal;solid-color:#000;solid-opacity:1;fill-opacity:.722;marker:none"/><path d="M43 50h-3v-3h3z" overflow="visible" style="overflow:visible;isolation:auto;mix-blend-mode:normal;solid-color:#000;solid-opacity:1;marker:none"/><path d="M43 53h-3v-3h3z" overflow="visible" style="overflow:visible;isolation:auto;mix-blend-mode:normal;solid-color:#000;solid-opacity:1;fill-opacity:.531;marker:none"/><path d="M43 56h-3v-3h3z" overflow="visible" style="overflow:visible;isolation:auto;mix-blend-mode:normal;solid-color:#000;solid-opacity:1;fill-opacity:.21100003;marker:none"/><path d="M43 59h-3v-3h3z" overflow="visible" style="overflow:visible;isolation:auto;mix-blend-mode:normal;solid-color:#000;solid-opacity:1;fill-opacity:.722;marker:none"/></g><path d="M54 50h-2v-3h2z" overflow="visible" style="overflow:visible;opacity:.13999999;isolation:auto;mix-blend-mode:normal;solid-color:#000;solid-opacity:1;marker:none"/><path d="M54 53h-2v-3h2z" overflow="visible" style="overflow:visible;opacity:.13999999;isolation:auto;mix-blend-mode:normal;solid-color:#000;solid-opacity:1;fill-opacity:.531;marker:none"/><path d="M19 61v-2h-3v2z" overflow="visible" style="overflow:visible;opacity:.13999999;isolation:auto;mix-blend-mode:normal;solid-color:#000;solid-opacity:1;marker:none"/><path d="M22 61v-2h-3v2z" overflow="visible" style="overflow:visible;opacity:.13999999;isolation:auto;mix-blend-mode:normal;solid-color:#000;solid-opacity:1;fill-opacity:.531;marker:none"/><path d="M25 61v-2h-3v2z" overflow="visible" style="overflow:visible;opacity:.13999999;isolation:auto;mix-blend-mode:normal;solid-color:#000;solid-opacity:1;fill-opacity:.21100003;marker:none"/><path d="M28 61v-2h-3v2z" overflow="visible" style="overflow:visible;opacity:.13999999;isolation:auto;mix-blend-mode:normal;solid-color:#000;solid-opacity:1;fill-opacity:.722;marker:none"/><path d="M34 61h3v-2h-3z" overflow="visible" style="overflow:visible;opacity:.13999999;isolation:auto;mix-blend-mode:normal;solid-color:#000;solid-opacity:1;fill-opacity:.21100003;marker:none"/><path d="M31 61h3v-2h-3z" overflow="visible" style="overflow:visible;opacity:.13999999;isolation:auto;mix-blend-mode:normal;solid-color:#000;solid-opacity:1;fill-opacity:.531;marker:none"/><path d="M28 61h3v-2h-3z" overflow="visible" style="overflow:visible;opacity:.13999999;isolation:auto;mix-blend-mode:normal;solid-color:#000;solid-opacity:1;fill-opacity:.722;marker:none"/><path d="M37 61h3v-2h-3zm3-2h3v2h-3z" overflow="visible" style="overflow:visible;opacity:.13999999;isolation:auto;mix-blend-mode:normal;solid-color:#000;solid-opacity:1;marker:none"/><path d="M43 59h3v2h-3z" overflow="visible" style="overflow:visible;opacity:.13999999;isolation:auto;mix-blend-mode:normal;solid-color:#000;solid-opacity:1;fill-opacity:.531;marker:none"/><path d="M46 59h3v2h-3z" overflow="visible" style="overflow:visible;opacity:.13999999;isolation:auto;mix-blend-mode:normal;solid-color:#000;solid-opacity:1;fill-opacity:.34900004;marker:none"/></g><path d="M32 25c-2.216 0-4 1.784-4 4v4h-2v8h12v-8h-2v-4c0-2.216-1.784-4-4-4m0 1c1.662 0 3 1.561 3 3.5V33h-6v-3.5c0-1.939 1.338-3.5 3-3.5" overflow="visible" style="color:#000;overflow:visible;isolation:auto;mix-blend-mode:normal;solid-color:#000;solid-opacity:1;fill:#ddd"/><path d="M40 3H15c-2.77 0-5 2.23-5 5v48c0 2.77 2.23 5 5 5h34c2.77 0 5-2.23 5-5V17Z" style="fill:url(#b)"/><path d="M40 3H15c-2.77 0-5 2.23-5 5v1.014a5 5 0 0 1 1.46-3.54A5 5 0 0 1 15 4.015h25V4Z" style="opacity:.5;fill:#fff"/><path d="M54 54.86a5 5 0 0 1-1.46 3.538A5 5 0 0 1 49 59.86H15a5 5 0 0 1-3.54-1.46A5 5 0 0 1 10 54.86V56c0 2.77 2.23 5 5 5h34c2.77 0 5-2.23 5-5z" style="opacity:.25;fill-opacity:.99199997"/><path d="M40 3v11.535A2.456 2.456 0 0 0 42.465 17H54Z" style="opacity:.5;fill:#fff;fill-rule:evenodd"/><path d="M40.73 16.283 54 31V17H42.465c-.68 0-1.29-.276-1.735-.717" style="opacity:.1;fill:url(#c);fill-rule:evenodd"/></svg>