<svg xmlns="http://www.w3.org/2000/svg" xmlns:xlink="http://www.w3.org/1999/xlink" width="64" height="64"><defs><linearGradient xlink:href="#a" id="b" x1="0" x2="0" y1="60.774" y2="2.345" gradientUnits="userSpaceOnUse"/><linearGradient id="a" x2="0" y1="392.36" y2="336.36" gradientTransform="translate(254 -254)" gradientUnits="userSpaceOnUse"><stop stop-color="#fff" stop-opacity="0"/><stop offset="1" stop-color="#fff" stop-opacity=".2"/></linearGradient><linearGradient id="c" x1="41.616" x2="54" y1="17.475" y2="31" gradientUnits="userSpaceOnUse"><stop stop-color="#060606"/><stop offset="1" stop-opacity="0"/></linearGradient></defs><path d="M40 3H15c-2.77 0-5 2.23-5 5v48c0 2.77 2.23 5 5 5h34c2.77 0 5-2.23 5-5V17Z" style="fill:#38a5ea"/><path d="M40 3H15c-2.77 0-5 2.23-5 5v48c0 2.77 2.23 5 5 5h34c2.77 0 5-2.23 5-5V17Z" style="fill:url(#b)"/><path d="M40 3H15c-2.77 0-5 2.23-5 5v1.014a5 5 0 0 1 1.46-3.54A5 5 0 0 1 15 4.015h25V4Z" style="opacity:.5;fill:#fff"/><path d="M54 54.86a5 5 0 0 1-1.46 3.538A5 5 0 0 1 49 59.86H15a5 5 0 0 1-3.54-1.46A5 5 0 0 1 10 54.86V56c0 2.77 2.23 5 5 5h34c2.77 0 5-2.23 5-5z" style="opacity:.25;fill-opacity:.99199997"/><path d="M40 3v11.535A2.456 2.456 0 0 0 42.465 17H54Z" style="opacity:.5;fill:#fff;fill-rule:evenodd"/><g transform="matrix(1.83334 0 0 1.83333 2.667 3.667)"><rect width="11.7" height="11.7" x="10.15" y="10.15" rx=".67" ry=".67" style="fill:none;stroke:#fff;stroke-width:.30000001;stroke-linecap:round;stroke-linejoin:round;stroke-opacity:.75"/><path d="M15.1 11.21v1.8h-.956L16 15.11l1.856-2.1H16.9v-1.8zm.572 4.2c-.052 0-.084.088-.084.197v.684a1.9 1.9 0 0 0-.582.244l-.487-.488c-.077-.076-.16-.111-.197-.075l-.46.46c-.036.036-.001.12.076.196l.487.488a1.9 1.9 0 0 0-.244.581h-.684c-.109 0-.197.033-.197.085v.656c0 .052.088.084.197.084h.684c.048.21.133.406.244.582l-.487.487c-.077.077-.112.16-.075.197l.459.46c.037.036.12.001.197-.076l.487-.487c.176.11.373.196.582.244v.684c0 .108.032.197.084.197h.656c.052 0 .085-.089.085-.197v-.684a1.9 1.9 0 0 0 .58-.244l.488.487c.077.077.16.112.197.075l.46-.46c.036-.036.001-.12-.075-.196l-.488-.487a1.9 1.9 0 0 0 .244-.582h.684c.109 0 .197-.032.197-.084v-.656c0-.052-.088-.085-.197-.085h-.684a1.9 1.9 0 0 0-.244-.581l.487-.488c.077-.076.112-.16.075-.196l-.459-.46c-.037-.036-.12-.001-.197.075l-.487.488a1.9 1.9 0 0 0-.582-.244v-.684c0-.109-.032-.197-.084-.197zM16 17.275c.459 0 .834.376.834.835a.837.837 0 0 1-.834.834.837.837 0 0 1-.834-.834c0-.459.375-.835.834-.835" overflow="visible" style="overflow:visible;fill:#fff;fill-opacity:.75;marker:none"/></g><path d="M40.73 16.283 54 31V17H42.465c-.68 0-1.29-.276-1.735-.717" style="opacity:.1;fill:url(#c);fill-rule:evenodd"/></svg>