<svg xmlns="http://www.w3.org/2000/svg" xmlns:xlink="http://www.w3.org/1999/xlink" width="64" height="64"><defs><linearGradient xlink:href="#a" id="c" x1="0" x2="0" y1="60.774" y2="2.345" gradientUnits="userSpaceOnUse"/><linearGradient id="a" x2="0" y1="392.36" y2="336.36" gradientTransform="translate(254 -254)" gradientUnits="userSpaceOnUse"><stop stop-color="#fff" stop-opacity="0"/><stop offset="1" stop-color="#fff" stop-opacity=".2"/></linearGradient><linearGradient id="b" x1="41.616" x2="54" y1="17.475" y2="31" gradientUnits="userSpaceOnUse"><stop stop-color="#060606"/><stop offset="1" stop-opacity="0"/></linearGradient></defs><path d="M40 3H15c-2.77 0-5 2.23-5 5v48c0 2.77 2.23 5 5 5h34c2.77 0 5-2.23 5-5V17Z" style="fill:#555"/><path d="M40 3H15c-2.77 0-5 2.23-5 5v1.014a5 5 0 0 1 1.46-3.54A5 5 0 0 1 15 4.015h25V4Z" style="opacity:.5;fill:#fff"/><path d="M54 54.86a5 5 0 0 1-1.46 3.538A5 5 0 0 1 49 59.86H15a5 5 0 0 1-3.54-1.46A5 5 0 0 1 10 54.86V56c0 2.77 2.23 5 5 5h34c2.77 0 5-2.23 5-5z" style="opacity:.25;fill-opacity:.99199997"/><path d="M40 3v11.535A2.456 2.456 0 0 0 42.465 17H54Z" style="opacity:.5;fill:#fff;fill-rule:evenodd"/><path d="M40.73 16.283 54 31V17H42.465c-.68 0-1.29-.276-1.735-.717" style="opacity:.3;fill:url(#b);fill-rule:evenodd"/><g style="fill:#343434"><path d="M28.5 33.5v1.102a5 5 0 0 0-1.754.73l-.781-.781-1.414 1.414.781.781a5 5 0 0 0-.727 1.754H23.5v2h1.102c.129.626.377 1.221.73 1.754l-.781.781 1.414 1.414.781-.781a5 5 0 0 0 1.754.727V45.5h2v-1.102a5 5 0 0 0 1.754-.73l.781.781 1.414-1.414-.781-.781a5 5 0 0 0 .727-1.754H35.5v-2h-1.102a5 5 0 0 0-.73-1.754l.781-.781-1.414-1.414-.781.781a5 5 0 0 0-1.754-.727V33.5Zm1 2a4.001 4.001 0 1 1-.001 8.002A4.001 4.001 0 0 1 29.5 35.5"/><path d="m22.852 22.924.31 1.057c-.564.3-1.066.705-1.478 1.194l-.969-.53-.959 1.755.969.53a5 5 0 0 0-.204 1.887l-1.061.311.563 1.919 1.057-.31c.3.564.705 1.066 1.194 1.478l-.53.969 1.755.959.53-.969a5 5 0 0 0 1.887.204l.311 1.061 1.919-.563-.31-1.057a5 5 0 0 0 1.478-1.194l.969.53.959-1.755-.969-.53a5 5 0 0 0 .204-1.887l1.061-.311-.563-1.919-1.057.31a5 5 0 0 0-1.194-1.478l.53-.969-1.755-.959-.53.969a5 5 0 0 0-1.887-.204l-.311-1.061zm1.522 1.638a4 4 0 1 1 2.25 7.677 4 4 0 0 1-2.25-7.677"/></g><path d="m39.09 27.431-.107 1.096a5 5 0 0 0-1.817.556l-.702-.854-1.545 1.27.702.854a5 5 0 0 0-.894 1.675l-1.1-.108-.195 1.991 1.096.107c.068.636.256 1.252.556 1.817l-.854.702 1.27 1.545.854-.702a5 5 0 0 0 1.675.894l-.108 1.1 1.991.195.107-1.096a5 5 0 0 0 1.817-.556l.702.854 1.545-1.27-.702-.854a5 5 0 0 0 .894-1.675l1.1.108.195-1.991-1.096-.107a5 5 0 0 0-.556-1.817l.854-.702-1.27-1.545-.854.702a5 5 0 0 0-1.675-.894l.108-1.1zm.801 2.088a3.997 3.997 0 0 1 3.591 4.37 3.997 3.997 0 0 1-4.37 3.591 3.997 3.997 0 0 1-3.591-4.37 3.997 3.997 0 0 1 4.37-3.591" style="fill:#343434"/><g style="fill:#e0e0e0"><path d="m38.589 26.931-.107 1.096a5 5 0 0 0-1.817.556l-.702-.854-1.545 1.27.702.854a5 5 0 0 0-.894 1.675l-1.1-.108-.195 1.991 1.096.107c.068.636.256 1.252.556 1.817l-.854.702 1.27 1.545.854-.702a5 5 0 0 0 1.675.894l-.108 1.1 1.991.195.107-1.096a5 5 0 0 0 1.817-.556l.702.854 1.545-1.27-.702-.854a5 5 0 0 0 .894-1.675l1.1.108.195-1.991-1.096-.107a5 5 0 0 0-.556-1.817l.854-.702-1.27-1.545-.854.702a5 5 0 0 0-1.675-.894l.108-1.1zm.801 2.088a3.997 3.997 0 0 1 3.591 4.37 3.997 3.997 0 0 1-4.37 3.591 3.997 3.997 0 0 1-3.591-4.37 3.997 3.997 0 0 1 4.37-3.591"/><path d="M28 33v1.102a5 5 0 0 0-1.754.73l-.781-.781-1.414 1.414.781.781A5 5 0 0 0 24.105 38H23v2h1.102c.129.626.377 1.221.73 1.754l-.781.781 1.414 1.414.781-.781a5 5 0 0 0 1.754.727V45h2v-1.102a5 5 0 0 0 1.754-.73l.781.781 1.414-1.414-.781-.781A5 5 0 0 0 33.895 40H35v-2h-1.102a5 5 0 0 0-.73-1.754l.781-.781-1.414-1.414-.781.781A5 5 0 0 0 30 34.105V33Zm1 2a4.001 4.001 0 1 1-.001 8.002A4.001 4.001 0 0 1 29 35"/></g><path d="m22.352 22.524.31 1.057c-.564.3-1.066.705-1.478 1.194l-.969-.53L19.256 26l.969.53a5 5 0 0 0-.204 1.887l-1.061.311.563 1.919 1.057-.31c.3.564.705 1.066 1.194 1.478l-.53.969 1.755.959.53-.969a5 5 0 0 0 1.887.204l.311 1.061 1.919-.563-.31-1.057a5 5 0 0 0 1.478-1.194l.969.53.959-1.755-.969-.53a5 5 0 0 0 .204-1.887l1.061-.311-.563-1.919-1.057.31a5 5 0 0 0-1.194-1.478l.53-.969-1.755-.959-.53.969a5 5 0 0 0-1.887-.204l-.311-1.061zm1.522 1.638a4 4 0 1 1 2.25 7.677 4 4 0 0 1-2.25-7.677" style="fill:#e0e0e0"/><path d="M40 3H15c-2.77 0-5 2.23-5 5v48c0 2.77 2.23 5 5 5h34c2.77 0 5-2.23 5-5V17Z" style="fill:url(#c)"/></svg>