<svg xmlns="http://www.w3.org/2000/svg" xmlns:xlink="http://www.w3.org/1999/xlink" xml:space="preserve" width="64" height="64"><defs><linearGradient xlink:href="#a" id="d" x1="47" x2="54" y1="17" y2="24" gradientTransform="matrix(2 0 0 2.07143 -54 -17.714)" gradientUnits="userSpaceOnUse"/><linearGradient id="a" x1="47" x2="54" y1="17" y2="24" gradientTransform="translate(-27 -8)" gradientUnits="userSpaceOnUse"><stop stop-color="#060606"/><stop offset="1" stop-opacity="0"/></linearGradient><path id="b" d="M10 61V3h30l14 14v44H40z"/></defs><path fill="#555" d="M40 3H16c-3.324 0-6 2.772-6 6.214v45.572C10 58.228 12.676 61 16 61h32c3.324 0 6-2.772 6-6.214V17.5z" style="stroke-width:2.03541"/><path fill="#fff" d="M16 3a5.98 6.194 0 0 0-4.246 1.817c-.062.064-.04.186-.1.254H40V3Z" color="#000" opacity=".5" style="stroke-width:2.03541"/><path d="M11.652 58.929c.06.068.04.19.102.254A5.98 6.194 0 0 0 16 61h32a5.98 6.194 0 0 0 4.246-1.817c.062-.064.04-.186.1-.254z" color="#000" opacity=".25" style="stroke-width:2.03541"/><path fill="#fff" fill-rule="evenodd" d="M54 17.5 40 3v14.5Z" color="#000" opacity=".5" style="stroke-width:2.03541"/><path fill="url(#b)" fill-rule="evenodd" d="M40 17.5 54 32V17.5Z" opacity=".4" style="fill:url(#d);stroke-width:2.03541"/><path fill="#343434" d="M37.988 32.31c.038-.314.066-.633.066-.958 0-.326-.029-.645-.066-.96l2-1.625a.504.504 0 0 0 .114-.63l-1.898-3.406a.46.46 0 0 0-.578-.21l-2.364.987a7.2 7.2 0 0 0-1.604-.967l-.356-2.606a.49.49 0 0 0-.474-.412h-3.796a.485.485 0 0 0-.47.412l-.356 2.606a7 7 0 0 0-1.604.967l-2.364-.988a.466.466 0 0 0-.578.211l-1.898 3.406a.506.506 0 0 0 .114.63l2 1.626a8 8 0 0 0-.066.959c0 .325.028.644.066.959l-2 1.626a.504.504 0 0 0-.114.63l1.898 3.405a.46.46 0 0 0 .578.211l2.364-.988a7.2 7.2 0 0 0 1.604.967l.356 2.606a.48.48 0 0 0 .47.413h3.796a.485.485 0 0 0 .47-.413l.356-2.606a7 7 0 0 0 1.604-.967l2.364.988c.214.083.46 0 .578-.211l1.898-3.406a.51.51 0 0 0-.114-.63zm-7.052 2.482c-1.836 0-3.322-1.539-3.322-3.44s1.486-3.441 3.322-3.441 3.322 1.54 3.322 3.44c0 1.902-1.486 3.441-3.322 3.441" style="stroke-width:2.03541"/><path fill="#e0e0e0" d="M35.988 30.24c.038-.316.066-.635.066-.96s-.028-.644-.066-.959l2-1.626a.504.504 0 0 0 .114-.63l-1.898-3.405c-.118-.211-.366-.3-.578-.211l-2.364.988a7.2 7.2 0 0 0-1.604-.968l-.356-2.605a.49.49 0 0 0-.474-.413h-3.796a.485.485 0 0 0-.47.413l-.356 2.605a7 7 0 0 0-1.604.968l-2.364-.988a.466.466 0 0 0-.578.21l-1.898 3.406a.506.506 0 0 0 .114.63l2 1.626a8 8 0 0 0-.066.96c0 .324.028.643.066.958l-2 1.626a.504.504 0 0 0-.114.63L21.66 35.9a.46.46 0 0 0 .578.212l2.364-.988a7.2 7.2 0 0 0 1.604.967l.356 2.606a.48.48 0 0 0 .47.412h3.796a.485.485 0 0 0 .47-.412l.356-2.606a7 7 0 0 0 1.604-.967l2.364.988c.214.083.46 0 .578-.212l1.898-3.405a.506.506 0 0 0-.114-.63zm-7.052 2.48c-1.836 0-3.322-1.538-3.322-3.44s1.486-3.44 3.322-3.44 3.322 1.539 3.322 3.44-1.486 3.44-3.322 3.44" style="stroke-width:2.03541"/><path fill="#343434" d="M43.408 49.69c.13-.189.258-.383.368-.592.11-.21.2-.425.282-.64l1.842-.317a.354.354 0 0 0 .286-.363l-.066-2.88a.354.354 0 0 0-.3-.345l-1.854-.224a5.6 5.6 0 0 0-.702-1.205l.654-1.805a.374.374 0 0 0-.166-.437l-2.44-1.38a.343.343 0 0 0-.442.096l-1.11 1.545a5 5 0 0 0-1.358.04l-1.184-1.494a.34.34 0 0 0-.444-.074l-2.374 1.5a.37.37 0 0 0-.14.445l.736 1.773c-.13.188-.258.383-.368.592-.11.21-.2.425-.282.64l-1.838.32a.354.354 0 0 0-.286.362l.066 2.88a.354.354 0 0 0 .3.345l1.854.224c.182.426.416.832.702 1.205l-.654 1.804c-.054.162.01.35.162.435l2.44 1.38c.152.087.34.04.442-.095l1.11-1.546c.456.05.912.036 1.358-.039l1.184 1.494a.34.34 0 0 0 .444.074l2.374-1.5a.37.37 0 0 0 .14-.445zm-5.372-.967c-1.18-.667-1.614-2.196-.97-3.418s2.12-1.672 3.3-1.005 1.614 2.196.97 3.418-2.12 1.672-3.3 1.005" style="stroke-width:2.03541"/><path fill="#343434" d="M9 21v3h3v-3zm4 0v3h3v-3zm-4 4v3h3v-3zm4 0v3h3v-3z" style="color:#000;color-interpolation:sRGB;color-interpolation-filters:linearRGB;color-rendering:auto;image-rendering:auto;shape-rendering:auto;text-rendering:auto" transform="matrix(2 0 0 2.07143 -1.992 -1.06)"/><path fill="#e0e0e0" d="M8 20v3h3v-3zm4 0v3h3v-3zm-4 4v3h3v-3zm4 0v3h3v-3z" style="color:#000;color-interpolation:sRGB;color-interpolation-filters:linearRGB;color-rendering:auto;image-rendering:auto;shape-rendering:auto;text-rendering:auto" transform="matrix(2 0 0 2.07143 -1.992 -1.06)"/><path fill="#e0e0e0" d="M41.408 47.619a6 6 0 0 0 .368-.593c.11-.21.2-.425.282-.64l1.842-.317a.354.354 0 0 0 .286-.362l-.066-2.88a.354.354 0 0 0-.3-.346l-1.854-.223a5.6 5.6 0 0 0-.702-1.206l.654-1.804a.374.374 0 0 0-.166-.437l-2.44-1.38a.34.34 0 0 0-.442.096l-1.11 1.545a5 5 0 0 0-1.358.04l-1.184-1.494a.34.34 0 0 0-.444-.075l-2.374 1.5a.37.37 0 0 0-.14.445l.736 1.773c-.13.189-.258.384-.368.593s-.2.424-.282.64l-1.838.319a.354.354 0 0 0-.286.362l.066 2.88a.354.354 0 0 0 .3.346l1.854.223c.182.427.416.833.702 1.206l-.654 1.804c-.054.162.01.35.162.435l2.44 1.38c.152.087.34.039.442-.096l1.11-1.545c.456.05.912.035 1.358-.04l1.184 1.494a.34.34 0 0 0 .444.075l2.374-1.5a.37.37 0 0 0 .14-.445zm-5.372-.968c-1.18-.667-1.614-2.196-.97-3.418s2.12-1.671 3.3-1.004 1.614 2.195.97 3.418c-.644 1.222-2.12 1.671-3.3 1.004" style="stroke-width:2.03541"/></svg>