<svg xmlns="http://www.w3.org/2000/svg" xmlns:xlink="http://www.w3.org/1999/xlink" width="64" height="64"><defs><linearGradient id="a" x2="0" y1="3" y2="61" gradientTransform="matrix(1 0 0 -1 0 64)" gradientUnits="userSpaceOnUse"><stop stop-color="#5e6b78"/><stop offset="1" stop-color="#768492"/></linearGradient><linearGradient id="b" x2="0" y1="61" y2="47" gradientTransform="matrix(1 0 0 -1 0 64)" gradientUnits="userSpaceOnUse"><stop stop-color="#dedede"/><stop offset="1" stop-color="#fbfbfb"/></linearGradient><linearGradient id="e" x1="41.616" x2="54" y1="17.475" y2="31" gradientUnits="userSpaceOnUse"><stop stop-color="#060606"/><stop offset="1" stop-opacity="0"/></linearGradient><linearGradient xlink:href="#a" id="c" x1="10" x2="10" y1="61" y2="3" gradientTransform="translate(-40)" gradientUnits="userSpaceOnUse"/><linearGradient xlink:href="#b" id="d" x1="40" x2="40" y1="3" y2="17" gradientTransform="translate(-40)" gradientUnits="userSpaceOnUse"/></defs><path d="M40 3H15c-2.77 0-5 2.23-5 5v48c0 2.77 2.23 5 5 5h34c2.77 0 5-2.23 5-5V17Z" style="fill:url(#c)"/><path d="M40 3H15c-2.77 0-5 2.23-5 5v1.014a5 5 0 0 1 1.46-3.54A5 5 0 0 1 15 4.015h25V4Z" style="opacity:.5;fill:#fff"/><path d="M54 54.86a5 5 0 0 1-1.46 3.538A5 5 0 0 1 49 59.86H15a5 5 0 0 1-3.54-1.46A5 5 0 0 1 10 54.86V56c0 2.77 2.23 5 5 5h34c2.77 0 5-2.23 5-5z" style="opacity:.25;fill-opacity:.99199997"/><path d="M40 3v11.535A2.456 2.456 0 0 0 42.465 17H54Z" style="fill:url(#d);fill-rule:evenodd"/><path d="M40.73 16.283 54 31V17H42.465c-.68 0-1.29-.276-1.735-.717" style="opacity:.2;fill:url(#e);fill-rule:evenodd"/><path d="M21 22v22h22V22Zm1 5h6.826v1.414h-5.695v1.619h9.09a12.8 12.8 0 0 1-2.578 4.361 12.7 12.7 0 0 1-1.879-2.727h-1.629a14.3 14.3 0 0 0 2.426 3.711l-4.143 4.084 1.156 1.156 4.068-4.068 2.529 2.529.619-1.66-2.066-2.041.023-.025a14.25 14.25 0 0 0 3.02-5.313h2.385v-1.627h-5.697v-1.414h11.547v16h-.99l-3.641-9.705h-1.627l-3.639 9.705h-10.1zm14.557 8.469 1.318 3.521h-2.637zm-1.938 5.15h3.865L39.382 43H33.73Z" style="fill:#fbfbfb;fill-rule:evenodd"/></svg>