<svg xmlns="http://www.w3.org/2000/svg" xmlns:xlink="http://www.w3.org/1999/xlink" width="64" height="64"><defs><linearGradient xlink:href="#a" id="b" x2="0" y1="392.36" y2="336.36" gradientTransform="translate(-6 -332.415)" gradientUnits="userSpaceOnUse"/><linearGradient id="a" x2="0" y1="392.36" y2="336.36" gradientTransform="translate(-66 -332.36)" gradientUnits="userSpaceOnUse"><stop stop-color="#fff" stop-opacity="0"/><stop offset="1" stop-color="#fff" stop-opacity=".2"/></linearGradient></defs><circle cx="37" cy="35.945" r="24" style="color:#000;color-interpolation:sRGB;color-interpolation-filters:linearRGB;fill:#90cdf3;fill-opacity:1;color-rendering:auto;image-rendering:auto;shape-rendering:auto;text-rendering:auto"/><path d="M11.783 10.945A6.77 6.77 0 0 0 5 17.728v36.434a6.77 6.77 0 0 0 6.783 6.783H55v-20h-4.096A4.894 4.894 0 0 1 46 36.041v-.192a4.89 4.89 0 0 1 4.904-4.902H55v-20l-17.437-.002h-10.79Z" style="opacity:1;fill:#209ae7;fill-opacity:1;fill-rule:nonzero;stroke:none;stroke-width:2;stroke-linejoin:miter;stroke-miterlimit:4;stroke-dasharray:none;stroke-opacity:1"/><path d="M21 24.945v16.05a3.49 3.49 0 0 0-2.5-1.053 3.49 3.49 0 0 0-3.5 3.5c0 1.939 1.561 3.5 3.5 3.5a3.486 3.486 0 0 0 3.49-3.4H22v-13.6h14v8.05a3.49 3.49 0 0 0-2.5-1.053 3.49 3.49 0 0 0-3.5 3.5c0 1.939 1.561 3.5 3.5 3.5s3.5-1.561 3.5-3.5v-15.5H22Zm1 2h14v2H22Z" style="color:#000;opacity:.75;color-interpolation:sRGB;color-interpolation-filters:linearRGB;fill:#fff;color-rendering:auto;image-rendering:auto;shape-rendering:auto;text-rendering:auto"/><path d="M11.773 10.945a6.8 6.8 0 0 0-2.634.53A6.77 6.77 0 0 0 5 17.725V54.16a6.77 6.77 0 0 0 6.783 6.783H55v-9.156a24 24 0 0 0 6-15.842 24 24 0 0 0-6-15.83v-9.17z" style="color:#000;color-interpolation:sRGB;color-interpolation-filters:linearRGB;fill:url(#b);color-rendering:auto;image-rendering:auto;shape-rendering:auto;text-rendering:auto"/><path d="M55 59.802H11.783A6.77 6.77 0 0 1 5 53.02v1.143a6.77 6.77 0 0 0 6.783 6.783H55Z" style="opacity:.25;fill:#000;fill-opacity:1;fill-rule:nonzero;stroke:none;stroke-width:2;stroke-linejoin:miter;stroke-miterlimit:4;stroke-dasharray:none;stroke-opacity:1"/><path d="M11.783 10.855A6.77 6.77 0 0 0 5 17.64v1.142a6.77 6.77 0 0 1 6.783-6.783h25.78L55 12v-1.143l-17.437-.002h-10.79Z" style="opacity:.5;fill:#fff;fill-opacity:1;fill-rule:nonzero;stroke:none;stroke-width:2;stroke-linejoin:miter;stroke-miterlimit:4;stroke-dasharray:none;stroke-opacity:1"/></svg>