<svg xmlns="http://www.w3.org/2000/svg" xmlns:xlink="http://www.w3.org/1999/xlink" width="64" height="64"><defs><linearGradient id="a" x2="0" y1="57" y2="7" gradientUnits="userSpaceOnUse"><stop stop-color="#3a539b"/><stop offset="1" stop-color="#3f5aa9"/></linearGradient><linearGradient xlink:href="#a" id="b" x1="0" x2="0" y1="56.84" y2="6.719" gradientTransform="translate(-60)" gradientUnits="userSpaceOnUse"/></defs><rect width="56" height="50" x="4" y="7" ry="5" style="fill:url(#b)"/><path d="M9 7c-2.77 0-5 2.23-5 5v1.014a5 5 0 0 1 1.46-3.54A5 5 0 0 1 9 8.015h46a5 5 0 0 1 3.54 1.46 5 5 0 0 1 1.46 3.54V12c0-2.77-2.23-5-5-5Z" style="opacity:.5;fill:#fff"/><path d="M60 50.732a5 5 0 0 1-1.46 3.54 5 5 0 0 1-1.59 1.07 5 5 0 0 1-1.95.39H9c-.693 0-1.35-.138-1.95-.39A4.99 4.99 0 0 1 4 50.732V52c0 2.77 2.23 5 5 5h46c2.77 0 5-2.23 5-5z" style="opacity:.25"/><path d="M30 21v4h4v-4zm1 1h2v2h-2zm-1.664 1.258-1.932.518.26.967 1.932-.518zm-3 1-1.932.518.26.967 1.932-.518zm8.664.275v1.035l6.143 1.645L35 28.967v14.03h.029L43 40.72V26.66ZM23 25a1 1 0 0 0-1 1 1 1 0 0 0 1 1 1 1 0 0 0 1-1 1 1 0 0 0-1-1m-2 2v14l12 2V29Zm21 1.01v11.303l-6-1.61v-7.978zm-6 10.729 5.322 1.426L36 41.685z" style="fill:#c1cae7;fill-rule:evenodd"/><path d="M10 11c-1.108 0-2 .892-2 2v38c0 1.108.892 2 2 2h44c1.108 0 2-.892 2-2V13c0-1.108-.892-2-2-2zm0 1h44c.554 0 1 .446 1 1v38c0 .554-.446 1-1 1H10c-.554 0-1-.446-1-1V13c0-.554.446-1 1-1" style="opacity:.75;fill:#c1cae7"/></svg>