<svg xmlns="http://www.w3.org/2000/svg" xmlns:xlink="http://www.w3.org/1999/xlink" width="64" height="64"><defs><linearGradient xlink:href="#a" id="b" x1="-25" x2="-25" y1="59" y2="-1" gradientUnits="userSpaceOnUse"/><linearGradient id="a" x2="0" y1="392.36" y2="320.48" gradientTransform="matrix(1 0 0 .84587 11 536.63)" gradientUnits="userSpaceOnUse"><stop stop-color="#fff" stop-opacity="0"/><stop offset="1" stop-color="#fff" stop-opacity=".2"/></linearGradient><linearGradient id="c" x1="41.616" x2="54" y1="17.475" y2="31" gradientTransform="translate(6 8)" gradientUnits="userSpaceOnUse"><stop stop-color="#060606"/><stop offset="1" stop-opacity="0"/></linearGradient></defs><path d="M46 11H9c-2.77 0-5 2.23-5 5v40c0 2.77 2.23 5 5 5h46c2.77 0 5-2.23 5-5V25Z" style="fill:#208ff3"/><path d="M28 25v4h4v-4zm1 1h2v2h-2zm-1.664 1.258-1.932.518.26.967 1.932-.518zm-3 1-1.932.518.26.967 1.932-.518zm8.664.275v1.035l6.143 1.645L33 32.967v14.03h.029L41 44.72V30.66ZM21 29a1 1 0 0 0-1 1 1 1 0 0 0 1 1 1 1 0 0 0 1-1 1 1 0 0 0-1-1m-2 2v14l12 2V33Zm21 1.01v11.303l-6-1.61v-7.978zm-6 10.729 5.322 1.426L34 45.685z" overflow="visible" style="color:#000;overflow:visible;opacity:.5;isolation:auto;mix-blend-mode:normal;solid-color:#000;solid-opacity:1"/><path d="M46 11H9c-2.77 0-5 2.23-5 5v40c0 2.77 2.23 5 5 5h46c2.77 0 5-2.23 5-5V25Z" style="fill:url(#b)"/><path d="M46 11v11.535A2.456 2.456 0 0 0 48.465 25H60Z" style="opacity:.5;fill-rule:evenodd"/><path d="M46.73 24.283 60 39V25H48.465c-.68 0-1.29-.276-1.735-.717" style="opacity:.2;fill:url(#c);fill-rule:evenodd"/><path d="M46 11H9c-2.77 0-5 2.23-5 5v.986a4.98 4.98 0 0 1 3.05-4.61 5 5 0 0 1 1.95-.39h37z" style="opacity:.5;fill:#fff"/><path d="M60 54.732a5 5 0 0 1-1.46 3.54 5 5 0 0 1-1.59 1.07 5 5 0 0 1-1.95.39H9c-.693 0-1.35-.138-1.95-.39A4.99 4.99 0 0 1 4 54.732V56c0 2.77 2.23 5 5 5h46c2.77 0 5-2.23 5-5z" style="opacity:.25"/></svg>