<svg xmlns="http://www.w3.org/2000/svg" xmlns:xlink="http://www.w3.org/1999/xlink" width="64" height="64"><defs><linearGradient xlink:href="#a" id="b" x1="-75" x2="-75" y1="59" y2="-1" gradientTransform="translate(40)" gradientUnits="userSpaceOnUse"/><linearGradient id="a" x2="0" y1="392.36" y2="320.48" gradientTransform="matrix(1 0 0 .84587 -34 -272.73)" gradientUnits="userSpaceOnUse"><stop stop-color="#fff" stop-opacity="0"/><stop offset="1" stop-color="#fff" stop-opacity=".2"/></linearGradient></defs><path d="M9 11c-2.77 0-5 2.23-5 5v40c0 2.77 2.23 5 5 5h46c2.77 0 5-2.23 5-5V16c0-2.77-2.23-5-5-5H18Z" style="fill:#59cfd3"/><path d="M9 11c-2.77 0-5 2.23-5 5v40c0 2.77 2.23 5 5 5h46c2.77 0 5-2.23 5-5V16c0-2.77-2.23-5-5-5H18Z" style="fill:url(#b)"/><path d="M60 54.986a5 5 0 0 1-1.46 3.54 5 5 0 0 1-3.54 1.46H9a5 5 0 0 1-3.54-1.46A5 5 0 0 1 4 54.985V56c0 2.77 2.23 5 5 5h46c2.77 0 5-2.23 5-5z" style="opacity:.25"/><path d="M21.05 21.344v1.828h1v-1.828ZM18.257 22.5l-.707.707 1.293 1.293.707-.707Zm6.586 0-1.293 1.293.707.707 1.293-1.293zM21.499 24a2.5 2.5 0 1 0 0 5 2.5 2.5 0 0 0 0-5m0 1a1.5 1.5 0 1 1-.001 3.001A1.5 1.5 0 0 1 21.499 25m-5.105 1v1h1.828v-1zm8.484 0v1h1.828v-1zm14.12 5-2 2h-.008l-8.592 8.58v.02l-4.6-4.6-9 9h1.406l6.119-6.082 1.409-1.404 1.564 1.418L28.398 43l4-4 2.951-2.936 3.648-3.462 3.637 3.515L50.591 44h1.406zm-20.16-2.5-1.293 1.293.707.707 1.293-1.293zm5.414 0-.707.707 1.293 1.293.707-.707zm-3.207 1.328v1.828h1v-1.828z" style="color:#4d4d4d;opacity:.75;fill:#fff;fill-rule:evenodd"/><path d="M8 13c-1.108 0-2 .892-2 2v2h4v-4zm4 0v4h4v-4zm6 0v4h4v-4zm6 0v4h4v-4zm6 0v4h4v-4zm6 0v4h4v-4zm6 0v4h4v-4zm6 0v4h4v-4zm6 0v4h4v-2c0-1.108-.892-2-2-2zM6 55v2c0 1.108.892 2 2 2h2v-4zm6 0v4h4v-4zm6 0v4h4v-4zm6 0v4h4v-4zm6 0v4h4v-4zm6 0v4h4v-4zm6 0v4h4v-4zm6 0v4h4v-4zm6 0v4h2c1.108 0 2-.892 2-2v-2z" style="color:#000;opacity:.5;fill:#fff;fill-rule:evenodd"/><path d="M60 17.046a5 5 0 0 0-1.46-3.54 5 5 0 0 0-3.54-1.46H9a5 5 0 0 0-3.54 1.46A5 5 0 0 0 4 17.047v-1.014c0-2.77 2.23-5 5-5h46c2.77 0 5 2.23 5 5z" style="opacity:.3;fill:#fff"/></svg>