<svg xmlns="http://www.w3.org/2000/svg" xmlns:xlink="http://www.w3.org/1999/xlink" width="64" height="64"><defs><linearGradient xlink:href="#a" id="c" x1="-75" x2="-75" y1="59" y2="-1" gradientTransform="translate(40)" gradientUnits="userSpaceOnUse"/><linearGradient id="a" x2="0" y1="392.36" y2="320.48" gradientTransform="matrix(1 0 0 .84587 -34 -272.73)" gradientUnits="userSpaceOnUse"><stop stop-color="#fff" stop-opacity="0"/><stop offset="1" stop-color="#fff" stop-opacity=".2"/></linearGradient><linearGradient id="d" x1="41.616" x2="54" y1="17.475" y2="31" gradientTransform="translate(6 8)" gradientUnits="userSpaceOnUse"><stop stop-color="#060606"/><stop offset="1" stop-opacity="0"/></linearGradient></defs><path d="M46 11H9c-2.77 0-5 2.23-5 5v40c0 2.77 2.23 5 5 5h46c2.77 0 5-2.23 5-5V25Z" style="fill:#0c2d63"/><path d="M26 27c-3.324 0-6 2.676-6 6 0 1.096.295 2.119.805 3l-.004-.002.082.131c.058.094.113.189.176.279l7.942 12.59v-10h7c3.324 0 6-2.676 6-6s-2.676-6-6-6zm10 2a4 4 0 0 1 4 4 4 4 0 0 1-4 4 4 4 0 0 1-4-4 4 4 0 0 1 4-4" overflow="visible" style="color:#000;overflow:visible;isolation:auto;mix-blend-mode:normal;solid-color:#000;solid-opacity:1;fill:#1d70f7"/><path d="M46 11H9c-2.77 0-5 2.23-5 5v40c0 2.77 2.23 5 5 5h46c2.77 0 5-2.23 5-5V25Z" style="fill:url(#c)"/><path d="M60 54.986a5 5 0 0 1-1.46 3.54 5 5 0 0 1-3.54 1.46H9a5 5 0 0 1-3.54-1.46A5 5 0 0 1 4 54.985V56c0 2.77 2.23 5 5 5h46c2.77 0 5-2.23 5-5z" style="opacity:.25"/><path d="M46 11H9c-2.77 0-5 2.23-5 5v1.14a5 5 0 0 1 1.46-3.538A5 5 0 0 1 9 12.14h37z" style="opacity:.3;fill:#fff"/><path d="M46.73 24.283 60 39V25H48.465c-.68 0-1.29-.276-1.735-.717" style="opacity:.2;fill:url(#d);fill-rule:evenodd"/><path d="M46 11v11.535A2.456 2.456 0 0 0 48.465 25H60Z" style="fill:#1d70f7;fill-rule:evenodd"/></svg>