<svg xmlns="http://www.w3.org/2000/svg" xmlns:xlink="http://www.w3.org/1999/xlink" width="64" height="64"><defs><linearGradient xlink:href="#a" id="b" x1="-50" x2="-50" y1="61" y2="3" gradientTransform="translate(60)" gradientUnits="userSpaceOnUse"/><linearGradient id="a" x2="0" y1="392.36" y2="336.36" gradientTransform="translate(-14 -332.36)" gradientUnits="userSpaceOnUse"><stop stop-color="#fff" stop-opacity="0"/><stop offset="1" stop-color="#fff" stop-opacity=".15"/></linearGradient></defs><path d="M10 3v58h37.216A6.77 6.77 0 0 0 54 54.217V9.783A6.77 6.77 0 0 0 47.217 3H16.783Z" style="opacity:1;fill:#209ae7;fill-opacity:1;fill-rule:nonzero;stroke:none;stroke-width:2;stroke-linejoin:miter;stroke-miterlimit:4;stroke-dasharray:none;stroke-opacity:1"/><path d="M23 19v22h22V19h-1v1h-2v-1h-2v1h-2v-1h-2v1h-3v-1h-2v1h-3v-1h-2v1h-2v-1zm1 3h20v18H24zm3 4v1h14v-1zm0 4v1h8v-1zm0 4v1h11v-1zm11 3v1h3v-1z" style="color:#000;clip-rule:nonzero;display:inline;overflow:visible;visibility:visible;opacity:.8;isolation:auto;mix-blend-mode:normal;color-interpolation:sRGB;color-interpolation-filters:linearRGB;solid-color:#000;solid-opacity:1;fill:#fff;fill-opacity:1;fill-rule:nonzero;stroke-width:1;stroke-linecap:butt;stroke-linejoin:miter;stroke-miterlimit:4;stroke-dasharray:none;stroke-dashoffset:0;stroke-opacity:1;color-rendering:auto;image-rendering:auto;shape-rendering:auto;text-rendering:auto"/><path d="M16 4h1v56h-1z" style="fill:#fff;fill-opacity:.25200004"/><path d="M17 4h1v56h-1z" style="color:#000;color-interpolation:sRGB;color-interpolation-filters:linearRGB;fill-opacity:.08299997;color-rendering:auto;image-rendering:auto;shape-rendering:auto;text-rendering:auto"/><path d="M54 53.203a6.77 6.77 0 0 1-6.783 6.783H10V61h37.216A6.77 6.77 0 0 0 54 54.217z" style="opacity:.25;fill:#000;fill-opacity:1;fill-rule:nonzero;stroke:none;stroke-width:2;stroke-linejoin:miter;stroke-miterlimit:4;stroke-dasharray:none;stroke-opacity:1"/><path d="M10 3v1.014h37.216A6.77 6.77 0 0 1 54 10.797V9.783A6.77 6.77 0 0 0 47.217 3H16.783Z" style="opacity:.5;fill:#fff;fill-opacity:1;fill-rule:nonzero;stroke:none;stroke-width:2;stroke-linejoin:miter;stroke-miterlimit:4;stroke-dasharray:none;stroke-opacity:1"/><path d="M10 3v58h37.216A6.77 6.77 0 0 0 54 54.217V9.783A6.77 6.77 0 0 0 47.217 3H16.783Z" style="opacity:1;fill:url(#b);fill-opacity:1;fill-rule:nonzero;stroke:none;stroke-width:2;stroke-linejoin:miter;stroke-miterlimit:4;stroke-dasharray:none;stroke-opacity:1"/></svg>