<svg xmlns="http://www.w3.org/2000/svg" xmlns:xlink="http://www.w3.org/1999/xlink" width="64" height="64"><defs><linearGradient id="a" x2="0" y1="61" y2="3" gradientTransform="matrix(1 0 0 -1 0 64)" gradientUnits="userSpaceOnUse"><stop stop-color="#26c281"/><stop offset="1" stop-color="#3fc380"/></linearGradient><linearGradient id="b" x2="0" y1="61" y2="47" gradientTransform="matrix(1 0 0 -1 0 64)" gradientUnits="userSpaceOnUse"><stop stop-color="#036b53"/><stop offset="1" stop-color="#036b53"/></linearGradient><linearGradient id="e" x1="41.616" x2="54" y1="17.475" y2="31" gradientUnits="userSpaceOnUse"><stop stop-color="#060606"/><stop offset="1" stop-opacity="0"/></linearGradient><linearGradient xlink:href="#a" id="c" x1="10" x2="10" y1="3" y2="61" gradientTransform="translate(-40)" gradientUnits="userSpaceOnUse"/><linearGradient xlink:href="#b" id="d" x1="40" x2="40" y1="17" y2="3" gradientTransform="translate(-40)" gradientUnits="userSpaceOnUse"/></defs><path d="M40 3H15c-2.77 0-5 2.23-5 5v48c0 2.77 2.23 5 5 5h34c2.77 0 5-2.23 5-5V17Z" style="fill:url(#c)"/><path d="M21 22v22h14v-1h-7v-3h7v-1h-7v-3h15V22Zm1 1h20v4H22Zm0 5h5v3h-5zm6 0h8v3h-8zm9 0h5v3h-5zm-15 4h5v3h-5zm6 0h8v3h-8zm9 0h5v3h-5zm-15 4h5v3h-5zm18 1c-1.108 0-2 .892-2 2a1.99 1.99 0 0 0 1.883 1.988q.115.55.117 1.111a5.5 5.5 0 0 1-.344 1.896A5.5 5.5 0 0 0 42 39.499v-.5c0-1.108-.892-2-2-2m-18 3h5v3h-5z" style="color:#000;fill:#036b53"/><path d="M40 3H15c-2.77 0-5 2.23-5 5v1.014a5 5 0 0 1 1.46-3.54A5 5 0 0 1 15 4.015h25V4Z" style="opacity:.5;fill:#fff"/><path d="M54 54.86a5 5 0 0 1-1.46 3.538A5 5 0 0 1 49 59.86H15a5 5 0 0 1-3.54-1.46A5 5 0 0 1 10 54.86V56c0 2.77 2.23 5 5 5h34c2.77 0 5-2.23 5-5z" style="opacity:.25;fill-opacity:.99199997"/><path d="M40 3v11.535A2.456 2.456 0 0 0 42.465 17H54Z" style="fill:url(#d);fill-rule:evenodd"/><path d="M40.73 16.283 54 31V17H42.465c-.68 0-1.29-.276-1.735-.717" style="opacity:.2;fill:url(#e);fill-rule:evenodd"/></svg>