<svg xmlns="http://www.w3.org/2000/svg" xmlns:xlink="http://www.w3.org/1999/xlink" width="64" height="64"><defs><linearGradient id="b" x2="0" y1="61" y2="3" gradientUnits="userSpaceOnUse"><stop stop-color="#f9b425"/><stop offset="1" stop-color="#f9bf3b"/></linearGradient><linearGradient id="a" x1="54" x2="40" y1="31" y2="17" gradientTransform="matrix(1 0 0 -1 -14 78)" gradientUnits="userSpaceOnUse"><stop stop-color="#383e51"/><stop offset="1" stop-color="#655c6f" stop-opacity="0"/></linearGradient><linearGradient id="c" x2="0" y1="61" y2="47" gradientUnits="userSpaceOnUse"><stop stop-color="#fbd783"/><stop offset="1" stop-color="#fde8b9"/></linearGradient><linearGradient xlink:href="#a" id="f" x1="41.616" x2="54" y1="17.475" y2="31" gradientTransform="rotate(90 25 32)" gradientUnits="userSpaceOnUse"><stop stop-color="#060606"/><stop offset="1" stop-opacity="0"/></linearGradient><linearGradient xlink:href="#b" id="d" x1="10" x2="10" y1="61" y2="3" gradientTransform="translate(-40)" gradientUnits="userSpaceOnUse"/><linearGradient xlink:href="#c" id="e" x1="40" x2="40" y1="61" y2="47" gradientTransform="translate(-40)" gradientUnits="userSpaceOnUse"/></defs><path d="M40 61H15c-2.77 0-5-2.23-5-5V8c0-2.77 2.23-5 5-5h34c2.77 0 5 2.23 5 5v39z" style="fill:url(#d)"/><path d="M40 61H15c-2.77 0-5-2.23-5-5v-1.014a5 5 0 0 0 1.46 3.54 5 5 0 0 0 3.54 1.46h25V60Z" style="fill:#2e3132;fill-opacity:.294"/><path d="M54 9.14a5 5 0 0 0-1.46-3.538A5 5 0 0 0 49 4.14H15a5 5 0 0 0-3.54 1.46A5 5 0 0 0 10 9.142V8c0-2.77 2.23-5 5-5h34c2.77 0 5 2.23 5 5z" style="fill:#fff;fill-opacity:.41199999"/><path d="M40 61V49.465A2.456 2.456 0 0 1 42.465 47H54Z" style="fill:url(#e);fill-rule:evenodd"/><path d="M40.717 47.73 26 61h14V49.465c0-.68.276-1.29.717-1.735" style="opacity:.15;fill:url(#f);fill-rule:evenodd"/><path d="M23 22.1c1.662 0 3 1.338 3 3s-1.338 3-3 3-3-1.338-3-3 1.338-3 3-3m0 1c-1.108 0-2 .892-2 2s.892 2 2 2 2-.892 2-2-.892-2-2-2m0 6.9c1.186 0 2.236.521 2.967 1.336a9 9 0 0 0-.703.713A2.98 2.98 0 0 0 23 31c-1.662 0-3 1.338-3 3v3h3l.016 1h-4.02v-4c0-2.216 1.784-4 4-4M32 24.1c1.662 0 3 1.338 3 3s-1.338 3-3 3-3-1.338-3-3 1.338-3 3-3m0 1c-1.108 0-2 .892-2 2s.892 2 2 2 2-.892 2-2-.892-2-2-2m9-3c-1.662 0-3 1.338-3 3s1.338 3 3 3 3-1.338 3-3-1.338-3-3-3m0 1c1.108 0 2 .892 2 2s-.892 2-2 2-2-.892-2-2 .892-2 2-2m0 6.9a3.97 3.97 0 0 0-2.967 1.336q.371.336.703.713A2.98 2.98 0 0 1 41 31c1.662 0 3 1.338 3 3v3h-3l-.016 1h4.02v-4c0-2.216-1.784-4-4-4m-8.974 1.03c4.155 0 5.969 2.969 5.969 6.469v1.5h-12v-1.5c0-3.5 1.876-6.469 6.03-6.469m-.016.992c-3.601 0-5.02 2.254-5.02 5.578v.398h10V37.6c0-3.601-1.383-5.578-4.984-5.578" style="color:#000;fill:#fde8b9"/></svg>