<svg xmlns="http://www.w3.org/2000/svg" xmlns:xlink="http://www.w3.org/1999/xlink" width="64" height="64"><defs><linearGradient xlink:href="#a" id="b" x1="0" x2="0" y1="60.774" y2="2.345" gradientUnits="userSpaceOnUse"/><linearGradient id="a" x2="0" y1="392.36" y2="336.36" gradientTransform="translate(254 -254)" gradientUnits="userSpaceOnUse"><stop stop-color="#fff" stop-opacity="0"/><stop offset="1" stop-color="#fff" stop-opacity=".2"/></linearGradient><linearGradient id="c" x1="41.616" x2="54" y1="17.475" y2="31" gradientUnits="userSpaceOnUse"><stop stop-color="#060606"/><stop offset="1" stop-opacity="0"/></linearGradient></defs><path d="M40 3H15c-2.77 0-5 2.23-5 5v48c0 2.77 2.23 5 5 5h34c2.77 0 5-2.23 5-5V17Z" style="fill:#8542c2"/><path d="M21 25v3.373h4v11.249h-4v3.355s7.112.02 11 .02v-3.375h-4v-4.5l5.03-.03c.3-.002 1.332.477 2.223 2.194.423.947 1.16 2.287 1.528 2.928.433.672 1.252 2.783 2.099 2.783 1.818-.014 2.428-.001 4.119-.001v-3.821c-.251.175-.725.412-1 .447-1.206.008-1.689-.663-2.119-1.537-.661-2.047-1.851-3.739-2.881-4.65 1.277-.91 3.958-.669 4.03-4.068-.066-3.035-2.066-4.364-4.519-4.368-5.185.028-10.38-.001-15.507-.001zm7 3.373h5.732c.798 0 1.833.6 1.833 1.726 0 .935-.758 1.649-1.978 1.649H28Z" overflow="visible" style="color:#4d4d4d;overflow:visible;opacity:.7;isolation:auto;mix-blend-mode:normal;solid-color:#000;solid-opacity:1"/><path d="M40 3H15c-2.77 0-5 2.23-5 5v48c0 2.77 2.23 5 5 5h34c2.77 0 5-2.23 5-5V17Z" style="fill:url(#b)"/><path d="M40 3H15c-2.77 0-5 2.23-5 5v1.014a5 5 0 0 1 1.46-3.54A5 5 0 0 1 15 4.015h25V4Z" style="opacity:.5;fill:#fff"/><path d="M54 54.86a5 5 0 0 1-1.46 3.538A5 5 0 0 1 49 59.86H15a5 5 0 0 1-3.54-1.46A5 5 0 0 1 10 54.86V56c0 2.77 2.23 5 5 5h34c2.77 0 5-2.23 5-5z" style="opacity:.25;fill-opacity:.99199997"/><path d="M40 3v11.535A2.456 2.456 0 0 0 42.465 17H54Z" style="opacity:.6;fill-rule:evenodd"/><path d="M40.73 16.283 54 31V17H42.465c-.68 0-1.29-.276-1.735-.717" style="opacity:.2;fill:url(#c);fill-rule:evenodd"/></svg>