<svg xmlns="http://www.w3.org/2000/svg" xmlns:xlink="http://www.w3.org/1999/xlink" width="64" height="64"><defs><linearGradient xlink:href="#a" id="b" x1="0" x2="0" y1="60.774" y2="2.345" gradientTransform="translate(-2)" gradientUnits="userSpaceOnUse"/><linearGradient id="a" x2="0" y1="392.36" y2="336.36" gradientTransform="translate(254 -254)" gradientUnits="userSpaceOnUse"><stop stop-color="#fff" stop-opacity="0"/><stop offset="1" stop-color="#fff" stop-opacity=".2"/></linearGradient><linearGradient id="c" x1="41.616" x2="54" y1="17.475" y2="31" gradientTransform="translate(-2)" gradientUnits="userSpaceOnUse"><stop stop-color="#060606"/><stop offset="1" stop-opacity="0"/></linearGradient></defs><path d="M38 3H13c-2.77 0-5 2.23-5 5v48c0 2.77 2.23 5 5 5h34c2.77 0 5-2.23 5-5V17Z" style="fill:#db3333"/><path d="M19 22v1h22v-1zm0 3v1h22v-1zm0 3v1h11v-1zm0 4v1h22v-1zm15 2v4.301h1V35h2v3.301h1V34Zm-15 1v1h11v-1zm0 2v1h9v-1Zm12.707 1.293L31 39l5 5 5-5-.707-.707L36 42.586l-1-1zM19 40v1h7v-1zm0 3v1h9v-1z" style="fill:#fcbcbe"/><path d="M38 3H13c-2.77 0-5 2.23-5 5v48c0 2.77 2.23 5 5 5h34c2.77 0 5-2.23 5-5V17Z" style="fill:url(#b)"/><path d="M38 3H13c-2.77 0-5 2.23-5 5v1.014a5 5 0 0 1 1.46-3.54A5 5 0 0 1 13 4.015h25V4Z" style="opacity:.5;fill:#fff"/><path d="M52 54.86a5 5 0 0 1-1.46 3.538A5 5 0 0 1 47 59.86H13a5 5 0 0 1-3.54-1.46A5 5 0 0 1 8 54.858V56c0 2.77 2.23 5 5 5h34c2.77 0 5-2.23 5-5z" style="opacity:.25;fill-opacity:.99199997"/><path d="M38 3v11.535A2.456 2.456 0 0 0 40.465 17H52Z" style="opacity:.5;fill:#fff;fill-rule:evenodd"/><path d="M38.73 16.283 52 31V17H40.465c-.68 0-1.29-.276-1.735-.717" style="opacity:.1;fill:url(#c);fill-rule:evenodd"/></svg>