<svg xmlns="http://www.w3.org/2000/svg" xmlns:xlink="http://www.w3.org/1999/xlink" width="64" height="64"><defs><linearGradient id="b" x2="0" y1="3" y2="61" gradientTransform="matrix(1 0 0 -1 0 64)" gradientUnits="userSpaceOnUse"><stop stop-color="#3a539b"/><stop offset="1" stop-color="#3f5aa9"/></linearGradient><linearGradient id="c" x2="0" y1="61" y2="47" gradientTransform="matrix(1 0 0 -1 0 64)" gradientUnits="userSpaceOnUse"><stop stop-color="#97aad8"/><stop offset="1" stop-color="#c1cae7"/></linearGradient><linearGradient id="a" x1="40" x2="54" y1="17" y2="31" gradientUnits="userSpaceOnUse"><stop stop-color="#383e51"/><stop offset="1" stop-color="#655c6f" stop-opacity="0"/></linearGradient><linearGradient xlink:href="#a" id="f" x1="41.616" x2="54" y1="17.475" y2="31" gradientUnits="userSpaceOnUse"><stop stop-color="#060606"/><stop offset="1" stop-opacity="0"/></linearGradient><linearGradient xlink:href="#b" id="d" x1="10" x2="10" y1="61" y2="3" gradientTransform="translate(-40)" gradientUnits="userSpaceOnUse"/><linearGradient xlink:href="#c" id="e" x1="40" x2="40" y1="3" y2="17" gradientTransform="translate(-40)" gradientUnits="userSpaceOnUse"/></defs><path d="M40 3H15c-2.77 0-5 2.23-5 5v48c0 2.77 2.23 5 5 5h34c2.77 0 5-2.23 5-5V17Z" style="fill:url(#d)"/><path d="M40 22a3 3 0 0 0-3 3 3 3 0 0 0 .252 1.197A10 10 0 0 0 31 24a10 10 0 0 0-10 10 10 10 0 0 0 10 10 10 10 0 0 0 10-10 10 10 0 0 0-2.21-6.258A3 3 0 0 0 40 28a3 3 0 0 0 3-3 3 3 0 0 0-3-3m-9 3a9 9 0 0 1 4.111 1.004L35 26a4 4 0 0 0-4 4 4 4 0 0 0 4 4 4 4 0 0 0 4-4l-.006-.13A9 9 0 0 1 40 34a9 9 0 0 1-9 9 9 9 0 0 1-9-9 9 9 0 0 1 9-9m4 2a3 3 0 0 1 3 3 3 3 0 0 1-3 3 3 3 0 0 1-3-3 3 3 0 0 1 3-3" style="color:#4d4d4d;fill:#c1cae7"/><path d="M40 3H15c-2.77 0-5 2.23-5 5v1.014a5 5 0 0 1 1.46-3.54A5 5 0 0 1 15 4.015h25V4Z" style="opacity:.5;fill:#fff"/><path d="M54 54.86a5 5 0 0 1-1.46 3.538A5 5 0 0 1 49 59.86H15a5 5 0 0 1-3.54-1.46A5 5 0 0 1 10 54.86V56c0 2.77 2.23 5 5 5h34c2.77 0 5-2.23 5-5z" style="opacity:.25;fill-opacity:.99199997"/><path d="M40 3v11.535A2.456 2.456 0 0 0 42.465 17H54Z" style="fill:url(#e);fill-rule:evenodd"/><path d="M40.73 16.283 54 31V17H42.465c-.68 0-1.29-.276-1.735-.717" style="opacity:.1;fill:url(#f);fill-rule:evenodd"/></svg>