<svg xmlns="http://www.w3.org/2000/svg" xmlns:xlink="http://www.w3.org/1999/xlink" width="64" height="64"><defs><linearGradient xlink:href="#a" id="c" x1="0" x2="0" y1="60.774" y2="2.345" gradientUnits="userSpaceOnUse"/><linearGradient id="a" x2="0" y1="392.36" y2="336.36" gradientTransform="translate(254 -254)" gradientUnits="userSpaceOnUse"><stop stop-color="#fff" stop-opacity="0"/><stop offset="1" stop-color="#fff" stop-opacity=".2"/></linearGradient><linearGradient id="d" x1="41.616" x2="54" y1="17.475" y2="31" gradientUnits="userSpaceOnUse"><stop stop-color="#060606"/><stop offset="1" stop-opacity="0"/></linearGradient></defs><path d="M40 3H15c-2.77 0-5 2.23-5 5v48c0 2.77 2.23 5 5 5h34c2.77 0 5-2.23 5-5V17Z" style="fill:#892a1f"/><g style="color:#4d4d4d;opacity:.7;isolation:auto;mix-blend-mode:normal;solid-color:#000;solid-opacity:1" transform="translate(0 1)"><path id="b" stroke-miterlimit="4" d="M43 32c-11.921 4.372-16.851 4.113-22 4v7c7.357-.629 14.73-.779 22-4v-6zm-1 1.369v4.924c-6.515 2.732-13.189 3.061-20 3.609v-4.895c4.615.097 9.78-.051 20-3.639" display="inline" overflow="visible" style="color:#4d4d4d;clip-rule:nonzero;display:inline;overflow:visible;visibility:visible;isolation:auto;mix-blend-mode:normal;color-interpolation:sRGB;color-interpolation-filters:linearRGB;solid-color:#000;solid-opacity:1;fill:#000;fill-opacity:1;fill-rule:nonzero;stroke-width:1;stroke-linecap:butt;stroke-linejoin:miter;stroke-miterlimit:4;stroke-dasharray:none;stroke-dashoffset:0;stroke-opacity:1;color-rendering:auto;image-rendering:auto;shape-rendering:auto;text-rendering:auto" visibility="visible"/><use xlink:href="#b" width="100%" height="100%" y="-11" overflow="visible" style="overflow:visible;isolation:auto;mix-blend-mode:normal;solid-color:#000;solid-opacity:1"/></g><path d="M40 3H15c-2.77 0-5 2.23-5 5v48c0 2.77 2.23 5 5 5h34c2.77 0 5-2.23 5-5V17Z" style="fill:url(#c)"/><path d="M40 3H15c-2.77 0-5 2.23-5 5v1.014a5 5 0 0 1 1.46-3.54A5 5 0 0 1 15 4.015h25V4Z" style="opacity:.5;fill:#fff"/><path d="M54 54.86a5 5 0 0 1-1.46 3.538A5 5 0 0 1 49 59.86H15a5 5 0 0 1-3.54-1.46A5 5 0 0 1 10 54.86V56c0 2.77 2.23 5 5 5h34c2.77 0 5-2.23 5-5z" style="opacity:.25;fill-opacity:.99199997"/><path d="M40 3v11.535A2.456 2.456 0 0 0 42.465 17H54Z" style="opacity:.6;fill-rule:evenodd"/><path d="M40.73 16.283 54 31V17H42.465c-.68 0-1.29-.276-1.735-.717" style="opacity:.2;fill:url(#d);fill-rule:evenodd"/></svg>