<svg xmlns="http://www.w3.org/2000/svg" xmlns:xlink="http://www.w3.org/1999/xlink" viewBox="0 0 64 64"><defs><linearGradient xlink:href="#a" id="b" x1="0" x2="0" y1="60.774" y2="2.345" gradientUnits="userSpaceOnUse"/><linearGradient id="a" x2="0" y1="392.36" y2="336.36" gradientTransform="translate(254 -254)" gradientUnits="userSpaceOnUse"><stop stop-color="#fff" stop-opacity="0"/><stop offset="1" stop-color="#fff" stop-opacity=".2"/></linearGradient><linearGradient id="c" x1="41.616" x2="54" y1="17.475" y2="31" gradientUnits="userSpaceOnUse"><stop stop-color="#060606"/><stop offset="1" stop-opacity="0"/></linearGradient></defs><path d="M40 3H15c-2.77 0-5 2.23-5 5v48c0 2.77 2.23 5 5 5h34c2.77 0 5-2.23 5-5V17Z" style="fill:#d00310"/><path d="M40 3H15c-2.77 0-5 2.23-5 5v48c0 2.77 2.23 5 5 5h34c2.77 0 5-2.23 5-5V17Z" style="fill:url(#b)"/><path d="M40 3H15c-2.77 0-5 2.23-5 5v1.014a5 5 0 0 1 1.46-3.54A5 5 0 0 1 15 4.015h25V4Z" style="opacity:.5;fill:#fff"/><path d="M54 54.86a5 5 0 0 1-1.46 3.538A5 5 0 0 1 49 59.86H15a5 5 0 0 1-3.54-1.46A5 5 0 0 1 10 54.86V56c0 2.77 2.23 5 5 5h34c2.77 0 5-2.23 5-5z" style="opacity:.25;fill-opacity:.99199997"/><path d="M40 3v11.535A2.456 2.456 0 0 0 42.465 17H54Z" style="opacity:.5;fill:#fff;fill-rule:evenodd"/><path d="M21 22v22h22V22H22Zm1 1h20v20H22Zm2 3v1h1v-1zm1 1v2h2v-2zm2 0h1v-1h-1zm0 2v1h1v-1zm-2 0h-1v1h1zm11-3v1h1v-1zm1 1v2h2v-2zm2 0h1v-1h-1zm0 2v1h1v-1zm-2 0h-1v1h1zm-8 5v2h6v-2zm6 2v2h2v-2zm2 2v2h2v-2zm-8-2h-2v2h2zm-2 2h-2v2h2z" overflow="visible" style="color:#000;overflow:visible;opacity:.75;isolation:auto;mix-blend-mode:normal;solid-color:#000;solid-opacity:1;fill:#fff"/><path d="M40.73 16.283 54 31V17H42.465c-.68 0-1.29-.276-1.735-.717" style="opacity:.1;fill:url(#c);fill-rule:evenodd"/></svg>