<svg xmlns="http://www.w3.org/2000/svg" xmlns:xlink="http://www.w3.org/1999/xlink" width="64" height="64"><defs><linearGradient xlink:href="#a" id="c" x1="10" x2="10" y1="61" y2="3" gradientTransform="translate(-40)" gradientUnits="userSpaceOnUse"/><linearGradient id="a" x2="0" y1="3" y2="61" gradientTransform="matrix(1 0 0 -1 0 64)" gradientUnits="userSpaceOnUse"><stop stop-color="#5e6b78"/><stop offset="1" stop-color="#768492"/></linearGradient><linearGradient xlink:href="#b" id="d" x1="40" x2="40" y1="3" y2="17" gradientTransform="translate(-40)" gradientUnits="userSpaceOnUse"/><linearGradient id="b" x2="0" y1="61" y2="47" gradientTransform="matrix(1 0 0 -1 0 64)" gradientUnits="userSpaceOnUse"><stop stop-color="#dedede"/><stop offset="1" stop-color="#fbfbfb"/></linearGradient><linearGradient id="e" x1="41.616" x2="54" y1="17.475" y2="31" gradientUnits="userSpaceOnUse"><stop stop-color="#060606"/><stop offset="1" stop-opacity="0"/></linearGradient></defs><path d="M40 3H15c-2.77 0-5 2.23-5 5v48c0 2.77 2.23 5 5 5h34c2.77 0 5-2.23 5-5V17Z" style="fill:url(#c)"/><path d="M40 3H15c-2.77 0-5 2.23-5 5v1.014a5 5 0 0 1 1.46-3.54A5 5 0 0 1 15 4.015h25V4Z" style="opacity:.5;fill:#fff"/><path d="M54 54.86a5 5 0 0 1-1.46 3.538A5 5 0 0 1 49 59.86H15a5 5 0 0 1-3.54-1.46A5 5 0 0 1 10 54.86V56c0 2.77 2.23 5 5 5h34c2.77 0 5-2.23 5-5z" style="opacity:.25;fill-opacity:.99199997"/><path d="M40 3v11.535A2.456 2.456 0 0 0 42.465 17H54Z" style="fill:url(#d);fill-rule:evenodd"/><path d="M40.73 16.283 54 31V17H42.465c-.68 0-1.29-.276-1.735-.717" style="opacity:.2;fill:url(#e);fill-rule:evenodd"/><path d="M26.5 21a5.5 5.5 0 0 0-5.5 5.5 6 6 0 0 0 .014.256A3 3 0 0 0 21 27a3 3 0 0 0 .342 1.387A5.5 5.5 0 0 0 26.5 32a5.5 5.5 0 0 0 5.5-5.5 5.5 5.5 0 0 0-5.5-5.5m5.5 5.5a6 6 0 0 0 .014.256A3 3 0 0 0 32 27a3 3 0 0 0 .342 1.387A5.5 5.5 0 0 0 37.5 32a5.5 5.5 0 0 0 5.5-5.5 5.5 5.5 0 0 0-5.5-5.5 5.5 5.5 0 0 0-5.5 5.5M26.5 22a4.5 4.5 0 0 1 4.5 4.5 4.5 4.5 0 0 1-4.5 4.5 4.5 4.5 0 0 1-2.854-1.023A3 3 0 0 0 24 30a3 3 0 0 0 3-3 3 3 0 0 0-3-3 3 3 0 0 0-1.473.39A4.5 4.5 0 0 1 26.5 22m11 0a4.5 4.5 0 0 1 4.5 4.5 4.5 4.5 0 0 1-4.5 4.5 4.5 4.5 0 0 1-2.854-1.023A3 3 0 0 0 35 30a3 3 0 0 0 3-3 3 3 0 0 0-3-3 3 3 0 0 0-1.473.39A4.5 4.5 0 0 1 37.5 22m3.086 12.871C38.501 35.584 35.34 35.999 32 36c-2.76-.001-5.426-.286-7.455-.8l-.67.738c.928.282 1.997.505 3.125.679V40a3 3 0 0 0 3 3 3 3 0 0 0 2.5-1.346A3 3 0 0 0 35 43a3 3 0 0 0 3-3v-3.543c1.24-.237 2.37-.551 3.3-.932zM37 36.631V40a2 2 0 0 1-2 2 2 2 0 0 1-2-2v-3.02a33 33 0 0 0 4-.349m-9 .129c1.28.151 2.622.239 4 .24v3a2 2 0 0 1-2 2 2 2 0 0 1-2-2z" style="color:#4d4d4d;fill:#fbfbfb"/></svg>