<svg xmlns="http://www.w3.org/2000/svg" xmlns:xlink="http://www.w3.org/1999/xlink" width="64" height="64"><defs><linearGradient xlink:href="#a" id="b" x1="0" x2="0" y1="60.774" y2="2.345" gradientUnits="userSpaceOnUse"/><linearGradient id="a" x2="0" y1="392.36" y2="336.36" gradientTransform="translate(254 -254)" gradientUnits="userSpaceOnUse"><stop stop-color="#fff" stop-opacity="0"/><stop offset="1" stop-color="#fff" stop-opacity=".2"/></linearGradient><linearGradient id="c" x1="41.616" x2="54" y1="17.475" y2="31" gradientUnits="userSpaceOnUse"><stop stop-color="#060606"/><stop offset="1" stop-opacity="0"/></linearGradient></defs><path d="M40 3H15c-2.77 0-5 2.23-5 5v48c0 2.77 2.23 5 5 5h34c2.77 0 5-2.23 5-5V17Z" style="fill:#c69"/><path d="M42.104 34.478a6.1 6.1 0 0 0-2.538.563c-.262-.495-.525-.928-.569-1.25-.049-.376-.11-.605-.049-1.054.06-.448.334-1.084.334-1.136-.006-.047-.06-.276-.624-.281-.563-.012-1.05.104-1.105.245a6 6 0 0 0-.235.797c-.098.49-1.126 2.226-1.712 3.138-.191-.355-.355-.668-.388-.918-.05-.375-.11-.604-.05-1.052.061-.449.334-1.084.334-1.137-.005-.047-.06-.276-.623-.28-.563-.013-1.05.104-1.105.244s-.115.474-.235.797c-.115.324-1.482 3.221-1.838 3.977-.18.386-.339.693-.454.902-.115.208-.005.015-.016.036l-.153.276v.012c-.077.13-.159.256-.197.256-.027 0-.082-.35.01-.83.203-1.005.695-2.574.69-2.63 0-.028.093-.303-.317-.444-.4-.14-.542.094-.574.094-.033 0-.06.083-.06.083s.442-1.766-.848-1.766c-.81 0-1.926.839-2.478 1.605-.35.182-1.094.568-1.881.98-.301.156-.613.323-.908.474l-.06-.063c-1.565-1.59-4.458-2.715-4.338-4.852.044-.777.329-2.825 5.557-5.306 4.283-2.032 7.712-1.475 8.308-.234.848 1.772-1.832 5.065-6.284 5.54-1.696.182-2.587-.443-2.811-.678-.236-.245-.268-.255-.356-.208-.142.073-.055.291 0 .422.131.328.678.912 1.608 1.204.815.255 2.806.396 5.212-.49 2.697-.996 4.802-3.758 4.184-6.067-.629-2.35-4.72-3.121-8.586-1.813-2.303.781-4.797 2-6.59 3.601-2.134 1.897-2.473 3.554-2.33 4.242.497 2.455 4.046 4.055 5.468 5.238l-.196.105c-.711.333-3.419 1.683-4.097 3.11-.766 1.616.12 2.779.711 2.935 1.827.485 3.697-.386 4.71-1.819 1.005-1.433.885-3.294.42-4.143l-.016-.032.558-.312c.36-.204.716-.391 1.028-.553-.175.453-.3.99-.367 1.772-.076.917.318 2.106.837 2.575.23.203.503.208.673.208.602 0 .875-.474 1.176-1.042.372-.693.7-1.496.7-1.496s-.41 2.173.71 2.173c.411 0 .821-.505 1.007-.766v.012l.033-.052c.044-.062.066-.1.066-.1v-.012c.164-.27.53-.89 1.077-1.918.706-1.323 1.384-2.98 1.384-2.98s.066.406.268 1.073c.12.396.383.829.585 1.25-.164.22-.262.345-.262.345l.005.012c-.131.166-.279.344-.432.52-.558.637-1.225 1.361-1.313 1.57-.104.245-.082.427.12.573.148.104.41.125.69.104a3.2 3.2 0 0 0 1.028-.224 3.6 3.6 0 0 0 .886-.443c.547-.386.88-.933.848-1.662-.017-.402-.153-.798-.323-1.173a22 22 0 0 0 1.68-2.736s.065.406.267 1.073c.104.34.312.71.498 1.074-.81.63-1.318 1.36-1.493 1.84-.323.886-.071 1.287.404 1.38.214.043.52-.051.75-.145a3.5 3.5 0 0 0 .946-.464c.547-.386 1.072-.922 1.044-1.647a3 3 0 0 0-.235-.974c.69-.271 1.58-.428 2.713-.297 2.434.27 2.915 1.72 2.822 2.324-.093.605-.601.938-.771 1.042-.17.099-.224.136-.208.209.022.11.099.104.246.084.203-.032 1.28-.496 1.324-1.61.065-1.434-1.362-2.998-3.894-2.982zm-18.77 6.03c-.805.84-1.937 1.157-2.418.886-.52-.287-.317-1.522.673-2.413.601-.542 1.383-1.042 1.897-1.35.115-.068.29-.167.498-.286l.055-.032q.058-.032.126-.073c.366 1.272.016 2.387-.832 3.268zm5.879-3.81c-.28.652-.87 2.325-1.225 2.231-.307-.079-.493-1.345-.06-2.596.218-.63.683-1.38.957-1.672.443-.47.924-.626 1.044-.433.142.25-.541 2.064-.716 2.47m4.851 2.21c-.12.057-.23.1-.279.068-.038-.022.05-.1.05-.1s.606-.62.847-.906c.137-.167.3-.36.476-.579v.062c0 .75-.755 1.25-1.094 1.454zm3.74-.813c-.087-.062-.076-.255.22-.86.115-.24.377-.64.831-1.021.055.156.088.307.082.448-.005.938-.705 1.287-1.132 1.433z" style="opacity:.75;fill:#fff"/><path d="M40 3H15c-2.77 0-5 2.23-5 5v48c0 2.77 2.23 5 5 5h34c2.77 0 5-2.23 5-5V17Z" style="fill:url(#b)"/><path d="M40 3H15c-2.77 0-5 2.23-5 5v1.014a5 5 0 0 1 1.46-3.54A5 5 0 0 1 15 4.015h25V4Z" style="opacity:.5;fill:#fff"/><path d="M54 54.86a5 5 0 0 1-1.46 3.538A5 5 0 0 1 49 59.86H15a5 5 0 0 1-3.54-1.46A5 5 0 0 1 10 54.86V56c0 2.77 2.23 5 5 5h34c2.77 0 5-2.23 5-5z" style="opacity:.25;fill-opacity:.99199997"/><path d="M40 3v11.535A2.456 2.456 0 0 0 42.465 17H54Z" style="opacity:.5;fill:#fff;fill-rule:evenodd"/><path d="M40.73 16.283 54 31V17H42.465c-.68 0-1.29-.276-1.735-.717" style="opacity:.1;fill:url(#c);fill-rule:evenodd"/></svg>