<svg xmlns="http://www.w3.org/2000/svg" xmlns:xlink="http://www.w3.org/1999/xlink" width="64" height="64"><defs><linearGradient xlink:href="#a" id="b" x1="-64.935" x2="-64.935" y1="61.363" y2="1.605" gradientTransform="translate(60 -.102)" gradientUnits="userSpaceOnUse"/><linearGradient id="a" x2="0" y1="392.36" y2="324.66" gradientTransform="matrix(1 0 0 .84587 -1 -272.73)" gradientUnits="userSpaceOnUse"><stop stop-color="#fff" stop-opacity="0"/><stop offset="1" stop-color="#fff" stop-opacity=".2"/></linearGradient></defs><rect width="58" height="44" x="3" y="16.898" ry="4.814" style="opacity:1;fill:#4154ba;fill-opacity:1;fill-rule:nonzero;stroke:none;stroke-width:2;stroke-linejoin:miter;stroke-miterlimit:4;stroke-dasharray:none;stroke-opacity:1"/><path d="M32 27.898a11 11 0 0 0-11 11 11 11 0 0 0 11 11 11 11 0 0 0 11-11 11 11 0 0 0-11-11m.145.951a10 10 0 0 1 10 10 10 10 0 0 1-10 10 10 10 0 0 1-10-10 10 10 0 0 1 10-10" style="opacity:.75;fill:#fff"/><path d="m38.38 38.86-10 5.538v-11z" style="color:#000;opacity:.75;color-interpolation:sRGB;color-interpolation-filters:linearRGB;fill:#fff;color-rendering:auto;image-rendering:auto;shape-rendering:auto;text-rendering:auto"/><path d="M55.2 20.898v3.6h3.6v-3.6zm0 5.4v3.6h3.6v-3.6zm0 5.4v3.6h3.6v-3.6zm0 5.4v3.6h3.6v-3.6zm0 5.4v3.6h3.6v-3.6zm0 5.4v3.6h3.6v-3.6zm0 5.4v3.6h3.6v-3.6zM5.2 20.898v3.6h3.6v-3.6zm0 5.4v3.6h3.6v-3.6zm0 5.4v3.6h3.6v-3.6zm0 5.4v3.6h3.6v-3.6zm0 5.4v3.6h3.6v-3.6zm0 5.4v3.6h3.6v-3.6zm0 5.4v3.6h3.6v-3.6z" style="color:#000;opacity:.75;color-interpolation:sRGB;color-interpolation-filters:linearRGB;fill:#fff;stroke-width:.89999998;color-rendering:auto;image-rendering:auto;shape-rendering:auto;text-rendering:auto"/><path d="M61 54.929a4.82 4.82 0 0 1-1.406 3.408 4.8 4.8 0 0 1-3.408 1.407H7.814a4.82 4.82 0 0 1-3.408-1.407A4.8 4.8 0 0 1 3 54.93v1.154a4.804 4.804 0 0 0 4.814 4.815h48.372A4.804 4.804 0 0 0 61 56.083Z" style="opacity:.35;fill:#000;fill-opacity:1;fill-rule:nonzero;stroke:none;stroke-width:2;stroke-linejoin:miter;stroke-miterlimit:4;stroke-dasharray:none;stroke-opacity:1"/><path d="M7.814 16.898A4.804 4.804 0 0 0 3 21.712v.899a4.799 4.799 0 0 1 4.814-4.814h48.372a4.82 4.82 0 0 1 3.408 1.405A4.8 4.8 0 0 1 61 22.611v-.899a4.804 4.804 0 0 0-4.814-4.814z" style="opacity:.4;fill:#fff;fill-opacity:1;fill-rule:nonzero;stroke:none;stroke-width:2;stroke-linejoin:miter;stroke-miterlimit:4;stroke-dasharray:none;stroke-opacity:1"/><rect width="58" height="44" x="3" y="16.898" ry="4.814" style="opacity:1;fill:url(#b);fill-opacity:1;fill-rule:nonzero;stroke:none;stroke-width:2;stroke-linejoin:miter;stroke-miterlimit:4;stroke-dasharray:none;stroke-opacity:1"/></svg>