<svg xmlns="http://www.w3.org/2000/svg" xmlns:xlink="http://www.w3.org/1999/xlink" width="64" height="64"><defs><linearGradient id="b" x2="0" y1="512.8" y2="503.8" gradientTransform="matrix(1.35 0 0 1.3 -519.57 -646.94)" gradientUnits="userSpaceOnUse"><stop offset="0" stop-color="#f73768"/><stop offset="1" stop-color="#f62459"/></linearGradient><linearGradient id="a" x2="0" y1="512.8" y2="503.8" gradientTransform="matrix(1.35 0 0 1.3 -519.57 -646.94)" gradientUnits="userSpaceOnUse"><stop stop-color="#f62459"/><stop offset="1" stop-color="#f73768"/></linearGradient><linearGradient id="d" x2="0" y1="8" y2="25.527" gradientUnits="userSpaceOnUse"><stop stop-color="#ffd6af"/><stop offset="1" stop-color="#fffcf9"/></linearGradient><linearGradient xlink:href="#b" id="c" x1="-35" x2="-34.988" y1="19" y2="59.777" gradientTransform="translate(40)" gradientUnits="userSpaceOnUse"/></defs><path d="M5 19v36.057A4.933 4.933 0 0 0 9.943 60h44.114A4.933 4.933 0 0 0 59 55.057V19H9.943Z" style="opacity:1;fill:url(#c);fill-opacity:1;fill-rule:nonzero;stroke:none;stroke-width:2;stroke-linejoin:miter;stroke-miterlimit:4;stroke-dasharray:none;stroke-opacity:1"/><path fill="url(#a)" fill-rule="evenodd" d="m5 19 8.1-11h39.15L59 19z"/><path fill="url(#d)" d="M28.1 8v17.495l1.3-.437 1.3.437 1.3-.437 1.3.437 1.3-.437 1.3.437V8z"/><path fill="#fed" d="M9 32v22h22V32zm1 1h20v2H10zm0 3h1v4h-1zm2 0h1v4h-1zm2 0h1v4h-1zm2 0h1v4h-1zm2 0h1v4h-1zm2 0h1v4h-1zm2 0h1v4h-1zm2 0h1v4h-1zm2 1h4v1h-4zm-16 4h20v4H10zm0 5h1v4h-1zm2 0h1v4h-1zm2 0h1v4h-1zm2 0h1v4h-1zm2 0h1v4h-1zm2 0h1v4h-1zm2 0h1v4h-1zm2 0h1v4h-1zm2 1h4v1h-4zm-16 4h20v2H10z" color="#4d4d4d"/><path d="M5-20h54v1H5z" style="fill:#fff;fill-opacity:.41199999" transform="scale(1 -1)"/><path d="M59 53.916a4.95 4.95 0 0 1-.387 1.928 4.9 4.9 0 0 1-1.058 1.57c-.447.447-.979.81-1.57 1.059a4.95 4.95 0 0 1-1.928.386H9.943a4.95 4.95 0 0 1-1.927-.386 4.9 4.9 0 0 1-1.57-1.059 4.9 4.9 0 0 1-1.06-1.57A4.95 4.95 0 0 1 5 53.916v1.14A4.933 4.933 0 0 0 9.943 60h44.114A4.933 4.933 0 0 0 59 55.057Z" style="opacity:1;fill:#2e3132;fill-opacity:.29411765;fill-rule:nonzero;stroke:none;stroke-width:2;stroke-linejoin:miter;stroke-miterlimit:4;stroke-dasharray:none;stroke-opacity:1"/></svg>