<svg xmlns="http://www.w3.org/2000/svg" xmlns:xlink="http://www.w3.org/1999/xlink" width="48" height="48"><defs><linearGradient id="c"><stop offset="0" style="stop-color:#f48b0b;stop-opacity:1"/><stop offset="1" style="stop-color:#ff961d;stop-opacity:1"/></linearGradient><linearGradient xlink:href="#c" id="d" x1="23" x2="23" y1="43.866" y2="5" gradientTransform="matrix(1.05 0 0 1.05 2.8 2.8)" gradientUnits="userSpaceOnUse"/></defs><g transform="translate(-4 -4)"><circle cx="28" cy="28" r="21" style="fill:url(#d);fill-opacity:1;stroke-width:1.05"/><path d="M48.977 27.389C48.74 38.806 39.42 47.94 28 47.95c-11.355-.007-20.647-9.039-20.977-20.389q-.014.22-.023.439c0 11.598 9.402 21 21 21s21-9.402 21-21a23 23 0 0 0-.023-.611" style="opacity:.2;fill:#000;fill-opacity:1;stroke-width:1.05"/><path fill="#805b20" d="M28 10c-9.942 0-18 8.058-18 18s8.058 18 18 18 18-8.058 18-18-8.058-18-18-18" style="fill:#8d623f;fill-opacity:1"/><path fill="#fff" d="M26.832 14.044a14.01 14.01 0 0 0-12.784 12.789h12.784zm2.335.005v12.784h12.79a14.01 14.01 0 0 0-12.79-12.784M14.043 29.168a14.01 14.01 0 0 0 12.79 12.784V29.168zm15.124 0v12.789a14.01 14.01 0 0 0 12.784-12.79z"/></g></svg>