<svg xmlns="http://www.w3.org/2000/svg" xmlns:xlink="http://www.w3.org/1999/xlink" xml:space="preserve" width="48" height="48"><defs><linearGradient id="c"><stop offset="0" style="stop-color:#fff;stop-opacity:1"/><stop offset="1" style="stop-color:#eab8ea;stop-opacity:1"/></linearGradient><linearGradient xlink:href="#c" id="d" x1="16.926" x2="42.881" y1="10.157" y2="41.53" gradientTransform="translate(-3.674 -3.352)" gradientUnits="userSpaceOnUse"/></defs><g transform="translate(-.326 -.648)"><circle cx="24.326" cy="24.648" r="21" opacity=".99" style="fill:#aa87de;fill-opacity:1;stroke-width:1.58695"/><g style="opacity:.440563;stroke-width:2.1034"><path d="M10.891 9.677c-.911 0-1.645.733-1.645 1.645v3.7c0 .911.734 1.645 1.645 1.645h1.645c.91 0 1.644-.734 1.644-1.645v-3.7c0-.912-.733-1.645-1.644-1.645zm5.756 0c-.91 0-1.644.733-1.644 1.645v3.7c0 .911.733 1.645 1.644 1.645h1.645c.776 0 1.42-.534 1.594-1.255l-1.232-.529a.82.82 0 0 1-.773.55h-.822a.82.82 0 0 1-.823-.822v-2.878a.82.82 0 0 1 .823-.823h.822c.36 0 .66.23.773.55l1.232-.528a1.64 1.64 0 0 0-1.594-1.255Zm5.757 0c-.911 0-1.645.733-1.645 1.645v3.7c0 .911.734 1.645 1.645 1.645h1.645c.776 0 1.42-.534 1.594-1.255l-1.233-.529a.82.82 0 0 1-.773.55h-.822a.82.82 0 0 1-.822-.822v-2.878a.82.82 0 0 1 .822-.823h.822c.36 0 .66.23.773.55l1.233-.528a1.64 1.64 0 0 0-1.594-1.255ZM11.302 10.91h.823a.82.82 0 0 1 .822.823v2.878a.82.82 0 0 1-.822.822h-.823a.82.82 0 0 1-.822-.822v-2.878a.82.82 0 0 1 .822-.823m2.467 6.99c-.911 0-1.644.734-1.644 1.645v5.345h1.233v-3.289h2.467v-1.234h-2.467v-1.233h3.7V17.9zm4.523 0v1.234h1.645v5.756h1.233v-5.756h1.645V17.9z" style="fill:#6b00d4;fill-opacity:.309001;stroke-width:.864889" transform="matrix(1.81517 0 0 1.77869 -6.218 -5.645)"/><path d="M11.506 9.953c-.91 0-1.644.733-1.644 1.645v3.7c0 .911.733 1.645 1.644 1.645h1.645c.911 0 1.645-.734 1.645-1.645v-3.7c0-.912-.734-1.645-1.645-1.645zm5.757 0c-.911 0-1.645.733-1.645 1.645v3.7c0 .911.734 1.645 1.645 1.645h1.645c.776 0 1.419-.534 1.594-1.255l-1.233-.529a.82.82 0 0 1-.773.55h-.822a.82.82 0 0 1-.822-.822V12.01a.82.82 0 0 1 .822-.823h.822c.36 0 .66.23.773.55l1.233-.528a1.64 1.64 0 0 0-1.594-1.255Zm5.756 0c-.91 0-1.644.733-1.644 1.645v3.7c0 .911.733 1.645 1.644 1.645h1.645c.776 0 1.42-.534 1.594-1.255l-1.233-.529a.82.82 0 0 1-.772.55h-.822a.82.82 0 0 1-.823-.822V12.01a.82.82 0 0 1 .823-.823h.822c.36 0 .66.23.772.55l1.233-.528a1.64 1.64 0 0 0-1.594-1.255Zm-11.101 1.233h.822a.82.82 0 0 1 .822.823v2.878a.82.82 0 0 1-.822.822h-.822a.82.82 0 0 1-.823-.822V12.01a.82.82 0 0 1 .823-.823m2.467 6.99c-.911 0-1.645.734-1.645 1.645v5.345h1.233v-3.289h2.468v-1.233h-2.468V19.41h3.701v-1.234zm4.523 0v1.234h1.644v5.756h1.234V19.41h1.645v-1.234z" style="fill:#6700cc;fill-opacity:.3" transform="matrix(1.81517 0 0 1.77869 -6.218 -5.645)"/></g><path d="M12.43 11.118c-1.653 0-2.985 1.305-2.985 2.926v6.582c0 1.62 1.332 2.925 2.986 2.925h2.985c1.654 0 2.985-1.305 2.985-2.925v-6.582c0-1.621-1.331-2.926-2.985-2.926zm10.45 0c-1.654 0-2.986 1.305-2.986 2.926v6.582c0 1.62 1.332 2.925 2.986 2.925h2.985c1.409 0 2.576-.95 2.894-2.232l-2.238-.94c-.204.569-.75.978-1.402.978h-1.493c-.827 0-1.493-.652-1.493-1.463v-5.12c0-.81.666-1.462 1.493-1.462h1.493c.652 0 1.198.41 1.402.979l2.238-.94a2.96 2.96 0 0 0-2.894-2.233zm10.449 0c-1.654 0-2.986 1.305-2.986 2.926v6.582c0 1.62 1.332 2.925 2.986 2.925h2.985c1.409 0 2.576-.95 2.894-2.232l-2.238-.94c-.204.569-.75.978-1.402.978h-1.493c-.827 0-1.493-.652-1.493-1.463v-5.12c0-.81.666-1.462 1.493-1.462h1.493c.652 0 1.198.41 1.402.979l2.238-.94a2.96 2.96 0 0 0-2.894-2.233Zm-20.152 2.194h1.493c.827 0 1.492.653 1.492 1.463v5.12c0 .81-.665 1.462-1.492 1.462h-1.493c-.827 0-1.493-.652-1.493-1.463v-5.12c0-.81.666-1.462 1.493-1.462m4.478 12.433c-1.654 0-2.985 1.305-2.985 2.926v9.507h2.239v-5.85h4.478v-2.195h-4.478V27.94h6.717v-2.194zm8.21 0v2.194h2.985v10.24h2.24v-10.24h2.985v-2.194z" style="fill:url(#d);fill-opacity:1"/></g></svg>