<svg xmlns="http://www.w3.org/2000/svg" width="48" height="48" viewBox="0 0 12.7 12.7"><circle cx="6.35" cy="6.35" r="5.556" fill="#f2f2f2" style="stroke-width:.777735;paint-order:stroke fill markers"/><path d="m26.988 36.676-7.07 12.234 3.465 2.004 7.07-12.234z" style="fill:#6f8a91" transform="matrix(.2021 0 0 .19843 -.117 0)"/><path d="m40.563 13.188-7.176 12.421 3.46 2 7.18-12.422z" style="fill:#59f" transform="matrix(.2021 0 0 .19843 -.117 0)"/><path d="m20.445 24-8.082 14 8.082 14H36.61l8.082-14-8.082-14zm2.309 4H34.3l5.773 10-5.773 10H22.754L16.98 38Z" style="fill:#6f8a91" transform="matrix(.2021 0 0 .19843 -.117 0)"/><path d="M27.39 12 19.31 26l8.082 14h16.164l8.082-14-8.078-14zm2.31 4h11.55l5.77 10-5.774 10H29.703l-5.777-10Z" style="fill:#59f" transform="matrix(.2021 0 0 .19843 -.117 0)"/></svg>