<svg xmlns="http://www.w3.org/2000/svg" xmlns:xlink="http://www.w3.org/1999/xlink" width="48" height="48"><defs><linearGradient id="b"><stop offset="0" style="stop-color:#b380ff;stop-opacity:1"/><stop offset="1" style="stop-color:#1a80e2;stop-opacity:1"/></linearGradient><linearGradient xlink:href="#b" id="d" x1="17.25" x2="17.25" y1="29.643" y2="3.056" gradientTransform="matrix(1.92523 0 0 1.92523 9.156 2.965)" gradientUnits="userSpaceOnUse"/></defs><g transform="matrix(.75 0 0 .75 -7.327 -2.86)"><rect width="56" height="56" x="13.769" y="7.814" rx="28" ry="28" style="fill:url(#d);fill-opacity:1;stroke-width:5.17443;stroke-linecap:round;stroke-linejoin:round"/><path fill="#fff" d="M19.523 23.814v5.333h5.334v18.667h5.333v-24zm26.667 0c-6.627 0-12 5.372-12 12 0 6.582 5.302 11.92 11.867 11.992v.008H62a26.5 26.5 0 0 0 1.99-5.334h-17.8a6.667 6.667 0 0 1 0-13.333 6.67 6.67 0 0 1 6.103 4h5.586a12 12 0 0 0-11.688-9.333z" style="stroke-width:1.33333"/></g></svg>