<svg xmlns="http://www.w3.org/2000/svg" width="48" height="48" viewBox="0 0 12.7 12.7"><rect width="11.112" height="11.112" x="-11.906" y="-11.906" fill="#4c627f" rx="5.556" ry="5.556" style="stroke-width:.77779;fill:#5f7ba0;fill-opacity:1" transform="scale(1 -1)rotate(90)"/><rect width="9.055" height="9.055" x="-10.872" y="-10.878" fill="#fff" opacity=".15" rx="4.528" ry="4.528" style="stroke-width:.77779;fill:#30363f;fill-opacity:1;opacity:1" transform="scale(1 -1)rotate(90)"/><path d="m10 9.917 4.583 8.25H34.75l-4.583 5.5 2.75-1.834L32 23.667l2.75-1.834-6.417 5.5v-.916l-.916 1.833.916 1.833-6.416 7.334-2.75 2.75v2.75L21 44.75l-2.75 1.833h1.833l-1.833 2.75 6.417-6.416L18.25 53l8.25-7.333.917-2.75v-1.834l2.75-2.75v.917l3.666-.917 3.667-3.666-.917-.917-1.833 1.833V33.75l2.75-2.794V28.25L50.333 9.917Z" style="opacity:.2;stroke-width:.916667" transform="matrix(.15743 0 0 .15634 1.6 2.096)"/><path d="m10 9 4.583 8.25H34.75l-4.583 5.5 2.75-1.833L32 22.75l2.75-1.833-6.417 5.5V25.5l-.916 1.833.916 1.834-6.416 7.333-2.75 2.75V42L21 43.833l-2.75 1.834h1.833l-1.833 2.75L24.667 42 18.25 52.083l8.25-7.333.917-2.75v-1.833l2.75-2.75v.916l3.666-.916L37.5 33.75l-.917-.917-1.833 1.834v-1.834l2.75-2.793v-2.707L50.333 9Z" style="fill:#c6241d;stroke-width:.916667" transform="matrix(.15743 0 0 .15634 1.6 2.096)"/><path d="m10 9 .508.917h39.184L50.333 9Zm23.986 9.167-3.82 4.583 1.72-1.146 2.864-3.437Zm-1.07 3.666-.687.459-.229.458.688-.458Zm1.834 0L32 23.667l.344-.688-4.01 3.438v.916zm-6.417 4.584V25.5l-.916 1.833.229.459zm-.291 3.083-6.125 7-2.75 2.75v.917l2.75-2.75 6.416-7.334zm8.541 3.333-1.833 1.834v.916l1.833-1.833.459.458.458-.458ZM24.667 42.917l-1.605 1.604-4.812 7.562 1.343-1.194ZM20.45 44.2l-2.2 1.467h1.375L21 44.75Zm-.977 2.383-1.223 1.834 1.833-1.834Z" style="opacity:.2;fill:#fff;stroke-width:.916667" transform="matrix(.15743 0 0 .15634 1.6 2.096)"/></svg>