<svg xmlns="http://www.w3.org/2000/svg" xmlns:xlink="http://www.w3.org/1999/xlink" width="48" height="48" viewBox="0 0 12.7 12.7"><defs><linearGradient xlink:href="#a" id="b" x1="25" x2="25" y1="44" y2="4" gradientTransform="matrix(.27781 0 0 .27781 -.317 -.317)" gradientUnits="userSpaceOnUse"/><linearGradient id="a"><stop offset="0" style="stop-color:#d8610f;stop-opacity:1"/><stop offset="1" style="stop-color:#eab355;stop-opacity:1"/></linearGradient></defs><rect width="11.113" height="11.113" x=".794" y=".794" rx="5.556" ry="5.556" style="fill:url(#b);fill-opacity:1;stroke:none;stroke-width:.277807"/><g fill="#fff"><path d="m9.128 5.741 1.19 2.84-1.587.812c.794-1.217-.397-2.84-1.19-3.246L6.35 7.77 5.16 6.147c-.794.406-1.985 2.029-1.191 3.246L2.38 8.58l1.19-2.84V3.307l1.39.812 1.389-.812 1.39.812 1.388-.812z"/><path fill-opacity=".498" d="M8.731 5.336c1.19 0 1.599-.177 1.985-.812 0 1.217-.794 2.435-1.985 2.435M3.969 5.336c-1.19 0-1.599-.177-1.985-.812 0 1.217.794 2.435 1.985 2.435"/></g></svg>