<svg xmlns="http://www.w3.org/2000/svg" xmlns:xlink="http://www.w3.org/1999/xlink" width="48" height="48"><defs><linearGradient id="c" x1="68.21" x2="148.521" y1="177.751" y2="258.061" gradientTransform="translate(-16.518 -57.726)scale(.37626)" gradientUnits="userSpaceOnUse"><stop offset="0" stop-color="#59f"/><stop offset="1" stop-color="#06f"/></linearGradient><linearGradient xlink:href="#a" id="d" x1="220.306" x2="54.439" y1="207.919" y2="42.052" gradientTransform="matrix(.168 0 0 .1636 5.931 -1.941)" gradientUnits="userSpaceOnUse"/><linearGradient id="a"><stop offset="0" stop-color="#2a7fff"/><stop offset="1" stop-color="#0cf"/></linearGradient><linearGradient xlink:href="#b" id="f" x1="16" x2="34.942" y1="11" y2="29.942" gradientTransform="matrix(1.05 0 0 1.05 -1.428 -.941)" gradientUnits="userSpaceOnUse"/><linearGradient xlink:href="#b" id="h" x1="31.021" x2="43.104" y1="-9.896" y2="-9.896" gradientTransform="matrix(.74246 .74246 -.74246 .74246 -1.428 -.941)" gradientUnits="userSpaceOnUse"/><linearGradient xlink:href="#b" id="j" x1="23.716" x2="26.348" y1="13.219" y2="15.851" gradientTransform="matrix(1.05 0 0 1.05 -1.428 -.941)" gradientUnits="userSpaceOnUse"/></defs><linearGradient id="b"><stop offset="0"/><stop offset="1" stop-opacity="0"/></linearGradient><linearGradient xlink:href="#b" id="e" x1="16" x2="34.942" y1="11" y2="29.942" gradientUnits="userSpaceOnUse"/><linearGradient xlink:href="#b" id="g" x1="31.021" x2="43.104" y1="-9.896" y2="-9.896" gradientTransform="rotate(45)" gradientUnits="userSpaceOnUse"/><linearGradient xlink:href="#b" id="i" x1="23.716" x2="26.348" y1="13.219" y2="15.851" gradientUnits="userSpaceOnUse"/><circle cx="24" cy="24" r="21" fill="url(#c)" style="fill:url(#c)"/><ellipse cx="24" cy="23.45" fill="url(#d)" rx="21" ry="20.45" style="fill:url(#d)"/><path fill="url(#e)" d="m21.842 18.722-2.303-2.303-2.42 1.528-.91 2.091-7.088 7.088 4.838 4.838-2.063 1.835 10.41 10.41h14.92c3.017 0 5.446-2.395 5.446-5.367-8.921-11.006-18.9-22.983-20.83-20.12" opacity=".2" style="fill:url(#f);stroke-width:1.05"/><path fill="url(#g)" d="m37.391 10.597-4.587 1.236-4.746 9.975 4.114 8.745 11.85 11.85a5.57 5.57 0 0 0 .75-2.794V17.977Z" opacity=".2" style="fill:url(#h);stroke-width:1.05"/><path fill="url(#i)" d="m25.873 9.554 4.758 4.758-3.3 6.988-6.602-6.602z" opacity=".2" style="fill:url(#j);stroke-width:1.05"/><path fill="#fff" d="M14.541 14.407a.46.46 0 0 0-.356.135l-2.23 2.23a.524.524 0 0 0 0 .742l2.303 3.617a9.5 9.5 0 0 0-.477 1.149l-4.184.929a.524.524 0 0 0-.525.525v3.15c0 .29.241.462.525.525l4.186.93q.195.585.463 1.14l-2.307 3.625c-.156.245-.206.537 0 .742l2.227 2.23a.524.524 0 0 0 .743 0l3.625-2.31q.563.281 1.159.484l.929 4.184c0 .29.234.525.525.525h3.15c.29 0 .462-.241.525-.525l.931-4.186q.592-.197 1.155-.471l3.609 2.298a.524.524 0 0 0 .742 0l2.23-2.229c.205-.205.156-.497 0-.742l-.985-1.546-.734.293-2.352-3.528a7.35 7.35 0 0 1-6.696 4.336 7.35 7.35 0 0 1-7.35-7.35 7.35 7.35 0 0 1 4.2-6.632v-2.26q-.53.18-1.036.424l-3.609-2.299a.8.8 0 0 0-.386-.135" style="stroke-width:1.05"/><path fill="#fff" d="m25.872 9.559-5.25.486v20.514l5.25-1.05v-8.4l6.3 9.45 5.25-2.1-6.825-8.835 6.83-9.015-5.499-1.05-6.056 8.925Z" style="stroke-width:1.05"/></svg>