<svg xmlns="http://www.w3.org/2000/svg" width="48" height="48" viewBox="0 0 12.7 12.7"><circle cx="6.35" cy="6.35" r="5.556" style="stroke-width:.777735;paint-order:stroke fill markers;fill:#c83771"/><path fill="#fff" d="M4.91.987a5.6 5.6 0 0 0-1.646.75v3.995l.823-.823.823.823z" style="stroke-width:.777735"/><path fill-rule="evenodd" d="M2.852 2.038A5.56 5.56 0 0 0 .794 6.35a5.56 5.56 0 0 0 2.058 4.311Z" opacity=".2" style="stroke-width:.205773;paint-order:fill markers stroke"/><path fill="#fff" d="m6.97 8.056-.413 1.122h.828Zm-.172-.3h.346l.859 2.254h-.317l-.205-.578H6.464l-.205.578h-.321Zm2.29 1.405q-.336 0-.466.077t-.13.262q0 .148.096.236.099.086.266.086.231 0 .37-.164.14-.164.14-.435V9.16Zm.555-.115v.965h-.279v-.257q-.095.154-.237.228-.141.072-.347.072-.26 0-.413-.144-.153-.147-.153-.392 0-.285.19-.43.192-.145.57-.145h.39v-.027q0-.192-.126-.296-.125-.106-.353-.106-.145 0-.283.035t-.264.105v-.257q.152-.06.295-.088.144-.03.28-.03.367 0 .549.19.18.19.18.577" aria-label="Aa" opacity=".5" style="stroke-width:.777735"/></svg>