<svg xmlns="http://www.w3.org/2000/svg" width="48" height="48"><defs><filter id="d" width="1.12" height="1.12" x="-.06" y="-.06" color-interpolation-filters="sRGB"><feGaussianBlur stdDeviation=".065"/></filter><filter id="e" width="1.12" height="1.12" x="-.06" y="-.06" color-interpolation-filters="sRGB"><feGaussianBlur stdDeviation=".082"/></filter><filter id="f" width="1.104" height="1.143" x="-.052" y="-.072" color-interpolation-filters="sRGB"><feGaussianBlur stdDeviation=".071"/></filter><filter id="c" width="1.074" height="1.284" x="-.037" y="-.142" color-interpolation-filters="sRGB"><feGaussianBlur stdDeviation=".051"/></filter><linearGradient id="b" x1="-184.75" x2="-170.19" y1="-8.541" y2="-15.811" gradientTransform="translate(536.218 48.651)scale(2.88624)" gradientUnits="userSpaceOnUse"><stop offset="0" stop-color="#505f64"/><stop offset="1" stop-color="#647378"/></linearGradient><linearGradient id="a" x1="99.036" x2="99.036" y1="100.29" y2="199.84" gradientTransform="matrix(.21 0 0 .21 3 3)" gradientUnits="userSpaceOnUse"><stop offset="0" stop-color="#4bd2f5"/><stop offset="1" stop-color="#5587ff"/></linearGradient></defs><path fill="url(#a)" d="M24 24v21a21 21 0 0 0 20.999-20.967c-.056-.003-.104-.033-.16-.033z" color="#000" style="fill:url(#a);stroke-width:.699997"/><path fill="#46505a" d="M3 24a21 21 0 0 0 21 21V24Z"/><path fill="url(#b)" d="M24 3A21 21 0 0 0 3 24h41.839c.057 0 .104.03.16.033L45 24A21 21 0 0 0 24 3Z" style="fill:url(#b)"/><rect width="3.297" height=".864" x="126.55" y="22.114" filter="url(#c)" opacity=".5" ry=".432" transform="matrix(2.9272 0 0 3.12642 -359.909 -55.603)"/><rect width="9.517" height="2.493" x="10.627" y="13.52" fill="#fafafa" ry="1.246"/><g filter="url(#d)" opacity=".5" transform="matrix(2.9288 0 0 3.00684 -368.137 -52.91)"><rect width="3.297" height=".864" x="111.07" y="-81.266" ry=".432" transform="rotate(45)"/><rect width="3.297" height=".864" x="79.186" y="112.29" ry=".432" transform="rotate(-45)"/></g><g fill="#fafafa" transform="matrix(2.8862 0 0 2.8862 -362.316 -50.354)"><rect width="3.297" height=".864" x="111.07" y="-81.266" ry=".432" transform="rotate(45)"/><rect width="3.297" height=".864" x="79.186" y="112.29" ry=".432" transform="rotate(-45)"/></g><g filter="url(#e)" opacity=".5" transform="matrix(2.9362 0 0 2.97218 -361.02 -47.118)"><rect width="3.297" height=".864" x="126.55" y="26.546" ry=".432"/><rect width="3.297" height=".864" x="-28.626" y="127.77" ry=".432" transform="rotate(-90)"/></g><g fill="#fafafa" transform="matrix(2.8862 0 0 2.8862 -354.617 -44.954)"><rect width="3.297" height=".864" x="126.55" y="26.546" ry=".432"/><rect width="3.297" height=".864" x="-28.626" y="127.77" ry=".432" transform="rotate(-90)"/></g><g filter="url(#f)" opacity=".5" transform="matrix(2.95102 0 0 2.96504 -371.444 -47.23)"><rect width="3.297" height=".864" x="135.28" y="25.884" ry=".432"/><rect width="3.297" height=".841" x="135.28" y="27.434" ry=".42"/></g><g fill="#fafafa" transform="matrix(2.8862 0 0 2.8862 -362.502 -45.202)"><rect width="3.297" height=".864" x="135.28" y="25.884" ry=".432"/><rect width="3.297" height=".864" x="135.28" y="27.434" ry=".432"/></g></svg>