<svg xmlns="http://www.w3.org/2000/svg" width="48" height="48" viewBox="0 0 12.7 12.7"><path d="M8.467 1.323a7.144 7.144 0 0 0-7.144 7.144 7.144 7.144 0 0 0 7.144 7.143 7 7 0 0 0 .264-.009V1.336a7 7 0 0 0-.264-.013" style="stroke-width:.26458;paint-order:stroke fill markers;fill:#a02c5a" transform="translate(-.235 -.235)scale(.77777)"/><path fill="#ececec" d="M8.731 1.332v14.265a7.144 7.144 0 0 0 6.88-7.13 7.144 7.144 0 0 0-6.88-7.135" style="stroke-width:.26458;paint-order:stroke fill markers" transform="translate(-.235 -.235)scale(.77777)"/><path d="M8.466 1.323V15.61a5.027 7.144 0 0 0 5.028-7.144 5.027 7.144 0 0 0-5.027-7.143Z" style="paint-order:stroke fill markers;fill:#c83771" transform="translate(-.235 -.235)scale(.77777)"/><path fill="#fff" d="M5.898 3.265c-.063-.01-.123.03-.189.141-.104.177-.151.672-.066 1.148.029.163.091.399.175.657-.067.24-.14.498-.221.752-.32 1.005-1.008 2.058-1.37 2.625-.23.356-.781.775-.828.694-.045-.082.11-.265.304-.558.192-.292.685-.594.685-.594s-.21-.008-.75.466c-.539.478-.376.714-.247.786.127.075.485.358 1.702-1.755a8.2 8.2 0 0 0 .852-2.055c.154.398.352.8.572 1.054.129.147.298.29.485.42-.148.028-.317.06-.547.101-.84.154-1.258.484-1.268.491.007-.001.984-.31 2.023-.455.408.25.877.44 1.265.517.606.123.77-.1.79-.129-.023.02-.102.056-.352.035-.2-.016-.75-.172-1.307-.47 1.152-.107 1.55.01 1.653.093.103.082.103.174.103.174s.132-.128.045-.257c-.073-.135-.186-.246-1.11-.218a9 9 0 0 0-.941.06 3.2 3.2 0 0 1-.762-.632 3 3 0 0 1-.573-1.108c.17-.82.117-1.328.117-1.332 0 0-.086.393-.22.91-.076-.391-.102-.752-.124-1.009-.047-.588.216-.425.254-.35.06.048.09.21.09.21s-.022-.241-.127-.344a.22.22 0 0 0-.113-.068m-.71 4.374h-.004v.002z"/></svg>