<svg xmlns="http://www.w3.org/2000/svg" xmlns:xlink="http://www.w3.org/1999/xlink" width="48" height="48"><defs><linearGradient id="l"><stop offset="0" style="stop-color:#ffb380;stop-opacity:1"/><stop offset="1" style="stop-color:#ffe680;stop-opacity:1"/></linearGradient><linearGradient id="a"><stop offset="0" style="stop-color:#b4942a;stop-opacity:1"/><stop offset="1" style="stop-color:#e4dcc9;stop-opacity:1"/></linearGradient><linearGradient id="b"><stop offset="0" style="stop-color:#252525;stop-opacity:1"/><stop offset=".5" style="stop-color:#252525;stop-opacity:1"/><stop offset=".75" style="stop-color:#252525;stop-opacity:1"/><stop offset="1" style="stop-color:#000;stop-opacity:1"/></linearGradient><linearGradient id="c"><stop offset="0" style="stop-color:#2d2d2d;stop-opacity:1"/><stop offset=".5" style="stop-color:#000;stop-opacity:1"/><stop offset="1" style="stop-color:#000;stop-opacity:1"/></linearGradient><linearGradient id="d"><stop offset="0" style="stop-color:#fff;stop-opacity:.68345326"/><stop offset="1" style="stop-color:#fff;stop-opacity:0"/></linearGradient><linearGradient id="e"><stop offset="0" style="stop-color:white;stop-opacity:1"/><stop offset="1" style="stop-color:white;stop-opacity:0"/></linearGradient><linearGradient id="f"><stop offset="0" style="stop-color:#fff;stop-opacity:1"/><stop offset="1" style="stop-color:#aeaeae;stop-opacity:1"/></linearGradient><linearGradient id="j"><stop offset="0" style="stop-color:#252525;stop-opacity:1"/><stop offset="1" style="stop-color:#252525;stop-opacity:0"/></linearGradient><linearGradient id="g"><stop offset="0" style="stop-color:#fff;stop-opacity:1"/><stop offset="1" style="stop-color:#252525;stop-opacity:0"/></linearGradient><linearGradient id="k"><stop offset="0" style="stop-color:#000;stop-opacity:1"/><stop offset=".709" style="stop-color:#090909;stop-opacity:.67870039"/><stop offset="1" style="stop-color:#131313;stop-opacity:0"/></linearGradient><linearGradient id="h"><stop offset="0" style="stop-color:#fff;stop-opacity:.55035973"/><stop offset="1" style="stop-color:#fff;stop-opacity:0"/></linearGradient><linearGradient id="i"><stop offset="0" style="stop-color:#fff;stop-opacity:.55035973"/><stop offset="1" style="stop-color:#000;stop-opacity:0"/></linearGradient><linearGradient id="o" x1="80.368" x2="82.141" y1="13.177" y2="14.704" gradientTransform="matrix(2.6634 0 0 2.68624 -180.667 -4.626)" gradientUnits="userSpaceOnUse"><stop offset="0" stop-color="#fafafa"/><stop offset="1" stop-color="#90a0b3"/></linearGradient><linearGradient xlink:href="#j" id="w" x1="48.915" x2="48.913" y1="2.972" y2="2.555" gradientTransform="matrix(.53205 0 0 .46134 9.828 -10.952)" gradientUnits="userSpaceOnUse"/><linearGradient xlink:href="#e" id="y" x1="48.499" x2="48.733" y1=".812" y2="2.366" gradientTransform="matrix(.43245 .30993 -.26943 .37448 14.385 -3.165)" gradientUnits="userSpaceOnUse"/><linearGradient xlink:href="#k" id="z" x1="46.052" x2="46.052" y1="3.1" y2="2.396" gradientTransform="matrix(.52912 0 0 .46134 9.967 -10.952)" gradientUnits="userSpaceOnUse"/><linearGradient xlink:href="#k" id="B" x1="46.052" x2="46.052" y1="3.1" y2="2.396" gradientTransform="matrix(.4102 0 0 .35568 -7.036 -8.352)" gradientUnits="userSpaceOnUse"/><linearGradient xlink:href="#l" id="p" x1="5.223" x2="39.545" y1="8.752" y2="8.752" gradientUnits="userSpaceOnUse"/><radialGradient xlink:href="#a" id="q" cx="42.618" cy="120.642" r="3.407" fx="42.618" fy="120.642" gradientTransform="matrix(.48798 .38937 -3.1517 3.77413 381.622 -440.134)" gradientUnits="userSpaceOnUse"/><radialGradient xlink:href="#b" id="r" cx="15.727" cy="58.09" r="2.614" fx="15.727" fy="58.09" gradientTransform="matrix(.60374 .44028 -5.50412 7.6106 337.974 -426.741)" gradientUnits="userSpaceOnUse"/><radialGradient xlink:href="#c" id="s" cx="89.455" cy="100.747" r="47.746" fx="89.455" fy="100.747" gradientTransform="matrix(.02083 .0148 -.16464 .23147 45.332 -2.556)" gradientUnits="userSpaceOnUse"/><radialGradient xlink:href="#d" id="t" cx="34.678" cy="7.462" r="47.595" fx="34.678" fy="7.462" gradientTransform="matrix(.19806 -.00433 .00011 .0113 -6.737 -34.279)" gradientUnits="userSpaceOnUse"/><radialGradient xlink:href="#e" id="u" cx="34.678" cy="7.462" r="47.595" fx="34.678" fy="7.462" gradientTransform="matrix(-.23758 .00106 -.00002 -.00365 6.507 -34.921)" gradientUnits="userSpaceOnUse"/><radialGradient xlink:href="#f" id="v" cx="49.01" cy="8.495" r="3.975" fx="47.371" fy="6.77" gradientTransform="matrix(.43245 .30993 -.1015 .14109 12.958 -1.182)" gradientUnits="userSpaceOnUse"/><radialGradient xlink:href="#g" id="x" cx="49.012" cy="2.674" r="1.725" fx="49.012" fy="2.674" gradientTransform="matrix(.53205 0 0 .05613 9.828 -9.881)" gradientUnits="userSpaceOnUse"/><radialGradient xlink:href="#h" id="A" cx="49.012" cy="2.674" r="1.725" fx="49.012" fy="2.674" gradientTransform="matrix(.35283 0 0 .05613 17.086 -9.881)" gradientUnits="userSpaceOnUse"/><radialGradient xlink:href="#i" id="C" cx="49.012" cy="2.674" r="1.725" fx="49.012" fy="2.674" gradientTransform="matrix(.35008 0 0 .05613 -54.582 -9.881)" gradientUnits="userSpaceOnUse"/><filter id="m" width="1.189" height="1.181" x="-.094" y="-.09" color-interpolation-filters="sRGB"><feGaussianBlur stdDeviation=".398"/></filter><filter id="n" width="1.128" height="1.113" x="-.064" y="-.057" color-interpolation-filters="sRGB"><feGaussianBlur stdDeviation=".227"/></filter></defs><ellipse cx="23.832" cy="24.109" fill="#f3f3f3" color="#000" rx="20.655" ry="20.832"/><path fill="#9cb8d7" d="M57.641 9.825c.816 3.562-6.407 9.598-9.879 10.551l4.69-.01c4.099-2.626 3.513-2.28 5.435-4.445z" filter="url(#m)" opacity=".2" transform="matrix(2.31532 0 0 2.55417 -91.238 -9.877)"/><path fill="#fafafa" d="M23.655 3A20.655 20.952 0 0 0 3 23.953a20.655 20.952 0 0 0 14.411 19.964l1.387-.159c9.777-2.728 23.54-11.168 24.084-27.453A20.655 20.952 0 0 0 23.655 3Zm19.274 13.431 1.159 10.406a20.655 20.952 0 0 0 .001-.006l-1.156-10.388a20.655 20.952 0 0 0-.004-.012z" color="#000"/><path fill="none" stroke="#dcdcdc" stroke-width=".495" d="m4.46 27.607 36.842-4.259M6.522 33.417l29.58-3.225"/><path fill="#dcdcdc" d="m30.963 37.784 6.176-.705-.056-.498-5.352.613c-.113.088-.21.204-.323.29-.145.109-.3.194-.445.3" color="#000" style="font-variant-ligatures:normal;font-variant-position:normal;font-variant-caps:normal;font-variant-numeric:normal;font-variant-alternates:normal;font-feature-settings:normal;text-indent:0;text-decoration-line:none;text-decoration-style:solid;text-decoration-color:#000;text-transform:none;text-orientation:mixed;white-space:normal;shape-padding:0;isolation:auto;mix-blend-mode:normal;stroke-width:.691444"/><path fill="#dcdcdc" d="M30.963 37.784c.146-.106.3-.191.445-.3.113-.086.21-.202.323-.29l-19.192 1.822.056.492z" color="#000" style="font-variant-ligatures:normal;font-variant-position:normal;font-variant-caps:normal;font-variant-numeric:normal;font-variant-alternates:normal;font-feature-settings:normal;text-indent:0;text-decoration-line:none;text-decoration-style:solid;text-decoration-color:#000;text-transform:none;text-orientation:mixed;white-space:normal;shape-padding:0;isolation:auto;mix-blend-mode:normal;stroke-width:.691444"/><path fill="none" stroke="#dcdcdc" stroke-width=".495" d="m3.362 21.483 38.513-4.387"/><g fill="#a0a0a0" transform="scale(2.6634 2.68624)rotate(-6.508 -48.801 360.872)"><circle cx="43.141" cy="14.374" r=".164"/><circle cx="44.21" cy="14.374" r=".164"/><circle cx="45.279" cy="14.374" r=".164"/><circle cx="46.348" cy="14.374" r=".164"/><circle cx="47.416" cy="14.374" r=".164"/><circle cx="48.485" cy="14.374" r=".164"/><circle cx="49.554" cy="14.374" r=".164"/><circle cx="50.623" cy="14.374" r=".164"/><circle cx="51.692" cy="14.374" r=".164"/><circle cx="52.761" cy="14.374" r=".164"/><circle cx="54.898" cy="14.374" r=".164"/><circle cx="53.829" cy="14.374" r=".164"/></g><path fill="none" stroke="#dcdcdc" stroke-width=".495" d="m37.313 30.137 4.683-.536"/><path fill="#141414" d="M57.818 9.829s.054 3.078-2.664 4.54c-2.245 1.209.939 2.69-5.86 5.1 8.851-2.575 8.524-9.64 8.524-9.64" filter="url(#n)" opacity=".3" transform="matrix(2.86142 0 0 2.70881 -122.26 -9.212)"/><path fill="#141414" d="M57.818 9.829s.054 3.078-2.664 4.54c-2.245 1.209.939 2.69-5.86 5.1 8.851-2.575 8.524-9.64 8.524-9.64" filter="url(#n)" opacity=".3" transform="matrix(2.7805 0 0 2.6131 -117.313 -7.447)"/><path fill="url(#o)" d="M42.299 17.146s.142 8.269-7.095 12.198c-5.979 3.246 2.5 7.223-15.607 13.697 23.572-6.917 22.888-25.8 22.888-25.8z" style="fill:url(#o)"/><path fill="none" stroke="#fafafa" stroke-width=".354" d="M42.299 17.146s-.503 8.402-6.675 11.844c-7.1 3.96 2.585 7.498-16.122 13.906"/><path d="M23.654 3a20.655 20.952 0 0 0-18.43 11.504l34.32-3.909a20.655 20.952 0 0 0-15.89-7.594" style="fill:url(#p);fill-opacity:1"/><path fill="#fafafa" d="m42.928 16.431 1.16 10.405a20.655 20.952 0 0 0 0-.005l-1.156-10.388a20.655 20.952 0 0 0-.003-.012z" color="#000"/><path d="M33.145 11.755c.11-.153 1.024-.117 2.134.678 1.121.804 1.463 1.61 1.326 1.802l-.27.374-3.46-2.48z" style="overflow:visible;fill:#000;fill-opacity:1;fill-rule:evenodd;stroke:none;stroke-width:.207796px;stroke-linecap:butt;stroke-linejoin:miter;stroke-opacity:1"/><path d="m20.236 29.72-.05.069-2.635 6.443.861.559 5.209-4.488.041-.049z" style="overflow:visible;fill:#000;fill-opacity:1;fill-rule:evenodd;stroke:#000;stroke-width:0;stroke-linecap:butt;stroke-linejoin:miter;stroke-miterlimit:4;stroke-dasharray:none;stroke-opacity:1"/><path d="m17.094 37.778 6.437-5.544.036-.05-3.237-2.391-.049.067z" style="overflow:visible;fill:url(#q);fill-opacity:1;fill-rule:evenodd;stroke:#000;stroke-width:0;stroke-linecap:butt;stroke-linejoin:miter;stroke-miterlimit:4;stroke-dasharray:none;stroke-opacity:1"/><path d="M21.741 31.276c.427.306.773.164.925.273a.2.2 0 0 1 .06.07l12.853-17.892-1.677-1.202-12.886 17.937c.064-.009.122-.008.17.026.14.1.127.481.555.788" style="overflow:visible;fill:url(#r);fill-opacity:1;fill-rule:nonzero;stroke:none;stroke-width:.103899;stroke-linecap:round;stroke-linejoin:round;stroke-miterlimit:4;stroke-dasharray:none;stroke-dashoffset:4;stroke-opacity:1"/><path d="m35.517 13.683-12.84 17.874c.138.114.08.411.338.596.277.199.453-.01.633.117l12.849-17.885Z" style="overflow:visible;fill:url(#s);fill-opacity:1;fill-rule:nonzero;stroke:none;stroke-width:.103899;stroke-linecap:round;stroke-linejoin:round;stroke-miterlimit:4;stroke-dasharray:none;stroke-dashoffset:4;stroke-opacity:1"/><path d="m23.314 30.672-.668.928c.137.114.048.453.304.637.276.198.483-.055.662.072l.676-.939z" style="overflow:visible;opacity:.353488;fill:#000;fill-opacity:1;fill-rule:nonzero;stroke:none;stroke-width:.103899;stroke-linecap:round;stroke-linejoin:round;stroke-miterlimit:4;stroke-dasharray:none;stroke-dashoffset:4;stroke-opacity:1"/><path d="m21.511 30.038-.342.476-.013.017c.115.088.04.432.417.75l.021.015.152.109.021.015c.426.257.728.071.88.18l.363-.506z" style="overflow:visible;opacity:.386047;fill:#252525;fill-opacity:1;fill-rule:nonzero;stroke:none;stroke-width:.103899;stroke-linecap:round;stroke-linejoin:round;stroke-miterlimit:4;stroke-dasharray:none;stroke-dashoffset:4;stroke-opacity:1"/><path d="M20.536 30.403c.268.187.508-.016.65.085l12.84-17.873-.989-.71L20.19 29.79l.016.012c.111.08.062.411.331.6" style="overflow:visible;fill:#131313;fill-opacity:1;fill-rule:nonzero;stroke:none;stroke-width:.103899;stroke-linecap:round;stroke-linejoin:round;stroke-miterlimit:4;stroke-dasharray:none;stroke-dashoffset:4;stroke-opacity:1"/><ellipse cx=".132" cy="-34.345" rx="9.408" ry=".536" style="overflow:visible;fill:url(#t);fill-opacity:1;fill-rule:nonzero;stroke:none;stroke-width:.0661232;stroke-linecap:round;stroke-linejoin:round;stroke-miterlimit:4;stroke-dasharray:none;stroke-dashoffset:4;stroke-opacity:1" transform="matrix(.58488 -.81112 -.81407 -.58077 0 0)"/><path d="M9.576-34.912a11.308.17 0 0 1-11.22.17 11.308.17 0 0 1-11.395-.167 11.308.17 0 0 1 11.04-.172 11.308.17 0 0 1 11.57.164" style="overflow:visible;fill:url(#u);fill-opacity:1;fill-rule:nonzero;stroke:none;stroke-width:.0501985;stroke-linecap:round;stroke-linejoin:round;stroke-miterlimit:4;stroke-dasharray:none;stroke-dashoffset:4;stroke-opacity:1" transform="matrix(.58283 -.8126 -.81337 -.58175 0 0)"/><path d="M31.954 13.414c-.365.275-.671.735-.807 1.122l2.777 1.974.807-1.122zm2.485 1.765-.807 1.121.974.699c.32-.23.651-.67.807-1.122z" style="overflow:visible;fill:url(#v);fill-opacity:1;fill-rule:nonzero;stroke:none;stroke-width:.103899;stroke-linecap:round;stroke-linejoin:round;stroke-miterlimit:4;stroke-dasharray:none;stroke-dashoffset:4;stroke-opacity:1"/><path d="M34.987-9.746h1.835v.224h-1.835z" style="overflow:visible;fill:url(#w);fill-opacity:1;fill-rule:nonzero;stroke:none;stroke-width:0;stroke-linecap:round;stroke-linejoin:round;stroke-miterlimit:4;stroke-dasharray:none;stroke-dashoffset:4;stroke-opacity:1" transform="rotate(35.629)skewX(-.106)"/><path d="M34.987-9.871h1.835v.348h-1.835z" style="overflow:visible;fill:url(#x);fill-opacity:1;fill-rule:nonzero;stroke:none;stroke-width:0;stroke-linecap:round;stroke-linejoin:round;stroke-miterlimit:4;stroke-dasharray:none;stroke-dashoffset:4;stroke-opacity:1" transform="rotate(35.629)skewX(-.106)"/><path d="M34.947 12.26c.703.437 1.26 1.056 1.296 1.116s-.695-.628-1.266-.934c-.567-.304-1.277-.285-1.337-.322s-.48-.385-.156-.384c.34 0 .92.187 1.463.524" style="overflow:visible;fill:url(#y);fill-opacity:1;fill-rule:evenodd;stroke:none;stroke-width:.207796px;stroke-linecap:butt;stroke-linejoin:miter;stroke-opacity:1"/><path d="M33.77-9.746h1.217v.224H33.77z" style="overflow:visible;fill:url(#z);fill-opacity:1;fill-rule:nonzero;stroke:none;stroke-width:0;stroke-linecap:round;stroke-linejoin:round;stroke-miterlimit:4;stroke-dasharray:none;stroke-dashoffset:4;stroke-opacity:1" transform="rotate(35.629)skewX(-.106)"/><path d="M33.77-9.871h1.217v.348H33.77z" style="overflow:visible;fill:url(#A);fill-opacity:1;fill-rule:nonzero;stroke:none;stroke-width:0;stroke-linecap:round;stroke-linejoin:round;stroke-miterlimit:4;stroke-dasharray:none;stroke-dashoffset:4;stroke-opacity:1" transform="rotate(35.629)skewX(-.106)"/><path d="M-38.027-9.746h1.208v.224h-1.208z" style="overflow:visible;fill:url(#B);fill-opacity:1;fill-rule:nonzero;stroke:none;stroke-width:0;stroke-linecap:round;stroke-linejoin:round;stroke-miterlimit:4;stroke-dasharray:none;stroke-dashoffset:4;stroke-opacity:1" transform="matrix(-.8128 -.58253 -.58403 .81173 0 0)"/><path d="M-38.027-9.871h1.208v.348h-1.208z" style="overflow:visible;fill:url(#C);fill-opacity:1;fill-rule:nonzero;stroke:none;stroke-width:0;stroke-linecap:round;stroke-linejoin:round;stroke-miterlimit:4;stroke-dasharray:none;stroke-dashoffset:4;stroke-opacity:1" transform="matrix(-.8128 -.58253 -.58403 .81173 0 0)"/><path d="M24.688 29.537a.32.32 0 0 0-.073.205q.005.096.096.16.09.064.182.04a.32.32 0 0 0 .171-.135.32.32 0 0 0 .073-.205q-.006-.096-.095-.16a.21.21 0 0 0-.183-.04.32.32 0 0 0-.171.135m-.106-.076q.16-.224.33-.294a.3.3 0 0 1 .307.029q.138.099.125.28-.013.184-.174.407-.16.224-.33.294a.3.3 0 0 1-.307-.028.3.3 0 0 1-.125-.282q.014-.183.174-.406m1.1-.922.522-.114-.18.25-.35.077.04.354-.18.25-.058-.53-.5.11.179-.249.329-.072-.037-.333.18-.251zm-.037-.534.189-.261.354-.067-.05-.356.188-.261.074.588.239.171-.172.24-.24-.172zm1.88-1.504a1.6 1.6 0 0 1-.224.422.9.9 0 0 1-.343.31q-.177.078-.312-.019-.137-.098-.117-.292t.194-.434q.066-.093.138-.17.072-.076.146-.137l.118.084a1.2 1.2 0 0 0-.275.27.5.5 0 0 0-.11.255.19.19 0 0 0 .084.177q.09.065.192.025a.48.48 0 0 0 .202-.176l.047-.071a1 1 0 0 0 .032-.064l-.11-.08-.105.147-.098-.07.268-.373zm-.374-.587.465-.645.11.08-.292.406.106.075.275-.381.11.079-.275.382.13.093.302-.42.11.08-.474.658zm.626-.869.193-.267.631-.058-.388-.279.163-.226.567.406-.192.267-.632.058.389.28-.164.226zm1.084-1.505.193-.266.631-.058-.389-.28.164-.226.567.407-.193.267-.631.058.389.279-.164.226zm.93-1.312a.54.54 0 0 1 .192-.178q.098-.047.17.004t.06.158a.54.54 0 0 1-.11.24.55.55 0 0 1-.193.18q-.096.046-.169-.005-.071-.052-.059-.159a.54.54 0 0 1 .109-.24m.175.514.368-.51.076.054-.368.51zm-.11-.467a.15.15 0 0 0-.035.098q.004.045.048.076.045.031.088.021a.15.15 0 0 0 .082-.064.15.15 0 0 0 .033-.096.1.1 0 0 0-.047-.077.1.1 0 0 0-.088-.02q-.045.01-.082.062m1.209-1.242a.4.4 0 0 1 .154-.105.14.14 0 0 1 .128.018q.085.06.053.197a1 1 0 0 1-.178.34 1.8 1.8 0 0 1-.234.264l-.113-.08q.069-.053.127-.111.059-.06.104-.123a.5.5 0 0 0 .085-.16q.015-.066-.021-.092-.039-.028-.096.01a.6.6 0 0 0-.13.138l-.07.096-.094-.068.073-.1a.5.5 0 0 0 .08-.147q.012-.057-.022-.082-.032-.023-.081.006a.4.4 0 0 0-.105.108 1 1 0 0 0-.137.257l-.107-.077a2 2 0 0 1 .175-.294.9.9 0 0 1 .23-.244q.102-.064.175-.012a.12.12 0 0 1 .05.102.35.35 0 0 1-.046.158" style="font-style:normal;font-variant:normal;font-weight:700;font-stretch:normal;font-size:12px;line-height:125%;font-family:&quot;Bitstream Vera Sans&quot;;text-align:start;writing-mode:lr-tb;text-anchor:start;overflow:visible;fill:#999;fill-opacity:1;stroke:none;stroke-width:.207796px;stroke-linecap:butt;stroke-linejoin:miter;stroke-opacity:1"/><path d="m18.109 34.762-1.201 2.906-.121.297v.006h-.005l.001.007.001.006c.001.001.007.003.008.005l.002.006.009.012.034.03a.3.3 0 0 0 .06.026l.014.004h.012l.006-.002v-.006h.005l.288-.241 2.38-2.054c-.543-.033-1.153-.781-1.495-1.004z" style="overflow:visible;fill:#000;fill-opacity:1;fill-rule:evenodd;stroke:none;stroke-width:0;stroke-linecap:butt;stroke-linejoin:miter;stroke-miterlimit:4;stroke-dasharray:none;stroke-opacity:1"/></svg>