<svg xmlns="http://www.w3.org/2000/svg" width="48" height="48" viewBox="0 0 12.7 12.7"><rect width="11.112" height="11.112" x="-11.906" y="-11.906" fill="#4c627f" rx="5.556" ry="5.556" style="stroke-width:.77779" transform="scale(1 -1)rotate(90)"/><rect width="9.055" height="9.055" x="-10.872" y="-10.878" rx="4.528" ry="4.528" style="fill:#303a49;fill-opacity:1;opacity:1" transform="scale(1 -1)rotate(90)"/><path d="M6.35 3.44a2.9 2.9 0 0 0-1.47.409l1.303 1.303.349-.348-.788-.788c.094-.025.189-.048.288-.061.025-.004.05-.012.075-.015a2 2 0 0 1 .243-.015A2.425 2.425 0 0 1 8.775 6.35c0 .118-.014.235-.03.348-.01.067-.015.133-.03.197-.033.14-.081.266-.137.395-.006.015-.008.03-.015.045-.02.045-.053.08-.076.121v.016l.364.348a2.9 2.9 0 0 0 .41-1.47A2.91 2.91 0 0 0 6.35 3.44zM3.849 4.88a2.9 2.9 0 0 0-.41 1.47A2.91 2.91 0 0 0 6.35 9.26a2.9 2.9 0 0 0 1.47-.409l-.363-.364-.94-.924-.334.333.773.788c-.094.025-.189.048-.288.06q-.038.01-.075.016a2 2 0 0 1-.243.015c-.084 0-.16-.006-.243-.015-.081-.008-.163-.014-.242-.03a2.434 2.434 0 0 1-1.94-2.38c0-.12.013-.233.03-.349.01-.066.015-.132.03-.197.033-.139.081-.265.137-.394.006-.015.008-.03.015-.045.02-.043.053-.08.076-.122v-.015z" style="color:#363636;fill:#0cf;stroke-width:.485073"/><circle cx="9.922" cy="10.186" r="1.852" style="stroke-width:.538541;paint-order:stroke fill markers;fill:#00aad4"/><path fill="#fff" d="M9.356 10.34c0 .327.006.441-.204.441s-.377.069-.377.26c0 .192.198.285.321.285s.368-.086.368-.346V9.804l1.052-.244v.9s.013.108-.126.108c-.14 0-.446-.04-.446.254s.297.275.343.275a.373.373 0 0 0 .347-.399V9.046l-1.284.248Z" style="stroke-width:.538541"/></svg>