<svg xmlns="http://www.w3.org/2000/svg" xmlns:xlink="http://www.w3.org/1999/xlink" width="48" height="48"><defs><linearGradient id="d" x1="403.57" x2="416.57" y1="523.8" y2="536.8" gradientTransform="translate(-384.57 -499.8)" gradientUnits="userSpaceOnUse"><stop stop-color="#292c2f"/><stop offset="1" stop-opacity="0"/></linearGradient><linearGradient xlink:href="#a" id="e" x1="14.369" x2="26.522" y1="22.522" y2="22.522" gradientUnits="userSpaceOnUse"/><linearGradient id="b" x1="428.816" x2="388.865" y1="547.634" y2="499.679" gradientTransform="translate(-384.57 -499.8)" gradientUnits="userSpaceOnUse"><stop stop-color="#2a2c2f"/><stop offset="1" stop-color="#536161"/></linearGradient><linearGradient id="a" x1="36" x2="14" y1="44" y2="12" gradientUnits="userSpaceOnUse"><stop stop-color="#536161" style="stop-color:#bfc9c9;stop-opacity:1"/><stop offset="1" stop-color="#f4f5f5" style="stop-color:#fbfbfb;stop-opacity:1"/></linearGradient><linearGradient xlink:href="#b" id="c" x1="25" x2="25" y1="44" y2="4" gradientUnits="userSpaceOnUse"/><linearGradient xlink:href="#a" id="f" x1="31.586" x2="1.203" y1="36.345" y2="6.723" gradientUnits="userSpaceOnUse"/></defs><rect width="40" height="40" x="4" y="4" ry="7" style="fill:url(#c);fill-opacity:1"/><path d="m19 34 10 10 15.006-.414L48 37 23.345 13c.986 1.927.255 2.97 1.052 4.64.51 1.067 4.148 3.992 4.256 6.45C29 32 27 34 19 34" style="opacity:.4;fill:url(#d);fill-rule:evenodd"/><g style="font-style:normal;font-weight:400;font-size:27.99748993px;line-height:125%;font-family:sans-serif;letter-spacing:0;word-spacing:0;fill:url(#e);fill-opacity:1;stroke:none;stroke-width:1px;stroke-linecap:butt;stroke-linejoin:miter;stroke-opacity:1"><path d="m24.732 33.11-.479-2.133h-.11q-1.12 1.408-2.241 1.914-1.108.492-2.803.492-2.214 0-3.472-1.162t-1.258-3.28q0-4.567 7.205-4.786l2.542-.095v-.889q0-1.709-.738-2.515-.738-.82-2.365-.82-1.19 0-2.255.355-1.053.355-1.983.793l-.752-1.846q1.135-.601 2.475-.943t2.652-.342q2.72 0 4.046 1.203t1.326 3.828V33.11zM19.66 31.4q2.064 0 3.24-1.106 1.19-1.121 1.19-3.172v-1.353l-2.216.095q-2.583.096-3.773.82-1.175.725-1.175 2.283 0 1.176.71 1.805.725.629 2.024.629m2.816-15.256h-1.654q-1.026-.82-2.256-2.119-1.217-1.312-1.722-2.078v-.287h2.939q.437.903 1.244 2.16.806 1.244 1.449 1.983z" style="font-style:normal;font-variant:normal;font-weight:400;font-stretch:normal;font-family:&quot;Noto Sans&quot;;-inkscape-font-specification:&quot;Noto Sans&quot;;fill-opacity:1;fill:url(#f)" transform="matrix(.9874 0 0 1.01277 3.812 1.19)"/></g><path d="M4 36v1c0 3.878 3.122 7 7 7h26c3.878 0 7-3.122 7-7v-1c0 3.878-3.122 7-7 7H11c-3.878 0-7-3.122-7-7" style="fill:#000;fill-opacity:1"/></svg>