<svg xmlns="http://www.w3.org/2000/svg" xmlns:xlink="http://www.w3.org/1999/xlink" width="48" height="48"><defs><linearGradient id="c"><stop offset="0" stop-color="#ffa92d"/><stop offset="1" stop-color="#ffdaa5"/></linearGradient><linearGradient id="a"><stop stop-color="#fff"/><stop offset="1" stop-color="#fff" stop-opacity="0"/></linearGradient><linearGradient id="e"><stop stop-color="#426467"/><stop offset="1" stop-color="#525b58"/></linearGradient><linearGradient xlink:href="#a" id="h" x2="0" y1="527.798" y2="504.798" gradientTransform="translate(-384.571 -499.798)" gradientUnits="userSpaceOnUse"/><linearGradient xlink:href="#c" id="g" x1="14" x2="14" y1="21" y2="4" gradientTransform="translate(-2)" gradientUnits="userSpaceOnUse"/><linearGradient id="i" x1="8" x2="22" y1="4" y2="18" gradientUnits="userSpaceOnUse"><stop stop-color="#292c2f"/><stop offset="1" stop-opacity="0"/></linearGradient><linearGradient xlink:href="#e" id="f" x2="0" y1="543.798" y2="503.798" gradientTransform="matrix(1.125 0 0 1 -435.643 -499.798)" gradientUnits="userSpaceOnUse"/></defs><path d="M6 4v40h29.355A6.63 6.63 0 0 0 42 37.355v-26.71A6.63 6.63 0 0 0 35.355 4h-22.71z" style="fill:url(#f)"/><path d="M6 43v1h29.355c.92 0 1.797-.184 2.592-.52.269-.113.464-.334.713-.48z" style="opacity:.15"/><path d="M6 4h2v40H6Z" style="opacity:.6;fill:#080809"/><path d="M38.66 43c.489-.287 1.001-.544 1.399-.941.016-.017.022-.042.039-.059H8v1z" style="fill:#8b8f8f"/><path d="M40.098 42c.281-.287.448-.665.673-1H8v1z" style="fill:#212323;fill-opacity:.45199998"/><path d="M8 4v17l4-2.309L16 21V4Z" style="fill:url(#g)"/><path d="M9 4h6v15l-3-2-3 2z" style="opacity:.15;fill:url(#h)"/><path d="M31 44h4.355A6.63 6.63 0 0 0 42 37.355V30L16 4v17l-4-2.309L8 21Z" style="opacity:.2;fill:url(#i);fill-rule:evenodd"/></svg>