<svg xmlns="http://www.w3.org/2000/svg" xmlns:xlink="http://www.w3.org/1999/xlink" width="48" height="48"><defs><linearGradient xlink:href="#a" id="o" x2="0" y1="504.798" y2="499.798" gradientTransform="translate(-321.253 -416.598)scale(.84615)" gradientUnits="userSpaceOnUse"/><linearGradient id="a"><stop stop-color="#1d1e1e"/><stop offset="1" stop-color="#44484c"/></linearGradient><linearGradient id="b"><stop stop-color="#2e5d89"/><stop offset="1" stop-color="#1b92f4"/></linearGradient><linearGradient id="m"><stop stop-color="#c6cdd1"/><stop offset="1" stop-color="#e0e5e7"/></linearGradient><linearGradient xlink:href="#c" id="p" x2="0" y1="530.798" y2="528.798" gradientTransform="matrix(1.4866 0 0 1.47853 -564.407 -767.845)" gradientUnits="userSpaceOnUse"/><linearGradient id="c"><stop stop-color="#f33777"/><stop offset="1" stop-color="#fd2d65"/></linearGradient><linearGradient xlink:href="#d" id="r" x2="0" y1="519.798" y2="541.011" gradientTransform="rotate(-45 -318.54 628.032)scale(.84615)" gradientUnits="userSpaceOnUse"/><linearGradient id="d"><stop/><stop offset="1" stop-opacity="0"/></linearGradient><linearGradient xlink:href="#e" id="t" x1="421.571" x2="398.571" y1="530.798" y2="507.798" gradientTransform="translate(-327.637 -414.575)scale(.84615)" gradientUnits="userSpaceOnUse"/><linearGradient id="e"><stop stop-color="#a1adb3"/><stop offset="1" stop-color="#bfc7cb"/></linearGradient><linearGradient xlink:href="#k" id="u" x1="398.572" x2="418.571" y1="508.798" y2="528.798" gradientTransform="rotate(180 181.895 232.542)scale(.84615)" gradientUnits="userSpaceOnUse"/><linearGradient id="k"><stop stop-color="#2f3943"/><stop offset="1" stop-color="#4d5662"/></linearGradient><linearGradient xlink:href="#l" id="v" x1="398.305" x2="419.771" y1="509.531" y2="530.998" gradientTransform="translate(-253.556 -320.326)scale(.66484)" gradientUnits="userSpaceOnUse"/><linearGradient id="l"><stop stop-color="#18222a"/><stop offset="1" stop-color="#566069"/></linearGradient><linearGradient xlink:href="#b" id="w" x1="402.405" x2="415.571" y1="514.632" y2="527.798" gradientTransform="translate(-327.637 -414.575)scale(.84615)" gradientUnits="userSpaceOnUse"/><linearGradient xlink:href="#b" id="x" x1="397.478" x2="415.571" y1="509.704" y2="527.798" gradientTransform="translate(-258.494 -326.609)scale(.67692)" gradientUnits="userSpaceOnUse"/><linearGradient xlink:href="#b" id="y" x1="386.061" x2="415.571" y1="498.288" y2="527.798" gradientTransform="translate(-189.351 -238.643)scale(.5077)" gradientUnits="userSpaceOnUse"/><linearGradient xlink:href="#k" id="z" x2="0" y1="41" y2="23" gradientTransform="matrix(.9907 0 0 .83333 -11.46 -1.167)" gradientUnits="userSpaceOnUse"/><linearGradient xlink:href="#a" id="B" x2="0" y1="541.798" y2="543.798" gradientTransform="matrix(1.375 0 0 .84617 -537.786 -448.453)" gradientUnits="userSpaceOnUse"/><linearGradient xlink:href="#a" id="C" x2="0" y1="541.798" y2="543.798" gradientTransform="matrix(1.375 0 0 .84617 -537.786 -419.684)" gradientUnits="userSpaceOnUse"/><linearGradient xlink:href="#m" id="n" x1="62" x2="62" y1="40.462" y2="10" gradientTransform="translate(-60)" gradientUnits="userSpaceOnUse"/></defs><rect width="44" height="30.462" x="2" y="10" rx="4" ry="4" style="fill:url(#n);paint-order:stroke fill markers"/><path d="M38 8h5.077v2.538H38Z" style="fill:url(#o)"/><path d="M38.513 14a1.487 1.479 0 0 0-1.486 1.479 1.487 1.479 0 0 0 1.486 1.478A1.487 1.479 0 0 0 40 15.48 1.487 1.479 0 0 0 38.513 14" style="fill:url(#p)"/><path d="M27.65 15.68 8.504 34.828l.58.58h27.61v-8.994z" style="opacity:.2;fill:url(#r)"/><circle cx="18.077" cy="25.254" r="13.538" style="fill:url(#t)"/><path d="M6.23 25.254a11.846 11.846 0 0 1 11.847-11.846 11.846 11.846 0 0 1 11.846 11.846A11.846 11.846 0 0 1 18.077 37.1 11.846 11.846 0 0 1 6.23 25.254" style="fill:url(#u)"/><circle cx="18.077" cy="25.254" r="9.308" style="fill:url(#v)"/><circle cx="18.077" cy="25.254" r="8.462" style="fill:url(#w)"/><circle cx="18.077" cy="25.254" r="6.769" style="fill:url(#x)"/><circle cx="18.077" cy="25.254" r="5.077" style="fill:url(#y)"/><circle cx="18.077" cy="25.254" r="3.385" style="fill:#2c3e50"/><circle cx="15.538" cy="22.715" r=".846" style="fill:#84cbfe"/><circle cx="13.846" cy="21.023" r="1.269" style="fill:#84cbfe"/><path d="M43.028 18c-1.098 0-1.981.743-1.981 1.667v11.666c0 .924.883 1.667 1.98 1.667H46V18h-1.981z" style="fill:url(#z)"/><path d="M6 10c-.554 0-1.082.11-1.56.313a4 4 0 0 0-1.27.857c-.148.148-.228.351-.352.521h42.364c-.124-.17-.204-.373-.352-.521a4 4 0 0 0-1.27-.857A4 4 0 0 0 42 10Z" style="fill:url(#B)"/><path d="M2.816 38.77c.124.17.205.374.354.523A3.98 3.98 0 0 0 6 40.461h36a3.98 3.98 0 0 0 2.83-1.168c.149-.149.23-.353.354-.523z" style="fill:url(#C)"/></svg>