<svg xmlns="http://www.w3.org/2000/svg" xmlns:xlink="http://www.w3.org/1999/xlink" width="48" height="48"><defs><linearGradient xlink:href="#d" id="k" x1="394.498" x2="437.585" y1="375.786" y2="418.873" gradientTransform="translate(-242.983 -231.955)scale(.64253)" gradientUnits="userSpaceOnUse"/><linearGradient id="d"><stop offset="0" style="stop-color:#d888a9;stop-opacity:1"/><stop offset=".379" style="stop-color:#c2709c;stop-opacity:1"/><stop offset=".468" style="stop-color:#c16f9c;stop-opacity:1"/><stop offset=".537" style="stop-color:#c3729c;stop-opacity:1"/><stop offset="1" style="stop-color:#fbb9a0;stop-opacity:1"/></linearGradient><linearGradient xlink:href="#e" id="l" x1="443.308" x2="410.059" y1="369.799" y2="403.047" gradientTransform="translate(-242.983 -231.955)scale(.64253)" gradientUnits="userSpaceOnUse"/><linearGradient id="e"><stop offset="0" style="stop-color:#ebcfe2;stop-opacity:1"/><stop offset=".57" style="stop-color:#ebcfe2;stop-opacity:.09411765"/><stop offset=".655" style="stop-color:#ebcfe2;stop-opacity:.04705882"/><stop offset=".726" style="stop-color:#ebcfe2;stop-opacity:.01"/><stop offset=".859" style="stop-color:#ebcfe2;stop-opacity:0"/><stop offset="1" style="stop-color:#ebcfe2;stop-opacity:0"/></linearGradient><linearGradient xlink:href="#f" id="m" x1="415.046" x2="415.046" y1="434.05" y2="407.415" gradientTransform="translate(-242.983 -231.955)scale(.64253)" gradientUnits="userSpaceOnUse"/><linearGradient id="f"><stop offset="0" style="stop-color:#fab7a1;stop-opacity:1"/><stop offset=".726" style="stop-color:#fab7a1;stop-opacity:.16470588"/><stop offset=".787" style="stop-color:#fab7a1;stop-opacity:.12156863"/><stop offset=".846" style="stop-color:#fab7a1;stop-opacity:.08627451"/><stop offset=".917" style="stop-color:#fab7a1;stop-opacity:.05882353"/><stop offset="1" style="stop-color:#fab7a1;stop-opacity:0"/></linearGradient><linearGradient id="g"><stop offset="0" style="stop-color:#000;stop-opacity:1"/><stop offset=".568" style="stop-color:#000;stop-opacity:.90980392"/><stop offset=".674" style="stop-color:#000;stop-opacity:.77647059"/><stop offset=".77" style="stop-color:#000;stop-opacity:.63137255"/><stop offset=".81" style="stop-color:#000;stop-opacity:.55294118"/><stop offset=".899" style="stop-color:#000;stop-opacity:.30980392"/><stop offset=".986" style="stop-color:#000;stop-opacity:.01568627"/><stop offset="1" style="stop-color:#000;stop-opacity:0"/></linearGradient><linearGradient xlink:href="#h" id="p" x1="316.249" x2="316.249" y1="376.943" y2="368.16" gradientTransform="translate(-187.622 -225.368)scale(.64253)" gradientUnits="userSpaceOnUse"/><linearGradient id="h"><stop offset="0" style="stop-color:#fff1fb;stop-opacity:1"/><stop offset="1" style="stop-color:#fff;stop-opacity:1"/></linearGradient><linearGradient xlink:href="#i" id="q" x1="398.192" x2="398.192" y1="410.83" y2="395.045" gradientTransform="matrix(.48827 0 0 .48827 -164.694 -167.341)" gradientUnits="userSpaceOnUse"/><linearGradient id="i"><stop offset="0" style="stop-color:#fdebe7;stop-opacity:1"/><stop offset="1" style="stop-color:#f6fcfc;stop-opacity:1"/></linearGradient><linearGradient xlink:href="#j" id="r" x1="368.013" x2="383.883" y1="401.778" y2="401.778" gradientTransform="matrix(.48827 0 0 .48827 -164.694 -167.341)" gradientUnits="userSpaceOnUse"/><linearGradient id="j"><stop offset="0" style="stop-color:#fbe5ec;stop-opacity:1"/><stop offset="1" style="stop-color:#fbe5ec;stop-opacity:.00484436"/></linearGradient><radialGradient xlink:href="#e" id="n" cx="444.192" cy="368.845" r="33.348" fx="444.192" fy="368.845" gradientTransform="matrix(.64253 0 0 .62972 -242.983 -226.852)" gradientUnits="userSpaceOnUse"/><radialGradient xlink:href="#g" id="o" cx="595.25" cy="180.836" r="10.553" fx="595.25" fy="180.836" gradientTransform="translate(-258.904 -68.876)scale(.46131)" gradientUnits="userSpaceOnUse"/></defs><rect width="42.854" height="42" x="2.7" y="3" rx="21.427" ry="21" style="fill:url(#k);fill-opacity:1;stroke:none;stroke-width:.835291;stroke-linecap:square"/><rect width="42.854" height="42" x="2.7" y="3" rx="21.427" ry="21" style="fill:url(#l);fill-opacity:1;stroke:none;stroke-width:.835291;stroke-linecap:square"/><rect width="42.854" height="42" x="2.7" y="3" rx="21.427" ry="21" style="fill:url(#m);fill-opacity:1;stroke:none;stroke-width:.835291;stroke-linecap:square"/><rect width="42.854" height="42" x="2.7" y="3" rx="21.427" ry="21" style="fill:url(#n);fill-opacity:1;stroke:none;stroke-width:.835291;stroke-linecap:square"/><circle cx="15.692" cy="14.546" r="4.868" style="opacity:.439478;fill:url(#o);fill-opacity:1;stroke:none;stroke-width:.738346;stroke-linecap:square"/><circle cx="15.44" cy="14.025" r="4.27" style="fill:url(#p);fill-opacity:1;stroke:none;stroke-width:.864505;stroke-linecap:square;stroke-opacity:1"/><path d="M28.992 22.018c-.728 0-1.455.28-2.013.837l-6.893 6.302c-.34.34-1.009.423-1.267.18l-1.39-1.304a2.28 2.28 0 0 0-1.562-.608c-.564 0-1.128.202-1.561.608l-2.797 2.626c-.235.22-.4.477-.506.75a.7.7 0 0 0-.128.406v.13q-.012.15 0 .299v1.579c0 1.013.815 1.829 1.829 1.829h9.652c.184 0 .357-.035.524-.085.197.05.4.085.612.085H34.91a2.453 2.453 0 0 0 2.458-2.46v-2.467q.036-.343-.01-.687a2.44 2.44 0 0 0-.802-1.632l-.008-.007-5.544-5.544a2.84 2.84 0 0 0-2.014-.837z" style="fill:url(#q);fill-opacity:1;stroke:none;stroke-width:.655235;stroke-linecap:square;stroke-opacity:1"/><path d="M28.992 22.018c-.728 0-1.455.28-2.013.837l-6.893 6.302c-.34.34-1.009.423-1.267.18l-1.39-1.304a2.28 2.28 0 0 0-1.562-.608c-.564 0-1.128.202-1.561.608l-2.797 2.626c-.235.22-.4.477-.506.75a.7.7 0 0 0-.128.406v.13q-.012.15 0 .299v1.579c0 1.013.815 1.829 1.829 1.829h9.652c.184 0 .357-.035.524-.085.197.05.4.085.612.085H34.91a2.453 2.453 0 0 0 2.458-2.46v-2.467q.036-.343-.01-.687a2.44 2.44 0 0 0-.802-1.632l-.008-.007-5.544-5.544a2.84 2.84 0 0 0-2.014-.837z" style="fill:url(#r);fill-opacity:1;stroke:none;stroke-width:.655235;stroke-linecap:square;stroke-opacity:1"/></svg>