<svg xmlns="http://www.w3.org/2000/svg" width="48" height="48" version="1"><circle cx="24" cy="24.896" r="20.632" style="opacity:.2;stroke-width:.736842"/><path d="M24 24.16V44.79a20.645 20.632 0 0 0 17.742-10.128 20.645 20.632 0 0 0 .115-.2Z" style="fill:#3591ac;stroke-width:.736842"/><path d="M24 24.16V44.79A20.645 20.632 0 0 1 6.258 34.663a20.645 20.632 0 0 1-.115-.2Z" style="fill:#2cba66;stroke-width:.736842"/><path d="M24 24.16V3.528a20.645 20.632 0 0 1 17.742 10.128 20.645 20.632 0 0 1 .115.2z" style="fill:#ff482e;stroke-width:.736842"/><path d="M24 24.16V3.528A20.645 20.632 0 0 0 6.258 13.656a20.645 20.632 0 0 0-.115.2Z" style="fill:#ff8201;stroke-width:.736842"/><path d="M24 24.16 6.12 34.475a20.645 20.632 0 0 1-.093-20.419 20.645 20.632 0 0 1 .115-.199z" style="fill:#ffc825;stroke-width:.736842"/><path d="m24 24.16 17.88-10.316a20.645 20.632 0 0 1 .093 20.419 20.645 20.632 0 0 1-.115.199z" style="fill:#9e56d6;stroke-width:.736842"/><circle cx="24" cy="24.896" r="16.211" style="opacity:.2;stroke-width:.736842"/><circle cx="24" cy="24.16" r="16.211" style="fill:#fff;stroke-width:.736842"/><path d="m32.35 24.896-6.385 4.421-6.386 4.422V16.054l6.386 4.421z" style="opacity:.1;stroke-width:1.86477"/><path d="m32.35 24.16-6.385 4.42-6.386 4.422V15.317l6.386 4.422z" style="fill:#33c0e8;stroke-width:1.86477"/><path d="M24 3.528A20.63 20.63 0 0 0 3.368 24.16l.013.362A20.63 20.63 0 0 1 24 4.265a20.63 20.63 0 0 1 20.613 20.257l.019-.362A20.63 20.63 0 0 0 24 3.528" style="opacity:.2;fill:#fff;stroke-width:.736842"/></svg>