<svg xmlns="http://www.w3.org/2000/svg" width="48" height="48"><path d="M24.125 3.737A20.583 20.583 0 0 0 3.5 24.368 20.583 20.583 0 0 0 24.125 45 20.583 20.583 0 0 0 44.75 24.368 20.583 20.583 0 0 0 24.125 3.737m0 11.79a8.84 8.842 0 0 1 8.84 8.841 8.84 8.842 0 0 1-8.84 8.843 8.84 8.842 0 0 1-8.84-8.843 8.84 8.842 0 0 1 8.84-8.842" style="opacity:.2;stroke-width:1.03491"/><path d="M24.125 12.579a11.05 11.053 0 0 0-11.05 11.053 11.05 11.053 0 0 0 11.05 11.052 11.05 11.053 0 0 0 11.05-11.052 11.05 11.053 0 0 0-11.05-11.053m0 6.632a4.42 4.42 0 0 1 4.42 4.42 4.42 4.42 0 1 1-4.42-4.42" style="fill:#676767;fill-opacity:1;stroke-width:1.03491"/><path d="M24.125 3A20.583 20.583 0 0 0 3.5 23.632a20.583 20.583 0 0 0 20.625 20.631A20.583 20.583 0 0 0 44.75 23.632 20.583 20.583 0 0 0 24.125 3m0 11.79a8.84 8.842 0 0 1 8.84 8.842 8.84 8.842 0 0 1-8.84 8.842 8.84 8.842 0 0 1-8.84-8.842 8.84 8.842 0 0 1 8.84-8.843" style="fill:#ccc;stroke-width:1.03491;fill-opacity:1"/><path d="M24.125 3A20.583 20.583 0 0 0 3.5 23.632c0 .083.008.165.013.247.259-11.201 9.35-20.142 20.612-20.142s20.353 8.94 20.613 20.14c.004-.082.012-.163.012-.245A20.583 20.583 0 0 0 24.125 3m-8.802 21.366a8.84 8.842 0 0 0-.037.74 8.84 8.842 0 0 0 .018.368 8.84 8.842 0 0 1 .02-.372 8.84 8.842 0 0 0 8.801 8.109 8.84 8.842 0 0 0 8.802-8.103 8.84 8.842 0 0 1 .021.436 8.84 8.842 0 0 0 .016-.439 8.84 8.842 0 0 0-.037-.734 8.84 8.842 0 0 1-8.802 8.103 8.84 8.842 0 0 1-8.802-8.108" style="opacity:.2;fill:#fff;stroke-width:1.03491"/><g transform="matrix(.91096 0 0 .90572 -2.467 -3.597)"><path d="M55.371 45.59a10.703 10.706 0 0 1-10.675 10.138 10.703 10.706 0 0 1-10.675-9.935 10.703 10.706 0 0 0-.028.567 10.703 10.706 0 0 0 10.703 10.707A10.703 10.706 0 0 0 55.4 46.36a10.703 10.706 0 0 0-.029-.77z" style="opacity:.2;stroke-width:1.37987"/><ellipse cx="44.696" cy="45.691" rx="10.703" ry="10.706" style="fill:#ba22ff;stroke-width:1.37987"/><path d="M39.345 46.138a5.35 5.35 0 0 0 10.698.089 1 1 0 0 0 .005-.089.89.89 0 0 0-.892-.892.89.89 0 0 0-.892.892 3.568 3.568 0 1 1-3.568-3.569v1.785l3.568-2.677L44.697 39v1.784a5.35 5.35 0 0 0-5.352 5.353z" style="fill:#fff;stroke-width:1.37987"/></g><circle cx="24.125" cy="23.632" r="5.25" style="fill:#ba22ff;stroke-width:.676763"/></svg>