<svg xmlns="http://www.w3.org/2000/svg" width="48" height="48"><circle cx="24" cy="24" r="21" fill="#3d4144" style="paint-order:stroke fill markers"/><path fill="#24a9f7" d="M18.556 3.726a21 21 0 0 0-6.223 2.833v15.105l3.113-3.113 3.11 3.11z"/><path fill-rule="evenodd" d="M10.778 7.699A21 21 0 0 0 3 24a21 21 0 0 0 7.778 16.295Z" opacity=".2" style="paint-order:fill markers stroke"/><path fill="#d52337" d="M37.007 17.782v.01c-.12 0-.241-.001-.354.02-2.075.239-4.23 4.33-4.384 8.394-2.738 1.734-5.65 3.34-8.562 4.583-1.408-.477-4.734-1.71-6.895-1.227-1.347.293-2.31 1.846-2.097 2.918-.015-.038-.04-.07-.044-.113a.9.9 0 0 0 .096.33c.005.013.005.03.01.042l-.004-.031c.334.682 1.418 1.434 1.708 1.434 1.579.295 4.821-.676 6.807-1.413 3.394 1.529 7.496 3.567 10.48 5.23.455 1.212 1.15 2.425 1.933 3.46a21 21 0 0 0 1.349-.966 24 24 0 0 1-.233-.618l.041-.042c.205.123.324.194.558.34a21 21 0 0 0 1.589-1.469 15.2 15.2 0 0 0-2.835-2.274c.035.13.045.27.044.413-.65-2.815-1.127-6.403-1.434-9.423 4.68-3.358 7.103-7.708 3.39-9.306-.421-.291-.806-.27-1.163-.291Zm.252.245q.429.02.943.232c2.553 1.06.295 3.703-3.644 6.446.047-3.928.706-6.784 2.701-6.678m-4.784 10.5c.36 2.62.476 3.652.918 7.15-2.216-1.289-4.758-2.76-7.087-3.837 2.246-.922 4.146-2.012 6.17-3.313m-15.607 2.434c.43.013.879.068 1.304.135l.284.024c.93.132 1.572.252 2.002.368v.016c.266.108.573.243.861.365-1.615.987-5.9 1.591-6.56.716-.188-1.355.87-1.664 2.11-1.624" style="paint-order:stroke fill markers"/></svg>