<svg xmlns="http://www.w3.org/2000/svg" xmlns:xlink="http://www.w3.org/1999/xlink" width="64" height="64" image-rendering="optimizeSpeed"><defs><linearGradient id="a"><stop offset="0" style="stop-color:#ff61ff;stop-opacity:1"/><stop offset="1" style="stop-color:#ffd42a;stop-opacity:1"/></linearGradient><linearGradient xlink:href="#a" id="b" x1="7.613" x2="59" y1="55.043" y2="5" gradientUnits="userSpaceOnUse"/></defs><circle cx="32" cy="32" r="27" fill-rule="evenodd" style="paint-order:fill markers stroke;fill:url(#b);fill-opacity:1"/><path d="M26.753 18a13.94 13.94 0 0 0-6.846 10.086c.423-.2.859-.379 1.306-.522 1.928-.62 4.08-.805 6.33-.814 3.116-.011 6.444.394 9.567.991-2.431-5.247-5.943-9.761-10.357-9.74m7.42 1.955c1.826 1.958 3.312 4.43 4.526 7.051l.557 1.204c1.686.384 3.302.798 4.71 1.24a12.25 12.25 0 0 0-9.792-9.495M27.55 28.5c-4.302.017-7.988.766-9.55 3.5 0 7.732 6.268 14 14 14 7.731 0 14-6.268 14-14-4.097-1.602-11.97-3.526-18.45-3.5" style="fill:#fff;fill-opacity:1"/></svg>