<svg xmlns="http://www.w3.org/2000/svg" xmlns:xlink="http://www.w3.org/1999/xlink" width="48" height="48"><defs><linearGradient id="c" x2="0" y1="543.8" y2="503.8" gradientTransform="matrix(1.125 0 0 1 -435.64 -499.8)" gradientUnits="userSpaceOnUse"><stop stop-color="#f27935"/><stop offset="1" stop-color="#f2784b"/></linearGradient><linearGradient id="a" x1="24.13" x2="38" y1="27.13" y2="41" gradientTransform="translate(-38 -1)" gradientUnits="userSpaceOnUse"><stop stop-color="#292c2f"/><stop offset="1" stop-opacity="0"/></linearGradient><linearGradient xlink:href="#a" id="d" x1="24.13" x2="38" y1="27.13" y2="41" gradientTransform="translate(2 -1)" gradientUnits="userSpaceOnUse"/></defs><path d="M6 4v40h29.355A6.63 6.63 0 0 0 42 37.355v-26.71A6.63 6.63 0 0 0 35.355 4Z" style="fill:url(#c)"/><path d="M6 43v1h29.355c.92 0 1.797-.184 2.592-.52.269-.113.464-.334.713-.48z" style="fill:#66351b"/><path d="M6 4h2v40H6z" style="fill:#66351b"/><path d="M38.66 43c.489-.287 1.001-.544 1.399-.941.016-.017.022-.042.039-.059H8v1z" style="fill:#8b8f8f"/><path d="M40.098 42c.281-.287.448-.665.673-1H8v1z" style="fill:#212323;fill-opacity:.45199998"/><path d="m14 18.998 6 6-6 2 14 14h12.773c.237-.352.54-.655.707-1.05.336-.796.52-1.672.52-2.593v-2.357L27.01 19.99Zm2.828 13.174-5.654 5.654 3.207 3.172h11.277z" style="opacity:.2;fill:url(#d);stroke-width:6;stroke-linejoin:round"/><path d="M14 15v4c8.837 0 16 7.163 16 16h4c0-11.05-8.954-20-20-20m0 8v4a8 8 0 0 1 8 8h4c0-6.627-5.373-12-12-12m0 8a4 4 0 1 0 0 8 4 4 0 0 0 0-8" style="fill:#fff;stroke-width:6;stroke-linejoin:round"/></svg>