<svg xmlns="http://www.w3.org/2000/svg" xmlns:xlink="http://www.w3.org/1999/xlink" width="48" height="48"><defs><linearGradient id="d"><stop offset="0" style="stop-color:#5fbcd3;stop-opacity:1"/><stop offset="1" style="stop-color:#c6afe9;stop-opacity:1"/></linearGradient><linearGradient id="c"><stop offset="0" style="stop-color:#e3d7f4;stop-opacity:1"/><stop offset="1" style="stop-color:#aa87de;stop-opacity:1"/></linearGradient><linearGradient id="b"><stop offset="0" style="stop-color:#0cf;stop-opacity:1"/><stop offset="1" style="stop-color:#aef;stop-opacity:1"/></linearGradient><linearGradient id="a"><stop offset="0" style="stop-color:#f95;stop-opacity:1"/><stop offset="1" style="stop-color:#fca;stop-opacity:1"/></linearGradient><linearGradient xlink:href="#a" id="g" x1="8.467" x2="8.467" y1="13.253" y2="3.872" gradientUnits="userSpaceOnUse"/><linearGradient xlink:href="#b" id="f" x1="8.467" x2="8.467" y1="13.253" y2="9.222" gradientUnits="userSpaceOnUse"/><linearGradient xlink:href="#c" id="h" x1="8.467" x2="8.467" y1="7.48" y2="11.088" gradientUnits="userSpaceOnUse"/><linearGradient xlink:href="#d" id="e" x1="-4.907" x2="-44.58" y1="3.004" y2="44.582" gradientUnits="userSpaceOnUse"/></defs><rect width="41.58" height="41.577" x="-44.581" y="3.004" rx="20.79" ry="20.789" style="fill:url(#e);fill-opacity:1" transform="scale(-1 1)"/><path d="M3.012 23.273c-.003.173-.012.346-.012.52a20.744 20.744 0 0 0 20.79 20.789 20.744 20.744 0 0 0 20.79-20.79c0-.173-.008-.345-.013-.519A20.74 20.74 0 0 1 23.79 43.542 20.74 20.74 0 0 1 3.012 23.273" style="display:inline;opacity:.3;fill:#595959;fill-opacity:1;stroke-width:2.9105;stroke-opacity:.55"/><path d="M3.012 24.309c-.003-.174-.012-.345-.012-.52A20.744 20.744 0 0 1 23.79 3a20.744 20.744 0 0 1 20.79 20.789c0 .174-.008.346-.013.52A20.74 20.74 0 0 0 23.79 4.039 20.74 20.74 0 0 0 3.012 24.31" style="display:inline;opacity:.3;fill:#fff;fill-opacity:1;stroke-width:2.9105;stroke-opacity:.55"/><g fill-rule="evenodd" stroke-width=".361" clip-rule="evenodd"><path d="m7.72 9.222-.336.784 1.083 3.247 1.082-3.247-.336-.784z" style="fill:url(#f);paint-order:normal;fill-opacity:1" transform="matrix(3.27563 0 0 3.19816 -3.733 -3.385)"/><path d="M7.745 3.873 4.498 12.17H5.94l2.526-6.134 2.525 6.134h1.443L9.188 3.873Z" style="fill-opacity:1;fill:url(#g)" transform="matrix(3.27563 0 0 3.19816 -3.733 -3.385)"/><path d="M8.467 7.48 7.72 9.222l.747 1.866.746-1.866Z" style="fill:url(#h);fill-opacity:1" transform="matrix(3.27563 0 0 3.19816 -3.733 -3.385)"/></g></svg>