<svg xmlns="http://www.w3.org/2000/svg" xmlns:xlink="http://www.w3.org/1999/xlink" width="48" height="48"><defs><linearGradient id="c"><stop offset="0" style="stop-color:#000;stop-opacity:1"/><stop offset="1" style="stop-color:#000;stop-opacity:0"/></linearGradient><linearGradient id="b"><stop offset="0" style="stop-color:#272b2d;stop-opacity:1"/><stop offset="1" style="stop-color:#33393e;stop-opacity:1"/></linearGradient><linearGradient id="a"><stop offset="0" style="stop-color:#279646;stop-opacity:1"/><stop offset="1" style="stop-color:#76ff68;stop-opacity:1"/></linearGradient><linearGradient xlink:href="#a" id="d" x1="24.705" x2="25.061" y1="43.939" y2="4.405" gradientUnits="userSpaceOnUse"/><linearGradient xlink:href="#b" id="f" x1="31" x2="31" y1="34" y2="24" gradientUnits="userSpaceOnUse"/><linearGradient xlink:href="#b" id="h" x1="18" x2="18" y1="34" y2="24" gradientUnits="userSpaceOnUse"/><linearGradient xlink:href="#c" id="g" x1="13" x2="30" y1="24" y2="41" gradientUnits="userSpaceOnUse"/><linearGradient xlink:href="#c" id="e" x1="29" x2="36" y1="26" y2="33" gradientUnits="userSpaceOnUse"/></defs><path d="M28.157 27.087c1.954-1.926 4.68-2.627 7.195-2.102a7.68 7.68 0 0 1-2.132 7.094c-1.954 1.927-4.68 2.628-7.195 2.103a7.68 7.68 0 0 1 2.132-7.095" style="fill:#000;fill-opacity:1"/><path d="M8 19.479C8 29.769 16.496 44 24 44c7.064 0 16-14.232 16-24.521S32.837 4 24 4 8 9.189 8 19.479" style="fill:url(#d);fill-opacity:1"/><path d="m35.816 24.186-9.638 9.638 5.576 5.576c2.9-3.227 5.454-7.757 6.924-12.353z" style="opacity:.2;fill:url(#e);fill-opacity:1;stroke:none;stroke-width:2;stroke-linecap:butt;stroke-linejoin:round;stroke-miterlimit:4;stroke-dasharray:none;stroke-opacity:1"/><path d="M28.382 26.382a8.13 8.13 0 0 1 7.441-2.205 8.13 8.13 0 0 1-2.205 7.441 8.13 8.13 0 0 1-7.441 2.205 8.13 8.13 0 0 1 2.205-7.441" style="fill:url(#f);fill-opacity:1"/><path d="M39.977 18.938C39.722 29.187 30.96 43 24 43 16.608 43 8.27 29.196 8.023 18.947c-.004.18-.023.349-.023.532C8 29.769 16.496 44 24 44c7.064 0 16-14.232 16-24.521 0-.187-.019-.359-.023-.541" style="opacity:.2;fill:#000;fill-opacity:1"/><path d="m19.3 26.18-5.189 5.187L26.283 43.54c1.964-.749 3.979-2.373 5.84-4.537z" style="opacity:.2;fill:url(#g);fill-opacity:1;stroke:none;stroke-width:2;stroke-linecap:butt;stroke-linejoin:round;stroke-miterlimit:4;stroke-dasharray:none;stroke-opacity:1"/><path d="M12.177 24.313c2.601-.542 5.42.182 7.441 2.175a7.94 7.94 0 0 1 2.205 7.338c-2.601.542-5.42-.182-7.441-2.175a7.94 7.94 0 0 1-2.205-7.338" style="fill:url(#h);fill-opacity:1"/></svg>