<svg xmlns="http://www.w3.org/2000/svg" width="48" height="48" viewBox="0 0 12.7 12.7"><defs><linearGradient id="a" x1="25" x2="25" y1="3" y2="42.605" gradientTransform="matrix(.26458 0 0 .26458 0 0)" gradientUnits="userSpaceOnUse"><stop offset="0" stop-color="#f39c1f"/><stop offset="1" stop-color="#f67400"/></linearGradient><linearGradient id="b" x1="4.841" x2="9.417" y1="5.997" y2="10.573" gradientUnits="userSpaceOnUse"><stop offset="0"/><stop offset="1" stop-color="#05221c" stop-opacity="0"/></linearGradient><linearGradient id="c" x1="19.17" x2="19.17" y1="43" y2="1.831" gradientTransform="translate(.003)" gradientUnits="userSpaceOnUse"><stop offset="0" stop-color="#16a085"/><stop offset="1" stop-color="#1cdc9a"/></linearGradient><linearGradient id="d" x1="19.17" x2="40.893" y1="43" y2="-13.595" gradientUnits="userSpaceOnUse"><stop offset="0" stop-color="#1abc9c"/><stop offset="1" stop-color="#eff0f1"/></linearGradient><radialGradient id="e" cx="19.473" cy="10.657" r=".981" gradientTransform="matrix(.72785 0 0 .72858 -9.276 -5.02)" gradientUnits="userSpaceOnUse"><stop offset="0" stop-color="#16a085"/><stop offset="1" stop-color="#16a085" stop-opacity="0"/></radialGradient></defs><g stroke-width=".265"><rect width="10.583" height="10.583" x="1.058" y="1.058" fill="#d35400" rx="1.587" ry="1.587" style="paint-order:stroke fill markers"/><rect width="10.583" height="10.319" x="1.058" y="1.058" fill="url(#a)" rx="1.587" ry="1.587" style="paint-order:stroke fill markers"/><path fill="#11806b" d="M4 37v1c0 3.324 2.676 6 6 6h4.672l1-1H10c-3.324 0-6-2.676-6-6" style="paint-order:fill markers stroke" transform="scale(.26458)"/><path fill="url(#b)" d="m5.867 2.524-3.44 7.252-1.063.949c.288.395.753.652 1.282.652h7.408c.88 0 1.588-.708 1.588-1.587V8.299z" opacity=".1" style="paint-order:fill markers stroke"/><path fill="#fff" d="M21.29 22.203a22.46 22.46 0 0 1 7.747 9.287l3.342-.894a22.46 22.46 0 0 0-11.09-8.393M21.117 13.482l-1.006 3.752a22.45 22.45 0 0 1 13.778 5.35 22.46 22.46 0 0 0-12.772-9.102" style="paint-order:fill markers stroke" transform="scale(.26458)"/><path fill="#eff0f1" d="m8.15 8.91-.207.12a5.94 5.94 0 0 0-2.31-3.155c1.421.544 2.3 2.448 2.517 3.035" style="paint-order:fill markers stroke"/><path fill="url(#c)" d="M18.322 8.541a1.645 1.645 0 0 0-1.69 1.219l-.312 1.166a1.64 1.64 0 0 0 .297 1.44l-.006.003c.297.39.42.904.285 1.416v.006l-.062.23-.018.065-1.123 4.191-.033.123-.26.97c-.901 2.029-1.985 2.838-3.898 2.63a4.5 4.5 0 0 0-4.332 5.717 4.09 4.09 0 0 1-.951 3.617l-2.217 2.217V37q.002.608.117 1.182.076.373.195.726.03.087.063.172.108.291.244.568.026.055.05.108.176.34.39.652l.011.016a6 6 0 0 0 .545.67q.231.248.488.47l.04.034q.29.242.609.447l.08.049q.276.171.572.312.063.032.13.063a5.95 5.95 0 0 0 2.466.531h5.672l.855-.855c4.29-4.29 14.982-6.379 22.73-9.52a2.735 2.735 0 0 0 1.938-3.357c-.086-.321-.196-.507-.334-.606l.076-.36-2.642.71h-.006L15.307 35.17l.336-1.252 1.017-3.797L20.05 17.48l1.61-6.008.517-1.932-1.932-.518-.02-.003-1.572-.422-.072-.02-.002.008a2 2 0 0 0-.256-.043" style="paint-order:fill markers stroke" transform="scale(.26458)"/><circle cx="3.043" cy="7.011" r=".926" fill="#fff" style="paint-order:fill markers stroke"/><circle cx="3.307" cy="6.747" r=".397" fill="#2c3e50" style="paint-order:fill markers stroke"/><path fill="url(#d)" d="M21.207 9.28 12.34 36.911h.002a.998.998 0 0 0 1.223 1.22v.005l27.63-8.87-.257-.964-25.633 6.867 6.869-25.63z" style="paint-order:fill markers stroke" transform="scale(.26458)"/><path fill="#fff" d="m4.05 9.305 4.588-4.588" opacity=".878" style="paint-order:fill markers stroke"/><path fill="#d35400" d="M5.867 2.524 4.709 8.646l6.122-1.158L4.05 9.305z" style="paint-order:fill markers stroke"/><path fill="#bdc3c7" d="m31.95 30.002-3.327.629c.143.284.285.569.416.86l3.34-.895q-.21-.3-.43-.594" style="paint-order:fill markers stroke" transform="scale(.26458)"/><path fill="#eff0f1" d="m20.345 16.363-.234.871a22.45 22.45 0 0 1 13.778 5.35C30.51 17.927 22.7 16.58 20.345 16.363" style="paint-order:fill markers stroke" transform="scale(.26458)"/><path fill="#bdc3c7" d="m21.117 13.482-1.006 3.752c.201.008.402.013.602.026l.7-3.697q-.149-.041-.296-.08" style="paint-order:fill markers stroke" transform="scale(.26458)"/><path fill="url(#e)" d="M4.782 2.386a.279.265 0 0 0-.28.264.279.265 0 0 0 .209.256.279.265 0 0 1-.04-.134.279.265 0 0 1 .28-.264.279.265 0 0 1 .071.01.279.265 0 0 0-.24-.132" style="paint-order:fill markers stroke"/></g></svg>