<svg xmlns="http://www.w3.org/2000/svg" xmlns:xlink="http://www.w3.org/1999/xlink" width="48" height="48"><defs><linearGradient id="a"><stop offset="0" style="stop-color:#4f5967;stop-opacity:1"/><stop offset="1" style="stop-color:#343a43;stop-opacity:1"/></linearGradient><linearGradient id="d" x1="31.458" x2="31.458" y1="36.898" y2="59.898" gradientTransform="translate(-2.883 -9.44)scale(.36079)" gradientUnits="userSpaceOnUse"><stop offset="0" stop-color="#ff5514"/><stop offset="1" stop-color="#ff9014"/></linearGradient><linearGradient xlink:href="#a" id="c" x1="-33.983" x2="-4.85" y1="41.932" y2="3.004" gradientUnits="userSpaceOnUse"/><linearGradient xlink:href="#b" id="e" x1="26.176" x2="42.176" y1="32.806" y2="32.806" gradientTransform="translate(-10.176 -8.806)" gradientUnits="userSpaceOnUse"/><linearGradient id="b"><stop offset="0" stop-color="#dda641"/><stop offset="1" stop-color="#ffdf5e"/></linearGradient></defs><rect width="41.58" height="41.577" x="-44.581" y="3.004" rx="20.79" ry="20.789" style="fill:url(#c);fill-opacity:1" transform="scale(-1 1)"/><path d="M3.012 23.273c-.003.173-.012.346-.012.52a20.744 20.744 0 0 0 20.79 20.789 20.744 20.744 0 0 0 20.79-20.79c0-.173-.008-.345-.013-.519A20.74 20.74 0 0 1 23.79 43.542 20.74 20.74 0 0 1 3.012 23.273" style="display:inline;opacity:.3;fill:#373e48;fill-opacity:1;stroke-width:2.9105;stroke-opacity:.55"/><path d="M3.012 24.309c-.003-.174-.012-.345-.012-.52A20.744 20.744 0 0 1 23.79 3a20.744 20.744 0 0 1 20.79 20.789c0 .174-.008.346-.013.52A20.74 20.74 0 0 0 23.79 4.039 20.74 20.74 0 0 0 3.012 24.31" style="display:inline;opacity:.3;fill:#fff;fill-opacity:1;stroke-width:2.9105;stroke-opacity:.55"/><path fill="#c4762f" d="M33 29.001c0 6-4 9-9 9s-9-3-9-9c0-7 4.828-19 9-19s9 12 9 19" style="stroke-width:.999987;paint-order:normal"/><path fill="url(#d)" d="M24 11c-3.531 0-8 11-8 18 0 5 3.172 8 8 8 1.614 0 3.037-.341 4.225-.975C29.795 33.641 31 30.941 31 28c.574 1.303.298 3.514-.309 5.799C31.534 32.528 32 30.911 32 29c0-7-4.469-18-8-18m-1.5 2s-.5 3.433-.5 5c0 2.028 1 5 1 6 0 1.484-1.5 4-1.5 4s.5-1.766.5-4c0-1-1-3.61-1-6 0-1.7 1.5-5 1.5-5m3.5 0s3 4.285 3 9c0 2-.358 3.593-1 5v-5c0-3.625-1-6-2-9m-7 6v3c0 2-.293 3.777-1 6v-4c0-1.7 1-5 1-5" style="fill:url(#e);stroke-width:.999987;paint-order:normal"/><path fill="#403b3c" d="M19.5 30c-.828 0-1.5.895-1.5 2 .544-1 1.085-1 1.5-1s.926 0 1.5 1c0-1.105-.672-2-1.5-2m8 0c-.828 0-1.5.895-1.5 2 .544-1 1.085-1 1.5-1s.926 0 1.5 1c0-1.105-.672-2-1.5-2m-5 3a.5.5 0 0 0-.5.5c0 .831.669 1.5 1.5 1.5s1.5-.669 1.5-1.5a.5.5 0 0 0-.5-.5.5.5 0 0 0-.5.5.5.5 0 1 1-1 0 .5.5 0 0 0-.5-.5" style="stroke-width:.999987;paint-order:normal"/></svg>