<svg xmlns="http://www.w3.org/2000/svg" xmlns:xlink="http://www.w3.org/1999/xlink" width="48" height="48"><defs><linearGradient id="d"><stop offset="0" style="stop-color:#0cf;stop-opacity:1"/><stop offset="1" style="stop-color:#95f;stop-opacity:.84482759"/></linearGradient><linearGradient id="c"><stop offset="0" style="stop-color:#252940;stop-opacity:1"/><stop offset="1" style="stop-color:#60f;stop-opacity:1"/></linearGradient><linearGradient id="b"><stop offset="0" style="stop-color:#00aad4;stop-opacity:1"/><stop offset="1" style="stop-color:#95f;stop-opacity:1"/></linearGradient><linearGradient id="a"><stop offset="0" style="stop-color:#fff;stop-opacity:1"/><stop offset="1" style="stop-color:#e4e4e4;stop-opacity:1"/></linearGradient><linearGradient xlink:href="#b" id="g" x1="24" x2="24" y1="283.067" y2="325.067" gradientUnits="userSpaceOnUse"/><linearGradient xlink:href="#c" id="e" x1="23.714" x2="24.286" y1="287.995" y2="366.745" gradientUnits="userSpaceOnUse"/><linearGradient xlink:href="#d" id="i" x1="18.587" x2="32.119" y1="291.076" y2="298.113" gradientUnits="userSpaceOnUse"/><linearGradient xlink:href="#d" id="h" x1="18.046" x2="24" y1="311.644" y2="311.644" gradientUnits="userSpaceOnUse"/></defs><g transform="translate(0 -280.067)"><circle cx="24" cy="304.067" r="21" style="fill:url(#e);fill-opacity:1"/><circle cx="24" cy="304.067" r="19.945" style="opacity:1;fill:none;fill-opacity:1;stroke:url(#g);stroke-width:2.10957;stroke-linecap:round;stroke-miterlimit:4;stroke-dasharray:none;stroke-dashoffset:0;stroke-opacity:1"/><path d="m13.175 290.768 8.66 14.072-3.788 15.154 5.954-4.329-.541-2.706 8.66-5.953 1.048-3.22 3.28.514-2.039-4.332H28.06L24 292.931z" style="opacity:.2;stroke-width:.773234"/><path d="M28.012 299.195h6.397l-2.29 7.037z" style="fill:#fff;stroke-width:.773234"/><path d="m34.41 299.195 2.04 4.33-3.345-.521z" style="fill:#3d99ff;fill-opacity:1;stroke-width:.773234"/><path d="m21.835 304.067 10.284 2.165-8.659 5.954z" style="fill:#fff;stroke-width:.773234"/><path d="M21.835 304.067 24 314.892l-5.954 4.33z" style="fill:url(#h);fill-opacity:1;stroke-width:.773234"/><path d="M13.175 289.994 24 292.159l8.119 14.073-10.284-2.165z" style="fill:url(#i);fill-opacity:1;stroke-width:.773234"/></g></svg>