<svg xmlns="http://www.w3.org/2000/svg" xmlns:xlink="http://www.w3.org/1999/xlink" width="48" height="48"><defs><linearGradient id="a"><stop offset="0" style="stop-color:#2d2d2d;stop-opacity:0"/><stop offset="1" style="stop-color:#333;stop-opacity:1"/></linearGradient><linearGradient xlink:href="#a" id="c" x1="-98.163" x2="-4.85" y1="152.836" y2="3.004" gradientUnits="userSpaceOnUse"/></defs><rect width="41.58" height="41.577" x="-44.581" y="3.004" rx="20.79" ry="20.789" style="fill:url(#c);fill-opacity:1" transform="scale(-1 1)"/><path d="M3.012 23.273c-.003.173-.012.346-.012.52a20.744 20.744 0 0 0 20.79 20.789 20.744 20.744 0 0 0 20.79-20.79c0-.173-.008-.345-.013-.519A20.74 20.74 0 0 1 23.79 43.542 20.74 20.74 0 0 1 3.012 23.273" style="display:inline;opacity:.3;fill:#373e48;fill-opacity:1;stroke-width:2.9105;stroke-opacity:.55"/><path d="M3.012 24.309c-.003-.174-.012-.345-.012-.52A20.744 20.744 0 0 1 23.79 3a20.744 20.744 0 0 1 20.79 20.789c0 .174-.008.346-.013.52A20.74 20.74 0 0 0 23.79 4.039 20.74 20.74 0 0 0 3.012 24.31" style="display:inline;opacity:.3;fill:#fff;fill-opacity:1;stroke-width:2.9105;stroke-opacity:.55"/><path d="M33.71 21.543c.436 0 .697.507.442.87L22.225 39.42a.54.54 0 0 1-.983-.32V22.09c0-.3.244-.548.54-.548z" style="fill:#5d0111;fill-opacity:.431296;fill-rule:evenodd;stroke-width:.759914"/><path d="M32.653 21.55c.4 0 .637.47.404.807L22.15 38.133a.494.494 0 0 1-.9-.297V22.059c0-.278.224-.509.496-.509z" style="fill:#ff0369;fill-opacity:1;fill-rule:evenodd;stroke-width:.699902"/><path d="M25.65 10.352a.476.48 0 0 0-.395.216L14.346 26.343c-.238.336 0 .807.4.807h10.908a.507.507 0 0 0 .496-.51V10.866a.5.5 0 0 0-.5-.514m-1.6 5.651v9.047h-6.256z" style="fill:#09017c;fill-opacity:.169565;fill-rule:evenodd;stroke-width:.699902"/><path d="M25.65 9.652a.476.48 0 0 0-.395.216L14.346 25.643c-.238.336 0 .807.4.807h10.908a.507.507 0 0 0 .496-.51V10.166a.5.5 0 0 0-.5-.514m-1.6 5.651v9.047h-6.256z" style="fill:#6602ef;fill-opacity:1;fill-rule:evenodd;stroke-width:.699902"/><path d="M24.05 21.55v2.8h-2.8v2.1h4.404a.507.507 0 0 0 .496-.51v-4.39z" style="fill:#51004d;fill-rule:evenodd;stroke-width:.699902"/></svg>