<svg xmlns="http://www.w3.org/2000/svg" xmlns:xlink="http://www.w3.org/1999/xlink" width="48" height="48"><defs><linearGradient id="a" x1="26.425" x2="44" y1="37.11" y2="24" gradientUnits="userSpaceOnUse"><stop stop-color="#2980b9"/><stop offset="1" stop-color="#1d99f3"/></linearGradient><linearGradient xlink:href="#a" id="g" x1="25.869" x2="24.539" y1="39.24" y2="10.624" gradientUnits="userSpaceOnUse"/><linearGradient id="d" x1="8.84" x2="37.922" y1="9.386" y2="39.34" gradientUnits="userSpaceOnUse"><stop stop-color="#faf8f8"/><stop offset="1" stop-color="#bfd2d2"/></linearGradient><linearGradient id="i" x1="27.04" x2="24.839" y1="16.621" y2="17.991" gradientUnits="userSpaceOnUse"><stop stop-color="#fcfcfc"/><stop offset="1" stop-color="#c7c7c7"/></linearGradient><linearGradient id="b" x1="31.537" x2="35.973" y1="27.6" y2="31" gradientUnits="userSpaceOnUse"><stop/><stop offset="1" stop-opacity="0"/></linearGradient><linearGradient xlink:href="#b" id="h" x1="26" x2="37" y1="19" y2="30" gradientTransform="translate(-10 5)" gradientUnits="userSpaceOnUse"/><linearGradient id="j" x1="3.783" x2="19.574" y1="23.644" y2="22.495" gradientUnits="userSpaceOnUse"><stop stop-color="#2980b9"/><stop offset="1" stop-color="#34495e"/></linearGradient><linearGradient xlink:href="#a" id="c" x1="26.425" x2="44" y1="37.11" y2="24" gradientUnits="userSpaceOnUse"/><linearGradient xlink:href="#b" id="f" x1="31.537" x2="35.973" y1="27.6" y2="31" gradientUnits="userSpaceOnUse"/></defs><g stroke-linejoin="round" stroke-width="3" color="#000" transform="matrix(1.05 0 0 1.05 -1.198 -1.2)"><path fill="url(#a)" d="M24 4C12.95 4 4 12.954 4 24c0 11.05 8.954 20 20 20 11.05 0 20-8.954 20-20 0-11.05-8.954-20-20-20" style="fill:url(#c)"/><circle cx="24.5" cy="23.5" r="18.5" fill="url(#d)" style="fill:url(#d)"/><path fill="url(#b)" d="M40.01 13.424 13.143 38.076A18.5 18.5 0 0 0 24.5 42 18.5 18.5 0 0 0 43 23.5a18.5 18.5 0 0 0-2.99-10.076" opacity=".2" style="fill:url(#f)"/></g><g fill-rule="evenodd"><path fill="url(#g)" d="M39.955 11.264a2.5 2.5 0 0 0-.59.01c-1.724.265-5.645 1.724-6.883 2.033-1.237.309-1.817.586-3.801.398-2.262-.214-3.278-.228-3.873-.211-.891-.079-1.34-.275-1.34-.275l.078.877c-.592.452-1.785 1.11-4.234 1.775-1.591.177-2.917-.309-3.713.133-.795.442-3.314 1.546-4.596 1.855s-2.231.889-3 1.141c-1.221.398 2.42 6.233 4 7 0 0-.547.568-1 1.043-1.099.751-1.965.801-1.965.801l.055.602c-1.276.678-2.54.995-2.961 1.055-.107.015-.524.287-1.129.715 2.615 8 10.13 13.785 19 13.785 1.802 0 3.539-.26 5.199-.707.167-1.087.393-2.627.533-4.084.434-.638 1.018-.646 1.018-.646s-.75-2.125-.676-4.684a9 9 0 0 1 .451-1.723h.756s-.095-1.044.332-2.105c1.405-2.136 3.322-3.563 4.141-4.191.772-.593 4.331-1.503 5.082-1.68s1.458-1.371 1.502-1.725-.221-1.016-.221-1.016l-1.988-.441-2.406-.271s3.303-4.894 3.898-5.461c.631-.601.938-1.34.938-2.047s-.52-1.658-.52-1.658-.597-.303-1.572-.266c-.163.006-.331-.016-.512-.031" style="fill:url(#g)" transform="matrix(1.05 0 0 1.05 -1.198 -1.2)"/><path fill="url(#h)" d="M12 26s-.547.568-1 1.043c-1.099.751-1.965.801-1.965.801l.055.602c-.788.419-1.546.686-2.129.854l-.848.202L5 30.22c2.588 7.941 9.919 13.705 18.84 13.777l3.164-8.996-8-8s-1.309.429-3.631.028-3.369-1.028-3.369-1.028" opacity=".2" style="fill:url(#h)" transform="matrix(1.05 0 0 1.05 -1.198 -1.2)"/><path fill="#2c3e50" d="M43.165 11.4s-.33-.295-.69-.329c-.36-.032-1.115.099-1.344.066-.23-.032-1.018-.492-1.018-.492s1.05-.591 1.411-.656c.362-.066.985-.164.985-.164s.263.329.46.787c.198.46.198.788.198.788"/><path fill="#fcfcfc" d="M41.838 21.091c-.708.095-.845.016-.845.016s.164-.742.341-.805.695.742.504.79"/><path fill="#2c3e50" d="M42.803 14.517s-2.33 1.117-3.445 2.855a30 30 0 0 0-1.903 3.512s.787.163 1.51.426c.722.262 2.034.329 2.592.23s.722-.361.164-.591-1.379-.394-1.411-.887c-.033-.492 1.017-3.347 1.312-3.806a99 99 0 0 1 1.181-1.739"/><path fill="#34495e" d="M22.362 20.194s2.886-.435 3.986-1.092c3.584-2.142 3.463-3.338 3.463-3.338s-3.792-1.517-6.414 1.61c-1.097 1.31-1.035 2.82-1.035 2.82"/><path fill="url(#i)" d="M23.467 19.14s2.74-.552 3.757-1.304c1.016-.751 1.436-1.149 1.304-1.414-.133-.265-1.127-.663-2.364-.354s-2.121 1.193-2.364 1.746-.486 1.149-.331 1.326" style="fill:url(#i)" transform="matrix(1.05 0 0 1.05 -1.198 -1.2)"/><path fill="#fcfcfc" d="M39.706 21.56c1.06.122 1.26.02 1.26.02s-.244-.956-.508-1.037c-.265-.08-1.037.956-.752 1.017"/><path fill="url(#j)" d="M12.298 24.795c1.01.774 3.56 1.23 4.811 1.048 2.951-.431 3.103-.21 2.391-2.093C18.986 22.391 16 21 14 23l-1-1c.593-.854-.5-2.844-1-3s-2.859.486-3.078.705 2.369 4.317 3.376 5.091" style="fill:url(#j)" transform="matrix(1.05 0 0 1.05 -1.198 -1.2)"/></g><path fill="#256592" d="M3.013 23.475C3.008 23.65 3 23.824 3 24c0 11.602 9.402 21 21 21 11.602 0 21-9.402 21-21 0-.176-.008-.35-.013-.525C44.708 34.83 35.422 43.95 24 43.95S3.292 34.83 3.013 23.475" color="#000"/></svg>