<svg xmlns="http://www.w3.org/2000/svg" xmlns:xlink="http://www.w3.org/1999/xlink" width="48" height="48" viewBox="0 0 12.7 12.7"><defs><linearGradient xlink:href="#a" id="c" x1="25" x2="25" y1="44" y2="4" gradientTransform="matrix(.27781 0 0 .27781 -.317 -.317)" gradientUnits="userSpaceOnUse"/><linearGradient id="a"><stop offset="0" style="stop-color:#d8610f;stop-opacity:1"/><stop offset="1" style="stop-color:#eab355;stop-opacity:1"/></linearGradient><linearGradient xlink:href="#b" id="d" x1="9.505" x2="9.505" y1="7.963" y2="70.505" gradientTransform="matrix(.36324 0 0 .36324 -.214 -.271)" gradientUnits="userSpaceOnUse"/><linearGradient id="b"><stop offset="0" style="stop-color:#fff;stop-opacity:1"/><stop offset="1" style="stop-color:#ee4f22;stop-opacity:.97647059"/></linearGradient></defs><rect width="11.113" height="11.113" x=".794" y=".794" rx="5.556" ry="5.556" style="fill:url(#c);fill-opacity:1;stroke:none;stroke-width:.277807"/><path d="M4.47 2.82a.863.863 0 0 0-.863.863V8.85a.862.862 0 1 0 1.726 0V4.831s-.07-.432.626-.432.626.432.626.432v4.005a.86.86 0 0 0 .862.864h1.307a.863.863 0 0 0 0-1.726h-.443V3.683a.863.863 0 0 0-.864-.862Z" style="color:#000;fill:#200000;fill-opacity:.0559602;stroke-width:.802491;stroke-linecap:round;stroke-linejoin:round;-inkscape-stroke:none"/><path d="M4.565 2.914a.863.863 0 0 0-.864.862v5.167a.862.862 0 1 0 1.726 0V4.924s-.07-.432.626-.432.626.432.626.432V8.93a.86.86 0 0 0 .862.864h1.307a.863.863 0 0 0 0-1.726h-.443V3.776a.863.863 0 0 0-.864-.862Z" style="color:#000;fill:#200000;fill-opacity:.0559602;stroke-width:.802491;stroke-linecap:round;stroke-linejoin:round;-inkscape-stroke:none"/><path d="M4.68 3.069a.863.863 0 0 0-.863.862v5.167a.862.862 0 1 0 1.726 0V5.079s-.07-.432.626-.432.626.432.626.432v4.005a.86.86 0 0 0 .862.863h1.307a.863.863 0 0 0 0-1.725h-.443V3.93a.863.863 0 0 0-.864-.862Z" style="color:#000;fill:#200000;fill-opacity:.0559602;stroke-width:.802491;stroke-linecap:round;stroke-linejoin:round;-inkscape-stroke:none"/><path d="M4.366 2.738a.863.863 0 0 0-.864.862v5.168a.862.862 0 1 0 1.726 0V4.749s-.07-.433.626-.433.626.433.626.433v4.005a.86.86 0 0 0 .862.863H8.65a.863.863 0 0 0 0-1.725h-.443V3.6a.863.863 0 0 0-.864-.862Z" style="color:#000;fill:url(#d);fill-opacity:1;stroke-width:.802491;stroke-linecap:round;stroke-linejoin:round;-inkscape-stroke:none"/></svg>