<svg xmlns="http://www.w3.org/2000/svg" width="128" height="128" fill="none" xmlns:v="https://vecta.io/nano"><path opacity=".2" d="M49.854 123.492c-1.978-.469-3.634-1.566-5.951-3.943-3.871-3.971-7.012-5.624-12.471-6.564-5.664-.975-8.18-3.08-9.693-8.108-1.868-6.206-3.82-9.178-8.109-12.346-4.866-3.594-6.114-6.763-4.926-12.506 1.1-5.319.679-9.101-1.555-13.964-2.665-5.802-2.336-8.902 1.449-13.655 3.471-4.357 4.56-7.238 5.08-13.432.524-6.25 2.263-8.815 7.385-10.89 4.274-1.732 7.931-4.739 9.958-8.188 2.344-3.989 2.686-4.446 4.139-5.53 2.344-1.749 4.239-2.233 7.848-2.007 6.269.393 9.63-.36 13.84-3.1 5.489-3.574 8.818-3.574 14.307 0 4.21 2.741 7.57 3.494 13.84 3.1 5.929-.372 8.396 1.185 12.009 7.577 1.791 3.168 5.451 6.251 9.458 7.965 5.706 2.442 7.364 4.671 7.785 10.463.456 6.273 1.742 9.78 5.149 14.042 3.794 4.745 4.125 7.848 1.457 13.655-2.233 4.862-2.655 8.644-1.555 13.964 1.188 5.743-.061 8.912-4.926 12.506-4.289 3.168-6.241 6.14-8.109 12.346-1.513 5.028-4.03 7.133-9.693 8.108-5.471.942-8.616 2.6-12.471 6.577-4.274 4.407-7.338 5.135-13.313 3.159-4.887-1.615-8.65-1.622-13.517-.024-3.41 1.119-5.227 1.314-7.413.795h0z" fill="#000"/><path d="M49.854 122.321c-1.978-.47-3.634-1.567-5.951-3.944-3.871-3.97-7.012-5.624-12.471-6.563-5.664-.975-8.18-3.081-9.693-8.108-1.868-6.207-3.82-9.179-8.109-12.347-4.866-3.594-6.114-6.763-4.926-12.506 1.1-5.32.679-9.101-1.555-13.964-2.665-5.802-2.336-8.902 1.449-13.655 3.471-4.358 4.56-7.238 5.08-13.432.524-6.25 2.263-8.815 7.385-10.89 4.274-1.732 7.931-4.739 9.958-8.188 2.344-3.989 2.686-4.446 4.139-5.53 2.344-1.749 4.239-2.233 7.848-2.007 6.269.393 9.63-.36 13.84-3.1 5.489-3.574 8.818-3.574 14.307 0 4.21 2.741 7.57 3.494 13.84 3.1 5.929-.372 8.396 1.185 12.009 7.577 1.791 3.168 5.451 6.251 9.458 7.965 5.706 2.442 7.364 4.671 7.785 10.463.456 6.273 1.742 9.78 5.149 14.042 3.794 4.745 4.125 7.848 1.457 13.655-2.233 4.863-2.655 8.644-1.555 13.964 1.188 5.743-.061 8.912-4.926 12.506-4.289 3.168-6.241 6.14-8.109 12.347-1.513 5.027-4.03 7.133-9.693 8.108-5.471.941-8.616 2.6-12.471 6.576-4.274 4.408-7.338 5.135-13.313 3.16-4.887-1.616-8.65-1.623-13.517-.025-3.41 1.119-5.227 1.314-7.413.796h0z" fill="#fff"/><path d="M85.005 59.03c-.369-.753-.053-1.657.7-2.026s1.657-.053 2.026.7.053 1.657-.7 2.026-1.657.053-2.026-.7zm7.327 15.06c-.369-.753-.053-1.657.7-2.026s1.657-.053 2.026.7.053 1.657-.7 2.026-1.657.053-2.026-.7zm.64-19.541c-4.819-3.441-11.107-4.33-16.928-2.078l15.911 32.719c5.362-3.185 8.54-8.69 8.811-14.601l6.039.429c.346.023.648-.233.67-.587.023-.346-.233-.648-.587-.67l-6.115-.437c-.06-2.575-.677-5.203-1.905-7.733-1.227-2.523-2.914-4.631-4.902-6.273l3.434-5.083a.63.63 0 0 0-.166-.873.63.63 0 0 0-.873.166l-3.389 5.015" fill="#3ddc84"/><g fill="#4285f4"><path d="M78.303 66.868c-4.488 2.169-9.315 3.268-14.345 3.268-11.333 0-21.627-5.753-27.628-14.91-.474-.723-1.453-.896-2.154-.384L28.4 59.097a1.52 1.52 0 0 0-.346 2.078c7.884 11.77 21.235 19.142 35.904 19.142 6.574 0 12.892-1.438 18.773-4.277l-4.428-9.172zM63.906 30.671h3.125v-6.905a3.13 3.13 0 0 0-3.125-3.125 3.13 3.13 0 0 0-3.125 3.125v6.905h3.125z"/><path d="M55.773 44.15L34.289 88.367a7.31 7.31 0 0 0-.738 3.057l-.128 5.791c-.03 1.498 1.702 2.342 2.861 1.393l4.473-3.675a7.34 7.34 0 0 0 1.95-2.47l21.175-43.592-8.102-4.714-.008-.008zm38.494 47.267a7.43 7.43 0 0 0-.738-3.057L72.046 44.142l-8.102 4.729 21.175 43.577a7.43 7.43 0 0 0 1.95 2.47l4.473 3.675c1.16.949 2.899.105 2.861-1.393l-.128-5.791-.008.008z"/></g><path d="M63.905 30.121a9.39 9.39 0 0 0-9.375 9.375c0 5.166 4.209 9.375 9.375 9.375s9.375-4.209 9.375-9.375-4.209-9.375-9.375-9.375zm0 14.533a5.17 5.17 0 0 1-5.158-5.158c0-2.846 2.312-5.158 5.158-5.158s5.158 2.312 5.158 5.158-2.312 5.158-5.158 5.158z" fill="#073042"/></svg>