<svg xmlns="http://www.w3.org/2000/svg" xmlns:xlink="http://www.w3.org/1999/xlink" width="48" height="48"><defs><linearGradient id="c"><stop offset="0" style="stop-color:#000;stop-opacity:1"/><stop offset="1" style="stop-color:#000;stop-opacity:0"/></linearGradient><linearGradient id="d"><stop offset="0" style="stop-color:#569914;stop-opacity:1"/><stop offset="1" style="stop-color:#9cc94b;stop-opacity:1"/></linearGradient><linearGradient id="b"><stop offset="0" style="stop-color:#383e51;stop-opacity:1"/><stop offset="1" style="stop-color:#383e51;stop-opacity:0"/></linearGradient><linearGradient id="a"><stop offset="0" style="stop-color:#c6cdd1;stop-opacity:1"/><stop offset="1" style="stop-color:#e0e5e7;stop-opacity:1"/></linearGradient><linearGradient xlink:href="#a" id="e" x1="24" x2="24" y1="36" y2="4" gradientUnits="userSpaceOnUse"/><linearGradient xlink:href="#b" id="f" x1="15" x2="36.81" y1="10" y2="31.81" gradientUnits="userSpaceOnUse"/><linearGradient xlink:href="#c" id="h" x1="28" x2="38" y1="34" y2="44" gradientUnits="userSpaceOnUse"/><linearGradient xlink:href="#c" id="i" x1="16" x2="26" y1="34" y2="44" gradientUnits="userSpaceOnUse"/><linearGradient xlink:href="#d" id="g" x1="24" x2="24" y1="26" y2="44" gradientUnits="userSpaceOnUse"/></defs><path d="M11 4h26v32H11z" style="fill:url(#e);fill-opacity:1;stroke-width:2.79999995;stroke-opacity:.55"/><path d="m22 11-7 7 17.814 18H37V15.002l-4-4h-7v4z" style="opacity:.2;fill:url(#f);fill-opacity:1;fill-rule:evenodd"/><path d="M15 11h7v7h-7zM26 11h7v7h-7z" style="fill:#202224;stroke-width:2.79999995;stroke-opacity:.55"/><path d="M17 11h3v7h-3zM28 11h3v7h-3z" style="fill:#fdbc4a;stroke-width:2.79999995;stroke-opacity:.55"/><path d="M14.877 20.018a.997.997 0 0 0-.742 1.492l3.287 5.693C8.006 31.093 8 43.162 8 44h32c0-.838-.006-12.906-9.42-16.797l3.287-5.693a.997.997 0 0 0-.367-1.366.997.997 0 0 0-1.365.366l-3.496 6.054C27.263 26.21 25.729 26 24 26s-3.263.209-4.639.565l-3.494-6.055a1 1 0 0 0-.99-.492" style="fill:url(#g);fill-opacity:1;stroke-width:2.79999995;stroke-opacity:.55"/><rect width="20" height="2" x="14" y="41" rx="1" ry="1" style="opacity:1;fill:#fff;fill-opacity:1;stroke:none;stroke-width:2;stroke-linecap:butt;stroke-linejoin:round;stroke-miterlimit:4;stroke-dasharray:none;stroke-opacity:1"/><path d="m31.361 34.533-2.828 2.83L35.17 44H40c0-.1-.01-.463-.025-.853z" style="opacity:.2;fill:url(#h);fill-opacity:1;stroke:none;stroke-width:2;stroke-linecap:butt;stroke-linejoin:round;stroke-miterlimit:4;stroke-dasharray:none;stroke-opacity:1"/><path d="m19.357 34.53-2.828 2.827L23.174 44h5.656z" style="opacity:.2;fill:url(#i);fill-opacity:1;stroke:none;stroke-width:2;stroke-linecap:butt;stroke-linejoin:round;stroke-miterlimit:4;stroke-dasharray:none;stroke-opacity:1"/><circle cx="18" cy="36" r="2" style="opacity:1;fill:#fff;fill-opacity:1;stroke:none;stroke-width:2;stroke-linecap:butt;stroke-linejoin:round;stroke-miterlimit:4;stroke-dasharray:none;stroke-opacity:1"/><circle cx="30" cy="36" r="2" style="opacity:1;fill:#fff;fill-opacity:1;stroke:none;stroke-width:2;stroke-linecap:butt;stroke-linejoin:round;stroke-miterlimit:4;stroke-dasharray:none;stroke-opacity:1"/></svg>