<svg xmlns="http://www.w3.org/2000/svg" width="48" height="48"><path d="M45 24a21 21 0 0 1-21 21A21 21 0 0 1 3 24 21 21 0 0 1 24 3a21 21 0 0 1 21 21" style="fill:#bc5fd3;fill-opacity:1;stroke-width:1.06438"/><path d="M33.576 14.672a9.37 9.37 0 0 0-9.37-9.37h-.001a9.37 9.37 0 0 0-9.37 9.37v18.193h18.741Zm-2.708 15.485V14.672a6.663 6.663 0 0 0-6.662-6.663h-.001a6.663 6.663 0 0 0-6.663 6.663v15.485z" style="clip-rule:evenodd;fill:#2c2c2c;fill-opacity:.992157;fill-rule:evenodd;stroke-width:.118417;stroke-linecap:round;stroke-linejoin:round;stroke-miterlimit:1.5"/><g style="clip-rule:evenodd;fill:#c1dae8;fill-opacity:.459717;fill-rule:evenodd;stroke-linecap:round;stroke-linejoin:round;stroke-miterlimit:1.5"><path d="M340.194 141.884 223.778 110.69l-39.503 147.426 116.416 31.194Z" style="fill:#fff;fill-opacity:.314848" transform="matrix(.11842 0 0 .11842 .288 .135)"/></g><g style="clip-rule:evenodd;fill:#fff;fill-opacity:.746722;fill-rule:evenodd;stroke-linecap:round;stroke-linejoin:round;stroke-miterlimit:1.5"><path d="M199.833 136.284 83.417 167.478l39.503 147.426 116.416-31.194Z" style="fill:#fff;fill-opacity:.461518" transform="matrix(.11842 0 0 .11842 .288 .135)"/></g><path d="m19.37 22.628-5.28 1.415.24.893 5.28-1.413z" style="color:#000;font-style:normal;font-variant:normal;font-weight:400;font-stretch:normal;font-size:medium;line-height:normal;font-family:sans-serif;font-variant-ligatures:normal;font-variant-position:normal;font-variant-caps:normal;font-variant-numeric:normal;font-variant-alternates:normal;font-variant-east-asian:normal;font-feature-settings:normal;font-variation-settings:normal;text-indent:0;text-align:start;text-decoration:none;text-decoration-line:none;text-decoration-style:solid;text-decoration-color:#000;letter-spacing:normal;word-spacing:normal;text-transform:none;writing-mode:lr-tb;direction:ltr;text-orientation:mixed;dominant-baseline:auto;baseline-shift:baseline;text-anchor:start;white-space:normal;shape-padding:0;shape-margin:0;inline-size:0;clip-rule:nonzero;display:inline;overflow:visible;visibility:visible;opacity:1;isolation:auto;mix-blend-mode:normal;color-interpolation:sRGB;color-interpolation-filters:linearRGB;solid-color:#000;solid-opacity:1;vector-effect:none;fill:#f4f8fb;fill-opacity:1;fill-rule:nonzero;stroke:none;stroke-width:.925264px;stroke-linecap:butt;stroke-linejoin:miter;stroke-miterlimit:4;stroke-dasharray:none;stroke-dashoffset:0;stroke-opacity:1;color-rendering:auto;image-rendering:auto;shape-rendering:auto;text-rendering:auto;stop-color:#000;stop-opacity:1"/><g style="fill:#f4f8fb;fill-opacity:1"><path d="M-26.68 1045.001c-5.857 0-10.603 4.749-10.603 10.605s4.746 10.602 10.603 10.602 10.604-4.746 10.604-10.602-4.748-10.605-10.604-10.605m5.016 3.262v3.058l-3.06.612v6.98a3.99 3.355 0 0 1 .025.368 3.99 3.355 0 0 1-3.99 3.356 3.99 3.355 0 0 1-3.99-3.355 3.99 3.355 0 0 1 3.99-3.356 3.99 3.355 0 0 1 .906.09v-6.529z" style="opacity:1;fill:#f4f8fb;fill-opacity:1;stroke:none;stroke-width:1.22378;stroke-linecap:round;stroke-linejoin:round;stroke-miterlimit:4;stroke-dasharray:none;stroke-dashoffset:0;stroke-opacity:1;paint-order:fill markers stroke" transform="scale(.43533)rotate(19.489 2954.561 844.176)"/></g><path d="M5.464 23.84c0 9.974 8.398 18.071 18.741 18.071s18.742-8.097 18.742-18.07q-9.362-.021-18.742-.023c-6.252 0-12.502.01-18.741.023" style="clip-rule:evenodd;fill:#fff;fill-opacity:1;fill-rule:evenodd;stroke-width:.118417;stroke-linecap:round;stroke-linejoin:round;stroke-miterlimit:1.5"/><path d="m20.994 18.48-8.888 2.381.239.893 8.887-2.382zM17.844 21.41l-5.147 1.38.24.894 5.145-1.38z" style="color:#000;font-style:normal;font-variant:normal;font-weight:400;font-stretch:normal;font-size:medium;line-height:normal;font-family:sans-serif;font-variant-ligatures:normal;font-variant-position:normal;font-variant-caps:normal;font-variant-numeric:normal;font-variant-alternates:normal;font-variant-east-asian:normal;font-feature-settings:normal;font-variation-settings:normal;text-indent:0;text-align:start;text-decoration:none;text-decoration-line:none;text-decoration-style:solid;text-decoration-color:#000;letter-spacing:normal;word-spacing:normal;text-transform:none;writing-mode:lr-tb;direction:ltr;text-orientation:mixed;dominant-baseline:auto;baseline-shift:baseline;text-anchor:start;white-space:normal;shape-padding:0;shape-margin:0;inline-size:0;clip-rule:nonzero;display:inline;overflow:visible;visibility:visible;opacity:1;isolation:auto;mix-blend-mode:normal;color-interpolation:sRGB;color-interpolation-filters:linearRGB;solid-color:#000;solid-opacity:1;vector-effect:none;fill:#f4f8fb;fill-opacity:1;fill-rule:nonzero;stroke:none;stroke-width:.925264px;stroke-linecap:butt;stroke-linejoin:miter;stroke-miterlimit:4;stroke-dasharray:none;stroke-dashoffset:0;stroke-opacity:1;color-rendering:auto;image-rendering:auto;shape-rendering:auto;text-rendering:auto;stop-color:#000;stop-opacity:1"/><path d="M19.268 29.236h9.464v2.859h-9.464z" style="paint-order:stroke markers fill;stroke-linejoin:round;stroke-linecap:round;stroke-width:1.74853;fill-opacity:.992157"/></svg>