<svg xmlns="http://www.w3.org/2000/svg" xmlns:xlink="http://www.w3.org/1999/xlink" width="48" height="48"><defs><linearGradient id="c"><stop offset="0" style="stop-color:#cebee5;stop-opacity:1"/><stop offset="1" style="stop-color:#f1f1f1;stop-opacity:1"/></linearGradient><linearGradient id="b"><stop offset="0" style="stop-color:#000;stop-opacity:1"/><stop offset="1" style="stop-color:#000;stop-opacity:0"/></linearGradient><linearGradient xlink:href="#a" id="d" x1="408.708" x2="408.708" y1="543.711" y2="503.711" gradientTransform="translate(-.137 .087)" gradientUnits="userSpaceOnUse"/><linearGradient id="a"><stop offset="0" style="stop-color:#65257e;stop-opacity:1"/><stop offset="1" style="stop-color:#ae79c4;stop-opacity:1"/></linearGradient><linearGradient xlink:href="#b" id="e" x1="15.425" x2="39" y1="13.05" y2="36.625" gradientUnits="userSpaceOnUse"/><linearGradient xlink:href="#c" id="f" x1="30.207" x2="14" y1="43" y2="10" gradientUnits="userSpaceOnUse"/></defs><g transform="matrix(1.05 0 0 1.05 -404.858 -526.077)"><rect width="40" height="40" x="388.44" y="503.88" rx="20" style="opacity:1;fill:url(#d);fill-opacity:1;stroke-width:2.8;stroke-opacity:.550265"/><path d="M388.446 523.385c-.004.166-.011.332-.011.5 0 11.08 8.92 20 20 20s20-8.92 20-20c0-.168-.008-.334-.012-.5a19.95 19.95 0 0 1-19.988 19.5 19.95 19.95 0 0 1-19.989-19.5" style="opacity:.15;fill:#000;fill-opacity:1;stroke-width:2.8;stroke-opacity:.550265"/><path d="m27.102 9.035-5.729 7.217-9.412 8.207 2.973 15.287 7.41 4.277a19.956 19.956 0 0 0 21.52-19.937c0-2.049-.309-4.02-.876-5.879z" style="opacity:.2;fill:url(#e);fill-opacity:1;stroke:none;stroke-width:4;stroke-linecap:round;stroke-linejoin:round;stroke-miterlimit:4;stroke-dasharray:none;stroke-opacity:1" transform="translate(384.571 499.798)"/><path d="M27.123 9s-3.197 2.193-3.416 3.438c0 0-6.764-2.139-12.707 3.562h3s-7.863 4.914-8 8c.137-.086 1.445-.768 2-1 0 0-1.91 4.4-.457 8.691a17.9 17.9 0 0 0 16.32 10.395c.22 0 .433-.024.65-.031.251-.859 1.412-5.282-.722-8.037C21.954 31.64 18.749 25.194 23 23c0 0 2.687 3.77 5.842 4.137 0 0 .368 3.232 4.181 1.18 1.018-.546 1.397-2.35.37-3.815l-.809-1.17S29.907 16.902 28 15c0 0-1-3 0-5 0 0-1.133.841-1.5 1.5 0 0 .255-2.137.623-2.5" style="fill:url(#f);fill-opacity:1;stroke:none;stroke-width:.164641" transform="translate(384.571 499.798)"/></g></svg>