<svg xmlns="http://www.w3.org/2000/svg" width="48" height="48" viewBox="0 0 12.7 12.7"><g transform="matrix(.77776 0 0 .77776 -.235 -218.056)"><circle cx="8.467" cy="288.53" r="7.144" style="paint-order:stroke fill markers;fill:#4d557f;fill-opacity:1"/><path fill="#fdc409" d="M12.965 292.5a.264.264 0 0 0 .265-.265v-4.497a.264.264 0 0 0-.265-.265h-1.587v3.704a.264.264 0 0 1-.265.265H8.467a.264.264 0 0 1-.264-.265v-3.704H6.615a.264.264 0 0 0-.265.265v4.497c0 .147.118.265.265.265z" style="paint-order:stroke fill markers"/><path fill="#b61f1d" d="M22 28v9l9-9z" style="paint-order:stroke fill markers" transform="translate(0 280.07)scale(.26458)"/><path fill="#e5381f" d="M4.233 284.83a.264.264 0 0 0-.264.265v4.497c0 .147.118.265.264.265h1.588v-3.704c0-.147.118-.265.264-.265h2.646c.147 0 .265.118.265.265v3.704h1.587a.264.264 0 0 0 .265-.265v-4.497a.264.264 0 0 0-.265-.265z" style="paint-order:stroke fill markers"/><path fill="#e76f08" d="m43 28-9 9h9z" style="paint-order:stroke fill markers" transform="translate(0 280.07)scale(.26458)"/><rect width="1.058" height="1.058" x="11.642" y="285.62" fill="#e76f08" ry="0" style="paint-order:stroke fill markers"/><rect width="1.058" height="1.058" x="208.92" y="201.81" fill="#f6aa08" ry="0" style="paint-order:stroke fill markers" transform="rotate(45)"/></g></svg>