<svg xmlns="http://www.w3.org/2000/svg" xmlns:xlink="http://www.w3.org/1999/xlink" width="48" height="48"><defs><linearGradient id="a"><stop offset="0" style="stop-color:#4f5967;stop-opacity:1"/><stop offset="1" style="stop-color:#343a43;stop-opacity:1"/></linearGradient><linearGradient xlink:href="#a" id="c" x1="-33.983" x2="-4.85" y1="41.932" y2="3.004" gradientUnits="userSpaceOnUse"/><linearGradient xlink:href="#b" id="d" x1=".795" x2="31.47" y1="27.537" y2="5.617" gradientTransform="matrix(.84374 0 0 .84444 10.5 10.2)" gradientUnits="userSpaceOnUse"/><linearGradient id="b"><stop offset="0" style="stop-color:#cd87de;stop-opacity:1"/><stop offset="1" style="stop-color:#0cf;stop-opacity:1"/></linearGradient></defs><rect width="41.58" height="41.577" x="-44.581" y="3.004" rx="20.79" ry="20.789" style="fill:url(#c);fill-opacity:1" transform="scale(-1 1)"/><path d="M3.012 23.273c-.003.173-.012.346-.012.52a20.744 20.744 0 0 0 20.79 20.789 20.744 20.744 0 0 0 20.79-20.79c0-.173-.008-.345-.013-.519A20.74 20.74 0 0 1 23.79 43.542 20.74 20.74 0 0 1 3.012 23.273" style="display:inline;opacity:.3;fill:#373e48;fill-opacity:1;stroke-width:2.9105;stroke-opacity:.55"/><path d="M3.012 24.309c-.003-.174-.012-.345-.012-.52A20.744 20.744 0 0 1 23.79 3a20.744 20.744 0 0 1 20.79 20.789c0 .174-.008.346-.013.52A20.74 20.74 0 0 0 23.79 4.039 20.74 20.74 0 0 0 3.012 24.31" style="display:inline;opacity:.3;fill:#fff;fill-opacity:1;stroke-width:2.9105;stroke-opacity:.55"/><path d="M15.622 14.55c-1.789-.02-3.66.824-4.522 3.983-.639 2.342-.602 10.286-.599 12.334.004 2.005 2.904 3.513 4.85 2.175 1.947-1.337 3.549-3.674 4.903-3.674h7.412c.14.147.352.392.617.738.595.777 1.287 1.855 2.466 2.692 1.394.99 3.084.911 4.35.29 1.267-.623 2.397-1.894 2.4-3.634.001-.803.01-2.808-.047-4.856-.055-2.048-.09-3.95-.482-5.432-.41-1.556-1.15-2.793-2.159-3.58-1.009-.788-2.19-1.048-3.19-1.036-1.85.023-3.067.675-3.667 1.038h-8.133s-2.039-1.012-4.198-1.038zm16.02 1.98c1.371-.017 2.803.652 3.464 3.153.49 1.855.461 8.144.459 9.767-.004 1.587-2.224 2.781-3.715 1.722s-2.718-3.784-3.756-3.784h-3.612v-9.82h3.944s1.563-1.018 3.217-1.038z" style="fill:url(#d);fill-opacity:1;stroke-width:.844098"/><path d="M5.875 7.546h-.66v.677a.25.25 0 0 1-.255.257h-.586a.25.25 0 0 1-.256-.257v-.677h-.66a.25.25 0 0 1-.256-.256v-.586a.25.25 0 0 1 .257-.256h.659v-.66a.25.25 0 0 1 .256-.255h.586a.25.25 0 0 1 .256.256v.659h.659a.25.25 0 0 1 .256.256v.586a.25.25 0 0 1-.256.256" style="fill:#fd5" transform="matrix(1.75945 0 0 1.7441 9.428 9.283)"/><g stroke-width=".048"><path d="M12.964 5.533a.67.67 0 0 0-.661.66c0 .36.302.662.661.662a.67.67 0 0 0 .661-.661.67.67 0 0 0-.661-.662" style="fill:#0cf" transform="matrix(1.75945 0 0 1.7441 8.963 9.283)"/><path d="M11.377 7.157a.67.67 0 0 0-.661.661c0 .36.302.662.661.662a.67.67 0 0 0 .661-.662.67.67 0 0 0-.661-.661" style="fill:red" transform="matrix(1.75945 0 0 1.7441 8.963 9.283)"/></g></svg>