<svg xmlns="http://www.w3.org/2000/svg" width="32" height="32"><linearGradient id="a" x1="2" x2="2" y1="30" y2="2" gradientUnits="userSpaceOnUse"><stop offset="0" stop-color="#be1111"/><stop offset="1" stop-color="#e74c3c"/></linearGradient><linearGradient id="d" x1="6" x2="48" y1="9" y2="51" gradientUnits="userSpaceOnUse"><stop offset="0" stop-color="#fcfcfc"/><stop offset="1" stop-color="#e74c3c"/></linearGradient><linearGradient id="b" x1="13" x2="27" y1="16" y2="30" gradientUnits="userSpaceOnUse"><stop offset="0"/><stop offset="1" stop-opacity="0"/></linearGradient><rect width="28" height="28" x="2" y="2" fill="url(#a)" ry="4"/><path fill="url(#b)" d="m13 23 7 7h10V20l-4-4-4 2-2-2z" opacity=".2"/><path fill="url(#d)" d="m13 9-7 7 7 7 7-7zm6 0-1.5 1.5L23 16l-5.5 5.5L19 23l7-7z"/><path fill="#8e0d0d" d="M2 24v1c0 2.77 2.23 5 5 5h18c2.77 0 5-2.23 5-5v-1c0 2.77-2.23 5-5 5H7c-2.77 0-5-2.23-5-5"/></svg>