<svg xmlns="http://www.w3.org/2000/svg" xmlns:xlink="http://www.w3.org/1999/xlink" width="48" height="48"><defs><linearGradient id="a"><stop offset="0" style="stop-color:#b92d3a;stop-opacity:1"/><stop offset="1" style="stop-color:#dd5498;stop-opacity:1"/></linearGradient><linearGradient xlink:href="#a" id="b" x1="30.75" x2="31.505" y1="58.992" y2="4.018" gradientUnits="userSpaceOnUse"/></defs><path d="M30.75 3.95a5.2 5.2 0 0 0-2.379.624L9.61 15.267c-1.265.68-2.535 1.87-3.084 3.182-.6 1.436-.571 2.558-.468 3.406l.107 20.94a5.23 5.23 0 0 0 1.977 3.97C10.574 48.696 27.9 58.327 27.9 58.327a5.2 5.2 0 0 0 2.85.666 5.2 5.2 0 0 0 2.848-.666s17.327-9.632 19.76-11.56a5.23 5.23 0 0 0 1.976-3.972l.107-20.939c.103-.848.132-1.97-.468-3.406-.55-1.312-1.818-2.502-3.084-3.182L33.13 4.574a5.2 5.2 0 0 0-2.379-.625" style="opacity:.2;stroke-width:.950539" transform="matrix(.74747 0 0 .75 1.015 .75)"/><path d="M30.75 3a5.2 5.2 0 0 0-2.379.625L9.61 14.318c-1.265.68-2.535 1.87-3.084 3.182-.6 1.435-.571 2.558-.468 3.406l.107 20.94a5.23 5.23 0 0 0 1.977 3.97C10.574 47.747 27.9 57.378 27.9 57.378a5.2 5.2 0 0 0 2.85.666 5.2 5.2 0 0 0 2.848-.666s17.327-9.632 19.76-11.56a5.23 5.23 0 0 0 1.976-3.972l.107-20.94c.103-.847.132-1.97-.468-3.405-.55-1.312-1.818-2.503-3.084-3.182L33.13 3.625A5.2 5.2 0 0 0 30.75 3" style="fill:url(#b);stroke-width:.950539" transform="matrix(.74747 0 0 .75 1.015 .75)"/><path d="M30.75 3a5.2 5.2 0 0 0-2.378.625L9.611 14.318c-1.266.68-2.536 1.87-3.085 3.182-.508 1.215-.559 2.194-.502 2.983.046-.595.18-1.266.502-2.034.55-1.312 1.82-2.502 3.085-3.182L28.372 4.574a5.2 5.2 0 0 1 2.378-.625 5.2 5.2 0 0 1 2.378.625l18.761 10.693c1.266.68 2.535 1.87 3.085 3.182.321.768.456 1.44.502 2.034.056-.79.006-1.768-.502-2.983-.55-1.312-1.82-2.503-3.085-3.182L33.128 3.625A5.2 5.2 0 0 0 30.75 3" style="opacity:.2;fill:#fff;stroke-width:.950539" transform="matrix(.74747 0 0 .75 1.015 .75)"/><path d="M37.75 15.34a10.45 10.45 0 0 1 2.19 5.596v.035q.009.102.013.204.008.103.012.206c0 .048-.002.096.003.144v.271a10.44 10.44 0 0 1-1.909 6.029 9.4 9.4 0 0 1 .113 3.275 9.4 9.4 0 0 0 1.754-.598q.629-.285 1.208-.659.119.408.2.83a9.3 9.3 0 0 1 .166 1.773q.001.71-.106 1.413a9.5 9.5 0 0 0 3.624-1.138 9.3 9.3 0 0 1 .149 1.668c0 .65-.066 1.298-.201 1.935.982-.04 1.95-.23 2.872-.567.662-1.752 1-3.608.997-5.478q.011-.615-.035-1.216a15.5 15.5 0 0 0-.688-3.513 6 6 0 0 1-.549 1.109 14 14 0 0 0-1.94-5.256 14.1 14.1 0 0 0-3.86-4.09 14.2 14.2 0 0 0-4.013-1.974zm-14.288.018a18.4 18.4 0 0 0-4.046 2.491 18.2 18.2 0 0 0-6.258 9.896 18 18 0 0 0-.495 4.206 18 18 0 0 0 2.246 8.73c.1-.88.327-1.74.672-2.557a17.4 17.4 0 0 0 5.139 6.835 17.65 17.65 0 0 0 7.799 3.6 9.3 9.3 0 0 1-1.21-2.063c1.523.49 3.108.757 4.71.796.14 0 .284.005.427.005a16.7 16.7 0 0 0 7.336-1.685 9 9 0 0 1-1.091-.712 15.83 15.83 0 0 0 6.51-4.617 15.6 15.6 0 0 0 2.044-3.122 9.5 9.5 0 0 1-2.677.547 9 9 0 0 1-.588.018h-.195a9.2 9.2 0 0 0 .298-2.34q0-.526-.06-1.05a9.5 9.5 0 0 1-3.793.96 9 9 0 0 0 .184-1.85c.001-.668-.07-1.334-.213-1.988a9.5 9.5 0 0 1-3.196 1.16l-.008-.012a9 9 0 0 0 .182-1.828q0-.848-.152-1.683a10.6 10.6 0 0 1-3.518 2.415 10.7 10.7 0 0 1-4.196.848c-1.703.002-3.381-.4-4.894-1.174a9.5 9.5 0 0 0 1.95-1.023 9.46 9.46 0 0 1-3.926-3.469 9.33 9.33 0 0 1-.85-8.322q.298-.78.731-1.496a9.3 9.3 0 0 1 1.138-1.516z" style="opacity:.2;stroke-width:.950539" transform="matrix(.74747 0 0 .75 1.015 .75)"/><path d="M37.75 14.39a10.45 10.45 0 0 1 2.19 5.597v.035q.009.102.013.204.008.102.012.206c0 .048-.002.096.003.144v.271a10.44 10.44 0 0 1-1.909 6.028 9.4 9.4 0 0 1 .113 3.276 9.4 9.4 0 0 0 1.754-.599q.629-.286 1.208-.658.119.407.2.83a9.3 9.3 0 0 1 .166 1.773q.001.71-.106 1.413a9.5 9.5 0 0 0 3.624-1.139 9.3 9.3 0 0 1 .149 1.669c0 .65-.066 1.298-.201 1.935.982-.04 1.95-.23 2.872-.567.662-1.752 1-3.608.997-5.478q.011-.615-.035-1.216a15.5 15.5 0 0 0-.688-3.513 6 6 0 0 1-.549 1.108 14 14 0 0 0-1.94-5.255 14.1 14.1 0 0 0-3.86-4.09 14.2 14.2 0 0 0-4.013-1.974zm-14.288.018a18.4 18.4 0 0 0-4.046 2.492 18.2 18.2 0 0 0-6.258 9.896 18 18 0 0 0-.495 4.206 18 18 0 0 0 2.246 8.73c.1-.88.327-1.74.672-2.557a17.4 17.4 0 0 0 5.139 6.835 17.65 17.65 0 0 0 7.799 3.6 9.3 9.3 0 0 1-1.21-2.063c1.523.49 3.108.756 4.71.795.14 0 .284.006.427.006a16.7 16.7 0 0 0 7.336-1.685 9 9 0 0 1-1.091-.712 15.83 15.83 0 0 0 6.51-4.618 15.6 15.6 0 0 0 2.044-3.121 9.5 9.5 0 0 1-2.677.546 9 9 0 0 1-.588.019h-.195a9.2 9.2 0 0 0 .298-2.34q0-.526-.06-1.05a9.5 9.5 0 0 1-3.793.96 9 9 0 0 0 .184-1.85c.001-.669-.07-1.335-.213-1.988a9.5 9.5 0 0 1-3.196 1.159l-.008-.011a9 9 0 0 0 .182-1.828q0-.849-.152-1.683a10.6 10.6 0 0 1-3.518 2.415 10.7 10.7 0 0 1-4.196.847c-1.703.003-3.381-.399-4.894-1.173a9.5 9.5 0 0 0 1.95-1.023 9.46 9.46 0 0 1-3.926-3.469 9.33 9.33 0 0 1-.85-8.322q.298-.78.731-1.496a9.3 9.3 0 0 1 1.138-1.516z" style="fill:#fff;stroke-width:.950539" transform="matrix(.74747 0 0 .75 1.015 .75)"/></svg>