<svg xmlns="http://www.w3.org/2000/svg" width="48" height="48"><defs><linearGradient id="a" x1="389.32" x2="426.695" y1="547.675" y2="499.921" gradientTransform="matrix(1.04996 0 0 1.0499 -452.985 -525.94)" gradientUnits="userSpaceOnUse"><stop stop-color="#18222a" style="stop-color:#1e2b35;stop-opacity:1"/><stop offset="1" stop-color="#566069" style="stop-color:#6d7983;stop-opacity:1"/></linearGradient></defs><rect width="41.999" height="41.996" x="-44.999" y="3.002" rx="20.999" ry="20.998" style="display:inline;overflow:visible;fill:url(#a);stroke-width:2.93982;stroke-opacity:.55" transform="scale(-1 1)"/><path d="M3.012 23.475C3.008 23.65 3 23.825 3 24a20.953 20.953 0 0 0 20.999 20.998c11.634 0 21-9.365 21-20.998 0-.176-.009-.349-.013-.525a20.95 20.95 0 0 1-20.987 20.473A20.947 20.947 0 0 1 3.012 23.475" style="display:inline;overflow:visible;opacity:.3;fill:#000;fill-opacity:1;stroke-width:2.93982;stroke-opacity:.55"/><path d="M3.012 24.521c-.004-.175-.012-.348-.012-.525A20.953 20.953 0 0 1 23.999 2.998c11.634 0 21 9.365 21 20.998 0 .176-.009.35-.013.525A20.95 20.95 0 0 0 23.999 4.048 20.947 20.947 0 0 0 3.012 24.521" style="display:inline;overflow:visible;opacity:.3;fill:#fff;fill-opacity:1;stroke-width:2.93982;stroke-opacity:.55"/><path d="M63.435 57.677c-.053 3.213-2.741 5.759-5.954 5.759H35.404c-1.122 0-1.83-1.21-1.275-2.186 1.463-2.574 4.32-6.783 8.553-9.154a2.95 2.95 0 0 1 1.442-.378h13.453a5.86 5.86 0 0 1 5.858 5.959zM45.87 18.75c-1.462 2.574-4.32 6.783-8.552 9.154a2.95 2.95 0 0 1-1.442.378H22.52c-3.213 0-5.901-2.546-5.955-5.759a5.86 5.86 0 0 1 5.858-5.959h22.173c1.122 0 1.83 1.21 1.275 2.186zM22.42 63.438a5.859 5.859 0 0 1-5.41-8.103 38.2 38.2 0 0 1 8.114-12.251 38.1 38.1 0 0 1 12.634-8.497c6.569-2.721 11.685-7.837 14.406-14.406a5.86 5.86 0 0 1 10.826 4.484 38.2 38.2 0 0 1-8.114 12.251 38.1 38.1 0 0 1-12.634 8.497c-6.569 2.721-11.685 7.837-14.406 14.406a5.86 5.86 0 0 1-5.415 3.619" class="i" style="fill:#fef9fe;stroke-width:0" transform="translate(3.52 3.52)scale(.512)"/></svg>