<svg xmlns="http://www.w3.org/2000/svg" xmlns:xlink="http://www.w3.org/1999/xlink" width="48" height="48"><defs><linearGradient id="f"><stop offset="0" style="stop-color:#f95;stop-opacity:1"/><stop offset="1" style="stop-color:#ff87ff;stop-opacity:1"/></linearGradient><linearGradient id="e"><stop offset="0" style="stop-color:teal;stop-opacity:1"/><stop offset="1" style="stop-color:#00d9d9;stop-opacity:1"/></linearGradient><linearGradient id="d"><stop offset="0" style="stop-color:#6531b4;stop-opacity:1"/><stop offset="1" style="stop-color:#bb9fe4;stop-opacity:1"/></linearGradient><linearGradient xlink:href="#c" id="j" x1="2.268" x2="2.268" y1="15.389" y2="61.186" gradientTransform="matrix(.7 0 0 .70027 1.6 1.591)" gradientUnits="userSpaceOnUse"/><linearGradient id="c"><stop offset="0" style="stop-color:#2d96f0;stop-opacity:1"/><stop offset="1" style="stop-color:#28f0c8;stop-opacity:1"/></linearGradient><linearGradient xlink:href="#d" id="g" x1="22.575" x2="45" y1="25.367" y2="25.367" gradientUnits="userSpaceOnUse"/><linearGradient xlink:href="#e" id="i" x1="6.067" x2="40.189" y1="14.859" y2="14.859" gradientUnits="userSpaceOnUse"/><linearGradient xlink:href="#f" id="h" x1="8.563" x2="37.234" y1="35.858" y2="35.858" gradientUnits="userSpaceOnUse"/></defs><path d="m39.175 9.495-16.6 17.221L35.97 41.238A21 21.008 0 0 0 45 24.007a21 21.008 0 0 0-5.826-14.512Z" style="fill-opacity:1;fill:url(#g)"/><path d="M22.575 26.716 8.563 38.22A21 21.008 0 0 0 23.7 45h.72a21 21.008 0 0 0 12.814-4.695z" style="fill-opacity:1;fill:url(#h)"/><path d="M23.961 3A21 21.008 0 0 0 6.067 13.127l16.51 13.592 17.612-16.07A21 21.008 0 0 0 24.027 3z" style="fill-opacity:1;fill:url(#i)"/><path d="M6.68 12.128a21 21.008 0 0 0-1.803 3.244l17.715 11.344z" image-rendering="optimizeSpeed" opacity=".1"/><path d="M26.47 23.18 9.2 38.89a21 21.008 0 0 0 1.692 1.505z" opacity=".4"/><ellipse cx="13.348" cy="13.815" fill="#197d78" rx="2.072" ry="2.193" style="paint-order:stroke fill markers;fill:#156562;fill-opacity:1"/><ellipse cx="34.65" cy="13.815" fill="#197d78" rx="2.072" ry="2.193" style="paint-order:stroke fill markers"/><path d="M6.715 12.083A21 21.008 0 0 0 3 24.007a21 21.008 0 0 0 6.197 14.88l13.378-12.168Z" style="fill:url(#j);fill-opacity:1;stroke-width:1.41041;stroke-linecap:round;stroke-linejoin:round;paint-order:stroke fill markers"/><path fill="none" stroke="#000" stroke-dashoffset=".421" stroke-linecap="round" stroke-width="1.857" d="M34.626 14.15a10.636 12.665 0 0 1 .01.506A10.636 12.665 0 0 1 24 27.321a10.636 12.665 0 0 1-10.636-12.665 10.636 12.665 0 0 1 .01-.507" opacity=".4"/><path fill="none" stroke="#fff" stroke-dashoffset=".421" stroke-linecap="round" stroke-width="1.754" d="M34.658 14.126a10.657 11.276 0 0 1 .01.45 10.657 11.276 0 0 1-10.657 11.277 10.657 11.276 0 0 1-10.658-11.276 10.657 11.276 0 0 1 .01-.452"/></svg>