<svg xmlns="http://www.w3.org/2000/svg" xmlns:xlink="http://www.w3.org/1999/xlink" width="48" height="48"><defs><linearGradient id="b"><stop offset="0" style="stop-color:#55bcf2;stop-opacity:1"/><stop offset="1" style="stop-color:#1a80e2;stop-opacity:1"/></linearGradient><linearGradient xlink:href="#b" id="e" x1="17.25" x2="17.25" y1="29.643" y2="3.056" gradientTransform="translate(-.46 -.637)scale(1.44392)" gradientUnits="userSpaceOnUse"/><linearGradient xlink:href="#c" id="f" x1="2.5" x2="14.975" y1="14.5" y2="2.444" gradientTransform="matrix(5.37543 0 0 5.32419 119.687 345.922)" gradientUnits="userSpaceOnUse"/><linearGradient id="c"><stop offset="0" style="stop-color:#b380ff;stop-opacity:1"/><stop offset="1" style="stop-color:#ffe680;stop-opacity:1"/></linearGradient></defs><rect width="42" height="42" x="3" y="3" rx="21" ry="21" style="fill:url(#e);fill-opacity:1;stroke-width:3.88082;stroke-linecap:round;stroke-linejoin:round"/><path fill-rule="evenodd" stroke-width="1.417" d="M12.455 11.616c.477-.396 1.12-.488 1.72-.49h7.315q.49.008.98 0c.49-.005.979-.008 1.467.015.644.045.958.729.879 1.305q-.004 1.24-.002 2.48.001 1.488-.005 2.975.009 3.06 0 6.118.006 1.707.004 3.415l.001 2.731c-.008.97-.005 1.94-.002 2.911.005 1.383.01 2.765-.02 4.145 2.34-1.25 4.577-2.767 6.365-4.747 1.56-1.663 2.707-3.834 2.66-6.163-.01-1.463-.007-2.926 0-4.389q.009-1.624.007-3.25c.006-.707 0-1.416-.006-2.124-.008-1.08-.015-2.16.015-3.239-.012-.022-.027-.055-.044-.089-.015-.034-.033-.067-.044-.09-.842-.049-1.688-.042-2.533-.034-.508.006.05.01-.459 0-.311-.034-.637-.015-.963.004-.636.036-1.274.072-1.814-.28-.53-.52-.242-1.534.496-1.66.77-.043 1.542-.037 2.314-.03.452.006-.161.009.29.002.401.035.823.015 1.247 0 1.027-.045 2.071-.09 2.877.617q.038.056.077.111c.115.163.23.326.316.504.232.834.207 1.698.182 2.561-.015.44-.026.88-.007 1.316l.007 1.199c.008 2.2.015 4.4-.004 6.6q.003.225.006.453c.024 1.892.048 3.831-.734 5.595-.601 1.442-1.511 2.74-2.585 3.867-2.086 2.248-4.675 3.966-7.403 5.332-.608.326-1.326.548-2 .29a32 32 0 0 1-3.89-2.158c-1.012-.671-1.99-1.397-2.887-2.218q-1.014-.95-1.927-2.001-.067-.081-.14-.164a2.5 2.5 0 0 1-.308-.406 10.7 10.7 0 0 1-1.643-3.023c-.353-1.023-.558-2.103-.551-3.19V19.95q.002-3.235.001-6.47c-.016-.682.202-1.416.745-1.863zm5.188 1.477c-1.322-.008-2.645-.015-3.965.035a886 886 0 0 0-.01 7.393q.005 2.697-.002 5.394c-.003.417.01.835.053 1.25q.01.104.013.185c.013.213.022.36.158.833.767 2.678 2.731 4.66 3.592 5.457.86.797 1.796 1.509 2.776 2.153l.263.164c.735.458 1.472.917 2.258 1.282l.056-.043c.011-.887.01-1.775.008-2.663q-.003-.969.001-1.938l-.001-6.14q-.003-3.14.001-6.279a747 747 0 0 1-.001-4.127l.001-1.18q.002-.274-.003-.547c-.005-.411-.01-.823.021-1.233a182 182 0 0 1-2.63.005c-.863.013-1.726.008-2.589.002z" clip-rule="evenodd" style="isolation:isolate;fill:url(#f);fill-opacity:1;stroke:url(#f);stroke-opacity:1"/></svg>