<svg xmlns="http://www.w3.org/2000/svg" xmlns:xlink="http://www.w3.org/1999/xlink" width="48" height="48"><defs><linearGradient xlink:href="#a" id="d" x1="408.708" x2="408.708" y1="543.711" y2="503.711" gradientTransform="matrix(1.05 0 0 1.05 -405.002 -525.986)" gradientUnits="userSpaceOnUse"/><linearGradient id="a"><stop offset="0" style="stop-color:#65257e;stop-opacity:1"/><stop offset="1" style="stop-color:#ae79c4;stop-opacity:1"/></linearGradient><linearGradient id="e" x1="32" x2="32" y1="62" y2="2" gradientTransform="matrix(.4945 0 0 .48386 8.178 8.517)" gradientUnits="userSpaceOnUse"><stop stop-color="#FDA700"/><stop offset="1" stop-color="#FFDE00"/></linearGradient></defs><rect width="42" height="42" x="3.006" y="3" rx="21" style="fill:url(#d);fill-opacity:1;stroke-width:2.94002;stroke-opacity:.550265"/><path fill="url(#e)" fill-rule="evenodd" d="M23.976 9c-.995 0-1.987.26-2.871.774l-2.116 1.219-2.306 1.313-.005.001-3.668 2.111a5.66 5.66 0 0 0-2.855 4.923v9.32c0 2 1.065 3.892 2.855 4.92v.001l8.117 4.648a5.75 5.75 0 0 0 5.75 0l8.113-4.647a5.66 5.66 0 0 0 2.855-4.921v-9.337a5.75 5.75 0 0 0-2.865-4.899l-.005-.001-.005-.001-8.116-4.648-.001-.001A5.7 5.7 0 0 0 23.974 9Zm-1.356 3.27a2.7 2.7 0 0 1 1.356-.366c.47 0 .945.122 1.377.37l.001.001 8.113 4.646a2.86 2.86 0 0 1 1.412 2.43v9.31a2.77 2.77 0 0 1-1.39 2.416l-8.116 4.649h-.005l-.005.002a2.73 2.73 0 0 1-2.734-.004l-8.117-4.65a2.79 2.79 0 0 1-1.39-2.415v-9.32c0-1.017.533-1.924 1.39-2.417h.001l2.07-1.193v8.716a4.41 4.41 0 0 0 2.244 3.844l2.437 1.399a4.4 4.4 0 0 0 2.24.601c.768 0 1.555-.213 2.243-.601l2.44-1.399a4.43 4.43 0 0 0 2.243-3.844v-2.291c0-1.592-.846-3.05-2.243-3.846l-2.44-1.398a4.4 4.4 0 0 0-2.24-.601v2.852c2.184 0 3.956 1.733 3.956 3.871s-1.772 3.87-3.956 3.87c-1.978 0-3.956-1.935-3.956-3.371v-9.499l.934-.533h.001l.001-.001 2.122-1.223h.002zm.048 4.21c.136-.023.262-.045.344-.066v2.784a4 4 0 0 0-.989.25v-2.82c.142-.062.41-.108.645-.148zm-2.128.82.989-.387v2.772c-.372.21-.706.479-.99.794z" clip-rule="evenodd" style="fill:url(#e);stroke-width:.489148"/></svg>