<svg xmlns="http://www.w3.org/2000/svg" xmlns:xlink="http://www.w3.org/1999/xlink" width="32" height="32"><defs><linearGradient id="a"><stop style="stop-color:#a82936"/><stop offset="1" style="stop-color:#da4453"/></linearGradient><linearGradient id="b"><stop style="stop-color:#da4453"/><stop offset="1" style="stop-color:#da4453"/></linearGradient><linearGradient xlink:href="#a" id="e" x2="0" y1="525.798" y2="545.798" gradientUnits="userSpaceOnUse"/><linearGradient xlink:href="#b" id="f" x2="0" y1="10" y2="5" gradientTransform="translate(384.571 518.798)" gradientUnits="userSpaceOnUse"/><linearGradient xlink:href="#c" id="g" x1="389.571" x2="405.571" y1="527.798" y2="543.798" gradientUnits="userSpaceOnUse"/><linearGradient id="d"><stop style="stop-color:#c6cdd1"/><stop offset="1" style="stop-color:#e0e5e7"/></linearGradient><linearGradient id="c"><stop style="stop-color:#383e51"/><stop offset="1" style="stop-color:#655c6f;stop-opacity:0"/></linearGradient><linearGradient xlink:href="#d" id="j" x2="0" y1="17" y2="12" gradientUnits="userSpaceOnUse"/><linearGradient xlink:href="#d" id="i" x2="0" y1="532.798" y2="527.798" gradientUnits="userSpaceOnUse"/><linearGradient xlink:href="#c" id="h" x1="389.571" x2="405.571" y1="527.798" y2="543.798" gradientTransform="translate(-368.571 -515.798)" gradientUnits="userSpaceOnUse"/></defs><g transform="translate(-384.571 -515.798)"><path d="M11 2C9.338 2 8 3.338 8 5v3c0 1.31.835 2.407 2 2.818V5c0-.554.446-1 1-1h10c.554 0 1 .446 1 1v5.818c1.165-.411 2-1.509 2-2.818V5c0-1.662-1.338-3-3-3z" style="fill:#4d4d4d;stroke-linecap:square;stroke-width:.1" transform="translate(384.571 515.798)"/><rect width="32" height="18" x="384.571" y="527.798" rx="0" style="fill:url(#e);stroke-linecap:square;stroke-width:.1"/><path d="m387.571 523.798-3 2v3h32v-3l-3-2z" style="fill:url(#f);fill-rule:evenodd"/><path d="M389.571 532.798v-5h5l18 18h-10z" style="fill:url(#g);opacity:.2;fill-rule:evenodd"/><path d="M21 12v5l11 11V18l-6-6z" style="fill:url(#h);opacity:.2;fill-rule:evenodd" transform="translate(384.571 515.798)"/><path d="M405.571 527.798v5h5v-5zm1 1h3v3h-3z" style="fill:url(#i);stroke-linecap:square;stroke-width:.1"/><path d="M384.571 544.798h32v1h-32z" style="fill:#aa2a37;stroke-linecap:square;stroke-width:.1"/><path d="M5 12v5h5v-5zm1 1h3v3H6z" style="fill:url(#j);stroke-linecap:square;stroke-width:.1" transform="translate(384.571 515.798)"/></g></svg>