<svg xmlns="http://www.w3.org/2000/svg" xmlns:xlink="http://www.w3.org/1999/xlink" width="32" height="32"><defs><linearGradient id="a"><stop stop-color="#2a2c2f"/><stop offset="1" stop-color="#424649"/></linearGradient><linearGradient xlink:href="#a" id="f" x2="0" y1="545.798" y2="539.798" gradientTransform="translate(0 -8)" gradientUnits="userSpaceOnUse"/><linearGradient xlink:href="#a" id="h" x2="0" y1="-533.798" y2="-523.798" gradientTransform="translate(0 2)" gradientUnits="userSpaceOnUse"/><linearGradient id="d"><stop stop-color="#21c9fb"/><stop offset="1" stop-color="#197cf1"/></linearGradient><linearGradient xlink:href="#b" id="g" x1="393.571" x2="407.571" y1="524.798" y2="538.798" gradientTransform="translate(0 -2)" gradientUnits="userSpaceOnUse"/><linearGradient id="b"><stop stop-color="#292c2f"/><stop offset="1" stop-opacity="0"/></linearGradient><linearGradient xlink:href="#c" id="i" x2="0" y1="542.798" y2="538.798" gradientTransform="translate(0 2)" gradientUnits="userSpaceOnUse"/><linearGradient id="c"><stop stop-color="#c6cdd1"/><stop offset="1" stop-color="#e0e5e7"/></linearGradient><linearGradient xlink:href="#a" id="j" x1="0" x2="0" y1="25" y2="2" gradientTransform="translate(384.571 515.798)" gradientUnits="userSpaceOnUse"/><linearGradient xlink:href="#d" id="e" x2="0" y1="541.798" y2="517.798" gradientUnits="userSpaceOnUse"/></defs><g transform="translate(-384.571 -515.798)"><path d="M388.571 518.798c-.415 0-.81.11-1.17.313a3.1 3.1 0 0 0-.953.857c-.542.723-.877 1.722-.877 2.83v14h30v-14c0-1.108-.334-2.107-.877-2.83a3.1 3.1 0 0 0-.953-.857 2.4 2.4 0 0 0-1.17-.313z" style="fill:url(#e)"/><path d="M384.571 534.798h32v3h-32z" style="fill:url(#f)"/><rect width="12" height="12" x="394.571" y="520.798" rx="6" style="opacity:.3;fill:#ebf9fe"/><path d="m404.571 523.698-7 7.1 10 10h9v-5z" style="opacity:.2;fill:url(#g);fill-rule:evenodd"/><rect width="10" height="10" x="395.571" y="-531.798" rx="5" style="fill:url(#h)" transform="scale(1 -1)"/><path d="M398.571 523.798v6l4.5-3z" style="fill:#fff;fill-rule:evenodd"/><path d="M397.571 540.798h6v4h-6z" style="fill:url(#i)"/><path d="M394.571 544.798h12v1h-12z" style="fill:#99a1a7"/><path d="M386.571 535.798h15v1h-15z" style="fill:#3092df"/><path d="M400.571 535.798h14v1h-14z" style="fill:#1c1e20"/><path d="M399.571 535.798h1v1h-1z" style="fill:#daebf9"/><path d="M388.571 517.798c-2.216 0-4 1.784-4 4v15c0 2.216 1.784 4 4 4h24c2.216 0 4-1.784 4-4v-15c0-2.216-1.784-4-4-4zm0 1h24c1.662 0 3 1.784 3 4v14h-30v-14c0-2.216 1.338-4 3-4" style="fill:url(#j);paint-order:stroke fill markers"/></g></svg>