<svg xmlns="http://www.w3.org/2000/svg" xmlns:xlink="http://www.w3.org/1999/xlink" width="48" height="48"><defs><linearGradient id="b"><stop offset="0" style="stop-color:#000;stop-opacity:1"/><stop offset="1" style="stop-color:#000;stop-opacity:0"/></linearGradient><linearGradient id="a"><stop offset="0" style="stop-color:#d8610f;stop-opacity:1"/><stop offset="1" style="stop-color:#eab355;stop-opacity:1"/></linearGradient><linearGradient xlink:href="#a" id="c" x1="25" x2="25" y1="44" y2="4" gradientUnits="userSpaceOnUse"/><linearGradient xlink:href="#b" id="d" x1="16" x2="44" y1="1018.362" y2="1046.362" gradientTransform="translate(0 -1004.362)" gradientUnits="userSpaceOnUse"/></defs><rect width="40" height="40" x="4" y="4" rx="3" ry="3" style="opacity:1;fill:url(#c);fill-opacity:1;stroke:none"/><path d="M25.309 11.33 11.193 25.445l5.668 5.666-2.056 2.057L25.637 44H41c1.662 0 3-1.338 3-3V25.707L33.133 14.84l-2.156 2.156z" style="opacity:.2;fill:url(#d);fill-opacity:1;stroke:none;stroke-width:2;stroke-linecap:butt;stroke-linejoin:round;stroke-miterlimit:4;stroke-dasharray:none;stroke-opacity:1"/><path d="M4 40v1c0 1.662 1.338 3 3 3h34c1.662 0 3-1.338 3-3v-1c0 1.662-1.338 3-3 3H7c-1.662 0-3-1.338-3-3" style="opacity:.15;fill:#000;fill-opacity:1"/><path d="M23.607 11.002c-.725.027-1.123.27-1.382.793-.167.336-.303.894-.303 1.242 0 1.276-1.29 2.441-2.703 2.441-.694 0-1.074-.19-2.479-1.242-.639-.478-1.043-.355-2.035.621-.942.928-.965 1.372-.13 2.479.344.458.693 1.068.775 1.357.202.716-.13 2.026-.663 2.608-.436.477-1.519.85-2.464.85-.9 0-1.223.51-1.223 1.927 0 1.103.042 1.253.42 1.504.231.153.9.348 1.486.432.587.084 1.263.282 1.502.441.505.335 1.09 1.535 1.096 2.246.004.516-.393 1.429-.803 1.844-.446.452-.774 1.275-.656 1.65.15.481 1.17 1.51 1.7 1.713.302.117.522.083.816-.125.859-.61 2.328-1.271 2.824-1.271.747 0 1.988.66 2.26 1.203.128.256.287.85.355 1.322.164 1.143.425 1.683.861 1.775.199.042.517.113.707.157.191.045.62.045.953 0 .87-.117 1.335-.766 1.48-2.07.135-1.194.245-1.386 1.124-1.948.892-.57 1.59-.682 2.277-.363.57.264.8.4 1.733 1.023.684.456 1.11.38 1.9-.343 1.19-1.089 1.214-1.56.149-2.803-1.015-1.183-1.027-2.64-.03-3.758.382-.428.725-.577 1.856-.803 1.707-.34 1.985-.62 1.99-2.006.005-1.384-.215-1.61-1.818-1.86-1.526-.24-2.015-.584-2.551-1.792-.446-1.004-.322-1.593.629-2.973.488-.707.73-1.223.674-1.441-.126-.486-1.705-1.934-2.11-1.934-.187 0-.687.27-1.11.596-1.165.901-1.86 1.105-2.857.838-1.17-.314-1.587-.809-1.882-2.238-.34-1.642-.56-1.937-1.526-2.047a6 6 0 0 0-.842-.043z" style="opacity:1;fill:#fff;fill-opacity:1;fill-rule:nonzero;stroke:none;stroke-width:10.89999962;stroke-miterlimit:4;stroke-dasharray:none;stroke-opacity:.50273222"/><path d="M24 19a5 5 0 0 1 5 5 5 5 0 0 1-5 5 5 5 0 0 1-5-5 5 5 0 0 1 5-5" style="opacity:1;fill:#e89643;fill-opacity:1;fill-rule:nonzero;stroke:none;stroke-width:10.89999962;stroke-miterlimit:4;stroke-dasharray:none;stroke-opacity:.50273222"/></svg>