<svg xmlns="http://www.w3.org/2000/svg" xmlns:xlink="http://www.w3.org/1999/xlink" width="48" height="48"><defs><linearGradient xlink:href="#a" id="b" x1="31.5" x2="31.5" y1="59.018" y2="4.982" gradientTransform="translate(-.5 -1)" gradientUnits="userSpaceOnUse"/><linearGradient id="a"><stop offset="0" style="stop-color:#6f42c1;stop-opacity:1"/><stop offset="1" style="stop-color:#b49ddf;stop-opacity:1"/></linearGradient></defs><g transform="matrix(.75 0 0 .75 .75 .75)"><ellipse cx="31" cy="31.491" rx="27.5" ry="27.509" style="opacity:.2;stroke-width:.982302"/><ellipse cx="31" cy="30.509" rx="27.5" ry="27.509" style="fill:url(#b);stroke-width:.982302"/><path d="M31 3A27.5 27.509 0 0 0 3.5 30.509a27.5 27.509 0 0 0 .017.483A27.5 27.509 0 0 1 31 3.982a27.5 27.509 0 0 1 27.475 27.01 27.5 27.509 0 0 0 .025-.483A27.5 27.509 0 0 0 31 3" style="opacity:.1;fill:#fff;stroke-width:.982302"/><g fill="#fff" transform="matrix(1.1644 0 0 1.15152 6.476 5.09)"><circle cx="27.375" cy="32.625" r="6.375"/><circle cx="17.625" cy="24.125" r="4.125"/><circle cx="10.25" cy="19.625" r="2.5"/><path fill-opacity=".412" fill-rule="evenodd" d="M15 6c35.724 22.77 15 31.5-6 33 28.5-12 18-19.5 6-33"/></g></g></svg>