<svg xmlns="http://www.w3.org/2000/svg" xmlns:xlink="http://www.w3.org/1999/xlink" width="48" height="48"><defs><linearGradient id="a" x2="0" y1="543.8" y2="503.8" gradientTransform="matrix(1.125 0 0 1 -51.07 0)" gradientUnits="userSpaceOnUse"><stop stop-color="#c6cdd1"/><stop offset="1" stop-color="#e0e5e7"/></linearGradient><linearGradient id="c" x2="0" y1="543.8" y2="503.8" gradientTransform="translate(-5.059 -6.498)scale(1.0125)" gradientUnits="userSpaceOnUse"><stop stop-color="#1d1e1e"/><stop offset="1" stop-color="#44484c"/></linearGradient><linearGradient xlink:href="#a" id="e" x2="0" y1="506.8" y2="504.8" gradientUnits="userSpaceOnUse"/><linearGradient xlink:href="#a" id="f" x2="0" y1="508.8" y2="506.8" gradientUnits="userSpaceOnUse"/><linearGradient xlink:href="#a" id="g" x2="0" y1="510.8" y2="508.8" gradientUnits="userSpaceOnUse"/><linearGradient xlink:href="#a" id="h" x2="0" y1="512.8" y2="510.8" gradientUnits="userSpaceOnUse"/><linearGradient xlink:href="#a" id="i" x2="0" y1="514.8" y2="512.8" gradientUnits="userSpaceOnUse"/><linearGradient xlink:href="#a" id="j" x2="0" y1="516.8" y2="514.8" gradientUnits="userSpaceOnUse"/><linearGradient xlink:href="#a" id="k" x2="0" y1="518.8" y2="516.8" gradientUnits="userSpaceOnUse"/><linearGradient xlink:href="#a" id="l" x2="0" y1="520.8" y2="518.8" gradientUnits="userSpaceOnUse"/><linearGradient xlink:href="#a" id="n" x2="0" y1="523.8" y2="520.8" gradientUnits="userSpaceOnUse"/><linearGradient xlink:href="#a" id="o" x2="0" y1="33" y2="25" gradientUnits="userSpaceOnUse"/><linearGradient id="d" x1="10" x2="35" y1="7" y2="32" gradientUnits="userSpaceOnUse"><stop stop-color="#383e51"/><stop offset="1" stop-color="#655c6f" stop-opacity="0"/></linearGradient><linearGradient xlink:href="#a" id="b" x2="0" y1="543.8" y2="503.8" gradientTransform="matrix(1.09548 0 0 1 -38.766 0)" gradientUnits="userSpaceOnUse"/></defs><g stroke-opacity=".55" stroke-width="2.8" transform="matrix(1.02845 0 0 1.05 -396.185 -525.99)"><rect width="40.838" height="40" x="388.141" y="503.8" fill="url(#a)" rx="19.609" ry="19.904" style="fill:url(#b);stroke-width:2.76302"/><path fill="url(#c)" d="M404.686 504.092h7.883v39.416h-7.883z" style="fill:url(#c);stroke-width:2.835"/></g><path fill="url(#d)" fill-rule="evenodd" d="M28 7v3h-3l3 3v1h-3l3 3v1h-3l3 3v1h-3l17 17V21l-2-2zm-2 18v4h-1v4h-2l11 11h8v-3l-2-2z" opacity=".2" style="fill:url(#d)" transform="matrix(1.02845 0 0 1.05 -.673 -1.2)"/><g stroke-opacity=".55" stroke-width="2.8"><path fill="url(#e)" d="M404.57 504.8v3h3v-1h1v-1h-1v-1z" style="fill:url(#e)" transform="matrix(1.02845 0 0 1.05 -396.185 -525.99)"/><path fill="url(#f)" d="M412.57 506.8v3h-3v-1h-1v-1h1v-1z" style="fill:url(#f)" transform="matrix(1.02845 0 0 1.05 -396.185 -525.99)"/><path fill="url(#g)" d="M404.57 508.8v3h3v-1h1v-1h-1v-1z" style="fill:url(#g)" transform="matrix(1.02845 0 0 1.05 -396.185 -525.99)"/><path fill="url(#h)" d="M412.57 510.8v3h-3v-1h-1v-1h1v-1z" style="fill:url(#h)" transform="matrix(1.02845 0 0 1.05 -396.185 -525.99)"/><path fill="url(#i)" d="M404.57 512.8v3h3v-1h1v-1h-1v-1z" style="fill:url(#i)" transform="matrix(1.02845 0 0 1.05 -396.185 -525.99)"/><path fill="url(#j)" d="M412.57 514.8v3h-3v-1h-1v-1h1v-1z" style="fill:url(#j)" transform="matrix(1.02845 0 0 1.05 -396.185 -525.99)"/><path fill="url(#k)" d="M404.57 516.8v3h3v-1h1v-1h-1v-1z" style="fill:url(#k)" transform="matrix(1.02845 0 0 1.05 -396.185 -525.99)"/><path fill="url(#l)" d="M412.57 518.8v3h-3v-1h-1v-1h1v-1z" style="fill:url(#l)" transform="matrix(1.02845 0 0 1.05 -396.185 -525.99)"/><path fill="url(#n)" d="M404.57 520.8v3h3v-1h1v-1h-1v-1z" style="fill:url(#n)" transform="matrix(1.02845 0 0 1.05 -396.185 -525.99)"/><path fill="url(#o)" d="M22 25v4h1v4h2v-4h1v-4zm1 1h2v2h-2z" style="fill:url(#o)" transform="matrix(1.02845 0 0 1.05 -.673 -1.2)"/></g></svg>