<svg xmlns="http://www.w3.org/2000/svg" width="48" height="48"><circle cx="24" cy="24" r="21" fill="#ae1b29" style="stroke-width:.77776;paint-order:stroke fill markers"/><circle cx="24" cy="24" r="18.667" fill="#fff" opacity=".15" style="stroke-width:.77776;paint-order:stroke fill markers"/><path fill="#fff" stroke-width=".784" d="M11.135 31.317 23.719 8.444l13.496 24.74s.077.19-.274.092c-.33-.093-.613-.368-.955-.339-.288.025-.46.438-.745.393-.408-.065-.617-.835-1.03-.823-.364.01-.274.701-.818.744-.482.04-.403-1.268-.888-1.309-.33-.027-.403 1.349-.81 1.348-.433 0 .017-1.979-.606-2.012-.487-.025-.22 1.737-.657 1.74-.604.002-.091-2.887-.836-2.875-.53.008.04 2.674-.65 2.666-.634-.008-.022-4.126-.735-4.076-.587.041.072 3.684-.574 3.699-.783.018-.004-5.074-.781-5.08-.688-.006-.072 4.504-.701 4.504-.767 0 .002-5.82-.727-5.857-.794-.042.194 5.845-.672 5.84-.835-.007.239-7.389-.729-7.46-.792-.057.217 6.91-.596 6.941-.855.032.258-8.116-.753-8.118-.74-.002.052 7.806-.714 7.916-.709-.155.141-8.62-.686-8.623-.854-.002.144 8.417-.74 8.436-.741.01.315-8.448-.658-8.416-.895.026.034 8.381-.702 8.368-.793-.01.204-7.73-.686-7.68-.678.346-.026 5.97-.677 7.757-.713-.702.052-5.53-.742-6.38-.65.928-.141 6.497-.67 6.518-.65.031-.032-4.369-.73-4.41-.416-.025-.638 4.983-1.15 5.003-.593.059-.528-2.817-.939-2.808-.476.06-.351 3.147-.976 3.154-.359.085-.446-1.216-.767-1.186-.288.027-.342 1.37-.818 1.61-.436.06-.224-.41.115-1.143" color="#000"/></svg>