<svg xmlns="http://www.w3.org/2000/svg" xmlns:xlink="http://www.w3.org/1999/xlink" width="48" height="48"><defs><linearGradient id="b"><stop offset="0" style="stop-color:#55bcf2;stop-opacity:1"/><stop offset="1" style="stop-color:#1a80e2;stop-opacity:1"/></linearGradient><linearGradient xlink:href="#b" id="d" x1="17.25" x2="17.25" y1="29.643" y2="3.056" gradientTransform="translate(-.46 -.637)scale(1.44392)" gradientUnits="userSpaceOnUse"/><clipPath id="e" clipPathUnits="userSpaceOnUse"><path d="M24.509 5.884c-2.742 0-5.471.55-8.011 1.622a21 21 0 0 0-6.818 4.647 21.7 21.7 0 0 0-4.593 7.01 22.2 22.2 0 0 0-1.614 8.312c0 2.853.548 5.685 1.616 8.312a21.7 21.7 0 0 0 4.593 7.01 21 21 0 0 0 6.817 4.648 20.6 20.6 0 0 0 7.824 1.616l.187.006c6.512.308 11.76-2.276 15.6-6.028 2.625-2.565 4.688-5.593 6.57-8.68 1.883 3.087 3.945 6.115 6.57 8.68 3.841 3.752 9.088 6.336 15.6 6.028l.187-.006a20.55 20.55 0 0 0 7.818-1.616 21 21 0 0 0 6.824-4.647l.011-.025a21.7 21.7 0 0 0 4.582-6.986 22.2 22.2 0 0 0 1.614-8.31c0-2.854-.548-5.686-1.616-8.313l-.018-.036a21.7 21.7 0 0 0-4.577-6.975 21.1 21.1 0 0 0-6.817-4.648 20.6 20.6 0 0 0-8.009-1.62c-6.86 0-12.28 2.821-16.28 6.745-2.315 2.265-4.192 4.857-5.892 7.508-1.7-2.65-3.577-5.243-5.889-7.508-4.003-3.926-9.422-6.747-16.283-6.747Zm-.073 6.173c5.474 0 8.97 1.961 12.176 5.208 2.542 2.573 4.771 6.074 6.98 9.891-2.521 4.46-4.958 8.534-7.697 11.297-3.019 3.045-6.148 4.725-11.26 4.43h-.198c-1.95 0-3.915-.412-5.709-1.194a14.9 14.9 0 0 1-4.75-3.321l-.054-.054a15.6 15.6 0 0 1-3.179-4.994 16.078 16.078 0 0 1 .001-11.695 15.6 15.6 0 0 1 3.177-4.991l.054-.06a14.9 14.9 0 0 1 4.75-3.322 14.4 14.4 0 0 1 5.707-1.19zm44.485 0c1.95 0 3.915.411 5.708 1.193a14.9 14.9 0 0 1 4.75 3.322l.055.06a15.6 15.6 0 0 1 3.176 4.991 16.1 16.1 0 0 1 1.102 5.845c0 1.989-.377 4-1.103 5.847a15.6 15.6 0 0 1-3.177 4.997l-.054.054a14.9 14.9 0 0 1-4.75 3.322 14.4 14.4 0 0 1-5.708 1.193h-.2c-5.11.293-8.24-1.386-11.258-4.432-2.737-2.762-5.175-6.836-7.697-11.295 2.21-3.818 4.438-7.32 6.981-9.891 3.207-3.247 6.704-5.21 12.175-5.21z" style="fill:#fff;stroke-width:3.08621"/></clipPath></defs><rect width="42" height="42" x="3" y="3" rx="21" ry="21" style="fill:url(#d);fill-opacity:1;stroke-width:3.88082;stroke-linecap:round;stroke-linejoin:round"/><path d="M16.175 16.156c-.997 0-1.989.2-2.913.589a7.6 7.6 0 0 0-2.479 1.686 7.9 7.9 0 0 0-1.67 2.544 8.03 8.03 0 0 0 0 6.032c.389.954.959 1.82 1.67 2.544a7.6 7.6 0 0 0 2.48 1.687c.902.38 1.871.577 2.845.586l.068.002c2.368.112 4.276-.826 5.673-2.187.954-.931 1.704-2.03 2.389-3.15.684 1.12 1.434 2.22 2.389 3.15C28.023 31 29.93 31.938 32.3 31.826q.034 0 .068-.002a7.5 7.5 0 0 0 2.842-.586 7.65 7.65 0 0 0 2.482-1.687l.009-.008a7.9 7.9 0 0 0 1.666-2.536 8.03 8.03 0 0 0-.001-6.032l-.008-.013a7.9 7.9 0 0 0-1.664-2.531 7.7 7.7 0 0 0-2.48-1.687 7.5 7.5 0 0 0-2.912-.588c-2.495 0-4.465 1.024-5.92 2.448-.842.822-1.524 1.763-2.142 2.725-.619-.962-1.301-1.903-2.142-2.725-1.456-1.425-3.426-2.448-5.921-2.448zm-.026 2.24c1.99 0 3.262.712 4.428 1.89.924.934 1.735 2.204 2.538 3.59-.917 1.618-1.803 3.096-2.8 4.099-1.097 1.105-2.235 1.714-4.094 1.607h-.072c-.709 0-1.423-.15-2.076-.433a5.4 5.4 0 0 1-1.727-1.205l-.02-.02a5.7 5.7 0 0 1-1.156-1.812 5.824 5.824 0 0 1 0-4.244 5.65 5.65 0 0 1 1.156-1.811l.02-.022a5.4 5.4 0 0 1 1.727-1.205 5.2 5.2 0 0 1 2.075-.432zm16.176 0c.71 0 1.424.15 2.076.433.643.28 1.237.696 1.727 1.205l.02.022a5.65 5.65 0 0 1 1.155 1.811 5.83 5.83 0 0 1 0 4.243 5.7 5.7 0 0 1-1.155 1.813l-.02.02c-.49.51-1.084.925-1.727 1.205a5.2 5.2 0 0 1-2.076.434h-.072c-1.859.106-2.997-.503-4.094-1.609-.996-1.002-1.882-2.48-2.8-4.099.804-1.385 1.615-2.656 2.54-3.589 1.165-1.178 2.437-1.89 4.427-1.89z" style="fill:#fff;stroke-width:1.1211"/><path d="M32.198 20.009c-.712 0-1.286.572-1.286 1.283v1.283h-1.286c-.712 0-1.285.572-1.285 1.283 0 .71.573 1.282 1.285 1.282h1.286v1.284c0 .71.574 1.283 1.286 1.283s1.285-.572 1.285-1.283V25.14h1.286a1.281 1.281 0 1 0 0-2.566h-1.286v-1.282c0-.71-.573-1.283-1.285-1.283m-18.275 2.566c-.712 0-1.286.572-1.286 1.283 0 .71.574 1.282 1.286 1.282h5.143a1.281 1.281 0 1 0 0-2.566z" style="fill:#fff;fill-opacity:1;fill-rule:evenodd;stroke:none;stroke-width:.274585;stroke-linecap:round;stroke-linejoin:round;stroke-miterlimit:4;stroke-dasharray:none;stroke-dashoffset:0;stroke-opacity:.992157"/></svg>
