<svg xmlns="http://www.w3.org/2000/svg" xmlns:xlink="http://www.w3.org/1999/xlink" width="48" height="48"><defs><linearGradient id="g" x2="0" y1="38" y2="13" gradientTransform="matrix(1.0069 0 0 1.02209 -37.23 5.249)" gradientUnits="userSpaceOnUse"><stop stop-color="#8e44ad"/><stop offset="1" stop-color="#9b59b6"/></linearGradient><linearGradient id="f" x1="-2.994" x2="-41.26" y1="37.956" y2="-.883" gradientTransform="translate(0 -1.022)" gradientUnits="userSpaceOnUse"><stop stop-color="#34495e"/><stop offset="1" stop-color="#1c7865"/></linearGradient><linearGradient id="a" x1="-14.65" x2="-6.43" y1="9.178" y2="17.522" gradientTransform="translate(1.01 -1.022)" gradientUnits="userSpaceOnUse"><stop/><stop offset="1" stop-opacity="0"/></linearGradient><linearGradient xlink:href="#a" id="d" x1="-28.756" x2="-10.858" y1="9.268" y2="27.436" gradientTransform="translate(0 -1.022)" gradientUnits="userSpaceOnUse"/><linearGradient id="b" x1="-41.26" x2="-2.994" y1="-.883" y2="37.956" gradientTransform="translate(-1.01 -1.022)" gradientUnits="userSpaceOnUse"><stop stop-color="#66b036"/><stop offset="1" stop-color="#239161"/></linearGradient></defs><path fill="url(#b)" d="M-36.03-.883c-2.894 0-5.137 2.332-5.223 5.224v33.615h33.04a5.21 5.21 0 0 0 5.223-5.224V-.883z" transform="matrix(.99317 0 0 .97839 45.973 4.864)"/><g fill-rule="evenodd" stroke-width="1.014"><path fill="url(#d)" d="m-29.17 6.271-3.02 4.088 2.458 17.375 3.02 2.044-1.074 2.044 4.332 4.398 13.01-1.912a3.26 3.26 0 0 0 1.363-.603l-5.54-8.686.794-9.199-9.06-9.199z" opacity=".2" transform="matrix(.99317 0 0 .97839 45.973 4.864)"/><path fill="url(#a)" d="m-12.06 7.293-3.02 20.442 6.751 6.853c1.063-.939 2.311-3.634 2.311-5.304V13.426z" opacity=".2" transform="matrix(.99317 0 0 .97839 45.973 4.864)"/></g><g stroke-linejoin="bevel" stroke-width="2"><path fill="#fff" d="M18.999 10c-4.003 0-7.002 2-7.002 11.5 0 7.836 2.134 10.564 5.05 11.28.521 6.037 6.95 4.22 6.95 4.22v-2s-2.593.86-2.955-2.241c2.869-.753 4.955-3.509 4.955-11.26 0-9.5-2.999-11.5-7.001-11.5m0 2c1.996 0 2.999 1.653 2.999 9.5s-1.003 9.5-3 9.5c-1.996 0-2.999-1.652-2.999-9.5 0-7.846 1.003-9.5 3-9.5"/><path fill="url(#f)" d="M-2.994 31.71a5.21 5.21 0 0 1-5.223 5.224h-33.04v1.022h33.04a5.21 5.21 0 0 0 5.223-5.224z" transform="matrix(.99317 0 0 .97839 45.973 4.864)"/></g><path fill="#fff" fill-rule="evenodd" d="M30.996 12h3v4h1.996v1.999h-1.997v11c0 2 1.997.5 1.997.5v2s-6 3.5-6-2.5v-11H28.99v-2h1.003z"/><path fill="url(#g)" d="M-6.01 18.536c-1.958 0-3.786.697-5.074 2-1.288 1.307-1.974 3.163-1.974 5.15h4.03c0-1.079.32-1.778.794-2.26s1.163-.806 2.226-.806 1.752.325 2.226.806.794 1.181.794 2.26c0 .937-.182 1.336-.425 1.689s-.641.687-1.233 1.108-1.379.906-2.106 1.767-1.27 2.165-1.27 3.613v1.022h4.03v-1.022c0-.596.084-.697.301-.954s.691-.603 1.357-1.076 1.527-1.098 2.228-2.118 1.148-2.41 1.148-4.03c0-1.987-.687-3.843-1.974-5.15-1.288-1.307-3.116-2-5.074-2m-2.01 18.398v4.088h4.03v-4.088z" transform="matrix(.99317 0 0 .97839 45.973 4.864)"/><g fill="#713e88"><g color="#4d4d4d"><path d="M40.997 40.996H42v4h-1.003zM40.997 38.002H42v1h-1.003z"/></g><path fill-rule="evenodd" d="M40.004 23c.277-.007.581.013.895.054a8 8 0 0 0-.895-.055m1.018.073c1.003.15 2.112.543 2.975 1.24 1.172.947 1.935 3.378 1.996 5.696v.004c.014 1.48-.405 2.747-1.223 3.851-.371.502-1.272 1.046-2.11 1.655-.418.304-.825.63-1.14 1.033s-.537.904-.517 1.467l1.003-.035c.002-.565.086-.668.3-.916.215-.252.686-.59 1.347-1.053s1.517-1.074 2.213-2.072a6 6 0 0 0 .472-.814q.205-.43.35-.914c.025-.083.039-.171.06-.256.07-.264.138-.528.178-.81v-.004q.08-.56.077-1.15v-.007c-.063-2.564-1.102-4.375-2.486-5.496l-.006-.003c-.976-.773-2.184-1.25-3.486-1.414" color="#000"/></g></svg>