<svg xmlns="http://www.w3.org/2000/svg" xmlns:xlink="http://www.w3.org/1999/xlink" width="48" height="48" version="1"><defs><linearGradient id="a"><stop offset="0" style="stop-color:#009467;stop-opacity:1"/><stop offset="1" style="stop-color:#87d770;stop-opacity:1"/></linearGradient><linearGradient xlink:href="#a" id="b" x1="-44" x2="-4" y1="-24" y2="-24" gradientUnits="userSpaceOnUse"/></defs><rect width="40" height="40" x="-44" y="-44" rx="20" ry="20" style="fill:url(#b);fill-opacity:1" transform="scale(1 -1)rotate(90)"/><path d="M4.012 23.5c-.004.167-.012.332-.012.5 0 11.08 8.92 20 20 20s20-8.92 20-20c0-.168-.008-.333-.012-.5A19.95 19.95 0 0 1 24 43 19.95 19.95 0 0 1 4.012 23.5Z" style="opacity:.15"/><path d="M24.51 22.994c-.828 0-1.5.676-1.5 1.504a1.5 1.5 0 0 0 3 0c0-.828-.672-1.504-1.5-1.504" style="fill:#fff"/><path d="M33.5 27.5s3.042-1.081 3-3c-.076-3.468-9.244-4.932-12.5-5-7.07-.148-12.331 1.358-12.5 4s3 3 3 3" style="fill:none;stroke:#fff;stroke-width:1px;stroke-linecap:round;stroke-linejoin:round;stroke-opacity:1"/><path d="M30.5 17.5s1.12-3.767-.562-4.69c-3.04-1.668-8.893 5.64-10.58 8.426-3.663 6.049-4.99 11.358-2.786 12.825S20.5 33.5 20.5 33.5" style="fill:none;stroke:#fff;stroke-width:1px;stroke-linecap:round;stroke-linejoin:round;stroke-opacity:1"/><path d="M21.5 14.5s-2.168-2.356-3.809-1.36c-2.965 1.8.351 10.471 1.92 13.325 3.407 6.197 7.342 10 9.714 8.825 5.166-1.98-.825-12.79-.825-12.79" style="fill:none;stroke:#fff;stroke-width:1px;stroke-linecap:round;stroke-linejoin:round;stroke-opacity:1"/></svg>