<svg xmlns="http://www.w3.org/2000/svg" xmlns:xlink="http://www.w3.org/1999/xlink" width="48" height="48"><defs><linearGradient xlink:href="#a" id="d" x1="-23.688" x2="146.725" y1="-24.028" y2="140.728" gradientTransform="matrix(.3242 0 0 .3242 387.584 502.857)" gradientUnits="userSpaceOnUse"/><linearGradient id="a"><stop offset="0" style="stop-color:#006680;stop-opacity:1"/><stop offset=".252" style="stop-color:#80b3ff;stop-opacity:1"/><stop offset=".459" style="stop-color:#06f;stop-opacity:1"/><stop offset=".899" style="stop-color:#025;stop-opacity:1"/><stop offset="1" style="stop-color:#006680;stop-opacity:0"/></linearGradient><linearGradient xlink:href="#b" id="c" x1="-1.414" x2="154.149" y1="88.048" y2="89.816" gradientTransform="matrix(.3242 0 0 .3242 387.584 502.857)" gradientUnits="userSpaceOnUse"/><linearGradient id="b"><stop offset="0" style="stop-color:#fc0;stop-opacity:1"/><stop offset=".245" style="stop-color:#ff0;stop-opacity:1"/><stop offset=".586" style="stop-color:red;stop-opacity:1"/><stop offset="1" style="stop-color:#fc0;stop-opacity:0"/></linearGradient></defs><path d="M406.186 538.367c-.74-3.154-1.421-5.963-1.512-6.244-.193-.597-.469-.676-.568-.161-.078.402-1.245 9.402-1.251 9.646-.009.359-.237-.249-1.17-3.117l-.962-2.956.008-2.58.008-2.578.586 1.915c.322 1.054.642 2.012.711 2.13.23.388.405.14.55-.776.148-.945.924-8.235 1.059-9.96.043-.546.114-.994.158-.994.043 0 .412 1.415.82 3.144.866 3.68 2.126 8.543 2.283 8.813.15.256.32.236.46-.054.1-.208 1.328-8.915 1.808-12.816l.159-1.29.15.591c.083.325.57 2.405 1.083 4.621 1.426 6.16 1.538 6.556 1.842 6.556.086 0 .184-.084.218-.188.097-.293.387-2.38.787-5.669.201-1.655.404-3.097.45-3.205.057-.131.307.49.765 1.9l.679 2.097-.007 2.452-.007 2.452-.333-1.056c-.343-1.085-.517-1.378-.709-1.195-.111.106-.426 2.147-1.134 7.356-.445 3.278-.543 3.877-.608 3.708-.023-.06-.52-2.453-1.106-5.32-1.3-6.362-1.295-6.342-1.507-6.415-.36-.126-.277-.613-1.34 7.812-.467 3.695-.887 6.806-.935 6.916-.055.124-.588-1.932-1.435-5.535z" style="opacity:1;fill:url(#c);fill-opacity:1;stroke:none;stroke-width:2.41100001;stroke-miterlimit:4;stroke-dasharray:none;stroke-dashoffset:0;stroke-opacity:1" transform="matrix(.99716 0 0 .99857 -383.362 -499.13)"/><path d="M408.506 503.85c-1.93-.006-3.852.31-5.785.948-5.8 1.914-10.049 6.592-11.645 12.823-.59 2.304-.604 2.52-.593 9.198.009 5.598.022 6.08.187 6.89.587 2.886 2.477 5.15 5.163 6.265.29.12.59.241.898.334.118.036.255.057.373.105.26.105.482.252.59.345.773.67 2.083-.522 2.347-1.258.008-.023.017-.293.024-.602a7.5 7.5 0 0 1-.126-1.381l.058-11.655q.004-.838.174-1.625l-.177-.166c-.368-.345-.002-1.082-.787-1.086-.65-.003-.807.031-1.313.282-.316.157-.868.37-1.227.473-.98.283-2.15.91-3.033 1.626-.434.351-.812.639-.839.639s-.039-.947-.025-2.104l.024-2.104.272-.03a.6.6 0 0 0 .299-.111c.033-.034.158-.509.239-1.081 1.084-7.648 5.581-12.434 12.722-13.54 1.342-.207 3.844-.207 5.023 0 4.508.796 8.467 3.81 10.59 8.064.919 1.842 1.37 3.403 1.61 5.566.08.72.139.907.228.986.036.031.059.068.12.076.421.055.44.2.439 2.191 0 1.023-.038 1.918-.083 1.988-.064.101-.196.024-.626-.364-.797-.722-1.941-1.369-3.022-1.709-.51-.16-1.144-.395-1.407-.52-.928-.443-1.66-.653-2.226-.125l-.28.261v.043q.146.726.147 1.495v13.52q-.002.64-.103 1.253c.016.443.042.676.083.757.064.124.314.324.555.443.356.177-.122.275.477.274.802 0 1.061-.18 1.481-.518.065-.06.438-.21.662-.311.204-.092.457-.133.701-.215 1.353-.46 2.249-1.026 3.326-2.106 1.069-1.073 1.643-1.974 2.118-3.327.702-2.408.336-5.077.351-7.576.029-7.292.022-7.437-.519-9.65-.807-3.306-2.421-6.16-4.814-8.514a17.6 17.6 0 0 0-6.821-4.183c-1.963-.65-3.9-.978-5.83-.984z" style="fill:url(#d);fill-opacity:1" transform="matrix(.99716 0 0 .99857 -383.362 -499.13)"/><path d="M416.477 541.09a1.7 1.7 0 0 1-.553-.259l-.241-.18-.017-2.937a788 788 0 0 0-.125-8.425c-.081-4.11-.082-5.538-.003-5.685.366-.684 2.434-.863 3.181-.275l.239.187-.011 8.373c-.006 4.431-.038 8.191-.072 8.592q-.001.02-.003.028v.003l-.007.02c-.107.35-.636.577-1.424.61-.27.01-.58 0-.792-.024a1 1 0 0 1-.146-.023z" style="fill:#0f2d61;stroke:#0f2d61;stroke-width:.65561908;stroke-miterlimit:4;stroke-dasharray:none;stroke-opacity:1" transform="matrix(.99716 0 0 .99857 -383.362 -499.13)"/><path d="M398.608 540.946c-.663-.186-.616.198-.71-5.81-.08-5.116-.07-11.192.02-11.504.143-.493 2.03-.74 2.902-.38.818.337.774-.07.662 6.043-.055 2.976-.1 6.695-.1 8.265-.001 1.669-.04 2.922-.097 3.019-.16.28-.817.461-1.642.452-.415-.005-.881-.043-1.035-.085z" style="fill:#0f2d61;stroke:#0f2d61;stroke-width:.67285562;stroke-miterlimit:4;stroke-dasharray:none;stroke-opacity:1" transform="matrix(.99716 0 0 .99857 -383.362 -499.13)"/><path d="m390.78 525.234.008-2.157.017-1.062h1.946l.026 1.82.026 1.82-.464.477c-.537.551-1.097 1.359-1.335 1.927-.091.217-.133.583-.208.395a93 93 0 0 1-.016-3.22z" style="fill:#0f2d61;stroke:#0f2d61;stroke-width:.61110938;stroke-miterlimit:4;stroke-dasharray:none;stroke-opacity:1" transform="matrix(.99716 0 0 .99857 -383.362 -499.13)"/><path d="m426.233 525.194-.027-3.218h-2.022l-.027 1.82-.029 1.797.485.498c.547.562 1.14 1.358 1.387 1.925.092.21.115.35.213.394l.003.001c.024-.06.031-1.458.017-3.217z" style="fill:#0f2d61;stroke:#0f2d61;stroke-width:.61513424;stroke-miterlimit:4;stroke-dasharray:none;stroke-opacity:1" transform="matrix(.99716 0 0 .99857 -383.362 -499.13)"/></svg>