<svg xmlns="http://www.w3.org/2000/svg" width="48" height="48"><defs><clipPath id="a"><circle cx="8.467" cy="288.53" r="6.879" fill="#d86eb0" stroke-opacity=".039" stroke-width=".491" style="paint-order:stroke markers fill"/></clipPath></defs><circle cx="24" cy="24" r="21" fill="#4d4d4d" style="paint-order:stroke markers fill"/><circle cx="23.999" cy="24" r="13.222" opacity=".15" style="paint-order:stroke markers fill"/><path fill="#fff" stroke-width=".963" d="M33.778 14.75h-2.503v3.282c-1.862-2.57-4.097-3.721-7.309-3.721-5.55 0-9.744 4.197-9.744 9.744s4.228 9.64 9.946 9.64c3.144 0 5.107-1.013 7.104-3.687v3.248h2.503zm-9.744 1.862c4.09 0 7.238 3.181 7.238 7.309 0 4.228-3.114 7.476-7.104 7.476-4.195 0-7.41-3.282-7.41-7.51a7.263 7.263 0 0 1 7.276-7.275" aria-label="a" font-size="11.082" font-weight="400" letter-spacing="0" word-spacing="0"/><g fill="none" stroke="#fff" stroke-opacity=".937" stroke-width=".127" clip-path="url(#a)" transform="matrix(3.05279 0 0 3.05279 -1.847 -857.203)"><path d="M1.485 287.74c.72.155 1.391.625 1.983 1.98.674 1.545 1.623 2.23 2.772 2.284 1.48.07 2.673-1.226 3.459-2.385 1.602-2.362 4.519-2.136 5.817-1.251" opacity=".35"/><path d="M1.493 288.13c.894-.35 2.083-.424 2.872.827.722 1.143 1.576 2.867 4.049 2.709 1.478-.095 2.956-.71 3.718-2.15.53-.933 1.26-1.872 2.293-2.104.382-.081.655-.07.976.057" opacity=".35"/><path d="M1.775 290.25c.947-.444 2.746-.953 4.197-.53 1.297.38 2.937 1.847 6.056 1.504.824-.09 1.522-.563 2.183-1.464.478-.652.75-1.02 1.306-1.167" opacity=".35"/></g></svg>