<svg xmlns="http://www.w3.org/2000/svg" width="48" height="48"><ellipse cx="24" cy="24.368" rx="21" ry="20.632" style="opacity:.2;stroke-width:.743392"/><ellipse cx="24" cy="23.632" rx="21" ry="20.632" style="fill:#53536c"/><path d="M24 11.842a9.75 9.579 0 0 0-9.75 9.58v3.105a4.125 4.053 0 0 0-3 3.894 4.125 4.053 0 0 0 4.125 4.053 4.125 4.053 0 0 0 1.875-.448v.448h2.25v-8.106h-2.25v.444a4.125 4.053 0 0 0-.75-.288V21.42a7.5 7.368 0 0 1 7.5-7.368 7.5 7.368 0 0 1 7.5 7.368v3.106a4.125 4.053 0 0 0-3 3.894 4.125 4.053 0 0 0 4.125 4.053 4.125 4.053 0 0 0 4.125-4.053 4.125 4.053 0 0 0-3-3.897V21.42A9.75 9.579 0 0 0 24 11.842M15.375 26.58a1.875 1.842 0 0 1 1.875 1.842 1.875 1.842 0 0 1-1.875 1.842 1.875 1.842 0 0 1-1.875-1.842 1.875 1.842 0 0 1 1.875-1.842m17.25 0A1.875 1.842 0 0 1 34.5 28.42a1.875 1.842 0 0 1-1.875 1.842 1.875 1.842 0 0 1-1.875-1.842 1.875 1.842 0 0 1 1.875-1.842" style="opacity:.2;stroke-width:.743392"/><path d="M24 11.105a9.75 9.579 0 0 0-9.75 9.58v3.105a4.125 4.053 0 0 0-3 3.894 4.125 4.053 0 0 0 4.125 4.053 4.125 4.053 0 0 0 1.875-.448v.448h2.25v-8.105h-2.25v.443a4.125 4.053 0 0 0-.75-.288v-3.103a7.5 7.368 0 0 1 7.5-7.368 7.5 7.368 0 0 1 7.5 7.368v3.106a4.125 4.053 0 0 0-3 3.894 4.125 4.053 0 0 0 4.125 4.053 4.125 4.053 0 0 0 4.125-4.053 4.125 4.053 0 0 0-3-3.897v-3.103A9.75 9.579 0 0 0 24 11.105m-8.625 14.737a1.875 1.842 0 0 1 1.875 1.842 1.875 1.842 0 0 1-1.875 1.842 1.875 1.842 0 0 1-1.875-1.842 1.875 1.842 0 0 1 1.875-1.842m17.25 0a1.875 1.842 0 0 1 1.875 1.842 1.875 1.842 0 0 1-1.875 1.842 1.875 1.842 0 0 1-1.875-1.842 1.875 1.842 0 0 1 1.875-1.842" style="fill:#2993e4;stroke-width:.743392"/><path d="M24 3A21 20.632 0 0 0 3 23.632a21 20.632 0 0 0 .016.431A21 20.632 0 0 1 24 3.737a21 20.632 0 0 1 20.984 20.2 21 20.632 0 0 0 .016-.305A21 20.632 0 0 0 24 3" style="opacity:.1;fill:#fff;stroke-width:.743392"/></svg>