<svg xmlns="http://www.w3.org/2000/svg" width="48" height="48" version="1"><path d="M3.038 24.632c-.009.246-.038.488-.038.737C3 36.799 12.366 46 24 46c11.633 0 20.999-9.201 20.999-20.631 0-.249-.03-.49-.038-.737-.396 11.083-9.582 19.894-20.962 19.894S3.433 35.716 3.037 24.632z" style="opacity:.2;stroke-width:.743392"/><rect width="42" height="41.263" x="3" y="4" rx="20.999" ry="20.631" style="fill:#c83771"/><path d="M24 4.001c-11.634 0-21 9.202-21 20.631 0 .249.03.49.038.737C3.434 14.286 12.62 5.475 24 5.475s20.566 8.811 20.962 19.894c.009-.247.038-.488.038-.737 0-11.43-9.366-20.63-21-20.63z" style="opacity:.1;fill:#fff;stroke-width:.743392"/><g style="opacity:.2"><path d="m22.213 21.033 4.996 4.909c.722.709 1.892.708 2.615 0 .722-.711.723-1.86 0-2.57l-4.996-4.909c-3.575-3.513-9.352-3.57-13.004-.178a2 2 0 0 0-.098.088l-.045.046-.047.044a2 2 0 0 0-.089.096 9.06 9.06 0 0 0 .181 12.776l4.997 4.908c.722.71 1.892.71 2.614 0s.723-1.86 0-2.569l-4.995-4.909a5.47 5.47 0 0 1-.045-7.777c2.199-2.111 5.736-2.097 7.916.045"/><path d="M28.663 14.498a1.794 1.794 0 0 0 0 2.568l4.997 4.909a5.47 5.47 0 0 1 .044 7.778c-2.2 2.11-5.736 2.097-7.916-.045L20.792 24.8a1.874 1.874 0 0 0-2.616 0 1.795 1.795 0 0 0 0 2.57l4.996 4.908c3.576 3.513 9.353 3.57 13.004.178q.05-.041.098-.087l.045-.046.048-.045q.047-.047.088-.097a9.06 9.06 0 0 0-.18-12.775l-4.996-4.908a1.874 1.874 0 0 0-2.616 0"/></g><g style="fill:#ff8bff"><path d="m22.213 20.296 4.996 4.909c.722.71 1.892.709 2.615 0 .722-.71.723-1.86 0-2.57l-4.996-4.909c-3.575-3.512-9.352-3.57-13.004-.178a2 2 0 0 0-.098.088l-.045.047-.047.043a2 2 0 0 0-.089.096 9.06 9.06 0 0 0 .181 12.776l4.997 4.908c.722.71 1.892.71 2.614 0s.723-1.86 0-2.569l-4.995-4.908a5.47 5.47 0 0 1-.045-7.778c2.199-2.111 5.736-2.096 7.916.045"/><path d="M28.663 13.76a1.794 1.794 0 0 0 0 2.57l4.997 4.908a5.47 5.47 0 0 1 .044 7.778c-2.2 2.11-5.736 2.097-7.916-.045l-4.996-4.908a1.874 1.874 0 0 0-2.616 0 1.795 1.795 0 0 0 0 2.57l4.996 4.908c3.576 3.513 9.353 3.57 13.004.178q.05-.04.098-.087l.045-.046.048-.045q.047-.047.088-.096a9.06 9.06 0 0 0-.18-12.776l-4.996-4.908a1.874 1.874 0 0 0-2.616 0"/></g></svg>