<svg xmlns="http://www.w3.org/2000/svg" xmlns:xlink="http://www.w3.org/1999/xlink" width="48" height="48"><defs><linearGradient id="d" x1="34" x2="24" y1="30" y2="28" gradientUnits="userSpaceOnUse"><stop stop-color="#f39c12"/><stop offset="1" stop-color="#ffc35a"/></linearGradient><linearGradient id="a" x1="24" x2="38" y1="30" y2="44" gradientUnits="userSpaceOnUse"><stop/><stop offset="1" stop-opacity="0"/></linearGradient><linearGradient id="h" x2="0" y1="37" y2="4" gradientUnits="userSpaceOnUse"><stop stop-color="#da4453"/><stop offset="1" stop-color="#ff7336"/></linearGradient><linearGradient xlink:href="#a" id="i" x1="20.438" x2="23.531" y1="22.313" y2="25.406" gradientUnits="userSpaceOnUse"/><linearGradient id="c" x2="0" y1="45" y2="24" gradientUnits="userSpaceOnUse"><stop stop-color="#60c0f4"/><stop offset="1" stop-color="#b9e9ff"/></linearGradient><linearGradient id="f" x1="32" x2="25" y1="23" y2="22" gradientTransform="translate(-1)" gradientUnits="userSpaceOnUse"><stop stop-color="#cea476"/><stop offset="1" stop-color="#dab58b"/></linearGradient><linearGradient xlink:href="#a" id="g" x1="25" x2="39" y1="24" y2="38" gradientUnits="userSpaceOnUse"/></defs><g fill-rule="evenodd"><path fill="url(#c)" d="M24 24s-1 .467-1 2 1 2 1 2v2s-6 1.867-6 8c0 6 2.933 6 6 6h10c3.067 0 6 0 6-6 0-6.133-6-8-6-8v-2s1-.467 1-2-1-2-1-2z" transform="translate(1)"/><path fill="#65c2f5" d="M27 24v7.473l-1.406.438s-1.138.359-2.324 1.334S21 35.586 21 38.001c0 2.674.536 3.302.965 3.59s1.502.41 3.035.41h10c1.533 0 2.607-.122 3.035-.41s.965-.916.965-3.59c0-2.414-1.084-3.781-2.27-4.756s-2.324-1.334-2.324-1.334L33 31.473V24z"/><path fill="url(#a)" d="m24 30 13.559 13.559C38.999 42.951 40 41.5 40 38c0-6.133-6-8-6-8z" opacity=".2" transform="translate(1)"/></g><g stroke-linejoin="bevel"><g stroke-width="2"><path fill="url(#d)" d="M24 28h10v2H24z" transform="translate(1)"/><path fill="#34495e" d="M21.742 35c-.447.78-.742 1.747-.742 3 0 2.674.536 3.302.965 3.59S23.467 42 25 42h10c1.533 0 2.607-.122 3.035-.41S39 40.674 39 38c0-1.253-.296-2.22-.742-3z"/></g><g stroke-linecap="round" stroke-width="4" transform="translate(1)"><rect width="10" height="2" x="24" y="22" fill="url(#f)" rx=".989"/><path fill="#cea476" d="M26 24h6v3h-6z"/></g></g><path fill="url(#g)" fill-rule="evenodd" d="m25 24 14.969 14.969c.019-.306.031-.625.031-.969 0-6.133-6-8-6-8v-2s1-.467 1-2-1-2-1-2z" opacity=".2" transform="translate(1)"/><g fill-rule="evenodd"><path fill="url(#h)" d="m33.998 4-2.33 1.143c-2.332 1.144-4.794 3.75-4.794 3.75l.366 2.944-.429.629-1.036-1.857-1.686 2.098 1.191 2.042-.023.034-1.491-1.694s-.971 1.143-3.95 5.402-5.441 9.217-5.441 9.217l.115 3.368c-.16.237-.33.494-.487.725l-.469-2.759-1.036 1.716-.26 1.655-.581.699s-.962 3.599-.778 4.249c.184.651 2.624-.628 2.624-.628l.129-.857 1.975-.635-2.198-.438.172-.287a9 9 0 0 0 1.154.278c1.393.254 2.33-.253 2.33-.253l1-1.273s-.777.541-1.652.699c-.861.157-2.326-.205-2.37-.216l.238-.393c.37-.094 3.703-.964 5.662-2.346 2.073-1.462 6.186-5.975 6.186-5.975s-.992-.009-3.129-.041c-2.01-.03-3.794-.016-4 0 .093-.149 0-1 0-1l8.586-1.344s.552-1.049 1.394-2.733S32 13.997 32 13.997s-1.462-.042-2.768-.221c-1.246-.172-2.425-.472-2.536-.5l.046-.07c.181-.084 1.346-.62 2.215-.891.939-.292 3.801-.697 3.801-.697s.023-.405.229-1.236c.206-.832.618-2.742.618-2.742l-4.981 2.806c.21-.288.408-.545.613-.817l4.551-2.663s.046-.584.137-1.348.072-1.621.072-1.621" transform="translate(-1)"/><path fill="#31363b" d="M33 4s-4.621 4.941-9.222 11.275-9.268 13.499-13.934 21.68c-4.052 7.104-2.586 7.05-2.586 7.05s.46-1.184 3.677-6.761c3.076-5.331 6.967-12.216 13.474-21.705 3.101-4.522 8.59-11.534 8.59-11.534"/><path fill="url(#i)" d="m33.998 4-.707.883-2.577 3.298-3.972 5.03c.181-.084 1.345-.62 2.215-.891.939-.292 3.801-.697 3.801-.697s.024-.405.23-1.236c.206-.832.617-2.742.617-2.742l-4.3 2.409c.21-.288.408-.544.613-.816l3.871-2.266s.045-.584.137-1.348.072-1.621.072-1.621m-7.256 9.209L19 24.003l8.586-1.344s.553-1.05 1.395-2.734 3.02-5.922 3.02-5.922-1.462-.041-2.768-.221c-1.246-.172-2.426-.472-2.537-.5zm-7.742 10.791-7.965 13.52c.58.204 2.465-.785 2.465-.785l.129-.855 1.977-.635-2.199-.439.172-.285c.263.081.573.171 1.154.277 1.393.254 2.328-.252 2.328-.252l1.01-1.273s-.778.54-1.652.699c-.861.157-2.325-.206-2.369-.217l.236-.393c.37-.094 3.703-.964 5.662-2.346 2.073-1.462 6.186-5.975 6.186-5.975s-.992-.009-3.129-.041c-2.01-.03-3.794-.016-4 0 .093-.149 0-1 0-1" opacity=".2" transform="translate(-1)"/></g></svg>