<svg xmlns="http://www.w3.org/2000/svg" xmlns:xlink="http://www.w3.org/1999/xlink" width="48" height="48"><defs><linearGradient id="a"><stop offset="0" style="stop-color:#f85b79;stop-opacity:1"/><stop offset="1" style="stop-color:#f85b79;stop-opacity:1"/></linearGradient><linearGradient xlink:href="#a" id="c" x1="18" x2="18" y1="4" y2="44" gradientTransform="translate(-1.2 -1.2)scale(1.05)" gradientUnits="userSpaceOnUse"/><linearGradient xlink:href="#b" id="d" x1="-56" x2="-16" y1="4" y2="44" gradientTransform="translate(60)" gradientUnits="userSpaceOnUse"/><linearGradient id="b" x1="10" x2="35" y1="7" y2="32" gradientTransform="translate(85 55)" gradientUnits="userSpaceOnUse"><stop stop-color="#383e51"/><stop offset="1" stop-color="#655c6f" stop-opacity="0"/></linearGradient></defs><rect width="42" height="42" x="3" y="3" rx="21" ry="21" style="color:#000;display:inline;overflow:visible;visibility:visible;fill:url(#c);fill-opacity:1;fill-rule:nonzero;stroke:none;stroke-width:1.12001;marker:none"/><path d="m8 29 15 15h21V20l-4-4h-5l-2-2-5 3 2 2h-2l-1.5-1H24l-4-4-5 3 2 2h-1l-3-3v3H8l2 2-2 3 2 2z" style="fill:url(#d);fill-opacity:1;fill-rule:evenodd;stroke:none;stroke-width:1px;stroke-linecap:butt;stroke-linejoin:miter;stroke-opacity:1;opacity:.2"/><path d="M15 14v3h5v-3zm13 0v3h5v-3zM8 16v3h5v-3zm27 0v3h5v-3zm-13.5 2v3h5v-3zM15 19v3h5v-3zm13 0v3h5v-3zM8 21v3h5v-3zm27 0v3h5v-3zm-13.5 2v3h5v-3zM15 24v3h5v-3zm13 0v3h5v-3zM8 26v3h5v-3zm27 0v3h5v-3zm-13.5 2v3h5v-3zM15 29v3h5v-3zm13 0v3h5v-3zm-6.5 4v3h5v-3z" style="color:#000;display:inline;overflow:visible;visibility:visible;fill:#fffbfb;fill-opacity:1;fill-rule:nonzero;stroke:none;stroke-width:1.13690269;marker:none"/></svg>