<svg xmlns="http://www.w3.org/2000/svg" xmlns:xlink="http://www.w3.org/1999/xlink" width="48" height="48"><defs><linearGradient id="b"><stop offset="0" style="stop-color:#000;stop-opacity:1"/><stop offset="1" style="stop-color:#000;stop-opacity:0"/></linearGradient><linearGradient id="a"><stop offset="0" style="stop-color:#f48b0b;stop-opacity:1"/><stop offset="1" style="stop-color:#ffba6b;stop-opacity:1"/></linearGradient><linearGradient xlink:href="#a" id="c" x1="23" x2="23" y1="43.866" y2="5" gradientUnits="userSpaceOnUse"/><linearGradient xlink:href="#b" id="d" x1="15.233" x2="39.609" y1="11.995" y2="36.37" gradientUnits="userSpaceOnUse"/></defs><circle cx="24" cy="24" r="20" style="fill:url(#c);fill-opacity:1"/><path d="m25.984 11.986-1.236 1.237.092 1.617-2.834-2.834-1.11 1.707-.699 5.092-3.51-2.483L15 18.01l4.664 4.664-1.05 7.654-3.596 1.66 11.87 11.871A20 20 0 0 0 43.33 29.332z" style="opacity:.2;fill:url(#d);fill-opacity:1;stroke:none;stroke-width:2;stroke-linecap:butt;stroke-linejoin:round;stroke-miterlimit:4;stroke-dasharray:none;stroke-opacity:1"/><path d="M20 12v4c-.492.02-1.394 0-1.865 0H15v2s1.719-.03 1.691 0c.92-.014 1.214.654 1.309 1.1V29c-.035.282-.005.98-.648 1 .03.026-2.352 0-2.352 0v2h3.254c.55-.02 1.214 0 1.746 0v4l2-.037V32h1.969l.062 4h2l-.062-4C32 32 32 29 32 27.498 32 26 31.366 24.002 29 24c1.366.002 2-2.257 2-4 0-2.257-2-4-5-4v-4h-2v4c-.597 0-1.394-.022-2 0v-4zm2 6c2 0 5 0 5 2.5S24 23 22 23zm0 7c4 0 6 0 6 2.5S26 30 22 30z" style="fill:#fff;fill-opacity:1"/><path d="M43.979 23.418A20 20 0 0 1 24 43 20 20 0 0 1 4.021 23.582 20 20 0 0 0 4 24a20 20 0 0 0 20 20 20 20 0 0 0 20-20 20 20 0 0 0-.021-.582" style="fill:#000;fill-opacity:1;opacity:.2"/></svg>