<svg xmlns="http://www.w3.org/2000/svg" width="48" height="48"><path fill-opacity=".996" d="M13.507 5.815C3.459 11.617.017 24.465 5.817 34.514a21.01 21.01 0 0 0 19.138 10.464c-4.43-.08-8.519-2.3-11.393-7.263-2.44-4.208-3.097-9.09-1.855-13.752 1.251-4.683 4.272-8.612 8.518-11.064l1.577 2.732c-3.514 2.029-6.016 5.28-7.048 9.145-1.027 3.846-.48 7.875 1.535 11.354 3.695 6.375 10.276 8.896 16.716 6.49-1.195.328-2.455.426-3.753.167-7.945-.63-13.734-6.63-13.764-14.265-.015-3.635 1.44-7.103 4.094-9.765 2.702-2.713 6.272-4.209 10.046-4.21l.002 3.16c-2.929 0-5.703 1.163-7.811 3.28-2.058 2.06-3.18 4.733-3.173 7.52.022 5.958 4.588 10.64 10.859 11.133 7.727.606 11.015-2.734 12.24-4.524-1.74 1.448-3.237 2.388-8.343 3.283-4.377.772-7.46-.757-8.314-1.246-.005-.001-.09-.053-.125-.076l-.056-.03.004-.002c-.019-.011-.065-.038-.067-.042l.002-.011a9.8 9.8 0 0 1-3.35-3.426 9.84 9.84 0 0 1-.012-9.846 9.79 9.79 0 0 1 5.972-4.585 9.78 9.78 0 0 1 7.461.986l.093.058-1.67 2.675a6.64 6.64 0 0 0-5.066-.668 6.66 6.66 0 0 0-4.057 3.11 6.69 6.69 0 0 0 .009 6.688 6.66 6.66 0 0 0 2.436 2.435c.001.002-.425-.254.02.011.443.265 2.724 1.47 6.17.864 5.679-.998 8.882-3.088 11.078-4.691a21 21 0 0 0-1.726-17.096C36.403 3.46 23.555.017 13.507 5.817ZM42.835 33.3c-.148.298-.342.643-.524.976q.275-.48.524-.976" style="fill:teal"/></svg>