<svg xmlns="http://www.w3.org/2000/svg" xmlns:xlink="http://www.w3.org/1999/xlink" width="48" height="48"><defs><linearGradient id="b"><stop offset="0" style="stop-color:#000;stop-opacity:1"/><stop offset="1" style="stop-color:#000;stop-opacity:0"/></linearGradient><linearGradient id="a"><stop offset="0" style="stop-color:#12375a;stop-opacity:1"/><stop offset="1" style="stop-color:#537596;stop-opacity:1"/></linearGradient><linearGradient xlink:href="#a" id="c" x1="24" x2="24" y1="1048.362" y2="1008.362" gradientTransform="translate(0 -1004.362)" gradientUnits="userSpaceOnUse"/><linearGradient xlink:href="#b" id="d" x1="16" x2="40" y1="11" y2="35" gradientUnits="userSpaceOnUse"/></defs><circle cx="24" cy="24" r="20" style="opacity:1;fill:url(#c);fill-opacity:1;stroke:none;stroke-width:2;stroke-linecap:butt;stroke-linejoin:round;stroke-miterlimit:4;stroke-dasharray:none;stroke-opacity:1"/><path d="M37.5 28S35 38 24 38c-10 0-14-9-14-13l3 2" style="opacity:1;fill:none;stroke:#f4f5f5;stroke-width:2;stroke-linecap:round;stroke-linejoin:round;stroke-miterlimit:4;stroke-dasharray:none;stroke-opacity:1"/><path d="m24.398 9.557-6.421 1.556-4.748 3.729-3.625 5.664L31.586 42.49A20 20 0 0 0 44 24a20 20 0 0 0-.047-1.299L34.451 13.2z" style="opacity:.2;fill:url(#d);fill-opacity:1;stroke:none;stroke-width:4;stroke-linecap:round;stroke-linejoin:round;stroke-miterlimit:4;stroke-dasharray:none;stroke-opacity:1"/><path d="M10.5 20S13 10 24 10c10 0 14 9 14 13l-3-2" style="opacity:1;fill:none;stroke:#f4f5f5;stroke-width:2;stroke-linecap:round;stroke-linejoin:round;stroke-miterlimit:4;stroke-dasharray:none;stroke-opacity:1"/><path d="M43.979 23.418A20 20 0 0 1 24 43 20 20 0 0 1 4.021 23.582 20 20 0 0 0 4 24a20 20 0 0 0 20 20 20 20 0 0 0 20-20 20 20 0 0 0-.021-.582" style="opacity:.15;fill:#000;fill-opacity:1;stroke:none;stroke-width:2;stroke-linecap:butt;stroke-linejoin:round;stroke-miterlimit:4;stroke-dasharray:none;stroke-opacity:1"/></svg>