<svg xmlns="http://www.w3.org/2000/svg" width="48" height="48" version="1"><rect width="42" height="41.263" x="3" y="3.737" rx="21" ry="20.632" style="opacity:.2;stroke-width:.743395"/><rect width="42" height="41.263" x="3" y="3" rx="21" ry="20.632" style="fill:#a02c5a;stroke-width:.743395"/><path d="M24 3C12.366 3 3 12.202 3 23.632c0 .123.008.245.01.368C3.21 12.742 12.492 3.737 24 3.737S44.79 12.742 44.99 24c.002-.123.01-.245.01-.368C45 12.202 35.634 3 24 3" style="opacity:.2;fill:#fff;stroke-width:.743395"/><g style="opacity:.2" transform="matrix(.75 0 0 .73684 0 .053)"><circle cx="20" cy="25" r="3"/><circle cx="28" cy="25" r="3"/><circle cx="36" cy="25" r="3"/><circle cx="44" cy="25" r="3"/><circle cx="12" cy="33" r="3"/><circle cx="20" cy="33" r="3"/><circle cx="28" cy="33" r="3"/><circle cx="36" cy="33" r="3"/><circle cx="44" cy="33" r="3"/><circle cx="52" cy="33" r="3"/><circle cx="12" cy="41" r="3"/><circle cx="20" cy="41" r="3"/><circle cx="44" cy="41" r="3"/><circle cx="52" cy="41" r="3"/></g><g style="fill:#fff" transform="matrix(.75 0 0 .73684 0 .053)"><circle cx="20" cy="24" r="3"/><circle cx="28" cy="24" r="3"/><circle cx="36" cy="24" r="3"/><circle cx="44" cy="24" r="3"/><circle cx="12" cy="32" r="3"/><circle cx="20" cy="32" r="3"/><circle cx="28" cy="32" r="3"/><circle cx="36" cy="32" r="3"/><circle cx="44" cy="32" r="3"/><circle cx="52" cy="32" r="3"/><circle cx="12" cy="40" r="3"/><circle cx="20" cy="40" r="3"/><circle cx="44" cy="40" r="3"/><circle cx="52" cy="40" r="3"/></g></svg>