<svg xmlns="http://www.w3.org/2000/svg" width="48" height="48"><ellipse cx="24" cy="24.362" rx="21" ry="20.638" style="opacity:.2;stroke-width:.730468"/><ellipse cx="24" cy="23.638" rx="21" ry="20.638" style="fill:#383e61;fill-opacity:1"/><path d="m24 7.128 10.5 3.095 5.25 8.255L24 23.638z" style="opacity:.21115974;fill:#8ff;stroke-width:.730468;stroke:teal;stroke-opacity:1;fill-opacity:1"/><path d="M24.026 6.62c-9.985 0-18.079 7.955-18.079 17.768.004 4.71 1.912 9.226 5.304 12.555.724.62 1.314.13 2.075-.555l2.592-2.546c.709-.676.216-1.86-.774-1.862a1.1 1.1 0 0 0-.79.325l-2.375 2.335c-2.257-2.57-3.554-5.797-3.78-9.192h3.265c.62.01 1.125-.49 1.115-1.103a1.093 1.093 0 0 0-1.115-1.07H8.2a15.37 15.37 0 0 1 3.843-9.127l2.31 2.271c.432.438 1.149.435 1.583-.006a1.07 1.07 0 0 0-.02-1.532l-2.31-2.27a15.93 15.93 0 0 1 9.288-3.776v3.206c-.021 1.461 2.231 1.461 2.21 0V8.833a15.95 15.95 0 0 1 9.323 3.745l-2.346 2.304a1.07 1.07 0 0 0-.019 1.531c.434.441 1.151.444 1.584.007L36 14.104a15.3 15.3 0 0 1 3.841 9.172h-3.28a1.093 1.093 0 0 0-1.115 1.07 1.093 1.093 0 0 0 1.115 1.103h3.266c-.055.82-.175 1.631-.353 2.425l-2.521-.663-.285 1.05 2.525.664a15.4 15.4 0 0 1-1.138 2.785l-2.294-1.301-.553.942 2.307 1.308a15 15 0 0 1-1.469 1.981l-2.375-2.335a1.1 1.1 0 0 0-.79-.325c-.99.002-1.483 1.186-.774 1.863l2.592 2.546c.76.684 1.351 1.175 2.075.554 3.392-3.329 5.3-7.844 5.303-12.555 0-.374-.003-.743-.026-1.112-.562-9.382-8.463-16.645-18.026-16.655" style="opacity:.2;stroke-width:.730468"/><path d="M24.026 5.897c-9.985 0-18.079 7.954-18.079 17.766.004 4.71 1.912 9.227 5.304 12.555.724.621 1.314.13 2.075-.554l2.592-2.546c.709-.676.216-1.86-.774-1.862a1.1 1.1 0 0 0-.79.325l-2.375 2.335c-2.257-2.57-3.554-5.797-3.78-9.192h3.265c.62.01 1.125-.49 1.115-1.103a1.093 1.093 0 0 0-1.115-1.07H8.2a15.37 15.37 0 0 1 3.843-9.127l2.31 2.271c.432.438 1.149.435 1.583-.006a1.07 1.07 0 0 0-.02-1.532l-2.31-2.27a15.93 15.93 0 0 1 9.288-3.776v3.206c-.021 1.461 2.231 1.461 2.21 0V8.11a15.95 15.95 0 0 1 9.323 3.745l-2.346 2.304a1.07 1.07 0 0 0-.019 1.531c.434.441 1.151.444 1.584.007L36 13.38a15.3 15.3 0 0 1 3.841 9.172h2.21C41.49 13.17 33.59 5.907 24.027 5.897" style="fill:teal;stroke-width:.730468"/><path d="m39.474 19.293-15.459 5.064" style="opacity:.2;fill:none;stroke:#000;stroke-width:2.19144;stroke-linecap:round;stroke-linejoin:round"/><path d="m39.474 18.569-15.459 5.064" style="fill:teal;stroke:teal;stroke-width:2.19144;stroke-linecap:round;stroke-linejoin:round;stroke-opacity:1"/><path d="M36.562 22.552a1.093 1.093 0 0 0-1.115 1.069 1.093 1.093 0 0 0 1.115 1.103h3.266c-.055.82-.174 1.632-.353 2.426l-2.521-.664-.285 1.05 2.526.665a15.4 15.4 0 0 1-1.139 2.784l-2.294-1.3-.552.941 2.307 1.308a15 15 0 0 1-1.47 1.982l-2.374-2.335a1.1 1.1 0 0 0-.79-.325c-.991.002-1.484 1.186-.775 1.862l2.592 2.546c.76.684 1.351 1.175 2.075.554 3.392-3.328 5.3-7.844 5.304-12.555 0-.374-.004-.743-.026-1.111h-2.228z" style="fill:#c83771;stroke-width:.730468"/><path d="M24 3A21 20.638 0 0 0 3 23.638a21 20.638 0 0 0 .016.421A21 20.638 0 0 1 24 3.724a21 20.638 0 0 1 20.984 20.217 21 20.638 0 0 0 .016-.303A21 20.638 0 0 0 24 3" style="opacity:.1;fill:#fff;stroke-width:.730468"/></svg>