<svg xmlns="http://www.w3.org/2000/svg" width="48" height="48"><path d="M24.803 3.753a20.999 20.63 0 0 0-6.237.687 20.999 20.63 0 0 0-14.85 25.268 20.999 20.63 0 0 0 25.718 14.59 20.999 20.63 0 0 0 14.85-25.268A20.999 20.63 0 0 0 24.803 3.753" style="opacity:.2;stroke-width:.743374"/><path d="M24.803 3.015a21 20.631 0 0 0-6.237.688 21 20.631 0 0 0-14.85 25.268 21 20.631 0 0 0 25.718 14.59 21 20.631 0 0 0 14.85-25.268A21 20.631 0 0 0 24.804 3.015" style="fill:#ffd42a;fill-opacity:1"/><ellipse cx="16.743" cy="29.676" rx="17.978" ry="17.705" style="opacity:.1;stroke-width:.743389" transform="matrix(.96705 -.25458 .26312 .96476 0 0)"/><ellipse cx="16.937" cy="28.964" rx="17.978" ry="17.705" style="fill:#273f57;stroke-width:.743389" transform="matrix(.96705 -.25458 .26312 .96476 0 0)"/><path d="M30.105 11.844a5.15 5.15 0 0 0-2.846.94c-.953.684-1.629 1.668-2.373 2.57-.372.452-.767.887-1.223 1.255s-.966.744-1.547.82c-1.17.151-2.39-.435-3.45-.798-1.1-.415-2.186-.934-3.358-1.056-1.618-.169-3.301.494-4.358 1.714S9.494 20.62 9.914 22.17c.421 1.55 1.652 2.863 3.185 3.398s3.326.277 4.642-.666c.953-.684 1.63-1.669 2.373-2.57.795-.973 1.63-1.93 2.77-2.37.544-.21 1.173-.148 1.755-.054s1.144.278 1.694.485c1.102.414 2.187.933 3.36 1.055 1.617.168 3.3-.493 4.357-1.713 1.056-1.22 1.457-2.67 1.036-4.22s-1.652-2.862-3.185-3.397a5 5 0 0 0-1.796-.274m.611 11.053a3.8 3.8 0 0 0-2.092.692c-.7.504-1.199 1.23-1.746 1.894a6.4 6.4 0 0 1-.9.925 3.1 3.1 0 0 1-1.136.603 3.1 3.1 0 0 1-1.289.04 6.5 6.5 0 0 1-1.248-.356c-.81-.306-1.606-.689-2.468-.779a3.79 3.79 0 0 0-3.203 1.262 3.7 3.7 0 0 0-.762 3.326 3.74 3.74 0 0 0 2.34 2.504 3.8 3.8 0 0 0 3.414-.49c.7-.504 1.199-1.23 1.746-1.895.273-.332.564-.654.899-.925a3.1 3.1 0 0 1 1.137-.603 3.1 3.1 0 0 1 1.289-.039c.427.07.843.203 1.248.356.81.305 1.606.688 2.468.778a3.79 3.79 0 0 0 3.203-1.262 3.7 3.7 0 0 0 .762-3.326 3.74 3.74 0 0 0-2.34-2.504 3.7 3.7 0 0 0-1.322-.201m-8.012 11.055q-.259.015-.509.082a2.65 2.65 0 0 0-1.595 1.202 2.57 2.57 0 0 0-.262 1.959c.178.652.628 1.229 1.223 1.567a2.7 2.7 0 0 0 1.994.257 2.65 2.65 0 0 0 1.595-1.201c.344-.585.44-1.306.262-1.959a2.62 2.62 0 0 0-2.708-1.907" style="opacity:.2;stroke-width:.743374"/><path d="M30.105 11.107a5.15 5.15 0 0 0-2.846.94c-.953.684-1.629 1.668-2.373 2.57-.372.451-.767.887-1.223 1.255s-.966.744-1.547.819c-1.17.152-2.39-.434-3.45-.797-1.1-.415-2.186-.935-3.358-1.057-1.618-.168-3.301.495-4.358 1.714-1.056 1.22-1.456 3.332-1.036 4.882.421 1.55 1.652 2.862 3.185 3.398 1.533.535 3.326.277 4.642-.667.953-.683 1.63-1.668 2.373-2.57.795-.972 1.63-1.93 2.77-2.369.544-.21 1.173-.148 1.755-.054.581.093 1.144.277 1.694.485 1.102.414 2.187.933 3.36 1.054 1.617.169 3.3-.492 4.357-1.712 1.056-1.22 1.457-2.67 1.036-4.22s-1.652-2.862-3.185-3.397a5 5 0 0 0-1.796-.274m.611 11.053a3.8 3.8 0 0 0-2.092.692c-.7.504-1.199 1.229-1.746 1.894a6.4 6.4 0 0 1-.9.925 3.1 3.1 0 0 1-1.136.603 3.1 3.1 0 0 1-1.289.039 6.5 6.5 0 0 1-1.248-.355c-.81-.306-1.606-.69-2.468-.779a3.79 3.79 0 0 0-3.203 1.262 3.7 3.7 0 0 0-.762 3.326 3.74 3.74 0 0 0 2.34 2.504 3.8 3.8 0 0 0 3.414-.49c.7-.505 1.199-1.23 1.746-1.895.273-.332.564-.654.899-.925a3.1 3.1 0 0 1 1.137-.603 3.1 3.1 0 0 1 1.289-.039c.427.07.843.203 1.248.356.81.305 1.606.688 2.468.778a3.79 3.79 0 0 0 3.203-1.262 3.7 3.7 0 0 0 .762-3.326 3.74 3.74 0 0 0-2.34-2.504 3.7 3.7 0 0 0-1.322-.201m-8.012 11.055q-.259.015-.509.082A2.65 2.65 0 0 0 20.6 34.5a2.57 2.57 0 0 0-.262 1.958c.178.653.628 1.23 1.223 1.568a2.7 2.7 0 0 0 1.994.257 2.65 2.65 0 0 0 1.595-1.201c.344-.586.44-1.306.262-1.96a2.62 2.62 0 0 0-2.708-1.906" style="fill:#fed909;stroke-width:.743374"/><path d="M24 3A21 20.631 0 0 0 3 23.633a21 20.631 0 0 0 .017.432A21 20.631 0 0 1 24 3.737a21 20.631 0 0 1 20.984 20.2 21 20.631 0 0 0 .015-.305A21 20.631 0 0 0 24 3" style="opacity:.2;fill:#fff;stroke-width:.743374"/><path d="M30.105 11.107a5.15 5.15 0 0 0-2.846.94c-.953.684-1.629 1.668-2.373 2.57-.372.451-.767.887-1.223 1.255s-.966.744-1.547.819c-1.17.152-2.39-.434-3.45-.797-1.1-.415-2.186-.935-3.358-1.057-1.618-.168-3.301.495-4.358 1.714-.85.982-1.266 2.538-1.18 3.918.074-1.17.48-2.371 1.18-3.18 1.057-1.22 2.74-1.883 4.358-1.715 1.172.122 2.257.642 3.359 1.057 1.06.363 2.278.949 3.45.797.58-.075 1.09-.45 1.546-.819s.851-.804 1.223-1.255c.744-.902 1.42-1.886 2.373-2.57a5.15 5.15 0 0 1 2.846-.94c.61-.016 1.221.073 1.796.274 1.533.535 2.764 1.847 3.185 3.397.078.288.12.572.142.852a4.5 4.5 0 0 0-.142-1.589c-.421-1.55-1.652-2.862-3.185-3.397a5 5 0 0 0-1.796-.274m.611 11.053a3.8 3.8 0 0 0-2.092.692c-.7.504-1.199 1.229-1.746 1.894a6.4 6.4 0 0 1-.9.925 3.1 3.1 0 0 1-1.136.603 3.1 3.1 0 0 1-1.289.039 6.5 6.5 0 0 1-1.248-.355c-.81-.306-1.606-.69-2.468-.779a3.79 3.79 0 0 0-3.203 1.262 3.7 3.7 0 0 0-.86 2.742c.08-.733.375-1.444.86-2.005a3.79 3.79 0 0 1 3.203-1.262c.862.09 1.658.473 2.468.778.405.153.82.287 1.248.356s.87.072 1.29-.039c.418-.11.8-.332 1.136-.603s.626-.593.9-.925c.546-.665 1.044-1.39 1.745-1.894a3.78 3.78 0 0 1 2.092-.692c.448-.013.899.053 1.321.201a3.74 3.74 0 0 1 2.341 2.504c.052.191.08.388.098.584a3.6 3.6 0 0 0-.098-1.32 3.74 3.74 0 0 0-2.34-2.505 3.7 3.7 0 0 0-1.322-.201m-8.012 11.055q-.259.015-.509.082A2.65 2.65 0 0 0 20.6 34.5a2.57 2.57 0 0 0-.315 1.639 2.6 2.6 0 0 1 .315-.902 2.65 2.65 0 0 1 3.589-.945 2.62 2.62 0 0 1 1.223 1.568c.029.104.038.212.053.32.054-.352.04-.714-.053-1.057a2.62 2.62 0 0 0-2.708-1.907" style="opacity:.2;fill:#fff;stroke-width:.743374"/></svg>