<svg xmlns="http://www.w3.org/2000/svg" width="48" height="48"><circle cx="24.632" cy="25.368" r="20.632" style="opacity:.2;stroke-width:.736844"/><circle cx="24.632" cy="24.632" r="20.632" style="fill:#262b42;fill-opacity:1"/><path d="M24.632 4a20.6 20.6 0 0 0-8.843 2.006v37.222a20.6 20.6 0 0 0 8.843 2.035 20.63 20.63 0 0 0 20.631-20.631A20.63 20.63 0 0 0 24.632 4" style="opacity:.1;fill:#fff;stroke-width:.736844"/><path d="M16.975 13.58a1.158 1.164 0 0 0-1.186 1.162v21.253a1.158 1.164 0 0 0 1.737 1.008l9.157-5.312 9.159-5.314a1.158 1.164 0 0 0 0-2.016l-9.16-5.312-9.156-5.314a1.158 1.164 0 0 0-.551-.156" style="opacity:.2;stroke-width:.736844"/><path d="M16.975 12.842a1.158 1.164 0 0 0-1.186 1.164v21.252a1.158 1.164 0 0 0 1.737 1.008l9.157-5.312 9.159-5.314a1.158 1.164 0 0 0 0-2.016l-9.16-5.312-9.156-5.314a1.158 1.164 0 0 0-.551-.156" style="fill:#ffb380"/><rect width="4.421" height="4.421" x="18.737" y="9.158" rx="1.105" ry="1.105" style="fill:#1e2134;stroke-width:.736844;fill-opacity:1"/><rect width="4.421" height="4.421" x="18.737" y="22.421" rx="1.105" ry="1.105" style="fill:#1e2134;stroke-width:.736844;fill-opacity:1"/><rect width="4.421" height="4.421" x="18.737" y="29.053" rx="1.105" ry="1.105" style="fill:#1e2134;stroke-width:.736844;fill-opacity:1"/><rect width="4.421" height="4.421" x="18.737" y="35.684" rx="1.105" ry="1.105" style="fill:#1e2134;stroke-width:.736844;fill-opacity:1"/><path d="M16.975 12.842a1.158 1.164 0 0 0-1.186 1.163v.737a1.158 1.164 0 0 1 1.186-1.163 1.158 1.164 0 0 1 .55.155l9.159 5.314 9.159 5.313a1.158 1.164 0 0 1 .516.638 1.158 1.164 0 0 0-.516-1.375l-9.16-5.313-9.158-5.313a1.158 1.164 0 0 0-.55-.156" style="opacity:.2;fill:#fff;stroke-width:.736844"/><rect width="4.421" height="4.421" x="18.737" y="15.789" rx="1.105" ry="1.105" style="fill:#1e2134;stroke-width:.736844;fill-opacity:1"/><path d="M24.632 4A20.63 20.63 0 0 0 4 24.632l.013.362A20.63 20.63 0 0 1 24.632 4.737a20.63 20.63 0 0 1 20.612 20.257l.02-.362A20.63 20.63 0 0 0 24.631 4" style="opacity:.1;fill:#fff;stroke-width:.736844"/></svg>