<svg xmlns="http://www.w3.org/2000/svg" xmlns:xlink="http://www.w3.org/1999/xlink" width="48" height="48" version="1"><defs><linearGradient id="g"><stop offset="0" style="stop-color:#000;stop-opacity:1"/><stop offset="1" style="stop-color:#000;stop-opacity:0"/></linearGradient><linearGradient id="f"><stop offset="0" style="stop-color:#fff;stop-opacity:1"/><stop offset="1" style="stop-color:#536161;stop-opacity:1"/></linearGradient><linearGradient id="e"><stop offset="0" style="stop-color:#172525;stop-opacity:1"/><stop offset="1" style="stop-color:#334545;stop-opacity:1"/></linearGradient><linearGradient id="d"><stop offset="0" style="stop-color:#54d883;stop-opacity:1"/><stop offset="1" style="stop-color:#3bb566;stop-opacity:1"/></linearGradient><linearGradient id="c"><stop offset="0" style="stop-color:#7cbcec;stop-opacity:1"/><stop offset="1" style="stop-color:#3b85b5;stop-opacity:1"/></linearGradient><linearGradient id="b"><stop offset="0" style="stop-color:#bf4231;stop-opacity:1"/><stop offset="1" style="stop-color:#f58273;stop-opacity:1"/></linearGradient><linearGradient id="a"><stop offset="0" style="stop-color:#ffa92d;stop-opacity:1"/><stop offset="1" style="stop-color:#ffc169;stop-opacity:1"/></linearGradient><linearGradient xlink:href="#a" id="h" x1="18.653" x2="7.432" y1="20.191" y2="8.525" gradientTransform="matrix(.9091 0 0 1.05263 2.182 -1.263)" gradientUnits="userSpaceOnUse"/><linearGradient xlink:href="#b" id="i" x1="28.615" x2="39.94" y1="21.502" y2="10.118" gradientTransform="matrix(.9091 0 0 1.05263 2.182 -1.263)" gradientUnits="userSpaceOnUse"/><linearGradient xlink:href="#c" id="k" x1="19.831" x2="9.69" y1="26.561" y2="37.881" gradientTransform="matrix(.9091 0 0 1.05263 2.182 -1.263)" gradientUnits="userSpaceOnUse"/><linearGradient xlink:href="#d" id="j" x1="33.241" x2="40.393" y1="30.191" y2="37.416" gradientTransform="matrix(.9091 0 0 1.05263 2.182 -1.263)" gradientUnits="userSpaceOnUse"/><linearGradient xlink:href="#e" id="m" x1="27.197" x2="21.366" y1="33.475" y2="14.901" gradientTransform="matrix(1 0 0 1.2 0 -4.8)" gradientUnits="userSpaceOnUse"/><linearGradient xlink:href="#f" id="n" x1="19.025" x2="29.946" y1="15.232" y2="31.765" gradientTransform="translate(1)" gradientUnits="userSpaceOnUse"/><linearGradient xlink:href="#g" id="l" x1="23.693" x2="34.937" y1="21.277" y2="32.522" gradientUnits="userSpaceOnUse"/></defs><path d="M24 4C12.92 4 4 12.92 4 24h20Z" style="fill:url(#h);fill-opacity:1"/><path d="M24 4c11.08 0 20 8.92 20 20H24z" style="fill:url(#i);fill-opacity:1"/><path d="M24 44c11.08 0 20-8.92 20-20H24Z" style="fill:url(#j);fill-opacity:1"/><path d="M24 44C12.92 44 4 35.08 4 24h20Z" style="fill:url(#k);fill-opacity:1"/><path d="M25.297 14.412 24 16.14V24h-5.902L15.5 27.46l-.434 4.61L26.8 43.803a19.94 19.94 0 0 0 16.994-16.934L31.832 14.91z" style="fill:url(#l);fill-opacity:1;opacity:.2"/><circle cx="24" cy="24" r="12" style="fill:url(#m);fill-opacity:1"/><path d="M25.832 15.678 23 15.943v10.94l2.8-.383v-4.676L29.538 27l2.926-.883-3.828-4.969 3.86-4.707-2.99-.646-3.704 4.705zm-6.875 2.998a.2.2 0 0 0-.094.031l-1.09 1.059c-.046.046-.065.122-.03.175l1.277 2c-.23.364-.399.763-.53 1.176l-2.365.47c-.066.018-.125.056-.125.12v1.469c0 .062.062.131.125.146l2.303.532c.122.479.309.934.56 1.351l-1.338 1.912c-.037.054-.017.13.032.176l1.088 1.03c.046.041.13.065.187.03l2.086-1.207c.41.224.84.41 1.307.53l.498 2.207c.014.064.057.117.125.117h1.556c.066 0 .14-.056.157-.117l.558-2.207a5.8 5.8 0 0 0 1.371-.559l2.055 1.295c.056.034.137.016.185-.031l1.09-1.03c.047-.045.066-.122.032-.175L29.23 28l-.25.088c-.035.017-.072 0-.093-.03 0 0-.471-.673-1.09-1.529-.74 1.368-2.247 2.293-3.985 2.293-2.468 0-4.482-1.872-4.482-4.205 0-1.716 1.091-3.192 2.647-3.853v-1.088c-.283.094-.55.19-.809.324h-.031l-2.086-1.295a.16.16 0 0 0-.094-.027z" style="color:#4d4d4d;fill:url(#n);fill-opacity:1;stroke:none"/><path d="M4 24c0 11.08 8.92 20 20 20s20-8.92 20-20h-.025A19.954 19.954 0 0 1 24 43 19.954 19.954 0 0 1 4.025 24z" style="fill:#000;fill-opacity:1;opacity:.15"/></svg>