<svg xmlns="http://www.w3.org/2000/svg" xmlns:xlink="http://www.w3.org/1999/xlink" width="48" height="48" version="1"><defs><linearGradient id="d"><stop offset="0" style="stop-color:#44a3c8;stop-opacity:1"/><stop offset="1" style="stop-color:#8dcdda;stop-opacity:1"/></linearGradient><linearGradient id="f"><stop offset="0" style="stop-color:#000;stop-opacity:1"/><stop offset="1" style="stop-color:#000;stop-opacity:0"/></linearGradient><linearGradient id="e"><stop offset="0" style="stop-color:#000;stop-opacity:1"/><stop offset="1" style="stop-color:#000;stop-opacity:0"/></linearGradient><linearGradient id="a"><stop offset="0" style="stop-color:#fff;stop-opacity:1"/><stop offset="1" style="stop-color:#b1b1b1;stop-opacity:1"/></linearGradient><linearGradient id="c"><stop offset="0" style="stop-color:#fff;stop-opacity:1"/><stop offset="1" style="stop-color:#fff;stop-opacity:0"/></linearGradient><linearGradient id="b"><stop offset="0" style="stop-color:#5e98d7;stop-opacity:1"/><stop offset="1" style="stop-color:#3363ac;stop-opacity:1"/></linearGradient><linearGradient xlink:href="#a" id="j" x1="27.72" x2="27.72" y1="14.786" y2="24.357" gradientTransform="matrix(.94072 0 0 1.25384 -12.077 -5.54)" gradientUnits="userSpaceOnUse" spreadMethod="pad"/><linearGradient xlink:href="#b" id="g" x1="7.623" x2="46" y1="16.497" y2="40" gradientTransform="translate(0 -2)" gradientUnits="userSpaceOnUse"/><linearGradient xlink:href="#c" id="l" x1="12" x2="14" y1="18" y2="20" gradientTransform="translate(.5 -1.9)" gradientUnits="userSpaceOnUse"/><linearGradient xlink:href="#d" id="k" x1="17" x2="11.574" y1="18" y2="9.363" gradientTransform="translate(0 -2)" gradientUnits="userSpaceOnUse"/><linearGradient xlink:href="#d" id="m" x1="13" x2="4" y1="38" y2="30" gradientTransform="translate(0 -2)" gradientUnits="userSpaceOnUse"/><linearGradient xlink:href="#e" id="i" x1="10" x2="33.004" y1="8" y2="31.004" gradientUnits="userSpaceOnUse"/><linearGradient xlink:href="#f" id="h" x1="4" x2="15.409" y1="29" y2="40.409" gradientUnits="userSpaceOnUse"/></defs><path d="M19.03 8C10.147 8.242 4 15.439 4 24.755 4 34.072 11.01 41.878 19.152 42c7.368.1 15.296-7.672 17.93-13.704C38.307 31.225 40.712 35 45 35c0 0-2-5.286-2-10.143S45 15 45 15c-4.366 0-6.786 3.86-7.99 6.767C34.346 16.523 26.662 8.097 19.03 8" style="opacity:1;fill:url(#g);fill-opacity:1"/><path d="m8.945 29.182-5.05 4.638 8.18 8.18h12.921L13.264 30.268z" style="opacity:.2;fill:url(#h);fill-opacity:1;stroke:none;stroke-width:4;stroke-linecap:round;stroke-linejoin:round;stroke-miterlimit:4;stroke-dasharray:none;stroke-opacity:1"/><path d="m13.252 7.207-3.54 6.656.347 9.2 16.634 16.634c4.64-2.739 8.659-7.438 10.389-11.4 1.203 2.875 3.548 6.559 7.691 6.691l-26.9-26.9-.078.006a6 6 0 0 0-.602-.668z" style="opacity:.2;fill:url(#i);fill-opacity:1;stroke:none;stroke-width:4;stroke-linecap:round;stroke-linejoin:round;stroke-miterlimit:4;stroke-dasharray:none;stroke-opacity:1"/><path d="M45 15c-.124 0-.242.013-.363.019C44.062 16.711 43 20.303 43 23.857c0 .166.019.335.023.502.128-4.694 1.977-9.36 1.977-9.36M4.021 24.224c-.004.178-.021.352-.021.531C4 34.072 11.01 41.878 19.152 42c7.368.1 15.296-7.672 17.93-13.704C38.307 31.225 40.712 35 45 35c0 0-.144-.395-.348-1.02-4.067-.2-6.379-3.837-7.57-6.684C34.448 33.328 26.52 41.1 19.152 41c-8.003-.12-14.898-7.67-15.13-16.776" style="opacity:.15;fill:#000;fill-opacity:1"/><path d="M20 17a6 7.997 0 1 1-12 0 6 7.997 0 1 1 12 0" style="fill:url(#j)"/><path d="M20 17c-.994-.889-4.256-6.205-12-2.825C8 10.8 9.344 6 13.744 6 19.377 6.174 20 13.626 20 17" style="fill:url(#k);fill-opacity:1"/><path d="M16 18a2 2 0 0 1-4 0 2 2 0 1 1 4 0" style="fill:#272b2d;fill-opacity:1"/><path d="M14.5 17.1a1 1 0 0 1-2 0 1 1 0 1 1 2 0" style="fill:url(#l);fill-opacity:1"/><path d="M14 31.5c0 1.933-5.567 3.5-7.5 3.5a3.5 3.5 0 1 1 0-7c1.933 0 7.5 1.567 7.5 3.5" style="opacity:1;fill:url(#m);fill-opacity:1;stroke:none;stroke-width:4;stroke-linecap:round;stroke-linejoin:round;stroke-miterlimit:4;stroke-dasharray:none;stroke-opacity:1"/></svg>