<svg xmlns="http://www.w3.org/2000/svg" xmlns:xlink="http://www.w3.org/1999/xlink" width="48" height="48"><defs><linearGradient xlink:href="#a" id="b" x1="376.919" x2="528.571" y1="410.059" y2="561.711" gradientTransform="matrix(.3371 0 0 .33163 257.39 363.045)" gradientUnits="userSpaceOnUse"/><linearGradient id="a"><stop offset="0" style="stop-color:#006680;stop-opacity:1"/><stop offset=".252" style="stop-color:#80b3ff;stop-opacity:1"/><stop offset=".459" style="stop-color:#06f;stop-opacity:1"/><stop offset=".899" style="stop-color:#025;stop-opacity:1"/><stop offset="1" style="stop-color:#006680;stop-opacity:0"/></linearGradient></defs><path d="M428.571 503.803c0-.056-.64.38-1.422.971-7.362 5.552-16.563 10.407-21.715 11.458l-.972.199-.368.967c-1.283 3.373-4.93 5.765-10.649 6.983-.903.193-1.872.467-2.153.61-.868.441-1.877 1.45-2.333 2.335-.368.715-.425 1.023-.37 1.991.048.815.16 1.247.39 1.497.31.336 1.082.513.887.203-.154-.245.573-1.022 1.291-1.383 1.164-.583 2.971-.86 4.862-.834.338.006.744.021 1.024.043 1.416.1 2.824.367 3.992.803.629.235 1.16.517 1.593.833 1.612.826 2.968 1.9 4.108 3.141 0-.04.005-.08.005-.122.007-.816.035-1.483.061-1.483s.129.208.228.465c.24.62.366 1.274.39 1.932 2.162 2.686 3.44 5.994 4.192 9.188 1-1.705 1.948-3.96 1.953-4.88.006-1.363.966 1.312 1.27 3.537l.209 1.541.38-.933c.635-1.56.933-3.19.935-5.111 0-.993-.05-1.966-.113-2.162s-.046-.357.039-.357c.208 0 1.862 1.657 2.285 2.29.4.597.43.336.102-.876-.868-3.205-3.357-6.224-6.909-8.38l-1.372-.834.683-.02c.375-.01.915-.071 1.2-.135l.517-.115-.69-.23-.69-.232 1.106-.222c.608-.123 1.656-.479 2.329-.792l1.222-.57-1.552.061-1.553.06 1.208-.4c1.68-.557 4.903-2.221 4.696-2.424-.029-.029-.632.096-1.34.277-2.08.53-2.3.415-.674-.358 1.583-.752 3.811-2.166 4.906-3.114l.69-.598-1.293.573c-1.099.487-3.606 1.288-4.034 1.288-.072 0 .37-.257.982-.57 1.752-.898 3.335-2.087 5.293-3.974l1.811-1.746-1.465.762c-1.387.72-4.312 2.011-4.312 1.904 0-.027.369-.306.82-.619 1.747-1.215 4.843-4.425 6.675-6.923l.665-.907-1.631 1.253c-1.742 1.339-5.299 3.607-5.44 3.47-.046-.047.127-.22.385-.387.762-.49 4.114-4.213 5.957-6.615.94-1.225 1.71-2.273 1.71-2.33z" style="fill:url(#b);fill-opacity:1" transform="translate(-384.571 -499.798)"/></svg>