<svg xmlns="http://www.w3.org/2000/svg" width="32" height="32"><defs><linearGradient id="a" x1="-384.571" x2="-384.571" y1="30" y2="2" gradientUnits="userSpaceOnUse"><stop stop-color="#197cf1"/><stop offset="1" stop-color="#20bcfa"/></linearGradient><linearGradient id="b" x1="7.796" x2="24.827" y1="6.6" y2="23.15" gradientUnits="userSpaceOnUse"><stop stop-color="#383e51"/><stop offset="1" stop-color="#655c6f" stop-opacity="0"/></linearGradient></defs><rect width="28" height="28" x="2" y="2" fill="url(#a)" rx="14"/><path fill="url(#b)" fill-rule="evenodd" d="m21.178 11.326-4.525 4.035 3.803 3.719-4.143 4.069h-1.216v-5.904l-4.006 3.895 9.917 9.637c4.812-1.334 8.773-4.662 10.827-9.097zm-4.505 4.387-.361.351v5.417l3.148-3.059z" opacity=".2"/><path fill="#fff" d="m16.819 17.636 1.969 1.969-1.969 1.969zm0-7.878 1.969 1.969-1.969 1.969zM14.85 5.163v7.878l-3.282-3.282-1.313 1.313 4.595 4.595-4.595 4.595 1.313 1.313 3.282-3.282v7.878l6.565-6.565-3.939-3.939 3.939-3.939z"/></svg>