<svg xmlns="http://www.w3.org/2000/svg" xmlns:xlink="http://www.w3.org/1999/xlink" width="48" height="48" version="1"><defs><linearGradient id="c"><stop offset="0" style="stop-color:#da4453;stop-opacity:1"/><stop offset="1" style="stop-color:#ffc536;stop-opacity:1"/></linearGradient><linearGradient id="b"><stop offset="0" style="stop-color:#eff0f1;stop-opacity:1"/><stop offset="1" style="stop-color:#b7bbbf;stop-opacity:1"/></linearGradient><linearGradient id="a"><stop offset="0" style="stop-color:#424649;stop-opacity:1"/><stop offset="1" style="stop-color:#2a2c2f;stop-opacity:1"/></linearGradient><linearGradient xlink:href="#a" id="f" x1="13.52" x2="27" y1="21.189" y2="23.5" gradientUnits="userSpaceOnUse"/><linearGradient xlink:href="#b" id="d" x1="4.248" x2="45.925" y1="13.866" y2="27.392" gradientUnits="userSpaceOnUse"/><linearGradient xlink:href="#a" id="g" x1="41.282" x2="40.402" y1="17.466" y2="21.048" gradientUnits="userSpaceOnUse"/><linearGradient xlink:href="#c" id="e" x1="3.516" x2="18.132" y1="23.827" y2="23.768" gradientTransform="translate(1)" gradientUnits="userSpaceOnUse"/></defs><path d="M16 12s4.306 6.028 3.617 6.407c-.82.451-1.53 1.057-2.115 1.599C15 20 14 20 14 20v7l3.502.003s5.444 1.534 9.447 2C27.751 29.099 14 36 14 36c3.428 0 33.155-7.274 32.009-14.084-2.634-4.03-11.964-5.742-11.964-5.742s-2.18-.167-3.322-.167c-2.298 0-4.41.233-6.283.65C23.1 15.622 16 12 16 12" style="opacity:1;fill:url(#d);fill-opacity:1"/><path d="M16 12s2.67 3.747 3.451 5.508c.056-.033.109-.07.166-.102.467-.257-1.324-3.038-2.55-4.85C16.811 12.427 16 12 16 12m29.984 9.824c-1.216 5.612-21.481 11.29-29.261 12.783C15.842 35.054 14 36 14 36c3.443 0 33.415-7.34 31.984-14.176M14 26v1l3.502.004s4.454 1.247 8.27 1.832c.802-.467 1.34-.813 1.177-.832-4.003-.467-9.447-2-9.447-2z" style="opacity:.15;fill:#000;fill-opacity:1"/><path d="M9.4 19c-.805 1.205-.149 1.73.701 1.83-1 .379-1.666-.584-2.448-.814C7.165 19.872 6 20.521 5 20c.363 1 1.802.275 2.29.73.232.216 1.133 1.239.497 2.056-.636.816-1.26-.683-2.268-.786-.475-.048-1.544.773-2.519.361 1 1.027 1.398.573 2.074 1.172.675.6 1.377 1.532.625 2.404-.472.547-1.834.448-1.699 1.063.226-.342 1.93-.014 2.536-.474 1.985-1.236 3.128-.044 2.016.748-.327.217-.84-.11-1.406-.054-.948.094-1.989.504-2.152.823.32-.093 1.102-.197 1.907.097.698.254 1.405.912 1.937.86 2.132-.209 2.734-2.612 5.162-1v-9c-.376.162-.74.612-2.212.857-1.471.245-2.558.305-2.388-.857" style="fill:url(#e);fill-opacity:1;fill-rule:evenodd"/><path d="M17 20v-1h-4v9h4v-1c6 0 10.049-2.24 10-3.5-.048-1.24-4-3.5-10-3.5" style="fill:url(#f);fill-opacity:1"/><path d="M34.02 16.172a7.913 3.505 15 0 0 6.771 5.256 7.913 3.505 15 0 0 5.215.511c-.191-1.21-1.35-2.406-3.809-3.544-2.104-1.101-4.949-1.897-8.177-2.223" style="opacity:1;fill:url(#g);fill-opacity:1;stroke:none;stroke-width:2;stroke-linecap:round;stroke-linejoin:round;stroke-miterlimit:4;stroke-dasharray:none;stroke-opacity:1"/><path d="M26.82 23.025C25.98 24.296 22.232 26 17 26v1c6 0 10.049-2.24 10-3.5-.006-.146-.07-.306-.18-.475M17 27h-4v1h4z" style="fill:#000;fill-opacity:1;opacity:.2"/></svg>