<svg xmlns="http://www.w3.org/2000/svg" width="48" height="48"><defs><linearGradient id="a" x1="407.63" x2="407.69" y1="543.77" y2="504.13" gradientUnits="userSpaceOnUse"><stop stop-color="#da4453"/><stop offset="1" stop-color="#e06571"/></linearGradient><linearGradient id="b" x1="19" x2="44" y1="13.1" y2="44" gradientUnits="userSpaceOnUse"><stop stop-color="#292c2f"/><stop offset="1" stop-color="#292c2f" stop-opacity="0"/></linearGradient></defs><g transform="translate(-384.57 -499.8)"><rect width="40" height="40" x="388.57" y="503.8" fill="url(#a)" rx="3"/><text x="730.88" y="132.19" font-family="Droid Sans" font-size="12.666">
    
   </text><path fill="url(#b)" d="m19 13.1-2.82 16.957 6.184.947.236-14.305zm13.48 2.412 1.113 11.813-9.574 4.568-8.623.475 11.629 11.629h12.971c2.216 0 4-1.784 4-4V27.026z" opacity=".2" transform="translate(384.57 499.8)"/><path fill="#fff" d="M408.571 511.798a12 12 0 0 0-2 .17v16.83c0 .554-.446 1-1 1h-1c-.554 0-1-.446-1-1v-15.893a12 12 0 0 0-7 10.892 12 12 0 0 0 12 12 12 12 0 0 0 12-12 12 12 0 0 0-12-12m-.496 6a.5.546 0 0 1 .239.069l9 5.455a.5.546 0 0 1 0 .953l-9 5.455a.5.546 0 0 1-.743-.477v-10.91a.5.546 0 0 1 .504-.544"/><path d="M388.57 539.8v1c0 1.662 1.338 3 3 3h34c1.662 0 3-1.338 3-3v-1c0 1.662-1.338 3-3 3h-34c-1.662 0-3-1.338-3-3" opacity=".15"/></g></svg>