<svg xmlns="http://www.w3.org/2000/svg" xmlns:xlink="http://www.w3.org/1999/xlink" width="48" height="48"><defs><linearGradient id="d"><stop offset="0" style="stop-color:#000019;stop-opacity:1"/><stop offset="1" style="stop-color:#000019;stop-opacity:.29064038"/></linearGradient><linearGradient id="c"><stop offset="0" style="stop-color:#c6cdd1;stop-opacity:1"/><stop offset="1" style="stop-color:#e0e5e7;stop-opacity:1"/></linearGradient><linearGradient id="a"><stop offset="0" style="stop-color:#1f93b9;stop-opacity:1"/><stop offset="1" style="stop-color:#1a5c9b;stop-opacity:1"/></linearGradient><linearGradient id="b"><stop offset="0" style="stop-color:#dc2b41;stop-opacity:1"/><stop offset="1" style="stop-color:#c61423;stop-opacity:1"/></linearGradient><linearGradient xlink:href="#a" id="g" x1="24" x2="24" y1="7" y2="29" gradientTransform="translate(1)" gradientUnits="userSpaceOnUse"/><linearGradient xlink:href="#b" id="f" x1="24" x2="24" y1="30" y2="41" gradientTransform="translate(1 2)" gradientUnits="userSpaceOnUse"/><linearGradient xlink:href="#b" id="h" x1="11" x2="11" y1="30" y2="41" gradientTransform="translate(0 2)" gradientUnits="userSpaceOnUse"/><linearGradient xlink:href="#c" id="e" x1="29" x2="29" y1="44" y2="4" gradientUnits="userSpaceOnUse"/><radialGradient xlink:href="#d" id="i" cx="24" cy="24" r="19" fx="24" fy="24" gradientUnits="userSpaceOnUse"/></defs><rect width="40" height="40" x="4" y="4" rx="0" style="fill:url(#e);fill-opacity:1"/><path d="M4 43h40v1H4z" style="fill:#000;fill-opacity:1;opacity:.15"/><path d="M24.5 32a5.5 5.5 0 0 0-5.5 5.5 5.5 5.5 0 0 0 5.5 5.5 5.5 5.5 0 0 0 5.5-5.5 5.5 5.5 0 0 0-5.5-5.5m0 1a4.5 4.5 0 0 1 4.5 4.5 4.5 4.5 0 0 1-4.5 4.5 4.5 4.5 0 0 1-4.5-4.5 4.5 4.5 0 0 1 4.5-4.5" style="opacity:1;fill:url(#f);fill-opacity:1;stroke:none;stroke-width:4;stroke-linecap:round;stroke-linejoin:round;stroke-miterlimit:4;stroke-dasharray:none;stroke-opacity:1"/><path d="M19 6.404 23.596 11 19 15.596l.707.707 4.596-4.596 4.596 4.596.708-.707L25.01 11l4.597-4.596-.708-.707-4.596 4.596-4.596-4.596Zm0 13L23.596 24 19 28.596l.707.707 4.596-4.596 4.596 4.596.708-.707L25.01 24l4.597-4.596-.708-.707-4.596 4.596-4.596-4.596z" style="opacity:1;fill:url(#g);fill-opacity:1;stroke:none;stroke-width:4;stroke-linecap:round;stroke-linejoin:round;stroke-miterlimit:4;stroke-dasharray:none;stroke-opacity:1"/><path d="M10.5 32A5.5 5.5 0 0 0 5 37.5a5.5 5.5 0 0 0 5.5 5.5 5.5 5.5 0 0 0 5.5-5.5 5.5 5.5 0 0 0-5.5-5.5m0 1a4.5 4.5 0 0 1 4.5 4.5 4.5 4.5 0 0 1-4.5 4.5A4.5 4.5 0 0 1 6 37.5a4.5 4.5 0 0 1 4.5-4.5" style="opacity:1;fill:url(#h);fill-opacity:1;stroke:none;stroke-width:4;stroke-linecap:round;stroke-linejoin:round;stroke-miterlimit:4;stroke-dasharray:none;stroke-opacity:1"/><path d="M17 5v12H5v1h12v12H5v1h12v12h1V31h13v12h1V31h11v-1H32V18h11v-1H32V5h-1v12H18V5zm1 13h13v12H18z" style="opacity:1;fill:url(#i);fill-opacity:1;stroke:none;stroke-width:4;stroke-linecap:round;stroke-linejoin:round;stroke-miterlimit:4;stroke-dasharray:none;stroke-opacity:1"/></svg>