<svg xmlns="http://www.w3.org/2000/svg" xmlns:xlink="http://www.w3.org/1999/xlink" width="48" height="48"><defs><linearGradient id="c"><stop offset="0" style="stop-color:#000;stop-opacity:1"/><stop offset="1" style="stop-color:#000;stop-opacity:0"/></linearGradient><linearGradient xlink:href="#a" id="d" x1="408.571" x2="408.632" y1="543.773" y2="503.67" gradientUnits="userSpaceOnUse"/><linearGradient id="b"><stop offset="0" style="stop-color:#2e3436;stop-opacity:1"/><stop offset="1" style="stop-color:#555753;stop-opacity:1"/></linearGradient><linearGradient xlink:href="#b" id="f" x1="408.571" x2="408.571" y1="535.199" y2="512.397" gradientTransform="matrix(.96482 0 0 .96482 14.374 18.428)" gradientUnits="userSpaceOnUse"/><linearGradient id="a"><stop offset="0" style="stop-color:#1064d3;stop-opacity:1"/><stop offset="1" style="stop-color:#14c6fd;stop-opacity:1"/></linearGradient><linearGradient xlink:href="#c" id="e" x1="9.077" x2="42.946" y1="9.083" y2="42.953" gradientUnits="userSpaceOnUse"/></defs><g transform="translate(-384.571 -499.798)"><rect width="40" height="40" x="388.57" y="503.8" rx="3" ry="3" style="fill:url(#d);fill-opacity:1"/><path d="M4 40v1c0 1.662 1.338 3 3 3h34c1.662 0 3-1.338 3-3v-1c0 1.662-1.338 3-3 3H7c-1.662 0-3-1.338-3-3" style="fill:#000;fill-opacity:1;opacity:.2" transform="translate(384.571 499.798)"/><path d="m38.326 9.402-28.94 28.94L15.046 44H41c1.662 0 3-1.338 3-3V15.076z" style="opacity:.2;fill:url(#e);fill-opacity:1;stroke:none;stroke-width:2;stroke-linecap:butt;stroke-linejoin:round;stroke-miterlimit:4;stroke-dasharray:none;stroke-opacity:1" transform="translate(384.571 499.798)"/><rect width="30" height="30" x="393.57" y="508.8" rx="1.822" ry="1.822" style="fill:#f8f8f8;fill-opacity:1;stroke:none;stroke-width:11.24999905"/><path d="M397.571 512.798v22h10v-5h-5v-12h5v-5h-5.11zm12 0v5h5v12h-5v5h10v-22h-10" style="fill:url(#f);fill-opacity:1;stroke:none;stroke-width:3.17499971"/></g></svg>