<svg xmlns="http://www.w3.org/2000/svg" xmlns:xlink="http://www.w3.org/1999/xlink" width="48" height="48" viewBox="0 0 12.7 12.7"><defs><linearGradient id="d" x1="22.676" x2="23.373" y1="47.124" y2="5.518" gradientTransform="translate(-30.169 -10.865)scale(.31633)" gradientUnits="userSpaceOnUse"><stop offset="0" stop-color="#ff9913"/><stop offset="1" stop-color="#faee18"/></linearGradient><linearGradient id="e" x1="24.677" x2="24.989" y1="45.614" y2="25.619" gradientTransform="translate(-30.169 -10.865)scale(.31633)" gradientUnits="userSpaceOnUse"><stop offset="0" stop-color="#fade17"/><stop offset="1" stop-color="#fade17" stop-opacity="0"/></linearGradient><linearGradient xlink:href="#c" id="f" x1="24" x2="24" y1="1048.362" y2="1008.362" gradientTransform="matrix(.2778 0 0 .2778 -.317 -279.336)" gradientUnits="userSpaceOnUse"/><linearGradient id="c"><stop offset="0" style="stop-color:#12375a;stop-opacity:1"/><stop offset="1" style="stop-color:#537596;stop-opacity:1"/></linearGradient><linearGradient xlink:href="#d" id="g" x1="22.676" x2="23.373" y1="47.124" y2="5.518" gradientTransform="matrix(.17848 0 0 .17848 2.226 1.531)" gradientUnits="userSpaceOnUse"/><linearGradient xlink:href="#e" id="h" x1="24.677" x2="24.989" y1="45.614" y2="25.619" gradientTransform="matrix(.17848 0 0 .17848 2.226 1.531)" gradientUnits="userSpaceOnUse"/></defs><circle cx="6.35" cy="6.35" r="5.556" style="fill:url(#f);fill-opacity:1;stroke:none;stroke-width:.555614;stroke-linecap:butt;stroke-linejoin:round;stroke-miterlimit:4;stroke-dasharray:none;stroke-opacity:1"/><path d="M11.9 6.188a5.556 5.556 0 0 1-5.55 5.44A5.556 5.556 0 0 1 .8 6.234l-.006.116a5.556 5.556 0 0 0 5.556 5.556 5.556 5.556 0 0 0 5.556-5.556z" style="opacity:.15;fill:#000;fill-opacity:1;stroke:none;stroke-width:.555614;stroke-linecap:butt;stroke-linejoin:round;stroke-miterlimit:4;stroke-dasharray:none;stroke-opacity:1"/><path fill="url(#d)" d="M5.934 2.512c.775 1.262.086 1.471-.069 2.448a1.07 1.07 0 0 1 .644-.217 1.07 1.07 0 0 1 1.07 1.071 1.07 1.07 0 0 1-1.07 1.071 1.07 1.07 0 0 1-1.071-1.07 1.07 1.07 0 0 1 .167-.573c-.1-.142-.233-.256-.524-.32.714 1.25-.851 1.11-.703 2.198-.192-.053-.369-.412-.223-.854-.502.62-.323 1.155.034 1.69-.357-.356-.94-.355-1.12-.857-.111.648.172 1.26.675 1.75a4.1 4.1 0 0 0 2.765 1.07c.564 0 1.101-.113 1.59-.32.847-.417 1.6-1.16 1.63-2.01-.165.247-.9.723-1.23.723.866-.713 1.045-1.784.274-2.81.057.669-.304 1.027-.62 1.254.495-.942.495-2.016-.473-2.962.077.232.136.413.083.625.054-.26-.719-1.46-1.83-1.908z" style="fill:url(#g);stroke-width:.178473"/><path fill="url(#e)" d="M7.403 6.528c-.357.178-.535.535-.357.892-.188-.14-.234-.346-.228-.581a1 1 0 0 1-.308.046 1.07 1.07 0 0 1-.72-.279c-.372.387-.708.8-.708 1.35 0 .892.604 1.606 1.461 1.606h.034c1.025-.034 1.625-1.196.792-2.175-.143-.146-.145-.502.034-.859Z" style="fill:url(#h);stroke-width:.178473"/><circle cx="6.509" cy="5.814" r=".535" fill="#fff" opacity=".5" style="stroke-width:.178473"/></svg>