<svg xmlns="http://www.w3.org/2000/svg" width="48" height="48"><defs><linearGradient id="a" x1="99.036" x2="99.036" y1="11.64" y2="199.84" gradientTransform="matrix(.21 0 0 .21 3 3)" gradientUnits="userSpaceOnUse"><stop offset="0" stop-color="#ff4b00"/><stop offset="1" stop-color="#f50f2d"/></linearGradient><linearGradient id="c" x2="0" y1="33" y2="7.31" gradientTransform="translate(39.925 -.501)scale(1.225)" gradientUnits="userSpaceOnUse"><stop offset="0" stop-color="#fcdbd4"/><stop offset="1" stop-color="#fff"/></linearGradient><filter id="b" width="1.125" height="1.115" x="-.062" y="-.058" color-interpolation-filters="sRGB"><feGaussianBlur stdDeviation="1.094"/></filter></defs><circle cx="24" cy="24" r="21" fill="url(#a)" color="#000" style="fill:url(#a);stroke-width:.7"/><path fill="#f50f2d" d="M25 9.25c-.875 0-3.937 3.5-4.375 3.5h-2.187c-.875 0-3.938 3.063-3.938 3.938v2.625c0 .437-3.48 3.5-3.5 4.375S17.125 45.126 18 46c.875.873 10.5 8.75 13.125 8.75h1.75C35.5 54.75 45.125 46.874 46 46c.875-.876 7.018-21.438 7-22.313-.02-.87-3.5-3.937-3.5-4.375v-2.625c0-.875-3.062-3.937-3.937-3.937h-2.188c-.437 0-3.5-3.5-4.375-3.5zm7 6.111c.875 0 1.74.3 2.625.889 2.625 1.75 6.125-.875 7-.875s6.125 6.375 6.125 8.75c0 1.75-6.562 5.775-6.562 7 0 .875 1.312 1.297 1.312 3.152 0 1.223-1.75 3.41-3.5 3.41s-6.128-3.434-6.125-4.285v-.527c0-1.05 3.938-2.373 3.938-4.375 0-1.75-1.313-2.398-1.313-4.375 0-1.701 3.5-2.188 6.125-2.625.875 0-2.625-2.88-7.437.232-1.219.788 1.312 3.901.874 6.768-.656.612-1.858.92-3.062.92-1.202 0-2.406-.308-3.062-.92-.438-2.867 2.093-5.98.875-6.768C25 18.621 21.5 21.5 22.375 21.5c2.625.437 6.125.924 6.125 2.625 0 1.977-1.312 2.625-1.312 4.375 0 2.002 3.937 3.325 3.937 4.375v.527c.004.85-4.375 4.285-6.125 4.285s-3.5-2.186-3.5-3.41c0-1.857 1.313-2.277 1.313-3.152 0-1.225-6.563-5.25-6.563-7 0-2.375 5.25-8.75 6.125-8.75s4.375 2.625 7 .875c.886-.59 1.753-.889 2.625-.889m0 20.84c1.75 0 5.688 2.712 5.688 3.237S33.75 44.25 32 44.25s-5.687-4.287-5.687-4.812S30.25 36.2 32 36.2" filter="url(#b)" transform="matrix(.7 0 0 .7 1.6 1.599)"/><path fill="url(#c)" d="M19.1 8.074c-.613 0-2.756 2.45-3.063 2.45h-1.53c-.613 0-2.757 2.143-2.757 2.756v1.837c0 .307-2.437 2.45-2.45 3.063-.013.612 4.287 15.006 4.9 15.618.612.612 7.35 6.125 9.187 6.125h1.225c1.838 0 8.575-5.512 9.188-6.125.612-.612 4.912-15.006 4.9-15.618-.013-.609-2.45-2.756-2.45-3.063V13.28c0-.613-2.144-2.756-2.756-2.756h-1.532c-.306 0-2.45-2.45-3.062-2.45zm4.9 4.278c.612 0 1.218.209 1.837.622 1.838 1.225 4.288-.613 4.9-.613s4.288 4.463 4.288 6.125c0 1.225-4.594 4.043-4.594 4.9 0 .613.919.908.919 2.207 0 .856-1.225 2.387-2.45 2.387s-4.29-2.404-4.288-3v-.369c0-.735 2.757-1.661 2.757-3.062 0-1.225-.919-1.679-.919-3.063 0-1.19 2.45-1.531 4.287-1.837.613 0-1.837-2.016-5.206.162-.852.551.919 2.731.613 4.738-.46.428-1.301.644-2.144.644-.842 0-1.684-.216-2.144-.644-.306-2.007 1.465-4.187.613-4.738-3.369-2.178-5.819-.162-5.207-.162 1.838.306 4.288.646 4.288 1.837 0 1.384-.919 1.838-.919 3.063 0 1.4 2.756 2.327 2.756 3.062v.37c.003.595-3.062 2.999-4.287 2.999s-2.45-1.531-2.45-2.387c0-1.3.919-1.594.919-2.207 0-.857-4.594-3.675-4.594-4.9 0-1.662 3.675-6.125 4.287-6.125s3.063 1.838 4.9.613c.62-.413 1.228-.622 1.838-.622m0 14.588c1.225 0 3.981 1.897 3.981 2.265 0 .367-2.756 3.369-3.981 3.369s-3.981-3.002-3.981-3.37c0-.367 2.756-2.264 3.981-2.264" style="fill:url(#c);stroke-width:.7"/></svg>