<svg xmlns="http://www.w3.org/2000/svg" width="48" height="48" viewBox="0 0 12.7 12.7"><defs><linearGradient id="a" x1="24" x2="24" y1="43" y2="4" gradientTransform="matrix(.26458 0 0 .26458 0 0)" gradientUnits="userSpaceOnUse"><stop offset="0" stop-color="#bdc3c7"/><stop offset="1" stop-color="#eef0f1"/></linearGradient><linearGradient id="b" x1="2.02" x2="10.286" y1="2.018" y2="9.519" gradientUnits="userSpaceOnUse"><stop offset="0" stop-color="#4d4d4d"/><stop offset="1" stop-color="#44484e" stop-opacity="0"/></linearGradient><linearGradient id="d" x1="24" x2="24" y1="40" y2="-3" gradientUnits="userSpaceOnUse"><stop offset="0" stop-color="#f39c1f"/><stop offset="1" stop-color="#ebedee"/></linearGradient><linearGradient id="f" x1="24" x2="24" y1="29" y2="-20" gradientUnits="userSpaceOnUse"><stop offset="0" stop-color="#da4453"/><stop offset="1" stop-color="#edeff0"/></linearGradient><linearGradient id="h" x1="24" x2="24" y1="20" y2="-20" gradientUnits="userSpaceOnUse"><stop offset="0" stop-color="#1d99f3"/><stop offset="1" stop-color="#edeff0"/></linearGradient><linearGradient id="e" x1="6.35" x2="6.35" y1="8.731" y2="9.26" gradientUnits="userSpaceOnUse"><stop offset="0" stop-color="#f67400"/><stop offset="1" stop-color="#f67400" stop-opacity="0"/></linearGradient><linearGradient id="g" x1="6.35" x2="6.35" y1="6.879" y2="7.673" gradientUnits="userSpaceOnUse"><stop offset="0" stop-color="#c0392b"/><stop offset="1" stop-color="#c0392b"/></linearGradient><linearGradient id="c" x1="24" x2="24" y1="40" y2="-3" gradientTransform="matrix(-.26458 0 0 .26458 12.7 0)" gradientUnits="userSpaceOnUse"><stop offset="0" stop-color="#1d1d1d"/><stop offset="1" stop-color="#44484e" stop-opacity="0"/></linearGradient></defs><rect width="10.583" height="10.583" x="1.058" y="1.058" fill="#95a5a6" rx="1.587" ry="1.587" style="paint-order:normal"/><path fill="#34495e" d="M2.646 1.058c-.88 0-1.588.708-1.588 1.588V9.79c0 .879.708 1.587 1.588 1.587h7.408c.88 0 1.588-.708 1.588-1.587V2.646c0-.88-.708-1.588-1.588-1.588z" style="paint-order:markers fill stroke"/><rect width="10.583" height="10.319" x="1.058" y="1.058" fill="url(#a)" rx="1.587" ry="1.587" style="paint-order:normal"/><path fill="url(#b)" d="M10.541 2.018 2.02 10.279l1.098 1.098 7.02-.003 1.628-.977-.124-7.278z" opacity=".2" style="paint-order:normal"/><path fill="url(#c)" d="M10.054 1.852c.44 0 .794.354.794.794V9.79c0 .44-.354.793-.794.793H3.97L1.852 8.467V2.646c0-.44.354-.794.794-.794z" opacity=".1" style="paint-order:normal"/><path fill="url(#d)" d="M10 7c-1.662 0-3 1.338-3 3v27c0 1.662 1.338 3 3 3h24l7-7V10c0-1.662-1.338-3-3-3z" style="paint-order:normal" transform="scale(.26458)"/><path fill="url(#e)" d="M2.646 2.117a.79.79 0 0 0-.794.793v5.292c0 .44.354.794.794.794h6.35l1.852-1.852V2.91a.79.79 0 0 0-.794-.793z" opacity=".4" style="paint-order:normal"/><path fill="#f67400" d="m8.996 10.583 1.852-1.852-1.035-.018c-.44-.007-.784.354-.793.794z" style="paint-order:normal"/><path fill="url(#f)" d="M10 7c-1.662 0-3 1.338-3 3v20c0 1.662 1.338 3 3 3h24l7-7V10c0-1.662-1.338-3-3-3z" style="paint-order:normal" transform="scale(.26458)"/><path fill="url(#g)" d="M2.646 2.117c-.44 0-.794 1.941-.794 2.38V6.35c0 .44.354.794.794.794h6.35l1.852-1.852v-.794c0-.44-.354-2.381-.794-2.381z" opacity=".6" style="paint-order:normal"/><path fill="url(#h)" d="M10 7c-1.662 0-3 1.338-3 3v13c0 1.662 1.338 3 3 3h24l7-7v-9c0-1.662-1.338-3-3-3z" style="paint-order:normal" transform="scale(.26458)"/><path fill="#2980b9" d="m8.984 6.888 1.864-1.86-1.052-.01a.783.783 0 0 0-.794.794 98 98 0 0 1-.018 1.076" style="paint-order:normal"/><path fill="#c0392b" d="m8.996 8.731 1.852-1.852-1.035-.018c-.44-.007-.784.354-.793.794z" style="paint-order:normal"/><path fill="#3498db" d="M10 7c-1.662 0-3 1.338-3 3h34c0-1.662-1.338-3-3-3z" opacity=".6" style="paint-order:normal" transform="scale(.26458)"/></svg>