<svg xmlns="http://www.w3.org/2000/svg" width="48" height="48"><defs><linearGradient id="a" x1="22.816" x2="38.476" y1="14.449" y2="-1.049" gradientTransform="matrix(2.64567 0 0 2.64567 -56.796 6.274)" gradientUnits="userSpaceOnUse"><stop offset="0" stop-color="#dc3282"/><stop offset="1" stop-color="#f05a50" style="stop-color:#f95;stop-opacity:1"/></linearGradient></defs><circle cx="24" cy="24" r="21" fill="url(#a)" style="fill:url(#a);stroke-width:2.64567"/><path d="M27.866 15.15c0 1.74-3.866 7.044-3.866 7.044s-3.866-5.305-3.866-7.044c0-1.74 1.73-3.15 3.866-3.15 2.135 0 3.866 1.41 3.866 3.15" style="fill:#fff;fill-opacity:1;stroke:none;stroke-width:.383233;stroke-opacity:1;paint-order:markers fill stroke"/><path d="m24 22.194 1.915 3.337 1.915 3.338h-7.66l1.915-3.338z" style="fill:#fff;fill-opacity:1;stroke:none;stroke-width:2.1851;stroke-miterlimit:4;stroke-dasharray:none;stroke-opacity:1;paint-order:markers fill stroke"/><path d="M31.96 35.76c-1.498-.87-4.13-6.891-4.13-6.891s6.498-.717 7.996.153c1.497.87 1.845 3.083.777 4.944-1.067 1.86-3.147 2.664-4.644 1.794M12.174 29.022c1.498-.87 7.996-.153 7.996-.153s-2.632 6.022-4.13 6.891c-1.496.87-3.576.067-4.643-1.794-1.068-1.86-.72-4.074.777-4.944" style="fill:#fff;fill-opacity:1;stroke:none;stroke-width:.383233;stroke-opacity:1;paint-order:markers fill stroke"/></svg>