<svg xmlns="http://www.w3.org/2000/svg" xmlns:xlink="http://www.w3.org/1999/xlink" width="48" height="48"><linearGradient xlink:href="#a" id="c" x1="10" x2="34" y1="10" y2="34" gradientUnits="userSpaceOnUse"/><linearGradient id="d" x2="0" y1="20" y2="44" gradientUnits="userSpaceOnUse"><stop offset="0" stop-color="#eff0f1"/><stop offset="1" stop-color="#bdc3c7"/></linearGradient><linearGradient id="b" x2="0" y1="12" y2="32" gradientTransform="matrix(1 0 0 1.08333 0 -6.84)" gradientUnits="userSpaceOnUse"><stop offset="0" stop-color="#9559b6"/><stop offset="1" stop-color="#8e44ad"/></linearGradient><linearGradient id="a" x1="10" x2="15" y1="36" y2="41" gradientTransform="translate(384.57 500.8)" gradientUnits="userSpaceOnUse"><stop offset="0" stop-color="#292c2f"/><stop offset="1" stop-opacity="0"/></linearGradient><linearGradient xlink:href="#a" id="e" x1="9.905" x2="14.905" y1="36" y2="41" gradientTransform="translate(14.1 1)" gradientUnits="userSpaceOnUse"/><linearGradient xlink:href="#a" id="f" x1="10" x2="15" y1="36" y2="41" gradientTransform="translate(0 1)" gradientUnits="userSpaceOnUse"/><path fill="url(#b)" d="M8 4h32v26H8z"/><path fill="url(#c)" d="m25 10 15 15v5h4-14l-6-6z" opacity=".2"/><path fill="#232629" d="M24 34c-1.662 0-3 1.338-3 3s1.338 3 3 3a2.99 2.99 0 0 0 2.813-2h8.375a2.99 2.99 0 0 0 5.813-1c0-1.662-1.338-3-3-3a2.99 2.99 0 0 0-2.813 2h-8.375A2.99 2.99 0 0 0 24 34" opacity=".2"/><path fill="url(#d)" d="M4 30v14h40V30z"/><path fill="url(#e)" d="m22.1 39.33 4.762 4.667h8.143l-9.143-9.429z" opacity=".2"/><path fill="#4d4d4d" d="M26.81 38h8.375a2.99 2.99 0 0 0 5.813-1c0-1.662-1.338-3-3-3a2.99 2.99 0 0 0-2.813 2H26.81c.188 1 .188 1 0 2" opacity=".779"/><path fill="url(#f)" d="m8 39.33 4.619 4.667H26l-4.867-6.937L14 36.993l-2.238-2.425z" opacity=".2"/><path fill="#1d99f3" d="M10 34c-1.662 0-3 1.338-3 3s1.338 3 3 3a2.99 2.99 0 0 0 2.813-2h8.375a2.99 2.99 0 0 0 5.813-1c0-1.662-1.338-3-3-3a2.99 2.99 0 0 0-2.813 2h-8.375A2.99 2.99 0 0 0 10 34"/><path fill="#95a5a6" d="M4 43h40v1H4z"/><path fill="#eff0f1" d="M4 30h40v1H4z"/><path fill="#fcfcfc" d="M23 10v10l-4.5-4.5L17 17l7 7 7-7-1.5-1.5L25 20V10z"/></svg>