<svg xmlns="http://www.w3.org/2000/svg" xmlns:xlink="http://www.w3.org/1999/xlink" width="48" height="48" viewBox="0 0 12.7 12.7"><defs><linearGradient id="b"><stop offset="0" stop-color="#f39c1f"/><stop offset="1" stop-color="#fff"/></linearGradient><linearGradient id="a"><stop offset="0"/><stop offset="1" stop-opacity="0"/></linearGradient><linearGradient id="c" x1="23" x2="23" y1="290.018" y2="188.148" gradientTransform="matrix(.26458 0 0 .25828 0 -64.294)" gradientUnits="userSpaceOnUse"><stop offset="0" stop-color="#eff0f1"/><stop offset="1" stop-color="#bdc3c7"/></linearGradient><linearGradient id="d" x1="23.065" x2="23.065" y1="2.933" y2="-9.409" gradientUnits="userSpaceOnUse"><stop offset="0" stop-color="#da4453"/><stop offset="1" stop-color="#ed1515"/></linearGradient><linearGradient id="n" x1="23.282" x2="23.282" y1="11.251" y2="2.296" gradientUnits="userSpaceOnUse"><stop offset="0" stop-color="#bdc3c7"/><stop offset="1" stop-color="#eff0f1"/></linearGradient><linearGradient id="o" x1="22.997" x2="22.997" y1="25.902" y2="4.095" gradientTransform="matrix(3.77953 0 0 3.77953 -64 0)" gradientUnits="userSpaceOnUse"><stop offset="0" stop-color="#7f8c8d"/><stop offset="1" stop-color="#bdc3c7"/></linearGradient><linearGradient id="p" x1="19.512" x2="19.512" y1="5.821" y2="2.339" gradientUnits="userSpaceOnUse"><stop offset="0" stop-color="#16a085"/><stop offset="1" stop-color="#fff"/></linearGradient><linearGradient id="r" x1="19.512" x2="19.512" y1="5.821" y2="3.099" gradientTransform="translate(4.763 2.381)" gradientUnits="userSpaceOnUse"><stop offset="0" stop-color="#16a085"/><stop offset="1" stop-color="#d9faf4"/></linearGradient><linearGradient xlink:href="#b" id="q" x1="19.512" x2="19.512" y1="5.821" y2="3.099" gradientTransform="translate(2.392 4.763)" gradientUnits="userSpaceOnUse"/><linearGradient xlink:href="#b" id="s" x1="19.512" x2="19.512" y1="5.821" y2="3.099" gradientTransform="translate(7.144 -.03)" gradientUnits="userSpaceOnUse"/><radialGradient xlink:href="#a" id="e" cx="2.675" cy="4.54" r="1.762" gradientTransform="matrix(.98104 0 0 .91816 .286 .859)" gradientUnits="userSpaceOnUse"/><radialGradient xlink:href="#a" id="f" cx="2.675" cy="4.54" r="1.762" gradientTransform="matrix(.98104 0 0 .91816 2.672 .859)" gradientUnits="userSpaceOnUse"/><radialGradient xlink:href="#a" id="g" cx="2.675" cy="4.54" r="1.762" gradientTransform="matrix(.98104 0 0 .91816 5.047 .859)" gradientUnits="userSpaceOnUse"/><radialGradient xlink:href="#a" id="h" cx="2.675" cy="4.54" r="1.762" gradientTransform="matrix(3.70785 0 0 3.4702 28.197 3.245)" gradientUnits="userSpaceOnUse"/><radialGradient xlink:href="#a" id="i" cx="2.675" cy="4.54" r="1.762" gradientTransform="matrix(3.70785 0 0 3.4702 28.197 12.153)" gradientUnits="userSpaceOnUse"/><radialGradient xlink:href="#a" id="j" cx="2.675" cy="4.54" r="1.762" gradientTransform="matrix(3.70785 0 0 3.4702 1.082 21.211)" gradientUnits="userSpaceOnUse"/><radialGradient xlink:href="#a" id="k" cx="2.675" cy="4.54" r="1.762" gradientTransform="matrix(3.70785 0 0 3.4702 10.097 21.211)" gradientUnits="userSpaceOnUse"/><radialGradient xlink:href="#a" id="l" cx="2.675" cy="4.54" r="1.762" gradientTransform="matrix(3.70785 0 0 3.4702 19.074 21.211)" gradientUnits="userSpaceOnUse"/><radialGradient xlink:href="#a" id="m" cx="2.675" cy="4.54" r="1.762" gradientTransform="matrix(3.70785 0 0 3.4702 28.197 21.211)" gradientUnits="userSpaceOnUse"/></defs><rect width="10.583" height="10.319" x="1.058" y="1.058" fill="#00f" rx="1.587" ry="1.587" style="paint-order:normal"/><rect width="10.583" height="10.583" x="1.058" y="1.058" fill="#99a3a5" rx="1.588" ry="1.588" style="paint-order:markers fill stroke"/><rect width="10.583" height="10.319" x="1.058" y="1.058" fill="url(#c)" rx="1.587" ry="1.587" style="paint-order:markers fill stroke"/><path fill="url(#d)" d="M2.646 1.058c-.88 0-1.588.708-1.588 1.588v.529h10.584v-.53c0-.879-.708-1.587-1.588-1.587z" style="paint-order:normal"/><g opacity=".2"><path fill="url(#e)" d="m1.905 5.712.785.786h2.738v-.653L3.605 4.021" opacity="1" style="paint-order:normal"/><path fill="url(#f)" d="m4.29 5.712.786.786h2.738v-.653L5.99 4.021" opacity="1" style="paint-order:normal"/><path fill="url(#g)" d="m6.665 5.712.786.786h2.738v-.653L8.365 4.021" opacity="1" style="paint-order:normal"/><path fill="url(#h)" d="m40.738 15.2-6.424 6.39 2.97 2.969H44V18.46z" opacity="1" style="paint-order:normal" transform="matrix(.26458 0 0 .26458 0 0)"/><path fill="url(#e)" d="m1.905 5.712.785.786h2.738v-.653L3.605 4.021" opacity="1" style="paint-order:normal" transform="translate(0 2.357)"/><path fill="url(#f)" d="m4.29 5.712.786.786h2.738v-.653L5.99 4.021" opacity="1" style="paint-order:normal" transform="translate(0 2.357)"/><path fill="url(#g)" d="m6.665 5.712.786.786h2.738v-.653L8.365 4.021" opacity="1" style="paint-order:normal" transform="translate(0 2.357)"/><path fill="url(#i)" d="m40.738 24.107-6.424 6.391 2.97 2.969H44v-6.098z" opacity="1" style="paint-order:normal" transform="matrix(.26458 0 0 .26458 0 0)"/><path fill="url(#j)" d="m13.623 33.166-6.424 6.39 3.434 3.434c.067.002.133.01.201.01h11l-1.316-2.941z" opacity="1" style="paint-order:normal" transform="matrix(.26458 0 0 .26458 0 0)"/><path fill="url(#k)" d="m22.639 33.166-6.424 6.39L19.658 43h11.19l-1.317-2.941z" opacity="1" style="paint-order:normal" transform="matrix(.26458 0 0 .26458 0 0)"/><path fill="url(#l)" d="m31.615 33.166-6.424 6.39L28.635 43h8.531c.866 0 1.692-.167 2.453-.459l-1.111-2.482z" opacity="1" style="paint-order:normal" transform="matrix(.26458 0 0 .26458 0 0)"/><path fill="url(#m)" d="m40.738 33.166-6.424 6.39 3.416 3.417a6.81 6.81 0 0 0 6.258-6.559z" opacity="1" style="paint-order:normal" transform="matrix(.26458 0 0 .26458 0 0)"/></g><g color="#000"><path fill="#232629" d="M18.307 1.568a.29.29 0 0 0-.286-.287.287.287 0 0 0 0 .572.287.287 0 0 0 .286-.285m-.198 0c0 .05-.038.088-.088.088s-.087-.037-.087-.088a.088.088 0 1 1 .175 0" style="font-feature-settings:normal;font-variant-alternates:normal;font-variant-caps:normal;font-variant-ligatures:normal;font-variant-numeric:normal;font-variant-position:normal;isolation:auto;mix-blend-mode:normal;paint-order:markers fill stroke;shape-padding:0;text-decoration-color:#000;text-decoration-line:none;text-decoration-style:solid;text-indent:0;text-orientation:mixed;text-transform:none;white-space:normal" transform="translate(-14.619 .34)"/><path fill="#bdc3c7" d="M18.115-.21a.22.22 0 0 0-.168.022c-.095.057-.145.156-.19.288a2.26 2.26 0 0 0-.066.955c.048.343.237.578.237.578a.111.111 0 1 0 .174-.139s-.152-.19-.19-.469c-.04-.293-.014-.643.057-.855a.4.4 0 0 1 .09-.162c.002.001.005.002.017.017a.9.9 0 0 1 .121.36.112.112 0 1 0 .221-.035c-.03-.193-.08-.353-.168-.463a.27.27 0 0 0-.135-.098" style="font-feature-settings:normal;font-variant-alternates:normal;font-variant-caps:normal;font-variant-ligatures:normal;font-variant-numeric:normal;font-variant-position:normal;isolation:auto;mix-blend-mode:normal;paint-order:markers fill stroke;shape-padding:0;text-decoration-color:#000;text-decoration-line:none;text-decoration-style:solid;text-indent:0;text-orientation:mixed;text-transform:none;white-space:normal" transform="translate(-14.619 .34)"/><path fill="#9ca5ac" d="m18.207-.16-.148.166.017.02c.066.082.147.37.147.69l.222.003c0-.351-.055-.656-.195-.832a.4.4 0 0 0-.043-.047" style="font-feature-settings:normal;font-variant-alternates:normal;font-variant-caps:normal;font-variant-ligatures:normal;font-variant-numeric:normal;font-variant-position:normal;isolation:auto;mix-blend-mode:normal;paint-order:markers fill stroke;shape-padding:0;text-decoration-color:#000;text-decoration-line:none;text-decoration-style:solid;text-indent:0;text-orientation:mixed;text-transform:none;white-space:normal" transform="translate(-14.619 .34)"/></g><g color="#000"><path fill="#232629" d="M18.307 1.568a.29.29 0 0 0-.286-.287.287.287 0 0 0 0 .572.287.287 0 0 0 .286-.285m-.198 0c0 .05-.038.088-.088.088s-.087-.037-.087-.088a.088.088 0 1 1 .175 0" style="font-feature-settings:normal;font-variant-alternates:normal;font-variant-caps:normal;font-variant-ligatures:normal;font-variant-numeric:normal;font-variant-position:normal;isolation:auto;mix-blend-mode:normal;paint-order:markers fill stroke;shape-padding:0;text-decoration-color:#000;text-decoration-line:none;text-decoration-style:solid;text-indent:0;text-orientation:mixed;text-transform:none;white-space:normal" transform="translate(-8.698 .34)"/><path fill="#bdc3c7" d="M18.115-.21a.22.22 0 0 0-.168.022c-.095.057-.145.156-.19.288a2.26 2.26 0 0 0-.066.955c.048.343.237.578.237.578.09.126.277-.022.174-.139-.05-.055-.152-.19-.19-.469-.04-.293-.014-.643.057-.855a.4.4 0 0 1 .09-.162c.002.001.005.002.017.017a.9.9 0 0 1 .121.36c.024.147.244.112.221-.035-.03-.193-.08-.353-.168-.463a.27.27 0 0 0-.135-.098" style="font-feature-settings:normal;font-variant-alternates:normal;font-variant-caps:normal;font-variant-ligatures:normal;font-variant-numeric:normal;font-variant-position:normal;isolation:auto;mix-blend-mode:normal;paint-order:markers fill stroke;shape-padding:0;text-decoration-color:#000;text-decoration-line:none;text-decoration-style:solid;text-indent:0;text-orientation:mixed;text-transform:none;white-space:normal" transform="translate(-8.698 .34)"/><path fill="#9ca5ac" d="m18.207-.16-.148.166.017.02c.066.082.147.37.147.69l.222.003c0-.351-.055-.656-.195-.832a.4.4 0 0 0-.043-.047" style="font-feature-settings:normal;font-variant-alternates:normal;font-variant-caps:normal;font-variant-ligatures:normal;font-variant-numeric:normal;font-variant-position:normal;isolation:auto;mix-blend-mode:normal;paint-order:markers fill stroke;shape-padding:0;text-decoration-color:#000;text-decoration-line:none;text-decoration-style:solid;text-indent:0;text-orientation:mixed;text-transform:none;white-space:normal" transform="translate(-8.698 .34)"/></g><path fill="url(#o)" d="M35.023 14.883c-.554 0-1 .446-1 1v5c0 .554.446 1 1 1h5c.554 0 1-.446 1-1v-5c0-.554-.446-1-1-1zm-27 .117c-.554 0-1 .446-1 1v5c0 .554.446 1 1 1h5c.554 0 1-.446 1-1v-5c0-.554-.446-1-1-1zm9 0c-.554 0-1 .446-1 1v5c0 .554.446 1 1 1h5c.554 0 1-.446 1-1v-5c0-.554-.446-1-1-1zM26 15c-.554 0-1 .446-1 1v5c0 .554.446 1 1 1h5c.554 0 1-.446 1-1v-5c0-.554-.446-1-1-1zm9.023 8.883c-.554 0-1 .446-1 1v5c0 .554.446 1 1 1h5c.554 0 1-.446 1-1v-5c0-.554-.446-1-1-1zm-27 .117c-.554 0-1 .446-1 1v5c0 .554.446 1 1 1h5c.554 0 1-.446 1-1v-5c0-.554-.446-1-1-1zm9 0c-.554 0-1 .446-1 1v5c0 .554.446 1 1 1h5c.554 0 1-.446 1-1v-5c0-.554-.446-1-1-1zM26 24c-.554 0-1 .446-1 1v5c0 .554.446 1 1 1h5c.554 0 1-.446 1-1v-5c0-.554-.446-1-1-1zm9.047 8.883c-.554 0-1 .446-1 1v5c0 .554.446 1 1 1h5c.554 0 1-.446 1-1v-5c0-.554-.446-1-1-1zm-27 .117c-.554 0-1 .446-1 1v5c0 .554.446 1 1 1h5c.554 0 1-.446 1-1v-5c0-.554-.446-1-1-1zm9 0c-.554 0-1 .446-1 1v5c0 .554.446 1 1 1h5c.554 0 1-.446 1-1v-5c0-.554-.446-1-1-1zm8.976 0c-.554 0-1 .446-1 1v5c0 .554.446 1 1 1h5c.554 0 1-.446 1-1v-5c0-.554-.446-1-1-1z" style="paint-order:markers fill stroke" transform="scale(.26458)"/><path fill="url(#p)" d="M18.792 5.556c0 .147.118.265.264.265h1.323a.26.26 0 0 0 .259-.234v-.03z" style="paint-order:markers fill stroke" transform="translate(-16.933)"/><path fill="url(#q)" d="M21.183 10.319c0 .146.118.264.265.264h1.323a.26.26 0 0 0 .258-.233v-.031z" style="paint-order:markers fill stroke" transform="translate(-16.933)"/><path fill="url(#r)" d="M23.554 7.937c0 .147.118.265.265.265h1.323a.26.26 0 0 0 .258-.233v-.032z" style="paint-order:markers fill stroke" transform="translate(-16.933)"/><path fill="url(#s)" d="M25.935 5.526c0 .146.118.264.265.264h1.323a.26.26 0 0 0 .258-.233v-.031z" style="paint-order:markers fill stroke" transform="translate(-16.933)"/></svg>