<svg xmlns="http://www.w3.org/2000/svg" width="48" height="48"><defs><linearGradient id="b" x1="27" x2="43" y1="21" y2="37" gradientTransform="translate(-3 -1)" gradientUnits="userSpaceOnUse"><stop stop-color="#292c2f"/><stop offset="1" stop-opacity="0"/></linearGradient><linearGradient id="d" x1="1" x2="35" y1="10" y2="44" gradientTransform="translate(.366 -.856)" gradientUnits="userSpaceOnUse"><stop stop-color="#2980b9"/><stop offset="1" stop-color="#1a7459"/></linearGradient><linearGradient id="a" x1="2" x2="40" y1="5" y2="43" gradientUnits="userSpaceOnUse"><stop stop-color="#2ecc71"/><stop offset="1" stop-color="#55b019"/></linearGradient></defs><g stroke-linejoin="round" stroke-width="2"><g fill="#bdc3c7"><circle cx="24" cy="24" r="20"/><path d="M43.979 23.418A20 20 0 0 1 24 43 20 20 0 0 1 4.021 23.582 20 20 0 0 0 4 24a20 20 0 0 0 20 20 20 20 0 0 0 20-20 20 20 0 0 0-.021-.582"/></g><path fill="url(#a)" d="M24 4A20 20 0 0 0 4 24a20 20 0 0 0 20 20 20 20 0 0 0 14.133-5.867L24 24 38.13 9.867A20 20 0 0 0 24 4"/><path fill="#258e52" d="M4.02 23.418q-.015.291-.021.582c0 11.05 8.954 20 20 20a20 20 0 0 0 14.13-5.867l-.521-.521a20 20 0 0 1-13.611 5.389c-10.876-.009-19.751-8.708-19.979-19.582"/><circle cx="24" cy="24" r="16" fill="#fcfcfc"/></g><g fill-rule="evenodd"><path fill="url(#b)" d="m25 5-1 5v24l-9.602 7.855c2.121.75 4.352 2.137 6.602 2.145 11.05 0 23-8.954 23-20-.008-.715-19-19-19-19" opacity=".2"/><path fill="url(#d)" d="m22 4 3 1s1.242 3.822 2.242 4.822C28.823 11.403 35 15 35 23c0 6-4 10-9 13 5-5 7-7 7-13 0-8-8-9-8-9v21.775c0 2.225-2.097 5.918-5.519 7.339-4.338 1.797-8.883.771-10.15-2.291s1.22-6.999 5.557-8.795c2.591-1.074 5.02-1.32 7.113-.417z"/></g></svg>