<svg xmlns="http://www.w3.org/2000/svg" width="48" height="48"><defs><linearGradient id="c" x1="434.57" x2="384.57" y1="543.8" y2="503.8" gradientTransform="matrix(.6875 0 0 .9 128.18 52.38)" gradientUnits="userSpaceOnUse"><stop stop-color="#343b40"/><stop offset="1" stop-color="#555e63"/></linearGradient><linearGradient id="a" x2="0" y1="543.8" y2="503.8" gradientTransform="matrix(1.15625 0 0 1 -63.34 0)" gradientUnits="userSpaceOnUse"><stop stop-color="#bd8d48"/><stop offset="1" stop-color="#e8b971"/></linearGradient><linearGradient id="d" x1="37.581" x2="53.58" y1="17.14" y2="33.14" gradientTransform="translate(362.99 498.66)" gradientUnits="userSpaceOnUse"><stop stop-color="#383e51"/><stop offset="1" stop-color="#655c6f" stop-opacity="0"/></linearGradient></defs><g transform="translate(-384.57 -499.8)"><rect width="37" height="40" x="390.57" y="503.8" fill="url(#a)" rx="3" ry="3"/><path fill="url(#c)" d="M392.57 505.8h33v36h-33z"/><path fill="#aa7f41" d="M392.57 505.8v36h33v-36zm1 1h31v34h-31z"/><g color="#000"><path fill="#fff" d="M418.57 539.8h4v1h-4z"/><path fill="#007ad9" d="M413.57 539.8h4v1h-4z"/></g><path fill="url(#d)" fill-rule="evenodd" d="m416.57 518.8-1 2v-1h-7l-4 7h-1l-1-2h-2l5 5h-5l14 14h9.99c.006 0 .01-3.568.01-8v-9z" opacity=".2"/><path fill="#d6d6d6" d="m416.57 518.8-8 .004-4.441 7.691-1.555-2.695h-2v1h1.428l2.133 3.693 5.02-8.693h6.42v1h1zm-5 3c-1.662 0-3 1.338-3 3a2.993 2.993 0 0 0 5 2.225v.775h1v-6h-1v.775a2.98 2.98 0 0 0-2-.775m0 1c1.108 0 2 .892 2 2s-.892 2-2 2-2-.892-2-2 .892-2 2-2m-10.99 5.99c-.006 0-.01.223-.01.5s.004.5.01.5h15.98c.006 0 .01-.223.01-.5s-.004-.5-.01-.5zm7 2c-.006 0-.01.223-.01.5s.004.5.01.5h1.98c.006 0 .01-.223.01-.5s-.004-.5-.01-.5z"/></g></svg>