<svg xmlns="http://www.w3.org/2000/svg" xmlns:xlink="http://www.w3.org/1999/xlink" width="48" height="48"><defs><linearGradient id="c" x1="68.21" x2="148.521" y1="177.751" y2="258.061" gradientTransform="translate(-16.518 -57.726)scale(.37626)" gradientUnits="userSpaceOnUse"><stop offset="0" stop-color="#59f"/><stop offset="1" stop-color="#06f"/></linearGradient><linearGradient xlink:href="#a" id="d" x1="220.306" x2="54.439" y1="207.919" y2="42.052" gradientTransform="matrix(.168 0 0 .1636 5.931 -1.941)" gradientUnits="userSpaceOnUse"/><linearGradient id="a"><stop offset="0" stop-color="#2a7fff"/><stop offset="1" stop-color="#0cf"/></linearGradient></defs><circle cx="24" cy="24" r="21" fill="url(#c)" style="fill:url(#c)"/><ellipse cx="24" cy="23.45" fill="url(#d)" rx="21" ry="20.45" style="fill:url(#d)"/><path d="M28.857 14.698c2.957-2.561 7.08-4.526 11.924-4.662.919 5.654-1.258 10.194-2.7 12.143" style="fill:#d79f87;stroke-width:1"/><path d="M30.679 15.174c2.588-1.77 5.13-3.03 8.5-3.317-.204 5.816-1.394 6.574-2.617 8.5" style="fill:#946e5d;stroke-width:1"/><path d="M8.821 26.908c.433-2.612-.042-12.076 15.411-13.108 10.461 1.536 14.155 5.602 14.947 13.108-.22 4.011-10.698 14.446-15.024 14.083-4.672.267-15.263-10.417-15.334-14.083" style="fill:#d79f87;stroke-width:1"/><path d="M19.143 14.698c-2.957-2.561-7.08-4.526-11.924-4.662C6.3 15.69 8.477 20.23 9.92 22.179" style="fill:#d79f87;stroke-width:1"/><path d="M17.321 15.174c-2.588-1.77-5.13-3.03-8.5-3.317.204 5.816 1.394 6.574 2.617 8.5" style="fill:#946e5d;stroke-width:1"/><path d="M7.22 10.036a17 17 0 0 0-.213 3.108c.01-.805.072-1.638.212-2.501 4.774.135 8.844 2.049 11.791 4.556 1.5-.382 3.226-.659 5.222-.792 1.789.262 3.365.606 4.777 1.02l-.152-.123c2.957-2.56 7.08-4.524 11.924-4.661.142.874.203 1.718.21 2.534a17 17 0 0 0-.21-3.141c-4.843.136-8.967 2.1-11.924 4.661l.152.124c-1.412-.415-2.988-.759-4.777-1.021-1.996.133-3.721.41-5.222.792-2.947-2.508-7.017-4.421-11.79-4.556m2.43 12.338c-.627 1.908-.68 3.633-.829 4.535q.005.159.035.334c.138-1.014.216-2.733.927-4.661-.043-.06-.089-.143-.133-.208m28.57.202c-.045.065-.095.15-.14.21.526 1.316.866 2.792 1.06 4.435.017-.107.033-.213.039-.312-.17-1.603-.486-3.036-.959-4.333" style="opacity:.2;fill:#fff;stroke-width:1"/><path d="M27.34 33.41a3.34 3.34 0 1 1-6.68 0 3.34 3.34 0 1 1 6.68 0" style="fill:#946e5d;stroke-width:1"/><path d="M23.15 28.358s-8.376-1.068-9.776 3.527c-.939 3.083 1.206 3.16 1.538 5.245.331 2.085-2.083 1.555-2.083 1.555l.23.463s2.357.414 2.43-1.82c.072-2.232-2.182-3.243-.798-5.443 1.385-2.2 6.537-.91 6.537-.91z" style="opacity:.1;stroke-width:1"/><path d="M23.15 27.75s-8.376-1.067-9.776 3.528c-.939 3.082 1.206 3.16 1.538 5.245.331 2.084-2.083 1.555-2.083 1.555l.23.463s2.357.414 2.43-1.82-2.182-3.243-.798-5.443c1.385-2.2 6.537-.91 6.537-.91z" style="fill:#4a3025;stroke-width:1"/><path d="M17.018 16.107a6.377 6.377 0 0 0-6.375 6.375 6.377 6.377 0 0 0 6.375 6.375 6.377 6.377 0 0 0 6.375-6.375 6.377 6.377 0 0 0-6.375-6.375m0 1.822a4.555 4.555 0 0 1 4.553 4.553 4.555 4.555 0 0 1-4.553 4.554 4.555 4.555 0 0 1-4.554-4.554 4.555 4.555 0 0 1 4.554-4.553" style="opacity:.1;stroke-width:1"/><path d="M17.018 15.5a6.377 6.377 0 0 0-6.375 6.375 6.377 6.377 0 0 0 6.375 6.375 6.377 6.377 0 0 0 6.375-6.375 6.377 6.377 0 0 0-6.375-6.375m0 1.821a4.555 4.555 0 0 1 4.553 4.554 4.555 4.555 0 0 1-4.553 4.554 4.555 4.555 0 0 1-4.554-4.554 4.555 4.555 0 0 1 4.554-4.554" style="fill:#f2f2f2;stroke-width:1"/><path d="M24.85 28.358s8.376-1.068 9.776 3.527c.939 3.083-1.206 3.16-1.538 5.245-.331 2.085 2.083 1.555 2.083 1.555l-.23.463s-2.357.414-2.43-1.82c-.072-2.232 2.182-3.243.798-5.443-1.385-2.2-6.537-.91-6.537-.91z" style="opacity:.1;stroke-width:1"/><path d="M24.85 27.75s8.376-1.067 9.776 3.528c.939 3.082-1.206 3.16-1.538 5.245-.331 2.084 2.083 1.555 2.083 1.555l-.23.463s-2.357.414-2.43-1.82 2.182-3.243.798-5.443c-1.385-2.2-6.537-.91-6.537-.91z" style="fill:#4a3025;stroke-width:1"/><path d="M27.34 29.768a3.34 3.34 0 1 1-6.68 0 3.34 3.34 0 1 1 6.68 0" style="fill:#383838;stroke-width:1"/><path d="M30.972 21.572c-1.255.012-2.165.145-2.895.49-.974.458-1.591 1.288-2.24 2.623a.158.154 0 0 0 .045.187c.749.573 1.449.871 2.105.936s1.261-.108 1.806-.448c1.088-.681 1.95-2.014 2.692-3.542a.158.154 0 0 0-.137-.22q-.749-.031-1.376-.026" style="opacity:.2;stroke-width:1"/><path d="M30.972 20.965c-1.255.012-2.165.145-2.895.489-.974.459-1.591 1.288-2.24 2.623a.158.154 0 0 0 .045.188c.749.573 1.449.871 2.105.936s1.261-.108 1.806-.448c1.088-.681 1.95-2.015 2.692-3.542a.158.154 0 0 0-.137-.22q-.749-.031-1.376-.026" style="fill:#aef766;stroke-width:1"/><path d="M28.295 21.936c-.113 1.21-.066 1.742.79 2.428-.06-1.116-.09-1.658-.79-2.428" style="fill:#263742;stroke-width:1"/><path d="M40.967 21.186a14.343 3.276 18.246 1 1-27.256-8.943 14.343 3.276 18.246 1 1 27.256 8.943" style="opacity:.1;stroke-width:1"/><path d="M40.967 20.579a14.343 3.276 18.246 1 1-27.256-8.943 14.343 3.276 18.246 1 1 27.256 8.943" style="fill:#3f3f3f;stroke-width:1"/><path d="M24.187 7.607c3.059.102 8.272.987 12.563 3.697l-2.198 6.573c-4.532.388-9.76-1.49-12.373-3.794z" style="opacity:.1;stroke-width:1"/><path d="M24.187 7c3.059.102 8.272.987 12.563 3.697l-2.198 6.572c-4.532.39-9.76-1.49-12.373-3.793z" style="fill:#484848;stroke-width:1"/><path d="M24.285 7.005c3.816 2.991 9.912 4.203 12.411 3.853l.054-.161c-4.248-2.683-9.394-3.575-12.465-3.692" style="opacity:.2;stroke-width:1"/><path d="M10.68 21.11c-.8.254-1.302.493-1.591.762-.145.134-.24.283-.262.446a.64.64 0 0 0 .126.457c.189.27.531.484.968.7.436.217.97.426 1.537.633l.12-.324a16 16 0 0 1-1.503-.617c-.415-.206-.72-.42-.84-.59-.06-.085-.075-.15-.066-.212.008-.063.048-.142.154-.241.213-.197.683-.439 1.461-.686z" style="fill:#1b65cf;stroke-width:1"/><path d="M24 31.59a3.34 3.34 0 1 1-6.679 0 3.34 3.34 0 1 1 6.679 0" style="opacity:.1;stroke-width:1"/><path d="M24 30.982a3.34 3.34 0 1 1-6.679 0 3.34 3.34 0 1 1 6.679 0" style="fill:#79503c;stroke-width:1"/><path d="M30.679 31.589a3.34 3.338 0 1 1-6.679 0 3.34 3.338 0 1 1 6.679 0" style="opacity:.1;stroke-width:1"/><path d="M30.679 30.982a3.34 3.338 0 1 1-6.679 0 3.34 3.338 0 1 1 6.679 0" style="fill:#79503c;stroke-width:1"/><path d="m22.65 11.954-.471 1.522c2.613 2.302 7.84 4.183 12.373 3.794L35 15.926c-1.325.108-4.574-.312-6.653-.895-2.234-.626-4.666-1.953-5.697-3.077" style="opacity:.2;fill:#fff;stroke-width:1"/><path d="M17.018 17.321a4.555 4.555 0 0 1 4.553 4.554 4.555 4.555 0 0 1-4.553 4.554 4.555 4.555 0 0 1-4.554-4.554 4.555 4.555 0 0 1 4.554-4.554" style="opacity:.3;fill:#1b65cf;stroke-width:1"/><path d="M15.206 21.572c1.255.012 2.165.145 2.896.49.974.458 1.591 1.288 2.24 2.623a.158.154 0 0 1-.045.187c-.75.573-1.45.871-2.105.936-.656.065-1.262-.108-1.806-.448-1.088-.681-1.95-2.014-2.692-3.542a.158.154 0 0 1 .136-.22q.75-.031 1.376-.026" style="opacity:.2;stroke-width:1"/><path d="M15.206 20.965c1.255.012 2.165.145 2.896.489.974.459 1.591 1.288 2.24 2.623a.158.154 0 0 1-.045.188c-.75.573-1.45.871-2.105.936-.656.065-1.262-.108-1.806-.448-1.088-.681-1.95-2.015-2.692-3.542a.158.154 0 0 1 .136-.22q.75-.031 1.376-.026" style="fill:#aef766;stroke-width:1"/><path d="M17.884 21.936c.113 1.21.065 1.742-.79 2.428.06-1.116.09-1.658.79-2.428" style="fill:#263742;stroke-width:1"/></svg>