<svg xmlns="http://www.w3.org/2000/svg" viewBox="0 0 48 48"><linearGradient id="a" x1="4" x2="4" y1="3" y2="45" gradientUnits="userSpaceOnUse"><stop offset="0" stop-color="#f10000"/><stop offset="1" stop-color="#b20000"/></linearGradient><path fill="url(#a)" d="M6.4 4C5.07 4 4 5.07 4 6.4v7.2C4 14.93 5.07 16 6.4 16h14.2c1.33 0 2.4-1.07 2.4-2.4V6.4C23 5.07 21.93 4 20.6 4zm21 0C26.07 4 25 5.07 25 6.4v7.2c0 1.33 1.07 2.4 2.4 2.4h14.2c1.33 0 2.4-1.07 2.4-2.4V6.4C44 5.07 42.93 4 41.6 4zm-12 14c-1.33 0-2.4 1.07-2.4 2.4v7.2c0 1.33 1.07 2.4 2.4 2.4h14.2c1.33 0 2.4-1.07 2.4-2.4v-7.2c0-1.33-1.07-2.4-2.4-2.4zm21 0c-1.33 0-2.4 1.07-2.4 2.4v7.2c0 1.33 1.07 2.4 2.4 2.4H44V18zm-30 14C5.07 32 4 33.07 4 34.4v7.2C4 42.93 5.07 44 6.4 44h14.2c1.33 0 2.4-1.07 2.4-2.4v-7.2c0-1.33-1.07-2.4-2.4-2.4zm21 0c-1.33 0-2.4 1.07-2.4 2.4v7.2c0 1.33 1.07 2.4 2.4 2.4h14.2c1.33 0 2.4-1.07 2.4-2.4v-7.2c0-1.33-1.07-2.4-2.4-2.4z"/><path fill="#101010" d="M21 4.041V12c0 1.108-.892 2-2 2H4.041a2.39 2.39 0 0 0 2.36 2H20.6c1.33 0 2.4-1.07 2.4-2.4V6.4a2.39 2.39 0 0 0-2-2.359m21 0V12c0 1.108-.892 2-2 2H25.041a2.39 2.39 0 0 0 2.36 2H41.6c1.33 0 2.4-1.07 2.4-2.4V6.4a2.39 2.39 0 0 0-2-2.359m-12 14V26c0 1.108-.892 2-2 2H13.041a2.39 2.39 0 0 0 2.36 2H29.6c1.33 0 2.4-1.07 2.4-2.4v-7.2a2.39 2.39 0 0 0-2-2.359M34.041 28a2.39 2.39 0 0 0 2.36 2H44v-2zM21 32.041V40c0 1.108-.892 2-2 2H4.041a2.39 2.39 0 0 0 2.36 2H20.6c1.33 0 2.4-1.07 2.4-2.4v-7.2a2.39 2.39 0 0 0-2-2.359m21 0V40c0 1.108-.892 2-2 2H25.041a2.39 2.39 0 0 0 2.36 2H41.6c1.33 0 2.4-1.07 2.4-2.4v-7.2a2.39 2.39 0 0 0-2-2.359" opacity=".23"/></svg>