<svg xmlns="http://www.w3.org/2000/svg" xmlns:xlink="http://www.w3.org/1999/xlink" width="48" height="48"><defs><linearGradient id="c" x2="0" y1="44" y2="8.07" gradientUnits="userSpaceOnUse"><stop stop-color="#42a603"/><stop offset="1" stop-color="#78da06"/></linearGradient><linearGradient id="k" x1="406.13" x2="416.44" y1="519.46" y2="525.15" gradientTransform="matrix(1.27402 -.19577 .10158 1 -551.34 -414.68)" gradientUnits="userSpaceOnUse"><stop stop-color="#ffc35a"/><stop offset="1" stop-color="#faae2a"/></linearGradient><linearGradient id="b" x1="410.03" x2="417.08" y1="529.48" y2="538.67" gradientUnits="userSpaceOnUse"><stop/><stop offset="1" stop-opacity="0"/></linearGradient><linearGradient id="a" x1="388.57" x2="400.57" y1="511.8" y2="527.59" gradientUnits="userSpaceOnUse"><stop stop-color="#fff"/><stop offset="1" stop-color="#d9fafd"/></linearGradient><linearGradient xlink:href="#a" id="i" x1="418.57" x2="430.07" y1="507.8" y2="523.31" gradientTransform="translate(-384.57 -499.8)" gradientUnits="userSpaceOnUse"/><linearGradient id="g" x1="417.19" x2="420.64" y1="529.39" y2="532.27" gradientTransform="translate(-384.57 -499.8)" gradientUnits="userSpaceOnUse"><stop stop-color="#f39c12"/><stop offset="1" stop-color="#f5ab35"/></linearGradient><linearGradient xlink:href="#b" id="f" x1="393.76" x2="400.69" y1="518.99" y2="525.91" gradientTransform="translate(-384.57 -499.8)" gradientUnits="userSpaceOnUse"/><linearGradient xlink:href="#b" id="e" x1="418.57" x2="425.57" y1="518.8" y2="525.8" gradientTransform="translate(-384.57 -499.8)" gradientUnits="userSpaceOnUse"/><linearGradient xlink:href="#c" id="l" x1="419.63" x2="422.26" y1="508.05" y2="504.42" gradientTransform="translate(-384.57 -499.8)" gradientUnits="userSpaceOnUse"/><linearGradient xlink:href="#a" id="h" x1="388.57" x2="400.57" y1="511.8" y2="527.59" gradientTransform="translate(-384.57 -499.8)" gradientUnits="userSpaceOnUse"/><linearGradient xlink:href="#b" id="j" x1="410.03" x2="417.08" y1="529.48" y2="538.67" gradientTransform="translate(-384.57 -499.8)" gradientUnits="userSpaceOnUse"/><linearGradient xlink:href="#c" id="d" x2="0" y1="44" y2="8.07" gradientUnits="userSpaceOnUse"/></defs><path d="M12.953 8c-1.24 0-2.42.25-3.492.701a8.9 8.9 0 0 0-2.844 1.916 8.9 8.9 0 0 0-1.916 2.844A9 9 0 0 0 4 16.953v12.094c0 1.24.25 2.42.701 3.492a8.9 8.9 0 0 0 1.916 2.844 8.9 8.9 0 0 0 2.844 1.916 9 9 0 0 0 3.492.701H28l7 6v-6h.047c1.24 0 2.42-.25 3.492-.701a8.9 8.9 0 0 0 2.844-1.916 8.9 8.9 0 0 0 1.916-2.844A9 9 0 0 0 44 29.047V8h-8.953z" style="fill:url(#d);fill-rule:evenodd"/><path d="m34 19 10 10V19Z" style="opacity:.1;fill:url(#e);fill-rule:evenodd"/><path d="m14.25 13.87 10 10L13 33.495l-9-9z" style="opacity:.1;fill:url(#f);fill-rule:evenodd"/><path d="M16 30c7.883 7.515 15.183 7.239 18.736 2.951S35.631 25 35.631 25Z" style="fill:url(#g);fill-rule:evenodd"/><path d="M6.151 11.088a8.8 8.8 0 0 0-1.45 2.373A9 9 0 0 0 4 16.953v7.537A7.46 7.46 0 0 0 8.5 26c4.142 0 8.531-1.858 8.531-6s-4.389-9-8.531-9c-.781 0-1.641-.018-2.349.088" style="color:#000;fill:url(#h)"/><path d="M35 8c-2.132 2.607-3.492 5.765-2.482 8.842 1.413 4.304 6.287 4.841 10.289 3.527A7 7 0 0 0 44 19.844V8.001Z" style="color:#000;fill:url(#i)"/><g style="color:#000;fill:#31363b;stroke-width:3;stroke-linecap:round;stroke-linejoin:round" transform="translate(-384.57 -499.8)"><circle cx="395.07" cy="518.3" r="3.5"/><circle cx="421.07" cy="514.3" r="3.5"/></g><path d="M17 30c5.99 6.172 13.883 5.86 16.583 2.339 2.701-3.522.68-6.53.68-6.53z" style="fill:#192629;fill-rule:evenodd"/><path d="M31.45 31.85c-2.06.073-4.539.715-6.829 1.883 3.244.942 5.47.429 7.243-.677.643-.401 1.115-.693 1.269-1.121a9.3 9.3 0 0 0-1.683-.085" style="fill:#da4453;fill-rule:evenodd"/><path d="M24 38h4l7 6v-6h.047c1.24 0 2.42-.25 3.492-.701a8.9 8.9 0 0 0 2.844-1.916 8.9 8.9 0 0 0 1.916-2.844c.026-.061.016-.137.04-.2L36 25l-20 5Z" style="opacity:.2;fill:url(#j);fill-rule:evenodd"/><path d="M16 30s1.432-4.319 8.931-6.267S36.001 25 36.001 25c.999 2.908-8.664 7.427-8.664 7.427S16.638 33.003 16.003 30" style="fill:url(#k);fill-rule:evenodd"/><path d="M44 8c0-3-4.75-4-4.75-4s-.589 1.268 0 2C37 4 35 5 35 5s.504 1.312 1.25 2c-1.199-.575-2.5 0-2.5 0s.679 1 1.25 1z" style="fill:url(#l);fill-rule:evenodd"/><g style="fill:#31363b;fill-rule:evenodd"><path d="M44.002 20s4.255-.491 3.81-1.531C47.369 17.43 44.003 20 44.003 20m-.001 0s3.067-2.902 2.063-3.464S44.002 20 44.002 20"/><path d="M44.002 20s3.685 2.122 3.985 1.035S44.002 20 44.002 20"/></g><g style="fill:#31363b;fill-rule:evenodd"><path d="M4.001 27S.316 29.122.016 28.035 4.001 27 4.001 27m0 0S-.254 26.509.19 25.469C.634 24.43 4.001 27 4.001 27"/><path d="M4.001 27S2.41 30.858 1.49 30.173 4 27 4 27"/></g></svg>