<svg xmlns="http://www.w3.org/2000/svg" xmlns:xlink="http://www.w3.org/1999/xlink" width="48" height="48"><defs><linearGradient id="a"><stop offset="0" style="stop-color:#009200;stop-opacity:1"/><stop offset="1" style="stop-color:#006400;stop-opacity:1"/></linearGradient><linearGradient id="i" x1="414.57" x2="422.57" y1="511.8" y2="519.8" gradientUnits="userSpaceOnUse"><stop stop-color="#292c2f" style="stop-opacity:.466"/><stop offset="1" stop-opacity="0"/></linearGradient><linearGradient id="h" x1="414.57" x2="422.57" y1="511.8" y2="519.8" gradientUnits="userSpaceOnUse"><stop stop-color="#292c2f" style="stop-opacity:.572"/><stop offset="1" stop-opacity="0"/></linearGradient><linearGradient id="e"><stop offset="0" style="stop-color:#2e9000;stop-opacity:1"/><stop offset="1" style="stop-color:#00ba00;stop-opacity:1"/></linearGradient><linearGradient id="d"><stop offset="0" style="stop-color:#c8cfd3;stop-opacity:1"/><stop offset="1" style="stop-color:#94918a;stop-opacity:1"/></linearGradient><linearGradient id="c"><stop offset="0" style="stop-color:#f4be00;stop-opacity:1"/><stop offset="1" style="stop-color:#fff4ca;stop-opacity:1"/></linearGradient><linearGradient id="b"><stop offset="0" style="stop-color:#00c200;stop-opacity:1"/><stop offset="1" style="stop-color:#007900;stop-opacity:1"/></linearGradient><linearGradient id="x" x1="384.57" x2="394.57" y1="547.8" y2="530.48" gradientUnits="userSpaceOnUse"><stop stop-color="#fff" stop-opacity="0"/><stop offset="1" stop-color="#fff" stop-opacity=".314"/></linearGradient><linearGradient id="v" x1="384.57" x2="414.57" gradientUnits="userSpaceOnUse"><stop stop-opacity=".275"/><stop offset="1" stop-color="#fff" stop-opacity="0"/></linearGradient><linearGradient id="w" x1="432.57" x2="421.02" y1="547.8" y2="527.8" gradientUnits="userSpaceOnUse"><stop stop-opacity=".082"/><stop offset="1" stop-opacity="0"/></linearGradient><linearGradient id="k" x2="0" y1="44" y2="20" gradientUnits="userSpaceOnUse"><stop stop-color="#eef1f2"/><stop offset="1" stop-color="#f9fafb"/></linearGradient><linearGradient id="f" x1="414.57" x2="422.57" y1="511.8" y2="519.8" gradientUnits="userSpaceOnUse"><stop stop-color="#292c2f"/><stop offset="1" stop-opacity="0"/></linearGradient><linearGradient xlink:href="#a" id="l" x1="19" x2="25" y1="10" y2="36" gradientUnits="userSpaceOnUse"/><linearGradient xlink:href="#b" id="p" x1="24" x2="32" y1="21" y2="32" gradientUnits="userSpaceOnUse"/><linearGradient id="u" x2="0" y1="44" y2="20" gradientTransform="translate(0 20)" gradientUnits="userSpaceOnUse"><stop stop-color="#eef1f2"/><stop offset="1" stop-color="#f9fafb"/></linearGradient><linearGradient xlink:href="#c" id="q" x1="7" x2="6" y1="13" y2="10" gradientUnits="userSpaceOnUse"/><linearGradient xlink:href="#c" id="r" x1="16" x2="13" y1="8" y2="4" gradientUnits="userSpaceOnUse"/><linearGradient xlink:href="#c" id="s" x1="27" x2="25.661" y1="6" y2="2" gradientUnits="userSpaceOnUse"/><linearGradient xlink:href="#d" id="j" x1="19" x2="27" y1="12" y2="36" gradientUnits="userSpaceOnUse"/><linearGradient xlink:href="#c" id="t" x1="26.43" x2="21.454" y1="24" y2="21.637" gradientUnits="userSpaceOnUse"/><linearGradient xlink:href="#e" id="y" x1="33.5" x2="27.568" y1="7" y2="5" gradientUnits="userSpaceOnUse"/><radialGradient xlink:href="#f" id="n" cx="18.992" cy="-11.809" r="8.426" fx="18.992" fy="-11.809" gradientTransform="matrix(.28187 .47473 -.11868 .07047 10.745 7.816)" gradientUnits="userSpaceOnUse"/><radialGradient xlink:href="#h" id="o" cx="28.3" cy="10.776" r="9.464" fx="28.3" fy="10.776" gradientTransform="matrix(.2032 -.05806 .21133 .73966 18.972 4.672)" gradientUnits="userSpaceOnUse"/><radialGradient xlink:href="#i" id="m" cx="36.651" cy="12.791" r="5.854" fx="36.651" fy="12.791" gradientTransform="matrix(.23047 -.06922 .37154 1.23698 21.8 -1.66)" gradientUnits="userSpaceOnUse"/></defs><path d="M24 8 4 20l20 15 20-15Z" style="fill:url(#j);fill-rule:evenodd;fill-opacity:1"/><path d="M4 20v24h40V20L28 32h-8z" style="fill:url(#k)"/><path d="M36 26c0 2-2 11-2 11l-21 1V27c0-10-1-13-10-15 9-4 15.167 1.273 16.863 7.267C21 11 19.42 6.211 10 6c11-4 17 1 18.928 11.124C30 10 29 6 24 2c12 1 11.985 11.047 12 24" style="fill:url(#l);fill-opacity:1;fill-rule:evenodd;stroke:none;stroke-width:1px;stroke-linecap:butt;stroke-linejoin:miter;stroke-opacity:1"/><path d="M28.928 17.123c2.866-.791 5.088-1.148 6.781-1.293C35.016 8.087 32.595 2.716 24 2c5 4 6 8 4.928 15.123" style="fill:url(#m);fill-opacity:1;fill-rule:evenodd;stroke:none;stroke-width:1px;stroke-linecap:butt;stroke-linejoin:miter;stroke-opacity:1"/><path d="M29.197 17.332c-4.629.003-10.105 1.531-13.334 4.777-1.777 1.788-2.547 4.987-2.863 5.252v.203c.15.127.545.196.545.196.61-3.76 3.861-7.201 7.63-8.485 5.05-1.72 9.106-1.935 14.755.303-.007-.222-.013-.447-.022-.666-1.5-1.04-3.952-1.582-6.71-1.58" style="fill:#00a800;fill-opacity:1;fill-rule:evenodd;stroke:none;stroke-width:1px;stroke-linecap:butt;stroke-linejoin:miter;stroke-opacity:1"/><path d="M9.193 10.605C7.323 10.58 5.25 11 3 12c6.675 1.483 8.946 3.524 9.676 8.555 1.82-.309 4.3-.745 7.176-1.325-1.282-4.48-5.063-8.548-10.659-8.625" style="fill:url(#n);fill-opacity:1;fill-rule:evenodd;stroke:none;stroke-width:1px;stroke-linecap:butt;stroke-linejoin:miter;stroke-opacity:1;opacity:.462"/><path d="m29 17-.059.002c-.006.042-.007.079-.013.121-.008-.041-.02-.078-.028-.119-3.217.013-6.353.693-9 1.951-.013.106-.022.206-.037.313-.024-.085-.058-.166-.084-.25C15.531 21.077 13.003 24.427 13 28q.004.29.031.58c.328-5.902 6.456-11.12 15.625-11.049 2.398.008 5.106.854 7.262 1.574-.013-.35-.036-.684-.053-1.027C33.722 17.373 31.376 17.004 29 17m6.416 4.713c-3.022-.04-6.267.71-9.28 2.142-6.537 3.12-10.818 8.869-10.435 14.016l.424-.02c.153-4.932 4.334-10.175 10.441-13.093 3.061-1.45 6.357-2.194 9.414-2.125-.002-.292-.002-.6-.005-.889a17 17 0 0 0-.559-.031" style="opacity:1;fill:#006400;fill-opacity:1;stroke:none;stroke-width:1.10000002;stroke-linecap:square;stroke-linejoin:miter;stroke-miterlimit:4;stroke-dasharray:none;stroke-dashoffset:0;stroke-opacity:1"/><path d="m19.883 18.941.078.264c2.96-.598 6.152-1.305 8.967-2.082C27 6.999 21 2 10 6c9.282.208 10.924 4.895 9.883 12.941" style="fill:url(#o);fill-opacity:1;fill-rule:evenodd;stroke:none;stroke-width:1px;stroke-linecap:butt;stroke-linejoin:miter;stroke-opacity:1"/><path d="M20 22s16-4 16 8c0 15.033-15 6-15 6s16-12-1-14" style="fill:url(#p);fill-opacity:1;fill-rule:evenodd;stroke:none;stroke-width:1px;stroke-linecap:butt;stroke-linejoin:miter;stroke-opacity:1"/><path d="M9.193 10.605C7.323 10.58 5.25 11 3 12c2.678.595 4.634 1.285 6.08 2.215A7 5.5 0 0 0 10 11.5a7 5.5 0 0 0-.088-.842c-.24-.018-.472-.05-.719-.053" style="opacity:1;fill:url(#q);fill-opacity:1;stroke:none;stroke-width:1.10000002;stroke-linecap:square;stroke-linejoin:miter;stroke-miterlimit:4;stroke-dasharray:none;stroke-dashoffset:0;stroke-opacity:1"/><path d="M17.326 4.627C15.186 4.563 12.75 5 10 6c3.015.068 5.22.61 6.797 1.58.735-.857 1.16-1.895 1.203-2.928-.222-.018-.445-.018-.674-.025" style="opacity:1;fill:url(#r);fill-opacity:1;stroke:none;stroke-width:1.10000002;stroke-linecap:square;stroke-linejoin:miter;stroke-miterlimit:4;stroke-dasharray:none;stroke-dashoffset:0;stroke-opacity:1"/><path d="M24 2c1.915 1.532 3.238 3.066 4.088 4.773a4.5 3.5 0 0 0 2.785-2.466C29.193 3.047 26.965 2.247 24 2" style="opacity:1;fill:url(#s);fill-opacity:1;stroke:none;stroke-width:1.10000002;stroke-linecap:square;stroke-linejoin:miter;stroke-miterlimit:4;stroke-dasharray:none;stroke-dashoffset:0;stroke-opacity:1"/><path d="M25.063 21.367C22.25 21.437 20 22 20 22c2.974.35 4.92 1.011 6.137 1.855A4 3 0 0 0 27 22a4 3 0 0 0-.082-.588c-.632-.04-1.258-.06-1.855-.045" style="opacity:1;fill:url(#t);fill-opacity:1;stroke:none;stroke-width:1.10000002;stroke-linecap:square;stroke-linejoin:miter;stroke-miterlimit:4;stroke-dasharray:none;stroke-dashoffset:0;stroke-opacity:1"/><path d="M4 40v24h40V40L28 52h-8z" style="fill:url(#u)" transform="translate(0 -20)"/><g style="fill-rule:evenodd"><path d="m388.57 543.8 16-12h8l16 12z" style="fill:url(#v)" transform="translate(-384.57 -499.8)"/><path d="m428.57 543.8-16-12 16-12z" style="fill:url(#w)" transform="translate(-384.57 -499.8)"/><path d="m388.57 543.8 16-12-16-12z" style="fill:url(#x)" transform="translate(-384.57 -499.8)"/></g><path d="M4 63h40v1H4z" style="fill:#d1d3d4" transform="translate(0 -20)"/><path d="M9.725 10.645c.05 1.606-.344 2.527-1.237 3.214q.477.26.889.547c1.354-.764 1.702-2.173.506-3.75zM30.84 4.283c-.754 1.342-1.505 1.948-2.877 2.248q.11.213.21.428c2.044.185 3.487-.746 3.048-2.373a9 9 0 0 0-.381-.303M18 4.653c-.3 1.401-.8 2.233-1.566 2.724.377.205.73.427 1.043.676.937-.624 1.246-1.84.523-3.4M34 11.084c-2.11.708-3.2.672-4.73.238q.003.069.005.139c1.278.574 2.402.99 4.725-.377M24 12.084c-1.73.478-2.88.617-4.018.527.019.107.028.223.043.332 1.026.143 2.213-.004 3.975-.859M17 16c-2.074 1.327-3.294 1.734-4.975 1.893l.065.175c1.467.051 2.834-.128 4.91-2.068M26.8 21.402c-.026 1.04-.217 1.77-.663 2.453q.277.193.504.397c.908-.784 1.268-1.86.767-2.8q-.305-.03-.607-.05" style="fill:#006400;fill-opacity:1;fill-rule:evenodd;stroke:none;stroke-width:1px;stroke-linecap:butt;stroke-linejoin:miter;stroke-opacity:1"/><path d="M31.021 4.422c-.067 1.108-1.162 2.806-3.06 2.103q.126.242.238.489c1.573.626 3.83-.021 3.045-2.407q-.11-.093-.223-.185M18 4.652c.402.826.14 2.373-1.025 3.051.17.113.344.224.5.348 1.27-.582 1.69-2.051.685-3.375-.078-.007-.08-.019-.16-.024M9.795 10.65c.842 1.043.885 2.411-.754 3.541q.284.182.543.377c1.251-.817 2.073-2.637.7-3.882-.16-.018-.326-.025-.49-.036" style="fill:url(#y);fill-opacity:1;fill-rule:evenodd;stroke:none;stroke-width:1px;stroke-linecap:butt;stroke-linejoin:miter;stroke-opacity:1"/><path d="M27.162 21.432c.138.514.197 1.47-.588 2.757q.109.094.207.19c1.522-1.37 1.157-2.377.711-2.92z" style="fill:#40d800;fill-opacity:1;fill-rule:evenodd;stroke:none;stroke-width:1px;stroke-linecap:butt;stroke-linejoin:miter;stroke-opacity:1"/><path d="M17 16c-1.853 1.725-2.882 2-4.91 2.068q.034.087.064.176c1.435.294 3.278.602 4.846-2.244" style="fill:#00ab00;fill-opacity:1;fill-rule:evenodd;stroke:none;stroke-width:1px;stroke-linecap:butt;stroke-linejoin:miter;stroke-opacity:1"/><path d="M23.988 12.095c-2.577 1.073-2.673.905-3.963.848.027.105.038.24.046.36.831.379 2.033.697 3.917-1.208M34 11.084c-2.06 1.099-3.105 1.216-4.725.377C30 12.157 31 13.81 34 11.084" style="fill:#00b700;fill-opacity:1;fill-rule:evenodd;stroke:none;stroke-width:1px;stroke-linecap:butt;stroke-linejoin:miter;stroke-opacity:1"/></svg>