<svg xmlns="http://www.w3.org/2000/svg" width="48" height="48"><linearGradient id="a" x1="4" x2="44" y1="4" y2="44" gradientUnits="userSpaceOnUse"><stop offset="0" stop-color="#3498db"/><stop offset="1" stop-color="#0352b5"/></linearGradient><linearGradient id="b" x1="15" x2="38" y1="13" y2="36" gradientTransform="matrix(.88128 0 0 .98239 1.51 .775)" gradientUnits="userSpaceOnUse"><stop offset="0" stop-color="#194f95"/><stop offset="1" stop-color="#194f95" stop-opacity="0"/></linearGradient><g stroke-width="2" transform="translate(-1.2 -1.2)scale(1.05)"><rect width="40" height="40" x="4" y="4" fill="url(#a)" rx="20" ry="20" style="fill:url(#a)"/><path fill="url(#b)" d="M21.78 11.581v3.93l2.643 2.947v6.877l-3.525-3.93c-2.103 0-4.12.88-5.608 2.446s-2.323 3.69-2.323 5.904c0 2.135-.773 4.186.615 5.734L22.767 44h17.52V21.405l-8.814-9.824z" style="fill:url(#b);stroke-width:1.86093"/></g><path d="M12.627 10.769v25.3h11.5v-25.3zm11.5 25.3h12.65v-12.65zm8.654-25.24a12.94 12.94 0 0 1-5.143 5.146 12.94 12.94 0 0 1 5.143 5.146 12.95 12.95 0 0 1 5.146-5.146 12.95 12.95 0 0 1-5.146-5.145" style="fill:#ececec;fill-opacity:1;stroke-width:1.14996"/></svg>