<svg xmlns="http://www.w3.org/2000/svg" width="48" height="48" viewBox="0 0 12.7 12.7"><defs><linearGradient id="a" x1="89.4" x2="89.4" y1="120" y2="56" gradientTransform="scale(.26458)" gradientUnits="userSpaceOnUse"><stop stop-color="#02AA93"/><stop offset="1" stop-color="#67FF80"/></linearGradient></defs><circle cx="6.35" cy="6.35" r="5.556" style="stroke-width:.777735;paint-order:stroke fill markers;fill:teal"/><path fill-rule="evenodd" d="M2.852 2.038A5.56 5.56 0 0 0 .794 6.35a5.56 5.56 0 0 0 2.058 4.311Z" opacity=".2" style="stroke-width:.205773;paint-order:fill markers stroke"/><path fill="#f9f9f9" d="M5.888 2.646c-.521 0-.944.292-.944.653.015.135.1.305.145.364.218.29.218.472.164.58H3.49a.58.58 0 0 0-.58.582v1.47c.108.055.29.055.58-.163a.9.9 0 0 1 .364-.145c.36 0 .653.422.653.944 0 .521-.292.944-.653.944-.111-.002-.28-.1-.364-.145-.29-.218-.472-.218-.58-.164v1.907c0 .322.259.581.58.581h2.343c.054-.109.054-.29-.164-.581a.9.9 0 0 1-.145-.363c0-.361.423-.654.944-.654.522 0 .944.293.944.654-.002.11-.1.279-.145.363-.218.29-.218.472-.163.581H8.14a.58.58 0 0 0 .58-.581V7.857c.11-.055.291-.055.582.163.084.045.252.144.363.146.361 0 .654-.423.654-.945 0-.521-.293-.944-.654-.944a.9.9 0 0 0-.363.145c-.29.218-.472.218-.581.164V4.825a.58.58 0 0 0-.581-.581H6.524c-.055-.11-.055-.29.163-.581.044-.084.144-.253.145-.364 0-.36-.422-.653-.944-.653" style="fill:#fff;fill-opacity:1"/><path fill="url(#a)" fill-rule="evenodd" d="M9.457 5.335a.335.335 0 0 1 .134.47l-.119.199a.35.35 0 0 1-.3.172.35.35 0 0 1-.179-.05.27.27 0 0 0-.149-.037.316.316 0 0 0-.313.301c0 .19-.156.34-.35.34H7.95a.343.343 0 0 1-.352-.34.313.313 0 0 0-.46-.263.354.354 0 0 1-.481-.123l-.118-.199a.33.33 0 0 1-.003-.34c.027-.05.078-.099.135-.13a.27.27 0 0 0 .107-.107.304.304 0 0 0-.11-.414.34.34 0 0 1-.125-.469l.113-.195a.35.35 0 0 1 .478-.126c.147.08.339.026.425-.115a.26.26 0 0 0 .039-.145.3.3 0 0 1 .047-.176.36.36 0 0 1 .3-.172h.239c.125 0 .239.07.301.172.03.05.051.111.046.176q-.003.075.039.145c.086.141.278.194.427.115a.35.35 0 0 1 .476.126l.113.195a.336.336 0 0 1-.125.47.3.3 0 0 0-.109.413.26.26 0 0 0 .105.107m-1.871-.26c0 .26.215.467.48.467a.468.468 0 1 0 0-.937.474.474 0 0 0-.48.47" clip-rule="evenodd" style="fill:#0ff;stroke-width:.264578;fill-opacity:1"/></svg>