<svg xmlns="http://www.w3.org/2000/svg" xmlns:xlink="http://www.w3.org/1999/xlink" width="48" height="48"><defs><linearGradient xlink:href="#a" id="b" x1="40.37" x2="10" y1="48" y2="0" gradientUnits="userSpaceOnUse"/><linearGradient id="a"><stop offset="0" style="stop-color:#20c997;stop-opacity:1"/><stop offset="1" style="stop-color:#6d7983;stop-opacity:1"/></linearGradient></defs><rect width="42" height="42" x="3" y="3" rx="21" ry="21" style="fill:url(#b);fill-opacity:1"/><path d="M40.595 34h-33.3v.667c0 .114.03.223.058.333h33.184c.028-.11.058-.22.058-.333z" style="fill:#fff;fill-opacity:1;stroke-width:.890434"/><path d="M7.5 17.99v11.928h1.49V19.482h4.474c.826 0 1.49.665 1.49 1.49v8.946h1.491v-8.945a2.975 2.975 0 0 0-2.981-2.982z" style="opacity:.2;stroke-width:1.49086"/><path d="M7.5 16.5v11.927h1.49V17.991h4.474c.826 0 1.49.665 1.49 1.49v8.946h1.491v-8.945a2.975 2.975 0 0 0-2.981-2.982Z" style="fill:#fff;stroke-width:1.49086"/><path d="M23.9 17.99a2.975 2.975 0 0 0-2.982 2.983v5.963a2.975 2.975 0 0 0 2.982 2.982h2.982V32.9h1.49V17.99Zm0 1.492h2.982v8.945H23.9c-.826 0-1.49-.665-1.49-1.49v-5.964c0-.826.664-1.491 1.49-1.491" style="opacity:.2;stroke-width:1.49086"/><path d="M23.9 16.5a2.975 2.975 0 0 0-2.982 2.982v5.963a2.975 2.975 0 0 0 2.982 2.982h2.982v2.982h1.49V16.5Zm0 1.49h2.982v8.946H23.9c-.826 0-1.49-.665-1.49-1.49v-5.964c0-.826.664-1.491 1.49-1.491" style="fill:#fff;stroke-width:1.49086"/><path d="M35.827 17.99a2.975 2.975 0 0 0-2.981 2.983v5.963a2.975 2.975 0 0 0 2.981 2.982h2.982V32.9H40.3V17.99Zm0 1.492h2.982v8.945h-2.982c-.826 0-1.49-.665-1.49-1.49v-5.964c0-.826.664-1.491 1.49-1.491" style="opacity:.2;stroke-width:1.49086"/><path d="M35.827 16.5a2.975 2.975 0 0 0-2.981 2.982v5.963a2.975 2.975 0 0 0 2.981 2.982h2.982v2.982H40.3V16.5Zm0 1.49h2.982v8.946h-2.982c-.826 0-1.49-.665-1.49-1.49v-5.964c0-.826.664-1.491 1.49-1.491" style="fill:#fff;stroke-width:1.49086"/></svg>