<svg xmlns="http://www.w3.org/2000/svg" xmlns:xlink="http://www.w3.org/1999/xlink" width="48" height="48"><defs><linearGradient id="a"><stop offset="0" style="stop-color:#333b56;stop-opacity:1"/><stop offset="1" style="stop-color:#4c5880;stop-opacity:1"/></linearGradient><linearGradient xlink:href="#a" id="b" x1="31.509" x2="31.509" y1="60" y2="4.982" gradientTransform="matrix(.7508 0 0 .75047 5.739 -7.04)" gradientUnits="userSpaceOnUse"/></defs><ellipse cx="29.396" cy="17.343" rx="20.654" ry="20.645" style="opacity:.2;stroke-width:.737475" transform="rotate(14.993)skewX(-.015)"/><ellipse cx="29.396" cy="16.606" rx="20.654" ry="20.645" style="fill:url(#b);stroke-width:.737475" transform="rotate(14.993)skewX(-.015)"/><path d="M29.441 3.703A20.644 20.655 90 0 0 4.145 18.301a20.644 20.655 90 0 0-.082.354A20.644 20.655 90 0 1 29.25 4.415a20.644 20.655 90 0 1 14.684 24.918 20.644 20.655 90 0 0 .112-.346A20.644 20.655 90 0 0 29.441 3.703" style="opacity:.2;fill:#fff;stroke-width:.737475"/><path d="m18 5 3 20.357L4 40.408V61l17-15.05 20.258 9.45L60 46.953 39.607 37l-2.771-19.672Z" style="opacity:.2" transform="matrix(.57143 0 0 .5614 7.973 4.398)"/><path d="M36.835 16.329 18 4l3 20.357L22.2 41.8 39.608 36Z" style="fill:#aa87de" transform="matrix(.57143 0 0 .5614 7.973 4.398)"/><path d="m4 39.408 17-15.051L32 33.4 21 44.949 4 60Z" style="fill:#8d5fd3;fill-opacity:1" transform="matrix(.57143 0 0 .5614 7.973 4.398)"/><path d="M39.608 36 60 45.953 41.258 54.4 21 44.949 22.2 27.8Z" style="fill:#c6afe9" transform="matrix(.57143 0 0 .5614 7.973 4.398)"/><path d="M22.2 27.8 21 44.95l.068.03L22.2 28.8 39.607 37l19.329 9.434 1.064-.48L39.607 36Z" style="opacity:.2;fill:#fff" transform="matrix(.57143 0 0 .5614 7.973 4.398)"/><path d="M39.607 37 21 25.357V45.95ZM21 45.95" style="opacity:.2" transform="matrix(.57143 0 0 .5614 7.973 4.398)"/><path d="M39.607 36 21 24.357V44.95ZM21 44.95" style="fill:#fff" transform="matrix(.57143 0 0 .5614 7.973 4.398)"/><path d="m18 4 .164 1.107 18.672 12.221 2.637 18.717.134-.045-2.771-19.672Z" style="opacity:.2;fill:#fff" transform="matrix(.57143 0 0 .5614 7.973 4.398)"/><path d="M21 24.357 4 39.408v1l17-15.05 10.465 8.603.535-.56Z" style="opacity:.1;fill:#fff" transform="matrix(.57143 0 0 .5614 7.973 4.398)"/></svg>