<svg xmlns="http://www.w3.org/2000/svg" width="128" height="128" xmlns:v="https://vecta.io/nano"><defs><linearGradient id="A" gradientUnits="userSpaceOnUse"><stop offset="0" stop-color="#e01b24"/><stop offset="1" stop-color="#f66151"/></linearGradient><linearGradient y2="22.095" x2="34" y1="34.095" x1="34" id="B" gradientUnits="userSpaceOnUse"><stop offset="0" stop-color="#3d3846"/><stop offset="1" stop-color="#77767b"/></linearGradient><clipPath id="C"><rect transform="scale(-1)" width="112" height="82" x="-120" y="-282" rx="8" clip-path="none" opacity="1" fill="#f6f5f4" fill-opacity="1" stroke="none" stroke-width="13.719" stroke-linecap="butt" stroke-linejoin="miter" stroke-miterlimit="4" stroke-dasharray="none" stroke-dashoffset="0" stroke-opacity="1" paint-order="normal"/></clipPath><linearGradient y2="111.75" x2="-298.5" y1="111.75" x1="-318.5" id="D" href="#A"/><linearGradient y2="302.5" x2="59.75" y1="314.5" x1="59.75" id="E" href="#A"/><linearGradient id="F" x1="84.026" y1="248.33" x2="111.13" y2="273.231" gradientUnits="userSpaceOnUse"><stop offset="0" stop-color="#7e7e7e"/><stop offset="1" stop-color="#a3a3a3" stop-opacity="0"/></linearGradient></defs><g transform="scale(-1)"><rect clip-path="none" rx="8" y="-110.095" x="-119.505" height="30.25" width="111.505" fill="#5e5c64" paint-order="normal"/><rect clip-path="none" ry="8.364" rx="8" y="-107.822" x="-120" height="85.728" width="112" fill="#f6f5f4" paint-order="normal"/></g><path d="M16 22.095c-4.432 0-8 3.568-8 8v8h112v-8c0-4.432-3.568-8-8-8z" clip-path="none" fill="url(#B)" paint-order="normal"/><path d="M8 30.095h112v2H8z" fill="#3d3846"/><path d="M8 32.095h112v2H8z" fill="#5e5c64"/><g transform="translate(0 -174.905)"><path clip-path="url(#C)" d="M117.285 187.666l-63.398 63.396 1.414 1.414-7.07 15.557 2.828 2.828 56.229 21.548-16.277-6.678 84.007-6.273z" opacity=".484" fill="url(#F)"/><g transform="translate(2)"><path d="M21.901 230.502c13.385 4.543-5.589 17.696 13.921 18.944C47.288 250.18 47.198 266 47.198 266" fill="none" stroke="#e01b24" stroke-width="4" stroke-linecap="round"/><g transform="matrix(.707107 -.707107 .707107 .707107 -208.504753 86.310997)"><path transform="rotate(270)" d="M-318.5 69.75h20v84h-20z" fill="url(#D)"/><path d="M137.75 318.5v-20h4v20zm-56 0v-20h4v20z" fill="#3d3846"/><path d="M69.75 316.5v-16l-16 6v4z" fill="url(#E)"/><path d="M71.75 318.5v-20h-2v20z" fill-opacity=".259"/><path d="M101.75 298.5a10 5 0 0 0 10 5 10 5 0 0 0 10-5z" fill="#3d3846"/></g></g></g></svg>