<svg xmlns="http://www.w3.org/2000/svg" width="48" height="48"><defs><linearGradient id="a" x1="34.102" x2="34.102" y1="25.742" y2="61.487" gradientTransform="matrix(.62222 0 0 .62177 4.074 4.077)" gradientUnits="userSpaceOnUse"><stop offset="0" stop-color="#fff"/><stop offset="1" stop-color="#ffcdd6"/></linearGradient></defs><circle cx="24" cy="24" r="21" fill="#ae1b29" style="stroke-width:.77776;paint-order:stroke fill markers"/><circle cx="24" cy="24" r="18.667" fill="#fff" opacity=".15" style="stroke-width:.77776;paint-order:stroke fill markers"/><path d="M25.293 19s2.44.396 2.433 1.398a.4.4 0 0 1-.009.1c-.142.895-2.588 1.03-4.283 1.123-.354.02-.674.037-.935.06-.22.018-.494.033-.806.049h-.002c-1.83.095-4.944.257-5.83 1.802a.6.6 0 0 0-.078.273c-.004.678 1.446 1.266 3.189 1.973 2.5 1.014 5.605 2.273 5.894 4.396.014.115.021.238.021.353-.006 2.924-5.02 5.58-11.887 8.472a18.667 18.653 0 0 0 10.984 3.628A18.667 18.653 0 0 0 39.83 33.8c-.943-2.204-2.51-4.203-5.05-5.52-3.268-1.7-7.57-2.62-10.78-3.307-2.504-.536-4.346-.93-4.516-1.44a.5.5 0 0 1-.022-.145c.008-.8 2.49-.987 4.118-1.066 1.72-.087 4.325-.317 4.642-1.556a.7.7 0 0 0 .022-.174c.008-1.152-2.95-1.592-2.95-1.592z" style="fill:url(#a);stroke-width:.622006"/></svg>