<svg xmlns="http://www.w3.org/2000/svg" xmlns:xlink="http://www.w3.org/1999/xlink" width="48" height="48"><defs><linearGradient id="h"><stop offset="0" style="stop-color:#006680;stop-opacity:1"/><stop offset="1" style="stop-color:#00222b;stop-opacity:1"/></linearGradient><linearGradient xlink:href="#f" id="j" x1="5" x2="59" y1="32" y2="32" gradientTransform="translate(5.037 5.037)scale(.59259)" gradientUnits="userSpaceOnUse"/><linearGradient id="f" x1="643.88" x2="643.88" y1="260.06" y2="780.06" gradientTransform="matrix(.0479 0 0 .0479 64.164 29.293)" gradientUnits="userSpaceOnUse"><stop offset="0" stop-color="#5587ff" style="stop-color:#90b1ff;stop-opacity:1"/><stop offset=".745" stop-color="#4bd2f5" stop-opacity=".882"/><stop offset="1" stop-color="#4bd2f5"/></linearGradient><linearGradient xlink:href="#g" id="k" x1="14.395" x2="49.616" y1="31.998" y2="31.998" gradientTransform="translate(5.037 5.037)scale(.59259)" gradientUnits="userSpaceOnUse"/><linearGradient id="g" x1="643.88" x2="643.88" y1="260.06" y2="780.06" gradientTransform="matrix(.0479 0 0 .0479 64.164 29.293)" gradientUnits="userSpaceOnUse"><stop offset="0" stop-color="#5587ff" style="stop-color:#8badff;stop-opacity:1"/><stop offset=".745" stop-color="#4bd2f5" stop-opacity=".882"/><stop offset="1" stop-color="#4bd2f5"/></linearGradient><linearGradient xlink:href="#h" id="i" x1="-39.509" x2="-8.29" y1="42.612" y2="5.188" gradientUnits="userSpaceOnUse"/></defs><rect width="41.999" height="41.996" x="-45" y="3.004" rx="20.999" ry="20.998" style="fill:url(#i)" transform="scale(-1 1)"/><path d="M3.013 23.477c-.004.175-.012.35-.012.525A20.953 20.953 0 0 0 24 45c11.633 0 21-9.365 21-20.998 0-.176-.009-.349-.013-.525A20.95 20.95 0 0 1 24 43.95 20.947 20.947 0 0 1 3.013 23.477" style="display:inline;opacity:.3;fill:#000;fill-opacity:1;stroke-width:2.93982;stroke-opacity:.55"/><path d="M3.013 24.523c-.004-.175-.012-.348-.012-.525A20.953 20.953 0 0 1 24 3c11.633 0 21 9.365 21 20.998 0 .176-.009.35-.013.525A20.95 20.95 0 0 0 24 4.05 20.947 20.947 0 0 0 3.013 24.523" style="display:inline;opacity:.3;fill:#fff;fill-opacity:1;stroke-width:2.93982;stroke-opacity:.55"/><circle cx="24" cy="24" r="16" style="fill:url(#j);stroke-width:.592618"/><circle cx="24" cy="24" r="13.037" style="fill:#1e2b35;fill-opacity:1;stroke-width:.592618"/><path d="M24.004 13.565c-.209 0-1.923-.079-3.597.737-1.28.623-.334 2.519.932 1.866 1.11-.572 2.177-.516 2.665-.516 4.66 0 8.347 3.687 8.347 8.348 0 4.66-3.687 8.348-8.347 8.348S15.656 28.66 15.656 24c0-.486-.057-1.554.516-2.664.652-1.267-1.243-2.213-1.867-.932-.815 1.673-.736 3.387-.736 3.597a10.42 10.42 0 0 0 10.435 10.434c5.774 0 10.435-4.66 10.435-10.435a10.42 10.42 0 0 0-10.435-10.435" style="fill:url(#k);stroke-width:.592618"/><rect width="2.783" height="11.131" x="22.609" y="18.435" ry="1.391" style="fill:#f2f2f2;stroke-width:.592618;paint-order:stroke fill markers"/><rect width="2.783" height="11.131" x="-34.176" y="3.219" ry="1.391" style="fill:#f2f2f2;stroke-width:.592618;paint-order:stroke fill markers" transform="rotate(-120)"/><rect width="2.783" height="11.131" x="7.393" y="-38.35" ry="1.391" style="fill:#f2f2f2;stroke-width:.592618;paint-order:stroke fill markers" transform="rotate(120)"/></svg>