<svg xmlns="http://www.w3.org/2000/svg" width="48" height="48"><defs><linearGradient id="a" x1="389.32" x2="426.695" y1="547.675" y2="499.921" gradientTransform="matrix(1.04996 0 0 1.0499 -452.985 -525.938)" gradientUnits="userSpaceOnUse"><stop stop-color="#18222a" style="stop-color:#1e2b35;stop-opacity:1"/><stop offset="1" stop-color="#566069" style="stop-color:#6d7983;stop-opacity:1"/></linearGradient></defs><rect width="41.999" height="41.996" x="-44.999" y="3.004" rx="20.999" ry="20.998" style="display:inline;overflow:visible;fill:url(#a);stroke-width:2.93982;stroke-opacity:.55" transform="scale(-1 1)"/><path d="M3.013 23.477c-.004.175-.013.35-.013.525A20.953 20.953 0 0 0 24 45c11.633 0 20.999-9.365 20.999-20.998 0-.176-.008-.349-.013-.525A20.95 20.95 0 0 1 23.999 43.95 20.947 20.947 0 0 1 3.013 23.477" style="display:inline;overflow:visible;opacity:.3;fill:#000;fill-opacity:1;stroke-width:2.93982;stroke-opacity:.55"/><path d="M3.013 24.523c-.004-.175-.013-.348-.013-.525A20.953 20.953 0 0 1 24 3c11.633 0 20.999 9.365 20.999 20.998 0 .176-.008.35-.013.525A20.95 20.95 0 0 0 23.999 4.05 20.947 20.947 0 0 0 3.013 24.523" style="display:inline;overflow:visible;opacity:.3;fill:#fff;fill-opacity:1;stroke-width:2.93982;stroke-opacity:.55"/><rect width="26.027" height="17.512" x="10.987" y="17.832" fill="#ffb414" rx="1.183" ry="1.094" style="paint-order:normal"/><g fill="none" stroke="#fff" stroke-linecap="round" stroke-width=".529"><path stroke-width="1.4719742400000002" d="M12.958 23.642v-3.681h4.417M35.043 23.642v-3.681h-4.418M35.043 29.533v3.68h-4.418M12.958 29.533v3.68h4.417"/></g><circle cx="35.66" cy="11.952" r="2.209" fill="#ed333b"/><path fill="#deddda" d="M20.319 11.215h7.362v1.472h-7.362z"/></svg>