<svg xmlns="http://www.w3.org/2000/svg" xmlns:xlink="http://www.w3.org/1999/xlink" width="48" height="48" viewBox="0 0 12.7 12.7"><defs><linearGradient id="a"><stop offset="0" stop-color="#232629"/><stop offset="1" stop-opacity="0"/></linearGradient><linearGradient id="e" x1="10.692" x2="34.026" y1="14.134" y2="29.068" gradientTransform="matrix(.24946 0 0 .25474 .773 285.56)" gradientUnits="userSpaceOnUse"><stop offset="0" stop-color="#349cd2"/><stop offset=".76" stop-color="#1e92ff"/><stop offset="1" stop-color="#0e71b1"/></linearGradient><linearGradient id="g" x1="22.457" x2="27.447" y1="290.15" y2="287.35" gradientTransform="matrix(.94283 0 0 .9628 -16.618 11.67)" gradientUnits="userSpaceOnUse"><stop offset="0" stop-color="#1d99f3"/><stop offset="1" stop-color="#3daee9"/></linearGradient><linearGradient id="c" x1="27.447" x2="25.966" y1="289.76" y2="289.76" gradientTransform="matrix(.94283 0 0 .9628 -16.618 11.67)" gradientUnits="userSpaceOnUse"><stop offset="0" stop-color="#1881ce"/><stop offset="1" stop-color="#2980b9" stop-opacity=".867"/></linearGradient><linearGradient id="b" x1="1.058" x2="11.642" y1="285.08" y2="296.22" gradientTransform="matrix(1 0 0 .95 0 14.533)" gradientUnits="userSpaceOnUse"><stop offset="0" stop-color="#535a61"/><stop offset="1" stop-color="#333c45"/></linearGradient><linearGradient xlink:href="#a" id="f" x1="3.456" x2="9.315" y1="287.76" y2="293.61" gradientUnits="userSpaceOnUse"/><linearGradient xlink:href="#a" id="d" x1="7.864" x2="11.642" y1="288.34" y2="292.11" gradientUnits="userSpaceOnUse"/></defs><g transform="translate(0 -284.3)"><rect width="10.583" height="10.583" x="1.058" y="285.36" fill="url(#b)" rx=".529" ry=".529"/><path d="M1.058 295.15v.265c0 .293.236.529.53.529h9.524c.294 0 .53-.236.53-.53v-.264c0 .293-.236.53-.53.53H1.587a.53.53 0 0 1-.529-.53" opacity=".4"/><path fill="url(#c)" d="m7.864 293.56 1.397-.594v-4.637l-1.397-.59z"/><path fill="url(#d)" d="M7.864 289.41v4.153l2.09 2.117h1.688v-5.414l-2.382-1.934z" opacity=".4"/><path fill="url(#e)" d="m3.44 289.16 4.424 4.399 1.397-.595-5.24-4.042z" style="isolation:isolate"/><path fill="url(#f)" d="m3.44 292.13 3.807 3.808h2.968l-2.352-2.381 1.397-.595-1.397-1.078v-4.148z" opacity=".35"/><path fill="url(#g)" d="m4.022 292.37-.582-.238 4.423-4.394 1.397.59z"/></g></svg>