<svg xmlns="http://www.w3.org/2000/svg" width="48" height="48"><circle cx="24" cy="24" r="21" opacity=".99" style="fill:#7387c4;fill-opacity:1;stroke-width:1.5869"/><path d="m26.548 5.062-4.192.894s-.055 3.644-.064 4.319a1.254 1.04 0 0 0-.555-.11 1.254 1.04 0 0 0-1.255 1.04 1.254 1.04 0 0 0 1.255 1.04 1.254 1.04 0 0 0 1.254-1.032v-.008l.035-3.429 2.646-.6.041 2.38a1.254 1.04 0 0 0-.42-.06 1.254 1.04 0 0 0-1.254 1.039 1.254 1.04 0 0 0 1.255 1.04 1.254 1.04 0 0 0 1.254-1.032zm7.87 5.787a3.55 3.55 0 0 0-3.543 3.543 3.55 3.55 0 0 0 3.543 3.543 3.55 3.55 0 0 0 3.544-3.543 3.55 3.55 0 0 0-3.544-3.543m-22.21.074q-.496 0-.948.132-.45.128-.843.365a3.536 3.536 0 0 0-1.249 1.277q-.225.392-.347.834a3.4 3.4 0 0 0-.123.912q0 .843.279 1.518a3.3 3.3 0 0 0 1.96 1.87q.684.255 1.486.255.789 0 1.404-.192.615-.19 1.062-.488l-.154-.414a.2.2 0 0 0-.137-.133q-.09-.031-.21.037-.15.086-.35.164-.197.082-.443.141-.241.065-.538.1-.292.041-.634.041-.61 0-1.14-.186a2.55 2.55 0 0 1-.916-.543 2.6 2.6 0 0 1-.611-.907q-.219-.543-.219-1.263 0-.584.2-1.09.206-.51.561-.884.356-.379.844-.593a2.65 2.65 0 0 1 1.067-.215q.529 0 .967.147.437.146.751.437.315.288.488.72.178.43.178.995 0 .336-.068.62a1.8 1.8 0 0 1-.187.487 1.05 1.05 0 0 1-.278.324.57.57 0 0 1-.552.077.3.3 0 0 1-.141-.136.6.6 0 0 1-.05-.269q0-.173.068-.442l.424-1.646a2.4 2.4 0 0 0-.479-.15 2.8 2.8 0 0 0-.597-.055q-.396 0-.725.09-.324.093-.583.247-.255.154-.452.37a2.18 2.18 0 0 0-.575 1.454q0 .273.069.51.069.232.205.406.142.169.352.269.21.096.488.096.332 0 .624-.132a1.6 1.6 0 0 0 .552-.443.77.77 0 0 0 .332.448q.232.132.534.132.4 0 .743-.174.342-.178.588-.483.25-.305.392-.716.141-.41.142-.884a3 3 0 0 0-.461-1.624 2.7 2.7 0 0 0-.515-.597 3.2 3.2 0 0 0-1.414-.72 3.5 3.5 0 0 0-.82-.096m22.21.858a2.604 2.604 0 0 1 2.611 2.611 2.604 2.604 0 0 1-2.611 2.612 2.604 2.604 0 0 1-2.611-2.612 2.604 2.604 0 0 1 2.61-2.61m-.444.616v2.474h1.905v-.717H34.69v-1.757zM12.54 13.49q.069 0 .133.01.068.004.132.013l-.314 1.231a1.4 1.4 0 0 1-.138.356.9.9 0 0 1-.182.223.7.7 0 0 1-.21.118.8.8 0 0 1-.218.033.4.4 0 0 1-.338-.151q-.114-.15-.114-.424 0-.278.096-.534.1-.255.27-.446.168-.196.396-.31a1.04 1.04 0 0 1 .487-.119zm-5.338 7.188c-.367 0-.787.391-.57.863l1.262 2.362H6.109c-.135-.004-.318-.3-.318-.4a.37.37 0 0 0-.37-.37h-.395a.37.37 0 0 0-.369.37v2.938c0 .204.164.37.369.37h.396c.204 0 .37-.166.37-.37 0-.132.23-.401.317-.4h1.786l-1.262 2.361c-.29.63.553 1.115.894.722l2.537-3.084h1.68c.585 0 1.056-.471 1.056-1.057v-.023c0-.585-.471-1.057-1.057-1.057h-1.68l-2.536-3.084a.42.42 0 0 0-.324-.141m30.777.795a2.25 2.25 0 0 0-2.251 2.25q.002.11.013.218a1.626 1.626 0 0 0-1.353 1.604 1.63 1.63 0 0 0 1.633 1.633h4.381a1.99 1.99 0 0 0 1.994-1.993 1.99 1.99 0 0 0-1.994-1.993h-.238a2.25 2.25 0 0 0-2.185-1.72" style="opacity:1;fill:#fff;fill-opacity:.814394;stroke:none;stroke-width:2.70948;stroke-linecap:round;stroke-linejoin:round;stroke-miterlimit:4;stroke-dasharray:none;stroke-dashoffset:0;stroke-opacity:1;paint-order:fill markers stroke"/></svg>