<svg xmlns="http://www.w3.org/2000/svg" width="48" height="48"><path d="M45.035 24a21.017 21 0 0 1-21.018 21A21.017 21 0 0 1 3 24 21.017 21 0 0 1 24.017 3a21.017 21 0 0 1 21.018 21" style="opacity:.99;fill:#a4cfdb;fill-opacity:1;stroke-width:1.58754"/><path d="M43.135 24a19.117 19.101 0 0 1-19.118 19.101A19.117 19.101 0 0 1 4.9 24 19.117 19.101 0 0 1 24.017 4.899 19.117 19.101 0 0 1 43.135 24" style="opacity:.99;fill:#4c566a;fill-opacity:1;stroke-width:1.44405"/><path d="M14.469 19.965a4.17 4.17 0 0 0-4.049 3.192 2.79 2.79 0 0 0-1.271 2.345 2.8 2.8 0 0 0 2.804 2.805h5.608a2.8 2.8 0 0 0 2.805-2.805 2.79 2.79 0 0 0-1.934-2.654 4.17 4.17 0 0 0-3.963-2.883" style="fill:#fff;fill-opacity:1;stroke:none;stroke-width:.2;stroke-linecap:round;stroke-linejoin:round;stroke-miterlimit:4;stroke-dasharray:none;stroke-dashoffset:0;stroke-opacity:1;paint-order:fill markers stroke" transform="matrix(.9033 0 0 .90254 1.212 1.531)"/><text xml:space="preserve" x="16.691" y="18.346" style="font-style:normal;font-variant:normal;font-weight:700;font-stretch:condensed;font-size:13.632px;line-height:0%;font-family:&quot;Roboto Condensed&quot;;-inkscape-font-specification:&quot;Roboto Condensed, Bold Condensed&quot;;letter-spacing:0;word-spacing:0;fill:#fff;fill-opacity:1;stroke:none;stroke-width:.331763" transform="matrix(1.02613 0 0 .7945 1.212 1.531)"><tspan x="16.691" y="18.346" style="font-size:13.2706px;line-height:1.25;fill:#fff;fill-opacity:1;stroke-width:.331763">@</tspan></text><path d="M34.36 20.808a.83.83 0 0 0-.833.833V25.2a1.67 1.67 0 0 0-.833-.225 1.666 1.666 0 0 0-1.666 1.667 1.666 1.666 0 0 0 1.666 1.666 1.666 1.666 0 0 0 1.667-1.666v-4.166h4.999v2.724a1.67 1.67 0 0 0-.833-.225 1.666 1.666 0 0 0-1.667 1.667 1.666 1.666 0 0 0 1.667 1.666 1.666 1.666 0 0 0 1.666-1.666v-5a.83.83 0 0 0-.833-.833z" style="fill:#fff;fill-opacity:1;fill-rule:nonzero;stroke:none;stroke-width:.833206;stroke-linecap:square;stroke-linejoin:miter;stroke-miterlimit:4;stroke-dasharray:none;stroke-dashoffset:0;stroke-opacity:1" transform="matrix(.9033 0 0 .90254 1.212 1.531)"/><path d="m25.026 30.563-1.827 3.164a4.27 4.27 0 0 0-2.445 3.856 4.27 4.27 0 0 0 4.272 4.271 4.27 4.27 0 0 0 4.271-4.271 4.27 4.27 0 0 0-2.445-3.856z" style="fill:#fff;fill-opacity:.84916848;stroke:none;stroke-width:.2;stroke-linecap:round;stroke-linejoin:round;stroke-miterlimit:4;stroke-dasharray:none;stroke-dashoffset:0;stroke-opacity:1;paint-order:fill markers stroke" transform="matrix(.9033 0 0 .90254 1.212 1.531)"/></svg>