<svg xmlns="http://www.w3.org/2000/svg" xmlns:xlink="http://www.w3.org/1999/xlink" width="48" height="48"><defs><linearGradient xlink:href="#a" id="b" x2="0" y1="543.798" y2="503.798" gradientUnits="userSpaceOnUse"/><linearGradient id="a"><stop stop-color="#197cf1"/><stop offset="1" stop-color="#20bcfa"/></linearGradient></defs><g transform="translate(-384.571 -499.798)"><rect width="40" height="40" x="388.57" y="503.8" fill="url(#b)" rx="20"/><path fill="#0c69cf" d="M388.583 523.298c-.004.167-.012.332-.012.5 0 11.08 8.92 20 20 20s20-8.92 20-20c0-.168-.007-.333-.011-.5a19.95 19.95 0 0 1-19.989 19.5 19.95 19.95 0 0 1-19.988-19.5"/><path fill="#ecf0f1" fill-rule="evenodd" d="M409.787 507.798c3.939 3.4 4.923 6.847 4.923 12.262l1.616-4.185a11.02 11.02 0 0 1 3.2 6.37c.125 1.909-.186 3.598-.679 5.075 2.01-1.279 4.547-2.74 5.633-5.075-.725-7.722-6.932-13.856-14.693-14.447m-2.768.091c-7.723.725-13.857 6.932-14.448 14.693 3.4-3.938 6.847-4.923 12.263-4.923l-4.185-1.615a11.02 11.02 0 0 1 6.37-3.2c1.908-.126 3.598.186 5.075.678-1.28-2.01-2.741-4.547-5.075-5.633m-8.723 12.387c-2.01 1.279-4.547 2.74-5.633 5.075.725 7.722 6.932 13.856 14.693 14.447-3.939-3.4-4.923-6.847-4.923-12.263l-1.616 4.185a11.02 11.02 0 0 1-3.2-6.37c-.125-1.908.186-3.597.679-5.074m26.275 4.737c-3.4 3.94-6.846 4.924-12.262 4.924l4.185 1.615a11.02 11.02 0 0 1-6.37 3.2c-1.908.126-3.598-.186-5.075-.678 1.28 2.01 2.741 4.547 5.075 5.633 7.723-.725 13.857-6.933 14.447-14.694"/></g></svg>