<svg xmlns="http://www.w3.org/2000/svg" xmlns:xlink="http://www.w3.org/1999/xlink" width="48" height="48"><defs><linearGradient id="a"><stop offset="0" style="stop-color:#00aad4;stop-opacity:1"/><stop offset="1" style="stop-color:#0a8;stop-opacity:1"/></linearGradient><linearGradient xlink:href="#a" id="b" x1="4.863" x2="44.322" y1="27.405" y2="27.405" gradientUnits="userSpaceOnUse"/></defs><g fill="#9e6b51" opacity=".99"><path d="M45 24a21 21 0 0 1-21 21A21 21 0 0 1 3 24 21 21 0 0 1 24 3a21 21 0 0 1 21 21"/><path d="M44.322 27.405a19.73 19.73 0 0 1-19.73 19.73 19.73 19.73 0 0 1-19.73-19.73 19.73 19.73 0 0 1 19.73-19.73 19.73 19.73 0 0 1 19.73 19.73" style="fill:url(#b)" transform="translate(-2.176 -5.17)scale(1.06438)"/></g><path fill="#fff" fill-rule="evenodd" d="M21.395 11.688c-.617.03-1.301.179-2.044.468-1.93.716-1.432 3.305-1.269 5.067-.109.165-.331.11-.495.11-2.094.11-3.03 2.314-3.471 4.077.109 1.598-.11 3.36-.387 4.901-.277 1.543-.827 2.754-.882 4.242-.11 1.322.386 2.865.277 4.077-.579 1.705-1.074 3.122-1.5 4.566a19.6 19.6 0 0 0 4.935 2.94 28 28 0 0 1 1.522-3.485c.217-.165.163-.606.549-.772 1.26 2.1 3.387 3.693 4.81 5.705a20 20 0 0 0 .56.027 19.6 19.6 0 0 0 5.48-.791c-.02-.047-.031-.104-.054-.148-.66-1.267-2.145-3.03-3.412-4.296.164-.164.387-.387.66-.497 0-1.211-.497-1.597-1.155-2.478-.555-.881-1.817-2.587-2.758-3.139 0 0 0-.056-.936-.056-.054-.605.113-1.103.277-1.763 0-.496.387-.219.497-1.321.276-.936.162-.386.384-1.322.218-.44.333-.882.333-1.599.823.276 2.475.22 3.193 0l.165.11c.222.056.277-.273.44-.329 1.268-.662 1.708-1.818 2.753-1.928 0 0 .555-.276 1.377 0 .332 0 .609.054.609-.276.054-.496.053-.881.33-1.213.219 1.322.824 2.811 1.927 4.243l1.1-.771c-1.045-1.267-1.703-2.699-1.817-4.352.054.11.113.22.222.33.386 0 .605-.826 1.046-.77.055-.111.168-.608.277-.993h4.13l1.485-.33v-.772l-1.1-.11v-.883h-.276v-.99h-.66v.936l-1.707-.11v-.607h-.66v.551l-1.762-.164v-.826h-.663v.771l-2.591-.164v-.275H29.21v-.495h-1.045v.275c-.113.054-.223.166-.332.22h-.11c-1.823-1.432-1.931 1.487-3.145.826-.11-.606-.054-1.156-.054-1.872 2.094-.056 1.323-.607.72-1.323-.219-.276-.333-.717-.388-.992-.371-1.363-1.611-2.323-3.462-2.23m3.71 8.484a.94.94 0 0 1 .416.084c.66-.112 1.264.055 2.313 0-.168 1.817-1.49 1.044-2.922 2.036-.387-.054-.827-.054-1.432-.054-.109-1.212.332-1.432.55-1.652.44-.33.813-.414 1.075-.414"/></svg>