<svg xmlns="http://www.w3.org/2000/svg" width="48" height="48" version="1"><rect width="42" height="41.263" x="3" y="3.737" rx="21" ry="20.632" style="opacity:.2;stroke-width:.743392"/><rect width="42" height="41.263" x="3" y="3" rx="21" ry="20.632" style="fill:#fc0"/><path d="M24 6.684c-9.94 0-18 7.918-18 17.684s8.06 17.685 18 17.685c4.803-.003 9.405-1.894 12.783-5.248l-1.519-1.454A16.03 16.03 0 0 1 24 39.971c-8.771 0-15.882-6.985-15.882-15.603S15.228 8.765 24 8.765c4.232.004 8.288 1.665 11.267 4.618l1.513-1.448C33.403 8.58 28.802 6.689 24 6.685m0 5.201c-7.017 0-12.706 5.59-12.706 12.483S16.983 36.852 24 36.852a12.82 12.82 0 0 0 8.993-3.675l-1.516-1.451A10.69 10.69 0 0 1 24 34.771c-5.848 0-10.588-4.658-10.588-10.403S18.152 13.966 24 13.966a10.7 10.7 0 0 1 7.477 3.045l1.516-1.451A12.82 12.82 0 0 0 24 11.885m0 5.201c-4.093 0-7.412 3.261-7.412 7.282 0 4.022 3.319 7.282 7.412 7.282a7.48 7.48 0 0 0 5.2-2.104l-1.513-1.445A5.34 5.34 0 0 1 24 29.569c-2.924 0-5.294-2.328-5.294-5.2s2.37-5.202 5.294-5.202a5.35 5.35 0 0 1 3.684 1.475l1.518-1.457A7.48 7.48 0 0 0 24 17.086" style="opacity:.1;stroke-width:.743392"/><path d="M24 5.947c-9.94 0-18 7.918-18 17.685s8.06 17.684 18 17.684c4.803-.003 9.405-1.893 12.783-5.248l-1.519-1.454A16.03 16.03 0 0 1 24 39.234c-8.771 0-15.882-6.985-15.882-15.602S15.228 8.028 24 8.028c4.232.004 8.288 1.666 11.267 4.618l1.513-1.448C33.403 7.843 28.802 5.952 24 5.948m0 5.201c-7.017 0-12.706 5.59-12.706 12.484S16.983 36.115 24 36.115a12.82 12.82 0 0 0 8.993-3.675l-1.516-1.45A10.69 10.69 0 0 1 24 34.033c-5.848 0-10.588-4.657-10.588-10.402S18.152 13.229 24 13.229a10.69 10.69 0 0 1 7.477 3.045l1.516-1.451A12.82 12.82 0 0 0 24 11.148m0 5.202c-4.093 0-7.412 3.26-7.412 7.282 0 4.021 3.319 7.282 7.412 7.282a7.48 7.48 0 0 0 5.2-2.105l-1.513-1.445A5.34 5.34 0 0 1 24 28.833c-2.924 0-5.294-2.329-5.294-5.201 0-2.873 2.37-5.201 5.294-5.201a5.35 5.35 0 0 1 3.684 1.474l1.518-1.457A7.48 7.48 0 0 0 24 16.35" style="fill:#4f4f4f;stroke-width:.743392"/><path d="M24 3C12.366 3 3 12.202 3 23.632c0 .083.008.165.013.247C3.277 12.678 12.533 3.737 24 3.737s20.723 8.94 20.987 20.142c.004-.082.013-.164.013-.247C45 12.202 35.634 3 24 3" style="opacity:.2;fill:#fff;stroke-width:.743392"/></svg>