<svg xmlns="http://www.w3.org/2000/svg" viewBox="0 0 256 256"><defs><linearGradient id="b" x1="418.17" x2="384.571" y1="503.079" y2="531.458" gradientTransform="matrix(1.20833 0 0 1.58889 -77.119 -310.68)" gradientUnits="userSpaceOnUse"><stop stop-color="#1abc9c"/><stop offset="1" stop-color="#2980b9"/></linearGradient><linearGradient id="c" x1="404.045" x2="430.736" y1="521.633" y2="528.35" gradientTransform="matrix(1.20833 0 0 1.58889 -77.119 -310.68)" gradientUnits="userSpaceOnUse"><stop stop-color="#cc4a5e"/><stop offset="1" stop-color="#aa478a"/></linearGradient><linearGradient id="d" x1="403.909" x2="398.968" y1="550.852" y2="523.326" href="#a"/><linearGradient id="a" gradientUnits="userSpaceOnUse"><stop stop-color="#334545"/><stop offset="1" stop-color="#536161"/></linearGradient><linearGradient id="e" x1="431.571" x2="439.571" y1="568.798" y2="562.798" gradientTransform="matrix(-1.20833 0 0 1.58889 936.845 -374.236)" href="#a"/><linearGradient id="f" x1="423.054" x2="431.225" y1="572.334" y2="566.766" gradientTransform="matrix(-1.20833 0 0 1.58889 936.845 -374.236)" href="#a"/></defs><path fill="#31363b" fill-opacity=".5" d="M16 10h224c3.324 0 6 2.676 6 6v224c0 3.324-2.676 6-6 6H16c-3.324 0-6-2.676-6-6V16c0-3.324 2.676-6 6-6"/><path fill="#eff0f1" d="M16 12h224a3.99 3.99 0 0 1 4 4v224a3.99 3.99 0 0 1-4 4H16a3.99 3.99 0 0 1-4-4V16a3.99 3.99 0 0 1 4-4"/><path fill="url(#b)" d="M387.571 489.798v52h58v-52z" transform="matrix(2.82759 0 0 3.15385 -1049.891 -1498.748)"/><path fill="url(#c)" d="m445.571 489.798-39.916 30.303 28.58 21.697h11.336z" transform="matrix(2.82759 0 0 3.15385 -1049.891 -1498.748)"/><path fill="url(#d)" d="m405.696 519.986-18.125 13.762v8.051h46.934l-28.809-21.812z" transform="matrix(2.82759 0 0 3.15385 -1049.891 -1498.748)"/><path fill="url(#e)" d="m415.675 527.563-9.979-7.576v15.152z" transform="matrix(2.82759 0 0 3.15385 -1049.891 -1498.748)"/><path fill="url(#f)" d="M415.676 527.562v14.236h1.207l8.772-6.659z" transform="matrix(2.82759 0 0 3.15385 -1049.891 -1498.748)"/><path fill="#aa478a" d="M97.133 141.574 209.999 46v46.69z"/></svg>