<svg xmlns="http://www.w3.org/2000/svg" width="32" height="32" xmlns:v="https://vecta.io/nano"><defs><linearGradient id="A" y1="521.633" x1="404.045" y2="528.35" x2="430.736" gradientTransform="matrix(0.66667,0,0,0.85555,-256.38,-429.027)" href="#L"><stop stop-color="#cc4a5e"/><stop offset="1" stop-color="#aa478a"/></linearGradient><linearGradient href="#C" id="B" y1="34.873" x1="9.016" y2="20.051" x2="6.29"/><linearGradient id="C" href="#L"><stop stop-color="#334545"/><stop offset="1" stop-color="#536161"/></linearGradient><linearGradient href="#C" id="D" y1="568.798" x1="431.571" y2="562.798" x2="439.571" gradientTransform="matrix(-0.66667,0,0,0.85555,303.047,557.113)"/><linearGradient href="#C" id="E" y1="581.87" x1="406.537" y2="572.678" x2="423.32" gradientTransform="matrix(-0.66667,0,0,0.85555,303.048,557.113)"/><linearGradient href="#C" id="F" y1="572.334" x1="423.054" y2="566.766" x2="431.225" gradientTransform="matrix(-0.66667,0,0,0.85555,303.047,557.113)"/><linearGradient href="#C" id="G" y1="577.102" x1="431.313" y2="571.445" x2="440.632" gradientTransform="matrix(-0.66667,0,0,0.85555,303.048,557.113)"/><linearGradient href="#C" id="H" y1="577.362" x1="430.567" y2="591.328" x2="423.75" gradientTransform="matrix(-0.66667,0,0,0.85555,303.048,557.113)"/><linearGradient id="I" y1="1028.362" x1="9" y2="1042.362" x2="23" href="#L"><stop stop-color="#383e51"/><stop offset="1" stop-color="#655c6f" stop-opacity="0"/></linearGradient><linearGradient id="J" y1="1042.362" y2="1028.362" x2="0" x1="0" href="#L"><stop stop-color="#eff0f1"/><stop offset="1" stop-color="#fcfcfc"/></linearGradient><linearGradient id="K" gradientTransform="matrix(0.66667,0,0,0.85555,-256.38,591.336)" x1="418.17" y1="503.079" x2="384.571" y2="531.458" href="#L"><stop stop-color="#1abc9c"/><stop offset="1" stop-color="#2980b9"/></linearGradient><linearGradient id="L" gradientUnits="userSpaceOnUse"/></defs><g transform="translate(0 -1020.362)"><path d="M5 1022.362a5.004 5.004 0 0 0-3.54 1.461 4.99 4.99 0 0 0-1.46 3.54v18a5.004 5.004 0 0 0 1.46 3.538 4.99 4.99 0 0 0 3.54 1.461h22a5.004 5.004 0 0 0 3.54-1.46 4.99 4.99 0 0 0 1.46-3.54v-18a5.004 5.004 0 0 0-1.46-3.539 4.99 4.99 0 0 0-3.54-1.46z" fill="url(#K)"/><g transform="translate(0 1020.362)"><path d="M25.746 30H27c1.327.002 2.6-.523 3.54-1.46A4.99 4.99 0 0 0 32 25V7c.002-1.327-.523-2.6-1.46-3.54-.077-.075-.188-.108-.269-.179L9.977 18.316 25.747 30z" fill="url(#A)"/><path d="M.117 25.58c.057.47.098.949.276 1.37a4.99 4.99 0 0 0 2.658 2.657c.617.26 1.28.394 1.949.393h20.895L10 18.256z" fill="url(#B)"/></g><path d="M15.506 1042.697l-5.506-4.08v8.16z" fill="url(#D)"/><path d="M21.011 1046.775v3.587h4.841l-4.84-3.587z" fill="url(#E)"/><path d="M15.506 1042.697v7.665h.666l4.84-3.586-5.506-4.08z" fill="url(#F)"/><path d="M10 1046.776v3.586h4.84z" fill="url(#G)"/><path d="M21.011 1046.775l-4.84 3.587h4.84z" fill="url(#H)"/><path d="M32 1030.333v-2.97a5.005 5.005 0 0 0-1.46-3.54c-.077-.076-.188-.109-.269-.18L9.977 1038.68z" fill="#aa478a"/><path d="M.124 1046.362c.067.317.146.658.269.95a4.989 4.989 0 0 0 2.658 2.658 5.004 5.004 0 0 0 1.949.392h22a5.004 5.004 0 0 0 3.54-1.46 4.989 4.989 0 0 0 1.067-1.59 5.35 5.35 0 0 0 .285-.95z" fill="#fff" fill-opacity=".784"/><g fill="#4d4d4d"><circle r="1" cy="1048.362" cx="28"/><path d="M2 1047.362v1h1v-1zm1 1v1h1v-1z"/></g><path d="M19 1050.362h8a5.004 5.004 0 0 0 3.54-1.46c.45-.453.718-1.043 1.067-1.59.372-.583.393-1.238.393-1.95v-6l-9-9v1H9l9 9h-4l-1 1h-1l-1 1z" opacity=".2" fill="url(#I)" fill-rule="evenodd"/><path d="M17.5 1028.362a2.492 2.492 0 0 0-2.45 2H9v1h6.05c.231 1.144 1.236 2 2.45 2a2.492 2.492 0 0 0 2.45-2H23v-1h-3.05a2.492 2.492 0 0 0-2.45-2zm-6 9a2.495 2.495 0 0 0-2.5 2.5c0 1.385 1.115 2.5 2.5 2.5a2.492 2.492 0 0 0 2.45-2H23v-1h-9.05a2.492 2.492 0 0 0-2.45-2zm0 1a1.5 1.5 0 0 1 1.5 1.5c0 .831-.669 1.5-1.5 1.5s-1.5-.669-1.5-1.5a1.5 1.5 0 0 1 1.5-1.5z" fill="url(#J)"/></g></svg>