<svg xmlns="http://www.w3.org/2000/svg" xmlns:xlink="http://www.w3.org/1999/xlink" width="48" height="48"><defs><linearGradient id="a" x1="390.08" x2="389.88" y1="534.08" y2="513.54" gradientTransform="matrix(-1.08253 .63333 -.625 -1.09696 1174.65 852.48)" gradientUnits="userSpaceOnUse"><stop stop-color="#fcfcfc"/><stop offset="1" stop-color="#b677d3"/></linearGradient><linearGradient xlink:href="#a" id="f" x1="382.21" x2="395.45" y1="532.43" y2="526.79" gradientTransform="matrix(1.08253 .63333 .625 -1.09696 -357.51 852.48)" gradientUnits="userSpaceOnUse"/><linearGradient id="e" x1="25.13" x2="7.07" y1="20.16" y2="4.759" gradientTransform="matrix(1.25 0 0 1.26667 388.57 502.26)" gradientUnits="userSpaceOnUse"><stop stop-color="#c0392b"/><stop offset="1" stop-color="#b677d3"/></linearGradient><linearGradient id="b" x1="400.57" x2="392.9" y1="537.6" y2="546.58" gradientTransform="matrix(1.25 0 0 1.26667 -92.14 -151.08)" gradientUnits="userSpaceOnUse"><stop stop-color="#ffc35a"/><stop offset="1" stop-color="#faae2a"/></linearGradient><linearGradient xlink:href="#b" id="t" x1="393.43" x2="390.56" y1="538.07" y2="539.31" gradientTransform="matrix(1.25 0 0 1.26667 -92.14 -151.08)" gradientUnits="userSpaceOnUse"/><linearGradient id="i" x1="390.57" x2="386.57" y1="535.36" y2="540.75" gradientTransform="matrix(1.25 0 0 1.26667 -92.14 -151.08)" gradientUnits="userSpaceOnUse"><stop stop-color="#fdbc4b"/><stop offset="1" stop-color="#dde341"/></linearGradient><linearGradient xlink:href="#b" id="g" x1="393.1" x2="388.89" y1="524.44" y2="522.66" gradientTransform="matrix(.95819 .56059 .55321 -.97096 -270.72 815.18)" gradientUnits="userSpaceOnUse"/><linearGradient xlink:href="#b" id="h" x1="392.69" x2="389.45" y1="522.9" y2="521.73" gradientTransform="matrix(-.95819 .56059 -.55321 -.97096 1087.86 815.18)" gradientUnits="userSpaceOnUse"/><linearGradient xlink:href="#b" id="m" x1="390.57" x2="386.57" y1="535.36" y2="540.75" gradientTransform="matrix(-1.25 0 0 1.26667 909.29 -151.08)" gradientUnits="userSpaceOnUse"/><linearGradient xlink:href="#b" id="p" x1="393.43" x2="390.56" y1="538.07" y2="539.31" gradientTransform="matrix(-1.25 0 0 1.26667 909.29 -151.08)" gradientUnits="userSpaceOnUse"/><linearGradient xlink:href="#b" id="r" x1="400.57" x2="392.9" y1="537.6" y2="546.58" gradientTransform="matrix(-1.25 0 0 1.26667 909.29 -151.08)" gradientUnits="userSpaceOnUse"/><linearGradient id="c" x1="396.57" x2="389.57" y1="535.8" y2="542.8" gradientTransform="matrix(-1.25 0 0 1.26667 909.29 -152.35)" gradientUnits="userSpaceOnUse"><stop/><stop offset="1" stop-opacity="0"/></linearGradient><linearGradient xlink:href="#c" id="o" x1="396.57" x2="389.57" y1="535.8" y2="542.8" gradientTransform="matrix(-1.25 0 0 1.26667 914.29 -151.08)" gradientUnits="userSpaceOnUse"/><linearGradient xlink:href="#c" id="k" x1="396.57" x2="389.57" y1="535.8" y2="542.8" gradientTransform="matrix(-1.25 0 0 1.26667 919.29 -151.08)" gradientUnits="userSpaceOnUse"/><linearGradient xlink:href="#c" id="u" x1="396.57" x2="384.57" y1="535.8" y2="547.8" gradientTransform="matrix(-1.25 0 0 1.26667 890.54 -167.55)" gradientUnits="userSpaceOnUse"/><linearGradient xlink:href="#b" id="s" x1="390.57" x2="386.57" y1="535.36" y2="540.75" gradientTransform="matrix(1.25 0 0 1.26667 -92.14 -151.08)" gradientUnits="userSpaceOnUse"/><path id="j" fill-rule="evenodd" d="M394.82 525.06c-3.75 2.533 0 5.067-2.5 7.6s-3.75 1.267-3.75 2.533 3.75 3.8 6.25 1.267 2.5-3.8 2.5-3.8 2.5-2.533 1.25-5.067c-1.25-2.533-3.75-2.533-3.75-2.533"/></defs><g transform="matrix(1 0 0 1.05263 -384.57 -527.37)"><path fill="#ffc35a" d="M408.57 504.8c9.695 0 17.5 7.909 17.5 17.733s-7.805 11.4-17.5 11.4-17.5-1.576-17.5-11.4 7.805-17.733 17.5-17.733"/><path fill="url(#e)" d="M408.57 504.8c-.071 0-.139.009-.21.01-.664 1.956-.025 4.47 1.238 5.079 1.36.656 4.33-.672 5.269-2.669.179-.381.249-.756.271-1.123a17.3 17.3 0 0 0-6.567-1.296m-1.167.059c-2.719.181-5.26.978-7.495 2.266.245.656.758 1.223 1.533 1.672 1.699.985 4.65 1.139 5.713-.742.484-.857.508-2.053.249-3.196m8.281 2.934c-.611 0-2.212 1.25-2.212 1.804 0 .553 1.286 1.962 1.897 1.962s.396-1.891.396-2.444.531-1.321-.081-1.321m-13.308 1.705c-.811-.075-1.932.833-2.202 1.338-.309.577-.331 2.083.469 2.523s1.497-.553 1.807-1.131c.309-.577 1.051-2.195.251-2.635a.8.8 0 0 0-.325-.097m4.919.198c-.887.012-1.896.305-2.727.698-1.662.785-1.984 2.786-1.301 4.27.682 1.484 1.636 2.049 3.298 1.264s3.405-3.746 2.722-5.23c-.341-.742-1.105-1.013-1.992-1m4.724.668q-.54.043-1.125.356c-1.56.843-2.106 3.304-1.316 4.807s2.934 2.28 4.495 1.437 1.315-3.385.525-4.889c-.593-1.127-1.502-1.801-2.578-1.712m4.451 2.264c-.908.056-.979 1.272-.94 1.927.039.656.254 2.426 1.162 2.37s1.533-1.754 1.494-2.41-.808-1.943-1.716-1.888m-8.787 3.434c-1.207-.019-2.527.835-3.123 1.749-.794 1.218-1.184 2.238.2 3.164s3.544.77 4.338-.448 1.106-3.197-.278-4.124a2.06 2.06 0 0 0-1.138-.341m-4.121.304c-.495 0-1.213.378-1.213 1.042s.323.96.818.96.977-.296.977-.96-.086-1.042-.581-1.042m7.893 1.442c-.764 0-1.462 1.473-1.462 2.402s1.013.962 1.777.962 1.78-.753 1.78-1.682-1.331-1.682-2.095-1.682"/><path fill="url(#f)" d="M392.08 527.718a5.004 8.859 14.634 0 1-2.565-9.876 5.004 8.859 14.634 0 1 7.095-7.253 5.004 8.859 14.634 0 1 .547.223 5.004 17.718 14.778 0 1-1.605 8.67 5.004 17.718 14.778 0 1-2.891 8.325 5.004 8.859 14.634 0 1-.58-.09"/><path fill="#2c3e50" fill-rule="evenodd" d="M389.053 520.606a5.004 8.859 14.634 0 1 .462-2.764 5.004 8.859 14.634 0 1 .228-.766c1.716.23 1.755-.194 2.705-.383 1.06-.211 3.047 1.789 1.328 1.488-1.718-.301-2.221 2.466-4.558 2.438-.072-.001-.097-.011-.164-.013" color="#000"/><path fill="url(#a)" d="M425.063 527.718a8.859 5.004 75.366 0 0 2.565-9.876 8.859 5.004 75.366 0 0-7.095-7.253 8.859 5.004 75.366 0 0-.547.223 17.718 5.004 75.222 0 0 1.604 8.67 17.718 5.004 75.222 0 0 2.892 8.325 8.859 5.004 75.366 0 0 .58-.09"/><g fill-rule="evenodd"><path fill="#2c3e50" d="M428.09 520.606a8.859 5.004 75.366 0 0-.462-2.764 8.859 5.004 75.366 0 0-.228-.766c-1.716.23-1.755-.194-2.705-.383-1.06-.211-3.047 1.789-1.328 1.488 1.718-.301 2.221 2.466 4.558 2.438.072-.001.097-.011.164-.013" color="#000"/><g fill="#ffc35a"><path d="M399.91 508.61s-5-1.267-5 1.267c0 1.267 1.25 5.067 1.25 7.6s2.5-3.8 2.5-3.8zM417.32 508.6s5-1.267 5 1.267c0 1.267-1.25 5.067-1.25 7.6s-2.5-3.8-2.5-3.8z"/></g><path fill="url(#g)" d="M394.51 530.13s-4.386-1.271-3.28-3.213c.553-.971 3.171-3.323 4.277-5.265s.257 4.03.257 4.03z"/><path fill="url(#h)" d="M422.64 530.13s4.386-1.271 3.28-3.213c-.553-.971-3.171-3.323-4.277-5.265s-.257 4.03-.257 4.03z"/></g><use xlink:href="#j" fill="url(#i)"/><g fill-rule="evenodd"><path fill="url(#k)" d="M423.57 526.33v3.459c.697-.284 1.578-.739 2.097-1.333z" opacity=".1"/><path fill="url(#m)" d="M422.32 525.06c3.75 2.533 0 5.067 2.5 7.6s3.75 1.267 3.75 2.533-3.75 3.8-6.25 1.267-2.5-3.8-2.5-3.8-2.5-2.533-1.25-5.067c1.25-2.533 3.75-2.533 3.75-2.533"/><path fill="url(#o)" d="M419.05 526.82c-.173.23-.338.483-.483.777v3.097a7 7 0 0 0 1.25 1.969s0 1.267 2.5 3.8c2.01 2.04 4.804.796 5.828-.428l-3.328-3.372z" opacity=".1"/><path fill="url(#p)" d="M415.11 537.93c.971 3.671 6.827 4.075 8.466 2.338s-1.782-1.53-2.429-3.977.884-1.551-.087-5.222-3.734-6-3.734-6l-5 2.533z"/><path fill="url(#c)" d="m413.82 526.33-.25.633v5.272l1.533 5.69c.971 3.671 6.828 4.075 8.467 2.338s-1.752-1.536-2.429-3.976c-.474-1.707.059-1.653.137-2.415z" opacity=".1"/><path fill="url(#r)" d="M408.57 531.4v5.067c0 3.8 3.75 6.333 7.5 6.333s-1.25-2.533 0-6.333-2.5-11.4-2.5-11.4l-5 1.267z"/></g><use xlink:href="#j" fill="url(#s)"/><g fill-rule="evenodd"><path fill="url(#t)" d="M402.04 537.93c-.971 3.671-6.827 4.075-8.466 2.338s1.782-1.53 2.429-3.977-.884-1.551.087-5.222 3.734-6 3.734-6l5 2.533z"/><path fill="url(#b)" d="M408.57 531.4v5.067c0 3.8-3.75 6.333-7.5 6.333s1.25-2.533 0-6.333 2.5-11.4 2.5-11.4l5 1.267z"/><path fill="url(#u)" d="M394.92 509.97c.038 1.255 1.098 4.611 1.216 7.083a5.004 17.718 14.778 0 1-.586 2.432 5.004 17.718 14.778 0 1-1.099 3.669c-1.23 1.529-2.812 3.038-3.228 3.768-.013.023-.013.044-.024.067l-.129.614.688 1.163c.417.353.947.638 1.438.86.12 1.015.125 2.03-.876 3.044-2.5 2.533-3.75 1.267-3.75 2.533s3.75 3.8 6.25 1.267c.565-.572.987-1.071 1.326-1.514.038.318.016.723-.146 1.338-.647 2.447-4.068 2.239-2.429 3.976 1.64 1.737 7.496 1.333 8.467-2.338l1.143-4.243c1.7.172 3.501.247 5.391.247 3.365 0 6.491-.2 9.153-.858z" opacity=".1"/></g></g></svg>