<svg xmlns="http://www.w3.org/2000/svg" xmlns:xlink="http://www.w3.org/1999/xlink" width="48" height="48"><defs><linearGradient id="g"><stop offset="0" style="stop-color:#cd7223;stop-opacity:1"/><stop offset="1" style="stop-color:#ffc169;stop-opacity:1"/></linearGradient><linearGradient id="f"><stop offset="0" style="stop-color:#ffa92d;stop-opacity:1"/><stop offset="1" style="stop-color:#edf573;stop-opacity:1"/></linearGradient><linearGradient id="e"><stop offset="0" style="stop-color:#2b4d37;stop-opacity:1"/><stop offset="1" style="stop-color:#3bb566;stop-opacity:1"/></linearGradient><linearGradient id="d"><stop offset="0" style="stop-color:#375a7d;stop-opacity:1"/><stop offset="1" style="stop-color:#54a3d8;stop-opacity:1"/></linearGradient><linearGradient id="c"><stop offset="0" style="stop-color:#68377d;stop-opacity:1"/><stop offset="1" style="stop-color:#cb7cec;stop-opacity:1"/></linearGradient><linearGradient id="b"><stop offset="0" style="stop-color:#bf4231;stop-opacity:1"/><stop offset="1" style="stop-color:#f58273;stop-opacity:1"/></linearGradient><linearGradient id="a"><stop offset="0" style="stop-color:#010609;stop-opacity:1"/><stop offset="1" style="stop-color:#010609;stop-opacity:0"/></linearGradient><linearGradient id="m" x1="272.35" x2="220.97" y1="268.7" y2="231.54" gradientTransform="matrix(.09375 0 0 .09374 -.004 .007)" gradientUnits="userSpaceOnUse"><stop offset="0" stop-color="#b0b0b0"/><stop offset="1" stop-color="#fff"/></linearGradient><linearGradient xlink:href="#a" id="n" x1="15.718" x2="42.144" y1="6.277" y2="32.703" gradientUnits="userSpaceOnUse"/><linearGradient xlink:href="#b" id="o" x1="21.523" x2="13.091" y1="22.219" y2="6.458" gradientUnits="userSpaceOnUse"/><linearGradient xlink:href="#c" id="l" x1="16.92" x2="5.917" y1="29.54" y2="11.505" gradientTransform="translate(-.093)" gradientUnits="userSpaceOnUse"/><linearGradient xlink:href="#d" id="k" x1="21.153" x2="14.308" y1="41.488" y2="30.856" gradientUnits="userSpaceOnUse"/><linearGradient xlink:href="#e" id="j" x1="33.954" x2="25.384" y1="41.037" y2="31.491" gradientUnits="userSpaceOnUse"/><linearGradient xlink:href="#f" id="i" x1="42.56" x2="29.652" y1="31.19" y2="18.776" gradientUnits="userSpaceOnUse"/><linearGradient xlink:href="#g" id="h" x1="40.262" x2="24.036" y1="16.121" y2="7.317" gradientUnits="userSpaceOnUse"/></defs><circle cx="24" cy="24" r="19.5" style="opacity:1;fill:#33393e;fill-opacity:1;stroke:none;stroke-width:2;stroke-linecap:round;stroke-linejoin:round;stroke-miterlimit:4;stroke-dasharray:none;stroke-opacity:0"/><path d="M27.64 4.38 22.87 17.862l18.774-3.138A19.99 19.99 0 0 0 27.635 4.38" style="fill:url(#h);fill-opacity:1"/><path d="m42.88 17.664-14.14 2.64 12.125 14.584c3.235-5.045 4.072-11.403 2.014-17.224" style="fill:url(#i);fill-opacity:1"/><path d="m39.04 37.102-9.371-10.844-6.653 17.723c6.016.26 11.978-2.198 16.025-6.88" style="fill:url(#j);fill-opacity:1"/><path d="m20.237 43.63 4.768-13.483-18.773 3.137A19.99 19.99 0 0 0 20.24 43.631" style="fill:url(#k);fill-opacity:1"/><path d="m5.12 30.326 14.14-2.64L7.135 13.102C3.9 18.147 3.063 24.505 5.121 30.326" style="fill:url(#l);fill-opacity:1"/><circle cx="24" cy="24" r="3" style="fill:url(#m)"/><path d="m24.865 4.043-4.293 1.14-6.578 7.475 4.235 9.033 18.07 18.07A20 20 0 0 0 44 24a20 20 0 0 0-.035-.998L25.014 4.051z" style="opacity:.2;fill:url(#n);fill-opacity:1;stroke:none;stroke-width:2;stroke-linecap:round;stroke-linejoin:round;stroke-miterlimit:4;stroke-dasharray:none;stroke-opacity:0"/><path d="m8.915 10.898 9.371 10.844L24.94 4.02c-6.016-.26-11.978 2.198-16.025 6.88" style="fill:url(#o);fill-opacity:1"/><path d="M4.018 23.49a19.6 19.6 0 0 0 1.103 6.836l.252-.047a20 20 0 0 1-1.355-6.789m39.968.235a19.8 19.8 0 0 1-3.12 10.164l-.065-.078a20 20 0 0 1-.36.568l.424.51a19.8 19.8 0 0 0 3.121-11.164m-37.24 9.474-.514.086a19.99 19.99 0 0 0 14.004 10.346l.336-.947a20 20 0 0 1-.953-.186q-.725-.157-1.43-.365l-.064-.018-.156-.053A20.007 20.007 0 0 1 6.746 33.2m31.871 3.414a20 20 0 0 1-12.004 6.192q-.105.013-.209.025a20 20 0 0 1-1.924.152l-.029.002h-.017A20 20 0 0 1 24 43l-.285-.014c-.109 0-.217.003-.326 0l-.373.994c6.016.26 11.978-2.198 16.025-6.878h-.002z" style="fill:#000;fill-opacity:1;opacity:.15"/></svg>