<svg xmlns="http://www.w3.org/2000/svg" width="22" height="22"><path d="M387 537.362h16v16h-16z" style="opacity:.2;fill:none;fill-opacity:1;stroke:none" transform="translate(-384 -555)"/><path d="M32 10h22v22H32z" style="opacity:.00100002;fill:#d3dae3;fill-opacity:1" transform="translate(-32 -10)"/><path d="M45 13h-4c-.687 0-1 .213-1 1v2c-.53 0-1.024.575-1.024.906v.402-.1c-.38 0-.976.382-.976 1.046v6.758c0 2.233 2.24 3.985 5 3.988 2.754.002 4.998-1.754 5-3.983v-6.763c0-.666-.582-1.046-.923-1.028h-.06l.002-.316c.003-.342-.426-.91-1.019-.91v-2c0-.793-.26-1-1-1m2 5v7l-4 .02-4-.02v-7h7zm-2-4v2h-4v-2z" style="color:#fcfcfc;stroke-width:.238442;fill-opacity:1;fill:currentColor" transform="translate(-32 -10)"/></svg>