<svg xmlns="http://www.w3.org/2000/svg" width="48" height="48"><defs><linearGradient id="b" x1="22.54" x2="36.896" y1="23.775" y2="37.804" gradientUnits="userSpaceOnUse"><stop stop-color="#292c2f"/><stop offset="1" stop-color="#292c2f" stop-opacity="0"/></linearGradient><linearGradient id="a" x1="389.32" x2="426.695" y1="547.675" y2="499.921" gradientTransform="translate(-432.57 -499.8)" gradientUnits="userSpaceOnUse"><stop stop-color="#18222a" style="stop-color:#1e2b35;stop-opacity:1"/><stop offset="1" stop-color="#566069" style="stop-color:#6d7983;stop-opacity:1"/></linearGradient></defs><rect width="40" height="40" x="-44" y="4" rx="20" style="fill:url(#a);stroke-width:2.79999995;stroke-opacity:.55" transform="scale(-1 1)"/><path d="M4.01 23.5c-.003.167-.011.332-.011.5 0 11.08 8.92 20 20 20s20-8.92 20-20c0-.168-.009-.333-.013-.5A19.953 19.953 0 0 1 24 43 19.95 19.95 0 0 1 4.01 23.5" style="fill:#000;stroke-width:2.79999995;stroke-opacity:.55;fill-opacity:1;opacity:.3"/><path d="m16.748 32.28 3.581-3.675-7.199-7.057L24 23.03l1.018-10 7.446 7.398 1.649-.763 9.137 9.043c-1.513 5.8-8.19 13.294-16.008 14.019z" style="color:#000;clip-rule:nonzero;display:inline;overflow:visible;visibility:visible;opacity:.397;isolation:auto;mix-blend-mode:normal;color-interpolation:sRGB;color-interpolation-filters:linearRGB;solid-color:#000;solid-opacity:1;fill:url(#b);fill-opacity:1;fill-rule:nonzero;stroke:none;stroke-width:1;stroke-linecap:butt;stroke-linejoin:miter;stroke-miterlimit:4;stroke-dasharray:none;stroke-dashoffset:0;stroke-opacity:1;color-rendering:auto;image-rendering:auto;shape-rendering:auto;text-rendering:auto"/><path d="M4.01 24.496c-.003-.167-.011-.332-.011-.5 0-11.08 8.92-20 20-20s20 8.92 20 20c0 .168-.009.333-.013.5A19.953 19.953 0 0 0 24 4.996a19.95 19.95 0 0 0-19.988 19.5" style="opacity:.3;fill:#fff;fill-opacity:1;stroke-width:2.79999995;stroke-opacity:.55"/><path d="m34.123 19.626-9.102 2.957v-9.57l-2.044.001.002 9.569-9.103-2.958-.632 1.947 9.1 2.956-5.624 7.742 1.656 1.203 5.623-7.741 5.625 7.74 1.655-1.2-5.625-7.742 9.102-2.958z" style="color:#000;clip-rule:nonzero;display:inline;overflow:visible;visibility:visible;opacity:1;isolation:auto;mix-blend-mode:normal;color-interpolation:sRGB;color-interpolation-filters:linearRGB;solid-color:#000;solid-opacity:1;fill:#fff;fill-opacity:1;fill-rule:nonzero;stroke:none;stroke-width:1;stroke-linecap:butt;stroke-linejoin:miter;stroke-miterlimit:4;stroke-dasharray:none;stroke-dashoffset:0;stroke-opacity:1;marker:none;color-rendering:auto;image-rendering:auto;shape-rendering:auto;text-rendering:auto"/></svg>