<svg xmlns="http://www.w3.org/2000/svg" width="48" height="48"><defs><linearGradient id="a" x2="0" y1="543.8" y2="503.8" gradientUnits="userSpaceOnUse"><stop stop-color="#faae2a"/><stop offset="1" stop-color="#ffc35a"/></linearGradient><linearGradient id="b" x2="0" y1="34" y2="13" gradientUnits="userSpaceOnUse"><stop stop-color="#2a2c2f"/><stop offset="1" stop-color="#424649"/></linearGradient><linearGradient id="c" x1="13" x2="31" y1="13" y2="31" gradientUnits="userSpaceOnUse"><stop stop-color="#383e51"/><stop offset="1" stop-color="#655c6f" stop-opacity="0"/></linearGradient></defs><path fill="url(#a)" fill-rule="evenodd" d="m388.57 523.8 20 20 20-20-20-20z" transform="translate(-384.57 -499.8)"/><path fill="url(#b)" d="M25 13v6.986l-4 4 .014.014H21v10h2v-9.186l2-2V34h2V13z"/><g fill-rule="evenodd"><path fill="#e78220" d="M4.5 23.5 4 24l20 20 20-20-.5-.5L24 43z"/><path fill="url(#c)" d="M27 13v21h-2l.012-11.207-2.01 2v9.205h-2l6.5 6.5 13.5-13.5z" opacity=".2"/></g></svg>