<svg xmlns="http://www.w3.org/2000/svg" width="128" height="128"><path fill="#35b9ab" d="M98.287 34.189c-5.866 0-11.569 1.695-16.647 4.59-4.94 2.813-9.245 6.63-13.08 10.799a93 93 0 0 0-4.37 5.128 148 148 0 0 0-3.92 5.195q-.97 1.34-1.937 2.685c-1.287 1.788-2.597 3.577-4.095 5.197a115 115 0 0 1-4.27 4.375c-3.64 3.538-7.525 6.9-11.816 9.63C34.758 83.943 30.789 86 26.668 86 15.62 86 5.715 77.24 5.715 63.905c0-13.333 9.524-20.571 20.953-20.571 6.623 0 12.478 2.825 18.16 7.714l-3.041 3.127 7.436 1.88 7.435 1.878-2.09-7.378-2.09-7.38L49.15 46.6c-5.813-5.2-13.036-9.361-22.102-9.361C12.19 37.238 0 47.905 0 64.286c0 15.62 12.19 27.046 25.907 27.046 5.674 0 11.169-1.69 16.04-4.558 4.368-2.575 8.18-5.972 11.681-9.615a157 157 0 0 0 3.47-3.754c1.477-1.642 2.864-3.272 4.101-5.136l1.632-2.457c1.001-1.506 1.926-2.999 3-4.464 1.976-2.7 4.048-5.332 6.277-7.828 3.74-4.187 7.976-8.083 12.968-10.726 3.96-2.097 8.342-3.272 12.83-3.272 15.621 0 24.382 10.858 24.382 24.762 0 12.954-8.381 23.62-22.858 23.62-8.274 0-15.529-2.244-23.171-8.851l3.54-4.305-7.564-1.257-7.566-1.258 2.693 7.18 2.696 7.181 3.008-3.656C80.472 89.602 88.546 94 99.05 94 116.572 94 128 80.666 128 63.904c0-17.525-11.808-29.715-29.713-29.715"/></svg>