<svg xmlns="http://www.w3.org/2000/svg" width="48" height="48"><circle cx="8.467" cy="288.53" r="6.879" fill="#225a84" stroke-width=".927" style="paint-order:stroke markers fill" transform="matrix(3.05277 0 0 3.05277 -1.848 -856.815)"/><path fill="#fff" d="M24.777 10.756a12.446 12.446 0 0 0-12.444 12.437v10.521c0 1.07.862 1.931 1.932 1.931h10.518a12.445 12.445 0 0 0-.006-24.89m3.75 2.728c.5 0 .856.059 1.318.176.676.177 1.225.732 1.225 1.376 0 .776-.561 1.343-1.408 1.343-.4 0-.546-.079-1.134-.079a3.15 3.15 0 0 0-3.149 3.145v2.722c0 .247.197.447.441.447h2.073a1.389 1.389 0 1 1 0 2.778h-2.514v3.178a5.967 5.967 0 0 1-5.967 5.967c-.5 0-.856-.059-1.317-.18-.676-.175-1.229-.728-1.229-1.372 0-.779.565-1.343 1.411-1.343.4 0 .547.076 1.135.076a3.15 3.15 0 0 0 3.148-3.145v-2.734a.444.444 0 0 0-.444-.447h-2.07a1.389 1.389 0 1 1 .016-2.778h2.498v-3.163a5.967 5.967 0 0 1 5.968-5.967"/></svg>