<svg xmlns="http://www.w3.org/2000/svg" width="48" height="48"><path d="M23.813 1.984c12.054 0 21.828 9.774 21.828 21.829 0 12.054-9.774 21.828-21.828 21.828S1.983 35.867 1.983 23.813 11.758 1.983 23.813 1.983m0 0" style="fill:#eee;fill-opacity:1;fill-rule:nonzero;stroke:none" transform="translate(1.09 1.09)scale(.96206)"/><path d="M19.7 35.426c-.09-.114-.087-.114.027-.028a.6.6 0 0 1 .125.125c0 .059-.059.024-.153-.097m3.437-.559c.004-.082.023-.097.043-.043.023.051.02.113-.004.137-.024.023-.04-.02-.04-.094m0-.855c.004-.082.023-.102.043-.043.023.05.02.113-.004.136s-.04-.02-.04-.093m-2.95-8.313c.051-.05.106-.07.13-.05.023.023-.02.062-.09.09-.102.038-.11.03-.04-.04m3.016-1.73c0-.016.059-.07.125-.125.113-.09.117-.086.027.027-.093.117-.152.156-.152.098m1.215-1.215c0-.016.055-.07.125-.125.113-.086.113-.086.023.027-.09.121-.148.156-.148.098m-6.105-1.918-.282-.3.305.28c.281.262.336.325.281.325-.012 0-.148-.137-.305-.305m2.41-1.8c0-.118.015-.157.035-.087a.44.44 0 0 1-.004.215c-.02.047-.035-.012-.031-.129m-.082-.86q.007-.13.043-.043c.02.05.02.113-.004.137-.024.023-.043-.02-.04-.094m6-.317c0-.097.015-.136.035-.09.02.051.02.13 0 .18-.02.047-.035.008-.035-.09m0-1.175c.004-.118.02-.16.035-.09.02.07.02.168 0 .215s-.035-.008-.035-.125m-11.137-2.149q.007-.124.043-.043c.023.051.02.113-.004.137-.023.023-.043-.016-.04-.094m3.41-.152c-.09-.113-.086-.117.027-.028.118.094.157.153.098.153-.016 0-.07-.059-.125-.125m-.566-.645-.172-.195.195.172c.184.164.227.222.172.222-.012 0-.102-.09-.195-.199m-2.844-.058c.004-.082.02-.102.043-.043.023.05.02.113-.004.136-.023.024-.043-.02-.04-.093m2.27-.442c-.09-.11-.087-.113.027-.023.117.09.156.148.097.148-.015 0-.07-.054-.125-.125m-7.946-1.015c.235-.235.438-.426.457-.426s-.152.191-.387.426c-.234.234-.437.43-.457.43s.153-.196.387-.43m14.723-1.121c-.09-.114-.086-.118.027-.028.067.051.125.11.125.125 0 .059-.058.02-.152-.097m-1.07-1.07c-.09-.114-.086-.118.027-.028.117.094.156.152.097.152-.015 0-.07-.058-.125-.125M17.41 8.18c.054-.02.112-.02.136.004.027.027-.016.043-.094.039q-.124-.007-.043-.043m1.784 0c.051-.02.114-.02.137.004.023.027-.02.043-.094.039-.082-.004-.101-.02-.043-.043m0 0" style="fill:#9cd9de;fill-opacity:1;fill-rule:nonzero;stroke:none" transform="translate(1.09 1.09)scale(.96206)"/><path d="M27.633 34.824c-.844-.363-1.16-1.59-.637-2.437.516-.836 1.524-1.098 2.16-.563.114.094.278.34.367.547.137.313.157.465.13.961-.04.73-.274 1.168-.762 1.426-.36.191-.91.219-1.258.066m1.254-5.238c-.707-.2-.746-3.031-.106-8.145.344-2.753.512-3.48.957-4.144.285-.426.594-.617 1.219-.75 1.078-.227 2.371.05 3.285.707 1.028.734 1.176 1.34.672 2.762-.496 1.402-1.71 3.836-3.09 6.207-1.23 2.105-1.945 3.093-2.398 3.308-.262.125-.278.125-.54.055M18.43 6.7a8.8 8.8 0 0 0-2.84.448c-2.363.766-5.93 3.36-6.66 4.844-.211.43-.242.567-.239.996.004.688.13 1.012 1.157 3.07 2.836 5.684 6.222 12.024 8.062 15.09 1.59 2.657 2.219 3.399 3.106 3.676.398.125.593.125 1.035-.004.8-.238 1.125-.867 1.062-2.058-.047-.914-.07-.985-1.636-5.04-.707-1.824-1.29-3.359-1.297-3.413-.004-.055.246-.204.601-.36 2.035-.883 3.719-2.418 4.899-4.48.722-1.254.949-2.14.949-3.723 0-2.086-.488-3.789-1.524-5.344-.835-1.257-1.918-2.222-3.222-2.867A7.9 7.9 0 0 0 18.43 6.7m-1.985 4.472c.594 0 1.145.312 1.934 1.098 1.078 1.07 1.805 2.304 2.164 3.675.234.883.266 2.239.07 2.88-.133.437-.445.85-.77 1.019-.269.14-.687.125-.991-.035-.543-.286-1.43-1.442-2.028-2.633-.793-1.582-1.238-3.02-1.3-4.219-.07-1.285.187-1.785.921-1.785M13.395 37.703H34.23c.82 0 1.489.668 1.489 1.488a1.49 1.49 0 0 1-1.489 1.489H13.395a1.49 1.49 0 0 1-1.489-1.489c0-.82.668-1.488 1.489-1.488m0 0" style="fill:#4cb5ab;fill-opacity:1;fill-rule:nonzero;stroke:none" transform="translate(1.09 1.09)scale(.96206)"/></svg>