<svg xmlns="http://www.w3.org/2000/svg" width="48" height="48"><path d="M24 1.984c12.055 0 21.828 9.774 21.828 21.829 0 12.054-9.773 21.828-21.828 21.828S2.172 35.867 2.172 23.813 11.945 1.983 24 1.983m0 0" style="fill:#e25563;fill-opacity:1;fill-rule:nonzero;stroke:none" transform="translate(.91 1.09)scale(.96206)"/><path d="M11.793 18.79c.164-.509.191-.817.254-1.11-.45.586-.207.71-.254 1.11m.828-3.532c.082.762-.562 1.058.145.555.379-.868-.149-.239-.145-.555M24.95 8.586c.348-.129.86-.07 1.235-.156-.485.039-.97.066-1.446.125zM36.227 22.82l-.075.196a9.5 9.5 0 0 1-.906 2.937 9.3 9.3 0 0 0 .98-3.133m-14.273 3.16c-.18-.203-.285-.449-.406-.695.113.43.348.797.566 1.172zm-.805.032-.074.37c.34.473.613.985 1.047 1.352-.312-.62-.547-.879-.973-1.722m4.25-17.016-.195.043.184-.02zm-.55-.156c.277.05.597.09.55.156.305-.066.375-.129-.55-.156m5.78 13.015c.063-.953-.183-.652-.265-.289.098.051.172.672.266.29m-1.027 2.722c.312-.433.535-.91.617-1.402-.07.351-.258.656-.434.972-.973.625-.094-.367 0-.746-1.043 1.34-.144.805-.183 1.176m-2.786.707c-.52.008.098.274.774.38.191-.15.36-.302.512-.446-.422.105-.852.11-1.286.066m-15.02-6.496c.165-.508.192-.812.255-1.11-.45.587-.207.712-.254 1.11m.828-3.527c.082.761-.562 1.054.145.554.378-.87-.149-.242-.145-.554m12.324-6.676c.352-.129.863-.07 1.238-.156-.488.039-.968.066-1.449.125zM36.23 22.82l-.074.196a9.6 9.6 0 0 1-.906 2.941c.512-.98.84-2.05.98-3.137m-14.273 3.16c-.184-.203-.289-.449-.41-.69.117.425.351.796.57 1.17zm-.809.032-.074.37c.344.473.613.985 1.051 1.352-.316-.62-.547-.879-.977-1.722m4.25-17.016-.191.043.18-.02.015-.023m7.743 13.254c.027.8-.227 1.188-.454 1.875l-.41.21c-.336.68.032.435-.21.974-.524.484-1.59 1.52-1.934 1.613-.25-.004.172-.305.226-.422-.703.5-.566.75-1.64 1.059l-.032-.075c-2.648 1.297-6.332-1.273-6.28-4.78-.032.222-.083.167-.141.257-.137-1.805.8-3.617 2.382-4.356 1.547-.796 3.36-.468 4.47.606-.61-.832-1.821-1.711-3.259-1.629-1.406.023-2.722.953-3.16 1.965-.719.469-.805 1.816-1.117 2.062-.422 3.23.793 4.625 2.852 6.27.324.226.093.262.136.433a5.6 5.6 0 0 1-1.828-1.453c.277.418.57.82.953 1.141-.648-.227-1.508-1.629-1.758-1.684 1.11 2.07 4.508 3.63 6.29 2.856-.825.031-1.872.02-2.797-.336-.387-.211-.914-.64-.82-.723 2.429.946 4.937.715 7.038-1.035.535-.433 1.118-1.172 1.29-1.18-.254.395.042.192-.153.54.531-.891-.234-.364.55-1.543l.29.414c-.11-.743.883-1.641.785-2.817.227-.36.254.387.012 1.211.332-.914.086-1.062.172-1.816.093.254.218.523.28.793-.222-.887.224-1.492.333-2.008-.11-.047-.336.39-.39-.652.007-.454.12-.239.163-.352-.082-.05-.308-.398-.445-1.066.098-.157.266.406.398.43-.085-.532-.234-.934-.242-1.34-.394-.86-.136.113-.457-.372-.422-1.36.348-.316.399-.933.636.957 1 2.445 1.164 3.058a13 13 0 0 0-.582-2.18c.195.087-.313-1.542.254-.464-.606-2.297-2.575-4.446-4.387-5.453.223.21.504.476.402.52-.902-.56-.742-.602-.87-.84-.735-.31-.782.027-1.27 0-1.383-.762-1.649-.68-2.922-1.16l.058.284c-.918-.32-1.07.118-2.058 0-.063-.05.316-.18.629-.226-.887.125-.848-.18-1.715.035.215-.156.441-.258.668-.39-.723.042-1.727.437-1.414.077-1.18.547-3.274 1.317-4.45 2.461l-.035-.254c-.539.672-2.347 2.008-2.492 2.88l-.144.035c-.282.492-.461 1.05-.684 1.558-.367.649-.535.25-.484.352-.723 1.52-1.078 2.797-1.387 3.843.219.344.004 2.063.086 3.438-.36 6.797 4.586 13.398 9.996 14.922.793.297 1.973.285 2.977.312-1.184-.351-1.336-.183-2.493-.601-.828-.41-1.011-.875-1.601-1.406l.234.43c-1.156-.427-.672-.528-1.613-.837l.25-.336c-.371-.03-.988-.656-1.16-1.004l-.407.016c-.492-.629-.757-1.086-.738-1.437l-.129.242c-.152-.266-1.812-2.367-.949-1.88-.16-.148-.375-.245-.605-.683l.175-.207c-.414-.554-.761-1.265-.734-1.504.219.313.371.371.523.422-1.046-2.7-1.105-.148-1.898-2.75l.168-.012c-.129-.203-.207-.421-.309-.636l.075-.758c-.754-.906-.211-3.852-.102-5.469.074-.656.629-1.36 1.047-2.453l-.254-.047c.488-.89 2.797-3.574 3.867-3.437.52-.676-.101 0-.203-.172 1.14-1.227 1.496-.867 2.266-1.086.828-.512-.711.2-.32-.195 1.433-.38 1.015-.864 2.886-1.06.195.118-.46.18-.625.333 1.195-.61 3.777-.469 5.457.336 1.945.95 4.133 3.746 4.219 6.375l.098.027c-.047 1.047.156 2.258-.2 3.367l.239-.527M24.848 8.84c.277.05.601.09.554.156.305-.066.371-.129-.554-.156m5.785 13.015c.062-.953-.184-.652-.266-.289.094.055.172.672.266.29m-1.031 2.726c.312-.434.535-.91.617-1.402-.07.351-.258.652-.434.972-.969.621-.09-.37 0-.746-1.043 1.336-.144.801-.183 1.176m-2.786.707c-.52.004.098.27.778.379.187-.148.355-.3.508-.445-.422.105-.852.105-1.286.066" style="fill:#fff;fill-opacity:1;fill-rule:nonzero;stroke:none" transform="translate(.91 1.09)scale(.96206)"/></svg>