<svg xmlns="http://www.w3.org/2000/svg" width="48" height="48"><path d="M34.499 5.817C44.543 11.615 47.98 24.455 42.183 34.5S23.545 47.98 13.5 42.183.02 23.545 5.817 13.5 24.455.02 34.5 5.817m0 0" style="fill:#77216f;fill-opacity:1"/><path d="M26.655 11.927a12.4 12.4 0 0 0-8.26.872l1.92 3.325a8.56 8.56 0 0 1 7.741.436 8.58 8.58 0 0 1 4.25 6.486h3.837a12.36 12.36 0 0 0-3.375-7.587 3.81 3.81 0 0 1-4.234.275 3.81 3.81 0 0 1-1.88-3.807m-9.909 1.83a12.4 12.4 0 0 0-3.731 4.04c-.496.864-.88 1.762-1.154 2.675A3.812 3.812 0 0 1 14.217 24a3.81 3.81 0 0 1-2.36 3.532 12.34 12.34 0 0 0 4.893 6.704l1.916-3.318a8.57 8.57 0 0 1-2.345-11.213 8.6 8.6 0 0 1 2.341-2.626zm19.397 11.198h-3.837a8.7 8.7 0 0 1-1.105 3.34 8.574 8.574 0 0 1-10.882 3.577l-1.916 3.318a12.36 12.36 0 0 0 8.252.887 3.81 3.81 0 0 1 1.879-3.81 3.8 3.8 0 0 1 4.234.274 12.6 12.6 0 0 0 1.74-2.337 12.4 12.4 0 0 0 1.635-5.25m0 0" style="fill:#f3d3f0;fill-opacity:1;fill-rule:nonzero;stroke:none;stroke-width:.961941"/><path d="M31.874 9.95a2.853 2.853 0 0 1 1.048 3.908 2.856 2.856 0 0 1-3.911 1.049 2.856 2.856 0 0 1-1.049-3.912 2.855 2.855 0 0 1 3.912-1.044M13.263 24a2.86 2.86 0 0 1-2.864 2.863A2.86 2.86 0 0 1 7.536 24a2.86 2.86 0 0 1 2.863-2.863A2.86 2.86 0 0 1 13.263 24M31.183 38.34a2.856 2.856 0 0 1-3.506-2.026 2.856 2.856 0 0 1 2.025-3.506 2.853 2.853 0 0 1 3.506 2.022 2.86 2.86 0 0 1-2.025 3.51m0 0" style="fill:#f3d3f0;fill-opacity:1;fill-rule:nonzero;stroke:none;stroke-width:.961941"/></svg>