<svg xmlns="http://www.w3.org/2000/svg" xmlns:xlink="http://www.w3.org/1999/xlink" width="48" height="48"><defs><linearGradient xlink:href="#a" id="c" x1="-44.999" x2="-3.001" y1="24.002" y2="24.002" gradientTransform="matrix(1.00001 0 0 1 0 0)" gradientUnits="userSpaceOnUse"/><linearGradient id="a"><stop offset="0" style="stop-color:#ccc;stop-opacity:1"/><stop offset="1" style="stop-color:#ccc;stop-opacity:1"/></linearGradient></defs><rect width="41.999" height="41.996" x="-45" y="3.004" rx="20.999" ry="20.998" style="display:inline;overflow:visible;fill:url(#c);fill-opacity:1;stroke-width:2.93984;stroke-opacity:.55" transform="scale(-1 1)"/><path d="M3.012 23.477c-.004.175-.012.35-.012.525A20.953 20.953 0 0 0 24 45c11.633 0 20.999-9.365 20.999-20.998 0-.176-.008-.349-.013-.525A20.95 20.95 0 0 1 24 43.95 20.947 20.947 0 0 1 3.012 23.477" style="display:inline;overflow:visible;opacity:.3;fill:#000;fill-opacity:1;stroke-width:2.93984;stroke-opacity:.55"/><path d="M3.012 24.523c-.004-.175-.012-.348-.012-.525A20.953 20.953 0 0 1 24 3c11.633 0 20.999 9.365 20.999 20.998 0 .176-.008.35-.013.525A20.95 20.95 0 0 0 24 4.05 20.947 20.947 0 0 0 3.012 24.523" style="display:inline;overflow:visible;opacity:.3;fill:#fff;fill-opacity:1;stroke-width:2.93984;stroke-opacity:.55"/><path d="M23.32 11.85c-1.029 0-1.334 1.32-2.585 1.32-1.196 0-2.086-.99-3.198-.99-1.085 0-1.778.714-2.307 2.199 0 0-1.501 4.18-1.696 4.784-.028.11-.695 1.513-.667 1.623-2.975.137-6.867.687-6.867 4.07 0 5.554 13.316 12.429 23.88 12.429 8.09 0 10.12-3.63 10.12-6.461 0-2.283-1.974-4.812-5.533-6.352l-.39-1.651-1.333-5.72c-.306-1.264-.556-1.842-2.808-2.942-1.723-.88-5.504-2.31-6.616-2.31" style="opacity:.2;stroke-width:.565952"/><path d="M23.32 11.285c-1.029 0-1.334 1.32-2.585 1.32-1.196 0-2.086-.99-3.198-.99-1.085 0-1.778.713-2.307 2.198 0 0-1.501 4.18-1.696 4.785-.028.11-.695 1.513-.667 1.623C9.892 20.358 6 20.908 6 24.29c0 5.554 13.316 12.428 23.88 12.428 8.09 0 10.12-3.628 10.12-6.46 0-2.283-1.974-4.813-5.533-6.353l-.39-1.65-1.333-5.72c-.306-1.265-.556-1.842-2.808-2.942-1.723-.88-5.504-2.31-6.616-2.31" style="fill:#e73232;stroke-width:.565952"/><path d="M23.32 11.285c-1.029 0-1.335 1.319-2.586 1.319-1.195 0-2.085-.99-3.197-.99-1.084 0-1.778.715-2.307 2.2 0 0-1.502 4.18-1.696 4.784-.028.11-.694 1.513-.667 1.623-2.974.137-6.867.687-6.867 4.07 0 .092.014.187.02.28.22-3.122 3.96-3.651 6.847-3.785-.027-.11.639-1.513.667-1.623.194-.605 1.696-4.784 1.696-4.784.529-1.485 1.223-2.2 2.307-2.2 1.112 0 2.002.99 3.197.99 1.251 0 1.557-1.32 2.586-1.32 1.112 0 4.892 1.43 6.616 2.31 2.252 1.1 2.502 1.677 2.808 2.942l1.334 5.72.39 1.65c3.425 1.483 5.376 3.882 5.517 6.095.005-.103.015-.207.015-.308 0-2.282-1.974-4.812-5.533-6.352l-.39-1.65-1.333-5.72c-.306-1.265-.556-1.842-2.808-2.942-1.723-.88-5.504-2.31-6.616-2.31Z" style="opacity:.2;fill:#fff;stroke-width:.565952"/><path d="M34.501 24.817c.308 1.47.308 1.609.308 1.803 0 2.495-2.858 3.882-6.574 3.882-8.382 0-15.837-4.88-15.837-8.097 0-.444.084-.887.28-1.303l.67-1.609c-.028.111-.056.222-.028.333 0 1.636 6.588 7.016 15.334 7.016 2.235 0 5.54-.472 5.54-3.106 0-.194 0-.416-.056-.61z" style="opacity:.1;stroke-width:.565952"/><path d="M34.501 24.252c.308 1.47.308 1.608.308 1.803 0 2.495-2.858 3.882-6.574 3.882-8.382 0-15.837-4.88-15.837-8.097 0-.444.084-.888.28-1.304l.67-1.608c-.028.111-.056.222-.028.333 0 1.636 6.588 7.015 15.334 7.015 2.235 0 5.54-.471 5.54-3.105 0-.194 0-.416-.056-.61z" style="fill:#3f3f3f;stroke-width:.565952"/></svg>