<svg xmlns="http://www.w3.org/2000/svg" xmlns:xlink="http://www.w3.org/1999/xlink" width="48" height="48"><defs><linearGradient xlink:href="#d" id="f" x1="19.737" x2="19.737" y1="27.035" y2="7.555" gradientTransform="matrix(1.06963 0 0 1.06517 5.99 5.862)" gradientUnits="userSpaceOnUse"/><linearGradient id="d"><stop offset="0" style="stop-color:#fff;stop-opacity:1"/><stop offset="1" style="stop-color:#64e6c0;stop-opacity:1"/></linearGradient></defs><rect width="42" height="42" x="3" y="3" rx="21" ry="21" style="fill:#1ba97f;fill-opacity:1;stroke-width:3.88082;stroke-linecap:round;stroke-linejoin:round"/><path d="M16.131 13.03a3.066 3.066 0 0 0-3.08 3.067q.002.034.004.067-.002.033-.003.067v15.672a3.066 3.066 0 0 0 3.08 3.067 3.066 3.066 0 0 0 3.078-3.067V22.11h.006a3.06 3.06 0 0 1 3.006-2.942v-.004h1.828a3.066 3.066 0 1 0 0-6.133zm15.738.135a3.066 3.066 0 0 0-3.079 3.066v15.672a3.066 3.066 0 0 0 3.08 3.067 3.066 3.066 0 0 0 3.078-3.067V16.231a3.065 3.065 0 0 0-3.079-3.066M24 20.95a3.066 3.066 0 0 0-3.08 3.067v7.885A3.066 3.066 0 0 0 24 34.97a3.066 3.066 0 0 0 3.08-3.067v-7.885A3.066 3.066 0 0 0 24 20.95" style="fill:url(#f);fill-opacity:1;stroke:none;stroke-width:2.13478;stroke-linecap:round;stroke-linejoin:round;stroke-miterlimit:4;stroke-dasharray:none;stroke-opacity:1"/></svg>