<svg xmlns="http://www.w3.org/2000/svg" width="48" height="48"><path d="M34.727 4.91c10.441 6.028 14.015 19.375 7.988 29.817S23.34 48.742 12.898 42.715-1.117 23.34 4.91 12.898 24.285-1.117 34.727 4.91m0 0" style="fill:#3485fd;fill-opacity:1;fill-rule:nonzero;stroke:none" transform="translate(1.094 1.094)scale(.96194)"/><path d="M17.246 41.504a19.3 19.3 0 0 1-3.308-1.606c5.144.399 11.855-.789 16.382-5.027 0 0 8.63-6.894 2.387-18.21 0 0 1.008 4.562-.277 8.312 0 0-1.223 5.277-6.664 6.757-8.008 2.184-17.137-3.597-20.953-6.316-.29-2.789-.036-5.676.992-8.492 1.515-4.172 4.629-7.426 8.113-9.61-.871 6.094-.184 11.704.805 14.055 1.332 3.153 3.379 7 7.882 7.473s6.989-3.918 6.989-3.918c2.312-3.512 2.672-8.555 2.636-8.676-.035-.121-.613-.457-.613-.457-1.558 6.293-4.12 8.399-4.12 8.399-4.044 3.902-7.255 1.109-7.255 1.109-3.078-3.309-.926-8.68-.926-8.68 1.207-3.66 5.067-8.933 9.051-11.656.66.164 1.328.266 1.985.504 2.41.879 4.52 2.203 6.304 3.828-2.914 1.066-7.613 3.312-7.613 3.312-7.45 3.137-7.953 7.883-7.953 7.883-.77 4.89 3.11 2.82 3.11 2.82 3.995-1.945 5.956-8.007 5.956-8.007-1.246-.239-2.226.14-2.226.14-1.594 3.934-4.848 5.555-4.848 5.555-1.281.676-1.578-.52-1.578-.52-.215-.898.926-1.05.926-1.05 1.773-.688 2.906-2.551 3.164-3.313.254-.761.73-.824.73-.824 4.434-2.887 11.38-.902 15.188.926 1.691 4.226 1.957 9.215.281 13.828-3.613 9.95-14.605 15.082-24.547 11.46m0 0" style="fill:#f5f5f5;fill-opacity:1;fill-rule:evenodd;stroke:none" transform="translate(1.094 1.094)scale(.96194)"/></svg>