<svg xmlns="http://www.w3.org/2000/svg" width="48" height="48"><path d="M34.5 5.816c10.04 5.798 13.482 18.64 7.684 28.68-5.798 10.044-18.64 13.486-28.68 7.688C3.46 36.386.018 23.544 5.816 13.5 11.614 3.46 24.456.018 34.5 5.816m0 0" style="fill:#3a4160;fill-opacity:1;fill-rule:nonzero;stroke:none;stroke-width:.961896"/><path d="M23.813 1.984c-1.922 4.711-3.083 7.793-5.22 12.36 1.313 1.39 2.739 3.02 5.22 4.508-2.481-.993-4.41-1.989-5.844-3.192-2.739 5.711-7.282 14.344-15.985 29.98 6.84-3.949 11.856-6.878 16.801-7.808-1.074-3.98.563-11.043 5.028-11.043s6.062 6.773 5.132 11.074c4.887.957 9.946 3.883 16.696 7.778-1.332-2.45-2.762-5.153-3.895-7.258-1.789-1.383-3.547-3.16-7.02-4.649 2.481.496 4.051.973 5.508 1.852C28.704 14.117 27.77 11.262 23.813 1.984m0 0" style="fill:#3fa3f5;fill-opacity:1;fill-rule:evenodd;stroke:none" transform="matrix(.64137 0 0 .64137 8.75 8.727)"/></svg>