<svg xmlns="http://www.w3.org/2000/svg" width="48" height="48" preserveAspectRatio="xMidYMid"><rect width="42" height="42" x="3" y="3" rx="21" ry="21" style="fill:#1ba97f;fill-opacity:1;stroke-width:3.88082;stroke-linecap:round;stroke-linejoin:round"/><path fill="#173f4f" d="M24 10c-7.242 0-13.223 5.54-13.929 12.6H3a1.4 1.4 0 1 0 0 2.8h7.071C10.777 32.46 16.758 38 24 38s13.223-5.54 13.929-12.6H45a1.4 1.4 0 1 0 0-2.8h-7.071C37.223 15.54 31.242 10 24 10m0 2.8a11.17 11.17 0 0 1 11.19 11.063 1.4 1.4 0 0 0 0 .268A11.17 11.17 0 0 1 24 35.2a11.17 11.17 0 0 1-11.19-11.063 1.4 1.4 0 0 0 0-.268A11.17 11.17 0 0 1 24 12.8m0 5.6c-3.076 0-5.6 2.524-5.6 5.6s2.524 5.6 5.6 5.6 5.6-2.524 5.6-5.6-2.524-5.6-5.6-5.6m0 2.8c1.563 0 2.8 1.237 2.8 2.8s-1.237 2.8-2.8 2.8a2.78 2.78 0 0 1-2.8-2.8c0-1.563 1.237-2.8 2.8-2.8" style="stroke-width:.400354"/></svg>