<svg xmlns="http://www.w3.org/2000/svg" width="48" height="48"><path d="M34.676 4.96c10.437 6.028 14.015 19.38 7.988 29.817-6.027 10.442-19.379 14.02-29.816 7.993-10.442-6.028-14.02-19.38-7.993-29.82 6.028-10.438 19.38-14.016 29.82-7.99m0 0" style="fill:#3a4160;fill-opacity:1;fill-rule:nonzero;stroke:none" transform="matrix(.9619 0 0 .9619 1.122 1.044)"/><path d="M3.223 10.992c-.414.004-.828.02-1.239.07 4.551.083 9.11.454 13.563 1.41.863.114 1.695.376 2.531.587.406.097.785.277 1.192.378.671.172 1.332.399 1.996.594.41.18.851.258 1.254.446.605.253 1.199.543 1.785.84.078.05.195.074.218.18.153.64.235 1.296.418 1.929.352 1.18.793 2.344 1.426 3.41-.672.32-1.25.8-1.754 1.34-.722.793-1.285 1.75-1.527 2.8-.293 1.075-.23 2.544.023 3.618.274.965.766 1.664 1.434 2.414 1.34 1.523 3.426 2.41 5.457 2.176 2.45-.2 5 .195 7.152 1.425 1.13.653 2.196 1.453 3 2.489 1.098 1.246 1.922 2.812 2.551 4.34.09.23.176.468.3.683 0-.285-.105-.555-.202-.82-.293-.781-.621-1.649-1.035-2.375-.489-.871-1.024-1.727-1.7-2.465-.988-1.188-2.191-2.203-3.566-2.91 1.047.136 2.07.441 3.066.789 1.067.379 2.09.887 3.012 1.55.906.735 1.707 1.618 2.297 2.633.305.489.5 1.137.766 1.649-.235-1.184-.828-2.371-1.57-3.313-.438-.57-.997-1.027-1.544-1.484-1.265-.996-2.734-1.703-4.254-2.21-2.793-.919-5.746-1.27-8.675-1.27a5.9 5.9 0 0 1-2.09-.336c-1.535-.555-2.75-1.711-3.13-3.301-.483-1.727.056-4.016 1.325-5.274 1.031-1.054 2.535-1.656 4.016-1.511 1.523.109 2.976.644 4.398 1.164 1.168.457 2.34.906 3.465 1.457.031.324.059.66.176.965.16.316.504.468.808.609.582.262 1.133.492 1.63.898.367.293.671.657 1.019.973.117-.187.137-.234.172-.3.02-.016.004.003.027-.024.266-.278.66-.332.996-.5-.875-.219-1.734-.535-2.308-1.254-.09-.11.289-.008.21-.184-.054-.148-.105-.234-.18-.363-.32-.469-.644-.934-.929-1.422q-.494-.01-.988-.02c-.418-.488-.875-.933-1.3-1.413.034.261.085.527.085.793a5.7 5.7 0 0 1-.82-.54c-.274-.25-.532-.523-.801-.777q.053.289.101.582c-.554-.226-1.082-.562-1.472-1.023a10 10 0 0 0-.016.344c-.351-.137-.691-.286-1.039-.422-.879-.328-1.746-.707-2.676-.875-1.02-.051-2.101.086-3.066-.332a2.9 2.9 0 0 1-1.531-1.422c-.586-1.086-.504-2.38-.336-3.559-.742-.492-1.543-.883-2.371-1.215-.383-.136-.746-.336-1.149-.425a34 34 0 0 0-4.445-1.13c-.656-.144-1.324-.21-1.977-.355-.625-.121-1.261-.183-1.89-.262-3.004-.343-6.032-.472-9.051-.449-.414.004-.828-.004-1.242 0zm21.074 4.735c-5.512-.047-11.04.203-16.484 1.085-1.426.239-2.86.458-4.254.844 4.664-.656 9.363-1.101 14.074-1.203 2.297-.016 4.594.055 6.879.285-.075-.336-.153-.672-.215-1.011m.36 1.492c-3.102.289-6.141 1.027-9.094 2.004-2.04.699-4.04 1.515-5.97 2.48-.683.344-1.378.68-2.027 1.09.735-.316 1.446-.672 2.188-.965 4.824-1.984 9.937-3.375 15.164-3.64-.098-.32-.195-.645-.262-.97m6.144 1.015c.547.246 1.125.422 1.668.68 1.66.723 3.254 1.629 4.656 2.781.508.422.98.883 1.39 1.399.11.12.286.027.426.05-.156-.289-.441-.472-.664-.703a15.9 15.9 0 0 0-3.797-2.753c-1.171-.61-2.394-1.141-3.68-1.454m0 0" style="fill:#cfd7dc;fill-opacity:1;fill-rule:nonzero;stroke:none" transform="matrix(.9619 0 0 .9619 1.122 1.044)"/></svg>