<svg xmlns="http://www.w3.org/2000/svg" width="48" height="48"><path d="M42.766 12.95A21.77 21.77 0 0 0 23.813 1.983 21.78 21.78 0 0 0 1.983 23.813a21.8 21.8 0 0 0 2.907 10.921l36.105-20.843a30 30 0 0 1 1.77-.942m0 0" style="fill:#3fa3f5;fill-opacity:1;fill-rule:nonzero;stroke:none" transform="matrix(.96164 0 0 .96166 1.091 1.092)"/><path d="M42.7 12.828a21.78 21.78 0 0 1 .015 21.899 21.78 21.78 0 0 1-29.817 7.988 21.8 21.8 0 0 1-8.007-7.98L40.996 13.89a28 28 0 0 0 1.703-1.063m0 0" style="fill:#1c87e3;fill-opacity:1;fill-rule:nonzero;stroke:none" transform="matrix(.96164 0 0 .96166 1.091 1.092)"/><path d="M23.813 5.953c9.863 0 17.859 7.996 17.859 17.86s-7.996 17.859-17.86 17.859-17.859-7.996-17.859-17.86S13.95 5.953 23.813 5.953m0 0" style="fill:#3f3f3f;fill-opacity:1;fill-rule:nonzero;stroke:none" transform="matrix(.96164 0 0 .96166 1.091 1.092)"/><path d="M37.297 14.05c0-.027-.14.063-.309.2-.425.34-.867.477-2.125.66-1.168.172-1.734.367-1.883.649-.187.324-.667.59-.77.941.087 1.133 1.4 1.848 1.423 2.938 0 .335-.04.417-.317.68-.472.452-1.07.612-2.21.605-1.665-.012-3.223-.442-6.301-1.754-2.524-1.078-3.621-1.348-4.735-1.14-.597.108-1.508.55-1.98.952-.742.637-2.13 2.664-3 4.403l-.578 1.16-.446-.465c-.734-.762-.96-1.063-.96-1.277 0-.13-.047-.204-.133-.204-.114 0-.13.067-.094.41.043.446.363.985 1.027 1.727l.364.403-.297.945c-.164.523-.344 1.207-.395 1.515-.098.54-.117.586-.71 1.204-.712.742-.81.765-1.653.449-.336-.133-3.031-1.02-3.078-.188 1.453-.07 3.07 1.387 4.36 1.16.233-.046.448-.191.85-.582l.544-.523c.586.61 1.418.86 2.187 1.082l-.371.09c-.508.129-.832.383-1.012.785-.152.336-.152.344 0 .457.2.145 1.625.148 1.914.004.168-.082.489-.535.59-.824.781.12 1.684.23 2.418-.035.227-.086.41-.13.41-.094 0 .035-.164.222-.367.426-.242.242-.363.437-.363.574 0 .46.012.465 1.152.465.766 0 1.063-.024 1.086-.098v-.008c.02-.055.047-.742.059-1.535.023-1.309.039-1.46.191-1.668 1.38-1.016 2.996-1.562 4.598-1.719v.25c0 .14-.172.739-.383 1.328l-.39 1.07-.43.098c-.489.11-.922.438-1.078.817-.188.453-.11.488.976.488 1.149 0 1.063.05 1.672-1.023.332-.59.617-.926 1.574-1.88l1.172-1.163c1.48.675 3.422 1.922 4.258 3.332.133.254.101.414-.133.722-.191.246-.2.551-.016.598.325.082 1.735.07 1.891-.016a.33.33 0 0 0 .172-.265c0-.102-.297-.696-.652-1.32-.774-1.364-.883-1.614-1.766-4.215-.574-1.696-.68-2.094-.68-2.536 0-.918.387-1.636 1.274-2.367 1.039-.824.578-2.16-.11-2.972-.55-.653-.644-.871-.46-1.079a.6.6 0 0 1 .398-.152c.43 0 1.086-.234 1.82-.656.383-.219.754-.402.824-.402q.289-.002.723-.872c.14-.28.258-.527.258-.554m0 0" style="fill:#dedede;fill-opacity:1;fill-rule:nonzero;stroke:none" transform="matrix(.96164 0 0 .96166 1.091 1.092)"/></svg>