<svg xmlns="http://www.w3.org/2000/svg" xmlns:xlink="http://www.w3.org/1999/xlink" width="48" height="48"><defs><linearGradient id="b"><stop offset="0" style="stop-color:#55bcf2;stop-opacity:1"/><stop offset="1" style="stop-color:#1a80e2;stop-opacity:1"/></linearGradient><linearGradient xlink:href="#b" id="d" x1="17.25" x2="17.25" y1="29.643" y2="3.056" gradientTransform="translate(-.46 -.637)scale(1.44392)" gradientUnits="userSpaceOnUse"/></defs><rect width="42" height="42" x="3" y="3" rx="21" ry="21" style="fill:url(#d);fill-opacity:1;stroke-width:3.88082;stroke-linecap:round;stroke-linejoin:round"/><path d="M20.173 14v2.995h-5.805v2.995h-2.903v2.995h-.907a.96.96 0 0 0-.756.406s-.083.105-.12.187c-.039.082-.065.207-.091.312-.057.215-.091.457-.091.811 0 .687.08 1.447.272 2.216-.083.02-.174.042-.242.062h.272c.2.772.507 1.548.938 2.309.012.02.018.043.03.062v.032c.056.242.196.452.393.593l.03.031c.162.234.325.465.514.687C13.29 32.573 15.845 34 19.477 34c5.578 0 10.408-2.371 13.303-7.02h4.898c-.612-.16-1.943-.39-1.724-1.218-.676.808-1.927.98-2.962.843.34-.581.657-1.194.937-1.84 1.602-.099 2.82-.656 3.507-1.343.786-.783 1.028-1.684 1.028-1.684a1.02 1.02 0 0 0-.302-1.03s-1.463-1.057-3.568-.842c-.722-1.99-2.237-2.964-2.237-2.964a.95.95 0 0 0-.666-.125.95.95 0 0 0-.423.218s-.442.406-.786 1.061-.654 1.65-.544 2.902c.042.46.314.866.484 1.31-.121.078-.235.168-.393.25a4.4 4.4 0 0 1-2.026.468h-.09V19.99H25.01V14Zm1.935 1.997h.967v.998h-.967zm-5.805 2.995h.967v.998h-.967zm2.902 0h.968v.998h-.968zm2.903 0h.967v.998h-.967zm10.007.312c.348.405.726.979.877 1.81.049.276.208.514.438.662s.51.192.771.117c.877-.245 1.516-.167 1.965-.031-.053.066-.018.055-.09.125-.442.44-1.183.932-2.721.873a.97.97 0 0 0-.938.624c-.434 1.112-.94 2.11-1.541 2.995-1.429.574-4.607.152-4.868-.592-.945 1.142-3.859 1.142-4.807 0-.306.877-4.717 1.283-5.473.156-.608.585-2.823.975-4.081.093a8 8 0 0 1-.152-1.154h16.508a6.34 6.34 0 0 0 2.872-.686c.348-.176.64-.351.847-.5.208-.148.382-.28.333-.25a.98.98 0 0 0 .453-.67c.053-.28-.012-.57-.181-.796-.257-.347-.405-.772-.454-1.31-.06-.702.095-1.107.242-1.466zM13.4 21.987h.968v.998H13.4zm2.903 0h.967v.998h-.967zm2.902 0h.968v.998h-.968zm2.903 0h.967v.998h-.967zm2.902 0h.967v.998h-.967zM11.858 26.98h18.655c-2.548 3.4-6.399 5.023-11.036 5.023-2.43 0-4.134-.675-5.351-1.653 2.056-.075 3.537-.624 3.537-.624a1 1 0 0 0 .771-1.17c-.102-.543-.608-.901-1.134-.796a1.08 1.08 0 0 0-.272.094s-2.12.717-4.626.405a7 7 0 0 1-.544-1.279zm7.075.187a.594.594 0 0 0 0 1.186c.31 0 .544-.273.544-.593a.6.6 0 0 0-.03-.218.24.24 0 0 1-.212.124c-.128 0-.211-.117-.211-.25 0-.09.022-.148.09-.187-.064-.027-.11-.062-.181-.062" style="fill:#fff;fill-opacity:1;stroke-width:.982817"/></svg>