<svg xmlns="http://www.w3.org/2000/svg" xmlns:xlink="http://www.w3.org/1999/xlink" width="48" height="48"><defs><linearGradient xlink:href="#b" id="e" x1="407.793" x2="408.571" y1="520.559" y2="543.798" gradientTransform="matrix(1.075 0 0 1.05 -415.214 -525.988)" gradientUnits="userSpaceOnUse"/><linearGradient id="b"><stop offset="0" style="stop-color:#a17bdb;stop-opacity:1"/><stop offset="1" style="stop-color:#0cf;stop-opacity:1"/></linearGradient></defs><path d="M24 3C12.089 3 2.5 12.365 2.5 23.999S12.089 45 24 45s21.5-9.367 21.5-21.001S35.911 3 24 3" style="fill:url(#e);fill-opacity:1;stroke-width:2.9748;stroke-opacity:.550265"/><path d="m16.043 11.067-6.18 4.036c-.842.549-.888 1.504-.104 2.131l3.54 2.835c.784.629 2.114.71 2.968.182l6.208-3.834c.855-.527.922-1.478.15-2.122l-3.662-3.057c-.77-.644-2.078-.72-2.92-.171M9.863 27.31l6.18 4.036c.842.55 2.15.472 2.92-.171l3.663-3.058c.772-.644.704-1.594-.151-2.122l-6.208-3.833c-.855-.528-2.184-.447-2.968.18l-3.54 2.836c-.784.629-.738 1.583.104 2.132M25.42 28.117l3.663 3.058c.772.644 2.08.72 2.92.17l6.18-4.035c.842-.55.888-1.504.104-2.131l-3.54-2.835c-.784-.629-2.113-.71-2.968-.182l-6.208 3.834c-.855.527-.923 1.477-.151 2.12M38.184 15.103l-6.18-4.036c-.842-.55-2.15-.473-2.92.17l-3.664 3.058c-.772.644-.704 1.594.15 2.122l6.208 3.833c.855.528 2.184.447 2.968-.181l3.54-2.835c.785-.628.74-1.582-.102-2.131" style="fill:#e5e9ef;fill-opacity:1;stroke-width:.606451"/><path d="m22.642 29.272-3.675 3.05c-.773.642-2.02.757-2.785.257s-1.386-.45-1.386.11.699 1.433 1.56 1.95l6.126 3.673c.862.517 2.26.517 3.12 0l6.127-3.673c.862-.517 1.56-1.39 1.56-1.95s-.62-.609-1.385-.11c-.765.5-2.012.385-2.785-.257l-3.676-3.05c-.774-.641-2.028-.641-2.8 0" style="fill:#e5e9ef;fill-opacity:1;stroke-width:.606451"/></svg>