<svg xmlns="http://www.w3.org/2000/svg" xmlns:xlink="http://www.w3.org/1999/xlink" width="48" height="48" version="1.0"><defs><linearGradient id="M" x2="0" y1="543.8" y2="503.8" gradientTransform="matrix(1.04995 0 0 1.05 -373.29 -534.913)" gradientUnits="userSpaceOnUse"><stop stop-color="#c6cdd1"/><stop offset="1" stop-color="#e0e5e7"/></linearGradient><linearGradient id="N" x2="0" y1="543.8" y2="503.8" gradientTransform="matrix(1.04995 0 0 1.05 -452.978 -525.99)" gradientUnits="userSpaceOnUse"><stop stop-color="#c6cdd1"/><stop offset="1" stop-color="#e0e5e7"/></linearGradient><linearGradient id="S" x1="128.469" x2="128.469" y1="247.297" y2="5.565" gradientUnits="userSpaceOnUse"><stop offset="0" style="stop-color:#39b54a"/><stop offset=".082" style="stop-color:#45b748"/><stop offset=".329" style="stop-color:#64be44"/><stop offset=".569" style="stop-color:#7bc241"/><stop offset=".797" style="stop-color:#88c540"/><stop offset="1" style="stop-color:#8dc63f"/></linearGradient><linearGradient id="U" x1="136.68" x2="136.68" y1="229.467" y2="39.946" gradientUnits="userSpaceOnUse"><stop offset="0" style="stop-color:#e6e7e8"/><stop offset="1" style="stop-color:#fff"/></linearGradient><linearGradient id="V" x1="67.374" x2="67.374" y1="87.669" y2="43.832" gradientUnits="userSpaceOnUse"><stop offset="0" style="stop-color:#777"/><stop offset=".207" style="stop-color:#7c7c7c"/><stop offset=".439" style="stop-color:#898989"/><stop offset=".684" style="stop-color:#a0a0a0"/><stop offset=".937" style="stop-color:#bfbfbf"/><stop offset="1" style="stop-color:#c8c8c8"/></linearGradient><linearGradient id="W" x1="67.374" x2="67.374" y1="82.338" y2="49.164" gradientUnits="userSpaceOnUse"><stop offset="0" style="stop-color:#c8c8c8"/><stop offset=".063" style="stop-color:#bfbfbf"/><stop offset=".316" style="stop-color:#a0a0a0"/><stop offset=".561" style="stop-color:#898989"/><stop offset=".793" style="stop-color:#7c7c7c"/><stop offset="1" style="stop-color:#777"/></linearGradient><radialGradient id="O" cx="162.037" cy="741.37" r="62.866" gradientTransform="matrix(.8931 0 0 .0554 -1.596 206.052)" gradientUnits="userSpaceOnUse"><stop offset=".215" style="stop-color:#231f20"/><stop offset="1" style="stop-color:#231f20;stop-opacity:0"/></radialGradient><radialGradient id="P" cx="129.204" cy="749.394" r="88.66" fx="179.204" fy="736.831" gradientTransform="matrix(.8931 0 0 .0554 -1.596 206.052)" gradientUnits="userSpaceOnUse"><stop offset=".215" style="stop-color:#231f20"/><stop offset="1" style="stop-color:#231f20;stop-opacity:0"/></radialGradient><path id="Q" d="m245.46 129.523-97.891-96.898c-5.556-5.502-16.222-11.873-23.7-14.16L84.351 6.382c-7.479-2.286-18.096.391-23.599 5.948L47.311 25.908a76163 76163 0 0 1-20.005 20.21l-13.44 13.579c-5.5 5.558-8.07 16.206-5.706 23.658l12.483 39.391c2.363 7.456 8.843 18.056 14.399 23.556l97.89 96.898c5.558 5.502 14.605 5.455 20.105-.101l36.26-36.63 20.005-20.209 36.259-36.629c5.502-5.56 5.455-14.606-.101-20.108M67.375 78.783c-7.198 0-13.033-5.835-13.033-13.033s5.835-13.033 13.033-13.033 13.033 5.835 13.033 13.033c-.001 7.198-5.836 13.033-13.033 13.033"/><path id="L" d="m245.46 129.523-97.891-96.898c-5.556-5.502-16.222-11.873-23.7-14.16L84.351 6.382c-7.479-2.286-18.096.391-23.599 5.948L47.311 25.908a76163 76163 0 0 1-20.005 20.21l-13.44 13.579c-5.5 5.558-8.07 16.206-5.706 23.658l12.483 39.391c2.363 7.456 8.843 18.056 14.399 23.556l97.89 96.898c5.558 5.502 14.605 5.455 20.105-.101l36.26-36.63 20.005-20.209 36.259-36.629c5.502-5.56 5.455-14.606-.101-20.108M67.375 78.783c-7.198 0-13.033-5.835-13.033-13.033s5.835-13.033 13.033-13.033 13.033 5.835 13.033 13.033c-.001 7.198-5.836 13.033-13.033 13.033"/><clipPath id="R" clip-path="url(#K)"><use xlink:href="#L" overflow="visible"/></clipPath></defs><path d="M-311.79 19.865V17.07ZM154.95-108.35v-2.794zM-41.154-321.614v-2.795zM-62.419-247.607v-1.053z" style="fill:#fff;fill-opacity:.756881;fill-rule:nonzero;stroke:none;stroke-width:.5;stroke-linecap:round;stroke-linejoin:round;stroke-miterlimit:4;stroke-dasharray:none;stroke-dashoffset:4;stroke-opacity:1"/><rect width="41.998" height="42" x="-45" y="3" fill="url(#M)" rx="20.999" style="fill:url(#N)" transform="scale(-1 1)"/><path fill="#99a1a7" d="M3.013 23.475C3.008 23.65 3 23.824 3 24c0 11.634 9.366 21 20.999 21a20.954 20.954 0 0 0 20.999-21c0-.176-.008-.35-.013-.525A20.95 20.95 0 0 1 24 43.95 20.947 20.947 0 0 1 3.013 23.475" style="stroke-width:2.93993;stroke-opacity:.55"/><path fill="url(#O)" fill-opacity=".7" d="M202.354 247.297c0 3.048-39.807 5.519-88.905 5.519-49.102 0-88.906-2.471-88.906-5.519 0-3.046 39.804-5.518 88.906-5.518 49.098 0 88.905 2.472 88.905 5.518" style="fill:url(#O)" transform="matrix(.12942 0 0 .12942 7.058 7.28)"/><path fill="url(#P)" fill-opacity=".4" d="M202.354 247.297c0 3.048-39.807 5.519-88.905 5.519-49.102 0-88.906-2.471-88.906-5.519 0-3.046 39.804-5.518 88.906-5.518 49.098 0 88.905 2.472 88.905 5.518" style="fill:url(#P)" transform="matrix(.12942 0 0 .12942 7.058 7.28)"/><g transform="matrix(.12942 0 0 .12942 7.058 7.28)"><clipPath id="K"><use xlink:href="#Q" overflow="visible"/></clipPath><g clip-path="url(#R)"><path fill="#39b54a" d="m245.46 129.523-97.891-96.898c-5.556-5.502-16.222-11.873-23.7-14.16L84.351 6.382c-7.479-2.286-18.096.391-23.599 5.948L47.311 25.908a76163 76163 0 0 1-20.005 20.21l-13.44 13.579c-5.5 5.558-8.07 16.206-5.706 23.658l12.483 39.391c2.363 7.456 8.843 18.056 14.399 23.556l97.89 96.898c5.558 5.502 14.605 5.455 20.105-.101l36.26-36.63 20.005-20.209 36.259-36.629c5.502-5.56 5.455-14.606-.101-20.108M67.375 78.783c-7.198 0-13.033-5.835-13.033-13.033s5.835-13.033 13.033-13.033 13.033 5.835 13.033 13.033c-.001 7.198-5.836 13.033-13.033 13.033"/><path fill="url(#S)" d="m245.46 129.523-97.891-96.898c-5.556-5.502-16.222-11.873-23.7-14.16L84.351 6.382c-7.479-2.286-18.096.391-23.599 5.948L47.311 25.908a76163 76163 0 0 1-20.005 20.21l-13.44 13.579c-5.5 5.558-8.07 16.206-5.706 23.658l12.483 39.391c2.363 7.456 8.843 18.056 14.399 23.556l97.89 96.898c5.558 5.502 14.605 5.455 20.105-.101l36.26-36.63 20.005-20.209 36.259-36.629c5.502-5.56 5.455-14.606-.101-20.108M67.375 78.783c-7.198 0-13.033-5.835-13.033-13.033s5.835-13.033 13.033-13.033 13.033 5.835 13.033 13.033c-.001 7.198-5.836 13.033-13.033 13.033" style="fill:url(#S)"/></g><path fill="url(#U)" fill-rule="evenodd" d="M119.142 160.18c.84 7.224 1.71 13.293 2.208 19.39.512 6.339 3.038 8.335 9.523 6.429 22.587-6.635 45.307-12.838 67.97-19.206l9.025-2.535c.833 12.349 1.615 23.891 2.412 35.654-1.142.599-1.95 1.211-2.854 1.465-31.292 8.807-62.574 17.621-93.895 26.293-3.664 1.014-7.543 1.427-11.355 1.697-11.792.86-19.628-3.747-22.368-15.293-3.292-13.876-5.288-28.087-7.257-42.242-3.343-24.035-6.69-48.087-9.152-72.228-2.001-19.593 5.288-30.714 24.121-36.498a1665 1665 0 0 1 76.851-21.607c18.449-4.705 27.947 1.101 31.71 19.9 3.24 16.215 5.159 32.819 6.165 49.337 1.003 16.504-5.839 25.949-21.635 31.218-17.217 5.745-34.78 10.464-52.195 15.617-2.9.856-5.822 1.64-9.274 2.609m-4.598-31.437c13.178-3.704 25.534-6.922 37.661-10.851 1.854-.599 3.891-4.542 3.736-6.795-.588-8.65-2.093-17.234-3.128-25.862-.501-4.16-2.669-5.014-6.397-3.938-10.324 2.989-20.794 5.54-30.96 8.994-2.189.75-4.88 4.648-4.722 6.915.702 10.166 2.353 20.269 3.81 31.537" clip-path="url(#R)" clip-rule="evenodd" style="fill:url(#U)"/><g clip-path="url(#R)"><path fill="#231f20" d="M78.47 10.897c1.6 0 3.054.197 4.322.584l39.518 12.083c6.692 2.047 16.542 7.932 21.509 12.851l97.89 96.897c3.481 3.448 3.51 9.087.064 12.569l-36.259 36.629-8.021 8.104-11.983 12.105-36.26 36.63c-1.67 1.688-3.913 2.616-6.315 2.616a8.82 8.82 0 0 1-6.25-2.554l-97.89-96.898c-4.97-4.92-10.954-14.709-13.068-21.377L13.242 81.743c-1.771-5.582.292-14.131 4.413-18.295l13.44-13.578C36.598 44.312 45.6 35.218 51.1 29.659l13.44-13.577c3.023-3.053 8.752-5.185 13.93-5.185M67.375 84.115c10.126 0 18.365-8.238 18.365-18.364s-8.238-18.365-18.365-18.365-18.364 8.239-18.364 18.365 8.238 18.364 18.364 18.364M78.47 5.565c-6.45 0-13.55 2.556-17.718 6.765L47.311 25.908a76163 76163 0 0 1-20.005 20.21l-13.44 13.579c-5.5 5.558-8.07 16.206-5.706 23.658l12.483 39.391c2.363 7.456 8.843 18.056 14.399 23.556l97.89 96.898c2.76 2.732 6.382 4.097 10.001 4.097 3.669 0 7.336-1.4 10.104-4.197l36.26-36.63 20.005-20.209 36.259-36.629c5.501-5.561 5.454-14.606-.102-20.108l-97.891-96.898c-5.556-5.502-16.222-11.873-23.7-14.16L84.351 6.382c-1.814-.554-3.815-.817-5.881-.817M67.375 78.783c-7.198 0-13.033-5.835-13.033-13.033s5.835-13.033 13.033-13.033 13.033 5.835 13.033 13.033c-.001 7.198-5.836 13.033-13.033 13.033" opacity=".1"/></g><g fill="#231f20" clip-path="url(#R)" opacity=".4"><path d="M67.375 47.386c-7.198 0-13.033 5.835-13.033 13.033 0 .914.096 1.805.275 2.666 1.23-5.918 6.474-10.367 12.758-10.367s11.527 4.448 12.757 10.367c.179-.861.275-1.752.275-2.666 0-7.198-5.835-13.033-13.032-13.033"/><path d="M67.375 47.386c-7.198 0-13.033 5.835-13.033 13.033 0 .914.096 1.805.275 2.666 1.23-5.918 6.474-10.367 12.758-10.367s11.527 4.448 12.757 10.367c.179-.861.275-1.752.275-2.666 0-7.198-5.835-13.033-13.032-13.033" opacity=".1"/><path d="m245.562 144.301-36.259 36.628-20.005 20.209-36.26 36.63c-5.5 5.556-14.548 5.603-20.105.102l-97.89-96.899c-5.556-5.5-12.036-16.099-14.399-23.556L8.16 78.023c-.353-1.114-.583-2.305-.723-3.534-.328 3.11-.124 6.193.723 8.866l12.483 39.391c2.363 7.456 8.843 18.056 14.399 23.556l97.89 96.898c5.558 5.502 14.605 5.455 20.105-.101l36.26-36.63 20.005-20.209 36.259-36.629c3.403-3.439 4.677-8.212 3.844-12.657a14.13 14.13 0 0 1-3.843 7.327"/><path d="M7.437 74.489c-.328 3.11-.124 6.193.723 8.866l12.483 39.391c2.363 7.456 8.843 18.056 14.399 23.556l97.89 96.898c2.76 2.732 6.382 4.097 10.001 4.097 3.669 0 7.336-1.4 10.104-4.197l36.26-36.63 20.005-20.209 36.259-36.629c3.403-3.439 4.677-8.212 3.844-12.657a14.13 14.13 0 0 1-3.844 7.326l-36.259 36.628-20.005 20.209-36.26 36.63c-2.769 2.796-6.437 4.197-10.104 4.197-3.62 0-7.24-1.363-10.001-4.096l-97.89-96.899c-5.556-5.5-12.036-16.099-14.399-23.556L8.16 78.023c-.353-1.114-.583-2.305-.723-3.534" opacity=".1"/></g><g clip-path="url(#R)"><path fill="#fff" d="m187.261 80.769-6.124-5.567c-3.88-3.561-9.403-8.667-15.961-14.864-3.283-3.094-6.841-6.447-10.566-10.028-3.734-3.574-7.686-7.33-11.722-11.266l-.381-.369-.146-.138-.198-.176-.795-.707c-.531-.463-1.062-.977-1.604-1.361l-1.619-1.245c-.546-.414-1.152-.799-1.728-1.203-2.324-1.609-4.821-3.044-7.361-4.411-2.562-1.325-5.219-2.501-7.914-3.372l-8.625-2.604-17.146-5.305a780 780 0 0 1-8.395-2.631c-2.888-.998-5.16-1.534-7.877-1.421-5.245.162-10.465 1.958-14.076 5.054l-10.439 10.06a1485 1485 0 0 1-15.81 15.024l-6.068 5.628s8.036-8.969 20.428-22.088l4.83-5.119 2.558-2.685 1.311-1.371c.432-.458.878-.924 1.407-1.414 4.141-3.769 9.767-5.913 15.754-6.218 1.517-.067 2.999-.02 4.612.262.886.13 1.404.294 2.258.51l2.081.613c2.786.813 5.6 1.651 8.431 2.514l17.181 5.19 8.606 2.664c3.003.99 5.803 2.264 8.49 3.675 2.669 1.44 5.243 2.988 7.652 4.738.604.441 1.212.846 1.805 1.314l1.767 1.422c.612.467 1.097.961 1.626 1.442l.78.723.194.18.234.229.372.376c3.978 3.997 7.773 7.909 11.386 11.606 3.619 3.689 7.008 7.212 10.136 10.463a1482 1482 0 0 1 15.026 15.808z" opacity=".8"/></g><g clip-path="url(#R)"><path fill="#fff" d="m54.342 142.385 2.066 1.688c1.33 1.118 3.317 2.721 5.772 4.835 2.465 2.104 5.479 4.64 8.858 7.625 3.398 2.967 7.234 6.313 11.361 10.021 8.267 7.402 17.797 16.154 27.872 25.669l7.649 7.267a984 984 0 0 1 7.793 7.492l7.875 7.655 1.97 1.937.986.969.247.243c.167.157-.159-.147-.102-.096l.064.058.13.115.518.459.129.115c.035.028.048.027.071.043l.125.074c.085.053.15.108.241.172.255.122.479.301.744.403a6.8 6.8 0 0 0 1.606.543c2.236.501 4.697-.133 6.343-1.687l7.673-7.587c2.58-2.563 5.155-5.09 7.715-7.572l7.573-7.347c9.977-9.618 19.419-18.466 27.61-25.95 4.091-3.748 7.891-7.134 11.261-10.133 3.351-3.019 6.338-5.585 8.783-7.712 2.436-2.138 4.406-3.761 5.726-4.892l2.05-1.707-1.687 2.066c-1.117 1.331-2.72 3.318-4.832 5.775-2.103 2.468-4.639 5.48-7.623 8.861a1007 1007 0 0 1-10.018 11.363c-7.402 8.269-16.153 17.8-25.669 27.872l-7.269 7.647a919 919 0 0 1-7.494 7.791l-3.81 3.933-1.917 1.973-.966.982c-.327.33-.594.621-1.121 1.098-3.715 3.527-9.209 5.008-14.193 3.909a15.7 15.7 0 0 1-3.617-1.256c-.585-.262-1.122-.62-1.676-.94-.291-.194-.593-.419-.884-.635l-.436-.332-.206-.163-.129-.115-.514-.464-.419-.387-.245-.244-.979-.977-1.956-1.95-7.735-7.797a967 967 0 0 1-7.57-7.716l-7.345-7.575c-9.617-9.978-18.464-19.419-25.95-27.61-3.75-4.089-7.134-7.891-10.135-11.259-3.02-3.349-5.586-6.336-7.715-8.78-2.139-2.434-3.761-4.405-4.893-5.723z" opacity=".2"/></g><g clip-path="url(#R)"><path d="M67.375 52.718c7.197 0 13.033 5.835 13.033 13.033s-5.835 13.033-13.033 13.033-13.033-5.835-13.033-13.033 5.835-13.033 13.033-13.033m0-10.664c-13.066 0-23.696 10.63-23.696 23.696s10.63 23.696 23.696 23.696 23.696-10.63 23.696-23.696-10.63-23.696-23.696-23.696" opacity=".1"/></g><g clip-path="url(#R)"><path d="M67.375 58.049c7.197 0 13.033 5.835 13.033 13.033s-5.835 13.033-13.033 13.033-13.033-5.835-13.033-13.033 5.835-13.033 13.033-13.033m0-8.886c-12.086 0-21.919 9.833-21.919 21.919s9.833 21.919 21.919 21.919 21.919-9.834 21.919-21.919c-.001-12.086-9.834-21.919-21.919-21.919" opacity=".3"/><path fill="url(#V)" d="M67.375 52.718c7.197 0 13.033 5.835 13.033 13.033s-5.835 13.033-13.033 13.033-13.033-5.835-13.033-13.033 5.835-13.033 13.033-13.033m0-8.886c-12.086 0-21.919 9.833-21.919 21.919S55.289 87.67 67.375 87.67s21.919-9.834 21.919-21.919c-.001-12.086-9.834-21.919-21.919-21.919" style="fill:url(#V)"/></g><g clip-path="url(#R)"><path fill="#e9e6dd" d="M67.375 55.888c5.447 0 9.862 4.416 9.862 9.862s-4.415 9.863-9.862 9.863-9.863-4.417-9.863-9.863 4.415-9.862 9.863-9.862m0-6.724c-9.146 0-16.587 7.441-16.587 16.587 0 9.145 7.441 16.587 16.587 16.587s16.587-7.442 16.587-16.587c-.001-9.146-7.442-16.587-16.587-16.587"/><path fill="url(#W)" d="M67.375 55.888c5.447 0 9.862 4.416 9.862 9.862s-4.415 9.863-9.862 9.863-9.863-4.417-9.863-9.863 4.415-9.862 9.863-9.862m0-6.724c-9.146 0-16.587 7.441-16.587 16.587 0 9.145 7.441 16.587 16.587 16.587s16.587-7.442 16.587-16.587c-.001-9.146-7.442-16.587-16.587-16.587" style="fill:url(#W)"/></g><path fill="none" stroke="#231f20" stroke-linecap="round" stroke-opacity=".3" stroke-width="5.332" d="M69.43 72.868c-49.763 33.546-41.451 138.446-6.351 143.035" clip-path="url(#R)"/><g clip-path="url(#R)"><path fill="#fff" d="m83.961 65.75-.078-.582c-.067-.375-.085-.948-.265-1.63l-.26-1.13-.42-1.301c-.158-.459-.39-.925-.597-1.425-.223-.494-.52-.983-.792-1.507-.633-1.001-1.37-2.05-2.313-3.012-.902-.999-2.045-1.852-3.253-2.651-1.227-.79-2.628-1.351-4.069-1.818-1.44-.427-3.045-.614-4.496-.645-1.691.037-3.095.218-4.585.646-1.44.47-2.842 1.028-4.068 1.819-1.209.799-2.351 1.652-3.253 2.65-.942.961-1.678 2.011-2.312 3.011-.272.524-.569 1.013-.792 1.507-.207.5-.439.965-.598 1.424l-.42 1.301-.261 1.135c-.18.688-.198 1.247-.266 1.624l-.078.583-.019-.586c.01-.381-.083-.953.011-1.667l.107-1.193.273-1.39c.11-.495.294-1.003.454-1.553.176-.544.449-1.083.688-1.666.293-.555.598-1.141.959-1.718.393-.555.768-1.16 1.262-1.694.909-1.139 2.08-2.163 3.387-3.077 1.318-.905 2.824-1.631 4.427-2.151 1.585-.495 3.428-.738 4.992-.777 1.804.046 3.447.283 5.082.777 1.602.523 3.108 1.247 4.426 2.152 1.307.914 2.477 1.939 3.386 3.077.494.535.87 1.139 1.262 1.695.361.577.666 1.163.959 1.717.239.583.513 1.121.688 1.666.16.55.344 1.058.454 1.553l.273 1.39.108 1.199c.094.719.001 1.277.011 1.661-.007.382-.014.586-.014.586" opacity=".6"/></g></g><path fill="#231f20" d="M15.244 29.829c-.121 1.317-.52 3.423-1.805 4.577-.605.543-1.336.817-2.179.817q-.269 0-.551-.037c-1.161-.152-1.958-1.01-2.305-2.483-1.038-4.4 2.044-12.946 6.987-16.278a.345.345 0 0 1 .385.572c-4.937 3.328-7.587 11.79-6.7 15.548.279 1.185.859 1.843 1.722 1.956.88.115 1.594-.083 2.18-.607 1.308-1.174 1.567-3.643 1.617-4.708"/></svg>