<svg xmlns="http://www.w3.org/2000/svg" width="48" height="48"><g transform="translate(-2 -2)"><rect width="42" height="42" x="5" y="5" fill="#f0f0f0" rx="21" ry="21" style="stroke-width:.777778"/><path fill="#f49a2a" fill-rule="evenodd" d="M22.957 13.826A12.147 12.147 0 0 0 10.783 26a12.146 12.146 0 0 0 12.174 12.174c.344 0 .673-.036 1.014-.064-6.261-.52-11.16-5.715-11.16-12.11 0-6.402 4.899-11.597 11.16-12.112-.34-.03-.67-.066-1.014-.066" style="stroke-width:.777778"/><path d="M27.857 13.828a12.174 12.174 0 0 0-11.613 9.128h4.267a8.12 8.12 0 0 1 7.518-5.072 8.12 8.12 0 0 1 6.558 3.35l3.291-2.39a12.17 12.17 0 0 0-10.022-5.016Zm.202 6.085a6.3 6.3 0 0 0-1.829.297 6.18 6.18 0 0 0-3.448 2.746h5.247a3.04 3.04 0 0 1 2.515 1.334l2.62-1.869a6.25 6.25 0 0 0-5.105-2.508M16.032 23.97q-.082.504-.121 1.014h4.074q.066-.513.198-1.014Zm6.269 0q-.18.496-.27 1.014h3.134c.132-.373.336-.718.602-1.014zm10.8 0v1.014h-1.014v2.03H33.1v1.014h2.03v-1.015h1.014v-2.029H35.13V23.97Zm5.073 0v1.014H37.16v2.03h1.014v1.014h2.029v-1.015h1.014v-2.029h-1.014V23.97Zm-22.267 3.043q.045.51.132 1.015h4.138a8 8 0 0 1-.19-1.015Zm6.129 0q.09.52.269 1.015h3.46a3 3 0 0 1-.603-1.015zm8.51.698a3.04 3.04 0 0 1-2.517 1.332h-5.25a6.18 6.18 0 0 0 3.451 2.745c2.556.815 5.356-.078 6.935-2.211Zm-14.288 1.332a12.17 12.17 0 0 0 8.01 8.533 12.175 12.175 0 0 0 13.612-4.423l-3.29-2.39a8.12 8.12 0 0 1-6.56 3.352 8.12 8.12 0 0 1-7.52-5.073Z" style="stroke-width:.777778;paint-order:normal;fill:#bc5fd3"/></g></svg>