<svg xmlns="http://www.w3.org/2000/svg" width="48" height="48"><path d="M24 3.737A21 20.632 0 0 0 3 24.368 21 20.632 0 0 0 24 45a21 20.632 0 0 0 21-20.632A21 20.632 0 0 0 24 3.737" style="opacity:.2;stroke-width:.743396"/><path d="M24 3A21 20.632 0 0 0 3 23.632a21 20.632 0 0 0 21 20.631 21 20.632 0 0 0 21-20.631A21 20.632 0 0 0 24 3" style="fill:#2c324d;stroke-width:.743396;fill-opacity:1"/><path d="M24.803 8.16a2.25 2.21 0 0 0-.158 0 2.25 2.21 0 0 0-1.843 1.103 2.25 2.21 0 0 0 .823 3.02 2.25 2.21 0 0 0 2.309-.036c.681.726 1.302 1.649 1.842 2.723-2.817.925-5.86 2.456-8.59 4.328-1.752 1.203-3.17 2.713-4.275 4.337-.047-.057-.1-.113-.147-.17-2.224-2.779-3.156-5.78-2.367-7.632.41-.96.971-1.375 1.679-1.589.707-.214 1.594-.173 2.464.018 1.74.38 3.322 1.306 3.322 1.306a.75.737 0 1 0 .776-1.262s-1.724-1.036-3.773-1.484a8 8 0 0 0-1.597-.198 5.3 5.3 0 0 0-1.633.211c-1.076.326-2.066 1.123-2.622 2.43-1.143 2.682.161 6.097 2.573 9.11.159.198.336.39.504.584-1.006 1.799-1.638 3.67-1.919 5.382a2.25 2.21 0 0 0-1.671 2.133 2.25 2.21 0 0 0 2.25 2.21 2.25 2.21 0 0 0 2.25-2.21 2.25 2.21 0 0 0-1.317-2.01c.249-1.35.75-2.85 1.513-4.325 2.29 2.255 5.235 4.137 8.454 4.995 1.946.518 3.934.646 5.779.568a17 17 0 0 1-.476 1.716c-.482 1.392-1.12 2.509-1.852 3.232s-1.517 1.072-2.493 1.034c-2.152-.084-3.37-1.052-4.134-2.021-.763-.97-.996-1.891-.996-1.891a.75.737 0 1 0-1.456.351s.304 1.222 1.266 2.442c.961 1.22 2.655 2.49 5.26 2.59 1.402.055 2.654-.515 3.617-1.466.962-.95 1.676-2.263 2.207-3.798.249-.719.455-1.492.624-2.3a26.6 26.6 0 0 0 3.962-.73 2.25 2.21 0 0 0 2.917.58 2.25 2.21 0 0 0 .823-3.02 2.25 2.21 0 0 0-2-1.105 2.25 2.21 0 0 0-1.073.296 2.25 2.21 0 0 0-1.122 1.822c-.898.22-2.008.441-3.234.593.316-2.251.362-4.716.146-7.174-.217-2.466-.727-4.865-1.532-6.961l.064-.017c1.512-.36 2.853-.463 3.838-.295.986.167 1.568.537 1.887 1.191 1.522 3.121-1.008 6.537-1.008 6.537a.75.737 0 0 0 1.201.883s3.129-4.017 1.159-8.056c-.554-1.135-1.686-1.787-2.984-2.008a8.6 8.6 0 0 0-2.095-.072c-.744.058-1.532.192-2.352.388-.1.023-.203.056-.303.082-.656-1.36-1.457-2.545-2.401-3.472a2.25 2.21 0 0 0-1.014-2.599 2.25 2.21 0 0 0-1.072-.295Zm3.584 8.163c.782 1.96 1.323 4.26 1.534 6.656.218 2.487.144 4.986-.2 7.2-1.834.114-3.818.027-5.679-.469-3.039-.81-5.914-2.692-8.078-4.909 1.034-1.62 2.393-3.137 4.08-4.295 2.659-1.824 5.664-3.316 8.343-4.183M24 21.421c-1.647 0-3 1.33-3 2.947 0 1.618 1.353 2.948 3 2.948s3-1.33 3-2.948-1.353-2.947-3-2.947" style="opacity:.2;stroke-width:.743396"/><path d="M35.265 23.013s2.829-3.717 1.083-7.297-10.219-1.02-16.732 3.45c-4.69 3.217-6.948 8.89-6.866 12.57" style="fill:none;stroke:#00b5d9;stroke-width:1.48675;stroke-linecap:round;stroke-opacity:1"/><path d="M18.75 33.21s1.072 4.288 5.828 4.473c4.757.186 6.773-7.726 6.09-15.503-.492-5.599-2.632-10.778-5.918-12.548" style="fill:none;stroke:#00afd1;stroke-width:1.48675;stroke-linecap:round;stroke-opacity:1"/><path d="M20.25 14.2s-6.613-3.923-8.545.612c-1.933 4.535 4.473 12.83 12.141 14.873 5.353 1.427 11.358-.277 12.904-.896" style="fill:none;stroke:#00b4d8;stroke-width:1.48675;stroke-linecap:round;stroke-opacity:1"/><path d="M24 20.684c-1.647 0-3 1.33-3 2.948s1.353 2.947 3 2.947 3-1.33 3-2.947c0-1.618-1.353-2.948-3-2.948" style="fill:#00aed1;stroke-width:.743396;fill-opacity:1"/><path d="M24 3A21 20.632 0 0 0 3 23.632a21 20.632 0 0 0 .016.299A21 20.632 0 0 1 24 3.737a21 20.632 0 0 1 20.984 20.32 21 20.632 0 0 0 .016-.425A21 20.632 0 0 0 24 3" style="opacity:.1;fill:#fff;stroke-width:.743396"/><path d="M24.645 7.424a2.25 2.21 0 0 0-1.843 1.102 2.25 2.21 0 0 0 .823 3.02 2.25 2.21 0 0 0 3.073-.81 2.25 2.21 0 0 0-.823-3.018 2.25 2.21 0 0 0-1.23-.294m12.052 19.155a2.25 2.21 0 0 0-1.072.296 2.25 2.21 0 0 0-.823 3.02 2.25 2.21 0 0 0 3.073.809 2.25 2.21 0 0 0 .823-3.02 2.25 2.21 0 0 0-2-1.105M12.75 29.526a2.25 2.21 0 0 0-2.25 2.21 2.25 2.21 0 0 0 2.25 2.211 2.25 2.21 0 0 0 2.25-2.21 2.25 2.21 0 0 0-2.25-2.21" style="fill:#00b4d8;stroke-width:.743396;fill-opacity:1"/><path d="M24.75 8.895a.75.737 0 0 0-.75.737.75.737 0 0 0 .75.736.75.737 0 0 0 .75-.736.75.737 0 0 0-.75-.737m12 19.158a.75.737 0 0 0-.75.736.75.737 0 0 0 .75.737.75.737 0 0 0 .75-.737.75.737 0 0 0-.75-.736M12.75 31a.75.737 0 0 0-.75.737.75.737 0 0 0 .75.737.75.737 0 0 0 .75-.737.75.737 0 0 0-.75-.737" style="fill:#494c60;stroke-width:.743396"/></svg>