<svg xmlns="http://www.w3.org/2000/svg" width="48" height="48"><defs><linearGradient id="a" x1="389.32" x2="426.695" y1="547.675" y2="499.921" gradientTransform="matrix(1.04996 0 0 1.0499 -452.985 -525.94)" gradientUnits="userSpaceOnUse"><stop stop-color="#18222a" style="stop-color:#5a9cfe;stop-opacity:1"/><stop offset="1" stop-color="#566069" style="stop-color:#975cf6;stop-opacity:1"/></linearGradient></defs><rect width="41.999" height="41.996" x="-44.999" y="3.002" rx="20.999" ry="20.998" style="display:inline;overflow:visible;fill:url(#a);stroke-width:2.93982;stroke-opacity:.55" transform="scale(-1 1)"/><path d="M3.012 23.475C3.008 23.65 3 23.825 3 24a20.953 20.953 0 0 0 20.999 20.998c11.634 0 21-9.365 21-20.998 0-.176-.009-.349-.013-.525a20.95 20.95 0 0 1-20.987 20.473A20.947 20.947 0 0 1 3.012 23.475" style="display:inline;overflow:visible;opacity:.3;fill:#000;fill-opacity:1;stroke-width:2.93982;stroke-opacity:.55"/><path d="M3.012 24.521c-.004-.175-.012-.348-.012-.525A20.953 20.953 0 0 1 23.999 2.998c11.634 0 21 9.365 21 20.998 0 .176-.009.35-.013.525A20.95 20.95 0 0 0 23.999 4.048 20.947 20.947 0 0 0 3.012 24.521" style="display:inline;overflow:visible;opacity:.3;fill:#fff;fill-opacity:1;stroke-width:2.93982;stroke-opacity:.55"/><g transform="matrix(.43625 0 0 .42857 16.362 -1.286)"><rect width="19.252" height="64.174" x="20.062" y="-86.535" rx="4.813" ry="4.813" style="opacity:.2;stroke-width:.982366" transform="rotate(135)"/><rect width="19.252" height="64.174" x="19.365" y="-85.838" rx="4.813" ry="4.813" style="fill:#ccc;stroke-width:.982366" transform="rotate(135)"/><rect width="19.252" height="64.174" x="44.814" y="-2.405" rx="4.813" ry="4.813" style="opacity:.2;stroke-width:.982366" transform="rotate(45)"/><rect width="19.252" height="64.174" x="44.127" y="-3.092" rx="4.813" ry="4.813" style="fill:#e4e4e4;stroke-width:.982366" transform="rotate(45)"/><path d="M1.623 31c-.196 0-.39.033-.583.056l16.466 24.7 16.466-24.702c-.194-.024-.388-.054-.583-.054-1.23 0-2.46.47-3.403 1.413l-12.48 12.48-12.48-12.48A4.8 4.8 0 0 0 1.623 31M17.506 61.257 1.04 85.959c.194.023.387.053.583.053 1.23 0 2.46-.47 3.403-1.412l12.48-12.48 12.48 12.48a4.8 4.8 0 0 0 3.403 1.412c.195 0 .389-.03.583-.053z" style="fill:#9d7ed5;stroke-width:.982366"/><path d="M1.623 31a4.8 4.8 0 0 0-3.404 1.416l-6.803 6.804a4.78 4.78 0 0 0-1.376 3.9 4.77 4.77 0 0 1 1.376-2.918l6.803-6.804a4.8 4.8 0 0 1 6.808 0l12.479 12.48 12.479-12.48a4.804 4.804 0 0 1 6.807 0l6.804 6.804a4.77 4.77 0 0 1 1.376 2.918 4.78 4.78 0 0 0-1.376-3.9l-6.804-6.804a4.804 4.804 0 0 0-6.807 0l-12.48 12.48-12.478-12.48A4.8 4.8 0 0 0 1.623 31m1.29 28.489L-8.585 70.985a4.78 4.78 0 0 0-1.376 3.901 4.77 4.77 0 0 1 1.376-2.918L2.912 60.47l.491.491.492-.491Zm29.186 0-.982.982.491.491.491-.491 11.497 11.497a4.77 4.77 0 0 1 1.376 2.918 4.78 4.78 0 0 0-1.376-3.9z" style="opacity:.1;fill:#fff;stroke-width:.982366"/></g></svg>