<svg xmlns="http://www.w3.org/2000/svg" xmlns:xlink="http://www.w3.org/1999/xlink" width="48" height="48"><defs><linearGradient id="a"><stop offset="0" style="stop-color:#bfbfbf;stop-opacity:1"/><stop offset="1" style="stop-color:#dadada;stop-opacity:1"/></linearGradient><linearGradient xlink:href="#a" id="b" x1="31.509" x2="31.509" y1="60" y2="4.982" gradientUnits="userSpaceOnUse"/></defs><g transform="matrix(.72525 .19423 -.19433 .72488 7.367 -5.316)"><circle cx="31.509" cy="32.491" r="27.509" style="opacity:.2;stroke-width:.98246"/><circle cx="31.509" cy="31.509" r="27.509" style="fill:url(#b);stroke-width:.98246"/><ellipse cx="31.509" cy="31.509" rx="24.561" ry="14.737" style="fill:none;stroke:#1488c4;stroke-width:2.02577"/><ellipse cx="43.042" cy="-11.533" rx="24.561" ry="14.737" style="fill:none;stroke:#1488c4;stroke-width:2.02577" transform="rotate(60)"/><ellipse cx="11.533" cy="43.042" rx="24.561" ry="14.737" style="fill:none;stroke:#1488c4;stroke-width:2.02577" transform="scale(-1 1)rotate(60)"/><path d="M31.509 4A27.51 27.51 0 0 0 4 31.509a28 28 0 0 0 .017.483A27.51 27.51 0 0 1 31.51 4.982a27.51 27.51 0 0 1 27.484 27.01 28 28 0 0 0 .025-.483A27.51 27.51 0 0 0 31.508 4" style="opacity:.2;fill:#fff;stroke-width:.98246"/><path d="M27.579 19.72v3.93c-.483.019-1.372 0-1.834 0h-2.096v1.964s.706-.03.68 0c.904-.014 1.191.64 1.285 1.078v9.729c-.035.277-.005.963-.637.983.03.025-1.328 0-1.328 0v1.964h2.214c.541-.02 1.194 0 1.716 0v3.93l1.965-.034v-3.896h1.934l.061 3.93h1.965l-.061-3.93c3.749-.272 5.925-.72 5.925-4.912 0-2.947-1.966-3.928-4.29-3.93 1.474-.111 2.324-.982 2.325-3.438-.53-2.993-1.263-3.439-3.93-3.439v-3.93H31.51v3.93c-.587 0-1.37-.021-1.965 0v-3.93Zm1.965 5.894c2.77 0 3.93 0 3.93 1.965s-1.436 1.965-3.93 1.965zm0 5.895c3.93 0 5.895 0 5.895 2.947s-1.965 2.948-5.895 2.948z" style="fill:#1488c4;stroke-width:.98246"/></g></svg>