<svg xmlns="http://www.w3.org/2000/svg" width="48" height="48" viewBox="0 0 12.7 12.7"><circle cx="6.349" cy="6.345" r="5.556" style="stroke-width:.777735;paint-order:stroke markers fill;fill:#00b1b1;fill-opacity:1"/><path fill="#fff" d="M5.692 2.234a.494.494 0 1 0 0 .988 2.304 2.304 0 0 1 2.305 2.305.494.494 0 1 0 .987 0 3.29 3.29 0 0 0-3.292-3.293m-.165 1.482a3.29 3.29 0 0 0-3.293 3.292.494.494 0 1 0 .988 0 2.304 2.304 0 0 1 2.305-2.304.494.494 0 1 0 0-.987zM9.97 5.198a.494.494 0 0 0-.493.494 2.304 2.304 0 0 1-2.305 2.304.494.494 0 1 0 0 .988 3.29 3.29 0 0 0 3.292-3.292.494.494 0 0 0-.494-.494M4.21 6.679a.494.494 0 0 0-.494.494 3.29 3.29 0 0 0 3.292 3.292.494.494 0 1 0 0-.987 2.304 2.304 0 0 1-2.304-2.305.494.494 0 0 0-.494-.494" style="stroke-width:.777735"/></svg>