<svg xmlns="http://www.w3.org/2000/svg" width="48" height="48" viewBox="0 0 12.7 12.7"><defs><linearGradient id="a" x1="43.455" x2="43.455" y1="140.15" y2="153.38" gradientTransform="matrix(2.3622 0 0 2.5197 -79.898 -346.48)" gradientUnits="userSpaceOnUse"><stop offset="0" stop-color="#333"/><stop offset="1"/></linearGradient><linearGradient id="d" x1="39.486" x2="39.486" y1="140.15" y2="153.38" gradientTransform="matrix(.8 0 0 .8 7.368 28.666)" gradientUnits="userSpaceOnUse"><stop offset="0" stop-color="#333"/><stop offset="1"/></linearGradient><linearGradient id="e" x1="48.746" x2="48.746" y1="140.15" y2="153.38" gradientTransform="matrix(.8 0 0 .8 5.992 28.666)" gradientUnits="userSpaceOnUse"><stop offset="0" stop-color="#333"/><stop offset="1"/></linearGradient><linearGradient id="c" x1="42.925" x2="42.925" y1="149.41" y2="151.79" gradientTransform="matrix(1 0 0 .77778 0 33.203)" gradientUnits="userSpaceOnUse"><stop offset="0" stop-color="#4d4d4d"/><stop offset="1" stop-color="#1a1a1a"/></linearGradient><linearGradient id="f" x1="41.073" x2="41.073" y1="146.5" y2="147.56" gradientTransform="translate(0 -.265)" gradientUnits="userSpaceOnUse"><stop offset="0" stop-color="#520"/><stop offset="1" stop-color="#2b1100"/></linearGradient><linearGradient id="b" x1="31.836" x2="31.836" y1="33.044" y2="3.251" gradientTransform="matrix(.16659 0 0 .18676 36.659 144.08)" gradientUnits="userSpaceOnUse"><stop offset="0" stop-color="#2ca0b9"/><stop offset="1" stop-color="#87deaa"/></linearGradient></defs><path fill="url(#a)" d="M7 8c-1.8 0-3 1.203-3 3v26c0 1.798 1.208 3 3 3h34c1.088 0 3-1.2 3-3V11c0-1.8-1.205-3-3-3zm8 12a3 3 0 1 1 0 6 3 3 0 0 1 0-6m18 0a3 3 0 1 1 0 6 3 3 0 0 1 0-6" style="paint-order:markers fill stroke" transform="scale(.26458)"/><path fill="url(#b)" d="M37.492 145.22v4.498c0 .264.265.53.53.53h7.937c.264 0 .529-.264.529-.53v-4.498c0-.264-.264-.53-.53-.53h-7.937c-.265 0-.529.264-.529.53m2.117 1.852a.794.794 0 1 1 0 1.588.794.794 0 0 1 0-1.588m4.762 0a.794.794 0 1 1 0 1.588.794.794 0 0 1 0-1.588" style="paint-order:markers fill stroke" transform="translate(-35.64 -141.774)"/><g transform="translate(-35.517 -140.68)"><path fill="url(#c)" d="m37.369 151.27 1.058-1.852h6.88l1.058 1.852z"/><circle cx="39.486" cy="150.21" r=".529" fill="url(#d)" style="paint-order:markers fill stroke"/><circle cx="44.248" cy="150.21" r=".529" fill="url(#e)" style="paint-order:markers fill stroke"/></g><path d="M39.486 145.71c-.582 0-1.058.477-1.058 1.058a1.06 1.06 0 0 0 1.058 1.058h4.763c.58 0 1.058-.476 1.058-1.057v-.002c0-.581-.478-1.058-1.058-1.058zm0 .264a.794.794 0 1 1 0 1.587.794.794 0 0 1 0-1.587m4.763 0a.794.794 0 1 1 0 1.587.794.794 0 0 1 0-1.587" style="paint-order:markers fill stroke" transform="translate(-35.517 -140.68)"/><path fill="#dbe2e3" d="M40.544 146.24h2.646v1.058h-2.646z" style="paint-order:markers fill stroke" transform="translate(-35.517 -140.68)"/><path fill="url(#f)" d="M40.544 146.24v1.058h.966a1.6 1.6 0 0 0 .092-.529 1.6 1.6 0 0 0-.092-.529z" style="paint-order:markers fill stroke" transform="translate(-35.517 -140.68)"/></svg>