<svg xmlns="http://www.w3.org/2000/svg" width="32" height="32" fill="none"><style id="current-color-scheme" type="text/css">.ColorScheme-Text{color:#fcfcfc}</style><path fill="currentColor" fill-rule="evenodd" d="M4 10q0-.156.015-.307A3 3 0 0 1 7 7h18a3 3 0 0 1 3 3v12a3 3 0 0 1-3 3H7a3 3 0 0 1-3-3zm1.01-.204A2 2 0 0 1 7 8h18a2 2 0 0 1 2 2v9a2 2 0 0 1-2 2H7a2 2 0 0 1-2-2v-9q0-.104.01-.204M27 21.236V22a2 2 0 0 1-2 2H7a2 2 0 0 1-2-2v-.764A3 3 0 0 0 7 22h18c.768 0 1.47-.289 2-.764" class="ColorScheme-Text" clip-rule="evenodd"/><path fill="currentColor" fill-rule="evenodd" d="M11.5 12a2.5 2.5 0 0 0 0 5h9a2.5 2.5 0 0 0 0-5zM10 14.5a1.5 1.5 0 1 1 3 0 1.5 1.5 0 0 1-3 0m9 0a1.5 1.5 0 1 1 3 0 1.5 1.5 0 0 1-3 0" class="ColorScheme-Text" clip-rule="evenodd"/></svg>