<svg xmlns="http://www.w3.org/2000/svg" xmlns:xlink="http://www.w3.org/1999/xlink" width="48" height="48"><defs><linearGradient id="a"><stop offset="0" style="stop-color:#6e3a84;stop-opacity:1"/><stop offset="1" style="stop-color:#a75ec4;stop-opacity:1"/></linearGradient><linearGradient xlink:href="#a" id="d" x1="24" x2="24" y1="1048.362" y2="1008.362" gradientUnits="userSpaceOnUse"/><linearGradient xlink:href="#a" id="e" x1="24" x2="24" y1="1048.362" y2="1008.362" gradientUnits="userSpaceOnUse"/><linearGradient id="c"><stop offset="0" style="stop-color:#dde0e2;stop-opacity:1"/><stop offset="1" style="stop-color:#fcfcfc;stop-opacity:1"/></linearGradient><linearGradient xlink:href="#b" id="f" x1="24.442" x2="44.604" y1="1026.197" y2="1046.358" gradientTransform="translate(-1.037 -1003.34)" gradientUnits="userSpaceOnUse"/><linearGradient id="b"><stop offset="0" style="stop-color:#000;stop-opacity:1"/><stop offset="1" style="stop-color:#9b59b6;stop-opacity:0"/></linearGradient><linearGradient xlink:href="#c" id="g" x1="23.771" x2="23.771" y1="1049.43" y2="1016.893" gradientTransform="translate(-4.465 -145.771)scale(1.14175)" gradientUnits="userSpaceOnUse"/></defs><g transform="translate(0 -1004.362)"><circle cx="24" cy="1028.362" r="0" style="opacity:1;fill:url(#d);fill-opacity:1;stroke:none;stroke-width:2;stroke-miterlimit:4;stroke-dasharray:none;stroke-opacity:1"/><circle cx="24" cy="1028.362" r="20" style="opacity:1;fill:url(#e);fill-opacity:1;stroke:none;stroke-width:2;stroke-miterlimit:4;stroke-dasharray:none;stroke-opacity:1"/><path d="M43.979 1027.78A20 20 0 0 1 24 1047.362a20 20 0 0 1-19.979-19.418 20 20 0 0 0-.021.418 20 20 0 0 0 20 20 20 20 0 0 0 20-20 20 20 0 0 0-.021-.582" style="opacity:.3;fill:#000;fill-opacity:1;stroke:none;stroke-width:2;stroke-miterlimit:4;stroke-dasharray:none;stroke-opacity:1"/><path d="M30.65 15.24c-4.39-1.077-7.959-1.22-9.968.406l1.5 3.97 4.437 4.062-7.406.75-4.219 1.718 1.377 3.399-3.488-.098-2.518-.113 2.213 2.348 12.287 12.287C35.56 43.506 43.993 34.704 44 24a20 20 0 0 0-.547-4.54l-7.303-7.302c-.92-.436-4.098 2.169-5.5 3.082M10.266 29.33l.006.01v-.01z" style="opacity:.2;fill:url(#f);fill-opacity:1;stroke:none;stroke-width:2;stroke-miterlimit:4;stroke-dasharray:none;stroke-opacity:1" transform="translate(0 1004.362)"/><path d="M14.682 1037.252c-1.726-1.013-2.565-1.622-3.488-2.534-1.11-1.097-1.612-1.938-1.757-2.948-.2-1.387.764-2.817 2.456-3.64 3.316-1.617 7.808-1.97 12.117-.954.912.216.882.148-.22-.503-1.453-.858-3.697-2.63-5.002-3.948-1.547-1.564-2.506-3.217-2.506-4.265 0-.691.341-1.425 1.144-1.867 1.88-1.034 8.475.707 12.89.954 1.4.072 2.335.084 2.331-.726-.003-.694-1.857-1.074-2.754-1.01.787-.264 1.542-.401 2.552-.423 2.018-.043 2.425.217 2.837.409.829.388 1.581 1.278 1.547 2.412-.111 3.654-4.47 2.028-7.371 1.503-3.2-.579-5.948-1.053-6.877.04-2.195 2.579 5.482 7.638 7.852 9.437-1.979.15-12.551-.946-14.008 2.756-.514 1.681 2.312 3.475 4.95 4.385 2.145.707 4.755 1.508 7.996 1.72 2.936.193 4.44-.226 4.163-2.452 2.333 1.206 2.181 3.609.666 4.668-2.455 1.715-9.805.25-10.249.159-3.578-.741-6.936-1.817-9.27-3.174z" style="fill:url(#g);fill-opacity:1"/></g></svg>