<svg xmlns="http://www.w3.org/2000/svg" xmlns:xlink="http://www.w3.org/1999/xlink" xml:space="preserve" width="48" height="48"><defs><linearGradient id="c"><stop offset="0" style="stop-color:#aa87de;stop-opacity:1"/><stop offset="1" style="stop-color:#3485fd;stop-opacity:1"/></linearGradient><linearGradient xlink:href="#c" id="d" x1="24" x2="24" y1="45" y2="3" gradientUnits="userSpaceOnUse"/></defs><circle cx="24" cy="24" r="21" opacity=".99" style="fill:url(#d);fill-opacity:1;stroke-width:1.58695"/><path d="m11.006 15.76-5 5.1v18.36l5 5.1h17l-6-6.12h-11v-5.1h11v-6.12h-11v-5.1h11l6-6.12zm22 0-5 5.1V28l5 5.1h12v5.1h-17l6 6.12h11l5-5.1v-7.14l-5-5.1h-12v-5.1h11l6-6.12z" style="opacity:.2;stroke-width:1.00993" transform="matrix(.75 0 0 .74378 2.995 2.536)"/><path d="m11.006 14.74-5 5.1V38.2l5 5.1h17l-6-6.12h-11v-5.1h11v-6.12h-11v-5.1h11l6-6.12zm22 0-5 5.1v7.14l5 5.1h12v5.1h-17l6 6.12h11l5-5.1v-7.14l-5-5.1h-12v-5.1h11l6-6.12z" style="fill:#fff;stroke-width:1.00993" transform="matrix(.75 0 0 .74378 2.995 2.536)"/></svg>