<svg xmlns="http://www.w3.org/2000/svg" width="48" height="48" viewBox="0 0 12.7 12.7"><rect width="11.112" height="11.112" x="-11.906" y="-11.906" fill="#4c627f" rx="5.556" ry="5.556" style="stroke-width:.77779" transform="scale(1 -1)rotate(90)"/><rect width="9.055" height="9.055" x="-10.872" y="-10.878" rx="4.528" ry="4.528" style="fill:#303a49;fill-opacity:1;opacity:1" transform="scale(1 -1)rotate(90)"/><g style="fill:#d63384;fill-opacity:1"><path d="M7 13v24h4V27h6v-4h-6v-6h6v-4h-6zm12 0v24h10v-4h-6v-6h6v-4h-6v-6h6v-4h-6zm12 0v24h4V27h2v10h4V13h-4v10h-2V13Z" style="opacity:.2;fill:#d63384;fill-opacity:1" transform="matrix(.20232 0 0 .20108 1.494 1.423)"/><path d="M7 12h4v24H7z" style="fill:#d63384;fill-opacity:1" transform="matrix(.20232 0 0 .20108 1.494 1.423)"/><path d="M12-17h4v10h-4zM22-17h4v10h-4z" style="fill:#d63384;fill-opacity:1" transform="matrix(0 .20108 -.20232 0 1.494 1.423)"/><path d="M19 12h4v24h-4z" style="fill:#d63384;fill-opacity:1" transform="matrix(.20232 0 0 .20108 1.494 1.423)"/><path d="M12-29h4v10h-4zM22-29h4v10h-4z" style="fill:#d63384;fill-opacity:1" transform="matrix(0 .20108 -.20232 0 1.494 1.423)"/><path d="M31 12h4v24h-4z" style="fill:#d63384;fill-opacity:1" transform="matrix(.20232 0 0 .20108 1.494 1.423)"/><path d="M22-41h4v10h-4zM32-29h4v10h-4z" style="fill:#d63384;fill-opacity:1" transform="matrix(0 .20108 -.20232 0 1.494 1.423)"/><path d="M37 12h4v24h-4z" style="fill:#d63384;fill-opacity:1" transform="matrix(.20232 0 0 .20108 1.494 1.423)"/><path d="M7 12v1h10v-1h-6zm12 0v1h10v-1h-6zm12 0v1h4v-1zm6 0v1h4v-1ZM11 22v1h6v-1zm12 0v1h6v-1zm12 0v1h2v-1ZM23 32v1h6v-1z" style="opacity:.1;fill:#d63384;fill-opacity:1" transform="matrix(.20232 0 0 .20108 1.494 1.423)"/></g></svg>