<svg xmlns="http://www.w3.org/2000/svg" xmlns:xlink="http://www.w3.org/1999/xlink" width="48" height="48"><defs><linearGradient id="e"><stop offset="0" style="stop-color:#000;stop-opacity:1"/><stop offset="1" style="stop-color:#000;stop-opacity:0"/></linearGradient><linearGradient id="d"><stop offset="0" style="stop-color:#000;stop-opacity:1"/><stop offset="1" style="stop-color:#000;stop-opacity:0"/></linearGradient><linearGradient id="c"><stop offset="0" style="stop-color:#c81c1c;stop-opacity:1"/><stop offset="1" style="stop-color:#ee6d6d;stop-opacity:1"/></linearGradient><linearGradient id="b"><stop offset="0" style="stop-color:#37e737;stop-opacity:1"/><stop offset="1" style="stop-color:#83f383;stop-opacity:1"/></linearGradient><linearGradient id="a" x1="1" x2="47" gradientTransform="rotate(-90 24 24)" gradientUnits="userSpaceOnUse"><stop style="stop-color:#3d3d3d;stop-opacity:1"/><stop offset="1" style="stop-color:#6f6f6f;stop-opacity:1"/></linearGradient><linearGradient xlink:href="#a" id="f" x1="412.88" x2="401.325" y1="543.798" y2="503.798" gradientTransform="translate(0 -.062)" gradientUnits="userSpaceOnUse"/><linearGradient xlink:href="#b" id="j" x1="16.351" x2="13.534" y1="33.59" y2="8.515" gradientUnits="userSpaceOnUse"/><linearGradient xlink:href="#c" id="h" x1="34.038" x2="29.516" y1="36.018" y2="12.147" gradientUnits="userSpaceOnUse"/><linearGradient xlink:href="#d" id="g" x1="25" x2="39" y1="23" y2="37" gradientUnits="userSpaceOnUse"/><linearGradient xlink:href="#e" id="i" x1="10.523" x2="17.889" y1="16.232" y2="19.736" gradientUnits="userSpaceOnUse"/></defs><g transform="translate(-384.571 -499.798)"><rect width="40" height="40" x="388.61" y="503.77" rx="20" style="fill:url(#f);fill-opacity:1;stroke-width:2.79999995;stroke-opacity:.55026502"/><path d="M388.675 523.336c-.004.167-.012.333-.012.5 0 11.08 8.92 20 20 20s20-8.92 20-20c0-.167-.008-.333-.012-.5a19.95 19.95 0 0 1-19.988 19.5 19.95 19.95 0 0 1-19.988-19.5" style="fill:#000;fill-opacity:1;stroke-width:2.79999995;stroke-opacity:.55026502;opacity:.15"/><path d="m31.424 13.564 2.139 2.862 1.843 4.42-1.478 4.314-2.38-1.404-6.497-.23 5.592 5.591-5.356 3.987-3.584 3.148 7.127 7.127c8.09-1.98 14.224-8.833 15.098-17.31z" style="opacity:.2;fill:url(#g);fill-opacity:1;stroke:none;stroke-width:4;stroke-linecap:round;stroke-linejoin:round;stroke-miterlimit:4;stroke-dasharray:none;stroke-opacity:1" transform="translate(384.571 499.798)"/><path d="M30.617 12.887c5.95 7.599 5.383 10.539-5.566 10.629C38.414 25.672 26.805 30.977 21 32l.691 4.281c11.152-2.178 22.946-11.582 8.926-23.394" style="fill:url(#h);fill-opacity:1;fill-rule:nonzero;stroke:none" transform="translate(384.571 499.798)"/><path d="M25 10c-8.805 2.281-23.213 11.893-9 24-6-8-4.949-10.906 6-11-13.363-2.152-1.801-7.977 4-9Z" style="fill:none;fill-opacity:1;fill-rule:nonzero;stroke:url(#i);stroke-opacity:1;stroke-width:2;stroke-miterlimit:4;stroke-dasharray:none;stroke-linejoin:round;opacity:.15" transform="translate(384.571 499.798)"/><path d="M25 10c-8.805 2.281-23.213 11.893-9 24-6-8-4.949-10.906 6-11-13.363-2.152-1.801-7.977 4-9Z" style="fill:url(#j);fill-opacity:1;fill-rule:nonzero;stroke:none" transform="translate(384.571 499.798)"/></g></svg>