<svg xmlns="http://www.w3.org/2000/svg" xmlns:xlink="http://www.w3.org/1999/xlink" width="48" height="48"><defs><linearGradient id="d" x2="0" y1="32" y2="16" gradientTransform="translate(0 5)" gradientUnits="userSpaceOnUse"><stop stop-color="#f7abb2"/><stop offset="1" stop-color="#f9dce0"/></linearGradient><linearGradient id="c" x1="18" x2="33" y1="17" y2="32" gradientTransform="translate(0 5)" gradientUnits="userSpaceOnUse"><stop stop-color="#383e51"/><stop offset="1" stop-color="#655c6f" stop-opacity="0"/></linearGradient><linearGradient id="a" x2="0" y1="543.8" y2="509.8" gradientTransform="matrix(-1 0 0 1 372.57 -499.8)" gradientUnits="userSpaceOnUse"><stop stop-color="#c61423"/><stop offset="1" stop-color="#dc2b41"/></linearGradient><linearGradient xlink:href="#a" id="b" x2="0" y1="543.8" y2="509.8" gradientTransform="matrix(-1 0 0 1 432.571 -499.8)" gradientUnits="userSpaceOnUse"><stop stop-color="#c61423"/><stop offset="1" stop-color="#dc2b41"/></linearGradient></defs><path d="M43.571 4a4.42 4.42 0 0 1 4.43 4.43v5.571h-48v-1.987l.016.02c0-.015-.016-.023-.016-.037C.001 10.89.891 10 1.997 10h15.004l6-6H41.69Z" style="fill:#a8202e"/><path d="M48.001 14v12.922l-.03.002v10.284c0 .114-.028.219-.032.33v.033a6.258 6.04 0 0 1-6.256 6.055H6.303c-.054 0-.097-.03-.152-.032a6.237 6.02 0 0 1-6.12-6.023v-9.223H0V14.001Z" style="fill:url(#b)"/><path d="M45.628 4.57c.386.207.772.419 1.078.725a4.42 4.42 0 0 1 1.295 3.135V14h-48v-1.986l.016.02c0-.015-.016-.023-.016-.037a1.99 1.99 0 0 1 1.996-1.996h21.004z" style="fill:#5f5f5f;fill-opacity:.11799999;fill-rule:evenodd"/><path d="M43.571 4c.313 0 .587.117.881.178L28.001 5l-11 6-15.252-.896c.093-.013.15-.103.248-.103h15.004l6-6z" style="fill:#fff;fill-opacity:.05899999;fill-rule:evenodd"/><path d="M46.268 41.624c-.063.066-.09.162-.156.225a6.263 6.045 0 0 1-4.43 1.774H6.304c-.054 0-.1-.026-.153-.028a6.258 6.04 0 0 1-4.336-1.801c-.06-.062-.088-.148-.147-.212Z" overflow="visible" style="color:#000;overflow:visible;isolation:auto;mix-blend-mode:normal;fill:#a8202e;marker:none"/><path d="M0 14h48v1H0Z" style="fill:#bc2233"/><path d="m30 21-9 3-1 5-4 6 9.34 8.524 20.928-1.9 1.596-3.032L41 32Z" style="opacity:.2;fill:url(#c);fill-rule:evenodd"/><path d="m19 21-3 14h3l1.301-6h7.365L21 35l2 2c3-2 6 1.6 9-1.4l-.6-2.401-.9.701c-1.359.781-2.475-.098-4.061-.34L31 28.999l1-3H21l.5-2H29l1-3z" style="fill:url(#d);fill-rule:evenodd"/></svg>