<svg xmlns="http://www.w3.org/2000/svg" xmlns:xlink="http://www.w3.org/1999/xlink" width="48" height="48"><defs><linearGradient xlink:href="#a" id="b" x1="388.735" x2="428.408" y1="503.991" y2="543.932" gradientUnits="userSpaceOnUse"/><linearGradient id="a"><stop offset="0" style="stop-color:#3f3f3f;stop-opacity:1"/><stop offset=".11" style="stop-color:#de7d9c;stop-opacity:1"/><stop offset=".449" style="stop-color:#cc3d8a;stop-opacity:1"/><stop offset=".934" style="stop-color:#5f2b76;stop-opacity:1"/><stop offset="1" style="stop-color:#3f3f3f;stop-opacity:0"/></linearGradient></defs><g transform="translate(-384.571 -499.798)"><rect width="40" height="40" x="388.57" y="503.8" rx="20" style="opacity:.9;fill:url(#b);fill-opacity:1;stroke-width:2.79999995;stroke-opacity:.55026502"/><path d="M388.583 523.298c-.004.167-.012.332-.012.5 0 11.08 8.92 20 20 20s20-8.92 20-20c0-.168-.008-.333-.011-.5a19.95 19.95 0 0 1-19.989 19.5 19.95 19.95 0 0 1-19.988-19.5" style="opacity:.15;fill:#000;fill-opacity:1;stroke-width:2.79999995;stroke-opacity:.55026502"/><path d="M23.781 10.387c-2.69-.013-4.996.487-7.093 1.537-.699.35-.807.472-.762.85.092.77.49.844 1.668.316 2.19-.983 3.255-1.192 6.017-1.195 3.17-.003 4.338.268 6.938 1.615.447.23 1.86 1.322 2.389.736.522-.523.246-.955-1.1-1.72-2.655-1.51-4.975-2.125-8.057-2.14M23.7 13.5c-3.549-.003-7.096 1.4-9.697 4.209-1.006 1.087-2.18 2.868-2.18 3.309 0 .513.212.796.596.796.3 0 .607-.324 1.336-1.42 1.63-2.449 3.743-4.074 6.465-4.972 2.11-.69 4.583-.61 6.959 0 3.067 1.008 5.699 3.254 7.14 6.096.314.618.502.806.809.806.53 0 .84-.394.695-.883-.233-.788-1.476-2.7-2.418-3.716C30.8 14.91 27.248 13.503 23.7 13.5m.168 3.092a10.3 10.3 0 0 0-2.29.219c-3.645.761-6.692 3.713-7.667 7.427-.517 1.971-.28 5.19.574 7.766.256.77.379.93.745.973.84.097.923-.303.42-2.043-1.44-4.98-.2-9.218 3.37-11.528 3.531-2.284 8.388-1.608 11.15 1.551 1.733 1.98 2.682 5.328 1.927 6.79-.5.964-1.715 1.545-2.713 1.294-.73-.183-1.595-1.08-1.705-1.768-.39-2.427-.942-3.377-2.338-4.027-1.19-.554-2.183-.539-3.352.053-1.088.551-1.923 1.664-2.092 2.79-.06.407-.034 1.285.061 1.952.59 4.153 3.56 7.439 7.64 8.45a8.2 8.2 0 0 0 1.866.198l.933-.03c.528-.268.557-.885 0-1.188l-1.32-.201c-1.662-.254-2.35-.473-3.492-1.116-2.484-1.398-4.264-4.43-4.264-7.261 0-1.248.473-1.977 1.575-2.434.796-.33.807-.33 1.603 0 1.007.418 1.492 1.116 1.617 2.326.23 2.22 1.77 3.682 3.883 3.682 1.696 0 3.123-1.1 3.629-2.797.495-1.66-.17-4.45-1.566-6.57a9.98 9.98 0 0 0-8.194-4.508m-.11 3.217c-1.055.013-2.14.208-3.03.554-1.372.672-2.68 2.014-3.356 3.442-.514 1.086-.545 1.255-.545 3.1 0 2.268.275 3.473 1.252 5.511.842 1.756 2.008 3.287 3.305 4.336 1.124.91 1.243.953 1.71.611.48-.35.213-.951-.755-1.693-1.05-.804-2.183-2.26-2.947-3.785-1.257-2.506-1.573-5.604-.754-7.377.594-1.287 1.5-2.247 2.656-2.815 1.388-.681 3.416-.681 4.805 0 1.657.814 2.716 2.296 3.091 4.328.224 1.214.563 1.617 1.08 1.284.24-.155.292-.412.27-1.336-.054-2.246-1.628-4.502-3.928-5.631-.772-.376-1.797-.543-2.853-.53" style="opacity:1;fill:#fff;fill-opacity:1;fill-rule:nonzero;stroke:none;stroke-width:42.53499985;stroke-miterlimit:4;stroke-dasharray:none;stroke-opacity:1" transform="translate(384.571 499.798)"/><path d="M413.017 533.255c-2.899-.632-5.133-3.186-5.384-6.154-.08-.938-.052-1.062.273-1.236.619-.33.976.017 1.1 1.07.311 2.647 2.257 4.644 4.874 5.002 1.28.175 1.692.667 1.076 1.284-.31.308-.653.315-1.94.034" style="opacity:1;fill:#fff;fill-opacity:1;fill-rule:nonzero;stroke:none;stroke-width:42.53499985;stroke-miterlimit:4;stroke-dasharray:none;stroke-opacity:1"/></g></svg>