<svg xmlns="http://www.w3.org/2000/svg" xmlns:xlink="http://www.w3.org/1999/xlink" width="48" height="48" version="1"><defs><linearGradient id="k"><stop offset="0" style="stop-color:#7f2aff;stop-opacity:1"/><stop offset="1" style="stop-color:#caae00;stop-opacity:1"/></linearGradient><linearGradient id="j"><stop offset="0" style="stop-color:#e72149;stop-opacity:1"/><stop offset=".096" style="stop-color:#fe611d;stop-opacity:1"/><stop offset=".257" style="stop-color:#fe611d;stop-opacity:1"/><stop offset=".795" style="stop-color:#ffe125;stop-opacity:1"/><stop offset=".839" style="stop-color:#ffe125;stop-opacity:1"/><stop offset="1" style="stop-color:#ffe125;stop-opacity:1"/></linearGradient><linearGradient id="i"><stop offset="0" style="stop-color:#b30774;stop-opacity:1"/><stop offset=".235" style="stop-color:#ef3a3b;stop-opacity:1"/><stop offset=".262" style="stop-color:#ef3a3b;stop-opacity:1"/><stop offset=".699" style="stop-color:#ffe125;stop-opacity:1"/><stop offset=".747" style="stop-color:#ffe125;stop-opacity:1"/><stop offset="1" style="stop-color:#ffe125;stop-opacity:1"/></linearGradient><linearGradient id="l" x1="-145.4" x2="-145.58" y1="-167.26" y2="-280.65" gradientTransform="matrix(.04457 0 0 .04538 11.938 21.687)" gradientUnits="userSpaceOnUse"><stop offset="0" stop-color="#f06712"/><stop offset="1" stop-color="#ffb436"/></linearGradient><linearGradient xlink:href="#i" id="m" x1="4.405" x2="14.649" y1="15.562" y2="1.615" gradientUnits="userSpaceOnUse"/><linearGradient xlink:href="#j" id="p" x1="4.133" x2="14.091" y1="12.751" y2="2.038" gradientUnits="userSpaceOnUse"/><linearGradient xlink:href="#k" id="n" x1="6.477" x2="11.112" y1="10.673" y2="6.631" gradientUnits="userSpaceOnUse"/><linearGradient xlink:href="#l" id="o" x1="4.336" x2="6.078" y1="4.571" y2="4.571" gradientUnits="userSpaceOnUse"/></defs><g stroke-width=".185"><path fill="#763ad2" d="M15.093 5.809c-.31-.748-.941-1.555-1.435-1.81a7.4 7.4 0 0 1 .724 2.17l.002.013c-.809-2.016-2.18-2.83-3.3-4.6a9 9 0 0 1-.169-.273 2 2 0 0 1-.079-.148 1.3 1.3 0 0 1-.106-.283.02.02 0 0 0-.017-.019H10.7l-.004.002-.005.003.003-.006c-1.796 1.052-2.406 3-2.462 3.974a3.58 3.58 0 0 0-1.969.758 2 2 0 0 0-.184-.14 3.3 3.3 0 0 1-.02-1.748 5.3 5.3 0 0 0-1.722 1.33h-.003c-.284-.358-.264-1.543-.248-1.79a1.3 1.3 0 0 0-.238.127 5 5 0 0 0-.7.599 6 6 0 0 0-.668.802 6 6 0 0 0-.96 2.167l-.01.047c-.013.063-.061.378-.07.447l-.001.016a7 7 0 0 0-.116.986v.036a7.153 7.153 0 0 0 14.2 1.21q.018-.138.033-.277a7.36 7.36 0 0 0-.464-3.593zm-8.244 5.599q.05.024.1.049l.004.003zm7.535-5.224v-.008l.002.008z" style="fill:url(#m)" transform="matrix(2.84603 0 0 2.84603 -.094 .568)"/><path fill="#806cff" d="M32.97 19.482q.067.046.127.093a11 11 0 0 0-1.89-2.466c-6.328-6.328-1.659-13.72-.871-14.097L30.344 3c-5.114 2.994-6.849 8.536-7.008 11.308.237-.017.473-.036.715-.036a10.27 10.27 0 0 1 8.92 5.209z"/><path fill="#5543c7" d="M8.488 7.09c-.012.178-.64.792-.86.792-2.034 0-2.364 1.23-2.364 1.23.09 1.036.812 1.89 1.685 2.34q.06.031.12.058.105.047.21.086a3.2 3.2 0 0 0 .93.18c3.566.167 4.256-4.263 1.684-5.549a2.47 2.47 0 0 1 1.724.42 3.61 3.61 0 0 0-3.134-1.831q-.126.002-.25.013a3.58 3.58 0 0 0-1.97.758c.11.093.233.216.492.472.485.478 1.73.973 1.733 1.031" style="fill:url(#n)" transform="matrix(2.84603 0 0 2.84603 -.094 .568)"/><path fill="#7857cd" d="M5.93 5.347q.086.056.148.098a3.3 3.3 0 0 1-.02-1.748 5.3 5.3 0 0 0-1.722 1.33c.035 0 1.073-.02 1.594.32" style="fill:url(#o)" transform="matrix(2.84603 0 0 2.84603 -.094 .568)"/><path fill="#8171ff" d="M1.388 8.633c.552 3.261 3.508 5.752 6.864 5.847 3.106.088 5.09-1.715 5.91-3.474a6.48 6.48 0 0 0 .223-4.828v-.014l.001.012c.254 1.657-.589 3.262-1.906 4.347l-.004.01c-2.567 2.09-5.023 1.26-5.52.922l-.104-.052c-1.497-.715-2.115-2.078-1.983-3.248A1.84 1.84 0 0 1 3.175 7.09a2.7 2.7 0 0 1 2.63-.106 3.56 3.56 0 0 0 2.685.106c-.003-.059-1.247-.554-1.733-1.032-.259-.256-.382-.379-.491-.471a2 2 0 0 0-.185-.14l-.147-.098c-.522-.34-1.56-.32-1.594-.32h-.003c-.284-.359-.264-1.544-.248-1.791a1.3 1.3 0 0 0-.238.127 5 5 0 0 0-.7.599 6 6 0 0 0-.67.8 6 6 0 0 0-.96 2.167c-.004.015-.258 1.126-.133 1.702z" style="fill:url(#p)" transform="matrix(2.84603 0 0 2.84603 -.094 .568)"/><path fill="#a685ff" d="M31.206 17.125a11 11 0 0 1 1.891 2.469q.17.127.305.25c4.615 4.254 2.197 10.268 2.017 10.696 3.75-3.089 6.145-7.657 5.425-12.372-2.302-5.74-6.206-8.054-9.393-13.092-.161-.255-.323-.51-.48-.78a6 6 0 0 1-.224-.42 3.7 3.7 0 0 1-.304-.806.053.053 0 0 0-.046-.053.1.1 0 0 0-.038 0c-.003 0-.007.005-.01.005l-.015.008c-.787.373-5.456 7.766.872 14.094z"/><path fill="#bcb9ff" d="M11.768 6.768a2 2 0 0 0-.107-.088l-.045-.033a2.47 2.47 0 0 0-1.724-.419c2.572 1.287 1.882 5.716-1.683 5.549a3.2 3.2 0 0 1-.93-.18q-.106-.039-.21-.086-.062-.026-.122-.057l.005.003c.498.34 2.953 1.169 5.52-.922l.005-.01c.064-.15.913-2.263-.709-3.757z" style="fill:#d7d6ff;fill-opacity:1" transform="matrix(2.84603 0 0 2.84603 -.094 .568)"/><path fill="#bcb9ff" d="M5.264 9.112s.33-1.23 2.364-1.23c.22 0 .849-.614.86-.792a3.56 3.56 0 0 1-2.685-.105 2.7 2.7 0 0 0-2.63.105 1.84 1.84 0 0 0 1.694 1.066c-.132 1.17.486 2.533 1.983 3.248q.048.024.099.049c-.874-.451-1.595-1.305-1.685-2.34z" style="fill:#d5d3ff;fill-opacity:1" transform="matrix(2.84603 0 0 2.84603 -.094 .568)"/></g></svg>