<svg xmlns="http://www.w3.org/2000/svg" width="48" height="48" version="1"><g stroke-width=".185"><path fill="#209af9" d="M42.86 17.1c-.884-2.128-2.678-4.425-4.083-5.152a21.2 21.2 0 0 1 2.061 6.179l.004.034c-2.301-5.738-6.205-8.051-9.392-13.09-.161-.254-.323-.51-.48-.779a6 6 0 0 1-.224-.42 3.7 3.7 0 0 1-.303-.806.053.053 0 0 0-.047-.053.1.1 0 0 0-.038 0c-.003 0-.007.005-.01.005l-.014.007.008-.014c-5.114 2.993-6.849 8.536-7.008 11.308a10.2 10.2 0 0 0-5.602 2.16 6 6 0 0 0-.526-.399 9.44 9.44 0 0 1-.057-4.976 15.1 15.1 0 0 0-4.9 3.787h-.01c-.806-1.02-.75-4.392-.703-5.096a3.6 3.6 0 0 0-.68.36 15 15 0 0 0-1.99 1.705 18 18 0 0 0-1.903 2.283v.003-.003a17.2 17.2 0 0 0-2.73 6.168l-.028.134c-.038.18-.176 1.077-.2 1.271q-.001.023-.005.045a19.4 19.4 0 0 0-.33 2.806v.105a20.357 20.357 0 0 0 40.416 3.443c.034-.263.062-.523.093-.788a20.93 20.93 0 0 0-1.32-10.226zM19.4 33.035c.095.045.184.095.282.138l.014.01q-.148-.07-.296-.147Zm21.445-14.87v-.02l.004.023z"/><path fill="#3bbfff" d="M32.97 19.482q.067.046.127.093a11 11 0 0 0-1.89-2.466c-6.328-6.328-1.659-13.72-.871-14.097L30.344 3c-5.114 2.994-6.849 8.536-7.008 11.308.237-.017.473-.036.715-.036a10.27 10.27 0 0 1 8.92 5.209z"/><path fill="#2a55c4" d="M24.063 20.746C24.029 21.253 22.24 23 21.615 23c-5.789 0-6.728 3.502-6.728 3.502.256 2.949 2.31 5.377 4.794 6.662q.171.087.344.164.299.132.597.245a9 9 0 0 0 2.65.51c10.145.477 12.11-12.132 4.789-15.79a7.03 7.03 0 0 1 4.908 1.191 10.27 10.27 0 0 0-8.92-5.209c-.241 0-.477.02-.715.036a10.2 10.2 0 0 0-5.602 2.16c.31.262.66.613 1.399 1.34 1.381 1.361 4.924 2.771 4.932 2.937z"/><path fill="#1d97f8" d="M16.783 15.786c.165.105.301.196.42.279a9.44 9.44 0 0 1-.057-4.976 15.1 15.1 0 0 0-4.9 3.787c.1-.003 3.052-.056 4.537.91z"/><path fill="#3bbfff" d="M3.857 25.137c1.57 9.283 9.984 16.37 19.535 16.64 8.84.25 14.487-4.88 16.82-9.887a18.44 18.44 0 0 0 .634-13.74v-.019c0-.015-.004-.025 0-.02l.003.034c.722 4.715-1.676 9.283-5.425 12.372l-.011.027c-7.305 5.949-14.296 3.589-15.711 2.626q-.148-.071-.296-.148c-4.26-2.035-6.02-5.916-5.642-9.244a5.23 5.23 0 0 1-4.822-3.033 7.68 7.68 0 0 1 7.484-.3 10.14 10.14 0 0 0 7.643.3c-.008-.166-3.55-1.576-4.932-2.936-.738-.728-1.088-1.078-1.399-1.341a6 6 0 0 0-.525-.398c-.12-.082-.257-.172-.42-.279-1.485-.965-4.438-.912-4.535-.91h-.01c-.807-1.022-.75-4.394-.704-5.098a3.6 3.6 0 0 0-.68.361 15 15 0 0 0-1.989 1.704 18 18 0 0 0-1.91 2.278v.003-.003a17.2 17.2 0 0 0-2.732 6.168c-.01.041-.733 3.203-.376 4.843z"/><path fill="#097cf4" d="M31.206 17.125a11 11 0 0 1 1.891 2.469q.17.127.305.25c4.615 4.254 2.197 10.268 2.017 10.696 3.75-3.089 6.145-7.657 5.425-12.372-2.302-5.74-6.206-8.054-9.393-13.092-.161-.255-.323-.51-.48-.78a6 6 0 0 1-.224-.42 3.7 3.7 0 0 1-.304-.806.053.053 0 0 0-.046-.053.1.1 0 0 0-.038 0c-.003 0-.007.005-.01.005l-.015.008c-.787.373-5.456 7.766.872 14.094z"/><path fill="#1d97f8" d="M33.398 19.829a4 4 0 0 0-.306-.25q-.06-.046-.126-.093a7.03 7.03 0 0 0-4.908-1.192c7.322 3.661 5.357 16.267-4.79 15.792a9 9 0 0 1-2.649-.511q-.299-.112-.597-.245-.173-.078-.344-.164l.014.01c1.415.966 8.404 3.325 15.71-2.626l.013-.027c.182-.425 2.6-6.44-2.017-10.693z"/><path fill="#1d97f8" d="M14.886 26.501S15.826 23 21.615 23c.625 0 2.416-1.746 2.448-2.252a10.14 10.14 0 0 1-7.643-.3 7.68 7.68 0 0 0-7.484.3 5.23 5.23 0 0 0 4.822 3.033c-.377 3.328 1.382 7.209 5.642 9.244.095.046.184.095.282.139-2.486-1.284-4.539-3.713-4.795-6.662z"/></g></svg>