<svg xmlns="http://www.w3.org/2000/svg" xmlns:xlink="http://www.w3.org/1999/xlink" width="48" height="48"><defs><linearGradient id="a"><stop offset="0" style="stop-color:#333b56;stop-opacity:1"/><stop offset="1" style="stop-color:#4c5880;stop-opacity:1"/></linearGradient><linearGradient xlink:href="#a" id="b" x1="31.509" x2="31.509" y1="60" y2="4.982" gradientTransform="matrix(.7508 0 0 .75047 5.739 -7.04)" gradientUnits="userSpaceOnUse"/></defs><ellipse cx="29.396" cy="17.343" rx="20.654" ry="20.645" style="opacity:.2;stroke-width:.737475" transform="rotate(14.993)skewX(-.015)"/><ellipse cx="29.396" cy="16.606" rx="20.654" ry="20.645" style="fill:url(#b);stroke-width:.737475" transform="rotate(14.993)skewX(-.015)"/><path d="M29.441 3.703A20.644 20.655 90 0 0 4.145 18.301a20.644 20.655 90 0 0-.082.354A20.644 20.655 90 0 1 29.25 4.415a20.644 20.655 90 0 1 14.684 24.918 20.644 20.655 90 0 0 .112-.346A20.644 20.655 90 0 0 29.441 3.703" style="opacity:.2;fill:#fff;stroke-width:.737475"/><path d="M23 56 12 66.121v2.928L23 78v-4.893l-7.576-5.73L23 60.893Zm3 0v4.893l7.576 6.484L26 73.107V78l11-8.951V66.12zm25 0L40 66.121v2.928L51 78v-4.893l-7.576-5.73L51 60.893Z" style="opacity:.2" transform="matrix(.91026 0 0 .91304 -5.423 -36.717)"/><path d="m23 77-11-8.95v-2.928L23 55v4.894l-7.575 6.482L23 72.106Z" style="fill:#dc3545" transform="matrix(.91026 0 0 .91304 -5.423 -36.717)"/><path d="m26 72.106 7.575-5.73L26 59.894V55l11 10.122v2.927L26 77Z" style="fill:#8660cb" transform="matrix(.91026 0 0 .91304 -5.423 -36.717)"/><path d="m51 77-11-8.95v-2.928L51 55v4.894l-7.575 6.482L51 72.106Z" style="fill:#ffe71a;fill-opacity:1" transform="matrix(.91026 0 0 .91304 -5.423 -36.717)"/><path d="M23 55 12 65.121v1L23 56Zm3 0v1l11 10.121v-1zm25 0L40 65.121v1L51 56ZM16.045 66.846l-.621.531L23 73.107v-1zm16.91 0L26 72.107v1l7.576-5.73zm11.09 0-.621.531L51 73.107v-1z" style="opacity:.2;fill:#fff" transform="matrix(.91026 0 0 .91304 -5.423 -36.717)"/></svg>