<svg xmlns="http://www.w3.org/2000/svg" width="48" height="48"><circle cx="8.467" cy="288.53" r="6.879" fill="#225a84" stroke-width=".927" style="paint-order:stroke markers fill" transform="matrix(3.05277 0 0 3.05277 -1.848 -856.815)"/><path d="m9.007 17.573-.006.19v12.988c0 1.356.726 2.61 1.903 3.288l11.194 6.452a3.81 3.81 0 0 0 3.805 0l11.194-6.452A3.8 3.8 0 0 0 39 30.749V17.763q-.002-.07-.008-.143c.008-.001-29.984-.048-29.984-.048z" style="opacity:.2;stroke-width:.598223"/><path d="m9.007 16.976-.006.19v12.988c0 1.357.726 2.61 1.903 3.288l11.194 6.453a3.81 3.81 0 0 0 3.805 0l11.194-6.453A3.8 3.8 0 0 0 39 30.152V17.168q-.002-.072-.008-.144z" style="fill:#e4ba75;stroke-width:.598223"/><path d="M24.09 7.001v.001a3.807 3.843 0 0 0-1.995.512l-11.202 6.529A3.807 3.843 0 0 0 9 17.124a3.807 3.843 0 0 0 1.893 3.113l11.202 6.529a3.807 3.843 0 0 0 3.809 0l11.202-6.529A3.807 3.843 0 0 0 39 17.156a3.807 3.843 0 0 0-1.893-3.113L25.904 7.514a3.807 3.843 0 0 0-1.815-.513Z" style="fill:#b89863;stroke-width:.598223"/><path d="M24.089 7.001v.002a3.807 3.843 0 0 0-.09 0V27.27a3.807 3.843 0 0 0 1.904-.505l11.202-6.529A3.807 3.843 0 0 0 39 17.155a3.807 3.843 0 0 0-1.894-3.113L25.903 7.514A3.807 3.843 0 0 0 24.089 7Z" style="opacity:.07;stroke-width:.598223"/><path d="M24.089 7.001v.002a3.807 3.843 0 0 0-1.993.51L10.894 14.04A3.807 3.843 0 0 0 9 17.124a3.807 3.843 0 0 0 .033.284 3.807 3.843 0 0 1 1.86-2.77l11.203-6.529a3.807 3.843 0 0 1 1.993-.51v-.001a3.807 3.843 0 0 1 1.814.512l11.202 6.529a3.807 3.843 0 0 1 1.861 2.797 3.807 3.843 0 0 0 .033-.28 3.807 3.843 0 0 0-1.894-3.114L25.903 7.514A3.807 3.843 0 0 0 24.089 7" style="opacity:.1;fill:#fff;stroke-width:.598223"/><path d="M9.007 16.976q-.001.063-.005.126a3.807 3.843 0 0 1 .013-.126zm-.005.16-.001.03v12.988c0 1.357.726 2.61 1.903 3.289l11.193 6.451a3.6 3.6 0 0 0 1.903.51V27.277a3.807 3.843 0 0 1-1.904-.512l-11.203-6.528a3.807 3.843 0 0 1-1.891-3.103" style="opacity:.1;stroke-width:.598223"/><path d="M9.033 16.844a3.807 3.843 0 0 0-.033.28 3.807 3.843 0 0 0 1.894 3.114l11.202 6.528a3.807 3.843 0 0 0 3.807 0l11.202-6.528A3.807 3.843 0 0 0 39 17.155a3.807 3.843 0 0 0-.033-.284 3.807 3.843 0 0 1-1.86 2.77L25.902 26.17a3.807 3.843 0 0 1-3.807 0L10.894 19.64a3.807 3.843 0 0 1-1.861-2.797" style="opacity:.1;stroke-width:.598223"/></svg>