<svg xmlns="http://www.w3.org/2000/svg" xmlns:xlink="http://www.w3.org/1999/xlink" width="48" height="48"><defs><linearGradient id="c" x1="13" x2="8" y1="37" y2="24" gradientUnits="userSpaceOnUse"><stop stop-color="#ec4c21"/><stop offset="1" stop-color="#ec7b0f"/></linearGradient><linearGradient id="f" x1="36" x2="23" y1="33" y2="40" gradientUnits="userSpaceOnUse"><stop stop-color="#06a370"/><stop offset="1" stop-color="#22d1b0"/></linearGradient><linearGradient id="g" x1="33" x2="38" y1="12" y2="24" gradientUnits="userSpaceOnUse"><stop stop-color="#faae2a"/><stop offset="1" stop-color="#ffc35a"/></linearGradient><linearGradient id="b" x1="12" x2="24" y1="15" y2="8" gradientUnits="userSpaceOnUse"><stop stop-color="#2e5d89"/><stop offset="1" stop-color="#1b92f4"/></linearGradient><linearGradient id="a" x1="9.404" x2="14.756" y1="10.361" y2="15.713" gradientUnits="userSpaceOnUse"><stop/><stop offset="1" stop-opacity="0"/></linearGradient><linearGradient xlink:href="#a" id="h" x1="34.21" x2="39.724" y1="30.28" y2="35.79" gradientUnits="userSpaceOnUse"/><linearGradient xlink:href="#a" id="i" x1="17.725" x2="25.387" y1="34.21" y2="41.873" gradientUnits="userSpaceOnUse"/></defs><path fill="url(#b)" d="M24 4a20 20 0 0 0-14.738 6.516L12.05 23c.52-6.215 5.714-11 11.95-11l3-4-.86-3.879A20 20 0 0 0 24 4"/><path fill="url(#a)" fill-rule="evenodd" d="M9.404 10.361a20 20 0 0 0-.879 1.002l-2.597 9.522 6.654-.512a12 12 0 0 1 2.482-4.352z" opacity=".2"/><g stroke-linejoin="bevel" stroke-width="6.2"><path fill="url(#c)" d="M9.406 10.361A20 20 0 0 0 4 24a20 20 0 0 0 6.443 14.67L23 35.949C16.785 35.43 12 30.24 12 24h5.525l-4.953-8.32z"/><path fill="url(#f)" d="M35.949 25A12 12 0 0 1 24 36v-5.525l-13.639 8.119A20 20 0 0 0 24 44a20 20 0 0 0 14.775-6.556l-.008-.012z"/><path fill="url(#g)" d="M36.451 9.143 25 12.051A12 12 0 0 1 36 24h-5.525l8.119 13.639A20 20 0 0 0 44 24a20 20 0 0 0-6.576-14.793c-.324-.018-.649-.048-.973-.064"/><path fill="url(#b)" d="m24.03 4-.025 7.998v5.525l13.639-8.119A20 20 0 0 0 24.031 4"/></g><g fill-rule="evenodd"><path fill="url(#h)" d="m34.21 30.28 4.387 7.367a20 20 0 0 0 1.357-1.623z" opacity=".2"/><path fill="url(#i)" d="m17.725 34.21-7.371 4.389A20 20 0 0 0 24 43.999a20 20 0 0 0 3.227-.287z" opacity=".2"/></g><path fill-opacity=".314" d="M43.979 23.418A20 20 0 0 1 24 43 20 20 0 0 1 4.021 23.582 20 20 0 0 0 4 24a20 20 0 0 0 20 20 20 20 0 0 0 20-20 20 20 0 0 0-.021-.582" opacity=".2"/></svg>