<svg xmlns="http://www.w3.org/2000/svg" xmlns:xlink="http://www.w3.org/1999/xlink" width="48" height="48"><defs><linearGradient xlink:href="#a" id="c" x2="0" y1="15.024" y2="8.6" gradientTransform="matrix(1.42636 0 0 1.42636 374.447 487.64)" gradientUnits="userSpaceOnUse"/><linearGradient id="a"><stop stop-color="#1482cf"/><stop offset="1" stop-color="#74bef2"/></linearGradient><linearGradient xlink:href="#a" id="b" x2="0" y1="536.752" y2="526.916" gradientTransform="matrix(1.42636 0 0 1.42636 -174.09 -225.25)" gradientUnits="userSpaceOnUse"/></defs><path fill="gray" d="M18.935 11.178a.3.3 0 0 0-.113.022c-.015.007-.025.015-.038.023l-.015.007c-.01.007-.013.021-.023.03a.3.3 0 0 0-.106.211c0 .162.133.295.295.295h.068l.709 1.373v7.244L11.6 40.598a2.4 2.4 0 0 0-.12.317c-.012.038-.013.076-.023.114-.01.036-.023.075-.03.113-.012.059-.016.121-.023.18-.001.018-.006.037-.007.054-.007.062-.006.119-.007.18v.098q-.002.103.007.204c.007.063.019.12.03.181.004.025.001.052.007.076.001.01.006.02.007.03q.023.096.053.189c0 .004.007.003.007.007.023.072.039.142.068.21 0 .005.006.005.007.008q.045.104.098.204v.007a2.421 2.421 0 0 0 .785.853l.022.014c.264.173.56.296.883.355q.035.004.068.007c.043.007.085.018.128.023q.148.016.295.015h20.547q.095 0 .189-.007c.02-.001.04-.006.06-.007.06-.006.122-.02.181-.03.02-.004.04-.003.06-.007q.089-.02.174-.046a2.6 2.6 0 0 0 .664-.302q.004-.001.007-.007.008-.008.015-.015a2.4 2.4 0 0 0 .513-.46h.007c.097-.118.183-.25.257-.385 0 0 .007-.004.007-.007.035-.065.061-.135.09-.204q.004-.004.007-.007a2 2 0 0 0 .076-.21v-.008c.021-.069.045-.14.06-.211q.003-.01.007-.023c.004-.018-.004-.042 0-.06.011-.062.024-.119.03-.181.001-.026.006-.057.007-.083q.006-.06.007-.121v-.045q-.001-.076-.007-.151v-.046c0-.018-.006-.034-.007-.052q-.005-.019-.007-.038c-.007-.06-.011-.122-.023-.181-.003-.007.001-.015 0-.023a3 3 0 0 0-.045-.181c-.004-.018-.017-.035-.023-.053-.019-.063-.036-.12-.06-.181l-.045-.106-8.12-20.245V13.14l.672-1.373h.113a.295.295 0 0 0 .294-.295.284.284 0 0 0-.249-.286.2.2 0 0 0-.045-.007H18.93zm2.097 12.76c.49-.021 1.035.185 1.69.701 2.099 1.654 3.09 3.35 4.807 1.125.228-.295.459-.541.687-.755l5.675 14.133.03.076q.028.07.052.143c.003.015.012.033.015.046.013.045.02.088.03.136q.005.011.008.022c.01.047.007.097.015.144 0 .01.006.02.007.03v.068c0 .04.007.088.007.128 0 .013-.007.02-.007.03v.158a1 1 0 0 1-.023.151v.038c0 .007-.006.016-.007.023a2 2 0 0 1-.045.166v.007c-.018.056-.031.105-.053.158l-.007.015a2 2 0 0 1-.076.159h-.007c-.057.106-.12.21-.196.302v.007c-.038.046-.086.086-.128.128a2 2 0 0 1-.272.226l-.015.007v.007a2 2 0 0 1-.34.174q-.092.034-.188.06-.067.021-.136.038c-.016 0-.028.006-.045.007-.046.009-.088.019-.136.023-.016 0-.035.007-.053.007-.048.004-.094 0-.143 0H16.09q-.116.002-.234-.007c-.034-.006-.072-.017-.105-.023-.018-.001-.027-.004-.046-.007a1.9 1.9 0 0 1-.694-.28c-.007 0-.013-.005-.015-.006a2 2 0 0 1-.415-.363v-.007a2 2 0 0 1-.196-.294l-.007-.007a2 2 0 0 1-.076-.158c0-.001.003-.006 0-.007a2 2 0 0 1-.06-.159s.003-.013 0-.015a2 2 0 0 1-.038-.15c0-.008-.006-.015-.007-.023-.006-.02-.004-.034-.007-.053a1 1 0 0 1-.022-.151c-.007-.053-.006-.097-.007-.151v-.075q.001-.072.007-.144v-.045q.009-.068.022-.136c.004-.03.015-.054.023-.083q.01-.046.023-.09.037-.129.09-.25l6.023-15.015a1.7 1.7 0 0 1 .686-.19z"/><path fill="url(#b)" d="M405.785 526.377c-.199.009-.387.06-.574.15l-4.603 11.674c-.03.066-.062.14-.083.211-.007.025-.009.044-.015.068q-.009.034-.015.068c-.007.038-.018.082-.022.12v.039c-.004.04 0 .073 0 .113v.06c0 .044-.006.092 0 .136 0 .04.014.073.022.113.003.016-.006.03 0 .045l.007.023q.017.06.038.12v.008c.016.046.027.091.046.135v.007c.018.045.045.086.067.129v.007q.072.129.166.241c.003 0 0 .006 0 .007a1.6 1.6 0 0 0 .355.309c.17.111.365.195.574.234.015.003.023-.001.037 0 .028.004.055.02.083.022.065.007.133 0 .197 0h13.431c.04-.003.082-.016.12-.022.016-.001.025-.007.039-.007l.105-.03c.052-.016.11-.026.159-.046q.147-.058.279-.143v-.007l.015-.007a1.5 1.5 0 0 0 .324-.294c.003 0 0-.004 0-.007q.095-.117.166-.25c.001 0 .007.002.007 0q.034-.062.06-.128l.008-.007q.024-.066.045-.135v-.007q.023-.067.038-.136v-.053c.007-.04.013-.088.015-.128.003-.017.007-.028.007-.046.003-.026 0-.056 0-.083 0-.009.007-.01.007-.022 0-.034-.007-.073-.007-.106 0-.009.003-.014 0-.023v-.037c-.001-.01-.006-.015-.007-.023-.007-.038-.007-.075-.015-.113-.003-.007 0-.01 0-.015a1 1 0 0 0-.03-.121l-.007-.038c-.015-.04-.03-.074-.046-.113l-.03-.068-4.316-10.941a5 5 0 0 0-.574.626c-1.416 1.836-2.946.436-4.678-.928-.545-.425-.992-.599-1.396-.582zm.173 1.23v11.462h-4.504z" transform="translate(-384.571 -499.798)"/><path fill="url(#c)" d="M407.415 499.906a.966.966 0 0 0-.967.967.966.966 0 0 0 .967.967.966.966 0 0 0 .966-.967.966.966 0 0 0-.966-.967m2.504 2.914a1.93 1.93 0 0 0-1.93 1.93 1.93 1.93 0 0 0 1.93 1.934 1.93 1.93 0 0 0 1.934-1.933 1.93 1.93 0 0 0-1.934-1.93m-3.38 3.878a1.207 1.207 0 0 0-1.205 1.206 1.207 1.207 0 0 0 1.206 1.21 1.207 1.207 0 0 0 1.206-1.21 1.207 1.207 0 0 0-1.206-1.206" transform="translate(-384.571 -499.798)"/><path fill-opacity=".235" d="M18.935 11.176a.3.3 0 0 0-.115.026c-.014.007-.023.013-.036.022-.004 0-.013.003-.016.006-.01.007-.013.021-.023.03a.3.3 0 0 0-.106.212c0 .162.134.296.296.296h.067l.71 1.37v-1.14l-.423-.818h-.357zm9.95.003-.4.82v1.142l.67-1.374h.115a.294.294 0 0 0 .293-.295.283.283 0 0 0-.248-.287.2.2 0 0 0-.045-.006zm-7.853 11.617c-.24.011-.461.08-.685.19l-6.02 15.016q-.055.121-.092.25-.013.045-.022.09c-.008.029-.018.054-.023.083q-.013.068-.022.137v.044q-.006.072-.008.142v.076c.001.053.001.1.008.153.004.049.012.102.022.15.003.02 0 .034.006.053.001.008.008.015.008.022.011.05.021.103.037.15.003.003 0 .013 0 .015l.003.006q.034-.118.083-.229l6.02-15.018c.224-.11.446-.176.686-.187h.003c.489-.02 1.033.187 1.688.702 2.098 1.653 3.089 3.348 4.806 1.123.227-.295.46-.541.688-.755l5.674 14.135c.012.026.018.05.028.076q.03.069.053.142.027-.083.045-.168c0-.007.008-.015.008-.022v-.039c.01-.048.018-.101.022-.15v-.159c0-.011.006-.015.006-.028 0-.04-.004-.088-.006-.128v-.07c0-.01-.008-.02-.008-.03-.008-.047-.004-.096-.014-.142 0-.007-.007-.016-.008-.023-.01-.047-.015-.09-.028-.136-.004-.013-.014-.03-.016-.045a3 3 0 0 0-.053-.145q-.013-.038-.028-.075L28.218 23.87c-.228.214-.46.46-.688.755-1.717 2.226-2.707.528-4.806-1.125-.654-.516-1.199-.722-1.688-.702h-.003zM36.756 41.03q-.021.083-.045.164v.008a2 2 0 0 1-.078.21q-.001.002-.006.007c-.03.069-.056.138-.092.204q-.002.005-.006.008c-.074.135-.159.266-.256.384h-.008a2.366 2.366 0 0 1-.513.46q-.006.007-.014.014-.003.005-.008.008a2.4 2.4 0 0 1-.663.3q-.086.027-.175.048c-.02.004-.038 0-.059.006-.059.01-.12.025-.18.03-.02.002-.042.008-.062.009a3 3 0 0 1-.19.006H13.857a3 3 0 0 1-.295-.014c-.044-.005-.085-.016-.129-.023q-.033-.003-.066-.008a2.4 2.4 0 0 1-.884-.353l-.022-.017a2.502 2.502 0 0 1-.786-.852q.002-.004 0-.007a2 2 0 0 1-.097-.203c-.001-.003-.007-.004-.008-.008-.029-.069-.044-.14-.067-.212 0-.004-.007 0-.008-.006l-.042-.147q-.015.047-.025.094c-.011.06-.015.122-.022.181-.001.017-.007.036-.008.053-.007.062-.004.12-.006.181v.097c0 .07-.002.137.006.204.007.063.02.12.03.181.005.025.004.054.009.078q.002.015.006.028.022.096.052.19c.001.004.008.004.008.008.023.071.038.14.067.208.001.004.007.005.008.008q.044.106.098.204v.008a2.5 2.5 0 0 0 .785.852l.023.014c.263.173.56.295.883.354q.033.005.067.008c.043.007.084.018.128.022.1.01.196.019.295.017h20.546q.096-.001.19-.008c.02-.001.04-.007.06-.008q.093-.011.182-.028.029-.004.058-.008a2.6 2.6 0 0 0 .415-.128q.225-.089.424-.22.005-.002.008-.006c.006-.004.009-.013.014-.017.128-.086.245-.175.353-.284.055-.054.11-.117.16-.176h.007c.097-.117.183-.249.257-.384 0-.001.006-.003.006-.006.035-.065.062-.137.091-.206.001-.004.004-.003.006-.006q.045-.104.078-.212v-.008q.035-.102.059-.209c.001-.007.007-.017.008-.025.004-.018-.004-.04 0-.058.011-.062.024-.119.03-.182l.007-.083q.006-.06.008-.12v-.047c0-.052-.006-.1-.008-.15v-.045q-.002-.027-.006-.053-.005-.02-.008-.04c-.007-.058-.011-.121-.023-.18-.003-.007.001-.015 0-.023q-.01-.044-.022-.089z"/></svg>