<svg xmlns="http://www.w3.org/2000/svg" xmlns:xlink="http://www.w3.org/1999/xlink" width="64" height="64"><defs><linearGradient xlink:href="#a" id="c" x1="113.947" x2="406.083" y1="255.366" y2="255.366" gradientTransform="matrix(.2027 0 0 .1844 363.869 467.51)" gradientUnits="userSpaceOnUse"/><linearGradient id="a"><stop offset="0" style="stop-color:#78acd3;stop-opacity:1"/><stop offset="1" style="stop-color:#d98cbb;stop-opacity:1"/></linearGradient><linearGradient xlink:href="#b" id="d" x1="386.306" x2="446.83" y1="522.454" y2="522.454" gradientTransform="matrix(.99134 0 0 .99944 3.61 .301)" gradientUnits="userSpaceOnUse"/><linearGradient id="b"><stop offset="0" style="stop-color:#326e9a;stop-opacity:1"/><stop offset="1" style="stop-color:#339993;stop-opacity:1"/></linearGradient></defs><path d="M416.575 496.958c-.88 0-1.923-.517-2.317-1.148l-1.77-2.837c-.393-.632-1.435-1.147-2.315-1.148l-20.401-.027c-1.946-.003-2.767.935-2.794 3.004l-.012.872v39.138c0 .706 2.32 2.567 3.2 2.567h52.816c.88 0 3.2-1.86 3.2-2.567v-35.288c0-1.925-.8-2.566-3.2-2.566z" style="fill:url(#c);fill-opacity:1;stroke-width:.179138" transform="translate(-384.571 -483.798)"/><path d="M442.35 510.657c0 1.326-.796 2.41-2.618 2.41h-46.195c-1.822 0-2.519-1.084-2.519-2.41v-7.23c0-1.325.697-2.41 2.519-2.41h46.096c1.822 0 2.717 1.085 2.717 2.41z" style="fill:#f2f2f2;fill-opacity:1;stroke-width:.176565" transform="translate(-384.571 -483.798)"/><path d="M443.328 505.13h-53.513c-1.622 0-3.244 1.475-3.244 2.95v28.768c0 1.95 1.255 2.95 3.244 2.95h53.513c1.996 0 3.243-1 3.243-2.95V508.08c0-1.475-1.621-2.95-3.243-2.95" style="fill:url(#d);fill-opacity:1;stroke-width:.19334" transform="translate(-384.571 -483.798)"/><path d="M434.572 536.798h-.562a.563.563 0 0 1 0-1.125h.562a7.875 7.875 0 1 0-7.875-7.875 7.86 7.86 0 0 0 3.155 6.294l-.005.008a.56.56 0 1 1-.673.896l-.002.002a9 9 0 0 1 5.4-16.2 9 9 0 0 1 0 18zm-2.812-1.125a.562.562 0 1 1 0 1.125.562.562 0 0 1 0-1.125m2.25-13.5c.31 0 .562.252.562.563v5.3l3.129 1.807a.562.562 0 1 1-.563.973l-3.41-1.968-.012-.01a1 1 0 0 1-.055-.04l-.035-.027-.045-.05q-.014-.014-.026-.032l-.035-.056q-.01-.017-.02-.037l-.021-.056-.015-.049a.616.616 0 0 1-.015-.112l-.002-.018v-5.625c0-.311.252-.563.562-.563z" style="fill:#f2f2f2;fill-opacity:1;stroke-width:.0351562" transform="translate(-384.571 -483.798)"/></svg>