<svg xmlns="http://www.w3.org/2000/svg" viewBox="0 0 48 48"><defs><linearGradient id="b" x1="385.49" x2="417.55" y1="513.68" y2="548.54" gradientTransform="matrix(1 0 0 .99923 -373.54 497.05)" gradientUnits="userSpaceOnUse"><stop stop-color="#292c2f"/><stop offset="1" stop-opacity="0"/></linearGradient><linearGradient id="d" x2="0" y1="41.939" y2="5.978" gradientTransform="matrix(1 0 0 .99844 .3 1003.4)" gradientUnits="userSpaceOnUse"><stop stop-color="#d35400"/><stop offset="1" stop-color="#f67400" stop-opacity=".941"/></linearGradient><linearGradient id="a" x1="43.857" x2="44" y1="40.14" y2="8" gradientTransform="matrix(1 0 0 1.24348 0 -5.948)" gradientUnits="userSpaceOnUse"><stop stop-color="#31363b"/><stop offset="1" stop-color="#4d4d4d"/></linearGradient></defs><g fill-rule="evenodd"><path fill="url(#a)" d="M4 4v39.969h40V4z"/><path fill="url(#b)" d="M40.32 1010.43c-8.918-2.966-8.01 8.721-10.244 14.908l-7.077 16.996-2 2.998h-3l3 2.998 22.942.031.058-34.397z" opacity=".2" transform="translate(0 -1004.36)"/></g><path fill="#232629" d="M4 5.998v1h40v-1zm0 8.994v.998h40v-.998zm0 15.986v1h40v-1zm0 8.994v.998h40v-.998z"/><path fill="url(#d)" d="m18.1 1021.35-4.757 16.618c-.369 1.51-1.512 6.149-3.098 6.149-.221 0-.479-.221-.479-.515v-.037c0-.552.516-.957.516-1.546 0-.663-.848-1.068-1.475-1.068-1.217 0-1.807.847-1.807 1.767 0 1.215 1.033 2.614 3.134 2.614 4.02 0 6.085-5.486 6.933-8.579l4.315-15.39 6.618-.012-4.774 16.618c-.369 1.509-1.512 6.149-3.098 6.149-.221 0-.479-.221-.479-.515v-.037c0-.552.516-.957.516-1.546 0-.663-.848-1.068-1.475-1.068-1.217 0-1.807.847-1.807 1.767 0 1.215 1.033 2.614 3.134 2.614 4.02 0 6.085-5.486 6.933-8.579l4.315-15.403H35l.5-.999h-4c.664-2.54 1.94-9.556 5.04-9.556 1.364 0 .664 2.54 2.839 2.54.959 0 1.623-.736 1.623-1.546 0-1.657-2.323-2.43-3.725-2.43-5.679 0-7.704 6.647-9.03 10.991h-6.61c.664-2.54 1.665-9.04 4.762-9.04 1.364 0 .664 2.541 2.839 2.541.959 0 1.623-.736 1.623-1.546 0-1.657-2.323-2.43-3.725-2.43-5.568 0-7.428 6.131-8.755 10.476h-3.879l-.5.999" transform="translate(0 -1004.36)"/></svg>