<svg xmlns="http://www.w3.org/2000/svg" width="48" height="48" version="1"><g transform="translate(-2 -2)"><rect width="42" height="42" x="5" y="5" fill="#f18d00" rx="21" ry="21" style="stroke-width:.777778"/><rect width="35.778" height="35.778" x="8.111" y="8.111" fill="#fff" opacity=".15" rx="17.889" ry="17.889" style="stroke-width:.777778"/><path fill="#fff" fill-rule="evenodd" d="M40 21.755c-2.624-11.093-12.703-11-18.787-8.104C14.809 16.888 10.17 25.183 12.7 32.13 16.61 42.608 31 42.45 35.869 32.706c1.445-3.573 2.506-6.11-1.468-9.506v4.2L33 24.6s-1.243 2.938-2.564 4.278C28.6 30.74 26 30.2 26 30.2c.49 1.857 4.2 2.8 4.2 2.8-9.629 4.559-9.911-3.059-9.8-4.9.316-5.298 4.576-9.41 10.189-9.116 1.789.137 5.212 1.415 5.212 1.415-1.288-2.948-3.122-3.648-4.2-4.2 4.226-1.397 6.482 3.014 8.4 5.554z" style="stroke-width:.777778"/></g></svg>