<svg xmlns="http://www.w3.org/2000/svg" xmlns:xlink="http://www.w3.org/1999/xlink" width="48" height="48"><defs><linearGradient id="a"><stop offset="0" style="stop-color:#00b6cc;stop-opacity:1"/><stop offset="1" style="stop-color:#ccf9ff;stop-opacity:1"/></linearGradient><linearGradient xlink:href="#a" id="b" x1="9.042" x2="34.456" y1="9.428" y2="36.084" gradientUnits="userSpaceOnUse"/></defs><circle cx="24" cy="24" r="21" fill="#e6e6e6" style="stroke-width:.999997;fill:url(#b)"/><path fill="#125072" d="M11.041 10A1.04 1.04 0 0 0 10 11.043V24a5.59 5.591 0 0 0 .962 3.147C13.81 31.38 19.053 37.69 24 38h4.531l.65-.14h8.058a.77.77 0 0 0 .402-.12l.003-.001c.217-.191.356-.469.356-.783V24a5.6 5.6 0 0 0-.963-3.147c-1.504-2.24-3.683-5.052-6.131-7.258-1.411-1.238-2.886-2.28-4.303-2.917-.867-.377-1.739-.624-2.603-.678h-8.4z" style="stroke-width:1;fill:#114d6e;fill-opacity:1"/><path fill="#fff" d="M15.191 14.147a1.04 1.04 0 0 0-1.042 1.046v14.32c.647 4.226 6.212 8.162 9.82 8.487h3.85l.22-.07h8.917c.578 0 1.034-.575 1.043-1.154V23.969a5.6 5.6 0 0 0-.965-3.153c-2.129-3.357-5.02-6.499-8.856-6.668h-8.417z" style="stroke-width:1"/><path fill="#00cae5" d="M19.343 18.296c-.58 0-1.047.468-1.047 1.049v5.173h7.26v-3.407l9.332 6-9.332 5.963v-3.37h-7.26v2.666a5.617 5.617 0 0 0 5.63 5.63h13.028c.578 0 1.045-.468 1.045-1.05V23.926a5.617 5.617 0 0 0-5.63-5.63h-8.442z" style="stroke-width:1;fill:#00b6cc;fill-opacity:1"/></svg>