<svg xmlns="http://www.w3.org/2000/svg" xmlns:xlink="http://www.w3.org/1999/xlink" xml:space="preserve" width="48" height="48"><defs><linearGradient id="c"><stop offset="0" style="stop-color:#000;stop-opacity:1"/><stop offset="1" style="stop-color:#000;stop-opacity:0"/></linearGradient><linearGradient id="b"><stop offset="0" style="stop-color:#2a2c2f;stop-opacity:1"/><stop offset="1" style="stop-color:#424649;stop-opacity:1"/></linearGradient><linearGradient id="a"><stop offset="0" style="stop-color:#884d2c;stop-opacity:1"/><stop offset="1" style="stop-color:#ffc169;stop-opacity:1"/></linearGradient><linearGradient xlink:href="#a" id="d" x1="24.065" x2="24.065" y1="41.806" y2="5.466" gradientUnits="userSpaceOnUse"/><linearGradient xlink:href="#b" id="o" x1="24.015" x2="23.63" y1="31.94" y2="19.969" gradientUnits="userSpaceOnUse"/><linearGradient xlink:href="#c" id="g" x1="8.371" x2="21.722" y1="9.37" y2="22.721" gradientUnits="userSpaceOnUse"/><linearGradient xlink:href="#c" id="k" x1="11.377" x2="21.886" y1="13.89" y2="24.399" gradientUnits="userSpaceOnUse"/><linearGradient xlink:href="#c" id="i" x1="8.664" x2="21.623" y1="19.421" y2="32.38" gradientUnits="userSpaceOnUse"/><linearGradient xlink:href="#c" id="j" x1="10.576" x2="19.144" y1="30.595" y2="39.163" gradientUnits="userSpaceOnUse"/><linearGradient xlink:href="#c" id="h" x1="12.658" x2="17.235" y1="36.549" y2="41.126" gradientUnits="userSpaceOnUse"/><linearGradient xlink:href="#c" id="e" x1="32.742" x2="37.389" y1="36.406" y2="41.053" gradientUnits="userSpaceOnUse"/><linearGradient xlink:href="#c" id="n" x1="35.752" x2="40.572" y1="30.354" y2="35.174" gradientUnits="userSpaceOnUse"/><linearGradient xlink:href="#c" id="f" x1="36.58" x2="41.485" y1="19.541" y2="24.446" gradientUnits="userSpaceOnUse"/><linearGradient xlink:href="#c" id="l" x1="34.643" x2="42.643" y1="14.02" y2="22.021" gradientUnits="userSpaceOnUse"/><linearGradient xlink:href="#c" id="m" x1="38.246" x2="41.225" y1="9.42" y2="12.399" gradientUnits="userSpaceOnUse"/></defs><path d="M4 6c.328 3.609 2.957 4.444 3.1 8.299.075 1.628-2.067 5.37-2.045 7.535.01 1.026.51 1.99 1.355 2.584C8.01 25.544 11.37 26 15.848 26h.267c-3.782 0-6.619 1.004-7.97 1.904A2.52 2.52 0 0 0 7 29.971c.165 5.49.928 11.858 7.22 12.029 7.242-.081 8.724-11.343 8.78-16-.09-3.136-8-20-19-20m40 0C33 6 25.09 22.864 25 26c.056 4.657 1.538 15.919 8.78 16 6.292-.17 7.055-6.538 7.22-12.03a2.52 2.52 0 0 0-1.145-2.066c-1.351-.9-4.188-1.904-7.97-1.904h.267c4.48 0 7.837-.456 9.438-1.582a3.2 3.2 0 0 0 1.355-2.584c.022-2.165-2.12-5.907-2.045-7.535.143-3.855 2.772-4.69 3.1-8.299" style="fill:url(#d);fill-opacity:1"/><path d="M25.5 19c0-3 .638-9.555 4.5-9.5M22.507 19c0-3-.638-9.555-4.5-9.5" style="fill:none;stroke:#272b2d;stroke-width:1px;stroke-linecap:butt;stroke-linejoin:miter;stroke-opacity:1"/><circle cx="14" cy="38" r="0" style="opacity:1;fill:#fff;fill-opacity:1;stroke:none;stroke-width:2;stroke-linecap:round;stroke-linejoin:round;stroke-miterlimit:4;stroke-dasharray:none;stroke-opacity:1"/><path d="m35.418 36.59-2.828 2.828 2.445 2.445c1.571-.29 2.722-1.04 3.57-2.086z" style="opacity:.2;fill:url(#e);fill-opacity:1;stroke:none;stroke-width:2;stroke-linecap:round;stroke-linejoin:round;stroke-miterlimit:4;stroke-dasharray:none;stroke-opacity:1"/><path d="m39.408 19.572-2.828 2.826 2.904 2.905c.867-.232 1.587-.52 2.106-.885.54-.38.92-.92 1.14-1.523z" style="opacity:.2;fill:url(#f);fill-opacity:1;stroke:none;stroke-width:2;stroke-linecap:round;stroke-linejoin:round;stroke-miterlimit:4;stroke-dasharray:none;stroke-opacity:1"/><path d="M9.703 9.283 8.29 10.695 22.9 25.307c-.222-1.043-.838-2.694-1.77-4.596z" style="opacity:.2;fill:url(#g);fill-opacity:1;stroke:none;stroke-width:2;stroke-linecap:round;stroke-linejoin:round;stroke-miterlimit:4;stroke-dasharray:none;stroke-opacity:1"/><path d="m15.404 36.566-2.828 2.829 2.53 2.529c1.481-.218 2.691-.94 3.683-1.973z" style="opacity:.2;fill:url(#h);fill-opacity:1;stroke:none;stroke-width:2;stroke-linecap:round;stroke-linejoin:round;stroke-miterlimit:4;stroke-dasharray:none;stroke-opacity:1"/><path d="m11.41 19.578-2.828 2.828 3.45 3.45c1.156.094 2.424.144 3.816.144h.267c-1.33 0-2.536.13-3.61.33l8.948 8.947c.52-1.485.88-3.051 1.12-4.537z" style="opacity:.2;fill:url(#i);fill-opacity:1;stroke:none;stroke-width:2;stroke-linecap:round;stroke-linejoin:round;stroke-miterlimit:4;stroke-dasharray:none;stroke-opacity:1"/><path d="m12.531 30.408-2.119 2.12 7.895 7.894c.733-.641 1.358-1.444 1.888-2.35z" style="opacity:.2;fill:url(#j);fill-opacity:1;stroke:none;stroke-width:2;stroke-linecap:round;stroke-linejoin:round;stroke-miterlimit:4;stroke-dasharray:none;stroke-opacity:1"/><path d="m13.496 14.002-2.119 2.12 11.545 11.544c.04-.6.072-1.186.078-1.666-.02-.666-.41-1.972-1.09-3.584Z" style="opacity:.2;fill:url(#k);fill-opacity:1;stroke:none;stroke-width:2;stroke-linecap:round;stroke-linejoin:round;stroke-miterlimit:4;stroke-dasharray:none;stroke-opacity:1"/><path d="m36.533 14.043-2.119 2.12 7.744 7.743c.497-.57.78-1.303.787-2.072.005-.483-.108-1.05-.27-1.648z" style="opacity:.2;fill:url(#l);fill-opacity:1;stroke:none;stroke-width:2;stroke-linecap:round;stroke-linejoin:round;stroke-miterlimit:4;stroke-dasharray:none;stroke-opacity:1"/><path d="m39.66 9.246-1.414 1.414 2.744 2.744a7 7 0 0 1 .7-2.127z" style="opacity:.2;fill:url(#m);fill-opacity:1;stroke:none;stroke-width:2;stroke-linecap:round;stroke-linejoin:round;stroke-miterlimit:4;stroke-dasharray:none;stroke-opacity:1"/><circle cx="9" cy="10" r="1" style="opacity:1;fill:#fff;fill-opacity:1;stroke:none;stroke-width:2;stroke-linecap:round;stroke-linejoin:round;stroke-miterlimit:4;stroke-dasharray:none;stroke-opacity:1"/><circle cx="12.5" cy="15.125" r="1.5" style="opacity:1;fill:#fff;fill-opacity:1;stroke:none;stroke-width:2;stroke-linecap:round;stroke-linejoin:round;stroke-miterlimit:4;stroke-dasharray:none;stroke-opacity:1"/><circle cx="10" cy="21" r="2" style="opacity:1;fill:#fff;fill-opacity:1;stroke:none;stroke-width:2;stroke-linecap:round;stroke-linejoin:round;stroke-miterlimit:4;stroke-dasharray:none;stroke-opacity:1"/><circle cx="11.5" cy="31.5" r="1.5" style="opacity:1;fill:#fff;fill-opacity:1;stroke:none;stroke-width:2;stroke-linecap:round;stroke-linejoin:round;stroke-miterlimit:4;stroke-dasharray:none;stroke-opacity:1"/><circle cx="14" cy="38" r="2" style="opacity:1;fill:#fff;fill-opacity:1;stroke:none;stroke-width:2;stroke-linecap:round;stroke-linejoin:round;stroke-miterlimit:4;stroke-dasharray:none;stroke-opacity:1"/><circle cx="-38" cy="21" r="2" style="opacity:1;fill:#fff;fill-opacity:1;stroke:none;stroke-width:2;stroke-linecap:round;stroke-linejoin:round;stroke-miterlimit:4;stroke-dasharray:none;stroke-opacity:1" transform="scale(-1 1)"/><circle cx="-35.5" cy="15.125" r="1.5" style="opacity:1;fill:#fff;fill-opacity:1;stroke:none;stroke-width:2;stroke-linecap:round;stroke-linejoin:round;stroke-miterlimit:4;stroke-dasharray:none;stroke-opacity:1" transform="scale(-1 1)"/><circle cx="-39" cy="10" r="1" style="opacity:1;fill:#fff;fill-opacity:1;stroke:none;stroke-width:2;stroke-linecap:round;stroke-linejoin:round;stroke-miterlimit:4;stroke-dasharray:none;stroke-opacity:1" transform="scale(-1 1)"/><path d="m37.566 30.441-2.119 2.12 4.567 4.566c.365-1.085.581-2.282.728-3.51z" style="opacity:.2;fill:url(#n);fill-opacity:1;stroke:none;stroke-width:2;stroke-linecap:round;stroke-linejoin:round;stroke-miterlimit:4;stroke-dasharray:none;stroke-opacity:1"/><circle cx="-36.5" cy="31.5" r="1.5" style="opacity:1;fill:#fff;fill-opacity:1;stroke:none;stroke-width:2;stroke-linecap:round;stroke-linejoin:round;stroke-miterlimit:4;stroke-dasharray:none;stroke-opacity:1" transform="scale(-1 1)"/><circle cx="-34" cy="38" r="2" style="opacity:1;fill:#fff;fill-opacity:1;stroke:none;stroke-width:2;stroke-linecap:round;stroke-linejoin:round;stroke-miterlimit:4;stroke-dasharray:none;stroke-opacity:1" transform="scale(-1 1)"/><path d="M4 6c.312 3.43 2.7 4.36 3.057 7.756.02-.158.049-.325.043-.457-.129-3.466-2.262-4.497-2.93-7.291C4.113 6.007 4.057 6 4 6m40 0c-.057 0-.113.007-.17.008-.668 2.794-2.801 3.825-2.93 7.29-.006.133.023.3.043.458C41.301 10.36 43.688 9.43 44 6M5.11 21.258c-.025.196-.057.399-.055.576.01 1.026.51 1.99 1.355 2.584.924.65 2.448 1.072 4.42 1.316 1.42-.424 3.201-.734 5.285-.734h-.267c-4.48 0-7.837-.456-9.438-1.582a3.18 3.18 0 0 1-1.3-2.16m37.78 0a3.18 3.18 0 0 1-1.3 2.16C39.99 24.544 36.63 25 32.152 25h-.267c2.084 0 3.865.31 5.285.734 1.972-.244 3.496-.666 4.42-1.316a3.2 3.2 0 0 0 1.355-2.584c.002-.177-.03-.38-.054-.576m-19.925 4.496c-.19 4.99-1.84 15.168-8.744 15.246-6.013-.163-6.968-5.98-7.186-11.29-.01.088-.034.172-.035.26.165 5.492.928 11.86 7.22 12.03 7.242-.081 8.724-11.343 8.78-16-.002-.065-.027-.17-.035-.246m2.07 0c-.008.076-.033.181-.035.246.056 4.657 1.538 15.919 8.78 16 6.292-.17 7.055-6.538 7.22-12.03-.001-.088-.025-.172-.035-.26-.218 5.31-1.173 11.127-7.186 11.29-6.904-.078-8.555-10.256-8.744-15.246" style="fill:#000;fill-opacity:1;opacity:.15"/><path d="M24 16a3 3 0 0 0-3 3c0 2 2 2 1 4v8c0 1.108.892 2 2 2s2-.892 2-2v-8c-1-2 1-2 1-4a3 3 0 0 0-3-3" style="fill:url(#o);fill-opacity:1"/></svg>