<svg xmlns="http://www.w3.org/2000/svg" xmlns:xlink="http://www.w3.org/1999/xlink" width="48" height="48"><defs><linearGradient id="a"><stop offset="0" style="stop-color:#333b56;stop-opacity:1"/><stop offset="1" style="stop-color:#4c5880;stop-opacity:1"/></linearGradient><linearGradient xlink:href="#a" id="c" x1="31.509" x2="31.509" y1="60" y2="4.982" gradientTransform="matrix(.7508 0 0 .75047 5.739 -7.04)" gradientUnits="userSpaceOnUse"/><linearGradient xlink:href="#b" id="d" x1="27.509" x2="28.032" y1="44" y2="12.001" gradientTransform="translate(-3.905 -4.356)" gradientUnits="userSpaceOnUse"/><linearGradient id="b"><stop offset="0" style="stop-color:#00b248;stop-opacity:1"/><stop offset="1" style="stop-color:#00ff67;stop-opacity:1"/></linearGradient></defs><ellipse cx="29.396" cy="17.343" rx="20.654" ry="20.645" style="opacity:.2;stroke-width:.737475" transform="rotate(14.993)skewX(-.015)"/><ellipse cx="29.396" cy="16.606" rx="20.654" ry="20.645" style="fill:url(#c);stroke-width:.737475" transform="rotate(14.993)skewX(-.015)"/><path d="M29.441 3.703A20.644 20.655 90 0 0 4.145 18.301a20.644 20.655 90 0 0-.082.354A20.644 20.655 90 0 1 29.25 4.415a20.644 20.655 90 0 1 14.684 24.918 20.644 20.655 90 0 0 .112-.346A20.644 20.655 90 0 0 29.441 3.703" style="opacity:.2;fill:#fff;stroke-width:.737475"/><path d="M24.127 7.645c3.367.007 6.781 1.056 9.448 3.133 1.874 2.16-1.698 4.473-3.306 2.367-4.843-2.93-11.674-1.899-15.317 2.482a12.04 12.04 0 0 0-3.019 7.988h3.2l-5.12 7.682-5.12-7.682h3.2c-.102-6.953 4.899-13.569 11.614-15.37 1.44-.395 2.925-.616 4.42-.6m14.05 8.321 5.122 7.681h-3.2c.09 7.038-5.04 13.727-11.872 15.433-4.61 1.288-9.823.348-13.612-2.597-1.933-2.196 1.689-4.487 3.313-2.361 4.692 2.846 11.263 1.944 14.967-2.123a12.04 12.04 0 0 0 3.362-8.352h-3.2z" style="fill:url(#d);fill-opacity:1"/></svg>