<svg xmlns="http://www.w3.org/2000/svg" xmlns:xlink="http://www.w3.org/1999/xlink" width="48" height="48"><defs><linearGradient id="b"><stop offset="0" style="stop-color:#000;stop-opacity:1"/><stop offset="1" style="stop-color:#000;stop-opacity:0"/></linearGradient><linearGradient id="a"><stop offset="0" style="stop-color:#2a9eff;stop-opacity:1"/><stop offset="1" style="stop-color:#81c6ff;stop-opacity:1"/></linearGradient><linearGradient xlink:href="#a" id="c" x1="419.368" x2="404.176" y1="540.797" y2="504.452" gradientUnits="userSpaceOnUse"/><linearGradient xlink:href="#b" id="d" x1="15.319" x2="39.408" y1="12.214" y2="36.303" gradientUnits="userSpaceOnUse"/></defs><path d="M408.571 503.798c-11.08 0-20 8.92-20 19.999 0 11.08 8.92 20.001 20 20.001s20-8.921 20-20.001-8.92-19.999-20-19.999" style="opacity:1;fill:url(#c);fill-opacity:1;stroke-width:2.79999995;stroke-opacity:.55026502" transform="translate(-384.571 -499.798)"/><path d="M4.012 23.498c-.004.167-.012.332-.012.5C4 35.078 12.92 44 24 44s20-8.922 20-20.002c0-.168-.008-.333-.012-.5A19.95 19.95 0 0 1 24 43 19.95 19.95 0 0 1 4.012 23.498" style="opacity:.15;fill:#000;fill-opacity:1;stroke-width:2.79999995;stroke-opacity:.55026502"/><path d="M428.624 518.794a1 1 0 0 0-.129.008s-1.437.13-3.135.522c-1.697.391-3.687.973-4.982 2.267-.347.347-.679.632-1.012.92-1.217-.866-2.404-1.436-3.566-1.691a1 1 0 0 0-.215-.024h-.33l-.875 2h1.043c.676.156 1.437.483 2.262 1.002-.827.52-1.59.845-2.266 1h-1.916l-.875 2h2.957a1 1 0 0 0 .215-.023c1.163-.256 2.35-.823 3.568-1.69.333.288.664.572 1.01.918 1.295 1.295 3.284 1.876 4.982 2.268a26 26 0 0 0 3.135.521 1 1 0 0 0 .18-1.992s-1.313-.12-2.865-.478-3.313-1.027-4.018-1.733c-.28-.28-.556-.54-.832-.79a23 23 0 0 0 .832-.794c.706-.705 2.466-1.376 4.018-1.734s2.865-.479 2.865-.479a1 1 0 0 0-.05-1.998zM388.562 518.796a1 1 0 0 0-.082 1.996s1.313.12 2.865.479c1.552.358 3.314 1.029 4.02 1.734q.42.419.833.793c-.276.25-.554.511-.834.791-.705.705-2.467 1.374-4.02 1.732-1.551.359-2.864.479-2.864.479a1 1 0 0 0 .181 1.992s1.437-.13 3.135-.521c1.698-.392 3.688-.973 4.982-2.268.347-.346.68-.63 1.012-.918 1.218.867 2.404 1.434 3.567 1.69a1 1 0 0 0 .214.023h.315l.875-2h-1.025c-.677-.155-1.436-.48-2.262-1 .824-.52 1.582-.846 2.258-1.002h1.904l.875-2h-2.94a1 1 0 0 0-.214.023c-1.163.256-2.35.825-3.567 1.692-.332-.288-.665-.573-1.012-.92-1.294-1.295-3.284-1.876-4.982-2.268s-3.135-.521-3.135-.521a1 1 0 0 0-.1-.006z" style="color:#000;font-style:normal;font-variant:normal;font-weight:400;font-stretch:normal;font-size:medium;line-height:normal;font-family:sans-serif;text-indent:0;text-align:start;text-decoration:none;text-decoration-line:none;text-decoration-style:solid;text-decoration-color:#000;letter-spacing:normal;word-spacing:normal;text-transform:none;direction:ltr;block-progression:tb;writing-mode:lr-tb;baseline-shift:baseline;text-anchor:start;white-space:normal;clip-rule:nonzero;display:inline;overflow:visible;visibility:visible;opacity:1;isolation:auto;mix-blend-mode:normal;color-interpolation:sRGB;color-interpolation-filters:linearRGB;solid-color:#000;solid-opacity:1;fill:#b5ddff;fill-opacity:1;fill-rule:nonzero;stroke:none;stroke-width:2;stroke-linecap:round;stroke-linejoin:round;stroke-miterlimit:4;stroke-dasharray:none;stroke-dashoffset:0;stroke-opacity:1;color-rendering:auto;image-rendering:auto;shape-rendering:auto;text-rendering:auto" transform="translate(-384.571 -499.798)"/><path d="M476.586 519.798s-5.5.5-7.5 2.5-3.855 3.139-5.5 3.5h-7m-20.014-6s5.5.5 7.5 2.5 3.854 3.139 5.5 3.5h7" style="fill:none;stroke:#fff;stroke-width:2;stroke-linecap:round;stroke-linejoin:round;stroke-miterlimit:4;stroke-dasharray:none;stroke-opacity:1" transform="translate(-384.571 -499.798)"/><path d="M476.586 527.797s-5.5-.5-7.5-2.5-3.855-3.139-5.5-3.5h-7m-20.014 6s5.5-.5 7.5-2.5 3.854-3.139 5.5-3.5h7M448.572 512.798l5 10M448.571 534.798l7-16M454.571 528.798l4-10M457.571 528.798l7-16M464.572 534.798l-5-9" style="fill:none;stroke:#fff;stroke-width:2;stroke-linecap:round;stroke-linejoin:round;stroke-miterlimit:4;stroke-dasharray:none;stroke-opacity:1" transform="translate(-384.571 -499.798)"/><path d="m32.592 12.188-3.758 8.244-2.148-2.149-.684.067-.133 2.1-2.191-2.192-.528.469h-.002l-6.494-6.497-.267.125.19 2.854 1.823 4.822 2.854 2.854-3.807 8.353.033.051-1.314 2.44-.947 1.916 8.345 8.345c.146.003.29.01.436.01 11.08 0 20-8.922 20-20.002 0-.138-.007-.274-.01-.412z" style="opacity:.2;fill:url(#d);fill-opacity:1;stroke:none;stroke-width:2;stroke-linecap:round;stroke-linejoin:round;stroke-miterlimit:4;stroke-dasharray:none;stroke-opacity:1"/><path d="M16.014 11.986a1 1 0 0 0-.909 1.461l3.276 6.551h1.558a1 1 0 0 1 .4.086l.151-.342-3.595-7.19a1 1 0 0 0-.881-.566m15.988 0a1 1 0 0 0-.92.612l-7 16a1.001 1.001 0 0 0 1.834.802l7-16a1 1 0 0 0-.914-1.414m-9 6a1 1 0 0 0-.92.612l-7 16a1.001 1.001 0 0 0 1.834.802l7-16a1 1 0 0 0-.914-1.414m2.967 0a1 1 0 0 0-.899.641l-4 10a1 1 0 1 0 1.858.744l4-10a1 1 0 0 0-.96-1.385m1.687 9.928-.324.744 3.793 6.826a1 1 0 1 0 1.748-.97L29.253 28h-1.196a1 1 0 0 1-.4-.086" style="color:#000;font-style:normal;font-variant:normal;font-weight:400;font-stretch:normal;font-size:medium;line-height:normal;font-family:sans-serif;text-indent:0;text-align:start;text-decoration:none;text-decoration-line:none;text-decoration-style:solid;text-decoration-color:#000;letter-spacing:normal;word-spacing:normal;text-transform:none;direction:ltr;block-progression:tb;writing-mode:lr-tb;baseline-shift:baseline;text-anchor:start;white-space:normal;clip-rule:nonzero;display:inline;overflow:visible;visibility:visible;opacity:1;isolation:auto;mix-blend-mode:normal;color-interpolation:sRGB;color-interpolation-filters:linearRGB;solid-color:#000;solid-opacity:1;fill:#fff;fill-opacity:1;fill-rule:nonzero;stroke:none;stroke-width:2;stroke-linecap:round;stroke-linejoin:round;stroke-miterlimit:4;stroke-dasharray:none;stroke-dashoffset:0;stroke-opacity:1;color-rendering:auto;image-rendering:auto;shape-rendering:auto;text-rendering:auto"/></svg>