<svg xmlns="http://www.w3.org/2000/svg" xmlns:xlink="http://www.w3.org/1999/xlink" width="64" height="64"><defs><linearGradient id="c"><stop offset="0" style="stop-color:#000;stop-opacity:.25120774"/><stop offset="1" style="stop-color:#fff;stop-opacity:0"/></linearGradient><linearGradient id="b"><stop offset="0" style="stop-color:#132a43;stop-opacity:.50196081"/><stop offset="1" style="stop-color:#133e6b;stop-opacity:0"/></linearGradient><linearGradient id="a"><stop offset="0" style="stop-color:#cf5e19;stop-opacity:1"/><stop offset="1" style="stop-color:#e77936;stop-opacity:0"/></linearGradient><linearGradient xlink:href="#a" id="e" x1="448.158" x2="448.158" y1="615.16" y2="563.452" gradientTransform="translate(.069 .298)" gradientUnits="userSpaceOnUse"/><linearGradient xlink:href="#b" id="f" x1="45.289" x2="45.289" y1="95.746" y2="48.769" gradientTransform="translate(452.134 577.361)scale(.36986)" gradientUnits="userSpaceOnUse"/><linearGradient xlink:href="#c" id="d" x1="33.01" x2="33.01" y1="63.644" y2="1.418" gradientTransform="translate(419.744 553.032)" gradientUnits="userSpaceOnUse"/><linearGradient xlink:href="#c" id="g" x1="451.075" x2="451.075" y1="614.415" y2="555.283" gradientTransform="translate(-.959)" gradientUnits="userSpaceOnUse"/></defs><g style="display:inline" transform="translate(-420.702 -553.032)"><path d="M474.359 586.778c-.557-.019-3.098.012-3.615.033l-.5 26.248c1.568-.279 5.63-.829 7.177-1.123 2.65-1.079 2.869-4.4 4.407-6.457 1.139-2.373 2.59-4.884 2.736-7.494-1.915-3.94-4.962-7.212-7.805-10.477-.69-.525-1.546-.695-2.4-.73" style="display:inline;fill:#fff;fill-opacity:1;fill-rule:evenodd;stroke:none;stroke-width:1px;stroke-linecap:butt;stroke-linejoin:miter;stroke-opacity:1"/><path d="M428.682 557.339c-12.064 13.02-9.894 35.673 4.356 46.213 12.185 10 31.402 8.677 42.408-2.496-3.328-3.273-6.336-2.538-10.25 2.689-12.25 8.653-35.18-4.837-38.596-19.105-2.34-7.899.136-16.738 5.787-22.643-2.325-.447-1.24-5.647-3.705-4.658" style="color:#000;clip-rule:nonzero;display:inline;overflow:visible;visibility:visible;opacity:1;isolation:auto;mix-blend-mode:normal;color-interpolation:sRGB;color-interpolation-filters:linearRGB;solid-color:#000;solid-opacity:1;fill:#fff;fill-opacity:1;fill-rule:nonzero;stroke:none;stroke-width:2;stroke-linecap:butt;stroke-linejoin:miter;stroke-miterlimit:4;stroke-dasharray:none;stroke-dashoffset:0;stroke-opacity:1;marker:none;color-rendering:auto;image-rendering:auto;shape-rendering:auto;text-rendering:auto"/><path d="M450.955 607.537c-6.358.63-14.897.098-19.022 5.623-2.69 5.098 4.13 3.34 7.565 3.549h34.677c.718-7.158-8.647-8.208-14.142-8.845a76 76 0 0 0-9.078-.327" style="color:#000;clip-rule:nonzero;display:inline;overflow:visible;visibility:visible;opacity:1;isolation:auto;mix-blend-mode:normal;color-interpolation:sRGB;color-interpolation-filters:linearRGB;solid-color:#000;solid-opacity:1;fill:#fff;fill-opacity:1;fill-rule:nonzero;stroke:none;stroke-width:2;stroke-linecap:butt;stroke-linejoin:miter;stroke-miterlimit:4;stroke-dasharray:none;stroke-dashoffset:0;stroke-opacity:1;marker:none;color-rendering:auto;image-rendering:auto;shape-rendering:auto;text-rendering:auto"/><rect width="3.872" height="4.84" x="450.845" y="607.394" rx="0" style="color:#000;clip-rule:nonzero;display:inline;overflow:visible;visibility:visible;opacity:1;isolation:auto;mix-blend-mode:normal;color-interpolation:sRGB;color-interpolation-filters:linearRGB;solid-color:#000;solid-opacity:1;fill:#e77936;fill-opacity:.97254902;fill-rule:nonzero;stroke:none;stroke-width:2;stroke-linecap:butt;stroke-linejoin:miter;stroke-miterlimit:4;stroke-dasharray:none;stroke-dashoffset:0;stroke-opacity:1;marker:none;color-rendering:auto;image-rendering:auto;shape-rendering:auto;text-rendering:auto"/><circle cx="452.652" cy="578.353" r="23.112" style="color:#000;clip-rule:nonzero;display:inline;overflow:visible;visibility:visible;opacity:1;isolation:auto;mix-blend-mode:normal;color-interpolation:sRGB;color-interpolation-filters:linearRGB;solid-color:#000;solid-opacity:1;fill:#fff;fill-opacity:1;fill-rule:nonzero;stroke:none;stroke-width:18.94767952;stroke-linecap:butt;stroke-linejoin:miter;stroke-miterlimit:4;stroke-dasharray:none;stroke-dashoffset:0;stroke-opacity:1;marker:none;color-rendering:auto;image-rendering:auto;shape-rendering:auto;text-rendering:auto"/><rect width="7.639" height="64.495" x="-92.969" y="697.048" rx="0" ry="0" style="color:#000;clip-rule:nonzero;display:inline;overflow:visible;visibility:visible;opacity:1;isolation:auto;mix-blend-mode:normal;color-interpolation:sRGB;color-interpolation-filters:linearRGB;solid-color:#000;solid-opacity:1;fill:#fff;fill-opacity:1;fill-rule:nonzero;stroke:none;stroke-width:2;stroke-linecap:butt;stroke-linejoin:miter;stroke-miterlimit:4;stroke-dasharray:none;stroke-dashoffset:0;stroke-opacity:1;marker:none;color-rendering:auto;image-rendering:auto;shape-rendering:auto;text-rendering:auto" transform="rotate(-45)"/><path d="m432.55 553.225-5.402 5.4.234.235c-10.575 13.199-8.054 34.55 5.657 44.691 2.561 2.102 5.435 3.7 8.476 4.815-3.791.583-7.34 1.792-9.582 4.795-2.689 5.098 4.13 3.34 7.565 3.548h34.677c.17-1.682-.224-3.024-.988-4.105 1.637-.244 3.32-.494 4.234-.668 2.65-1.079 2.869-4.4 4.407-6.457 1.139-2.373 2.59-4.884 2.736-7.494-1.915-3.94-4.962-7.212-7.805-10.477-.69-.525-1.546-.695-2.4-.73-.033-.001-.166.003-.211.002a23.1 23.1 0 0 0 1.615-8.428c0-12.764-10.347-23.111-23.111-23.111a23.1 23.1 0 0 0-13.615 4.47zm-1.047 9.756 2.18 2.18a23.1 23.1 0 0 0-4.142 13.191c-.001 12.765 10.346 23.113 23.11 23.113a23.1 23.1 0 0 0 13.179-4.158l2.826 2.826c-1.09.77-2.23 1.97-3.46 3.612-12.25 8.652-35.179-4.838-38.595-19.106-2.214-7.472-.115-15.783 4.902-21.658m38.891 42.166-.098 5.103c-1.905-.972-4.244-1.513-6.484-1.875a31.7 31.7 0 0 0 6.582-3.228" style="display:inline;fill:url(#d);fill-opacity:1;fill-rule:evenodd;stroke:none;stroke-width:1px;stroke-linecap:butt;stroke-linejoin:miter;stroke-opacity:1"/><path d="M430.202 558.64a30 30 0 0 0-7.43 19.713c0 16.573 13.435 30.009 30.009 30.009a30 30 0 0 0 19.724-7.42l-3.523-3.522a25.05 25.05 0 0 1-16.201 5.98c-13.834 0-25.048-11.214-25.048-25.048a25.04 25.04 0 0 1 5.965-16.216z" style="color:#000;clip-rule:nonzero;display:inline;overflow:visible;visibility:visible;opacity:1;isolation:auto;mix-blend-mode:normal;color-interpolation:sRGB;color-interpolation-filters:linearRGB;solid-color:#000;solid-opacity:1;fill:#e77936;fill-opacity:1;fill-rule:nonzero;stroke:none;stroke-width:2;stroke-linecap:butt;stroke-linejoin:miter;stroke-miterlimit:4;stroke-dasharray:none;stroke-dashoffset:0;stroke-opacity:1;marker:none;color-rendering:auto;image-rendering:auto;shape-rendering:auto;text-rendering:auto"/><rect width="4.728" height="60.745" x="-91.248" y="698.658" rx="0" ry="0" style="color:#000;clip-rule:nonzero;display:inline;overflow:visible;visibility:visible;opacity:1;isolation:auto;mix-blend-mode:normal;color-interpolation:sRGB;color-interpolation-filters:linearRGB;solid-color:#000;solid-opacity:1;fill:#e77936;fill-opacity:1;fill-rule:nonzero;stroke:none;stroke-width:2;stroke-linecap:butt;stroke-linejoin:miter;stroke-miterlimit:4;stroke-dasharray:none;stroke-dashoffset:0;stroke-opacity:1;marker:none;color-rendering:auto;image-rendering:auto;shape-rendering:auto;text-rendering:auto" transform="rotate(-45)"/><circle cx="452.652" cy="578.353" r="21.237" style="color:#000;clip-rule:nonzero;display:inline;overflow:visible;visibility:visible;opacity:1;isolation:auto;mix-blend-mode:normal;color-interpolation:sRGB;color-interpolation-filters:linearRGB;solid-color:#000;solid-opacity:1;fill:#e77935;fill-opacity:1;fill-rule:nonzero;stroke:none;stroke-width:18.94767952;stroke-linecap:butt;stroke-linejoin:miter;stroke-miterlimit:4;stroke-dasharray:none;stroke-dashoffset:0;stroke-opacity:1;marker:none;color-rendering:auto;image-rendering:auto;shape-rendering:auto;text-rendering:auto"/><path d="M472.142 615.074H433.42c0-3.872 9.68-5.808 19.36-5.808s19.362 1.936 19.362 5.808" style="color:#000;clip-rule:nonzero;display:inline;overflow:visible;visibility:visible;opacity:1;isolation:auto;mix-blend-mode:normal;color-interpolation:sRGB;color-interpolation-filters:linearRGB;solid-color:#000;solid-opacity:1;fill:#e77936;fill-opacity:1;fill-rule:nonzero;stroke:none;stroke-width:2;stroke-linecap:butt;stroke-linejoin:miter;stroke-miterlimit:4;stroke-dasharray:none;stroke-dashoffset:0;stroke-opacity:1;marker:none;color-rendering:auto;image-rendering:auto;shape-rendering:auto;text-rendering:auto"/><path d="m432.847 555.206-3.344 3.341.422.422a30 30 0 0 0-7.154 19.383c0 15.923 12.403 28.943 28.074 29.941v1.022c-8.991.242-17.426 2.147-17.426 5.76h38.723c0-3.613-8.434-5.518-17.426-5.76v-1.025a30 30 0 0 0 17.46-7.07l.28.28 3.344-3.343-6.568-6.569a21.24 21.24 0 0 0 4.656-13.236 21.237 21.237 0 0 0-21.236-21.236 21.24 21.24 0 0 0-13.25 4.644zm.586 7.271 2.639 2.639a21.24 21.24 0 0 0-4.656 13.236 21.237 21.237 0 0 0 21.236 21.238 21.24 21.24 0 0 0 13.25-4.644l2.74 2.74a25.04 25.04 0 0 1-15.861 5.715c-13.834 0-25.049-11.215-25.049-25.049a25.03 25.03 0 0 1 5.701-15.875" style="color:#000;clip-rule:nonzero;display:inline;overflow:visible;visibility:visible;opacity:1;isolation:auto;mix-blend-mode:normal;color-interpolation:sRGB;color-interpolation-filters:linearRGB;solid-color:#000;solid-opacity:1;fill:url(#e);fill-opacity:1;fill-rule:nonzero;stroke:none;stroke-width:2;stroke-linecap:butt;stroke-linejoin:miter;stroke-miterlimit:4;stroke-dasharray:none;stroke-dashoffset:0;stroke-opacity:1;marker:none;color-rendering:auto;image-rendering:auto;shape-rendering:auto;text-rendering:auto"/><path d="M460.96 569.236s-3.249-3.151-8.81-3.158c-5.562-.007-11.131 6.7-11.138 12.366-.007 5.664 3.238 12.172 11.843 12.182s12.598-4.495 11.14-14.988l-10.602 3.345 1.992 2.1 1.26-.313s2.095 2.625-1.054 3.041-5.98-.427-6.395-4.414 2.736-6.815 6.407-5.237z" style="display:inline;opacity:1;fill:#fff;fill-opacity:1;fill-rule:evenodd;stroke:none;stroke-width:18.94767952;stroke-linecap:butt;stroke-linejoin:miter;stroke-miterlimit:4;stroke-dasharray:none;stroke-opacity:1"/><path d="M457.137 602.064c.106.895 6.393 9.715 7.31 10.142.918.427 13.267-1.274 14.005-1.908s5.837-10.908 5.663-11.949c-.174-1.04-6.742-9.487-7.723-9.94-.98-.454-13.295.347-14.21.803-1.035.516-5.152 11.958-5.045 12.852" style="fill:#1a5694;fill-opacity:1;fill-rule:evenodd;stroke:none;stroke-width:1px;stroke-linecap:butt;stroke-linejoin:miter;stroke-opacity:1" transform="translate(-.959)"/><path d="M458.784 602.09c.113.932 5.75 8.338 6.59 8.76.842.422 11.296-1.116 11.952-1.698.655-.583 5.54-10.261 5.127-11.374-.413-1.112-5.872-7.749-6.885-8.114s-11.09.016-12.126.715-4.77 10.778-4.658 11.71" style="fill:#3f8cdf;fill-opacity:1;fill-rule:evenodd;stroke:none;stroke-width:1px;stroke-linecap:butt;stroke-linejoin:miter;stroke-opacity:1" transform="translate(-.959)"/><path d="M465.197 611.243c-.914-.046 4.942-11.955 5.498-12.506.557-.55 11.715-1.265 12.352-.628.636.636-5.008 11.156-5.587 11.597s-11.35 1.583-12.263 1.537" style="fill:#2e66a4;fill-opacity:1;fill-rule:evenodd;stroke:none;stroke-width:1px;stroke-linecap:butt;stroke-linejoin:miter;stroke-opacity:1" transform="translate(-.959)"/><path d="M462.8 590.818c2.122 2.995 6.667 7.467 6.9 8.535.232 1.069-3.433 7.766-5.41 11.714l1.805.54c1.296-4.317 3.942-11.254 4.84-11.952.898-.7 11.863-1.412 12.648-.866s-1.086-1.618-1.086-1.618c-3.85.8-11.17 1.243-12.077.977-.907-.265-4.582-5.87-6.59-8.334z" style="fill:#1a5694;fill-opacity:1;fill-rule:evenodd;stroke:none;stroke-width:1px;stroke-linecap:butt;stroke-linejoin:miter;stroke-opacity:1" transform="translate(-.959)"/><path d="M473.892 594.849c-1.933-.158-3.06-2.51-1.127-2.354s3.06 2.512 1.127 2.354M464.441 595.628c.16 1.933-1.974 3.43-2.137 1.496-.163-1.932 1.977-3.43 2.137-1.496M462.258 600.36c.16 1.932-1.975 3.429-2.138 1.496s1.978-3.43 2.138-1.497M467.457 599.735c.16 1.933-1.975 3.43-2.137 1.497-.163-1.933 1.977-3.43 2.137-1.497M465.222 604.519c.16 1.933-1.975 3.43-2.138 1.497s1.977-3.43 2.138-1.497" style="color:#000;display:inline;overflow:visible;visibility:visible;opacity:1;fill:#c0d5eb;fill-opacity:1;fill-rule:nonzero;stroke:none;stroke-width:1;stroke-linecap:round;stroke-linejoin:round;stroke-miterlimit:4;stroke-dasharray:none;stroke-dashoffset:0;stroke-opacity:1;marker:none" transform="translate(-.959)"/><path d="M477.292 606.687c-.17 1.932-2.528 3.044-2.36 1.112.167-1.932 2.53-3.045 2.36-1.112M473.868 602.048c-.282 1.92-2.7 2.893-2.421.974.279-1.92 2.703-2.893 2.42-.974" style="color:#000;display:inline;overflow:visible;visibility:visible;opacity:1;fill:#97bbdf;fill-opacity:1;fill-rule:nonzero;stroke:none;stroke-width:1;stroke-linecap:round;stroke-linejoin:round;stroke-miterlimit:4;stroke-dasharray:none;stroke-dashoffset:0;stroke-opacity:1;marker:none" transform="translate(-.959)"/><path d="M457.137 602.064c.106.895 6.393 9.715 7.31 10.142.918.427 13.267-1.274 14.005-1.908s5.837-10.908 5.663-11.949c-.174-1.04-6.742-9.487-7.723-9.94-.98-.454-13.295.347-14.21.803-1.035.516-5.152 11.958-5.045 12.852" style="display:inline;fill:url(#f);fill-opacity:1;fill-rule:evenodd;stroke:none;stroke-width:1px;stroke-linecap:butt;stroke-linejoin:miter;stroke-opacity:1" transform="translate(-.959)"/><path d="M460.96 569.236s-3.249-3.151-8.81-3.158c-5.562-.007-11.131 6.7-11.138 12.366-.007 5.664 3.238 12.172 11.843 12.182s12.598-4.495 11.14-14.988l-10.602 3.345 1.992 2.1 1.26-.313s2.095 2.625-1.054 3.041-5.98-.427-6.395-4.414 2.736-6.815 6.407-5.237z" style="display:inline;opacity:1;fill:url(#g);fill-opacity:1;fill-rule:evenodd;stroke:none;stroke-width:18.94767952;stroke-linecap:butt;stroke-linejoin:miter;stroke-miterlimit:4;stroke-dasharray:none;stroke-opacity:1"/></g></svg>