<svg xmlns="http://www.w3.org/2000/svg" width="48" height="48" viewBox="0 0 12.7 12.7"><rect width="11.112" height="11.112" x=".794" y=".794" fill="#f2f2f2" rx="7.409" ry="7.409" style="stroke-width:1"/><g stroke-linecap="round" stroke-linejoin="round" stroke-opacity=".35" stroke-width=".075" opacity=".25" transform="matrix(.74997 0 0 .74997 0 .205)"><rect width="12.171" height=".132" x="2.381" y="3.969" opacity=".75" rx=".088" ry=".088" style="opacity:1;fill:gray;fill-opacity:1;stroke-width:.133345"/><rect width="12.171" height=".132" x="2.381" y="6.085" opacity=".75" rx=".088" ry=".088" style="opacity:1;fill:gray;fill-opacity:1;stroke-width:.133345"/><rect width="12.171" height=".132" x="2.381" y="8.202" opacity=".75" rx=".088" ry=".088" style="stroke-width:.133345"/><rect width="12.171" height=".132" x="2.381" y="10.054" opacity=".75" rx=".088" ry=".088" style="stroke-width:.133345"/><rect width="12.171" height=".132" x="2.381" y="12.171" opacity=".75" rx=".088" ry=".088" style="stroke-width:.133345"/></g><path fill="#80878a" fill-opacity=".938" d="M8.088 3.067s.154-.375.223-.388c.07-.013-.16.406-.16.406z" style="stroke-width:.999993"/><path fill="#54728f" fill-opacity=".998" d="M8.141 3.057s.11-.308.118-.325c.009-.018.065-.074.086-.078a.34.34 0 0 1 .216.068c.074.065.117.073.108.17s-.528.165-.528.165" style="stroke-width:.999993"/><path fill="#8bb0d8" d="M8.14 3.057s.125.018.25.095l.265-.3s-.046-.08-.219-.121c-.09-.023-.128.004-.138.039z" style="stroke-width:.999993"/><path fill="#32475c" d="m8.067 3.138.105.015-.01.08-.106-.014z" style="stroke-width:.999993"/><path fill="#817160" d="m6.926 5.581.06-.277 1.047-2.235-.009-.027.02.013v-.002l.013.002.034.021.002.075-.027.06.006.143-.086.185-.068.008-.161.409-.73 1.588s.031.058-.1.038z" style="stroke-width:.999993"/><path fill="#797878" d="M6.962 5.494s-.013.066-.008.07c.005.006.075-.046.075-.046l-.02.128.023-.004.424-.915.45-.996.014-.086.062-.099.082-.181.062-.143.041-.044.145.005-.173.47-1.01 2.099-.225.024-.044-.154z" style="stroke-width:.999993"/><path fill="#8d8d85" fill-opacity=".99" d="M8.448 3.31s.03-.054.097-.044c.066.008.082.158.027.21-.054.05-.124-.166-.124-.166z" style="stroke-width:.999993"/><path fill="#9e9e9e" d="m5.26 10.215.857-1.217-.107-.079s.007.021-.006.045c-.014.027-.745 1.25-.745 1.25z" style="stroke-width:.999993"/><path fill="#5c5956" d="M5.97 9.03c.017-.015.064-.087.045-.105a.36.36 0 0 0-.17-.093s.005.03-.042.046-.122-.008-.122-.008v.094l.166.051z" style="stroke-width:.999993"/><path fill="#898a8b" d="M6.766 5.451c-.004.044.002.06.022.069s.025.05.016.097c-.009.046.145-.061.145-.061l.02-.082z" style="stroke-width:.999993"/><path fill="#b3d5f0" d="M6.789 5.49c.104.03.14.04.177.007.052-.041.58-1.283.58-1.283l.515-1.113s.003-.083-.087-.09c-.09-.008-.118-.016-.177.109S6.831 5.313 6.8 5.363s-.055.11-.011.123zm1.57-2.762c-.005.003-.17.334-.17.334s.041.007.06.017c.02.01.155-.337.155-.337z" style="stroke-width:.999993"/><path fill="#718ea5" d="M7 5.563c-.033.042-.05.079-.025.08.024.002.045.023.059.009s.187-.36.187-.36.7-1.536.701-1.563.007-.07.017-.08a.4.4 0 0 0 .045-.081c.002-.014.122-.272.127-.29s.043-.05.027-.064c-.017-.014-.042-.037-.059-.028-.016.01-.061.096-.047.114a.4.4 0 0 1 .032.052l-.086.177s-.04-.007-.06.012c-.02.016-.067.143-.095.214a32 32 0 0 1-.367.8c-.026.051-.4.917-.456 1.008" style="stroke-width:.999993"/><path fill="#b3d5f0" d="M8.162 3.218c.016-.007.037.034.034.06a32 32 0 0 1-.498 1.14c-.055.105-.285.64-.285.64l-.48 1.067-.351.788s-.045-.038-.07-.042c-.023-.003.676-1.451.676-1.451l.729-1.632.029-.092z" style="stroke-width:.999993"/><path fill="#939394" d="m6.93 7.133.036-.07 1.212-2.736-1.306 2.744Z" style="stroke-width:.999993"/><path fill="#d2f2ff" d="M6.395 6.852c.116.023.12.016.12.016l.58-1.236s-.037.088-.158.038l-.01-.034-.226.539s-.379.667-.306.677m1.782-3.62c-.012-.02-.017-.047.003-.06s.053-.017.065.023c.01.04-.053.13-.054.102 0-.028-.014-.064-.014-.064zm.068-.161s.03.028.053.025c.023-.005.18-.31.167-.34-.014-.028-.053-.033-.063-.014-.011.017-.17.321-.157.329M5.593 8.738s-.075.01-.098.054a72 72 0 0 0-.421 1.329l.088.023s.534-1.21.536-1.242c.001-.032-.043-.141-.105-.161z" style="stroke-width:.999993"/><path fill="#a6c9e5" d="M5.642 8.767s.185.044.208.07-.07.062-.14.042c-.07-.025-.068-.112-.068-.112m-.145.031s.089-.026.083-.047-.071-.042-.096-.029-.424 1.412-.424 1.412.012-.002.02-.018.386-1.277.417-1.319z" style="stroke-width:.999993"/><path fill="#5a5b60" d="m5.14 10.14.053.032.65-1.237-.136-.035Z" style="stroke-width:.999993"/><path fill="#592628" d="m5.184 10.174.653-1.242.074.045-.704 1.22Z" style="stroke-width:.999993"/><path fill="#373d42" d="M5.897 8.972c.005.001.08.05.08.05L5.223 10.2l-.019-.003z" style="stroke-width:.999993"/><path fill="#62594f" fill-opacity=".947" d="M5.259 10.215s.275-.447.308-.505c.034-.059.42-.699.42-.699s-.67 1.027-.75 1.16l-.01.02z" style="stroke-width:.999993"/><path fill="#cdccc2" d="M5.853 8.85c.025.006.044.032.012.048-.031.016-.085 0-.057-.023l.045-.028z" style="stroke-width:.999993"/><path fill="#e4c7a5" d="M5.903 8.931c-.013-.02-.02-.051-.005-.056.015-.007.054.032.035.05s-.03.009-.03.009z" style="stroke-width:.999993"/><path fill="#d2dde4" d="m5.374 8.714.889-1.887.07.021-.874 1.895Z" style="stroke-width:.999993"/><path fill="#c2e0f1" d="m5.452 8.74.109-.002.29-.712.555-1.173-.081-.006Z" style="stroke-width:.999993"/><path fill="#d5d8d9" d="m5.55 8.738.107.036.248-.37.692-1.485-.085-.05-.116-.011s-.666 1.337-.849 1.867z" style="stroke-width:.999993"/><path fill="#aecbe5" d="m5.656 8.772.198.065.377-.785.516-1.047-.155-.093-.913 1.828Z" style="stroke-width:.999993"/><path fill="#af9a81" d="m5.853 8.836.15.077.857-1.841-.127-.074z" style="stroke-width:.999993"/><path fill="#9d9d9c" d="m5.989 8.896.097.107.03-.004.802-1.805.033-.113-.1-.017z" style="stroke-width:.999993"/><path fill="#8fb1ce" d="m6.323 6.84.587-1.273.04-.013-.03.116-.527 1.192Z" style="stroke-width:.999993"/><path fill="#a7a7a8" d="m6.263 6.827.564-1.28.098.014-.603 1.283Z" style="stroke-width:.999993"/><path fill="#97b4cf" d="M8.201 3.305s.064-.077.04-.124c-.023-.047-.084.015-.084.015a.3.3 0 0 0-.067-.04s-.002-.098-.04-.103c0 0 .26.031.502.217 0 0-.16-.095-.285.223a52 52 0 0 1-.672 1.49l-.903 1.993-.11-.072Z" style="stroke-width:.999993"/><path fill="#c6c4b9" d="M6.679 6.963s.023.035.055.037c0 0 1.615-3.601 1.66-3.633.045-.031.06-.097.154-.1 0 0-.09-.057-.197.066-.106.124-.28.598-.28.598Z" style="stroke-width:.999993"/><path fill="#dfc5a3" d="m6.723 6.999.085.042S8.429 3.46 8.448 3.43a.26.26 0 0 1 .142-.09s-.073-.061-.142-.032c-.069.03-.136.198-.136.198z" style="stroke-width:.999993"/><path fill="#7a6e5e" d="M6.796 7.03c.015.017.018.049.081.041l.828-1.733s.862-1.833.871-1.872.02-.128-.025-.117c-.045.012-.11.063-.115.082-.006.018-1.593 3.492-1.64 3.6" style="stroke-width:.999993"/><path fill="#43474a" d="M6.856 7.067c.015-.005 1.677-3.618 1.659-3.634s-.029.01-.045.034c-.017.025-1.644 3.579-1.644 3.579-.005.015.006.017.03.021z" style="stroke-width:.999993"/><path fill="none" stroke="#000" stroke-opacity=".734" stroke-width=".187" d="M7.018 5.64s.842-1.857.852-1.89c.01-.034 0-.084.016-.1l.027-.03"/><path fill="#2b0e10" d="M7.913 3.562c.02-.014.057-.006.048.02-.01.023-.013.048-.035.045-.024-.003-.036-.01-.013-.064z" opacity=".716" style="stroke-width:.999993"/><path fill="#7a6e5e" d="m8.422 3.165.094.059s.148-.305.151-.33a.1.1 0 0 0-.011-.05h-.069z" style="stroke-width:.999993"/><path fill="#dfc5a3" d="M8.403 3.16c.013-.068.16-.323.18-.332.018-.01.077-.018.081.036 0 0-.042-.036-.078.024s-.124.285-.137.285c-.013.001-.05.004-.046-.013" style="stroke-width:.999993"/><path fill="#43474a" d="m8.47 3.178.112-.214-.1.226Z" style="stroke-width:.999993"/><path fill="#c6c4b9" d="M8.37 3.142s.153-.308.175-.33c.023-.023.072-.012.092.012 0 0-.046-.01-.064.016s-.17.325-.17.325z" style="stroke-width:.999993"/><path fill="#1e1d28" d="M8.007 3.022s.41.033.555.253c0 0-.18-.115-.277-.153a2 2 0 0 0-.239-.067s-.013-.021-.039-.033" style="stroke-width:.999993"/><rect width="6.335" height=".099" x="3.147" y="10.582" opacity=".75" rx=".066" ry=".066" style="opacity:.400662;fill:gray;fill-opacity:1;stroke-width:1"/><rect width="3.177" height=".099" x="3.505" y="1.991" opacity=".75" rx=".066" ry=".066" style="opacity:.343267;fill:gray;fill-opacity:1;stroke-width:1"/></svg>