<svg xmlns="http://www.w3.org/2000/svg" xmlns:xlink="http://www.w3.org/1999/xlink" width="48" height="48"><defs><linearGradient id="b"><stop offset="0" style="stop-color:#000;stop-opacity:1"/><stop offset="1" style="stop-color:#000;stop-opacity:0"/></linearGradient><linearGradient id="a"><stop offset="0" style="stop-color:#ef4728;stop-opacity:1"/><stop offset="1" style="stop-color:#f37760;stop-opacity:1"/></linearGradient><linearGradient xlink:href="#a" id="c" x1="759.144" x2="727.197" y1="712.845" y2="705.482" gradientUnits="userSpaceOnUse"/><linearGradient xlink:href="#b" id="d" x1="21.974" x2="39.379" y1="13.094" y2="30.499" gradientUnits="userSpaceOnUse"/><linearGradient xlink:href="#b" id="e" x1="21.949" x2="34.498" y1="22.741" y2="35.291" gradientUnits="userSpaceOnUse"/></defs><g transform="translate(0 -1004.362)"><path d="M733.282 694.69h21.701a4.64 4.64 0 0 1 4.65 4.65v21.702a4.64 4.64 0 0 1-4.65 4.65h-21.701a4.64 4.64 0 0 1-4.65-4.65V699.34a4.64 4.64 0 0 1 4.65-4.65" style="opacity:1;fill:url(#c);fill-opacity:1;stroke:none;stroke-width:2;stroke-linecap:round;stroke-linejoin:round;stroke-miterlimit:4;stroke-dasharray:none;stroke-opacity:1" transform="rotate(45)"/><path d="M15 30.5c-2 0-3.516-.5-3.5 3s1.5 2.984 3.5 3M22.5 28c.021 8-.5 8.537 2.5 8.5M27 30.5c4-.001 3.5.5 3.5 6H30c-2 0-3.463.5-3.5-1.5s1.5-1.475 3.5-1.5M18.008 30.49c1 .017 2.516-.49 2.5 3.01s-1.5 3.002-2.5 3M19 30.49c-1 .017-2.516-.49-2.5 3.01s1.5 3.002 2.5 3" style="fill:none;stroke:#fff;stroke-width:1px;stroke-linecap:butt;stroke-linejoin:miter;stroke-opacity:1" transform="rotate(45 -1189.917 528.795)"/><path d="m18 1013.362 13 12M24 1029.362v-10" style="fill:none;stroke:#fff;stroke-width:2;stroke-linecap:butt;stroke-linejoin:miter;stroke-opacity:1;stroke-miterlimit:4;stroke-dasharray:none;opacity:.5"/><path d="m25.975 12.723-4.246 4.246 15.61 15.613.497-.496 3.752-3.752.496-.496-9.06-9.06-.497.495z" style="opacity:.2;fill:url(#d);fill-opacity:1;stroke:none;stroke-width:2;stroke-linecap:round;stroke-linejoin:round;stroke-miterlimit:4;stroke-dasharray:none;stroke-opacity:1" transform="translate(0 1004.362)"/><path d="m26.033 22.773-4.248 4.248 10.559 10.557 4.246-4.246z" style="opacity:.2;fill:url(#e);fill-opacity:1;stroke:none;stroke-width:2;stroke-linecap:round;stroke-linejoin:round;stroke-miterlimit:4;stroke-dasharray:none;stroke-opacity:1" transform="translate(0 1004.362)"/><path d="M4.049 23.5a4.62 4.62 0 0 0 1.318 3.79l15.344 15.343a4.64 4.64 0 0 0 6.578 0l15.344-15.344A4.62 4.62 0 0 0 43.95 23.5a4.6 4.6 0 0 1-1.318 2.79L27.289 41.632a4.64 4.64 0 0 1-6.578 0L5.367 26.289A4.6 4.6 0 0 1 4.05 23.5" style="opacity:.15;fill:#000;fill-opacity:1;stroke:none;stroke-width:2;stroke-linecap:round;stroke-linejoin:round;stroke-miterlimit:4;stroke-dasharray:none;stroke-opacity:1" transform="translate(0 1004.362)"/><circle cx="24" cy="1019.362" r="3" style="opacity:1;fill:#fff;fill-opacity:1;stroke:none;stroke-width:2;stroke-linecap:round;stroke-linejoin:round;stroke-miterlimit:4;stroke-dasharray:none;stroke-opacity:1"/><circle cx="31" cy="1025.362" r="3" style="opacity:1;fill:#fff;fill-opacity:1;stroke:none;stroke-width:2;stroke-linecap:round;stroke-linejoin:round;stroke-miterlimit:4;stroke-dasharray:none;stroke-opacity:1"/><circle cx="24" cy="1029.362" r="3" style="opacity:1;fill:#fff;fill-opacity:1;stroke:none;stroke-width:2;stroke-linecap:round;stroke-linejoin:round;stroke-miterlimit:4;stroke-dasharray:none;stroke-opacity:1"/></g></svg>