<svg xmlns="http://www.w3.org/2000/svg" xmlns:xlink="http://www.w3.org/1999/xlink" width="48" height="48"><defs><linearGradient id="b"><stop offset="0" style="stop-color:#31363b;stop-opacity:.404"/><stop offset="1" style="stop-color:#31363b;stop-opacity:0"/></linearGradient><linearGradient id="a"><stop offset="0" style="stop-color:#31363b;stop-opacity:.208"/><stop offset="1" style="stop-color:#31363b;stop-opacity:0"/></linearGradient><linearGradient xlink:href="#a" id="c" x1="23" x2="37" y1="1034.362" y2="1048.362" gradientUnits="userSpaceOnUse"/><linearGradient xlink:href="#a" id="d" x1="23" x2="36" y1="1034.362" y2="1047.362" gradientTransform="translate(0 -8)" gradientUnits="userSpaceOnUse"/><linearGradient xlink:href="#a" id="e" x1="23" x2="36" y1="1034.362" y2="1047.362" gradientTransform="translate(0 -19)" gradientUnits="userSpaceOnUse"/><linearGradient xlink:href="#a" id="f" x1="23" x2="36" y1="1034.362" y2="1047.362" gradientTransform="translate(-6 -22)" gradientUnits="userSpaceOnUse"/><linearGradient xlink:href="#b" id="g" x1="23" x2="30" y1="1034.362" y2="1041.362" gradientTransform="translate(-10)" gradientUnits="userSpaceOnUse"/><linearGradient xlink:href="#b" id="h" x1="23" x2="28" y1="1034.362" y2="1039.362" gradientTransform="translate(-5 3)" gradientUnits="userSpaceOnUse"/></defs><path d="M4 1008.36h40v40H4z" style="fill:#eff0f1;fill-opacity:1;stroke:none;stroke-width:1;stroke-linecap:round;stroke-linejoin:round;stroke-miterlimit:4;stroke-dasharray:none;stroke-opacity:1" transform="translate(0 -1004.362)"/><path d="M4 1047.36h40v1H4z" style="fill:#232629;fill-opacity:.40000001;stroke:none;stroke-width:1;stroke-linecap:round;stroke-linejoin:round;stroke-miterlimit:4;stroke-dasharray:none;stroke-opacity:1" transform="translate(0 -1004.362)"/><path d="m8 1044.362 4 4h25l-14-14v10z" style="fill:url(#c);fill-rule:evenodd;stroke:none;stroke-width:1px;stroke-linecap:butt;stroke-linejoin:miter;stroke-opacity:1;fill-opacity:1" transform="translate(0 -1004.362)"/><path d="m8 1029.362 7 7 8-2 14 14v-8l-14-14v3z" style="fill:url(#d);fill-opacity:1;fill-rule:evenodd;stroke:none;stroke-width:1px;stroke-linecap:butt;stroke-linejoin:miter;stroke-opacity:1" transform="translate(0 -1004.362)"/><path d="m8 1018.362 8 8h7l14 14v-11l-14-14v3h-6v3h-3v-3z" style="fill:url(#e);fill-opacity:1;fill-rule:evenodd;stroke:none;stroke-width:1px;stroke-linecap:butt;stroke-linejoin:miter;stroke-opacity:1" transform="translate(0 -1004.362)"/><path d="m20 1015.362-3-3v3z" style="fill:url(#f);fill-opacity:1;fill-rule:evenodd;stroke:none;stroke-width:1px;stroke-linecap:butt;stroke-linejoin:miter;stroke-opacity:1" transform="translate(0 -1004.362)"/><path d="M11 1037.362v4h6l-2-2v-3l-2-2v3z" style="fill:url(#g);fill-opacity:1;fill-rule:evenodd;stroke:none;stroke-width:1px;stroke-linecap:butt;stroke-linejoin:miter;stroke-opacity:1" transform="translate(0 -1004.362)"/><path d="M14 1012.362v3H8v3h6v3h3v-3h6v-3h-6v-3z" style="fill:#ed1515;fill-opacity:1;stroke:none;stroke-width:1;stroke-linecap:round;stroke-linejoin:round;stroke-miterlimit:4;stroke-dasharray:none;stroke-opacity:1" transform="translate(0 -1004.362)"/><path d="M8 1026.36h15v3H8z" style="fill:#11d116;fill-opacity:1;stroke:none;stroke-width:1;stroke-linecap:round;stroke-linejoin:round;stroke-miterlimit:4;stroke-dasharray:none;stroke-opacity:1" transform="translate(0 -1004.362)"/><path d="M8 1034.362v10h15v-10h-8v5h3v-2h2v4h-9v-4h2v-3z" style="fill:#31363b;fill-opacity:1;fill-rule:evenodd;stroke:none;stroke-width:1px;stroke-linecap:butt;stroke-linejoin:miter;stroke-opacity:1" transform="translate(0 -1004.362)"/><path d="m15 1039.362 2 2h3v-4h-2v2z" style="fill:url(#h);fill-opacity:1;fill-rule:evenodd;stroke:none;stroke-width:1px;stroke-linecap:butt;stroke-linejoin:miter;stroke-opacity:1" transform="translate(0 -1004.362)"/></svg>