<svg xmlns="http://www.w3.org/2000/svg" xmlns:xlink="http://www.w3.org/1999/xlink" width="48" height="48"><defs><linearGradient id="d"><stop offset="0" style="stop-color:#31384f;stop-opacity:1"/><stop offset=".494" style="stop-color:#4f597d;stop-opacity:1"/><stop offset="1" style="stop-color:#44506e;stop-opacity:1"/></linearGradient><linearGradient xlink:href="#d" id="e" x1="10" x2="40" y1="10" y2="35" gradientUnits="userSpaceOnUse"/></defs><rect width="41.998" height="42" x="3" y="3" rx="20.999" ry="21" style="fill-opacity:1;fill:url(#e)"/><path fill="#fff" d="M35.475 11.27c-.665-.03-2.54.192-5.472 2.23-1.64-.494-3.51-.677-5.462-.672-1.785.004-3.635.15-5.435.673-2.931-2.04-4.43-2.26-5.096-2.229-.222.01-.33.044-.33.044-1.114 2.892-.409 5.03-.198 5.562-1.309 1.467-2.077 3.341-2.077 5.634 0 8.05 5.216 9.854 9.76 10.383-.584.525-.951 1.61-1.137 2.967-1.166.538-4.295 1.854-6.12-1.356 0 0-1.08-2.018-3.135-2.166 0 0-1.997-.026-.139 1.277 0 0 1.342.646 2.273 3.074 0 0 1.383 3.694 7.076 2.425.006.985.01 3.47.015 5.247 1.902.437 2.902.337 4.902.337 2.173 0 3 0 5.245-.737.006-2.167.012-5.526.012-7.194 0-1.958-.81-3.24-1.544-3.89 4.559-.519 9.345-2.297 9.345-10.367 0-2.293-.638-4.168-1.95-5.636.21-.532.915-2.669-.202-5.56 0 0-.108-.036-.33-.046z"/></svg>