<svg xmlns="http://www.w3.org/2000/svg" xmlns:xlink="http://www.w3.org/1999/xlink" width="48" height="48" viewBox="0 0 12.7 12.7"><defs><linearGradient id="l"><stop offset="0" style="stop-color:#ba1e02;stop-opacity:1"/><stop offset="1" style="stop-color:#ba1e02;stop-opacity:0"/></linearGradient><linearGradient id="k"><stop offset="0" style="stop-color:#ba1e02;stop-opacity:1"/><stop offset="1" style="stop-color:#ba1e02;stop-opacity:0"/></linearGradient><linearGradient id="j"><stop offset="0" style="stop-color:#ba1e02;stop-opacity:.70068027"/><stop offset="1" style="stop-color:#ba1e02;stop-opacity:0"/></linearGradient><linearGradient id="i"><stop offset="0" style="stop-color:#ba1e02;stop-opacity:1"/><stop offset="1" style="stop-color:#ba1e02;stop-opacity:0"/></linearGradient><linearGradient id="h"><stop offset="0" style="stop-color:#ba1e02;stop-opacity:1"/><stop offset="1" style="stop-color:#ba1e02;stop-opacity:0"/></linearGradient><linearGradient id="g"><stop offset="0" style="stop-color:#ba1e02;stop-opacity:.494"/><stop offset="1" style="stop-color:#ba1e02;stop-opacity:0"/></linearGradient><linearGradient id="f"><stop offset="0" style="stop-color:#ba1e02;stop-opacity:1"/><stop offset="1" style="stop-color:#ba1e02;stop-opacity:0"/></linearGradient><linearGradient id="e"><stop offset="0" style="stop-color:#cc2102;stop-opacity:1"/><stop offset="1" style="stop-color:#ba1e02;stop-opacity:0"/></linearGradient><linearGradient id="d"><stop offset="0" style="stop-color:#a02c5a;stop-opacity:1"/><stop offset="1" style="stop-color:#fd8134;stop-opacity:1"/></linearGradient><linearGradient id="c"><stop offset="0" style="stop-color:#c83771;stop-opacity:1"/><stop offset="1" style="stop-color:#f0f;stop-opacity:1"/></linearGradient><linearGradient id="b"><stop offset="0" style="stop-color:#c83771;stop-opacity:1"/><stop offset="1" style="stop-color:#fa8630;stop-opacity:1"/></linearGradient><linearGradient xlink:href="#b" id="m" x1="-14.458" x2="11.765" y1="291.798" y2="291.75" gradientTransform="translate(48.475 -10.867)" gradientUnits="userSpaceOnUse"/><linearGradient xlink:href="#b" id="p" x1="15.439" x2="15.439" y1="298.252" y2="281.857" gradientTransform="translate(34.821 -2.551)" gradientUnits="userSpaceOnUse"/><linearGradient xlink:href="#c" id="s" x1="58.057" x2="58.205" y1="306.066" y2="286.422" gradientUnits="userSpaceOnUse"/><linearGradient xlink:href="#d" id="u" x1="60.576" x2="59.466" y1="301.109" y2="286.277" gradientTransform="matrix(3.77953 0 0 3.77953 0 -1058.52)" gradientUnits="userSpaceOnUse"/><linearGradient xlink:href="#e" id="n" x1="33.008" x2="43.089" y1="286.925" y2="280.038" gradientTransform="matrix(3.77953 0 0 3.77953 0 -1058.52)" gradientUnits="userSpaceOnUse"/><linearGradient xlink:href="#f" id="o" x1="153.787" x2="190.178" y1="16.406" y2="-15.202" gradientUnits="userSpaceOnUse"/><linearGradient xlink:href="#g" id="q" x1="34.862" x2="40.821" y1="300.195" y2="287.598" gradientTransform="matrix(3.77953 0 0 3.77953 0 -1058.52)" gradientUnits="userSpaceOnUse"/><linearGradient xlink:href="#h" id="r" x1="154.677" x2="172.617" y1="61.633" y2="11.883" gradientUnits="userSpaceOnUse"/><linearGradient xlink:href="#i" id="t" x1="146.035" x2="188.329" y1="26.679" y2="62.75" gradientUnits="userSpaceOnUse"/><linearGradient xlink:href="#j" id="v" x1="48.876" x2="48.297" y1="289.005" y2="292.69" gradientTransform="matrix(3.77953 0 0 3.77953 0 -1058.52)" gradientUnits="userSpaceOnUse"/><linearGradient xlink:href="#k" id="w" x1="52.09" x2="52.917" y1="289.299" y2="287.74" gradientTransform="matrix(3.77953 0 0 3.77953 0 -1058.52)" gradientUnits="userSpaceOnUse"/><linearGradient xlink:href="#l" id="x" x1="163.444" x2="223.951" y1="24.562" y2="60.381" gradientUnits="userSpaceOnUse"/></defs><path d="M43.09 280.038c4.505-4.563 10.342-5.017 14.233-3.481 4.02 1.587 8.643 5.703 9.91 11.56-.84-12.44-12.057-15.685-16.725-15.648-6.461.051-16.471 5.028-16.49 16.924 1.41-5.154 4.773-7.844 9.071-9.355" style="fill:url(#m);fill-opacity:1;stroke:none;stroke-width:.264583px;stroke-linecap:butt;stroke-linejoin:miter;stroke-opacity:1" transform="matrix(.33452 0 0 .3303 -10.584 -89.2)"/><path d="M165.137-2.285c-8.785.262-21.197 3.342-30.623 9.47-3.694 7.909-5.924 17.219-5.942 28.065C133.9 15.77 146.61 5.602 162.857-.107c.75-.76 1.512-1.478 2.28-2.178" style="fill:url(#n);fill-opacity:1;stroke:none;stroke-width:1px;stroke-linecap:butt;stroke-linejoin:miter;stroke-opacity:1" transform="matrix(.0885 0 0 .08739 -10.584 3.303)"/><path d="M195.55-18.852c-15.709-.386-29.773 7.79-42.478 23.028a69.4 69.4 0 0 1 9.785-4.283c17.03-17.248 39.091-18.963 53.8-13.159.685.27 1.378.584 2.072.893l.199-.055c-8.18-4.152-15.961-6.241-23.377-6.424" style="opacity:.714;fill:url(#o);fill-opacity:1;stroke:none;stroke-width:1px;stroke-linecap:butt;stroke-linejoin:miter;stroke-opacity:1" transform="matrix(.0885 0 0 .08739 -10.584 3.303)"/><path d="M40.16 302.055c-6.79-6.445-7.848-13.989-3.701-18.73 3.405-3.895 9.969-4.65 19.326-1.475 1.823.618 3.838-1.656.486-4.032 4.863 1.28 2.671 6.048-1.451 5.724-4.541-.356-13.01-1.357-13.999 4.056z" style="fill:url(#p);fill-opacity:1;stroke:none;stroke-width:.264583px;stroke-linecap:butt;stroke-linejoin:miter;stroke-opacity:1" transform="matrix(.33452 0 0 .3303 -10.584 -89.2)"/><path d="M154.813 26.34c-13.173 6.56-20.231 15.882-23.026 27.931 3.393 9.12 9.488 18.426 18.371 27.24.863-2.138 1.527-4.918 2.07-8.097l2.057-44.95a19 19 0 0 1 .527-2.124" style="fill:url(#q);fill-opacity:1;stroke:none;stroke-width:1px;stroke-linecap:butt;stroke-linejoin:miter;stroke-opacity:1" transform="matrix(.0885 0 0 .08739 -10.584 3.303)"/><path d="M178.795 10.281c-16.441-.277-33.874 7.58-32.07 32.506l7.125-4.816.435-9.506c2.753-15.065 20.826-16.975 37.02-16.402a51.1 51.1 0 0 0-12.51-1.782" style="fill:url(#r);fill-opacity:1;stroke:none;stroke-width:1px;stroke-linecap:butt;stroke-linejoin:miter;stroke-opacity:1" transform="matrix(.0885 0 0 .08739 -10.584 3.303)"/><path d="M64.956 284.905c.8 1.86 1.668 4.478 1.668 6.632 0 8.494-7.264 14.576-15.757 14.576-4.139 0-7.943-1.399-10.707-4.058-1.562-1.145-6.117-7.056-.467-13.367 1.088-1.215 4.418-2.572 7.932-1.678 6.385 1.624 14.053 4.486 15.927-.213-.11 3.081-3.322 4.071-6.256 4.339-6.692.61-13.428-2.61-13.476 1.888-.051.722.337 1.338.74 1.761 1.568 1.625 5.626 3.79 11.197 2.445 7.123-1.718 9.145-8.19 9.2-12.325" style="opacity:1;fill:url(#s);fill-opacity:1;stroke:none;stroke-width:3.28232;stroke-linecap:round;stroke-linejoin:round;stroke-miterlimit:4;stroke-dasharray:none;stroke-opacity:.0109489" transform="matrix(.33452 0 0 .3303 -10.584 -89.2)"/><path d="M172.266 36.146c-9.29-.121-16.51 3.005-17.592 14.276-1.095 11.405 11.14 27.64 44.611 36.793l6.803-21.424c-18.657 2.933-32.192-4.482-37.672-10.162-1.523-1.6-2.992-3.929-2.797-6.654.16-14.91 19.759-7.387 41.639-6.866-10.06-1.117-23.976-5.818-34.992-5.963" style="opacity:.592;fill:url(#t);fill-opacity:1;stroke:none;stroke-width:1px;stroke-linecap:butt;stroke-linejoin:miter;stroke-opacity:1" transform="matrix(.0885 0 0 .08739 -10.584 3.303)"/><path d="M245.504 18.287c-.171 13.021-5.25 32.924-22.586 42.71-6.782 3.717-15.168 5.007-22.615 1.241-3.968-2.11-7.215-6.662-7.393-11.834.007-3.227.827-6.307 2.256-9.154-4.387-.456-8.506-.955-12.209-1.248-6.195 12.015-3.737 27.123 1.744 33.812 6.01 7.337 26.207 26.466 51.461 7.145 9.655-9.604 15.645-22.61 15.645-37.605 0-8.141-3.281-18.033-6.303-25.067m-29.555 4.717c-10.385.077-18.136 2.588-23.771 6.486 3.477.943 6.96 1.875 10.383 2.698 6.21-5.19 14.525-8.481 22.195-8.715a76 76 0 0 0-8.807-.47" style="opacity:1;fill:url(#u);fill-opacity:1;stroke:none;stroke-width:12.4056;stroke-linecap:round;stroke-linejoin:round;stroke-miterlimit:4;stroke-dasharray:none;stroke-opacity:.0109489" transform="matrix(.0885 0 0 .08739 -10.584 3.303)"/><path d="M182.957 40.002a32 32 0 0 0-2.617 7.041c3.626-2.336 8.434-4.308 14.826-5.793-4.387-.456-8.506-.955-12.209-1.248" style="fill:url(#v);fill-opacity:1;stroke:none;stroke-width:1px;stroke-linecap:butt;stroke-linejoin:miter;stroke-opacity:1" transform="matrix(.0885 0 0 .08739 -10.584 3.303)"/><path d="M196.83 26.834a31.7 31.7 0 0 0-4.652 2.656c3.477.943 6.96 1.875 10.383 2.698q.488-.407.994-.795c-3.134-1.2-5.065-2.833-6.725-4.559" style="fill:url(#w);fill-opacity:1;stroke:none;stroke-width:1px;stroke-linecap:butt;stroke-linejoin:miter;stroke-opacity:1" transform="matrix(.0885 0 0 .08739 -10.584 3.303)"/><path d="M189.102 40.596c-8.46 43.239 38.583 40.518 45.183 29.832L223.951 60.38c-.342.207-.681.416-1.033.615-6.782 3.718-15.168 5.008-22.615 1.242-3.968-2.11-7.215-6.662-7.393-11.834.007-3.227.827-6.307 2.256-9.154-2.091-.217-4.111-.444-6.064-.654" style="opacity:.67;fill:url(#x);fill-opacity:1;stroke:none;stroke-width:1px;stroke-linecap:butt;stroke-linejoin:miter;stroke-opacity:1" transform="matrix(.0885 0 0 .08739 -10.584 3.303)"/></svg>