<svg xmlns="http://www.w3.org/2000/svg" xmlns:xlink="http://www.w3.org/1999/xlink" width="48" height="48"><defs><linearGradient id="a"><stop offset="0" style="stop-color:#42506c;stop-opacity:1"/><stop offset="1" style="stop-color:#455372;stop-opacity:.66408366"/></linearGradient><linearGradient xlink:href="#a" id="c" x1="23" x2="25" y1="45" y2="3" gradientUnits="userSpaceOnUse"/><filter id="b" width="5.715" height="5.659" x="-2.358" y="-2.33" color-interpolation-filters="sRGB"><feGaussianBlur stdDeviation=".285"/></filter><filter id="d" width="1.11" height="1.236" x="-.055" y="-.118" color-interpolation-filters="sRGB"><feGaussianBlur stdDeviation=".19"/></filter></defs><ellipse cx="8.355" cy="7.135" rx=".842" ry=".852" style="opacity:.25;fill:#2e3440;filter:url(#b)" transform="matrix(3.03282 0 0 3.03282 -1.634 2.091)"/><ellipse cx="8.355" cy="7.135" opacity=".075" rx=".682" ry=".69" style="fill:#2e3440;filter:url(#b)" transform="matrix(3.03282 0 0 3.03282 -1.634 2.091)"/><ellipse cx="8.355" cy="7.135" opacity=".212" rx=".182" ry=".184" style="fill:#2e3440;filter:url(#b)" transform="matrix(3.03282 0 0 3.03282 -1.634 2.091)"/><ellipse cx="8.355" cy="8.221" rx=".145" ry=".147" style="opacity:.125;fill:#2e3440;stroke-width:.0030502;filter:url(#b)" transform="matrix(3.03282 0 0 3.03282 -1.634 2.091)"/><ellipse cx="8.355" cy="6.048" rx=".145" ry=".147" style="opacity:.125;fill:#2e3440;stroke-width:.0030502;filter:url(#b)" transform="matrix(3.03282 0 0 3.03282 -1.634 2.091)"/><ellipse cx="7.135" cy="-7.268" rx=".145" ry=".147" style="opacity:.125;fill:#2e3440;stroke-width:.0030502;filter:url(#b)" transform="matrix(0 3.03282 -3.03282 0 -1.634 2.091)"/><ellipse cx="7.135" cy="-9.442" rx=".145" ry=".147" style="opacity:.125;fill:#2e3440;stroke-width:.0030502;filter:url(#b)" transform="matrix(0 3.03282 -3.03282 0 -1.634 2.091)"/><ellipse cx="2.001" cy="-9.716" rx=".145" ry=".147" style="opacity:.125;fill:#2e3440;stroke-width:.0030502;filter:url(#b)" transform="scale(-3.03282)rotate(-60 -.328 -.811)"/><ellipse cx="2.001" cy="-11.89" rx=".145" ry=".147" style="opacity:.125;fill:#2e3440;stroke-width:.0030502;filter:url(#b)" transform="scale(-3.03282)rotate(-60 -.328 -.811)"/><ellipse cx="-3.668" cy="-9.27" rx=".145" ry=".147" style="opacity:.125;fill:#2e3440;stroke-width:.0030502;filter:url(#b)" transform="scale(-3.03282)rotate(-30 -1.017 -1.35)"/><ellipse cx="-3.668" cy="-11.443" rx=".145" ry=".147" style="opacity:.125;fill:#2e3440;stroke-width:.0030502;filter:url(#b)" transform="scale(-3.03282)rotate(-30 -1.017 -1.35)"/><ellipse cx="-10.803" cy="-.915" rx=".145" ry=".147" style="opacity:.125;fill:#2e3440;stroke-width:.0030502;filter:url(#b)" transform="scale(-3.03282)rotate(30 1.556 .66)"/><ellipse cx="-10.803" cy="-3.088" rx=".145" ry=".147" style="opacity:.125;fill:#2e3440;stroke-width:.0030502;filter:url(#b)" transform="scale(-3.03282)rotate(30 1.556 .66)"/><ellipse cx="-10.356" cy="4.755" rx=".145" ry=".147" style="opacity:.125;fill:#2e3440;stroke-width:.0030502;filter:url(#b)" transform="scale(-3.03282)rotate(60 .867 .122)"/><ellipse cx="-10.356" cy="2.582" rx=".145" ry=".147" style="opacity:.125;fill:#2e3440;stroke-width:.0030502;filter:url(#b)" transform="scale(-3.03282)rotate(60 .867 .122)"/><rect width="42" height="42" x="3" y="3" rx="21" ry="21" style="fill-opacity:1;fill:url(#c)"/><ellipse cx="23.705" cy="23.73" rx="13.768" ry="13.933" style="fill:#3485fd"/><ellipse cx="23.705" cy="23.73" rx="12.391" ry="12.54" style="fill:#9eadc7;fill-opacity:1"/><ellipse cx="23.705" cy="23.73" fill="#4c566a" opacity=".3" rx="3.991" ry="4.039"/><ellipse cx="23.705" cy="23.73" fill="#eceff4" rx="2.554" ry="2.585"/><ellipse cx="23.705" cy="23.73" fill="#4c566a" opacity=".3" rx="2.069" ry="2.094"/><ellipse cx="23.705" cy="23.73" fill="#4c566a" opacity=".85" rx=".551" ry=".557"/><ellipse cx="23.705" cy="27.025" rx=".441" ry=".446" style="opacity:.5;fill:#4c566a;stroke-width:.0092505"/><ellipse cx="23.705" cy="20.434" rx=".441" ry=".446" style="opacity:.5;fill:#4c566a;stroke-width:.0092505"/><ellipse cx="23.73" cy="-20.41" rx=".441" ry=".446" style="opacity:.5;fill:#4c566a;stroke-width:.0092505" transform="rotate(90)"/><ellipse cx="23.73" cy="-27.001" rx=".441" ry=".446" style="opacity:.5;fill:#4c566a;stroke-width:.0092505" transform="rotate(90)"/><ellipse cx="8.698" cy="-29.099" rx=".441" ry=".446" style="opacity:.5;fill:#4c566a;stroke-width:.0092505" transform="rotate(120)"/><ellipse cx="8.698" cy="-35.691" rx=".441" ry=".446" style="opacity:.5;fill:#4c566a;stroke-width:.0092505" transform="rotate(120)"/><ellipse cx="-8.665" cy="-29.107" rx=".441" ry=".446" style="opacity:.5;fill:#4c566a;stroke-width:.0092505" transform="rotate(150)"/><ellipse cx="-8.665" cy="-35.699" rx=".441" ry=".446" style="opacity:.5;fill:#4c566a;stroke-width:.0092505" transform="rotate(150)"/><ellipse cx="-32.394" cy="-5.402" rx=".441" ry=".446" style="opacity:.5;fill:#4c566a;stroke-width:.0092505" transform="rotate(-150)"/><ellipse cx="-32.394" cy="-11.994" rx=".441" ry=".446" style="opacity:.5;fill:#4c566a;stroke-width:.0092505" transform="rotate(-150)"/><ellipse cx="-32.402" cy="11.961" rx=".441" ry=".446" style="opacity:.5;fill:#4c566a;stroke-width:.0092505" transform="rotate(-120)"/><ellipse cx="-32.402" cy="5.369" rx=".441" ry=".446" style="opacity:.5;fill:#4c566a;stroke-width:.0092505" transform="rotate(-120)"/><path fill="#2e3440" d="m11.548 10.515-7.84 2.712a.6.6 0 0 0-.164.059l-.019.007.002.004a.56.56 0 0 0-.203.203.593.593 0 0 0 .233.805c.139.08.303.104.456.066l.001.002.009-.005a.6.6 0 0 0 .238-.129z" filter="url(#d)" opacity=".25" style="stroke-width:.11841" transform="translate(.442 .43)scale(2.78496)"/><path fill="#d8dee9" d="m32.282 29.264-21.834 7.554q-.241.049-.455.164l-.053.024.004.012a1.57 1.57 0 0 0-.563.565c-.448.775-.158 1.78.647 2.244.388.223.845.289 1.27.182l.004.006.024-.015c.248-.066.475-.188.663-.358l.002-.001z" style="stroke-width:.329755"/><path fill="#2e3440" d="m32.282 29.264-21.834 7.554q-.241.049-.455.164l-.053.024.004.012a1.57 1.57 0 0 0-.563.565c-.448.775-.158 1.78.647 2.244.388.223.845.289 1.27.182l.004.006.024-.015c.248-.066.475-.188.663-.358l.002-.001z" opacity=".15" style="stroke-width:.329755"/><ellipse cx="10.83" cy="38.56" opacity=".5" rx=".673" ry=".681" style="fill:#4c566a;stroke-width:.0141334"/></svg>