<svg xmlns="http://www.w3.org/2000/svg" width="48" height="48"><g fill="#4c78b1" opacity=".99"><path d="M45 24a21 21 0 0 1-21 21A21 21 0 0 1 3 24 21 21 0 0 1 24 3a21 21 0 0 1 21 21"/><path d="M45 24a21 21 0 0 1-21 21A21 21 0 0 1 3 24 21 21 0 0 1 24 3a21 21 0 0 1 21 21"/></g><g fill="#fff"><path d="M23.918 13.59c-5.733 0-10.41 4.678-10.41 10.41s4.677 10.41 10.41 10.41c5.732 0 10.409-4.678 10.409-10.41s-4.677-10.41-10.41-10.41m0 2.777A7.61 7.61 0 0 1 31.55 24a7.61 7.61 0 0 1-7.633 7.633A7.61 7.61 0 0 1 16.284 24a7.61 7.61 0 0 1 7.634-7.633"/><path fill-opacity=".579" d="M9.759 17.912c-3.532 0-6.416 2.881-6.416 6.413s2.884 6.416 6.416 6.416 6.413-2.884 6.413-6.416-2.881-6.413-6.413-6.413m28.32 0c-3.532 0-6.416 2.881-6.416 6.413s2.884 6.416 6.416 6.416c3.531 0 6.413-2.884 6.413-6.416s-2.882-6.413-6.413-6.413m-28.32 1.85a4.55 4.55 0 0 1 4.563 4.563 4.55 4.55 0 0 1-4.563 4.565 4.55 4.55 0 0 1-4.565-4.565 4.55 4.55 0 0 1 4.565-4.563m28.32 0a4.55 4.55 0 0 1 4.563 4.563 4.55 4.55 0 0 1-4.563 4.565 4.55 4.55 0 0 1-4.565-4.565 4.55 4.55 0 0 1 4.565-4.563"/></g></svg>