<svg xmlns="http://www.w3.org/2000/svg" xmlns:xlink="http://www.w3.org/1999/xlink" xml:space="preserve" width="48" height="48" viewBox="0 0 45 45"><defs><linearGradient id="a"><stop offset="0" style="stop-color:#0082c9;stop-opacity:1"/><stop offset="1" style="stop-color:#1cafff;stop-opacity:1"/></linearGradient><linearGradient xlink:href="#a" id="b" x1="18.23" x2="150" y1="150" y2="0" gradientTransform="matrix(.24695 0 0 .24695 22.5 22.5)" gradientUnits="userSpaceOnUse"/></defs><circle cx="22.5" cy="22.5" r="19.688" style="opacity:1;fill:url(#b);fill-opacity:1;fill-rule:evenodd;stroke:none;stroke-width:.0246945;stroke-miterlimit:4;stroke-dasharray:none;stroke-opacity:1"/><path d="M22.525 14.951c-3.437 0-6.35 2.33-7.254 5.488-.784-1.675-2.485-2.848-4.444-2.848-2.694 0-4.908 2.215-4.908 4.908s2.214 4.91 4.908 4.91c1.959 0 3.66-1.174 4.444-2.85.903 3.158 3.817 5.49 7.254 5.49 3.412 0 6.31-2.296 7.237-5.418.8 1.637 2.479 2.778 4.41 2.778 2.694 0 4.91-2.216 4.91-4.91s-2.216-4.908-4.91-4.908c-1.931 0-3.61 1.14-4.41 2.777-.926-3.121-3.825-5.417-7.237-5.417m0 2.882a4.645 4.645 0 0 1 4.668 4.666 4.646 4.646 0 0 1-4.668 4.668A4.645 4.645 0 0 1 17.86 22.5a4.645 4.645 0 0 1 4.666-4.666m-11.698 2.64c1.137 0 2.028.89 2.028 2.026a2.007 2.007 0 0 1-2.028 2.029A2.006 2.006 0 0 1 8.8 22.499c0-1.136.89-2.027 2.027-2.027m23.345 0c1.137 0 2.028.89 2.028 2.026a2.007 2.007 0 0 1-2.028 2.029 2.006 2.006 0 0 1-2.027-2.029c0-1.136.89-2.027 2.027-2.027" style="color:#000;font-style:normal;font-variant:normal;font-weight:400;font-stretch:normal;font-size:medium;line-height:normal;font-family:sans-serif;text-indent:0;text-align:start;text-decoration:none;text-decoration-line:none;text-decoration-style:solid;text-decoration-color:#000;letter-spacing:normal;word-spacing:normal;text-transform:none;writing-mode:lr-tb;direction:ltr;baseline-shift:baseline;text-anchor:start;white-space:normal;clip-rule:nonzero;display:inline;overflow:visible;visibility:visible;opacity:1;isolation:auto;mix-blend-mode:normal;color-interpolation:sRGB;color-interpolation-filters:linearRGB;solid-color:#000;solid-opacity:1;fill:#fff;fill-opacity:1;fill-rule:nonzero;stroke:none;stroke-width:1.62064;stroke-linecap:butt;stroke-linejoin:miter;stroke-miterlimit:10;stroke-dasharray:none;stroke-dashoffset:0;stroke-opacity:1;color-rendering:auto;image-rendering:auto;shape-rendering:auto;text-rendering:auto"/></svg>