<svg xmlns="http://www.w3.org/2000/svg" xmlns:xlink="http://www.w3.org/1999/xlink" viewBox="0 0 48 48"><defs><linearGradient id="c"><stop offset="0" stop-color="#7f8c8d"/><stop offset="1" stop-color="#bdc3c7"/></linearGradient><linearGradient id="b"><stop offset="0"/><stop offset="1" stop-opacity="0"/></linearGradient><linearGradient id="a"><stop offset="0" stop-color="#667071"/><stop offset="1" stop-color="#596364"/></linearGradient><linearGradient id="e" x1="4" x2="4" y1="41" gradientUnits="userSpaceOnUse"><stop offset="0" stop-color="#f39c1f"/><stop offset="1" stop-color="#fdbc4b"/></linearGradient><linearGradient id="f" x1="7" x2="7" y1="27" y2="19" gradientUnits="userSpaceOnUse"><stop offset="0" stop-color="#cacaca"/><stop offset="1" stop-color="#eff0f1"/></linearGradient><linearGradient id="g" x1="14" x2="14" y1="24" y2="20" gradientUnits="userSpaceOnUse"><stop offset="0" stop-color="#e74c3c"/><stop offset="1" stop-color="#c0392b"/></linearGradient><linearGradient id="l" x1="7" x2="18" y1="27" y2="38" gradientUnits="userSpaceOnUse"><stop offset="0" stop-color="#95a5a6"/><stop offset="1" stop-color="#7f8c8d"/></linearGradient><linearGradient xlink:href="#a" id="m" x1="12.495" x2="12.495" y1="24.724" y2="40.28" gradientTransform="rotate(-45 12.495 32.495)" gradientUnits="userSpaceOnUse"/><linearGradient xlink:href="#b" id="k" x1="7" x2="20" y1="27" y2="40" gradientUnits="userSpaceOnUse"/><linearGradient id="h" x1="40" x2="44" y1="27" y2="27" gradientUnits="userSpaceOnUse"><stop offset="0" stop-color="#1f8b4d"/><stop offset="1" stop-color="#27ae60"/></linearGradient><linearGradient id="i" x1="40" x2="44" y1="27" y2="27" gradientTransform="translate(0 2)" gradientUnits="userSpaceOnUse"><stop offset="0" stop-color="#a1a52f"/><stop offset="1" stop-color="#fdbc4b"/></linearGradient><linearGradient id="j" x1="40" x2="44" y1="27" y2="27" gradientTransform="translate(0 4)" gradientUnits="userSpaceOnUse"><stop offset="0" stop-color="#832932"/><stop offset="1" stop-color="#c0392b"/></linearGradient><linearGradient xlink:href="#c" id="o" x1="21" x2="21" y1="39" y2="18" gradientUnits="userSpaceOnUse"/><linearGradient xlink:href="#c" id="p" x1="21" x2="21" y1="39" y2="18" gradientTransform="matrix(.65657 0 0 .65657 -22.803 -61.139)" gradientUnits="userSpaceOnUse"/><linearGradient xlink:href="#a" id="q" x1="22" x2="41" y1="19" y2="38" gradientUnits="userSpaceOnUse"/><linearGradient xlink:href="#b" id="n" x1="13" x2="27" y1="26" y2="40" gradientTransform="translate(16)" gradientUnits="userSpaceOnUse"/><linearGradient id="d" x1="5" x2="5" y1="12" y2="11" gradientTransform="translate(-1.176 6.716)" gradientUnits="userSpaceOnUse"><stop offset="0" stop-color="#95a5a6"/><stop offset="1" stop-color="#bdc3c7"/></linearGradient></defs><g stroke-miterlimit="0"><path fill="url(#d)" d="M3.824 17.716h24v1h-24z" transform="rotate(-15 -3.799 -.5)"/><g stroke-width=".378" transform="translate(0 -1)"><rect width="40" height="25" x="4" y="16" fill="url(#e)" rx="3" ry="3"/><path fill="#c27d19" d="M4 37v1c0 1.662 1.338 3 3 3h34c1.662 0 3-1.338 3-3v-1c0 1.662-1.338 3-3 3H7c-1.662 0-3-1.338-3-3"/><path fill="#fdbc4b" d="M44 20v-1c0-1.662-1.338-3-3-3H7c-1.662 0-3 1.338-3 3v1c0-1.662 1.338-3 3-3h34c1.662 0 3 1.338 3 3"/></g></g><g stroke-miterlimit="0" stroke-width=".378" transform="translate(0 -1)"><rect width="11" height="5" x="7" y="19" fill="url(#f)" rx="1" ry="1"/><path fill="#18465d" d="M8 19c-.554 0-1 .446-1 1v1c0-.554.446-1 1-1h9c.554 0 1 .446 1 1v-1c0-.554-.446-1-1-1z" opacity=".35" style="font-variation-settings:normal"/><path d="M17 25c.554 0 1-.446 1-1v-1c0 .554-.446 1-1 1H8c-.554 0-1-.446-1-1v1c0 .554.446 1 1 1z" opacity=".15" style="font-variation-settings:normal"/><path fill="#45443f" d="M8 20v2h1v-2zm2 0v2h1v-2zm2 0v2h1v-2zm4 0v2h1v-2z" style="font-variation-settings:normal"/><path fill="url(#g)" d="M14 20h1v4h-1z" style="font-variation-settings:normal"/><path fill="#9a2e22" d="M14 19h1v1h-1z" style="font-variation-settings:normal"/></g><path fill="url(#h)" d="M40 25h4v2h-4z" style="font-variation-settings:normal" transform="translate(0 -1)"/><path fill="url(#i)" d="M40 27h4v2h-4z" style="font-variation-settings:normal" transform="translate(0 -1)"/><path fill="url(#j)" d="M40 29h4v2h-4z" style="font-variation-settings:normal" transform="translate(0 -1)"/><path fill="url(#k)" d="m16.5 28.5-8 8L12 40h16z" opacity=".25" transform="translate(0 -1)"/><g stroke-miterlimit="0" stroke-width=".389"><path fill="url(#l)" d="M16.423 36.563a5.655 5.655 0 0 1-7.996-.14 5.655 5.655 0 0 1 .14-7.996 5.655 5.655 0 0 1 7.996.14 5.655 5.655 0 0 1-.14 7.996" style="font-variation-settings:normal" transform="translate(0 -1)"/><path fill="url(#m)" d="M8.537 28.455a6 6 0 0 0-.375.406l.71.71.802.803.707.707.707-.707-.707-.707-.801-.801-.71-.71a6 6 0 0 0-.333.3m-.955 1.24a5.66 5.66 0 0 0-.74 2.702 5.655 5.655 0 0 0 5.555 5.752 5.655 5.655 0 0 0 5.752-5.556 5.655 5.655 0 0 0-5.556-5.752 5.66 5.66 0 0 0-2.887.736l.738.739a4.66 4.66 0 0 1 2.133-.475 4.655 4.655 0 0 1 4.573 4.736 4.655 4.655 0 0 1-4.736 4.572 4.655 4.655 0 0 1-4.573-4.735 4.66 4.66 0 0 1 .48-1.98z" style="font-variation-settings:normal" transform="translate(0 -1)"/><path d="M6.93 32.492a5.66 5.66 0 0 0 1.498 4.932 5.655 5.655 0 0 0 7.996.138 5.66 5.66 0 0 0 1.637-5.07 5.66 5.66 0 0 1-1.637 3.07 5.655 5.655 0 0 1-7.996-.138 5.66 5.66 0 0 1-1.498-2.932" opacity=".15" style="font-variation-settings:normal" transform="translate(0 -1)"/></g><g transform="translate(0 -1)"><path fill="url(#n)" d="M39 22 25 36l4 4h15V27z" opacity=".25"/><circle cx="31.5" cy="28.5" r="9.9" fill="url(#o)" style="font-variation-settings:normal"/><circle cx="-2.121" cy="-42.426" r="6.5" fill="url(#p)" style="font-variation-settings:normal" transform="rotate(135)"/><circle cx="-2.121" cy="-42.426" r="2.5" fill="#45443f" style="font-variation-settings:normal" transform="rotate(135)"/><path d="M21.65 28.5a10 10 0 0 0-.05 1 9.9 9.9 0 0 0 9.9 9.9 9.9 9.9 0 0 0 9.9-9.9 10 10 0 0 0-.05-.998A9.9 9.9 0 0 1 31.5 37.4a9.9 9.9 0 0 1-9.85-8.9" opacity=".15" style="font-variation-settings:normal"/><path fill="url(#q)" d="M31.5 18.6a9.9 9.9 0 0 0-9.9 9.9 9.9 9.9 0 0 0 9.9 9.9 9.9 9.9 0 0 0 9.9-9.9 9.9 9.9 0 0 0-9.9-9.9m0 1a8.9 8.9 0 0 1 8.9 8.9 8.9 8.9 0 0 1-8.9 8.9 8.9 8.9 0 0 1-8.9-8.9 8.9 8.9 0 0 1 8.9-8.9" style="font-variation-settings:normal"/></g></svg>