<svg xmlns="http://www.w3.org/2000/svg" width="48" height="48"><path fill="#255fdb" d="M17.484 28.374c-7.16-9.471-14.51-2.274-12.59 4.346C8.188 39.962 15.543 45 23.993 45c7.493 0 13.972-3.906 17.652-9.593-5.537 5.18-15.586 4.314-24.162-7.033"/><path fill="#4285f4" d="M23.884 21.852C14.038 6.92 3.001 14.877 3.001 24.005a20.9 20.9 0 0 0 1.907 8.753c-1.308-6.183 5.796-10.95 12.411-2.076 9.605 12.886 19.031 10.62 24.305 4.756 1.425-2.124 2.813-5.381 3.202-8.62l-.007.041c-2.257 7.02-12.251 8.164-20.935-5.007z"/><path fill="#91bfff" d="M30.631 15.17C23.32 3.109 14.05 4.195 7.78 10.659A20.94 20.94 0 0 0 3 24c.656-8.84 11.335-14.974 21 0 8.603 13.328 19.293 9.856 20.816 2.892l.01-.067c.152-.957.169-1.87.169-2.854 0-.317.011-.632-.003-.945-3.727 2.644-8.62 1.616-14.36-7.855z"/><path fill="#c4e1ff" d="M30.681 17.318c6.696 10.765 12.469 8.011 14.311 5.708a20.8 20.8 0 0 0-.768-4.75c-3.122.064-3.85-.457-6.909-5.134C32.61 5.947 26.696 1.096 16.373 4.43a21.1 21.1 0 0 0-8.6 6.238c7.099-6.534 15.809-4.761 22.908 6.65"/><path fill="#f5f5f5" d="M36.847 14.066c3.06 4.677 4.924 4.925 7.379 4.209C41.727 9.448 33.628 3 23.994 3c-2.689 0-5.264.513-7.626 1.432 9.228-2.912 15.773 2.439 20.48 9.633z"/></svg>