<svg xmlns="http://www.w3.org/2000/svg" width="48" height="48"><defs><linearGradient id="b" x2="0" y1="41" y2="7" gradientUnits="userSpaceOnUse"><stop stop-color="#728790"/><stop offset="1" stop-color="#85969e"/></linearGradient><linearGradient id="e" x2="0" y1="36" y2="12" gradientUnits="userSpaceOnUse"><stop stop-color="#06a370"/><stop offset="1" stop-color="#22d1b0"/></linearGradient><linearGradient id="a" x2="0" y1="44" y2="4" gradientUnits="userSpaceOnUse"><stop stop-color="#2a2c2f"/><stop offset="1" stop-color="#424649"/></linearGradient><linearGradient id="d" x1="15" x2="44" y1="15" y2="44" gradientUnits="userSpaceOnUse"><stop stop-color="#020303"/><stop offset="1" stop-color="#424649" stop-opacity="0"/></linearGradient></defs><g stroke-opacity=".55" stroke-width="2.8"><path fill="url(#a)" d="M24 4C12.92 4 4 12.92 4 24h7c0-7.202 5.798-13 13-13zm13 20c0 7.202-5.798 13-13 13v7c11.08 0 20-8.92 20-20z"/><path fill="url(#b)" d="M24 7C14.582 7 7 14.582 7 24s7.582 17 17 17 17-7.582 17-17h-7c0 5.54-4.46 10-10 10s-10-4.46-10-10 4.46-10 10-10z"/></g><path fill="url(#d)" fill-rule="evenodd" d="m22 15-7 7 2.68 10L16 33l10.801 10.801a19.94 19.94 0 0 0 17-17L41 24h-5a11.95 11.95 0 0 0-4.066-9zm2 2c3.878 0 7 3.122 7 7s-3.122 7-7 7-7-3.122-7-7 3.122-7 7-7" opacity=".2"/><g stroke-opacity=".55" stroke-width="2.8"><path fill="url(#e)" d="M24 12c-6.648 0-12 5.352-12 12s5.352 12 12 12 12-5.352 12-12-5.352-12-12-12m0 5c3.878 0 7 3.122 7 7s-3.122 7-7 7-7-3.122-7-7 3.122-7 7-7"/><g fill-opacity=".118"><path d="M4.03 23q-.024.497-.025 1h3v-1h-2zm39.949 1a19.954 19.954 0 0 1-19.975 19v1c11.08 0 20-8.92 20-20z"/><path d="M7 24c0 9.418 7.582 17 17 17s17-7.582 17-17h-.051C40.432 32.946 33.08 40 24 40S7.583 32.94 7.064 24z"/></g></g></svg>