<svg xmlns="http://www.w3.org/2000/svg" xmlns:xlink="http://www.w3.org/1999/xlink" width="48" height="48"><defs><clipPath id="w"><use xlink:href="#a"/></clipPath><clipPath id="o"><use xlink:href="#a"/></clipPath><clipPath id="F"><use xlink:href="#c"/></clipPath><clipPath id="s"><use xlink:href="#c"/></clipPath><clipPath id="E"><use xlink:href="#c"/></clipPath><clipPath id="u"><use xlink:href="#c"/></clipPath><clipPath id="D"><use xlink:href="#c"/></clipPath><clipPath id="q"><use xlink:href="#c"/></clipPath><clipPath id="H"><use xlink:href="#a"/></clipPath><clipPath id="K"><use xlink:href="#c"/></clipPath><clipPath id="J"><use xlink:href="#c"/></clipPath><clipPath id="I"><use xlink:href="#c"/></clipPath><linearGradient id="m" x2="0" y1="543.8" y2="503.8" gradientUnits="userSpaceOnUse"><stop stop-color="#363a3e"/><stop offset="1" stop-color="#44484c"/></linearGradient><linearGradient id="g" x1="8" x2="24" y1="24" y2="8" gradientUnits="userSpaceOnUse"><stop stop-color="#e81877"/><stop offset=".312" stop-color="#dd1d8c"/><stop offset=".562" stop-color="#6d57b1"/><stop offset=".75" stop-color="#2a78c1"/><stop offset="1" stop-color="#018dcb"/></linearGradient><linearGradient id="h" x1="8" x2="24" y1="24" y2="8" gradientTransform="matrix(1 0 0 -1 384.57 547.8)" gradientUnits="userSpaceOnUse"><stop stop-color="#e51561"/><stop offset=".312" stop-color="#e4156c"/><stop offset=".562" stop-color="#e71e2c"/><stop offset=".75" stop-color="#e8301e"/><stop offset="1" stop-color="#e6320e"/></linearGradient><linearGradient id="j" x1="8" x2="24" y1="24" y2="8" gradientTransform="matrix(-1 0 0 1 432.57 499.8)" gradientUnits="userSpaceOnUse"><stop stop-color="#bec900"/><stop offset=".312" stop-color="#9ec80a"/><stop offset=".562" stop-color="#71b93d"/><stop offset=".75" stop-color="#35a48f"/><stop offset="1" stop-color="#018fca"/></linearGradient><linearGradient id="k" x1="8" x2="24" y1="24" y2="8" gradientTransform="rotate(180 216.285 273.9)" gradientUnits="userSpaceOnUse"><stop stop-color="#c1cc00"/><stop offset=".312" stop-color="#dfcd00"/><stop offset=".562" stop-color="#f0cc00"/><stop offset=".75" stop-color="#fd8c08"/><stop offset="1" stop-color="#f25c13"/></linearGradient><linearGradient id="b" x2="0" y1="-516.8" y2="-530.8" gradientUnits="userSpaceOnUse"><stop stop-color="#2a2c2f"/><stop offset="1" stop-color="#424649"/></linearGradient><linearGradient xlink:href="#b" id="d" x2="0" y1="40" y2="8" gradientUnits="userSpaceOnUse"/><linearGradient xlink:href="#b" id="e" x2="0" y1="539.8" y2="507.8" gradientUnits="userSpaceOnUse"/><linearGradient id="L" x2="0" y1="525.8" y2="521.8" gradientUnits="userSpaceOnUse"><stop stop-color="#989a9b"/><stop offset="1" stop-color="#f6f6f7"/></linearGradient><linearGradient id="G" x1="401.57" x2="416.57" y1="520.8" y2="535.8" gradientUnits="userSpaceOnUse"><stop stop-color="#292c2f"/><stop offset="1" stop-opacity="0"/></linearGradient><path id="n" fill="url(#g)" stroke-opacity=".55" stroke-width="2.8" d="M24 8C15.136 8 8 15.136 8 24h16z"/><path id="p" fill="url(#h)" stroke-opacity=".55" stroke-width="2.8" d="M408.57 539.8c-8.864 0-16-7.136-16-16h16z"/><path id="r" fill="url(#j)" stroke-opacity=".55" stroke-width="2.8" d="M408.57 507.8c8.864 0 16 7.136 16 16h-16z"/><path id="t" fill="url(#k)" stroke-opacity=".55" stroke-width="2.8" d="M408.57 539.8c8.864 0 16-7.136 16-16h-16z"/><rect id="a" width="32" height="32" x="8" y="8" fill="url(#d)" rx="16"/><rect id="c" width="32" height="32" x="392.57" y="507.8" fill="url(#e)" rx="16"/><filter id="v" width="1.12" height="1.12" x="-.06" y="-.06" color-interpolation-filters="sRGB"><feGaussianBlur stdDeviation=".4"/></filter></defs><g transform="translate(-384.57 -499.8)"><rect width="40" height="40" x="388.57" y="503.8" fill="url(#m)" rx="20"/><g transform="rotate(15 408.577 523.793)"><use xlink:href="#n" clip-path="url(#o)" transform="translate(384.57 499.8)"/><use xlink:href="#p" clip-path="url(#q)"/><use xlink:href="#r" clip-path="url(#s)"/><use xlink:href="#t" clip-path="url(#u)"/></g><g opacity=".7"><use xlink:href="#n" clip-path="url(#w)" filter="url(#v)" opacity="1" transform="translate(384.57 499.8)"/><use xlink:href="#p" clip-path="url(#D)" filter="url(#v)" opacity="1"/><use xlink:href="#t" clip-path="url(#E)" filter="url(#v)" opacity="1"/><use xlink:href="#r" clip-path="url(#F)" filter="url(#v)" opacity="1"/></g><use xlink:href="#n" clip-path="url(#w)" opacity=".35" transform="rotate(45 -387.027 738.114)"/><use xlink:href="#p" clip-path="url(#D)" opacity=".35" transform="rotate(45 408.574 523.795)"/><use xlink:href="#t" clip-path="url(#E)" opacity=".35" transform="rotate(45 408.574 523.795)"/><use xlink:href="#r" clip-path="url(#F)" opacity=".35" transform="rotate(45 408.574 523.795)"/><path fill="#2a2e32" d="M388.58 523.3c-.004.167-.012.332-.012.5 0 11.08 8.92 20 20 20s20-8.92 20-20c0-.168-.008-.333-.012-.5a19.954 19.954 0 0 1-19.988 19.5 19.95 19.95 0 0 1-19.988-19.5"/><path fill="url(#G)" fill-rule="evenodd" d="m414.57 519.8-11 9 13.229 13.229c4.439-1.998 8-5.561 10-10z" opacity=".2"/><g transform="rotate(75 408.572 523.798)"><use xlink:href="#n" clip-path="url(#H)" opacity=".3" transform="translate(384.57 499.8)"/><use xlink:href="#p" clip-path="url(#I)" opacity=".3"/><use xlink:href="#t" clip-path="url(#J)" opacity=".3"/><use xlink:href="#r" clip-path="url(#K)" opacity=".3"/></g><rect width="14" height="14" x="401.57" y="-530.8" fill="url(#b)" rx="7" transform="scale(1 -1)"/><path fill="url(#L)" fill-rule="evenodd" d="m406.57 525.8 2-4 2 4z"/></g></svg>