<svg xmlns="http://www.w3.org/2000/svg" xmlns:xlink="http://www.w3.org/1999/xlink" width="48" height="48"><defs><linearGradient id="a"><stop offset="0" style="stop-color:#006680;stop-opacity:1"/><stop offset=".252" style="stop-color:#80b3ff;stop-opacity:1"/><stop offset=".459" style="stop-color:#06f;stop-opacity:1"/><stop offset=".899" style="stop-color:#025;stop-opacity:1"/><stop offset="1" style="stop-color:#006680;stop-opacity:0"/></linearGradient><linearGradient xlink:href="#a" id="b" x1="-23.688" x2="146.725" y1="-24.028" y2="140.728" gradientTransform="matrix(.32328 0 0 .32374 1.481 -6.517)" gradientUnits="userSpaceOnUse"/></defs><path d="M19.704 22.028a2.13 2.891 6.705 0 1-4.266-.138 2.13 2.891 6.705 1 1 4.266.138M31.067 22.157a2.057 2.942 16.608 0 1-4.136-.39 2.057 2.942 16.608 1 1 4.136.39" style="fill:#6d3976;fill-opacity:1;stroke-width:.7"/><path d="M22.45 4C12.556 4 4.408 7.774 4.37 13c-.05 2-.01-2.257 0 4.411.01 5.59.023 6.07.188 6.88.585 2.882 2.47 5.142 5.148 6.256.29.12.588.241.896.334.117.035.254.056.372.104a2.3 2.3 0 0 1 .588.345c.771.67 2.077-.521 2.34-1.256.008-.023.017-.292.024-.602a7.5 7.5 0 0 1-.126-1.379l.058-11.638q.005-.837.174-1.622l-.177-.166c-.366-.345-.002-1.08-.784-1.084-.648-.003-.805.03-1.31.281a9 9 0 0 1-1.223.472c-.977.283-2.144.91-3.024 1.624-.433.35-.81.638-.837.638s-.039-.945-.025-2.101l.024 1.899.27-.03a.57.57 0 0 0 .3-.111c.032-.033.075-.544.156-1.115C7.477 7.964 16 7 22.542 7 29 7 37.007 8.311 37.632 14c.078.718-.15 2.171-.06 2.25.035.032.058.069.118.076.42.055.44-3.8.438-1.812 0 1.022-.038 1.915-.082 1.986-.064.1-.196.023-.624-.365-.795-.72-1.936-1.366-3.014-1.706-.51-.16-1.141-.394-1.404-.52-.925-.442-.867-.346-1.43.181.16 5.27-.015 14.616-.074 17.133 1.188-.092 1.805-.094 2.998-.46 1.349-.459 2.242-1.025 3.316-2.104 1.066-1.07 1.638-1.97 2.113-3.321.7-2.405.334-5.07.35-7.566.019-2.149.046-3.37.047-4.817C40.324 5.955 29 4 22.45 4" style="fill:url(#b);fill-opacity:1;stroke-width:.99786574"/><path d="M32.292 31.662a1.7 1.7 0 0 1-.551-.26l-.241-.18-.017-2.931a789 789 0 0 0-.125-8.414c-.08-4.105-.081-5.53-.003-5.677.365-.683 2.427-.861 3.173-.274l.237.187-.01 8.36c-.007 4.425-.038 8.18-.072 8.58l-.003.028v.003l-.007.02c-.107.35-.634.576-1.42.61-.269.01-.58 0-.79-.024a1 1 0 0 1-.146-.023z" style="fill:#0f2d61;stroke:#0f2d61;stroke-width:.65421981;stroke-miterlimit:4;stroke-dasharray:none;stroke-opacity:1"/><path d="M12.474 31.517c-.662-.185-.615.199-.709-5.802-.08-5.107-.069-11.175.02-11.486.143-.493 2.024-.74 2.894-.38.816.337.772-.07.66 6.034-.055 2.972-.1 6.686-.1 8.253 0 1.667-.04 2.918-.096 3.015-.16.28-.815.46-1.637.452-.415-.005-.88-.043-1.032-.086z" style="fill:#0f2d61;stroke:#0f2d61;stroke-width:.67141956;stroke-miterlimit:4;stroke-dasharray:none;stroke-opacity:1"/><path d="M4.641 13.276c.99.006 1.728.025 2.703.025C7.05 14.39 7.184 14.889 7 16c-.901.721-1.568 1.7-2.11 2.649-.09.217-.132.582-.206.395-.006-2.178-.154-3.516-.043-5.768Z" style="fill:#0f2d61;stroke:#0f2d61;stroke-width:.60980511;stroke-miterlimit:4;stroke-dasharray:none;stroke-opacity:1"/><path d="m40.02 15.788-.009-3.222-1.026.01-1.377.062.342 1.754-.029 1.795.483.497c.546.561 1.137 1.356 1.383 1.922.092.21.115.35.213.394h.003c.024-.059.031-1.455.017-3.212z" style="fill:#0f2d61;stroke:#0f2d61;stroke-width:.61382139;stroke-miterlimit:4;stroke-dasharray:none;stroke-opacity:1"/><path d="M30.173-5.998c-.98.038-1.84.559-2.516 1.33-.675.77-1.209 1.797-1.658 3.002-.9 2.41-1.452 7.554-1.758 10.806s-.359 4.604-.219 7.407.413 4.984.99 6.202c.504 1.066 1.09 3.283 1.343 4.382.253 1.1.2 1.976-.448 2.685-.647.709-2.076 1.346-4.822 1.494s-6.76-.985-12.45-2.044c-.917-.17-1.681-.186-2.346.034-.666.22-1.186.71-1.503 1.33-.633 1.237-.69 4.74-.784 7.092-.03.76.25 1.485.74 2.08.49.594 1.177 1.08 2.028 1.506 1.703.852 4.088 1.466 7.05 1.902 5.922.873 14.146 1.011 23.487.47l.008-.003h.01c3.439-.283 8.877-.481 13.568-1.674 2.345-.596 4.513-1.435 6.169-2.719s2.789-3.065 2.9-5.337c.104-2.113-.005-4.33-.43-5.346-.424-1.017-1.333-1.559-2.267-1.578-1.87-.04-4.071.984-6.93 1.655-3.28.77-5.594 1.441-7.169 1.322-1.574-.12-2.362-.988-2.848-1.614-.487-.626-.706-1.552-.808-2.73-.101-1.177-.09-3.571-.244-5.04-.298-2.814-.86-7.404-2.13-13.29-.634-2.942-1.44-7.711-2.522-9.794-.542-1.04-1.15-1.917-1.88-2.55s-1.61-1.015-2.562-.978z" style="fill:#974fa4" transform="matrix(.7143 0 0 .72002 1.143 12.319)"/><path d="M27.973 10.3a5.982 12.001 2.522 1 1-11.949-.602 5.982 12.001 2.522 1 1 11.949.602" style="fill:#fff" transform="matrix(.7143 0 0 .72002 1.143 12.319)"/><path d="M25.985 12.096a2.983 4.016 6.89 0 1-5.973-.192 2.983 4.016 6.89 1 1 5.973.192" style="fill:#4d4d4d" transform="matrix(.7143 0 0 .72002 1.143 12.319)"/><path d="M45.873 9.366a12.052 6.901 83.212 0 1-13.748 1.267 12.052 6.901 83.212 1 1 13.748-1.267" style="fill:#fff" transform="matrix(.7143 0 0 .72002 1.143 12.319)"/><path d="M41.893 12.274a2.878 4.089 16.98 0 1-5.79-.542 2.878 4.089 16.98 1 1 5.79.542" style="fill:#4d4d4d" transform="matrix(.7143 0 0 .72002 1.143 12.319)"/><path d="M21.124 19.735a4.273 8.64 2.489 1 1-8.535-.433 4.273 8.64 2.489 1 1 8.535.433" style="fill:#fff;stroke-width:.7"/><path d="M19.276 21.187a2.13 2.891 6.705 0 1-4.266-.138 2.13 2.891 6.705 1 1 4.266.138" style="fill:#4d4d4d;stroke-width:.7"/><path d="M33.91 19.063a8.677 4.93 83.317 0 1-9.82.912 8.677 4.93 83.317 1 1 9.82-.912" style="fill:#fff;stroke-width:.7"/><path d="M30.208 21.329a2.057 2.942 16.608 0 1-4.136-.39 2.057 2.942 16.608 1 1 4.136.39" style="fill:#4d4d4d;stroke-width:.7"/><path d="M43.986 35.24c-.004.175-.003.348-.011.522-.08 1.636-.89 2.92-2.073 3.843-1.182.924-2.73 1.528-4.406 1.957-3.35.859-7.235 1.002-9.691 1.206h-.008l-.006.002c-6.672.39-12.547.29-16.777-.338-2.116-.315-3.82-.756-5.035-1.37-.609-.306-1.1-.658-1.45-1.085a2.3 2.3 0 0 1-.5-1.077c-.006.186-.02.407-.027.578-.022.548.177 1.07.527 1.499.35.427.841.779 1.45 1.085 1.216.614 2.92 1.055 5.035 1.37 4.23.628 10.105.727 16.777.337l.006-.002h.008c2.456-.203 6.341-.346 9.691-1.205 1.675-.429 3.224-1.033 4.406-1.957 1.183-.924 1.993-2.207 2.073-3.843.025-.515.024-1.027.011-1.522" style="fill:#6d3976;fill-opacity:1;stroke-width:.7"/><path d="M18.434 11.195a4.273 8.64 2.489 0 1 1.689 7.541 4.273 8.64 2.489 0 1-6.049 7.909 4.273 8.64 2.489 0 0 7.049-6.91 4.273 8.64 2.489 0 0-2.69-8.54m12.086.54a8.677 4.93 83.317 0 1 2.39 6.328 8.677 4.93 83.317 0 1-6.43 8.24 8.677 4.93 83.317 0 0 7.43-7.24 8.677 4.93 83.317 0 0-3.39-7.329" style="fill:#d6d6d6;fill-opacity:1;stroke-width:.7"/></svg>