<svg xmlns="http://www.w3.org/2000/svg" xmlns:xlink="http://www.w3.org/1999/xlink" width="48" height="48"><defs><linearGradient id="a"><stop offset="0" style="stop-color:#334545;stop-opacity:1"/><stop offset="1" style="stop-color:#536161;stop-opacity:1"/></linearGradient><linearGradient id="b"><stop offset="0" style="stop-color:#ffa92d;stop-opacity:1"/><stop offset="1" style="stop-color:#f74028;stop-opacity:1"/></linearGradient><linearGradient xlink:href="#a" id="d" x1="-43" x2="-13" y1="30" y2="10" gradientUnits="userSpaceOnUse"/><linearGradient xlink:href="#a" id="c" x1="7.778" x2="12.567" y1="33.234" y2="33.941" gradientUnits="userSpaceOnUse"/><radialGradient xlink:href="#b" id="e" cx="41" cy="7" r="4" fx="41" fy="7" gradientTransform="matrix(1.5 0 0 1.5 -20.5 -3.5)" gradientUnits="userSpaceOnUse"/></defs><path d="M40.031 7.028c-2.463-.095-3.897.021-4.812.406-.458.193-.814.487-1 .844s-.192.742-.157 1.094c.071.703.935 1.846.976 2.472s-.683 1.165-1.382 1.781v.031c-.484.484-.839.75-1.156 1.031a5.2 5.2 0 0 0-.906 1.032l.812.562a4 4 0 0 1 .75-.843c.292-.26.672-.578 1.188-1.094.891-.8 1.748-1.745 1.694-2.563-.054-.824-.926-2.013-.975-2.503-.025-.245-.001-.41.062-.531s.159-.245.469-.375c.62-.261 1.967-.437 4.375-.344z" style="color:#000;font-style:normal;font-variant:normal;font-weight:400;font-stretch:normal;font-size:medium;line-height:normal;font-family:Sans;-inkscape-font-specification:Sans;text-indent:0;text-align:start;text-decoration:none;text-decoration-line:none;letter-spacing:normal;word-spacing:normal;text-transform:none;direction:ltr;block-progression:tb;writing-mode:lr-tb;baseline-shift:baseline;text-anchor:start;display:inline;overflow:visible;visibility:visible;fill:#b0b8b8;fill-opacity:1;stroke:none;stroke-width:1px;marker:none"/><rect width="9" height="10" x="3.57" y="28.94" rx="1" ry="1" style="fill:url(#c);fill-opacity:1;stroke:none" transform="rotate(-45)"/><rect width="32" height="32" x="-45" y="3" rx="21" ry="21" style="fill:url(#d);fill-opacity:1;stroke:gray;stroke-width:0;stroke-linecap:round;stroke-linejoin:round;stroke-miterlimit:4;stroke-opacity:1;stroke-dasharray:none" transform="rotate(-90)"/><path d="M3.025 28.5c-.005.168-.025.331-.025.5 0 8.864 7.136 16 16 16s16-7.136 16-16c0-.169-.02-.332-.025-.5C34.71 37.129 27.695 44 19 44S3.29 37.129 3.025 28.5" style="fill:#000;fill-opacity:1;stroke:gray;stroke-width:0;stroke-linecap:round;stroke-linejoin:round;stroke-miterlimit:4;stroke-opacity:1;stroke-dasharray:none;opacity:.15"/><path d="M41 3a1 4 0 0 0-.854 1.937 4 1 45 0 0-1.974-.765 4 1 45 0 0 .766 1.973A4 1 0 0 0 37 7a4 1 0 0 0 1.938.854 1 4 45 0 0-.766 1.974 1 4 45 0 0 1.973-.766A1 4 0 0 0 41 11a1 4 0 0 0 .854-1.938 4 1 45 0 0 1.974.766 4 1 45 0 0-.766-1.973A4 1 0 0 0 45 7a4 1 0 0 0-1.937-.854 1 4 45 0 0 .765-1.974 1 4 45 0 0-1.973.765A1 4 0 0 0 41 3" style="opacity:1;fill:url(#e);fill-opacity:1;stroke:none;stroke-width:2;stroke-linecap:round;stroke-linejoin:round;stroke-miterlimit:4;stroke-dasharray:none;stroke-opacity:1"/></svg>