<svg xmlns="http://www.w3.org/2000/svg" width="48" height="48"><defs><linearGradient id="a" x2="0" y1="543.8" y2="503.8" gradientUnits="userSpaceOnUse"><stop stop-color="#2a2c2f"/><stop offset="1" stop-color="#424649"/></linearGradient><linearGradient id="d" x2="0" y1="40" y2="8" gradientUnits="userSpaceOnUse"><stop stop-color="#d5d5d6"/><stop offset="1" stop-color="#f4f5f5"/></linearGradient><linearGradient id="b" x1="6" x2="32" y1="7" y2="33" gradientUnits="userSpaceOnUse"><stop stop-color="#292c2f"/><stop offset="1" stop-opacity="0"/></linearGradient></defs><g transform="translate(-384.57 -499.8)"><rect width="40" height="40" x="388.57" y="503.8" fill="url(#a)" rx="3" ry="3"/><path fill="url(#b)" fill-rule="evenodd" d="M40 8v32H8l4 4h32V12Z" opacity=".2" transform="translate(384.57 499.8)"/><rect width="32" height="1" x="392.57" y="542.8" fill="#1c1e20" ry="0"/><path fill="url(#d)" d="M8 8v32h32V8Zm1 1h30v21H9Zm1 3v2h22v-2ZM9 31h30v8H9Zm2 3v1h1v-1zm2 0v1h1v-1zm2 0v1h1v-1zm16 0v1h1v-1zm2 0v1h1v-1zm2 0v1h1v-1z" transform="translate(384.57 499.8)"/></g></svg>