<svg xmlns="http://www.w3.org/2000/svg" xmlns:xlink="http://www.w3.org/1999/xlink" width="48" height="48"><defs><linearGradient xlink:href="#a" id="e" x1="17.25" x2="17.25" y1="29.643" y2="3.056" gradientTransform="translate(-.46 -.637)scale(1.44392)" gradientUnits="userSpaceOnUse"/><linearGradient id="a"><stop offset="0" style="stop-color:#55bcf2;stop-opacity:1"/><stop offset="1" style="stop-color:#1a80e2;stop-opacity:1"/></linearGradient><linearGradient xlink:href="#b" id="f" x1="18.102" x2="18.102" y1="27.188" y2="8.152" gradientTransform="matrix(1.60972 0 0 1.60972 -5.89 -3.964)" gradientUnits="userSpaceOnUse"/><linearGradient id="b"><stop offset="0" style="stop-color:#afbceb;stop-opacity:1"/><stop offset=".472" style="stop-color:#cdd5e3;stop-opacity:1"/><stop offset=".855" style="stop-color:#f6f7fe;stop-opacity:1"/><stop offset="1" style="stop-color:#c5cef4;stop-opacity:1"/></linearGradient><linearGradient id="c"><stop offset="0" style="stop-color:#728cdb;stop-opacity:1"/><stop offset="1" style="stop-color:#728cdb;stop-opacity:0"/></linearGradient><radialGradient xlink:href="#c" id="g" cx="20.297" cy="16.886" r="2.773" fx="20.297" fy="16.886" gradientTransform="matrix(1.44392 0 0 1.49447 -.663 -1.751)" gradientUnits="userSpaceOnUse"/><radialGradient xlink:href="#c" id="h" cx="20.297" cy="16.886" r="2.773" fx="20.297" fy="16.886" gradientTransform="matrix(1.44392 0 0 1.51161 -10.416 -2.04)" gradientUnits="userSpaceOnUse"/></defs><rect width="42" height="42" x="3" y="3" rx="21" ry="21" style="fill:url(#e);fill-opacity:1;stroke-width:3.88082;stroke-linecap:round;stroke-linejoin:round"/><path d="M29.84 33.406c2.01-.63 3.742-1.608 5.09-3.349-7.373 4.26-14.666 4.13-22.024.03a6.7 6.7 0 0 0 2.167 1.995c.842.487 1.734.885 2.635 1.338-.388.484-.85.991-1.229 1.553-.361.535-.77.723-1.43.646-2.489-.29-4.725-1.117-6.58-2.849-.054-.05-.104-.104-.159-.153-.757-.682-1.073-1.443-1.008-2.544a38.8 38.8 0 0 1 3.885-14.826c.112-.23.302-.45.51-.599 1.82-1.29 3.814-2.182 6.02-2.567.42-.074.848-.13 1.274-.148.173-.008.352.104.525.228-2.622.877-5.113 1.933-7.304 3.697 7.529-3.587 15.013-3.764 22.519-.091-2.007-1.622-4.326-2.626-6.753-3.42.182-.373.434-.445.822-.409 2.626.244 4.97 1.21 7.111 2.711.201.14.389.348.497.567 1.66 3.362 2.78 6.9 3.415 10.595.294 1.718.446 3.447.476 5.187.004.244-.1.536-.25.731-1.399 1.815-3.263 2.936-5.458 3.496-.848.217-1.732.294-2.603.413-.134.019-.338-.03-.42-.124-.58-.68-1.135-1.38-1.727-2.108M18.213 28.76c.963-.002 1.533-.206 2.034-.622.819-.68 1.124-1.577 1.187-2.617.07-1.164-.381-2.03-1.348-2.62-.998-.609-2.04-.66-3.05-.026-1.62 1.017-1.924 3.436-.635 4.894.564.637 1.265.985 1.812.991m10.622.045c.331-.076.677-.112.99-.234 1.93-.753 2.546-3.346 1.21-5.054a2.76 2.76 0 0 0-4.163-.246c-.784.798-1.029 1.773-.895 2.865.177 1.448 1.443 2.618 2.858 2.67" style="fill:url(#f);fill-opacity:1;stroke-width:.0736087"/><ellipse cx="28.857" cy="23.608" rx="4.004" ry="6.478" style="opacity:.424028;fill:url(#g);fill-opacity:1;stroke:none;stroke-width:.573057;stroke-linejoin:round;stroke-dashoffset:1;stroke-opacity:.162864"/><ellipse cx="19.104" cy="23.608" rx="4.004" ry="6.478" style="opacity:.424028;fill:url(#h);fill-opacity:1;stroke:none;stroke-width:.573057;stroke-linejoin:round;stroke-dashoffset:1;stroke-opacity:.162864"/></svg>