<svg xmlns="http://www.w3.org/2000/svg" xmlns:xlink="http://www.w3.org/1999/xlink" width="48" height="48"><defs><linearGradient id="c" x2="0" y1="543.8" y2="503.8" gradientTransform="matrix(1.125 0 0 1 -51.07 0)" gradientUnits="userSpaceOnUse"><stop stop-color="#c6cdd1"/><stop offset="1" stop-color="#e0e5e7"/></linearGradient><linearGradient id="a" x2="0" y1="523.8" y2="503.8" gradientUnits="userSpaceOnUse"><stop stop-color="#2a2c2f"/><stop offset="1" stop-color="#424649"/></linearGradient><linearGradient xlink:href="#a" id="d" x2="0" y1="542.79" y2="530.79" gradientUnits="userSpaceOnUse"/><linearGradient id="e" x1="25" x2="40" y1="29" y2="44" gradientUnits="userSpaceOnUse"><stop stop-color="#383e51"/><stop offset="1" stop-color="#655c6f" stop-opacity="0"/></linearGradient></defs><g transform="translate(-384.57 -499.8)"><rect width="36" height="20" x="390.57" y="523.8" fill="url(#c)" rx="3" ry="3"/><rect width="36" height="20" x="390.57" y="503.8" fill="url(#a)" rx="3" ry="3"/><path fill="url(#d)" d="m382.86 530.79-10.439 10.566-4.147-4.198-.707.716 4.147 4.198-.002.002.707.716.002-.002.002.002.707-.716-.002-.002 10.439-10.566z" transform="translate(41 -2.993)"/><path fill="url(#e)" fill-rule="evenodd" d="M40 28.717 28.854 40l3.953 4h9.191V30.74Z" opacity=".2" transform="translate(384.57 499.8)"/><rect width="30" height="1" x="393.57" y="542.8" fill="#99a1a7" ry=".383"/></g></svg>