<svg xmlns="http://www.w3.org/2000/svg" xmlns:xlink="http://www.w3.org/1999/xlink" width="48" height="48"><defs><linearGradient id="f"><stop offset="0" style="stop-color:#8d5fd3;stop-opacity:1"/><stop offset="1" style="stop-color:#00aad4;stop-opacity:1"/></linearGradient><linearGradient id="d"><stop offset="0" style="stop-color:#fffefb;stop-opacity:1"/><stop offset="1" style="stop-color:#4fb3f5;stop-opacity:1"/></linearGradient><linearGradient xlink:href="#e" id="h" x1="24.814" x2="46.031" y1="59.319" y2="38.103" gradientUnits="userSpaceOnUse"/><linearGradient id="e"><stop offset="0" style="stop-color:#8647ff;stop-opacity:1"/><stop offset=".091" style="stop-color:#8647ff;stop-opacity:.96470588"/><stop offset=".228" style="stop-color:#8647ff;stop-opacity:.90980392"/><stop offset=".353" style="stop-color:#8647ff;stop-opacity:.85882353"/><stop offset=".428" style="stop-color:#8647ff;stop-opacity:.80784314"/><stop offset=".48" style="stop-color:#8647ff;stop-opacity:.76862745"/><stop offset=".559" style="stop-color:#8647ff;stop-opacity:.62745098"/><stop offset=".629" style="stop-color:#8647ff;stop-opacity:.48627451"/><stop offset=".782" style="stop-color:#8647ff;stop-opacity:.22352941"/><stop offset=".84" style="stop-color:#8647ff;stop-opacity:.15686275"/><stop offset=".92" style="stop-color:#8647ff;stop-opacity:.0745098"/><stop offset=".979" style="stop-color:#8647ff;stop-opacity:.01960784"/><stop offset="1" style="stop-color:#8647ff;stop-opacity:0"/></linearGradient><linearGradient xlink:href="#f" id="i" x1="26.061" x2="42.511" y1="41.929" y2="21.671" gradientUnits="userSpaceOnUse"/><radialGradient xlink:href="#d" id="g" cx="7.639" cy="1.327" r="7.512" fx="7.639" fy="1.327" gradientTransform="matrix(3.0914 .0462 -.04191 2.80461 .613 10.098)" gradientUnits="userSpaceOnUse"/></defs><path d="M10.286 3A7.27 7.27 0 0 0 3 10.286v27.427A7.27 7.27 0 0 0 10.286 45h27.427A7.27 7.27 0 0 0 45 37.713V10.286A7.27 7.27 0 0 0 37.713 3Z" style="fill:url(#g);fill-opacity:1;stroke-width:1.09339"/><path d="M35.035 16.467a6.98 6.98 0 0 0-4.95 2.056L5.446 43.16a7.26 7.26 0 0 0 4.84 1.84h27.426a7.27 7.27 0 0 0 7.286-7.286V23.538l-5.015-5.015a6.98 6.98 0 0 0-4.95-2.056" style="fill:url(#h);fill-opacity:1;stroke-width:.999998"/><path d="M15.111 23.056c-1.789 0-3.578.684-4.949 2.055L3 32.273v5.44c0 2.174.948 4.114 2.447 5.447l16.331-16.331-1.716-1.718a6.98 6.98 0 0 0-4.95-2.055M7.812 44.562c.138.05.275.1.416.14a7 7 0 0 1-.416-.14m.665.204c.136.035.27.071.41.098-.139-.027-.275-.063-.41-.098m30.33.143q-.08.013-.16.025zm-29.511.016c.09.012.177.03.268.039-.09-.009-.178-.027-.268-.04" style="fill:#00b2b2;fill-opacity:.99933302;stroke-width:.999998"/><path d="M35.035 16.467a6.98 6.98 0 0 0-4.95 2.056L5.446 43.16a7.26 7.26 0 0 0 4.84 1.84h27.426a7.27 7.27 0 0 0 7.286-7.286V23.538l-5.015-5.015a6.98 6.98 0 0 0-4.95-2.056" style="fill:url(#i)"/><path d="M19.627 7.298c-3.716.972-5.963 4.811-4.99 8.527s4.81 5.962 8.526 4.99a7 7 0 0 0 2.05-.908 1.48 1.48 0 0 0-.71-2.714 4.02 4.02 0 0 1-3.63-3 4.02 4.02 0 0 1 1.695-4.391 1.48 1.48 0 0 0-.709-2.714c-.75-.05-1.503.02-2.23.21z" style="color:#000;font-style:normal;font-variant:normal;font-weight:400;font-stretch:normal;font-size:medium;line-height:normal;font-family:sans-serif;font-variant-ligatures:normal;font-variant-position:normal;font-variant-caps:normal;font-variant-numeric:normal;font-variant-alternates:normal;font-variant-east-asian:normal;font-feature-settings:normal;font-variation-settings:normal;text-indent:0;text-align:start;text-decoration:none;text-decoration-line:none;text-decoration-style:solid;text-decoration-color:#000;letter-spacing:normal;word-spacing:normal;text-transform:none;writing-mode:lr-tb;direction:ltr;text-orientation:mixed;dominant-baseline:auto;baseline-shift:baseline;text-anchor:start;white-space:normal;shape-padding:0;shape-margin:0;inline-size:0;clip-rule:nonzero;display:inline;overflow:visible;visibility:visible;isolation:auto;mix-blend-mode:normal;color-interpolation:sRGB;color-interpolation-filters:linearRGB;solid-color:#000;solid-opacity:1;vector-effect:none;fill:#ffd325;fill-opacity:.999333;fill-rule:nonzero;stroke:none;stroke-width:3.99999;stroke-linecap:round;stroke-linejoin:round;stroke-miterlimit:4;stroke-dasharray:none;stroke-dashoffset:0;stroke-opacity:1;color-rendering:auto;image-rendering:auto;shape-rendering:auto;text-rendering:auto;stop-color:#000"/><path d="M32.292 44H16.308C9.538 44 4 44.77 4 38V10c0-6.77 5.538-6 12.308-6h15.784C38.862 4 44 3.13 44 9.9v28c0 6.77-4.939 6.1-11.708 6.1" class="st0" style="fill:none;stroke:#3c4f77;stroke-width:2;stroke-linecap:round;stroke-linejoin:round;stroke-miterlimit:10;stroke-opacity:1"/></svg>