<svg xmlns="http://www.w3.org/2000/svg" xmlns:xlink="http://www.w3.org/1999/xlink" width="48" height="48"><defs><linearGradient id="b"><stop offset="0" style="stop-color:#ffd5d3;stop-opacity:1"/><stop offset="1" style="stop-color:#fff;stop-opacity:1"/></linearGradient><linearGradient xlink:href="#a" id="d" x1="409.571" x2="409.571" y1="543.798" y2="503.798" gradientTransform="translate(-384.571 504.564)" gradientUnits="userSpaceOnUse"/><linearGradient id="c"><stop offset="0" style="stop-color:#940700;stop-opacity:1"/><stop offset="1" style="stop-color:#000;stop-opacity:0"/></linearGradient><linearGradient id="a"><stop offset="0" style="stop-color:#ff2323;stop-opacity:1"/><stop offset="1" style="stop-color:#ff5149;stop-opacity:1"/></linearGradient><linearGradient xlink:href="#b" id="f" x1="-95.411" x2="-95.411" y1="1010.086" y2="817.908" gradientUnits="userSpaceOnUse"/><linearGradient xlink:href="#b" id="g" x1="-95.411" x2="-95.411" y1="1010.086" y2="817.908" gradientUnits="userSpaceOnUse"/><linearGradient xlink:href="#b" id="h" x1="-95.411" x2="-95.411" y1="1010.086" y2="817.908" gradientUnits="userSpaceOnUse"/><linearGradient xlink:href="#c" id="e" x1="56" x2="86" y1="1012.362" y2="1042.362" gradientTransform="translate(-46)" gradientUnits="userSpaceOnUse"/></defs><g transform="translate(0 -1004.362)"><rect width="40" height="40" x="4" y="1008.36" rx="3" ry="3.002" style="opacity:1;fill:url(#d);fill-opacity:1;stroke:none"/><rect width="34" height="1" x="7" y="1047.362" ry=".425" style="opacity:1;fill:#df0100;fill-opacity:1;stroke:none"/><path d="M33.964 1014.284 44 1024.361v24.001H30.099l-13.636-15.291Z" style="opacity:.2;fill:url(#e);fill-opacity:1;stroke:none"/><g style="fill:url(#f);fill-opacity:1" transform="matrix(.14404 0 0 .14583 37.639 895.018)"><path d="M-89.597 1010.362h64.335l-82.786-89.924-38.873 27.494z" style="color:#000;display:inline;overflow:visible;visibility:visible;fill:url(#g);fill-opacity:1;fill-rule:nonzero;stroke:none;stroke-width:1;marker:none"/><path d="M-89.597 818.362h64.335l-88.404 96-33.144 33.688-31.19-33.688Z" style="color:#000;display:inline;overflow:visible;visibility:visible;fill:url(#h);fill-opacity:1;fill-rule:nonzero;stroke:none;stroke-width:1;marker:none"/></g></g></svg>