<svg xmlns="http://www.w3.org/2000/svg" width="48" height="48"><g transform="matrix(.64792 0 0 .64792 2.143 -146.575)"><rect width="64.823" height="64.823" x="1.323" y="230.854" fill="#2f3134" rx="32.411" ry="32.411"/><rect width="11.906" height="43.656" x="13.229" y="241.437" fill="#e6e6e6" rx="0" ry="0"/><g fill="#333" stroke-width=".198"><path d="M17.198 248.052h3.969v3.969h-3.969zM17.198 261.281h3.969v3.969h-3.969zM17.198 274.51h3.969v3.969h-3.969z"/></g><rect width="11.906" height="43.656" x="42.333" y="241.437" fill="#e6e6e6" rx="0" ry="0"/><g fill="#333" stroke-width=".198"><path d="M46.302 248.052h3.969v3.969h-3.969zM46.302 261.281h3.969v3.969h-3.969zM46.302 274.51h3.969v3.969h-3.969z"/></g><rect width="19.844" height="9.26" x="23.813" y="258.635" fill="#e6e6e6" ry="0"/></g></svg>