<svg xmlns="http://www.w3.org/2000/svg" xmlns:xlink="http://www.w3.org/1999/xlink" width="32" height="32"><defs><linearGradient id="a"><stop style="stop-color:#197cf1"/><stop offset="1" style="stop-color:#20bcfa"/></linearGradient><linearGradient xlink:href="#a" id="d" x2="0" y1="545.798" y2="517.798" gradientTransform="translate(28.612 37.986)scale(.92857)" gradientUnits="userSpaceOnUse"/><linearGradient id="b"><stop style="stop-color:#7cbaf8"/><stop offset="1" style="stop-color:#f4fcff"/></linearGradient><linearGradient xlink:href="#b" id="f" x2="0" y1="30" y2="2" gradientUnits="userSpaceOnUse"/><linearGradient id="c"><stop style="stop-color:#292c2f"/><stop offset="1" style="stop-opacity:0"/></linearGradient><linearGradient xlink:href="#c" id="e" x1="9" x2="23" y1="9" y2="23" gradientUnits="userSpaceOnUse"/></defs><g transform="translate(-384.571 -515.798)"><rect width="26" height="26" x="387.571" y="518.798" rx="13" style="fill:url(#d)"/><path d="m17 9-2 2 2 2-2 10 8 8h8v-8z" style="fill:url(#e);opacity:.2;fill-rule:evenodd" transform="translate(384.571 515.798)"/><path d="M16 2C8.413 2 2.29 7.98 2.025 15.5c-.005.167-.025.331-.025.5 0 7.756 6.244 14 14 14s14-6.244 14-14c0-.169-.02-.333-.025-.5C29.71 7.98 23.587 2 16 2m0 1c7.202 0 13 5.798 13 13s-5.798 13-13 13S3 23.202 3 16 8.798 3 16 3m-1 6v2h2V9zm0 4v10h2V13z" style="fill:url(#f)" transform="translate(384.571 515.798)"/></g></svg>