<svg xmlns="http://www.w3.org/2000/svg" width="48" height="48" version="1"><path d="M59 32.491A27.5 27.509 0 0 1 31.5 60 27.5 27.509 0 0 1 4 32.491 27.5 27.509 0 0 1 31.5 4.982 27.5 27.509 0 0 1 59 32.492" style="opacity:.2;stroke-width:.982303" transform="translate(.375)scale(.75)"/><path d="M59 31.509a27.5 27.509 0 0 1-27.5 27.509A27.5 27.509 0 0 1 4 31.508 27.5 27.509 0 0 1 31.5 4 27.5 27.509 0 0 1 59 31.509" style="fill:#2a3854;fill-opacity:1;stroke-width:.982303" transform="translate(.375)scale(.75)"/><path d="M31.5 4.982a27.5 27.509 0 0 0-6.05.71l6.05 25.425 6.054-25.436a27.5 27.509 0 0 0-6.054-.699m20.18 8.862-18.99 17.96 25.044-7.472a27.5 27.509 0 0 0-6.054-10.488m-40.356.008a27.5 27.509 0 0 0-6.085 10.473l25.072 7.48zM30.31 33.178 5.266 40.65a27.5 27.509 0 0 0 6.05 10.489zm2.378 0 18.987 17.953a27.5 27.509 0 0 0 6.085-10.473Zm-1.189.687-6.054 25.437A27.5 27.509 0 0 0 31.5 60a27.5 27.509 0 0 0 6.05-.71Z" style="opacity:.2;stroke-width:.982303" transform="translate(.375)scale(.75)"/><path d="M31.5 4a27.5 27.509 0 0 0-6.05.71l6.05 25.423 6.053-25.435A27.5 27.509 0 0 0 31.5 4" style="fill:#ff5454;stroke-width:.982303" transform="translate(.375)scale(.75)"/><path d="M51.682 12.862 32.69 30.822l25.042-7.472a27.5 27.509 0 0 0-6.05-10.488" style="fill:#fff129;stroke-width:.982303" transform="translate(.375)scale(.75)"/><path d="M11.323 12.868a27.5 27.509 0 0 0-6.082 10.474l25.07 7.48z" style="fill:#c552da;stroke-width:.982303" transform="translate(.375)scale(.75)"/><path d="M30.31 32.196 5.268 39.667a27.5 27.509 0 0 0 6.05 10.488z" style="fill:#336eef;stroke-width:.982303" transform="translate(.375)scale(.75)"/><path d="M32.69 32.196 51.677 50.15a27.5 27.509 0 0 0 6.082-10.475Z" style="fill:#45cb32;stroke-width:.982303" transform="translate(.375)scale(.75)"/><path d="M31.5 32.884 25.447 58.32a27.5 27.509 0 0 0 6.053.699 27.5 27.509 0 0 0 6.05-.71Z" style="fill:#00d4ea;stroke-width:.982303" transform="translate(.375)scale(.75)"/><path d="M31.5 4A27.5 27.509 0 0 0 4 31.509a27.5 27.509 0 0 0 .017.483A27.5 27.509 0 0 1 31.5 4.982a27.5 27.509 0 0 1 27.475 27.01A27.5 27.509 0 0 0 59 31.51 27.5 27.509 0 0 0 31.5 4" style="opacity:.1;fill:#fff;stroke-width:.982303" transform="translate(.375)scale(.75)"/><path d="M31.5 4a27.5 27.509 0 0 0-6.05.71l.222.933a27.5 27.509 0 0 1 5.828-.66 27.5 27.509 0 0 1 5.83.658l.224-.943A27.5 27.509 0 0 0 31.5 4m20.182 8.863L32.689 30.822l1.518-.453 17.475-16.523a27.5 27.509 0 0 1 5.726 9.6l.324-.096a27.5 27.509 0 0 0-6.05-10.487m-40.358.004A27.5 27.509 0 0 0 5.24 23.342l.301.09a27.5 27.509 0 0 1 5.782-9.582l17.47 16.519 1.517.453zM30.31 32.196 5.268 39.668a27.5 27.509 0 0 0 .324.886l23.201-6.923Zm2.378 0 1.518 1.435 23.25 6.937a27.5 27.509 0 0 0 .302-.893Zm-1.189.689-6.054 25.434a27.5 27.509 0 0 0 .224.04l5.83-24.492 5.828 24.49a27.5 27.509 0 0 0 .222-.05z" style="opacity:.1;fill:#fff;stroke-width:.982303" transform="translate(.375)scale(.75)"/></svg>