<svg xmlns="http://www.w3.org/2000/svg" xmlns:xlink="http://www.w3.org/1999/xlink" width="48" height="48"><defs><linearGradient id="a"><stop offset="0" style="stop-color:#000;stop-opacity:1"/><stop offset="1" style="stop-color:#000;stop-opacity:0"/></linearGradient><linearGradient id="b" x1="-41.26" x2="-2.994" y1="-.883" y2="37.956" gradientTransform="matrix(1.04544 0 0 1.02988 46.077 3.857)" gradientUnits="userSpaceOnUse"><stop stop-color="#21c9fb"/><stop offset="1" stop-color="#1a86f2"/></linearGradient><linearGradient xlink:href="#a" id="c" x1="4" x2="44" y1="4" y2="44" gradientUnits="userSpaceOnUse"/></defs><path d="M7 4Q4 4 4 7v34q0 3 3 3h34q3 0 3-3V5v2c0-2-1-3-2.92-3Z" style="fill:url(#b);stroke-width:2;stroke-linejoin:bevel"/><path d="m8 40 4 4h32V12l-4-4v14H26V12l-4-4v14H8l4 4h10v14z" style="opacity:.2;fill:url(#c);fill-opacity:1;fill-rule:evenodd;stroke:none;stroke-width:1px;stroke-linecap:butt;stroke-linejoin:miter;stroke-opacity:1"/><rect width="32" height="1" x="9" y="43" ry=".5" style="opacity:.05;fill:#000;fill-opacity:1;stroke:none;stroke-width:1.81659;stroke-miterlimit:4;stroke-dasharray:none;stroke-opacity:1"/><path d="M8 26v14h14V26zm2 2h10v10H10zM26 26v14h14V26zm2 2h10v10H28zM8 8v14h14V8zm2 2h10v10H10zM26 8v14h14V8zm2 2h10v10H28z" style="opacity:1;fill:#fff;fill-opacity:1;stroke:none;stroke-width:2;stroke-miterlimit:4;stroke-dasharray:none;stroke-opacity:1"/></svg>