<svg xmlns="http://www.w3.org/2000/svg" xmlns:xlink="http://www.w3.org/1999/xlink" width="48" height="48"><defs><linearGradient id="c"><stop offset="0" style="stop-color:#000;stop-opacity:1"/><stop offset="1" style="stop-color:#000;stop-opacity:0"/></linearGradient><linearGradient id="b"><stop offset="0" style="stop-color:#ffdc69;stop-opacity:1"/><stop offset="1" style="stop-color:#fff;stop-opacity:1"/></linearGradient><linearGradient id="a"><stop offset="0" style="stop-color:#f8c04a;stop-opacity:1"/><stop offset="1" style="stop-color:#ffe877;stop-opacity:1"/></linearGradient><linearGradient xlink:href="#a" id="d" x1="420.182" x2="404.176" y1="542.221" y2="504.452" gradientTransform="translate(-384.571 -499.798)" gradientUnits="userSpaceOnUse"/><linearGradient xlink:href="#b" id="f" x1="35.051" x2="22" y1="44.542" y2="10" gradientTransform="translate(0 -2)" gradientUnits="userSpaceOnUse"/><linearGradient xlink:href="#c" id="e" x1="17" x2="34.519" y1="15" y2="32.519" gradientUnits="userSpaceOnUse"/></defs><path d="M24 4C12.92 4 4 12.92 4 23.999 4 35.079 12.92 44 24 44s20-8.921 20-20.001S35.08 4 24 4" style="opacity:1;fill:url(#d);fill-opacity:1;stroke-width:2.79999995;stroke-opacity:.55026502"/><path d="M4.012 23.498c-.004.167-.012.332-.012.5C4 35.078 12.92 44 24 44s20-8.922 20-20.002c0-.168-.008-.333-.012-.5A19.95 19.95 0 0 1 24 43 19.95 19.95 0 0 1 4.012 23.498" style="opacity:.15;fill:#000;fill-opacity:1;stroke-width:2.79999995;stroke-opacity:.55026502"/><path d="m23.984 7.977-.537 3.12-6.035 8.844-1.254-1.132L11 21.002l3.38 3.38-.216.317-1.117 9.295 9.982 9.983Q23.512 44 24 44c9.83 0 17.954-7.023 19.664-16.344z" style="opacity:.2;fill:url(#e);fill-opacity:1;stroke:none;stroke-width:2;stroke-linecap:butt;stroke-linejoin:miter;stroke-miterlimit:4;stroke-dasharray:none;stroke-opacity:1"/><path d="M24 8 11 21h2v13h22V21h2zm-1 8h2v2h3v2h-3v1.984c.473.012.963.07 1.467.287.442.192.88.544 1.152 1.028.273.483.387 1.056.387 1.701v.002c-.002.583-.068 1.093-.277 1.562s-.603.866-1.032 1.08c-.552.276-1.113.33-1.697.344V30h-2v-2h-3v-2h3v-1.984c-.467-.013-.95-.071-1.447-.286a2.45 2.45 0 0 1-1.153-1.025c-.27-.48-.38-1.049-.38-1.687-.01-.512-.04-1.404.646-2.096.533-.538 1.28-.79 2.334-.879zm0 4.064c-.61.084-.873.226-.912.266-.057.057-.08.162-.07.66v.022c-.002.406.073.615.127.71.053.096.082.121.2.173.124.053.359.085.655.101zm2 3.94v1.959c.41-.028.72-.065.805-.108.072-.035.055-.013.097-.107.042-.093.102-.335.104-.748 0-.408-.074-.621-.129-.719s-.085-.122-.205-.174c-.126-.054-.369-.086-.672-.103" style="fill:url(#f);fill-opacity:1;stroke:none"/></svg>