<svg xmlns="http://www.w3.org/2000/svg" width="32" height="32" viewBox="0 0 8.467 8.467"><path d="M68.227 139.991q-.117.08-.22.17l-.263.272-.283.468-.171.515-.064.564c-.009.284.02.566.082.829v.003c.06.25.07.369.182.568 1.269-.222 2.11.758 1.826 1.817-.15.558-.61.827-1.052.927-.623.109-1.147-.227-1.274-.699-.024-.155.014-.364.103-.417-.052.018-.114.038-.189.109-.126.119-.13.16-.294.207.08-.227-.362-.412-.282-.9l-.018.082c-.196 1.078.908 2.29 2.133 1.962a1.99 1.99 0 0 0 1.488-1.504 2.5 2.5 0 0 0-.02-1.15 2.3 2.3 0 0 0-.428-.846 3 3 0 0 0-.214-.24l-.001-.003-.007-.006a6 6 0 0 0-.499-.431l-.484-.419-.027-.029-.15-.199-.035-.06-.115-.33-.041-.455.056-.385.008-.025Z" style="opacity:1;fill:#4d4d4d;fill-opacity:1;fill-rule:nonzero;stroke:none;stroke-width:.0207703896;stroke-linecap:round;stroke-linejoin:round;stroke-miterlimit:4;stroke-dasharray:none;stroke-dashoffset:0;stroke-opacity:1" transform="translate(-63.72 -138.64)"/><path d="M68.52 140.54a2 2 0 0 0-.11.213l-.098.19-.14.442-.017.053.22.36.112.118q.02.023.042.043l-.04-.254-.002-.022-.01-.905ZM66.43 142.938l.015.493-.105.208-.012.368.1.184.022.044c.04-.18.116-.352.223-.502l.033-.21-.095-.365Z" style="opacity:1;fill:#4d4d4d;fill-opacity:1;fill-rule:nonzero;stroke:none;stroke-width:.0207703896;stroke-linecap:round;stroke-linejoin:round;stroke-miterlimit:4;stroke-dasharray:none;stroke-dashoffset:0;stroke-opacity:1" transform="translate(-63.72 -138.64)"/><path d="M67.854 143.662a1 1 0 0 0-.124.01c-.616.079-1.066.616-1.084 1.242l.004.004q.055.082.108.178c.019-.021.028-.03.062-.063a.6.6 0 0 1 .23-.142.154.16 0 0 1 .13.29c.027-.016-.004.009-.016.063a.6.6 0 0 0-.006.17c.099.363.496.642 1.002.553.375-.09.74-.31.861-.783.08-.31.054-.606-.054-.858a1.23 1.23 0 0 0-1.113-.664" style="opacity:1;fill:#4d4d4d;fill-opacity:1;fill-rule:nonzero;stroke:none;stroke-width:.0197276119;stroke-linecap:round;stroke-linejoin:round;stroke-miterlimit:4;stroke-dasharray:none;stroke-dashoffset:0;stroke-opacity:1" transform="matrix(1.00923 0 0 1.00923 -64.348 -139.994)"/><path d="m68.642 139.2-.023.25-.066.1-.028.186.04.1q.014.042.031.08l.021.052.047-.165.021-.075.061-.214-.026-.192Z" style="opacity:1;fill:#4d4d4d;fill-opacity:1;fill-rule:nonzero;stroke:none;stroke-width:.0207703896;stroke-linecap:round;stroke-linejoin:round;stroke-miterlimit:4;stroke-dasharray:none;stroke-dashoffset:0;stroke-opacity:1" transform="translate(-63.72 -138.64)"/></svg>