<svg xmlns="http://www.w3.org/2000/svg" xmlns:xlink="http://www.w3.org/1999/xlink" width="32" height="32"><defs><linearGradient xlink:href="#a" id="f" x1="378.571" x2="378.571" y1="553.798" y2="525.798" gradientTransform="translate(-376.571 -523.798)" gradientUnits="userSpaceOnUse"/><linearGradient id="b" x1="802.643" x2="816.643" y1="36.236" y2="50.236" gradientUnits="userSpaceOnUse"><stop offset="0" stop-color="#292c2f"/><stop offset="1" stop-opacity="0"/></linearGradient><linearGradient id="h" x1="402.571" x2="402.571" y1="549.798" y2="529.798" gradientTransform="translate(-376.571 -523.798)" gradientUnits="userSpaceOnUse"><stop offset="0" stop-color="#197cf1"/><stop offset="1" stop-color="#20bcfa"/></linearGradient><linearGradient xlink:href="#d" id="i" x1="18" x2="18" y1="24" y2="8" gradientUnits="userSpaceOnUse"/><linearGradient id="d" x1="-50" x2="-22.15" gradientUnits="userSpaceOnUse"><stop offset="0" stop-color="#7cbaf8"/><stop offset="1" stop-color="#f4fcff"/></linearGradient><linearGradient xlink:href="#b" id="j" x1="391.571" x2="397.571" y1="537.798" y2="543.798" gradientTransform="translate(-376.571 -523.798)" gradientUnits="userSpaceOnUse"/><linearGradient xlink:href="#d" id="k" x1="399.571" x2="399.571" y1="547.798" y2="531.798" gradientTransform="translate(-376.571 -523.798)" gradientUnits="userSpaceOnUse"/><linearGradient xlink:href="#d" id="l" x1="398.571" x2="398.571" y1="547.798" y2="531.798" gradientTransform="translate(-376.571 -523.798)" gradientUnits="userSpaceOnUse"/></defs><linearGradient id="a" x1="378.571" x2="378.571" y1="553.798" y2="525.798" gradientTransform="translate(-336.571 -523.798)" gradientUnits="userSpaceOnUse"><stop offset="0" stop-color="#63984b"/><stop offset="1" stop-color="#8fc278"/></linearGradient><linearGradient xlink:href="#e" id="g" x1="392.571" x2="406.571" y1="539.798" y2="553.798" gradientTransform="translate(-376.571 -523.798)" gradientUnits="userSpaceOnUse"><stop offset="0"/><stop offset="1" stop-opacity="0"/></linearGradient><linearGradient id="e" x1="389.571" x2="399.571" y1="536.798" y2="546.798" gradientUnits="userSpaceOnUse"><stop offset="0" stop-color="#292c2f"/><stop offset="1" stop-opacity="0"/></linearGradient><path d="M6 2c-.554 0-1.082.11-1.56.313a4 4 0 0 0-1.27.857 4 4 0 0 0-.857 1.27A4 4 0 0 0 2 6v1l2 2-2 1v16a3.98 3.98 0 0 0 1.17 2.83c.361.362.79.656 1.27.858A4 4 0 0 0 6 30h20c.554 0 1.082-.11 1.56-.313a4 4 0 0 0 1.27-.857c.362-.361.656-.79.858-1.27A4 4 0 0 0 30 26V6c0-.554-.11-1.082-.313-1.56a4 4 0 0 0-.857-1.27 4 4 0 0 0-1.27-.857A4 4 0 0 0 26 2Z" style="fill:url(#f)"/><path d="M10 30h16c.554 0 1.082-.11 1.56-.313a4 4 0 0 0 1.27-.857c.362-.361.656-.79.858-1.27A4 4 0 0 0 30 26V10l-4-4L6 26Z" style="opacity:.2;fill:url(#g)"/><path d="M6 6h20v20H6Z" style="fill:url(#h)"/><path d="M6 27h1v1H6Zm1 1h1v1H7Zm1-1h1v1H8Zm1 1h1v1H9Zm1-1h1v1h-1zm1 1h1v1h-1zm1-1h1v1h-1zm13 0h1v1h-1zm-1 1h1v1h-1zm-1-1h1v1h-1zm-1 1h1v1h-1zm-5 0h1v1h-1zm-1-1h1v1h-1zm-1 1h1v1h-1zm-1-1h1v1h-1zm-1 1h1v1h-1ZM28 7h1v1h-1zm-1 1h1v1h-1zm1 1h1v1h-1zm-1 1h1v1h-1zm1 1h1v1h-1zm-1 1h1v1h-1zm1 1h1v1h-1zm-1 3h1v1h-1zm1-1h1v1h-1zm-1-1h1v1h-1z"/><path d="M6 25h20v1H6Z" style="fill:#1c5593;fill-rule:evenodd"/><path d="M16 8a8 8 0 0 0-8 8 8 8 0 0 0 8 8 8 8 0 0 0 8-8 8 8 0 0 0-8-8m0 1a7.1 7.1 0 0 1 4.95 2.05A7.1 7.1 0 0 1 23 16a7.1 7.1 0 0 1-2.05 4.95A7.08 7.08 0 0 1 16 23a7.1 7.1 0 0 1-4.95-2.05A7.1 7.1 0 0 1 9 16c0-1.832.755-3.653 2.05-4.95A7.08 7.08 0 0 1 16 9" style="fill:url(#i)"/><path d="m17 11 9 9v5h-7l-4-4v-6l1-1-1-1z" style="opacity:.2;fill:url(#j)"/><path d="M15 11h2v2h-2z" style="fill:url(#k)"/><path d="M15 14h2v7h-2z" style="fill:url(#l)"/><path d="M3.422 29c.31.268.634.526 1.017.688A4 4 0 0 0 6 30h20c.554 0 1.082-.11 1.56-.313.384-.161.707-.42 1.018-.687z" style="fill:#4a7937"/></svg>