<svg xmlns="http://www.w3.org/2000/svg" xmlns:xlink="http://www.w3.org/1999/xlink" width="48" height="48"><defs><linearGradient id="c"><stop offset="0" style="stop-color:#fff;stop-opacity:0"/><stop offset="1" style="stop-color:#fff;stop-opacity:1"/></linearGradient><linearGradient id="a" x1="22.54" x2="42.646" y1="23.775" y2="44.054" gradientTransform="translate(30)" gradientUnits="userSpaceOnUse"><stop stop-color="#292c2f"/><stop offset="1" stop-color="#292c2f" stop-opacity="0"/></linearGradient><linearGradient xlink:href="#a" id="e" x1="-21.261" x2="10.555" y1="13.899" y2="48.902" gradientTransform="translate(30)" gradientUnits="userSpaceOnUse"/><linearGradient xlink:href="#a" id="d" x1="-7.283" x2="11.881" y1="15.656" y2="33.523" gradientTransform="translate(30)" gradientUnits="userSpaceOnUse"/><linearGradient xlink:href="#c" id="f" x1="-30.501" x2="-10.501" y1="28.25" y2="7.875" gradientUnits="userSpaceOnUse"/></defs><rect width="40" height="40" x="-44" y="4" rx="20" style="color:#000;clip-rule:nonzero;display:inline;overflow:visible;visibility:visible;opacity:1;isolation:auto;mix-blend-mode:normal;color-interpolation:sRGB;color-interpolation-filters:linearRGB;solid-color:#000;solid-opacity:1;fill:#1dc979;fill-opacity:1;fill-rule:nonzero;stroke-width:1;stroke-linecap:butt;stroke-linejoin:miter;stroke-miterlimit:4;stroke-dasharray:none;stroke-dashoffset:0;stroke-opacity:1;color-rendering:auto;image-rendering:auto;shape-rendering:auto;text-rendering:auto" transform="scale(-1 1)"/><path d="M4.01 23.5c-.003.167-.011.332-.011.5 0 11.08 8.92 20 20 20s20-8.92 20-20c0-.168-.009-.333-.013-.5A19.953 19.953 0 0 1 24 43 19.95 19.95 0 0 1 4.01 23.5" style="opacity:.3;fill:#161e25;stroke-width:2.79999995;stroke-opacity:.55"/><path d="M4.01 24.496c-.003-.167-.011-.332-.011-.5 0-11.08 8.92-20 20-20s20 8.92 20 20c0 .168-.009.333-.013.5A19.953 19.953 0 0 0 24 4.996a19.95 19.95 0 0 0-19.988 19.5" style="opacity:.3;fill:#fff;fill-opacity:1;stroke-width:2.79999995;stroke-opacity:.55"/><path d="M27.39 12.27a3.36 3.36 0 0 1-.502 1.711l4.948 2.86a3.35 3.35 0 0 1 .931-1.465zm-6.72.052-5.405 3.121a3.35 3.35 0 0 1 .864 1.425l5.028-2.905a3.36 3.36 0 0 1-.488-1.641m-6.774 8.72a3.4 3.4 0 0 1-.972.145 3.4 3.4 0 0 1-.592-.053v6.059a3.4 3.4 0 0 1 .592-.056 3.4 3.4 0 0 1 .972.145zm20.22.015v6.21a3.4 3.4 0 0 1 .918-.13 3.4 3.4 0 0 1 .784.099V21.09a3.4 3.4 0 0 1-.784.096 3.4 3.4 0 0 1-.919-.13m-17.91 10.109a3.35 3.35 0 0 1-.65 1.39l5.132 2.965a3.35 3.35 0 0 1 .515-1.468zm15.556.027-4.923 2.844a3.35 3.35 0 0 1 .524 1.543l5.102-2.946a3.35 3.35 0 0 1-.703-1.44M23.958 9.688a2.37 2.37 0 0 0-2.37 2.368 2.37 2.37 0 0 0 2.37 2.37 2.37 2.37 0 0 0 2.369-2.37 2.37 2.37 0 0 0-2.37-2.368m-.056 1.579h.056a.79.79 0 0 1 .79.79.79.79 0 0 1-.79.79.79.79 0 0 1-.79-.79.79.79 0 0 1 .734-.79M35.055 28.044a2.37 2.37 0 0 0-2.369 2.369 2.37 2.37 0 0 0 2.37 2.369 2.37 2.37 0 0 0 2.368-2.37 2.37 2.37 0 0 0-2.369-2.368M35 29.624h.055a.79.79 0 0 1 .79.789.79.79 0 0 1-.79.79.79.79 0 0 1-.79-.79.79.79 0 0 1 .735-.79" style="color:#000;clip-rule:nonzero;display:inline;overflow:visible;visibility:visible;opacity:.5;isolation:auto;mix-blend-mode:normal;color-interpolation:sRGB;color-interpolation-filters:linearRGB;solid-color:#000;solid-opacity:1;fill:#fff;fill-opacity:1;fill-rule:nonzero;stroke:none;stroke-width:.63318729;stroke-linecap:butt;stroke-linejoin:miter;stroke-miterlimit:4;stroke-dasharray:none;stroke-dashoffset:0;stroke-opacity:1;marker:none;color-rendering:auto;image-rendering:auto;shape-rendering:auto;text-rendering:auto"/><path d="m33.438 19.562 9.656 9.47.875-5.813L36.625 16 34 16.406z" style="color:#000;clip-rule:nonzero;display:inline;overflow:visible;visibility:visible;opacity:.21000001;isolation:auto;mix-blend-mode:normal;color-interpolation:sRGB;color-interpolation-filters:linearRGB;solid-color:#000;solid-opacity:1;fill:url(#d);fill-opacity:1;fill-rule:nonzero;stroke:none;stroke-width:1;stroke-linecap:butt;stroke-linejoin:miter;stroke-miterlimit:4;stroke-dasharray:none;stroke-dashoffset:0;stroke-opacity:1;color-rendering:auto;image-rendering:auto;shape-rendering:auto;text-rendering:auto"/><path d="M35.055 15.393a2.37 2.37 0 0 0-2.369 2.369 2.37 2.37 0 0 0 2.37 2.369 2.37 2.37 0 0 0 2.368-2.37 2.37 2.37 0 0 0-2.369-2.368M35 16.973h.055a.79.79 0 0 1 .79.789.79.79 0 0 1-.79.79.79.79 0 0 1-.79-.79.79.79 0 0 1 .735-.79" style="color:#000;clip-rule:nonzero;display:inline;overflow:visible;visibility:visible;opacity:1;isolation:auto;mix-blend-mode:normal;color-interpolation:sRGB;color-interpolation-filters:linearRGB;solid-color:#000;solid-opacity:1;fill:#fff;fill-opacity:1;fill-rule:nonzero;stroke:none;stroke-width:.63318729;stroke-linecap:butt;stroke-linejoin:miter;stroke-miterlimit:4;stroke-dasharray:none;stroke-dashoffset:0;stroke-opacity:1;marker:none;color-rendering:auto;image-rendering:auto;shape-rendering:auto;text-rendering:auto"/><path d="M12.945 28.044a2.37 2.37 0 0 0-2.37 2.369 2.37 2.37 0 0 0 2.37 2.369 2.37 2.37 0 0 0 2.369-2.37 2.37 2.37 0 0 0-2.37-2.368m-.056 1.58h.056a.79.79 0 0 1 .79.789.79.79 0 0 1-.79.79.79.79 0 0 1-.79-.79.79.79 0 0 1 .734-.79" style="color:#000;clip-rule:nonzero;display:inline;overflow:visible;visibility:visible;opacity:.5;isolation:auto;mix-blend-mode:normal;color-interpolation:sRGB;color-interpolation-filters:linearRGB;solid-color:#000;solid-opacity:1;fill:#fff;fill-opacity:1;fill-rule:nonzero;stroke:none;stroke-width:.63318729;stroke-linecap:butt;stroke-linejoin:miter;stroke-miterlimit:4;stroke-dasharray:none;stroke-dashoffset:0;stroke-opacity:1;marker:none;color-rendering:auto;image-rendering:auto;shape-rendering:auto;text-rendering:auto"/><path d="m14.578 16.063-3.015.343-.344 2.969 7.181 7.166 3.145 7.117 1.457 1.453-.95 2.239 5.302 5.379a21 21 0 0 0 2.634-.649l.02.02.142-.069c1.104-.355 1.878-.706 2.377-.926 2.04-.749 3.677-2.3 5.378-3.726 4.211-4.607 3.732-5.36 4.956-7.514l-8.972-8.928-5.764 8.5Z" style="color:#000;clip-rule:nonzero;display:inline;overflow:visible;visibility:visible;opacity:.21000001;isolation:auto;mix-blend-mode:normal;color-interpolation:sRGB;color-interpolation-filters:linearRGB;solid-color:#000;solid-opacity:1;fill:url(#e);fill-opacity:1;fill-rule:nonzero;stroke:none;stroke-width:1;stroke-linecap:butt;stroke-linejoin:miter;stroke-miterlimit:4;stroke-dasharray:none;stroke-dashoffset:0;stroke-opacity:1;color-rendering:auto;image-rendering:auto;shape-rendering:auto;text-rendering:auto"/><path d="M12.945 15.393a2.37 2.37 0 0 0-2.37 2.369 2.37 2.37 0 0 0 2.37 2.369 2.37 2.37 0 0 0 2.369-2.37 2.37 2.37 0 0 0-2.37-2.368m-.056 1.58h.056a.79.79 0 0 1 .79.789.79.79 0 0 1-.79.79.79.79 0 0 1-.79-.79.79.79 0 0 1 .734-.79M23.958 33.575a2.37 2.37 0 0 0-2.37 2.369 2.37 2.37 0 0 0 2.37 2.368 2.37 2.37 0 0 0 2.369-2.368 2.37 2.37 0 0 0-2.37-2.37m-.056 1.579h.056a.79.79 0 0 1 .79.79.79.79 0 0 1-.79.79.79.79 0 0 1-.79-.79.79.79 0 0 1 .734-.79M15.49 19.993a3.35 3.35 0 0 1-1.283.935l7.326 12.69a3.35 3.35 0 0 1 1.305-.895zM32.523 20.052l-7.316 12.674a3.35 3.35 0 0 1 1.308.895l7.31-12.665a3.35 3.35 0 0 1-1.302-.904" style="color:#000;clip-rule:nonzero;display:inline;overflow:visible;visibility:visible;opacity:1;isolation:auto;mix-blend-mode:normal;color-interpolation:sRGB;color-interpolation-filters:linearRGB;solid-color:#000;solid-opacity:1;fill:#fff;fill-opacity:1;fill-rule:nonzero;stroke:none;stroke-width:.63318729;stroke-linecap:butt;stroke-linejoin:miter;stroke-miterlimit:4;stroke-dasharray:none;stroke-dashoffset:0;stroke-opacity:1;marker:none;color-rendering:auto;image-rendering:auto;shape-rendering:auto;text-rendering:auto"/><rect width="40" height="40" x="-44" y="4" rx="20" style="color:#000;clip-rule:nonzero;display:inline;overflow:visible;visibility:visible;opacity:.45;isolation:auto;mix-blend-mode:normal;color-interpolation:sRGB;color-interpolation-filters:linearRGB;solid-color:#000;solid-opacity:1;fill:url(#f);fill-opacity:1;fill-rule:nonzero;stroke-width:1;stroke-linecap:butt;stroke-linejoin:miter;stroke-miterlimit:4;stroke-dasharray:none;stroke-dashoffset:0;stroke-opacity:1;color-rendering:auto;image-rendering:auto;shape-rendering:auto;text-rendering:auto" transform="scale(-1 1)"/></svg>