<svg xmlns="http://www.w3.org/2000/svg" xmlns:xlink="http://www.w3.org/1999/xlink" width="48" height="48"><defs><linearGradient id="i" x1="395.91" x2="425.21" y1="525.26" y2="513.95" gradientTransform="translate(-384.57 -499.8)" gradientUnits="userSpaceOnUse"><stop stop-color="#da4453"/><stop offset="1" stop-color="#ff7336"/></linearGradient><linearGradient id="g" x1="26.362" x2="44" y1="44.09" y2="33.75" gradientUnits="userSpaceOnUse"><stop stop-color="#c0392b"/><stop offset="1" stop-color="#c0392b" stop-opacity="0"/></linearGradient><linearGradient id="n" x1="388.57" x2="398.82" y1="519.85" y2="528.52" gradientUnits="userSpaceOnUse"><stop stop-color="#4d4d4d"/><stop offset="1" stop-color="#31363b"/></linearGradient><linearGradient id="a" x1="394.57" x2="422.73" y1="509.8" y2="537.95" gradientUnits="userSpaceOnUse"><stop stop-color="#e5e7e8"/><stop offset="1" stop-color="#dcdee0"/></linearGradient><linearGradient id="f" x1="389.57" x2="427.57" gradientTransform="rotate(45 408.574 523.795)" gradientUnits="userSpaceOnUse"><stop stop-color="#fcfcfc"/><stop offset="1" stop-color="#eff0f1"/></linearGradient><linearGradient xlink:href="#a" id="h" x1="771.7" x2="799.04" y1="133.33" y2="160.66" gradientUnits="userSpaceOnUse"/><linearGradient id="k" x2="0" y1="551.8" y2="528.8" gradientTransform="matrix(.49677 0 0 .76923 -190 -402.77)" gradientUnits="userSpaceOnUse"><stop stop-color="#c6cdd1"/><stop offset="1" stop-color="#e0e5e7"/></linearGradient><linearGradient id="c" x2="0" y1="557.8" y2="505.8" gradientTransform="matrix(.61141 0 0 .76923 -297.65 -385.08)" gradientUnits="userSpaceOnUse"><stop stop-color="#42a603"/><stop offset="1" stop-color="#78da06"/></linearGradient><linearGradient id="b" x1="398.57" x2="400.57" gradientTransform="matrix(1.5625 0 0 1.53847 -227.95 -292.82)" gradientUnits="userSpaceOnUse"><stop stop-color="#faae2a"/><stop offset="1" stop-color="#ffc35a"/></linearGradient><linearGradient xlink:href="#b" id="m" x1="398.57" x2="400.57" gradientTransform="matrix(1.5625 0 0 1.53847 -603.14 -792.62)" gradientUnits="userSpaceOnUse"/><linearGradient id="o" x1="410.5" x2="390.65" y1="539.88" y2="529.73" gradientTransform="translate(-384.57 -499.8)" gradientUnits="userSpaceOnUse"><stop stop-color="#bcfd93"/><stop offset="1" stop-color="#fafff5"/></linearGradient><linearGradient id="d" x1="14.187" x2="34.19" y1="34.612" y2="54.612" gradientTransform="translate(-80)" gradientUnits="userSpaceOnUse"><stop stop-color="#383e51"/><stop offset="1" stop-color="#655c6f" stop-opacity="0"/></linearGradient><linearGradient xlink:href="#a" id="e" x1="394.57" x2="422.73" y1="509.8" y2="537.95" gradientUnits="userSpaceOnUse"/><linearGradient xlink:href="#b" id="l" x1="398.57" x2="400.57" gradientTransform="matrix(1.5625 0 0 1.53847 -612.52 -792.62)" gradientUnits="userSpaceOnUse"/><linearGradient xlink:href="#c" id="j" x2="0" y1="557.8" y2="505.8" gradientTransform="matrix(.61141 0 0 .76923 -237.65 -385.08)" gradientUnits="userSpaceOnUse"/><linearGradient xlink:href="#d" id="p" x1="14.187" x2="34.19" y1="34.612" y2="54.612" gradientUnits="userSpaceOnUse"/></defs><g style="stroke-width:8.58699989;stroke-opacity:.55"><path d="M408.57 503.8a19.953 19.953 0 0 0-19.996 19.846l1.123.023 4.684 12.02 10.166 5.922 11.4-.707 7.779-5.48 3.623-12.02-2.121-8.662-6.189-7.631-1.563-1.156-.266-.186a19.96 19.96 0 0 0-8.641-1.971m0 5c8.31 0 15 6.69 15 15s-6.69 15-15 15-15-6.69-15-15 6.69-15 15-15" style="fill:url(#e)" transform="translate(-384.57 -499.8)"/><path d="M408.57 504.78a18.94 18.94 0 0 0-13.436 5.582 18.96 18.96 0 0 0 0 26.871 18.96 18.96 0 0 0 26.871 0 18.96 18.96 0 0 0 0-26.871 18.94 18.94 0 0 0-13.436-5.582m0 13.02c1.532 0 3.064.588 4.238 1.762a5.98 5.98 0 0 1 0 8.477 5.98 5.98 0 0 1-8.477 0 5.98 5.98 0 0 1 0-8.477 5.98 5.98 0 0 1 4.238-1.762" style="fill:url(#f)" transform="translate(-384.57 -499.8)"/><path d="M4.01 23.5c-.004.167-.012.332-.012.5 0 11.08 8.92 20 20 20s20-8.92 20-20c0-.168-.008-.333-.012-.5A19.954 19.954 0 0 1 23.998 43 19.95 19.95 0 0 1 4.01 23.5" style="fill:url(#g)"/><path d="M24 17a6.97 6.97 0 0 0-4.945 2.055 6.98 6.98 0 0 0 0 9.891 6.98 6.98 0 0 0 9.891 0 6.98 6.98 0 0 0 0-9.891A6.97 6.97 0 0 0 24.001 17m-.002 3.955a3.003 3.003 0 0 1 3.002 3.004 3.003 3.003 0 0 1-3.002 3.002 3.003 3.003 0 0 1-3.004-3.002A3.003 3.003 0 0 1 24 20.955" style="opacity:.4;fill:#f9f9f9"/><path d="M408.759 512.798a11 11 0 0 0-.78.027 11 11 0 0 0-1.09.133 11 11 0 0 0-1.073.24 11 11 0 0 0-1.043.348 11 11 0 0 0-1.004.447 11 11 0 0 0-.953.55 11 11 0 0 0-.895.638 11 11 0 0 0-.826.726 11 11 0 0 0-.748.805 11 11 0 0 0-.666.875 11 11 0 0 0-.574.938 11 11 0 0 0-.479.99 11 11 0 0 0-.379 1.033 11 11 0 0 0-.271 1.064 11 11 0 0 0-.164 1.086 11 11 0 0 0-.055 1.1 11 11 0 0 0 .027.78 11 11 0 0 0 .133 1.09 11 11 0 0 0 .242 1.073 11 11 0 0 0 .346 1.043 11 11 0 0 0 .447 1.004 11 11 0 0 0 .549.953 11 11 0 0 0 .64.895 11 11 0 0 0 .725.826 11 11 0 0 0 .805.748 11 11 0 0 0 .875.666 11 11 0 0 0 .937.574 11 11 0 0 0 .99.479 11 11 0 0 0 1.034.379 11 11 0 0 0 1.064.271 11 11 0 0 0 1.086.164 11 11 0 0 0 1.1.055 11 11 0 0 0 .78-.027 11 11 0 0 0 1.089-.133 11 11 0 0 0 1.074-.242 11 11 0 0 0 1.043-.346 11 11 0 0 0 1.004-.447 11 11 0 0 0 .953-.55 11 11 0 0 0 .895-.64 11 11 0 0 0 .826-.724 11 11 0 0 0 .748-.805 11 11 0 0 0 .666-.875 11 11 0 0 0 .574-.938 11 11 0 0 0 .479-.99 11 11 0 0 0 .379-1.033 11 11 0 0 0 .271-1.064 11 11 0 0 0 .164-1.086 11 11 0 0 0 .055-1.1 11 11 0 0 0-.027-.78 11 11 0 0 0-.133-1.09 11 11 0 0 0-.242-1.073 11 11 0 0 0-.346-1.043 11 11 0 0 0-.447-1.004 11 11 0 0 0-.55-.953 11 11 0 0 0-.638-.895 11 11 0 0 0-.726-.826 11 11 0 0 0-.805-.748 11 11 0 0 0-.875-.666 11 11 0 0 0-.938-.574 11 11 0 0 0-.99-.479 11 11 0 0 0-1.033-.379 11 11 0 0 0-1.065-.271 11 11 0 0 0-1.085-.164 11 11 0 0 0-1.1-.055m-.191 4.998c1.533 0 3.068.585 4.242 1.76a5.99 5.99 0 0 1 0 8.484 5.985 5.985 0 0 1-8.482 0 5.99 5.99 0 0 1 0-8.484 5.97 5.97 0 0 1 4.24-1.76" style="fill:url(#h)" transform="translate(-384.57 -499.8)"/><path d="M24 20.95a3 3 0 0 0-2.957 3.516 3.004 3.004 0 0 1 2.961-2.52c1.46 0 2.709 1.05 2.959 2.488q.041-.24.043-.484a3 3 0 0 0-3-3" style="opacity:.1"/><path d="M28 24a3.98 3.98 0 0 1-1.174 2.826A3.98 3.98 0 0 1 24 28v1a4.98 4.98 0 0 0 3.533-1.467A4.98 4.98 0 0 0 29 24Z" style="fill:#95a5a6"/></g><path d="M32.467 5.887v.004l.008.004zm.008.008c.625.574 1.432 1.399 1.931 2.293.875 1.563.75 4.28-1.937 4.78s-2.79-.414-2.782-1.5c-1.428.198-2.068 3.364.438 4.47 2.125.937 2.906.564 6.906.314s4.469 4.625 2.594 5.375-2.59-.588-2.469-1.314c-1.503.587-1.685 2.224-.937 3 5.847 6.06 3.042 10.738 1.437 11.218-1.989.594-3.39-.582-2.375-2.154.828-1.281.114-3.396-.892-4.145-1.01-.748-2.96-.568-3.795-.013 1.204.455 2.969 1.155 2.5 2.718-.362 1.207-1.55 1.969-3.032 1.94A4 4 0 0 1 29 32.725v6.498l-3.178 2.228 1.555 1.666 1.623.235c8.64-2.212 15-10 15-19.35 0-8.047-4.712-14.93-11.525-18.107" style="fill:url(#i);fill-rule:evenodd"/><path d="M4 22v17.104A4.885 4.885 0 0 0 8.896 44h15.208A4.885 4.885 0 0 0 29 39.104V22Z" style="fill:url(#j)"/><rect width="21" height="18" x="6" y="4" rx="0" style="fill:url(#k)"/><path d="M9 7h6v6H9Zm9 0h6v6h-6z" style="fill:#23262c"/><path d="M10 7h4v6h-4z" style="fill:url(#l)"/><path d="M19 7h4v6h-4z" style="fill:url(#m)"/><g style="color:#000;stroke-width:3;stroke-linejoin:round" transform="translate(-384.57 -499.8)"><path d="M388.94 519.85a21.2 21.2 0 0 0-.373 3.943c0 1.349.132 2.666.373 3.943l11.627-1.943c1.095-.168 2-.892 2-2s-.905-1.832-2-2z" style="fill:url(#n)"/><circle cx="400.57" cy="523.8" r="1" style="fill:#27ae60"/></g><path d="m25.82 34.09.087-.016c.024.019.02.057.013.091-.016.08-.055.224-.081.292l-.022.056a.5.5 0 0 1-.12.211c-.162.148-.422.266-.829.443-.629.275-1.648.448-2.594.443-.339-.007-.667-.045-.955-.078-.882-.101-1.519-.173-1.651.629-.167 1 .777 2.225.787 2.236v.033l-.031.007s-1.506-.694-1.543-.714l-.048-.034-.038-.037c-.114-.109-.342-.354-.805-.891-.898-1.038-1.949-1.175-2.758-.977a1.44 1.44 0 0 0-.612.354c-.423.417-.375 1.257-.351 1.562.028.346.046.372.054.4l-.005.035-.03.004-.017-.012-1.235-.604-.047-.202a4 4 0 0 0-.138-.466c-.442-1.164-1.434-2.04-2.528-2.229-.739-.127-2.086-.142-2.799 1.205-.298.562-.28 1.294.047 1.911a2.08 2.08 0 0 0 1.633 1.114c.699.076 1.224-.086 1.519-.467.297-.385.353-.91.142-1.337-.226-.459-.568-.702-1.043-.742-.361-.033-.63.118-.726.272a.5.5 0 0 0-.08.263v.005c0 .344.315.438.379.443a1 1 0 0 0 .24-.034l.103-.034.031-.005a.446.446 0 0 1 .33.808l-.029.018a.8.8 0 0 1-.19.085 1.6 1.6 0 0 1-.498.086c-.545-.001-1.304-.47-1.315-1.351-.005-.497.244-.95.683-1.241.506-.334 1.38-.448 2.19.049.998.611 1.258 1.807.998 2.623-.378 1.181-1.443 1.813-2.848 1.687-.995-.089-1.92-.614-2.47-1.405a3.5 3.5 0 0 1-.523-1.13c-.225-.891.003-1.838.172-2.257.538-1.334 1.568-2.481 3.059-3.411l.094-.059c3.171-1.949 5.415-1.87 7.06-1.813 1.938.067 4 .736 4.289.83l.012-.642.008-.02.022-.005c.13.018 2.914.431 4.087 1.115.145.086.217.174.307.267.324.335.753 1.73.798 2.02l-.017.029c-.017.005-.057.036-.111.072-.273.191-.913.639-1.733.566-.737-.065-1.7-.488-2.861-1.252l.334.789.015.019c.168.087 1.781.909 2.582.893.646-.013 1.335-.328 1.611-.494zm-.75-1.609a1.195 1.195 0 0 0-1.15-1.233 1.18 1.18 0 0 0-.853.319 1.19 1.19 0 0 0-.378.829 1.196 1.196 0 0 0 1.149 1.233 1.19 1.19 0 0 0 1.232-1.148" style="fill:url(#o)"/><path d="M24.113 43.998a4.9 4.9 0 0 0 1.9-.38 4.9 4.9 0 0 0 1.555-1.05 4.9 4.9 0 0 0 1.05-1.554 4.9 4.9 0 0 0 .382-1.91v-3.89l-3.81-3.804.007.04.006.005c.324.335.756 1.73.8 2.02l-.019.029c-.017.005-.057.035-.11.07a5 5 0 0 1-.345.219l-.007.44c.099-.048.238-.1.3-.137v-.002l.086-.02c.024.02.023.06.016.094a2 2 0 0 1-.082.293l-.022.057a.5.5 0 0 1-.12.21c-.163.149-.422.267-.829.444-.629.275-1.647.445-2.594.44-.339-.008-.667-.045-.955-.077-.882-.1-1.52-.174-1.652.627-.167 1 .778 2.225.787 2.236v.034l-.031.007s-1.506-.693-1.543-.714l-.047-.034-.04-.037c-.113-.109-.34-.353-.804-.89-.898-1.038-1.95-1.176-2.76-.979-.197.047-.448.19-.61.354-.424.417-.374 1.256-.35 1.562.028.346.044.373.052.4l-.004.036-.03.004-.018-.012-1.235-.604-.047-.203a4 4 0 0 0-.138-.465c-.442-1.164-1.435-2.042-2.528-2.23-.739-.127-2.086-.141-2.799 1.205-.298.562-.28 1.295.047 1.912a2.08 2.08 0 0 0 1.633 1.113c.7.076 1.225-.084 1.52-.466a1.28 1.28 0 0 0 .14-1.338c-.226-.46-.568-.702-1.043-.742-.36-.032-.63.116-.726.27a.5.5 0 0 0-.08.265v.004c0 .344.315.439.379.443.02 0 .115-.002.24-.033l.06-.022.043-.015.03-.004a.447.447 0 0 1 .513.316q.018.06.02.121a.45.45 0 0 1-.2.37l-.029.019a.8.8 0 0 1-.191.084 1.6 1.6 0 0 1-.498.086c-.545-.001-1.305-.469-1.315-1.35-.005-.497.246-.951.686-1.242.506-.334 1.38-.448 2.19.049.997.61 1.257 1.807.996 2.623-.378 1.18-1.442 1.812-2.848 1.687a3.44 3.44 0 0 1-1.387-.433l5.317 4.449z" style="opacity:.2;fill:url(#p);fill-rule:evenodd"/><path d="M29 38.078c0 .678-.136 1.324-.383 1.91a4.9 4.9 0 0 1-1.049 1.555 4.9 4.9 0 0 1-1.554 1.049 4.9 4.9 0 0 1-1.91.383H8.896a4.9 4.9 0 0 1-1.91-.383 4.9 4.9 0 0 1-1.554-1.049 4.9 4.9 0 0 1-1.05-1.555A4.9 4.9 0 0 1 4 38.078v1.026A4.885 4.885 0 0 0 8.896 44h15.208A4.885 4.885 0 0 0 29 39.104Z" style="fill:#46943b"/></svg>