<svg xmlns="http://www.w3.org/2000/svg" xmlns:xlink="http://www.w3.org/1999/xlink" width="48" height="48"><defs><linearGradient id="b" x2="0" y1="543.8" y2="503.8" gradientUnits="userSpaceOnUse"><stop stop-color="#2a2c2f"/><stop offset="1" stop-color="#424649"/></linearGradient><linearGradient id="d" x2="0" y1="532.8" y2="506.8" gradientUnits="userSpaceOnUse"><stop stop-color="#989a9b"/><stop offset="1" stop-color="#f6f6f7"/></linearGradient><linearGradient id="a" x1="403.57" x2="413.26" y1="522.8" y2="534.8" gradientUnits="userSpaceOnUse"><stop stop-color="#020303"/><stop offset="1" stop-color="#424649" stop-opacity="0"/></linearGradient><linearGradient xlink:href="#a" id="f" x1="400.77" x2="412.57" y1="521.8" y2="533.6" gradientUnits="userSpaceOnUse"/><path id="e" fill-rule="evenodd" d="m426.57 529.8-16 11-8-8-2-9 17-5z"/></defs><g transform="translate(-384.57 -499.8)"><g fill-rule="evenodd"><path fill="url(#b)" d="m408.57 543.8-20-14 20-26 20 26z"/><path fill="url(#d)" d="m402.57 532.8-8-7 14-19 9 12-17 5z"/></g><use xlink:href="#e" fill="url(#a)" opacity=".3"/><g fill-rule="evenodd"><path fill="#fff" fill-opacity=".235" d="m394.57 525.8 14-17 9 10-9-12z"/><path fill="#212325" d="m389.07 529.15-.5.65 20 14 20-14-.5-.65-19.5 13.65z"/></g><use xlink:href="#e" fill="url(#f)" opacity=".2"/><g fill-rule="evenodd"><path fill="#25272b" d="m402.57 532.8-1-8 16-6-17 5z"/><path fill="#bbbec1" fill-opacity=".998" d="m402.57 532.8-3-9 15-5-6-10 9 10-17 5z"/></g></g></svg>