<svg xmlns="http://www.w3.org/2000/svg" xmlns:xlink="http://www.w3.org/1999/xlink" width="48" height="48"><defs><linearGradient xlink:href="#a" id="d" x1="205.123" x2="222.19" y1="159.586" y2="223.28" gradientTransform="translate(-88.076 -79.114)scale(.5412)" gradientUnits="userSpaceOnUse"/><linearGradient id="a"><stop offset="0" style="stop-color:#77ede2;stop-opacity:1"/><stop offset="1" style="stop-color:#1917bc;stop-opacity:1"/></linearGradient><linearGradient xlink:href="#b" id="e" x1="167.835" x2="243.314" y1="216.044" y2="169.189" gradientTransform="translate(-88.076 -79.114)scale(.5412)" gradientUnits="userSpaceOnUse"/><linearGradient id="b"><stop offset="0" style="stop-color:#bdbdef;stop-opacity:1"/><stop offset=".057" style="stop-color:#9996e6;stop-opacity:1"/><stop offset=".174" style="stop-color:#766eed;stop-opacity:1"/><stop offset=".279" style="stop-color:#7786ef;stop-opacity:1"/><stop offset=".545" style="stop-color:#5773f4;stop-opacity:1"/><stop offset=".78" style="stop-color:#6aa6e5;stop-opacity:1"/><stop offset="1" style="stop-color:#8ee0f2;stop-opacity:1"/></linearGradient></defs><circle cx="22.25" cy="24" r="21" style="fill:url(#d);fill-opacity:1;stroke-width:.475781;stroke-linecap:round;stroke-linejoin:round;stroke-opacity:.992157"/><path d="M21.655 3.009A21 21 0 0 0 1.256 23.548a3 3 0 0 0 .415-.076c.995 1.227 2.998-3.886 4.317-.8 1.144 1.928.469 4.029 1.323 5.98 1.555 1.44 4.663.568 5.453 3.18 1.019 2.623 3.93-1.453 4.089 1.457.147 2.422-1.613 5.307 1.08 6.927 1.672 1.326 3.624 2.468 5.807 2.588 1.624.25 5.223.995 5.101-1.46a7.84 7.84 0 0 0-1.98-7.152c-1.537-1.53-3.402-2.688-5.5-3.256-1.201-.898-2.447-3.152-3.936-1.324-2.089-.333-2.883-5.547-.116-4.967 1.679-.61 3.284-2.023 4.912-.193 2.2.037 3.871-2.537 3.944-4.537.434-1.73 1.264-2.839 3.248-2.936 1.08-.51-1.311-.267-1.188-1.265-1.687-1.03-4.115 2.804-5.264-.271-1.142-1.907 2.59-2.262.734-4.403-.336-2.508 1.929-3.06 3.78-3.3.542-1.492-2.297-1.566-1.904-3.2-1.134-.929-2.493-1.34-3.916-1.531M40.237 15.73c-2.076.414-.918 2.704-1.51 3.894.795 2.318-2.32 2.389-3.074 3.99-1.434 1.243-2.196 4.417.052 5.5 1.334 1.516 4.163 1.696 4.37 3.982.146.29.304.732.48 1.197A21 21 0 0 0 43.25 24a21 21 0 0 0-1.47-7.716c-.213-.145-.428-.29-.653-.42l-.452-.123z" style="fill:#fff;fill-opacity:.16683;stroke:none;stroke-width:.541203px;stroke-linecap:butt;stroke-linejoin:miter;stroke-opacity:1"/><path d="M37.038 9.096a21 21 0 0 1 3.098 3.919c.922.183 1.568.555 1.913 1.102 1.845 2.926-3.093 10.485-14.795 17.154C14.79 38.372 6.19 38.528 4.346 35.6q-.304-.481-.293-1.135a21 21 0 0 1-1.53-3.27c-1.243 3.366-1.095 6.344.425 8.533 3.366 4.662 16.274 2.64 28.067-4.785s18.75-16.184 14.639-22.107c-1.595-2.296-4.615-3.607-8.616-3.74" style="fill:url(#e);fill-opacity:1;stroke-width:.484067;stroke-linecap:round;stroke-linejoin:round;stroke-opacity:.992157"/></svg>