<svg xmlns="http://www.w3.org/2000/svg" width="256" height="256" xmlns:v="https://vecta.io/nano"><path d="M106.33 255.08c-49.997-9.09-90.173-47.7-101.184-97.3-3.184-14.1-3.432-42.7-.493-56.1 5.357-24.4 16.566-45.4 33.331-62.5 17.757-18.2 37.002-29.1 62.992-35.8 7.252-1.86 11.21-2.16 28.272-2.16s21.03.302 28.272 2.16c50.096 12.8 85.61 49.1 96.422 98.3 1.915 8.78 2.292 13.3 2.242 27.5-.044 14.7-.405 18.5-2.629 28.1-8.73 37.6-33.232 69.1-67.059 86.3-8.73 4.44-24.8 9.7-35.216 11.5-11.011 1.93-33.926 1.89-44.739-.068z" fill="#fefefe"/><path d="M119.226 227.08c-22.518-5.68-42.557-26.6-62.099-64.7-27.875-54.4-31.446-104-8.601-119 7.827-4.88 19.245-4.7 29.363.443 5.615 2.86 7.212 4.66 10.416 11.7 3.938 8.67 5.476 18.6 6.14 39.6l.613 19.3 3.155-7.29c1.736-4.01 5.238-10.9 7.787-15.4 2.549-4.45 4.643-9.31 4.643-10.8 0-1.48-1.111-5.35-2.48-8.62-2.54-6.08-2.946-9.38-1.865-14.9.619-3.12.626-3.13 7.192-3.13l6.567-.004 4.097-5.34c4.623-6.04 13.59-13.4 21.328-17.4 4.484-2.34 6.398-2.72 13.69-2.72 7.519 0 9.007.319 13.293 2.84 2.639 1.56 4.583 3.05 4.325 3.31s-3.045-.286-6.21-1.21c-7.876-2.31-15.773-1.48-23.808 2.5-19.046 9.44-38.39 45-30.851 56.6 1.022 1.58 3.512 2.99 7.103 4.04 5.833 1.71 8.65 1.26 3.78-.608-10.218-3.91-8.105-13.2 6.845-30.1l8.521-9.63-.564-5.51c-.511-4.99-.354-5.63 1.667-6.72 2.778-1.5 7.311-.653 10.614 1.99 3.135 2.49 12.896 2.72 21.13.509 2.996-.812 8.234-1.48 11.606-1.49 5.773-.011 6.22.155 6.805 2.49.342 1.37.37 3.16.062 3.97s.375 3.6 1.518 6.21c2.569 5.86 3.532 19.7 1.895 27.3-.633 2.98-2.916 9.08-5.079 13.6-5.406 11.2-5.615 12.9-2.51 20.3 5.327 12.7 9.216 37 8.214 51.1-.297 4.15-1.726 13.4-3.184 20.5-2.778 13.7-2.559 18.5.992 21.5.815.683 1.488 2.68 1.488 4.44 0 3.72-2.778 6.71-7.837 8.41-4.742 1.6-14.979 1.42-19.939-.361-5.922-2.11-10.813-1.87-14.88.723-3.055 1.95-5.01 2.24-16.368 2.46-8.759.166-14.781-.224-18.749-1.22zm-15.078-35.2c-8.819-26.1-6.081-55.4 8.025-85.9l4.246-9.16-4.543-3.98-3.978 8.66c-16.17 35.2-18.65 66.2-7.063 89.3 3.065 6.12 5.843 10.9 6.359 10.9.137 0-1.23-4.39-3.036-9.75zm75.888-87.5l2.083-5.25-.452 4.37c-.257 2.49-.079 4 .413 3.5.811-.818 5.922-13.7 5.922-15 0-.311-1.349.582-3.006 1.98-3.065 2.6-8.571 4.61-12.698 4.62-2.083.005-2.222.329-1.647 3.76 1.131 6.77 1.428 7.25 4.424 7.25 2.5 0 3.095-.629 4.93-5.25z" fill="#fcfbfb"/><path d="M119.226 227.08c-22.518-5.68-42.557-26.6-62.099-64.7-21.328-41.7-28.669-80.3-19.84-104 6.349-17.1 23.312-23 40.672-14.2 5.615 2.86 7.212 4.66 10.416 11.7 3.938 8.67 5.476 18.6 6.14 39.6l.613 19.3 3.155-7.29c1.736-4.01 5.238-10.9 7.787-15.4 2.549-4.45 4.643-9.31 4.643-10.8 0-1.48-1.111-5.35-2.48-8.62-2.54-6.08-2.946-9.38-1.865-14.9.619-3.12.626-3.13 7.192-3.13l6.567-.004 4.097-5.34c4.623-6.04 13.59-13.4 21.328-17.4 4.484-2.34 6.398-2.72 13.69-2.72 7.519 0 9.007.319 13.293 2.84 2.639 1.56 4.583 3.05 4.325 3.31s-3.045-.286-6.21-1.21c-7.876-2.31-15.773-1.48-23.808 2.5-19.046 9.44-38.39 45-30.851 56.6 1.022 1.58 3.512 2.99 7.103 4.04 5.833 1.71 8.65 1.26 3.78-.608-10.218-3.91-8.105-13.2 6.845-30.1l8.521-9.63-.564-5.51c-.511-4.99-.354-5.63 1.667-6.72 2.778-1.5 7.311-.653 10.614 1.99 3.135 2.49 12.896 2.72 21.13.509 2.996-.812 8.234-1.48 11.606-1.49 5.773-.011 6.22.155 6.805 2.49.342 1.37.37 3.16.062 3.97s.375 3.6 1.518 6.21c2.569 5.86 3.532 19.7 1.895 27.3-.633 2.98-2.916 9.08-5.079 13.6-5.406 11.2-5.615 12.9-2.51 20.3 5.327 12.7 9.216 37 8.214 51.1-.297 4.15-1.726 13.4-3.184 20.5-2.778 13.7-2.559 18.5.992 21.5.815.683 1.488 2.68 1.488 4.44 0 3.72-2.778 6.71-7.837 8.41-4.742 1.6-14.979 1.42-19.939-.361-5.922-2.11-10.813-1.87-14.88.723-3.055 1.95-5.01 2.24-16.368 2.46-8.759.166-14.781-.224-18.749-1.22zm-15.078-35.2c-8.819-26.1-6.081-55.4 8.025-85.9l4.246-9.16-4.543-3.98-3.978 8.66c-16.17 35.2-18.65 66.2-7.063 89.3 3.065 6.12 5.843 10.9 6.359 10.9.137 0-1.23-4.39-3.036-9.75zm75.888-87.5l2.083-5.25-.452 4.37c-.257 2.49-.079 4 .413 3.5.811-.818 5.922-13.7 5.922-15 0-.311-1.349.582-3.006 1.98-3.065 2.6-8.571 4.61-12.698 4.62-2.083.005-2.222.329-1.647 3.76 1.131 6.77 1.428 7.25 4.424 7.25 2.5 0 3.095-.629 4.93-5.25z" fill="#fbfbfb"/><path d="M119.226 227.08c-12.301-3.11-26.883-13.1-37.299-25.6-17.459-20.9-36.109-58.2-43.846-87.4-2.778-10.6-3.214-14-3.631-28.7-.418-14.9-.245-17.4 1.597-23.6 2.5-8.31 5.268-12.6 10.813-16.9 8.025-6.17 19.939-6.5 31.05-.859 5.615 2.86 7.212 4.66 10.416 11.7 3.938 8.67 5.476 18.6 6.14 39.6l.613 19.3 3.155-7.29c1.736-4.01 5.238-10.9 7.787-15.4 2.549-4.45 4.643-9.31 4.643-10.8 0-1.48-1.111-5.35-2.48-8.62-2.54-6.08-2.946-9.38-1.865-14.9.619-3.12.626-3.13 7.192-3.13l6.567-.004 4.097-5.34c4.623-6.04 13.59-13.4 21.328-17.4 4.484-2.34 6.398-2.72 13.69-2.72 7.519 0 9.007.319 13.293 2.84 2.639 1.56 4.583 3.05 4.325 3.31s-3.045-.286-6.21-1.21c-7.876-2.31-15.773-1.48-23.808 2.5-19.046 9.44-38.39 45-30.851 56.6 1.022 1.58 3.512 2.99 7.103 4.04 5.833 1.71 8.65 1.26 3.78-.608-10.218-3.91-8.105-13.2 6.845-30.1l8.521-9.63-.564-5.51c-.511-4.99-.354-5.63 1.667-6.72 2.778-1.5 7.311-.653 10.614 1.99 3.135 2.49 12.896 2.72 21.13.509 2.996-.812 8.234-1.48 11.606-1.49 5.773-.011 6.22.155 6.805 2.49.342 1.37.37 3.16.062 3.97s.375 3.6 1.518 6.21c2.569 5.86 3.532 19.7 1.895 27.3-.633 2.98-2.916 9.08-5.079 13.6-5.406 11.2-5.615 12.9-2.51 20.3 5.327 12.7 9.216 37 8.214 51.1-.297 4.15-1.726 13.4-3.184 20.5-2.778 13.7-2.559 18.5.992 21.5.815.683 1.488 2.68 1.488 4.44 0 3.72-2.778 6.71-7.837 8.41-4.742 1.6-14.979 1.42-19.939-.361-5.922-2.11-10.813-1.87-14.88.723-3.055 1.95-5.01 2.24-16.368 2.46-8.759.166-14.781-.224-18.749-1.22zm-15.078-35.2c-8.819-26.1-6.081-55.4 8.025-85.9l4.246-9.16-4.543-3.98-3.978 8.66c-16.17 35.2-18.65 66.2-7.063 89.3 3.065 6.12 5.843 10.9 6.359 10.9.137 0-1.23-4.39-3.036-9.75zm75.888-87.5l2.083-5.25-.452 4.37c-.257 2.49-.079 4 .413 3.5.811-.818 5.922-13.7 5.922-15 0-.311-1.349.582-3.006 1.98-3.065 2.6-8.571 4.61-12.698 4.62-2.083.005-2.222.329-1.647 3.76 1.131 6.77 1.428 7.25 4.424 7.25 2.5 0 3.095-.629 4.93-5.25z" fill="#a08470"/><path d="M119.226 227.08c-22.221-6.14-42.557-28.1-61.702-66.5-16.17-32.4-23.014-58.2-21.923-81.9.899-19.4 6.329-30.1 17.757-35.1 6.408-2.78 15.574-2.41 23.114.932 8.759 3.86 11.904 8.32 15.574 21.9 1.706 6.37 2.133 11.7 2.549 31.2l.503 23.5 1.706-5c1.875-5.48 8.829-19.8 12.4-25.4 3.343-5.34 3.621-10.6.869-16.6-1.468-3.18-2.311-6.88-2.311-10.2-.015-8.04.246-8.32 7.787-8.39l6.587-.057 3.73-4.94c4.583-6.06 13.194-13 21.03-17 5.01-2.54 6.964-2.97 13.392-2.93 6.14.037 8.353.508 12.003 2.56 2.46 1.38 3.571 2.23 2.48 1.88-14.086-4.48-26.486-1.15-38.49 10.4-14.88 14.2-24.998 38.4-20.038 47.9 1.895 3.7 1.468 4.06-1.28 1.08l-1.944-2.11-1.934 3.86c-4.325 8.62-11.21 27.5-13.789 37.9-2.361 9.52-2.728 13-2.718 25.5.018 13 .293 15.3 2.668 22.5 3.184 9.64 11.21 23.3 15.178 25.7.566.347-.058-3.5-1.389-8.55-2.877-10.9-3.532-29.6-1.26-36.1l1.359-3.88 3.055 5.38c5.228 9.22 20.336 22.8 27.28 24.6 5.178 1.31 5.059-5.51-.366-20.2-4.682-12.7-5.615-17.5-5.654-29.5-.036-11.9 1.438-17.3 8.174-29.6 4.603-8.45 4.93-12.1 1.994-21.5-1.081-3.49-1.974-6.92-1.984-7.62s2.331.483 5.198 2.64c7.321 5.52 16.963 10.2 22.419 10.8 4.047.483 5.079.205 7.797-2.1 3.383-2.87 7.212-11.7 7.212-16.6 0-1.63.427-2.96.947-2.96 1.29 0 2.321 6.08 1.865 10.9l-.378 3.99 2.748-2.66c1.518-1.46 3.651-4.94 4.762-7.72l2.004-5.06-.328 8.53c-.297 7.72-.771 9.48-4.98 18.6-2.847 6.14-4.652 11.4-4.652 13.6 0 1.99 1.339 6.99 2.976 11.1 6.974 17.6 8.829 44.7 4.464 65.1-3.303 15.4-3.264 20.5.161 24.6 2.163 2.59 2.48 3.63 1.736 5.72-1.379 3.91-5.327 6.27-12.598 7.52-5.962 1.03-7.281.926-13.392-1.06-8.62-2.8-10.614-2.76-16.269.299-4.325 2.32-5.595 2.49-17.856 2.41-7.738-.052-15.178-.649-18.054-1.44zm59.123-117c.855-.688 2.073-2.15 2.718-3.25 1.101-1.9 1.131-1.89.553.25-.913 3.36 1.21 2.74 3.075-.913 2.292-4.47 5.476-14.1 4.871-14.7-.28-.282-1.736.663-3.224 2.1-3.333 3.2-7.172 4.74-11.805 4.74h-3.532l.473 4.97c.682 7.16 3.274 9.7 6.904 6.78zm-1.667-45.1c-10.019-4.75-12.4-11.4-5.456-14.8 4.533-2.23 16.666-4.31 20.138-3.43 2.381.603 2.708 1.16 2.708 4.7 0 6.88-6.15 16-10.813 15.9-.881-.005-3.839-1.07-6.567-2.37zm-33.827-5.87c1.171-1.82 1.24-3.04.334-6.42-2.073-7.75 2.698-9.47 12.499-4.5l5.565 2.83-5.238 1.66c-2.877.915-7.063 3.24-9.295 5.17-4.702 4.06-5.892 4.45-3.839 1.26z" fill="#45352f"/></svg>