<svg xmlns="http://www.w3.org/2000/svg" height="128" width="128" xmlns:v="https://vecta.io/nano"><defs><radialGradient r="225" fy="-1136.126" fx="58.954" cy="-1136.126" cx="58.954" gradientTransform="matrix(0.27963724,0,0,0.19167088,14.08685,422.59065)" id="A" gradientUnits="userSpaceOnUse"><stop offset="0" stop-color="#62a0ea"/><stop offset="1" stop-color="#1a5fb4"/></radialGradient><radialGradient r="225" fy="-173.679" fx="312.747" cy="-173.679" cx="312.747" gradientTransform="matrix(0.604444,0,0,0.356194,-109.038,345.86327)" id="B" gradientUnits="userSpaceOnUse"><stop offset="0" stop-color="#ed333b"/><stop offset="1" stop-color="#1a5fb4" stop-opacity="0"/></radialGradient><path id="C" d="M8 200v88h8v-8h8v8h80v-8h8v8h8v-88h-8v8h-8v-8H24v8h-8v-8zm8 16h8v8h-8zm88 0h8v8h-8zm-88 16h8v8h-8zm88 0h8v8h-8zm-88 16h8v8h-8zm88 0h8v8h-8zm-88 16h8v8h-8zm88 0h8v8h-8z"/></defs><g transform="translate(0 -172)"><use href="#C" fill="url(#A)" paint-order="normal"/><use href="#C" fill="url(#B)" paint-order="normal"/><path d="M64 218a20 20 0 1 0 0 40 20 20 0 1 0 0-40zm-7.906 10h1.813.188c.35-.003.696.077 1 .25l14 8c.621.344.938 1.047.938 1.75s-.316 1.406-.937 1.75l-14 8a2 2 0 0 1-1 .25h-.187-1.812z" opacity=".15" paint-order="normal"/><path d="M64 216c-11.046 0-20 8.954-20 20s8.954 20 20 20 20-8.954 20-20-8.954-20-20-20zm-7.906 10h1.813.188c.35-.003.696.077 1 .25l14 8c.621.344.938 1.047.938 1.75s-.316 1.406-.937 1.75l-14 8a2 2 0 0 1-1 .25h-.187-1.812z" fill="#fff" paint-order="normal"/><g opacity=".15"><rect width="64" height="4" x="32" y="270" rx="2" opacity="1" paint-order="normal"/><rect width="12" height="12" x="40" y="266" rx="6" opacity="1" paint-order="normal"/></g><g fill="#fff"><rect width="64" height="4" x="32" y="268" rx="2" paint-order="normal"/><rect width="12" height="12" x="40" y="264" rx="6" paint-order="normal"/></g><path d="M16 213v3h8v-3zm88 0v3h8v-3zm-88 16v3h8v-3zm88 0v3h8v-3zm-88 16v3h8v-3zm88 0v3h8v-3zm-88 16v3h8v-3zm88 0v3h8v-3zm-88 16v3h8v-3zm88 0v3h8v-3zm-96 8v3h8v-3zm16 0v3h80v-3zm88 0v3h8v-3z" opacity=".25" paint-order="normal"/></g></svg>