<svg xmlns="http://www.w3.org/2000/svg" xmlns:xlink="http://www.w3.org/1999/xlink" width="48" height="48"><defs><linearGradient id="d"><stop offset="0" style="stop-color:#2e384c;stop-opacity:1"/><stop offset="1" style="stop-color:#43526f;stop-opacity:1"/></linearGradient><linearGradient xlink:href="#d" id="f" x1="24" x2="20.355" y1="45" y2="3.312" gradientUnits="userSpaceOnUse"/><linearGradient xlink:href="#e" id="g" x1="29.517" x2="29.488" y1="7.798" y2="51.898" gradientTransform="matrix(.9 0 0 .9 -2.754 -2.79)" gradientUnits="userSpaceOnUse"/><linearGradient id="e"><stop offset="0" style="stop-color:#acfbfe;stop-opacity:1"/><stop offset="1" style="stop-color:#02797e;stop-opacity:1"/></linearGradient></defs><rect width="42" height="42" x="3" y="3" rx="21" ry="21" style="fill:url(#f);fill-opacity:1"/><path d="m17.758 10.58-4.15 2.395 3.747 6.49a9.6 9.6 0 0 0-2.552 4.441H7.297v4.792h7.499a9.6 9.6 0 0 0 2.562 4.433l-3.75 6.498 4.15 2.395 3.75-6.497a9.6 9.6 0 0 0 2.56.358 9.6 9.6 0 0 0 2.564-.348l3.746 6.487 4.15-2.395-3.748-6.49a9.6 9.6 0 0 0 2.553-4.441h7.506v-4.792h-7.5a9.6 9.6 0 0 0-2.561-4.433l3.75-6.498-4.15-2.395-3.75 6.497a9.6 9.6 0 0 0-2.56-.358 9.6 9.6 0 0 0-2.564.348Zm6.31 9.732a5.99 5.99 0 0 1 5.99 5.99 5.99 5.99 0 0 1-5.99 5.99 5.99 5.99 0 0 1-5.99-5.99 5.99 5.99 0 0 1 5.99-5.99" style="opacity:.3;fill:#000;fill-opacity:1;stroke:none;stroke-width:1;stroke-dasharray:none;stroke-opacity:.3"/><path d="m17.758 8.58-4.15 2.395 3.747 6.49a9.6 9.6 0 0 0-2.552 4.441H7.297v4.792h7.499a9.6 9.6 0 0 0 2.562 4.433l-3.75 6.498 4.15 2.395 3.75-6.497a9.6 9.6 0 0 0 2.56.358 9.6 9.6 0 0 0 2.564-.348l3.746 6.487 4.15-2.395-3.748-6.49a9.6 9.6 0 0 0 2.553-4.441h7.506v-4.792h-7.5a9.6 9.6 0 0 0-2.561-4.433l3.75-6.498-4.15-2.395-3.75 6.497a9.6 9.6 0 0 0-2.56-.358 9.6 9.6 0 0 0-2.564.348Zm6.31 9.732a5.99 5.99 0 0 1 5.99 5.99 5.99 5.99 0 0 1-5.99 5.99 5.99 5.99 0 0 1-5.99-5.99 5.99 5.99 0 0 1 5.99-5.99z" style="fill:url(#g);fill-opacity:1;stroke:#000;stroke-width:1;stroke-dasharray:none;stroke-opacity:.3"/></svg>