<svg xmlns="http://www.w3.org/2000/svg" xmlns:xlink="http://www.w3.org/1999/xlink" width="48" height="48"><defs><linearGradient id="b"><stop offset="0" style="stop-color:#1e2b35;stop-opacity:1"/><stop offset="1" style="stop-color:#6d7983;stop-opacity:1"/></linearGradient><linearGradient xlink:href="#b" id="c" x1="40.37" x2="10" y1="48" y2="0" gradientUnits="userSpaceOnUse"/></defs><rect width="42" height="42" x="3" y="3" rx="21" ry="21" style="fill-opacity:1;fill:url(#c)"/><path d="M12.058 14.349v21.185h5.704V33.09h-3.26V16.793h3.26V14.35h-3.26zm17.111 0v2.444h3.26V33.09h-3.26v2.444h5.704V14.349Zm7.74 3.26a1.22 1.22 0 0 0-1.221 1.221 1.22 1.22 0 0 0 1.222 1.223 1.22 1.22 0 0 0 1.222-1.223 1.22 1.22 0 0 0-1.222-1.222m0 12.221a1.22 1.22 0 0 0-1.221 1.223 1.22 1.22 0 0 0 1.222 1.222 1.22 1.22 0 0 0 1.222-1.222 1.22 1.22 0 0 0-1.222-1.223" style="opacity:.2;stroke-width:.814813"/><path d="M12.058 13.534h2.444v21.185h-2.444z" style="fill:#267edb;stroke-width:.814813"/><path d="M12.058 13.534h5.704v2.444h-5.704zM12.058 32.275h5.704v2.444h-5.704z" style="fill:#267edb;stroke-width:.814813"/><path d="M-34.873 13.534h2.444v21.185h-2.444z" style="fill:#267edb;stroke-width:.814813" transform="scale(-1 1)"/><path d="M-34.873 13.534h5.704v2.444h-5.704zM-34.873 32.275h5.704v2.444h-5.704z" style="fill:#267edb;stroke-width:.814813" transform="scale(-1 1)"/><path d="m20 17.641-2.195 1.075 5.589 11.42c-.19.363-.379.712-.567 1.025-.422.702-.84 1.26-1.171 1.583-.332.324-.525.346-.473.346h-.977v2.444h.977c.908 0 1.608-.482 2.18-1.04.573-.56 1.073-1.262 1.56-2.073.975-1.621 1.877-3.68 2.675-5.732 1.596-4.103 2.747-8.179 2.747-8.179l-2.352-.665s-1.13 3.994-2.672 7.957a59 59 0 0 1-.6 1.482z" style="opacity:.2;stroke-width:.814813"/><path d="m18.902 17.364 5.704 11.651M29.17 17.364s-4.564 16.133-7.986 16.133h-.978" style="fill:none;stroke:#fff;stroke-width:2.44449"/><path d="M38.132 18.015a1.22 1.22 0 0 1-1.222 1.223 1.22 1.22 0 0 1-1.222-1.223 1.22 1.22 0 0 1 1.222-1.222 1.22 1.22 0 0 1 1.222 1.222M38.132 30.238a1.22 1.22 0 0 1-1.222 1.222 1.22 1.22 0 0 1-1.222-1.222 1.22 1.22 0 0 1 1.222-1.223 1.22 1.22 0 0 1 1.222 1.223" style="fill:#267edb;stroke-width:.814813"/></svg>