<svg xmlns="http://www.w3.org/2000/svg" width="48" height="48" viewBox="0 0 12.7 12.7"><linearGradient id="a" x1="24" x2="24" y1="294" y2="257" gradientTransform="matrix(.26458 0 0 .25853 0 -64.355)" gradientUnits="userSpaceOnUse"><stop offset="0" stop-color="#1d99f3"/><stop offset="1" stop-color="#3daee9"/></linearGradient><linearGradient id="c" x1="24" x2="24" y1="294" y2="257" gradientTransform="matrix(1 0 0 .97711 0 -243.232)" gradientUnits="userSpaceOnUse"><stop offset="0" stop-color="#27ae60"/><stop offset="1" stop-color="#2ecc71"/></linearGradient><linearGradient id="d" x1="120.397" x2="120.347" y1="23.021" y2="32.414" gradientTransform="matrix(1.3776 .37578 -.4637 1.76176 -116.72 -68.71)" gradientUnits="userSpaceOnUse"><stop offset="0" stop-color="#bdc3c7"/><stop offset="1" stop-color="#fff"/></linearGradient><linearGradient id="g" x1="119.851" x2="119.851" y1="27.384" y2="33.015" gradientTransform="matrix(.36449 .09943 -.12269 .46613 -30.882 -18.18)" gradientUnits="userSpaceOnUse"><stop offset="0" stop-color="#7f8c8d"/><stop offset="1" stop-color="#95a5a6"/></linearGradient><linearGradient id="e" x1="112.705" x2="112.705" y1="30.894" y2="32.712" gradientTransform="matrix(.36449 .09943 -.12269 .46613 -30.882 -18.18)" gradientUnits="userSpaceOnUse"><stop offset="0" stop-color="#2c3e50"/><stop offset="1" stop-color="#34495e"/></linearGradient><linearGradient id="b" x1="31" x2="31" y1="-21.23" y2="36" gradientTransform="matrix(1 0 0 1.00094 0 -.003)" gradientUnits="userSpaceOnUse"><stop offset="0" stop-color="#2980b9"/><stop offset="1" stop-color="#3daee9" stop-opacity="0"/></linearGradient><rect width="10.583" height="10.583" x="1.058" y="1.058" fill="#34495e" rx="1.586" ry="1.587"/><rect width="10.583" height="10.319" x="1.058" y="1.058" fill="url(#a)" rx="1.586" ry="1.587"/><path fill="url(#b)" d="M30 7.004v1h-3v3.004h3l1 25.023h13V20.084z" transform="scale(.26458)"/><path fill="url(#c)" d="M4.002 37.031A5.98 5.98 0 0 0 9.994 43h28.012c3.31 0 5.975-2.66 5.992-5.969z" transform="scale(.26458)"/><path fill="#2980b9" d="M6.085 1.853v.265h.794v.794H5.556v.265h-.529l.53 1.59H4.232l.794 1.853h.794v2.913h2.381V6.62h.794l.794-1.854H8.467l.529-1.589h-.53v-.265H7.145v-.794h.794v-.265z"/><path fill="url(#d)" d="M12.59 18.883c-1.314.046-2.615.348-3.776 1.074-1.755 1.098-4.51 1.067-2.761 3.113 2.697 3.157 6.855 3.848 10.662 5.022 6.315 1.361 12.475 3.329 18.707 5.02 2.242.735 5.457.987 8.578 1.025V27.05c-9.15-2.753-20.672-6.037-27.553-7.71-1.215-.295-2.543-.504-3.857-.458" transform="scale(.26458)"/><path fill="url(#e)" d="M5.717 7.26c-.08-.022-.168.043-.195.147l-.128.484c-.027.103.016.205.097.227l1.334.364c.069.018.142-.027.179-.104l.365.022.116-.382-.33-.23c0-.079-.04-.147-.104-.164z"/><g fill="#232629" transform="matrix(.36449 .09943 -.12269 .46613 -30.882 -18.18)"><path d="M101.218 28.533q-.204.134-.391.289a3 3 0 0 1-.162.125c.548.148 1.07.285 1.622.032l.062-.31c-.423-.029-.831-.063-1.131-.136"/><rect width=".508" height=".6" x="105.441" y="28.747" rx=".254"/><rect width=".508" height=".6" x="106.499" y="28.747" rx=".254"/><rect width=".508" height=".6" x="107.557" y="28.747" rx=".254"/><rect width=".508" height=".6" x="108.616" y="28.747" rx=".254"/><rect width=".508" height=".6" x="109.674" y="28.747" rx=".254"/><rect width=".508" height=".6" x="110.732" y="28.747" rx=".254"/><rect width=".508" height=".6" x="111.79" y="28.747" rx=".254"/><rect width=".508" height=".6" x="112.849" y="28.747" rx=".254"/><rect width=".508" height=".6" x="113.907" y="28.747" rx=".254"/><rect width=".508" height=".6" x="114.966" y="28.747" rx=".254"/><rect width=".508" height=".6" x="116.024" y="28.747" rx=".254"/><rect width=".508" height=".6" x="117.082" y="28.747" rx=".254"/><rect width=".508" height=".6" x="118.141" y="28.747" rx=".254"/><rect width=".508" height=".6" x="119.199" y="28.747" rx=".254"/><rect width=".508" height=".6" x="120.257" y="28.747" rx=".254"/><rect width=".508" height=".6" x="121.315" y="28.747" rx=".254"/><rect width=".508" height=".6" x="122.374" y="28.747" rx=".254"/><rect width=".508" height=".6" x="123.432" y="28.747" rx=".254"/><rect width=".508" height=".6" x="124.49" y="28.747" rx=".254"/><rect width=".508" height=".6" x="125.549" y="28.747" rx=".254"/></g><path fill="url(#g)" d="m5.473 7.193 2.44.158 1.965.122 1.281-.854.244.067-.805 1.049-1.15.172-1.468-.03z" opacity=".99"/><path fill="#34495e" d="M1.058 9.533v.257q.001.14.025.273h10.534q.024-.133.025-.273v-.257z"/></svg>