<svg xmlns="http://www.w3.org/2000/svg" width="48" height="48" viewBox="0 0 12.7 12.7"><circle cx="6.35" cy="6.35" r="5.556" style="fill:#f95;stroke-width:.777746;paint-order:stroke fill markers"/><circle cx="6.35" cy="6.35" r="4.733" style="fill:#2b3a57;fill-opacity:1"/><path fill="#ff7f28" d="M6.53 5.813c.332.366-.09.695-.09.695s.842-.418.458-.938c-.363-.487-.64-.727.86-1.563 0 0-2.352.563-1.23 1.804" style="fill-rule:evenodd;stroke-width:.680518"/><path d="M8.307 8.289s.195.153-.213.272c-.777.224-3.23.292-3.912.008-.245-.103.215-.243.359-.274.152-.031.237-.026.237-.026-.271-.185-1.76.363-.756.518 2.742.427 4.997-.192 4.285-.498M5.435 6.287s-1.248.284-.442.388c.342.044 1.019.033 1.652-.016.517-.042 1.035-.132 1.035-.132s-.183.076-.314.162c-1.267.319-3.715.17-3.012-.156.597-.276 1.081-.245 1.081-.245m2.24 1.2c1.288-.642.692-1.259.277-1.175-.101.02-.148.037-.148.037s.038-.057.11-.081c.824-.277 1.455.818-.265 1.251 0 0 .02-.017.025-.032" style="fill-rule:evenodd;stroke-width:.680518;fill:#17a2b8"/><path fill="#ff7f28" d="M6.897 2.663s.714.685-.678 1.737c-1.113.844-.253 1.326 0 1.874-.65-.561-1.127-1.057-.807-1.518.47-.677 1.773-1.005 1.485-2.093" style="fill-rule:evenodd;stroke-width:.680518"/><path d="M5.562 9.227c1.237.077 3.136-.042 3.181-.602 0 0-.086.211-1.023.38-1.055.19-2.357.169-3.13.048 0 0 .159.124.972.174m.057-1.8s-1.012.23-.359.314c.277.035.825.027 1.338-.014.42-.033.84-.106.84-.106s-.149.062-.255.131c-1.027.26-3.01.139-2.44-.126.483-.224.876-.198.876-.198" style="fill-rule:evenodd;stroke-width:.680518;fill:#17a2b8"/></svg>