<svg xmlns="http://www.w3.org/2000/svg" width="48" height="48"><defs><linearGradient id="d" x2="0" y1="9" y2="-30" gradientUnits="userSpaceOnUse"><stop stop-color="#f2a922"/><stop offset="1" stop-color="#f3d23b"/></linearGradient><linearGradient id="b" x2="0" y1="503.8" y2="543.8" gradientUnits="userSpaceOnUse"><stop stop-color="#abf9c7"/><stop offset="1" stop-color="#54d883"/></linearGradient><linearGradient id="a" x2="0" y1="543.8" y2="503.8" gradientUnits="userSpaceOnUse"><stop stop-color="#197cf1"/><stop offset="1" stop-color="#20bcfa"/></linearGradient></defs><g transform="translate(-384.57 -499.8)"><rect width="40" height="40" x="388.57" y="503.8" fill="url(#a)" rx="20"/><path fill="url(#b)" fill-rule="evenodd" d="M408.57 503.8c-1.452 0-2.864.16-4.227.451l-1.773 3.549-2.68-2.01a19.94 19.94 0 0 0-10.254 11.584l3.934-1.574 3 2 1-3 13-7-.793-3.961q-.599-.038-1.207-.039m14.811 6.568-.811 2.432 1 1-4 6 2 7 6.633.83c.239-1.239.367-2.519.367-3.83 0-3.425-.857-6.641-2.361-9.453l-1.639-.547.596-1.193a20 20 0 0 0-1.785-2.238m-34.414 9.432a20 20 0 0 0-.381 3.381l6.984 2.619-1-3-2-3zm6.604 6 5 12v4.338a20 20 0 0 0 8 1.662c.199 0 .395-.008.592-.014l6.408-10.986-16-9z"/><path d="M388.62 523.3c-.004.17-.051.329-.051.5 0 11.08 8.92 20 20 20s20-8.92 20-20c0-.171-.046-.33-.051-.5-.03 1.206-.121 2.398-.354 3.541a19.9 19.9 0 0 1-5.441 10.113 20 20 0 0 1-6.355 4.279 20 20 0 0 1-3.758 1.162 20.2 20.2 0 0 1-4.04.404c-1.385 0-2.737-.139-4.04-.404a19.9 19.9 0 0 1-10.113-5.441 20 20 0 0 1-4.279-6.355 20 20 0 0 1-1.162-3.758c-.233-1.143-.323-2.335-.354-3.541" opacity=".2"/><g stroke-linejoin="round" stroke-width="2"><path fill="url(#d)" d="M82.14-24.14c-7.81-7.81-20.474-7.81-28.28 0-7.81 7.81-7.81 20.474 0 28.28A20 20 0 0 0 68 9.985V5.988a16 16 0 0 1-11.314-4.676c-6.248-6.248-6.248-16.379 0-22.627s16.379-6.248 22.627 0c2.997 3 4.679 7.07 4.676 11.314l-3.991.003 6 7 6-7-4.01-.003a20 20 0 0 0-5.845-14.14" transform="translate(340.57 533.8)"/><path fill="#bd891a" d="M408.57 507.798c-4.095 0-8.19 1.561-11.314 4.686-3.252 3.252-4.795 7.554-4.662 11.814.122-3.927 1.665-7.817 4.662-10.814 6.248-6.248 16.379-6.248 22.627 0a16 16 0 0 1 4.627 10.314h.049a16 16 0 0 0-4.676-11.314 15.95 15.95 0 0 0-11.313-4.686M388.58 523.3c-.004.167-.012.332-.012.5 0 11.08 8.92 20 20 20v-1a19.95 19.95 0 0 1-19.988-19.5m31.988.5v1l6 7 6-7v-1l-6 7z"/></g></g></svg>