<svg xmlns="http://www.w3.org/2000/svg" width="48" height="48"><linearGradient id="a" x1="4" x2="44" y1="4" y2="44" gradientUnits="userSpaceOnUse"><stop offset="0" stop-color="#3498db"/><stop offset="1" stop-color="#0352b5"/></linearGradient><linearGradient id="b" x1="4" x2="44" y1="39.5" y2="39.5" gradientUnits="userSpaceOnUse"><stop offset="0" stop-color="#194f95"/><stop offset="1" stop-color="#114795"/></linearGradient><linearGradient id="c" x1="15" x2="38" y1="13" y2="36" gradientUnits="userSpaceOnUse"><stop offset="0" stop-color="#194f95"/><stop offset="1" stop-color="#194f95" stop-opacity="0"/></linearGradient><g stroke-width="2"><rect width="40" height="40" x="4" y="4" fill="url(#a)" ry="8"/><path fill="url(#b)" d="M4 35v1c0 4.432 3.568 8 8 8h24c4.432 0 8-3.568 8-8v-1c0 4.432-3.568 8-8 8H12c-4.432 0-8-3.568-8-8"/><path fill="url(#c)" d="M23 11v4l3 3v7l-4-4c-2.387 0-4.675.896-6.363 2.49S13 27.246 13 29.5c0 2.173.882 4.26 2.457 5.836L24.121 44H44V21L34 11z"/><path fill="#194f95" d="M23 11v4l.707.707H26V29a4 4 0 0 1-6.453 3.16 4.001 4.001 0 0 1 3.16-6.453v-4L22 21c-2.387 0-4.675.896-6.363 2.49S13 27.246 13 29.5c0 2.173.882 4.26 2.457 5.836l.088.088.006.004.467.467.146.148q.09.088.18.174c1.688 1.594 3.976 2.49 6.363 2.49s4.675-.896 6.363-2.49 2.637-3.756 2.637-6.01a8 8 0 0 0-.037-.5h.037v-14h3v-4L34 11zm.707.707H34V15h-3v14h-.037q.026.25.037.5c0 2.254-.949 4.416-2.637 6.01S24.387 38 22 38c-2.302 0-4.513-.833-6.182-2.322-1.358-1.526-2.111-3.462-2.111-5.471 0-2.254.949-4.416 2.637-6.01 1.52-1.436 3.528-2.304 5.656-2.463V25a4 4 0 0 0-2.828 6.828l.637.637.07.07a4 4 0 0 0 6.828-2.828v-14L26 15h-2.293z" opacity=".65"/><path fill="#fcfcfc" d="M23 11v4h3v14a4 4 0 0 1-4 4 4 4 0 0 1-4-4 4 4 0 0 1 4-4v-4a9 8.5 0 0 0-9 8.5 9 8.5 0 0 0 9 8.5 9 8.5 0 0 0 9-8.5 9 8.5 0 0 0-.037-.5H31V15h3v-4z"/></g></svg>