<svg xmlns="http://www.w3.org/2000/svg" xmlns:xlink="http://www.w3.org/1999/xlink" width="48" height="48"><defs><linearGradient id="a" x2="0" y1="543.8" y2="503.8" gradientUnits="userSpaceOnUse"><stop stop-color="#2a2c2f"/><stop offset="1" stop-color="#424649"/></linearGradient><linearGradient id="c" x2="0" y1="530.8" y2="516.8" gradientUnits="userSpaceOnUse"><stop stop-color="#ee643a"/><stop offset="1" stop-color="#fe9473"/></linearGradient><linearGradient xlink:href="#a" id="e" x2="0" y1="-521.8" y2="-525.8" gradientUnits="userSpaceOnUse"/><linearGradient id="b" x1="408.57" x2="422.57" y1="523.8" y2="537.8" gradientTransform="translate(-384.57 -499.8)" gradientUnits="userSpaceOnUse"><stop stop-color="#292c2f"/><stop offset="1" stop-opacity="0"/></linearGradient></defs><g transform="translate(-384.57 -499.8)"><rect width="40" height="40" x="388.57" y="503.8" fill="url(#a)" rx="20"/><path fill="url(#b)" fill-rule="evenodd" d="m30 20-11 9 13.229 13.229c4.439-1.998 8-5.561 10-10z" opacity=".4" transform="translate(384.57 499.8)"/><rect width="14" height="14" x="401.57" y="516.8" fill="url(#c)" rx="7"/><rect width="4" height="4" x="406.57" y="-525.8" fill="url(#e)" rx="2" transform="scale(1 -1)"/><path fill="#fff" fill-opacity=".275" d="M408.57 517.8c-3.324 0-6 2.676-6 6s2.676 6 6 6 6-2.676 6-6-2.676-6-6-6m0 1c2.77 0 5 2.23 5 5s-2.23 5-5 5-5-2.23-5-5 2.23-5 5-5"/><g fill="#4c5053"><path d="M418.07 507.34c-.971-.56-1.973-1-2.99-1.377l-3.465 9.368c.495.179.982.396 1.454.668.472.273.903.587 1.306.925l6.381-7.685a19 19 0 0 0-2.687-1.901M399.07 540.25a19 19 0 0 1-2.687-1.901l6.381-7.685c.403.339.834.653 1.306.925.472.273.96.489 1.454.668l-3.465 9.368a19 19 0 0 1-2.99-1.376"/><g fill-opacity=".198"><path d="M422.01 510.36a19 19 0 0 0-2.531-2.103l-5.771 8.152c.431.301.846.636 1.232 1.022s.721.801 1.022 1.232l8.152-5.771a19 19 0 0 0-2.103-2.531M395.14 537.23a19 19 0 0 1-2.103-2.532l8.152-5.771c.301.431.636.846 1.022 1.232s.801.721 1.232 1.022l-5.771 8.152a19 19 0 0 1-2.531-2.103"/><path d="M425.03 514.3a19 19 0 0 0-1.901-2.687l-7.685 6.381c.339.403.653.834.925 1.306.273.472.489.96.668 1.454l9.368-3.465a19 19 0 0 0-1.377-2.99M392.12 533.3c-.56-.971-1-1.973-1.377-2.99l9.368-3.465c.179.495.396.982.668 1.454.273.472.587.903.925 1.306l-7.685 6.381a19 19 0 0 1-1.901-2.687"/></g></g><path fill="#2d2f33" d="M388.58 523.3c-.004.167-.012.332-.012.5 0 11.08 8.92 20 20 20s20-8.92 20-20c0-.168-.008-.333-.012-.5a19.954 19.954 0 0 1-19.988 19.5 19.95 19.95 0 0 1-19.988-19.5"/></g></svg>