<svg xmlns="http://www.w3.org/2000/svg" xmlns:xlink="http://www.w3.org/1999/xlink" viewBox="0 0 48 48"><defs><linearGradient xlink:href="#a" id="g" x1="407.626" x2="407.687" y1="543.768" y2="504.133" gradientTransform="translate(-384.57 -499.8)" gradientUnits="userSpaceOnUse"/><linearGradient id="a" x1="27.456" x2="26.442" y1="47.39" y2="1.017" gradientTransform="matrix(2.3643 0 0 2.3643 278.059 438.052)" gradientUnits="userSpaceOnUse"><stop stop-color="#e1e1e1"/><stop offset="1" stop-color="#f4f4ff"/></linearGradient><linearGradient id="e"><stop offset="0" style="stop-color:#d21e1e;stop-opacity:1"/><stop offset="1" style="stop-color:#e05e4c;stop-opacity:1"/></linearGradient><linearGradient id="c"><stop offset="0" style="stop-color:#377d50;stop-opacity:1"/><stop offset="1" style="stop-color:#54d883;stop-opacity:1"/></linearGradient><linearGradient xlink:href="#c" id="i" x1="32" x2="17" y1="31" y2="17" gradientUnits="userSpaceOnUse"/><linearGradient xlink:href="#d" id="j" x1="32" x2="17" y1="31" y2="17" gradientUnits="userSpaceOnUse"/><linearGradient xlink:href="#e" id="l" x1="32" x2="17" y1="31" y2="17" gradientUnits="userSpaceOnUse"/><linearGradient id="d"><stop offset="0" style="stop-color:#7d519e;stop-opacity:1"/><stop offset="1" style="stop-color:#a987c2;stop-opacity:1"/></linearGradient><linearGradient id="f" x1="11" x2="29.13" y1="4" y2="22.13" gradientTransform="translate(7 4)" gradientUnits="userSpaceOnUse"><stop/><stop offset="1" stop-opacity="0"/></linearGradient><linearGradient xlink:href="#f" id="h" x1="23" x2="43" y1="10" y2="29" gradientTransform="translate(6 1)" gradientUnits="userSpaceOnUse"/><linearGradient xlink:href="#f" id="k" x1="23" x2="43" y1="10" y2="29" gradientTransform="translate(6 1)" gradientUnits="userSpaceOnUse"/></defs><rect width="40" height="40" x="3.999" y="4" rx="3" ry="3" style="fill:url(#g);fill-opacity:1"/><path d="M4 39.998v1c0 1.662 1.339 3 3 3h34c1.663 0 3-1.338 3-3v-1c0 1.662-1.337 3-3 3H7c-1.661 0-3-1.338-3-3" style="opacity:.15;fill:#000;fill-opacity:1"/><path d="M27.57 9.773 19 21l10 10v6l7 7h8V25Z" style="opacity:.2;fill:url(#h);fill-rule:evenodd"/><g transform="translate(0 -8)"><circle cx="24" cy="24" r="7" style="opacity:1;fill:#3b8d57;fill-opacity:1;stroke-width:1.4000001"/><path d="M30 24a6 6 0 0 1-5.991 6A6 6 0 0 1 18 24.017 6 6 0 0 1 23.974 18 6 6 0 0 1 30 23.965" style="opacity:1;fill:url(#i);fill-opacity:1;stroke-width:1.20000005"/></g><g transform="translate(10 8)"><circle cx="24" cy="24" r="7" style="opacity:1;fill:#7e539f;fill-opacity:1;stroke-width:1.4000001"/><path d="M30 24a6 6 0 0 1-5.991 6A6 6 0 0 1 18 24.017 6 6 0 0 1 23.974 18 6 6 0 0 1 30 23.965" style="opacity:1;fill:url(#j);fill-opacity:1;stroke-width:1.20000005"/></g><path d="M19 27 9 37l7 7h28-10Z" style="opacity:.2;fill:url(#k);fill-rule:evenodd"/><g transform="translate(-10 8)"><circle cx="24" cy="24" r="7" style="opacity:1;fill:#c53d34;fill-opacity:1;stroke-width:1.4000001"/><path d="M30 24a6 6 0 0 1-5.991 6A6 6 0 0 1 18 24.017 6 6 0 0 1 23.974 18 6 6 0 0 1 30 23.965" style="opacity:1;fill:url(#l);fill-opacity:1;stroke-width:1.20000005"/></g></svg>