<svg xmlns="http://www.w3.org/2000/svg" width="48" height="48"><circle cx="23.982" cy="24.368" r="20.632" style="opacity:.2;stroke-width:.736842"/><circle cx="23.982" cy="23.632" r="20.632" style="fill:#e4e4e4;stroke-width:.736842"/><path d="M33.467 9.633a2.212 2.212 0 0 0-.245 4.393 2.215 2.215 0 0 0 2.228-1.037 2.21 2.21 0 0 0-1.983-3.356m-9.485 3.683c-2.428 0-4.796.78-6.776 2.232a12.07 12.07 0 0 0-4.277 5.873C15.087 18.787 19.235 17 23.984 17c4.75 0 8.897 1.781 11.05 4.42a12.07 12.07 0 0 0-4.277-5.872 11.45 11.45 0 0 0-6.775-2.232m-9.496.002a1.48 1.48 0 0 0-1.168.474 1.474 1.474 0 1 0 1.168-.474M12.93 28.79a12.07 12.07 0 0 0 4.277 5.873 11.45 11.45 0 0 0 6.776 2.233c2.428 0 4.795-.78 6.775-2.233a12.07 12.07 0 0 0 4.277-5.873c-2.158 2.64-6.306 4.421-11.055 4.421-4.75 0-8.897-1.781-11.05-4.42m3.21 6.633a2.58 2.58 0 1 0 .212 5.154 2.58 2.58 0 0 0-.211-5.154" style="opacity:.1;stroke-width:.736842"/><path d="M35.769 11.01a2.21 2.21 0 1 1-4.415.192 2.21 2.21 0 0 1 4.415-.193" style="fill:#767677;stroke-width:.736842"/><path d="M23.979 32.474c-4.75 0-8.897-1.782-11.05-4.421a12.07 12.07 0 0 0 4.276 5.873 11.45 11.45 0 0 0 6.777 2.232c2.428 0 4.796-.78 6.776-2.232a12.07 12.07 0 0 0 4.276-5.873c-2.158 2.64-6.306 4.42-11.055 4.42M23.984 16.263c4.75 0 8.897 1.782 11.05 4.421a12.07 12.07 0 0 0-4.276-5.873 11.45 11.45 0 0 0-6.776-2.232c-2.428 0-4.796.78-6.777 2.232a12.07 12.07 0 0 0-4.276 5.873c2.158-2.634 6.306-4.42 11.055-4.42" style="fill:#f37726;stroke-width:.736842"/><path d="M18.821 37.15a2.578 2.578 0 1 1-5.151.226 2.578 2.578 0 0 1 5.151-.226" style="fill:#989798;stroke-width:.736842"/><path d="M14.466 15.525a1.473 1.473 0 1 1-.127-2.944 1.473 1.473 0 0 1 .127 2.944" style="fill:#6f7070;stroke-width:.736842"/><path d="M23.982 3A20.63 20.63 0 0 0 3.35 23.632a21 21 0 0 0 .016.431A20.63 20.63 0 0 1 23.982 3.737a20.63 20.63 0 0 1 20.615 20.2l.016-.305A20.63 20.63 0 0 0 23.982 3" style="opacity:.2;fill:#fff;stroke-width:.736842"/></svg>