<svg xmlns="http://www.w3.org/2000/svg" xmlns:xlink="http://www.w3.org/1999/xlink" width="48" height="48"><defs><linearGradient id="a" x1="394.57" x2="422.73" y1="509.8" y2="537.95" gradientTransform="translate(-384.57 -499.8)" gradientUnits="userSpaceOnUse"><stop stop-color="#e5e7e8"/><stop offset="1" stop-color="#dcdee0"/></linearGradient><linearGradient id="f" x1="389.57" x2="427.57" gradientTransform="rotate(45 819.587 -190.314)" gradientUnits="userSpaceOnUse"><stop stop-color="#fcfcfc"/><stop offset="1" stop-color="#eff0f1"/></linearGradient><linearGradient xlink:href="#a" id="h" x1="387.13" x2="414.47" y1="-366.47" y2="-339.14" gradientUnits="userSpaceOnUse"/><linearGradient id="b" x1="395.91" x2="425.21" y1="525.26" y2="513.95" gradientTransform="translate(-384.57 -499.8)" gradientUnits="userSpaceOnUse"><stop stop-color="#da4453"/><stop offset="1" stop-color="#ff7336"/></linearGradient><linearGradient xlink:href="#b" id="e" x1="389.96" x2="410.34" gradientTransform="matrix(.91926 -.16589 .15464 .98614 -48.43 74.963)" gradientUnits="userSpaceOnUse"/><linearGradient id="i" x1="26.362" x2="44" y1="44.09" y2="33.75" gradientUnits="userSpaceOnUse"><stop stop-color="#c0392b"/><stop offset="1" stop-color="#c0392b" stop-opacity="0"/></linearGradient><linearGradient id="c" x1="9.42" x2="22" y1="27.554" y2="40.13" gradientUnits="userSpaceOnUse"><stop/><stop offset="1" stop-opacity="0"/></linearGradient><linearGradient xlink:href="#c" id="k" x1="9.42" x2="18.866" y1="27.554" y2="37" gradientUnits="userSpaceOnUse"/><linearGradient id="j" x1="388.57" x2="398.82" y1="519.85" y2="528.52" gradientUnits="userSpaceOnUse"><stop stop-color="#4d4d4d"/><stop offset="1" stop-color="#31363b"/></linearGradient></defs><path fill="#f9f9f9" d="M24 17a6.97 6.97 0 0 0-4.945 2.055 6.98 6.98 0 0 0 0 9.891 6.98 6.98 0 0 0 9.891 0 6.98 6.98 0 0 0 0-9.891A6.97 6.97 0 0 0 24.001 17m-.002 3.955a3.003 3.003 0 0 1 3.002 3.004 3.003 3.003 0 0 1-3.002 3.002 3.003 3.003 0 0 1-3.004-3.002A3.003 3.003 0 0 1 24 20.955" opacity=".4"/><path fill="url(#e)" fill-rule="evenodd" d="M408.57 503.8c-9.315.382-9.927 1.46-11.07 2.041-1.537.778-3.427 1.216-3.229-.043-.654.239-1.407 1.15-.769 2.29s-.637 2.468-1.25 1.749c-1.175-1.375-4.055-.296-3.635 1.463.414-.414 2.341-1.319 2.073.701s-.401 3.568 1.653 4.945 10.02-.016 10.02-.016z" transform="translate(-384.57 -499.8)"/><g stroke-opacity=".55" stroke-width="8.587"><path fill="url(#a)" d="M24 4A19.953 19.953 0 0 0 4.004 23.846l1.123.023 4.684 12.02 10.166 5.922 11.4-.707 7.779-5.48 3.623-12.02-2.121-8.662-6.189-7.631-1.563-1.156-.266-.186a19.96 19.96 0 0 0-8.641-1.971m0 5c8.31 0 15 6.69 15 15s-6.69 15-15 15-15-6.69-15-15 6.69-15 15-15"/><path fill="url(#f)" d="M24 4.982a18.94 18.94 0 0 0-13.436 5.582 18.96 18.96 0 0 0 0 26.871 18.96 18.96 0 0 0 26.871 0 18.96 18.96 0 0 0 0-26.871 18.94 18.94 0 0 0-13.436-5.582m0 13.02c1.532 0 3.064.588 4.238 1.762a5.98 5.98 0 0 1 0 8.477 5.98 5.98 0 0 1-8.477 0 5.98 5.98 0 0 1 0-8.477 5.98 5.98 0 0 1 4.238-1.762"/><path fill="url(#h)" d="M24.188 13a11 11 0 0 0-.78.027 11 11 0 0 0-1.09.133 11 11 0 0 0-1.074.24 11 11 0 0 0-1.043.348 11 11 0 0 0-1.004.447 11 11 0 0 0-.953.55 11 11 0 0 0-.894.638 11 11 0 0 0-.827.726 11 11 0 0 0-.748.805 11 11 0 0 0-.666.875 11 11 0 0 0-.574.938 11 11 0 0 0-.478.99 11 11 0 0 0-.38 1.033 11 11 0 0 0-.27 1.064 11 11 0 0 0-.165 1.086 11 11 0 0 0-.055 1.1 11 11 0 0 0 .028.78 11 11 0 0 0 .133 1.09 11 11 0 0 0 .242 1.073 11 11 0 0 0 .346 1.043 11 11 0 0 0 .447 1.004 11 11 0 0 0 .549.953 11 11 0 0 0 .64.895 11 11 0 0 0 .725.826 11 11 0 0 0 .805.748 11 11 0 0 0 .875.666 11 11 0 0 0 .937.574 11 11 0 0 0 .99.479 11 11 0 0 0 1.034.379 11 11 0 0 0 1.064.271 11 11 0 0 0 1.086.164 11 11 0 0 0 1.1.055 11 11 0 0 0 .779-.027 11 11 0 0 0 1.09-.133 11 11 0 0 0 1.074-.242 11 11 0 0 0 1.043-.346 11 11 0 0 0 1.004-.447 11 11 0 0 0 .953-.55 11 11 0 0 0 .894-.64 11 11 0 0 0 .827-.724 11 11 0 0 0 .748-.805 11 11 0 0 0 .666-.875 11 11 0 0 0 .574-.938 11 11 0 0 0 .478-.99 11 11 0 0 0 .38-1.033 11 11 0 0 0 .27-1.064 11 11 0 0 0 .165-1.086 11 11 0 0 0 .054-1.1 11 11 0 0 0-.027-.78 11 11 0 0 0-.133-1.09 11 11 0 0 0-.242-1.073 11 11 0 0 0-.346-1.043 11 11 0 0 0-.447-1.004 11 11 0 0 0-.549-.953 11 11 0 0 0-.638-.895 11 11 0 0 0-.727-.826 11 11 0 0 0-.805-.748 11 11 0 0 0-.875-.666 11 11 0 0 0-.937-.574 11 11 0 0 0-.99-.479 11 11 0 0 0-1.033-.379 11 11 0 0 0-1.065-.271 11 11 0 0 0-1.086-.164 11 11 0 0 0-1.1-.055m-.191 4.998c1.533 0 3.064.585 4.244 1.76a5.987 5.987 0 0 1 0 8.482 5.984 5.984 0 0 1-8.484 0 5.985 5.985 0 0 1 0-8.482 5.97 5.97 0 0 1 4.24-1.76"/></g><g fill-rule="evenodd"><path fill="url(#c)" d="M17.625 22.875 4.064 25.543A19.95 19.95 0 0 0 24 44c4.193 0 8.07-1.281 11.281-3.469l-10.58-10.58A6 6 0 0 1 24 30a6 6 0 0 1-6-6 6 6 0 0 1 .045-.705z" opacity=".4"/><path fill="url(#b)" d="M32.467 5.887c.626.575 1.438 1.404 1.939 2.301.875 1.563.75 4.281-1.938 4.781s-2.79-.415-2.781-1.5c-1.429.197-2.068 3.364.438 4.469 2.125.938 2.906.563 6.906.313s4.469 4.625 2.594 5.375-2.591-.587-2.469-1.313c-1.503.587-1.686 2.224-.938 3 5.847 6.06 3.043 10.739 1.438 11.219-1.989.594-3.391-.584-2.375-2.156.828-1.281.113-3.394-.893-4.143-1.01-.748-2.96-.569-3.795-.014 1.204.455 2.969 1.156 2.5 2.719-.362 1.207-1.548 1.967-3.03 1.938-3.379-.066-2.309-3.119-1.844-3.469-1.816-.225-3.03 3.089-1.844 4.219 1.166 1.112 2.805 1.733 1.813 3.438-1.041 1.788-2.5 2.75-5 2.25s-3.875-2.094-3.563-3.563c.313-1.469 1.042-1.665 2.313-1.688-.792-1.679-4.688-1.688-4.625 1.219.032 1.501-2.481 1.748-3.531.063-1.188-1.906-.183-2.722 1.156-2.406.09-2.122-1.719-1.094-2.188-3.438s3.438-4.125 3.438-4.125l-12.154-.242a19.953 19.953 0 0 0 19.967 18.867c11.08 0 20-8.92 20-20 0-8.05-4.715-14.934-11.533-18.11"/></g><path fill="url(#i)" d="M4.01 23.5c-.004.167-.012.332-.012.5 0 11.08 8.92 20 20 20s20-8.92 20-20c0-.168-.008-.333-.012-.5A19.954 19.954 0 0 1 23.998 43 19.95 19.95 0 0 1 4.01 23.5"/><g stroke-linejoin="round" stroke-width="3" color="#000" transform="translate(-384.57 -499.8)"><path fill="url(#j)" d="M388.94 519.85a21.2 21.2 0 0 0-.373 3.943c0 1.349.132 2.666.373 3.943l11.627-1.943c1.095-.168 2-.892 2-2s-.905-1.832-2-2z"/><circle cx="400.57" cy="523.8" r="1" fill="#27ae60"/></g><path d="M24 20.95a3 3 0 0 0-2.957 3.516 3.004 3.004 0 0 1 2.961-2.52c1.46 0 2.709 1.05 2.959 2.488q.041-.24.043-.484a3 3 0 0 0-3-3" opacity=".1"/><path fill="url(#k)" fill-rule="evenodd" d="M18.04 23.291a5.98 5.98 0 0 0 1.715 4.951 5.98 5.98 0 0 0 4.951 1.715l-.006-.006c-.233.03-6.685-6.422-6.656-6.656z" opacity=".2"/><path fill="#95a5a6" d="M28 24a3.98 3.98 0 0 1-1.174 2.826A3.98 3.98 0 0 1 24 28v1a4.98 4.98 0 0 0 3.533-1.467A4.98 4.98 0 0 0 29 24z"/></svg>