<svg xmlns="http://www.w3.org/2000/svg" xmlns:xlink="http://www.w3.org/1999/xlink" width="48" height="48"><defs><linearGradient id="a"><stop stop-color="#fcdd99"/><stop offset="1" stop-color="#fcdd99" stop-opacity="0"/></linearGradient><linearGradient id="f" x1="430.51" x2="378.58" y1="522.99" y2="523.86" gradientTransform="rotate(45 820.042 -190.615)" gradientUnits="userSpaceOnUse"><stop stop-color="#fcfcfc"/><stop offset="1" stop-color="#e9eaeb"/></linearGradient><linearGradient id="b" x1="-28.649" x2="3.614" y1="19.869" y2="49.804" gradientTransform="translate(45.719 -.92)" gradientUnits="userSpaceOnUse"><stop/><stop offset="1" stop-opacity="0"/></linearGradient><linearGradient id="l" x1="388.34" x2="402.03" y1="522.18" y2="523.7" gradientTransform="rotate(45 819.587 -190.314)" gradientUnits="userSpaceOnUse"><stop stop-color="#fff"/><stop offset="1" stop-color="#eff0f1"/></linearGradient><linearGradient id="g" x1="422.48" x2="425.86" y1="527.21" y2="527.34" gradientTransform="rotate(45 819.587 -190.314)" gradientUnits="userSpaceOnUse"><stop stop-color="#f9f9f9"/><stop offset="1" stop-color="#f6f6f6"/></linearGradient><linearGradient id="q" x1="9.642" x2="23.912" y1="8.627" y2="24.326" gradientUnits="userSpaceOnUse"><stop stop-color="#491309"/><stop offset="1" stop-color="#b6642d"/></linearGradient><linearGradient id="r" x1="16.296" x2="30.633" y1="15.871" y2="31.01" gradientUnits="userSpaceOnUse"><stop stop-color="#fee3a8"/><stop offset="1" stop-color="#fcdd99" stop-opacity="0"/></linearGradient><linearGradient id="h" x1="32.641" x2="33.609" y1="33.922" y2="34.953" gradientUnits="userSpaceOnUse"><stop stop-color="#cfcfcf"/><stop offset="1" stop-color="#ededed" stop-opacity="0"/></linearGradient><linearGradient id="u" x1="13.247" x2="8.892" y1="42.01" y2="34.887" gradientTransform="matrix(1.31518 0 0 1.22972 -3.891 -7.222)" gradientUnits="userSpaceOnUse"><stop stop-color="#d6d6d6"/><stop offset="1" stop-color="#7a7a7a"/></linearGradient><linearGradient id="k" x1="12" x2="11.875" y1="1.586" y2="45.31" gradientUnits="userSpaceOnUse"><stop stop-color="#e0e0e0"/><stop offset=".125" stop-color="silver"/><stop offset=".66" stop-color="#9b9b9b"/><stop offset=".732" stop-color="#b3b3b3"/><stop offset="1" stop-color="#b1b1b1"/></linearGradient><linearGradient xlink:href="#b" id="i" x1="-20.15" x2="-11.636" y1="20.869" y2="21.429" gradientTransform="translate(28.344 -9.795)" gradientUnits="userSpaceOnUse"/><linearGradient xlink:href="#b" id="j" x1="-14.524" x2="-10.761" y1="19.12" y2="19.804" gradientTransform="translate(29.344 21.21)" gradientUnits="userSpaceOnUse"/><linearGradient id="d" x1="385.61" x2="409.82" y1="522.24" y2="523.27" gradientTransform="rotate(45 819.587 -190.314)" gradientUnits="userSpaceOnUse"><stop stop-color="#fff"/><stop offset="1" stop-color="#dfe1e3"/></linearGradient><radialGradient xlink:href="#a" id="t" cx="23.731" cy="23.885" r="8.335" gradientTransform="matrix(3.38134 -.04028 .04004 3.36093 -57.47 -55.43)" gradientUnits="userSpaceOnUse"/><radialGradient xlink:href="#a" id="s" cx="23.748" cy="23.82" r="5.657" gradientTransform="matrix(4.9331 -.01446 .01148 3.91554 -93.68 -69.1)" gradientUnits="userSpaceOnUse"/><path id="e" d="M25 15a9 9 0 1 1-18 0 9 9 0 1 1 18 0" color="#000"/></defs><use xlink:href="#e" fill="url(#d)" stroke-width="1.271" transform="translate(-13.191 -10.866)scale(2.32442)"/><path fill="url(#f)" d="M23.924 4.578a18.94 18.94 0 0 0-13.436 5.582 18.96 18.96 0 0 0 0 26.871 18.96 18.96 0 0 0 26.871 0 18.96 18.96 0 0 0 0-26.871 18.94 18.94 0 0 0-13.436-5.582"/><g color="#000"><path fill="url(#b)" fill-rule="evenodd" d="M14.32 32.762 32.4 14.089l12.383 12.504c-.815 7.988-7.512 16.946-18.46 18.17z" opacity=".2"/><path fill="url(#g)" d="m30 35 4-6 5 5-5 5z"/></g><path fill="url(#h)" d="m29 34 6-4 2 2-4.969 5.094z"/><g fill-rule="evenodd" color="#000"><path fill="url(#i)" d="m10.445 11.949 4.312-6.704 12.649 12.473c-6.44-2.137-7.637-2.179-16.647-1.643z" opacity=".4"/><path fill="url(#j)" d="m10.695 39.762 5.327-3.548 7.258 8.629c-3.44-.262-4.825-.679-7.397-1.456z" opacity=".4"/></g><path fill="url(#k)" d="M12 2.531c-1.621 0-3.243.499-3 1.469 1 4 2 28 1 30-.667 1.333-3 1-3 5 0 2.867 2.823 8 5 8 1.967-.008 5-5.133 5-8 0-4-2.333-3.667-3-5-1-2 0-26 1-30 .243-.97-1.379-1.469-3-1.469m-.5 1V5l1.125-1.438.906.188-1.188 1.438 1.188 1.5-.906.281L11.5 5.375v1.438l-.875.125V3.594z"/><use xlink:href="#e" fill="url(#l)" stroke-width="2.036" transform="translate(.879 2.33)scale(1.45091)"/><use xlink:href="#e" fill="url(#q)" transform="matrix(1.13742 0 0 1.13731 5.556 6.694)"/><path fill="url(#r)" d="M21.05 28.03v-8.813l7.55 4.346z"/><g color="#000"><path fill="url(#s)" d="M23.425 18.18c-.978.051-1.916.39-2.757.883.324.911.839.863 1.554.447 1.809-.659 3.887.007 5.133 1.433.918-.51.609-1.096-.109-1.56a5.67 5.67 0 0 0-3.821-1.203m-5 3.73c-.869 2.294.021 4.994 1.929 6.463.821-.687.403-1.16-.23-1.753-1.059-1.319-1.223-3.206-.562-4.728-.385.042-1.138-.785-1.137.018m10.519 1.372c-1.071-.129-.437 1.165-.798 1.814-.28 1.082-1.044 1.991-1.965 2.618.332.998.876.871 1.457.193 1.277-1.169 1.885-2.965 1.747-4.691l-.441.067m-7.128 5.157c-.554 1 .982.914 1.657 1.028a6.4 6.4 0 0 0 1.838-.218c.018-1.192-.79-.957-1.687-.852-.527.249-1.815-.791-1.808.042" opacity=".052"/><path fill="url(#t)" d="M16.932 19.02c-.846 1.171-1.324 2.559-1.536 3.981 1.345.47 1.767-.166 1.95-1.37.916-2.686 3.602-4.456 6.391-4.568.263-1.525-.695-1.713-1.891-1.317a8.36 8.36 0 0 0-4.914 3.274m-.341 9.189c1.83 3.119 5.753 4.595 9.203 3.762-.029-1.578-.959-1.536-2.225-1.357-2.493-.004-4.812-1.561-5.948-3.726-.308.48-1.954.582-1.03 1.322m11.303-10.808c-1.139 1.11.933 1.578 1.344 2.593.983 1.322 1.32 3.04 1.189 4.676 1.454.542 1.811-.201 1.569-1.494-.162-2.547-1.661-4.906-3.771-6.344l-.332.568m-.67 12.952c.637 1.561 1.957-.283 2.712-.951.601-.693 1.072-1.478 1.45-2.311-1.352-1.123-1.829.023-2.538 1.148-.202.836-2.586 1.352-1.623 2.115" opacity=".052"/></g><path fill="url(#u)" d="M14.04 35.33c.118.059 2.133.718 2.142 3.68.009 2.872-2.84 7-4.284 7.01-1.57.009-4.246-4.139-4.284-7.01-.037-2.74 2.024-3.603 2.142-3.68 1.459-.838 2.894-.848 4.284 0"/><path fill="#fff" d="M12 2.531c-1.621 0-3.243.499-3 1.469 1 4 2 28 1 30-.194.512.159.044.375-.125.938-2.512.331-25.925-.656-29.875-.225-.9 1.161-1.371 2.656-1.438-.127-.006-.247-.031-.375-.031" opacity=".36"/></svg>