<svg xmlns="http://www.w3.org/2000/svg" width="256" height="256" version="1.0"><g style="display:inline"><path d="M145.157 443.632c-.19-.334-.786-.71-.203-.964.88-.938 2.369-.627 3.178.238 1.117.996 2.13 2.679 1.314 4.159-.671 1.132-1.814 1.86-2.733 2.778-.413.377-.82.76-1.271 1.091 1.329.96 2.668 1.906 3.99 2.875 1.37-1.224 2.723-2.464 3.99-3.795.21-1.024-2.075-1.877-.335-2.447 1.386-.715 2.77.539 3.46 1.659.736 1.058 1.022 2.605.08 3.637-1.042 1.06-2.294 1.894-3.43 2.853-.38.238.535.4.74.585 1.92.96 3.852 1.897 5.846 2.7 1.063.476 2.174.867 3.211 1.388.523.422 1.307.745 1.224 1.558-.13.846-1.071.962-1.761.855-2.025-.1-4.062-.141-6.078-.278-1.171-.48-2.39-.867-3.531-1.408-3.025-1.951-6.246-3.695-8.764-6.314l-2.176-2.085c-1.563.896-3.078 1.975-4.829 2.46-.973-.31.64-1.621.94-2.125.56-.81 1.725-1.562 2.032-2.337-.499-.647-1.156-1.195-1.546-1.908-.33-.829.12-1.921 1.094-1.585.498.056 1.082-.126 1.432.334l1.276 1.02c.72-.744 1.522-1.397 2.317-2.055.458-.463.906-.934 1.128-1.56.284-.473-.322-1.004-.595-1.33M121.559 446.104c.948.083 1.776.983 2.617 1.474 1.462 1.046 2.96 2.042 4.394 3.126 1.133-1.133 2.333-2.203 3.42-3.379.67-.905 1.436-2.168.855-3.29-.563-.44-1.025-1.039-1.66-1.365l-1.931-.82c.434-1.197 1.94-1.526 3.053-1.773 1.582-.194 2.887.806 4.021 1.759.651.566 1.421 1.013 1.983 1.669.807.986.521 2.404-.25 3.319-1.889 2.687-4.446 4.818-7.215 6.55-3.592 2.217-7.296 4.413-11.398 5.53-1.75.435-3.612.531-5.384.188-1.303-.469.182-1.846 1.084-1.744 1.94-.474 3.92-.794 5.82-1.416 1.747-.632 3.351-1.612 4.809-2.755-1.256-1.245-2.514-2.5-3.774-3.73-.77-.925-1.064-2.255-.444-3.343M131.762 459.272c.515 2.2.307 4.48.327 6.72-.2 1.74-.205 3.512-.574 5.227-.302 1.585-1.63 2.793-3.228 2.976-2.68.58-5.422.166-8.12.005-.675-.435-.649.33-.786.816-.328 1.378-.531 2.782-.9 4.15 2.749.276 5.527.647 8.284.371a8.2 8.2 0 0 0 2.432-1.348c.922-.11 2.084-.773 2.788.17 1.014 1.76.338 3.82.21 5.714-.35 2.827-.407 5.8-1.887 8.33-.868 1.999-3.097 3.112-5.221 2.994-1.097.024-2.2.119-3.269-.193-1.481-.183-2.883-.767-4.027-1.732-1.147-.68-1.92-1.91-2.16-3.201-.188-.715.702-.284 1.04-.108 1.414.61 2.78 1.364 4.242 1.846 1.173.364 2.456.473 3.594-.067.922-.31 1.977-.586 2.36-1.611.625-1.418.875-2.973 1.133-4.494.184-1.047.176-2.098.065-3.152-.239-.291-.984-.044-1.42-.126h-9.361c-.853 1.049-1.627 2.17-2.533 3.171-1.363.661-.682-1.96-.646-2.678.688-3.789 1.309-7.6 2.139-11.357.33-1.06 1.513-1.06 2.419-.962 2.467.015 4.95.34 7.404-.033 1.02-.024 1.642-.81 1.742-1.75.52-1.689.853-3.432.872-5.201.218-1.482-1.456-1.825-2.583-1.874-1.488.122-2.996.103-4.459.405-1.798-.3-.03-2.999 1.279-2.96 2.37-.61 4.828-.712 7.25-.971.646-.021 1.391.246 1.594.923" style="fill:#37a42c" transform="matrix(4.94389 0 0 4.45668 -558.364 -1958.484)"/><path d="M137.918 459.387c.88-.462 1.908-.578 2.88-.753 2.075-.325 4.17-.002 6.183.513.99.214 2.201.495 2.615 1.535.17.869-.37 1.66-.58 2.479-.528 1.726-1.28 3.48-1.149 5.32.183 1.661 1.7 2.965 3.294 3.22 1.064.075 1.843-.759 2.719-1.227.326-.193.624-.497 1.033-.366l1.359.089c.955.712.638 2.086.347 3.067-.483 1.655-2.27 2.513-3.9 2.42-2.232-.142-4.602-1.043-5.915-2.939-.717-1.15-1.093-2.483-1.444-3.781-.049-.975.218-1.944.364-2.907.127-.792.354-1.626.117-2.415-1.319-.273-2.641-.897-4.005-.52-.888.257-1.862.544-2.541 1.18-.71 1.04-.602 2.355-.868 3.54-.237 1.261-.334 2.554-.688 3.788-.387 1.334-1.507 2.48-2.93 2.622-.49.173-1.954.275-1.353-.574.368-.92 1.34-1.412 1.78-2.294.914-1.698.845-3.697.922-5.57.101-1.7-.439-3.507.297-5.122.274-.646.916-.939 1.463-1.305M140.71 479.224c-1.28-.18-2.634-.077-3.839-.606-1.392-.601-.053-1.562.873-1.493 1.686-.25 3.394-.352 5.092-.483 3.6.142 7.204.254 10.803.414 1.273-.009 1.89 1.382 1.424 2.459-.6 1.786-1.597 3.405-2.397 5.105l-.897 1.792c2.395.91 4.897 1.68 7.048 3.106 1.009.815.467 2.296.17 3.339-.353.914-.74 2.305-1.915 2.333-.837-.258-1.513-.88-2.276-1.304l-5.991-3.794c-.669.915-1.624 1.567-2.424 2.36-1.573 1.373-3.586 2.107-5.5 2.872-1.73.086-3.464.216-5.193.275-.934-.231-1.935-.274-2.797-.724.22-.387.756-.495 1.175-.632 2.167-.77 4.432-1.245 6.574-2.084 1.567-.694 3.005-1.679 4.148-2.96.793-.462.505-1.446-.29-1.777-1.732-.983-3.447-2.001-5.054-3.183-1.467-1.103-3.044-2.09-4.365-3.369-.36-.943 1.498-.123 1.973-.056 3.613 1.14 7.108 2.615 10.613 4.045.65-1.09 1.463-2.142 1.767-3.392.12-.77-.561-1.155-1.216-1.18-1.364-.293-2.73-.581-4.125-.684z" style="fill:#37a42c" transform="matrix(4.94389 0 0 4.45668 -558.364 -1958.484)"/></g></svg>