<svg xmlns="http://www.w3.org/2000/svg" xmlns:xlink="http://www.w3.org/1999/xlink" width="48" height="48"><defs><linearGradient xlink:href="#a" id="d" x1="407.571" x2="407.571" y1="538.798" y2="503.798" gradientTransform="translate(-384.571 -499.798)" gradientUnits="userSpaceOnUse"/><linearGradient id="a" x2="0" y1="543.8" y2="503.8" gradientTransform="translate(-66.1 -5.9)" gradientUnits="userSpaceOnUse"><stop stop-color="#faae2a"/><stop offset="1" stop-color="#ffc35a"/></linearGradient><linearGradient id="b" x2="0" y1="34" y2="13" gradientTransform="translate(318.47 493.9)" gradientUnits="userSpaceOnUse"><stop stop-color="#2a2c2f"/><stop offset="1" stop-color="#424649"/></linearGradient><linearGradient xlink:href="#b" id="c" x1="37" x2="36" y1="42" y2="38" gradientUnits="userSpaceOnUse"/></defs><circle cx="35" cy="40" r="4" style="opacity:1;fill:url(#c);fill-opacity:1;stroke:none;stroke-width:2;stroke-linecap:round;stroke-linejoin:round;stroke-miterlimit:4;stroke-dasharray:none;stroke-opacity:1"/><path d="M24 4a4 4 0 0 0-.756.076A4 4 0 0 0 20 8a4 4 0 0 0 .326 1.572C15.08 11.18 11.006 16.004 11 21.5c-.005 7.45-2.699 13.436-7 14.5v3h40v-3c-4.301-1.064-6.995-7.05-7-14.5 0-5.497-4.071-10.325-9.318-11.936A4 4 0 0 0 28 8a4 4 0 0 0-4-4" style="color:#31363b;fill:url(#d);fill-opacity:1;stroke:none"/><path d="M4 38h40v1H4z" style="opacity:1;fill:#e78220;fill-opacity:1;stroke:none;stroke-width:1;stroke-miterlimit:4;stroke-dasharray:none;stroke-opacity:1"/></svg>