<svg xmlns="http://www.w3.org/2000/svg" width="48" height="48"><defs><linearGradient id="d" x2="0" y1="543.8" y2="503.8" gradientTransform="matrix(1 0 0 .9 0 52.38)" gradientUnits="userSpaceOnUse"><stop stop-color="#e3dfd6"/><stop offset="1" stop-color="#f4f1e8"/></linearGradient><linearGradient id="a" x2="0" y1="543.8" y2="503.8" gradientTransform="matrix(1.125 0 0 1 -51.07 0)" gradientUnits="userSpaceOnUse"><stop stop-color="#343b40"/><stop offset="1" stop-color="#555e63"/></linearGradient><linearGradient id="c" x2="0" y1="542.8" y2="504.8" gradientUnits="userSpaceOnUse"><stop stop-color="#2a2c2f"/><stop offset="1" stop-color="#424649"/></linearGradient><linearGradient id="f" x1="413.57" x2="418.57" y1="528.8" y2="533.8" gradientUnits="userSpaceOnUse"><stop stop-color="#bdb49e" stop-opacity=".259"/><stop offset="1" stop-color="#bdb49e" stop-opacity="0"/></linearGradient><linearGradient id="e" x1="414.57" x2="426.57" y1="531.8" y2="543.8" gradientUnits="userSpaceOnUse"><stop stop-color="#383e51"/><stop offset="1" stop-color="#655c6f" stop-opacity="0"/></linearGradient></defs><g transform="translate(-384.57 -499.8)"><rect width="36" height="40" x="390.57" y="503.8" fill="url(#a)" rx="3" ry="3"/><rect width="34" height="38" x="391.57" y="504.8" fill="url(#c)" opacity=".5" rx="2" ry="2"/><rect width="32" height="36" x="392.57" y="505.8" fill="url(#d)" rx="1" ry="1"/><path fill="#da4453" d="M395.57 505.8h1v36h-1z" opacity=".4"/><path fill="#007ad9" d="M392.57 508.8h32v1h-32z" opacity=".4"/><rect width="28" height="1" x="394.57" y="542.8" fill="#1c1e20" ry=".423" style="opacity:.3"/><path fill="#bdb49e" d="M400.57 513.8v2h.008l4.592 7.949-4.6 7.965v2.086h16v-4h-2v2h-11.738l4.646-8.05v-.002l-4.59-7.949h9.682v1h2v-3h-12.836z"/><g fill-rule="evenodd"><path fill="#ebebeb" d="m424.57 530.8-9 9v-9z"/><path fill="url(#e)" d="m415.57 539.8 4 4h7v-11l-2-2z" opacity=".2"/><path fill="url(#f)" d="M416.57 531.8v7l7-7z"/></g></g></svg>