<svg xmlns="http://www.w3.org/2000/svg" xmlns:xlink="http://www.w3.org/1999/xlink" width="160" height="160" version="1.0"><defs><radialGradient xlink:href="#a" id="d" cx=".5" cy=".953" r=".745" fx=".5" fy=".953"/><radialGradient xlink:href="#b" id="c" cx=".5" cy=".953" r=".745" fx=".5" fy=".953"/><linearGradient id="b"><stop offset="0" style="stop-color:#02000d;stop-opacity:.6039"/><stop offset="1" style="stop-color:#970000;stop-opacity:0"/></linearGradient><linearGradient id="a"><stop offset="0" style="stop-color:#4c0000;stop-opacity:.6039"/><stop offset="1" style="stop-color:#970000;stop-opacity:0"/></linearGradient></defs><g style="font-size:12"><g transform="matrix(1.09535 0 0 1.09535 -283.672 -383.226)"><circle cx="297.5" cy="418.612" r="30" style="fill:#0000b3;fill-rule:evenodd;stroke-width:1" transform="translate(72.5 -36.25)"/><circle cx="297.5" cy="418.612" r="30" style="fill:#fff;fill-opacity:.4567;fill-rule:evenodd;stroke-width:1" transform="matrix(.44142 .12335 -.0841 .30097 280.132 205.3)"/><circle cx="297.5" cy="418.612" r="30" style="fill:url(#c);fill-rule:evenodd;stroke-width:1" transform="translate(71.473 -36.599)"/></g><path d="m350.866 383.484-44.725 24.269c.534 6.97 4.371 11.576 8.853 15.258l44.927-24.952c-.601-6.743-2.696-10.956-9.055-14.575" style="fill:#040000;fill-rule:evenodd;stroke-width:1" transform="matrix(1.09535 0 0 1.09535 -287.535 -381.018)"/><g transform="matrix(1.09535 0 0 1.09535 -287.535 -381.018)"><circle cx="297.5" cy="418.612" r="30" style="fill-rule:evenodd;stroke-width:1"/><circle cx="297.5" cy="418.612" r="30" style="fill:#fff;fill-opacity:.4567;fill-rule:evenodd;stroke-width:1" transform="matrix(.44142 .12335 -.0841 .30097 206.576 241.227)"/></g><path d="m386.346 448.634-1.757-50.855c-6.476-2.632-12.31-1.254-17.605 1.113l2.278 51.34c6.303 2.472 11.008 2.477 17.084-1.598" style="fill:#040000;fill-rule:evenodd;stroke-width:1" transform="matrix(1.09535 0 0 1.09535 -287.535 -381.018)"/><g transform="matrix(1.09535 0 0 1.09535 -284.224 -378.81)"><circle cx="297.5" cy="418.612" r="30" style="fill:#ab0000;fill-rule:evenodd;stroke-width:1" transform="translate(75 42.5)"/><circle cx="297.5" cy="418.612" r="30" style="fill:#fff;fill-opacity:.4567;fill-rule:evenodd;stroke-width:1" transform="matrix(.44142 .12335 -.0841 .30097 280.132 284.05)"/><circle cx="297.5" cy="418.612" r="30" style="fill:#fff;fill-opacity:.4567;fill-rule:evenodd;stroke-width:1" transform="matrix(.44142 .12335 -.0841 .30097 280.132 284.05)"/><circle cx="297.5" cy="418.612" r="30" style="fill:url(#d);fill-rule:evenodd;stroke-width:1" transform="translate(75 42.5)"/></g><path d="m356.333 448.015-44.928-23.891c-5.516 4.294-7.238 10.035-7.834 15.805l45.61 23.683c5.29-4.225 7.645-8.298 7.152-15.597" style="fill:#040000;fill-rule:evenodd;stroke-width:1" transform="matrix(1.09535 0 0 1.09535 -287.535 -381.018)"/></g></svg>