<svg xmlns="http://www.w3.org/2000/svg" xmlns:xlink="http://www.w3.org/1999/xlink" width="48" height="48"><defs><linearGradient id="a" x1="402.41" x2="415.57" y1="514.63" y2="527.8" gradientUnits="userSpaceOnUse"><stop stop-color="#2e5d89"/><stop offset="1" stop-color="#1b92f4"/></linearGradient><linearGradient xlink:href="#a" id="p" x1="399.7" x2="414.17" y1="511.72" y2="526.2" gradientUnits="userSpaceOnUse"/><linearGradient xlink:href="#a" id="q" x1="395.06" x2="412.77" y1="506.89" y2="524.6" gradientUnits="userSpaceOnUse"/><linearGradient id="b" x1="398.57" x2="418.57" y1="508.8" y2="528.8" gradientTransform="translate(-817.14 -1039.6)" gradientUnits="userSpaceOnUse"><stop stop-color="#2f3943"/><stop offset="1" stop-color="#4d5662"/></linearGradient><linearGradient xlink:href="#b" id="r" x2="0" y1="28" y2="12" gradientTransform="translate(386.57 499.8)" gradientUnits="userSpaceOnUse"/><linearGradient xlink:href="#b" id="s" x2="0" y1="28" y2="12" gradientTransform="matrix(-1 0 0 1 430.57 499.8)" gradientUnits="userSpaceOnUse"/><linearGradient id="c" x1="405.57" x2="411.57" y1="534.8" y2="538.8" gradientTransform="matrix(1 0 0 .60001 0 213.91)" gradientUnits="userSpaceOnUse"><stop stop-color="#18222a"/><stop offset="1" stop-color="#566069"/></linearGradient><linearGradient xlink:href="#c" id="o" x1="400.5" x2="417.37" y1="511.73" y2="528.6" gradientUnits="userSpaceOnUse"/><linearGradient id="e" x1="421.57" x2="398.57" y1="530.8" y2="507.8" gradientUnits="userSpaceOnUse"><stop stop-color="#c6cdd1"/><stop offset="1" stop-color="#e0e5e7"/></linearGradient><linearGradient xlink:href="#e" id="j" x2="0" y1="531.8" y2="501.7" gradientTransform="matrix(.91666 0 0 1 34.05 0)" gradientUnits="userSpaceOnUse"/><linearGradient id="f" x2="0" y1="519.8" y2="541.01" gradientTransform="rotate(-45 -387.024 734.119)" gradientUnits="userSpaceOnUse"><stop/><stop offset="1" stop-opacity="0"/></linearGradient><linearGradient xlink:href="#f" id="l" x1="410.57" x2="413.57" y1="538.8" y2="541.8" gradientUnits="userSpaceOnUse"/><linearGradient id="m" x2="0" y1="541.8" y2="543.8" gradientUnits="userSpaceOnUse"><stop stop-color="#1d1e1e"/><stop offset="1" stop-color="#44484c"/></linearGradient><linearGradient xlink:href="#e" id="h" x2="0" y1="537.8" y2="539.8" gradientUnits="userSpaceOnUse"/></defs><g stroke-linejoin="round" stroke-width="2"><g stroke-linecap="round" transform="translate(-384.57 -499.8)"><path fill="url(#h)" d="M392.57 537.8h32v4h-32z"/><rect width="44" height="24" x="386.57" y="507.8" fill="url(#j)" rx="0"/></g><path fill="url(#f)" d="M35.31 8.686 12.681 31.315l.686.686h32.629V21.372z" opacity=".2"/></g><path fill="url(#l)" fill-rule="evenodd" d="m404.57 538.8 3 3h8l-3-3z" opacity=".2" transform="translate(-384.57 -499.8)"/><g stroke-linejoin="round" stroke-width="2"><path fill="url(#c)" d="M404.57 534.8h8v4s-1 1-4 1-4-1-4-1z" transform="translate(-384.57 -499.8)"/><g stroke-linecap="round" transform="translate(-384.57 -499.8)"><path fill="url(#m)" d="M392.57 541.8h32v2h-32z"/><circle cx="408.57" cy="519.8" r="16" fill="url(#e)"/></g><path fill="url(#b)" d="M-394.571-519.798a14 14 0 0 1-14 14 14 14 0 0 1-14-14 14 14 0 0 1 14-14 14 14 0 0 1 14 14" transform="rotate(180 -192.285 -249.9)"/><g stroke-linecap="round" transform="translate(-384.57 -499.8)"><circle cx="408.57" cy="519.8" r="11" fill="url(#o)"/><circle cx="408.57" cy="519.8" r="10" fill="url(#a)"/><circle cx="408.57" cy="519.8" r="8" fill="url(#p)"/><circle cx="408.57" cy="519.8" r="6" fill="url(#q)"/><circle cx="408.57" cy="519.8" r="4" fill="#2c3e50"/></g><path fill="url(#r)" d="M386.57 511.8v16h2c1.108 0 2-.892 2-2v-12c0-1.108-.892-2-2-2z" transform="translate(-384.57 -499.8)"/><path fill="url(#s)" d="M430.57 511.8v16h-2c-1.108 0-2-.892-2-2v-12c0-1.108.892-2 2-2z" transform="translate(-384.57 -499.8)"/><g stroke-linecap="round" transform="translate(-384.57 -499.8)"><circle cx="428.57" cy="515.8" r="1" fill="#11d116"/><g fill="#84cbfe"><circle cx="405.57" cy="516.8" r="1"/><circle cx="403.57" cy="514.8" r="1.5"/></g></g></g></svg>