<svg xmlns="http://www.w3.org/2000/svg" xmlns:xlink="http://www.w3.org/1999/xlink" width="48" height="48"><defs><linearGradient id="c"><stop offset="0" style="stop-color:#000;stop-opacity:1"/><stop offset="1" style="stop-color:#000;stop-opacity:0"/></linearGradient><linearGradient id="b"><stop offset="0" style="stop-color:#172525;stop-opacity:1"/><stop offset="1" style="stop-color:#334545;stop-opacity:1"/></linearGradient><linearGradient id="a"><stop offset="0" style="stop-color:#f9f9f9;stop-opacity:1"/><stop offset="1" style="stop-color:#afafaf;stop-opacity:1"/></linearGradient><linearGradient xlink:href="#a" id="i" x1="16.323" x2="22.398" y1="14.159" y2="29.741" gradientTransform="matrix(1.48148 0 0 1.21933 -8.182 -4.264)" gradientUnits="userSpaceOnUse"/><linearGradient xlink:href="#b" id="d" x1="-44" x2="-4" y1="33" y2="12" gradientUnits="userSpaceOnUse"/><linearGradient xlink:href="#c" id="h" x1="34.016" x2="42.073" y1="17.852" y2="25.909" gradientUnits="userSpaceOnUse"/><linearGradient xlink:href="#c" id="g" x1="26.385" x2="36.944" y1="20.846" y2="31.405" gradientUnits="userSpaceOnUse"/><linearGradient xlink:href="#c" id="e" x1="24.725" x2="35.192" y1="2.808" y2="2.808" gradientUnits="userSpaceOnUse"/><linearGradient xlink:href="#c" id="f" x1="6.93" x2="18.793" y1="20.096" y2="31.959" gradientUnits="userSpaceOnUse"/><linearGradient xlink:href="#c" id="j" x1="20.091" x2="27.512" y1="24.244" y2="31.664" gradientUnits="userSpaceOnUse"/></defs><rect width="40" height="40" x="-44" y="4" rx="3" ry="3" style="fill:url(#d);fill-opacity:1;stroke:none;stroke-width:0;stroke-linecap:round;stroke-linejoin:round;stroke-miterlimit:4;stroke-dasharray:none;stroke-opacity:1" transform="rotate(-90)"/><path d="m25.13.99-.405-1.686H49.99v7.008H28.972l-1.39-1.992z" style="opacity:.4;fill:url(#e);fill-opacity:1;stroke:none;stroke-width:2;stroke-linecap:round;stroke-linejoin:round;stroke-miterlimit:4;stroke-dasharray:none;stroke-opacity:1" transform="rotate(45)"/><path d="M8 43v1h33v-1z" style="opacity:.15;fill:#000;fill-opacity:1;stroke:none;stroke-width:0;stroke-linecap:round;stroke-linejoin:round;stroke-miterlimit:4;stroke-dasharray:none;stroke-opacity:1"/><path d="m14.021 20.01-1.414 1.472-.162 4.18-3.654-2.756-.883 2.479-.89 2.658L22.975 44h15.037z" style="opacity:.4;fill:url(#f);fill-opacity:1;stroke:none;stroke-width:2;stroke-linecap:round;stroke-linejoin:round;stroke-miterlimit:4;stroke-dasharray:none;stroke-opacity:1"/><path d="m32.994 20.984-1.01.61-.955 6.02-3.279-.024-.84.172L43.148 44H44V31.99z" style="opacity:.4;fill:url(#g);fill-opacity:1;stroke:none;stroke-width:2;stroke-linecap:round;stroke-linejoin:round;stroke-miterlimit:4;stroke-dasharray:none;stroke-opacity:1"/><path d="m41.064 18.016-1.947.773-3.924 6.215-1.09 1.002L44 35.902v-14.95z" style="opacity:.4;fill:url(#h);fill-opacity:1;stroke:none;stroke-width:2;stroke-linecap:round;stroke-linejoin:round;stroke-miterlimit:4;stroke-dasharray:none;stroke-opacity:1"/><path d="m8.979 19.992.005.008H7v8h2v-4.424L12 28h2v-8h-2v4.508l-3-4.485V20zM16 17v8h2v-8zM26 21v4s-.015.916.389 1.885C26.792 27.853 27.85 29 29.5 29s2.708-1.147 3.111-2.115C33.015 25.916 33 25 33 25v-4h-2v4s-.015.584-.236 1.115c-.222.532-.414.885-1.264.885s-1.042-.353-1.264-.885C28.015 25.584 28 25 28 25v-4zM34 18l2.5 4-2.5 4h2l1.5-2.4L39 26h2l-2.5-4 2.5-4h-2l-1.5 2.4L36 18z" style="font-style:normal;font-variant:normal;font-weight:600;font-stretch:normal;font-size:medium;line-height:125%;font-family:FreeSans;-inkscape-font-specification:&quot;FreeSans Semi-Bold&quot;;text-align:center;letter-spacing:0;word-spacing:0;text-anchor:middle;fill:url(#i);fill-opacity:1;stroke:none"/><path d="m22.04 23.05-.724.169-1.074 4.851-.238 2.93 13 13h9.984z" style="opacity:.4;fill:url(#j);fill-opacity:1;stroke:none;stroke-width:2;stroke-linecap:round;stroke-linejoin:round;stroke-miterlimit:4;stroke-dasharray:none;stroke-opacity:1"/><path d="M20 23v8h5v-2h-3v-6z" style="font-style:normal;font-variant:normal;font-weight:600;font-stretch:normal;font-size:medium;line-height:125%;font-family:FreeSans;-inkscape-font-specification:&quot;FreeSans Semi-Bold&quot;;text-align:center;letter-spacing:0;word-spacing:0;text-anchor:middle;fill:url(#i);fill-opacity:1;stroke:none"/></svg>