<svg xmlns="http://www.w3.org/2000/svg" xmlns:xlink="http://www.w3.org/1999/xlink" width="48" height="48"><defs><linearGradient id="d"><stop offset="0" style="stop-color:#000;stop-opacity:1"/><stop offset="1" style="stop-color:#000;stop-opacity:0"/></linearGradient><linearGradient id="c"><stop offset="0" style="stop-color:#ffa92d;stop-opacity:1"/><stop offset="1" style="stop-color:#ffe569;stop-opacity:1"/></linearGradient><linearGradient id="b"><stop offset="0" style="stop-color:#aeaeae;stop-opacity:1"/><stop offset="1" style="stop-color:#f2f2f2;stop-opacity:1"/></linearGradient><linearGradient id="a"><stop offset="0" style="stop-color:#536161;stop-opacity:1"/><stop offset="1" style="stop-color:#334545;stop-opacity:1"/></linearGradient><linearGradient xlink:href="#c" id="e" x1="32" x2="11" y1="43" y2="4" gradientUnits="userSpaceOnUse"/><linearGradient xlink:href="#d" id="f" x1="25" x2="32" y1="11" y2="18" gradientUnits="userSpaceOnUse"/><radialGradient xlink:href="#a" id="h" cx="28" cy="11" r="2" fx="28" fy="11" gradientTransform="translate(-1 2)" gradientUnits="userSpaceOnUse"/><radialGradient xlink:href="#b" id="g" cx="26.5" cy="11.5" r="3.5" fx="26.5" fy="11.5" gradientTransform="matrix(.85714 0 0 .85714 4.286 3.143)" gradientUnits="userSpaceOnUse"/></defs><path d="M42.993 32.732a20 20 0 0 1-22.016 10.86A20 20 0 0 1 5.022 24.935 20 20 0 0 1 19.164 4.87a20 20 0 0 1 22.934 8.755L25 24Z" style="fill:url(#e);fill-opacity:1;stroke:none;stroke-width:.5;stroke-linecap:round;stroke-linejoin:round;stroke-miterlimit:4;stroke-dasharray:none;stroke-opacity:1"/><path d="m26.954 10.935-.924.884-1.293 3.117 5.74 5.74 5.255-3.188-6.753-6.753z" style="opacity:.2;fill:url(#f);fill-opacity:1;stroke:none;stroke-width:2;stroke-linecap:round;stroke-linejoin:round;stroke-miterlimit:4;stroke-dasharray:none;stroke-opacity:1"/><rect width="6" height="6" x="24" y="10" rx="3" ry="3" style="fill:url(#g);fill-opacity:1;stroke:none"/><rect width="4" height="4" x="25" y="11" rx="2" ry="2" style="fill:url(#h);fill-opacity:1;stroke:none"/><path d="M5.023 23.982q-.012.477-.002.954a20 20 0 0 0 37.971 7.796l-.433-.21a20 20 0 0 1-21.582 10.07 20 20 0 0 1-15.954-18.61" style="opacity:.15;fill:#000;fill-opacity:1;stroke:none;stroke-width:.5;stroke-linecap:round;stroke-linejoin:round;stroke-miterlimit:4;stroke-dasharray:none;stroke-opacity:1"/></svg>