<svg xmlns="http://www.w3.org/2000/svg" id="svg1" width="32" height="32" fill="none" version="1.1"><style id="current-color-scheme" type="text/css">.ColorScheme-Text{color:#fcfcfc}</style><g id="kate"><path id="rect7" d="M0 0h32v32H0z" style="opacity:.00100002"/><path id="path905" d="M12.316 10.747C11.404 7.72 6.25 8.454 5.388 8.388c.967-.48 1.841-.876 3.835-2.32 3.84-2.782 7.907-2.175 9.943-1.07-5.567.211-4.507 3.244-3.687 4.842-1.042.303-2.688.76-3.163.907" class="ColorScheme-Text" style="stroke-opacity:1;stroke-dasharray:none;stroke-miterlimit:4;stroke-linejoin:miter;stroke-linecap:butt;stroke-width:.0754289;stroke:none;fill-opacity:1;fill:currentColor"/><path id="path907" d="M26.058 6.58c-2.005 2.648-5.338 6.226-8.986 6.697-3.647.471-7.125-.05-7.93 2.666-.742 2.501 1.867 4.837 4.573 4.274 2.89-.601 2.267-3.878.685-6.109 1.201-.069.978-.051 3.015-.154 3.036 2.588 4.042 3.326 9.346 7.101-4.088-.428-5.575-.82-8.507-2.574.76 1.906 2.383 6.232 2.735 9.589-1.691-2.43-2.332-3.322-4.952-5.075-3.357-2.245-6.075-2.321-7.649-5.629-1.57-3.3.509-5.678 4.227-6.708 5.314-1.471 9.892-2.866 13.443-4.078" style="fill:#e6e6e6;fill-opacity:1;stroke:none;stroke-width:.0754289;stroke-linecap:butt;stroke-linejoin:miter;stroke-miterlimit:4;stroke-dasharray:none;stroke-opacity:1"/><path id="path909" d="M14.4 14.108c1.201-.069.978-.051 3.015-.154 3.036 2.588 4.042 3.326 9.346 7.101-5.331-.381-9.365-1.953-12.36-6.947" style="fill:#e6e6e6;fill-opacity:1;stroke:none;stroke-width:.0754289;stroke-linecap:butt;stroke-linejoin:miter;stroke-miterlimit:4;stroke-dasharray:none;stroke-opacity:1"/><path id="path911" d="M26.058 6.58c-2.005 2.648-5.338 6.226-8.986 6.697-3.647.471-7.125-.05-7.93 2.666-.742 2.501 1.867 4.837 4.573 4.274 2.89-.601 2.267-3.878.685-6.109 1.201-.069.978-.051 3.015-.154 3.036 2.588 4.042 3.326 9.346 7.101-4.088-.428-5.575-.82-8.507-2.574.76 1.906 2.383 6.232 2.735 9.589-1.691-2.43-2.332-3.322-4.952-5.075-3.357-2.245-6.075-2.321-7.649-5.629-1.57-3.3.509-5.678 4.227-6.708 5.314-1.471 9.892-2.866 13.443-4.078" class="ColorScheme-Text" style="stroke-opacity:1;stroke-dasharray:none;stroke-miterlimit:4;stroke-linejoin:miter;stroke-linecap:butt;stroke-width:.0754289;stroke:none;fill-opacity:1;fill:currentColor"/><path id="path913" d="M14.4 14.108c1.201-.069.978-.051 3.015-.154 3.036 2.588 4.042 3.326 9.346 7.101-5.331-.381-9.365-1.953-12.36-6.947" class="ColorScheme-Text" style="stroke-opacity:1;stroke-dasharray:none;stroke-miterlimit:4;stroke-linejoin:miter;stroke-linecap:butt;stroke-width:.0754289;stroke:none;fill-opacity:1;fill:currentColor"/><path id="path915" d="M5.388 8.388c.967-.48 1.841-.876 3.835-2.32 3.84-2.782 7.907-2.175 9.943-1.07-5.567.211-4.85 1.32-4.87 2.19-3.699-.78-4.779.281-8.908 1.2" class="ColorScheme-Text" style="stroke-opacity:1;stroke-dasharray:none;stroke-miterlimit:4;stroke-linejoin:miter;stroke-linecap:butt;stroke-width:.0754289;stroke:none;fill-opacity:1;fill:currentColor"/><path id="path917" d="M19.166 4.998c-5.567.211-4.507 3.244-3.687 4.842-.65.189-1.353.404-2.222.634-3.504-6.244 3.049-7.056 5.909-5.476" class="ColorScheme-Text" style="stroke-opacity:1;stroke-dasharray:none;stroke-miterlimit:4;stroke-linejoin:miter;stroke-linecap:butt;stroke-width:.0754289;stroke:none;fill-opacity:1;fill:currentColor"/><path id="path919" d="M9.39 18.921c-2.723-3.507-2.22-6.722 3.114-8.393C17.768 8.88 22.507 7.792 26.058 6.58 16.478 10.23 4.48 12.67 9.39 18.921" class="ColorScheme-Text" style="stroke-opacity:1;stroke-dasharray:none;stroke-miterlimit:4;stroke-linejoin:miter;stroke-linecap:butt;stroke-width:.0754289;stroke:none;fill-opacity:1"/></g></svg>