<svg xmlns="http://www.w3.org/2000/svg" xmlns:xlink="http://www.w3.org/1999/xlink" viewBox="0 0 48 48"><defs><linearGradient id="a"><stop offset="0" style="stop-color:#59f;stop-opacity:1"/><stop offset="1" style="stop-color:#8787de;stop-opacity:1"/></linearGradient><linearGradient xlink:href="#a" id="g" x1="77.5" x2="150.83" y1="173.439" y2="238.069" gradientUnits="userSpaceOnUse"/></defs><linearGradient id="b"><stop offset="0" stop-color="#2a7fff"/><stop offset="1" stop-color="#0cf"/></linearGradient><linearGradient id="h" x1="80.723" x2="141.405" y1="192.156" y2="252.838" gradientUnits="userSpaceOnUse"><stop offset="0" stop-color="#0055d4" style="stop-color:#3a89ff;stop-opacity:1"/><stop offset="1" stop-color="#06f" stop-opacity="0"/></linearGradient><linearGradient id="i" x1="61.163" x2="64.928" y1="105.11" y2="109.045" gradientUnits="userSpaceOnUse"><stop offset="0" stop-color="#e6e6e6"/><stop offset="1" stop-color="#b3b3b3"/></linearGradient><linearGradient id="j" x1="77.167" x2="64.372" y1="115.715" y2="112.004" gradientUnits="userSpaceOnUse"><stop offset="0" stop-color="#0cf"/><stop offset="1" stop-color="#2a7fff"/></linearGradient><linearGradient xlink:href="#b" id="k" x1="68.707" x2="75.819" y1="113.065" y2="117.913" gradientUnits="userSpaceOnUse"/><linearGradient id="c"><stop offset="0" stop-color="#fff"/><stop offset="1" stop-color="#b3b3b3"/></linearGradient><linearGradient xlink:href="#c" id="l" x1="77.401" x2="68.67" y1="106.368" y2="120.358" gradientUnits="userSpaceOnUse"/><linearGradient id="n" x1="68.229" x2="68.164" y1="112.732" y2="118.555" gradientUnits="userSpaceOnUse"><stop offset="0" stop-color="#b3b3b3"/><stop offset="1" stop-color="#fff"/></linearGradient><linearGradient xlink:href="#c" id="o" x1="63.367" x2="71.136" y1="106.865" y2="104.89" gradientUnits="userSpaceOnUse"/><linearGradient id="p" x1="66.951" x2="66.336" y1="104.461" y2="109.668" gradientUnits="userSpaceOnUse"><stop offset="0" stop-color="#ccc"/><stop offset="1" stop-color="#b3b3b3"/></linearGradient><linearGradient id="q" x1="62.961" x2="77.488" y1="115.883" y2="107.314" gradientUnits="userSpaceOnUse"><stop offset="0" stop-color="#e6e6e6"/><stop offset="1" stop-color="#fff"/></linearGradient><linearGradient id="e" x1="68.21" x2="148.521" y1="177.751" y2="258.061" gradientUnits="userSpaceOnUse"><stop offset="0" stop-color="#59f"/><stop offset="1" stop-color="#06f"/></linearGradient><g transform="translate(-16.518 -57.726)scale(.37626)"><circle cx="107.687" cy="217.206" r="55.812" fill="url(#e)" style="fill:url(#e)"/><ellipse cx="107.687" cy="215.745" rx="55.812" ry="54.351" style="fill-opacity:1;fill:url(#g)"/><path fill="url(#h)" d="M104.428 173.439c-3.175 21.389-11.197 24.897-26.928 45.509l4.507 10.666 38.212 38.213a55.81 55.81 0 0 0 43.28-50.621l-42.761-42.762z" style="fill:url(#h)"/><g stroke-width=".265"><path fill="url(#i)" d="M65.429 109.92c-.795-2.581-5.286-1.955-6.037-2.011.843-.41 1.604-.747 3.341-1.977 3.347-2.372 6.89-1.855 8.664-.913-4.85.18-3.927 2.765-3.212 4.127-.909.258-2.343.648-2.756.773" style="fill:url(#i)" transform="matrix(4.54758 0 0 4.64898 -203.944 -313.788)"/><path fill="url(#j)" d="M77.401 106.368c-1.746 2.257-4.65 5.306-7.828 5.707-3.178.402-6.208-.043-6.91 2.272-.647 2.133 1.627 4.123 3.984 3.644 2.52-.513 1.975-3.306.598-5.207 1.046-.059.851-.044 2.626-.131 2.645 2.205 3.522 2.834 8.143 6.052-3.561-.365-4.857-.7-7.411-2.194.661 1.624 2.075 5.311 2.382 8.172-1.473-2.07-2.032-2.831-4.315-4.325-2.924-1.914-5.293-1.978-6.664-4.797-1.367-2.814.443-4.84 3.683-5.717 4.63-1.255 8.62-2.444 11.712-3.476" style="fill:url(#j)" transform="matrix(4.54758 0 0 4.64898 -203.944 -313.788)"/><path fill="url(#k)" d="M67.245 112.784c1.046-.059.851-.044 2.626-.131 2.645 2.205 3.522 2.834 8.143 6.052-4.645-.325-8.16-1.665-10.77-5.921" style="fill:url(#k)" transform="matrix(4.54758 0 0 4.64898 -203.944 -313.788)"/><path fill="url(#l)" d="M77.401 106.368c-1.746 2.257-4.65 5.306-7.828 5.707-3.178.402-6.208-.043-6.91 2.272-.647 2.133 1.627 4.123 3.984 3.644 2.52-.513 1.975-3.306.598-5.207 1.046-.059.851-.044 2.626-.131 2.645 2.205 3.522 2.834 8.143 6.052-3.561-.365-4.857-.7-7.411-2.194.661 1.624 2.075 5.311 2.382 8.172-1.473-2.07-2.032-2.831-4.315-4.325-2.924-1.914-5.293-1.978-6.664-4.797-1.367-2.814.443-4.84 3.683-5.717 4.63-1.255 8.62-2.444 11.712-3.476" style="fill:url(#l)" transform="matrix(4.54758 0 0 4.64898 -203.944 -313.788)"/><path fill="url(#n)" d="M67.245 112.784c1.046-.059.851-.044 2.626-.131 2.645 2.205 3.522 2.834 8.143 6.052-4.645-.325-8.16-1.665-10.77-5.921" style="fill:url(#n)" transform="matrix(4.54758 0 0 4.64898 -203.944 -313.788)"/><path fill="url(#o)" d="M59.392 107.909c.843-.41 1.604-.747 3.341-1.977 3.347-2.372 6.89-1.855 8.664-.913-4.85.18-4.226 1.126-4.244 1.867-3.222-.665-4.163.24-7.76 1.023" style="fill:url(#o)" transform="matrix(4.54758 0 0 4.64898 -203.944 -313.788)"/><path fill="url(#p)" d="M71.397 105.02c-4.85.18-3.927 2.764-3.212 4.126-.566.161-1.18.344-1.936.54-3.053-5.321 2.656-6.013 5.148-4.667" style="fill:url(#p)" transform="matrix(4.54758 0 0 4.64898 -203.944 -313.788)"/><path fill="url(#q)" d="M62.88 116.886c-2.374-2.99-1.935-5.73 2.712-7.153 4.587-1.405 8.716-2.333 11.81-3.365-8.348 3.111-18.8 5.19-14.522 10.518" style="fill:url(#q)" transform="matrix(4.54758 0 0 4.64898 -203.944 -313.788)"/></g></g></svg>