<svg xmlns="http://www.w3.org/2000/svg" xmlns:xlink="http://www.w3.org/1999/xlink" width="48" height="48"><defs><linearGradient id="a"><stop offset="0" style="stop-color:#172525;stop-opacity:1"/><stop offset="1" style="stop-color:#354848;stop-opacity:1"/></linearGradient><linearGradient id="b"><stop offset="0" style="stop-color:#172525;stop-opacity:1"/><stop offset="1" style="stop-color:#394d4d;stop-opacity:1"/></linearGradient><linearGradient id="e"><stop offset="0" style="stop-color:#000;stop-opacity:1"/><stop offset="1" style="stop-color:#000;stop-opacity:0"/></linearGradient><linearGradient id="d"><stop offset="0" style="stop-color:#eff1f1;stop-opacity:1"/><stop offset="1" style="stop-color:#6f8181;stop-opacity:1"/></linearGradient><linearGradient id="c"><stop offset="0" style="stop-color:#172525;stop-opacity:1"/><stop offset="1" style="stop-color:#334545;stop-opacity:1"/></linearGradient><linearGradient xlink:href="#a" id="j" x1="42.961" x2=".204" y1="42.16" y2="9.136" gradientUnits="userSpaceOnUse"/><linearGradient xlink:href="#b" id="g" x1="39.597" x2="13.173" y1="59.821" y2="25.25" gradientUnits="userSpaceOnUse"/><linearGradient xlink:href="#c" id="k" x1="36.447" x2="11.236" y1="31.12" y2="9.673" gradientUnits="userSpaceOnUse"/><linearGradient xlink:href="#c" id="f" x1="21.796" x2="5.928" y1="34.488" y2="21.905" gradientTransform="matrix(.97222 0 0 .975 .667 .6)" gradientUnits="userSpaceOnUse"/><linearGradient xlink:href="#d" id="l" x1="8.808" x2="17.168" y1="15.038" y2="35.845" gradientUnits="userSpaceOnUse"/><linearGradient xlink:href="#e" id="i" x1="8.662" x2="14.783" y1="20" y2="26.122" gradientUnits="userSpaceOnUse"/><linearGradient xlink:href="#e" id="h" x1="13.076" x2="19.142" y1="32.974" y2="43.481" gradientUnits="userSpaceOnUse"/></defs><path d="M24 4.5 6.5 14.25v19.5L24 43.5l17.5-9.75v-19.5z" style="opacity:1;fill:url(#f);fill-opacity:1;stroke:none;stroke-width:2;stroke-linecap:round;stroke-linejoin:round;stroke-miterlimit:4;stroke-dasharray:none;stroke-opacity:1"/><path d="M6 14v20l18 10V24Z" style="opacity:1;fill:url(#g);fill-opacity:1;stroke:none;stroke-width:2;stroke-linecap:round;stroke-linejoin:round;stroke-miterlimit:4;stroke-dasharray:none;stroke-opacity:1"/><path d="m18.322 23.238-.26 6.117-3.208.297-1.907 1.686 3.698 3.697-2.856-.635-.351.461-.526.871 4.742 4.743L24 44V28.916z" style="opacity:.4;fill:url(#h);fill-opacity:1;stroke:none;stroke-width:2;stroke-linecap:round;stroke-linejoin:round;stroke-miterlimit:4;stroke-dasharray:none;stroke-opacity:1"/><path d="m12.736 20.975-4.756.855L24 37.85v-6.84z" style="opacity:.4;fill:url(#i);fill-opacity:1;stroke:none;stroke-width:2;stroke-linecap:round;stroke-linejoin:round;stroke-miterlimit:4;stroke-dasharray:none;stroke-opacity:1"/><path d="M9.56 7.623 33.957 21.71 9.56 35.797-14.84 21.71Z" style="opacity:1;fill:url(#j);fill-opacity:1;stroke:none;stroke-width:2;stroke-linecap:round;stroke-linejoin:round;stroke-miterlimit:4;stroke-dasharray:none;stroke-opacity:1" transform="matrix(.73773 0 0 .70988 16.948 -1.411)"/><path d="M42 14v20L24 44V24Z" style="opacity:1;fill:url(#k);fill-opacity:1;stroke:none;stroke-width:2;stroke-linecap:round;stroke-linejoin:round;stroke-miterlimit:4;stroke-dasharray:none;stroke-opacity:1"/><path d="M6 33v1l18 10 18-10v-1L24 43z" style="opacity:.15;fill:#000;fill-opacity:1;stroke:none;stroke-width:2;stroke-linecap:round;stroke-linejoin:round;stroke-miterlimit:4;stroke-dasharray:none;stroke-opacity:1"/><path d="M14.95 20.728c-1.925-1.11-3.724-1.648-4.994-1.445-1.27.207-1.95 1.148-1.956 2.573l3.96 2.287c.004-.774.32-1.094.788-1.17.467-.076 1.145.082 2.19.685s1.72 1.227 2.185 1.84c.464.615.776 1.298.773 2.072-.003.672-.183.855-.423.97s-.632.129-1.215.095-1.358-.133-2.076.072c-.717.205-1.254.832-1.26 1.87l-.002.733 3.96 2.287.003-.733c.002-.428.085-.452.3-.514.213-.06.68-.04 1.336-.001.656.038 1.504.079 2.196-.255s1.136-1.077 1.141-2.238c.007-1.425-.662-3.146-1.923-4.813-1.262-1.668-3.056-3.203-4.98-4.313m-2.034 12.052-.013 2.931L16.866 38l.013-2.931z" style="fill:url(#l);fill-opacity:1;stroke-width:2;stroke-linejoin:round"/></svg>