<svg xmlns="http://www.w3.org/2000/svg" xmlns:xlink="http://www.w3.org/1999/xlink" width="48" height="48"><defs><linearGradient id="d"><stop offset="0" style="stop-color:#000;stop-opacity:1"/><stop offset="1" style="stop-color:#000;stop-opacity:0"/></linearGradient><linearGradient id="a"><stop offset="0" style="stop-color:#cb2525;stop-opacity:1"/><stop offset="1" style="stop-color:#e05e4c;stop-opacity:1"/></linearGradient><linearGradient id="c"><stop offset="0" style="stop-color:#ffa92d;stop-opacity:1"/><stop offset="1" style="stop-color:#ffc169;stop-opacity:1"/></linearGradient><linearGradient id="b"><stop offset="0" style="stop-color:#375a7d;stop-opacity:1"/><stop offset="1" style="stop-color:#54a3d8;stop-opacity:1"/></linearGradient><linearGradient xlink:href="#a" id="j" x1="-44" x2="-32" y1="10" y2="10" gradientUnits="userSpaceOnUse"/><linearGradient xlink:href="#b" id="l" x1="-44" x2="-32" y1="24" y2="24" gradientUnits="userSpaceOnUse"/><linearGradient xlink:href="#c" id="k" x1="-44" x2="-32" y1="38" y2="38" gradientUnits="userSpaceOnUse"/><linearGradient xlink:href="#b" id="i" x1="-30" x2="-18" y1="10" y2="10" gradientUnits="userSpaceOnUse"/><linearGradient xlink:href="#c" id="n" x1="-30" x2="-18" y1="24" y2="24" gradientUnits="userSpaceOnUse"/><linearGradient xlink:href="#a" id="h" x1="-30" x2="-18" y1="38" y2="38" gradientUnits="userSpaceOnUse"/><linearGradient xlink:href="#b" id="g" x1="-16" x2="-4" y1="10" y2="10" gradientUnits="userSpaceOnUse"/><linearGradient xlink:href="#a" id="e" x1="-16" x2="-4" y1="24" y2="24" gradientUnits="userSpaceOnUse"/><linearGradient xlink:href="#c" id="f" x1="-16" x2="-4" y1="38" y2="38" gradientUnits="userSpaceOnUse"/><linearGradient xlink:href="#d" id="m" x1="18.577" x2="38.551" y1="18.216" y2="38.959" gradientUnits="userSpaceOnUse"/></defs><rect width="39" height="39" x="4.5" y="4.5" rx="1.258" ry="1.182" style="opacity:1;fill:#33393e;fill-opacity:1;stroke:none;stroke-width:2;stroke-linecap:round;stroke-linejoin:round;stroke-miterlimit:4;stroke-dasharray:none;stroke-opacity:1"/><rect width="12" height="12" x="-16" y="18" rx="1" ry="1" style="fill:url(#e);fill-opacity:1;stroke:gray;stroke-width:0;stroke-linecap:round;stroke-linejoin:round;stroke-miterlimit:4;stroke-dasharray:none;stroke-opacity:1" transform="rotate(-90)"/><rect width="12" height="12" x="-16" y="32" rx="1" ry="1" style="fill:url(#f);fill-opacity:1;stroke:gray;stroke-width:0;stroke-linecap:round;stroke-linejoin:round;stroke-miterlimit:4;stroke-dasharray:none;stroke-opacity:1" transform="rotate(-90)"/><rect width="12" height="12" x="-16" y="4" rx="1" ry="1" style="fill:url(#g);fill-opacity:1;stroke:gray;stroke-width:0;stroke-linecap:round;stroke-linejoin:round;stroke-miterlimit:4;stroke-dasharray:none;stroke-opacity:1" transform="rotate(-90)"/><rect width="12" height="12" x="-30" y="32" rx="1" ry="1" style="fill:url(#h);fill-opacity:1;stroke:gray;stroke-width:0;stroke-linecap:round;stroke-linejoin:round;stroke-miterlimit:4;stroke-dasharray:none;stroke-opacity:1" transform="rotate(-90)"/><rect width="12" height="12" x="-30" y="4" rx="1" ry="1" style="fill:url(#i);fill-opacity:1;stroke:gray;stroke-width:0;stroke-linecap:round;stroke-linejoin:round;stroke-miterlimit:4;stroke-dasharray:none;stroke-opacity:1" transform="rotate(-90)"/><rect width="12" height="12" x="-44" y="4" rx="1" ry="1" style="fill:url(#j);fill-opacity:1;stroke:gray;stroke-width:0;stroke-linecap:round;stroke-linejoin:round;stroke-miterlimit:4;stroke-dasharray:none;stroke-opacity:1" transform="rotate(-90)"/><rect width="12" height="12" x="-44" y="32" rx="1" ry="1" style="fill:url(#k);fill-opacity:1;stroke:gray;stroke-width:0;stroke-linecap:round;stroke-linejoin:round;stroke-miterlimit:4;stroke-dasharray:none;stroke-opacity:1" transform="rotate(-90)"/><rect width="12" height="12" x="-44" y="18" rx="1" ry="1" style="fill:url(#l);fill-opacity:1;stroke:gray;stroke-width:0;stroke-linecap:round;stroke-linejoin:round;stroke-miterlimit:4;stroke-dasharray:none;stroke-opacity:1" transform="rotate(-90)"/><path d="M29.732 18.314 24.697 20.6l-5.552 4.754-.877 4.332L32.582 44H44V32.582z" style="opacity:.3;fill:url(#m);fill-opacity:1;stroke:none;stroke-width:2;stroke-linecap:round;stroke-linejoin:round;stroke-miterlimit:4;stroke-dasharray:none;stroke-opacity:1"/><rect width="12" height="12" x="-30" y="18" rx="1" ry="1" style="fill:url(#n);fill-opacity:1;stroke:gray;stroke-width:0;stroke-linecap:round;stroke-linejoin:round;stroke-miterlimit:4;stroke-dasharray:none;stroke-opacity:1" transform="rotate(-90)"/></svg>