<svg xmlns="http://www.w3.org/2000/svg" xmlns:xlink="http://www.w3.org/1999/xlink" width="48" height="48"><defs><linearGradient id="i"><stop offset="0" style="stop-color:#efa63d;stop-opacity:1"/><stop offset="1" style="stop-color:#ffd393;stop-opacity:1"/></linearGradient><linearGradient id="j"><stop offset="0" style="stop-color:#8c47a9;stop-opacity:1"/><stop offset="1" style="stop-color:#c978ec;stop-opacity:1"/></linearGradient><linearGradient id="g"><stop offset="0" style="stop-color:#000;stop-opacity:1"/><stop offset="1" style="stop-color:#000;stop-opacity:0"/></linearGradient><linearGradient id="h"><stop offset="0" style="stop-color:#3bb566;stop-opacity:1"/><stop offset="1" style="stop-color:#66cd8a;stop-opacity:1"/></linearGradient><linearGradient id="f"><stop offset="0" style="stop-color:#3b85b5;stop-opacity:1"/><stop offset="1" style="stop-color:#77aed3;stop-opacity:1"/></linearGradient><linearGradient id="e"><stop offset="0" style="stop-color:#e05e4c;stop-opacity:1"/><stop offset="1" style="stop-color:#e98a7e;stop-opacity:1"/></linearGradient><linearGradient id="a"><stop offset="0" style="stop-color:#334545;stop-opacity:1"/><stop offset="1" style="stop-color:#172525;stop-opacity:1"/></linearGradient><linearGradient id="d"><stop offset="0" style="stop-color:#997657;stop-opacity:1"/><stop offset="1" style="stop-color:#c0e4cf;stop-opacity:1"/></linearGradient><linearGradient id="b"><stop offset="0" style="stop-color:#536161;stop-opacity:1"/><stop offset="1" style="stop-color:#595959;stop-opacity:1"/></linearGradient><linearGradient id="c"><stop offset="0" style="stop-color:#cfd5d5;stop-opacity:1"/><stop offset="1" style="stop-color:#fcfcfc;stop-opacity:1"/></linearGradient><linearGradient xlink:href="#a" id="l" x1="24" x2="24" y1="35" y2="42" gradientTransform="matrix(.96296 0 0 1 .889 0)" gradientUnits="userSpaceOnUse"/><linearGradient xlink:href="#c" id="q" x1="-30" x2="-24.19" y1="24.095" y2="23.127" gradientTransform="matrix(1.03267 0 0 1.03267 .98 .118)" gradientUnits="userSpaceOnUse"/><linearGradient xlink:href="#d" id="k" x1="-44" x2="-4" y1="24" y2="24" gradientTransform="matrix(1 0 0 .975 0 .1)" gradientUnits="userSpaceOnUse"/><linearGradient xlink:href="#e" id="o" x1="11.139" x2="10.977" y1="10.164" y2="5.299" gradientTransform="matrix(1.08333 0 0 1.2 -1.417 -2)" gradientUnits="userSpaceOnUse"/><linearGradient xlink:href="#f" id="n" x1="37" x2="37" y1="10" y2="5" gradientTransform="matrix(1.08333 0 0 1.2 -16.583 -2)" gradientUnits="userSpaceOnUse"/><linearGradient xlink:href="#g" id="p" x1="35.572" x2="46.689" y1="1.395" y2="1.395" gradientUnits="userSpaceOnUse"/><linearGradient xlink:href="#h" id="r" x1="24" x2="24" y1="16" y2="11" gradientTransform="matrix(1.08333 0 0 1.2 10.5 -9.2)" gradientUnits="userSpaceOnUse"/><linearGradient xlink:href="#i" id="s" x1="37" x2="37" y1="10" y2="5" gradientTransform="matrix(1.08333 0 0 1.2 -16.583 4)" gradientUnits="userSpaceOnUse"/><linearGradient xlink:href="#j" id="t" x1="24" x2="24" y1="16" y2="11" gradientTransform="matrix(1.08333 0 0 1.2 10.5 -3.2)" gradientUnits="userSpaceOnUse"/><radialGradient xlink:href="#b" id="m" cx="24" cy="38.5" r="10" fx="24" fy="38.5" gradientTransform="matrix(2.1006 0 0 .85 -26.414 5.775)" gradientUnits="userSpaceOnUse"/></defs><rect width="40" height="39" x="-44" y="4" rx="3" ry="3.065" style="fill:url(#k);fill-opacity:1;stroke:gray;stroke-width:0;stroke-linecap:round;stroke-linejoin:round;stroke-miterlimit:4;stroke-dasharray:none;stroke-opacity:1" transform="rotate(-90)"/><path d="M12.444 35h23.112c1.925 2 1.925 5 0 7H12.444c-1.925-2-1.925-5 0-7" style="fill:url(#l);fill-opacity:1;stroke:none"/><rect width="20" height="5" x="14" y="36" rx="0" ry="0" style="fill:url(#m);fill-opacity:1;stroke:none"/><path d="M17 4v6h13V4Z" style="fill:url(#n);fill-opacity:1;stroke:none"/><path d="M4 7v3h13V4H7.065C5 4 4 5 4 7" style="fill:url(#o);fill-opacity:1;stroke:none"/><path d="m17 37-1 3h1l1-3zm2 0-1 3h1l1-3zm2 0-1 3h1l1-3z" style="opacity:.5;fill:#fff;fill-opacity:1;stroke:none"/><path d="M7 43v1h33v-1z" style="opacity:.15;fill:#000;fill-opacity:1;stroke:gray;stroke-width:0;stroke-linecap:round;stroke-linejoin:round;stroke-miterlimit:4;stroke-dasharray:none;stroke-opacity:1"/><path d="m35.572.03 1.156-1.626h22.46v5.98H36.762l-.825-1.46Z" style="opacity:.2;fill:url(#p);fill-opacity:1;stroke:none;stroke-width:2;stroke-linecap:round;stroke-linejoin:round;stroke-miterlimit:4;stroke-dasharray:none;stroke-opacity:1" transform="rotate(45)"/><rect width="6" height="6" x="-30" y="22" rx="9.294" ry="9.294" style="fill:url(#q);fill-opacity:1;stroke:gray;stroke-width:0;stroke-linecap:round;stroke-linejoin:round;stroke-miterlimit:4;stroke-dasharray:none;stroke-opacity:1" transform="rotate(-90)"/><path d="M30 4v6h13V7c0-2-1-3-3.038-3Z" style="fill:url(#r);fill-opacity:1;stroke:none"/><path d="M17 10v6h13v-6z" style="fill:url(#s);fill-opacity:1;stroke:none"/><path d="M30 10v6h13v-6z" style="fill:url(#t);fill-opacity:1;stroke:none"/></svg>