<svg xmlns="http://www.w3.org/2000/svg" viewBox="0 0 32 32"><defs><linearGradient id="a" x1="434.571" x2="384.571" y1="543.798" y2="503.798" gradientTransform="matrix(.66667 0 0 .7 128.19 165.14)" gradientUnits="userSpaceOnUse"><stop offset="0" stop-color="#343b40"/><stop offset="1" stop-color="#555e63"/></linearGradient><linearGradient id="c" x2="0" y1="44" y2="4" gradientTransform="matrix(.66667 0 0 .7 384.571 514.998)" gradientUnits="userSpaceOnUse"><stop offset="0" stop-color="#bd8d48"/><stop offset="1" stop-color="#e8b971"/></linearGradient><linearGradient id="d" x1="37.581" x2="53.58" y1="17.14" y2="33.14" gradientTransform="translate(351.078 502.96)" gradientUnits="userSpaceOnUse"><stop offset="0" stop-color="#383e51"/><stop offset="1" stop-color="#655c6f" stop-opacity="0"/></linearGradient></defs><g stroke-width=".667" transform="translate(-384.571 -515.798)"><rect width="32" height="28" x="384.571" y="517.798" fill="url(#a)" rx="3" ry="3"/><path fill="url(#c)" d="M387.571 517.798q-3 0-3 3v22q0 3 3 3h26q3 0 3-3v-22q0-3-3-3zm-1 2h28v24h-28z"/><path fill="#aa7f41" fill-opacity=".498" d="M386.571 519.753v24.045h28v-24.045zm1 1.045h26v22h-26z" color="#000"/><path fill="#007ad9" d="M403.571 541.798h4v1h-4z" color="#000"/></g><g fill="#d6d6d6"><path d="M24 26h4v1h-4z" color="#000"/><path d="M4.996 16c-.004 0-.006.223-.006.5s.003.5.006.5h9.987c.004 0 .006-.223.006-.5s-.002-.5-.006-.5z"/><text xml:space="preserve" x="391.499" y="530.593" font-family="monospace" font-size="21.333" letter-spacing="0" style="line-height:1.25" transform="translate(-384.571 -515.798)" word-spacing="0"><tspan x="391.499" y="530.593" font-family="'Nimbus Sans'" font-size="10.667">6</tspan></text><text xml:space="preserve" x="391.93" y="541.382" font-family="'Noto Sans'" font-size="10.667" letter-spacing="0" style="line-height:1.25" transform="translate(-384.571 -515.798)" word-spacing="0"><tspan x="391.93" y="541.382">3</tspan></text><path d="M16 15c-.003 0-.003.223-.003.5s.001.5.002.5h3.996c.002 0 .002-.223.002-.5s-.001-.5-.002-.5zM16 17c-.003 0-.003.223-.003.5s.001.5.002.5h3.996c.002 0 .002-.223.002-.5s-.001-.5-.002-.5z"/><text xml:space="preserve" x="405.634" y="535.735" font-family="'Noto Sans'" font-size="10.667" letter-spacing="0" style="line-height:1.25" transform="translate(-384.571 -515.798)" word-spacing="0"><tspan x="405.634" y="535.735">2</tspan></text></g><path fill="url(#d)" fill-rule="evenodd" d="m406.883 534.193-2.285-2.418-.84-.015-7.9-6.908s-.154-.605-.369-.81a1.26 1.26 0 0 0-.854-.34c-.36.004-.734.172-.99.423-.368.36-.52.906-.633 1.407-.12.529-.134 1.123-.15 1.672-.013.503-.038.96.078 1.444.097.403.34.764.59 1.093.331.433.812.728 1.183 1.127.583.628 1.631 1.988 1.631 1.988l-5.653-.015 3.548 4.965-.67.042 2.472 2.925s-.459.287-1.11.341c-.564.047-1.808-.286-2.51-.491l-.018.409 6.3 7.245 18.614-.083c.013-4.778.01-7.522.07-12.298l-6.64-5.63s-1.045-1.297-1.83-1.417c-.22-.033-.756-.03-1.04.059-.623.196-1.148.622-1.148.622l2.35 2.379z" opacity=".2" transform="translate(-384.571 -515.798)"/></svg>