<svg xmlns="http://www.w3.org/2000/svg" viewBox="0 0 48 48"><linearGradient id="c" x1="394.572" x2="422.572" y1="525.798" y2="553.798" gradientTransform="rotate(-165.001 24.004 24.003)scale(1.0004)" gradientUnits="userSpaceOnUse"><stop offset="0" stop-color="#d6d9dc"/><stop offset="1" stop-color="#a1a9b1"/></linearGradient><linearGradient id="a" x1="25" x2="38" y1="15.304" y2="28.304" gradientUnits="userSpaceOnUse"><stop offset="0" stop-color="#3daee9"/><stop offset="1" stop-color="#2980b9"/></linearGradient><circle cx="24" cy="24" r="14" fill="#232629" fill-rule="evenodd"/><path fill="#eff0f1" d="M17 10v1h5v-1zm-1 .223a16 16 0 0 0-1.258.777H16zM13.521 12a16 16 0 0 0-.521.428V13h4v-1zm-1.914 2a16 16 0 0 0-.818 1H19v-1zM20 14v1h2v-1zm-9.777 2a16 16 0 0 0-.536 1H14v-1zM15 16v1h8v-1zm-5.818 2a16 16 0 0 0-.182.598V19h8v-1zm-.608 2a16 16 0 0 0-.28 1H12v-1zM13 20v1h5v-1zm-5 4a16 16 0 0 0 .098 1H16v-1zm9 0v1h2v-1zm-8 2v1h5v-1zm6 0v1h10v-1zm-6.426 2a16 16 0 0 0 .303 1H13v-1zM14 28v1h5v-1zm6 0v1h2v-1zm4 1v4h1v-4zm3 0v4h3v-4zm5 0v4h1v-4zm3 0v4h2.21a16 16 0 0 0 .79-1.416V29zm-7 1h1v2h-1zm8 0h1v2h-1zm-25.777 2a16 16 0 0 0 .566 1H18v-1zM19 32v1h2v-1zm-7 2v.479a16 16 0 0 0 .428.521H16v-1zm5 0v1h5v-1zm7 0v4h3v-4zm5 0v4h1v-4zm3 0v3.777A16 16 0 0 0 33.258 37H33v-2h1v1.393a16 16 0 0 0 1-.82V34zm-7 1h1v2h-1zm-11.479 1a16 16 0 0 0 1.221 1H18v-1z" opacity=".394"/><path fill="#ed1515" d="m24.854 23.146-.354.354-.354.353 10.501 10.501.707-.707z"/><path fill="#fcfcfc" fill-rule="evenodd" d="M24 10h1v13.5h-1z"/><path fill="url(#a)" fill-rule="evenodd" d="M25 10v13.293l10.314 10.314A15 15 0 0 0 38 29.145v-10.3A15 15 0 0 0 29.104 10z"/><path fill="url(#c)" d="M21.951 43.892a20 20 0 0 0 4.099.006l.475-3.102a17 17 0 0 0 3.689-.985l1.957 2.442a20 20 0 0 0 3.55-2.055l-1.135-2.912a17 17 0 0 0 2.71-2.696l2.895 1.127a20 20 0 0 0 2.05-3.555l-2.422-1.941a17 17 0 0 0 .608-1.82 17 17 0 0 0 .37-1.877l3.095-.475a20 20 0 0 0 .006-4.099l-3.101-.475a17 17 0 0 0-.986-3.689l2.442-1.957a20 20 0 0 0-2.055-3.55l-2.912 1.135a17 17 0 0 0-2.696-2.71l1.128-2.894a20 20 0 0 0-3.555-2.051l-1.94 2.423a17 17 0 0 0-1.821-.61 17 17 0 0 0-1.877-.369l-.474-3.095a20 20 0 0 0-4.099-.006l-.477 3.101a17 17 0 0 0-3.688.987L15.83 5.748a20 20 0 0 0-3.55 2.054l1.135 2.913a17 17 0 0 0-2.71 2.696L7.81 12.282a20 20 0 0 0-2.051 3.555l2.423 1.942a17 17 0 0 0-.609 1.82 17 17 0 0 0-.37 1.876l-3.095.476a20 20 0 0 0-.006 4.098l3.101.476a17 17 0 0 0 .986 3.688L5.747 32.17a20 20 0 0 0 2.055 3.55l2.912-1.135a17 17 0 0 0 2.696 2.711l-1.127 2.894a20 20 0 0 0 3.555 2.051l1.941-2.423a17 17 0 0 0 1.82.609 17 17 0 0 0 1.877.37zm-1.576-6.364a14.006 14.006 0 0 1-9.903-17.153 14.006 14.006 0 0 1 17.153-9.903 14.006 14.006 0 0 1 9.903 17.153 14.006 14.006 0 0 1-17.153 9.903"/><path d="m12.59 7.602-.31.2 1.135 2.913q.143-.13.29-.258zm22.816.008-1.105 2.834q.147.129.29.26l1.128-2.893zM24.523 9.004a14.006 14.006 0 0 0-14.05 10.371c-.31 1.232-.45 2.5-.418 3.77.046-.935.186-1.863.418-2.77 2.002-7.47 9.681-11.904 17.152-9.902A14.01 14.01 0 0 1 37.99 23.529 14.006 14.006 0 0 0 24.523 9.004m17.368 6.117-2.34 1.874q.14.393.26.791l2.443-1.956a20 20 0 0 0-.363-.709m-35.77.008q-.187.35-.361.71l2.422 1.94q.122-.397.263-.789zm37.873 8.338a20 20 0 0 1-.101 1.582l-3.096.475a17 17 0 0 1-.37 1.877 35 35 0 0 1-.872 2.609l.264.21c.126-.34.505-1.472.609-1.82q.237-.927.369-1.876l3.096-.475a20 20 0 0 0 .101-2.582m-39.969.047q-.042 1.27.077 2.535l3.101.477c.157.985.66 2.745.986 3.688l.26-.21c-.466-1.187-1.056-3.216-1.246-4.478l-3.101-.477q-.067-.765-.077-1.535m37.854 8.357a20 20 0 0 1-1.688 2.846l-2.894-1.127c-.8.998-1.998 2.16-3 2.954l.289.742c.887-.728 1.988-1.804 2.71-2.696l2.895 1.127a20 20 0 0 0 2.051-3.554zM6.11 31.88l-.363.292c.561 1.25 1.25 2.44 2.055 3.55l2.912-1.134c.717.896 1.813 1.976 2.695 2.71l.29-.74c-.998-.8-2.191-1.968-2.985-2.97L7.803 34.72A20 20 0 0 1 6.11 31.88m24.102 6.932a17 17 0 0 1-3.688.986l-.474 3.102a20 20 0 0 1-4.1-.006l-.474-3.096a17 17 0 0 1-1.877-.369 17 17 0 0 1-1.82-.61l-1.942 2.423a20 20 0 0 1-3.244-1.85l-.31.799a20 20 0 0 0 3.554 2.05l1.941-2.421q.893.355 1.82.61.928.236 1.878.368l.474 3.096c1.363.142 2.737.144 4.1.006l.474-3.101c1.263-.19 2.5-.52 3.688-.987l1.957 2.442c1.25-.562 2.44-1.25 3.55-2.055l-.31-.799a20 20 0 0 1-3.24 1.854z" opacity=".208"/><g fill-rule="evenodd"><circle cx="24.5" cy="23.5" r="1.5" fill="#fcfcfc"/><circle cx="24.5" cy="23.5" r=".5" fill="#232629"/></g></svg>