<svg xmlns="http://www.w3.org/2000/svg" xmlns:xlink="http://www.w3.org/1999/xlink" width="48" height="48"><linearGradient id="a"><stop offset="0"/><stop offset="1" stop-opacity="0"/></linearGradient><linearGradient xlink:href="#a" id="c" x1="16" x2="34.942" y1="11" y2="29.942" gradientUnits="userSpaceOnUse"/><linearGradient xlink:href="#a" id="d" x1="31.021" x2="43.104" y1="-9.896" y2="-9.896" gradientTransform="rotate(45)" gradientUnits="userSpaceOnUse"/><linearGradient xlink:href="#a" id="f" x1="23.716" x2="26.348" y1="13.219" y2="15.851" gradientUnits="userSpaceOnUse"/><linearGradient id="b" x1="-45.222" x2=".692" y1="-4.91" y2="41.697" gradientTransform="matrix(1.04544 0 0 1.02988 46.077 3.857)" gradientUnits="userSpaceOnUse"><stop offset="0" stop-color="#2bc0ff"/><stop offset="1" stop-color="#1d99f3"/></linearGradient><path fill="url(#b)" d="M6 0h42v42c0 3.6-2.4 6-6 6H0V6c0-3.6 2.4-6 6-6" transform="matrix(.83333 0 0 .83333 4 4)"/><g transform="translate(-38 -2)"><circle cx="24" cy="24" r="7" opacity=".539"/><circle cx="24" cy="24" r="9" opacity=".539"/><path d="M22.5 11c-.277 0-.5.223-.5.5L21 16v16l1 4.5c0 .277.223.5.5.5h3c.277 0 .44-.23.5-.5l1-4.5V16l-1-4.5c-.06-.27-.223-.5-.5-.5z" opacity=".539"/><path d="M13.747 15.868a.5.5 0 0 0 0 .707l2.475 3.89 5.657 5.656 5.657 5.657 3.889 2.475a.5.5 0 0 0 .707 0l2.121-2.121c.196-.196.149-.474 0-.707l-2.475-3.89-5.657-5.656-5.657-5.657-3.889-2.475c-.233-.149-.51-.196-.707 0z" opacity=".539"/><path d="M34.236 15.868a.5.5 0 0 1 0 .707l-2.475 3.89-5.657 5.656-5.657 5.657-3.889 2.475a.5.5 0 0 1-.707 0l-2.121-2.121c-.196-.196-.149-.474 0-.707l2.475-3.89 5.657-5.656 5.656-5.657 3.89-2.475c.233-.149.51-.196.707 0z" opacity=".539"/><path d="M37 22.5c0-.277-.223-.5-.5-.5L32 21H16l-4.5 1c-.277 0-.5.223-.5.5v3c0 .277.23.44.5.5l4.5 1h16l4.5-1c.27-.06.5-.223.5-.5z" opacity=".539"/></g><path fill="url(#c)" d="m22.162 18.727-2.193-2.194-2.305 1.455-.867 1.992-6.75 6.75 4.607 4.608-1.965 1.748L22.604 43h14.208C39.688 43 42 40.72 42 37.889 33.504 27.407 24 16 22.162 18.727" opacity=".2"/><path fill="url(#d)" d="m36.97 10.988-4.368 1.178-4.52 9.5L32 29.994 43.285 41.28c.452-.784.715-1.69.715-2.66V18.018z" opacity=".2"/><path fill="url(#f)" d="m26 9.995 4.532 4.532-3.142 6.655-6.288-6.288z" opacity=".2"/><path fill="#fff" d="M15.209 14.617a.44.44 0 0 0-.34.13l-2.123 2.122a.5.5 0 0 0 0 .707l2.193 3.445a9 9 0 0 0-.455 1.094L10.5 23c-.277 0-.5.223-.5.5v3c0 .277.23.44.5.5l3.986.887a9 9 0 0 0 .442 1.084l-2.198 3.453c-.148.234-.195.511 0 .707l2.122 2.123a.5.5 0 0 0 .707 0l3.453-2.2a9 9 0 0 0 1.103.462L21 37.5c0 .277.223.5.5.5h3c.277 0 .44-.23.5-.5l.887-3.986a9 9 0 0 0 1.1-.45l3.437 2.19a.5.5 0 0 0 .707 0l2.123-2.123c.196-.196.149-.473 0-.707l-.938-1.473-.699.28-2.24-3.36A7 7 0 0 1 23 32a7 7 0 0 1-7-7 7 7 0 0 1 4-6.316V16.53a9 9 0 0 0-.986.405l-3.438-2.19a.8.8 0 0 0-.367-.129"/><path fill="#fff" d="m26 10-5 .463V30l5-1v-8l6 9 5-2-6.5-8.414L37.004 11l-5.236-1L26 18.5z"/><path d="M4 44h35c3 0 5-2 5-5v-1c0 3-2 5-5 5H4z" opacity=".2"/></svg>