<svg xmlns="http://www.w3.org/2000/svg" xmlns:xlink="http://www.w3.org/1999/xlink" width="48" height="48"><defs><linearGradient id="b" x2="0" y1="44" y2="4" gradientTransform="matrix(-1 0 0 1 -32 0)" gradientUnits="userSpaceOnUse"><stop stop-color="#197cf1"/><stop offset="1" stop-color="#20bcfa"/></linearGradient><linearGradient id="a" x2="0" y1="655.51" y2="662.24" gradientTransform="translate(3.346 -3.716)" gradientUnits="userSpaceOnUse"><stop stop-color="#172525"/><stop offset="1" stop-color="#172525" stop-opacity="0"/></linearGradient><linearGradient xlink:href="#a" id="e" x2="0" y1="655.51" y2="662.24" gradientTransform="translate(6.02 -6.688)" gradientUnits="userSpaceOnUse"/><linearGradient xlink:href="#a" id="d" x2="0" y1="655.51" y2="662.24" gradientTransform="translate(10.04 -11.147)" gradientUnits="userSpaceOnUse"/><linearGradient xlink:href="#a" id="g" x2="0" y1="655.51" y2="662.24" gradientTransform="translate(.669 -.743)" gradientUnits="userSpaceOnUse"/><linearGradient xlink:href="#a" id="f" x2="0" y1="655.51" y2="662.24" gradientTransform="translate(3.346 -3.716)" gradientUnits="userSpaceOnUse"/><linearGradient xlink:href="#b" id="c" x2="0" y1="44" y2="4" gradientTransform="matrix(-1 0 0 1 48 0)" gradientUnits="userSpaceOnUse"/></defs><path d="M12.953 7c-1.24 0-2.42.25-3.492.701a8.9 8.9 0 0 0-2.844 1.916 8.9 8.9 0 0 0-1.916 2.844A9 9 0 0 0 4 15.953v9.094c0 1.24.25 2.42.701 3.492a8.9 8.9 0 0 0 1.916 2.844 8.9 8.9 0 0 0 2.844 1.916 9 9 0 0 0 3.492.701H13v10l10-10h12.047c1.24 0 2.42-.25 3.492-.701a8.9 8.9 0 0 0 2.844-1.916 8.9 8.9 0 0 0 1.916-2.844A9 9 0 0 0 44 25.047v-9.094c0-1.24-.25-2.42-.701-3.492a8.9 8.9 0 0 0-1.916-2.844 8.9 8.9 0 0 0-2.844-1.916A9 9 0 0 0 35.047 7Z" style="fill:url(#c);fill-rule:evenodd"/><path d="M15 12h2v1h-2zm3 0h3v1h-3zm6 0h3v1h-3zm5 0h6v1h-6zm7 0h4v1h-4z" style="fill:#fcfcfc" transform="matrix(.875 0 0 .875 3 2.731)"/><path d="M15 15h4v1h-4zm5 0h2v1h-2zm4 0h8v1h-8z" style="fill:#7fe9d6" transform="matrix(.875 0 0 .875 3 2.731)"/><path d="M15 18h2v1h-2zm3 0h3v1h-3zm6 0h4v1h-4zm6 0h4v1h-4zm5 0h5v1h-5zm0 8h-2v1h2zm-3 0h-8v1h8zm-10 0h-7v1h7zm18-4h-2v1h2zm-3 0h-3v1h3zm-4 0h-9v1h9zm-13 0h-5v1h5z" style="fill:#fcfcfc" transform="matrix(.875 0 0 .875 3 2.731)"/><g style="color:#000;fill-rule:evenodd" transform="matrix(.875 0 0 .875 -333.499 -434.594)"><path d="M-51.44 644.4h3v7h-3z" style="opacity:.2;fill:url(#d)" transform="rotate(-42)"/><circle cx="394.07" cy="512.3" r="1.5" style="fill:#abdaf9"/><path d="M-55.46 648.86h3v7h-3z" style="opacity:.2;fill:url(#e)" transform="rotate(-42)"/><circle cx="394.07" cy="518.3" r="1.5" style="fill:#abdaf9"/><path d="M-58.13 651.83h3v7h-3z" style="opacity:.2;fill:url(#f)" transform="rotate(-42)"/><circle cx="394.07" cy="522.3" r="1.5" style="fill:#abdaf9"/><path d="M-60.81 654.8h3v7h-3z" style="opacity:.2;fill:url(#g)" transform="rotate(-42)"/><circle cx="394.07" cy="526.3" r="1.5" style="fill:#abdaf9"/></g><path d="M15 29h5v1h-5zm6 0h4v1h-4zm5 0h12v1H26Z" style="fill:#7fe9d6" transform="matrix(.875 0 0 .875 3 2.731)"/></svg>