<svg xmlns="http://www.w3.org/2000/svg" width="22" height="22"><path d="M356 534.362h22v22h-22z" style="opacity:1;fill:none;fill-opacity:1;stroke:none;stroke-width:.138587;stroke-linecap:square;stroke-linejoin:miter;stroke-miterlimit:4;stroke-dasharray:none;stroke-dashoffset:0;stroke-opacity:1" transform="translate(-356 -534.362)"/><path d="M40 10v12s0 2 2 2h6c2 0 2-2 2-2V10s0-2-2-2h-6c-2 0-2 2-2 2m3-.572h4V10h-4ZM41 10s0-1 1-1h6c1 0 1 1.01 1 1.01v6.49l-1.107-.277a3 3 0 0 0-.297-.721l.586-.977-.707-.707-.977.586a3 3 0 0 0-.723-.3L45.5 13h-1l-.277 1.107a3 3 0 0 0-.721.297l-.977-.586-.707.707.586.977a3 3 0 0 0-.3.723L41 16.5Zm4 5a2 2 0 0 1 1.436.607 2 2 0 0 1 .492.858A2 2 0 0 1 47 17a2 2 0 0 1-.607 1.436 2 2 0 0 1-1.053.535 2 2 0 0 1-.283.03h-.137l-.12-.007a2 2 0 0 1-.759-.234 2 2 0 0 1-.418-.309l-.088-.088a1.998 1.998 0 0 1-.377-2.139 2 2 0 0 1 .313-.51 2 2 0 0 1 1.388-.704q.07-.007.141-.01m-4 2.5 1.107.277a3 3 0 0 0 .297.721l-.586.977.707.707.977-.586a3 3 0 0 0 .723.3L44.5 21h1l.277-1.107a3 3 0 0 0 .721-.297l.977.586.707-.707-.586-.977a3 3 0 0 0 .3-.723L49 17.5V22s0 1-1 1h-6c-1 0-1-1-1-1z" style="color:#eff0f1;opacity:1;fill:currentColor;fill-opacity:1;stroke:none;stroke-width:.1;stroke-linecap:square;stroke-linejoin:miter;stroke-miterlimit:4;stroke-dasharray:none;stroke-dashoffset:0;stroke-opacity:1" transform="translate(-34 -5)"/></svg>