<svg xmlns="http://www.w3.org/2000/svg" xmlns:xlink="http://www.w3.org/1999/xlink" width="48" height="48"><defs><linearGradient id="d"><stop offset="0" style="stop-color:#000;stop-opacity:1"/><stop offset="1" style="stop-color:#000;stop-opacity:0"/></linearGradient><linearGradient id="c"><stop offset="0" style="stop-color:#abdaf9;stop-opacity:1"/><stop offset="1" style="stop-color:#7cbcec;stop-opacity:1"/></linearGradient><linearGradient id="b"><stop offset="0" style="stop-color:#375a7d;stop-opacity:1"/><stop offset="1" style="stop-color:#54a3d8;stop-opacity:1"/></linearGradient><linearGradient id="a"><stop offset="0" style="stop-color:#c42c2c;stop-opacity:1"/><stop offset="1" style="stop-color:#f36856;stop-opacity:1"/></linearGradient><linearGradient id="e" x2="0" y1="531.8" y2="507.82" gradientTransform="matrix(.9524 0 0 1.33561 -365.126 -670.25)" gradientUnits="userSpaceOnUse"><stop stop-color="#2a2c2f"/><stop offset="1" stop-color="#424649"/></linearGradient><linearGradient xlink:href="#a" id="h" x1="24.358" x2="22.09" y1="-2.839" y2="3.458" gradientUnits="userSpaceOnUse"/><linearGradient xlink:href="#b" id="j" x1="38" x2="35" y1="33" y2="15" gradientTransform="translate(-1)" gradientUnits="userSpaceOnUse"/><linearGradient xlink:href="#c" id="f" x1="6" x2="21" y1="20.242" y2="24" gradientUnits="userSpaceOnUse"/><linearGradient xlink:href="#d" id="g" x1="21.262" x2="34.74" y1="4.028" y2="17.506" gradientUnits="userSpaceOnUse"/><linearGradient xlink:href="#d" id="i" x1="32.266" x2="42.889" y1="20.126" y2="30.749" gradientTransform="translate(-1)" gradientUnits="userSpaceOnUse"/></defs><path d="M4 7h40v34H4Z" style="fill:url(#e);stroke-width:2;stroke-linejoin:round"/><path d="M4 40v1h40v-1z" style="fill:#000;stroke-width:2;stroke-linejoin:round;fill-opacity:1;opacity:.15"/><path d="M18 12v2h3v-2zm-3 4v2h6v-2zm-5 4v2h11v-2zm-4 4v2h15v-2zm4 4v2h11v-2zm5 4v2h6v-2z" style="color:#000;font-style:normal;font-variant:normal;font-weight:400;font-stretch:normal;font-size:medium;line-height:normal;font-family:sans-serif;text-indent:0;text-align:start;text-decoration:none;text-decoration-line:none;text-decoration-style:solid;text-decoration-color:#000;letter-spacing:normal;word-spacing:normal;text-transform:none;direction:ltr;block-progression:tb;writing-mode:lr-tb;baseline-shift:baseline;text-anchor:start;white-space:normal;clip-rule:nonzero;display:inline;overflow:visible;visibility:visible;opacity:.1;isolation:auto;mix-blend-mode:normal;color-interpolation:sRGB;color-interpolation-filters:linearRGB;solid-color:#000;solid-opacity:1;fill:#000;fill-opacity:1;fill-rule:evenodd;stroke:none;stroke-width:7.50000048;stroke-linecap:butt;stroke-linejoin:miter;stroke-miterlimit:4;stroke-dasharray:none;stroke-dashoffset:0;stroke-opacity:1;color-rendering:auto;image-rendering:auto;shape-rendering:auto;text-rendering:auto"/><path d="m23 5 .04 38H25V5Z" style="opacity:1;fill:#e05e4c;fill-opacity:1;stroke:none;stroke-width:3;stroke-linecap:round;stroke-linejoin:round;stroke-miterlimit:4;stroke-dasharray:none;stroke-dashoffset:0;stroke-opacity:1"/><path d="M18 13v2h3v-2zm-3 4v2h6v-2zm-5 4v2h11v-2zm-4 4v2h15v-2zm4 4v2h11v-2zm5 4v2h6v-2z" style="color:#000;font-style:normal;font-variant:normal;font-weight:400;font-stretch:normal;font-size:medium;line-height:normal;font-family:sans-serif;text-indent:0;text-align:start;text-decoration:none;text-decoration-line:none;text-decoration-style:solid;text-decoration-color:#000;letter-spacing:normal;word-spacing:normal;text-transform:none;direction:ltr;block-progression:tb;writing-mode:lr-tb;baseline-shift:baseline;text-anchor:start;white-space:normal;clip-rule:nonzero;display:inline;overflow:visible;visibility:visible;opacity:1;isolation:auto;mix-blend-mode:normal;color-interpolation:sRGB;color-interpolation-filters:linearRGB;solid-color:#000;solid-opacity:1;fill:url(#f);fill-opacity:1;fill-rule:evenodd;stroke:none;stroke-width:7.50000048;stroke-linecap:butt;stroke-linejoin:miter;stroke-miterlimit:4;stroke-dasharray:none;stroke-dashoffset:0;stroke-opacity:1;color-rendering:auto;image-rendering:auto;shape-rendering:auto;text-rendering:auto"/><path d="m29.982 4.021-6.699.569-2.763 1.603 3.46 5.78L44 31.994V18.002L32.998 7H27.75z" style="opacity:.4;fill:url(#g);fill-opacity:1;stroke:none;stroke-width:2;stroke-linecap:round;stroke-linejoin:round;stroke-miterlimit:4;stroke-dasharray:none;stroke-opacity:1"/><path d="M27.598 3.39h-7.746L21.788.036l1.937-3.354L25.66.036z" style="opacity:1;fill:url(#h);fill-opacity:1;stroke:none;stroke-width:2;stroke-linecap:round;stroke-linejoin:round;stroke-miterlimit:4;stroke-dasharray:none;stroke-opacity:1" transform="matrix(1.5492 0 0 -1.19257 -12.754 8.043)"/><path d="m31.7 19.295-1.804 6.115-.57 7.26 8.33 8.33H44V26.484l-3.348-3.347z" style="opacity:.4;fill:url(#i);fill-opacity:1;stroke:none;stroke-width:2;stroke-linecap:round;stroke-linejoin:round;stroke-miterlimit:4;stroke-dasharray:none;stroke-opacity:1"/><path d="M30.037 15.001c-.491.03-1.02.516-1.019 1.054L29 31.945c0 .718.939 1.342 1.476.916l10.119-7.972c.54-.421.54-1.41 0-1.832l-10.1-7.918a.66.66 0 0 0-.458-.138z" style="opacity:1;fill:url(#j);fill-opacity:1;fill-rule:nonzero;stroke:none;stroke-width:2.30002117;stroke-linecap:butt;stroke-linejoin:round;stroke-miterlimit:4;stroke-dasharray:none;stroke-dashoffset:80;stroke-opacity:1"/></svg>