<svg xmlns="http://www.w3.org/2000/svg" xmlns:xlink="http://www.w3.org/1999/xlink" xml:space="preserve" width="512" height="512" version="1.0" viewBox="0 0 157.009 94.082"><defs><linearGradient id="a"><stop offset="0" style="stop-color:#000;stop-opacity:.94117647"/><stop offset="1" style="stop-color:#000;stop-opacity:0"/></linearGradient><linearGradient id="b"><stop offset="0" style="stop-color:#567cb8;stop-opacity:1"/><stop offset=".5" style="stop-color:#a4b8d9;stop-opacity:1"/><stop offset="1" style="stop-color:#567cb8;stop-opacity:1"/></linearGradient><linearGradient xlink:href="#a" id="d" x1="260.977" x2="453.377" y1="225.053" y2="225.053" gradientUnits="userSpaceOnUse"/><linearGradient xlink:href="#a" id="e" x1="260.977" x2="453.377" y1="225.053" y2="225.053" gradientUnits="userSpaceOnUse"/><linearGradient xlink:href="#a" id="f" x1="256.677" x2="471.825" y1="225.053" y2="224.921" gradientUnits="userSpaceOnUse" spreadMethod="reflect"/><linearGradient xlink:href="#a" id="g" x1="260.977" x2="453.377" y1="225.053" y2="225.053" gradientUnits="userSpaceOnUse"/><linearGradient xlink:href="#a" id="h" x1="260.977" x2="431.088" y1="225.053" y2="225.053" gradientUnits="userSpaceOnUse"/><linearGradient xlink:href="#a" id="i" x1="260.977" x2="453.377" y1="225.053" y2="225.053" gradientUnits="userSpaceOnUse"/><linearGradient xlink:href="#b" id="c" x1="24.873" x2="132.837" y1="40.256" y2="40.256" gradientTransform="matrix(1.45861 0 0 1.6955 -36.058 -32.815)" gradientUnits="userSpaceOnUse"/></defs><path d="M157.698-31.331H.222V102.21h157.477V-31.33z" style="fill:url(#c);fill-opacity:1"/><path d="M431.088 225.053a85.055 3.17 0 1 1-170.11 0 85.055 3.17 0 1 1 170.11 0" style="opacity:1;fill:#fff;fill-opacity:1;fill-rule:evenodd;stroke:url(#d);stroke-width:8.60017395;stroke-linecap:round;stroke-linejoin:round;stroke-miterlimit:4;stroke-dasharray:none;stroke-opacity:1" transform="matrix(-.09454 0 0 -2.53735 145.51 605.315)"/><path d="M431.088 225.053a85.055 3.17 0 1 1-170.11 0 85.055 3.17 0 1 1 170.11 0" style="opacity:1;fill:#fff;fill-opacity:1;fill-rule:evenodd;stroke:url(#e);stroke-width:8.60017395;stroke-linecap:round;stroke-linejoin:round;stroke-miterlimit:4;stroke-dasharray:none;stroke-opacity:1" transform="matrix(.09454 0 0 2.53734 34.36 -536.761)"/><path d="M43.402 38.877h62.732" style="fill:none;fill-opacity:.75;fill-rule:evenodd;stroke:#fff;stroke-width:1.57951808;stroke-linecap:butt;stroke-linejoin:miter;stroke-miterlimit:4;stroke-dasharray:none;stroke-opacity:1" transform="matrix(1.43709 0 0 1.43554 -34.313 -21.116)"/><path d="M70.55 38.587 86.46 54.495h31.816" style="fill:none;fill-opacity:.75;fill-rule:evenodd;stroke:#fff;stroke-width:1.59081721;stroke-linecap:butt;stroke-linejoin:miter;stroke-miterlimit:4;stroke-dasharray:none;stroke-opacity:1" transform="matrix(1.43709 0 0 1.43554 -34.313 -21.116)"/><path d="M431.088 225.053a85.055 3.17 0 1 1-170.11 0 85.055 3.17 0 1 1 170.11 0" style="opacity:1;fill:#fff;fill-opacity:1;fill-rule:evenodd;stroke:url(#f);stroke-width:8.60017395;stroke-linecap:round;stroke-linejoin:round;stroke-miterlimit:4;stroke-dasharray:none;stroke-opacity:1" transform="matrix(.05156 -.07916 2.12907 1.38382 -407.061 -226.928)"/><path d="M431.088 225.053a85.055 3.17 0 1 1-170.11 0 85.055 3.17 0 1 1 170.11 0" style="opacity:1;fill:#fff;fill-opacity:1;fill-rule:evenodd;stroke:url(#g);stroke-width:8.60017395;stroke-linecap:round;stroke-linejoin:round;stroke-miterlimit:4;stroke-dasharray:none;stroke-opacity:1" transform="matrix(-.09454 0 0 -2.53734 168.372 628.151)"/><path d="M431.088 225.053a85.055 3.17 0 1 1-170.11 0 85.055 3.17 0 1 1 170.11 0" style="opacity:1;fill:#fff;fill-opacity:1;fill-rule:evenodd;stroke:url(#h);stroke-width:8.60017395;stroke-linecap:round;stroke-linejoin:round;stroke-miterlimit:4;stroke-dasharray:none;stroke-opacity:1" transform="matrix(-.0616 .07164 -1.92697 -1.65316 544.92 358.698)"/><path d="M431.088 225.053a85.055 3.17 0 1 1-170.11 0 85.055 3.17 0 1 1 170.11 0" style="opacity:1;fill:#fff;fill-opacity:1;fill-rule:evenodd;stroke:url(#i);stroke-width:8.60017395;stroke-linecap:round;stroke-linejoin:round;stroke-miterlimit:4;stroke-dasharray:none;stroke-opacity:1" transform="matrix(.09454 0 0 2.53734 -11.78 -536.345)"/><path d="M86.459 22.679 70.55 38.587" style="fill:none;fill-opacity:.75;fill-rule:evenodd;stroke:#fff;stroke-width:1.59081721;stroke-linecap:butt;stroke-linejoin:miter;stroke-miterlimit:4;stroke-dasharray:none;stroke-opacity:1" transform="matrix(1.43709 0 0 1.43554 -34.313 -21.116)"/><path d="M.58 121.543h155.572" style="fill:none;stroke:#809cc9;stroke-width:1" transform="translate(0 3.68)"/><path d="M3.453 96.392h1.701v5.308l5.642-5.308h2.19l-6.24 5.855 6.685 6.703h-2.24l-6.037-6.047v6.047h-1.7zm29.488 1.397v9.765h2.054q2.602 0 3.806-1.177 1.212-1.178 1.213-3.718 0-2.523-1.213-3.693-1.204-1.177-3.806-1.177zm-1.701-1.397h3.494q3.654 0 5.364 1.523 1.71 1.514 1.71 4.744 0 3.246-1.719 4.769-1.718 1.522-5.355 1.522h-3.494zm29.74 0h7.95v1.43h-6.249v3.718h5.987v1.43h-5.987v4.55h6.4v1.43h-8.1z" style="font-size:12px;font-style:normal;font-weight:400;fill:#4b72b1;fill-opacity:1;stroke:none;stroke-width:1pt;stroke-linecap:butt;stroke-linejoin:miter;stroke-opacity:1;font-family:Bitstream Vera Sans" transform="translate(.497 12.014)"/><path d="M95.901 96.804v1.658a10.5 10.5 0 0 0-1.827-.69 6.5 6.5 0 0 0-1.659-.227q-1.39 0-2.147.538-.75.54-.75 1.53 0 .834.497 1.263.505.42 1.903.68l1.028.211q1.902.361 2.804 1.279.909.907.909 2.439 0 1.826-1.23 2.767-1.22.942-3.587.942-.892 0-1.903-.201a14 14 0 0 1-2.08-.598v-1.75q1.037.582 2.03.876a6.9 6.9 0 0 0 1.953.294q1.457 0 2.249-.572.79-.572.791-1.632 0-.925-.572-1.447-.565-.52-1.861-.782l-1.036-.202q-1.903-.378-2.753-1.186t-.85-2.246q0-1.665 1.17-2.624 1.178-.96 3.241-.959.885 0 1.802.16.918.16 1.878.48m23.123 12.145-4.8-12.558h1.777l3.983 10.573 3.99-10.573h1.77l-4.792 12.558zm25.017-12.558h2.29l5.574 10.506V96.392h1.65v12.558h-2.29l-5.574-10.505v10.505h-1.65z" style="font-size:12px;font-style:normal;font-weight:400;fill:#5b5b5b;fill-opacity:1;stroke:none;stroke-width:1pt;stroke-linecap:butt;stroke-linejoin:miter;stroke-opacity:1;font-family:Bitstream Vera Sans" transform="translate(.497 12.014)"/></svg>