<svg xmlns="http://www.w3.org/2000/svg" xmlns:xlink="http://www.w3.org/1999/xlink" width="48" height="48"><defs><linearGradient id="g" x1="17.03" x2="34.764" y1="13.444" y2="29.398" gradientTransform="translate(-53.39 -40.971)" gradientUnits="userSpaceOnUse"><stop stop-color="#375a7d"/><stop offset="1" stop-color="#377d50"/></linearGradient><linearGradient id="a" x1="-44.39" x2="-14.394" gradientTransform="translate(58.788 33.941)" gradientUnits="userSpaceOnUse"><stop stop-color="#b0b8b8"/><stop offset="1" stop-color="#eff1f1"/></linearGradient><linearGradient id="h" x1="-42.779" x2="-18.1" y1="-25.453" y2="-11.201" gradientUnits="userSpaceOnUse"><stop stop-color="#338173"/><stop offset="1" stop-color="#54d883"/></linearGradient><linearGradient id="i" x1="13.864" x2="27.05" gradientUnits="userSpaceOnUse"><stop stop-color="#7ceca4"/><stop offset="1" stop-color="#e5fbf7"/></linearGradient><linearGradient id="d" x1="24" x2="40" y1="23" y2="39" gradientUnits="userSpaceOnUse"><stop stop-color="#292c2f"/><stop offset="1" stop-opacity="0"/></linearGradient><linearGradient xlink:href="#a" id="c" x1="3.242" x2="40" y1="15.778" y2="37" gradientTransform="scale(-1)rotate(15 182.282 -182.297)" gradientUnits="userSpaceOnUse"/></defs><g color="#000"><g stroke-linejoin="round" stroke-width="3"><circle cx="29.394" cy="16.971" r="15" fill="url(#a)" transform="rotate(15)"/><path fill="url(#c)" d="M21.952 43.884a20 20 0 0 0 4.097.006l.475-3.1a17 17 0 0 0 3.687-.986l1.956 2.441a20 20 0 0 0 3.55-2.054l-1.136-2.91a17 17 0 0 0 2.71-2.696l2.893 1.127a20 20 0 0 0 2.05-3.553l-2.422-1.941a17 17 0 0 0 .609-1.819 17 17 0 0 0 .37-1.876l3.093-.475a20 20 0 0 0 .006-4.097l-3.1-.475a17 17 0 0 0-.985-3.688l2.44-1.956a20 20 0 0 0-2.053-3.549l-2.911 1.135a17 17 0 0 0-2.695-2.71l1.127-2.892a20 20 0 0 0-3.554-2.05L30.22 8.188a17 17 0 0 0-1.82-.609 17 17 0 0 0-1.877-.37l-.473-3.093a20 20 0 0 0-4.097-.006l-.477 3.1a17 17 0 0 0-3.687.986l-1.956-2.441a20 20 0 0 0-3.549 2.054l1.135 2.91a17 17 0 0 0-2.71 2.696l-2.893-1.128a20 20 0 0 0-2.05 3.553l2.422 1.941a17 17 0 0 0-.609 1.819 17 17 0 0 0-.369 1.876l-3.094.475a20 20 0 0 0-.006 4.097l3.1.475a17 17 0 0 0 .986 3.688l-2.441 1.956a20 20 0 0 0 2.053 3.549l2.911-1.135a17 17 0 0 0 2.695 2.71l-1.127 2.893a20 20 0 0 0 3.554 2.05l1.94-2.422a17 17 0 0 0 1.82.608 17 17 0 0 0 1.876.37zm-1.575-6.361a14 14 0 0 1-9.9-17.146 14 14 0 0 1 17.146-9.9 14 14 0 0 1 9.9 17.146 14 14 0 0 1-17.146 9.9"/></g><path fill="url(#d)" fill-rule="evenodd" d="M33.19 14.807 14.803 33.194l10.736 10.734c.169-.013.338-.02.506-.037l.475-3.102a17 17 0 0 0 3.688-.984l1.957 2.441a20 20 0 0 0 3.549-2.055l-1.135-2.91c1-.794 1.91-1.698 2.709-2.695l2.893 1.127a20 20 0 0 0 2.051-3.553l-2.422-1.941a17 17 0 0 0 .607-1.818q.238-.928.371-1.877l3.092-.475c.018-.17.028-.34.041-.51z" opacity=".2"/><g stroke-linejoin="round" stroke-width="3"><path fill="#172525" d="m41.883 15.12-2.078 1.666q.144.388.27.783l2.172-1.74a19 19 0 0 0-.363-.709m-35.758.006a22 22 0 0 0-.359.711l2.154 1.727q.124-.396.268-.785zm-2.092 8.361q-.044 1.282.076 2.559l3.102.475c.152.987.392 1.959.715 2.904l.27-.217a17 17 0 0 1-.984-3.688l-3.102-.475a20 20 0 0 1-.076-1.559m39.934.02a20 20 0 0 1-.084 1.539l-3.092.475a17 17 0 0 1-.371 1.877 17 17 0 0 1-.607 1.818l.268.215q.186-.511.34-1.033.239-.928.371-1.877l3.092-.475q.123-1.267.084-2.539m-2.092 8.361a20 20 0 0 1-1.691 2.842l-2.893-1.127a17 17 0 0 1-2.709 2.695l.291.744a17 17 0 0 0 2.418-2.439l2.893 1.127a20 20 0 0 0 2.051-3.553zm-35.758.006-.363.291a20 20 0 0 0 2.055 3.549l2.91-1.135a17 17 0 0 0 2.4 2.467l.295-.758a17 17 0 0 1-2.695-2.709l-2.91 1.135a20 20 0 0 1-1.691-2.84m24.09 6.928a17 17 0 0 1-3.688.984l-.475 3.102a20 20 0 0 1-4.098-.008l-.475-3.092a17 17 0 0 1-1.877-.371 17 17 0 0 1-1.818-.607l-1.941 2.422a20 20 0 0 1-3.242-1.848l-.311.797a20 20 0 0 0 3.553 2.051l1.941-2.422a17 17 0 0 0 1.818.607q.928.239 1.877.371l.475 3.092c1.362.143 2.735.145 4.098.008l.475-3.102a17 17 0 0 0 3.688-.984l1.957 2.441a20 20 0 0 0 3.549-2.055l-.311-.795a20 20 0 0 1-3.238 1.85z" opacity=".2"/><g stroke-linecap="round" transform="scale(-1)rotate(15)"><circle cx="-29.394" cy="-16.971" r="13" fill="url(#g)"/><circle cx="-29.394" cy="-16.971" r="12" fill="url(#h)"/></g><path fill="url(#i)" d="M24.17 24.21c2.858 3.724 3.309 8.175 1.01 9.942-2.302 1.766-6.965.288-9.823-3.437s-2.828-8.284-.526-10.05 6.484-.179 9.342 3.546"/></g></g><path fill="#334545" fill-rule="evenodd" d="m15 28 4 4 2-6z"/></svg>