<svg xmlns="http://www.w3.org/2000/svg" xmlns:xlink="http://www.w3.org/1999/xlink" width="48" height="48"><defs><linearGradient id="d"><stop offset="0" style="stop-color:#3b85b5;stop-opacity:1"/><stop offset="1" style="stop-color:#7cbcec;stop-opacity:1"/></linearGradient><linearGradient id="c"><stop offset="0" style="stop-color:#3bb566;stop-opacity:1"/><stop offset="1" style="stop-color:#7ceca4;stop-opacity:1"/></linearGradient><linearGradient id="b"><stop offset="0" style="stop-color:#ffa92d;stop-opacity:1"/><stop offset="1" style="stop-color:#ffc169;stop-opacity:1"/></linearGradient><linearGradient id="a"><stop offset="0" style="stop-color:#bf4231;stop-opacity:1"/><stop offset="1" style="stop-color:#f58273;stop-opacity:1"/></linearGradient><linearGradient xlink:href="#a" id="e" x1="16" x2="7" y1="20" y2="7" gradientUnits="userSpaceOnUse"/><linearGradient xlink:href="#b" id="f" x1="39" x2="30" y1="20" y2="7" gradientUnits="userSpaceOnUse"/><linearGradient xlink:href="#c" id="g" x1="17" x2="10" y1="40.124" y2="28" gradientUnits="userSpaceOnUse"/><linearGradient xlink:href="#d" id="h" x1="38" x2="30" y1="42" y2="29" gradientUnits="userSpaceOnUse"/></defs><path d="M13 4a.95.95 0 0 0-.672.278l-8.05 8.05a.946.946 0 0 0 0 1.342l8.05 8.051a.95.95 0 0 0 1.344 0l8.05-8.05a.946.946 0 0 0 0-1.342l-8.05-8.051A.95.95 0 0 0 12.999 4" style="fill:url(#e);fill-opacity:1;stroke:gray;stroke-width:0;stroke-linecap:round;stroke-linejoin:round;stroke-miterlimit:4;stroke-dasharray:none;stroke-opacity:1"/><path d="M35 4a.95.95 0 0 0-.672.278l-8.05 8.05a.946.946 0 0 0 0 1.342l8.05 8.051a.95.95 0 0 0 1.344 0l8.05-8.05a.946.946 0 0 0 0-1.342l-8.05-8.051A.95.95 0 0 0 34.999 4" style="fill:url(#f);fill-opacity:1;stroke:gray;stroke-width:0;stroke-linecap:round;stroke-linejoin:round;stroke-miterlimit:4;stroke-dasharray:none;stroke-opacity:1"/><path d="M13 26a.95.95 0 0 0-.672.278l-8.05 8.05a.946.946 0 0 0 0 1.342l8.05 8.051a.95.95 0 0 0 1.344 0l8.05-8.05a.946.946 0 0 0 0-1.342l-8.05-8.051a.95.95 0 0 0-.673-.278" style="fill:url(#g);fill-opacity:1;stroke:gray;stroke-width:0;stroke-linecap:round;stroke-linejoin:round;stroke-miterlimit:4;stroke-dasharray:none;stroke-opacity:1"/><path d="M35 26a.95.95 0 0 0-.672.278l-8.05 8.05a.946.946 0 0 0 0 1.342l8.05 8.051a.95.95 0 0 0 1.344 0l8.05-8.05a.946.946 0 0 0 0-1.342l-8.05-8.051a.95.95 0 0 0-.673-.278" style="fill:url(#h);fill-opacity:1;stroke:gray;stroke-width:0;stroke-linecap:round;stroke-linejoin:round;stroke-miterlimit:4;stroke-dasharray:none;stroke-opacity:1"/><path d="M4.166 12.5a.93.93 0 0 0 .113 1.17l8.05 8.05a.95.95 0 0 0 1.343 0l8.049-8.05a.93.93 0 0 0 .113-1.17c-.037.057-.063.12-.113.17l-8.05 8.05a.95.95 0 0 1-1.343 0L4.28 12.67c-.05-.05-.076-.113-.113-.17m22 0a.93.93 0 0 0 .113 1.17l8.05 8.05a.95.95 0 0 0 1.343 0l8.049-8.05a.93.93 0 0 0 .113-1.17c-.037.057-.063.12-.113.17l-8.05 8.05a.95.95 0 0 1-1.343 0l-8.049-8.05c-.05-.05-.076-.113-.113-.17m-22 22a.93.93 0 0 0 .113 1.17l8.05 8.05a.95.95 0 0 0 1.343 0l8.049-8.05a.93.93 0 0 0 .113-1.17c-.037.057-.063.12-.113.17l-8.05 8.05a.95.95 0 0 1-1.343 0L4.28 34.67c-.05-.05-.076-.113-.113-.17m22 0a.93.93 0 0 0 .113 1.17l8.05 8.05a.95.95 0 0 0 1.343 0l8.049-8.05a.93.93 0 0 0 .113-1.17c-.037.057-.063.12-.113.17l-8.05 8.05a.95.95 0 0 1-1.343 0l-8.049-8.05c-.05-.05-.076-.113-.113-.17" style="fill:#000;fill-opacity:1;stroke:gray;stroke-width:0;stroke-linecap:round;stroke-linejoin:round;stroke-miterlimit:4;stroke-dasharray:none;stroke-opacity:1;opacity:.15"/></svg>