<svg xmlns="http://www.w3.org/2000/svg" xmlns:xlink="http://www.w3.org/1999/xlink" width="48" height="48"><defs><linearGradient id="c" x2="0" y1="541.8" y2="505.8" gradientTransform="translate(-384.57 -499.8)" gradientUnits="userSpaceOnUse"><stop stop-color="#bdc3c7"/><stop offset="1" stop-color="#eff0f1"/></linearGradient><linearGradient id="b" x2="0" y1="542.8" y2="504.8" gradientTransform="translate(-384.57 -499.8)" gradientUnits="userSpaceOnUse"><stop stop-color="#95a5a6"/><stop offset="1" stop-color="#8b9e9a"/></linearGradient><linearGradient id="f" x2="0" y1="20" y2="44" gradientTransform="translate(384.57 499.8)" gradientUnits="userSpaceOnUse"><stop stop-color="#eff0f1"/><stop offset="1" stop-color="#bdc3c7"/></linearGradient><linearGradient id="a" x1="10.327" x2="30.491" y1="10.17" y2="29.972" gradientUnits="userSpaceOnUse"><stop stop-color="#292c2f"/><stop offset="1" stop-opacity="0"/></linearGradient><linearGradient xlink:href="#a" id="e" x1="25" x2="41.05" y1="10.227" y2="26.733" gradientUnits="userSpaceOnUse"/><linearGradient id="g" x1="41" x2="5" y1="42" y2="10" gradientTransform="translate(384.57 499.8)" gradientUnits="userSpaceOnUse"><stop stop-color="#2e5d89"/><stop offset="1" stop-color="#1b92f4"/></linearGradient><linearGradient id="h" x1="41" x2="5" y1="42" y2="10" gradientTransform="translate(384.57 499.8)" gradientUnits="userSpaceOnUse"><stop stop-color="#06a370"/><stop offset="1" stop-color="#22d1b0"/></linearGradient></defs><g transform="translate(-384.57 -499.8)"><path fill="url(#b)" d="M7 5v25h34V5z" opacity=".5" transform="translate(384.57 499.8)"/><path fill="url(#c)" d="M8 6v24h32V6z" transform="translate(384.57 499.8)"/><g fill="#aeaeae"><path d="M394.57 513.8h2v1h-2zM397.57 513.8h3v1h-3zM401.57 513.8h5v1h-5zM394.57 515.8h4v1h-4zM399.57 515.8h2v1h-2zM394.57 519.8h2v1h-2zM397.57 519.8h3v1h-3zM394.57 521.8h2v1h-2zM397.57 521.8h5v1h-5zM403.57 521.8h3v1h-3zM394.57 525.8h6v1h-6zM401.57 525.8h3v1h-3zM394.57 527.8h5v1h-5zM400.57 527.8h5v1h-5zM409.57 513.8h2v1h-2zM412.57 513.8h3v1h-3zM416.57 513.8h5v1h-5zM409.57 515.8h4v1h-4zM414.57 515.8h2v1h-2zM409.57 519.8h2v1h-2zM409.57 521.8h2v1h-2zM412.57 521.8h5v1h-5zM418.57 521.8h3v1h-3zM409.57 525.8h6v1h-6zM409.57 527.8h5v1h-5zM415.57 527.8h5v1h-5z"/></g><path fill="url(#a)" d="M10 10v1.951c.649-1.119 9.259-1.321 12.957-1.951zm13 .043V12H10.049l17.863 18h13.09v-1.818z" opacity=".2" transform="translate(384.57 499.8)"/><path fill="url(#e)" d="M25 10v1.951l.479-1.018 6.188-.188 6.291-.746zm13 .043V12H25.049L41 28.07V13.06z" opacity=".2" transform="translate(384.57 499.8)"/><path fill="url(#f)" d="M388.57 529.8v14h40v-14z"/><rect width="40" height="1" x="388.57" y="542.8" fill="#95a5a6" rx="0"/><rect width="40" height="1" x="388.57" y="529.8" fill="#eff0f1" rx="0"/><g stroke-linejoin="bevel" stroke-width="2"><path fill="url(#g)" d="M394.57 509.8v2h13v-2zm21 22-7 4 7 4.04v-2.041h10v-4h-10z"/><path fill="url(#h)" d="M409.57 509.8v2h13v-2zm-8 24v2h-10v4h10v2.041l7-4.04z"/></g></g></svg>