<svg xmlns="http://www.w3.org/2000/svg" xmlns:xlink="http://www.w3.org/1999/xlink" width="48" height="48"><linearGradient xlink:href="#a" id="i" x2="0" y1="518.8" y2="526.8" gradientTransform="rotate(-45 -387.015 719.334)" gradientUnits="userSpaceOnUse"/><linearGradient id="e" x1="24" x2="24" y1="40" y2="8" gradientUnits="userSpaceOnUse"><stop offset="0" stop-color="#cfd5d5"/><stop offset="1" stop-color="#eff1f1"/></linearGradient><linearGradient id="a" x2="0" y1="518.8" y2="526.8" gradientTransform="translate(-484.55 133.21)" gradientUnits="userSpaceOnUse"><stop offset="0"/><stop offset="1" stop-opacity="0"/></linearGradient><linearGradient xlink:href="#a" id="l" x2="0" y1="518.8" y2="526.8" gradientTransform="rotate(-45 -400.305 713.839)" gradientUnits="userSpaceOnUse"/><linearGradient xlink:href="#a" id="f" x2="0" y1="518.8" y2="526.8" gradientTransform="rotate(-45 -394.805 700.561)" gradientUnits="userSpaceOnUse"/><linearGradient xlink:href="#a" id="s" x2="0" y1="518.8" y2="526.8" gradientTransform="rotate(-45 -373.753 724.84)" gradientUnits="userSpaceOnUse"/><linearGradient xlink:href="#a" id="u" x2="0" y1="518.8" y2="526.8" gradientTransform="rotate(-45 -379.242 738.117)" gradientUnits="userSpaceOnUse"/><linearGradient id="b" x1="406.57" x2="400.6" y1="521.8" y2="515.82" gradientTransform="translate(22 -11)" gradientUnits="userSpaceOnUse"><stop offset="0" stop-color="#197cf1"/><stop offset="1" stop-color="#21c9fb"/></linearGradient><linearGradient xlink:href="#b" id="x" x1="406.57" x2="400.6" y1="521.8" y2="515.82" gradientTransform="translate(-362.57 -499.8)" gradientUnits="userSpaceOnUse"/><linearGradient id="d" x1="406.57" x2="400.6" y1="521.8" y2="515.82" gradientTransform="translate(11)" gradientUnits="userSpaceOnUse"><stop offset="0" stop-color="#da4453"/><stop offset="1" stop-color="#ff7336"/></linearGradient><linearGradient xlink:href="#b" id="m" x1="406.57" x2="400.6" y1="521.8" y2="515.82" gradientTransform="translate(-373.57 -510.8)" gradientUnits="userSpaceOnUse"/><linearGradient xlink:href="#b" id="o" x1="406.57" x2="400.6" y1="521.8" y2="515.82" gradientTransform="translate(-384.57 -499.8)" gradientUnits="userSpaceOnUse"/><linearGradient xlink:href="#b" id="t" x1="406.57" x2="400.6" y1="521.8" y2="515.82" gradientTransform="translate(-373.57 -488.8)" gradientUnits="userSpaceOnUse"/><linearGradient xlink:href="#d" id="v" x1="406.57" x2="400.6" y1="521.8" y2="515.82" gradientTransform="translate(-384.57 -488.8)" gradientUnits="userSpaceOnUse"/><linearGradient xlink:href="#a" id="w" x1="137.98" x2="143.68" y1="806.11" y2="811.81" gradientTransform="translate(-384.545 -499.825)" gradientUnits="userSpaceOnUse"/><linearGradient xlink:href="#a" id="n" x2="0" y1="518.8" y2="526.8" gradientTransform="rotate(-45 -392.523 732.616)" gradientUnits="userSpaceOnUse"/><linearGradient xlink:href="#b" id="g" x1="406.57" x2="400.6" y1="521.8" y2="515.82" gradientTransform="translate(-362.57 -510.8)" gradientUnits="userSpaceOnUse"/><linearGradient xlink:href="#d" id="k" x1="406.57" x2="400.6" y1="521.8" y2="515.82" gradientTransform="translate(-373.57 -499.8)" gradientUnits="userSpaceOnUse"/><path fill="#909c9c" d="M7 7h34v34H7z"/><path fill="url(#e)" d="M8 8v10h10V8zm11 0v10h10V8zm11 0v10h10V8zM8 19v10h10V19zm11 0v10h10V19zm11.266 0a.265.265 0 0 0-.266.266v9.468c0 .147.119.268.266.268h9.468c.147 0 .268-.12.268-.268v-9.468a.267.267 0 0 0-.268-.266zM8 30v10h10V30zm11 0v10h10V30zm11 0v10h10V30z"/><path fill="#3daefd" fill-opacity=".914" d="M29.79 7 17.552 19.236 29.26 30.943 41 19.203V7zm.413 1H40v10.79L29.26 29.53 18.967 19.235z"/><g stroke-linejoin="round" stroke-width="3"><path fill="url(#f)" d="m41 7-2.975 2.975L41 12.95z" opacity=".2"/><circle cx="40.5" cy="7.5" r="3.5" fill="url(#g)"/><path fill="url(#i)" d="m27.025 20.975 4.95-4.95 6.364 6.364-4.95 4.95z" opacity=".2"/><circle cx="29.5" cy="18.5" r="3.5" fill="url(#k)"/><path fill="url(#l)" d="m30 7-2.975 2.975 6 6.03 5-4-5-5z" opacity=".2"/><circle cx="29.5" cy="7.5" r="3.5" fill="url(#m)"/><path fill="url(#n)" d="m16.027 20.977 4.95-4.95 6.364 6.364-4.95 4.95z" opacity=".2"/><circle cx="18.5" cy="18.5" r="3.5" fill="url(#o)"/><path fill="url(#s)" d="m27.023 31.973 4.95-4.95 6.363 6.364-4.95 4.95z" opacity=".2"/><circle cx="29.5" cy="29.5" r="3.5" fill="url(#t)"/><path fill="url(#u)" d="m16.02 31.973 4.95-4.95 6.364 6.364-4.95 4.95z" opacity=".2"/><circle cx="18.5" cy="29.5" r="3.5" fill="url(#v)"/><path fill="url(#w)" d="m41 18-2.975 2.975L41 23.95z" opacity=".2"/><circle cx="40.5" cy="18.5" r="3.5" fill="url(#x)"/></g></svg>