<svg xmlns="http://www.w3.org/2000/svg" width="48" height="48"><path d="M21.095 9.347c0-.21.042-.42.084-.631A16 16 0 0 1 24 8.463c.968-.042 1.895.084 2.821.253.042.21.084.42.084.631 0 1.6-1.305 2.906-2.905 2.906a2.91 2.91 0 0 1-2.905-2.906m21.852 20.8c.169.38.295.8.295 1.264v8.631A3.243 3.243 0 0 1 40 43.284H29.305A20 20 0 0 1 24 44C12.968 44 4 35.032 4 24S12.968 4 24 4s20 8.968 19.916 20.084a19.3 19.3 0 0 1-.969 6.063M24.042 42.611c.632 0 1.263-.043 1.895-.085-.716-.59-1.137-1.473-1.137-2.484v-.505c-.253.042-.547.042-.8.042-8.59 0-15.579-6.947-15.579-15.579A15.53 15.53 0 0 1 16 10.653c-.084.547-.168 1.052-.168 1.6a8.13 8.13 0 0 0 4.673 7.368V34.4L24 37.895l.8-.8V31.41c0-1.474 1.01-2.737 2.4-3.116v-1.39c0-1.137.295-2.19.758-3.158l-.674-.673.21-3.453c2.738-1.305 4.674-4.126 4.674-7.368 0-.548-.042-1.053-.168-1.6a15.66 15.66 0 0 1 7.537 12.252c.8 1.137 1.305 2.484 1.305 4v1.39c.421.126.8.337 1.137.59.421-1.559.674-3.2.674-4.885 0-10.274-8.38-18.653-18.653-18.653-10.274 0-18.653 8.38-18.653 18.653 0 10.274 8.38 18.653 18.695 18.61m17.98-11.158a2.336 2.336 0 0 0-2.317-2.316v-2.063a5.73 5.73 0 0 0-5.726-5.727c-3.158 0-5.726 2.569-5.726 5.685v2.063a2.336 2.336 0 0 0-2.316 2.316v8.294a2.336 2.336 0 0 0 2.316 2.316h11.452a2.336 2.336 0 0 0 2.316-2.316zM21.683 33.22h1.18V21.558h-1.18ZM34.021 24c-1.6 0-2.863 1.221-2.863 2.695v2.358h5.768v-2.358c0-1.474-1.305-2.695-2.905-2.695" style="color:#fff;stroke-width:.421053;fill-opacity:1;fill:currentColor"/></svg>