<svg xmlns="http://www.w3.org/2000/svg" width="48" height="48"><circle cx="24" cy="24" r="19.34" style="clip-rule:evenodd;fill:#fff;fill-rule:evenodd;stroke:#515151;stroke-width:1.31964;stroke-linecap:round;stroke-linejoin:round"/><linearGradient id="a" x1="50.269" x2="49.697" y1="-1470.94" y2="-1392.786" gradientTransform="matrix(.42135 0 0 -.42135 2.932 -580.269)" gradientUnits="userSpaceOnUse"><stop offset="0" style="stop-color:gray"/><stop offset="1" style="stop-color:#4b4b4d"/></linearGradient><path d="M26.823 8.705c.042.21.084.421.084.632A2.913 2.913 0 0 1 24 12.244a2.913 2.913 0 0 1-2.907-2.907c0-.21.042-.422.084-.632A16 16 0 0 1 24 8.452c.97-.042 1.896.084 2.823.253m-10.997 3.54a8.14 8.14 0 0 0 4.677 7.373v14.79L24 37.904l3.497-3.498-.21-3.075 1.643-1.644-1.643-1.643 2.486-2.486-2.486-2.486.21-3.455c2.739-1.306 4.677-4.13 4.677-7.374 0-.548-.042-1.053-.168-1.6A15.73 15.73 0 0 1 39.59 24c0 8.596-6.952 15.59-15.59 15.59-8.596 0-15.59-6.952-15.59-15.59a15.54 15.54 0 0 1 7.584-13.357c-.084.548-.168 1.053-.168 1.601m5.857 9.311h1.18v11.672h-1.18z" style="fill:url(#a);stroke-width:.421355"/><linearGradient id="b" x1="73.8" x2="73.8" y1="1532.138" y2="1574.004" gradientTransform="matrix(.42135 0 0 .42135 2.932 -622.358)" gradientUnits="userSpaceOnUse"><stop offset="0" style="stop-color:#d69029"/><stop offset="1" style="stop-color:#af7125"/></linearGradient><path d="M28.045 42.877a2.823 2.823 0 0 1-2.823-2.823v-8.638c0-1.39 1.053-2.57 2.402-2.781v-1.728a6.4 6.4 0 0 1 6.404-6.404 6.4 6.4 0 0 1 6.405 6.404v1.728c1.348.21 2.402 1.39 2.402 2.78v8.639a2.823 2.823 0 0 1-2.824 2.823zm8.47-14.242v-2.107a2.49 2.49 0 0 0-2.487-2.486c-1.39 0-2.444 1.096-2.444 2.486v2.107z" style="fill:url(#b);stroke-width:.421355"/><path d="M34.028 20.924c3.287 0 5.983 2.697 5.983 5.983v2.15c1.307 0 2.402 1.095 2.402 2.401v8.638c0 1.306-1.095 2.401-2.402 2.401H28.045c-1.306 0-2.402-1.095-2.402-2.401v-8.68c0-1.306 1.096-2.402 2.402-2.402v-2.149c0-3.244 2.697-5.94 5.983-5.94m-2.865 8.131h5.773v-2.528a2.913 2.913 0 0 0-2.908-2.907c-1.6 0-2.865 1.306-2.865 2.907zm2.865-8.975c-3.75 0-6.826 3.076-6.826 6.826v1.39c-1.39.38-2.401 1.644-2.401 3.119v8.638a3.246 3.246 0 0 0 3.244 3.244h11.966a3.246 3.246 0 0 0 3.245-3.244v-8.638c0-1.475-1.011-2.739-2.402-3.118v-1.39c0-3.75-3.076-6.827-6.826-6.827m-2.022 8.133v-1.686c0-1.138.927-2.065 2.064-2.065s2.065.927 2.065 2.065v1.686z" style="fill:#fff;stroke-width:.421355"/></svg>