<svg xmlns="http://www.w3.org/2000/svg" width="48" height="48"><path d="M24 44C12.968 44 4 35.032 4 24S12.968 4 24 4s20 8.968 20 20-8.968 20-20 20m0-38.653C13.726 5.347 5.347 13.727 5.347 24c0 10.274 8.38 18.653 18.653 18.653 10.274 0 18.653-8.38 18.653-18.653 0-10.274-8.38-18.653-18.653-18.653m2.821 3.369c.042.21.084.42.084.631 0 1.6-1.305 2.906-2.905 2.906a2.91 2.91 0 0 1-2.905-2.906c0-.21.042-.42.084-.631A16 16 0 0 1 24 8.463c.968-.042 1.895.084 2.821.253m-10.99 3.537a8.13 8.13 0 0 0 4.674 7.368V34.4L24 37.895l3.495-3.495-.21-3.074 1.641-1.642-1.642-1.642 2.484-2.484-2.484-2.484.21-3.453c2.738-1.305 4.674-4.126 4.674-7.368 0-.548-.042-1.053-.168-1.6A15.71 15.71 0 0 1 39.579 24c0 8.59-6.947 15.579-15.579 15.579-8.59 0-15.579-6.947-15.579-15.579A15.53 15.53 0 0 1 16 10.653c-.084.547-.168 1.052-.168 1.6m5.853 9.305h1.18V33.22h-1.18z" style="stroke-width:.421053"/></svg>