<svg xmlns="http://www.w3.org/2000/svg" width="48" height="48"><circle cx="24" cy="24" r="19.34" style="clip-rule:evenodd;fill:#fff;fill-rule:evenodd;stroke:#515151;stroke-width:1.31964;stroke-linecap:round;stroke-linejoin:round"/><linearGradient id="a" x1="50" x2="50" y1="-654.863" y2="-728.467" gradientTransform="matrix(.42135 0 0 -.42135 2.932 -267.624)" gradientUnits="userSpaceOnUse"><stop offset="0" style="stop-color:#35762e"/><stop offset="1" style="stop-color:#6daa43"/></linearGradient><path d="M26.823 8.705c.042.21.084.421.084.632A2.913 2.913 0 0 1 24 12.244a2.913 2.913 0 0 1-2.907-2.907c0-.21.042-.422.084-.632A16 16 0 0 1 24 8.452c.97-.042 1.896.084 2.823.253m-10.997 3.54a8.14 8.14 0 0 0 4.677 7.373v14.79L24 37.904l3.497-3.498-.21-3.075 1.643-1.644-1.643-1.643 2.486-2.486-2.486-2.486.21-3.455c2.739-1.306 4.677-4.13 4.677-7.374 0-.548-.042-1.053-.168-1.6A15.73 15.73 0 0 1 39.59 24c0 8.596-6.952 15.59-15.59 15.59-8.596 0-15.59-6.952-15.59-15.59a15.54 15.54 0 0 1 7.584-13.357c-.084.548-.168 1.053-.168 1.601m5.857 9.311h1.18v11.672h-1.18z" style="fill:url(#a);stroke-width:.421355"/></svg>