<svg xmlns="http://www.w3.org/2000/svg" xmlns:xlink="http://www.w3.org/1999/xlink" width="48" height="48"><defs><linearGradient id="a" x1="17.483" x2="37.758" y1="4.716" y2="39.833" gradientTransform="matrix(-.99376 -.00423 .00423 .98887 47.823 2.34)" gradientUnits="userSpaceOnUse"><stop stop-color="#3fc380"/><stop offset="1" stop-color="#3f8ed3"/></linearGradient><linearGradient xlink:href="#a" id="h" x1="17.483" x2="37.758" y1="4.716" y2="39.833" gradientTransform="matrix(-.99376 -.00423 .00423 .98887 47.823 31.34)" gradientUnits="userSpaceOnUse"/><linearGradient xlink:href="#a" id="i" x1="17.483" x2="37.758" y1="4.716" y2="39.833" gradientTransform="matrix(-.99376 -.00423 .00423 .98887 47.823 16.34)" gradientUnits="userSpaceOnUse"/><linearGradient id="c" x1="17.483" x2="37.758" y1="4.716" y2="39.833" gradientTransform="matrix(-.99376 -.0067 .00423 1.56572 47.823 12.372)" gradientUnits="userSpaceOnUse"><stop stop-color="#148e76"/><stop offset="1" stop-color="#218059"/></linearGradient><linearGradient id="b" x1="4" x2="43" y1="18" y2="31" gradientTransform="translate(0 -2)" gradientUnits="userSpaceOnUse"><stop stop-color="#292c2f"/><stop offset="1" stop-opacity="0"/></linearGradient><linearGradient xlink:href="#b" id="j" x1="4" x2="43" y1="18" y2="31" gradientTransform="translate(0 14)" gradientUnits="userSpaceOnUse"/><linearGradient xlink:href="#c" id="f" x1="17.483" x2="37.758" y1="4.716" y2="39.833" gradientTransform="matrix(.99376 .0067 -.00423 -1.56572 .177 35.628)" gradientUnits="userSpaceOnUse"/></defs><g stroke-linejoin="bevel" stroke-width="2"><path fill="url(#f)" d="M42 18H6l-2-2h40z"/><path fill="url(#c)" d="M6 30h36l2 2H4Z"/><path fill="url(#a)" d="M4 7c0-2 1-3 2.981-3h34.045C43 4 44 5 44 7v9H4Z"/><path fill="url(#h)" d="M4 32h40v9c0 2-1 3-2.908 3H7.052C5 44 4 43 4 41Z"/><path fill="url(#i)" d="M4 18h40v12H4Z"/></g><g fill-rule="evenodd"><path fill="url(#b)" d="m4 18 12 12h28V18z" opacity=".2"/><path fill="url(#j)" d="m4 32 12 12h28V32z" opacity=".2"/></g><path d="M5 43h38s-1 1-2 1H7c-1 0-2-1-2-1" opacity=".1"/></svg>