<svg xmlns="http://www.w3.org/2000/svg" width="48" height="48"><defs><linearGradient id="a" x2="0" y1="543.8" y2="503.8" gradientTransform="matrix(1.01818 0 0 1 -387.635 -499.8)" gradientUnits="userSpaceOnUse"><stop stop-color="#197cf1"/><stop offset="1" stop-color="#21c9fb"/></linearGradient><linearGradient id="c" x1="401.569" x2="408.569" y1="523.396" y2="531.129" gradientTransform="matrix(1.42857 0 0 1.42265 -543.67 -732.61)" gradientUnits="userSpaceOnUse"><stop stop-color="#292c2f"/><stop offset="1" stop-opacity="0"/></linearGradient><linearGradient id="d" x2="0" y1="532.79" y2="514.8" gradientTransform="translate(-384.57 -499.8)" gradientUnits="userSpaceOnUse"><stop stop-color="#7cbaf8"/><stop offset="1" stop-color="#f4fcff"/></linearGradient></defs><path d="M13 4c-.693 0-1.35.11-1.95.313a5.2 5.2 0 0 0-1.59.857c-.45.361-.815.79-1.067 1.27A3.3 3.3 0 0 0 8 8v32c0 .554.14 1.082.393 1.56.252.48.616.909 1.068 1.27.452.362.991.656 1.59.858A6.1 6.1 0 0 0 13 44h22c.693 0 1.35-.11 1.95-.313a5.2 5.2 0 0 0 1.59-.857c.45-.361.815-.79 1.067-1.27A3.3 3.3 0 0 0 40 40V14L30 4Z" style="fill:url(#a)"/><path d="M30 4v8c0 .554.335 1.055.877 1.416.542.362 1.292.584 2.123.584h7l-.766-.766-8.468-8.468Z" style="fill:#313437;fill-rule:evenodd"/><path d="m30 12 10 11v-9Z" style="opacity:.2;fill:url(#c);fill-rule:evenodd"/><path d="M21.998 14.998A6.996 6.996 0 0 0 15 21.994a6.996 6.996 0 0 0 6.997 6.996 7 7 0 0 0 4.183-1.4l5.407 5.408L33 31.585l-5.407-5.407a7 7 0 0 0 1.4-4.184 6.996 6.996 0 0 0-6.997-6.996m0 2a4.997 4.997 0 0 1 4.998 4.996 5 5 0 0 1-.026.5 5 5 0 0 1-.806 2.253 5 5 0 0 1-1.413 1.413 5 5 0 0 1-.38.227l-.05.029-.01.004a5 5 0 0 1-.443.205 5 5 0 0 1-.435.152l-.037.014-.006.002a5 5 0 0 1-.455.107l-.026.006h-.004a5 5 0 0 1-.366.051l-.149.02a5 5 0 0 1-.392.015A4.997 4.997 0 0 1 17 21.995a5 5 0 0 1 .025-.5 5 5 0 0 1 2.272-3.705 5 5 0 0 1 .888-.453 5 5 0 0 1 1.812-.34" style="fill:url(#d)"/></svg>