<svg xmlns="http://www.w3.org/2000/svg" xmlns:xlink="http://www.w3.org/1999/xlink" width="48" height="48"><defs><linearGradient id="e" x2="0" y1="543.8" y2="503.8" gradientTransform="matrix(1.01818 0 0 1 -3.065 0)" gradientUnits="userSpaceOnUse"><stop stop-color="#197cf1"/><stop offset="1" stop-color="#21c9fb"/></linearGradient><linearGradient id="a" x1="401.57" x2="408.57" y1="524.8" y2="531.8" gradientTransform="matrix(1.42857 0 0 1.42265 -159.1 -232.81)" gradientUnits="userSpaceOnUse"><stop stop-color="#292c2f"/><stop offset="1" stop-opacity="0"/></linearGradient><linearGradient xlink:href="#a" id="f" x1="9" x2="23" y1="9" y2="23" gradientTransform="translate(390.85 510.79)" gradientUnits="userSpaceOnUse"/><linearGradient id="c" x1="391.74" x2="409.4" gradientUnits="userSpaceOnUse"><stop stop-color="#7cbaf8"/><stop offset="1" stop-color="#f4fcff"/></linearGradient><linearGradient xlink:href="#c" id="g" x1="409.41" x2="391.57" y1="538.08" y2="523.62" gradientTransform="matrix(1.0014 0 0 1.01644 -.552 -8.643)" gradientUnits="userSpaceOnUse"/></defs><path fill="url(#e)" d="M392.57 503.8v40h32v-30l-10-10z" transform="translate(-384.57 -499.8)"/><g fill-rule="evenodd"><path fill="#313437" d="M40 14 30 4v10z"/><path fill="url(#a)" d="m414.57 513.8 10 9.959V513.8z" opacity=".2" transform="translate(-384.57 -499.8)"/><path fill="url(#f)" d="m402.57 517.8-6 14 12 12 16-17-5-6v4l-3 1-11.684-10z" opacity=".2" transform="translate(-384.57 -499.8)"/></g><g fill="url(#c)" transform="matrix(1.35913 0 0 1.32697 -520.43 -681.68)"><path fill="url(#g)" d="m395.03 532.9 2-5.748 1.806 5.748zm5.582 4.922h1.432l-4.182-12.06h-1.692l-4.426 12.06h1.432l1.416-3.815h4.719z"/><path d="M405.53 536.79c-.829 0-1.446-.406-1.446-1.381 0-1.219.731-1.609 3.201-1.934.016 0 .796-.114.796-.114v2.145c-.569.78-1.723 1.284-2.551 1.284m2.584-.114.195.959h1.089v-6.403c0-1.95-1.349-2.519-3.071-2.519-1.235 0-2.389.309-3.055.666l.374 1.04c.715-.341 1.755-.585 2.714-.585 1.202 0 1.723.553 1.723 1.609v.991l-.877.097c-2.243.325-4.452.634-4.452 2.925 0 1.625 1.219 2.372 2.649 2.372.91 0 1.95-.293 2.714-1.154"/></g></svg>