<svg xmlns="http://www.w3.org/2000/svg" xmlns:xlink="http://www.w3.org/1999/xlink" xml:space="preserve" width="128" height="128" overflow="visible" version="1.0" viewBox="0 0 126 111.715"><defs><linearGradient id="r"><stop offset="0" style="stop-color:black;stop-opacity:1"/><stop offset="1" style="stop-color:black;stop-opacity:0"/></linearGradient><linearGradient id="m"><stop offset="0" style="stop-color:#efefef;stop-opacity:1"/><stop offset=".5" style="stop-color:#f8f8f8;stop-opacity:1"/><stop offset="1" style="stop-color:#e0e0e0;stop-opacity:1"/></linearGradient><linearGradient id="q"><stop offset="0" style="stop-color:#5b5b5b;stop-opacity:1"/><stop offset="1" style="stop-color:#5b5b5b;stop-opacity:0"/></linearGradient><linearGradient id="p"><stop offset="0" style="stop-color:white;stop-opacity:1"/><stop offset="1" style="stop-color:white;stop-opacity:0"/></linearGradient><linearGradient id="b"><stop offset="0" style="stop-color:#e8e8e8;stop-opacity:1"/><stop offset="1" style="stop-color:#969696;stop-opacity:0"/></linearGradient><linearGradient id="c"><stop offset="0" style="stop-color:#545454;stop-opacity:1"/><stop offset="1" style="stop-color:#b1b1b1;stop-opacity:1"/></linearGradient><linearGradient id="a"><stop offset="0" style="stop-color:black;stop-opacity:1"/><stop offset="1" style="stop-color:black;stop-opacity:0"/></linearGradient><linearGradient id="g"><stop offset="0" style="stop-color:#9ca096;stop-opacity:1"/><stop offset="1" style="stop-color:#9ca096;stop-opacity:0"/></linearGradient><linearGradient id="e"><stop offset="0" style="stop-color:#686868;stop-opacity:1"/><stop offset="1" style="stop-color:#686868;stop-opacity:0"/></linearGradient><linearGradient id="f"><stop offset="0" style="stop-color:white;stop-opacity:1"/><stop offset="1" style="stop-color:white;stop-opacity:0"/></linearGradient><linearGradient id="h"><stop offset="0" style="stop-color:#040404;stop-opacity:0"/><stop offset=".65" style="stop-color:#040404;stop-opacity:0"/><stop offset="1" style="stop-color:#040404;stop-opacity:1"/></linearGradient><linearGradient id="i"><stop offset="0" style="stop-color:black;stop-opacity:1"/><stop offset="1" style="stop-color:black;stop-opacity:0"/></linearGradient><linearGradient id="j"><stop offset="0" style="stop-color:yellow;stop-opacity:1"/><stop offset="1" style="stop-color:#ffbf00;stop-opacity:1"/></linearGradient><linearGradient id="k"><stop offset="0" style="stop-color:#111;stop-opacity:1"/><stop offset="1" style="stop-color:#111;stop-opacity:0"/></linearGradient><linearGradient id="o"><stop offset="0" style="stop-color:#4b4b4b;stop-opacity:1"/><stop offset="1" style="stop-color:#676767;stop-opacity:1"/></linearGradient><linearGradient id="n"><stop offset="0" style="stop-color:black;stop-opacity:1"/><stop offset="1" style="stop-color:black;stop-opacity:0"/></linearGradient><linearGradient id="l"><stop offset="0" style="stop-color:white;stop-opacity:1"/><stop offset="1" style="stop-color:white;stop-opacity:0"/></linearGradient><linearGradient id="d"><stop offset="0" style="stop-color:#181818;stop-opacity:1"/><stop offset="1" style="stop-color:#181818;stop-opacity:0"/></linearGradient><linearGradient xlink:href="#a" id="L" x1="-198.056" x2="-196.285" y1="149.183" y2="150.366" gradientUnits="userSpaceOnUse"/><linearGradient xlink:href="#c" id="J" x1="-181.021" x2="-191.346" y1="150.43" y2="149.097" gradientUnits="userSpaceOnUse"/><linearGradient xlink:href="#d" id="H" x1="136.783" x2="265.988" y1="123.002" y2="158.501" gradientTransform="matrix(2.21212 .23455 -.11007 2.22564 -647.26 -222.144)" gradientUnits="userSpaceOnUse"/><linearGradient xlink:href="#e" id="G" x1="-207.73" x2="-210.99" y1="151.196" y2="141.259" gradientUnits="userSpaceOnUse"/><linearGradient xlink:href="#f" id="F" x1="-191.011" x2="-198.023" y1="131.611" y2="130.56" gradientUnits="userSpaceOnUse"/><linearGradient xlink:href="#g" id="E" x1="-197.688" x2="-189.48" y1="154.465" y2="153.72" gradientUnits="userSpaceOnUse"/><linearGradient xlink:href="#i" id="C" x1="-193.562" x2="-138.479" y1="146.25" y2="82.639" gradientTransform="translate(4.557 -5.96)" gradientUnits="userSpaceOnUse"/><linearGradient xlink:href="#i" id="A" x1="-193.562" x2="-113.723" y1="146.25" y2="137.984" gradientTransform="translate(4.557 -5.96)" gradientUnits="userSpaceOnUse"/><linearGradient xlink:href="#i" id="z" x1="-193.562" x2="-200.088" y1="146.25" y2="83.825" gradientTransform="translate(5.96 -6.31)" gradientUnits="userSpaceOnUse"/><linearGradient xlink:href="#d" id="y" x1="136.783" x2="265.988" y1="123.002" y2="158.501" gradientTransform="matrix(1.18048 .12506 -.05874 1.18667 -436.806 -45.563)" gradientUnits="userSpaceOnUse"/><linearGradient xlink:href="#j" id="x" x1="-216.491" x2="-112.975" y1="85.027" y2="146.009" gradientTransform="matrix(.98438 0 0 .98438 0 -7.143)" gradientUnits="userSpaceOnUse"/><linearGradient xlink:href="#k" id="w" x1="-212.589" x2="-210.876" y1="75.939" y2="83.824" gradientUnits="userSpaceOnUse"/><linearGradient xlink:href="#l" id="v" x1="-111.126" x2="172.671" y1="123.444" y2="157.157" gradientTransform="matrix(1 .12616 0 1 -102.628 7.338)" gradientUnits="userSpaceOnUse"/><linearGradient xlink:href="#m" id="t" x1="-214.734" x2="-152.392" y1="61.74" y2="165.793" gradientUnits="userSpaceOnUse"/><linearGradient xlink:href="#n" id="u" x1="-56.632" x2="-106.683" y1="146.441" y2="1.103" gradientTransform="matrix(1 .12616 0 1 -102.628 7.338)" gradientUnits="userSpaceOnUse"/><linearGradient xlink:href="#o" id="s" x1="-117.115" x2="-.161" y1="124.407" y2="124.407" gradientTransform="matrix(1 .12616 0 1 -102.628 7.338)" gradientUnits="userSpaceOnUse"/><linearGradient xlink:href="#r" id="N" x1="-224.773" x2="-211.834" y1="57.706" y2="94.691" gradientUnits="userSpaceOnUse"/><radialGradient xlink:href="#b" id="K" cx="-188.685" cy="127.572" r="17.433" fx="-188.5" fy="128.641" gradientTransform="matrix(2.35738 .00643 0 .39004 255.965 88.512)" gradientUnits="userSpaceOnUse"/><radialGradient xlink:href="#h" id="D" cx="-180.543" cy="171.752" r="13.297" fx="-174.055" fy="171.863" gradientTransform="matrix(-.50448 .66201 2.31769 1.76618 -696.145 -20.963)" gradientUnits="userSpaceOnUse"/><radialGradient xlink:href="#h" id="B" cx="-180.543" cy="171.752" r="13.297" fx="-174.055" fy="171.863" gradientTransform="matrix(.73168 .57855 -1.80736 2.28572 272.65 -128.648)" gradientUnits="userSpaceOnUse"/><radialGradient xlink:href="#p" id="M" cx="-193.253" cy="156.116" r="5.281" fx="-193.253" fy="156.116" gradientTransform="matrix(.86223 -.02017 .14452 6.11072 -47.085 -796.387)" gradientUnits="userSpaceOnUse"/><radialGradient xlink:href="#q" id="I" cx="-181.42" cy="159.111" r="16.293" fx="-181.42" fy="159.111" gradientTransform="matrix(1.30252 -.53946 .2108 .50336 21.887 -27.756)" gradientUnits="userSpaceOnUse"/></defs><path d="M-217.593 80.28c17.596-1.889 37.198-5.138 52.616-5.642l41.052-1.96 20.882 89.641-109.978 11.88-6.367-88.667c-.35-2.4.154-5.003 1.795-5.252z" style="fill:#fff;fill-opacity:1;fill-rule:evenodd;stroke:url(#s);stroke-width:.21321565;stroke-linecap:butt;stroke-linejoin:miter;stroke-miterlimit:4;stroke-dasharray:none;stroke-opacity:1" transform="matrix(.99447 0 0 1 227.439 -68.945)"/><path d="M-215.774 81.301c16.932-2.22 31.947-5.39 50.797-6.663l41.052-1.96 2.892 12.049 18.981 79.081-96.315 9.019-14.654 1.372-.996-13.88-5.37-74.787c-.502-4.901 1.857-6.376 3.613-4.23z" style="fill:url(#t);fill-opacity:1;fill-rule:evenodd;stroke:url(#u);stroke-width:.41063756;stroke-linecap:butt;stroke-linejoin:miter;stroke-miterlimit:4;stroke-dasharray:none;stroke-opacity:1" transform="matrix(.99447 0 0 1 227.439 -68.945)"/><path d="m-207.168 167.427 96.682-8.75-19.08-80.632-64.3 4.38-20.395 1.811c-.38 1.36-.098 2.895.02 4.41z" style="fill:url(#v);fill-opacity:1;fill-rule:evenodd;stroke:#000;stroke-width:.01398682;stroke-linecap:butt;stroke-linejoin:miter;stroke-miterlimit:4;stroke-dasharray:none;stroke-opacity:1" transform="matrix(.99447 0 0 1 227.439 -68.945)"/><path d="M-215.774 81.301c16.932-2.22 31.947-5.39 50.797-6.663l-54.41 10.894c-.502-4.901 1.857-6.376 3.613-4.23" style="fill:url(#w);fill-opacity:1;fill-rule:evenodd;stroke:none;stroke-width:.4095;stroke-linecap:butt;stroke-linejoin:miter;stroke-miterlimit:4;stroke-dasharray:none;stroke-opacity:1" transform="matrix(.99447 0 0 1 227.439 -68.945)"/><path d="m-207.168 167.427 96.682-8.75-19.08-80.632-64.3 4.38-20.395 1.811c-.38 1.36-.098 2.895.02 4.41z" style="fill:#2c72c7;fill-opacity:1;fill-rule:evenodd;stroke:none;stroke-width:.01394807;stroke-linecap:butt;stroke-linejoin:miter;stroke-miterlimit:4;stroke-dasharray:none;stroke-opacity:1" transform="matrix(.99447 0 0 1 227.439 -68.945)"/><path d="m-158.649 90.113-4.46 1.723 3.476 5.199 3.199-1.49 3.23 1.982 1.507-5.937-3.446.56zm-17.339 7.365-7.721.338-8.06 2.123-.707 4.553-4.184 3.507 2.8 6.306 3.137 2.46 6.307 2.8h3.875l1.046 3.507v4.891l3.846 3.168-.339 3.507-3.168 1.385-2.092-5.26-5.968-2.43-3.845 4.183 2.8 3.168 5.598 3.169 4.922 3.845-4.215 4.922-3.845 2.091 2.092 5.26 3.876-1.753 5.26.708-.707 2.43 2.46 3.507 4.553-1.754 1.754 1.077-1.077 3.845.339.77 56.755-5.138-9.382-39.62-.708-.186h-2.123l-1.384-.338-3.168-2.46h-3.138l-3.507-.708-3.876-1.754-4.552.708-4.553-1.754 1.753-3.845-5.968-3.168-4.214 1.415-4.184.338-9.812-7.014-3.507-2.799z" style="fill:url(#x);fill-opacity:1;fill-rule:evenodd;stroke:none;stroke-width:1px;stroke-linecap:butt;stroke-linejoin:miter;stroke-opacity:1" transform="matrix(.99447 0 0 1 227.439 -68.945)"/><path d="M-151.736 139.186c3.894 18.446-12.775 38.489-34.06 41.16-20.396 2.56-41.015-14.102-42.004-32.702-.99-18.6 12.955-34.755 34.36-36.686 21.404-1.93 37.758 9.533 41.704 28.228" style="fill:none;fill-opacity:1;fill-rule:nonzero;stroke:url(#y);stroke-width:1.46087182;stroke-linecap:round;stroke-linejoin:round;stroke-miterlimit:4;stroke-dasharray:none;stroke-dashoffset:4;stroke-opacity:1" transform="matrix(.99447 0 0 1 227.439 -68.945)"/><path d="m-190.372 143.038-7.072-60.33" style="fill:none;fill-opacity:.75;fill-rule:evenodd;stroke:url(#z);stroke-width:.41063756;stroke-linecap:butt;stroke-linejoin:miter;stroke-miterlimit:4;stroke-dasharray:none;stroke-opacity:1" transform="matrix(.99447 0 0 1 227.439 -68.945)"/><path d="M-221.026 145.868c.992 0 105.2-10.805 105.2-10.805" style="fill:none;fill-opacity:.75;fill-rule:evenodd;stroke:url(#A);stroke-width:.41063756;stroke-linecap:butt;stroke-linejoin:miter;stroke-miterlimit:4;stroke-dasharray:none;stroke-opacity:1" transform="matrix(.99447 0 0 1 227.439 -68.945)"/><path d="m-155.585 139.1-25.005 10.731-6.06 27.67 13.945-22.267-.694-.475z" style="opacity:.66393439;fill:url(#B);fill-opacity:1;fill-rule:evenodd;stroke:none;stroke-width:1px;stroke-linecap:butt;stroke-linejoin:miter;stroke-opacity:1" transform="matrix(.99447 0 0 1 227.439 -68.945)"/><path d="m-192.022 142.397 59.532-64.1" style="fill:none;fill-opacity:.75;fill-rule:evenodd;stroke:url(#C);stroke-width:.41063756;stroke-linecap:butt;stroke-linejoin:miter;stroke-miterlimit:4;stroke-dasharray:none;stroke-opacity:1" transform="matrix(.99447 0 0 1 227.439 -68.945)"/><path d="m-189.886 134.227 72.384-6.755" style="opacity:.11885244;fill:none;fill-opacity:.75;fill-rule:evenodd;stroke:#000;stroke-width:.1145047;stroke-linecap:butt;stroke-linejoin:miter;stroke-miterlimit:4;stroke-dasharray:none;stroke-opacity:1" transform="matrix(.99447 0 0 1 227.439 -68.945)"/><path d="m-214.806 148.042 15.924 2.895 9.815 19.994-2.248.108-13.937-12.975.56-.626-9.662-4.32z" style="opacity:.42213115;fill:url(#D);fill-opacity:1;fill-rule:evenodd;stroke:none;stroke-width:1px;stroke-linecap:butt;stroke-linejoin:miter;stroke-opacity:1" transform="matrix(.99447 0 0 1 227.439 -68.945)"/><path d="m-225.382 146.146 25.798 5.996 12.852 25.359 6.85-26.635 24.306-11.673-28.433-5.153-9.79-20.418-5.535 22.737z" style="fill:#cdcdcd;fill-opacity:1;fill-rule:evenodd;stroke:#0f0f0f;stroke-width:.13494109;stroke-linecap:butt;stroke-linejoin:miter;stroke-miterlimit:4;stroke-dasharray:none;stroke-opacity:1" transform="matrix(.99447 0 0 1 227.439 -68.945)"/><path d="m-199.557 152.082 9.09-15.521 3.791 40.629z" style="fill:url(#E);fill-opacity:1;fill-rule:evenodd;stroke:none;stroke-width:1px;stroke-linecap:butt;stroke-linejoin:miter;stroke-opacity:1" transform="matrix(.99447 0 0 1 227.439 -68.945)"/><path d="m-179.905 150.853-10.568-14.306 34.865 2.591z" style="fill:#9c9c9c;fill-opacity:1;fill-rule:evenodd;stroke:none;stroke-width:1px;stroke-linecap:butt;stroke-linejoin:miter;stroke-opacity:1" transform="matrix(.99447 0 0 1 227.439 -68.945)"/><path d="m-190.465 136.564-3.42-22.702-5.365 22.555z" style="fill:url(#F);fill-opacity:1;fill-rule:evenodd;stroke:none;stroke-width:1px;stroke-linecap:butt;stroke-linejoin:miter;stroke-opacity:1" transform="matrix(.99447 0 0 1 227.439 -68.945)"/><path d="m-199.55 152.104 9.082-15.543-34.525 9.584z" style="fill:url(#G);fill-opacity:1;fill-rule:evenodd;stroke:none;stroke-width:1px;stroke-linecap:butt;stroke-linejoin:miter;stroke-opacity:1" transform="matrix(.99447 0 0 1 227.439 -68.945)"/><path d="m-184.18 133.96-6.293 2.587 34.865 2.591z" style="fill:#d4d4d4;fill-opacity:1;fill-rule:evenodd;stroke:none;stroke-width:1px;stroke-linecap:butt;stroke-linejoin:miter;stroke-opacity:1" transform="matrix(.99447 0 0 1 227.439 -68.945)"/><path d="m-120.972 159.512-11.155-43.443M-137.705 161l-13.324-54.723M-154.438 162.735l-12.58-60.177M-170.55 158.273l-12.395-60.486M-193.605 104.975l1.487 11.156M-174.517 157.529l62.47-6.507M-180.467 121.089l50.819-5.02M-196.58 109.685l36.689-2.788" style="opacity:.11885244;fill:none;fill-opacity:.75;fill-rule:evenodd;stroke:#000;stroke-width:.1145047;stroke-linecap:butt;stroke-linejoin:miter;stroke-miterlimit:4;stroke-dasharray:none;stroke-opacity:1" transform="matrix(.99447 0 0 1 227.439 -68.945)"/><path d="m-167.682 80.498-5.814.43c25.58 3.508 45.215 18.375 54.233 40.637l-1.661-6.891c-9.36-17.62-25.89-29.789-46.758-34.176m-43.848 3.48-2.568.214-.219.735c1.48-.529 1.248-.504 2.787-.95m96.912 57.059c.279 4.77-.096 9.568-1.108 14.273l1.323.8a56 56 0 0 0 1.261-9.013z" style="fill:url(#H);fill-opacity:1;fill-rule:nonzero;stroke:none;stroke-width:1.45682478;stroke-linecap:round;stroke-linejoin:round;stroke-miterlimit:4;stroke-dasharray:none;stroke-dashoffset:4;stroke-opacity:1" transform="matrix(.99447 0 0 1 227.439 -68.945)"/><path d="m-180.065 150.918-8.441-11.793 32.898.013z" style="fill:url(#I);fill-opacity:1;fill-rule:evenodd;stroke:none;stroke-width:1px;stroke-linecap:butt;stroke-linejoin:miter;stroke-opacity:1" transform="matrix(.99447 0 0 1 227.439 -68.945)"/><path d="m-179.905 150.853-10.563-14.292 3.792 40.629z" style="fill:url(#J);fill-opacity:1;fill-rule:evenodd;stroke:none;stroke-width:1px;stroke-linecap:butt;stroke-linejoin:miter;stroke-opacity:1" transform="matrix(.99447 0 0 1 227.439 -68.945)"/><path d="m-182.331 148.113-8.142-11.566 34.865 2.591z" style="fill:url(#K);fill-opacity:1;fill-rule:evenodd;stroke:none;stroke-width:1px;stroke-linecap:butt;stroke-linejoin:miter;stroke-opacity:1;opacity:.70491803" transform="matrix(.99447 0 0 1 227.439 -68.945)"/><path d="M159.12 146.808h4.781v1.668h-4.781z" style="opacity:.63114756;fill:#000;fill-opacity:1;fill-rule:nonzero;stroke:#000;stroke-width:.11820844;stroke-linecap:round;stroke-linejoin:round;stroke-miterlimit:4;stroke-dasharray:none;stroke-dashoffset:4;stroke-opacity:1" transform="matrix(-.99105 .08289 .23476 .97174 227.439 -68.945)"/><path d="M154.342 146.808h4.781v1.668h-4.781z" style="opacity:.63114756;fill:#fff;fill-opacity:.3142857;fill-rule:nonzero;stroke:#000;stroke-width:.11820844;stroke-linecap:round;stroke-linejoin:round;stroke-miterlimit:4;stroke-dasharray:none;stroke-dashoffset:4;stroke-opacity:1" transform="matrix(-.99105 .08289 .23476 .97174 227.439 -68.945)"/><path d="M149.513 146.808h4.781v1.668h-4.781z" style="opacity:.63114756;fill:#000;fill-opacity:1;fill-rule:nonzero;stroke:#000;stroke-width:.11820844;stroke-linecap:round;stroke-linejoin:round;stroke-miterlimit:4;stroke-dasharray:none;stroke-dashoffset:4;stroke-opacity:1" transform="matrix(-.99105 .08289 .23476 .97174 227.439 -68.945)"/><path d="m-200.412 151.856 8.253-12.446-6.259 15.12-1.097-2.549z" style="opacity:.08196722;fill:url(#L);fill-opacity:1;fill-rule:evenodd;stroke:none;stroke-width:1px;stroke-linecap:butt;stroke-linejoin:miter;stroke-opacity:1" transform="matrix(.99447 0 0 1 227.439 -68.945)"/><path d="m-199.951 151.878 6.872-10.978-6.303 11.471-.133-.39z" style="opacity:.08196722;fill:#000;fill-opacity:.20816327;fill-rule:evenodd;stroke:none;stroke-width:1px;stroke-linecap:butt;stroke-linejoin:miter;stroke-opacity:1" transform="matrix(.99447 0 0 1 227.439 -68.945)"/><path d="m-184.299 150.295-6.169-13.734 3.792 40.629z" style="fill:url(#M);fill-opacity:1;fill-rule:evenodd;stroke:none;stroke-width:1px;stroke-linecap:butt;stroke-linejoin:miter;stroke-opacity:1" transform="matrix(.99447 0 0 1 227.439 -68.945)"/><path d="M-215.774 81.301c16.932-2.22 31.947-5.39 50.797-6.663l41.052-1.96 2.892 12.049 18.981 79.081-96.315 9.019-14.654 1.372-.996-13.88-5.37-74.787c-.502-4.901 1.857-6.376 3.613-4.23" style="fill:url(#N);fill-opacity:1;fill-rule:evenodd;stroke:none;stroke-width:.41063756;stroke-linecap:butt;stroke-linejoin:miter;stroke-miterlimit:4;stroke-dasharray:none;stroke-opacity:1;opacity:.75" transform="matrix(.99447 0 0 1 227.439 -68.945)"/></svg>