<svg xmlns="http://www.w3.org/2000/svg" xmlns:xlink="http://www.w3.org/1999/xlink" width="48" height="48"><defs><linearGradient id="b" x2="0" y1="543.8" y2="503.8" gradientTransform="translate(-817.14)" gradientUnits="userSpaceOnUse"><stop stop-color="#c6cdd1"/><stop offset="1" stop-color="#e0e5e7"/></linearGradient><linearGradient id="d" x1="402.57" x2="418.57" y1="520.8" y2="536.8" gradientUnits="userSpaceOnUse"><stop stop-color="#292c2f"/><stop offset="1" stop-opacity="0"/></linearGradient><linearGradient id="a" x2="0" y1="13" y2="33" gradientTransform="matrix(1 0 0 -1 384.57 547.8)" gradientUnits="userSpaceOnUse"><stop stop-color="#197cf1"/><stop offset="1" stop-color="#20bcfa"/></linearGradient><linearGradient xlink:href="#a" id="e" x2="0" y1="14" y2="33" gradientTransform="matrix(1 0 0 -1 384.57 543.8)" gradientUnits="userSpaceOnUse"/></defs><g transform="translate(-384.57 -499.8)"><rect width="40" height="40" x="-428.57" y="503.8" fill="url(#b)" rx="20" transform="scale(-1 1)"/><path fill="url(#d)" fill-rule="evenodd" d="M412.57 520.8h5l-9 9 .892 1.07-2.892 1.93-7 2 9 9c7-1 17.782-11.52 20-17l-16-16z" opacity=".2"/><g stroke-opacity=".55" stroke-width="2.8"><path fill="#99a1a7" d="M388.58 523.3c-.004.167-.012.332-.012.5 0 11.08 8.92 20 20 20s20-8.92 20-20c0-.168-.008-.333-.012-.5a19.953 19.953 0 0 1-19.988 19.5 19.95 19.95 0 0 1-19.988-19.5"/><path fill="url(#a)" d="m399.57 525.8 7 7h-7v2h18v-2h-7l7-7h-3l-6 6-6-6z"/><path fill="url(#e)" d="M404.57 510.8v10h-5l9 9 9-9h-5v-10z"/></g></g></svg>