<svg xmlns="http://www.w3.org/2000/svg" xmlns:xlink="http://www.w3.org/1999/xlink" xml:space="preserve" width="48" height="48"><defs><linearGradient id="c"><stop offset="0" style="stop-color:#aa87de;stop-opacity:1"/><stop offset="1" style="stop-color:#3485fd;stop-opacity:1"/></linearGradient><linearGradient xlink:href="#c" id="d" x1="24" x2="24" y1="45" y2="3" gradientUnits="userSpaceOnUse"/></defs><circle cx="24" cy="24" r="21" opacity=".99" style="fill:url(#d);fill-opacity:1;stroke-width:1.58695"/><path d="m34.326 9.815-15.193 3.161c-2.659.32-2.873 2.763-2.873 2.76v10.708a6 6 0 0 0-1.502-.2 6.005 6.005 0 0 0-6.008 6.003 6.005 6.005 0 0 0 11.963.75s.052-.545.052-.75v-15.06l12.016-2.594v8.85a6 6 0 0 0-1.502-.2 6.005 6.005 0 0 0-6.008 6.002c0 3.316-.314 4.502 3.004 4.502a6.006 6.006 0 0 0 5.955-5.252l.052-.75 3.004-1.754v-13.78s.02-2.928-2.96-2.396" style="opacity:.2;stroke-width:.750641"/><path d="m34.326 9.065-15.193 3.161c-2.659.32-2.873 2.763-2.873 2.76v10.708a6 6 0 0 0-1.502-.2 6.005 6.005 0 0 0-6.008 6.003 6.005 6.005 0 0 0 11.963.75s.052-.545.052-.75v-15.06l12.016-2.594v8.85a6 6 0 0 0-1.502-.2 6.005 6.005 0 0 0-6.008 6.002c0 3.316-.314 4.502 3.004 4.502a6.006 6.006 0 0 0 5.955-5.252l.052-.75 3.004-.715V11.46s.02-2.927-2.96-2.395" style="fill:#f8f2fd;fill-opacity:1;stroke-width:.750641"/><path d="M35.309 9.016a3.5 3.5 0 0 0-.983.05l-15.192 3.16c-2.659.32-2.875 2.764-2.874 2.76v.75c0 .004.215-2.44 2.874-2.76l15.192-3.163c2.981-.532 2.96 2.398 2.96 2.398v-.75s.016-2.24-1.977-2.445m-4.03 13.477a6.005 6.005 0 0 0-6.008 6.002c0 .129.03.25.038.376.197-3.137 2.78-5.628 5.97-5.628.506.003 1.011.07 1.501.2v-.751a6 6 0 0 0-1.501-.2m-16.521 3.001a6.005 6.005 0 0 0-6.008 6.003c0 .128.03.248.038.375.197-3.137 2.78-5.628 5.97-5.628.506.003 1.011.07 1.502.2v-.75a6 6 0 0 0-1.502-.2" style="opacity:.2;fill:#fff;stroke-width:1.50128"/><path d="M43.984 26.419c-1.878-3.249-9.507-2.28-11.183-1.346L19.143 32.95a1.497 1.497 0 0 0-.55 2.05l5.257 9.097a1.5 1.5 0 0 0 2.052.55l13.657-7.879c1.061-.635 6.301-7.1 4.424-10.35zm-2.602 1.5a1.502 1.5 0 0 1-.55 2.05 1.502 1.5 0 0 1-2.05-.549 1.502 1.5 0 0 1 .549-2.05 1.502 1.5 0 0 1 2.051.55z" style="fill:#f6d656;fill-opacity:1;stroke-width:1.5013"/><path d="M41.38 27.92a1.502 1.5 0 0 0-2.05-.55 1.502 1.5 0 0 0-.55 2.05 1.502 1.5 0 0 0 2.051.55 1.502 1.5 0 0 0 .55-2.05m-.65.375a.74.74 0 0 1-.274 1.025.74.74 0 0 1-1.026-.275.74.74 0 0 1 .275-1.025.74.74 0 0 1 1.026.275M20.645 35.55l.751 1.3 1.301-.751 3.004 5.198 1.3-.75-3.003-5.199 1.3-.75-.75-1.3-1.301.75-1.301.751zm5.203-3.002.75 1.3.752 1.3.75 1.3 1.502 2.598 1.301-.75-1.502-2.6 1.3-.75 1.503 2.6 1.3-.75-3.754-6.498-2.602 1.5zm5.202-3 .751 1.299 3.004 5.198 1.3-.75 2.602-1.501-.751-1.3-.376-.65.65-.375-.75-1.299-2.602 1.5.751 1.3.65-.375.376.65-1.3.75-2.253-3.899 2.601-1.5-.75-1.3-3.903 2.251zm-3.15 3.55 1.3-.75.75 1.299-1.3.75z" style="fill:#473a06;fill-opacity:1;stroke-width:1.5013"/><path d="M38.316 24.178c-2.352-.047-4.678.427-5.516.894L19.142 32.95a1.49 1.49 0 0 0-.7 1.66c.099-.37.34-.702.7-.91L32.8 25.822c1.677-.933 9.306-1.902 11.183 1.347.22.381.34.808.382 1.263.057-.74-.044-1.43-.382-2.014-.939-1.624-3.316-2.193-5.667-2.24z" style="opacity:.2;fill:#fff;stroke-width:.750607"/></svg>