<svg xmlns="http://www.w3.org/2000/svg" xml:space="preserve" width="128" height="128" style="overflow:visible"><g style="stroke:#000"><linearGradient id="a" x1="17.85" x2="111.731" y1="64.952" y2="64.952" gradientUnits="userSpaceOnUse"><stop offset="0" style="stop-color:#474747"/><stop offset="1" style="stop-color:#616161"/></linearGradient><path stroke="none" d="M111.73 3.967H14.85v121.97h99.88V3.967z" style="fill:url(#a);stroke:none"/><linearGradient id="b" x1="17.85" x2="111.731" y1="64.952" y2="64.952" gradientUnits="userSpaceOnUse"><stop offset="0" style="stop-color:#828282"/><stop offset="1" style="stop-color:#616161"/></linearGradient><path stroke="none" d="M111.73 122.938H17.85V6.967h93.88z" style="fill:url(#b);stroke:none"/><path stroke="none" d="M19.85 8.967v111.97h89.88V8.967z" style="fill:#fff;stroke:none"/><linearGradient id="c" x1="64.79" x2="64.79" y1="37.305" y2="138.791" gradientUnits="userSpaceOnUse"><stop offset="0" style="stop-color:#fff"/><stop offset="1" style="stop-color:#cecedb"/></linearGradient><path stroke="none" d="M22.85 42.467v75.47h83.88v-75.47z" style="fill:url(#c);stroke:none"/><linearGradient id="d" x1="76.172" x2="76.172" y1="76.33" y2="113.328" gradientUnits="userSpaceOnUse"><stop offset="0" style="stop-color:red"/><stop offset="1" style="stop-color:#7c0000"/></linearGradient><path stroke="none" d="M57.672 76.33v36.998H94.67V76.33zm33.709 33.711H60.962V79.619h30.419z" style="opacity:.6;fill:url(#d);stroke:none"/><linearGradient id="e" x1="66.382" x2="66.382" y1="34.545" y2="97.043" gradientUnits="userSpaceOnUse"><stop offset="0" style="stop-color:#57adff"/><stop offset="1" style="stop-color:#428aff"/></linearGradient><path stroke="none" d="M66.381 34.545c-17.258 0-31.248 13.99-31.248 31.248 0 17.26 13.99 31.25 31.248 31.25 17.26 0 31.25-13.99 31.25-31.25 0-17.257-13.99-31.248-31.25-31.248m0 59.293c-15.462 0-28.043-12.58-28.043-28.045 0-15.462 12.581-28.042 28.043-28.042s28.045 12.58 28.045 28.042c0 15.465-12.582 28.045-28.045 28.045" style="fill:url(#e);stroke:none"/><path stroke="none" d="M38.744 5.645a2.58 2.58 0 0 0-2.45 1.752 2.59 2.59 0 0 0 .877 2.888l85.194 65.2a2.57 2.57 0 0 0 2.717.264 2.56 2.56 0 0 0 1.441-2.318V8.23c0-.692-.27-1.342-.758-1.831a2.57 2.57 0 0 0-1.83-.755zm71.08 16.7-.002 22.511-29.414-22.511z" style="opacity:.2;stroke:none"/><path stroke="none" d="M37.598 3.354a2.58 2.58 0 0 0-2.45 1.752 2.59 2.59 0 0 0 .877 2.888l85.194 65.2a2.57 2.57 0 0 0 2.719.264 2.56 2.56 0 0 0 1.441-2.318V5.94a2.57 2.57 0 0 0-.76-1.831 2.57 2.57 0 0 0-1.83-.755h.002zm71.08 16.699v22.511L79.264 20.053z" style="opacity:.2;stroke:none"/><path stroke="none" d="M36.453 2.208a2.58 2.58 0 0 0-2.45 1.752 2.59 2.59 0 0 0 .876 2.888l85.193 65.199a2.57 2.57 0 0 0 2.719.264 2.56 2.56 0 0 0 1.441-2.316V4.793c0-.692-.27-1.343-.758-1.831a2.57 2.57 0 0 0-1.83-.755zm71.08 16.699-.002 22.512-29.414-22.512z" style="opacity:.2;stroke:none"/><linearGradient id="f" x1="79.106" x2="79.106" y1="-41.8" y2="110.124" gradientUnits="userSpaceOnUse"><stop offset="0" style="stop-color:#a20000"/><stop offset="1" style="stop-color:#ff6d00"/></linearGradient><path stroke="none" d="M36.453 1.062a2.58 2.58 0 0 0-2.45 1.752 2.59 2.59 0 0 0 .876 2.888L120.072 70.9a2.57 2.57 0 0 0 2.719.266 2.56 2.56 0 0 0 1.441-2.318v-65.2c0-.692-.27-1.342-.758-1.831a2.58 2.58 0 0 0-1.83-.755zm71.08 16.7-.002 22.511-29.414-22.511z" style="fill:url(#f);stroke:none"/><linearGradient id="g" x1="-185.014" x2="-99.822" y1="88.723" y2="88.723" gradientTransform="rotate(180 -31.685 62.485)" gradientUnits="userSpaceOnUse"><stop offset="0" style="stop-color:#ffc957"/><stop offset="1" style="stop-color:#ffe6b0"/></linearGradient><path stroke="none" d="M121.645 68.848v-65.2H36.453zm-11.526-23.339C96.623 35.184 87.65 28.315 70.48 15.176c19.02 0 30.361-.002 39.639 0 .002 8.829 0 16.391 0 30.333" style="fill:url(#g);stroke:none"/><g style="opacity:.5"><path stroke="none" d="M121.645 68.848v-65.2H36.453zm-1.44-2.916c-4.207-3.219-73.444-56.209-79.498-60.845l79.498.001zm-8.646-17.504V13.733H66.227zm-1.44-2.919C96.623 35.184 87.65 28.315 70.48 15.176c19.02 0 30.361-.002 39.639 0 .002 8.829 0 16.391 0 30.333" style="fill:#fff;stroke:none"/></g><path stroke="none" d="m36.453 4.647 85.192 65.2v-2.883L40.217 4.647z" style="fill:#ff6;stroke:none"/><path stroke="none" d="M121.645 69.848v-2.883l-1.439-1.102v1.068c-4.207-3.219-73.444-56.209-79.498-60.845l1.395.001-1.885-1.44h-3.764z" style="opacity:.5;fill:#fff;stroke:none"/><path stroke="none" d="M65.725 34.202c-16.606 5.338-19.614 6.305-20.255 6.831l.082-.133L5.351 77.008c-2.138 1.928.164 6.438 3.207 9.816 3.007 3.348 7.25 6.123 9.453 4.307l40.241-36.288.044-.246 8.09-17.361 1.088-3.533z" style="opacity:.2;stroke:none"/><path stroke="none" d="M64.59 33.451c-16.606 5.337-19.614 6.304-20.256 6.831l.083-.133L4.216 76.254c-2.138 1.93.164 6.441 3.207 9.818 3.008 3.348 7.25 6.123 9.453 4.307l40.24-36.288.044-.245 8.089-17.361 1.089-3.533z" style="opacity:.2;stroke:none"/><path stroke="none" d="M63.455 32.699c-16.606 5.338-19.614 6.304-20.256 6.832l.083-.134L3.081 75.504c-2.138 1.928.165 6.439 3.207 9.816 3.007 3.348 7.25 6.123 9.453 4.307l40.24-36.287.044-.246 8.089-17.361 1.088-3.533z" style="opacity:.2;stroke:none"/><path stroke="none" d="M62.678 32.857c-16.606 5.338-19.613 6.304-20.254 6.832l.083-.134L2.304 75.66c-2.138 1.93.165 6.441 3.208 9.818 3.007 3.348 7.25 6.123 9.454 4.307l40.24-36.288.044-.246 8.089-17.361 1.087-3.533z" style="fill:#fff;stroke:none"/><linearGradient id="h" x1="9.052" x2="64.882" y1="73.323" y2="41.237" gradientTransform="rotate(-11.478 34.395 52.78)" gradientUnits="userSpaceOnUse"><stop offset="0" style="stop-color:#cf0000"/><stop offset="1" style="stop-color:#7c0000"/></linearGradient><path stroke="none" d="M62.678 32.857c-16.606 5.338-19.613 6.304-20.254 6.832l.083-.134L2.304 75.66c-2.138 1.93.165 6.441 3.208 9.818 3.007 3.348 7.25 6.123 9.454 4.307l40.24-36.288.044-.246 8.089-17.361 1.087-3.533z" style="fill:url(#h);stroke:none"/><linearGradient id="i" x1="306.675" x2="316.296" y1="-174.391" y2="-164.769" gradientTransform="scale(1 -1)rotate(-87.507 230.435 24.897)" gradientUnits="userSpaceOnUse"><stop offset="0" style="stop-color:#f8f1dc"/><stop offset="1" style="stop-color:#d6a84a"/></linearGradient><path stroke="none" d="m43.559 41.803 17.526-6.308-8.229 16.718-.069-.076a1.3 1.3 0 0 1-.146.322l.055.056-38.415 34.616-.047-.057c-1.145 1.033-4.18-.475-6.781-3.359-2.598-2.887-3.778-6.059-2.635-7.09L43.23 42.016z" style="fill:url(#i);stroke:none"/><linearGradient id="j" x1="324.881" x2="329.996" y1="-197.214" y2="-203.31" gradientTransform="scale(1 -1)rotate(-87.507 230.435 24.897)" gradientUnits="userSpaceOnUse"><stop offset="0" style="stop-color:#ffc957"/><stop offset="1" style="stop-color:#ffae00"/></linearGradient><path stroke="none" d="M7.452 83.715c-2.598-2.887-3.778-6.059-2.635-7.09l8.655-7.797 12.177-.529.36 8.262-11.728 10.57-.047-.057c-1.145 1.033-4.18-.474-6.782-3.359" style="fill:url(#j);stroke:none"/><linearGradient id="k" x1="295.024" x2="316.454" y1="-215.617" y2="-168.04" gradientTransform="scale(1 -1)rotate(-87.507 230.435 24.897)" gradientUnits="userSpaceOnUse"><stop offset="0" style="stop-color:#ff9200"/><stop offset=".775" style="stop-color:#ffae00"/><stop offset="1" style="stop-color:#ff6d00"/></linearGradient><path stroke="none" d="M13.977 87.258c.815-.797.357-2.756-1.008-4.893a16.5 16.5 0 0 0-1.649-2.15 17 17 0 0 0-1.867-1.779c-2.017-1.645-3.973-2.34-4.866-1.598l-.011-.012 38.667-34.85c1.04-.293 2.987.27 4.761 1.725a16.5 16.5 0 0 1 1.808 1.733c.66.729 1.23 1.479 1.69 2.209 1.381 2.18 1.93 4.276 1.058 5.063-.202.181-1.074.965-1.106.985L14.077 87.367z" style="fill:url(#k);stroke:none"/><linearGradient id="l" x1="63.631" x2="55.843" y1="44.088" y2="44.088" gradientTransform="rotate(-11.478 34.395 52.78)" gradientUnits="userSpaceOnUse"><stop offset="0" style="stop-color:#7c0000"/><stop offset="1" style="stop-color:#633"/></linearGradient><path stroke="none" d="m53.348 38.334 7.411-2.637-3.115 6.34s-.055-.936-1.395-2.288c-1.766-1.791-2.901-1.415-2.901-1.415" style="opacity:.8;fill:url(#l);stroke:none"/><path stroke="none" d="M47.829 43.571 9.62 78.576c-.055-.045-.111-.098-.167-.141-.806-.656-1.604-1.158-2.325-1.482l38.017-34.828c.839.254 1.778.735 2.684 1.446" style="opacity:.5;fill:#fff;stroke:none"/><path stroke="none" d="M9.453 78.436a14 14 0 0 0-1.058-.779l38.141-34.941a9 9 0 0 1 1.468.986c.412.341.83.721 1.24 1.132L11 79.871a17 17 0 0 0-1.547-1.435" style="opacity:.5;fill:#fff;stroke:none"/><path stroke="none" d="M128 128H0V0h128z" style="fill:none;stroke:none"/></g></svg>