<svg xmlns="http://www.w3.org/2000/svg" xmlns:xlink="http://www.w3.org/1999/xlink" width="48" height="48"><defs><linearGradient xlink:href="#a" id="d" x1="24" x2="24" y1="45" y2="3" gradientUnits="userSpaceOnUse"/><linearGradient xlink:href="#a" id="c" x1="-15.504" x2="-15.504" y1="43.99" y2="1.99" gradientTransform="matrix(1.03333 0 0 1 40.02 1.01)" gradientUnits="userSpaceOnUse"/><linearGradient xlink:href="#b" id="g" x1="38" x2="92" y1="3" y2="57" gradientTransform="matrix(3.70291 0 0 1 -108.117 0)" gradientUnits="userSpaceOnUse"/></defs><linearGradient id="a" x1="-3.01" x2="-29.01" y1="42.995" y2="7.995" gradientTransform="matrix(1.03333 0 0 1 40.02 1.01)" gradientUnits="userSpaceOnUse"><stop offset="0" stop-color="#317ac2"/><stop offset="1" stop-color="#36a5e6"/></linearGradient><linearGradient id="f" x1="9" x2="9" y1="5" y2="43" gradientUnits="userSpaceOnUse"><stop offset="0" stop-color="#505791"/><stop offset="1" stop-color="#2b3057"/></linearGradient><linearGradient id="b" x1="38" x2="92" y1="3" y2="57" gradientTransform="matrix(3.70291 0 0 1 -68.117 0)" gradientUnits="userSpaceOnUse"><stop offset="0" stop-color="#232629"/><stop offset="1" stop-color="#292c2f" stop-opacity="0"/></linearGradient><path d="M9 3v5.318l.002 31.371V45h25.68c.736 0 1.437-.148 2.074-.416a5.3 5.3 0 0 0 1.69-1.139c.48-.48.87-1.052 1.138-1.69A5.3 5.3 0 0 0 40 39.685v-.002L39.998 8.31a5.3 5.3 0 0 0-.414-2.066 5.3 5.3 0 0 0-1.139-1.69 5.3 5.3 0 0 0-1.69-1.138A5.3 5.3 0 0 0 34.683 3H14.318Z" style="fill:url(#c);stroke-width:.203306"/><path d="M10 4v40h23.682c.736 0 1.437-.148 2.074-.416a5.3 5.3 0 0 0 1.69-1.139c.48-.48.87-1.052 1.138-1.69A5.3 5.3 0 0 0 39 38.683V9.318c0-.736-.148-1.437-.416-2.074a5.3 5.3 0 0 0-1.139-1.69 5.3 5.3 0 0 0-1.69-1.138A5.3 5.3 0 0 0 33.683 4H15.318Z" style="fill:#fff;stroke-width:.191899"/><path d="M9 3v42h23.682c.736 0 1.437-.148 2.074-.416a5.3 5.3 0 0 0 1.69-1.139c.48-.48.87-1.052 1.138-1.69A5.3 5.3 0 0 0 38 39.683V8.318c0-.736-.148-1.437-.416-2.074a5.3 5.3 0 0 0-1.139-1.69 5.3 5.3 0 0 0-1.69-1.138A5.3 5.3 0 0 0 32.683 3H14.318Z" style="fill:url(#d);stroke-width:.196638"/><text x="-27.931" y="19.716">
    
  </text><text x="-49.243" y="15.716">
    
  </text><path fill="#eff0f1" d="M12 15v18h3.395v-7.97L22.928 33h4.191v-.205l-8.664-9.078 7.996-8.613V15h-4.217l-6.84 7.611V15zm19.586.012c-2.388.142-3.588 1.63-3.588 3.847 0 2.458 1.66 4.024 3.963 4.024 2.426 0 4.039-1.551 4.039-4.162 0-1.152-.4-2.458-1.229-3.256l-1.183 1.197c.445.43.707 1.336.707 2.027 0 1.321-.675 2.135-1.611 2.258v-5.912a7 7 0 0 0-1.098-.023m-.455 1.82v4.084c-.983-.276-1.473-1.106-1.473-2.12 0-1.074.49-1.841 1.473-1.964m-6.067 7.363v1.86h10.737v-1.86zm1.03 3.385c-1.46 0-1.46 2.213 0 2.213s1.459-2.213 0-2.213m2.105.17v1.873h7.602V27.75z"/><path fill="url(#f)" d="M7 5v38h3v-2H9v-1h1v-2H9v-1h1v-2H9v-1h1v-2H9v-1h1v-2H9v-1h1v-2H9v-1h1v-2H9v-1h1v-2H9v-1h1v-2H9v-1h1v-2H9v-1h1v-2H9v-1h1V8H9V7h1V5z"/><path d="M32.682 45h2c.736 0 1.437-.148 2.074-.416a5.3 5.3 0 0 0 1.69-1.139c.48-.48.87-1.052 1.138-1.69A5.3 5.3 0 0 0 40 39.685v-.002L39.998 8.31a5.3 5.3 0 0 0-.414-2.066 5.3 5.3 0 0 0-1.117-1.658l-3.295-.89c.455.245.91.496 1.273.859.48.48.87 1.052 1.139 1.69.268.636.416 1.337.416 2.073v31.364c0 .736-.148 1.437-.416 2.074a5.3 5.3 0 0 1-1.139 1.69c-.48.48-1.052.87-1.69 1.138a5.3 5.3 0 0 1-2.073.416" style="opacity:.4;fill:url(#g);stroke-width:1.92429543"/></svg>