<svg xmlns="http://www.w3.org/2000/svg" xmlns:xlink="http://www.w3.org/1999/xlink" width="48" height="48" version="1"><defs><linearGradient id="a"><stop offset="0" style="stop-color:#29a883;stop-opacity:1"/><stop offset="1" style="stop-color:#3485fd;stop-opacity:1"/></linearGradient><linearGradient xlink:href="#a" id="d" x1="-44" x2="-4" y1="-4" y2="-44" gradientTransform="matrix(1.05 0 0 1.05 1.2 1.2)" gradientUnits="userSpaceOnUse"/><linearGradient xlink:href="#b" id="e" x1="162.525" x2="219.203" y1="45.557" y2="101.693" gradientTransform="matrix(.53072 0 0 .58612 -77.604 -18.097)" gradientUnits="userSpaceOnUse"/><linearGradient id="b"><stop offset="0" style="stop-color:#aa87de;stop-opacity:1"/><stop offset="1" style="stop-color:#6babfe;stop-opacity:1"/></linearGradient><linearGradient id="f" x1="36.537" x2="36.537" y1="83.691" y2="119.072" gradientTransform="matrix(1.54638 0 0 .64667 -76 -55)" gradientUnits="userSpaceOnUse"><stop offset="0%" stop-opacity=".8"/><stop offset="99.472%" stop-opacity=".531"/></linearGradient><linearGradient xlink:href="#c" id="g" x1="37.873" x2="90.797" y1="129.582" y2="129.582" gradientTransform="matrix(.38463 0 0 .40062 -1.09 -11.913)" gradientUnits="userSpaceOnUse"/><linearGradient id="c"><stop offset="0" style="stop-color:#f1df66;stop-opacity:1"/><stop offset="1" style="stop-color:#cfa20f;stop-opacity:1"/></linearGradient></defs><rect width="42" height="42" x="-45" y="-45" rx="21" ry="21" style="fill:url(#d);fill-opacity:1;stroke-width:1.05" transform="scale(1 -1)rotate(90)"/><path d="M3.012 23.475C3.008 23.65 3 23.824 3 24c0 11.634 9.366 21 21 21s21-9.366 21-21c0-.176-.008-.35-.013-.525A20.95 20.95 0 0 1 24 43.95 20.95 20.95 0 0 1 3.013 23.475Z" style="opacity:.15;stroke-width:1.05"/><rect width="42.457" height="42.201" x="2.817" y="3.01" rx="21.229" ry="21.1" style="opacity:.984;fill:url(#e);fill-opacity:1;stroke:none;stroke-width:1.11546;stroke-linecap:round;stroke-miterlimit:4;stroke-dasharray:none;stroke-opacity:1"/><path d="M-42-28.17h1.678c.414 0 .79.168 1.06.44.272.27.44.646.44 1.06v1.432c0 .415-.168.79-.44 1.061-.27.271-.646.44-1.06.44H-42c-.414 0-.79-.169-1.06-.44a1.5 1.5 0 0 1-.44-1.06v-1.433c0-.414.168-.79.44-1.06.27-.272.646-.44 1.06-.44zm-1.5 18.853v-12.02c0-.414.168-.789.44-1.06.27-.272.646-.44 1.06-.44h1.678c.414 0 .79.168 1.06.44.272.271.44.646.44 1.06v12.02c0 .414-.168.79-.44 1.06-.27.272-.646.44-1.06.44H-42c-.414 0-.79-.168-1.06-.44a1.5 1.5 0 0 1-.44-1.06Zm21.344-7.713v7.713c0 .414-.168.79-.44 1.06-.271.272-.646.44-1.06.44h-1.678c-.414 0-.79-.168-1.06-.44a1.5 1.5 0 0 1-.44-1.06v-6.155c0-1.425-.06-2.351-.207-2.77a1.57 1.57 0 0 0-.58-.793c-.275-.192-.606-.28-.99-.28q-.797 0-1.43.438a2.17 2.17 0 0 0-.85 1.143c-.179.553-.257 1.577-.257 3.067v5.35c0 .414-.168.79-.44 1.06-.27.272-.646.44-1.06.44h-1.678c-.414 0-.79-.168-1.06-.44a1.5 1.5 0 0 1-.44-1.06v-12.02c0-.414.168-.789.44-1.06.27-.272.646-.44 1.06-.44h1.416a1.495 1.495 0 0 1 1.484 1.281c1.154-1.068 2.521-1.597 4.097-1.597q1.327 0 2.426.484c.762.334 1.333.767 1.723 1.286a4.6 4.6 0 0 1 .808 1.745c.141.607.216 1.476.216 2.608zm8.092 7.713a1.495 1.495 0 0 1-1.5 1.5h-1.677c-.415 0-.79-.168-1.061-.44a1.5 1.5 0 0 1-.44-1.06v-9.602h-1.448l-.68-3.289 2.129-.521v-.664c0-1.27.146-2.213.413-2.837.29-.676.815-1.234 1.594-1.66.73-.4 1.653-.61 2.772-.61q1.87 0 3.65.641l-.682 3.547a7.1 7.1 0 0 0-2.077-.337c-.347 0-.621.045-.778.216-.177.192-.215.58-.215 1.106l2.156.49.686 3.318-2.842.517zm4.179-10.017q.975-1.864 2.761-2.847 1.763-.97 3.938-.972c2.251 0 4.092.744 5.528 2.216 1.434 1.47 2.158 3.325 2.158 5.57 0 2.264-.73 4.136-2.177 5.623C.871-8.25-.955-7.5-3.159-7.5a8.5 8.5 0 0 1-3.87-.925 6.44 6.44 0 0 1-2.853-2.764c-.637-1.187-.963-2.63-.963-4.336q0-1.967.96-3.809zm3.81 4.007c0 1.24.269 2.201.856 2.864q.829.939 2.047.94 1.215-.001 2.039-.94c.583-.663.85-1.634.85-2.89 0-1.223-.268-2.176-.85-2.838q-.824-.939-2.04-.94-1.217.002-2.046.941c-.587.663-.856 1.624-.856 2.863z" style="fill:#000;fill-opacity:.6;fill-rule:nonzero;stroke:#000;stroke-width:1;stroke-opacity:.05" transform="matrix(.53072 0 0 .55278 34.98 23.928)"/><path d="M-40 19a1.5 1.5 0 0 1 0 3h-5.5a1.5 1.5 0 0 1 0-3zm12.5 0a1.5 1.5 0 0 1 0 3h-3a1.5 1.5 0 0 1 0-3zm23 0a1.5 1.5 0 0 1 0 3h-18a1.5 1.5 0 0 1 0-3zm-31-5a1.5 1.5 0 0 1 0 3h-10a1.5 1.5 0 0 1 0-3zm19 0a1.5 1.5 0 0 1 0 3h-14a1.5 1.5 0 0 1 0-3zm18 0a1.5 1.5 0 0 1 0 3h-13a1.5 1.5 0 0 1 0-3zm-39-5a1.5 1.5 0 0 1 0 3h-8a1.5 1.5 0 0 1 0-3zm32 0a1.5 1.5 0 0 1 0 3h-25a1.5 1.5 0 0 1 0-3zm-35-5a1.5 1.5 0 0 1 0 3h-5a1.5 1.5 0 0 1 0-3zm17 0a1.5 1.5 0 0 1 0 3h-7a1.5 1.5 0 0 1 0-3zm20 0a1.5 1.5 0 0 1 0 3h-15a1.5 1.5 0 0 1 0-3zm10 0a1.5 1.5 0 0 1 0 3h-5a1.5 1.5 0 0 1 0-3zm-44-5a1.5 1.5 0 0 1 0 3h-8a1.5 1.5 0 0 1 0-3zm21 0a1.5 1.5 0 0 1 0 3h-14a1.5 1.5 0 0 1 0-3zm16 0a1.5 1.5 0 0 1 0 3h-11a1.5 1.5 0 0 1 0-3z" style="opacity:1;fill:url(#f);fill-rule:evenodd;stroke:none;stroke-width:1" transform="matrix(.53072 0 0 .55278 34.98 23.928)"/><path d="M14.123 38.157c-.357 0-.645.3-.645.672v2.342c0 .373.288.672.645.672h.664c.357 0 .645-.3.645-.672V38.83a.66.66 0 0 0-.645-.672zm3.067 0c-.358 0-.645.3-.645.672v2.342c0 .373.287.672.645.672h.664c.357 0 .645-.3.645-.672V38.83a.66.66 0 0 0-.645-.672zm3.067 0c-.357 0-.645.3-.645.672v2.342c0 .373.288.672.645.672h.664c.358 0 .646-.3.646-.672V38.83a.66.66 0 0 0-.646-.672zm3.067 0c-.357 0-.646.3-.646.672v2.342c0 .373.289.672.646.672h.664c.357 0 .645-.3.645-.672V38.83a.66.66 0 0 0-.645-.672zm3.067 0c-.358 0-.645.3-.645.672v2.342c0 .373.287.672.645.672h.664c.358 0 .645-.3.645-.672V38.83a.66.66 0 0 0-.645-.672zm3.067 0c-.357 0-.645.3-.645.672v2.342c0 .373.288.672.645.672h.664c.357 0 .646-.3.646-.672V38.83a.66.66 0 0 0-.646-.672zm3.067 0c-.357 0-.646.3-.646.672v2.342c0 .373.289.672.646.672h.664c.357 0 .645-.3.645-.672V38.83a.66.66 0 0 0-.645-.672z" style="fill:url(#g);fill-opacity:1;stroke:none;stroke-width:.785091;stroke-linecap:round;stroke-miterlimit:4;stroke-dasharray:none;stroke-opacity:1"/><path d="M14.123 38.156c-.357 0-.645.3-.645.673v.422c0-.372.288-.672.645-.672h.664c.357 0 .645.3.645.672v-.422a.66.66 0 0 0-.645-.673zm3.067 0c-.358 0-.645.3-.645.673v.422c0-.372.287-.672.645-.672h.664c.357 0 .645.3.645.672v-.422a.66.66 0 0 0-.645-.673zm3.067 0c-.357 0-.645.3-.645.673v.422c0-.372.288-.672.645-.672h.664c.358 0 .646.3.646.672v-.422a.66.66 0 0 0-.646-.673zm3.067 0c-.357 0-.646.3-.646.673v.422c0-.372.289-.672.646-.672h.664c.357 0 .645.3.645.672v-.422a.66.66 0 0 0-.645-.673zm3.067 0c-.358 0-.645.3-.645.673v.422c0-.372.287-.672.645-.672h.664c.358 0 .645.3.645.672v-.422a.66.66 0 0 0-.645-.673zm3.067 0c-.357 0-.645.3-.645.673v.422c0-.372.288-.672.645-.672h.664c.357 0 .646.3.646.672v-.422a.66.66 0 0 0-.646-.673zm3.067 0c-.357 0-.646.3-.646.673v.422c0-.372.289-.672.646-.672h.664c.357 0 .645.3.645.672v-.422a.66.66 0 0 0-.645-.673z" style="fill:#453734;fill-opacity:.556738;stroke:none;stroke-width:.785091;stroke-linecap:round;stroke-miterlimit:4;stroke-dasharray:none;stroke-opacity:1"/></svg>