<svg xmlns="http://www.w3.org/2000/svg" xmlns:xlink="http://www.w3.org/1999/xlink" width="48" height="48"><defs><linearGradient id="f" x1="409.57" x2="420.57" y1="532.8" y2="543.8" gradientTransform="translate(-2 -2.999)" gradientUnits="userSpaceOnUse"><stop stop-opacity=".314"/><stop offset="1" stop-opacity="0"/></linearGradient><linearGradient id="a" x2="0" y1="531.8" y2="507.82" gradientTransform="matrix(1 0 0 1.33561 -.003 -168.45)" gradientUnits="userSpaceOnUse"><stop stop-color="#2a2c2f"/><stop offset="1" stop-color="#424649"/></linearGradient><linearGradient id="b" x2="0" y1="577.8" y2="541.8" gradientTransform="matrix(1.50001 0 0 1 -588.86 -533.81)" gradientUnits="userSpaceOnUse"><stop stop-color="#c6cdd1"/><stop offset="1" stop-color="#e0e5e7"/></linearGradient><path id="e" fill="#feb70d" stroke-linejoin="bevel" d="m410.57 528.8-1.996-10h12z"/></defs><g stroke-linejoin="round" stroke-width="2"><path fill="url(#a)" d="M387.57 508.8h41.999v34H387.57Z" transform="translate(-384.57 -499.8)"/><path fill="url(#b)" d="M2 11v30c0 2 1 3 3.077 3H42.9c2.1 0 3.1-1 3.1-3V11c0-2-1-3-3.243-3H4.955C3 8 2 9 2 11m2-1h40v32H4Z"/></g><g transform="translate(-384.57 -502.8)"><g transform="translate(-14 9.999)"><path fill="#6af804" fill-rule="evenodd" d="m410.57 528.8 4.14-5.64 5.86-4.36 2 10z"/><use xlink:href="#e" width="100%" height="100%"/></g><path fill="#fff" fill-opacity=".353" d="m396.58 538.8-2-10h12l1.994 10z"/><g transform="translate(-7 4.999)"><path fill="#6af804" fill-rule="evenodd" d="m410.57 528.8 3.751-6.06 6.249-3.936 2 10z"/><use xlink:href="#e" width="100%" height="100%"/></g><g fill-rule="evenodd"><path fill="url(#f)" d="M415.56 533.8h-11.982l4.984 5h-11.99v-.002l-.004.002 8 8h26v-18l-9.992-9.992 1.992 9.992H410.57Z"/><path fill="#6af804" d="m410.57 528.8 4.627-5.577 5.373-4.423 2 10z"/></g><use xlink:href="#e" width="100%" height="100%"/><path fill-opacity=".353" d="m410.57 528.8-1.996-10h12l1.994 10z"/></g></svg>