<svg xmlns="http://www.w3.org/2000/svg" width="48" height="48"><defs><linearGradient id="a" x2="0" y1="531.8" y2="507.82" gradientTransform="matrix(1 0 0 1.33561 -.003 -168.45)" gradientUnits="userSpaceOnUse"><stop stop-color="#2a2c2f"/><stop offset="1" stop-color="#424649"/></linearGradient><linearGradient id="c" x2="0" y1="577.8" y2="541.8" gradientTransform="matrix(1.50001 0 0 1 -588.86 -533.81)" gradientUnits="userSpaceOnUse"><stop stop-color="#c6cdd1"/><stop offset="1" stop-color="#e0e5e7"/></linearGradient><linearGradient id="d" x1="409.57" x2="420.57" y1="532.8" y2="543.8" gradientTransform="translate(-73.5 -28.75)" gradientUnits="userSpaceOnUse"><stop stop-opacity=".314"/><stop offset="1" stop-opacity="0"/></linearGradient><linearGradient id="e" x2="0" y1="541.8" y2="521.8" gradientTransform="translate(-71.5 -28.75)" gradientUnits="userSpaceOnUse"><stop stop-color="#ad7200"/><stop offset=".252" stop-color="#ad7200"/><stop offset=".35" stop-color="#b38d42"/><stop offset=".45" stop-color="#a3cc6c"/><stop offset=".55" stop-color="#00d1fa"/><stop offset=".754" stop-color="#1999ff"/><stop offset="1" stop-color="#1799ff"/></linearGradient></defs><g stroke-linejoin="round" stroke-width="2"><path fill="url(#a)" d="M387.57 508.8h41.999v34H387.57Z" transform="translate(-384.57 -499.8)"/><path fill="url(#c)" d="M2 11v30c0 2 1 3 2.971 3h37.906C45 44 46 43 46 41V11c0-2-1-3-2.968-3H4.912C3 8 2 9 2 11m2-1h40v32H4Z"/></g><path fill="url(#d)" fill-rule="evenodd" d="m333.08 498.04-1-.992-7.993 16v-.002l-.004.002 8 8h26.994v-19l-8.996-9-8 5-1-1z" transform="translate(-313.07 -477.05)"/><g stroke-linejoin="bevel" transform="translate(-313.07 -477.05)"><path fill="url(#e)" d="M324.08 493.05v19.996l8-3.996v-12c-2.334-1.333-5.667-2.668-8-4m26 0-8 4v12h.008l7.992 4zm-17 4v12h8v-12z"/><circle cx="347.08" cy="498.05" r="1" fill="#ffbd36" fill-rule="evenodd"/></g></svg>