<svg xmlns="http://www.w3.org/2000/svg" xmlns:xlink="http://www.w3.org/1999/xlink" width="48" height="48" viewBox="0 0 12.7 12.7"><linearGradient id="a"><stop offset="0"/><stop offset="1" stop-opacity="0"/></linearGradient><linearGradient xlink:href="#a" id="b" x1="7.408" x2="11.642" y1="4.763" y2="8.996" gradientUnits="userSpaceOnUse"/><linearGradient xlink:href="#a" id="c" x1="5.292" x2="8.731" y1="5.027" y2="8.467" gradientUnits="userSpaceOnUse"/><path fill="#f2f1ed" d="M1.058 6.35v4.763c0 .293.236.529.53.529h9.524c.294 0 .53-.236.53-.53V6.35z"/><path fill="#cbcac4" d="M1.587 1.058a.53.53 0 0 0-.529.53V6.35h10.584V1.588a.53.53 0 0 0-.53-.53z"/><g fill-rule="evenodd"><path fill="#f2f1ed" d="M3.685 2.117h1.607l-.53 4.233H3.176z"/><path fill="#cbcac4" d="M4.762 6.35H3.175l.53 4.233H5.31z"/><path fill="#5a5a5a" d="m5.292 2.117-.53 4.233.549 4.233.51-4.233zM9.525 2.117 6.35 6.35l3.175 4.233L7.408 6.35z"/><path fill="#cbcac4" d="M1.077 10.98a.528.528 0 0 0 .51.661h9.526a.528.528 0 0 0 .51-.66.526.526 0 0 1-.51.396H1.588a.526.526 0 0 1-.511-.397"/></g><path fill="url(#b)" d="m9.525 2.117 2.117 2.116v7.144h-1.323l-.794-.794L7.408 6.35z" opacity=".2"/><path fill="url(#c)" d="m5.292 2.117 1.587 1.587-.794 2.646 1.852 4.233.794.794H6.085l-.793-.794.529-4.233z" opacity=".2"/><g fill-rule="evenodd"><path fill="#f2f1ed" d="M7.934 2.117h1.591L6.35 6.35H4.762z"/><path fill="#cbcac4" d="M6.35 6.35H4.763l3.174 4.233h1.588z"/></g></svg>