<svg xmlns="http://www.w3.org/2000/svg" xmlns:xlink="http://www.w3.org/1999/xlink" width="48" height="48"><defs><linearGradient id="d"><stop offset="0" style="stop-color:#fff;stop-opacity:0"/><stop offset="1" style="stop-color:#fff;stop-opacity:1"/></linearGradient><linearGradient id="c"><stop offset="0" style="stop-color:#eff1f1;stop-opacity:1"/><stop offset="1" style="stop-color:#ececec;stop-opacity:1"/></linearGradient><linearGradient id="b"><stop offset="0" style="stop-color:#000;stop-opacity:0"/><stop offset="1" style="stop-color:#000;stop-opacity:1"/></linearGradient><linearGradient id="a"><stop offset="0" style="stop-color:#e22828;stop-opacity:1"/><stop offset="1" style="stop-color:#e05e4c;stop-opacity:1"/></linearGradient><linearGradient xlink:href="#a" id="e" x1="35" x2="19" y1="44" y2="3" gradientUnits="userSpaceOnUse"/><linearGradient xlink:href="#b" id="f" x1="-17" x2="-7" y1="12" y2="12" gradientUnits="userSpaceOnUse"/><linearGradient xlink:href="#d" id="h" x1="-17" x2="-7" y1="12" y2="12" gradientTransform="translate(24)" gradientUnits="userSpaceOnUse"/><linearGradient xlink:href="#b" id="i" x1="-17" x2="-7" y1="12" y2="12" gradientTransform="translate(-12 12)" gradientUnits="userSpaceOnUse"/><linearGradient xlink:href="#d" id="k" x1="-17" x2="-7" y1="12" y2="12" gradientTransform="translate(36 12)" gradientUnits="userSpaceOnUse"/><linearGradient xlink:href="#b" id="l" x1="-17" x2="-7" y1="12" y2="12" gradientTransform="translate(-24 24)" gradientUnits="userSpaceOnUse"/><linearGradient xlink:href="#d" id="n" x1="-17" x2="-7" y1="12" y2="12" gradientTransform="translate(48 24)" gradientUnits="userSpaceOnUse"/><radialGradient xlink:href="#c" id="g" cx="-12" cy="12" r="4" fx="-12" fy="12" gradientUnits="userSpaceOnUse"/><radialGradient xlink:href="#c" id="j" cx="-12" cy="12" r="4" fx="-12" fy="12" gradientTransform="translate(-12 12)" gradientUnits="userSpaceOnUse"/><radialGradient xlink:href="#c" id="m" cx="-12" cy="12" r="4" fx="-12" fy="12" gradientTransform="translate(-24 24)" gradientUnits="userSpaceOnUse"/></defs><rect width="40" height="40" x="4" y="4" rx="2" ry="2" style="opacity:1;fill:url(#e);fill-opacity:1;stroke:none;stroke-width:2;stroke-linecap:round;stroke-linejoin:round;stroke-miterlimit:4;stroke-dasharray:none;stroke-opacity:1"/><path d="M4 41v1c0 1.108.892 2 2 2h36c1.108 0 2-.892 2-2v-1c0 1.108-.892 2-2 2H6c-1.108 0-2-.892-2-2" style="opacity:.15;fill:#000;fill-opacity:1;stroke:none;stroke-width:2;stroke-linecap:round;stroke-linejoin:round;stroke-miterlimit:4;stroke-dasharray:none;stroke-opacity:1"/><rect width="8" height="8" x="-16" y="8" rx="4" ry="4" style="opacity:.1;fill:none;fill-opacity:1;stroke:url(#f);stroke-width:2;stroke-miterlimit:4;stroke-dasharray:none;stroke-opacity:1" transform="rotate(-90)"/><rect width="8" height="8" x="-16" y="8" rx="4" ry="4" style="fill:url(#g);fill-opacity:1;stroke:none" transform="rotate(-90)"/><rect width="8" height="8" x="8" y="8" rx="4" ry="4" style="opacity:.1;fill:none;fill-opacity:1;stroke:url(#h);stroke-width:2;stroke-miterlimit:4;stroke-dasharray:none;stroke-opacity:1" transform="matrix(0 1 1 0 0 0)"/><rect width="8" height="8" x="-28" y="20" rx="4" ry="4" style="opacity:.1;fill:none;fill-opacity:1;stroke:url(#i);stroke-width:2;stroke-miterlimit:4;stroke-dasharray:none;stroke-opacity:1" transform="rotate(-90)"/><rect width="8" height="8" x="-28" y="20" rx="4" ry="4" style="fill:url(#j);fill-opacity:1;stroke:none" transform="rotate(-90)"/><rect width="8" height="8" x="20" y="20" rx="4" ry="4" style="opacity:.1;fill:none;fill-opacity:1;stroke:url(#k);stroke-width:2;stroke-miterlimit:4;stroke-dasharray:none;stroke-opacity:1" transform="matrix(0 1 1 0 0 0)"/><rect width="8" height="8" x="-40" y="32" rx="4" ry="4" style="opacity:.1;fill:none;fill-opacity:1;stroke:url(#l);stroke-width:2;stroke-miterlimit:4;stroke-dasharray:none;stroke-opacity:1" transform="rotate(-90)"/><rect width="8" height="8" x="-40" y="32" rx="4" ry="4" style="fill:url(#m);fill-opacity:1;stroke:none" transform="rotate(-90)"/><rect width="8" height="8" x="32" y="32" rx="4" ry="4" style="opacity:.1;fill:none;fill-opacity:1;stroke:url(#n);stroke-width:2;stroke-miterlimit:4;stroke-dasharray:none;stroke-opacity:1" transform="matrix(0 1 1 0 0 0)"/></svg>