<svg xmlns="http://www.w3.org/2000/svg" xmlns:xlink="http://www.w3.org/1999/xlink" xml:space="preserve" width="128" height="128" style="overflow:visible" version="1.0" viewBox="15.584 -296.356 480 347.304"><defs><filter id="i"><feGaussianBlur stdDeviation="8.345"/></filter><filter id="an" width="21.532" height="2.518" x="-10.266" y="-.759"><feGaussianBlur stdDeviation="3.764"/></filter><filter id="am" width="4.098" height="5.566" x="-1.549" y="-2.283"><feGaussianBlur stdDeviation="3.764"/></filter><filter id="al" width="2.171" height="1.703" x="-.586" y="-.352"><feGaussianBlur stdDeviation="3.764"/></filter><filter id="ak" width="1.618" height="1.478" x="-.309" y="-.239"><feGaussianBlur stdDeviation="3.764"/></filter><filter id="aj" width="2.183" height="7.605" x="-.592" y="-3.302"><feGaussianBlur stdDeviation="3.764"/></filter><filter id="ai"><feGaussianBlur stdDeviation="3.764"/></filter><filter id="ah" width="2.924" height="1.378" x="-.962" y="-.189"><feGaussianBlur stdDeviation="3.764"/></filter><filter id="ag" width="1.185" height="1.221" x="-.092" y="-.111"><feGaussianBlur stdDeviation="3.764"/></filter><filter id="af" width="3.055" height="1.863" x="-1.027" y="-.431"><feGaussianBlur stdDeviation="3.764"/></filter><filter id="ae" width="1.133" height="1.509" x="-.067" y="-.254"><feGaussianBlur stdDeviation="3.764"/></filter><filter id="ad" width="2.826" height="2.235" x="-.913" y="-.617"><feGaussianBlur stdDeviation="3.764"/></filter><filter id="ac" width="1.114" height="1.694" x="-.057" y="-.347"><feGaussianBlur stdDeviation="3.764"/></filter><filter id="ab" width="1.292" height="1.773" x="-.146" y="-.387"><feGaussianBlur stdDeviation="3.764"/></filter><filter id="aa" width="1.215" height="1.619" x="-.108" y="-.309"><feGaussianBlur stdDeviation="3.764"/></filter><filter id="Z" width="1.456" height="1.912" x="-.228" y="-.456"><feGaussianBlur stdDeviation="3.764"/></filter><filter id="Y" width="1.077" height="1.272" x="-.038" y="-.136"><feGaussianBlur stdDeviation="3.764"/></filter><filter id="X" width="1.75" height="1.377" x="-.375" y="-.189"><feGaussianBlur stdDeviation="3.764"/></filter><filter id="W" width="3.096" height="3.276" x="-1.048" y="-1.138"><feGaussianBlur stdDeviation="3.764"/></filter><filter id="V" width="1.283" height="1.484" x="-.142" y="-.242"><feGaussianBlur stdDeviation="3.764"/></filter><filter id="U" width="1.536" height="1.655" x="-.268" y="-.328"><feGaussianBlur stdDeviation="3.764"/></filter><filter id="T" width="1.342" height="1.407" x="-.171" y="-.203"><feGaussianBlur stdDeviation="3.764"/></filter><filter id="S" width="1.46" height="1.416" x="-.23" y="-.208"><feGaussianBlur stdDeviation="3.764"/></filter><filter id="R" width="2.353" height="2.492" x="-.676" y="-.746"><feGaussianBlur stdDeviation="3.764"/></filter><filter id="Q"><feGaussianBlur stdDeviation="3.764"/></filter><filter id="P" width="2.272" height="1.79" x="-.636" y="-.395"><feGaussianBlur stdDeviation="3.764"/></filter><filter id="O" width="4.413" height="1.8" x="-1.707" y="-.4"><feGaussianBlur stdDeviation="3.764"/></filter><filter id="N" width="1.879" height="2.126" x="-.44" y="-.563"><feGaussianBlur stdDeviation="3.764"/></filter><filter id="M" width="1.398" height="1.305" x="-.199" y="-.153"><feGaussianBlur stdDeviation="3.764"/></filter><filter id="L" width="2.765" height="1.876" x="-.882" y="-.438"><feGaussianBlur stdDeviation="3.764"/></filter><filter id="K" width="1.254" height="1.121" x="-.127" y="-.06"><feGaussianBlur stdDeviation="3.764"/></filter><filter id="J" width="3.886" height="4.295" x="-1.443" y="-1.648"><feGaussianBlur stdDeviation="3.764"/></filter><filter id="I" width="1.754" height="2.169" x="-.377" y="-.584"><feGaussianBlur stdDeviation="3.764"/></filter><filter id="H" width="3.734" height="3.169" x="-1.367" y="-1.085"><feGaussianBlur stdDeviation="3.764"/></filter><filter id="G"><feGaussianBlur stdDeviation="3.764"/></filter><filter id="F" width="2.071" height="1.951" x="-.535" y="-.475"><feGaussianBlur stdDeviation="3.764"/></filter><filter id="E" width="2.435" height="1.646" x="-.717" y="-.323"><feGaussianBlur stdDeviation="3.764"/></filter><filter id="D" width="1.371" height="1.236" x="-.186" y="-.118"><feGaussianBlur stdDeviation="3.764"/></filter><filter id="C" width="4.019" height="4.43" x="-1.51" y="-1.715"><feGaussianBlur stdDeviation="3.764"/></filter><filter id="B" width="2.505" height="2.17" x="-.753" y="-.585"><feGaussianBlur stdDeviation="3.764"/></filter><filter id="A" width="1.857" height="1.8" x="-.428" y="-.4"><feGaussianBlur stdDeviation="3.764"/></filter><filter id="z" width="1.215" height="1.114" x="-.107" y="-.057"><feGaussianBlur stdDeviation="3.764"/></filter><filter id="y" width="1.908" height="2.37" x="-.454" y="-.685"><feGaussianBlur stdDeviation="3.764"/></filter><filter id="x" width="3.042" height="4.99" x="-1.021" y="-1.995"><feGaussianBlur stdDeviation="3.764"/></filter><filter id="w" width="1.398" height="1.618" x="-.199" y="-.309"><feGaussianBlur stdDeviation="3.764"/></filter><filter id="v" width="1.314" height="1.513" x="-.157" y="-.256"><feGaussianBlur stdDeviation="3.764"/></filter><filter id="u" width="1.737" height="2.471" x="-.369" y="-.735"><feGaussianBlur stdDeviation="3.764"/></filter><filter id="t" width="1.153" height="1.423" x="-.077" y="-.211"><feGaussianBlur stdDeviation="3.764"/></filter><filter id="s"><feGaussianBlur stdDeviation="3.764"/></filter><filter id="r" width="3.702" height="5.75" x="-1.351" y="-2.375"><feGaussianBlur stdDeviation="3.764"/></filter><filter id="q" width="1.367" height="1.3" x="-.183" y="-.15"><feGaussianBlur stdDeviation="3.764"/></filter><filter id="p"><feGaussianBlur stdDeviation="3.764"/></filter><filter id="o" width="1.277" height="1.184" x="-.138" y="-.092"><feGaussianBlur stdDeviation="3.764"/></filter><filter id="n" width="1.219" height="1.164" x="-.11" y="-.082"><feGaussianBlur stdDeviation="3.764"/></filter><filter id="m"><feGaussianBlur stdDeviation="3.764"/></filter><filter id="l"><feGaussianBlur stdDeviation="3.764"/></filter><linearGradient id="g"><stop offset="0" style="stop-color:#000;stop-opacity:1"/><stop offset=".5" style="stop-color:#000;stop-opacity:1"/><stop offset="1" style="stop-color:#000;stop-opacity:0"/></linearGradient><linearGradient id="c"><stop offset="0" style="stop-color:#f70000;stop-opacity:1"/><stop offset="1" style="stop-color:#7c0000;stop-opacity:1"/></linearGradient><linearGradient id="b"><stop offset="0" style="stop-color:#a7a7a7;stop-opacity:1"/><stop offset=".5" style="stop-color:#fff;stop-opacity:1"/><stop offset=".541" style="stop-color:#adadad;stop-opacity:1"/><stop offset=".73" style="stop-color:#f0f0f0;stop-opacity:1"/><stop offset="1" style="stop-color:#dcdcdc;stop-opacity:1"/></linearGradient><linearGradient xlink:href="#c" id="ao" x1="330.878" x2="167.349" y1="-114.175" y2="-172.998" gradientTransform="translate(0 14.118)" gradientUnits="userSpaceOnUse"/><linearGradient xlink:href="#c" id="e" x1="330.878" x2="167.349" y1="-114.175" y2="-172.998" gradientTransform="translate(-534.118 14.118)" gradientUnits="userSpaceOnUse"/><linearGradient xlink:href="#c" id="f" x1="330.878" x2="167.349" y1="-114.175" y2="-172.998" gradientTransform="translate(0 14.118)" gradientUnits="userSpaceOnUse"/><clipPath id="k" clipPathUnits="userSpaceOnUse"><use xlink:href="#d" width="480" height="347.304" transform="matrix(1 0 0 1.0366 -534.118 3.103)"/></clipPath><clipPath id="aq" clipPathUnits="userSpaceOnUse"><path d="M-173.828-150.94c0 68.426-61.046 121.177-120.588 121.177-51.304 0-87.647-37.445-87.647-95.294 0-51.303 47.497-125.294 115.882-125.294 59.542 0 92.353 48.108 92.353 99.412" style="opacity:.8921933;fill:url(#e);fill-opacity:1;stroke:none;stroke-width:.1;stroke-linecap:round;stroke-linejoin:round;stroke-miterlimit:4;stroke-dashoffset:1.08779998;stroke-opacity:1"/></clipPath><clipPath id="ap" clipPathUnits="userSpaceOnUse"><path d="M360.29-150.94c0 68.426-61.047 121.177-120.588 121.177-51.304 0-87.647-37.445-87.647-95.294 0-51.303 47.497-125.294 115.882-125.294 59.542 0 92.353 48.108 92.353 99.412" style="opacity:.8921933;fill:url(#f);fill-opacity:1;stroke:none;stroke-width:.1;stroke-linecap:round;stroke-linejoin:round;stroke-miterlimit:4;stroke-dashoffset:1.08779998;stroke-opacity:1"/></clipPath><radialGradient xlink:href="#b" id="j" cx="81.471" cy="-347.542" r="240" fx="81.471" fy="-347.542" gradientTransform="matrix(1.76487 1.6856 -1.7648 1.93273 -661.95 319.153)" gradientUnits="userSpaceOnUse"/><radialGradient xlink:href="#g" id="h" cx="257.241" cy="-52.011" r="240" fx="257.241" fy="-52.011" gradientTransform="matrix(1.9351 0 0 .70235 -278.235 -37.099)" gradientUnits="userSpaceOnUse"/><path id="d" d="M42.595-293.204c141.887 50.682 283.773-38.342 425.661 13.991l27.328 301.131c-159.999-47.878-320 63.645-480 17.628z"/></defs><path d="m46.417-293.204 421.839 13.991 27.328 301.131c-158.8-33.02-318.801 40.121-480 17.628z" style="opacity:.69999999999999996;fill:url(#h);fill-opacity:1;filter:url(#i)" transform="matrix(.98125 0 0 .95022 3.292 23.9)"/><path d="M42.595-299.436c141.887 52.537 283.773-39.746 425.661 14.503L495.584 27.22c-159.999-49.63-320 65.975-480 18.273z" style="fill:url(#j);fill-opacity:1"/><g clip-path="url(#k)" style="opacity:.133829" transform="translate(534.118)"><path d="M-286.703-158.854c-8.42 24.903-18.622 48.871-41.342 62.67-1.225-34.344 32.92-44.063 31.046-74.596-1.56-4.607-10.453-.834-7.929-10.117-7.118 3.927-16.872 5.557-24.106 9.292-8.164 9.525-7.303 19.701-8.643 31-1.38 11.736-11.494 24.611-6.638 37.657-30.225 8.741-50.364-13.85-49.625-44.086.248-10.983 7.04-25.966 2.475-32.716-13.629-8.206-22.664-13.033-22.383-32.743.475-21.642 35.422-56.613 42.083-70.333-39.924 1.66-79.847-1.657-119.77-16.438l-6.702 85.589c21.508 3.335 27.42-16.019 29.23-38.606 19.57 9.924 25.238 23.084 31.812 42.453-8.08 7.062-8.39 17.006-7.106 31.074 3.231 36.061 21.328 57.803 30.733 81.244-24.109-7.958-25.859-12.04-40.267-34.507-11.125-17.906-14.944-41.82-32.392-55.944-6.29-.314-8.639 5-13.38 6.777 5.463 12.614 8.34 34.834-3.148 40.415q-.58-.191-1.16-.385-.375 4.755-.746 9.51c.135-.036.26-.086.394-.125-2.135 3.867-4.16 13.263-5.066 24.68-.84 10.605-.487 20.21.75 25.566l-1.848 23.588q.597.19 1.195.375c1.578-2.166.835-7.6 4.223-7.223 6.656 5.195 15.844 11.507 24.702 10.914 17.543 11.17 28.946 35.48 57.456 26.641-3.49-15.88-27.527-13.965-30.703-31.028 17.774 1.444 38.308 7.563 49.34 16.58 14.363 1.653 24.575-2.779 39.521-4.504 2.537 2.1-.694 3.377-.206 6.948 24.142-16.16 36.43-34.21 60.401-60.884 7.093-7.925 15.095-14.476 25.89-25.002 6.55-6.396 23.608-21.966 23.157-27.682-.793-10.42-20.839-11.856-31.248-6.054" style="opacity:.71243345999999996;fill:#151515;fill-opacity:.27983542;filter:url(#l)"/><path d="M-393.89-282.456c16.09.162 32.181-.68 48.272-2.1-1.055 22.312 12.767 36.869 6.378 58.028.808 6.607 10.411 3.332 11.01 10.14-3.393 7.44-13.129 9.096-19.44 13.794-2.79 2.59 1.75 5.292-1.337 8.204-13.967 6.597-18.758 12.174-26.868 24.337-2.76 4.134-7.817 8.021-9.55 11.014-13.532 23.201 9.134 52.5 29.531 51.83 5.875-13.923 1.245-29.23 5.771-43.303 1.38-4.287 7.47-14.136 10.754-18.566 14.353-19.146 46.445-35.171 68.605-53.479 8.823-7.248 13.715-18.924 24.645-16.024 1.685 11.389-9.025 12.353-13.335 18.815.086 16.84-15.965 30.026-19.179 48.234 12.256 4.39 22.155 11.515 35.891 14.44-30.397 51.577-73.665 97.5-115.687 143.529 16.593-4.555 35.644-17.087 48.62-28.649 6.826-6.082 7.671-14.687 13.321-20.676 3.507-3.718 12.848-7.573 17.901-11.288 16.768-12.3 31.043-32.519 50.757-31.427 2.31 3.11 4.2 6.704 6.14 10.244 1.675-1.733 2.871-5.544 5.876-3.103-.633 8.693 1.597 14.21 4.051 19.505-2.383 16.857-11.003 29.743-15.955 42.763-8.803 23.135-14.227 46.113-27.309 66.957q-4.95 1.007-9.896 2.034c14.98-16.109 22.065-48.418 31.096-71.29 3.228-8.158 9.404-18.505 9.227-23.972-.28-8.738-9.359-12.868-11.136-19.444-8.995 1.284-5.24 12.264-11.745 15.526-12.475-.702-27.448-1.956-38.26.35-13.959 2.97-10.236 11.424-15.642 19.979-3 4.74-7.827 6.825-12.085 9.073-16.389 8.617-34.348 28.44-56.029 30.642 44.32-45.382 83.995-95.962 118.69-146.093-5.935-11.043-20.305-12.288-34.727-13.42-2.383-16.86 10.76-26.498 3.482-37.968-28.67 11.88-52.783 27.42-63.51 55.06 3.071 15.896-7.318 27.683-3.418 45.292-34.384 6.638-52.803-36.538-34.814-68.438 1.396-6.284-3.992-5.601-2.976-11.498 4.206-3.755 12.26 4.729 15.972-2.068-20.68-4.438-44.65-1.744-45.244-27.213-.297-14.73 12.986-59.6 22.151-69.77m3.29 53.712c-26.768-21.441-31.073 52.33 3.194 32.552 4.597-14.36.167-21.236-3.194-32.552" style="opacity:.71243345999999996;fill:#151515;fill-opacity:.27983542;filter:url(#m)"/><path d="M-46.352-62.075c-3.698-5.127-5.776-1.186-10.684-2.215-1.042 5.707-2.599 10.858-5.88 14.252-2.8-.352-4.39.598-8.35-.877-6.448 1.988-1.408 15.73-9.502 16.274-4.887-3.494-12.405-4.644-13.938-10.604-4.75-1.588-4.702 3.648-8.396.159-.608-5.595-4.544-8.318-4.529-14.433-6.089-1.557-.347 7.82-8.098 4.826-5.74-5.168-7.624-13.761-13.099-19.008 7.094-6.827 14.537-12.872 16.405-24.022 3.272-1.052 7.236-.637 10.683 1.111 2.615-.815-.007-6.755.53-9.604 12.02-18.694 24.933-35.975 47.605-38.702zm-60.214.495c2.104-4.174 8.672-3.96 6.348-12.267-8.805-9.715-12.979 7.361-6.348 12.267" style="opacity:.71243345999999996;fill:#151515;fill-opacity:.27983542;filter:url(#n)"/><path d="M-53.32-141.688c.124 1.434 6.372 72.8 6.498 74.233-3.73-3.97-6.8-1.26-11.946-3.633-3.216 3.993-3.687 11.018-6.987 15.07-4.04.94-12.31-2.286-15.39-.027-.1 3.904 1.737 9.747-.333 11.677-5.77-.484-10.036-1.953-11.183-5.98 4.802-16.01-5.06-31.174-19.147-37.6.01-3.05-1.488-7.543 1.898-7.386 6.105.074 6.286 5.246 13.29 4.76-4.439-25.574 14.992-41.053 32.133-49.454 3.1-1.55 6.46-3.496 11.166-1.66" style="opacity:.71243345999999996;fill:#151515;fill-opacity:.27983542;filter:url(#o)"/><path d="m-503.918-141.15 4.655-59.441c3.686 2.646 14.833 6.601 18.581 4.976 21.91 41.45 26.53 66.628 62.807 93.237-7.856-26.252-25.083-44.517-27.635-78.49-.967-12.676.715-25.39 7.146-31.543-7.085-14.406-9.253-20.086-22.705-29.826-1.375 27.169-16.568 41.76-38.024 39.486l.855-10.915c21.508 3.334 27.42-16.018 29.23-38.606 19.558 10.07 31.436 24.2 38.068 43.299-8.06 7.22-9.896 17.12-8.593 31.142 3.191 36.274 32.04 73.665 41.74 96.226-12.2-3.164-35.898-16.423-57.619-31.319-21.779-14.404-41.58-30.448-47.345-27.838q-.58-.195-1.16-.388" style="opacity:.71243345999999996;fill:#151515;fill-opacity:.27983542;filter:url(#p)"/><path d="M-278.693-292.661q3.84-.528 7.68-1.051c-.52 4.082 7.552 3.954 6.582-.89q3.293-.442 6.583-.877c-1.379 10.305-4.91 18.78-4.178 30.997-7.69 11.761-23.71 19.707-36.725 17.778.104 2.89 3.724 1.72 6.682 1.303-.422 5.333-3.844 8.057-7.884 10.249-12.148-6.066-6.255-12.239-.947-21.488 7.634-13.296 14.041-27.685 22.207-36.021" style="opacity:.71243345999999996;fill:#151515;fill-opacity:.27983542;filter:url(#q)"/><path d="M-271.013-293.712q3.29-.449 6.582-.89c.972 4.845-7.102 4.972-6.582.89" style="opacity:.71243345999999996;fill:#151515;fill-opacity:.27983542;filter:url(#r)"/><path d="M-147.037-301.844c.73.115 17.348.896 33.782 4.029 16.435 2.754 32.686 7.86 32.686 7.926a289 289 0 0 1 14.85 6.586l2.603 29.727c-11.718-2.647-20.86-1.188-29.189 1.63-1.022 20.291-.113 39.921-15.54 47.13-10.75-4.09-17.873-11.135-32.3-10.73 4.347 6.878 14.808 11.325 24.884 18.32 8 5.427 21.858 14.139 26.338 20.39 10.224 13.862-11.747 34.192-18.72 44.03-8.197 11.484-13.757 50.643-38.874 40.467-6.557-2.644-17.215-20.008-18.927-24.597-2.945-7.828-2.768-16.964-.985-23.06 3.602-12.365 20.32-19.832 19.425-32.156-.357-4.99-8.208-13.206-12.46-19.686-8.645-13.196-15.694-21.118-25.2-29.866.012-7.504 7.77-7.45 14.486-6.149 12.798-5.68 24.73-11.144 26.834-25.923 6.062-1.965 9.756-6.198 18.61-4.923-23.949-8.856-57.597 3.774-61.017-22.58 7.33-12.97 31.014-9.592 38.714-20.565m19.784 20.197c7.567 1.431 10.63-1.615 11.583-6.974-.314-1.255-1.333-1.887-2.346-2.52-4.485 1.566-8.968 3.324-9.237 9.494" style="opacity:.71243345999999996;fill:#151515;fill-opacity:.27983542;filter:url(#s)"/><path d="M-65.849-284.777c.22 2.51 2.04 23.31 2.261 25.821-19.24-2.437-44.988 5.618-69.403-8.168 6.79-9.667 22.503-9 21.358-26.154-17.924-4.326-18.41 10.718-29.747 14.63-1.083 4.883 4.948 6.387 1.654 9.889-16.849.503-40.843 8.039-41.646-13.792 20.403-.192 31.904-7.359 38.724-18.987 25.6 1.958 51.2 6.975 76.8 16.761" style="opacity:.71243345999999996;fill:#151515;fill-opacity:.27983542;filter:url(#t)"/><path d="M-133.872-300.745a293 293 0 0 1 16.458 2.189c-9.58 1.443-15.326 7.369-24.508 10.098 1.42-5.44 5.574-8.051 8.05-12.287" style="opacity:.71243345999999996;fill:#151515;fill-opacity:.27983542;filter:url(#u)"/><path d="M-65.756-283.7c-2.344-.365-6.879 0-7.774-3.872a255 255 0 0 0-12.067-3.838c.862 4.267-3.617 2.26-5.07 3.867.334.841-1.226 2.193-2.863 3.594.024-1.289-.104-2.752-.436-4.448-2.838-1.955-5.11-4.313-6.99-6.976a270 270 0 0 0-8.777-1.83c9.553 18.571-9.385 20.236-12.068 32.396 25.331 7.258 40.406-1.611 57.555-1.682-.096-1.074-1.416-16.136-1.51-17.212" style="opacity:.71243345999999996;fill:#151515;fill-opacity:.27983542;filter:url(#v)"/><path d="M-100.957-295.372a261 261 0 0 1 15.36 3.962c.861 4.267-3.618 2.26-5.072 3.867.696 1.748 1.84 3.156 2.535 4.91 9.417 2.498 15.436 1.439 22.661 2.16l.376 4.302c-6.215.526-12.646 1.162-17.943 3.413 4.965 2.193 12.295-.91 18.226-.186q.143 1.614.283 3.228c-13.769-.2-26.74 7.125-45.403 1.349 4.812-7.67 19.123-4.022 15.967-20.03-2.838-1.952-5.11-4.312-6.99-6.975" style="opacity:.71243345999999996;fill:#151515;fill-opacity:.27983542;filter:url(#w)"/><path d="M-167.906-278.409c.963 4.817-7.2 6.038-8.77 2.326 1.028-2.573 4.997-2.392 8.77-2.326" style="opacity:.71243345999999996;fill:#151515;fill-opacity:.27983542;filter:url(#x)"/><path d="M-154.638-256.39c.217 5.913-9.713 10.803-17.322 13.19-.976-2.421-2.537-4.22-2.564-7.63 4.33-4.161 13.094-4.08 19.886-5.56" style="opacity:.71243345999999996;fill:#151515;fill-opacity:.27983542;filter:url(#y)"/><path d="M-109.205-208.237c-12.076-5.344-25.61-14.568-41.325-10.929 10.417 16.748 69.275 32.128 57.491 63.896-3.473 8.833-15.07 16.592-21.222 28.232-6.408 12.108-6.495 26.467-18.099 32.57-15.944-.813-30.689-23.912-30.224-38 .665-19.96 27.971-30.104 15.023-50.612-8.886-14.338-23.739-21.898-28.046-39.085 17.537-3.273 23.916-16.01 37.282-21.531-.27-14.259 20.883-8.656 30.768-6.063 17.897 13.906 11.87 35.36-1.648 41.522" style="opacity:.71243345999999996;fill:#151515;fill-opacity:.27983542;filter:url(#z)"/><path d="m-58.879-205.164 1.978 22.592c-9.734-1.732-19.618.414-21.086-12.854 9.15-.403 11.736-8.016 19.108-9.738" style="opacity:.71243345999999996;fill:#151515;fill-opacity:.27983542;filter:url(#A)"/><path d="M-213.49-194.693c-2.957 5.515-4.703 12.05-11.15 14.795-3.15-5.955 2.865-18.405 11.15-14.795" style="opacity:.71243345999999996;fill:#151515;fill-opacity:.27983542;filter:url(#B)"/><path d="M-128.334-187.69c-3.725.015-5.596-1.646-5.984-4.725 2.18-1.93 5.401 1.679 5.984 4.725" style="opacity:.71243345999999996;fill:#151515;fill-opacity:.27983542;filter:url(#C)"/><path d="M-52.944-137.385c.533 6.096 5.181 59.171 5.745 65.628-19.824-7.362-16.049 12.034-31.944 10.753-8.013-4.526-12.339-11.658-16.733-18.739 6.558-7.681.263-16.818.58-25.647.707-18.43 28.157-32.85 42.352-31.995" style="opacity:.71243345999999996;fill:#151515;fill-opacity:.27983542;filter:url(#D)"/><path d="m-51.343-119.093 2.448 27.97c-14.183-10.277-18.236-27.529-2.448-27.97" style="opacity:.71243345999999996;fill:#151515;fill-opacity:.27983542;filter:url(#E)"/><path d="M-121.306-127.613c.05 10.137-4.006 24.392-16.68 16.693-1.098-6.175 2.581-8.102 7.778-8.501-.376-5.848 2.258-8.983 8.902-8.192" style="opacity:.71243345999999996;fill:#151515;fill-opacity:.27983542;filter:url(#F)"/><path d="M-393.89-282.456c14.992.15 29.987-.57 44.981-1.818-.232 17.927 15.087 38.44 4.173 53.745-5.22 1.213-6.719-.907-10.078.976-.719 11.27 9.421 10.625 10.704 19.665-6.753 5.642-22.245 12.443-31.763 7.351 1.694-3.507 5.667-4.74 5.96-9.648-10.688-12.643-13.88-33.083-28.508-42.245-9.329 10.154-17.96 27.014-17.622 41.739.594 25.471 24.563 22.777 45.245 27.213-3.713 6.798-11.767-1.686-15.972 2.068-1.016 5.897 4.372 5.215 2.976 11.498-17.989 31.9.43 75.078 34.814 68.437-3.9-17.609 6.487-29.394 3.417-45.291 10.728-27.64 34.84-43.18 63.511-55.06 7.278 11.469-5.865 21.109-3.482 37.968 14.423 1.13 28.792 2.377 34.727 13.42-34.697 50.137-74.372 100.715-118.69 146.096 21.681-2.203 39.64-22.022 56.028-30.642 4.26-2.246 9.085-4.332 12.085-9.072 5.406-8.556 1.683-17.008 15.642-19.979 10.813-2.306 25.786-1.052 38.26-.351 6.505-3.261 2.75-14.24 11.746-15.525 1.775 6.576 10.855 10.707 11.135 19.445.178 5.467-6 15.814-9.227 23.97-9.03 22.873-16.115 55.183-31.096 71.29-9.485 1.966-18.97 3.968-28.455 5.937-.019-3.882-30.155-.939-62.43 2.24-32.3 3.646-66.74 7.53-75.92 16.322-9.485.14-31.173-.472-50.49-3.67-19.317-2.79-36.263-8.166-36.263-8.115 0 0 2.368-30.925 2.555-33.303 7.81-1.87 18.906.058 24.088-5.907-2.74-7.287-7.274-22.501-1.267-34.019-5.714-8.607-11.646-9.399-19.19-6.436l1.861-23.778q.597.19 1.195.376c1.578-2.168.835-7.601 4.224-7.224 6.656 5.195 15.845 11.507 24.702 10.915 17.543 11.17 28.948 35.48 57.458 26.64-3.49-15.88-27.526-13.965-30.702-31.028 17.774 1.443 38.308 7.563 49.34 16.58 14.363 1.652 24.574-2.779 39.521-4.504 2.538 2.101-.694 3.378-.205 6.948 24.143-16.16 36.43-34.21 60.401-60.883 7.093-7.926 15.095-14.476 25.891-25.003 6.548-6.396 23.608-21.966 23.156-27.682-.795-10.42-20.84-11.856-31.249-6.053-8.422 24.903-18.622 48.871-41.343 62.67-1.225-34.344 32.92-44.063 31.046-74.595-1.56-4.608-10.452-.835-7.929-10.118-7.119 3.927-16.872 5.558-24.106 9.292-8.165 9.525-7.303 19.703-8.643 31-1.379 11.735-11.494 24.611-6.638 37.656-30.225 8.741-50.364-13.848-49.625-44.085.25-10.983 7.04-25.966 2.474-32.716-13.634-8.132-27.149-13.266-26.83-33.052.42-21.953 17.552-56.478 24.406-69.655" style="opacity:.71243345999999996;fill:#151515;fill-opacity:.27983542;filter:url(#G)"/><path d="m-43.997-35.178.472 5.379c-3.747-1.859-6.398-4.298-6.608-8.33 2.773.492 4.655 1.595 6.136 2.95" style="opacity:.71243345999999996;fill:#151515;fill-opacity:.27983542;filter:url(#H)"/><path d="M-152.418-13.17c-1.249 5.869-16.682 4.211-21.959 3.96-9.966-21.697 20.301-17.12 21.96-3.96" style="opacity:.71243345999999996;fill:#151515;fill-opacity:.27983542;filter:url(#I)"/><path d="M-120.182 14.62a362 362 0 0 0-6.186-.059c-.496-3.878 1.463-5.717 5.873-5.386z" style="opacity:.71243345999999996;fill:#151515;fill-opacity:.27983542;filter:url(#J)"/><path d="M-109.495-212.571c-13.563-7.014-40.794-17.262-51.138-4.469 5.172 5.868 6.138 15.891 16.75 16.59 3.964-1.549-7.26-8.002-1.54-7.678 17.514 9.218 50.438 22.009 49.832 49.199-.26 10.8-12.964 19.68-17.772 27.662-3.535 5.815-8.716 28.68-15.799 30.367-17.704 4.285-30.103-24.705-25.736-42.776 2.156-8.965 13.43-21.74 13.724-27.27 1.11-21.31-28.488-27.859-25.18-47.109 1.767-10.709 25.058-15.747 34.83-24.042 2.59-2.265 4.23-7.384 7.325-7.912 27.234.81 31.055 31.106 14.704 37.438" style="opacity:.71243345999999996;fill:#151515;fill-opacity:.27983542;filter:url(#K)"/><path d="M-138.245-180.648c12.523 3.598 8.932 19.968-2.35 20.615 1.426-6.293.86-14.421 2.35-20.615" style="opacity:.71243345999999996;fill:#151515;fill-opacity:.27983542;filter:url(#L)"/><path d="M-347.89-238.27c-7.63 1.661-9.137-3.447-14.335-4.547-1.784 4.571 2.473 12.252.48 20.778-16.797-1.91-16.323-21.987-24.34-35.932-2.639-4.621-6.554-7.667-6.104-12.787 1.15-12.912 16.664-12.363 25.535-6.512 5.68 3.785 4.457 9.17 8.25 17.985 3.177 7.441 15.103 12.192 10.514 21.014m-38.556-38.349c-1.02 5.155 3.373 4.732 4.083 8.089" style="opacity:.71243345999999996;fill:#151515;fill-opacity:.27983542;filter:url(#M)"/><path d="M-366.043-262.242c-4.353.958-7.354-8.29-16.319-6.288-.71-3.357-5.104-2.935-4.083-8.089 9.763-5.816 18.207 5.389 20.402 14.377" style="opacity:.71243345999999996;fill:#151515;fill-opacity:.27983542;filter:url(#N)"/><path d="M-501.31-174.438c5.092 5.751 4.804 21.049-1.77 22.588z" style="opacity:.71243345999999996;fill:#151515;fill-opacity:.27983542;filter:url(#O)"/><path d="M-301.846-138.132c-1.757 10.023-6.982 17.26-14.205 22.873.845-10.121 7.74-21.292 14.205-22.873" style="opacity:.71243345999999996;fill:#151515;fill-opacity:.27983542;filter:url(#P)"/><path d="m-499.264-200.59.651-8.322c21.4 2.203 33.513-11.344 34.93-38.497 13.402 10.007 21.103 23.748 28.23 37.994-6.429 6.224-9.476 16.044-8.504 28.707 2.48 34.251 30.044 68.016 38.16 93.551-39.898-19.504-54.636-66.234-76.409-108.159-3.75 1.584-13.372-2.652-17.058-5.274m28.762 20.197c4.547 13.061 12.822 32.309 19.343 42.78 7.642 12.396 17.797 24.61 27.645 28.155-9.067-29.87-38.292-68.536-17.372-104.138-6.767-7.584-11.055-17.4-18.88-24.57-2.914 22.681-18.062 36.669-10.736 57.773" style="opacity:.71243345999999996;fill:#151515;fill-opacity:.27983542;filter:url(#Q)"/><path d="M-251.293-87.083c-.129 2.041 1.48 2.11 1.235 4.281-5.495 2.52-6.202 4.039-11.852 7.783-4.387-6.001 1.525-12.751 10.617-12.064" style="opacity:.71243345999999996;fill:#151515;fill-opacity:.27983542;filter:url(#R)"/><path d="M-332.234-60.023c1.16-.155.898 1.256 1.15 2.105-.81 5.945-7.137 7.408-10.939 10.906-6.022 12.965-13.098 25.29-28.362 30.383 6.836-19.423 25.223-29 38.151-43.394" style="opacity:.71243345999999996;fill:#151515;fill-opacity:.27983542;filter:url(#S)"/><path d="M-244.992-58.963c-1.308 8.319 1.15 13.933-4.59 19.964-8.286.963-12.478 4.98-16.88 8.867l.047 10.155c-13.746 2.694-17.396-5.99-29.083-5.601-4.586-7.728-1.05-20.764-1.022-31.62 15.267-10.69 40.037-6.508 51.528-1.765" style="opacity:.71243345999999996;fill:#151515;fill-opacity:.27983542;filter:url(#T)"/><path d="M-282.189-33.846c-7.555 1.372-15.446-17.63-8.353-24.479 7.018-6.78 20.625-.018 29.941-.017 5.751 13.552-14.749 16.461-21.588 24.496" style="opacity:.71243345999999996;fill:#151515;fill-opacity:.27983542;filter:url(#U)"/><path d="M-392.479-36.524c-3 8.124 1.697 17.24 5.051 25.148-13.248 16.555-58.975 17.473-63.767-5.15 9.79-5.13 30.152-.004 37.851-8.482l.375-8.196c6.28-1.514 12.05-3.59 20.49-3.32" style="opacity:.71243345999999996;fill:#151515;fill-opacity:.27983542;filter:url(#V)"/><path d="M-364.937-38.073c-.902 4.367-4.29 6.587-8.622 7.938.265-4.944 3.07-7.613 8.622-7.938" style="opacity:.71243345999999996;fill:#151515;fill-opacity:.27983542;filter:url(#W)"/><path d="m-515.927 12.206 3.63-46.363c7.544-2.963 13.477-2.17 19.191 6.436-6.007 11.518-1.474 26.732 1.267 34.02-5.182 5.964-16.279 4.036-24.088 5.907" style="opacity:.71243345999999996;fill:#151515;fill-opacity:.27983542;filter:url(#X)"/><path d="M-328.217-16.062c-.113 3.783-2.145 6.072-1.388 10.54 12.768 11.978 42.343 3.906 59.622 7.72-.57 8.062 7.44 11.695 6.22 16.811-6.769.18-6.992 3.18-13.543 3.915-8.85.999-17-2.292-25.814-1.527-20.468 1.825-45.302 6.522-65.062 9.028-28.93 3.757-60.963 19.556-91.854 19.895-12.966.142-25.645-4.31-39.339-8.315 5.605-4.09 16.37-7.23 24.055-5.26 1.492 4.725-3.53 1.794-2.849 5.567 21.427-.425 50.743-.066 73.196-9.334 1.993-5.843 5.262-10.495 9.141-14.616 2.847-.598 4.683-.205 6.066.639 10.827-18.8 35.17-32.02 61.55-35.063" style="opacity:.71243345999999996;fill:#151515;fill-opacity:.27983542;filter:url(#Y)"/><path d="M-320.933-18.504c5.9-1.685 5.606 3.522 9.622 3.922 4.78-.592 3.756-5.581 8.527-6.18 8.864 1.455 22.84 6.147 15.69 18.493-17.13 3.118-29.32.551-37.613-6.413-.209-4.418 2.696-6.411 3.774-9.822" style="opacity:.71243345999999996;fill:#151515;fill-opacity:.27983542;filter:url(#Z)"/><path d="M-289.565 7.303c-15.17 8.753-61.067 25.994-75.927 14.684-4.599-3.407-4.749-9.411-8.089-13.971 7.046-11.175 23.092-12.607 35.445-10.925 4.302.607 7.24 4.803 12.031 5.907 12.232 2.83 29.96-2.88 36.54 4.305" style="opacity:.71243345999999996;fill:#151515;fill-opacity:.27983542;filter:url(#aa)"/><path d="M-392.985 7.676c-13.612 18.017-38.23 30.016-61.969 19.339 16.845-8.3 38.283-19.108 61.97-19.34m-32.166 12.027c4.137 2.454 20.001-1.641 22.331-8.992-8.288 2.45-20.935.173-22.33 8.992" style="opacity:.71243345999999996;fill:#151515;fill-opacity:.27983542;filter:url(#ab)"/><path d="M-293.38 38.731a2856 2856 0 0 1-14.846 3.046c-4.657-4.464-21.767-2.06-36.96.088-10.05 1.45-22.356 3.5-32.088 4.748-8.812 1.206-22.16 2.842-23.499 3.533-2.267 1.243-4.72 2.364-2.71 6.024-16.083 1.179-32.165 1.5-48.247.635 40.661-12.883 117.474-33.183 158.371-22.62l-.01 2.272z" style="opacity:.71243345999999996;fill:#151515;fill-opacity:.27983542;filter:url(#ac)"/><path d="M-508.638 48.238a270 270 0 0 1-9.896-2.745l.931-11.888c3.844 1.73 4.517-.857 8.716 1.245-1.248 4.18-3.41 9.813.25 13.388" style="opacity:.71243345999999996;fill:#151515;fill-opacity:.27983542;filter:url(#ad)"/><path d="M-517.324 30.038q.42-5.349.838-10.697c12.6-.61 27.153 4.933 36.281-2.456 5.1-4.144 2.81-13.938 12.045-14.965 3.912-.471 6.254 5.12 9.44 5.806 2.521.602 14.198.297 19.541.057 18.824-.51 41.134-6.327 57.516-11.595-10.229 9.573-24.418 9.8-36.884 12.862-25.646 6.355-49.404 19.343-72.596 22.65-10.144-1.913-18.453-2.053-26.18-1.662" style="opacity:.71243345999999996;fill:#151515;fill-opacity:.27983542;filter:url(#ae)"/><path d="M-392.894-280.109c.212 5.566-6.878 13.495-8.64 20.943-1.275-6.805 6.02-14.472 8.64-20.943" style="opacity:.71243345999999996;fill:#151515;fill-opacity:.27983542;filter:url(#af)"/><path d="m-491.537-299.263-2.327 29.72c2.22-1.29 8.062 1.234 8.783 4.227-4.429 11.715 2.814 20.016-.25 33.951 7.715-2.077 1.027-17.891 5.191-23.926 16.771-3.844 22.394 14.003 39.724 14.419 1.298 12.728 12.63 16.515 20.108 23.246 4.93-12.92 9.841-25.845 12.131-41.746-12.548-6.524-34.106.533-43.895-10.822 14.682.713 32.883 4.411 47.596 2.741 3.127-4.626 5.921-9.646 8.388-15.03-31.815-.502-63.632-5-95.449-16.78m10.635 38.893c.022-.002.046.001.068 0z" style="opacity:.71243345999999996;fill:#151515;fill-opacity:.27983542;filter:url(#ag)"/><path d="m-497.68-220.8 3.537-45.176c1.368-.532 3.098-.495 5.644.754-3.438 8.164-2.94 29.356.208 42.665-.494 4.365-6.26 5.599-9.39 1.756" style="opacity:.71243345999999996;fill:#151515;fill-opacity:.27983542;filter:url(#ah)"/><path d="m-508.387-84.087 3.724-47.553c14.43-4.083 14.472-27.34 10.6-45.301 4.458.362 7.885-.87 11.8-1.456 31.233 42.421 45.107 104.852 107.802 103.234-1.013-8.587-13.599-7.753-19.559-12.454-8.54-6.64-16.36-21.874-22.969-35.793-10.97-22.844-24.668-46.558-15.536-77.427 30.768 11.93 23.113 62.477 43.037 87.373 10.876 13.256 28.907 18.113 53.293 13.946 3.871 3.36 1.098 9.744-.3 14.953 10.496-4.868 16.395-13.573 27.321-18.158-15.639 25.313-38.91 52.708-72.188 56.008-12.343 1.177-29.352-5.066-46.01-9.925-24.95-7.289-45.256-16.412-66.45-28.038-4.875-.143-8.753.99-13.379.972q-.593-.191-1.186-.381" style="opacity:.71243345999999996;fill:#151515;fill-opacity:.27983542;filter:url(#ai)"/><path d="M-486.968 25.294c-2.754 3.502-11.03-.031-15.062 1.612-1.864-4.185 9.33-2.56 15.062-1.612" style="opacity:.71243345999999996;fill:#151515;fill-opacity:.27983542;filter:url(#aj)"/><path d="M-291.47-121.724c3.386-11.728 6.455-23.66 10.533-34.702 8.491-5.61 17.303-2.91 18.52 2.529 2.681 11.867-21.615 25.842-29.053 32.173" style="opacity:.71243345999999996;fill:#151515;fill-opacity:.27983542;filter:url(#ak)"/><path d="M-323.949-132.286c.506 7.569-4.95 19.721-10.935 25.695-10.648-5.465-.296-24.412 10.935-25.695" style="opacity:.71243345999999996;fill:#151515;fill-opacity:.27983542;filter:url(#al)"/><path d="M-373.767-96.064c2.928-.453 3.578 1.476 5.802 1.746-.562 3.928-6.298 1.924-5.802-1.746" style="opacity:.71243345999999996;fill:#151515;fill-opacity:.27983542;filter:url(#am)"/><path d="M-518.48 45.509s.66-8.445.88-11.903" style="opacity:.71243345999999996;fill:#151515;fill-opacity:.27983542;filter:url(#an)"/></g><path d="M360.29-150.94c0 68.426-61.047 121.177-120.588 121.177-51.304 0-87.647-37.445-87.647-95.294 0-51.303 47.497-125.294 115.882-125.294 59.542 0 92.353 48.108 92.353 99.412" clip-path="url(#ap)" style="opacity:.8921933;fill:url(#ao);fill-opacity:1;stroke:none;stroke-width:.1;stroke-linecap:round;stroke-linejoin:round;stroke-miterlimit:4;stroke-dashoffset:1.08779998;stroke-opacity:1" transform="matrix(.81656 0 0 .81656 37.712 -23.384)"/><g clip-path="url(#aq)" style="opacity:.13754649;fill:#430000;fill-opacity:1" transform="matrix(.81656 0 0 .81656 473.852 -23.384)"><path d="M-286.703-158.854c-8.42 24.903-18.622 48.871-41.342 62.67-1.225-34.344 32.92-44.063 31.046-74.596-1.56-4.607-10.453-.834-7.929-10.117-7.118 3.927-16.872 5.557-24.106 9.292-8.164 9.525-7.303 19.701-8.643 31-1.38 11.736-11.494 24.611-6.638 37.657-30.225 8.741-50.364-13.85-49.625-44.086.248-10.983 7.04-25.966 2.475-32.716-13.629-8.206-22.664-13.033-22.383-32.743.475-21.642 35.422-56.613 42.083-70.333-39.924 1.66-79.847-1.657-119.77-16.438l-6.702 85.589c21.508 3.335 27.42-16.019 29.23-38.606 19.57 9.924 25.238 23.084 31.812 42.453-8.08 7.062-8.39 17.006-7.106 31.074 3.231 36.061 21.328 57.803 30.733 81.244-24.109-7.958-25.859-12.04-40.267-34.507-11.125-17.906-14.944-41.82-32.392-55.944-6.29-.314-8.639 5-13.38 6.777 5.463 12.614 8.34 34.834-3.148 40.415q-.58-.191-1.16-.385-.375 4.755-.746 9.51c.135-.036.26-.086.394-.125-2.135 3.867-4.16 13.263-5.066 24.68-.84 10.605-.487 20.21.75 25.566l-1.848 23.588q.597.19 1.195.375c1.578-2.166.835-7.6 4.223-7.223 6.656 5.195 15.844 11.507 24.702 10.914 17.543 11.17 28.946 35.48 57.456 26.641-3.49-15.88-27.527-13.965-30.703-31.028 17.774 1.444 38.308 7.563 49.34 16.58 14.363 1.653 24.575-2.779 39.521-4.504 2.537 2.1-.694 3.377-.206 6.948 24.142-16.16 36.43-34.21 60.401-60.884 7.093-7.925 15.095-14.476 25.89-25.002 6.55-6.396 23.608-21.966 23.157-27.682-.793-10.42-20.839-11.856-31.248-6.054" style="opacity:.71243346;fill:#430000;fill-opacity:1;filter:url(#l)"/><path d="M-393.89-282.456c16.09.162 32.181-.68 48.272-2.1-1.055 22.312 12.767 36.869 6.378 58.028.808 6.607 10.411 3.332 11.01 10.14-3.393 7.44-13.129 9.096-19.44 13.794-2.79 2.59 1.75 5.292-1.337 8.204-13.967 6.597-18.758 12.174-26.868 24.337-2.76 4.134-7.817 8.021-9.55 11.014-13.532 23.201 9.134 52.5 29.531 51.83 5.875-13.923 1.245-29.23 5.771-43.303 1.38-4.287 7.47-14.136 10.754-18.566 14.353-19.146 46.445-35.171 68.605-53.479 8.823-7.248 13.715-18.924 24.645-16.024 1.685 11.389-9.025 12.353-13.335 18.815.086 16.84-15.965 30.026-19.179 48.234 12.256 4.39 22.155 11.515 35.891 14.44-30.397 51.577-73.665 97.5-115.687 143.529 16.593-4.555 35.644-17.087 48.62-28.649 6.826-6.082 7.671-14.687 13.321-20.676 3.507-3.718 12.848-7.573 17.901-11.288 16.768-12.3 31.043-32.519 50.757-31.427 2.31 3.11 4.2 6.704 6.14 10.244 1.675-1.733 2.871-5.544 5.876-3.103-.633 8.693 1.597 14.21 4.051 19.505-2.383 16.857-11.003 29.743-15.955 42.763-8.803 23.135-14.227 46.113-27.309 66.957q-4.95 1.007-9.896 2.034c14.98-16.109 22.065-48.418 31.096-71.29 3.228-8.158 9.404-18.505 9.227-23.972-.28-8.738-9.359-12.868-11.136-19.444-8.995 1.284-5.24 12.264-11.745 15.526-12.475-.702-27.448-1.956-38.26.35-13.959 2.97-10.236 11.424-15.642 19.979-3 4.74-7.827 6.825-12.085 9.073-16.389 8.617-34.348 28.44-56.029 30.642 44.32-45.382 83.995-95.962 118.69-146.093-5.935-11.043-20.305-12.288-34.727-13.42-2.383-16.86 10.76-26.498 3.482-37.968-28.67 11.88-52.783 27.42-63.51 55.06 3.071 15.896-7.318 27.683-3.418 45.292-34.384 6.638-52.803-36.538-34.814-68.438 1.396-6.284-3.992-5.601-2.976-11.498 4.206-3.755 12.26 4.729 15.972-2.068-20.68-4.438-44.65-1.744-45.244-27.213-.297-14.73 12.986-59.6 22.151-69.77m3.29 53.712c-26.768-21.441-31.073 52.33 3.194 32.552 4.597-14.36.167-21.236-3.194-32.552" style="opacity:.71243346;fill:#430000;fill-opacity:1;filter:url(#m)"/><path d="M-46.352-62.075c-3.698-5.127-5.776-1.186-10.684-2.215-1.042 5.707-2.599 10.858-5.88 14.252-2.8-.352-4.39.598-8.35-.877-6.448 1.988-1.408 15.73-9.502 16.274-4.887-3.494-12.405-4.644-13.938-10.604-4.75-1.588-4.702 3.648-8.396.159-.608-5.595-4.544-8.318-4.529-14.433-6.089-1.557-.347 7.82-8.098 4.826-5.74-5.168-7.624-13.761-13.099-19.008 7.094-6.827 14.537-12.872 16.405-24.022 3.272-1.052 7.236-.637 10.683 1.111 2.615-.815-.007-6.755.53-9.604 12.02-18.694 24.933-35.975 47.605-38.702zm-60.214.495c2.104-4.174 8.672-3.96 6.348-12.267-8.805-9.715-12.979 7.361-6.348 12.267" style="opacity:.71243346;fill:#430000;fill-opacity:1;filter:url(#n)"/><path d="M-53.32-141.688c.124 1.434 6.372 72.8 6.498 74.233-3.73-3.97-6.8-1.26-11.946-3.633-3.216 3.993-3.687 11.018-6.987 15.07-4.04.94-12.31-2.286-15.39-.027-.1 3.904 1.737 9.747-.333 11.677-5.77-.484-10.036-1.953-11.183-5.98 4.802-16.01-5.06-31.174-19.147-37.6.01-3.05-1.488-7.543 1.898-7.386 6.105.074 6.286 5.246 13.29 4.76-4.439-25.574 14.992-41.053 32.133-49.454 3.1-1.55 6.46-3.496 11.166-1.66" style="opacity:.71243346;fill:#430000;fill-opacity:1;filter:url(#o)"/><path d="m-503.918-141.15 4.655-59.441c3.686 2.646 14.833 6.601 18.581 4.976 21.91 41.45 26.53 66.628 62.807 93.237-7.856-26.252-25.083-44.517-27.635-78.49-.967-12.676.715-25.39 7.146-31.543-7.085-14.406-9.253-20.086-22.705-29.826-1.375 27.169-16.568 41.76-38.024 39.486l.855-10.915c21.508 3.334 27.42-16.018 29.23-38.606 19.558 10.07 31.436 24.2 38.068 43.299-8.06 7.22-9.896 17.12-8.593 31.142 3.191 36.274 32.04 73.665 41.74 96.226-12.2-3.164-35.898-16.423-57.619-31.319-21.779-14.404-41.58-30.448-47.345-27.838q-.58-.195-1.16-.388" style="opacity:.71243346;fill:#430000;fill-opacity:1;filter:url(#p)"/><path d="M-278.693-292.661q3.84-.528 7.68-1.051c-.52 4.082 7.552 3.954 6.582-.89q3.293-.442 6.583-.877c-1.379 10.305-4.91 18.78-4.178 30.997-7.69 11.761-23.71 19.707-36.725 17.778.104 2.89 3.724 1.72 6.682 1.303-.422 5.333-3.844 8.057-7.884 10.249-12.148-6.066-6.255-12.239-.947-21.488 7.634-13.296 14.041-27.685 22.207-36.021" style="opacity:.71243346;fill:#430000;fill-opacity:1;filter:url(#q)"/><path d="M-271.013-293.712q3.29-.449 6.582-.89c.972 4.845-7.102 4.972-6.582.89" style="opacity:.71243346;fill:#430000;fill-opacity:1;filter:url(#r)"/><path d="M-147.037-301.844c.73.115 17.348.896 33.782 4.029 16.435 2.754 32.686 7.86 32.686 7.926a289 289 0 0 1 14.85 6.586l2.603 29.727c-11.718-2.647-20.86-1.188-29.189 1.63-1.022 20.291-.113 39.921-15.54 47.13-10.75-4.09-17.873-11.135-32.3-10.73 4.347 6.878 14.808 11.325 24.884 18.32 8 5.427 21.858 14.139 26.338 20.39 10.224 13.862-11.747 34.192-18.72 44.03-8.197 11.484-13.757 50.643-38.874 40.467-6.557-2.644-17.215-20.008-18.927-24.597-2.945-7.828-2.768-16.964-.985-23.06 3.602-12.365 20.32-19.832 19.425-32.156-.357-4.99-8.208-13.206-12.46-19.686-8.645-13.196-15.694-21.118-25.2-29.866.012-7.504 7.77-7.45 14.486-6.149 12.798-5.68 24.73-11.144 26.834-25.923 6.062-1.965 9.756-6.198 18.61-4.923-23.949-8.856-57.597 3.774-61.017-22.58 7.33-12.97 31.014-9.592 38.714-20.565m19.784 20.197c7.567 1.431 10.63-1.615 11.583-6.974-.314-1.255-1.333-1.887-2.346-2.52-4.485 1.566-8.968 3.324-9.237 9.494" style="opacity:.71243346;fill:#430000;fill-opacity:1;filter:url(#s)"/><path d="M-65.849-284.777c.22 2.51 2.04 23.31 2.261 25.821-19.24-2.437-44.988 5.618-69.403-8.168 6.79-9.667 22.503-9 21.358-26.154-17.924-4.326-18.41 10.718-29.747 14.63-1.083 4.883 4.948 6.387 1.654 9.889-16.849.503-40.843 8.039-41.646-13.792 20.403-.192 31.904-7.359 38.724-18.987 25.6 1.958 51.2 6.975 76.8 16.761" style="opacity:.71243346;fill:#430000;fill-opacity:1;filter:url(#t)"/><path d="M-133.872-300.745a293 293 0 0 1 16.458 2.189c-9.58 1.443-15.326 7.369-24.508 10.098 1.42-5.44 5.574-8.051 8.05-12.287" style="opacity:.71243346;fill:#430000;fill-opacity:1;filter:url(#u)"/><path d="M-65.756-283.7c-2.344-.365-6.879 0-7.774-3.872a255 255 0 0 0-12.067-3.838c.862 4.267-3.617 2.26-5.07 3.867.334.841-1.226 2.193-2.863 3.594.024-1.289-.104-2.752-.436-4.448-2.838-1.955-5.11-4.313-6.99-6.976a270 270 0 0 0-8.777-1.83c9.553 18.571-9.385 20.236-12.068 32.396 25.331 7.258 40.406-1.611 57.555-1.682-.096-1.074-1.416-16.136-1.51-17.212" style="opacity:.71243346;fill:#430000;fill-opacity:1;filter:url(#v)"/><path d="M-100.957-295.372a261 261 0 0 1 15.36 3.962c.861 4.267-3.618 2.26-5.072 3.867.696 1.748 1.84 3.156 2.535 4.91 9.417 2.498 15.436 1.439 22.661 2.16l.376 4.302c-6.215.526-12.646 1.162-17.943 3.413 4.965 2.193 12.295-.91 18.226-.186q.143 1.614.283 3.228c-13.769-.2-26.74 7.125-45.403 1.349 4.812-7.67 19.123-4.022 15.967-20.03-2.838-1.952-5.11-4.312-6.99-6.975" style="opacity:.71243346;fill:#430000;fill-opacity:1;filter:url(#w)"/><path d="M-167.906-278.409c.963 4.817-7.2 6.038-8.77 2.326 1.028-2.573 4.997-2.392 8.77-2.326" style="opacity:.71243346;fill:#430000;fill-opacity:1;filter:url(#x)"/><path d="M-154.638-256.39c.217 5.913-9.713 10.803-17.322 13.19-.976-2.421-2.537-4.22-2.564-7.63 4.33-4.161 13.094-4.08 19.886-5.56" style="opacity:.71243346;fill:#430000;fill-opacity:1;filter:url(#y)"/><path d="M-109.205-208.237c-12.076-5.344-25.61-14.568-41.325-10.929 10.417 16.748 69.275 32.128 57.491 63.896-3.473 8.833-15.07 16.592-21.222 28.232-6.408 12.108-6.495 26.467-18.099 32.57-15.944-.813-30.689-23.912-30.224-38 .665-19.96 27.971-30.104 15.023-50.612-8.886-14.338-23.739-21.898-28.046-39.085 17.537-3.273 23.916-16.01 37.282-21.531-.27-14.259 20.883-8.656 30.768-6.063 17.897 13.906 11.87 35.36-1.648 41.522" style="opacity:.71243346;fill:#430000;fill-opacity:1;filter:url(#z)"/><path d="m-58.879-205.164 1.978 22.592c-9.734-1.732-19.618.414-21.086-12.854 9.15-.403 11.736-8.016 19.108-9.738" style="opacity:.71243346;fill:#430000;fill-opacity:1;filter:url(#A)"/><path d="M-213.49-194.693c-2.957 5.515-4.703 12.05-11.15 14.795-3.15-5.955 2.865-18.405 11.15-14.795" style="opacity:.71243346;fill:#430000;fill-opacity:1;filter:url(#B)"/><path d="M-128.334-187.69c-3.725.015-5.596-1.646-5.984-4.725 2.18-1.93 5.401 1.679 5.984 4.725" style="opacity:.71243346;fill:#430000;fill-opacity:1;filter:url(#C)"/><path d="M-52.944-137.385c.533 6.096 5.181 59.171 5.745 65.628-19.824-7.362-16.049 12.034-31.944 10.753-8.013-4.526-12.339-11.658-16.733-18.739 6.558-7.681.263-16.818.58-25.647.707-18.43 28.157-32.85 42.352-31.995" style="opacity:.71243346;fill:#430000;fill-opacity:1;filter:url(#D)"/><path d="m-51.343-119.093 2.448 27.97c-14.183-10.277-18.236-27.529-2.448-27.97" style="opacity:.71243346;fill:#430000;fill-opacity:1;filter:url(#E)"/><path d="M-121.306-127.613c.05 10.137-4.006 24.392-16.68 16.693-1.098-6.175 2.581-8.102 7.778-8.501-.376-5.848 2.258-8.983 8.902-8.192" style="opacity:.71243346;fill:#430000;fill-opacity:1;filter:url(#F)"/><path d="M-393.89-282.456c14.992.15 29.987-.57 44.981-1.818-.232 17.927 15.087 38.44 4.173 53.745-5.22 1.213-6.719-.907-10.078.976-.719 11.27 9.421 10.625 10.704 19.665-6.753 5.642-22.245 12.443-31.763 7.351 1.694-3.507 5.667-4.74 5.96-9.648-10.688-12.643-13.88-33.083-28.508-42.245-9.329 10.154-17.96 27.014-17.622 41.739.594 25.471 24.563 22.777 45.245 27.213-3.713 6.798-11.767-1.686-15.972 2.068-1.016 5.897 4.372 5.215 2.976 11.498-17.989 31.9.43 75.078 34.814 68.437-3.9-17.609 6.487-29.394 3.417-45.291 10.728-27.64 34.84-43.18 63.511-55.06 7.278 11.469-5.865 21.109-3.482 37.968 14.423 1.13 28.792 2.377 34.727 13.42-34.697 50.137-74.372 100.715-118.69 146.096 21.681-2.203 39.64-22.022 56.028-30.642 4.26-2.246 9.085-4.332 12.085-9.072 5.406-8.556 1.683-17.008 15.642-19.979 10.813-2.306 25.786-1.052 38.26-.351 6.505-3.261 2.75-14.24 11.746-15.525 1.775 6.576 10.855 10.707 11.135 19.445.178 5.467-6 15.814-9.227 23.97-9.03 22.873-16.115 55.183-31.096 71.29-9.485 1.966-18.97 3.968-28.455 5.937-.019-3.882-30.155-.939-62.43 2.24-32.3 3.646-66.74 7.53-75.92 16.322-9.485.14-31.173-.472-50.49-3.67-19.317-2.79-36.263-8.166-36.263-8.115 0 0 2.368-30.925 2.555-33.303 7.81-1.87 18.906.058 24.088-5.907-2.74-7.287-7.274-22.501-1.267-34.019-5.714-8.607-11.646-9.399-19.19-6.436l1.861-23.778q.597.19 1.195.376c1.578-2.168.835-7.601 4.224-7.224 6.656 5.195 15.845 11.507 24.702 10.915 17.543 11.17 28.948 35.48 57.458 26.64-3.49-15.88-27.526-13.965-30.702-31.028 17.774 1.443 38.308 7.563 49.34 16.58 14.363 1.652 24.574-2.779 39.521-4.504 2.538 2.101-.694 3.378-.205 6.948 24.143-16.16 36.43-34.21 60.401-60.883 7.093-7.926 15.095-14.476 25.891-25.003 6.548-6.396 23.608-21.966 23.156-27.682-.795-10.42-20.84-11.856-31.249-6.053-8.422 24.903-18.622 48.871-41.343 62.67-1.225-34.344 32.92-44.063 31.046-74.595-1.56-4.608-10.452-.835-7.929-10.118-7.119 3.927-16.872 5.558-24.106 9.292-8.165 9.525-7.303 19.703-8.643 31-1.379 11.735-11.494 24.611-6.638 37.656-30.225 8.741-50.364-13.848-49.625-44.085.25-10.983 7.04-25.966 2.474-32.716-13.634-8.132-27.149-13.266-26.83-33.052.42-21.953 17.552-56.478 24.406-69.655" style="opacity:.71243346;fill:#430000;fill-opacity:1;filter:url(#G)"/><path d="m-43.997-35.178.472 5.379c-3.747-1.859-6.398-4.298-6.608-8.33 2.773.492 4.655 1.595 6.136 2.95" style="opacity:.71243346;fill:#430000;fill-opacity:1;filter:url(#H)"/><path d="M-152.418-13.17c-1.249 5.869-16.682 4.211-21.959 3.96-9.966-21.697 20.301-17.12 21.96-3.96" style="opacity:.71243346;fill:#430000;fill-opacity:1;filter:url(#I)"/><path d="M-120.182 14.62a362 362 0 0 0-6.186-.059c-.496-3.878 1.463-5.717 5.873-5.386z" style="opacity:.71243346;fill:#430000;fill-opacity:1;filter:url(#J)"/><path d="M-109.495-212.571c-13.563-7.014-40.794-17.262-51.138-4.469 5.172 5.868 6.138 15.891 16.75 16.59 3.964-1.549-7.26-8.002-1.54-7.678 17.514 9.218 50.438 22.009 49.832 49.199-.26 10.8-12.964 19.68-17.772 27.662-3.535 5.815-8.716 28.68-15.799 30.367-17.704 4.285-30.103-24.705-25.736-42.776 2.156-8.965 13.43-21.74 13.724-27.27 1.11-21.31-28.488-27.859-25.18-47.109 1.767-10.709 25.058-15.747 34.83-24.042 2.59-2.265 4.23-7.384 7.325-7.912 27.234.81 31.055 31.106 14.704 37.438" style="opacity:.71243346;fill:#430000;fill-opacity:1;filter:url(#K)"/><path d="M-138.245-180.648c12.523 3.598 8.932 19.968-2.35 20.615 1.426-6.293.86-14.421 2.35-20.615" style="opacity:.71243346;fill:#430000;fill-opacity:1;filter:url(#L)"/><path d="M-347.89-238.27c-7.63 1.661-9.137-3.447-14.335-4.547-1.784 4.571 2.473 12.252.48 20.778-16.797-1.91-16.323-21.987-24.34-35.932-2.639-4.621-6.554-7.667-6.104-12.787 1.15-12.912 16.664-12.363 25.535-6.512 5.68 3.785 4.457 9.17 8.25 17.985 3.177 7.441 15.103 12.192 10.514 21.014m-38.556-38.349c-1.02 5.155 3.373 4.732 4.083 8.089" style="opacity:.71243346;fill:#430000;fill-opacity:1;filter:url(#M)"/><path d="M-366.043-262.242c-4.353.958-7.354-8.29-16.319-6.288-.71-3.357-5.104-2.935-4.083-8.089 9.763-5.816 18.207 5.389 20.402 14.377" style="opacity:.71243346;fill:#430000;fill-opacity:1;filter:url(#N)"/><path d="M-501.31-174.438c5.092 5.751 4.804 21.049-1.77 22.588z" style="opacity:.71243346;fill:#430000;fill-opacity:1;filter:url(#O)"/><path d="M-301.846-138.132c-1.757 10.023-6.982 17.26-14.205 22.873.845-10.121 7.74-21.292 14.205-22.873" style="opacity:.71243346;fill:#430000;fill-opacity:1;filter:url(#P)"/><path d="m-499.264-200.59.651-8.322c21.4 2.203 33.513-11.344 34.93-38.497 13.402 10.007 21.103 23.748 28.23 37.994-6.429 6.224-9.476 16.044-8.504 28.707 2.48 34.251 30.044 68.016 38.16 93.551-39.898-19.504-54.636-66.234-76.409-108.159-3.75 1.584-13.372-2.652-17.058-5.274m28.762 20.197c4.547 13.061 12.822 32.309 19.343 42.78 7.642 12.396 17.797 24.61 27.645 28.155-9.067-29.87-38.292-68.536-17.372-104.138-6.767-7.584-11.055-17.4-18.88-24.57-2.914 22.681-18.062 36.669-10.736 57.773" style="opacity:.71243346;fill:#430000;fill-opacity:1;filter:url(#Q)"/><path d="M-251.293-87.083c-.129 2.041 1.48 2.11 1.235 4.281-5.495 2.52-6.202 4.039-11.852 7.783-4.387-6.001 1.525-12.751 10.617-12.064" style="opacity:.71243346;fill:#430000;fill-opacity:1;filter:url(#R)"/><path d="M-332.234-60.023c1.16-.155.898 1.256 1.15 2.105-.81 5.945-7.137 7.408-10.939 10.906-6.022 12.965-13.098 25.29-28.362 30.383 6.836-19.423 25.223-29 38.151-43.394" style="opacity:.71243346;fill:#430000;fill-opacity:1;filter:url(#S)"/><path d="M-244.992-58.963c-1.308 8.319 1.15 13.933-4.59 19.964-8.286.963-12.478 4.98-16.88 8.867l.047 10.155c-13.746 2.694-17.396-5.99-29.083-5.601-4.586-7.728-1.05-20.764-1.022-31.62 15.267-10.69 40.037-6.508 51.528-1.765" style="opacity:.71243346;fill:#430000;fill-opacity:1;filter:url(#T)"/><path d="M-282.189-33.846c-7.555 1.372-15.446-17.63-8.353-24.479 7.018-6.78 20.625-.018 29.941-.017 5.751 13.552-14.749 16.461-21.588 24.496" style="opacity:.71243346;fill:#430000;fill-opacity:1;filter:url(#U)"/><path d="M-392.479-36.524c-3 8.124 1.697 17.24 5.051 25.148-13.248 16.555-58.975 17.473-63.767-5.15 9.79-5.13 30.152-.004 37.851-8.482l.375-8.196c6.28-1.514 12.05-3.59 20.49-3.32" style="opacity:.71243346;fill:#430000;fill-opacity:1;filter:url(#V)"/><path d="M-364.937-38.073c-.902 4.367-4.29 6.587-8.622 7.938.265-4.944 3.07-7.613 8.622-7.938" style="opacity:.71243346;fill:#430000;fill-opacity:1;filter:url(#W)"/><path d="m-515.927 12.206 3.63-46.363c7.544-2.963 13.477-2.17 19.191 6.436-6.007 11.518-1.474 26.732 1.267 34.02-5.182 5.964-16.279 4.036-24.088 5.907" style="opacity:.71243346;fill:#430000;fill-opacity:1;filter:url(#X)"/><path d="M-328.217-16.062c-.113 3.783-2.145 6.072-1.388 10.54 12.768 11.978 42.343 3.906 59.622 7.72-.57 8.062 7.44 11.695 6.22 16.811-6.769.18-6.992 3.18-13.543 3.915-8.85.999-17-2.292-25.814-1.527-20.468 1.825-45.302 6.522-65.062 9.028-28.93 3.757-60.963 19.556-91.854 19.895-12.966.142-25.645-4.31-39.339-8.315 5.605-4.09 16.37-7.23 24.055-5.26 1.492 4.725-3.53 1.794-2.849 5.567 21.427-.425 50.743-.066 73.196-9.334 1.993-5.843 5.262-10.495 9.141-14.616 2.847-.598 4.683-.205 6.066.639 10.827-18.8 35.17-32.02 61.55-35.063" style="opacity:.71243346;fill:#430000;fill-opacity:1;filter:url(#Y)"/><path d="M-320.933-18.504c5.9-1.685 5.606 3.522 9.622 3.922 4.78-.592 3.756-5.581 8.527-6.18 8.864 1.455 22.84 6.147 15.69 18.493-17.13 3.118-29.32.551-37.613-6.413-.209-4.418 2.696-6.411 3.774-9.822" style="opacity:.71243346;fill:#430000;fill-opacity:1;filter:url(#Z)"/><path d="M-289.565 7.303c-15.17 8.753-61.067 25.994-75.927 14.684-4.599-3.407-4.749-9.411-8.089-13.971 7.046-11.175 23.092-12.607 35.445-10.925 4.302.607 7.24 4.803 12.031 5.907 12.232 2.83 29.96-2.88 36.54 4.305" style="opacity:.71243346;fill:#430000;fill-opacity:1;filter:url(#aa)"/><path d="M-392.985 7.676c-13.612 18.017-38.23 30.016-61.969 19.339 16.845-8.3 38.283-19.108 61.97-19.34m-32.166 12.027c4.137 2.454 20.001-1.641 22.331-8.992-8.288 2.45-20.935.173-22.33 8.992" style="opacity:.71243346;fill:#430000;fill-opacity:1;filter:url(#ab)"/><path d="M-293.38 38.731a2856 2856 0 0 1-14.846 3.046c-4.657-4.464-21.767-2.06-36.96.088-10.05 1.45-22.356 3.5-32.088 4.748-8.812 1.206-22.16 2.842-23.499 3.533-2.267 1.243-4.72 2.364-2.71 6.024-16.083 1.179-32.165 1.5-48.247.635 40.661-12.883 117.474-33.183 158.371-22.62l-.01 2.272z" style="opacity:.71243346;fill:#430000;fill-opacity:1;filter:url(#ac)"/><path d="M-508.638 48.238a270 270 0 0 1-9.896-2.745l.931-11.888c3.844 1.73 4.517-.857 8.716 1.245-1.248 4.18-3.41 9.813.25 13.388" style="opacity:.71243346;fill:#430000;fill-opacity:1;filter:url(#ad)"/><path d="M-517.324 30.038q.42-5.349.838-10.697c12.6-.61 27.153 4.933 36.281-2.456 5.1-4.144 2.81-13.938 12.045-14.965 3.912-.471 6.254 5.12 9.44 5.806 2.521.602 14.198.297 19.541.057 18.824-.51 41.134-6.327 57.516-11.595-10.229 9.573-24.418 9.8-36.884 12.862-25.646 6.355-49.404 19.343-72.596 22.65-10.144-1.913-18.453-2.053-26.18-1.662" style="opacity:.71243346;fill:#430000;fill-opacity:1;filter:url(#ae)"/><path d="M-392.894-280.109c.212 5.566-6.878 13.495-8.64 20.943-1.275-6.805 6.02-14.472 8.64-20.943" style="opacity:.71243346;fill:#430000;fill-opacity:1;filter:url(#af)"/><path d="m-491.537-299.263-2.327 29.72c2.22-1.29 8.062 1.234 8.783 4.227-4.429 11.715 2.814 20.016-.25 33.951 7.715-2.077 1.027-17.891 5.191-23.926 16.771-3.844 22.394 14.003 39.724 14.419 1.298 12.728 12.63 16.515 20.108 23.246 4.93-12.92 9.841-25.845 12.131-41.746-12.548-6.524-34.106.533-43.895-10.822 14.682.713 32.883 4.411 47.596 2.741 3.127-4.626 5.921-9.646 8.388-15.03-31.815-.502-63.632-5-95.449-16.78m10.635 38.893c.022-.002.046.001.068 0z" style="opacity:.71243346;fill:#430000;fill-opacity:1;filter:url(#ag)"/><path d="m-497.68-220.8 3.537-45.176c1.368-.532 3.098-.495 5.644.754-3.438 8.164-2.94 29.356.208 42.665-.494 4.365-6.26 5.599-9.39 1.756" style="opacity:.71243346;fill:#430000;fill-opacity:1;filter:url(#ah)"/><path d="m-508.387-84.087 3.724-47.553c14.43-4.083 14.472-27.34 10.6-45.301 4.458.362 7.885-.87 11.8-1.456 31.233 42.421 45.107 104.852 107.802 103.234-1.013-8.587-13.599-7.753-19.559-12.454-8.54-6.64-16.36-21.874-22.969-35.793-10.97-22.844-24.668-46.558-15.536-77.427 30.768 11.93 23.113 62.477 43.037 87.373 10.876 13.256 28.907 18.113 53.293 13.946 3.871 3.36 1.098 9.744-.3 14.953 10.496-4.868 16.395-13.573 27.321-18.158-15.639 25.313-38.91 52.708-72.188 56.008-12.343 1.177-29.352-5.066-46.01-9.925-24.95-7.289-45.256-16.412-66.45-28.038-4.875-.143-8.753.99-13.379.972q-.593-.191-1.186-.381" style="opacity:.71243346;fill:#430000;fill-opacity:1;filter:url(#ai)"/><path d="M-486.968 25.294c-2.754 3.502-11.03-.031-15.062 1.612-1.864-4.185 9.33-2.56 15.062-1.612" style="opacity:.71243346;fill:#430000;fill-opacity:1;filter:url(#aj)"/><path d="M-291.47-121.724c3.386-11.728 6.455-23.66 10.533-34.702 8.491-5.61 17.303-2.91 18.52 2.529 2.681 11.867-21.615 25.842-29.053 32.173" style="opacity:.71243346;fill:#430000;fill-opacity:1;filter:url(#ak)"/><path d="M-323.949-132.286c.506 7.569-4.95 19.721-10.935 25.695-10.648-5.465-.296-24.412 10.935-25.695" style="opacity:.71243346;fill:#430000;fill-opacity:1;filter:url(#al)"/><path d="M-373.767-96.064c2.928-.453 3.578 1.476 5.802 1.746-.562 3.928-6.298 1.924-5.802-1.746" style="opacity:.71243346;fill:#430000;fill-opacity:1;filter:url(#am)"/><path d="M-518.48 45.509s.66-8.445.88-11.903" style="opacity:.71243346;fill:#430000;fill-opacity:1;filter:url(#an)"/></g></svg>