<svg xmlns="http://www.w3.org/2000/svg" xmlns:xlink="http://www.w3.org/1999/xlink" width="48" height="48"><defs><linearGradient id="a"><stop offset="0" style="stop-color:#4f5967;stop-opacity:1"/><stop offset="1" style="stop-color:#343a43;stop-opacity:1"/></linearGradient><linearGradient xlink:href="#a" id="c" x1="-33.983" x2="-4.85" y1="41.932" y2="3.004" gradientUnits="userSpaceOnUse"/></defs><rect width="41.58" height="41.577" x="-44.581" y="3.004" rx="20.79" ry="20.789" style="fill:url(#c);fill-opacity:1" transform="scale(-1 1)"/><path d="M3.012 23.273c-.003.173-.012.346-.012.52a20.744 20.744 0 0 0 20.79 20.789 20.744 20.744 0 0 0 20.79-20.79c0-.173-.008-.345-.013-.519A20.74 20.74 0 0 1 23.79 43.542 20.74 20.74 0 0 1 3.012 23.273" style="display:inline;opacity:.3;fill:#373e48;fill-opacity:1;stroke-width:2.9105;stroke-opacity:.55"/><path d="M3.012 24.309c-.003-.174-.012-.345-.012-.52A20.744 20.744 0 0 1 23.79 3a20.744 20.744 0 0 1 20.79 20.789c0 .174-.008.346-.013.52A20.74 20.74 0 0 0 23.79 4.039 20.74 20.74 0 0 0 3.012 24.31" style="display:inline;opacity:.3;fill:#fff;fill-opacity:1;stroke-width:2.9105;stroke-opacity:.55"/><g style="stroke-width:1.02529" transform="matrix(.97341 0 0 .97726 -3.506 -3.12)"><path fill="none" stroke="#d8dee9" stroke-linecap="round" stroke-width="1.739" d="M39.96 22.332c1.197-2.889 2.818-7.47 1.53-8.48-.33-.258-.818-.328-1.402-.267v0c-1.855.197-4.66 1.712-6.365 2.725" style="stroke-width:2.6555;stroke-dasharray:none"/><path d="M47.776 22.325v-.313c-2.348-.412-6.693-.54-10.104 5.228 0 0 3.95-3.846 10.104-4.915" style="fill:#d8dee9;stroke-width:1.02528"/><path d="M47.776 25.242v-.985c-2.688-.29-6.292.255-10.003 3.932 0 0 4.105-2.384 10.003-2.947" style="fill:#d8dee9;stroke-width:1.02528"/><path d="M47.776 27.994v-.772c-2.282-.847-5.735-1.16-9.735 2.442 0 0 4.204-2.097 9.735-1.67" style="fill:#d8dee9;stroke-width:1.02529;stroke-dasharray:none"/><path d="M8.224 22.012v.312c6.153 1.07 10.104 4.916 10.104 4.916-3.41-5.768-7.756-5.64-10.104-5.228" style="fill:#d8dee9;stroke-width:1.02528"/><path d="M8.224 24.256v.986c5.898.563 10.003 2.947 10.003 2.947-3.711-3.677-7.315-4.222-10.003-3.933" style="fill:#d8dee9;stroke-width:1.02528"/><path d="M8.224 27.222v.772c5.532-.427 9.735 1.67 9.735 1.67-4-3.602-7.453-3.288-9.735-2.442" style="fill:#d8dee9;stroke-width:1.02528"/><path fill="none" stroke="#d8dee9" stroke-linecap="round" stroke-width="1.739" d="M16.402 22.357c-1.188-2.892-2.797-7.477-1.505-8.484.33-.257.819-.326 1.403-.263v0c1.854.202 4.655 1.725 6.357 2.743" style="stroke-width:2.6555;stroke-dasharray:none"/><ellipse cx="23.374" cy="25.319" fill="none" stroke="#d8dee9" stroke-width="1.757" rx="3.208" ry="3.169" style="stroke-width:2.05265;stroke-dasharray:none"/><ellipse cx="23.365" cy="25.667" fill="#d8dee9" fill-rule="evenodd" rx=".637" ry="1.582"/><ellipse cx="32.916" cy="25.319" fill="none" stroke="#d8dee9" stroke-width="1.757" rx="3.208" ry="3.169" style="stroke-width:2.05265;stroke-dasharray:none"/><ellipse cx="32.908" cy="25.667" fill="#d8dee9" fill-rule="evenodd" rx=".637" ry="1.582"/><path d="m17.835 29.792 6.95 6.95-7.074 7.075M28.864 43.378h9.425" style="fill:none;stroke:#d8dee9;stroke-width:2.3233;stroke-linecap:round;stroke-linejoin:round"/><ellipse cx="32.791" cy="-28" fill="#fff" rx="2.198" ry="3.041" style="fill:#d8dee9;fill-opacity:1;stroke-width:3.8752;paint-order:stroke fill markers" transform="rotate(90)"/></g></svg>