<svg xmlns="http://www.w3.org/2000/svg" xmlns:xlink="http://www.w3.org/1999/xlink" width="48" height="48"><defs><linearGradient id="c"><stop offset="0" style="stop-color:#000;stop-opacity:1"/><stop offset="1" style="stop-color:#000;stop-opacity:0"/></linearGradient><linearGradient id="b"><stop offset="0" style="stop-color:#334545;stop-opacity:1"/><stop offset="1" style="stop-color:#4d6868;stop-opacity:1"/></linearGradient><linearGradient id="a"><stop offset="0" style="stop-color:#c6cdd1;stop-opacity:1"/><stop offset="1" style="stop-color:#e0e5e7;stop-opacity:1"/></linearGradient><linearGradient xlink:href="#a" id="d" x1="35" x2="19" y1="44" y2="3" gradientUnits="userSpaceOnUse"/><linearGradient xlink:href="#b" id="f" x1="-16" x2="-8.664" y1="12" y2="9.744" gradientUnits="userSpaceOnUse"/><linearGradient xlink:href="#b" id="h" x1="-16" x2="-8.664" y1="12" y2="9.744" gradientTransform="translate(-12 12)" gradientUnits="userSpaceOnUse"/><linearGradient xlink:href="#b" id="j" x1="-16" x2="-8.664" y1="12" y2="9.744" gradientTransform="translate(-24 24)" gradientUnits="userSpaceOnUse"/><linearGradient xlink:href="#b" id="n" x1="-16" x2="-8.664" y1="12" y2="9.744" gradientTransform="translate(0 -48)" gradientUnits="userSpaceOnUse"/><linearGradient xlink:href="#b" id="l" x1="-16" x2="-8.664" y1="12" y2="9.744" gradientTransform="translate(-24 -24)" gradientUnits="userSpaceOnUse"/><linearGradient xlink:href="#c" id="m" x1="34" x2="43" y1="9" y2="18" gradientUnits="userSpaceOnUse"/><linearGradient xlink:href="#c" id="k" x1="9.246" x2="18" y1="33.122" y2="41.875" gradientUnits="userSpaceOnUse"/><linearGradient xlink:href="#c" id="e" x1="9" x2="20" y1="9" y2="20" gradientUnits="userSpaceOnUse"/><linearGradient xlink:href="#c" id="g" x1="21" x2="31" y1="21" y2="31" gradientUnits="userSpaceOnUse"/><linearGradient xlink:href="#c" id="i" x1="33" x2="41" y1="33" y2="41" gradientUnits="userSpaceOnUse"/></defs><rect width="40" height="40" x="4" y="4" rx="2" ry="2" style="opacity:1;fill:url(#d);fill-opacity:1;stroke:none;stroke-width:2;stroke-linecap:round;stroke-linejoin:round;stroke-miterlimit:4;stroke-dasharray:none;stroke-opacity:1"/><path d="m14.58 8.924-2.516.488-3.017 3.193-.057 1.967L38.418 44H42c1.108 0 2-.892 2-2v-3.656z" style="opacity:.3;fill:url(#e);fill-opacity:1;stroke:none;stroke-width:2;stroke-linecap:round;stroke-linejoin:round;stroke-miterlimit:4;stroke-dasharray:none;stroke-opacity:0"/><rect width="8" height="8" x="-16" y="8" rx="4" ry="4" style="fill:url(#f);fill-opacity:1;stroke:none" transform="rotate(-90)"/><path d="M4 41v1c0 1.108.892 2 2 2h36c1.108 0 2-.892 2-2v-1c0 1.108-.892 2-2 2H6c-1.108 0-2-.892-2-2" style="opacity:.15;fill:#000;fill-opacity:1;stroke:none;stroke-width:2;stroke-linecap:round;stroke-linejoin:round;stroke-miterlimit:4;stroke-dasharray:none;stroke-opacity:1"/><path d="m26.52 20.908-2.516.488-3.018 3.194-.056 1.967L38.373 44H42c1.108 0 2-.892 2-2v-3.611z" style="opacity:.3;fill:url(#g);fill-opacity:1;stroke:none;stroke-width:2;stroke-linecap:round;stroke-linejoin:round;stroke-miterlimit:4;stroke-dasharray:none;stroke-opacity:0"/><rect width="8" height="8" x="-28" y="20" rx="4" ry="4" style="fill:url(#h);fill-opacity:1;stroke:none" transform="rotate(-90)"/><path d="m38.594 32.982-2.516.489-3.017 3.193-.057 1.967L38.373 44H42c1.108 0 2-.892 2-2v-3.611z" style="opacity:.3;fill:url(#i);fill-opacity:1;stroke:none;stroke-width:2;stroke-linecap:round;stroke-linejoin:round;stroke-miterlimit:4;stroke-dasharray:none;stroke-opacity:0"/><rect width="8" height="8" x="-40" y="32" rx="4" ry="4" style="fill:url(#j);fill-opacity:1;stroke:none" transform="rotate(-90)"/><path d="m14.367 32.75-2.515.488-3.018 3.194-.057 1.966L14.38 44h11.238z" style="opacity:.3;fill:url(#k);fill-opacity:1;stroke:none;stroke-width:2;stroke-linecap:round;stroke-linejoin:round;stroke-miterlimit:4;stroke-dasharray:none;stroke-opacity:0"/><rect width="8" height="8" x="-40" y="-16" rx="4" ry="4" style="fill:url(#l);fill-opacity:1;stroke:none" transform="scale(1 -1)rotate(90)"/><path d="m38.514 8.889-2.516.488-3.018 3.193-.056 1.967L44 25.613V14.375z" style="opacity:.3;fill:url(#m);fill-opacity:1;stroke:none;stroke-width:2;stroke-linecap:round;stroke-linejoin:round;stroke-miterlimit:4;stroke-dasharray:none;stroke-opacity:0"/><rect width="8" height="8" x="-16" y="-40" rx="4" ry="4" style="fill:url(#n);fill-opacity:1;stroke:none" transform="scale(1 -1)rotate(90)"/></svg>