<svg xmlns="http://www.w3.org/2000/svg" xmlns:xlink="http://www.w3.org/1999/xlink" width="48" height="48"><defs><linearGradient id="d"><stop offset="0" style="stop-color:#524220;stop-opacity:.553"/><stop offset="1" style="stop-color:#342a14;stop-opacity:0"/></linearGradient><linearGradient id="b"><stop offset="0" style="stop-color:#fff;stop-opacity:1"/><stop offset="1" style="stop-color:#fff;stop-opacity:0"/></linearGradient><linearGradient xlink:href="#b" id="g" x1="11.875" x2="32.125" y1="-15.125" y2="33.5" gradientUnits="userSpaceOnUse"/><linearGradient id="e" x2="0" y1="543.8" y2="503.8" gradientTransform="matrix(1.125 0 0 1 -476.434 -500.549)" gradientUnits="userSpaceOnUse"><stop stop-color="#bd8d48"/><stop offset="1" stop-color="#e8b971"/></linearGradient><linearGradient xlink:href="#d" id="f" x1="16" x2="41" y1="9" y2="40" gradientTransform="translate(-1 -1)" gradientUnits="userSpaceOnUse"/></defs><g style="display:inline"><rect width="40" height="40" x="4" y="4" rx="5.065" ry="5.052" style="color:#000;clip-rule:nonzero;display:inline;overflow:visible;visibility:visible;opacity:1;isolation:auto;mix-blend-mode:normal;color-interpolation:sRGB;color-interpolation-filters:linearRGB;solid-color:#000;solid-opacity:1;fill:url(#e);fill-opacity:1;fill-rule:nonzero;stroke-width:1;stroke-linecap:butt;stroke-linejoin:miter;stroke-miterlimit:4;stroke-dasharray:none;stroke-dashoffset:0;stroke-opacity:1;color-rendering:auto;image-rendering:auto;shape-rendering:auto;text-rendering:auto"/><path d="M13 21h5v1h-5zM14 17h5v1h-5zM6 7h5v1H6zM8 9h5v1H8zM10 11h10v1H10zM10 13h5v1h-5zM10 15h8v1h-8zM8 17h5v1H8zM6 19h8v1H6zM8 21h4v1H8zM8 23h6v1H8zM8 25h4v1H8zM6 27h5v1H6zM8 29h7v1H8zM9 31h5v1H9zM9 33h3v1H9zM8 35h5v1H8zM6 37h9v1H6zM8 39h5v1H8zM6 41h6v1H6zM16 13h8v1h-8zM12 27h5v1h-5zM12 7h5v1h-5zM14 35h7v1h-7zM14 39h10v1H14zM13 41h5v1h-5zM14 9h4v1h-4zM18 7h5v1h-5zM21 11h2v1h-2zM15 19h2v1h-2zM16 37h2v1h-2zM19 41h2v1h-2z" style="color:#000;clip-rule:nonzero;display:inline;overflow:visible;visibility:visible;opacity:.394;isolation:auto;mix-blend-mode:normal;color-interpolation:sRGB;color-interpolation-filters:linearRGB;solid-color:#000;solid-opacity:1;fill:#4a370b;fill-opacity:1;fill-rule:nonzero;stroke:none;stroke-width:2;stroke-linecap:butt;stroke-linejoin:bevel;stroke-miterlimit:4;stroke-dasharray:none;stroke-dashoffset:0;stroke-opacity:1;marker:none;color-rendering:auto;image-rendering:auto;shape-rendering:auto;text-rendering:auto"/><path d="M28 7v4h3V7zm1 1h1v2h-1z" style="color:#000;clip-rule:nonzero;display:inline;overflow:visible;visibility:visible;opacity:.394;isolation:auto;mix-blend-mode:normal;color-interpolation:sRGB;color-interpolation-filters:linearRGB;solid-color:#000;solid-opacity:1;fill:#4a370b;fill-opacity:1;fill-rule:nonzero;stroke:none;stroke-width:2;stroke-linecap:butt;stroke-linejoin:bevel;stroke-miterlimit:4;stroke-dasharray:none;stroke-dashoffset:0;stroke-opacity:1;marker:none;color-rendering:auto;image-rendering:auto;shape-rendering:auto;text-rendering:auto;filter-blend-mode:normal;filter-gaussianBlur-deviation:0"/><path d="M33 7h1v4h-1zM36 7v4h3V7zm1 1h1v2h-1zM41 7h1v4h-1zM28 12h1v4h-1zM31 12v4h3v-4zm1 1h1v2h-1zM39 12v4h3v-4zm1 1h1v2h-1zM36 12h1v4h-1zM28 17h1v4h-1zM31 17h1v4h-1zM34 17v4h3v-4zm1 1h1v2h-1zM39 17v4h3v-4zm1 1h1v2h-1zM28 22v4h3v-4zm1 1h1v2h-1zM33 22v4h3v-4zm1 1h1v2h-1zM38 22h1v4h-1zM41 22h1v4h-1zM28 27h1v4h-1zM31 27v4h3v-4zm1 1h1v2h-1zM39 27v4h3v-4zm1 1h1v2h-1zM36 27h1v4h-1zM28 32v4h3v-4zm1 1h1v2h-1zM33 32h1v4h-1zM36 32v4h3v-4zm1 1h1v2h-1zM41 32h1v4h-1zM28 37h1v4h-1zM31 37h1v4h-1zM34 37v4h3v-4zm1 1h1v2h-1z" style="color:#000;clip-rule:nonzero;display:inline;overflow:visible;visibility:visible;opacity:.394;isolation:auto;mix-blend-mode:normal;color-interpolation:sRGB;color-interpolation-filters:linearRGB;solid-color:#000;solid-opacity:1;fill:#4a370b;fill-opacity:1;fill-rule:nonzero;stroke:none;stroke-width:2;stroke-linecap:butt;stroke-linejoin:bevel;stroke-miterlimit:4;stroke-dasharray:none;stroke-dashoffset:0;stroke-opacity:1;marker:none;color-rendering:auto;image-rendering:auto;shape-rendering:auto;text-rendering:auto"/><path d="M28.063 43 11.75 26.688l3.61-4.641-4.36-4.36 10.097-4.098 13.347 3.8 4.493-.014L44 22.438V42c0 .438-.343 1-1 1z" style="fill:url(#f);fill-opacity:1;fill-rule:evenodd;stroke:none;stroke-width:1px;stroke-linecap:butt;stroke-linejoin:miter;stroke-opacity:1"/><path d="M39 37v4h3v-4zm1 1h1v2h-1z" style="color:#000;clip-rule:nonzero;display:inline;overflow:visible;visibility:visible;opacity:.394;isolation:auto;mix-blend-mode:normal;color-interpolation:sRGB;color-interpolation-filters:linearRGB;solid-color:#000;solid-opacity:1;fill:#4a370b;fill-opacity:1;fill-rule:nonzero;stroke:none;stroke-width:2;stroke-linecap:butt;stroke-linejoin:bevel;stroke-miterlimit:4;stroke-dasharray:none;stroke-dashoffset:0;stroke-opacity:1;marker:none;color-rendering:auto;image-rendering:auto;shape-rendering:auto;text-rendering:auto"/><path d="M35.232 34.407c.694-1.299 2.138-1.438 2.137-2.974 0-1.184-.329-1.825-1.13-2.205-1.474-.7-2.909.13-2.909 1.682 0 1.524 1.453 2.369 2.416 1.406.401-.402.498-1.076.213-1.483-.126-.181-.14-.153-.061.127.273.967-.47 1.635-1.326 1.192-.894-.462-.725-1.947.25-2.192.481-.12 1.124.302 1.44.946.17.347.176.556.03 1.042-.478 1.597-2.628 1.608-5.864.03-.784-.383-1.835-.96-2.336-1.284-.863-.558-1.913-1.026-3.419-2.349-.798-.7-.915-.605 1.165-.945.598-.097 2.346-.605 3.884-1.128 2.733-.928 2.836-.95 4.506-.962.94-.007-.62-.067.94.001l2.836.123v-3.077l-3.302-.086c-4.72-.124-2.42-.288-7.293-2.17-.93-.36-2.223-.793-2.874-.963-1.538-.402-3.868-.54-5.035-.296-1.346.28-3.25 1.301-4.355 2.336-1.714 1.603-3.65 4.6-3.46 5.356.085.34.173.363 1.683.427.877.037 2.696.237 4.041.444l2.447.377v1.055c-.422 1.934-.12 2.978-.045 3.683.281 2.549.386 2.825 1.037 2.733 1.006-1.654 1.021-4.825 1.028-6.653l1.127 1.005c2.812 2.51 3.64 2.473 6.052 3.647 2.278 1.107 4.78 1.575 6.176 1.155M13.83 25.459c-.156-.155.804-1.342 2.062-2.55 1.874-1.799 1.866-1.797 1.87-.354.005 1.42.345 2.192 1.325 3.006l.641.532-2.91-.277c-1.6-.153-2.945-.313-2.988-.357m10.493.136c.278-.219.698-.725.933-1.125.372-.634.427-.89.427-2.008 0-.705.046-1.282.103-1.282s1.165.455 2.463 1.011 2.528 1.053 2.733 1.104c.204.052.372.148.372.213 0 .066-.787.51-1.748.988-1.96.974-3.427 1.38-5.321 1.474l-.467.023zm14.773-7.477c0-.866-.104-.949-1.197-.949-2.436 0-3.042-.393-6.71-2.017-3.927-1.74-6.307-2.362-9.034-2.362-2.668 0-5.48.728-8.369 2.168-2.351 1.172-3.356 2.14-2.8 2.696.196.196.061.238 3.355-1.046 2.25-.877 5.018-1.618 6.515-1.744 2.31-.196 5.064.411 9.936 2.19 1.75.639 3.761 1.31 4.47 1.49 1.517.388 1.676.327 2.94.332l.894.003z" style="color:#000;clip-rule:nonzero;display:inline;overflow:visible;visibility:visible;opacity:1;isolation:auto;mix-blend-mode:normal;color-interpolation:sRGB;color-interpolation-filters:linearRGB;solid-color:#000;solid-opacity:1;fill:#352300;fill-opacity:1;fill-rule:nonzero;stroke-width:1;stroke-linecap:butt;stroke-linejoin:miter;stroke-miterlimit:4;stroke-dasharray:none;stroke-dashoffset:0;stroke-opacity:1;color-rendering:auto;image-rendering:auto;shape-rendering:auto;text-rendering:auto"/><path d="M22.156 12.79c-2.669 0-5.48.73-8.369 2.169-2.172 1.083-3.18 1.986-2.885 2.557.231-.553 1.21-1.28 2.885-2.116 2.889-1.44 5.7-2.168 8.37-2.168 2.726 0 5.105.622 9.032 2.362 3.667 1.624 4.273 2.017 6.71 2.017 1.092 0 1.197.083 1.197.95v-.442c0-.866-.105-.95-1.198-.95-2.436 0-3.042-.392-6.709-2.017-3.927-1.74-6.306-2.363-9.033-2.363m-1.593 5.939c-.407.015-.771.052-1.063.113-1.346.28-3.25 1.301-4.355 2.336-1.714 1.603-3.651 4.6-3.461 5.355.006.025.018.037.025.059.268-1.103 1.936-3.57 3.436-4.973 1.105-1.034 3.009-2.055 4.355-2.336 1.167-.243 3.497-.105 5.035.297.65.17 1.945.604 2.875.963 4.872 1.882 2.57 2.046 7.291 2.17l3.303.086v-.442l-3.303-.086c-4.72-.123-2.419-.287-7.29-2.17-.931-.359-2.225-.792-2.876-.962-1.153-.302-2.753-.456-3.972-.41m10.803 4.794c-.275.226-1.147.636-1.76.973-1.732.953-3.9 1.452-5.924 1.525-.024.021-.055.061-.077.079l-.505.398.466-.023c1.895-.094 4.079-.564 6.04-1.537.96-.478 2.118-1.142 2.118-1.208 0-.064-.16-.155-.358-.207M13.811 25.45c-.135.208-.215.37-.168.416.043.044 1.575.24 3.175.393l3.63.34-.602-.498-3.028-.284c-1.452-.138-2.758-.309-3.007-.367m10.29 2.317c-.385.115-.297.265.196.699 1.506 1.323 2.932 2.114 3.795 2.672.5.323 1.551.9 2.336 1.283 3.235 1.578 5.387 1.567 5.865-.03.11-.366.132-.573.064-.802-.015.11-.018.208-.064.361a1.56 1.56 0 0 1-.547.809c-.042.032-.083.067-.129.096-.335.27-.711.363-1.064.283-1.017.053-2.414-.324-4.125-1.158-.785-.383-1.836-.962-2.336-1.286-.863-.557-2.289-1.346-3.795-2.67-.118-.103-.112-.185-.195-.257m-4.244 1.072c-.218.999-.242 1.752-.205 2.351a8.4 8.4 0 0 1 .205-1.91zm15.305.139c-1.025.01-1.832.77-1.832 1.933 0 .078.018.145.025.219.136-1.401 1.485-2.123 2.883-1.46.735.35 1.058.938 1.11 1.942.005-.06.021-.111.021-.177 0-1.185-.33-1.825-1.13-2.205a2.45 2.45 0 0 0-1.077-.252" style="color:#000;clip-rule:nonzero;display:inline;overflow:visible;visibility:visible;opacity:.09899998;isolation:auto;mix-blend-mode:normal;color-interpolation:sRGB;color-interpolation-filters:linearRGB;solid-color:#000;solid-opacity:1;fill:#f5efe3;fill-opacity:1;fill-rule:nonzero;stroke-width:1;stroke-linecap:butt;stroke-linejoin:miter;stroke-miterlimit:4;stroke-dasharray:none;stroke-dashoffset:0;stroke-opacity:1;color-rendering:auto;image-rendering:auto;shape-rendering:auto;text-rendering:auto"/></g><g style="display:inline"><rect width="40" height="40" x="4" y="4" rx="5.053" ry="4.964" style="opacity:.436;fill:url(#g);fill-opacity:1"/></g></svg>