<svg xmlns="http://www.w3.org/2000/svg" xmlns:xlink="http://www.w3.org/1999/xlink" width="48" height="48"><defs><linearGradient id="b"><stop offset="0" style="stop-color:#bf4231;stop-opacity:1"/><stop offset="1" style="stop-color:#e05e4c;stop-opacity:1"/></linearGradient><linearGradient id="c"><stop offset="0" style="stop-color:#000;stop-opacity:1"/><stop offset="1" style="stop-color:#000;stop-opacity:0"/></linearGradient><linearGradient id="a"><stop offset="0" style="stop-color:#c6cdd1;stop-opacity:1"/><stop offset="1" style="stop-color:#e0e5e7;stop-opacity:1"/></linearGradient><linearGradient xlink:href="#a" id="d" x1="35" x2="19" y1="44" y2="3" gradientTransform="translate(-1.2 -1.2)scale(1.05)" gradientUnits="userSpaceOnUse"/><linearGradient xlink:href="#b" id="f" x1="-16" x2="-8.664" y1="12" y2="9.744" gradientTransform="translate(-12 12)" gradientUnits="userSpaceOnUse"/><linearGradient xlink:href="#b" id="j" x1="-16" x2="-8.664" y1="12" y2="13.988" gradientTransform="translate(2 -50)" gradientUnits="userSpaceOnUse"/><linearGradient xlink:href="#b" id="h" x1="-16" x2="-8.664" y1="12" y2="13.192" gradientTransform="translate(-26 -22)" gradientUnits="userSpaceOnUse"/><linearGradient xlink:href="#c" id="i" x1="34" x2="43" y1="9" y2="18" gradientTransform="translate(2 -2)" gradientUnits="userSpaceOnUse"/><linearGradient xlink:href="#c" id="g" x1="9.246" x2="18" y1="33.122" y2="41.875" gradientTransform="translate(-2 2)" gradientUnits="userSpaceOnUse"/><linearGradient xlink:href="#c" id="e" x1="21" x2="31" y1="21" y2="31" gradientUnits="userSpaceOnUse"/><linearGradient xlink:href="#c" id="k" x1="21" x2="31" y1="21" y2="31" gradientTransform="translate(-7 7)" gradientUnits="userSpaceOnUse"/><linearGradient xlink:href="#b" id="l" x1="-16" x2="-8.664" y1="12" y2="9.744" gradientTransform="translate(-19 5)" gradientUnits="userSpaceOnUse"/><linearGradient xlink:href="#c" id="m" x1="21" x2="31" y1="21" y2="31" gradientTransform="translate(7 -7)" gradientUnits="userSpaceOnUse"/><linearGradient xlink:href="#b" id="n" x1="-16" x2="-8.664" y1="12" y2="9.744" gradientTransform="translate(-5 19)" gradientUnits="userSpaceOnUse"/></defs><rect width="42" height="42" x="3" y="3" rx="2.1" ry="2.1" style="opacity:1;fill:url(#d);fill-opacity:1;stroke:none;stroke-width:2;stroke-linecap:round;stroke-linejoin:round;stroke-miterlimit:4;stroke-dasharray:none;stroke-opacity:1"/><path d="m10 3-7 7 7 7 7-7zm7 7 7 7 7-7-7-7zm14 0 7 7 7-7-7-7zm7 7-7 7 7 7 7-7zm0 14-7 7 7 7 7-7zm-7 7-7-7-7 7 7 7zm-14 0-7-7-7 7 7 7zm-7-7 7-7-7-7-7 7zm7-7 7 7 7-7-7-7z" style="opacity:1;fill:#d4ba94;fill-opacity:1;stroke:none;stroke-width:2;stroke-linecap:round;stroke-linejoin:round;stroke-miterlimit:4;stroke-dasharray:none;stroke-opacity:0"/><path d="m26.52 20.908-2.516.488-3.018 3.194-.056 1.967L38.373 44H42c1.108 0 2-.892 2-2v-3.611z" style="opacity:.3;fill:url(#e);fill-opacity:1;stroke:none;stroke-width:2;stroke-linecap:round;stroke-linejoin:round;stroke-miterlimit:4;stroke-dasharray:none;stroke-opacity:0"/><rect width="8" height="8" x="-28" y="20" rx="4" ry="4" style="fill:url(#f);fill-opacity:1;stroke:none" transform="rotate(-90)"/><path d="m12.367 34.75-2.515.488-3.018 3.194-.057 1.966L11.38 45h11.238z" style="opacity:.3;fill:url(#g);fill-opacity:1;stroke:none;stroke-width:2;stroke-linecap:round;stroke-linejoin:round;stroke-miterlimit:4;stroke-dasharray:none;stroke-opacity:0"/><rect width="8" height="8" x="-42" y="-14" rx="4" ry="4" style="fill:url(#h);fill-opacity:1;stroke:none" transform="scale(1 -1)rotate(90)"/><path d="m40.514 6.889-2.516.488-3.018 3.193-.056 1.967L45 22.613V11.375z" style="opacity:.3;fill:url(#i);fill-opacity:1;stroke:none;stroke-width:2;stroke-linecap:round;stroke-linejoin:round;stroke-miterlimit:4;stroke-dasharray:none;stroke-opacity:0"/><rect width="8" height="8" x="-14" y="-42" rx="4" ry="4" style="fill:url(#j);fill-opacity:1;stroke:none" transform="scale(1 -1)rotate(90)"/><path d="M3 41.9v1c0 1.164.936 2.1 2.1 2.1h37.8c1.164 0 2.1-.936 2.1-2.1v-1c0 1.164-.936 2.1-2.1 2.1H5.1C3.936 44 3 43.064 3 41.9" style="opacity:.15;fill:#000;fill-opacity:1;stroke:none;stroke-width:2;stroke-linecap:round;stroke-linejoin:round;stroke-miterlimit:4;stroke-dasharray:none;stroke-opacity:1"/><path d="m19.52 27.908-2.516.488-3.018 3.194-.056 1.967L25.373 45h11.238z" style="opacity:.3;fill:url(#k);fill-opacity:1;stroke:none;stroke-width:2;stroke-linecap:round;stroke-linejoin:round;stroke-miterlimit:4;stroke-dasharray:none;stroke-opacity:0"/><rect width="8" height="8" x="-35" y="13" rx="4" ry="4" style="fill:url(#l);fill-opacity:1;stroke:none" transform="rotate(-90)"/><path d="m33.52 13.908-2.516.488-3.018 3.194-.056 1.967L45 36.627V25.389z" style="opacity:.3;fill:url(#m);fill-opacity:1;stroke:none;stroke-width:2;stroke-linecap:round;stroke-linejoin:round;stroke-miterlimit:4;stroke-dasharray:none;stroke-opacity:0"/><rect width="8" height="8" x="-21" y="27" rx="4" ry="4" style="fill:url(#n);fill-opacity:1;stroke:none" transform="rotate(-90)"/></svg>