<svg xmlns="http://www.w3.org/2000/svg" width="22" height="22"><path d="M7 4v1H6S4 5 4 7v9c0 3 3 3 3 3h8s3 0 3-3V7c0-2-2-2-2-2h-1V4c-.014-.516-.394-1.032-1-1H8c-.562.036-.966.409-1 1M5 7c0-1 1-1 1-1v2h10V6s1 0 1 1v9c0 2-2 2-2 2H7s-2 0-2-2zm2 2v1h8V9Zm0 3v1h6v-1zm0 3v1h3v-1z" style="color:#fcfcfc;opacity:1;fill:currentColor;fill-opacity:1;stroke:none"/><path d="M0 0h22v22H0z" style="opacity:1;fill:none;fill-opacity:1;stroke:none;stroke-width:.1;stroke-linecap:square;stroke-linejoin:miter;stroke-miterlimit:4;stroke-dasharray:none;stroke-dashoffset:0;stroke-opacity:1"/></svg>