<svg xmlns="http://www.w3.org/2000/svg" width="48" height="48"><defs><linearGradient id="a" x2="0" y1="543.8" y2="503.8" gradientTransform="matrix(1.125 0 0 .925 -51.07 40.785)" gradientUnits="userSpaceOnUse"><stop stop-color="#bd8d48"/><stop offset="1" stop-color="#e8b971"/></linearGradient><linearGradient id="d" x2="0" y1="541.8" y2="505.8" gradientTransform="matrix(1 0 0 .91667 0 45.15)" gradientUnits="userSpaceOnUse"><stop stop-color="#f2f2f2"/><stop offset="1" stop-color="#fff"/></linearGradient><linearGradient id="b" x2="0" y1="542.8" y2="504.8" gradientTransform="matrix(1 0 0 .92105 0 42.852)" gradientUnits="userSpaceOnUse"><stop stop-color="#977a5c"/><stop offset="1" stop-color="#9d8062"/></linearGradient><linearGradient id="e" x1="391.57" x2="418.57" y1="504.8" y2="531.8" gradientUnits="userSpaceOnUse"><stop stop-color="#383e51"/><stop offset="1" stop-color="#655c6f" stop-opacity="0"/></linearGradient></defs><g transform="translate(-384.57 -499.8)"><rect width="36" height="37" x="390.57" y="506.8" fill="url(#a)" rx="2.602" ry="3"/><rect width="34" height="35" x="391.57" y="507.8" fill="url(#b)" opacity=".5" rx="2" ry="2"/><rect width="32" height="33" x="392.57" y="508.8" fill="url(#d)" rx="1" ry="1"/><g stroke-width=".1"><path fill="#afc0c6" d="m404.57 503.8-2 2h-7v4h26v-4h-7l-2-2Zm4 1c.554 0 1 .446 1 1s-.446 1-1 1-1-.446-1-1 .446-1 1-1"/><path fill="#96aab5" d="M395.57 508.8h26v1h-26z"/><g fill="#d1dbdf"><path d="M395.57 512.8h18v1h-18zM395.57 516.8h8v1h-8zM395.57 520.8h18v1h-18zM395.57 524.8h13v1h-13zM395.57 536.8h10v1h-10z"/></g></g><rect width="30" height="1" x="393.57" y="542.8" fill="#aa7f41" ry=".407"/><path fill="url(#e)" fill-rule="evenodd" d="m421.57 509.8 5 5v29-3l-31-31z" opacity=".2"/><g fill="#2d2110" fill-opacity=".314"><rect width="30" height="2" x="393.57" y="539.8" ry=".976"/><rect width="28" height="1" x="394.57" y="540.8" ry=".386"/></g></g></svg>