<svg xmlns="http://www.w3.org/2000/svg" xmlns:xlink="http://www.w3.org/1999/xlink" width="48" height="48"><defs><linearGradient id="e" x2="0" y1="536.8" y2="503.8" gradientUnits="userSpaceOnUse"><stop stop-color="#2a2c2f"/><stop offset="1" stop-color="#424649"/></linearGradient><linearGradient id="d" x2="0" y1="547.8" y2="536.8" gradientTransform="matrix(1 0 0 .54545 0 244)" gradientUnits="userSpaceOnUse"><stop stop-color="#c6cdd1"/><stop offset="1" stop-color="#e0e5e7"/></linearGradient><linearGradient id="b" x1="42.799" x2="11.999" y1="5.342" y2="31.357" gradientTransform="translate(-9.995 -40.003)" gradientUnits="userSpaceOnUse"><stop stop-color="#1abc9c"/><stop offset="1" stop-color="#2980b9"/></linearGradient><linearGradient id="c" x1="29.855" x2="54.32" y1="22.346" y2="28.506" gradientTransform="translate(-9.995 -40.003)" gradientUnits="userSpaceOnUse"><stop stop-color="#cc4a5e"/><stop offset="1" stop-color="#aa478a"/></linearGradient><linearGradient id="a" x1="24.392" x2="20.643" y1="41.22" y2="25.343" gradientUnits="userSpaceOnUse"><stop stop-color="#334545"/><stop offset="1" stop-color="#536161"/></linearGradient><linearGradient xlink:href="#a" id="i" x1="431.57" x2="439.57" y1="568.8" y2="562.8" gradientTransform="matrix(-.91667 0 0 .91667 803.264 7.316)" gradientUnits="userSpaceOnUse"/><linearGradient xlink:href="#a" id="j" x1="56.03" x2="40.647" y1="40.899" y2="32.475" gradientTransform="translate(374.575 499.797)" gradientUnits="userSpaceOnUse"/><linearGradient xlink:href="#a" id="k" x1="60.895" x2="53.41" y1="32.15" y2="27.06" gradientTransform="translate(354.573 499.797)" gradientUnits="userSpaceOnUse"/><linearGradient xlink:href="#a" id="l" x1="33.32" x2="24.78" y1="36.527" y2="31.348" gradientTransform="translate(374.575 499.797)" gradientUnits="userSpaceOnUse"/><linearGradient xlink:href="#a" id="m" x1="34" x2="40.25" y1="36.765" y2="49.571" gradientTransform="translate(374.575 499.797)" gradientUnits="userSpaceOnUse"/><linearGradient xlink:href="#a" id="h" x1="24.392" x2="20.643" y1="41.22" y2="25.343" gradientTransform="translate(374.575 499.797)" gradientUnits="userSpaceOnUse"/><linearGradient xlink:href="#b" id="f" x1="42.799" x2="11.999" y1="5.342" y2="31.357" gradientTransform="translate(374.575 499.797)" gradientUnits="userSpaceOnUse"/><linearGradient xlink:href="#c" id="g" x1="29.855" x2="54.32" y1="22.346" y2="28.506" gradientTransform="translate(374.575 499.797)" gradientUnits="userSpaceOnUse"/></defs><g transform="translate(-384.57 -499.8)"><path d="M402.57 536.8v6h12v-6z" style="fill:url(#d)"/><rect width="48" height="36" x="384.57" y="503.8" rx="5" ry="5" style="fill:url(#e)"/><path d="M389.578 505.8a2.987 2.987 0 0 0-3.004 2.99v27.008h44v-27.002a2.98 2.98 0 0 0-.875-2.119 3 3 0 0 0-2.129-.877z" style="fill:url(#f)"/><path d="m429.322 506.52-29.027 16.759 21.681 12.519h8.6v-3l-.002-24.002a2.98 2.98 0 0 0-.875-2.119c-.096-.096-.268-.074-.377-.156z" style="fill:url(#g)"/><path d="m400.325 523.213-13.75 7.94v4.644h35.605z" style="fill:url(#h)"/><path d="m407.896 527.59-7.571-4.37v8.741z" style="fill:url(#i)"/><path d="M415.466 531.957v3.844h6.656z" style="fill:url(#j)"/><path d="M407.893 527.584v8.213h.916l6.654-3.842z" style="fill:url(#k)"/><path d="M400.325 531.957v3.842h6.654z" style="fill:url(#l)"/><path d="m415.466 531.957-6.656 3.844h6.656z" style="fill:url(#m)"/><path d="M430.574 508.796a2.98 2.98 0 0 0-.875-2.119c-.095-.095-.266-.073-.373-.154l-29.03 16.76 30.278-8.942z" style="fill:#aa478a"/><path d="M397.57 541.8h22v2h-22z" style="fill:#99a1a7"/><path d="M388.57 507.8v5h1v-4h4v-1zm35 0v1h4v4h1v-5zm-17 5c-3.324 0-6 2.676-6 6s2.676 6 6 6a5.98 5.98 0 0 0 3.875-1.418l5.418 5.418.707-.707-5.418-5.418a5.98 5.98 0 0 0 1.418-3.875c0-3.324-2.676-6-6-6m0 1c2.77 0 5 2.23 5 5s-2.23 5-5 5-5-2.23-5-5 2.23-5 5-5m-18 15v5h5v-1h-4v-4zm39 0v4h-4v1h5v-5z" style="fill:#fff"/></g></svg>