<svg xmlns="http://www.w3.org/2000/svg" xmlns:xlink="http://www.w3.org/1999/xlink" width="100" height="100" version="1.0"><defs><linearGradient id="f"><stop offset="0" style="stop-color:#9f1701;stop-opacity:1"/><stop offset="1" style="stop-color:#9f1701;stop-opacity:0"/></linearGradient><linearGradient id="e"><stop offset="0" style="stop-color:#0c0000;stop-opacity:1"/><stop offset="1" style="stop-color:#3b0300;stop-opacity:0"/></linearGradient><linearGradient id="d"><stop offset="0" style="stop-color:#600b01;stop-opacity:1"/><stop offset="1" style="stop-color:#600b01;stop-opacity:0"/></linearGradient><linearGradient id="c"><stop offset="0" style="stop-color:#ffebf2;stop-opacity:1"/><stop offset="1" style="stop-color:#fe005d;stop-opacity:0"/></linearGradient><linearGradient id="a"><stop offset="0" style="stop-color:#600b01;stop-opacity:1"/><stop offset=".057" style="stop-color:#9f1701;stop-opacity:1"/><stop offset=".432" style="stop-color:#6d0d00;stop-opacity:1"/><stop offset=".5" style="stop-color:#9f1701;stop-opacity:1"/><stop offset=".614" style="stop-color:#6d0d00;stop-opacity:1"/><stop offset=".949" style="stop-color:#540800;stop-opacity:1"/><stop offset="1" style="stop-color:#3b0300;stop-opacity:1"/></linearGradient><linearGradient xlink:href="#d" id="A" x1="70.85" x2="72.239" y1="41.931" y2="41.931" gradientTransform="matrix(.90176 0 0 .82724 -146.076 16.74)" gradientUnits="userSpaceOnUse" spreadMethod="reflect"/><linearGradient xlink:href="#d" id="z" x1="70.85" x2="72.239" y1="41.931" y2="41.931" gradientTransform="matrix(.82724 0 0 .90176 16.032 6.792)" gradientUnits="userSpaceOnUse" spreadMethod="reflect"/><linearGradient xlink:href="#e" id="o" x1="83.573" x2="69.403" y1="44.367" y2="46.034" gradientTransform="matrix(.82724 0 0 .90176 16.032 6.792)" gradientUnits="userSpaceOnUse"/><linearGradient xlink:href="#d" id="k" x1="76.406" x2="28.618" y1="87.775" y2="38.875" gradientTransform="matrix(.82724 0 0 .90176 16.032 6.792)" gradientUnits="userSpaceOnUse"/><linearGradient xlink:href="#a" id="j" x1="78.85" x2="43.564" y1="16.027" y2="96.22" gradientTransform="matrix(.82724 0 0 .90176 16.032 6.792)" gradientUnits="userSpaceOnUse"/><linearGradient xlink:href="#a" id="p" x1="53.262" x2="21.691" y1="8.855" y2="90.266" gradientTransform="matrix(.82724 0 0 .90176 4.063 -1.182)" gradientUnits="userSpaceOnUse"/><linearGradient xlink:href="#c" id="y" x1="23.825" x2="25.352" y1="11.479" y2="15.086" gradientUnits="userSpaceOnUse"/><linearGradient xlink:href="#c" id="x" x1="23.825" x2="25.352" y1="11.479" y2="15.086" gradientUnits="userSpaceOnUse"/><linearGradient xlink:href="#c" id="v" x1="23.825" x2="25.352" y1="11.479" y2="15.086" gradientUnits="userSpaceOnUse"/><linearGradient xlink:href="#a" id="h" x1="78.85" x2="43.564" y1="16.027" y2="96.22" gradientTransform="translate(12.83 8.792)scale(.90176)" gradientUnits="userSpaceOnUse"/><radialGradient xlink:href="#f" id="B" cx="87.172" cy="84.32" r="35.225" fx="87.172" fy="84.32" gradientTransform="matrix(1.96222 0 0 2.35682 -82.906 -109.647)" gradientUnits="userSpaceOnUse"/><radialGradient xlink:href="#d" id="n" cx="62.575" cy="56.654" r="32.273" fx="62.575" fy="56.654" gradientTransform="matrix(.62304 .29489 -.52934 1.32895 63.718 -36.095)" gradientUnits="userSpaceOnUse"/><radialGradient xlink:href="#e" id="m" cx="208.51" cy="106.87" r="41.786" fx="208.51" fy="106.87" gradientTransform="matrix(0 .33215 -1.18809 0 166.63 20.545)" gradientUnits="userSpaceOnUse"/><radialGradient xlink:href="#f" id="l" cx="71.398" cy="88.997" r="41.786" fx="71.398" fy="88.997" gradientTransform="matrix(.22318 -.33527 .23031 .18218 45.293 92.314)" gradientUnits="userSpaceOnUse"/><radialGradient xlink:href="#a" id="s" cx="85.843" cy="-8.904" r="35" fx="85.843" fy="-8.904" gradientTransform="matrix(.00922 .9017 -1.42645 .01733 50.985 -12.024)" gradientUnits="userSpaceOnUse"/><radialGradient xlink:href="#c" id="t" cx="19.31" cy="20.236" r="29.266" fx="19.31" fy="20.236" gradientTransform="matrix(0 2.1008 -1.76094 0 52.83 -30.655)" gradientUnits="userSpaceOnUse"/><filter id="w"><feGaussianBlur stdDeviation=".702"/></filter><filter id="i" width="1.225" height="1.205" x="-.113" y="-.102"><feGaussianBlur stdDeviation="3.538"/></filter><filter id="q"><feGaussianBlur stdDeviation=".351"/></filter><filter id="r"><feGaussianBlur stdDeviation=".352"/></filter><filter id="C"><feGaussianBlur stdDeviation=".495"/></filter><filter id="u"><feGaussianBlur stdDeviation=".607"/></filter></defs><path d="m24.022 12.63 51.996-3.67c1.676-.906 6.031 2.435 10 3.67 1.08.438 2.175.969 2.175 2.173v74.825a2.17 2.17 0 0 1-2.174 2.174h-63.8c-1.205 0-2.35-1.596-3.352-2.425-5.02-4.837-5.95-4.377-6.037-6.994l7.214-67.58c0-1.204 2.773-2.174 3.978-2.174" style="fill:url(#h);fill-opacity:1;fill-rule:nonzero;stroke:none;stroke-width:1;stroke-linecap:butt;stroke-linejoin:round;stroke-miterlimit:4;stroke-dashoffset:0;stroke-opacity:1;filter:url(#i)" transform="matrix(.94335 0 0 1 3.929 0)"/><path d="m26.299 10.63 47.7-3.67c1.537-.906 5.532 2.435 9.174 3.67.99.438 1.994.969 1.994 2.173v74.825c0 1.204-.89 2.174-1.994 2.174H24.645c-1.105 0-2.155-1.596-3.075-2.425-4.605-4.837-5.458-4.377-5.538-6.994l6.618-67.58c0-1.204 2.544-2.174 3.649-2.174" style="fill:url(#j);fill-opacity:1;fill-rule:nonzero;stroke:none;stroke-width:1;stroke-linecap:butt;stroke-linejoin:round;stroke-miterlimit:4;stroke-dashoffset:0;stroke-opacity:1"/><path d="M73.998 6.96c1.538-.906 5.533 2.435 9.175 3.67.99.438 1.994.969 1.994 2.173v74.825c0 1.204-.89 2.174-1.994 2.174H24.645c-1.105 0-2.155-1.596-3.075-2.425-4.605-4.837-5.458-4.377-5.538-6.994z" style="fill:url(#k);fill-opacity:1;fill-rule:nonzero;stroke:none;stroke-width:1;stroke-linecap:butt;stroke-linejoin:round;stroke-miterlimit:4;stroke-dashoffset:0;stroke-opacity:1"/><path d="M72.669 7.314c1.538-.905 5.533.631 9.174 1.866.99.439 1.995.97 1.995 2.174V86.18c0 1.204-.89 2.174-1.995 2.174H23.315c-1.105 0-2.155-1.596-3.074-2.425-4.606-4.837-3.804-4.377-3.884-6.994z" style="fill:url(#l);fill-opacity:1;fill-rule:nonzero;stroke:none;stroke-width:1;stroke-linecap:butt;stroke-linejoin:round;stroke-miterlimit:4;stroke-dashoffset:0;stroke-opacity:1"/><path d="M73.998 6.96c1.538-.906 5.533 2.435 9.175 3.67.99.438 1.994.969 1.994 2.173v74.825c0 1.204-.89 2.174-1.994 2.174H24.645c-1.105 0-2.155-1.596-3.075-2.425-4.605-4.837-5.458-4.377-5.538-6.994z" style="fill:url(#m);fill-opacity:1;fill-rule:nonzero;stroke:none;stroke-width:1;stroke-linecap:butt;stroke-linejoin:round;stroke-miterlimit:4;stroke-dashoffset:0;stroke-opacity:1"/><path d="M72.905 15.782c-4.156.957 4.356 6.278-.252 3.964-.942-1.04-4.627-.718-1.963.566 3.481 1.08 7.152 2.568 8.766 6.448 1.833 1.858 1.904 6.913 4.534 6.85.24-2.964-2.209-5.62-3.32-8.28-1.533-3.21 1.883 2.504 2.28 3.61.957 1.357 2.593 6.9 2.23 2.476 1.008-2.484-3.364-5.476-1.91-6.902 2.197 1.093 2.146-.799.108-.994-3.516-.373-3.9-5.887-7.432-6.819-1.517.335-1.853.147-3.04-.92m1.293 1.747c1.741.589 4.59 3.613 4.304 4.478-1.536-1.372-2.924-2.925-4.304-4.478m-2.973 16.063c-2.255-.258-1.938 1.533.051 1.316 2.765 1.403 4.619 4.265 6.102 7.067-2.727-1.797-5.432-6.6-8.94-4.976 2.59 1.809 5.382 3.827 7.913 6.052 1.375.568 4.756 4.481 1.385 2.859-3.825-1.449-7.143-4.044-10.496-6.45-3.324.27 1.995 3.044 2.909 3.87 3.094 2.272 6.629 3.756 10.253 4.662-1.47 1.388-4.831-1.262-7.013-1.265-1.249-.861-4.387.232-1.334.785 4.055 1.04 8.056 2.374 12.1 3.33 2.115.295.996-4.039-.948-3.62-2.925-2.771-3.859-7.195-6.71-10.08-1.33-1.747-3.028-3.595-5.272-3.55m11.84 15.527c.733.143-.117.47 0 0m-15.873.676c-2.87 1.667 4.299 1.487 5.697 1.822 4.122.439 8.231 1.082 12.27 2.095-1.16-2.664-4.962-1.265-7.217-2.3-3.588-.499-7.188-.92-10.75-1.617m-4.627 5.27c-.767 2.272 4.08 2.401 5.41 3.915 3.678 1.892 7.41 3.733 11.367 4.82.187 2.013 2.942 5.242 1.939 6.28-4.528-1.583-8.716-4.187-12.411-7.419-3.307-.166 1.138 2.923 2.212 3.656 4.301 3.094 9.27 4.756 14.077 6.642.57-1.549-1.821-1.664-1-3.16-1.328-2.01-3.678-6.61.478-5.64 1.025-1.337-4.095-.008-4.077-2.452-1.124-2.313-5.764-5.12-6.757-2.91 1.373.448 4.812 2.602 3.938 3.292-5.172-1.68-9.807-4.863-14.777-7.011-.132-.03-.267-.005-.4-.013m6.747 11.3c-2.994 1.303 2.857 1.67 3.438 3.156 4.986 3.674 8.675 8.955 12.409 14.006.77-4.034-3.03-6.238-4.9-9.113-2.963-3.318-6.25-6.82-10.454-8.052zm-16.83 6.481c-1.712 1.018-1.181 5.051-3.533 2.207-1.837-2.007-3.17.633-1.097 1.9.523 2.045.082 3.98 1.62 5.885 1.532 2.29 2.404 6.2 4.892 6.973 1.976.293 3.123-.02 1.624-2.061-1.364-3.227 1.919 1.7 3.064 1.812 1.415.91 3.63-.06 1.138-1.088-2.496-1.562-4.325-4.072-6.225-6.377-1.495-1.582-1.037-4.776 1.43-3.02 3.683 1.36 7.407 2.637 10.41 5.506 3.164 2.02 6.327 4.319 9.947 5.228 1.321.223 3.022-.156.776-.627-3.32-.787-5.692-3.497-8.335-5.566-3.169-2.403-7.044-3.438-9.878-6.385-1.917-1.377-3.662-3.636-5.832-4.387m-20.5.846c-.545 2.702 3.893 3.546 5.192 5.614 4.383 3.586 8.838 7.065 13.318 10.505 3.974.42-1.167-2.093-2.136-3.209-5.286-4.08-10.386-8.467-15.547-12.711-.244-.195-.543-.152-.827-.2m21.199.93c1.24 1.21 4.606 3.396 4.464 3.977-1.772-.72-5.879-.656-4.464-3.977m7.031 0c-1.17 1.418 1.998 3.097 2.742 4.11 5.762 3.172 10.673 7.85 16.406 11.079 4.134.351-1.305-1.835-2.383-2.828a99 99 0 0 1-6.398-4.527c2.498-1.256-2.891-2.17-3.752-3.043-2.331-1.373-4.168-3.632-6.615-4.791m-9.927 2.902c1.47.127.653 1.935 0 0m.026 2.621c1.305.747 2.925 5.366 2.394 4.54-.811-1.505-1.64-3-2.394-4.54" style="fill:url(#n);fill-opacity:1;fill-rule:nonzero;stroke:none;stroke-width:1px;stroke-linecap:butt;stroke-linejoin:miter;stroke-opacity:1"/><path d="M73.998 6.96c1.538-.906 5.533 2.435 9.175 3.67.99.438 1.994.969 1.994 2.173v74.825c0 1.204-.89 2.174-1.994 2.174H24.645c-1.105 0-2.155-1.596-3.075-2.425-4.605-4.837-5.458-4.377-5.538-6.994z" style="fill:url(#o);fill-opacity:1;fill-rule:nonzero;stroke:none;stroke-width:1;stroke-linecap:butt;stroke-linejoin:round;stroke-miterlimit:4;stroke-dashoffset:0;stroke-opacity:1"/><rect width="58.783" height="75.763" x="16.034" y="6.803" rx="2.411" ry="2.411" style="fill:url(#p);fill-opacity:1;fill-rule:nonzero;stroke:none;stroke-width:1;stroke-linecap:butt;stroke-linejoin:round;stroke-miterlimit:4;stroke-dasharray:none;stroke-dashoffset:0;stroke-opacity:1"/><path d="M24.976 6.792c-.257.288-.441.752-.536 1.466 7.76 2.446 15.981 3.48 23.84 5.749 2.158.617 8.685 2.996 3.1 2.451-12.956-1.617-25.987-3.983-38.212-8.68-.22.341-.338.775-.338 1.212v.649c3.731 1.084 8.295.858 11.413 3.325 5.785 2.489 12.2 4.239 17.02 8.398-7.302-1.853-14.503-4.637-21.951-6.172-1.485-.968-4.218-2.523-6.482-3.325v2.226c9.466 3.513 17.949 9.424 27.278 13.301 8.637 4.419 17.088 9.295 24.77 15.245-3.379-4.407-8.884-6.32-13.244-9.553-9.785-5.802-20.11-10.616-29.983-16.26 5.8-.084 10.883 3.351 16.485 4.397 10.657 3.472 18.608 11.644 27.532 18.007 3.741 2.842 7.48 5.669 11.244 8.482v-.705c-1.668-1.16-3.287-2.38-4.763-3.776-7.633-5.714-15.167-11.564-22.628-17.5 9.008 3.121 17.132 8.842 26.742 10.117.176.184.41.326.649.45V35.03c-9.64-1.873-18.336-6.888-27.476-10.314-7.233-3.72-13.567-9.173-21.445-11.61-3.624-1.432 4.139.989 5.608 1.042 8.609 1.702 17.365 2.512 25.982 4.171 1.517 1.68 8.864 4.14 4.34.845 3.749-1.797 8.62 1.584 12.68 2.199.09.052.208.12.31.169v-1.748c-6.15-1.69-12.82-.983-18.908-3.156-7.977-2.565-15.898-5.366-24.15-6.932-2.048.425-4.736-1.963-6.736-2.903zm15.217 0c3.442 3.093 6.96 6.611 12.174 5.89 5.113-.656 9.74 1.476 14.597 2.564 3.27.713 6.605 1.222 9.948 1.438v-.846c-4.985-.334-9.96-2.21-14.851-2.987-1.984-.778-.556-1.31.704-1.07 4.681.896 9.443 1.38 14.147 2.141v-3.466c-4.899-.364-10.043.973-14.626-1.381-2.371-.684-4.7-1.495-7.045-2.283H50.48c3.438.74 6.993 1.258 9.89 3.326-4.83-.529-9.454-2.125-14.146-3.326zm4.227 1.24c1.924.109 9.808 2.442 6.369 3.664-2.46-.33-5.147-1.334-6.369-3.664m10.821 2.34c3.707-.019 3.202 1.812 0 0m16.09.76c2.568-.046 6.069.17 4.481 1.268-2.208-.11-4.415-.424-6.51-1.155a22 22 0 0 1 2.03-.113m-58.5 14.654v1.888c3.414 2.894 8.88 3.483 11.948 7.045 4.935 3.169 9.723 6.552 14.484 9.976-9.297-3.967-18.396-8.616-26.433-14.795v2.48c2.07 2.2 7.36 2.958 9.384 5.157 1.783.898 7.394 3.631 2.762 1.55-4.08-1.816-8.097-3.81-12.146-5.693v.874c4.97 2.86 10.626 4.515 15.725 7.13 11.61 4.294 22.565 10.15 32.914 16.907a432 432 0 0 0 13.836 7.778c-6.87-5.633-15.39-8.653-22.713-13.583-2.325-.961-5.674-4.133-1.127-1.634 5.749 2.75 11.199 6.092 16.795 9.13-2.859-3.864-8.394-4.186-11.554-7.552a4390 4390 0 0 1 20.206 6.735v-1.578c-2.234-.37-4.789-.576-6.144-1.719-12.674-4.219-26.391-7.082-36.86-15.922-6.774-5.065-13.594-10.196-21.078-14.174m.027 22.882-.028.028v4.283c1.894 2.138 5.93 3.978 7.158 6.06 6.853 5.499 15.133 8.788 22.46 13.554-11.086-3.728-20.364-10.839-29.618-17.81v1.268c3.03 1.987 6.201 3.839 8.567 6.594a112 112 0 0 1-8.567-4.509v.93c8.049 4.532 16.28 8.733 24.15 13.555 4.06 2.84 7.9 6.084 11.019 9.947h3.156c-.406-1.408-1.749-3.112-3.156-3.043-1.978-2.274-8.103-5.83-7.975-6.904 6.963 2.749 13.518 6.303 20.036 9.947h1.493c-2.243-1.22-4.165-3.377.141-1.888 4.609.59 9.254 1.863 13.921 1.41-5.255-2.745-11.63-.092-16.908-3.044-12.338-3.833-22.921-11.535-33.788-18.26-4.642-3.338-9.017-7.228-12.06-12.118M12.83 69.52v.648c2.972 5.445 10.333 6.602 13.583 11.892-4.307-2.436-8.747-5.063-13.583-6.284v2.959c2.743 1.564 5.795 2.603 8.68 3.832h8.37c-.19-1.248-1.378-2.636-3.552-3.156-4.483-3.308-8.41-7.48-13.498-9.89m5.1 9.666c.51.178-.505.197 0 0" style="fill:#3b0300;fill-opacity:.51807232999999997;fill-rule:nonzero;stroke:none;stroke-width:1px;stroke-linecap:butt;stroke-linejoin:miter;stroke-opacity:1;filter:url(#q)" transform="matrix(.88495 0 0 .96016 6.755 3.29)"/><path d="M15 6.792c-.52 0-.98.206-1.353.508 7.77 2.92 16.349 2.424 24.207 5.128 2.296.672 8.475 2.484 8.116 2.903-11.226-1.14-22.203-3.828-32.943-7.242-.065.148-.11.315-.14.479 11.278 3.63 22.93 6.186 34.745 7.186 2.464 1.527-3.913-.108-4.96-.057-9.978-1.579-20.252-2.607-29.56-6.82l-.254-.196c-.013.099-.028.206-.028.31v1.69c2.34.727 4.643 1.565 6.876 2.621 12.65 3.894 26.81 3.009 38.353 10.258 6.685 3.502 12.85 7.819 18.853 12.37v-.45c-1.369-.981-2.718-1.967-4.002-3.044C61.52 24.134 48.493 17.3 34.247 16.007c-5.887-.974-11.835-2.097-17.274-4.65 12.348 3.66 25.254 4.796 37.733 7.835 7.183 2.868 13.255 7.821 19.782 11.863.818.57 1.616 1.164 2.424 1.748v-.508c-2.529-1.69-5.088-3.329-7.525-5.1-4.192-2.742-8.481-5.37-12.906-7.722 7.066 1.55 14.846 2.576 20.43 7.58v-1.662c-1.827-1.224-4.36-2.574-5.326-2.846-5.365-2.33-11.288-2.613-16.88-4.142-1.786-1.948 5.311.419 6.933.169 5.154.711 10.312 1.614 15.274 3.212v-.902c-8.745-2.407-17.916-2.645-26.8-4.367 4.426-1.116 9.082.502 13.611.253 4.407.294 8.797.683 13.189 1.156v-.818c-3.472-.634-7.291.2-10.765-.62-6.143-.306-12.296-.538-18.43-.986-9.58-4.172-20.064-5.43-30.153-7.665-.325-.291-1.15-.675-2.085-1.043zm14.766 7.215c7.248 1.477 14.657 1.881 21.896 3.41-4.496.116-8.94-1.521-13.47-1.804-2.826-.44-5.644-.936-8.426-1.606m-16.936 6.48v.593c4.105 1.987 8.591 3.21 12.681 5.241 16.197 6.351 32.976 11.02 49.682 15.81.297.47.974.775 1.719.957v-1.24C56.25 36.764 35.773 30.703 16.325 21.981c-1.166-.494-2.33-.999-3.495-1.493m0 2.875v1.325c2.175 1.064 4.548 1.895 6.453 3.156C33.28 33.717 47.315 39.535 61.16 45.765c5.205 2.234 10.443 4.394 15.753 6.37v-.536c-4.75-2.001-9.814-3.265-14.429-5.608-15.548-6.555-30.854-13.67-46.356-20.318-1.163-.676-2.23-1.49-3.297-2.31m4.143 1.804c5.762 3.165 12.404 4.085 18.486 6.481 13.626 4.38 27.327 8.674 40.382 14.597.2.362.599.654 1.07.902v-1.522c-19.42-8.357-39.952-13.68-59.938-20.458m-4.143.817v2.142c1.219.468 2.233 1.21 2.114 2.761 4.47 7.075 11.034 12.509 15.47 19.614 3.727 4.742 8.194 8.864 12.822 12.709-11.209-8.335-21.385-18.347-28.659-30.35.08-.86-.764-1.822-1.747-2.593v2.65c3.662 4.51 6.512 9.658 10.737 13.723 12.517 13.423 28.07 23.483 43.397 33.365 1.472.882 2.953 1.732 4.452 2.564h1.607c-5.536-3.015-10.942-6.28-16.091-9.919 6.356 3.318 12.873 6.306 19.472 9.102.077-.093.166-.176.226-.282a36 36 0 0 1-2.79-1.324c-12.696-5.168-25.002-11.882-34.774-21.642-4.498-4.21-8.622-8.855-11.977-14.034 9.41 7.068 19.197 13.768 29.9 18.74-10.902-6.05-21.804-12.348-31.196-20.628-3.731-5.173-6.292-11.51-11.807-15.133-.38-.469-.758-.974-1.156-1.465m4.396 6.002c1.473 1.52 3.975 5.606 1.212 1.72a42 42 0 0 1-1.212-1.72m-4.396 5.13v5.212c1.492 1.883 3.127 3.698 4.143 5.665 5.502 6.575 10.897 13.29 15.78 20.317 1.01 2.942-3.496-2.64-4.65-3.325C22.24 59.46 16.589 53.456 13 46.16c.248-.716.122-1.282-.169-1.69v4.085c5.723 9.036 13.78 16.33 21.755 23.361 2.79 2.737 4.13 8.65 6.735 10.652h.958c.033-2.691-6.365-7.287-2.226-7.157 3.969 2.628 8.108 4.976 12.343 7.157h1.268c-1.237-.592-2.44-1.238-3.522-1.972-6.283-3.503-9.516-10.312-15.02-14.738-8.864-8.163-17.48-17.144-22.122-28.462-.05-.098-.116-.184-.169-.282m14.316 22.092c5.684 5.57 11.628 10.97 16.316 17.444-7.873-3.025-10.926-11.68-16.316-17.444m-14.316.677v2.902c1.989 2.923 5.186 5.436 5.58 9.13 1.46 2.087.555 4.754-1.184 1.466-1.218-2.142-2.46-6.675-4.396-8.398v2.31c1.432 2.456 2.325 5.238 4.255 7.44 2.49 3.193 5.644 5.792 9.13 7.834h1.522c-1.022-1.274-4.975-2.967-5.382-5.016-3.406-5.19-4.377-11.691-8.651-16.372-.302-.425-.58-.865-.874-1.296" style="fill:#9f1701;fill-opacity:.53614454;fill-rule:nonzero;stroke:none;stroke-width:1px;stroke-linecap:butt;stroke-linejoin:miter;stroke-opacity:1;filter:url(#r)" transform="matrix(.88495 0 0 1 6.755 0)"/><g style="fill:#44000d;fill-opacity:1;display:inline;stroke:#53000b;stroke-opacity:1;stroke-width:2.48692901;stroke-miterlimit:4;stroke-dasharray:none;stroke-linejoin:round;stroke-linecap:round" transform="matrix(.8042 0 0 .8042 -134.003 -427.004)"><path d="M217.769 549.606c-2.479-.46-.376 1.48.056 2.53 2.284 3.584 1.517 7.972 1.822 11.994.06 1.663.102 3.327.045 4.99-5.076.935-10.137 1.963-15.247 2.696-1.231-.627-1.29-3.006-3.011-2.58-1.47.603-2.958 1.166-4.435 1.753 2.408 2.087 3.5 5.06 4.728 7.895 2.12 4.202 3.997 8.529 5.264 13.065 1.065 3.313 6.11 1.567 3.882-1.68-.722-.907 1.728-.399 2.325-.729 1.944-.264 3.9-.41 5.853-.582-.084 4.973-.238 9.943-.57 14.904.064 4.498-.13 9.011.1 13.5.1 1.084.155 2.33 1.111 3.041 2.463-.987 2.764-4.061 3.14-6.396.576-3.487.275-7.053.465-10.574l.314-15.05c6.006-.648 12.04-1.069 18.026-1.869 1.647-.5 2.25-2.986.193-3.405-2.013-.073.325-1.78.664-2.745 1.481-2.075 2.762-4.332 4.367-6.293 1.288-1.144 3.614-2.172 2.293-4.268-1.235-1.85-3.375-2.816-5.023-4.276-2.385-2.653-5.344-.488-7.671.87-3.932 1.13-8.014 1.454-12.065 1.897.083-4.257.536-8.502.661-12.76.483-1.261 2.39-3.088.12-3.91-2.185-1.456-4.793-2.143-7.407-2.018m21.624 21.168c.471 2.548-.37 5.391-1.008 7.931-.762 1.897-.81 4.927-3.47 4.642-3.715.685-7.487.97-11.233 1.442l.713-12.65c4.997-.509 9.961-1.426 14.998-1.365m-19.95 2.12-.392 12.362-9.761 1.15-3.74-11.607z" style="fill:#44000d;fill-opacity:1;stroke:#53000b;stroke-opacity:1;stroke-width:2.48692901;stroke-miterlimit:4;stroke-dasharray:none;stroke-linejoin:round;stroke-linecap:round"/><use xlink:href="#facesize" width="774" height="1060" style="fill:#44000d;fill-opacity:1;display:inline;stroke:#53000b;stroke-opacity:1;stroke-width:2.48692901;stroke-miterlimit:4;stroke-dasharray:none;stroke-linejoin:round;stroke-linecap:round" transform="translate(172.25 424.5)"/></g><g style="fill:#eeeeec;fill-opacity:1;display:inline" transform="matrix(.8042 0 0 .8042 -132.402 -425.937)"><path d="M217.769 549.606c-2.479-.46-.376 1.48.056 2.53 2.284 3.584 1.517 7.972 1.822 11.994.06 1.663.102 3.327.045 4.99-5.076.935-10.137 1.963-15.247 2.696-1.231-.627-1.29-3.006-3.011-2.58-1.47.603-2.958 1.166-4.435 1.753 2.408 2.087 3.5 5.06 4.728 7.895 2.12 4.202 3.997 8.529 5.264 13.065 1.065 3.313 6.11 1.567 3.882-1.68-.722-.907 1.728-.399 2.325-.729 1.944-.264 3.9-.41 5.853-.582-.084 4.973-.238 9.943-.57 14.904.064 4.498-.13 9.011.1 13.5.1 1.084.155 2.33 1.111 3.041 2.463-.987 2.764-4.061 3.14-6.396.576-3.487.275-7.053.465-10.574l.314-15.05c6.006-.648 12.04-1.069 18.026-1.869 1.647-.5 2.25-2.986.193-3.405-2.013-.073.325-1.78.664-2.745 1.481-2.075 2.762-4.332 4.367-6.293 1.288-1.144 3.614-2.172 2.293-4.268-1.235-1.85-3.375-2.816-5.023-4.276-2.385-2.653-5.344-.488-7.671.87-3.932 1.13-8.014 1.454-12.065 1.897.083-4.257.536-8.502.661-12.76.483-1.261 2.39-3.088.12-3.91-2.185-1.456-4.793-2.143-7.407-2.018m21.624 21.168c.471 2.548-.37 5.391-1.008 7.931-.762 1.897-.81 4.927-3.47 4.642-3.715.685-7.487.97-11.233 1.442l.713-12.65c4.997-.509 9.961-1.426 14.998-1.365m-19.95 2.12-.392 12.362-9.761 1.15-3.74-11.607z" style="fill:#eeeeec;fill-opacity:1"/><use xlink:href="#facesize" width="774" height="1060" style="fill:#eeeeec;fill-opacity:1;display:inline" transform="translate(172.25 424.5)"/></g><path d="M18.824 7.44c-1.289 0-2.352 1.16-2.352 2.565v69.351c0 1.405 1.063 2.564 2.352 2.564h53.202c1.289 0 2.353-1.16 2.353-2.564V10.005c0-1.405-1.064-2.564-2.353-2.564zm0 .902h53.202c.858 0 1.551.728 1.551 1.663v69.351c0 .935-.693 1.69-1.55 1.69H18.823c-.857 0-1.551-.755-1.551-1.69V10.005c0-.935.694-1.663 1.551-1.663" style="fill:url(#s);fill-opacity:1;fill-rule:nonzero;stroke:none;stroke-width:.97125797999999997;stroke-linecap:butt;stroke-linejoin:round;stroke-miterlimit:4;stroke-dasharray:none;stroke-dashoffset:0;stroke-opacity:1"/><path d="M61.781 8.281c-2.26.14-4.708.471-6.531.125H16.875c1.432 5.49 7.854.84 11.5 1.531 12.799 0 26.108-.624 38.906-.624-1.154-1.117-3.24-1.172-5.5-1.032M14.5 10.47v65.594c2.325-3.261.148-10.476.906-15.094 0-16.826 1-31.518 1-48.344z" style="fill:url(#t);fill-opacity:1;fill-rule:evenodd;stroke:none;stroke-width:1px;stroke-linecap:butt;stroke-linejoin:miter;stroke-opacity:1;filter:url(#u)" transform="matrix(.91737 0 0 1 4.262 0)"/><path d="M26.574 12.643a2.749 2.444 0 1 1-5.498 0 2.749 2.444 0 1 1 5.498 0" style="fill:url(#v);fill-opacity:1;fill-rule:nonzero;stroke:none;stroke-width:1;stroke-linecap:butt;stroke-linejoin:round;stroke-miterlimit:4;stroke-dasharray:none;stroke-dashoffset:0;stroke-opacity:1" transform="matrix(.82724 0 0 .59178 3.134 2.39)"/><path d="M73.488 43.937c-.341 1.356-.681 2.831-.87 3.97-.456 2.732-1.138 6.825-6.147 10.013s-46.228 5.933-48.505 5.25-1.368-4.79-2.279-9.117l-.435-1.818v25.803c0 1.095.877 1.972 1.972 1.972h54.292a1.965 1.965 0 0 0 1.972-1.972z" style="fill:#ffcedc;fill-opacity:.53846157;fill-rule:evenodd;stroke:none;stroke-width:1px;stroke-linecap:butt;stroke-linejoin:miter;stroke-opacity:1;filter:url(#w)" transform="matrix(.91737 0 0 1 4.262 0)"/><path d="M26.574 12.643a2.749 2.444 0 1 1-5.498 0 2.749 2.444 0 1 1 5.498 0" style="fill:url(#x);fill-opacity:1;fill-rule:nonzero;stroke:none;stroke-width:1;stroke-linecap:butt;stroke-linejoin:round;stroke-miterlimit:4;stroke-dasharray:none;stroke-dashoffset:0;stroke-opacity:1" transform="matrix(.66002 0 0 .47216 12.594 3.577)"/><path d="M26.574 12.643a2.749 2.444 0 1 1-5.498 0 2.749 2.444 0 1 1 5.498 0" style="fill:url(#y);fill-opacity:1;fill-rule:nonzero;stroke:none;stroke-width:1;stroke-linecap:butt;stroke-linejoin:round;stroke-miterlimit:4;stroke-dasharray:none;stroke-dashoffset:0;stroke-opacity:1" transform="matrix(.37336 0 0 .2671 32.104 5.75)"/><rect width="2.298" height="75.164" x="73.493" y="7.022" rx="2.411" ry="2.411" style="fill:url(#z);fill-opacity:1;fill-rule:nonzero;stroke:none;stroke-width:1;stroke-linecap:butt;stroke-linejoin:round;stroke-miterlimit:4;stroke-dasharray:none;stroke-dashoffset:0;stroke-opacity:1"/><rect width="2.505" height="57.461" x="-83.439" y="16.952" rx="1.116" ry="2.411" style="fill:url(#A);fill-opacity:1;fill-rule:nonzero;stroke:none;stroke-width:1;stroke-linecap:butt;stroke-linejoin:round;stroke-miterlimit:4;stroke-dasharray:none;stroke-dashoffset:0;stroke-opacity:1" transform="rotate(-90)"/><path d="M83.194 13.048V85.95c2.085-2.865.125-6.937.827-10.297V13.048zm-57.287 74.96c2.169 2.228 5.565.178 8.24.901H81.54c-2.169-2.229-5.565-.178-8.24-.902z" style="fill:url(#B);fill-opacity:1;fill-rule:evenodd;stroke:none;stroke-width:1px;stroke-linecap:butt;stroke-linejoin:miter;stroke-opacity:1"/><path d="M42.156 16c-.696.043-.271.684.157 1.313.018-.222.252-.315.937-.188 2.102-.101 4.212.454 5.969 1.625.114.041.223.078.312.125.096-.48-.062-.905-.843-1.187-1.757-1.171-3.867-1.727-5.97-1.625-.248-.047-.418-.072-.562-.063m1.219 3.25c1.083 2.636.662 5.692.875 8.5.048 1.338.077 2.662.031 4-4.082.752-8.171 1.567-12.281 2.156-.99-.504-1.023-2.405-2.406-2.062-1.183.485-2.375.934-3.563 1.406.328.284.633.585.907.906 1.063-.419 2.13-.816 3.187-1.25 1.384-.342 1.416 1.59 2.406 2.094 4.11-.59 8.2-1.436 12.282-2.187.045-1.339.016-2.663-.032-4-.242-3.2.359-6.698-1.406-9.563m18.25 8.594c-1.33.085-2.705 1.036-3.875 1.718-2.98.857-6.053 1.141-9.125 1.47q-.02.562-.031 1.124c3.257-.356 6.525-.622 9.687-1.531 1.872-1.092 4.27-2.82 6.188-.687 1.23 1.09 2.799 1.83 3.812 3.125-.033-.235-.138-.473-.312-.75-.993-1.49-2.706-2.264-4.031-3.438-.72-.8-1.515-1.082-2.313-1.031m-1.406 6.312c.046 1.757-.48 3.618-.907 5.313-.612 1.526-.641 3.948-2.78 3.718-2.783.513-5.631.758-8.438 1.094l-.063 1.125c3.012-.38 6.044-.605 9.032-1.156 2.139.23 2.168-2.193 2.78-3.719.514-2.042 1.192-4.325.813-6.375zm-15.625 1.688c-.187.025-.376.037-.563.062l-.281 8.813c-2.554.3-5.102.605-7.656.906.117.364.226.73.343 1.094 2.617-.309 5.228-.63 7.844-.938zm-15.5 2.031c.251.571.472 1.149.718 1.719 1.705 3.38 3.231 6.883 4.25 10.531.108.333.249.601.438.813-1.018-3.555-2.46-6.981-4.125-10.282-.407-.94-.83-1.86-1.281-2.781m33.219 5.188c-.401.53-.606.966.312 1 .207.042.358.13.5.218.046-.513-.182-1.006-.812-1.218M44.28 48.78c-.188.017-.374.015-.562.032-.071 3.632-.164 7.25-.407 10.874.052 3.618-.123 7.266.063 10.876.07.776.136 1.631.688 2.218-.087-.386-.122-.772-.157-1.156-.186-3.61-.01-7.258-.062-10.875.267-3.99.37-7.97.437-11.969" style="fill:#888a85;fill-opacity:1;filter:url(#C)"/><use xlink:href="#facesize" width="774" height="1060" style="fill:#eeeeec;fill-opacity:1;display:inline" transform="matrix(.8042 0 0 .8042 6.122 -84.552)"/><use xlink:href="#facesize" width="774" height="1060" style="fill:#eeeeec;fill-opacity:1;display:inline" transform="matrix(.8042 0 0 .8042 6.655 -83.485)"/></svg>