<svg xmlns="http://www.w3.org/2000/svg" xmlns:xlink="http://www.w3.org/1999/xlink" width="48" height="48"><defs><linearGradient id="c"><stop stop-color="#eff1f1"/><stop offset="1" stop-color="#cfd5d5"/></linearGradient><linearGradient id="b"><stop/><stop offset="1" stop-opacity="0"/></linearGradient><linearGradient xlink:href="#a" id="f" x2="0" y1="37" y2="4" gradientUnits="userSpaceOnUse"/><linearGradient xlink:href="#b" id="g" x1="20.438" x2="23.531" y1="22.313" y2="25.406" gradientUnits="userSpaceOnUse"/><linearGradient id="a"><stop stop-color="#da4453"/><stop offset="1" stop-color="#ff7336"/></linearGradient><linearGradient xlink:href="#c" id="e" x2="0" y1="16" y2="44" gradientTransform="matrix(1 0 0 1.03571 0 -1.571)" gradientUnits="userSpaceOnUse"/><linearGradient xlink:href="#c" id="d" x2="0" y1="16" y2="44" gradientTransform="translate(21 -7)" gradientUnits="userSpaceOnUse"/></defs><rect width="19" height="28" x="25" y="9" rx="4" ry="4" style="fill:url(#d)"/><path d="M25 25h19v4H25Z" style="fill:#3b85b5"/><path d="M32 22h6v2h-6zm-6-4h4v2h-4zm4 12h6v2h-6zm-4-8h3v2h-3zm11 8h2v2h-2zm-11 0h3v2h-3zm3 4h9v2h-9zm2-12h-1v2h1zm0-4h12v2H31Zm-5-4h9v2h-9zm11 0h-1v2h1zm-11-4h6v2h-6zm10 0h3v2h-3zm-1 0h-2v2h2z" style="fill:#b0b8b8"/><rect width="19" height="29" x="4" y="15" rx="4" ry="4" style="fill:url(#e)"/><path d="M6 17h6v2H6Zm0 8h4v2H6Zm0 4h6v2H6Zm5-4h3v2h-3zm2 4h2v2h-2zm-7 4h3v2H6Zm4 0h9v2h-9zm11 0h-1v2h1zM6 37h2v2H6Zm3 0h4v2H9Zm1 4h6v2h-6z" style="fill:#b0b8b8"/><path d="M4 20h19v4H4Z" style="fill:#3b85b5"/><g style="fill-rule:evenodd"><path d="m33.998 4-2.33 1.143c-2.332 1.144-4.794 3.75-4.794 3.75l.366 2.945c-.138.2-.283.414-.43.629l-1.035-1.857-1.686 2.098 1.19 2.043-.023.033-1.49-1.694s-.972 1.144-3.951 5.402c-2.98 4.26-5.441 9.217-5.441 9.217l.114 3.369c-.16.237-.33.494-.486.724l-.47-2.758-1.036 1.716-.26 1.655-.582.7s-.962 3.598-.777 4.249 2.624-.629 2.624-.629l.128-.857 1.975-.634-2.198-.439.172-.286c.263.08.573.172 1.153.278 1.393.254 2.33-.253 2.33-.253l1.005-1.272s-.777.54-1.651.699c-.862.157-2.326-.205-2.37-.216l.237-.394c.37-.094 3.703-.963 5.662-2.345 2.072-1.462 6.185-5.975 6.185-5.975S25.137 25.03 23 25c-2.014-.03-3.794-.016-4 0 .093-.149 0-1 0-1l8.586-1.344s.552-1.05 1.394-2.734S32 14 32 14s-1.462-.042-2.768-.221a25 25 0 0 1-2.536-.5l.046-.07c.181-.084 1.346-.62 2.216-.891.938-.292 3.8-.697 3.8-.697s.024-.404.23-1.236c.206-.831.618-2.742.618-2.742l-4.98 2.807c.21-.289.407-.545.612-.818l4.551-2.663s.046-.584.138-1.348c.091-.764.071-1.621.071-1.621" style="fill:url(#f)" transform="translate(-1)"/><path d="M33 4s-4.62 4.94-9.222 11.275c-4.602 6.333-9.268 13.499-13.934 21.68C5.792 44.058 7.258 44 7.258 44s.46-1.184 3.678-6.761c3.076-5.332 6.967-12.216 13.474-21.705C27.51 11.012 33 4 33 4" style="fill:#31363b"/><path d="m33.998 4-.707.883-2.577 3.298-3.972 5.028c.182-.084 1.345-.62 2.215-.89.939-.293 3.8-.698 3.8-.698s.025-.405.231-1.236c.206-.832.617-2.742.617-2.742l-4.3 2.408c.21-.288.409-.544.613-.816l3.871-2.266s.045-.584.137-1.348c.091-.764.072-1.621.072-1.621m-7.256 9.209L19 24l8.586-1.344s.552-1.05 1.394-2.734C29.822 18.237 32 14 32 14s-1.462-.04-2.768-.22a25 25 0 0 1-2.537-.5zM19 24l-7.965 13.52c.58.203 2.465-.786 2.465-.786l.129-.855 1.976-.635-2.199-.44.172-.284a9 9 0 0 0 1.154.277c1.393.254 2.329-.252 2.329-.252l1.005-1.274s-.778.54-1.652.7c-.861.156-2.325-.206-2.37-.217l.237-.393c.37-.094 3.703-.963 5.662-2.345 2.073-1.462 6.186-5.975 6.186-5.975S25.137 25.031 23 25c-2.014-.03-3.794-.016-4 0 .093-.149 0-1 0-1" style="opacity:.2;fill:url(#g)" transform="translate(-1)"/></g><path d="M6 21h3v2H6Z" style="fill:#fcfcfc"/><path d="M10 21h6v2h-6zm-4 0h3v2H6Zm31 5h2v2h-2zm-11 0h10v2H26Z" style="fill:#7cbcec"/></svg>