<svg xmlns="http://www.w3.org/2000/svg" xmlns:xlink="http://www.w3.org/1999/xlink" width="48" height="48"><defs><linearGradient id="c" x2="0" y1="44" y2="4" gradientTransform="translate(384.57 499.8)" gradientUnits="userSpaceOnUse"><stop stop-color="#18222a"/><stop offset="1" stop-color="#566069"/></linearGradient><linearGradient id="d" x2="0" y1="540.8" y2="536.8" gradientUnits="userSpaceOnUse"><stop stop-color="#2f3943"/><stop offset="1" stop-color="#4d5662"/></linearGradient><linearGradient id="a" x2="0" y1="537.8" y2="538.8" gradientUnits="userSpaceOnUse"><stop stop-color="#197cf1"/><stop offset="1" stop-color="#21c9fb"/></linearGradient><linearGradient xlink:href="#a" id="l" x2="0" y1="539.8" y2="538.8" gradientTransform="translate(-2 -1078.6)" gradientUnits="userSpaceOnUse"/><linearGradient id="b" x2="0" y1="543.8" y2="503.8" gradientUnits="userSpaceOnUse"><stop stop-color="#2f3943"/><stop offset="1" stop-color="#808c9b"/></linearGradient><linearGradient xlink:href="#b" id="h" x2="0" y1="499.8" y2="547.8" gradientTransform="translate(0 -2)" gradientUnits="userSpaceOnUse"/><linearGradient id="f" x1="13" x2="38" y1="13" y2="39" gradientUnits="userSpaceOnUse"><stop stop-color="#292c2f"/><stop offset="1" stop-opacity="0"/></linearGradient><linearGradient xlink:href="#c" id="e" x2="0" y1="44" y2="4" gradientTransform="translate(384.57 499.8)" gradientUnits="userSpaceOnUse"/><linearGradient xlink:href="#a" id="j" x2="0" y1="537.8" y2="538.8" gradientTransform="translate(2)" gradientUnits="userSpaceOnUse"/><linearGradient xlink:href="#d" id="i" x2="0" y1="540.8" y2="536.8" gradientTransform="translate(2)" gradientUnits="userSpaceOnUse"/><linearGradient xlink:href="#d" id="k" x2="0" y1="540.8" y2="536.8" gradientTransform="translate(-2)" gradientUnits="userSpaceOnUse"/><linearGradient xlink:href="#b" id="g" x2="0" y1="543.8" y2="503.8" gradientTransform="translate(0 -2)" gradientUnits="userSpaceOnUse"/></defs><g transform="translate(-384.57 -499.8)"><path d="M396.57 503.8a5.98 5.98 0 0 0-5.53 3.66 6 6 0 0 0-.47 2.34v28a5.98 5.98 0 0 0 3.66 5.53 6 6 0 0 0 2.34.47h24a5.98 5.98 0 0 0 5.53-3.66 6 6 0 0 0 .47-2.34v-28a5.98 5.98 0 0 0-3.66-5.53 6 6 0 0 0-2.34-.47z" style="fill:url(#e)"/><path d="m34.605 13.395-21.21 21.21L22.788 44h19.213V20.79Z" style="opacity:.2;fill:url(#f)" transform="translate(384.57 499.8)"/><rect width="30" height="30" x="393.57" y="506.8" rx="15" style="fill:#26333a"/><rect width="28" height="28" x="394.57" y="507.8" rx="14" style="fill:url(#g)"/><rect width="22" height="22" x="397.57" y="510.8" rx="11" style="fill:url(#h)"/><rect width="10" height="10" x="403.57" y="516.8" rx="5" style="fill:#26333a"/><path d="M392.158 541.8c.066.073.096.176.166.246a5.98 5.98 0 0 0 4.246 1.754h24a5.98 5.98 0 0 0 4.246-1.754c.07-.07.1-.173.166-.246z" style="fill:#13191f"/><rect width="4" height="4" x="393.57" y="536.8" rx="2" style="fill:url(#i)"/><circle cx="396.67" cy="538.3" r=".5" style="fill:url(#j)"/><rect width="4" height="4" x="419.57" y="536.8" rx="2" style="fill:url(#k)"/><circle cx="422.67" cy="-539.3" r=".5" style="fill:url(#l)" transform="scale(1 -1)"/></g></svg>