<svg xmlns="http://www.w3.org/2000/svg" xmlns:xlink="http://www.w3.org/1999/xlink" width="48" height="48"><defs><linearGradient id="a" x2="0" y1="44" y2="4" gradientTransform="translate(-60)" gradientUnits="userSpaceOnUse"><stop stop-color="#42a603"/><stop offset="1" stop-color="#78da06"/></linearGradient><linearGradient id="c" x1="398.57" x2="418.57" y1="514" y2="534" gradientTransform="translate(-384.57 -499.8)" gradientUnits="userSpaceOnUse"><stop stop-color="#383e51"/><stop offset="1" stop-color="#655c6f" stop-opacity="0"/></linearGradient><linearGradient id="d" x2="0" y1="19.04" y2="3.036" gradientTransform="translate(13 7.96)" gradientUnits="userSpaceOnUse"><stop stop-color="#bcfd93"/><stop offset="1" stop-color="#fafff5"/></linearGradient><linearGradient xlink:href="#a" id="b" x2="0" y1="44" y2="4" gradientUnits="userSpaceOnUse"/></defs><path d="M12.953 4c-1.24 0-2.42.25-3.492.701a8.9 8.9 0 0 0-2.844 1.916 8.9 8.9 0 0 0-1.916 2.844A9 9 0 0 0 4 12.953v12.094c0 1.24.25 2.42.701 3.492a8.9 8.9 0 0 0 1.916 2.844 8.9 8.9 0 0 0 2.844 1.916 9 9 0 0 0 3.492.701H24l11 10V34h.047c1.24 0 2.42-.25 3.492-.701a8.9 8.9 0 0 0 2.844-1.916 8.9 8.9 0 0 0 1.916-2.844A9 9 0 0 0 44 25.047V12.953c0-1.24-.25-2.42-.701-3.492a8.9 8.9 0 0 0-1.916-2.844 8.9 8.9 0 0 0-2.844-1.916A9 9 0 0 0 35.047 4Z" style="fill:url(#b);fill-rule:evenodd"/><path d="M35 41v-7h.047c1.24 0 2.42-.25 3.492-.701a8.9 8.9 0 0 0 2.844-1.916c.68-.68 1.176-1.52 1.61-2.39L36 22 25 11l-6 4v2l-1-1v6h-2z" style="opacity:.2;fill:url(#c);fill-rule:evenodd"/><path d="M23.988 11 19 14.996v7.968l4.988 3.996H25V10.996h-1ZM24 12.232v13.457l-4-3.205v-7.05zm6.03.158-.771.631a11 11 0 0 1 1.742 5.939 11 11 0 0 1-1.75 5.932l.783.643a12 12 0 0 0 1.967-6.574 12 12 0 0 0-1.971-6.57m-2.34 1.916-.781.639a8 8 0 0 1 1.092 4.02 8 8 0 0 1-1.09 4.02l.781.641a9 9 0 0 0 1.309-4.658 9 9 0 0 0-1.311-4.654m-11.689 1.69v6h2v-6z" style="fill:url(#d)"/></svg>