<svg xmlns="http://www.w3.org/2000/svg" xmlns:xlink="http://www.w3.org/1999/xlink" xml:space="preserve" width="1050" height="1050" version="1.0"><defs><linearGradient id="a"><stop offset="0" style="stop-color:#3f627d;stop-opacity:1"/><stop offset="1" style="stop-color:#000;stop-opacity:1"/></linearGradient><linearGradient id="b"><stop offset="0" style="stop-color:#ff97ff;stop-opacity:1"/><stop offset="1" style="stop-color:red;stop-opacity:1"/></linearGradient><linearGradient id="c"><stop offset="0" style="stop-color:#fff;stop-opacity:.6353"/><stop offset="1" style="stop-color:#fff;stop-opacity:.2392"/></linearGradient><linearGradient xlink:href="#c" id="j" x1=".483" x2=".483" y1="0" y2=".875"/><radialGradient xlink:href="#a" id="h" cx=".5" cy=".969" r=".67" fx=".5" fy=".969"/><radialGradient xlink:href="#b" id="i" cx=".5" cy=".555" r=".486" fx=".5" fy=".555"/></defs><g style="font-size:12;fill-opacity:.2314;stroke-width:6.9375"><path d="M186.875 20.688c-26.937 0-48.625 21.687-48.625 48.687V963.5c0 26.938 21.688 48.625 48.625 48.625h662.563c26.937 0 48.625-21.687 48.625-48.625V69.375c0-27-21.688-48.687-48.625-48.687zM733.75 50.75v79.125h131.875V50.75zm0 121.5v79.125h131.875V172.25zm0 121.5v79.125h131.875V293.75zm0 121.5v79.188h131.875v-79.25H733.75zm0 121.5v79.188h131.875v-79.25H733.75zm-564.125-486v79.125H301.5V50.75zm0 121.5v79.125H301.5V172.25zm0 121.5v79.125H301.5V293.75zm0 121.5v79.188H301.5v-79.25H169.625zm0 121.5v79.188H301.5v-79.25H169.625zm-24.937-136.375v3.688c.687-1.25 1.375-2.438 2.062-3.688zm24.937 500.813v79.187H301.5v-79.187zm0-121.5v79.187H301.5v-79.187zm564.125-121.5v79.125h131.875v-79.125zm0 121.5v79.187h131.875v-79.187zm0 121.5v79.187h131.875v-79.187zm-564.125-243v79.125H301.5v-79.125z" style="fill-rule:evenodd" transform="translate(11.86 11.86)"/></g><g style="font-size:12;fill:url(#h);stroke:#000;stroke-width:6.9375"><path d="M186.875 20.688c-26.937 0-48.625 21.687-48.625 48.687V963.5c0 26.938 21.688 48.625 48.625 48.625h662.563c26.937 0 48.625-21.687 48.625-48.625V69.375c0-27-21.688-48.687-48.625-48.687zM733.75 50.75v79.125h131.875V50.75zm0 121.5v79.125h131.875V172.25zm0 121.5v79.125h131.875V293.75zm0 121.5v79.188h131.875v-79.25H733.75zm0 121.5v79.188h131.875v-79.25H733.75zm-564.125-486v79.125H301.5V50.75zm0 121.5v79.125H301.5V172.25zm0 121.5v79.125H301.5V293.75zm0 121.5v79.188H301.5v-79.25H169.625zm0 121.5v79.188H301.5v-79.25H169.625zm-24.937-136.375v3.688c.687-1.25 1.375-2.438 2.062-3.688zm24.937 500.813v79.187H301.5v-79.187zm0-121.5v79.187H301.5v-79.187zm564.125-121.5v79.125h131.875v-79.125zm0 121.5v79.187h131.875v-79.187zm0 121.5v79.187h131.875v-79.187zm-564.125-243v79.125H301.5v-79.125z" style="fill-rule:evenodd"/></g><path d="M730.427 485.49 440.64 693.742l112.37 334.73-287.606-211.25-283.622 210.308 112.035-338.81-287.659-204.752 356.848 1.854 105.84-336.852 108.509 339.956z" style="font-size:12;fill:url(#i);fill-rule:evenodd;stroke:#ff7d00;stroke-width:21.447" transform="matrix(.41165 0 0 .41165 405.233 264.189)"/><path d="M184.076 31.158c-19.347 0-34.923 15.576-34.923 34.923v454.874c0 19.347 15.805 37.894 34.923 34.923 162.59-25.262 328.341-75.787 487.771-75.787 62.404 0 118.488 50.525 177.733 75.787 17.797 7.589 34.923-15.576 34.923-34.923V66.08c0-19.347-15.576-34.923-34.923-34.923z" style="font-size:12;fill:url(#j);fill-rule:evenodd"/></svg>