<svg xmlns="http://www.w3.org/2000/svg" xmlns:xlink="http://www.w3.org/1999/xlink" xml:space="preserve" width="128" height="128" overflow="visible" version="1.0" viewBox="0 0 126 111.715"><defs><linearGradient id="g"><stop offset="0" style="stop-color:#6193cf;stop-opacity:1"/><stop offset="1" style="stop-color:#6193cf;stop-opacity:0"/></linearGradient><linearGradient id="e"><stop offset="0" style="stop-color:black;stop-opacity:1"/><stop offset="1" style="stop-color:black;stop-opacity:0"/></linearGradient><linearGradient id="d"><stop offset="0" style="stop-color:black;stop-opacity:1"/><stop offset="1" style="stop-color:black;stop-opacity:0"/></linearGradient><linearGradient id="c"><stop offset="0" style="stop-color:black;stop-opacity:1"/><stop offset="1" style="stop-color:black;stop-opacity:0"/></linearGradient><linearGradient id="a"><stop offset="0" style="stop-color:black;stop-opacity:1"/><stop offset="1" style="stop-color:black;stop-opacity:0"/></linearGradient><linearGradient id="f"><stop offset="0" style="stop-color:white;stop-opacity:1"/><stop offset="1" style="stop-color:#efefef;stop-opacity:1"/></linearGradient><linearGradient id="b"><stop offset="0" style="stop-color:white;stop-opacity:1"/><stop offset="1" style="stop-color:white;stop-opacity:0"/></linearGradient><linearGradient xlink:href="#b" id="k" x1="26.994" x2="62.676" y1="91.863" y2="53.388" gradientTransform="matrix(1.21014 -.00574 -.06515 1.22735 -11.734 -9.244)" gradientUnits="userSpaceOnUse"/><linearGradient xlink:href="#b" id="m" x1="26.994" x2="62.676" y1="91.863" y2="53.388" gradientTransform="matrix(1.21014 -.00574 -.06515 1.22735 -11.734 -9.244)" gradientUnits="userSpaceOnUse"/><linearGradient xlink:href="#b" id="t" x1="26.994" x2="62.676" y1="91.863" y2="53.388" gradientTransform="matrix(1.21014 -.00574 -.06515 1.22735 -11.734 -9.244)" gradientUnits="userSpaceOnUse"/><linearGradient xlink:href="#e" id="n" x1="17.43" x2="108.251" y1="53.212" y2="53.212" gradientTransform="matrix(1.21014 -.00574 -.06515 1.22735 -11.734 -9.244)" gradientUnits="userSpaceOnUse"/><linearGradient xlink:href="#e" id="i" x1="20.41" x2="115.087" y1="83.537" y2="83.537" gradientTransform="matrix(1.21014 -.00574 -.06515 1.22735 -11.734 -9.244)" gradientUnits="userSpaceOnUse"/><linearGradient xlink:href="#e" id="j" x1="19.358" x2="112.983" y1="73.283" y2="73.283" gradientTransform="matrix(1.21014 -.00574 -.06515 1.22735 -11.734 -9.244)" gradientUnits="userSpaceOnUse"/><linearGradient xlink:href="#e" id="q" x1="14.976" x2="101.414" y1="22.712" y2="22.712" gradientTransform="matrix(1.21014 -.00574 -.06515 1.22735 -11.734 -9.244)" gradientUnits="userSpaceOnUse"/><linearGradient xlink:href="#e" id="p" x1="15.853" x2="103.693" y1="33.054" y2="33.054" gradientTransform="matrix(1.21014 -.00574 -.06515 1.22735 -11.734 -9.244)" gradientUnits="userSpaceOnUse"/><linearGradient xlink:href="#e" id="o" x1="16.729" x2="105.621" y1="43.133" y2="43.133" gradientTransform="matrix(1.21014 -.00574 -.06515 1.22735 -11.734 -9.244)" gradientUnits="userSpaceOnUse"/><linearGradient xlink:href="#e" id="x" x1="86.669" x2="103.343" y1="50.233" y2="50.233" gradientTransform="matrix(1.21014 -.00574 -.06515 1.22735 -11.734 -9.244)" gradientUnits="userSpaceOnUse"/><linearGradient xlink:href="#e" id="w" x1="74.399" x2="90.021" y1="51.197" y2="51.197" gradientTransform="matrix(1.21014 -.00574 -.06515 1.22735 -11.734 -9.244)" gradientUnits="userSpaceOnUse"/><linearGradient xlink:href="#e" id="v" x1="62.479" x2="76.173" y1="52.424" y2="52.424" gradientTransform="matrix(1.21014 -.00574 -.06515 1.22735 -11.734 -9.244)" gradientUnits="userSpaceOnUse"/><linearGradient xlink:href="#e" id="r" x1="26.195" x2="35.331" y1="55.316" y2="55.316" gradientTransform="matrix(1.21014 -.00574 -.06515 1.22735 -11.734 -9.244)" gradientUnits="userSpaceOnUse"/><linearGradient xlink:href="#e" id="s" x1="38.465" x2="49.004" y1="54.439" y2="54.439" gradientTransform="matrix(1.21014 -.00574 -.06515 1.22735 -11.734 -9.244)" gradientUnits="userSpaceOnUse"/><linearGradient xlink:href="#g" id="z" x1="27.055" x2="131.277" y1="63.926" y2="13.463" gradientTransform="scale(1.15132)rotate(10.048 115.915 3.073)" gradientUnits="userSpaceOnUse"/><radialGradient xlink:href="#a" id="l" cx="64.506" cy="63.379" r="45.848" fx="64.506" fy="63.379" gradientTransform="matrix(1.21014 -.00574 -.00574 .10822 -15.5 61.686)" gradientUnits="userSpaceOnUse"/><radialGradient xlink:href="#a" id="u" cx="56.618" cy="53.388" r="6.058" fx="56.618" fy="53.388" gradientTransform="matrix(1.21014 -.00574 -.44307 8.34753 8.442 -389.374)" gradientUnits="userSpaceOnUse"/><radialGradient xlink:href="#c" id="y" cx="56.53" cy="53.388" r="6.723" fx="55.983" fy="56.927" gradientTransform="matrix(1.20648 -.18698 .9354 9.92495 -64.945 -463.343)" gradientUnits="userSpaceOnUse"/><radialGradient xlink:href="#d" id="A" cx="64.681" cy="63.379" r="46.601" fx="58.186" fy="64.543" gradientTransform="matrix(1.58124 -.13836 .00311 .112 -40.064 70.024)" gradientUnits="userSpaceOnUse"/><radialGradient xlink:href="#f" id="h" cx="63.808" cy="60.918" r="57.717" fx="63.808" fy="60.918" gradientTransform="matrix(1.019 -.0895 .07577 .88682 -7.712 7.181)" gradientUnits="userSpaceOnUse"/></defs><path d="m7.768 111.506 116.92-11.29-17.71-98.856-77.665 5.743L4.244 9.421c-.06 1.711.1 3.575.144 5.433z" style="fill:url(#h);fill-opacity:1;fill-rule:evenodd;stroke:#b4b4b4;stroke-width:.6225543;stroke-linecap:butt;stroke-linejoin:miter;stroke-miterlimit:4;stroke-dasharray:none;stroke-opacity:1"/><path d="M23.138 98.437a1.227 1.14 0 1 1-2.454 0 1.227 1.14 0 1 1 2.454 0" style="opacity:.66000001;fill:#2e3436;fill-opacity:1;fill-rule:nonzero;stroke:none;stroke-width:1.20000005;stroke-linecap:round;stroke-linejoin:round;stroke-miterlimit:4;stroke-dasharray:none;stroke-dashoffset:4;stroke-opacity:1" transform="matrix(1.20095 -.0057 -.06473 1.21948 87.697 -18.289)"/><path d="M23.138 98.437a1.227 1.14 0 1 1-2.454 0 1.227 1.14 0 1 1 2.454 0" style="opacity:.66000001;fill:#6193cf;fill-opacity:1;fill-rule:nonzero;stroke:none;stroke-width:1.20000005;stroke-linecap:round;stroke-linejoin:round;stroke-miterlimit:4;stroke-dasharray:none;stroke-dashoffset:4;stroke-opacity:1" transform="matrix(1.20095 -.0057 -.06473 1.21948 71.124 -16.667)"/><path d="M23.138 98.437a1.227 1.14 0 1 1-2.454 0 1.227 1.14 0 1 1 2.454 0" style="opacity:.66000001;fill:#2e3436;fill-opacity:1;fill-rule:nonzero;stroke:none;stroke-width:1.20000005;stroke-linecap:round;stroke-linejoin:round;stroke-miterlimit:4;stroke-dasharray:none;stroke-dashoffset:4;stroke-opacity:1" transform="matrix(1.20095 -.0057 -.06473 1.21948 54.551 -15.044)"/><path d="M23.138 98.437a1.227 1.14 0 1 1-2.454 0 1.227 1.14 0 1 1 2.454 0" style="opacity:.66000001;fill:#6193cf;fill-opacity:1;fill-rule:nonzero;stroke:none;stroke-width:1.20000005;stroke-linecap:round;stroke-linejoin:round;stroke-miterlimit:4;stroke-dasharray:none;stroke-dashoffset:4;stroke-opacity:1" transform="matrix(1.20095 -.0057 -.06473 1.21948 37.979 -13.422)"/><path d="M23.138 98.437a1.227 1.14 0 1 1-2.454 0 1.227 1.14 0 1 1 2.454 0" style="opacity:.66000001;fill:#2e3436;fill-opacity:1;fill-rule:nonzero;stroke:none;stroke-width:1.20000005;stroke-linecap:round;stroke-linejoin:round;stroke-miterlimit:4;stroke-dasharray:none;stroke-dashoffset:4;stroke-opacity:1" transform="matrix(1.20095 -.0057 -.06473 1.21948 21.406 -11.8)"/><path d="M23.138 98.437a1.227 1.14 0 1 1-2.454 0 1.227 1.14 0 1 1 2.454 0" style="opacity:.66000001;fill:#6193cf;fill-opacity:1;fill-rule:nonzero;stroke:none;stroke-width:1.20000005;stroke-linecap:round;stroke-linejoin:round;stroke-miterlimit:4;stroke-dasharray:none;stroke-dashoffset:4;stroke-opacity:1" transform="matrix(1.20095 -.0057 -.06473 1.21948 4.833 -10.178)"/><path d="M23.138 98.437a1.227 1.14 0 1 1-2.454 0 1.227 1.14 0 1 1 2.454 0" style="opacity:.66000001;fill:#6193cf;fill-opacity:1;fill-rule:nonzero;stroke:none;stroke-width:1.20000005;stroke-linecap:round;stroke-linejoin:round;stroke-miterlimit:4;stroke-dasharray:none;stroke-dashoffset:4;stroke-opacity:1" transform="matrix(-1.20602 .00572 -.06014 1.13313 37.14 -89.248)"/><path d="M23.138 98.437a1.227 1.14 0 1 1-2.454 0 1.227 1.14 0 1 1 2.454 0" style="opacity:.66000001;fill:#2e3436;fill-opacity:1;fill-rule:nonzero;stroke:none;stroke-width:1.20000005;stroke-linecap:round;stroke-linejoin:round;stroke-miterlimit:4;stroke-dasharray:none;stroke-dashoffset:4;stroke-opacity:1" transform="matrix(1.05903 -.00502 -.04465 .84122 73.714 -80.43)"/><path d="M23.138 98.437a1.227 1.14 0 1 1-2.454 0 1.227 1.14 0 1 1 2.454 0" style="opacity:.66000001;fill:#6193cf;fill-opacity:1;fill-rule:nonzero;stroke:none;stroke-width:1.20000005;stroke-linecap:round;stroke-linejoin:round;stroke-miterlimit:4;stroke-dasharray:none;stroke-dashoffset:4;stroke-opacity:1" transform="matrix(1.05903 -.00502 -.04465 .84122 59.116 -79.297)"/><path d="M23.138 98.437a1.227 1.14 0 1 1-2.454 0 1.227 1.14 0 1 1 2.454 0" style="opacity:.66000001;fill:#2e3436;fill-opacity:1;fill-rule:nonzero;stroke:none;stroke-width:1.20000005;stroke-linecap:round;stroke-linejoin:round;stroke-miterlimit:4;stroke-dasharray:none;stroke-dashoffset:4;stroke-opacity:1" transform="matrix(1.05903 -.00502 -.04465 .84122 44.517 -78.163)"/><path d="M23.138 98.437a1.227 1.14 0 1 1-2.454 0 1.227 1.14 0 1 1 2.454 0" style="opacity:.66000001;fill:#6193cf;fill-opacity:1;fill-rule:nonzero;stroke:none;stroke-width:1.20000005;stroke-linecap:round;stroke-linejoin:round;stroke-miterlimit:4;stroke-dasharray:none;stroke-dashoffset:4;stroke-opacity:1" transform="matrix(1.05903 -.00502 -.04465 .84122 29.919 -77.028)"/><path d="M23.138 98.437a1.227 1.14 0 1 1-2.454 0 1.227 1.14 0 1 1 2.454 0" style="opacity:.66000001;fill:#2e3436;fill-opacity:1;fill-rule:nonzero;stroke:none;stroke-width:1.20000005;stroke-linecap:round;stroke-linejoin:round;stroke-miterlimit:4;stroke-dasharray:none;stroke-dashoffset:4;stroke-opacity:1" transform="matrix(1.05903 -.00502 -.04465 .84122 15.326 -76.016)"/><path d="M23.138 98.437a1.227 1.14 0 1 1-2.454 0 1.227 1.14 0 1 1 2.454 0" style="opacity:.66000001;fill:#6193cf;fill-opacity:1;fill-rule:nonzero;stroke:none;stroke-width:1.20000005;stroke-linecap:round;stroke-linejoin:round;stroke-miterlimit:4;stroke-dasharray:none;stroke-dashoffset:4;stroke-opacity:1" transform="matrix(1.05903 -.00502 -.04465 .84122 .76 -74.785)"/><path d="M23.138 98.437a1.227 2.625 0 1 1-2.454 0 1.227 2.625 0 1 1 2.454 0" style="opacity:.66000001;fill:#2e3436;fill-opacity:1;fill-rule:nonzero;stroke:none;stroke-width:1.20000005;stroke-linecap:round;stroke-linejoin:round;stroke-miterlimit:4;stroke-dasharray:none;stroke-dashoffset:4;stroke-opacity:1" transform="matrix(1.05894 -.12212 .02303 .41974 -21.2 -29.373)"/><path d="M23.138 98.437a1.227 1.14 0 1 1-2.454 0 1.227 1.14 0 1 1 2.454 0" style="opacity:.66000001;fill:#6193cf;fill-opacity:1;fill-rule:nonzero;stroke:none;stroke-width:1.20000005;stroke-linecap:round;stroke-linejoin:round;stroke-miterlimit:4;stroke-dasharray:none;stroke-dashoffset:4;stroke-opacity:1" transform="matrix(1.05903 -.00502 -.04465 .84122 88.3 -81.322)"/><path d="M23.138 98.437a1.227 1.14 0 1 1-2.454 0 1.227 1.14 0 1 1 2.454 0" style="opacity:.66000001;fill:#2e3436;fill-opacity:1;fill-rule:nonzero;stroke:none;stroke-width:1.20000005;stroke-linecap:round;stroke-linejoin:round;stroke-miterlimit:4;stroke-dasharray:none;stroke-dashoffset:4;stroke-opacity:1" transform="matrix(-1.2305 .00584 -.06137 1.15614 38.418 -78.494)"/><path d="M23.138 98.437a1.227 1.14 0 1 1-2.454 0 1.227 1.14 0 1 1 2.454 0" style="opacity:.66000001;fill:#6193cf;fill-opacity:1;fill-rule:nonzero;stroke:none;stroke-width:1.20000005;stroke-linecap:round;stroke-linejoin:round;stroke-miterlimit:4;stroke-dasharray:none;stroke-dashoffset:4;stroke-opacity:1" transform="matrix(-1.24293 .0059 -.06198 1.16782 39.037 -67.042)"/><path d="M23.138 98.437a1.227 1.14 0 1 1-2.454 0 1.227 1.14 0 1 1 2.454 0" style="opacity:.66000001;fill:#2e3436;fill-opacity:1;fill-rule:nonzero;stroke:none;stroke-width:1.20000005;stroke-linecap:round;stroke-linejoin:round;stroke-miterlimit:4;stroke-dasharray:none;stroke-dashoffset:4;stroke-opacity:1" transform="matrix(-1.25549 .00596 -.06261 1.17961 39.564 -55.926)"/><path d="M23.138 98.437a1.227 1.14 0 1 1-2.454 0 1.227 1.14 0 1 1 2.454 0" style="opacity:.66000001;fill:#6193cf;fill-opacity:1;fill-rule:nonzero;stroke:none;stroke-width:1.20000005;stroke-linecap:round;stroke-linejoin:round;stroke-miterlimit:4;stroke-dasharray:none;stroke-dashoffset:4;stroke-opacity:1" transform="matrix(-1.26817 .00602 -.06324 1.19153 40.47 -44.345)"/><path d="M23.138 98.437a1.227 1.14 0 1 1-2.454 0 1.227 1.14 0 1 1 2.454 0" style="opacity:.66000001;fill:#2e3436;fill-opacity:1;fill-rule:nonzero;stroke:none;stroke-width:1.20000005;stroke-linecap:round;stroke-linejoin:round;stroke-miterlimit:4;stroke-dasharray:none;stroke-dashoffset:4;stroke-opacity:1" transform="matrix(-1.28098 .00608 -.06388 1.20356 41.267 -33.002)"/><path d="M23.138 98.437a1.227 1.14 0 1 1-2.454 0 1.227 1.14 0 1 1 2.454 0" style="opacity:.66000001;fill:#6193cf;fill-opacity:1;fill-rule:nonzero;stroke:none;stroke-width:1.20000005;stroke-linecap:round;stroke-linejoin:round;stroke-miterlimit:4;stroke-dasharray:none;stroke-dashoffset:4;stroke-opacity:1" transform="matrix(-1.29392 .00614 -.06453 1.21572 42.09 -21.512)"/><path d="M23.138 98.437a1.227 1.14 0 1 1-2.454 0 1.227 1.14 0 1 1 2.454 0" style="opacity:.66000001;fill:#2e3436;fill-opacity:1;fill-rule:nonzero;stroke:none;stroke-width:1.20000005;stroke-linecap:round;stroke-linejoin:round;stroke-miterlimit:4;stroke-dasharray:none;stroke-dashoffset:4;stroke-opacity:1" transform="matrix(-1.29392 .00614 -.06453 1.21572 42.928 -8.555)"/><path d="M23.138 98.437a1.227 1.14 0 1 1-2.454 0 1.227 1.14 0 1 1 2.454 0" style="opacity:.66000001;fill:#2e3436;fill-opacity:1;fill-rule:nonzero;stroke:none;stroke-width:1.20000005;stroke-linecap:round;stroke-linejoin:round;stroke-miterlimit:4;stroke-dasharray:none;stroke-dashoffset:4;stroke-opacity:1" transform="matrix(-1.23846 .173 .09604 1.12778 127.083 -100.7)"/><path d="M23.138 98.437a1.227 1.14 0 1 1-2.454 0 1.227 1.14 0 1 1 2.454 0" style="opacity:.66000001;fill:#6193cf;fill-opacity:1;fill-rule:nonzero;stroke:none;stroke-width:1.20000005;stroke-linecap:round;stroke-linejoin:round;stroke-miterlimit:4;stroke-dasharray:none;stroke-dashoffset:4;stroke-opacity:1" transform="matrix(-1.23846 .173 .09604 1.12778 128.796 -88.004)"/><path d="M23.138 98.437a1.227 1.14 0 1 1-2.454 0 1.227 1.14 0 1 1 2.454 0" style="opacity:.66000001;fill:#2e3436;fill-opacity:1;fill-rule:nonzero;stroke:none;stroke-width:1.20000005;stroke-linecap:round;stroke-linejoin:round;stroke-miterlimit:4;stroke-dasharray:none;stroke-dashoffset:4;stroke-opacity:1" transform="matrix(-1.25097 .17474 .097 1.13917 131.137 -76.995)"/><path d="M23.138 98.437a1.227 1.14 0 1 1-2.454 0 1.227 1.14 0 1 1 2.454 0" style="opacity:.66000001;fill:#6193cf;fill-opacity:1;fill-rule:nonzero;stroke:none;stroke-width:1.20000005;stroke-linecap:round;stroke-linejoin:round;stroke-miterlimit:4;stroke-dasharray:none;stroke-dashoffset:4;stroke-opacity:1" transform="matrix(-1.2636 .1765 .09799 1.15068 133.48 -65.997)"/><path d="M23.138 98.437a1.227 1.14 0 1 1-2.454 0 1.227 1.14 0 1 1 2.454 0" style="opacity:.66000001;fill:#2e3436;fill-opacity:1;fill-rule:nonzero;stroke:none;stroke-width:1.20000005;stroke-linecap:round;stroke-linejoin:round;stroke-miterlimit:4;stroke-dasharray:none;stroke-dashoffset:4;stroke-opacity:1" transform="matrix(-1.28926 .1801 .09998 1.17404 136.007 -56.206)"/><path d="M23.138 98.437a1.227 1.14 0 1 1-2.454 0 1.227 1.14 0 1 1 2.454 0" style="opacity:.66000001;fill:#6193cf;fill-opacity:1;fill-rule:nonzero;stroke:none;stroke-width:1.20000005;stroke-linecap:round;stroke-linejoin:round;stroke-miterlimit:4;stroke-dasharray:none;stroke-dashoffset:4;stroke-opacity:1" transform="matrix(-1.28926 .1801 .09998 1.17404 138.17 -44.037)"/><path d="M23.138 98.437a1.227 1.14 0 1 1-2.454 0 1.227 1.14 0 1 1 2.454 0" style="opacity:.66000001;fill:#2e3436;fill-opacity:1;fill-rule:nonzero;stroke:none;stroke-width:1.20000005;stroke-linecap:round;stroke-linejoin:round;stroke-miterlimit:4;stroke-dasharray:none;stroke-dashoffset:4;stroke-opacity:1" transform="matrix(-1.30228 .1819 .10099 1.1859 140.519 -33.075)"/><path d="M23.138 98.437a1.227 1.14 0 1 1-2.454 0 1.227 1.14 0 1 1 2.454 0" style="opacity:.66000001;fill:#6193cf;fill-opacity:1;fill-rule:nonzero;stroke:none;stroke-width:1.20000005;stroke-linecap:round;stroke-linejoin:round;stroke-miterlimit:4;stroke-dasharray:none;stroke-dashoffset:4;stroke-opacity:1" transform="matrix(-1.30228 .1819 .10099 1.1859 142.68 -20.906)"/><path d="m7.373 98.224 114.87-10.654" style="opacity:.40163933;fill:none;fill-opacity:1;fill-rule:evenodd;stroke:url(#i);stroke-width:.23990422;stroke-linecap:butt;stroke-linejoin:miter;stroke-miterlimit:4;stroke-dasharray:none;stroke-opacity:1"/><path d="M6.774 85.537 120.36 75.104" style="opacity:.22950822;fill:none;fill-opacity:1;fill-rule:evenodd;stroke:url(#j);stroke-width:.23990422;stroke-linecap:butt;stroke-linejoin:miter;stroke-miterlimit:4;stroke-dasharray:none;stroke-opacity:1"/><path d="M6.577 73.278 117.818 63.07" style="fill:url(#k);fill-opacity:1;fill-rule:evenodd;stroke:url(#l);stroke-width:.23990422;stroke-linecap:butt;stroke-linejoin:miter;stroke-miterlimit:4;stroke-dasharray:none;stroke-opacity:1"/><path d="m5.789 60.161 110.112-8.91" style="opacity:.22950822;fill:url(#m);fill-opacity:1;fill-rule:evenodd;stroke:url(#n);stroke-width:.23990422;stroke-linecap:butt;stroke-linejoin:miter;stroke-miterlimit:4;stroke-dasharray:none;stroke-opacity:1"/><path d="m5.602 47.687 107.768-8.684" style="opacity:.22950822;fill:none;fill-opacity:1;fill-rule:evenodd;stroke:url(#o);stroke-width:.23990422;stroke-linecap:butt;stroke-linejoin:miter;stroke-miterlimit:4;stroke-dasharray:none;stroke-opacity:1"/><path d="m5.193 35.43 106.506-8.894" style="opacity:.22950822;fill:none;fill-opacity:1;fill-rule:evenodd;stroke:url(#p);stroke-width:.23990422;stroke-linecap:butt;stroke-linejoin:miter;stroke-miterlimit:4;stroke-dasharray:none;stroke-opacity:1"/><path d="m4.829 22.31 104.763-8.024" style="opacity:.22950822;fill:none;fill-opacity:1;fill-rule:evenodd;stroke:url(#q);stroke-width:.23990422;stroke-linecap:butt;stroke-linejoin:miter;stroke-miterlimit:4;stroke-dasharray:none;stroke-opacity:1"/><path d="m19.18 7.617 5.418 101.71" style="opacity:.22950822;fill:none;fill-opacity:1;fill-rule:evenodd;stroke:url(#r);stroke-width:.23990422;stroke-linecap:butt;stroke-linejoin:miter;stroke-miterlimit:4;stroke-dasharray:none;stroke-opacity:1"/><path d="M34.086 6.47 41.2 108.173" style="opacity:.22950822;fill:none;fill-opacity:1;fill-rule:evenodd;stroke:url(#s);stroke-width:.23990422;stroke-linecap:butt;stroke-linejoin:miter;stroke-miterlimit:4;stroke-dasharray:none;stroke-opacity:1"/><path d="m48.768 5.54 9.07 100.833" style="fill:url(#t);fill-opacity:1;fill-rule:evenodd;stroke:url(#u);stroke-width:.23990422;stroke-linecap:butt;stroke-linejoin:miter;stroke-miterlimit:4;stroke-dasharray:none;stroke-opacity:1"/><path d="M63.238 4.612 74.25 104.789" style="opacity:.22950822;fill:none;fill-opacity:1;fill-rule:evenodd;stroke:url(#v);stroke-width:.23990422;stroke-linecap:butt;stroke-linejoin:miter;stroke-miterlimit:4;stroke-dasharray:none;stroke-opacity:1"/><path d="M77.754 2.822 91.077 103.42" style="opacity:.22950822;fill:none;fill-opacity:1;fill-rule:evenodd;stroke:url(#w);stroke-width:.23990422;stroke-linecap:butt;stroke-linejoin:miter;stroke-miterlimit:4;stroke-dasharray:none;stroke-opacity:1"/><path d="m92.648 1.891 14.63 99.945" style="opacity:.22950822;fill:none;fill-opacity:1;fill-rule:evenodd;stroke:url(#x);stroke-width:.23990422;stroke-linecap:butt;stroke-linejoin:miter;stroke-miterlimit:4;stroke-dasharray:none;stroke-opacity:1"/><path d="m48.367 5.112 9.66 101.69" style="opacity:.50819672;fill:none;fill-opacity:.75;fill-rule:evenodd;stroke:url(#y);stroke-width:1.21856117px;stroke-linecap:butt;stroke-linejoin:miter;stroke-opacity:1"/><path d="M106.982 1.196c-1.159 13.084-3.049 35.695-12.807 45.23-20.327 19.86-48.872 19.897-68.842 38.541-9.28 8.653-12.68 20.622-14.853 26.221l3.488-.374c1.676-4.712 4.485-14.65 12.2-23.337 15.598-17.562 49.554-19.76 69.877-39.617 9.286-9.073 11.43-28.878 12.203-39.636z" style="fill:url(#z);fill-opacity:1;fill-rule:evenodd;stroke:none;stroke-width:2.87043738;stroke-linecap:butt;stroke-linejoin:miter;stroke-miterlimit:4;stroke-dasharray:none;stroke-opacity:1"/><path d="m6.376 73.064 112.067-9.78" style="opacity:.50819672;fill:none;fill-opacity:.75;fill-rule:evenodd;stroke:url(#A);stroke-width:1.21856117px;stroke-linecap:butt;stroke-linejoin:miter;stroke-opacity:1"/><path d="M68.053 75.561q.24 1.29-.87 1.794a.9.9 0 0 1-.448 0l-.074-.225-.155-.56q-.05-.28-.662-.953-.645-.728-1.71-.728-.672 0-1.399.392-.759.336-1.33 1.289-.57.953-1.04 2.858-.21.897-.302 1.513-.31 1.794-.51 4.652l-.16 2.634-.005 1.737H64.6l.084.729h-5.38l-.23 3.194-.207 2.747-.103 1.569-.07 1.625-.132.84-.429 4.596q-.615 5.436-1.732 7.678t-3.79 3.53q-1.03.45-1.99.73-.958.28-1.743.28l-1.097-.056h-.897l-.649-.056q-.447 0-1.05-.169a9.5 9.5 0 0 1-1.347-.392q-1.565-.672-2.18-1.737-.42-.729-.136-1.401l.446-.393q.495-.112.664-.112.784 0 1.453.673.291.505.3.616l-.119.28q-.141.337.117.785.388.672 1.456 1.065.987.448 2.332.448 1.68 0 2.99-.84 1.252-.84 2.08-2.803a8.7 8.7 0 0 0 .446-1.849q.122-.953.315-3.53l.097-1.29.218-3.699.642-6.557.15-1.68.272-4.092h-3.587l-.084-.729h3.698l.187-2.297q.378-3.811.998-5.941.587-2.186 1.604-3.53 1.945-2.747 4.342-3.644 1.278-.504 2.51-.504.73 0 1.523.112.849.112 1.334.953.064.112.147.448M74.992 79.635l.041.169-.103.112-.015.168-.836.784a4.3 4.3 0 0 0-.772.897q-.357.448-1.197 1.906-1.592 2.97-2.433 6.949-.84 3.98-.846 8.63.015 5.269.672 7.959.713 2.69 1.586 4.203l.356.616-.015.169q.041.168-.071.168a4 4 0 0 1-.345-.112q-.177-.113-.604-.56-.885-.954-1.89-2.69-2.135-3.7-2.813-7.399-.711-3.755.06-8.63.477-2.185 1.13-3.867.655-1.682 2.22-3.923.833-1.177 1.27-1.682a36 36 0 0 1 1.655-1.793l.78-.785.605-.504.948-.785.352-.168zM95.528 97.026l.013.224-.159.392-.043.224-.722 1.29-.486.784-.412.84-.503.73-.697 1.008q-.834 1.29-1.428 1.906t-1.864 1.4-2.447.785q-3.139 0-4.757-3.418a4.4 4.4 0 0 1-.372-.841l-.19-.617-.198.449-.254.448q-.941 1.85-2.271 2.802-1.387.953-2.732.953t-1.71-1.177q-.052-.168-.091-.84-.058-.73.662-1.121.663-.393 1-.393.391 0 .646.28l.104.337q.248.616 1.455.897.41.056.827-.225.362-.28 1.016-1.064l.563-.897.542-.785.215-.392q-.33-1.065-.43-1.57-.117-.56-.497-3.418l-.236-1.85-.127-.952-.036-.84-.105-1.066-.283.897-.343 1.065-.378.953-.695 1.737q-.416 1.01-.533 1.177-.115.168-.525.112l.004-.168-.014-.224.55-1.121.983-2.802.407-1.401.339-.897.802.056q.953 0 1.724-.224a9 9 0 0 0 1.546-.617l-.037.785.012 1.85q.046 1.96.147 3.194t.371 2.466l.546-.953.524-.84.701-1.178q2.28-3.138 3.631-4.203 1.391-1.12 2.512-1.12.914.055 1.48.616.605.505.57 1.12l-.11.73q-.555 1.288-1.115 1.288-.336 0-.902-.56-.258-.112-.37-.112a5 5 0 0 0-1.23-.168q-.336 0-.96.336-.585.28-1.06.56-.912.673-1.7 1.57-.98 1.176-1.88 2.802l-.433.952q.165.897.39 1.626.088.28.174.56.25.448.32.673.972 3.138 2.933 3.138.84 0 1.883-.616a3.4 3.4 0 0 0 1.046-.785q.46-.504 1.235-1.625l.808-1.01.349-.504.503-.728 1.156-2.242q.123-.505.257-.616.057 0 .095-.056zM101.72 84.96q1.37 2.858 1.766 6.164.454 3.699-.186 7.734a20.7 20.7 0 0 1-1.098 3.923q-.757 1.794-2.307 3.867-1.046 1.681-2.846 3.419l-.86.84-.525.449-1.004.784q-.207.225-.319.225-.144-.057-.177-.112l-.073-.225.015-.168.103-.112.836-.784q.375-.225.836-.785a56 56 0 0 0 1.133-2.018q1.22-2.353 2.29-6.613.93-3.923.86-9.19-.016-5.27-.696-7.903-.712-2.69-1.522-4.091l-.323-.56-.074-.225q.152-.225.416-.056.53.337 1.12 1.065.645.729 1.518 2.242l.582 1.009q.31.728.536 1.12M124.88 93.054h-14.647v-2.186h14.648zM124.88 102.973h-14.647v-2.186h14.648z" style="font-size:37.25290298px;font-style:normal;font-variant:normal;font-weight:400;font-stretch:normal;text-align:start;line-height:125%;writing-mode:lr-tb;text-anchor:start;fill:#000;fill-opacity:1;stroke:none;stroke-width:1px;stroke-linecap:butt;stroke-linejoin:miter;stroke-opacity:1;font-family:Cotillion"/></svg>