<svg xmlns="http://www.w3.org/2000/svg" fill="none" viewBox="0 0 48 48"><defs><linearGradient id="b" x1="5" x2="43" y1="5" y2="43" gradientUnits="userSpaceOnUse"><stop offset="0" stop-color="#eff0f1"/><stop offset="1" stop-color="#e3e5e7"/></linearGradient></defs><linearGradient id="f" x1="15" x2="33" y1="15" y2="33" gradientUnits="userSpaceOnUse"><stop offset="0" stop-color="#fceaca"/><stop offset="1" stop-color="#fdcf7e"/></linearGradient><linearGradient id="j" x1="23" x2="36.831" y1="23" y2="36.831" gradientUnits="userSpaceOnUse"><stop offset="0"/><stop offset="1" stop-opacity="0"/></linearGradient><linearGradient id="a" x1="14.9" x2="33.1" y1="14.9" y2="33.1" gradientUnits="userSpaceOnUse"><stop offset="0" stop-color="#fdbd4c"/><stop offset=".25" stop-color="#f6cd7b"/><stop offset=".5" stop-color="#f0b754"/><stop offset=".75" stop-color="#e9b969"/><stop offset="1" stop-color="#fdbc4b"/></linearGradient><radialGradient id="d" cx="0" cy="0" r="1" gradientTransform="rotate(45 -11.02 31.435)scale(28.2843)" gradientUnits="userSpaceOnUse"><stop offset="0" stop-color="#c9963c" stop-opacity=".8"/><stop offset=".499" stop-color="#c9963c" stop-opacity=".6"/><stop offset="1" stop-color="#ca973c" stop-opacity="0"/></radialGradient><linearGradient id="g" x1="11" x2="37" y1="11" y2="37" gradientUnits="userSpaceOnUse"><stop offset="0"/><stop offset="1" stop-opacity=".05"/></linearGradient><linearGradient id="h" x1="10" x2="38" y1="10" y2="38" gradientUnits="userSpaceOnUse"><stop offset="0" stop-color="#d6d9dc"/><stop offset="1" stop-color="#c9cdd1"/></linearGradient><path fill="#8e98a2" fill-rule="evenodd" d="M43.988 24.123A20 20 0 0 1 24 44 20 20 0 0 1 4.023 24.246L4 24.5c0 5.437 2.107 10.651 5.858 14.496C13.608 42.84 18.696 45 24 45s10.391-2.16 14.142-6.004C41.892 35.15 44 29.936 44 24.5z" clip-rule="evenodd"/><path fill="url(#a)" d="M24 37c7.18 0 13-5.82 13-13s-5.82-13-13-13-13 5.82-13 13 5.82 13 13 13"/><path fill="url(#b)" d="M24 5a19 19 0 0 0-13.436 5.564 19.005 19.005 0 0 0 0 26.872 19.005 19.005 0 0 0 26.872 0 19.005 19.005 0 0 0 0-26.872A19 19 0 0 0 24 5m0 6a13 13 0 1 1 0 25.998A13 13 0 0 1 24 11" color="#000" style="font-feature-settings:normal;font-variant-alternates:normal;font-variant-caps:normal;font-variant-ligatures:normal;font-variant-numeric:normal;font-variant-position:normal;isolation:auto;mix-blend-mode:normal;shape-padding:0;text-decoration-color:#000;text-decoration-line:none;text-decoration-style:solid;text-indent:0;text-orientation:mixed;text-transform:none;white-space:normal"/><path fill="url(#d)" d="M22 14.5 21 22l-6 1 2 2-2 1 4 4v3l3.957 3.957A13 13 0 0 0 24 37h.107C31.245 36.941 37 31.138 37 24v-.107a13 13 0 0 0-.041-.934l-6.803-6.815L27.5 20z"/><path fill="url(#f)" d="m22 14.5-3 .5v7h-4v1h4v2h-4v1h4v7l3-.5V26l7.01 7 1.85-1.9-4.52-4.48-.62-.62H33v-1h-8.28l-1.005-1.004.996-.996H33v-1h-7.29l5.15-5.15L29.01 15 22 22z"/><path fill="#000" d="M14.041 9.21a2.28 2.28 0 0 0-2.01 1.52 2.285 2.285 0 0 0 .352 2.152q.144.153.312.274a2.274 2.274 0 0 0 2.6.059c.494-.328.843-.839.969-1.418a.87.87 0 0 0-.739-.205l-2.1.394.708-2.015a.86.86 0 0 0-.092-.76m19.918 0a.86.86 0 0 0-.092.76l.707 2.016-2.1-.394a.87.87 0 0 0-.738.205 2.29 2.29 0 0 0 1.807 1.758 2.27 2.27 0 0 0 2.074-.672q.128-.165.225-.35a2.285 2.285 0 0 0-.336-2.58 2.28 2.28 0 0 0-1.547-.742M9.973 12.993a2.28 2.28 0 0 0-1.243 1.184c-.121.27-.191.568-.199.883a2.27 2.27 0 0 0 .998 1.939 2.3 2.3 0 0 0 1.317.266 2.27 2.27 0 0 0 1.554-.85 2.29 2.29 0 0 0 .485-1.646.87.87 0 0 0-.766.03l-1.875 1.024.05-2.135a.87.87 0 0 0-.321-.695m28.054 0a.87.87 0 0 0-.322.695l.05 2.135-1.874-1.023a.87.87 0 0 0-.766-.031 2.29 2.29 0 0 0 1.176 2.228 2.27 2.27 0 0 0 2.182.002 2.3 2.3 0 0 0 .84-1.05c.108-.276.163-.575.156-.89a2.28 2.28 0 0 0-1.442-2.066m-30.77 4.875a2.28 2.28 0 0 0-.732 2.41 2.27 2.27 0 0 0 1.162 1.383q.187.094.387.153.206.037.414.039a2.278 2.278 0 0 0 2.088-3.198.87.87 0 0 0-.719.268l-1.464 1.55-.614-2.044a.86.86 0 0 0-.521-.56m33.485 0a.86.86 0 0 0-.521.56l-.614 2.046-1.464-1.551a.87.87 0 0 0-.72-.268 2.283 2.283 0 0 0 1.169 3.004 2.28 2.28 0 0 0 1.334.154 2.3 2.3 0 0 0 1.123-.738 2.27 2.27 0 0 0 .508-1.697 2.28 2.28 0 0 0-.815-1.51M9.584 23.035a.87.87 0 0 0-.602.475l-.918 1.927-1.21-1.76a.86.86 0 0 0-.668-.372 2.29 2.29 0 0 0 .043 2.52 2.26 2.26 0 0 0 1.529.958q.206.032.414.026.207-.027.406-.09a2.267 2.267 0 0 0 1.36-1.19 2.28 2.28 0 0 0-.354-2.494m28.832 0a2.276 2.276 0 0 0-.354 2.494 2.27 2.27 0 0 0 1.766 1.28 2.27 2.27 0 0 0 1.295-.358 2.27 2.27 0 0 0 1.004-1.459c.12-.58.007-1.188-.313-1.687a.86.86 0 0 0-.668.373l-1.21 1.76-.918-1.928a.86.86 0 0 0-.602-.475M9.992 27.54a.87.87 0 0 0-.426.639l-.277 2.117-1.695-1.299a.86.86 0 0 0-.75-.15 2.3 2.3 0 0 0 .224 1.703 2.27 2.27 0 0 0 1.407 1.076 2.28 2.28 0 0 0 1.341-.059q.19-.09.358-.212c.255-.185.473-.42.635-.696.149-.255.25-.544.29-.855.042-.312.019-.618-.06-.903a2.3 2.3 0 0 0-1.047-1.36m28.016 0c-.511.3-.89.79-1.047 1.361-.079.285-.102.591-.06.903.04.311.141.6.29.855a2.3 2.3 0 0 0 .993.908 2.28 2.28 0 0 0 2.748-1.017 2.3 2.3 0 0 0 .224-1.703.86.86 0 0 0-.75.15l-1.695 1.299-.277-2.117a.87.87 0 0 0-.426-.639m-26.252 4.13a.86.86 0 0 0-.21.737l.388 2.102-2.014-.717a.86.86 0 0 0-.76.09 2.274 2.274 0 0 0 1.512 2.016 2.27 2.27 0 0 0 2.152-.342 2.29 2.29 0 0 0 .682-2.073 2.3 2.3 0 0 0-.336-.837 2.3 2.3 0 0 0-1.414-.975m24.488 0a2.265 2.265 0 0 0-1.748 1.813c-.057.31-.05.616.014.905a2.3 2.3 0 0 0 .666 1.168 2.28 2.28 0 0 0 1.258.47 2.285 2.285 0 0 0 1.67-.594c.437-.4.702-.959.736-1.55a.86.86 0 0 0-.76-.09l-2.014.717.387-2.102a.86.86 0 0 0-.209-.736m-21.52 3.41a.86.86 0 0 0 .03.765l1.016 1.879-2.133-.059a.87.87 0 0 0-.698.318 2.275 2.275 0 0 0 2.951 1.297 2.3 2.3 0 0 0 1.053-.836 2.276 2.276 0 0 0-.572-2.875 2.3 2.3 0 0 0-1.646-.49m18.11 0a2.3 2.3 0 0 0-1.205.49 2.27 2.27 0 0 0-.842 1.558 2.3 2.3 0 0 0 .27 1.316 2.3 2.3 0 0 0 1.052.836 2.28 2.28 0 0 0 1.772-.049c.54-.245.964-.695 1.18-1.248a.86.86 0 0 0-.696-.318l-2.135.059 1.016-1.88a.86.86 0 0 0 .03-.765 2.3 2.3 0 0 0-.442 0" opacity=".25"/><path fill="url(#g)" fill-opacity=".15" fill-rule="evenodd" d="M24 36c6.627 0 12-5.373 12-12s-5.373-12-12-12-12 5.373-12 12 5.373 12 12 12m0 1c7.18 0 13-5.82 13-13s-5.82-13-13-13-13 5.82-13 13 5.82 13 13 13" clip-rule="evenodd"/><path fill="url(#h)" fill-rule="evenodd" d="M24 4a20 20 0 1 0 0 40 20 20 0 0 0 0-40m0 1a19 19 0 1 1 0 38 19 19 0 0 1 0-38" clip-rule="evenodd"/><path fill="url(#j)" fill-rule="evenodd" d="M36.947 22.936c.029.351.053.705.053 1.064 0 7.18-5.82 13-13 13-.355 0-.705-.025-1.053-.053l6.34 6.34a20 20 0 0 0 14.002-14.01z" opacity=".15"/></svg>