<svg xmlns="http://www.w3.org/2000/svg" width="48" height="48"><defs><linearGradient id="a" x2="0" y1="543.8" y2="509.8" gradientTransform="translate(-384.57 -499.8)" gradientUnits="userSpaceOnUse"><stop stop-color="#2f74c8"/><stop offset="1" stop-color="#4699d7"/></linearGradient><linearGradient id="c" x1="18" x2="33" y1="17" y2="32" gradientTransform="translate(0 5)" gradientUnits="userSpaceOnUse"><stop stop-color="#383e51"/><stop offset="1" stop-color="#655c6f" stop-opacity="0"/></linearGradient></defs><path d="M4.43 4A4.42 4.42 0 0 0 0 8.43V14h48v-1.986l-.016.02c0-.015.016-.023.016-.038C48 10.89 47.11 10 46.004 10H31l-6-6H6.311Z" style="fill:#084883"/><path d="M0 14v12.922l.03.002v10.283c0 .114.028.22.033.33v.033a6.258 6.04 0 0 0 6.255 6.055h35.38c.054 0 .097-.03.152-.031a6.237 6.02 0 0 0 6.12-6.024v-9.222H48V14Z" style="fill:url(#a)"/><path d="M0 14h48v1H0Z" style="fill:#2f77c2"/><path d="M2.373 4.57c-.386.206-.772.419-1.078.725A4.42 4.42 0 0 0 0 8.43V14h48v-1.986l-.016.02c0-.015.016-.023.016-.038A1.992 1.992 0 0 0 46.004 10H25Z" style="fill:#5f5f5f;fill-opacity:.11799999;fill-rule:evenodd"/><path d="M4.43 4c-.313 0-.587.117-.881.178L20 5l11 6 15.252-.896c-.093-.014-.15-.104-.248-.104H31l-6-6Z" style="fill:#fff;fill-opacity:.05899999;fill-rule:evenodd"/><path d="m32.16 19.56-15.544 9.184-.065.614-1.052.823 16.718 13.145 14.116-1.744 1.188-3.064.456-3.499z" style="opacity:.2;fill:url(#c);fill-rule:evenodd"/><path d="M31.001 18.998a2 2 0 0 0-2 2 2 2 0 0 0 2 2 2 2 0 0 0 2-2 2 2 0 0 0-2-2m-3.5 3a.5.5 0 0 0-.5.5.5.5 0 0 0 .5.5.5.5 0 0 0 .5-.5.5.5 0 0 0-.5-.5m-3 2a.5.5 0 0 0-.5.5.5.5 0 0 0 .5.5.5.5 0 0 0 .5-.5.5.5 0 0 0-.5-.5m-3 2a.5.5 0 0 0-.5.5.5.5 0 0 0 .5.5.5.5 0 0 0 .5-.5.5.5 0 0 0-.5-.5m-4.5 1a2 2 0 0 0-2 2 2 2 0 0 0 2 2 2 2 0 0 0 2-2 2 2 0 0 0-2-2m4.5 4a.5.5 0 0 0-.5.5.5.5 0 0 0 .5.5.5.5 0 0 0 .5-.5.5.5 0 0 0-.5-.5m3 2a.5.5 0 0 0-.5.5.5.5 0 0 0 .5.5.5.5 0 0 0 .5-.5.5.5 0 0 0-.5-.5m3 2a.5.5 0 0 0-.5.5.5.5 0 0 0 .5.5.5.5 0 0 0 .5-.5.5.5 0 0 0-.5-.5m3.5 0a2 2 0 0 0-2 2 2 2 0 0 0 2 2 2 2 0 0 0 2-2 2 2 0 0 0-2-2" style="color:#000;fill:#fff;fill-rule:evenodd"/><path d="M1.733 41.624c.063.066.09.162.156.225a6.263 6.045 0 0 0 4.43 1.774h35.378c.054 0 .1-.026.153-.028a6.258 6.04 0 0 0 4.336-1.802c.06-.061.088-.148.147-.211z" overflow="visible" style="color:#000;overflow:visible;isolation:auto;mix-blend-mode:normal;fill:#2f5cc2;marker:none"/></svg>