<svg xmlns="http://www.w3.org/2000/svg" viewBox="0 0 48 48"><defs><linearGradient id="a" x1="15.425" x2="31.703" y1="13.05" y2="30.815" gradientTransform="matrix(1.00417 0 0 .94968 386.737 504.534)" gradientUnits="userSpaceOnUse"><stop offset="0"/><stop offset="1" stop-opacity="0"/></linearGradient><linearGradient id="c" x1="30.207" x2="14" y1="43" y2="10" gradientTransform="matrix(-1 0 0 1 432.303 499.798)" gradientUnits="userSpaceOnUse"><stop offset="0" stop-color="#cebee5"/><stop offset="1" stop-color="#f1f1f1"/></linearGradient></defs><g transform="translate(-384.571 -499.798)"><rect width="40" height="40" x="-428.435" y="503.88" fill="#c87137" rx="20" transform="scale(-1 1)"/><path d="M428.428 523.385c.004.166.012.332.012.5 0 11.08-8.92 20-20 20s-20-8.92-20-20c0-.168.008-.334.012-.5.264 10.846 9.076 19.5 19.988 19.5s19.724-8.654 19.988-19.5" opacity=".15"/><path fill="url(#a)" d="m421.303 515.798-7.41-.711-15.146 12.675 10.624 10.94-1.581 3.15.867 1.07 5.225-.627c4.622-1.947 11.69-7.497 8.498-5.046-8.823 6.778-1.191 4.337 3.824-4.913 1.22-2.25 2.082-6.22 2.224-8.951z" opacity=".2"/><path fill="url(#c)" d="M405.18 508.798s3.197 2.193 3.416 3.438c0 0 6.764-2.139 12.707 3.562h-3s7.863 4.914 8 8c-.137-.086-1.445-.768-2-1 0 0 1.91 4.4.457 8.691-2.714 5.14-7.778 9.632-15.189 10.306-1.991.181 0 .003-2 .003v-6h2v-3c3.205-.155 3.983-7.806-.268-10 0 0-2.687 3.77-5.842 4.137 0 0-.368 3.232-4.181 1.18-1.018-.546-1.396-2.35-.37-3.815l.81-1.17s2.677-6.43 4.583-8.332c0 0 1-3 0-5 0 0 1.133.841 1.5 1.5 0 0-.255-2.137-.623-2.5"/><path fill="#c6c3c7" fill-rule="evenodd" d="M421.734 535.798c-4.716.005-9.447 0-14.163 0l-.013 1.003 13.19.005c.804-.801.452-.44.986-1.008zM424.019 532.794c-4.716.005-9.732.004-14.448.004v1l13.77.004c.606-.91.335-.483.678-1.008z" color="#000" style="font-feature-settings:normal;font-variant-alternates:normal;font-variant-caps:normal;font-variant-ligatures:normal;font-variant-numeric:normal;font-variant-position:normal;isolation:auto;mix-blend-mode:normal;shape-padding:0;text-decoration-color:#000;text-decoration-line:none;text-decoration-style:solid;text-indent:0;text-orientation:mixed;text-transform:none;white-space:normal"/></g></svg>