<svg xmlns="http://www.w3.org/2000/svg" xmlns:xlink="http://www.w3.org/1999/xlink" width="48" height="48"><defs><linearGradient id="a" x1="406.57" x2="429.12" y1="538.8" y2="507.52" gradientTransform="matrix(-1.81818 0 0 1.2469 1167.79 -128.03)" gradientUnits="userSpaceOnUse"><stop stop-color="#f3ac12"/><stop offset="1" stop-color="#f5cb39"/></linearGradient><linearGradient id="h" x1="53" x2="40" y1="31" y2="18" gradientTransform="rotate(180 228.285 280.4)" gradientUnits="userSpaceOnUse"><stop stop-color="#383e51"/><stop offset="1" stop-color="#655c6f" stop-opacity="0"/></linearGradient><linearGradient id="g" x2="0" y1="61" y2="47" gradientTransform="matrix(-1 0 0 1 442.57 482.8)" gradientUnits="userSpaceOnUse"><stop stop-color="#fddda3"/><stop offset="1" stop-color="#fde3a7"/></linearGradient><linearGradient id="b" x2="0" y1="522.46" y2="541.2" gradientTransform="matrix(-1.81818 0 0 1.2469 1167.79 -128.03)" gradientUnits="userSpaceOnUse"><stop stop-color="#daae00"/><stop offset="1" stop-color="#eca01c"/></linearGradient><linearGradient id="i" x1="403.57" x2="390.57" y1="-512.8" y2="-501.8" gradientTransform="matrix(1 0 0 -1 -384.57 -499.8)" gradientUnits="userSpaceOnUse"><stop stop-color="#f5cd52"/><stop offset="1" stop-color="#f8d474"/></linearGradient><linearGradient id="k" x1="394.57" x2="435.57" gradientTransform="matrix(1 0 0 -1 -384.57 -499.8)" gradientUnits="userSpaceOnUse"><stop stop-color="#e88f21"/><stop offset="1" stop-color="#e88f21" stop-opacity="0"/></linearGradient><linearGradient id="j" x1="393.57" x2="439.57" gradientTransform="matrix(1 0 0 -1 -384.57 -499.8)" gradientUnits="userSpaceOnUse"><stop stop-color="#fff"/><stop offset="1" stop-color="#fff" stop-opacity="0"/></linearGradient><linearGradient xlink:href="#a" id="f" x1="406.57" x2="429.12" y1="538.8" y2="507.52" gradientTransform="matrix(-1.81818 0 0 1.2469 783.22 -627.83)" gradientUnits="userSpaceOnUse"/><linearGradient xlink:href="#b" id="c" x2="0" y1="522.46" y2="541.2" gradientTransform="matrix(-1.81818 0 0 1.2469 783.22 -627.83)" gradientUnits="userSpaceOnUse"/></defs><path d="M16 44H4V32l13-1z" style="color:#000;fill:url(#c)"/><path d="M10.156 4A6.143 6.143 0 0 0 4 10.156V32l12 12h28V10.156A6.143 6.143 0 0 0 37.844 4Z" style="color:#000;fill:url(#f)"/><path d="M28 16 16.008 27.992h-.004v4.01h4.01v-.004l11.992-11.992-.002-.002.002-.002-4-4-.002.002zm-1.998 3.412 2.59 2.59-7.588 7.588V28h-2v-1.59Zm-7.998 7.998V29h2v1.59l-.41.41h-1.59l-1-1v-1.59zm5 3.59-1 1h10v-1z" style="color:#4d4d4d;opacity:.54299999;fill:#560000"/><g style="fill-rule:evenodd"><path d="m388.57 531.8 12 12v-12z" style="fill:url(#g)" transform="translate(-384.57 -499.8)"/><path d="m412.57 543.8-12-12v12z" style="opacity:.2;fill:url(#h)" transform="translate(-384.57 -499.8)"/></g><path d="M10.156 4A6.143 6.143 0 0 0 4 10.156V11h40v-.844A6.143 6.143 0 0 0 37.844 4Z" style="color:#4d4d4d;fill:url(#i)"/><path d="M10.156 4c-.852 0-1.663.172-2.4.482-.29.123-.505.355-.77.518h34.028c-.265-.163-.48-.395-.77-.518a6.2 6.2 0 0 0-2.4-.482Z" style="color:#4d4d4d;opacity:.444;fill:url(#j)"/><path d="M4 12h40v-1H4Z" style="color:#4d4d4d;opacity:.22400004;fill:url(#k)"/></svg>