<svg xmlns="http://www.w3.org/2000/svg" xmlns:xlink="http://www.w3.org/1999/xlink" width="48" height="48"><defs><linearGradient id="f" x2="0" y1="34" y2="4" gradientUnits="userSpaceOnUse"><stop stop-color="#7cbaf8"/><stop offset="1" stop-color="#f4fcff"/></linearGradient><linearGradient id="a" x1="405.57" x2="427.57" y1="509.8" y2="533.8" gradientUnits="userSpaceOnUse"><stop stop-opacity=".286"/><stop offset="1" stop-opacity="0"/></linearGradient><linearGradient xlink:href="#a" id="e" x1="412.57" x2="425.57" y1="514.8" y2="527.8" gradientTransform="translate(-384.57 -499.8)" gradientUnits="userSpaceOnUse"/><linearGradient id="b" x2="0" y1="44" y2="4" gradientTransform="matrix(-1 0 0 1 -12 0)" gradientUnits="userSpaceOnUse"><stop stop-color="#2f74c8"/><stop offset="1" stop-color="#4699d7"/></linearGradient><linearGradient xlink:href="#a" id="d" x1="405.57" x2="427.57" y1="509.8" y2="533.8" gradientTransform="translate(-384.57 -499.8)" gradientUnits="userSpaceOnUse"/><linearGradient xlink:href="#b" id="c" x2="0" y1="44" y2="4" gradientTransform="matrix(-1 0 0 1 48 0)" gradientUnits="userSpaceOnUse"/></defs><path d="M12.953 4c-1.24 0-2.42.25-3.492.701a8.9 8.9 0 0 0-2.844 1.916 8.9 8.9 0 0 0-1.916 2.844A9 9 0 0 0 4 12.953v12.094c0 1.24.25 2.42.701 3.492a8.9 8.9 0 0 0 1.916 2.844 8.9 8.9 0 0 0 2.844 1.916 9 9 0 0 0 3.492.701H13v10l11-10h11.047c1.24 0 2.42-.25 3.492-.701a8.9 8.9 0 0 0 2.844-1.916 8.9 8.9 0 0 0 1.916-2.844A9 9 0 0 0 44 25.047V12.953c0-1.24-.25-2.42-.701-3.492a8.9 8.9 0 0 0-1.916-2.844 8.9 8.9 0 0 0-2.844-1.916A9 9 0 0 0 35.047 4Z" style="fill:url(#c);fill-rule:evenodd"/><path d="M24 34h11.047c1.24 0 2.42-.25 3.492-.701a8.9 8.9 0 0 0 2.844-1.916 8.9 8.9 0 0 0 1.916-2.844A9 9 0 0 0 44 25.047V15.46L34 8l-20 6v1l-1-1H9v9l3 3v3l6 6v-1z" style="opacity:.2;fill:url(#d);fill-rule:evenodd"/><path d="m35 22 9 9V20l-5-5h-4z" style="opacity:.2;fill:url(#e);fill-rule:evenodd"/><path d="m34 8-20 6v9l20 6V14ZM9 14v9h4v-9zm26 1v7h4v-7zm-23 9v5h3v-5z" style="fill:url(#f);fill-rule:evenodd"/></svg>