<svg xmlns="http://www.w3.org/2000/svg" xmlns:xlink="http://www.w3.org/1999/xlink" width="48" height="48"><defs><linearGradient id="b" x1="23.719" x2="33.466" y1="20.985" y2="30.733" gradientTransform="rotate(5.607 34.012 8.98)" gradientUnits="userSpaceOnUse"><stop/><stop offset="1" stop-opacity="0"/></linearGradient><linearGradient id="a" x2="0" y1="44" y2="4" gradientTransform="matrix(-1 0 0 1 -12 0)" gradientUnits="userSpaceOnUse"><stop stop-color="#2f74c8"/><stop offset="1" stop-color="#4699d7"/></linearGradient><linearGradient id="f" x2="0" y1="522.8" y2="492.8" gradientTransform="translate(-353.57 -489.8)" gradientUnits="userSpaceOnUse"><stop stop-color="#7cbaf8"/><stop offset="1" stop-color="#f4fcff"/></linearGradient><linearGradient xlink:href="#a" id="c" x2="0" y1="44" y2="4" gradientTransform="matrix(-1 0 0 1 48 0)" gradientUnits="userSpaceOnUse"/><linearGradient xlink:href="#b" id="e" x1="23.719" x2="33.466" y1="20.985" y2="30.733" gradientTransform="rotate(5.607 34.012 8.98)" gradientUnits="userSpaceOnUse"/><linearGradient xlink:href="#b" id="d" x1="23.719" x2="33.466" y1="20.985" y2="30.733" gradientTransform="rotate(5.607 34.012 8.98)" gradientUnits="userSpaceOnUse"/></defs><path d="M12.953 4c-1.24 0-2.42.25-3.492.701a8.9 8.9 0 0 0-2.844 1.916 8.9 8.9 0 0 0-1.916 2.844A9 9 0 0 0 4 12.953v12.094c0 1.24.25 2.42.701 3.492a8.9 8.9 0 0 0 1.916 2.844 8.9 8.9 0 0 0 2.844 1.916 9 9 0 0 0 3.492.701H13v10l11-10h11.047c1.24 0 2.42-.25 3.492-.701a8.9 8.9 0 0 0 2.844-1.916 8.9 8.9 0 0 0 1.916-2.844A9 9 0 0 0 44 25.047V12.953c0-1.24-.25-2.42-.701-3.492a8.9 8.9 0 0 0-1.916-2.844 8.9 8.9 0 0 0-2.844-1.916A9 9 0 0 0 35.047 4Z" style="fill:url(#c);fill-rule:evenodd"/><path d="M31.428 34h3.619c1.24 0 2.42-.25 3.492-.701a8.9 8.9 0 0 0 2.844-1.916 8.9 8.9 0 0 0 1.916-2.844c.353-.839.466-1.784.549-2.732L30.788 10.26c-.434-.522-1.757-1.748-1.757-1.748l-.002-.002-1.091.898s3.067 4.093 3.066 9.09c0 1.043-.143 2.027-.338 2.957l-3.662-4.459h-4.07l-4.928-6h-3l-.002 3zm-7.43.002 3.035.002L27.03 34H24Z" style="opacity:.2;fill:url(#d)"/><path d="M23.998 34.002 24 34h3.03l-9.028-11.002h-3v2.998h.896v.46c-.249.531-.896.542-.896.542l-.004.998 7.05 7.373 1.944-1.367z" style="opacity:.2;fill:url(#e)"/><path d="m29.03 8.52-1.093.897s3.066 4.094 3.062 9.09c-.004 5-2.838 9.02-2.838 9.02l.897 1.093s4.934-3.107 4.939-10.11c.005-7-4.967-9.993-4.967-9.993M18 10.998h-2.999l-.003 3h3zm8.997 6.01-6-.005v3l5.999.005zm-9 5.993h-3V26h.999c-.001 1-.999 1-.999 1l-.002.999 1 .002c2 .001 2-1.999 2-1.999z" style="fill:url(#f)"/></svg>