<svg xmlns="http://www.w3.org/2000/svg" xmlns:xlink="http://www.w3.org/1999/xlink" width="48" height="48"><defs><linearGradient id="f" x1="32" x2="-8" y1="-6" y2="32" gradientTransform="rotate(-90 44 -8)" gradientUnits="userSpaceOnUse"><stop stop-color="#d8dcde"/><stop offset="1" stop-color="#f9fafb"/></linearGradient><linearGradient id="a" x2="0" y1="8" y2="4" gradientTransform="translate(1)" gradientUnits="userSpaceOnUse"><stop stop-color="#2f3943"/><stop offset="1" stop-color="#4d5662"/></linearGradient><linearGradient xlink:href="#a" id="j" x2="-.559" y1="8" y2="7.915" gradientTransform="translate(-22)" gradientUnits="userSpaceOnUse"/><linearGradient id="b" x1="8" x2="19" y1="8" y2="19" gradientUnits="userSpaceOnUse"><stop/><stop offset="1" stop-opacity="0"/></linearGradient><linearGradient xlink:href="#b" id="l" x1="8" x2="19" y1="8" y2="19" gradientTransform="matrix(0 1 1 0 0 0)" gradientUnits="userSpaceOnUse"/><linearGradient xlink:href="#d" id="h" x1="29.06" x2="29.01" y1="13.634" y2="1.499" gradientTransform="matrix(-.00282 .99376 .65925 -.00423 4.893 .177)" gradientUnits="userSpaceOnUse"/><linearGradient xlink:href="#a" id="i" x2="0" y1="8" y2="4" gradientTransform="translate(-47)" gradientUnits="userSpaceOnUse"/><linearGradient xlink:href="#b" id="k" x1="8" x2="19" y1="8" y2="19" gradientTransform="matrix(0 1 1 0 0 25)" gradientUnits="userSpaceOnUse"/><linearGradient id="d" x2="0" y1="13" y2="33" gradientTransform="translate(52.511 -30)" gradientUnits="userSpaceOnUse"><stop stop-color="#f67400"/><stop offset="1" stop-color="#fdbc4b"/></linearGradient><linearGradient xlink:href="#f" id="g" x1="32" x2="-8" y1="-6" y2="32" gradientTransform="rotate(-90 24 12)" gradientUnits="userSpaceOnUse"/></defs><path d="M13 44h24.656c.879 0 1.715-.176 2.475-.496A6.33 6.33 0 0 0 44 37.656V10.344c0-.879-.176-1.715-.496-2.475A6.33 6.33 0 0 0 37.656 4H13Z" style="fill:url(#g);stroke-width:2;stroke-linejoin:bevel"/><path d="M6 44V4h8v40Z" style="fill:url(#h);stroke-width:2;stroke-linejoin:bevel;fill-opacity:1"/><path d="M-44 13h40v1h-40z" style="fill:#dd7107;stroke-width:2;stroke-linecap:round;stroke-linejoin:bevel;fill-opacity:1" transform="rotate(-90)"/><path d="M7 7v9h1V7zm0 25v9h1v-9z" style="fill:#f7800c;stroke-width:2;stroke-linecap:round;stroke-linejoin:bevel;fill-opacity:1"/><path d="M-40 4h7v4h-7z" style="fill:url(#i);stroke-width:2;stroke-linecap:round;stroke-linejoin:bevel" transform="rotate(-90)"/><path d="M-15 4h7v4h-7z" style="fill:url(#j);stroke-width:2;stroke-linecap:round;stroke-linejoin:bevel" transform="rotate(-90)"/><path d="m8 33 6 6v5h-2l-4-4z" style="opacity:.2;fill:url(#k);fill-rule:evenodd"/><path d="m8 8 6 6v7l-6-6z" style="opacity:.2;fill:url(#l);fill-rule:evenodd"/><path d="M18 8v6h6V8zm1 1h4v4h-4z" style="opacity:1;fill:#dd7107;fill-opacity:1;stroke:none;stroke-width:2;stroke-miterlimit:4;stroke-dasharray:none;stroke-opacity:1"/><path d="M18 34v6h6v-6zm1 1h4v4h-4z" style="opacity:1;fill:#da4453;fill-opacity:1;stroke:none;stroke-width:2;stroke-miterlimit:4;stroke-dasharray:none;stroke-opacity:1"/><path d="M18 21v6h6v-6zm1 1h4v4h-4z" style="opacity:1;fill:#27ae60;fill-opacity:1;stroke:none;stroke-width:2;stroke-miterlimit:4;stroke-dasharray:none;stroke-opacity:1"/><path d="M40.637 32.44 33 40l-2.91-2.88-.727.72 2.908 2.879.729.72 1.09-1.08 7.273-7.199z" style="color:#4d4d4d;fill:#4d4d4d;fill-opacity:.86666667;stroke:none"/></svg>