<svg xmlns="http://www.w3.org/2000/svg" xmlns:xlink="http://www.w3.org/1999/xlink" width="48" height="48" version="1"><defs><linearGradient id="b"><stop offset="0" style="stop-color:#c6cdd1;stop-opacity:1"/><stop offset="1" style="stop-color:#e0e5e7;stop-opacity:1"/></linearGradient><linearGradient id="d"><stop offset="0" style="stop-color:#000;stop-opacity:1"/><stop offset="1" style="stop-color:#000;stop-opacity:0"/></linearGradient><linearGradient id="c"><stop offset="0" style="stop-color:#913bb5;stop-opacity:1"/><stop offset="1" style="stop-color:#cb7cec;stop-opacity:1"/></linearGradient><linearGradient id="a"><stop offset="0" style="stop-color:#dd2c13;stop-opacity:1"/><stop offset="1" style="stop-color:#e05e4c;stop-opacity:1"/></linearGradient><linearGradient xlink:href="#a" id="f" x1="48.512" x2="39.622" y1="-3.732" y2="-8.012" gradientUnits="userSpaceOnUse"/><linearGradient xlink:href="#a" id="g" x1="31.18" x2="24" y1="34.498" y2="17" gradientUnits="userSpaceOnUse"/><linearGradient xlink:href="#a" id="h" x1="42" x2="35.616" y1="39.142" y2="25.298" gradientUnits="userSpaceOnUse"/><linearGradient xlink:href="#b" id="e" x1="-44" x2="-14.235" y1="-38" y2="-30.179" gradientUnits="userSpaceOnUse"/><linearGradient xlink:href="#b" id="j" x1="-34" x2="-9.811" y1="-19" y2="-9.658" gradientUnits="userSpaceOnUse"/><linearGradient xlink:href="#c" id="k" x1="19.279" x2="12.106" y1="32.164" y2="9.185" gradientUnits="userSpaceOnUse"/><linearGradient xlink:href="#d" id="i" x1="4.68" x2="27.417" y1="4.407" y2="30.538" gradientTransform="translate(4 5)" gradientUnits="userSpaceOnUse"/><linearGradient xlink:href="#c" id="m" x1="19.279" x2="12.106" y1="32.164" y2="9.185" gradientTransform="translate(4 5)" gradientUnits="userSpaceOnUse"/><linearGradient xlink:href="#b" id="l" x1="-34" x2="-9.811" y1="-19" y2="-9.658" gradientTransform="translate(-5 -4)" gradientUnits="userSpaceOnUse"/></defs><rect width="30" height="22" x="-44" y="-44" rx="1.5" ry="1.467" style="fill:url(#e);fill-opacity:1" transform="scale(1 -1)rotate(90)"/><path d="M39.84-10.87h9.22v9.22h-9.22z" style="opacity:1;fill:url(#f);fill-opacity:1;stroke:none;stroke-width:2;stroke-linecap:round;stroke-linejoin:round;stroke-miterlimit:4;stroke-dasharray:none;stroke-opacity:0" transform="scale(.92036 1.07375)rotate(45)"/><path d="M24 16v1h1v3h1v-3h1v-1h-3m1.5 5L23 24l2.5 3 2.5-3z" style="opacity:1;fill:url(#g);fill-opacity:1;stroke:none;stroke-width:2;stroke-linecap:round;stroke-linejoin:round;stroke-miterlimit:4;stroke-dasharray:none;stroke-opacity:0"/><path d="M40.5 31 38 34l2.5 3 2.5-3zm-.5 7v3h-1v1h3v-1h-1v-3z" style="opacity:1;fill:url(#h);fill-opacity:1;stroke:none;stroke-width:2;stroke-linecap:round;stroke-linejoin:round;stroke-miterlimit:4;stroke-dasharray:none;stroke-opacity:0"/><path d="m29.498 9.412-10.955 1.406-7.098 16.446-3.254 10.963c.02.037.036.078.059.113l.008.01.402.402c.232.156.508.248.807.248H22v3.5c0 .831.654 1.5 1.467 1.5h19.066c.813 0 1.467-.669 1.467-1.5V23.914z" style="opacity:.2;fill:url(#i);fill-opacity:1;stroke:none;stroke-width:2;stroke-linecap:round;stroke-linejoin:round;stroke-miterlimit:4;stroke-dasharray:none;stroke-opacity:0"/><rect width="30" height="22" x="-34" y="-26" rx="1.5" ry="1.467" style="fill:url(#j);fill-opacity:1" transform="scale(1 -1)rotate(90)"/><path d="M7.2 6c-.247 0-.461.1-.651.236l-.035.035-.006-.005C6.208 6.5 6 6.866 6 7.3v2.316l.516-.515 1.414 1.414-1.414 1.414L6 11.414v3.86l.516-.516 1.414 1.414-1.414 1.414L6 17.07v3.86l.516-.516 1.414 1.414-1.414 1.414L6 22.727v3.859l.516-.516 1.414 1.414-1.414 1.414L6 28.383v2.316c0 .434.208.8.508 1.035l.006-.006.035.036c.19.137.404.236.65.236h4.7l.273-.273.273.273h5.11l.273-.273.274.273H22.8c.246 0 .46-.1.65-.236l.035-.035.006.005c.3-.235.508-.6.508-1.035v-2.316l-.516.515-1.414-1.414 1.414-1.414.516.516v-3.86l-.516.516-1.414-1.414 1.414-1.414.516.516v-3.86l-.516.516-1.414-1.414 1.414-1.414.516.515v-3.859l-.516.516-1.414-1.414 1.414-1.414.516.515V7.301c0-.434-.208-.8-.508-1.035l-.006.006-.035-.036c-.19-.137-.404-.236-.65-.236h-4.7l-.273.273L17.555 6h-5.11l-.273.273L11.898 6zm2.144.273 1.414 1.415-1.414 1.414L7.93 7.687zm5.656 0 1.414 1.415L15 9.102l-1.414-1.415zm5.656 0 1.414 1.415-1.414 1.414-1.414-1.415zm-8.484 2.829 1.414 1.414-1.414 1.414-1.414-1.414zm5.656 0 1.414 1.414-1.414 1.414-1.414-1.414zM9.344 11.93l1.414 1.414-1.414 1.414-1.414-1.414zm5.656 0 1.414 1.414L15 14.758l-1.414-1.414zm5.656 0 1.414 1.414-1.414 1.414-1.414-1.414zm-8.484 2.828 1.414 1.414-1.414 1.414-1.414-1.414zm5.656 0 1.414 1.414-1.414 1.414-1.414-1.414zm-8.484 2.828L10.758 19l-1.414 1.414L7.93 19zm5.656 0L16.414 19 15 20.414 13.586 19zm5.656 0L22.07 19l-1.414 1.414L19.242 19zm-8.484 2.828 1.414 1.414-1.414 1.414-1.414-1.414zm5.656 0 1.414 1.414-1.414 1.414-1.414-1.414zm-8.484 2.828 1.414 1.414-1.414 1.414-1.414-1.414zm5.656 0 1.414 1.414L15 26.07l-1.414-1.414zm5.656 0 1.414 1.414-1.414 1.414-1.414-1.414zm-8.484 2.828 1.414 1.414-1.414 1.414-1.414-1.414zm5.656 0 1.414 1.414-1.414 1.414-1.414-1.414zm-8.484 2.828 1.414 1.415-1.414 1.414-1.414-1.415zm5.656 0 1.414 1.415L15 31.727l-1.414-1.415zm5.656 0 1.414 1.414-1.414 1.415-1.414-1.414z" style="opacity:1;fill:url(#k);fill-opacity:1;stroke:none;stroke-width:2;stroke-linecap:round;stroke-linejoin:round;stroke-miterlimit:4;stroke-dasharray:none;stroke-opacity:0"/><path d="M4 31.5v1c0 .831.654 1.5 1.467 1.5h19.066c.813 0 1.467-.669 1.467-1.5v-1c0 .831-.654 1.5-1.467 1.5H5.467C4.654 33 4 32.331 4 31.5" style="fill:#000;fill-opacity:1;opacity:.15"/><rect width="30" height="22" x="-39" y="-30" rx="1.5" ry="1.467" style="fill:url(#l);fill-opacity:1" transform="scale(1 -1)rotate(90)"/><path d="M11.2 11c-.247 0-.461.1-.651.236l-.035.035-.006-.005c-.3.235-.508.6-.508 1.035v2.316l.516-.515 1.414 1.414-1.414 1.414-.516-.516v3.86l.516-.516 1.414 1.414-1.414 1.414L10 22.07v3.86l.516-.516 1.414 1.414-1.414 1.414-.516-.515v3.859l.516-.516 1.414 1.414-1.414 1.414-.516-.515v2.316c0 .434.208.8.508 1.035l.006-.006.035.036c.19.137.404.236.65.236h4.7l.273-.273.273.273h5.11l.273-.273.274.273H26.8c.246 0 .46-.1.65-.236l.035-.035.006.005c.3-.235.508-.6.508-1.035v-2.316l-.516.515-1.414-1.414 1.414-1.414.516.516v-3.86l-.516.516-1.414-1.414 1.414-1.414.516.516v-3.86l-.516.516-1.414-1.414 1.414-1.414.516.515v-3.859l-.516.516-1.414-1.414 1.414-1.414.516.515v-2.316c0-.434-.208-.8-.508-1.035l-.006.006-.035-.036c-.19-.137-.404-.236-.65-.236h-4.7l-.273.273-.273-.273h-5.11l-.273.273-.274-.273zm2.144.273 1.414 1.415-1.414 1.414-1.414-1.415zm5.656 0 1.414 1.415L19 14.102l-1.414-1.415zm5.656 0 1.414 1.415-1.414 1.414-1.414-1.415zm-8.484 2.829 1.414 1.414-1.414 1.414-1.414-1.414zm5.656 0 1.414 1.414-1.414 1.414-1.414-1.414zm-8.484 2.828 1.414 1.414-1.414 1.414-1.414-1.414zm5.656 0 1.414 1.414L19 19.758l-1.414-1.414zm5.656 0 1.414 1.414-1.414 1.414-1.414-1.414zm-8.484 2.828 1.414 1.414-1.414 1.414-1.414-1.414zm5.656 0 1.414 1.414-1.414 1.414-1.414-1.414zm-8.484 2.828L14.758 24l-1.414 1.414L11.93 24zm5.656 0L20.414 24 19 25.414 17.586 24zm5.656 0L26.07 24l-1.414 1.414L23.242 24zm-8.484 2.828 1.414 1.414-1.414 1.414-1.414-1.414zm5.656 0 1.414 1.414-1.414 1.414-1.414-1.414zm-8.484 2.828 1.414 1.414-1.414 1.414-1.414-1.414zm5.656 0 1.414 1.414L19 31.07l-1.414-1.414zm5.656 0 1.414 1.414-1.414 1.414-1.414-1.414zm-8.484 2.828 1.414 1.414-1.414 1.414-1.414-1.414zm5.656 0 1.414 1.414-1.414 1.414-1.414-1.414zm-8.484 2.828 1.414 1.414-1.414 1.415-1.414-1.414zm5.656 0 1.414 1.414L19 36.728l-1.414-1.414zm5.656 0 1.414 1.414-1.414 1.415-1.414-1.414z" style="opacity:1;fill:url(#m);fill-opacity:1;stroke:none;stroke-width:2;stroke-linecap:round;stroke-linejoin:round;stroke-miterlimit:4;stroke-dasharray:none;stroke-opacity:0"/><path d="M22 41.5v1c0 .831.654 1.5 1.467 1.5h19.066c.813 0 1.467-.669 1.467-1.5v-1c0 .831-.654 1.5-1.467 1.5H23.467C22.654 43 22 42.331 22 41.5M8 36.5v1c0 .831.654 1.5 1.467 1.5h19.066c.813 0 1.467-.669 1.467-1.5v-1c0 .831-.654 1.5-1.467 1.5H9.467C8.654 38 8 37.331 8 36.5" style="fill:#000;fill-opacity:1;opacity:.15"/></svg>