<svg xmlns="http://www.w3.org/2000/svg" width="48" height="48"><circle cx="23.982" cy="24.368" r="20.632" style="opacity:.2;stroke-width:.736842"/><circle cx="23.982" cy="23.632" r="20.632" style="fill:#e4e4e4;stroke-width:.736842"/><path d="M23.982 3A20.63 20.63 0 0 0 3.35 23.632a21 21 0 0 0 .016.431A20.63 20.63 0 0 1 23.982 3.737a20.63 20.63 0 0 1 20.615 20.2l.016-.305A20.63 20.63 0 0 0 23.982 3" style="opacity:.2;fill:#fff;stroke-width:.736842"/><path d="M20.637 17.813c-2.162 0-3.928 1.625-3.928 3.637 0 1.047.473 2.002 1.233 2.666l5.942 5.334 6.137-5.334a3.54 3.54 0 0 0 1.233-2.666c0-2.012-1.765-3.636-3.928-3.636-1.424 0-2.66.7-3.344 1.757-.685-1.058-1.92-1.757-3.344-1.757zM12.462 14.904c-.865 0-1.571.61-1.571 1.364 0 .392.189.751.493 1l2.377 2 2.455-2c.304-.249.493-.608.493-1 0-.754-.707-1.364-1.572-1.364-.57 0-1.063.262-1.337.659-.274-.397-.768-.659-1.338-.659M14.89 12.722H12.71l-.364.728h-1.454l2.155-5.819h1.48l2.245 5.819h-1.517zm-1.747-1.454h1.375L13.8 9.086zM35.501 32.359c.864 0 1.571-.61 1.571-1.365 0-.391-.189-.75-.493-.999l-2.376-2-2.456 2a1.3 1.3 0 0 0-.493 1c0 .754.707 1.364 1.571 1.364.57 0 1.065-.262 1.338-.66.274.398.768.66 1.338.66M35.254 34.54h-2.182l-.363-.727h-1.455l2.155 5.818h1.482l2.244-5.818h-1.517zm-1.747 1.455h1.375l-.719 2.182z" style="fill:#c83771"/></svg>