<svg xmlns="http://www.w3.org/2000/svg" viewBox="0 0 48 48"><linearGradient id="a" x1="4" x2="4" y1="3" y2="45" gradientUnits="userSpaceOnUse"><stop offset="0" stop-color="#977a5c"/><stop offset="1" stop-color="#9d8062"/></linearGradient><linearGradient id="b" x1="4" x2="4" y1="3" y2="45" gradientUnits="userSpaceOnUse"><stop offset="0" stop-color="#383e51"/><stop offset="1" stop-opacity="0"/></linearGradient><linearGradient id="c" x1="4" x2="4" y1="3" y2="45" gradientUnits="userSpaceOnUse"><stop offset="0" stop-color="#21c9fb"/><stop offset="1" stop-color="#197cf1"/></linearGradient><path d="M2 6v36h44V6z" style="fill:url(#a)"/><path d="M4 8v32h40V8z" style="fill:#eff0f1"/><path d="M33 15 15 33l7 7h22V25z" style="fill:url(#b);opacity:.2"/><path d="M15 15v18h18V15z" style="fill:url(#c)"/><path d="M14 14v20h20V14zm1 1h18v18H15V15m0 17h4l3-3-2-2zm18 0-6-6-6 6zM18.5 16a2.495 2.495 0 0 0-2.5 2.5c0 1.385 1.115 2.5 2.5 2.5s2.5-1.115 2.5-2.5-1.115-2.5-2.5-2.5" style="fill:#fff"/><path d="m30 11-2 2 7 7 2-2zM12 28l-2 2 7 7 2-2z" style="fill:#f8c94d"/></svg>