<svg xmlns="http://www.w3.org/2000/svg" xmlns:xlink="http://www.w3.org/1999/xlink" width="48" height="48"><defs><linearGradient xlink:href="#a" id="p" x2="0" y1="547.798" y2="536.798" gradientTransform="matrix(1 0 0 .54545 -384.571 -255.799)" gradientUnits="userSpaceOnUse"/><linearGradient id="a"><stop stop-color="#c6cdd1"/><stop offset="1" stop-color="#e0e5e7"/></linearGradient><linearGradient id="n"><stop stop-color="#7e8f9e"/><stop offset="1" stop-color="#84ced5"/></linearGradient><linearGradient xlink:href="#c" id="s" x1="394.571" x2="404.571" y1="535.798" y2="522.798" gradientTransform="translate(-392.571 -493.798)" gradientUnits="userSpaceOnUse"/><linearGradient id="c"><stop stop-color="#e4a56d"/><stop offset="1" stop-color="#a7bd78"/></linearGradient><linearGradient xlink:href="#e" id="t" x1="404.571" x2="421.571" gradientTransform="translate(-392.571 -493.798)" gradientUnits="userSpaceOnUse"/><linearGradient id="e"><stop stop-color="#c3a278"/><stop offset="1" stop-color="#68a"/></linearGradient><linearGradient xlink:href="#f" id="u" x1="430.571" x2="437.5" y1="536.798" y2="524.798" gradientTransform="translate(-392.571 -493.798)" gradientUnits="userSpaceOnUse"/><linearGradient id="f"><stop stop-color="#6588af"/><stop offset="1" stop-color="#8ba8cd"/></linearGradient><linearGradient xlink:href="#g" id="v" x1="421.571" x2="438.571" gradientTransform="translate(-392.571 -493.798)" gradientUnits="userSpaceOnUse"/><linearGradient id="g"><stop stop-color="#89ad8b"/><stop offset="1" stop-color="#82b3c7"/></linearGradient><linearGradient xlink:href="#h" id="w" x1="387.571" x2="401.571" y1="525.798" y2="513.798" gradientTransform="translate(-392.571 -493.798)" gradientUnits="userSpaceOnUse"/><linearGradient id="h"><stop stop-color="#e1b16f"/><stop offset="1" stop-color="#99bf83"/></linearGradient><linearGradient xlink:href="#i" id="x" x1="404.571" x2="391.571" y1="510.798" y2="498.798" gradientTransform="translate(-392.571 -493.798)" gradientUnits="userSpaceOnUse"/><linearGradient id="i"><stop stop-color="#99c487"/><stop offset="1" stop-color="#b4d99e"/></linearGradient><linearGradient xlink:href="#j" id="y" x1="404.571" x2="421.571" gradientTransform="translate(-392.571 -493.798)" gradientUnits="userSpaceOnUse"/><linearGradient id="j"><stop stop-color="#75d5c7"/><stop offset="1" stop-color="#66afb9"/></linearGradient><linearGradient id="o"><stop stop-color="#5c7b9e"/><stop offset="1" stop-color="#839dc0"/></linearGradient><linearGradient xlink:href="#k" id="A" x1="421.571" x2="406.571" gradientTransform="translate(-392.571 -493.798)" gradientUnits="userSpaceOnUse"/><linearGradient id="k"><stop stop-color="#7fbcc6"/><stop offset="1" stop-color="#8ee4e3"/></linearGradient><linearGradient xlink:href="#m" id="B" x1="421.571" x2="436.571" gradientTransform="translate(-392.571 -493.798)" gradientUnits="userSpaceOnUse"/><linearGradient id="m"><stop stop-color="#84d5d7"/><stop offset="1" stop-color="#84a8ba"/></linearGradient><linearGradient id="q" x2="0" y1="536.8" y2="503.8" gradientTransform="translate(-384.57 -499.8)" gradientUnits="userSpaceOnUse"><stop stop-color="#2a2c2f"/><stop offset="1" stop-color="#424649"/></linearGradient><linearGradient xlink:href="#n" id="r" x2="0" y1="541.798" y2="489.798" gradientTransform="translate(-392.571 -493.798)" gradientUnits="userSpaceOnUse"/><linearGradient xlink:href="#o" id="z" x1="428.571" x2="438.571" y1="495.798" y2="504.798" gradientTransform="translate(-392.571 -493.798)" gradientUnits="userSpaceOnUse"/></defs><path d="M18 37v6h12v-6z" style="fill:url(#p)"/><rect width="48" height="36" y="4" rx="5" ry="5" style="fill:url(#q)"/><path d="M5.004 6.002a2.987 2.987 0 0 0-3 2.988v27.008h43.994V8.982a2.98 2.98 0 0 0-.87-2.105 3 3 0 0 0-2.124-.875Z" style="fill:url(#r)"/><path d="M12 22 2 30.234V36h10z" style="fill:url(#s);fill-rule:evenodd"/><path d="M12 22v14h17Z" style="fill:url(#t);fill-rule:evenodd"/><path d="M46 22 29 36h17z" style="fill:url(#u);fill-rule:evenodd"/><path d="M29 30V8l17 14-17 14Z" style="fill:url(#v);fill-rule:evenodd"/><path d="M2 13.766v16.468L12 22Z" style="fill:url(#w);fill-rule:evenodd"/><path d="M12 6.002H5.004a2.987 2.987 0 0 0-3 2.988v4.78L12 22v-6z" style="fill:url(#x);fill-rule:evenodd"/><path d="M12 6v16L29 8l-2.43-2Z" style="fill:url(#y);fill-rule:evenodd"/><path d="M45.998 21.998V8.982a2.98 2.98 0 0 0-.87-2.105 3 3 0 0 0-2.124-.875H31.428L29 8Z" style="fill:url(#z);fill-rule:evenodd"/><path d="M26.57 6 29 8V6Z" style="fill:url(#A);fill-rule:evenodd"/><path d="M29 6v2l2.43-2Z" style="fill:url(#B);fill-rule:evenodd"/><path d="M12.999 42.002h22v2h-22z" style="fill:#99a1a7"/><path d="m12.714 18.089 2.234 2.233c5.551-5.55 14.553-5.55 20.104 0l2.234-2.233c-6.785-6.785-17.787-6.785-24.572 0m8.935 8.935L25 30.374l3.35-3.35a4.74 4.74 0 0 0-6.7 0zm-4.467-4.468 2.234 2.234a7.9 7.9 0 0 1 11.168 0l2.234-2.234c-4.317-4.316-11.32-4.316-15.636 0" style="opacity:.75;fill:#fff"/></svg>