<svg xmlns="http://www.w3.org/2000/svg" width="48" height="48"><defs><linearGradient id="g" x1="23" x2="5" y1="35" y2="13" gradientTransform="translate(382.57 499.8)" gradientUnits="userSpaceOnUse"><stop stop-color="#c61423"/><stop offset="1" stop-color="#dc2b41"/></linearGradient><linearGradient id="f" x1="42" x2="22" y1="35" y2="12" gradientTransform="translate(386.57 499.8)" gradientUnits="userSpaceOnUse"><stop stop-color="#197cf1"/><stop offset="1" stop-color="#20bcfa"/></linearGradient><linearGradient id="c" x1="399.99" x2="424.99" y1="513.38" y2="537.38" gradientTransform="translate(-2.414 -1.586)" gradientUnits="userSpaceOnUse"><stop stop-color="#292c2f"/><stop offset="1" stop-opacity="0"/></linearGradient><linearGradient id="b" x2="0" y1="543.8" y2="503.8" gradientTransform="matrix(1.05 0 0 .85 -20.429 78.57)" gradientUnits="userSpaceOnUse"><stop stop-color="#e3dfd6"/><stop offset="1" stop-color="#f4f1e8"/></linearGradient><linearGradient id="a" x2="0" y1="543.8" y2="503.8" gradientTransform="matrix(1.5 0 0 1 -588.86 -499.8)" gradientUnits="userSpaceOnUse"><stop stop-color="#bd8d48"/><stop offset="1" stop-color="#e8b971"/></linearGradient></defs><path fill="url(#a)" d="M0 4v40h48V4zm2 2h44v36H2z"/><path fill="url(#b)" d="M387.57 506.8h42v34h-42z" transform="translate(-384.57 -499.8)"/><path fill="url(#c)" fill-rule="evenodd" d="m389.57 531.8 11 12h32v-17l-11-11h-7v16l-16.381-16h-1.619l-5 16z" opacity=".2" transform="translate(-384.57 -499.8)"/><path fill="url(#f)" d="M414.57 515.8v16h7a5 5 0 0 0 5-5 5 5 0 0 0-2.865-4.516 4 4 0 0 0 .865-2.484 4 4 0 0 0-4-4h-4zm2 2h4a2 2 0 0 1 2 2 2 2 0 0 1-2 2h-4zm0 6h5a3 3 0 0 1 3 3 3 3 0 0 1-3 3h-5v-3zm0 3 .004.076v-.193z" transform="translate(-384.57 -499.8)"/><path fill="url(#g)" d="m395.73 515.8-6.109 16h2.283l1.42-4h7.287l1.42 4h2.25l-6.098-16zm1.221 2.133 2.912 7.867h-5.813z" transform="translate(-384.57 -499.8)"/><path fill="#aa7f41" d="M2 6v36h44V6zm1 1h42v34H3z"/><path fill="#bdb49e" d="M19 9v2h4v26h-4v2h10v-2h-4V11h4V9z"/></svg>