<svg xmlns="http://www.w3.org/2000/svg" xmlns:xlink="http://www.w3.org/1999/xlink" width="48" height="48"><defs><linearGradient id="e" x2="0" y1="547.8" y2="536.8" gradientTransform="matrix(1 0 0 .54545 -384.57 -255.8)" gradientUnits="userSpaceOnUse"><stop stop-color="#c6cdd1"/><stop offset="1" stop-color="#e0e5e7"/></linearGradient><linearGradient id="h" x1="18" x2="33" y1="17" y2="32" gradientTransform="translate(0 -1)" gradientUnits="userSpaceOnUse"><stop stop-color="#383e51"/><stop offset="1" stop-color="#655c6f" stop-opacity="0"/></linearGradient><linearGradient id="d" x1="-41.26" x2="-2.994" y1="-.883" y2="37.956" gradientTransform="matrix(.9932 0 0 .9784 91.973 6.863)" gradientUnits="userSpaceOnUse"><stop stop-color="#21c9fb"/><stop offset="1" stop-color="#1a86f2"/></linearGradient><linearGradient id="i" x2="0" y1="547.8" y2="536.8" gradientTransform="matrix(1 0 0 .54545 -324.57 -255.8)" gradientUnits="userSpaceOnUse"><stop stop-color="#c6cdd1"/><stop offset="1" stop-color="#e0e5e7"/></linearGradient><linearGradient id="f" x2="0" y1="536.8" y2="503.8" gradientTransform="translate(-384.57 -499.8)" gradientUnits="userSpaceOnUse"><stop stop-color="#2a2c2f"/><stop offset="1" stop-color="#424649"/></linearGradient><linearGradient xlink:href="#a" id="j" x1="15" x2="31" y1="16" y2="32" gradientTransform="translate(60.093)" gradientUnits="userSpaceOnUse"/><linearGradient id="a"><stop stop-color="#383e51"/><stop offset="1" stop-color="#655c6f" stop-opacity="0"/></linearGradient><linearGradient xlink:href="#c" id="k" x2="0" y1="524.798" y2="515.798" gradientTransform="translate(-324.571 -499.298)" gradientUnits="userSpaceOnUse"/><linearGradient id="c"><stop stop-color="#c61423"/><stop offset="1" stop-color="#dc2b41"/></linearGradient><linearGradient xlink:href="#d" id="g" x1="27" x2="27" y1="6" y2="36" gradientUnits="userSpaceOnUse"/></defs><path d="M18 37v6h12v-6z" style="fill:url(#e)"/><rect width="48" height="36" y="4" rx="5" ry="5" style="fill:url(#f)"/><path d="M13 42h22v2H13Z" style="fill:#99a1a7"/><path d="M5.004 6.002a2.987 2.987 0 0 0-3 2.988v27.008h43.994V8.982a2.98 2.98 0 0 0-.87-2.105 3 3 0 0 0-2.124-.875Z" style="fill:url(#g)"/><path d="m32.16 13.56-15.544 9.184-.065.614-1.052.823 16.622 13.818 14.393-.651 1.488-4.349-.025-3.98z" style="opacity:.2;fill:url(#h);fill-rule:evenodd"/><path d="M31.001 12.998a2 2 0 0 0-2 2 2 2 0 0 0 2 2 2 2 0 0 0 2-2 2 2 0 0 0-2-2m-3.5 3a.5.5 0 0 0-.5.5.5.5 0 0 0 .5.5.5.5 0 0 0 .5-.5.5.5 0 0 0-.5-.5m-3 2a.5.5 0 0 0-.5.5.5.5 0 0 0 .5.5.5.5 0 0 0 .5-.5.5.5 0 0 0-.5-.5m-3 2a.5.5 0 0 0-.5.5.5.5 0 0 0 .5.5.5.5 0 0 0 .5-.5.5.5 0 0 0-.5-.5m-4.5 1a2 2 0 0 0-2 2 2 2 0 0 0 2 2 2 2 0 0 0 2-2 2 2 0 0 0-2-2m4.5 4a.5.5 0 0 0-.5.5.5.5 0 0 0 .5.5.5.5 0 0 0 .5-.5.5.5 0 0 0-.5-.5m3 2a.5.5 0 0 0-.5.5.5.5 0 0 0 .5.5.5.5 0 0 0 .5-.5.5.5 0 0 0-.5-.5m3 2a.5.5 0 0 0-.5.5.5.5 0 0 0 .5.5.5.5 0 0 0 .5-.5.5.5 0 0 0-.5-.5m3.5 0a2 2 0 0 0-2 2 2 2 0 0 0 2 2 2 2 0 0 0 2-2 2 2 0 0 0-2-2" style="color:#000;fill:#fff;fill-rule:evenodd"/><path d="M78 37v6h12v-6z" style="fill:url(#i)"/><path d="M73 42h22v2H73Z" style="fill:#99a1a7"/><path d="M65.004 6.002a2.987 2.987 0 0 0-3 2.988v27.008h43.994V8.982a2.98 2.98 0 0 0-.87-2.105 3 3 0 0 0-2.124-.875z" style="fill:#fff"/><path d="M96.094 40H103a5 5 0 0 0 3.54-1.46c.355-.357.605-.802.84-1.253L87.095 17l-6 8z" style="opacity:.2;fill:url(#j);fill-rule:evenodd"/><circle cx="84" cy="21" r="5" style="fill:url(#k)"/></svg>