<svg xmlns="http://www.w3.org/2000/svg" xmlns:xlink="http://www.w3.org/1999/xlink" width="48" height="48"><defs><linearGradient id="c"><stop offset="0" style="stop-color:#ff0;stop-opacity:1"/><stop offset="1" style="stop-color:#ff0;stop-opacity:0"/></linearGradient><linearGradient id="d"><stop offset="0" style="stop-color:#0ff;stop-opacity:1"/><stop offset="1" style="stop-color:#0ff;stop-opacity:0"/></linearGradient><linearGradient id="e"><stop offset="0" style="stop-color:#f0f;stop-opacity:1"/><stop offset="1" style="stop-color:#f0f;stop-opacity:0"/></linearGradient><linearGradient id="a"><stop offset="0" style="stop-color:#343434;stop-opacity:1"/><stop offset="1" style="stop-color:#4d4d4d;stop-opacity:1"/></linearGradient><linearGradient id="b"><stop offset="0" style="stop-color:#5596ea;stop-opacity:1"/><stop offset="1" style="stop-color:#5596ea;stop-opacity:0"/></linearGradient><linearGradient xlink:href="#a" id="j" x1="1142.588" x2="1280.895" y1="62.713" y2="200.874" gradientTransform="matrix(.16867 -.0174 .0174 .16867 -192.546 13.737)" gradientUnits="userSpaceOnUse"/><linearGradient xlink:href="#b" id="k" x1="1327.594" x2="1324.91" y1="230.862" y2="89.862" gradientTransform="matrix(.00198 .1781 .17846 -.00198 -10.753 -202.994)" gradientUnits="userSpaceOnUse"/><linearGradient xlink:href="#c" id="g" x1="112" x2="711.864" y1="512" y2="512" gradientTransform="matrix(.05092 0 0 .05087 -59.191 -35.082)" gradientUnits="userSpaceOnUse"/><linearGradient xlink:href="#d" id="h" x1="112" x2="711.864" y1="512" y2="512" gradientTransform="matrix(.05092 0 0 .05087 -17.347 7.122)" gradientUnits="userSpaceOnUse"/><linearGradient xlink:href="#e" id="i" x1="112" x2="711.864" y1="512" y2="512" gradientTransform="matrix(.05085 0 0 .05095 -1.68 -50.258)" gradientUnits="userSpaceOnUse"/><clipPath id="f" clipPathUnits="userSpaceOnUse"><circle cx="532" cy="538" r="400" style="opacity:1;vector-effect:none;fill:#000;fill-opacity:.47451;stroke:none;stroke-width:4;stroke-linecap:square;stroke-linejoin:round;stroke-miterlimit:4;stroke-dasharray:none;stroke-dashoffset:3.2;stroke-opacity:1"/></clipPath></defs><g style="display:inline"><circle cx="532" cy="532" r="406.5" clip-path="url(#f)" style="opacity:1;fill:#000;fill-opacity:.47451;stroke:none;stroke-width:2.22599;stroke-linecap:butt;stroke-linejoin:round;stroke-miterlimit:4;stroke-dasharray:none;stroke-opacity:1" transform="matrix(.05095 0 0 .05085 -2.934 -1.68)"/><ellipse cx="24.171" cy="24.354" rx="20.38" ry="20.339" style="display:inline;vector-effect:none;fill:#fff;fill-opacity:1;stroke:none;stroke-width:.203595;stroke-linecap:square;stroke-linejoin:round;stroke-miterlimit:4;stroke-dasharray:none;stroke-dashoffset:3.2;stroke-opacity:1"/><ellipse cx="-33.118" cy="-9.035" rx="20.37" ry="20.349" style="display:inline;vector-effect:none;fill:url(#g);fill-opacity:1;stroke:none;stroke-width:.203595;stroke-linecap:square;stroke-linejoin:round;stroke-miterlimit:4;stroke-dasharray:none;stroke-dashoffset:3.2;stroke-opacity:1" transform="rotate(-150.05)skewX(-.1)"/><ellipse cx="8.727" cy="33.169" rx="20.37" ry="20.349" style="display:inline;vector-effect:none;fill:url(#h);fill-opacity:1;stroke:none;stroke-width:.203595;stroke-linecap:square;stroke-linejoin:round;stroke-miterlimit:4;stroke-dasharray:none;stroke-dashoffset:3.2;stroke-opacity:1" transform="rotate(-29.95)skewX(.1)"/><ellipse cx="24.354" cy="-24.171" rx="20.339" ry="20.38" style="display:inline;vector-effect:none;fill:url(#i);fill-opacity:1;stroke:none;stroke-width:.203595;stroke-linecap:square;stroke-linejoin:round;stroke-miterlimit:4;stroke-dasharray:none;stroke-dashoffset:3.2;stroke-opacity:1" transform="rotate(90)"/><path d="M10.335 9.932a20.38 20.339 0 0 0-3.04 4.03c2.98 2.91 6.189 6 7.497 7.406 2.214 2.381 6.829 5.86 10.194 5.459 1.329.933 4.34 3.022 5.347 3.518-.02.48.076.967.25 1.45.943 2.636 4.471 4.349 2.417 7.158 4.043-2.444 5.118-6.524 3.405-9.434-1.07-1.817-2.625-2.414-3.92-1.98-.776-.875-3.862-3.432-4.998-4.365-.725-3.251-5.118-6.605-7.917-8.06-1.71-.888-5.622-3.085-9.235-5.182" style="display:inline;opacity:1;fill:#000;fill-opacity:.47451;stroke:none;stroke-width:7.98775;stroke-linecap:butt;stroke-linejoin:miter;stroke-miterlimit:4;stroke-dasharray:none;stroke-dashoffset:0;stroke-opacity:1"/><path d="M26.48 24.884c-3.103 2.895-9.072-1.697-11.59-4.58-2.592-2.967-12.268-12.97-12.975-13.62-.707-.648-1.27-1.45-.645-2.247.651-.776 1.551-.39 2.332.168s12.566 7.96 16.003 9.884c3.342 1.87 9.067 6.762 6.875 10.395" style="display:inline;fill:url(#j);fill-opacity:1;stroke:none;stroke-width:7.5967;stroke-linecap:butt;stroke-linejoin:miter;stroke-miterlimit:4;stroke-dasharray:none;stroke-dashoffset:0;stroke-opacity:1"/><path d="M31.962 28.937C19.218 40.283 8.795 29.41 7.18 25.643c.955 6.538 5.37 12.389 12.038 14.64 5.037 1.7 13.074 1.661 16.677-4.817z" style="display:inline;fill:url(#k);fill-opacity:1;stroke:none;stroke-width:7.98765;stroke-linecap:butt;stroke-linejoin:miter;stroke-miterlimit:4;stroke-dasharray:none;stroke-dashoffset:0;stroke-opacity:1"/><path d="M31.91 30.005c-1.041.476-.929.82-1.853.671-.638-.102-6.16-4.28-6.16-4.28-.28-.67.055-1.592.686-2.322.585-.766 1.42-1.284 2.135-1.15 0 0 5.236 4.532 5.468 5.133.336.872-.025.833-.276 1.948" style="fill:#bfbfbf;fill-opacity:1;stroke:none;stroke-width:7.98765;stroke-linecap:butt;stroke-linejoin:miter;stroke-miterlimit:4;stroke-dasharray:none;stroke-dashoffset:0;stroke-opacity:1"/><path d="M32.196 39.247c4.114-2.322 5.311-6.368 3.687-9.328-1.263-2.3-3.336-2.735-4.767-1.623-1.42 1.104-1.546 2.418-1.122 3.724.864 2.663 4.339 4.48 2.202 7.227" style="fill:#282828;fill-opacity:1;stroke:none;stroke-width:7.98765;stroke-linecap:butt;stroke-linejoin:miter;stroke-miterlimit:4;stroke-dasharray:none;stroke-dashoffset:0;stroke-opacity:1"/></g></svg>