<svg xmlns="http://www.w3.org/2000/svg" xmlns:xlink="http://www.w3.org/1999/xlink" width="48" height="48"><defs><linearGradient id="b"><stop offset="0" style="stop-color:#000;stop-opacity:.07843138"/><stop offset="1" style="stop-color:#000;stop-opacity:0"/></linearGradient><linearGradient id="a"><stop offset="0" style="stop-color:#efc346;stop-opacity:.99215686"/><stop offset="1" style="stop-color:#fae786;stop-opacity:1"/></linearGradient><linearGradient xlink:href="#a" id="c" x1="24" x2="24" y1="36" y2="14" gradientUnits="userSpaceOnUse"/><linearGradient xlink:href="#b" id="d" x1="24" x2="24" y1="27" y2="37" gradientUnits="userSpaceOnUse"/></defs><path d="M4 12v26h40V12z" style="opacity:.98999999;fill:url(#c);fill-opacity:1;fill-rule:evenodd;stroke:none;stroke-width:1;stroke-linecap:butt;stroke-linejoin:miter;stroke-miterlimit:0;stroke-dasharray:none;stroke-dashoffset:0;stroke-opacity:1"/><path d="M4 27v10h40V27z" style="opacity:.98999999;fill:url(#d);fill-opacity:1;fill-rule:evenodd;stroke:none;stroke-width:1;stroke-linecap:butt;stroke-linejoin:miter;stroke-miterlimit:0;stroke-dasharray:none;stroke-dashoffset:0;stroke-opacity:1"/><path d="M4 37v1h40v-1z" style="opacity:.98999999;fill:#cfa42d;fill-opacity:1;fill-rule:evenodd;stroke:none;stroke-width:1;stroke-linecap:butt;stroke-linejoin:miter;stroke-miterlimit:0;stroke-dasharray:none;stroke-dashoffset:0;stroke-opacity:1"/><path d="M4 10v2h40v-2zm2 4v8h2v-8zm5 0v8h2v-8zm5 0v11h2V14zm5 0v8h2v-8zm5 0v8h2v-8zm5 0v11h2V14zm5 0v8h2v-8zm5 0v8h2v-8z" style="opacity:.98999999;fill:#a05814;fill-opacity:1;fill-rule:evenodd;stroke:none;stroke-width:1;stroke-linecap:butt;stroke-linejoin:miter;stroke-miterlimit:0;stroke-dasharray:none;stroke-dashoffset:0;stroke-opacity:1"/></svg>