<svg xmlns="http://www.w3.org/2000/svg" xmlns:xlink="http://www.w3.org/1999/xlink" width="48" height="48"><defs><linearGradient id="b" x2="0" y1="543.8" y2="503.8" gradientUnits="userSpaceOnUse"><stop stop-color="#c6cdd1"/><stop offset="1" stop-color="#e0e5e7"/></linearGradient><linearGradient id="d" x1="389.57" x2="427.57" y1="510.8" y2="541.8" gradientTransform="translate(-384.57 -499.8)" gradientUnits="userSpaceOnUse"><stop/><stop offset="1" stop-opacity="0"/></linearGradient><linearGradient id="a" x1="394.22" x2="416.85" y1="521.15" y2="533.41" gradientTransform="translate(-12.764 -10.07)" gradientUnits="userSpaceOnUse"><stop stop-color="#292c2f"/><stop offset="1" stop-opacity="0"/></linearGradient><linearGradient xlink:href="#a" id="f" x1="394.34" x2="417.34" y1="528.87" y2="539.87" gradientTransform="translate(7.236 -10.07)" gradientUnits="userSpaceOnUse"/></defs><g transform="translate(-384.57 -499.8)"><rect width="40" height="40" x="388.57" y="503.8" fill="url(#b)" rx="2" ry="3"/><rect width="34" height="1" x="391.57" y="542.8" fill="#99a1a7" ry=".351"/><path fill="url(#d)" fill-rule="evenodd" d="M42.842 11.11 25 25.676v16.328l2 2h17V12.27ZM23 27.309 5 42.004l2 2h18l-2-2z" opacity=".2" transform="translate(384.57 499.8)"/><g stroke-width=".1"><rect width="40" height="5" x="388.57" y="503.8" fill="#566069" rx="2" ry="2"/><rect width="3" height="3" x="424.57" y="504.8" fill="#eff0f1" rx="1.5"/><rect width="38" height="1" x="389.57" y="508.8" fill="#da4453" rx="0" ry=".5"/></g><g fill="#fff" color="#000"><path id="e" d="M389.57 510.8h18v31h-18z"/><use xlink:href="#e" width="100%" height="100%" x="20"/></g><g fill-rule="evenodd"><path fill="url(#a)" d="m392.57 511.8-2 4 17 8.576V518.8Zm0 8-2 4 17 9v-5.695z" opacity=".2"/><path fill="url(#f)" d="m412.57 511.8-2 4 17 8.576V518.8Zm0 8-2 4 17 9v-5.695zm0 8-2 4 17 9v-5.695z" opacity=".2"/></g><g fill="#da4453"><path id="g" d="M390.57 511.8h2v1h2v3h-4z"/><use xlink:href="#g" width="100%" height="100%" y="8"/><use xlink:href="#g" width="100%" height="100%" x="20"/><use xlink:href="#g" width="100%" height="100%" x="20" y="8"/><use xlink:href="#g" width="100%" height="100%" x="20" y="16"/></g></g></svg>