<svg xmlns="http://www.w3.org/2000/svg" xmlns:xlink="http://www.w3.org/1999/xlink" width="48" height="48"><defs><linearGradient id="b"><stop offset="0" style="stop-color:#000;stop-opacity:1"/><stop offset="1" style="stop-color:#000;stop-opacity:0"/></linearGradient><linearGradient id="a"><stop offset="0" style="stop-color:#e05e4c;stop-opacity:1"/><stop offset="1" style="stop-color:#ffc169;stop-opacity:1"/></linearGradient><linearGradient xlink:href="#a" id="c" x1="-43.628" x2="-2.763" y1="34.886" y2="15.577" gradientTransform="matrix(.75 0 0 .73333 -10 13.4)" gradientUnits="userSpaceOnUse"/><linearGradient xlink:href="#a" id="e" x1="-43.628" x2="-2.763" y1="34.886" y2="15.577" gradientTransform="matrix(.75 0 0 .73333 -3 .4)" gradientUnits="userSpaceOnUse"/><linearGradient xlink:href="#b" id="d" x1="16.994" x2="35.477" y1="6.148" y2="24.631" gradientUnits="userSpaceOnUse"/></defs><rect width="30" height="22" x="-43" y="20" rx="1.022" ry=".999" style="fill:url(#c);fill-opacity:1;stroke:none" transform="rotate(-90)"/><path d="M23.429 16.5h5.142L26 20.78zm0 8h5.142L26 20.3z" style="fill:none;stroke:#edf573;stroke-width:1.00023758;stroke-linecap:butt;stroke-linejoin:bevel;stroke-miterlimit:4;stroke-dasharray:none;stroke-opacity:1"/><path d="M33.429 16.5h5.142L36 20.78zm0 8h5.142L36 20.3zM33.429 31.5h5.142L36 35.78zm0 8h5.142L36 35.3z" style="fill:none;stroke:#1e6f43;stroke-width:1.00023758;stroke-linecap:butt;stroke-linejoin:bevel;stroke-miterlimit:4;stroke-dasharray:none;stroke-opacity:1"/><path d="m28.422 6.08-5.887 2.102L8.084 26.47l-.738 9.23.117.117A.96.96 0 0 0 8 36h12v5.979c0 .566.446 1.021 1 1.021h20c.554 0 1-.455 1-1.021v-22.32z" style="opacity:.25;fill:url(#d);fill-opacity:1;stroke:none;stroke-width:1;stroke-linecap:butt;stroke-linejoin:bevel;stroke-miterlimit:4;stroke-dasharray:none;stroke-opacity:0"/><rect width="30" height="22" x="-36" y="7" rx="1.022" ry=".999" style="fill:url(#e);fill-opacity:1;stroke:none" transform="rotate(-90)"/><path d="M10.429 9.5h5.142L13 13.78zm0 8h5.142L13 13.3zM20.429 9.5h5.142L23 13.78zm0 8h5.142L23 13.3z" style="fill:none;stroke:#e84731;stroke-width:1.00023758;stroke-linecap:butt;stroke-linejoin:bevel;stroke-miterlimit:4;stroke-dasharray:none;stroke-opacity:1"/><path d="M10.429 24.5h5.142L13 28.78zm0 8h5.142L13 28.3zM20.429 24.5h5.142L23 28.78zm0 8h5.142L23 28.3z" style="fill:none;stroke:#1e6f43;stroke-width:1.00023758;stroke-linecap:butt;stroke-linejoin:bevel;stroke-miterlimit:4;stroke-dasharray:none;stroke-opacity:1"/><path d="M20 40.979v1c0 .566.446 1.021 1 1.021h20c.554 0 1-.455 1-1.021v-1c0 .566-.446 1.021-1 1.021H21c-.554 0-1-.455-1-1.021M7 33.979v1C7 35.545 7.446 36 8 36h20c.554 0 1-.455 1-1.021v-1c0 .566-.446 1.021-1 1.021H8c-.554 0-1-.455-1-1.021" style="fill:#000;fill-opacity:1;stroke:none;opacity:.15"/></svg>