<svg xmlns="http://www.w3.org/2000/svg" xmlns:xlink="http://www.w3.org/1999/xlink" width="64" height="64"><defs><radialGradient xlink:href="#a" id="v" cx="4.425" cy="24.144" r="1.168" fx="4.425" fy="24.144" gradientTransform="matrix(1 0 0 7.2139 0 -154.015)" gradientUnits="userSpaceOnUse"/><radialGradient xlink:href="#b" id="r" cx="31.686" cy="41.323" r="19.157" fx="31.686" fy="41.323" gradientTransform="matrix(1.4271 .08736 -.02448 .39982 -12.522 13.054)" gradientUnits="userSpaceOnUse"/><radialGradient xlink:href="#b" id="t" cx="54.891" cy="89.021" r="18.692" fx="54.891" fy="89.021" gradientTransform="matrix(.572 .35018 -.04854 .07928 27.52 15.386)" gradientUnits="userSpaceOnUse"/><radialGradient xlink:href="#b" id="u" cx="31.907" cy="151.55" r="18.692" fx="31.907" fy="151.55" gradientTransform="matrix(.65955 .18482 -.02508 .08951 21.173 19.112)" gradientUnits="userSpaceOnUse"/><radialGradient xlink:href="#c" id="C" cx="24.868" cy="35.445" r="1.273" fx="24.868" fy="35.445" gradientTransform="matrix(1.17 -.18502 .17663 1.11695 -10.488 .456)" gradientUnits="userSpaceOnUse"/><radialGradient xlink:href="#b" id="B" cx="24.868" cy="35.445" r="1.273" fx="24.868" fy="35.445" gradientTransform="matrix(1.39868 -1.05083 1.29097 2.8503 -55.576 -37.663)" gradientUnits="userSpaceOnUse"/><radialGradient xlink:href="#a" id="D" cx="32.844" cy="19.984" r=".844" fx="32.844" fy="19.984" gradientTransform="matrix(1 0 0 1.36222 .386 -7.303)" gradientUnits="userSpaceOnUse"/><radialGradient xlink:href="#d" id="n" cx="29.184" cy="47.287" r="10.285" fx="29.184" fy="47.287" gradientTransform="matrix(1 0 0 .425 0 27.19)" gradientUnits="userSpaceOnUse"/><radialGradient xlink:href="#d" id="l" cx="22.82" cy="44.008" r="16.521" fx="22.82" fy="44.008" gradientTransform="matrix(1 0 0 .09728 0 39.727)" gradientUnits="userSpaceOnUse"/><radialGradient xlink:href="#d" id="j" cx="22.82" cy="44.008" r="16.521" fx="36.062" fy="48.138" gradientTransform="matrix(1 0 0 .09728 0 39.727)" gradientUnits="userSpaceOnUse"/><radialGradient xlink:href="#b" id="G" cx="50.205" cy="54.55" r="6.107" fx="50.205" fy="54.55" gradientTransform="matrix(1.46029 -.38313 .29474 1.12337 -39.186 12.505)" gradientUnits="userSpaceOnUse"/><radialGradient xlink:href="#a" id="F" cx="48.188" cy="44.478" r="6.107" fx="48.188" fy="44.478" gradientTransform="matrix(1.56093 -.59548 .56324 1.47641 -55.979 7.035)" gradientUnits="userSpaceOnUse"/><radialGradient xlink:href="#d" id="E" cx="56.954" cy="54.229" r="5.785" fx="53.997" fy="52.576" gradientTransform="matrix(1 0 0 .15556 0 45.793)" gradientUnits="userSpaceOnUse"/><radialGradient xlink:href="#d" id="e" cx="56.954" cy="54.229" r="5.785" fx="53.997" fy="52.576" gradientTransform="matrix(1 0 0 .15556 0 45.793)" gradientUnits="userSpaceOnUse"/><radialGradient xlink:href="#a" id="g" cx="48.188" cy="44.478" r="6.107" fx="48.188" fy="44.478" gradientTransform="matrix(1.56093 -.59548 .56324 1.47641 -55.979 7.035)" gradientUnits="userSpaceOnUse"/><radialGradient xlink:href="#b" id="h" cx="50.205" cy="54.55" r="6.107" fx="50.205" fy="54.55" gradientTransform="matrix(1.46029 -.38313 .29474 1.12337 -39.186 12.505)" gradientUnits="userSpaceOnUse"/><radialGradient xlink:href="#d" id="I" cx="56.954" cy="54.229" r="5.785" fx="53.997" fy="52.576" gradientTransform="matrix(1 0 0 .15556 0 45.793)" gradientUnits="userSpaceOnUse"/><radialGradient xlink:href="#a" id="J" cx="48.188" cy="44.478" r="6.107" fx="48.188" fy="44.478" gradientTransform="matrix(1.56093 -.59548 .56324 1.47641 -55.979 7.035)" gradientUnits="userSpaceOnUse"/><radialGradient xlink:href="#b" id="K" cx="50.205" cy="54.55" r="6.107" fx="50.205" fy="54.55" gradientTransform="matrix(1.46029 -.38313 .29474 1.12337 -39.186 12.505)" gradientUnits="userSpaceOnUse"/><filter id="w" width="1.58" height="1.132" x="-.29" y="-.066"><feGaussianBlur stdDeviation=".283"/></filter><filter id="p" width="1.077" height="2.018" x="-.038" y="-.509"><feGaussianBlur stdDeviation=".537"/></filter><filter id="x"><feGaussianBlur stdDeviation=".284"/></filter><filter id="A" width="1.153" height="1.309" x="-.076" y="-.154"><feGaussianBlur stdDeviation=".183"/></filter><filter id="z"><feGaussianBlur stdDeviation=".39"/></filter><filter id="m" width="1.107" height="2.099" x="-.053" y="-.549"><feGaussianBlur stdDeviation=".736"/></filter><filter id="k" width="1.134" height="2.373" x="-.067" y="-.687"><feGaussianBlur stdDeviation=".92"/></filter><filter id="o" width="1.171" height="1.402" x="-.086" y="-.201"><feGaussianBlur stdDeviation=".733"/></filter><filter id="i" width="1.217" height="1.212" x="-.109" y="-.106"><feGaussianBlur stdDeviation=".642"/></filter><filter id="H" width="1.176" height="1.263" x="-.088" y="-.131"><feGaussianBlur stdDeviation=".605"/></filter><filter id="f" width="1.118" height="1.759" x="-.059" y="-.379"><feGaussianBlur stdDeviation=".284"/></filter><linearGradient id="d"><stop offset="0" style="stop-color:#181005;stop-opacity:1"/><stop offset="1" style="stop-color:#181005;stop-opacity:0"/></linearGradient><linearGradient id="c"><stop offset="0" style="stop-color:#7c5e31;stop-opacity:1"/><stop offset="1" style="stop-color:#312410;stop-opacity:1"/></linearGradient><linearGradient id="b"><stop offset="0" style="stop-color:#000;stop-opacity:1"/><stop offset="1" style="stop-color:#000;stop-opacity:0"/></linearGradient><linearGradient id="a"><stop offset="0" style="stop-color:#eeeeec;stop-opacity:1"/><stop offset="1" style="stop-color:#eeeeec;stop-opacity:0"/></linearGradient><linearGradient xlink:href="#a" id="q" x1="22.414" x2="21.388" y1="11.253" y2="26.344" gradientUnits="userSpaceOnUse"/><linearGradient xlink:href="#c" id="s" x1="52.909" x2="30.182" y1="38.364" y2="34.909" gradientUnits="userSpaceOnUse"/><linearGradient xlink:href="#b" id="y" x1="24.727" x2="24.727" y1="6.273" y2="45.091" gradientUnits="userSpaceOnUse"/></defs><path d="M62.74 54.23a5.785.9 0 1 1-11.571 0 5.785.9 0 1 1 11.57 0" style="opacity:1;fill:url(#e);fill-opacity:1;fill-rule:nonzero;stroke:none;stroke-width:.52600002;stroke-linecap:round;stroke-linejoin:round;stroke-miterlimit:4;stroke-dasharray:.526,1.052;stroke-dashoffset:0;stroke-opacity:1;filter:url(#f)" transform="matrix(.79412 0 0 .79412 7.442 .294)"/><path d="M54.512 49.15a6.107 6.107 0 1 1-12.214 0 6.107 6.107 0 1 1 12.214 0" style="opacity:1;fill:#2e3436;fill-opacity:1;fill-rule:nonzero;stroke:none;stroke-width:1;stroke-linecap:round;stroke-linejoin:round;stroke-miterlimit:4;stroke-dasharray:none;stroke-dashoffset:0;stroke-opacity:1" transform="matrix(.5099 0 0 .5099 25.487 15.182)"/><path d="M54.512 49.15a6.107 6.107 0 1 1-12.214 0 6.107 6.107 0 1 1 12.214 0" style="opacity:.8008658;fill:url(#g);fill-opacity:1;fill-rule:nonzero;stroke:none;stroke-width:1;stroke-linecap:round;stroke-linejoin:round;stroke-miterlimit:4;stroke-dasharray:none;stroke-dashoffset:0;stroke-opacity:1" transform="matrix(.5099 0 0 .5099 25.487 15.182)"/><path d="M54.512 49.15a6.107 6.107 0 1 1-12.214 0 6.107 6.107 0 1 1 12.214 0" style="opacity:.59307359;fill:url(#h);fill-opacity:1;fill-rule:nonzero;stroke:none;stroke-width:1;stroke-linecap:round;stroke-linejoin:round;stroke-miterlimit:4;stroke-dasharray:none;stroke-dashoffset:0;stroke-opacity:1" transform="matrix(.5099 0 0 .5099 25.487 15.182)"/><path d="M54.512 49.15a6.107 6.107 0 1 1-12.214 0 6.107 6.107 0 1 1 12.214 0" style="opacity:.59307359;fill:none;fill-opacity:1;fill-rule:nonzero;stroke:#424242;stroke-width:1.6639744;stroke-linecap:round;stroke-linejoin:round;stroke-miterlimit:4;stroke-dasharray:1.66397423,3.32794846;stroke-dashoffset:0;stroke-opacity:1;filter:url(#i)" transform="matrix(-.24643 .04666 .09046 -.42262 57.702 58.809)"/><path d="M39.34 44.008a16.52 1.607 0 1 1-33.04 0 16.52 1.607 0 1 1 33.04 0" style="opacity:.71428575999999999;fill:url(#j);fill-opacity:1;fill-rule:nonzero;stroke:none;stroke-width:1;stroke-linecap:round;stroke-linejoin:round;stroke-miterlimit:4;stroke-dasharray:none;stroke-dashoffset:0;stroke-opacity:1;filter:url(#k)" transform="matrix(1 0 0 .64 23.527 16.55)"/><path d="M39.34 44.008a16.52 1.607 0 1 1-33.04 0 16.52 1.607 0 1 1 33.04 0" style="opacity:.71428575999999999;fill:url(#l);fill-opacity:1;fill-rule:nonzero;stroke:none;stroke-width:1;stroke-linecap:round;stroke-linejoin:round;stroke-miterlimit:4;stroke-dasharray:none;stroke-dashoffset:0;stroke-opacity:1;filter:url(#m)" transform="translate(.257 .257)"/><path d="M39.47 47.287a10.285 4.371 0 1 1-20.571 0 10.285 4.371 0 1 1 20.57 0" style="opacity:.71428575999999999;fill:url(#n);fill-opacity:1;fill-rule:nonzero;stroke:none;stroke-width:1;stroke-linecap:round;stroke-linejoin:round;stroke-miterlimit:4;stroke-dasharray:none;stroke-dashoffset:0;stroke-opacity:1;filter:url(#o)" transform="matrix(1.34375 0 0 .75 -9.068 8.929)"/><path d="M25.237 23.412c5.47-.792 10.556 3.101 11.334 8.675.777 5.574-3.044 10.756-8.515 11.547-5.47.792-10.556-3.1-11.334-8.675-.777-5.573 3.044-10.755 8.515-11.547m1.406 3.132.422 3.027q.563.062 1.07.278l1.784-2.42a6.6 6.6 0 0 0-3.276-.885m-1.901.275c-1.117.33-2.112.98-2.905 1.78l2.376 1.817c.283-.223.611-.429.95-.57zm6.738 1.805-1.784 2.42q.344.435.56.969l2.91-.422a7.1 7.1 0 0 0-1.686-2.967m-10.815 1.565c-.534.998-.868 2.152-.869 3.337l2.912-.421c.045-.393.179-.745.332-1.098zm12.772 3.34-2.912.421q-.06.573-.272 1.09l2.307 1.766c.535-.994.88-2.086.877-3.277m-10.459 1.513-2.912.422a6.86 6.86 0 0 0 1.747 2.959l1.784-2.42c-.244-.296-.468-.597-.619-.96m6.102 1.588a3.8 3.8 0 0 1-.951.57l.414 2.967c1.124-.33 2.057-.971 2.845-1.77zm-3.922.568-1.784 2.42a6.8 6.8 0 0 0 3.267.824l-.414-2.967a4 4 0 0 1-1.069-.277" style="fill:#181005;fill-opacity:1;fill-rule:nonzero;stroke:none;stroke-width:.5;stroke-linecap:round;stroke-linejoin:round;stroke-miterlimit:4;stroke-dasharray:none;stroke-dashoffset:0;stroke-opacity:1"/><path d="M34.455 21.06c.772-2.83 3.6-2.443 3.6-2.443" style="fill:none;fill-rule:evenodd;stroke:#2e3436;stroke-width:1px;stroke-linecap:round;stroke-linejoin:miter;stroke-opacity:1"/><path d="M35.651 21.028c-1.588-.107-1.152-2.278-2.05-2.357l-1.823 2.231-24.571-.798c-3.527-.261-3.586 1.325-3.83 4.755-.246 3.43-.455 5.598 3.072 5.86L34.724 34c3.527.262 6.585-2.584 6.83-6.014s-2.376-6.697-5.903-6.959" style="fill:#2e3436;fill-opacity:1;fill-rule:nonzero;stroke:none;stroke-width:1;stroke-linecap:round;stroke-linejoin:round;stroke-miterlimit:4;stroke-dashoffset:0;stroke-opacity:1"/><path d="M5.65 21.094v2l33.51.531a6.8 6.8 0 0 0-.874-1z" style="fill:#eeeeec;fill-opacity:1;fill-rule:evenodd;stroke:none;stroke-width:1px;stroke-linecap:butt;stroke-linejoin:miter;stroke-opacity:1;filter:url(#p)"/><path d="M35.651 21.028c-1.279-.19-1.385-1.553-2.05-2.357l-1.823 2.231-24.571-.798c-3.527-.261-3.586 1.325-3.83 4.755-.246 3.43-.455 5.598 3.072 5.86L34.724 34c3.527.262 6.585-2.584 6.83-6.014s-2.376-6.697-5.903-6.959" style="fill:url(#q);fill-opacity:1;fill-rule:nonzero;stroke:none;stroke-width:1;stroke-linecap:round;stroke-linejoin:round;stroke-miterlimit:4;stroke-dashoffset:0;stroke-opacity:1"/><path d="M35.651 21.028c-2.968.647-1.515-1.482-2.05-2.357l-1.823 2.231-24.571-.798c-3.527-.261-3.586 1.325-3.83 4.755-.246 3.43-.455 5.598 3.072 5.86L34.724 34c3.527.262 6.585-2.584 6.83-6.014s-2.376-6.697-5.903-6.959" style="fill:url(#r);fill-opacity:1;fill-rule:nonzero;stroke:none;stroke-width:1;stroke-linecap:round;stroke-linejoin:round;stroke-miterlimit:4;stroke-dashoffset:0;stroke-opacity:1"/><path d="m23.905 28.292 19.15 3.547.87-1.478 5.224 2.07s10.445 6.799 11.896 10.937c1.45 4.139-4.003.258-4.933-1.182-.955-1.478-8.734-5.026-10.155-5.617-1.956-.814-1.45 4.139-5.513 2.66-4.062-1.477-14.217-2.956-14.217-2.956z" style="fill:url(#s);fill-rule:evenodd;stroke:none;stroke-width:1;stroke-linecap:butt;stroke-linejoin:miter;stroke-miterlimit:4;stroke-dasharray:none;stroke-opacity:1;fill-opacity:1"/><path d="M26.182 31.273s11.454 2.182 13.454 2.545c2 .364 5.455 2 5.455 2l-.546.91s-2.909-1.819-6-2.364c-3.09-.546-12.363-3.091-12.363-3.091" style="fill:#75511a;fill-opacity:1;fill-rule:evenodd;stroke:none;stroke-width:1px;stroke-linecap:butt;stroke-linejoin:miter;stroke-opacity:1"/><path d="m23.905 28.292 19.15 3.547.87-1.478 5.224 2.07s10.445 6.799 11.896 10.937c1.45 4.139-4.003.258-4.933-1.182-.955-1.478-8.734-5.026-10.155-5.617-1.956-.814-1.45 4.139-5.513 2.66-4.062-1.477-14.217-2.956-14.217-2.956z" style="fill:url(#t);fill-rule:evenodd;stroke:none;stroke-width:1;stroke-linecap:butt;stroke-linejoin:miter;stroke-miterlimit:4;stroke-dasharray:none;stroke-opacity:1;fill-opacity:1"/><path d="m23.905 28.292 19.15 3.547.87-1.478 5.224 2.07s10.445 6.799 11.896 10.937c1.45 4.139-4.003.258-4.933-1.182-.955-1.478-8.734-5.026-10.155-5.617-1.956-.814-1.45 4.139-5.513 2.66-4.062-1.477-14.217-2.956-14.217-2.956z" style="fill:url(#u);fill-rule:evenodd;stroke:none;stroke-width:1;stroke-linecap:butt;stroke-linejoin:miter;stroke-miterlimit:4;stroke-dasharray:none;stroke-opacity:1;fill-opacity:1"/><path d="M34.91 34.91a10.182 10.182 0 1 1-20.365 0 10.182 10.182 0 1 1 20.364 0" style="opacity:1;fill:none;fill-opacity:.5;fill-rule:nonzero;stroke:#4d2600;stroke-width:1;stroke-linecap:round;stroke-linejoin:round;stroke-miterlimit:4;stroke-dasharray:none;stroke-dashoffset:0;stroke-opacity:1" transform="translate(0 .364)"/><path d="M23.237 24.898c5.47-.792 10.556 3.101 11.334 8.675.777 5.574-3.044 10.755-8.515 11.547-5.47.792-10.556-3.101-11.334-8.675-.777-5.574 3.044-10.755 8.515-11.547m1.406 3.132.422 3.027q.563.062 1.07.278l1.784-2.42a6.6 6.6 0 0 0-3.276-.885m-1.901.275c-1.117.33-2.112.98-2.905 1.78l2.376 1.817c.283-.223.611-.43.95-.57zm6.738 1.804-1.784 2.42q.344.436.56.97l2.91-.422a7.1 7.1 0 0 0-1.686-2.968m-10.815 1.565c-.534.998-.868 2.153-.869 3.338l2.912-.421c.045-.393.179-.745.332-1.098zm12.772 3.34-2.912.422q-.06.572-.272 1.09l2.307 1.766c.535-.994.88-2.086.877-3.277m-10.459 1.514-2.912.421a6.86 6.86 0 0 0 1.747 2.96l1.784-2.42c-.244-.297-.468-.597-.619-.96m6.102 1.588a3.8 3.8 0 0 1-.951.57l.414 2.966c1.124-.33 2.057-.97 2.845-1.77zm-3.922.567-1.784 2.42a6.8 6.8 0 0 0 3.267.825l-.414-2.967a4 4 0 0 1-1.069-.278" style="fill:#75511a;fill-opacity:1;fill-rule:nonzero;stroke:none;stroke-width:.5;stroke-linecap:round;stroke-linejoin:round;stroke-miterlimit:4;stroke-dasharray:none;stroke-dashoffset:0;stroke-opacity:1"/><path d="M5.563 20.156c-1.914.35-1.989 1.9-2.188 4.688-.208 2.91-.385 4.925 1.719 5.625a28 28 0 0 1-.188-5.813c.112-1.616.377-3.13.688-4.5-.01.002-.022-.002-.032 0" style="fill:url(#v);fill-opacity:1;fill-rule:nonzero;stroke:none;stroke-width:1;stroke-linecap:round;stroke-linejoin:round;stroke-miterlimit:4;stroke-dashoffset:0;stroke-opacity:1;filter:url(#w)"/><path d="m43.938 30.375-.532.875 4.844 1.906c2.98 1.488 11.845 9.153 12.781 10.219-1.45-4.139-11.875-10.937-11.875-10.937z" style="fill:#8e672c;fill-rule:evenodd;stroke:none;stroke-width:1;stroke-linecap:butt;stroke-linejoin:miter;stroke-miterlimit:4;stroke-dasharray:none;stroke-opacity:1;fill-opacity:1"/><path d="M24.25 24.994a10 10 0 0 0-1 .094c-5.201.753-8.91 5.465-8.594 10.719.134-4.881 3.694-9.104 8.594-9.813 5.47-.791 10.535 3.083 11.313 8.657.048.348.08.718.093 1.062a10.4 10.4 0 0 0-.093-1.969c-.73-5.225-5.244-8.954-10.313-8.75m.406 4.125.407 3.032c.375.042.723.136 1.062.28l1.781-2.437c-.163-.093-.329-.17-.5-.25l-1.281 1.782a3.7 3.7 0 0 0-1.062-.282l-.282-2.125zm-4.281 1.563c-.19.157-.36.326-.531.5l2.375 1.812c.283-.223.598-.421.937-.562l-.125-.844a4 4 0 0 0-.812.5zm7.625 2.5-.312.437q.345.436.562.97l2.906-.407a7 7 0 0 0-.312-.906l-2.594.406a4 4 0 0 0-.25-.5M20.813 34.4c-.033.124-.08.243-.094.375l-2.875.406q-.064.449-.063.906l2.938-.406c.045-.393.16-.74.312-1.094zm10.53 1.718a7.2 7.2 0 0 1-.78 2.344l-2.094-1.594c-.05.257-.12.511-.219.75l2.313 1.75c.534-.993.877-2.058.875-3.25zm-12.968 1.875-.312.032a6.9 6.9 0 0 0 1.75 2.968l1.78-2.406a6 6 0 0 1-.343-.469l-1.437 1.97a6.9 6.9 0 0 1-1.438-2.095m7.875 1.72c-.043.019-.081.043-.125.062l.406 2.968c1.124-.33 2.056-.981 2.844-1.78l-.531-.407c-.665.56-1.44 1.025-2.313 1.281zm-4.375 1.812-.5.656a6.9 6.9 0 0 0 3.281.844l-.125-.907a6.9 6.9 0 0 1-2.656-.593" style="fill:#c48e3e;fill-opacity:1;fill-rule:nonzero;stroke:none;stroke-width:.5;stroke-linecap:round;stroke-linejoin:round;stroke-miterlimit:4;stroke-dasharray:none;stroke-dashoffset:0;stroke-opacity:1;filter:url(#x)"/><path d="M34.91 34.91a10.182 10.182 0 1 1-20.365 0 10.182 10.182 0 1 1 20.364 0" style="opacity:1;fill:url(#y);fill-opacity:1;fill-rule:nonzero;stroke:none;stroke-width:3.50000023999999987;stroke-linecap:round;stroke-linejoin:round;stroke-miterlimit:4;stroke-dasharray:none;stroke-dashoffset:0;stroke-opacity:1;filter:url(#z)" transform="matrix(.28571 0 0 .25893 17.662 26.325)"/><path d="M21.844 35.156c-.007.074-.032.144-.032.219 0 1.455 1.3 2.625 2.907 2.625 1.451 0 2.626-.958 2.843-2.219-.593.673-1.554 1.125-2.656 1.125-1.424 0-2.613-.726-3.062-1.75" style="opacity:1;fill:#8d662b;fill-opacity:1;fill-rule:nonzero;stroke:none;stroke-width:3.50000023999999987;stroke-linecap:round;stroke-linejoin:round;stroke-miterlimit:4;stroke-dasharray:none;stroke-dashoffset:0;stroke-opacity:1;filter:url(#A)"/><path d="M24.625 34.219a1 1 0 0 0-.375.062c-.945.34-1.194 2.123-.531 3.969.083.23.18.447.281.656.076.014.143.055.219.063l.062.437c.631 1.055 1.464 1.676 2.157 1.594l-.313-2.312c.349-.147.683-.328.969-.563l.406.313A6.7 6.7 0 0 0 27.156 37c-.58-1.616-1.64-2.749-2.531-2.781" style="opacity:.43290043;fill:url(#B);fill-opacity:1;fill-rule:nonzero;stroke:none;stroke-width:1;stroke-linecap:round;stroke-linejoin:round;stroke-miterlimit:4;stroke-dasharray:none;stroke-dashoffset:0;stroke-opacity:1"/><path d="M26.364 35.636a1.273 1.273 0 1 1-2.546 0 1.273 1.273 0 1 1 2.546 0" style="opacity:1;fill:url(#C);fill-opacity:1;fill-rule:nonzero;stroke:none;stroke-width:1;stroke-linecap:round;stroke-linejoin:round;stroke-miterlimit:4;stroke-dasharray:none;stroke-dashoffset:0;stroke-opacity:1" transform="translate(-11.17 -15.273)scale(1.42857)"/><path d="m33.573 18.77-1.187 2.04c.172.128.373.26.593.26.578 0 1.055-.522 1.094-1.172v-.086c0-.44-.199-.819-.5-1.041" style="opacity:.71428576;fill:url(#D);fill-opacity:1;fill-rule:nonzero;stroke:none;stroke-width:1;stroke-linecap:round;stroke-linejoin:round;stroke-miterlimit:4;stroke-dasharray:none;stroke-dashoffset:0;stroke-opacity:1"/><path d="M62.74 54.23a5.785.9 0 1 1-11.571 0 5.785.9 0 1 1 11.57 0" style="opacity:1;fill:url(#E);fill-opacity:1;fill-rule:nonzero;stroke:none;stroke-width:.52600002;stroke-linecap:round;stroke-linejoin:round;stroke-miterlimit:4;stroke-dasharray:.526,1.052;stroke-dashoffset:0;stroke-opacity:1;filter:url(#f)" transform="translate(.257 -.257)"/><path d="M54.512 49.15a6.107 6.107 0 1 1-12.214 0 6.107 6.107 0 1 1 12.214 0" style="opacity:1;fill:#2e3436;fill-opacity:1;fill-rule:nonzero;stroke:none;stroke-width:1;stroke-linecap:round;stroke-linejoin:round;stroke-miterlimit:4;stroke-dasharray:none;stroke-dashoffset:0;stroke-opacity:1" transform="matrix(.6421 0 0 .6421 22.98 18.49)"/><path d="M54.512 49.15a6.107 6.107 0 1 1-12.214 0 6.107 6.107 0 1 1 12.214 0" style="opacity:.8008658;fill:url(#F);fill-opacity:1;fill-rule:nonzero;stroke:none;stroke-width:1;stroke-linecap:round;stroke-linejoin:round;stroke-miterlimit:4;stroke-dasharray:none;stroke-dashoffset:0;stroke-opacity:1" transform="matrix(.6421 0 0 .6421 22.98 18.49)"/><path d="M54.512 49.15a6.107 6.107 0 1 1-12.214 0 6.107 6.107 0 1 1 12.214 0" style="opacity:.59307359;fill:url(#G);fill-opacity:1;fill-rule:nonzero;stroke:none;stroke-width:1;stroke-linecap:round;stroke-linejoin:round;stroke-miterlimit:4;stroke-dasharray:none;stroke-dashoffset:0;stroke-opacity:1" transform="matrix(.6421 0 0 .6421 22.98 18.49)"/><path d="M54.512 49.15a6.107 6.107 0 1 1-12.214 0 6.107 6.107 0 1 1 12.214 0" style="opacity:.59307359000000004;fill:none;fill-opacity:1;fill-rule:nonzero;stroke:#888;stroke-width:1.04283845000000008;stroke-linecap:round;stroke-linejoin:round;stroke-miterlimit:4;stroke-dasharray:1.0428384100000001,2.08567682000000021;stroke-dashoffset:0;stroke-opacity:1;filter:url(#H)" transform="matrix(.25084 .3512 -.4797 .34262 65.497 16.147)"/><path d="M54.512 49.15a6.107 6.107 0 1 1-12.214 0 6.107 6.107 0 1 1 12.214 0" style="opacity:.59307359000000004;fill:none;fill-opacity:1;fill-rule:nonzero;stroke:#424242;stroke-width:1.32139133999999991;stroke-linecap:round;stroke-linejoin:round;stroke-miterlimit:4;stroke-dasharray:1.32139122999999992,2.64278245999999983;stroke-dashoffset:0;stroke-opacity:1;filter:url(#i)" transform="matrix(-.23416 .21194 -.1803 -.51351 74.322 65.096)"/><path d="M62.74 54.23a5.785.9 0 1 1-11.571 0 5.785.9 0 1 1 11.57 0" style="opacity:1;fill:url(#I);fill-opacity:1;fill-rule:nonzero;stroke:none;stroke-width:.52600002;stroke-linecap:round;stroke-linejoin:round;stroke-miterlimit:4;stroke-dasharray:.526,1.052;stroke-dashoffset:0;stroke-opacity:1;filter:url(#f)" transform="translate(-9.966 .238)scale(1.04)"/><path d="M54.512 49.15a6.107 6.107 0 1 1-12.214 0 6.107 6.107 0 1 1 12.214 0" style="opacity:1;fill:#2e3436;fill-opacity:1;fill-rule:nonzero;stroke:none;stroke-width:1;stroke-linecap:round;stroke-linejoin:round;stroke-miterlimit:4;stroke-dasharray:none;stroke-dashoffset:0;stroke-opacity:1" transform="matrix(.66779 0 0 .66779 13.666 19.735)"/><path d="M54.512 49.15a6.107 6.107 0 1 1-12.214 0 6.107 6.107 0 1 1 12.214 0" style="opacity:.8008658;fill:url(#J);fill-opacity:1;fill-rule:nonzero;stroke:none;stroke-width:1;stroke-linecap:round;stroke-linejoin:round;stroke-miterlimit:4;stroke-dasharray:none;stroke-dashoffset:0;stroke-opacity:1" transform="matrix(.66779 0 0 .66779 13.666 19.735)"/><path d="M54.512 49.15a6.107 6.107 0 1 1-12.214 0 6.107 6.107 0 1 1 12.214 0" style="opacity:.59307359;fill:url(#K);fill-opacity:1;fill-rule:nonzero;stroke:none;stroke-width:1;stroke-linecap:round;stroke-linejoin:round;stroke-miterlimit:4;stroke-dasharray:none;stroke-dashoffset:0;stroke-opacity:1" transform="matrix(.66779 0 0 .66779 13.666 19.735)"/><path d="M54.512 49.15a6.107 6.107 0 1 1-12.214 0 6.107 6.107 0 1 1 12.214 0" style="opacity:.59307359;fill:none;fill-opacity:1;fill-rule:nonzero;stroke:#888;stroke-width:1.04283845;stroke-linecap:round;stroke-linejoin:round;stroke-miterlimit:4;stroke-dasharray:1.04283841,2.08567682;stroke-dashoffset:0;stroke-opacity:1;filter:url(#H)" transform="matrix(-.27643 .35362 -.483 -.37758 83.11 53.932)"/><path d="M54.512 49.15a6.107 6.107 0 1 1-12.214 0 6.107 6.107 0 1 1 12.214 0" style="opacity:.59307359;fill:none;fill-opacity:1;fill-rule:nonzero;stroke:#424242;stroke-width:1.32139134;stroke-linecap:round;stroke-linejoin:round;stroke-miterlimit:4;stroke-dasharray:1.32139123,2.64278246;stroke-dashoffset:0;stroke-opacity:1;filter:url(#i)" transform="matrix(-.15802 .28795 -.3519 -.44333 71.002 60.476)"/></svg>