<svg xmlns="http://www.w3.org/2000/svg" xmlns:xlink="http://www.w3.org/1999/xlink" width="48" height="48"><defs><linearGradient id="d" x1="24.392" x2="20.643" y1="41.22" y2="25.343" gradientUnits="userSpaceOnUse"><stop stop-color="#334545"/><stop offset="1" stop-color="#536161"/></linearGradient><linearGradient id="e" x2="0" y1="547.8" y2="536.8" gradientTransform="matrix(1 0 0 .54545 -384.57 -255.8)" gradientUnits="userSpaceOnUse"><stop stop-color="#c6cdd1"/><stop offset="1" stop-color="#e0e5e7"/></linearGradient><linearGradient id="f" x2="0" y1="536.8" y2="503.8" gradientTransform="translate(-384.57 -499.8)" gradientUnits="userSpaceOnUse"><stop stop-color="#2a2c2f"/><stop offset="1" stop-color="#424649"/></linearGradient><linearGradient xlink:href="#a" id="g" x1="42.799" x2="11.999" y1="5.342" y2="31.357" gradientTransform="translate(-9.995 -.003)" gradientUnits="userSpaceOnUse"/><linearGradient id="a" x1="42.799" x2="11.999" y1="5.342" y2="31.357" gradientTransform="translate(-9.995 -40.003)" gradientUnits="userSpaceOnUse"><stop stop-color="#1abc9c"/><stop offset="1" stop-color="#2980b9"/></linearGradient><linearGradient xlink:href="#c" id="h" x1="29.855" x2="54.32" y1="22.346" y2="28.506" gradientTransform="translate(-9.995 -.003)" gradientUnits="userSpaceOnUse"/><linearGradient id="c" x1="29.855" x2="54.32" y1="22.346" y2="28.506" gradientTransform="translate(-9.995 -40.003)" gradientUnits="userSpaceOnUse"><stop stop-color="#cc4a5e"/><stop offset="1" stop-color="#aa478a"/></linearGradient><linearGradient xlink:href="#d" id="i" x1="24.392" x2="20.643" y1="41.22" y2="25.343" gradientTransform="translate(-9.995 -.003)" gradientUnits="userSpaceOnUse"/><linearGradient xlink:href="#d" id="j" x1="431.57" x2="439.57" y1="568.8" y2="562.8" gradientTransform="matrix(-.91667 0 0 .91667 418.694 -492.484)" gradientUnits="userSpaceOnUse"/><linearGradient xlink:href="#d" id="k" x1="56.03" x2="40.647" y1="40.899" y2="32.475" gradientTransform="translate(-9.995 -.003)" gradientUnits="userSpaceOnUse"/><linearGradient xlink:href="#d" id="l" x1="60.895" x2="53.41" y1="32.15" y2="27.06" gradientTransform="translate(-29.997 -.003)" gradientUnits="userSpaceOnUse"/><linearGradient xlink:href="#d" id="m" x1="33.32" x2="24.78" y1="36.527" y2="31.348" gradientTransform="translate(-9.995 -.003)" gradientUnits="userSpaceOnUse"/><linearGradient xlink:href="#d" id="n" x1="34" x2="40.25" y1="36.765" y2="49.571" gradientTransform="translate(-9.995 -.003)" gradientUnits="userSpaceOnUse"/></defs><path d="M18 37v6h12v-6z" style="fill:url(#e)"/><rect width="48" height="36" y="4" rx="5" ry="5" style="fill:url(#f)"/><path d="M5.008 6a2.987 2.987 0 0 0-3.004 2.99v27.008h44V8.996a2.98 2.98 0 0 0-.875-2.119A3 3 0 0 0 43 6Z" style="fill:url(#g)"/><path d="M44.752 6.72 15.725 23.48 37.406 36h8.6v-3l-.002-24.003a2.98 2.98 0 0 0-.875-2.119c-.096-.096-.268-.074-.377-.156Z" style="fill:url(#h)"/><path d="m15.755 23.413-13.75 7.94v4.644H37.61Z" style="fill:url(#i)"/><path d="m23.326 27.79-7.571-4.37v8.741z" style="fill:url(#j)"/><path d="M30.896 32.157v3.844h6.656z" style="fill:url(#k)"/><path d="M23.323 27.784v8.213h.916l6.654-3.842z" style="fill:url(#l)"/><path d="M15.755 32.157V36h6.654z" style="fill:url(#m)"/><path d="m30.896 32.157-6.656 3.844h6.656z" style="fill:url(#n)"/><path d="M46.004 8.996a2.98 2.98 0 0 0-.875-2.119c-.095-.095-.266-.073-.373-.154l-29.03 16.76 30.278-8.942z" style="fill:#aa478a"/><path d="M13 42h22v2H13Z" style="fill:#99a1a7"/><path d="M4 8v5h1V9h4V8Zm35 0v1h4v4h1V8Zm-17 6v3h-2v11h13V17h-2v-3zm1 1h7v2h-7zm-8 2v11h4V17Zm11.5 1c2.493 0 4.5 2.01 4.5 4.5 0 2.493-2.01 4.5-4.5 4.5-2.493 0-4.5-2.01-4.5-4.5 0-2.493 2.01-4.5 4.5-4.5m0 1a3.49 3.49 0 0 0-3.5 3.5c0 1.939 1.561 3.5 3.5 3.5s3.5-1.561 3.5-3.5-1.561-3.5-3.5-3.5M4 29v5h5v-1H5v-4zm39 0v4h-4v1h5v-5z" style="fill:#fff"/></svg>