<svg xmlns="http://www.w3.org/2000/svg" xmlns:xlink="http://www.w3.org/1999/xlink" width="128" height="128" version="1.0"><defs><linearGradient id="y"><stop offset="0" style="stop-color:white;stop-opacity:1"/><stop offset="1" style="stop-color:white;stop-opacity:0"/></linearGradient><linearGradient id="x"><stop offset="0" style="stop-color:white;stop-opacity:1"/><stop offset="1" style="stop-color:white;stop-opacity:0"/></linearGradient><linearGradient id="w"><stop offset="0" style="stop-color:#a5a5a5;stop-opacity:1"/><stop offset="1" style="stop-color:#a5a5a5;stop-opacity:0"/></linearGradient><linearGradient id="v"><stop offset="0" style="stop-color:#656565;stop-opacity:1"/><stop offset="1" style="stop-color:#656565;stop-opacity:0"/></linearGradient><linearGradient id="p"><stop offset="0" style="stop-color:black;stop-opacity:1"/><stop offset="1" style="stop-color:black;stop-opacity:0"/></linearGradient><linearGradient id="m"><stop offset="0" style="stop-color:white;stop-opacity:1"/><stop offset="1" style="stop-color:white;stop-opacity:0"/></linearGradient><linearGradient id="o"><stop offset="0" style="stop-color:white;stop-opacity:1"/><stop offset="1" style="stop-color:white;stop-opacity:0"/></linearGradient><linearGradient id="n"><stop offset="0" style="stop-color:#eeeeec;stop-opacity:1"/><stop offset="1" style="stop-color:#9f9f94;stop-opacity:1"/></linearGradient><linearGradient id="q"><stop offset="0" style="stop-color:#5e5e5e;stop-opacity:1"/><stop offset=".759" style="stop-color:#dedede;stop-opacity:1"/><stop offset=".934" style="stop-color:#8d8d8d;stop-opacity:1"/><stop offset="1" style="stop-color:#616161;stop-opacity:1"/></linearGradient><linearGradient id="s"><stop offset="0" style="stop-color:#dcdcdc;stop-opacity:1"/><stop offset="1" style="stop-color:#dcdcdc;stop-opacity:0"/></linearGradient><linearGradient id="t"><stop offset="0" style="stop-color:#000;stop-opacity:1"/><stop offset="1" style="stop-color:#000;stop-opacity:0"/></linearGradient><linearGradient id="r"><stop offset="0" style="stop-color:#000;stop-opacity:1"/><stop offset="1" style="stop-color:#000;stop-opacity:0"/></linearGradient><linearGradient id="u"><stop offset="0" style="stop-color:#000;stop-opacity:1"/><stop offset="1" style="stop-color:#000;stop-opacity:0"/></linearGradient><linearGradient xlink:href="#o" id="B" x1="46.229" x2="50.325" y1="34.837" y2="67.717" gradientTransform="matrix(1.16098 .12787 -.1122 1.1627 -7.645 -42.367)" gradientUnits="userSpaceOnUse"/><linearGradient xlink:href="#n" id="C" x1="105.214" x2="119.674" y1="66.388" y2="66.388" gradientTransform="matrix(1.12055 0 0 1.12055 -15.318 -8.799)" gradientUnits="userSpaceOnUse"/><linearGradient xlink:href="#n" id="D" x1="-11.313" x2="24.777" y1="75.198" y2="75.198" gradientTransform="matrix(.93142 0 0 .93142 41.302 -34.927)" gradientUnits="userSpaceOnUse"/><linearGradient xlink:href="#n" id="H" x1="-11.313" x2="24.777" y1="75.198" y2="75.198" gradientTransform="matrix(-.113 0 0 .113 122.207 55.538)" gradientUnits="userSpaceOnUse"/><linearGradient xlink:href="#n" id="L" x1="-11.313" x2="24.777" y1="75.198" y2="75.198" gradientTransform="matrix(-.113 0 0 .113 122.207 55.538)" gradientUnits="userSpaceOnUse"/><linearGradient xlink:href="#q" id="Q" x1="38.357" x2="48.093" y1="86.917" y2="86.917" gradientTransform="matrix(.54048 0 0 .09355 48.635 105.7)" gradientUnits="userSpaceOnUse"/><linearGradient xlink:href="#s" id="R" x1="41.109" x2="44.112" y1="79.414" y2="79.414" gradientTransform="matrix(1.51446 0 0 .8379 10.98 49.948)" gradientUnits="userSpaceOnUse" spreadMethod="reflect"/><linearGradient xlink:href="#q" id="S" x1="38.357" x2="48.093" y1="86.917" y2="86.917" gradientTransform="matrix(.54048 0 0 .54048 -2.805 82.827)" gradientUnits="userSpaceOnUse"/><linearGradient xlink:href="#s" id="T" x1="41.109" x2="44.112" y1="79.414" y2="79.414" gradientTransform="matrix(1.51446 0 0 1.44542 -40.352 34.232)" gradientUnits="userSpaceOnUse" spreadMethod="reflect"/><linearGradient xlink:href="#q" id="U" x1="38.357" x2="48.093" y1="86.917" y2="86.917" gradientTransform="matrix(.54048 0 0 .54048 -127.261 10.543)" gradientUnits="userSpaceOnUse"/><linearGradient xlink:href="#s" id="V" x1="41.109" x2="44.112" y1="79.414" y2="79.414" gradientTransform="matrix(1.51446 0 0 1.44542 -164.874 -38.462)" gradientUnits="userSpaceOnUse" spreadMethod="reflect"/><linearGradient xlink:href="#t" id="W" x1="65.789" x2="65.099" y1="122.791" y2="106.681" gradientTransform="translate(-11.512 -38.11)scale(1.28685)" gradientUnits="userSpaceOnUse"/><radialGradient xlink:href="#m" id="z" cx="21.289" cy="62.976" r="33.898" fx="20.364" fy="54.51" gradientTransform="matrix(1.23036 .49085 -.30559 .766 6.445 -26.194)" gradientUnits="userSpaceOnUse"/><radialGradient xlink:href="#n" id="A" cx="45.072" cy="48.438" r="20.47" fx="49.431" fy="63.655" gradientUnits="userSpaceOnUse"/><radialGradient xlink:href="#o" id="E" cx="58.681" cy="7.23" r="55.699" fx="58.681" fy="7.23" gradientTransform="matrix(1.03889 .69132 -.10266 .15427 1.697 -11.264)" gradientUnits="userSpaceOnUse"/><radialGradient xlink:href="#p" id="F" cx="116.125" cy="65.438" r="2.938" fx="115.495" fy="64.291" gradientTransform="matrix(1 0 0 1.19149 0 -12.53)" gradientUnits="userSpaceOnUse"/><radialGradient xlink:href="#m" id="G" cx="21.289" cy="62.976" r="33.898" fx="20.364" fy="54.51" gradientTransform="matrix(-.14926 .05955 .03707 .09292 126.436 56.598)" gradientUnits="userSpaceOnUse"/><radialGradient xlink:href="#o" id="I" cx="58.681" cy="7.23" r="55.699" fx="58.681" fy="7.23" gradientTransform="matrix(-.12603 .08387 .01245 .01871 127.012 58.409)" gradientUnits="userSpaceOnUse"/><radialGradient xlink:href="#q" id="J" cx="71.882" cy="71.608" r="1.613" fx="71.882" fy="71.608" gradientTransform="matrix(1 0 0 1.0137 0 -.98)" gradientUnits="userSpaceOnUse"/><radialGradient xlink:href="#m" id="K" cx="21.289" cy="62.976" r="33.898" fx="20.364" fy="54.51" gradientTransform="matrix(-.14926 .05955 .03707 .09292 126.436 56.598)" gradientUnits="userSpaceOnUse"/><radialGradient xlink:href="#o" id="M" cx="58.681" cy="7.23" r="55.699" fx="58.681" fy="7.23" gradientTransform="matrix(-.12603 .08387 .01245 .01871 127.012 58.409)" gradientUnits="userSpaceOnUse"/><radialGradient xlink:href="#n" id="N" cx="92.063" cy="42.516" r="1.969" fx="92.074" fy="41.436" gradientTransform="matrix(1.21303 0 .03916 1.51587 -21.277 -21.932)" gradientUnits="userSpaceOnUse"/><radialGradient xlink:href="#r" id="O" cx="36.748" cy="121.958" r="4.966" fx="33.783" fy="122.477" gradientTransform="matrix(1 0 0 .31667 0 83.338)" gradientUnits="userSpaceOnUse"/><radialGradient xlink:href="#r" id="P" cx="36.748" cy="121.958" r="4.966" fx="33.783" fy="122.477" gradientTransform="matrix(1 0 0 .31667 0 83.338)" gradientUnits="userSpaceOnUse"/><radialGradient xlink:href="#u" id="X" cx="64.64" cy="122.041" r="3.724" fx="64.64" fy="122.041" gradientTransform="matrix(1 0 0 .84444 0 18.984)" gradientUnits="userSpaceOnUse"/><radialGradient xlink:href="#v" id="Y" cx="71.993" cy="91.361" r="1.212" fx="71.993" fy="91.361" gradientTransform="matrix(1.27094 .20174 -.41472 2.61275 18.291 -164.734)" gradientUnits="userSpaceOnUse"/><radialGradient xlink:href="#w" id="Z" cx="72.915" cy="90.396" r="1.212" fx="72.915" fy="90.396" gradientTransform="matrix(1.11414 .64395 -.83895 1.45153 67.687 -91.715)" gradientUnits="userSpaceOnUse"/><radialGradient xlink:href="#x" id="aa" cx="72.249" cy="89.825" r="1.212" fx="72.249" fy="89.825" gradientTransform="matrix(.87446 .23431 -.5343 1.99404 57.138 -110.8)" gradientUnits="userSpaceOnUse"/><radialGradient xlink:href="#y" id="ab" cx="37.299" cy="65.512" r="17.97" fx="37.299" fy="65.512" gradientTransform="matrix(-.14309 .16975 -.8051 -.67863 139.955 88.281)" gradientUnits="userSpaceOnUse"/></defs><path d="M50.893 3.281V.487z" style="fill:#fff;fill-opacity:.75688076;fill-rule:nonzero;stroke:none;stroke-width:.5;stroke-linecap:round;stroke-linejoin:round;stroke-miterlimit:4;stroke-dasharray:none;stroke-dashoffset:4;stroke-opacity:1"/><path d="M37.811 2.187C27.505 1.763 15.73 12.651 11.293 26.346c-4.127 12.741.888 24.596 10.655 28.35l90.326 22.353c.23.063.473.088.722.116 7.308.07 11.708-9.282 6.04-14.231L45.283 4.276c-1.692-1.177-4.21-1.73-6.456-1.977-.33-.036-.683-.098-1.016-.112" style="opacity:1;fill:#000;fill-opacity:1;fill-rule:nonzero;stroke:none;stroke-width:8;stroke-linecap:round;stroke-linejoin:round;stroke-miterlimit:4;stroke-dasharray:none;stroke-dashoffset:4;stroke-opacity:1" transform="rotate(7.721 43.229 42.025)scale(.99222)"/><path d="M37.904 2.718C27.84 2.984 16.64 13.607 12.342 26.874c-4.128 12.741.89 24.59 10.656 28.344l55.688 13.781V30.53L46.342 4.812c-1.692-1.177-4.223-1.722-6.469-1.97-.33-.035-.667-.11-1-.124a14 14 0 0 0-.969 0" style="opacity:.87000002;fill:url(#z);fill-opacity:1;fill-rule:nonzero;stroke:none;stroke-width:8;stroke-linecap:round;stroke-linejoin:round;stroke-miterlimit:4;stroke-dasharray:none;stroke-dashoffset:4;stroke-opacity:1" transform="rotate(7.721 43.229 42.025)scale(.99222)"/><path d="M68.7 47.242a20.47 20.47 0 1 1-40.94 0 20.47 20.47 0 1 1 40.94 0" style="opacity:.15;fill:#000;fill-opacity:1;fill-rule:nonzero;stroke:none;stroke-width:8;stroke-linecap:round;stroke-linejoin:round;stroke-miterlimit:4;stroke-dasharray:none;stroke-dashoffset:4;stroke-opacity:1" transform="matrix(.81639 .20364 -.51177 1.06676 21.537 -31.043)"/><path d="M68.7 47.242a20.47 20.47 0 1 1-40.94 0 20.47 20.47 0 1 1 40.94 0" style="opacity:1;fill:url(#A);fill-opacity:1;fill-rule:nonzero;stroke:none;stroke-width:8;stroke-linecap:round;stroke-linejoin:round;stroke-miterlimit:4;stroke-dasharray:none;stroke-dashoffset:4;stroke-opacity:1" transform="matrix(.84706 .2113 -.53004 1.10275 20.164 -33.512)"/><path d="M42.31 6.098c-8.171-.9-17.44 5.709-22.837 15.514-1.24 5.077-1.01 8.874 2.718 11.353 7.831 5.206 23.606.648 31.327-11.165.171-.261.317-.528.48-.792-.43-8.128-4.72-14.143-11.688-14.91" style="opacity:1;fill:url(#B);fill-opacity:1;fill-rule:nonzero;stroke:none;stroke-width:8;stroke-linecap:round;stroke-linejoin:round;stroke-miterlimit:4;stroke-dasharray:none;stroke-dashoffset:4;stroke-opacity:1" transform="rotate(7.721 43.229 42.025)scale(.99222)"/><path d="M44.742 4.456 74.174 28.68 57.76 62.596l-38.476-9.755a13.2 13.2 0 0 0 2.943.654C32.766 54.656 45.03 44.136 49.61 30c3.604-11.125 1.381-21.196-4.868-25.543" style="opacity:1;fill:#000;fill-opacity:1;fill-rule:nonzero;stroke:none;stroke-width:8;stroke-linecap:round;stroke-linejoin:round;stroke-miterlimit:4;stroke-dasharray:none;stroke-dashoffset:4;stroke-opacity:1" transform="rotate(7.721 43.229 42.025)scale(.99222)"/><path d="M109.058 54.912c5.938 6.708 1.698 17.31-6.478 19.82l5.742 1.435c.258.072.527.075.806.105 8.19.079 13.11-10.386 6.758-15.932z" style="opacity:1;fill:url(#C);fill-opacity:1;fill-rule:nonzero;stroke:none;stroke-width:8;stroke-linecap:round;stroke-linejoin:round;stroke-miterlimit:4;stroke-dasharray:none;stroke-dashoffset:4;stroke-opacity:1" transform="rotate(7.721 43.229 42.025)scale(.99222)"/><path d="m54.488 11.702 1.31 1.077a12 12 0 0 0-1.31-1.077m1.31 1.077c4.798 4.482 6.32 13.165 3.23 22.703-4.265 13.168-15.71 22.97-25.526 21.889-.334-.037-.64-.115-.96-.175l4.918 1.252c9.754 1.028 21.085-8.285 25.323-20.812 3.069-9.069 1.56-17.33-3.202-21.597l-1.31-1.048c.464.308.896.677 1.31 1.048zM32.54 57.196l-1.775-.436c.565.198 1.166.323 1.775.436" style="opacity:1;fill:url(#D);fill-opacity:1;fill-rule:nonzero;stroke:none;stroke-width:8;stroke-linecap:round;stroke-linejoin:round;stroke-miterlimit:4;stroke-dasharray:none;stroke-dashoffset:4;stroke-opacity:1" transform="rotate(7.721 43.229 42.025)scale(.99222)"/><path d="M45.688 4.875c9.542 6.244 8.726 21.893 1.093 34.938-17.36 29.606-56.949-1.795-24.843 14.874l90.343 22.376c.23.063.47.066.719.093 7.308.07 11.7-9.269 6.031-14.219L45.281 4.282c-12.87-1.378-13.658-7.078.407.594" style="opacity:1;fill:url(#E);fill-opacity:1;fill-rule:nonzero;stroke:none;stroke-width:8;stroke-linecap:round;stroke-linejoin:round;stroke-miterlimit:4;stroke-dasharray:none;stroke-dashoffset:4;stroke-opacity:1" transform="rotate(7.721 43.229 42.025)scale(.99222)"/><path d="M119.063 65.438a2.938 3.5 0 1 1-5.876 0 2.938 3.5 0 1 1 5.876 0" style="opacity:1;fill:url(#F);fill-opacity:1;fill-rule:nonzero;stroke:none;stroke-width:.2;stroke-linecap:round;stroke-linejoin:round;stroke-miterlimit:4;stroke-dasharray:none;stroke-dashoffset:4;stroke-opacity:1" transform="matrix(.75865 .38411 .10893 1.1673 13.817 -45.615)"/><path d="M122.624 60.029c-.04.002-.146.01-.186.015-.272.03-.515.092-.72.235l-3.906 3.094q-.032.03-.063.062c-.396.406-.554 1.09-.375 1.875.285 1.25 1.335 2.281 2.344 2.281.104 0 .187-.041.281-.062l4.563-1.125c1.184-.456 1.782-1.892 1.28-3.438-.537-1.661-1.968-2.989-3.218-2.937" style="opacity:1;fill:#000;fill-opacity:1;fill-rule:nonzero;stroke:none;stroke-width:8;stroke-linecap:round;stroke-linejoin:round;stroke-miterlimit:4;stroke-dasharray:none;stroke-dashoffset:4;stroke-opacity:1" transform="matrix(.71244 .28133 -.24742 .7205 40.21 -6.975)"/><path d="M122.62 60.105c1.22.032 2.58 1.321 3.1 2.93.501 1.546-.107 2.984-1.292 3.439l-6.756 1.672v-4.667l3.924-3.12c.205-.143.512-.209.785-.239.04-.004.08-.013.121-.015z" style="opacity:.87000002;fill:url(#G);fill-opacity:1;fill-rule:nonzero;stroke:none;stroke-width:8;stroke-linecap:round;stroke-linejoin:round;stroke-miterlimit:4;stroke-dasharray:none;stroke-dashoffset:4;stroke-opacity:1" transform="matrix(.71244 .28133 -.24742 .7205 40.21 -6.975)"/><path d="m121.79 60.316-3.57 2.939 1.991 4.114 4.668-1.183q-.169.059-.357.08c-1.279.14-2.767-1.136-3.322-2.851-.438-1.35-.168-2.572.59-3.099" style="opacity:1;fill:#000;fill-opacity:1;fill-rule:nonzero;stroke:none;stroke-width:8;stroke-linecap:round;stroke-linejoin:round;stroke-miterlimit:4;stroke-dasharray:none;stroke-dashoffset:4;stroke-opacity:1" transform="matrix(.71244 .28133 -.24742 .7205 40.21 -6.975)"/><path d="m120.608 61.195-.159.13q.075-.07.159-.13m-.159.13c-.582.544-.767 1.598-.392 2.755.518 1.597 1.906 2.786 3.097 2.655.04-.004.077-.014.116-.021l-.596.152c-1.184.125-2.558-1.005-3.072-2.525-.373-1.1-.19-2.102.388-2.62l.159-.127a1.4 1.4 0 0 0-.16.127zm2.821 5.389.216-.053q-.104.035-.216.053" style="opacity:1;fill:url(#H);fill-opacity:1;fill-rule:nonzero;stroke:none;stroke-width:8;stroke-linecap:round;stroke-linejoin:round;stroke-miterlimit:4;stroke-dasharray:none;stroke-dashoffset:4;stroke-opacity:1" transform="matrix(.71244 .28133 -.24742 .7205 40.21 -6.975)"/><path d="M121.843 60.279c1.317-.228 1.036-.142 0 0m0 0c-.044.006-.079.026-.125.031l-4 3.156c-.373.41-.518 1.08-.344 1.844.285 1.25 1.335 2.281 2.344 2.281.104 0 .187-.041.281-.062l4.563-1.125c.272-.142.402-.192.593-.281-.995.217-2.622.178-3.625-1.532-.926-1.582-1.001-3.461.157-4.218.064-.036.096-.063.156-.094m3.312 5.844c.95-.207 1.241-.577 0 0" style="opacity:1;fill:url(#I);fill-opacity:1;fill-rule:nonzero;stroke:none;stroke-width:8;stroke-linecap:round;stroke-linejoin:round;stroke-miterlimit:4;stroke-dasharray:none;stroke-dashoffset:4;stroke-opacity:1" transform="matrix(.71244 .28133 -.24742 .7205 40.21 -6.975)"/><path d="M148.682 70.41v-2.794zM181.295-142.142v-2.794zM46.024 89.45v-2.794z" style="fill:#fff;fill-opacity:.75688076;fill-rule:nonzero;stroke:none;stroke-width:.5;stroke-linecap:round;stroke-linejoin:round;stroke-miterlimit:4;stroke-dasharray:none;stroke-dashoffset:4;stroke-opacity:1"/><g transform="matrix(.96018 0 0 .96018 1.88 5.81)"><path d="M73.495 71.608a1.613 1.635 0 1 1-3.226 0 1.613 1.635 0 1 1 3.226 0" style="opacity:1;fill:url(#J);fill-opacity:1;fill-rule:nonzero;stroke:none;stroke-width:.2;stroke-linecap:round;stroke-linejoin:round;stroke-miterlimit:4;stroke-dasharray:none;stroke-dashoffset:4;stroke-opacity:1" transform="matrix(1.60634 0 0 1.3388 -43.434 -23.92)"/><path d="M122.624 60.029c-.04.002-.146.01-.186.015-.272.03-.515.092-.72.235l-3.906 3.094q-.032.03-.063.062c-.396.406-.554 1.09-.375 1.875.285 1.25 1.335 2.281 2.344 2.281.104 0 .187-.041.281-.062l4.563-1.125c1.184-.456 1.782-1.892 1.28-3.438-.537-1.661-1.968-2.989-3.218-2.937" style="opacity:1;fill:#000;fill-opacity:1;fill-rule:nonzero;stroke:none;stroke-width:8;stroke-linecap:round;stroke-linejoin:round;stroke-miterlimit:4;stroke-dasharray:none;stroke-dashoffset:4;stroke-opacity:1" transform="matrix(1.16361 .2864 -.23213 1.16898 -41.023 -65.745)"/><path d="M122.62 60.105c1.22.032 2.58 1.321 3.1 2.93.501 1.546-.107 2.984-1.292 3.439l-6.756 1.672v-4.667l3.924-3.12c.205-.143.512-.209.785-.239.04-.004.08-.013.121-.015z" style="opacity:.87000002;fill:url(#K);fill-opacity:1;fill-rule:nonzero;stroke:none;stroke-width:8;stroke-linecap:round;stroke-linejoin:round;stroke-miterlimit:4;stroke-dasharray:none;stroke-dashoffset:4;stroke-opacity:1" transform="matrix(1.16361 .2864 -.23213 1.16898 -41.023 -65.745)"/><path d="m121.79 60.316-3.57 2.939 1.991 4.114 4.668-1.183q-.169.059-.357.08c-1.279.14-2.767-1.136-3.322-2.851-.438-1.35-.168-2.572.59-3.099" style="opacity:1;fill:#000;fill-opacity:1;fill-rule:nonzero;stroke:none;stroke-width:8;stroke-linecap:round;stroke-linejoin:round;stroke-miterlimit:4;stroke-dasharray:none;stroke-dashoffset:4;stroke-opacity:1" transform="matrix(1.16361 .2864 -.23213 1.16898 -41.023 -65.745)"/><path d="m120.608 61.195-.159.13q.075-.07.159-.13m-.159.13c-.582.544-.767 1.598-.392 2.755.518 1.597 1.906 2.786 3.097 2.655.04-.004.077-.014.116-.021l-.596.152c-1.184.125-2.558-1.005-3.072-2.525-.373-1.1-.19-2.102.388-2.62l.159-.127a1.4 1.4 0 0 0-.16.127zm2.821 5.389.216-.053q-.104.035-.216.053" style="opacity:1;fill:url(#L);fill-opacity:1;fill-rule:nonzero;stroke:none;stroke-width:8;stroke-linecap:round;stroke-linejoin:round;stroke-miterlimit:4;stroke-dasharray:none;stroke-dashoffset:4;stroke-opacity:1" transform="matrix(1.16361 .2864 -.23213 1.16898 -41.023 -65.745)"/><path d="M121.843 60.279c1.317-.228 1.036-.142 0 0m0 0c-.044.006-.079.026-.125.031l-4 3.156c-.373.41-.518 1.08-.344 1.844.285 1.25 1.335 2.281 2.344 2.281.104 0 .187-.041.281-.062l4.563-1.125c.272-.142.402-.192.593-.281-.995.217-2.622.178-3.625-1.532-.926-1.582-1.001-3.461.157-4.218.064-.036.096-.063.156-.094m3.312 5.844c.95-.207 1.241-.577 0 0" style="opacity:1;fill:url(#M);fill-opacity:1;fill-rule:nonzero;stroke:none;stroke-width:8;stroke-linecap:round;stroke-linejoin:round;stroke-miterlimit:4;stroke-dasharray:none;stroke-dashoffset:4;stroke-opacity:1" transform="matrix(1.16361 .2864 -.23213 1.16898 -41.023 -65.745)"/><path d="M85.406 40.656c.57 2.342.872 4.86.844 7.469-.138 12.794-8.062 23.188-17.687 23.188-.301 0-.579-.011-.876-.032a20 20 0 0 1-.78-.594c-3.366-2.68-5.997-6.625-7.75-11.093H55.03c1.737 3.827 4.153 7.196 7.125 9.562.69.55 1.39.996 2.094 1.406l.281.188c.806.447 1.625.786 2.438 1.063l.531.156.125.062.563.25c.766.313 1.538.54 2.343.719l.344.063c.778.144 1.597.25 2.406.25 9.626 0 17.55-10.394 17.688-23.188a29.7 29.7 0 0 0-1.438-9.469c-.509-.622-3.877-.806-4.125 0" style="opacity:1;fill:#000;fill-opacity:1;fill-rule:nonzero;stroke:none;stroke-width:.2;stroke-linecap:round;stroke-linejoin:round;stroke-miterlimit:4;stroke-dasharray:none;stroke-dashoffset:4;stroke-opacity:1"/><path d="M94.031 42.516a1.969 2.984 0 1 1-3.937 0 1.969 2.984 0 1 1 3.937 0" style="opacity:1;fill:url(#N);fill-opacity:1;fill-rule:nonzero;stroke:#8a8a8a;stroke-width:.2;stroke-linecap:round;stroke-linejoin:round;stroke-miterlimit:4;stroke-dasharray:none;stroke-dashoffset:4;stroke-opacity:1" transform="matrix(.59603 0 .07228 .5522 30.353 19.514)"/><path d="M41.714 121.958a4.966 1.573 0 1 1-9.932 0 4.966 1.573 0 1 1 9.932 0" style="opacity:.49590167;fill:url(#O);fill-opacity:1;fill-rule:nonzero;stroke:none;stroke-width:.71249998;stroke-linecap:square;stroke-linejoin:miter;stroke-miterlimit:4;stroke-dasharray:none;stroke-dashoffset:4;stroke-opacity:1" transform="matrix(2.97652 -.54662 .28538 2.03935 -85.96 -106.944)"/><path d="M41.714 121.958a4.966 1.573 0 1 1-9.932 0 4.966 1.573 0 1 1 9.932 0" style="opacity:.49590167;fill:url(#P);fill-opacity:1;fill-rule:nonzero;stroke:none;stroke-width:.71249998;stroke-linecap:square;stroke-linejoin:miter;stroke-miterlimit:4;stroke-dasharray:none;stroke-dashoffset:4;stroke-opacity:1" transform="matrix(-2.97652 -.54662 -.28538 2.03935 230.59 -105.763)"/><path d="M69.792 72.347c1.138-.457 2.605-.46 4.41 0 .267.109.426.19.426.425v44.24c0 .236-.19.426-.426.426h-4.41a.424.424 0 0 1-.426-.426v-44.24c0-.236.233-.347.426-.425" style="fill:url(#Q);fill-opacity:1;fill-rule:nonzero;stroke:none;stroke-width:.71249998;stroke-linecap:square;stroke-linejoin:miter;stroke-miterlimit:4;stroke-dashoffset:4;stroke-opacity:1"/><rect width="8.018" height="8.798" x="67.988" y="110.917" rx="1.825" ry="1.825" style="fill:#000;fill-opacity:1;fill-rule:nonzero;stroke:none;stroke-width:.71249998;stroke-linecap:square;stroke-linejoin:miter;stroke-miterlimit:4;stroke-dasharray:none;stroke-dashoffset:4;stroke-opacity:1"/><rect width="6.896" height="7.703" x="68.495" y="111.523" rx="1.277" ry="1.244" style="opacity:.47950816;fill:url(#R);fill-opacity:1;fill-rule:nonzero;stroke:none;stroke-width:.71249998;stroke-linecap:square;stroke-linejoin:miter;stroke-miterlimit:4;stroke-dasharray:none;stroke-dashoffset:4;stroke-opacity:1"/><path d="M17.927 108.967h5.262v41.673h-5.262z" style="fill:url(#S);fill-opacity:1;fill-rule:nonzero;stroke:none;stroke-width:.71249998;stroke-linecap:square;stroke-linejoin:miter;stroke-miterlimit:4;stroke-dasharray:none;stroke-dashoffset:4;stroke-opacity:1" transform="rotate(-30)"/><rect width="8.018" height="11.025" x="16.656" y="143.56" rx="1.825" ry="1.825" style="fill:#000;fill-opacity:1;fill-rule:nonzero;stroke:none;stroke-width:.71249998;stroke-linecap:square;stroke-linejoin:miter;stroke-miterlimit:4;stroke-dasharray:none;stroke-dashoffset:4;stroke-opacity:1" transform="rotate(-30)"/><rect width="6.896" height="9.447" x="17.162" y="144.295" rx="1.277" ry="1.244" style="opacity:.47950816;fill:url(#T);fill-opacity:1;fill-rule:nonzero;stroke:none;stroke-width:.71249998;stroke-linecap:square;stroke-linejoin:miter;stroke-miterlimit:4;stroke-dasharray:none;stroke-dashoffset:4;stroke-opacity:1" transform="rotate(-30)"/><path d="M-106.53 36.683h5.262v41.673h-5.262z" style="fill:url(#U);fill-opacity:1;fill-rule:nonzero;stroke:none;stroke-width:.71249998;stroke-linecap:square;stroke-linejoin:miter;stroke-miterlimit:4;stroke-dasharray:none;stroke-dashoffset:4;stroke-opacity:1" transform="scale(-1 1)rotate(-30)"/><rect width="8.018" height="11.025" x="-107.866" y="70.866" rx="1.825" ry="1.825" style="fill:#000;fill-opacity:1;fill-rule:nonzero;stroke:none;stroke-width:.71249998;stroke-linecap:square;stroke-linejoin:miter;stroke-miterlimit:4;stroke-dasharray:none;stroke-dashoffset:4;stroke-opacity:1" transform="scale(-1 1)rotate(-30)"/><rect width="6.896" height="9.447" x="-107.359" y="71.601" rx="1.277" ry="1.244" style="opacity:.47950816;fill:url(#V);fill-opacity:1;fill-rule:nonzero;stroke:none;stroke-width:.71249998;stroke-linecap:square;stroke-linejoin:miter;stroke-miterlimit:4;stroke-dasharray:none;stroke-dashoffset:4;stroke-opacity:1" transform="scale(-1 1)rotate(-30)"/><path d="M70.766 99.182c-.065.016-.138.05-.2.08-.644.335-1.127 1.34-1.127 2.534v9.852a1.8 1.8 0 0 0-.442.282l-.08.08c-.017.018-.065.061-.08.08-.024.03-.06.09-.081.121a2 2 0 0 0-.121.201c-.037.08-.058.196-.08.282-.027.111-.04.242-.04.362v4.624c0 .173.026.368.08.523.022.059.051.146.08.201.097.174.247.357.402.483.1.076.246.15.362.2.19.078.425.121.644.121h.281c.058.044.14.089.201.12.138.066.292.122.443.122h1.85c.232 0 .445-.092.643-.242h.322a1.7 1.7 0 0 0 .442-.04 1.9 1.9 0 0 0 .684-.402 2 2 0 0 0 .362-.563c.053-.155.08-.35.08-.523v-4.624c0-.12-.014-.25-.04-.362a1.65 1.65 0 0 0-.523-.805c-.02-.015-.06-.065-.08-.08a1.8 1.8 0 0 0-.322-.16v-9.853c0-1.125-.42-2.067-1.005-2.453a1.1 1.1 0 0 0-.563-.161h-1.85c-.082 0-.163-.02-.242 0" style="opacity:.77459011;fill:url(#W);fill-opacity:1;fill-rule:nonzero;stroke:none;stroke-width:.71249998;stroke-linecap:square;stroke-linejoin:miter;stroke-miterlimit:4;stroke-dasharray:none;stroke-dashoffset:4;stroke-opacity:1"/><path d="M68.364 122.04a3.724 3.145 0 1 1-7.449 0 3.724 3.145 0 1 1 7.449 0" style="opacity:.49590167;fill:url(#X);fill-opacity:1;fill-rule:nonzero;stroke:none;stroke-width:.71249998;stroke-linecap:square;stroke-linejoin:miter;stroke-miterlimit:4;stroke-dasharray:none;stroke-dashoffset:4;stroke-opacity:1" transform="matrix(1.48703 0 0 1.28685 -23.777 -37.15)"/><path d="m70.985 83.364.925 5.128 2.194-3.786-.747-1.221-1.045.583z" style="fill:#c2c2c2;fill-opacity:1;fill-rule:evenodd;stroke:none;stroke-width:1px;stroke-linecap:butt;stroke-linejoin:miter;stroke-opacity:1"/><path d="m70.985 83.364.925 5.128 2.194-3.786-.747-1.221-1.045.583z" style="fill:url(#Y);fill-opacity:1;fill-rule:evenodd;stroke:none;stroke-width:1px;stroke-linecap:butt;stroke-linejoin:miter;stroke-opacity:1"/><path d="m70.985 83.364.925 5.128 2.194-3.786-.747-1.221-1.045.583z" style="fill:url(#Z);fill-opacity:1;fill-rule:evenodd;stroke:none;stroke-width:1px;stroke-linecap:butt;stroke-linejoin:miter;stroke-opacity:1"/><path d="m70.985 83.364.925 5.128 2.194-3.786-.747-1.221-1.045.583z" style="opacity:.81999972;fill:url(#aa);fill-opacity:1;fill-rule:evenodd;stroke:none;stroke-width:1px;stroke-linecap:butt;stroke-linejoin:miter;stroke-opacity:1"/><path d="M85.031 47.813c.197 1.091.355 2.197.344 3.25-.053 4.883-1.37 9.321-3.5 12.937h4.719c1.404-3.285 2.237-7.082 2.281-11.187.018-1.672.045-3.38-.062-5z" style="opacity:.86000001;fill:url(#ab);fill-opacity:1;fill-rule:nonzero;stroke:none;stroke-width:.2;stroke-linecap:round;stroke-linejoin:round;stroke-miterlimit:4;stroke-dasharray:none;stroke-dashoffset:4;stroke-opacity:1" transform="matrix(1.03337 0 0 1.03337 -1.45 -4.24)"/></g></svg>