<svg xmlns="http://www.w3.org/2000/svg" width="32" height="32"><linearGradient id="b" x1="8.5" x2=".5" y1="7.637" y2="-.372" gradientTransform="matrix(3.49599 0 0 3.49599 1.3 3.3)" gradientUnits="userSpaceOnUse"><stop offset="0" stop-color="#4f5356"/><stop offset="1" stop-color="#9b9ea2"/></linearGradient><radialGradient id="c" cx="16" cy="17" r="11" gradientUnits="userSpaceOnUse"><stop offset="0" stop-color="#3dd425" stop-opacity=".955"/><stop offset="1" stop-color="#59f07c"/></radialGradient><linearGradient id="e" x1="14.542" x2="26.542" y1="16" y2="28" gradientUnits="userSpaceOnUse"><stop offset="0"/><stop offset="1" stop-opacity="0"/></linearGradient><linearGradient id="a" x1="210.5" x2="210.5" y1="188" y2="193.5" gradientTransform="scale(1.99375)rotate(45 336.31 -141.57)" gradientUnits="userSpaceOnUse"><stop offset="0" stop-color="#9b9ea2"/><stop offset="1" stop-color="#1a1b1e"/></linearGradient><path fill="url(#a)" d="M25.5 4.5 23 7h-7v10h11v-6l2.5-2.5z"/><path fill="url(#b)" d="M10 2v2h12V2zm6 2A13 13 0 0 0 3 17a13 13 0 0 0 13 13 13 13 0 0 0 13-13A13 13 0 0 0 16 4"/><circle cx="16" cy="17" r="11" fill="#eff8ff"/><path d="M16 6A11 11 0 0 0 5 17a11 11 0 0 0 11 11 11 11 0 0 0 11-11A11 11 0 0 0 16 6m0 1a10 10 0 0 1 10 10 10 10 0 0 1-10 10A10 10 0 0 1 6 17 10 10 0 0 1 16 7" opacity=".15"/><path d="M28.979 16.295C28.819 23.35 23.058 28.99 16 29c-6.975-.014-12.697-5.53-12.965-12.5A13 13 0 0 0 3 17c0 7.18 5.82 13 13 13s13-5.82 13-13q0-.352-.021-.705" opacity=".3"/><path fill="url(#c)" d="M16 6v11h11A11 11 0 0 0 16 6"/><path fill="url(#e)" d="M14.586 18.414 24.172 28H27V16z" opacity=".2"/><path fill="#00223e" d="M16 16h11v2H16z"/><path fill="#686b6f" d="M17.414 15.586a2 2 0 1 1-2.828 2.828 2 2 0 0 1 2.828-2.828"/><circle cx="16" cy="17" r="1" fill="#9b9ea2"/></svg>