<svg xmlns="http://www.w3.org/2000/svg" width="48" height="48"><defs><linearGradient id="d" x1="13" x2="36" y1="1016.36" y2="1040.36" gradientUnits="userSpaceOnUse"><stop stop-color="#292c2f"/><stop offset="1" stop-opacity="0"/></linearGradient><linearGradient id="a" x2="0" y1="44" y2="4" gradientUnits="userSpaceOnUse"><stop stop-color="#7cbaf8"/><stop offset="1" stop-color="#f4fcff"/></linearGradient><linearGradient id="c" x2="0" y1="39" y2="9" gradientTransform="matrix(1.02857 0 0 1.2 -5.314 -4.8)" gradientUnits="userSpaceOnUse"><stop stop-color="#197cf1"/><stop offset="1" stop-color="#20bcfa"/></linearGradient></defs><g fill-rule="evenodd"><g stroke-width="2" color="#000"><path fill="url(#a)" d="M44 24a20 20 0 1 1-40 0 20 20 0 1 1 40 0"/><path fill="url(#c)" d="M24 6C14.059 6 6 14.06 6 24c0 9.941 8.06 18 18 18 9.941 0 18-8.06 18-18 0-9.941-8.06-18-18-18m-2 6h4v4h-4zm0 8h4v16h-4V24z"/></g><path fill="url(#d)" d="M26 1020.36h-4l4 4v16h-4l8 8h15v-14l-19-18z" opacity=".2" transform="translate(0 -1004.36)"/></g></svg>