<svg xmlns="http://www.w3.org/2000/svg" xmlns:xlink="http://www.w3.org/1999/xlink" width="48" height="48" viewBox="0 0 12.7 12.7"><linearGradient id="a"><stop offset="0" stop-color="#4d4d4d"/><stop offset="1" stop-color="#7f8c8d"/></linearGradient><linearGradient xlink:href="#a" id="e" x1="17.304" x2="17.304" y1="285" y2="257" gradientUnits="userSpaceOnUse"/><linearGradient id="c" x1="24" x2="24" y1="294" y2="257" gradientTransform="matrix(1 0 0 .97619 0 6)" gradientUnits="userSpaceOnUse"><stop offset="0" stop-color="#1d99f3"/><stop offset="1" stop-color="#3daee9"/></linearGradient><linearGradient xlink:href="#a" id="k" x1="24.183" x2="24.183" y1="285" y2="257" gradientUnits="userSpaceOnUse"/><linearGradient id="h" x1="29.588" x2="29.588" y1="281.117" y2="290.736" gradientTransform="matrix(.9995 0 0 .99938 -5.129 -248.816)" gradientUnits="userSpaceOnUse"><stop offset="0" stop-opacity=".2"/><stop offset="1" stop-color="#fff" stop-opacity="0"/></linearGradient><linearGradient id="b"><stop offset="0" stop-color="#232629"/><stop offset="1" stop-color="#31363b"/></linearGradient><linearGradient xlink:href="#b" id="l" x1="32.114" x2="32.114" y1="263.095" y2="271.949" gradientUnits="userSpaceOnUse"/><linearGradient xlink:href="#b" id="m" x1="32.114" x2="32.114" y1="263.095" y2="271.949" gradientUnits="userSpaceOnUse"/><linearGradient id="d" x1="90.319" x2="120.339" y1="-162.799" y2="139.843" gradientTransform="matrix(.26445 0 0 .26442 .022 .028)" gradientUnits="userSpaceOnUse"><stop offset="0" stop-color="#2980b9"/><stop offset="1" stop-color="#3daee9" stop-opacity="0"/></linearGradient><linearGradient id="g" x1="24" x2="24" y1="294" y2="257" gradientTransform="matrix(1 0 0 .97619 0 6)" gradientUnits="userSpaceOnUse"><stop offset="0" stop-color="#27ae60"/><stop offset="1" stop-color="#2ecc71"/></linearGradient><g transform="matrix(.26445 0 0 .26442 .006 -65.833)"><rect width="40.02" height="39.024" x="3.979" y="253.975" fill="#34495e" rx="6.004"/><path fill="#34495e" d="M9.982 252.974a5.99 5.99 0 0 0-6.003 6.004v27.017a5.99 5.99 0 0 0 6.003 6.004h28.014A5.99 5.99 0 0 0 44 285.995v-27.017a5.99 5.99 0 0 0-6.003-6.004z"/><rect width="40.02" height="39.024" x="3.979" y="252.974" fill="url(#c)" rx="6.004"/><path fill="url(#d)" d="M30.99 5.004v8.994l-4.998-4.996v9.994L14.998 8.002v8.996L10 12v1l-2-2v12.373c15.047-1.523 24.188-4.826 35.982-6.037v-6.774a6 6 0 0 0-.103-1.1L39.98 5.565l.004 8.434z" transform="matrix(1.0005 0 0 1.00063 -.023 248.972)"/><path fill="#2980b9" d="M29.979 253.979v2.001h-.999v6.999H25.98v-5h-2v1.001h-1v3.999h-5l-2-2v-1l-1-.999v-2.001H12.98v1h-1v5l-2.001 2v-4h-2v-1H4.98l-1 1V285H44v-24.02h-2.021v-2h-2l-.005-4.44-3.998 4 .004 2.44h-2.001v-1.001l-2-2v-1.999h-1v-2.001z"/><path fill="none" d="M7 257h6v16.816H7z"/><path fill="url(#e)" d="M20.304 282.021a3 3 0 0 1-2.994 3 3 3 0 0 1-3.006-2.99 3 3 0 0 1 2.984-3.01A3 3 0 0 1 20.304 282"/><path fill="url(#g)" d="M3.98 285.999a5.99 5.99 0 0 0 6.002 6h28.014c3.325 0 6.001-2.676 6.003-6z"/><path fill="url(#h)" d="m44 29.633-24.957.398-13.348 1.176 10.532 10.531h21.878c.771-.858 3.897-1.916 5.66-3.086.15-.525.235-1.078.235-1.652z" transform="matrix(1.0005 0 0 1.00063 -.023 248.972)"/><path fill="url(#k)" d="M27.183 282.021a3 3 0 0 1-2.994 3 3 3 0 0 1-3.006-2.99 3 3 0 0 1 2.984-3.01A3 3 0 0 1 27.183 282"/><path fill="#2c3e50" d="M32.016 254.912a.5.5 0 0 0-.272.076l-6 3.582a.5.5 0 0 0 .086.9l11 4a.5.5 0 1 0 .34-.94l-10.01-3.641 5.096-3.043a.5.5 0 0 0-.24-.934"/><path fill="#bdc3c7" d="m24.2 260.999-.005.004-.037-.002a7.91 7.91 0 0 0-5.325 2.109l-.02.007-13.204 11.68.002.002a3.53 3.53 0 0 0-1.227 2.683A3.53 3.53 0 0 0 7.915 281h36.084v-20z"/><path fill="#fdfdfd" d="m24.2 260.999-.005.004-.037-.002a7.91 7.91 0 0 0-5.325 2.109l-.02.007-13.204 11.68.002.002a3.53 3.53 0 0 0-1.188 2.165 3.53 3.53 0 0 0 3.492 3.035v.002h36.084v-19z"/><path fill="#34495e" d="M6.657 253.975a6 6 0 0 0-1.145 1h36.955a6 6 0 0 0-1.145-1h-22.67z"/><path fill="#da4453" d="m7.64 273-2.03 1.797.001.002a3.5 3.5 0 0 0-.9 1.202h39.288v-3z"/><g fill="#34495e"><path d="M17.814 269.588a1.41 1.41 0 0 1-1.41 1.412 1.41 1.41 0 0 1-1.415-1.407 1.41 1.41 0 0 1 1.405-1.418 1.41 1.41 0 0 1 1.42 1.403"/><rect width="8.085" height="8" x="22.915" y="263" ry="1" transform="skewY(.001)"/><path d="M16.401 268.175H29V271H16.401z"/><path d="m15.479 268.518 5.281-4.671 2.155-.847s.442 1.929.573 2.509-.188 3.368-.188 3.368l-6.454.88z"/><path d="M26.08 266.166a3.166 3.166 0 0 1-3.16 3.165 3.166 3.166 0 0 1-3.17-3.154A3.166 3.166 0 0 1 22.898 263a3.166 3.166 0 0 1 3.183 3.143"/><path d="M23 263h3v1h-3z"/></g><path fill="#34495e" d="M34 263c-.554 0-1 .447-1 1v6c0 .555.446 1 1 1h10v-8z"/><path fill="url(#l)" d="M34 264c-.554 0-1 .445-1 1v5c0 .555.446 1 1 1h10v-7z"/><g fill="url(#m)" transform="matrix(.93686 0 0 .875 1.957 33.875)"><path d="M17.814 269.588a1.41 1.41 0 0 1-1.41 1.412 1.41 1.41 0 0 1-1.415-1.407 1.41 1.41 0 0 1 1.405-1.418 1.41 1.41 0 0 1 1.42 1.403"/><rect width="8.085" height="8" x="22.915" y="263" ry="1" transform="skewY(.001)"/><path d="M16.401 268.175H29V271H16.401z"/><path d="m15.479 268.518 5.281-4.671 2.155-.847s.442 1.929.573 2.509-.188 3.368-.188 3.368l-6.454.88z"/><path d="M26.08 266.166a3.166 3.166 0 0 1-3.16 3.165 3.166 3.166 0 0 1-3.17-3.154A3.166 3.166 0 0 1 22.898 263a3.166 3.166 0 0 1 3.183 3.143"/><path d="M23 263h3v1h-3z"/></g><path fill="#34495e" d="M3.98 285v.995c0 .343.035.677.09 1.005h39.84c.054-.328.09-.662.09-1.005V285z"/><path fill="#3daee9" d="M3.98 285v1.001H44V285z"/><path fill="#233240" d="M29 254.916a.5.5 0 1 0 0 1h5a.5.5 0 1 0 0-1z"/></g></svg>