<svg xmlns="http://www.w3.org/2000/svg" xmlns:xlink="http://www.w3.org/1999/xlink" width="48" height="48"><defs><linearGradient id="o" x1="-2.305" x2="8.691" y1="63.19" y2="44.14" gradientUnits="userSpaceOnUse"><stop stop-color="#fff" stop-opacity="0"/><stop offset="1" stop-color="#fff" stop-opacity=".314"/></linearGradient><linearGradient id="n" x1="50.47" x2="37.773" y1="63.19" y2="41.2" gradientUnits="userSpaceOnUse"><stop stop-opacity=".082"/><stop offset="1" stop-opacity="0"/></linearGradient><linearGradient id="l" x1="-2.305" x2="30.681" gradientUnits="userSpaceOnUse"><stop stop-opacity=".275"/><stop offset="1" stop-color="#fff" stop-opacity="0"/></linearGradient><linearGradient id="j" x2="0" y1="58.787" y2="32.398" gradientUnits="userSpaceOnUse"><stop stop-color="#e9edf7"/><stop offset="1" stop-color="#f6f6ff"/></linearGradient><linearGradient id="u" x1="23.725" x2="27.03" y1="31.803" y2="36.26" gradientUnits="userSpaceOnUse"><stop stop-color="#292c2f"/><stop offset="1" stop-opacity="0"/></linearGradient><linearGradient id="b" x1="29.388" x2="22.489" y1="44.47" y2="20.97" gradientUnits="userSpaceOnUse"><stop stop-color="#b3c4ce"/><stop offset="1" stop-color="#eef2f4"/></linearGradient><linearGradient id="a" x1="23.06" x2="34.616" y1="35.497" y2="41.753" gradientUnits="userSpaceOnUse"><stop stop-color="#232628"/><stop offset="1" stop-opacity=".044"/></linearGradient><linearGradient id="d" x1="34.491" x2="4.03" y1="54.701" y2="24.19" gradientUnits="userSpaceOnUse"><stop stop-color="#6d429a"/><stop offset=".608" stop-color="#45b9f4"/><stop offset="1" stop-color="#afe6ff"/></linearGradient><linearGradient id="p" x1="29.494" x2="18.771" y1="32.34" y2="30.759" gradientUnits="userSpaceOnUse"><stop stop-color="#4c73bd"/><stop offset="1" stop-color="#01afff"/></linearGradient><linearGradient id="r" x2="0" y1="36.36" y2="29.532" gradientUnits="userSpaceOnUse"><stop stop-color="#06a370"/><stop offset="1" stop-color="#22d1b0"/></linearGradient><linearGradient id="e" x1="22.489" x2="27.667" y1="47.628" y2="28.317" gradientUnits="userSpaceOnUse"><stop stop-color="#23272d"/><stop offset="1" stop-color="#324356" stop-opacity=".375"/></linearGradient><linearGradient id="v" x1="10.956" x2="8.48" y1="28.63" y2="29.536" gradientUnits="userSpaceOnUse"><stop/><stop offset="1" stop-opacity="0"/></linearGradient><linearGradient id="c" x1="29.1" x2="22.18" y1="44.6" y2="29.627" gradientUnits="userSpaceOnUse"><stop stop-color="#f37f12"/><stop offset="1" stop-color="#f5c635"/></linearGradient><linearGradient id="w" x1="32.44" x2="28.554" y1="30.665" y2="25.642" gradientUnits="userSpaceOnUse"><stop stop-color="#da6c44"/><stop offset="1" stop-color="#ffa236"/></linearGradient><linearGradient xlink:href="#a" id="q" x1="30.16" x2="32.659" y1="41.544" y2="41.42" gradientUnits="userSpaceOnUse"/><linearGradient id="t" x1="45.42" x2="32.633" y1="58.905" y2="38.34" gradientUnits="userSpaceOnUse"><stop stop-color="#070b0d"/><stop offset=".132" stop-color="#10181d"/><stop offset=".7" stop-color="#2e4554"/><stop offset="1" stop-color="#4f778f"/></linearGradient><linearGradient xlink:href="#a" id="x" x1="30.11" x2="32.516" y1="49.912" y2="51.913" gradientUnits="userSpaceOnUse"/><linearGradient xlink:href="#a" id="y" x1="32.752" x2="36.512" y1="43.42" y2="45.951" gradientUnits="userSpaceOnUse"/><linearGradient id="i" x2="0" y1="44.876" y2="38.905" gradientUnits="userSpaceOnUse"><stop stop-color="#232628"/><stop offset="1" stop-opacity="0"/></linearGradient><radialGradient id="z" cx="48.5" cy="32.5" r="12.563" gradientTransform="matrix(.73928 -.48775 .17109 .25931 -4.9 54.14)" gradientUnits="userSpaceOnUse"><stop stop-color="#91a9d6"/><stop offset=".851" stop-color="#91a9d6"/><stop offset="1" stop-color="#ced9ed" stop-opacity="0"/></radialGradient></defs><g fill-rule="evenodd"><path fill="url(#b)" d="M24.09 19.2 2 32.996l22.09 15.891 21.915-15.891z" transform="translate(0 -16)"/><g color="#000"><path fill="url(#c)" d="M10 26v22h21V29l-3-3z" transform="translate(0 -16)"/><path fill="url(#d)" d="M4 24v24h25V32l-8-8z" transform="translate(0 -16)"/></g></g><g color="#000"><path fill="url(#e)" d="M4 24v11l2 1V24zm3 5v3h3v-3zm4 0v1h3v-1zm4 0v1h3v-1zm-4 2v1h14v-1zm16 1v13h2V32zM7 33v1h16v-1zm0 2v1h14v-1zm0 2v1h16v-1zm4 2 1 1h8v-1zm2 2 1 1h8v-1zm2 2 2 1h4v-1z" transform="translate(0 -16)"/><path fill="url(#i)" fill-rule="evenodd" d="m4.294 33.982 15.16 12.888h7.581l18.2-13.646z" opacity=".328" transform="translate(0 -16)"/></g><path fill="url(#j)" d="m2 33 .02 26h43.972L46 33 29 45H19z" transform="translate(0 -16)"/><g fill-rule="evenodd"><path fill="url(#l)" d="M2.02 59 19 45h10l13.201 14z" transform="translate(0 -16)"/><path fill="url(#n)" d="M45.992 59 28.484 45.592 46.001 33z" transform="translate(0 -16)"/><path fill="url(#o)" d="M2.02 59 19 45 2 33z" transform="translate(0 -16)"/><path fill="url(#p)" d="M29 32h-8v-8z" color="#000" transform="translate(0 -16)"/><path fill="url(#a)" d="m31 29 8 9-8 5z" opacity=".284" transform="translate(0 -16)"/><path fill="url(#q)" d="m29 32 2 2v9l-2 1z" opacity=".288" transform="translate(0 -16)"/></g><path fill="url(#r)" d="m24 19-7.531 5H19l5.03-3.281L44.999 34v24h-42V34l1-.625-.003-1.637-2 1.262.02 26h43.972l.008-26z" color="#000" transform="translate(0 -16)"/><path d="M3 42h43l-.008 1H2.095z" opacity=".188"/><path fill="url(#t)" d="m27 45 19-12v2L30.071 45.51 46 57l-.008 2L29 47v12h-1.962z" color="#000" transform="translate(0 -16)"/><path fill="url(#u)" fill-rule="evenodd" d="M21 32h8l.313 9.718z" opacity=".276" transform="translate(0 -16)"/><g color="#000"><path fill="#34495e" d="M21 16v-2h6l2 2z" opacity=".232"/><g fill-rule="evenodd"><path fill="url(#v)" d="M10 32H7v-3h3z" opacity=".332" transform="translate(0 -16)"/><path fill="url(#w)" d="M31 29h-3v-3z" transform="translate(0 -16)"/><path fill="url(#x)" d="M29 59V47l17 12z" opacity=".136" transform="translate(0 -16)"/><path fill="url(#y)" d="m30.07 45.51 15.921-10.77v21.986z" opacity=".196" transform="translate(0 -16)"/></g></g><path fill="none" stroke="url(#z)" stroke-width=".152" d="m24 47 22-14" transform="translate(0 -16)"/></svg>