<svg xmlns="http://www.w3.org/2000/svg" xmlns:xlink="http://www.w3.org/1999/xlink" viewBox="0 0 48 48"><defs><linearGradient xlink:href="#a" id="c" x2="0" y1="543.8" y2="502.66" gradientTransform="matrix(.44445 0 0 .42345 -170.92 -211.52)" gradientUnits="userSpaceOnUse"/><linearGradient id="a" x2="0" y1="543.8" y2="502.66" gradientTransform="matrix(.66667 0 0 .63518 -256.38 -317.28)" gradientUnits="userSpaceOnUse"><stop offset="0" stop-color="#c6cdd1"/><stop offset="1" stop-color="#e0e5e7"/></linearGradient><linearGradient xlink:href="#a" id="e" x2="0" y1="543.8" y2="502.66" gradientTransform="matrix(.44445 0 0 .42345 -170.92 -211.52)" gradientUnits="userSpaceOnUse"/><linearGradient xlink:href="#b" id="f" x1="4" x2="4" y1="3" y2="45" gradientUnits="userSpaceOnUse"/><linearGradient id="g" x1="4" x2="4" y1="4" y2="45" gradientUnits="userSpaceOnUse"><stop offset="0" stop-color="#21c9fb"/><stop offset="1" stop-color="#1a86f2"/></linearGradient></defs><linearGradient id="b" x1="4" x2="4" y1="3" y2="45" gradientUnits="userSpaceOnUse"><stop offset="0" stop-color="#292c2f"/><stop offset="1" stop-opacity="0"/></linearGradient><g style="stroke-width:.666667" transform="matrix(1.5 0 0 1.5 -576.855 -773.7)"><path d="m32 9-1-1L1.123 27l2.432 3H28.8c1.774 0 3.2-1.426 3.2-3.2z" style="fill:url(#c);stroke-width:.666667" transform="translate(384.57 515.8)"/><path d="M3.2 2A3.19 3.19 0 0 0 0 5.2v21.6A3.19 3.19 0 0 0 3.2 30h.355l-2.432-3L31 8l1 1V5.2A3.19 3.19 0 0 0 28.8 2Z" style="fill:url(#e);stroke-width:.666667" transform="translate(384.57 515.8)"/><path d="M387.07 517.8a2.49 2.49 0 0 0-2.5 2.5v1.5h32v-1.5a2.49 2.49 0 0 0-2.5-2.5z" style="fill:#566069;stroke-width:.666667"/><path d="M384.57 521.8h32v1h-32z" style="fill:#3daee9;stroke-width:.666667"/><rect width="30" height="20" x="385.57" y="523.8" rx="1.333" ry="1.333" style="fill:#fff;stroke-width:.666667"/><rect width="2" height="2" x="413.57" y="518.8" rx=".667" ry=".667" style="fill:#eff0f1;stroke-width:.666667"/></g><path d="M21.15 18.05a6.9 6.94 0 0 0-6.65 5.14 6.9 6.94 0 0 0 .4 4.77l-.9.83 16 16h18v-6l-22.2-20.6-1 .9a6.9 6.94 0 0 0-1.8-.8 6.9 6.94 0 0 0-1.85-.24" style="opacity:.2;fill:url(#f)"/><path d="M21.25 16.79c-4.57 0-8.25 3.68-8.25 8.25s3.68 8.25 8.25 8.25c1.95 0 3.743-.68 5.15-1.8l7.3 7.3 1.3-1.3-7.3-7.3c1.12-1.4 1.8-3.2 1.8-5.15 0-4.57-3.68-8.25-8.25-8.25m0 1.8c3.55 0 6.417 2.86 6.4 6.4 0 3.55-2.86 6.4-6.42 6.4-3.55 0-6.4-2.86-6.4-6.4 0-3.55 2.86-6.4 6.4-6.4z" style="fill:url(#g)"/></svg>