<svg xmlns="http://www.w3.org/2000/svg" width="48" height="48"><defs><linearGradient id="a" x2="0" y1="545.8" y2="517.8" gradientUnits="userSpaceOnUse"><stop stop-color="#197cf1"/><stop offset="1" stop-color="#20bcfa"/></linearGradient><linearGradient id="b" x1="393.57" x2="407.57" y1="524.8" y2="538.8" gradientTransform="translate(-384.57 -515.8)" gradientUnits="userSpaceOnUse"><stop stop-color="#383e51"/><stop offset="1" stop-color="#655c6f" stop-opacity="0"/></linearGradient><linearGradient id="c" x2="0" y1="34" y2="14" gradientUnits="userSpaceOnUse"><stop stop-color="#7cbaf8"/><stop offset="1" stop-color="#f4fcff"/></linearGradient></defs><g transform="translate(-548.24 -735.71)scale(1.42857)"><rect width="28" height="28" x="386.57" y="517.8" fill="url(#a)" rx="14"/><path fill="url(#b)" fill-rule="evenodd" d="M16 9q.326 0 .635.063h.004c.205.038.401.098.592.17l-.23-.232zm-.044.3c-2.198.444-2.694 1.209-2.756 3.2-.605 4.836 4.627 1.7 2.8 3.5l-2.1.7C10.959 18.265 9.501 19.281 9 23l7 7h14V20l-1 1-9-9-.732-.73c.072.191.132.387.17.592v.004c.038.206.063.417.063.635-1.865 1.706-1.296 1.605-.431.022 0-1.385-1.727-3.222-3.113-3.222" opacity=".2" transform="translate(384.57 515.8)"/></g><path fill="url(#c)" d="M24 14a5 5 0 0 0-5 5 5 5 0 0 0 5 5 5 5 0 0 0 5-5 5 5 0 0 0-5-5m0 10a10 10 0 0 0-10 10h16v-1H15.06A9 9 0 0 1 24 25a9 9 0 0 1 6 2.305V26.01A10 10 0 0 0 24 24m0-9a4 4 0 0 1 4 4 4 4 0 0 1-4 4 4 4 0 0 1-4-4 4 4 0 0 1 4-4m9 9a1 1 0 0 0-1 1 1 1 0 0 0 1 1 1 1 0 0 0 1-1 1 1 0 0 0-1-1m-1 4v6h2v-6z" color="#4d4d4d"/></svg>