<svg xmlns="http://www.w3.org/2000/svg" xmlns:xlink="http://www.w3.org/1999/xlink" width="48" height="48"><defs><radialGradient xlink:href="#a" id="b" cx="0" cy="0" r="24" fx="0" fy="0" gradientTransform="matrix(-.0046 1.93561 -1.79785 -.00615 3 3)" gradientUnits="userSpaceOnUse"/><linearGradient id="a"><stop offset="0" style="stop-color:#ff8086;stop-opacity:.62405294"/><stop offset=".417" style="stop-color:#ffb682;stop-opacity:.67960149"/><stop offset=".595" style="stop-color:#fbff8b;stop-opacity:.59999996"/><stop offset=".757" style="stop-color:#7affa5;stop-opacity:.58443707"/><stop offset=".866" style="stop-color:#7bd9ff;stop-opacity:.65176088"/><stop offset="1" style="stop-color:#d594ff;stop-opacity:.61247098"/></linearGradient></defs><rect width="42" height="42" x="3" y="3" rx="21" ry="21" style="fill:url(#b);fill-rule:evenodd;stroke-width:2.05601;stroke-linecap:round;opacity:1"/><path d="M11.822 8.502v2.038l2.35.206c.436.039.437.27.38.62L10.77 34.582c-.077.472-.161.61-.582.645l-2.395.207v2.115h10.474v-2.115l-2.328-.181c-.35-.023-.492-.108-.403-.67l1.545-9.726h2.372l3.402 8.255c1.39 3.292 2.365 4.703 5.371 4.747.864.013 1.212.086 3.543 0 8.042-7.739 12.146-13.638 12.795-16.305.393-1.615-.23-2.606-1.567-2.606q-.978-.001-2.238.955l-.604 5.546c-1.646 2.48-3.84 5.18-6.513 7.998l1.768-10.655c.48-2.886.203-4.06-1.425-3.639l-4.797 1.24-.29 1.186 1.918.343c.953.213.834 1.043.208 5.024l-1.231 7.816c-.02.08-.032.169-.045.258-.798-.494-1.301-1.374-1.88-2.708l-4.812-11.094 8.622-10.069c.144-.168.235-.22.378-.236l2.795-.297V8.5h-9.4v2.116l2.328.206c.47.042.646.195.224.697L18.58 22.716h-1.119l1.858-11.351c.045-.413.195-.595.492-.62l2.484-.206V8.501Z" style="line-height:125%;letter-spacing:0;word-spacing:0;fill:#fff;stroke-width:.860946"/></svg>