<svg xmlns="http://www.w3.org/2000/svg" xmlns:xlink="http://www.w3.org/1999/xlink" width="48" height="48"><defs><linearGradient id="a" x1="32.988" x2="39.562" y1="33.02" y2="41.591" gradientTransform="matrix(1.01162 0 0 1.0097 384.29 499.57)" gradientUnits="userSpaceOnUse"><stop/><stop offset="1" stop-opacity="0"/></linearGradient><linearGradient id="b" x1="617.03" x2="597.96" y1="271.69" y2="238.67" gradientTransform="matrix(1.01111 0 0 1.0102 -6.636 -2.024)" gradientUnits="userSpaceOnUse"><stop stop-color="#2f74c8"/><stop offset="1" stop-color="#4699d7"/></linearGradient><linearGradient id="c" x1="391.28" x2="411.28" y1="535.75" y2="501.11" gradientTransform="matrix(1.01111 0 0 1.0102 -321.72 128.72)" gradientUnits="userSpaceOnUse"><stop stop-color="#e3dfd6"/><stop offset="1" stop-color="#f4f1e8"/></linearGradient><linearGradient id="e" x1="77.987" x2="88.999" y1="669.44" y2="650.39" gradientUnits="userSpaceOnUse"><stop stop-color="#d35400"/><stop offset="1" stop-color="#d35400"/></linearGradient><linearGradient id="g" x1="427.75" x2="438.95" y1="548.93" y2="529.54" gradientTransform="matrix(.87609 -.50484 .50581 .87442 -251.31 277.05)" gradientUnits="userSpaceOnUse"><stop stop-color="#f5955f"/><stop offset="1" stop-color="#facebe"/></linearGradient><linearGradient xlink:href="#a" id="d" x1="398.57" x2="419.25" gradientTransform="translate(-384.57 -499.8)" gradientUnits="userSpaceOnUse"/></defs><g transform="translate(-384.57 -499.8)"><g stroke-linejoin="round" stroke-width="3" color="#000"><rect width="40.445" height="24.24" x="595.72" y="237.72" fill="url(#b)" rx="1.616" transform="rotate(29.952)skewX(-.094)"/><path fill="#34495e" d="M385.66 523.09a1.61 1.61 0 0 0 .727 1.906l32.24 18.58a1.617 1.617 0 0 0 2.211-.592l10.521-18.19c.238-.412.269-.883.135-1.301a1.6 1.6 0 0 1-.135.301l-10.521 18.19a1.617 1.617 0 0 1-2.211.592l-32.24-18.58a1.6 1.6 0 0 1-.727-.906"/><path fill="#31363b" d="m388.834 517.529-2.186 3.779 35.03 20.223 2.188-3.777z"/><path fill="url(#a)" d="m423.63 518.49-22.534 14.995 17.524 10.1a1.617 1.617 0 0 0 2.211-.592l10.519-18.19a1.61 1.61 0 0 0-.591-2.207z" opacity=".2"/><rect width="40.445" height="24.24" x="71.17" y="645.71" fill="url(#c)" rx="1.616" transform="rotate(-29.952)skewX(.094)"/><path fill="#d9d3cc" d="M431.49 523.09a1.6 1.6 0 0 1-.727.906l-32.24 18.58a1.617 1.617 0 0 1-2.211-.592l-10.521-18.19a1.6 1.6 0 0 1-.135-.301c-.134.418-.104.889.135 1.301l10.521 18.19a1.617 1.617 0 0 0 2.211.592l32.24-18.58a1.61 1.61 0 0 0 .727-1.906"/></g><path fill="url(#d)" fill-rule="evenodd" d="M16.438 19 14 39l3.02 3.02 16.801-9.682z" opacity=".1" transform="translate(384.57 499.8)"/><rect width="12.134" height="16.16" x="75.21" y="649.75" fill="url(#e)" color="#000" rx="0" transform="rotate(-29.952)skewX(.095)"/><path fill="url(#g)" d="M396.27 522.73a3.02 3.02 0 0 0-1.111 4.138 3.03 3.03 0 0 0 4.146 1.109 3.02 3.02 0 0 0 1.111-4.138 3.03 3.03 0 0 0-4.146-1.109m4.046 6.995c-2.427 1.398-3.929 3.304-3.369 4.273l2.023 3.498 8.761-5.05-2.023-3.498c-.56-.969-2.965-.623-5.392.775"/><g stroke-linecap="round" stroke-linejoin="round" stroke-width="3" color="#000"><g fill="#4d4d4d"><path d="m402.777 517.81 7.008-4.04 1.012 1.75-7.009 4.038zM410.661 513.266l1.752-1.01 1.012 1.749-1.752 1.01z"/></g><g fill="#7f8c8d"><path d="m404.8 521.307 6.132-3.534.506.874-6.133 3.534zM411.809 517.267l1.752-1.01.506.875-1.752 1.01zM414.434 515.755l6.133-3.534.506.874-6.133 3.534zM406.317 523.93l15.77-9.088.505.874-15.77 9.088z"/></g><g fill="#d9d3cc"><path d="m421.105 521.236 3.505-2.02 2.023 3.497-3.505 2.02zM416.688 523.804l3.505-2.02 2.023 3.498-3.505 2.02z"/></g></g></g></svg>