<svg xmlns="http://www.w3.org/2000/svg" xmlns:xlink="http://www.w3.org/1999/xlink" width="128" height="128" version="1.0"><defs><linearGradient id="d"><stop offset="0" style="stop-color:#000;stop-opacity:.95255476"/><stop offset="1" style="stop-color:#191919;stop-opacity:.73357666"/></linearGradient><linearGradient id="c"><stop offset="0" style="stop-color:#000;stop-opacity:1"/><stop offset="1" style="stop-color:#000;stop-opacity:0"/></linearGradient><linearGradient xlink:href="#c" id="e" x1=".486" x2="27.638" y1="17.332" y2="17.332" gradientUnits="userSpaceOnUse"/><linearGradient xlink:href="#d" id="f" x1=".486" x2="27.638" y1="17.332" y2="17.332" gradientUnits="userSpaceOnUse"/><filter id="h"><feGaussianBlur stdDeviation=".431"/></filter><filter id="g"><feGaussianBlur stdDeviation=".271"/></filter><filter id="i"><feGaussianBlur stdDeviation=".159"/></filter></defs><text xml:space="preserve" x=".206" y="27.124" style="font-style:italic;font-variant:normal;font-weight:400;font-stretch:normal;line-height:0%;font-family:Utopia;-inkscape-font-specification:&quot;Utopia Italic&quot;;text-align:start;writing-mode:lr-tb;text-anchor:start;fill:url(#e);fill-opacity:1;stroke:url(#f);stroke-width:2;stroke-linecap:round;stroke-linejoin:round;stroke-miterlimit:4;stroke-dasharray:none;stroke-opacity:1;filter:url(#g)" transform="matrix(3.99397 0 0 3.99397 .708 1.887)"><tspan x=".206" y="27.124" style="font-size:32px;line-height:1;fill:url(#e);fill-opacity:1;stroke:url(#f)">K</tspan></text><text xml:space="preserve" x="-.343" y="25.888" style="font-style:italic;font-variant:normal;font-weight:400;font-stretch:normal;line-height:0%;font-family:Utopia;-inkscape-font-specification:&quot;Utopia Italic&quot;;text-align:start;writing-mode:lr-tb;text-anchor:start;fill:#555;fill-opacity:1;stroke:#555;stroke-width:1.70000005;stroke-linecap:round;stroke-linejoin:round;stroke-miterlimit:4;stroke-dasharray:none;stroke-opacity:1" transform="matrix(3.99397 0 0 3.99397 .708 1.887)"><tspan x="-.343" y="25.888" style="font-size:32px;line-height:1;fill:#555;fill-opacity:1;stroke:#555;stroke-width:1.70000005;stroke-miterlimit:4;stroke-dasharray:none;stroke-opacity:1">K</tspan></text><path d="M5.494 15.45c.892 1.1 1.657 2.334 2.884 2.13 1.236-.207 3.227-3.64 4.395-3.571s2.121 7.62 4.051 7.622c1.562.002 4.12-12.498 5.219-11.605s2.241 14.347 3.708 14.283c1.58-.069 2.054-15.382 3.159-15.313 1.099.068 1.648 8.927 1.717 8.995.068.07 0 .138 0 .138" style="opacity:.85;fill:none;fill-opacity:1;fill-rule:evenodd;stroke:#badcac;stroke-width:1.79110217;stroke-linecap:round;stroke-linejoin:round;stroke-miterlimit:4;stroke-dasharray:none;stroke-opacity:1;filter:url(#h)" transform="matrix(3.93885 0 0 5.04962 3.898 -14.32)"/><path d="M5.494 15.45c.892 1.1 1.657 2.334 2.884 2.13 1.236-.207 3.227-3.64 4.395-3.571s2.121 7.62 4.051 7.622c1.562.002 4.12-12.498 5.219-11.605s2.241 14.347 3.708 14.283c1.58-.069 2.054-15.382 3.159-15.313 1.099.068 1.648 8.927 1.717 8.995.068.07 0 .138 0 .138" style="fill:none;fill-opacity:1;fill-rule:evenodd;stroke:#0f9205;stroke-width:1.44183719;stroke-linecap:round;stroke-linejoin:round;stroke-miterlimit:4;stroke-dasharray:none;stroke-opacity:.59217876;filter:url(#i)" transform="matrix(3.93885 0 0 5.04962 1.704 -21.726)"/></svg>