<svg xmlns="http://www.w3.org/2000/svg" xmlns:xlink="http://www.w3.org/1999/xlink" width="48" height="48"><defs><linearGradient id="e"><stop offset="0" style="stop-color:#383e51;stop-opacity:1"/><stop offset="1" style="stop-color:#000;stop-opacity:0"/></linearGradient><linearGradient id="a" x2="0" y1="543.8" y2="502.66" gradientTransform="matrix(.66667 0 0 .63518 140.19 194.52)" gradientUnits="userSpaceOnUse"><stop stop-color="#c6cdd1"/><stop offset="1" stop-color="#e0e5e7"/></linearGradient><linearGradient id="c" x1="391.57" x2="406.57" y1="525.8" y2="540.8" gradientTransform="translate(12 -4)" gradientUnits="userSpaceOnUse"><stop/><stop offset="1" stop-opacity="0"/></linearGradient><linearGradient xlink:href="#a" id="g" x2="0" y1="543.8" y2="502.66" gradientTransform="matrix(.66667 0 0 .63518 -252.38 -313.28)" gradientUnits="userSpaceOnUse"/><linearGradient xlink:href="#c" id="h" x1="391.57" x2="406.57" y1="525.8" y2="540.8" gradientTransform="translate(-380.57 -511.8)" gradientUnits="userSpaceOnUse"/><linearGradient id="d" x2="0" y1="537.8" y2="521.8" gradientTransform="translate(-366.371 -499.8)" gradientUnits="userSpaceOnUse"><stop stop-color="#21c9fb"/><stop offset="1" stop-color="#1a86f2"/></linearGradient><linearGradient xlink:href="#d" id="l" x1="19.025" x2="29.946" y1="15.232" y2="31.765" gradientTransform="translate(5 6)" gradientUnits="userSpaceOnUse"/><linearGradient xlink:href="#a" id="i" x2="0" y1="543.8" y2="502.66" gradientTransform="matrix(.66667 0 0 .63518 -244.38 -305.28)" gradientUnits="userSpaceOnUse"/><linearGradient xlink:href="#c" id="j" x1="391.57" x2="406.57" y1="525.8" y2="540.8" gradientTransform="translate(-372.57 -503.8)" gradientUnits="userSpaceOnUse"/><linearGradient xlink:href="#e" id="k" x1="21.897" x2="39.189" y1="23.123" y2="40.416" gradientUnits="userSpaceOnUse"/></defs><rect width="32" height="28" x="4" y="6" rx="0" style="fill:url(#g)"/><path d="m5 32 30-20 1 1v21H7z" style="opacity:.2;fill:url(#h);fill-rule:evenodd"/><path d="M4 6h32v4H4z" style="fill:#566069"/><path d="M4 10h32v1H4z" style="fill:#3daee9"/><path d="M5 12h30v20H5z" style="fill:#fff"/><rect width="2" height="2" x="33" y="7" rx="1" style="fill:#eff0f1"/><rect width="32" height="28" x="12" y="14" rx="0" style="fill:url(#i)"/><path d="m13 40 30-20 1 1v21H15z" style="opacity:.2;fill:url(#j);fill-rule:evenodd"/><path d="M12 14h32v4H12z" style="fill:#566069"/><path d="M12 18h32v1H12z" style="fill:#3daee9"/><path d="M13 20h30v20H13z" style="fill:#fff"/><rect width="2" height="2" x="41" y="15" rx="1" style="fill:#eff0f1"/><path d="m34.408 22.453-2.832 5.201 1.082 4.076-.867.858-.539 1.129-1.371 1.103-2.713.207-2.37-.39-3.183.574L28.405 42H44V30.018l-7.55-7.551z" style="opacity:.2;fill:url(#k);fill-opacity:1;stroke:none;stroke-width:2;stroke-linecap:round;stroke-linejoin:round;stroke-miterlimit:4;stroke-dasharray:none;stroke-opacity:1"/><path d="M29.832 21.678 27 21.943v10.94l2.8-.383v-4.676L33.538 33l2.926-.883-3.828-4.969 3.86-4.707-2.99-.646-3.704 4.705zm-6.875 2.998a.2.2 0 0 0-.094.031l-1.09 1.059c-.046.046-.065.122-.03.175l1.277 2c-.23.364-.399.763-.53 1.176l-2.365.47c-.066.018-.125.056-.125.12v1.469c0 .062.062.131.125.146l2.303.532c.122.479.309.934.56 1.351l-1.338 1.912c-.037.054-.017.13.032.176l1.088 1.03c.046.041.13.065.187.03l2.086-1.207c.41.224.84.41 1.307.53l.498 2.207c.014.064.057.117.125.117h1.556c.066 0 .14-.056.157-.117l.558-2.207a5.8 5.8 0 0 0 1.371-.559l2.055 1.295c.056.034.137.016.185-.031l1.09-1.03c.047-.045.066-.122.032-.175L33.23 34l-.25.088c-.035.017-.072 0-.093-.03 0 0-.471-.673-1.09-1.529-.74 1.368-2.247 2.293-3.985 2.293-2.468 0-4.482-1.872-4.482-4.205 0-1.716 1.091-3.192 2.647-3.853v-1.088c-.283.094-.55.19-.809.324h-.031l-2.086-1.295a.16.16 0 0 0-.094-.027z" style="color:#4d4d4d;fill:url(#l);fill-opacity:1;stroke:none"/></svg>