<svg xmlns="http://www.w3.org/2000/svg" xmlns:xlink="http://www.w3.org/1999/xlink" width="34.156" height="34.152" viewBox="0 0 32.021 32.018"><defs><linearGradient id="a"><stop offset="0" style="stop-color:#313031;stop-opacity:1"/><stop offset="1" style="stop-color:#8d8d8d;stop-opacity:1"/></linearGradient><linearGradient xlink:href="#a" id="b" x1="11" x2="10.344" y1="13" y2="10.969" gradientUnits="userSpaceOnUse"/></defs><path d="M584 873.506h31.999v31.999H584z" style="fill:#fff;fill-opacity:1;stroke:none;stroke-width:.58464569;stroke-linecap:round;stroke-linejoin:round;stroke-opacity:1" transform="translate(-584 -873.487)"/><path d="M592.919 881.76c-1.022-2.846-1.92-4.752-2.645-7.043 1.17-.416 2.193-.703 3.615-1.223 3.678.008 2.235.044 4.465-.007 1 1.678 1.865 4.786 2.531 6.513-1.443.277-.83.18-2.718.594-4.583 1.006-5.248 1.166-5.248 1.166z" style="fill:#cdc6cd;fill-opacity:1;fill-rule:evenodd;stroke:none;stroke-width:.9375px;stroke-linecap:butt;stroke-linejoin:miter;stroke-opacity:1" transform="translate(-584 -873.487)"/><path d="M32.832 16.207c-2.095.114-5.211.892-8.082 2.016v.97c.684 1.935 1.414 3.368 2.363 6.014 0 0 .662-.05 5.551-1.123a14 14 0 0 1 1.463-.242l.022-5.186a33 33 0 0 0-1.317-2.449" style="fill:#cdc6cd;fill-opacity:1;fill-rule:evenodd;stroke:none;stroke-width:1px;stroke-linecap:butt;stroke-linejoin:miter;stroke-opacity:1" transform="translate(0 .018)scale(.9375)"/><path d="M606.586 888.612c-1.022-2.846-1.277-3.217-2.002-5.508 2.767-1.114 4.744-2.086 6.777-2.196 1 1.677 1.88 4.668 2.897 6.293-1.443.277-2.398.413-4.286.828-4.583 1.006-3.386.583-3.386.583M598.382 898.995c-1.022-2.846-1.775-4.154-2.5-6.446 2.767-.6 6.443-1.5 8.476-1.61.575 1.692 1.381 4.814 2.399 6.44-1.443.277-2.297.448-4.198.798-3.397.626-4.177.818-4.177.818M595.4 890.998c-1.02-2.845-1.642-4.403-2.367-6.694 2.767-1.114 6.795-1.69 8.827-1.8 1 1.677 1.529 5.092 2.546 6.717-1.443.277-1.782.062-3.67.476-4.584 1.007-5.335 1.301-5.335 1.301" style="fill:#cdc6cd;fill-opacity:1;fill-rule:evenodd;stroke:none;stroke-width:.9375px;stroke-linecap:butt;stroke-linejoin:miter;stroke-opacity:1" transform="translate(-584 -873.487)"/><path d="M1.635 32.252a16 16 0 0 0-1.623.187L0 34.133h2.627a28 28 0 0 0-.992-1.881M13.662 30.658c-2.168.118-5.746-.065-8.697 1.123.26.822.481 1.58.71 2.352h9.3c-.4-1.313-.802-2.618-1.313-3.475M25.064 28.063c-2.167.117-5.912.1-8.863 1.287.482 1.524 1.305 3.258 1.727 4.783l9.386-.004c-.761-1.969-1.42-4.675-2.25-6.067M34.156 26.61c-1.859.12-3.998.368-6.013 1.18.645 2.04 1.349 4.013 2.185 6.343h3.828z" style="fill:#cdc6cd;fill-opacity:1;fill-rule:evenodd;stroke:none;stroke-width:1px;stroke-linecap:butt;stroke-linejoin:miter;stroke-opacity:1" transform="translate(0 .018)scale(.9375)"/><path d="M587.46 901.291c-1.022-2.845-1.775-4.154-2.5-6.445 2.766-1.114 6.516-1.75 8.549-1.86 1 1.678 1.806 5.152 2.824 6.777-1.443.277-1.783.062-3.67.476-4.584 1.007-5.204 1.052-5.204 1.052" style="fill:#cdc6cd;fill-opacity:1;fill-rule:evenodd;stroke:none;stroke-width:.9375px;stroke-linecap:butt;stroke-linejoin:miter;stroke-opacity:1" transform="translate(-584 -873.487)"/><path d="M6.281 11.611c-1.656.09-3.952.592-6.26 1.352v6.23c.176.448.35.883.541 1.418 0 0 .66-.049 5.55-1.123 2.013-.442 1.6-.296 3.139-.592-.831-1.8-1.903-5.495-2.97-7.285" style="fill:#cdc6cd;fill-opacity:1;fill-rule:evenodd;stroke:none;stroke-width:1px;stroke-linecap:butt;stroke-linejoin:miter;stroke-opacity:1" transform="translate(0 .018)scale(.9375)"/><path d="M607.732 887.366c-.836-2.019-1.523-3.985-1.523-3.985s1.406-.886 4.336-1.355c.655 1.134 1.332 2.86 2.307 4.38-2.081.36-3.186.609-4.805 1.113zM596.379 889.085c-.837-2.018-1.319-4.614-1.319-4.614s1.465-.652 4.395-1.121c.655 1.134 1.332 3.093 2.307 4.614-2.081.36-2.878.345-4.497.85zM610.487 895.3c-.836-2.019-1.524-3.985-1.524-3.985s1.465-.652 4.395-1.12c.655 1.133 1.273 2.624 2.248 4.145-2.08.36-3.185.609-4.804 1.113zM597.977 893.52s1.464-.651 4.394-1.12c.656 1.134 1.273 2.625 2.249 4.146-2.082.36-3.933 1.107-5.552 1.61-1.314-1.216-1.448-2.948-1.091-4.635M588.733 899.635c-.836-2.018-1.596-4.18-1.596-4.18s2.036-.418 4.966-.887c.655 1.134.702 2.39 1.677 3.911-2.081.36-2.875.454-4.494.958z" style="fill:#838183;fill-opacity:1;fill-rule:evenodd;stroke:none;stroke-width:.9375px;stroke-linecap:butt;stroke-linejoin:miter;stroke-opacity:1" transform="translate(-584 -873.487)"/><path d="M29.5 5c.894-.235 2.088-.163 2.305-.155-.667.653-1.16.912-1.837 1.216-7.934 3.258-19.764 7.019-26.678 9.91-.753.112-1.216-.185-1.542-.525-.554-.738-.502-.697-.804-1.946-.13-1.53.927-2.154 1.681-2.375" style="fill:url(#b);fill-opacity:1" transform="translate(0 .018)"/><path d="m26.281 9.281-.093.156.046-.078z" style="fill:#cdc6cd;fill-opacity:1" transform="translate(0 .018)"/><path d="M24 10.5q.25-.25.625-.375A2.8 2.8 0 0 1 25.5 10h.5l.375.125q.375.125.625.375l.5.5q.25.25.375.625L28 12l-.125.375a.75.75 0 0 1-.5.5l-.75.25c-1.305.545-2.3 1.037-2.93 1.68.457.209 1.647.866 1.93 1.07 1.641 1.286 1.86 1.186 3.75 2.25q.375.125.5.5T30 19.5v1q0 .5-.5.5h-3a2.8 2.8 0 0 1-.875-.125c-.25-.083-.622-.25-.705-.5-4.132-3.326-7.268-5.01-11.295-6.5a.75.75 0 0 1-.5-.5q-.125-.375 0-.75c.083-.25.208-.44.456-.53l.772-.279c1.187-.437 1.728-.606 2.832-1.013.3.252.648.53.815.697q.25.25.625.375l.75.25c.25.083 1.333.689 1.543.793.144-.115.32-.098.621-.355.302-.258 1.294-.896 1.461-1.063l.5-.5zM4 12.5q.25-.25.625-.375t.75 0 .5.5L7 14.5c.604 1.444.694 1.656.906 2.594L8 18.5v1c0 1.667-.469 1.898-.469 3.564q0 .5-.125.875t-.375.625l-.5.5a1.6 1.6 0 0 1-.625.375q-.375.126-.375-.375v-2c0-1.666.469-1.897.469-3.564v-1a2.8 2.8 0 0 0-.125-.875c-.652-1.52-1.104-2.26-1.578-3.154l-.672-.596c-.197-.175-.375-.208-.375-.375q0-.25.25-.5z" style="fill:red;fill-opacity:1" transform="translate(0 .018)"/><path d="M20.918 12.918c.172-.135.276-.128.506-.26 1.147.264 2.803 1.655 2.272 2.147" style="fill:#c50000;fill-opacity:1" transform="translate(0 .018)"/><path d="m1.295 14.775.453.671.44.312c.273.193.592.243 1.17.185l-.255 1.053L3 17.5c-.916 3.059-1.26 4.954-1.565 7.575C1.135 27.127 1 29.5 1 31.5v.5H0V19l.33-.862" style="fill:red;fill-opacity:1" transform="translate(0 .018)"/><path d="M18.047 15.8c1.094.5 1.828.916 2.544 1.374-.225.474-.34.337-.591.826-2.634-1.481-2.027-1.025-2.556-1.505" style="fill:#c50000;fill-opacity:1" transform="translate(0 .018)"/><path d="M30 16.5V16h1v1h-1z" style="fill:#cdc6cd;fill-opacity:1" transform="translate(0 .018)"/><path d="M17.444 16.495c1.65 1.049 1.379.829 2.556 1.505-.167.167-.792 1.375-.875 1.625L19 20l.125.375q.124.375.375.625.25.25.375.625.124.375 0 .75a.75.75 0 0 1-.5.5c-.68.516-1.406.644-2 1-.596.203-1.248.125-1.875.125-.802-.244-1.542-.454-1.5-1.5.3-1.375 1.183-3.057 1.831-4.185" style="fill:red;fill-opacity:1" transform="translate(0 .018)"/><path d="M594.08 879.75c-.835-2.018-1.523-3.985-1.523-3.985s1.465-.651 4.395-1.12c.655 1.134.95 2.595 1.662 4.175-2.08.36-2.6.58-4.218 1.084z" style="fill:#838183;fill-opacity:1;fill-rule:evenodd;stroke:none;stroke-width:.9375px;stroke-linecap:butt;stroke-linejoin:miter;stroke-opacity:1" transform="translate(-584 -873.487)"/><path d="M4.252 1.719c-2.026.422-1.694.183-4.236.767v8.368c.584-.133.467-.113 3.691-.82 2.014-.443 2.267-.307 3.807-.602-1.086-1.734-2.32-5.839-3.262-7.713" style="fill:#cdc6cd;fill-opacity:1;fill-rule:evenodd;stroke:none;stroke-width:1px;stroke-linecap:butt;stroke-linejoin:miter;stroke-opacity:1" transform="translate(0 .018)scale(.9375)"/><path d="M2.412 3.69c-.966.154-1.73.322-2.396.488v4.851l.28-.074c1.728-.538 2.295-.46 4.515-.844C3.77 6.49 3.11 4.9 2.412 3.69" style="fill:#838183;fill-opacity:1;fill-rule:evenodd;stroke:none;stroke-width:1px;stroke-linecap:butt;stroke-linejoin:miter;stroke-opacity:1" transform="translate(0 .018)scale(.9375)"/><path d="M27.742-.008c.645 1.124 1.364 2.38 2.008 4.156 0 0 .614.076 4.39-.714V-.008zM17.592-.008c1.006 2 1.985 3.749 2.588 6.455 0 0 1.834-.356 4.566-1.18 1.974-.595 1.84-.332 3.379-.628-.774-1.236-1.687-3.053-2.535-4.647ZM34.125 6.164c-.903.169-1.798.398-2.629.732.657 2.077 1.67 4.057 2.629 6.458z" style="fill:#cdc6cd;fill-opacity:1;fill-rule:evenodd;stroke:none;stroke-width:1px;stroke-linecap:butt;stroke-linejoin:miter;stroke-opacity:1" transform="translate(0 .018)scale(.9375)"/><path d="M19.736-.008c-.283.102-.472.176-.472.176s.733 2.097 1.625 4.25l.336.164c1.727-.538 2.905-.803 5.125-1.187-.783-1.22-1.337-2.367-1.868-3.403zM29.871-.008c.27.713.561 1.486.918 2.348l.336.164a32 32 0 0 1 3.016-.775V-.008zM34.156 28.006c-2.478.356-3.851.406-3.851.406s.827 2.754 1.718 4.906l.336.164a32 32 0 0 1 1.797-.492zM23.96 29.748c-3.124.058-5.661.654-5.661.654s.862 1.951 1.57 3.73h5.033c.275-.05.459-.096.77-.15-1.04-1.622-1.012-3.024-1.711-4.234M12.44 31.936c-3.126.5-5.126.976-5.126.976s.059.444.229 1.207l5.613-.008c-.206-.843-.326-1.5-.717-2.175" style="fill:#838183;fill-opacity:1;fill-rule:evenodd;stroke:none;stroke-width:1px;stroke-linecap:butt;stroke-linejoin:miter;stroke-opacity:1" transform="translate(0 .018)scale(.9375)"/></svg>