<svg xmlns="http://www.w3.org/2000/svg" width="48" height="48"><defs><linearGradient id="a" x1="434.57" x2="384.57" y1="543.8" y2="503.8" gradientUnits="userSpaceOnUse"><stop stop-color="#343b40"/><stop offset="1" stop-color="#555e63"/></linearGradient><linearGradient id="b" x2="0" y1="44" y2="4" gradientTransform="translate(384.57 499.8)" gradientUnits="userSpaceOnUse"><stop stop-color="#bd8d48"/><stop offset="1" stop-color="#e8b971"/></linearGradient><linearGradient id="c" x1="17" x2="40" y1="17" y2="40" gradientUnits="userSpaceOnUse"><stop stop-color="#383e51"/><stop offset="1" stop-color="#655c6f" stop-opacity="0"/></linearGradient></defs><g stroke-opacity=".55" stroke-width="2.8"><path fill="url(#a)" d="M384.57 503.8h48v40h-48z" transform="translate(-384.57 -499.8)"/><path fill="url(#b)" d="M384.57 503.8v40h48v-40h-46zm2 2h44v36h-44z" transform="translate(-384.57 -499.8)"/></g><path fill="url(#c)" fill-rule="evenodd" d="M6 25v16H5v3h43V28l-3-3h-3.805c-9.208 2.61-9.571 14.545-14.684 14.508-5.11-.038-7.87-11.905-17.594-14.508z" opacity=".2"/><g fill="#aa7f41"><path d="M0 43h48v1H0z"/><path fill-opacity=".498" d="M2 6v36h44V6H3zm1 1h42v34H3z" color="#000"/></g><g fill="none" stroke-width=".984"><path stroke="#787e82" d="M5 24.49c13.01 0 15.772 14.973 21.511 15.02 5.739.042 5.484-15.02 18.489-15.02"/><path stroke="#5090c3" d="M5 23.51c13.01 0 15.772-10.274 21.511-10.316S31.995 23.51 45 23.51"/></g><path fill="#d6d6d6" d="M5 7h1v34H5z" color="#000"/><path fill="none" stroke="#d6d6d6" stroke-width=".984" d="M5 23.51c13.01 0 15.772-14.973 21.511-15.02C32.25 8.448 31.995 23.51 45 23.51"/><g color="#000"><path fill="#007ad9" d="M35 40h4v1h-4z"/><path fill="#fff" d="M40 40h4v1h-4z"/><g fill="#d6d6d6"><path d="M6 24h39v1H6z"/><path d="M12 23h1v3h-1zM26 23h1v3h-1zM40 23h1v3h-1z"/></g></g></svg>