<svg xmlns="http://www.w3.org/2000/svg" xmlns:xlink="http://www.w3.org/1999/xlink" width="48" height="48"><defs><linearGradient xlink:href="#a" id="b" x1="4" x2="44" y1="44" y2="4" gradientTransform="matrix(1.05 0 0 1.05 -1.2 -1.2)" gradientUnits="userSpaceOnUse"/><linearGradient id="a" x2="0" y1="543.8" y2="509.8" gradientTransform="matrix(-1 0 0 1 817.14 0)" gradientUnits="userSpaceOnUse"><stop stop-color="#c61423"/><stop offset="1" stop-color="#dc2b41"/></linearGradient></defs><rect width="42" height="42" x="3" y="3" rx="21" ry="21" style="fill:url(#b);fill-opacity:1;stroke:none;stroke-width:1.05"/><path fill="#fff" d="m26.955 28.634-.32-.74-2.752-6.547a6.15 6.15 0 0 0-5.728-3.883c-3.456 0-6.258 2.926-6.258 6.538 0 3.608 2.802 6.537 6.258 6.537 2.412 0 4.505-1.425 5.55-3.51l1.114 2.68C23.24 31.718 20.839 33 18.155 33c-4.76 0-8.617-4.026-8.617-8.998S13.395 15 18.155 15c3.591 0 6.492 2.002 7.966 5.553.11.276 1.558 3.807 2.82 6.812.78 1.86 1.447 3.095 3.61 3.17 2.12.076 3.58-1.27 3.58-2.979 0-1.666-1.115-2.067-2.99-2.719-3.37-1.159-5.112-2.324-5.112-5.116 0-2.723 1.774-4.54 4.658-4.54 1.876 0 3.235.873 4.176 2.613l-1.847.984c-.693-1.014-1.458-1.415-2.433-1.415-1.353 0-2.316.982-2.316 2.29 0 1.857 1.59 2.137 3.811 2.896 2.994 1.017 4.384 2.181 4.384 5.083 0 3.049-2.504 5.27-5.775 5.265-3.013-.014-4.62-1.552-5.732-4.263" style="stroke-width:.328505"/></svg>