<svg xmlns="http://www.w3.org/2000/svg" xmlns:xlink="http://www.w3.org/1999/xlink" width="48" height="48"><defs><linearGradient id="c"><stop offset="0" style="stop-color:#000;stop-opacity:1"/><stop offset="1" style="stop-color:#000;stop-opacity:0"/></linearGradient><linearGradient id="b"><stop offset="0" style="stop-color:#fcfcfc;stop-opacity:1"/><stop offset="1" style="stop-color:#f58273;stop-opacity:1"/></linearGradient><linearGradient id="a"><stop offset="0" style="stop-color:#c61423;stop-opacity:1"/><stop offset="1" style="stop-color:#f58273;stop-opacity:1"/></linearGradient><linearGradient xlink:href="#a" id="d" x1="32.249" x2="16.546" y1="42.037" y2="4.902" gradientUnits="userSpaceOnUse"/><linearGradient xlink:href="#b" id="g" x1="15.316" x2="29.427" y1="13.523" y2="37.964" gradientUnits="userSpaceOnUse"/><linearGradient xlink:href="#c" id="f" x1="12.237" x2="17.74" y1="25.116" y2="28.293" gradientUnits="userSpaceOnUse"/><linearGradient xlink:href="#c" id="e" x1="23.905" x2="35.876" y1="21.095" y2="33.065" gradientUnits="userSpaceOnUse"/></defs><rect width="40" height="40" x="4" y="4" rx="20" style="fill:url(#d);fill-opacity:1"/><path d="M4.012 23.5c-.004.166-.012.332-.012.5 0 11.08 8.92 20 20 20s20-8.92 20-20c0-.168-.008-.334-.012-.5A19.95 19.95 0 0 1 24 43 19.95 19.95 0 0 1 4.012 23.5" style="fill:#2c2e31;fill-opacity:.235294"/><path d="m32.541 15.021-5.021 1.46-6.172 9.324-.891 9.968 7.773 7.774A19.94 19.94 0 0 0 43.86 26.34z" style="opacity:.2;fill:url(#e);fill-opacity:1;stroke:none;stroke-width:1;stroke-linecap:butt;stroke-linejoin:bevel;stroke-miterlimit:4;stroke-dasharray:none;stroke-opacity:1"/><path d="m25.848 23.45-2.186 3.386-2.284 2.7-2.88 3.927-6.476-6.476z" style="opacity:.2;fill:url(#f);fill-opacity:1;stroke:none;stroke-width:1;stroke-linecap:butt;stroke-linejoin:bevel;stroke-miterlimit:4;stroke-dasharray:none;stroke-opacity:1"/><path d="m20.598 12.107-5.196 3L18.805 21H12v6h6.805l-3.403 5.893 5.196 3L24 30l3.402 5.893 5.196-3L29.195 27H36v-6h-6.805l3.403-5.893-5.196-3L24 18z" style="opacity:1;fill:url(#g);fill-opacity:1;stroke:none;stroke-width:1;stroke-linecap:butt;stroke-linejoin:bevel;stroke-miterlimit:4;stroke-dasharray:none;stroke-opacity:1"/></svg>