<svg xmlns="http://www.w3.org/2000/svg" xmlns:xlink="http://www.w3.org/1999/xlink" width="48" height="48"><defs><linearGradient id="a" x2="0" y1="538.8" y2="505.8" gradientTransform="matrix(1.45455 0 0 1 -198.81 -31)" gradientUnits="userSpaceOnUse"><stop offset="0" stop-color="#e8b971"/><stop offset="1" stop-color="#bd8d48"/></linearGradient><linearGradient id="c"><stop offset="0" style="stop-color:#f3e0c1;stop-opacity:1"/><stop offset="1" style="stop-color:#fff7eb;stop-opacity:1"/></linearGradient><linearGradient xlink:href="#a" id="d" x1="24.804" x2="24.804" y1="1008.362" y2="1048.362" gradientUnits="userSpaceOnUse"/><linearGradient xlink:href="#b" id="h" x1="22.385" x2="39.824" y1="18.387" y2="35.825" gradientTransform="translate(0 1004.362)" gradientUnits="userSpaceOnUse"/><linearGradient xlink:href="#b" id="g" x1="16.625" x2="24.901" y1="35.57" y2="43.846" gradientTransform="translate(0 1004.362)" gradientUnits="userSpaceOnUse"/><linearGradient xlink:href="#b" id="f" x1="22.682" x2="28.685" y1="37.629" y2="43.632" gradientTransform="translate(0 1004.362)" gradientUnits="userSpaceOnUse"/><linearGradient xlink:href="#b" id="e" x1="28.656" x2="34.209" y1="35.532" y2="41.085" gradientTransform="translate(0 1004.362)" gradientUnits="userSpaceOnUse"/><linearGradient xlink:href="#c" id="i" x1="20.161" x2="20.161" y1="31.694" y2="10.212" gradientTransform="translate(0 1004.362)" gradientUnits="userSpaceOnUse"/><linearGradient id="b" x2="0" y1="531.79" y2="544.79" gradientTransform="rotate(-45 407.37 555.439)" gradientUnits="userSpaceOnUse"><stop/><stop offset="1" stop-opacity="0"/></linearGradient></defs><g transform="translate(0 -1004.362)"><circle cx="24" cy="1028.362" r="20" style="opacity:1;fill:url(#d);fill-opacity:1;stroke:none;stroke-width:2;stroke-miterlimit:4;stroke-dasharray:none;stroke-opacity:1"/><path d="m31.262 1039.815-2.834 2.832 3.88 3.881a20 20 0 0 0 3.567-2.1z" style="opacity:.2;fill:url(#e);fill-opacity:1;stroke:none;stroke-width:4;stroke-linecap:butt;stroke-linejoin:miter;stroke-miterlimit:4;stroke-dasharray:none;stroke-opacity:1"/><path d="m25.287 1041.84-2.834 2.835 3.565 3.564a20 20 0 0 0 4.63-1.037z" style="opacity:.2;fill:url(#f);fill-opacity:1;stroke:none;stroke-width:4;stroke-linecap:butt;stroke-linejoin:miter;stroke-miterlimit:4;stroke-dasharray:none;stroke-opacity:1"/><path d="m19.383 1039.886-2.834 2.834 5.547 5.547a20 20 0 0 0 1.904.096 20 20 0 0 0 3.537-.323z" style="opacity:.2;fill:url(#g);fill-opacity:1;stroke:none;stroke-width:4;stroke-linecap:butt;stroke-linejoin:miter;stroke-miterlimit:4;stroke-dasharray:none;stroke-opacity:1"/><path d="M18 1039.362a2 2 0 0 0-2 2 2 2 0 0 0 2 2 2 2 0 0 0 2-2 2 2 0 0 0-2-2M30 1039.362a2 2 0 0 0-2 2 2 2 0 0 0 2 2 2 2 0 0 0 2-2 2 2 0 0 0-2-2M24 1041.362a2 2 0 0 0-2 2 2 2 0 0 0 2 2 2 2 0 0 0 2-2 2 2 0 0 0-2-2" style="font-style:normal;font-variant:normal;font-weight:700;font-stretch:normal;font-size:medium;line-height:125%;font-family:Tangerine;-inkscape-font-specification:&quot;Tangerine Bold&quot;;letter-spacing:0;word-spacing:0;fill:#eddbbc;fill-opacity:1;stroke:none;stroke-width:1px;stroke-linecap:butt;stroke-linejoin:miter;stroke-opacity:1"/><path d="M43.979 1027.78A20 20 0 0 1 24 1047.362a20 20 0 0 1-19.979-19.418 20 20 0 0 0-.021.418 20 20 0 0 0 20 20 20 20 0 0 0 20-20 20 20 0 0 0-.021-.582" style="opacity:1;fill:#a37836;fill-opacity:1;stroke:none;stroke-width:2;stroke-miterlimit:4;stroke-dasharray:none;stroke-opacity:1"/><path d="m35.246 1015.01-2.123.169-4 1.41-2.527 3.424-1.94 6.097-2.025 5.159-1.627 2.49-4.223-1.992-2.767.271-1.223 1.375-.543 2.084 12.826 12.826A20 20 0 0 0 44 1028.363a20 20 0 0 0-.723-5.321z" style="opacity:.2;fill:url(#h);fill-opacity:1;stroke:none;stroke-width:4;stroke-linecap:butt;stroke-linejoin:miter;stroke-miterlimit:4;stroke-dasharray:none;stroke-opacity:1"/><path d="M33.684 1014.362q-1.68 0-3.223.887-1.51.853-2.854 2.49-1.308 1.604-2.382 3.957-1.074 2.319-1.846 5.252-.537 2.081-1.074 3.514t-1.108 2.387c-.828-.319-1.645-.88-2.45-1.084a8.6 8.6 0 0 0-2.417-.34 5 5 0 0 0-1.78.306 5.5 5.5 0 0 0-1.341.75q-.57.444-.906.955c-.202.341-.303.959-.303 1.254q0 .717.672 1.196.67.477 2.014.476 3.558 0 6.007-1.877 1.545.683 3.157 1.297 1.644.58 3.625.58 2.249 0 3.591-.955c.896-.66 1.41-1.502 1.948-2.73q.034-.207-.1-.274-.102-.102-.236 0c-.38.773-.66 1.265-1.242 1.674q-.873.614-2.551.613-2.015 0-3.694-.443a40 40 0 0 1-3.154-1.057q2.082-2.49 3.256-7.06.704-2.865 1.375-4.776.672-1.909 1.443-3.035c.515-.773 1.076-1.208 1.68-1.504q.94-.476 2.215-.476.939 0 1.543.342.639.306.941.818c.202.341.312.616.334 1.025.023.41-.032 1.218-.166 1.627q-.034.172.1.239a.29.29 0 0 0 .303-.033c.223-.387.435-1.276.636-1.868q.303-.922.303-1.603 0-1.057-.639-1.774-.638-.75-1.677-.75m-18.83 18.188q1.443 0 2.718.408c.85.273 1.69.892 2.518 1.256q-.773.75-1.746 1.023-.94.239-2.149.239-1.375 0-2.148-.444c-.492-.295-.738-.97-.738-1.426q0-1.056 1.545-1.056" style="font-style:normal;font-variant:normal;font-weight:700;font-stretch:normal;font-size:medium;line-height:125%;font-family:Tangerine;-inkscape-font-specification:&quot;Tangerine Bold&quot;;letter-spacing:0;word-spacing:0;fill:url(#i);fill-opacity:1;stroke:none;stroke-width:1px;stroke-linecap:butt;stroke-linejoin:miter;stroke-opacity:1"/></g></svg>