<svg xmlns="http://www.w3.org/2000/svg" xmlns:xlink="http://www.w3.org/1999/xlink" width="48" height="48"><defs><linearGradient id="c" x1="24.14" x2="23.86" y1="40.683" y2="6.31" gradientTransform="matrix(.77235 0 0 .76472 390.036 505.445)" gradientUnits="userSpaceOnUse"><stop stop-color="#c52828"/><stop offset="1" stop-color="#ff5454"/></linearGradient><linearGradient xlink:href="#a" id="b" x1="407.626" x2="407.687" y1="543.768" y2="504.133" gradientUnits="userSpaceOnUse"/><linearGradient id="a" x1="27.456" x2="26.442" y1="47.39" y2="1.017" gradientTransform="matrix(2.3643 0 0 2.3643 278.059 438.052)" gradientUnits="userSpaceOnUse"><stop stop-color="#e1e1e1"/><stop offset="1" stop-color="#f4f4ff"/></linearGradient></defs><g transform="translate(-384.571 -499.798)"><rect width="40" height="40" x="388.57" y="503.8" rx="3" ry="3" style="fill:url(#b);fill-opacity:1"/><path d="M388.571 539.798v1c0 1.662 1.338 3 3 3h34c1.662 0 3-1.338 3-3v-1c0 1.662-1.338 3-3 3h-34c-1.662 0-3-1.338-3-3" style="opacity:.15;fill:#000;fill-opacity:1"/><path d="M408.703 510.798c-1.32 0-2.316.57-2.317 1.325v.958a.2.2 0 0 0-.06.016l-1.497.765a.6.6 0 0 0-.161.129 3.7 3.7 0 0 0-1.37-.247c-1.32 0-2.315.569-2.315 1.323v.817a.5.5 0 0 0-.244.06l-2.859 1.537a.52.52 0 0 0-.213.227q-.02.03-.034.063a1 1 0 0 0-.02.078c-.016.05-.041.098-.041.152v12.46c0 .194.106.375.278.471l10.395 5.794c.007.004.016.003.023.007q.106.053.223.058s.015.007.022.007c.07 0 .133-.03.197-.054.023-.009.05-.005.072-.017l.003-.002q.002 0 .005-.002.002-.002.003-.003l10.489-5.831a.54.54 0 0 0 .279-.472l.01-12.392a.54.54 0 0 0-.27-.468c-.018-.01-.04-.008-.059-.016-.024-.019-.042-.042-.07-.058l-2.86-1.537c-.013-.007-.026-.006-.039-.012v-.874c0-.756-.995-1.325-2.315-1.325-.56 0-1.056.107-1.448.283-.027-.022-.05-.048-.081-.065l-1.361-.696a.2.2 0 0 1-.049-.014v-1.12c0-.756-.995-1.324-2.315-1.324m-1.497 2.342c.4.19.912.304 1.497.304.584 0 1.096-.115 1.495-.304v1.501c0 .157-.565.512-1.495.512s-1.497-.355-1.497-.512zm-.821 1.145v.356c0 .755.996 1.323 2.317 1.323s2.316-.568 2.315-1.323v-.191l.665.34a.9.9 0 0 0-.044.27v2.518c0 .754.997 1.323 2.318 1.323 1.32 0 2.316-.569 2.315-1.323v-.422l1.622.874-9.379 5.2-9.299-5.233 1.77-.952v.542c0 .754.995 1.324 2.315 1.324s2.316-.57 2.316-1.324v-2.519a.9.9 0 0 0-.083-.346l.855-.436m6.075 1.791c.398.19.912.306 1.496.306s1.096-.117 1.496-.306v1.501c0 .149-.524.511-1.496.511-.93 0-1.496-.354-1.496-.51zm-10.66.01c.4.189.913.305 1.497.305.583 0 1.096-.115 1.495-.304v1.5c0 .148-.523.512-1.495.512-.971 0-1.497-.364-1.497-.513zm6.867.55c-1.32 0-2.317.57-2.317 1.325v2.518c0 .755.997 1.325 2.317 1.325s2.314-.57 2.314-1.325v-2.518c0-.755-.994-1.324-2.314-1.324m-1.496 2.341c.399.19.912.306 1.496.306.583 0 1.096-.115 1.494-.304v1.5c0 .148-.522.512-1.494.512-.93 0-1.496-.356-1.496-.513z" style="fill:url(#c)"/></g></svg>