<svg xmlns="http://www.w3.org/2000/svg" viewBox="0 0 32 32"><defs><linearGradient id="d" x1="389.32" x2="426.695" y1="547.675" y2="499.921" gradientTransform="matrix(.69997 0 0 .69993 -301.988 -350.623)" gradientUnits="userSpaceOnUse"><stop stop-color="#18222a" style="stop-color:#1e2b35;stop-opacity:1"/><stop offset="1" stop-color="#566069" style="stop-color:#6d7983;stop-opacity:1"/></linearGradient></defs><rect width="27.999" height="27.997" x="-30" y="2.002" rx="13.999" ry="13.999" style="display:inline;fill:url(#d);stroke-width:1.95986;stroke-opacity:.55" transform="scale(-1 1)"/><path d="M2.008 15.65c-.002.117-.008.233-.008.35a13.97 13.97 0 0 0 14 14c7.755 0 13.999-6.244 13.999-14q-.001-.174-.009-.35A13.966 13.966 0 0 1 16 29.3 13.964 13.964 0 0 1 2.007 15.65" style="display:inline;opacity:.3;fill:#000;fill-opacity:1;stroke-width:1.95986;stroke-opacity:.55"/><path d="M2.008 16.348c-.002-.117-.008-.232-.008-.35A13.97 13.97 0 0 1 16 1.999c7.755 0 13.999 6.244 13.999 13.999q-.001.175-.009.35A13.966 13.966 0 0 0 16 2.699 13.964 13.964 0 0 0 2.007 16.348" style="display:inline;opacity:.3;fill:#fff;fill-opacity:1;stroke-width:1.95986;stroke-opacity:.55"/><rect width="18.868" height="2.245" x="6" y="9.371" rx="1.048" ry="1.123" style="fill:#3f92f7;stroke-width:.375758"/><path d="M21.167 7.5a.809.77 0 0 0-.827.77v4.447a.809.77 0 0 0 1.213.667l2.021-1.112 2.022-1.112a.809.77 0 0 0 0-1.334l-2.022-1.111-2.021-1.112a.809.77 0 0 0-.386-.103" style="fill:#3f92f7;stroke-width:.375758"/><rect width="18.868" height="2.259" x="-26" y="20.358" rx="1.048" ry="1.13" style="fill:#c83771;stroke-width:.376943" transform="scale(-1 1)"/><path d="M10.833 18.476a.809.775 0 0 1 .827.775v4.474a.809.775 0 0 1-1.213.671l-2.021-1.118-2.022-1.119a.809.775 0 0 1 0-1.342l2.022-1.119 2.021-1.118a.809.775 0 0 1 .386-.104" style="fill:#c83771;stroke-width:.376943"/></svg>