<svg xmlns="http://www.w3.org/2000/svg" width="16" height="16"><linearGradient id="a" x2="0" y1="785.71" y2="727.71" gradientTransform="matrix(.72727 0 0 .68966 .727 1.931)" gradientUnits="userSpaceOnUse"><stop offset="0" stop-color="#f27935"/><stop offset="1" stop-color="#f2784b"/></linearGradient><linearGradient id="b" x1="388.57" x2="398.57" y1="504.8" y2="514.8" gradientUnits="userSpaceOnUse"><stop offset="0" stop-color="#383e51"/><stop offset="1" stop-color="#655c6f" stop-opacity="0"/></linearGradient><linearGradient id="c" x2="0" y1="531.8" y2="515.8" gradientTransform="translate(-14 -18)" gradientUnits="userSpaceOnUse"><stop offset="0" stop-color="#f5955f"/><stop offset="1" stop-color="#facebe"/></linearGradient><path fill="url(#a)" d="M386.57 502.8v13h12v-10.5l-5.5-5.5h-3.498q-3.003 0-3.002 3" transform="translate(-384.57 -499.8)"/><path fill="#2e3132" fill-opacity=".294" d="M2 15h12v1H2z"/><path fill="#b86333" d="M14 4V0h-4z"/><path fill="url(#b)" fill-rule="evenodd" d="M388.57 504.8v6l1 1v1l2 2h7v-8l-2-2z" opacity=".2" transform="translate(-384.57 -499.8)"/><path fill="url(#c)" d="M388.57 504.8v6h3v1h-2v1h6v-1h-2v-1h3v-6zm1 1h6v4h-6z" transform="translate(-384.57 -499.8)"/></svg>