<svg xmlns="http://www.w3.org/2000/svg" width="16" height="16"><linearGradient id="a" x2="0" y1="785.71" y2="727.71" gradientTransform="matrix(.273 0 0 .27593 239.471 299.005)" gradientUnits="userSpaceOnUse"><stop offset="0" stop-color="#f39c12"/><stop offset="1" stop-color="#f5ab35"/></linearGradient><linearGradient id="d" x2="0" y1="531.8" y2="515.8" gradientTransform="matrix(.6 0 0 .6 147.628 194.72)" gradientUnits="userSpaceOnUse"><stop offset="0" stop-color="#f7bb5d"/><stop offset="1" stop-color="#fce3bc"/></linearGradient><linearGradient id="b" x1="4" x2="14" y1="5" y2="15" gradientUnits="userSpaceOnUse"><stop offset="0" stop-color="#383e51"/><stop offset="1" stop-color="#655c6f" stop-opacity="0"/></linearGradient><path fill="url(#a)" d="M386.57 502.8s0 13-.008 13.004l12.008-.004v-10.5l-5.5-5.5h-3.565c-1.935 0-2.935 1-2.935 3" transform="translate(-384.57 -499.8)"/><path fill="#2e3132" fill-opacity=".294" d="M2 15h12v1H2z"/><path fill="#b97c1b" d="M14 4V0h-4z"/><path fill="url(#b)" fill-rule="evenodd" d="M12 5v3l-3-.5-2-2L4.5 8l1 1L4 13l2 2h8V7Z" opacity=".2"/><path fill="url(#d)" d="M393.57 504.8v3h3v-3zm-5 4v4h3v-4zm6.5 0-2.5 4h5zm-3.2-2.5a1.8 1.8 0 1 1-3.6 0 1.8 1.8 0 0 1 3.6 0" transform="translate(-384.57 -499.8)"/></svg>