<svg xmlns="http://www.w3.org/2000/svg" width="16" height="16"><linearGradient id="a" x2="0" y1="785.71" y2="727.71" gradientTransform="matrix(.72727 0 0 .68966 -383.84 -497.87)" gradientUnits="userSpaceOnUse"><stop offset="0" stop-color="#8e44ad"/><stop offset="1" stop-color="#9b59b6"/></linearGradient><linearGradient id="b" x1="388.57" x2="398.57" y1="504.8" y2="514.8" gradientUnits="userSpaceOnUse"><stop offset="0" stop-color="#383e51"/><stop offset="1" stop-color="#655c6f" stop-opacity="0"/></linearGradient><linearGradient id="c" x2="0" y1="32" y2="16" gradientTransform="translate(381.564 497.76)scale(.4375)" gradientUnits="userSpaceOnUse"><stop offset="0" stop-color="#b985ce"/><stop offset="1" stop-color="#e2cdeb"/></linearGradient><path fill="url(#a)" d="M2 3v13h12V5.5L8.5 0H4.96C3 0 2 1 2 3"/><path fill="#713e88" d="M14 4V0h-4z"/><path fill="#2e3132" fill-opacity=".294" d="M2 15h12v1H2z"/><path fill="url(#b)" fill-rule="evenodd" d="M396.57 504.8h-8v7l3 3h7v-8z" opacity=".2" transform="translate(-384.57 -499.8)"/><path fill="url(#c)" d="M388.57 504.8v7h8v-7m-7 1h6v1h-6zm0 2h6v1h-6zm0 2h6v1h-6z" transform="translate(-384.57 -499.8)"/></svg>