<svg xmlns="http://www.w3.org/2000/svg" width="16" height="16"><linearGradient id="a" x2="0" y1="785.71" y2="727.71" gradientTransform="matrix(.72727 0 0 .68966 .727 1.931)" gradientUnits="userSpaceOnUse"><stop offset="0" stop-color="#2a2c2f"/><stop offset="1" stop-color="#424649"/></linearGradient><linearGradient id="d" x2="0" y1="531.8" y2="515.8" gradientUnits="userSpaceOnUse"><stop offset="0" stop-color="#a5a9af"/><stop offset="1" stop-color="#dadcde"/></linearGradient><linearGradient id="b" x1="16" x2="32" y1="16" y2="32" gradientUnits="userSpaceOnUse"><stop offset="0" stop-color="#383e51"/><stop offset="1" stop-color="#655c6f" stop-opacity="0"/></linearGradient><path fill="url(#a)" d="M393.07 511.3v32.5h30v-26.25l-13.75-13.75h-8.708c-5.042 0-7.542 2.5-7.542 7.5" transform="matrix(.4 0 0 .4 -155.228 -201.52)"/><path fill="#2e3132" fill-opacity=".294" d="M2 15h12v1H2z"/><path fill="#212323" d="M14 4V0h-4z"/><path fill="url(#b)" fill-rule="evenodd" d="M16 16.5v20l7.5 7.5h15V24L31 16.5Z" opacity=".2" transform="matrix(.4 0 0 .4 -1.4 -1.6)"/><path fill="url(#d)" d="M400.57 516.3v20h10l5-5v-15h-7.023zm2.5 2.5h10v10h-5v5h-5z" transform="matrix(.4 0 0 .4 -155.228 -201.52)"/></svg>