<svg xmlns="http://www.w3.org/2000/svg" xmlns:xlink="http://www.w3.org/1999/xlink" width="48" height="48"><defs><linearGradient id="c"><stop offset="0" style="stop-color:#000;stop-opacity:1"/><stop offset="1" style="stop-color:#000;stop-opacity:0"/></linearGradient><linearGradient id="a" x2="0" y1="1" y2="47" gradientTransform="translate(326.417 498.608)" gradientUnits="userSpaceOnUse"><stop style="stop-color:#e0e5e7;stop-opacity:1"/><stop offset="1" style="stop-color:#c6cdd1;stop-opacity:1"/></linearGradient><linearGradient xlink:href="#a" id="d" x1="401.579" x2="418.614" y1="505.239" y2="540.911" gradientTransform="translate(-.036 -.038)" gradientUnits="userSpaceOnUse"/><linearGradient xlink:href="#b" id="f" x1="402.498" x2="413.946" y1="513.937" y2="530.946" gradientUnits="userSpaceOnUse"/><linearGradient xlink:href="#c" id="e" x1="18.389" x2="35.068" y1="16.532" y2="33.212" gradientUnits="userSpaceOnUse"/><radialGradient id="b" cx="27" cy="24" r="11" gradientTransform="matrix(.81818 0 0 .9091 388.48 501.98)" gradientUnits="userSpaceOnUse"><stop style="stop-color:#334545;stop-opacity:1"/><stop offset="1" style="stop-color:#172525;stop-opacity:1"/></radialGradient></defs><g transform="translate(-384.571 -499.798)"><rect width="40" height="40" x="388.57" y="503.8" rx="20" style="fill:url(#d);fill-opacity:1;stroke-width:2.79999995;stroke-opacity:.55026502"/><path d="M412.571 522.798v2h15.923c.048-.33.077-.663.077-1s-.03-.67-.077-1z" style="fill:#3bb566;fill-opacity:1"/><path d="M4.396 28q.207 1.02.514 2h15.012c.048-.33.078-.663.078-1s-.03-.67-.078-1z" style="fill:#3bb566;fill-opacity:1" transform="translate(384.571 499.798)"/><path d="M4.91 18a20 20 0 0 0-.514 2h15.526c.048-.33.078-.663.078-1s-.03-.67-.078-1z" style="fill:#e05e4c;fill-opacity:1" transform="translate(384.571 499.798)"/><path d="m20.295 15.275-.445 12.33-2.77 6.403 9.785 9.785c7.374-1.05 13.407-6.097 15.895-12.887L31.658 19.805z" style="opacity:.3;fill:url(#e);fill-opacity:1;stroke:none;stroke-width:1;stroke-linecap:butt;stroke-linejoin:bevel;stroke-miterlimit:4;stroke-dasharray:none;stroke-opacity:1" transform="translate(384.571 499.798)"/><path d="M401.571 533.798c2.674-8 2.674-12 0-20 12.462 0 18 10 18 10s-5.538 10-18 10" style="fill:url(#f);fill-opacity:1;fill-rule:nonzero;stroke:none"/><path d="M4.012 23.5c-.004.167-.012.332-.012.5 0 11.08 8.92 20 20 20s20-8.92 20-20c0-.168-.008-.333-.012-.5A19.95 19.95 0 0 1 24 43 19.95 19.95 0 0 1 4.012 23.5" style="fill:#000;fill-opacity:1;stroke-width:2.79999995;stroke-opacity:.55026502;opacity:.15" transform="translate(384.571 499.798)"/></g></svg>