<svg xmlns="http://www.w3.org/2000/svg" xmlns:xlink="http://www.w3.org/1999/xlink" width="48" height="48"><defs><linearGradient id="e" x2="0" y1="22" y2="8" gradientTransform="translate(429.57 508.8)" gradientUnits="userSpaceOnUse"><stop stop-color="#2e3436"/><stop offset="1" stop-color="#555753"/></linearGradient><linearGradient id="a" x2="0" y1="543.8" y2="502.66" gradientTransform="matrix(.66667 0 0 .63518 139.19 192.52)" gradientUnits="userSpaceOnUse"><stop stop-color="#c6cdd1"/><stop offset="1" stop-color="#e0e5e7"/></linearGradient><linearGradient id="c" x1="400.57" x2="418.57" y1="529.8" y2="548.8" gradientTransform="translate(11 -6)" gradientUnits="userSpaceOnUse"><stop/><stop offset="1" stop-opacity="0"/></linearGradient><linearGradient xlink:href="#a" id="d" x2="0" y1="543.8" y2="502.66" gradientTransform="matrix(.66667 0 0 .63518 124.19 185.52)" gradientUnits="userSpaceOnUse"/><linearGradient xlink:href="#c" id="f" x1="388.57" x2="400.57" y1="523.8" y2="538.8" gradientTransform="translate(11 -7)" gradientUnits="userSpaceOnUse"/></defs><g transform="translate(-384.57 -499.8)"><rect width="20" height="28" x="392.57" y="504.8" fill="url(#d)" rx="0"/><path fill="#566069" d="M392.57 504.8h20v4h-20z"/><path fill="#3daee9" d="M392.57 508.8h20v1h-20z"/><path fill="#fff" d="M394.57 509.8h18v21h-18z"/><path fill="#464e55" d="m412.57 504.8-5 7v4l5-7z"/><g color="#000"><path fill="#1583bd" d="m412.57 508.8-5 7v1l5-7z"/><path fill="#a1aeb4" d="m412.57 509.8-5 7v1l5-7z"/></g><rect width="20" height="28" x="407.57" y="511.8" fill="url(#a)" rx="0"/><path fill="#566069" d="M407.57 511.8h20v4h-20z"/><path fill="#3daee9" d="M407.57 515.8h20v1h-20z"/><path fill="#fff" d="M407.57 516.8h18v21h-18z"/><path fill="url(#c)" fill-rule="evenodd" d="m417.57 522.8 1 1h3l6 6v10l-5-.039-8.59-8.584 2.372-2.595-3.782-3.782 4-1z" color="#000" opacity=".117"/><rect width="2" height="2" x="424.57" y="512.8" fill="#eff0f1" rx="1"/><path fill="url(#e)" d="M504.8-392.57h41v2h-41z" color="#000" transform="rotate(90)"/><path fill="#555753" d="M416.57 522.8v1h-4v1h6.125v.25c0 .226-.141.768-.299 1.143-.174.414-.556.977-.926 1.365l-.307.32-.221-.24c-.302-.33-.752-1.01-.92-1.391l-.141-.314h-1.205l.125.303c.234.568.749 1.348 1.244 1.883.44.476.454.38-.113.801-.851.632-1.508 1.016-2.256 1.32l-.404.164.707.773.27-.135a15.4 15.4 0 0 0 2.488-1.578l.385-.305.293.238c.14.113.36.276.531.4l.082.063c.161.114.236.167.275.178.564.386 1.164.766 1.738 1.053l.283.141.369-.406.371-.404-.424-.172c-.682-.278-1.313-.652-2.049-1.174a5 5 0 0 0-.314-.236c-.228-.162-.414-.311-.414-.332s.13-.181.291-.355c.867-.942 1.39-1.902 1.535-2.814l.072-.537h1.807v-1h-4v-1z"/><path fill="url(#f)" fill-rule="evenodd" d="m402.63 515.81 4.988 4.988-.05 12h-.254l-8.973-8.973 3.06-8.01z" color="#000" opacity=".117"/><path fill="#555753" d="m402.02 516.88-1.444 3.922h2.885zm-.612-1.068h1.229l3.055 8.01h-1.127l-.726-2.025-3.617.004-.73 2.02h-1.143z"/></g></svg>