<svg xmlns="http://www.w3.org/2000/svg" xmlns:xlink="http://www.w3.org/1999/xlink" width="48" height="48"><defs><linearGradient id="c" x2="0" y1="44" y2="4" gradientUnits="userSpaceOnUse"><stop stop-color="#0d4687"/><stop offset=".051" stop-color="#0b60c2"/><stop offset=".275" stop-color="#1b88f4"/><stop offset=".725" stop-color="#1b90f4"/><stop offset=".962" stop-color="#0d6ad6"/><stop offset="1" stop-color="#115fbc"/></linearGradient><linearGradient xlink:href="#c" id="e" x1="-31" x2="-1" y1="9" y2="39" gradientTransform="translate(40)" gradientUnits="userSpaceOnUse"/></defs><linearGradient id="d" x1="19" x2="37" y1="1021.362" y2="1039.362" gradientTransform="translate(0 -1004.362)" gradientUnits="userSpaceOnUse"><stop offset="0" stop-color="#292c2f"/><stop offset="1" stop-opacity="0"/></linearGradient><path d="M24 5c10.493 0 19 8.507 19 19s-8.507 19-19 19S5 34.493 5 24 13.507 5 24 5" style="fill:#eaeaea;fill-opacity:.29803923"/><path d="M24 4A20 20 0 0 0 4 24a20 20 0 0 0 20 20 20 20 0 0 0 20-20A20 20 0 0 0 24 4m0 1a19 19 0 0 1 19 19 19 19 0 0 1-19 19A19 19 0 0 1 5 24 19 19 0 0 1 24 5" style="fill:#000;fill-opacity:.29803923"/><path d="M36 15c-1 14-22 20-22 20l9 9c9.498-1.114 20.267-11.466 21-21Z" style="opacity:.2;fill:url(#d)"/><path d="M38.648 5.002a5 5 0 0 0-.449.008A4.5 4.5 0 0 0 34.004 9.7a4.5 4.5 0 0 0 4.596 4.297A4.5 4.5 0 0 0 43 9.5l-.018-.4a4.5 4.5 0 0 0-4.334-4.098M24.496 9.008a15 15 0 0 0-1.5.025A15 15 0 0 0 9.016 24.67a15 15 0 0 0 15.318 14.326A15 15 0 0 0 39 24l-.06-1.338A15 15 0 0 0 24.495 9.008m5.152 4.994a4.5 4.5 0 0 1 4.334 4.098l.018.4a4.5 4.5 0 0 1-4.4 4.498 4.5 4.5 0 0 1-4.596-4.297 4.5 4.5 0 0 1 4.195-4.691 5 5 0 0 1 .45-.008" style="opacity:1;fill:url(#e);fill-opacity:1;stroke-width:1.03448272"/></svg>