<svg xmlns="http://www.w3.org/2000/svg" width="48" height="48"><path d="M23.477 3.739c-10.793-.01-19.686 8.878-19.97 20.09-.289 11.391 8.416 20.866 19.44 21.164 5.371.145 9.564-1.915 13.243-5.384.392-.327.606-.532.606-.532s3.989-4.186 4.203-7.641c-1.018 1.681-1.952 3.364-4.485 4.611-1.162.539-2.227.996-3.3 1.358q-.103.026-.208.05-.761.184-1.6.3-.102.014-.205.027c-.58.073-1.177.127-1.795.153q-.097.003-.194.004-.915.032-1.865-.006-.062 0-.123-.002c-.644-.029-.56-.087-1.214-.163q-.14-.015-.28-.03a27 27 0 0 1-4.048-.839 24 24 0 0 1-.576-.175q-.217-.067-.431-.139-.305-.106-.603-.22-.246-.089-.487-.185-.278-.114-.548-.236c-.154-.067-.31-.132-.462-.203a18 18 0 0 1-.963-.488 9.303 9.303 0 0 1-2.081-1.555c-2.104-2.147-2.006-4.672-1.896-6.308.14-2.056 1.863-6.565 7.533-8.954 3.504-1.237 7.625-2.102 11.07-.993 2.59.585 4.454 1.435 6.918 2.305 0 0-.02.043.66.211 4.793.76 4.255-3.188 4.255-3.188l-.375-.924c-.083-.487.281-.871.281-.871s-.295-1.089-.245-1.808.01-1.641-.147-2.956-1.02-2.427-1.3-2.632c-.28-.204-1.587-1.189-2.839-1.68s-2.518-.854-4.078-.635c-.173.025-.337.051-.507.077-.03-.01-.054-.02-.087-.03-.595-.177-1.015-1.582-1.501-1.57a1.4 1.4 0 0 0-.228.024h-.002q-.058.011-.119.028a1 1 0 0 0-.127.046c-.284.132-.458 1.662-.566 1.988a19.4 19.4 0 0 0-8.754-2.09m10.99 33.287" style="opacity:.2;stroke-width:.736842"/><path d="M26.342 10.37a15.473 15.473 0 0 0-15.474 15.472 15.473 15.473 0 0 0 15.474 15.474 15.473 15.473 0 0 0 15.473-15.474A15.473 15.473 0 0 0 26.342 10.37" style="fill:#f8952b;stroke-width:.736842"/><path d="M26.033 15.558c1.916.454 2.124 2.896 3.666 3.491 2.057.836 2.233-1.78 1.17-3.163" style="fill:#946857;stroke-width:.736842"/><path d="M32.182 9.65c-2.159-.002-4.5.63-6.209 1.224-3.241 1.147-5.263 2.076-7.89 3.953-.696.505-3.433 2.515-5.096 5.317-4.595 8.126-1.344 16.753 4.6 18.714 6.534 2.443 12.788 3.149 20.655-3.803-.677.541 0 0-3.776 1.967-4.45 1.659-11.575 1.126-16.854-1.772-4.246-2.35-3.82-5.808-3.681-7.864s1.567-6.565 7.238-8.954c3.504-1.237 7.624-2.102 11.068-.993 2.592.585 4.454 1.643 6.918 2.513 0 0-.02.042.66.21 4.793.76 4.948-3.458 4.948-3.458l-.136-.768-.418-1.043-.198-.447-.12-.242s-.035-.305-.083-.614c-.092 1.157-.553 1.786-.553 1.786-3.725-.706-4.39-3.918-8.318-5.266-.83-.326-1.773-.458-2.755-.46m6.06 25.405c.434-.348.644-.585.644-.585q-.323.301-.644.585" style="opacity:.2;stroke-width:.736842"/><path d="M23.477 3c-10.793-.009-19.686 8.88-19.97 20.092-.289 11.39 8.416 20.865 19.44 21.163 5.371.145 9.564-1.915 13.243-5.383.392-.328.606-.532.606-.532s3.989-4.187 4.203-7.642c-1.018 1.681-1.952 3.365-4.485 4.612-1.162.538-2.227.996-3.3 1.358l-.208.05q-.761.183-1.6.3-.102.014-.205.026-.869.112-1.795.153-.097.003-.194.004-.915.032-1.865-.006-.062 0-.123-.002c-.644-.028-.56-.087-1.214-.163q-.14-.014-.28-.03a27 27 0 0 1-4.048-.838 24 24 0 0 1-.576-.176q-.217-.067-.431-.139-.305-.105-.603-.22-.246-.089-.487-.185c-.186-.074-.367-.156-.548-.235-.154-.068-.31-.133-.462-.204a18 18 0 0 1-.963-.487 9.303 9.303 0 0 1-2.081-1.555c-2.104-2.148-2.006-4.673-1.896-6.309.14-2.055 1.863-6.565 7.533-8.953 3.504-1.238 7.625-2.103 11.07-.994 2.59.585 4.454 1.435 6.918 2.305 0 0-.02.043.66.212 4.793.759 4.255-3.19 4.255-3.19l-.375-.923c-.083-.487.281-.87.281-.87s-.295-1.09-.245-1.809c.05-.72.01-1.64-.147-2.956-.157-1.314-1.02-2.427-1.3-2.631s-1.587-1.19-2.839-1.68c-1.252-.492-2.518-.855-4.078-.635-.173.024-.337.05-.507.076-.03-.01-.054-.02-.087-.03-.595-.177-1.015-1.582-1.501-1.57a1.4 1.4 0 0 0-.228.024h-.002q-.058.011-.119.028a1 1 0 0 0-.127.046c-.284.133-.458 1.662-.566 1.988A19.4 19.4 0 0 0 23.477 3m10.99 33.289" style="fill:#946857;stroke-width:.736842"/><path d="M23.478 3C12.685 2.99 3.79 11.881 3.506 23.093c-.005.17.006.335.011.501.403-11.1 9.244-19.867 19.961-19.857.172 0 .34.004.513.008 2.957.08 5.746.82 8.24 2.081.108-.326.283-1.853.567-1.986a.8.8 0 0 1 .245-.074h.003a1.5 1.5 0 0 1 .227-.026c.486-.012.905 1.395 1.5 1.571l.089.03c.17-.027.333-.051.506-.076 1.56-.22 2.826.142 4.079.633 1.252.492 2.558 1.477 2.838 1.681.28.205 1.144 1.316 1.301 2.631.092.772.14 1.396.157 1.936.024-.678-.02-1.519-.157-2.673-.157-1.315-1.021-2.426-1.301-2.63s-1.586-1.19-2.838-1.681-2.52-.853-4.079-.634l-.506.075-.09-.029c-.594-.176-1.013-1.583-1.499-1.571a1.4 1.4 0 0 0-.227.026h-.003a.803.803 0 0 0-.245.075c-.284.132-.46 1.66-.567 1.986A19.4 19.4 0 0 0 23.478 3m20.266 9.828v.056q.01.369 0 .682c.02.32.057.595.111.86.064-.108.122-.19.122-.19s-.192-.742-.233-1.408m0 .794c-.004.095-.005.196-.01.284-.008.098.01.211.014.318a12 12 0 0 0-.004-.602zm.21 2.123c-.04.045-.336.382-.258.838l.076.188c.071-.159.162-.266.183-.29l.112.274c.042-.418.006-.722.006-.722zM13.62 28.58c-.018.344-.024.72-.013 1.111.004-.125.007-.255.013-.374.1 1.383.521 2.962 1.911 4.381a9.3 9.3 0 0 0 2.081 1.554q.47.257.965.49c.15.07.306.136.46.204.182.08.361.158.547.233q.242.096.49.187c.2.075.397.15.6.219.143.049.288.092.433.138q.285.092.575.176a25 25 0 0 0 1.837.463q.151.032.305.06c.632.127 1.268.236 1.905.317.093.012.189.018.282.029.654.076.568.135 1.212.164.041.002.082-.002.124 0q.95.039 1.865.009.097-.004.193-.006c.617-.026 1.216-.08 1.796-.153.068-.009.14-.016.207-.026q.836-.116 1.597-.3l.208-.05c1.073-.363 2.14-.821 3.301-1.36 2.392-1.177 3.355-2.743 4.312-4.33.085-.342.152-.683.172-1.017-1.017 1.681-1.95 3.364-4.484 4.61-1.162.539-2.228.997-3.301 1.36l-.208.051q-.761.182-1.597.3l-.207.025a22 22 0 0 1-1.796.153q-.097.004-.193.006-.915.03-1.865-.009c-.042-.002-.083.002-.124 0-.644-.028-.558-.088-1.212-.164q-.141-.013-.282-.029c-.637-.08-1.273-.19-1.905-.316l-.305-.06a25 25 0 0 1-2.412-.64q-.218-.068-.432-.138-.304-.106-.602-.219c-.163-.06-.329-.122-.49-.187a20 20 0 0 1-.546-.233c-.154-.068-.31-.133-.46-.204a18 18 0 0 1-.965-.49 9.317 9.317 0 0 1-2.081-1.554c-1.39-1.419-1.812-2.997-1.91-4.38" style="opacity:.2;fill:#fff;stroke-width:.736842"/><path d="M32.182 8.917c-2.159-.003-4.5.629-6.209 1.223-3.241 1.147-5.263 2.076-7.89 3.953-.696.506-3.433 2.515-5.096 5.318-4.595 8.125-1.344 16.752 4.6 18.713 6.534 2.443 12.788 3.15 20.655-3.803-.677.542 0 0-3.776 1.967-4.45 1.659-11.575 1.126-16.854-1.772-4.246-2.35-3.82-5.808-3.681-7.863s1.567-6.566 7.238-8.955c3.504-1.237 7.624-2.102 11.068-.993 2.592.585 4.454 1.643 6.918 2.513 0 0-.02.042.66.21 4.793.76 4.948-3.458 4.948-3.458l-.136-.768-.418-1.043-.198-.446-.12-.243s-.035-.304-.083-.614c-.092 1.158-.553 1.786-.553 1.786-3.725-.706-4.39-3.917-8.318-5.265-.83-.327-1.773-.46-2.755-.46m6.06 25.404c.434-.348.644-.585.644-.585q-.323.301-.644.585" style="fill:#d3c9c6;stroke-width:.736842"/><path d="m12.369 19.37-.022.184c1.498-.076 3.335.249 4.698 1.205 1.056.713 2.008 1.777 3.362 1.296.926-.325.978-.875.623-1.78-.3-.735-.796-2.004-1.408-2.49-.883-.7-3.165-.455-3.28-1.916-.085-.69.35-1.21.735-1.713 0 0-4.418 1.11-4.708 5.214" style="fill:#946857;stroke-width:.736842"/><path d="M43.327 15.526s-.17.536-.967.583-.66 1.156.032 1.776c.691.62 1.232.791 1.692.315s1.59-1.265-.757-2.674" style="opacity:.2;stroke-width:.736842"/><path d="M43.327 14.79s-.17.535-.967.582-.66 1.156.032 1.776c.691.621 1.232.791 1.692.315s1.59-1.264-.757-2.674" style="fill:#3f3f3f;stroke-width:.736842"/><path d="M38.557 13.491c-.501.64-1.427.75-2.069.247a1.477 1.477 0 0 1-.255-2.07 1.473 1.473 0 0 1 2.068-.247c.642.504.756 1.43.256 2.07" style="opacity:.2;stroke-width:.736842"/><path d="M38.557 12.754a1.477 1.477 0 0 1-2.323-1.824 1.473 1.473 0 0 1 2.067-.245c.642.504.756 1.43.256 2.07" style="fill:#3f3f3f;stroke-width:.736842"/><path d="M44.354 14.31c-.043.57-.405.996-.807.953-.402-.042-.693-.536-.649-1.106.044-.568.405-.994.807-.952.402.044.693.538.65 1.106" style="opacity:.2;stroke-width:.736842"/><path d="M44.354 12.837c-.043.568-.405.995-.807.952-.402-.042-.693-.536-.649-1.106.044-.567.405-.994.807-.951s.693.537.65 1.105" style="fill:#3f3f3f;stroke-width:.736842"/></svg>