<svg xmlns="http://www.w3.org/2000/svg" width="48" height="48"><defs><linearGradient id="a" x1="543.8" x2="503.8" gradientTransform="matrix(0 1 -1.16667 0 -452.67 -499.8)" gradientUnits="userSpaceOnUse"><stop stop-color="#197cf1"/><stop offset="1" stop-color="#21c9fb"/></linearGradient><linearGradient id="f" x1="384.57" x2="394.57" y1="547.8" y2="530.48" gradientUnits="userSpaceOnUse"><stop stop-color="#fff" stop-opacity="0"/><stop offset="1" stop-color="#fff" stop-opacity=".314"/></linearGradient><linearGradient id="c" x1="384.57" x2="414.57" gradientUnits="userSpaceOnUse"><stop stop-opacity=".275"/><stop offset="1" stop-color="#fff" stop-opacity="0"/></linearGradient><linearGradient id="d" x1="432.57" x2="421.02" y1="547.8" y2="527.8" gradientUnits="userSpaceOnUse"><stop stop-opacity=".082"/><stop offset="1" stop-opacity="0"/></linearGradient><linearGradient id="b" x2="0" y1="44" y2="20" gradientUnits="userSpaceOnUse"><stop stop-color="#eef1f2"/><stop offset="1" stop-color="#f9fafb"/></linearGradient><linearGradient id="g" x2="0" y1="523.8" y2="507.8" gradientTransform="translate(0 4)" gradientUnits="userSpaceOnUse"><stop stop-color="#7cbaf8"/><stop offset="1" stop-color="#f4fcff"/></linearGradient><linearGradient id="h" x1="414.57" x2="422.57" y1="511.8" y2="519.8" gradientUnits="userSpaceOnUse"><stop stop-color="#292c2f"/><stop offset="1" stop-opacity="0"/></linearGradient></defs><path fill="#c8cfd3" fill-rule="evenodd" d="M24 8 4 20l20 15 20-15z"/><path fill="url(#a)" d="M10 8v36h28V12l-8-8H14c-2.059.07-3.9 1.931-4 4"/><path fill="url(#b)" d="M4 20v24h40V20L28 32h-8z"/><g fill-rule="evenodd"><path fill="url(#c)" d="m388.57 543.8 16-12h8l16 12z" transform="translate(-384.57 -499.8)"/><path fill="url(#d)" d="m428.57 543.8-16-12 16-12z" transform="translate(-384.57 -499.8)"/><path fill="url(#f)" d="m388.57 543.8 16-12-16-12z" transform="translate(-384.57 -499.8)"/></g><path fill="#d1d3d4" d="M4 43h40v1H4z"/><path fill="url(#g)" d="M404.57 511.8c-.554 0-1 .446-1 1s.446 1 1 1 1-.446 1-1-.446-1-1-1m7 0-2 2 3 3-3 3 2 2 5-5zm-9.5 6c-.831 0-1.5.669-1.5 1.5s.669 1.5 1.5 1.5 1.5-.669 1.5-1.5-.669-1.5-1.5-1.5m4.5 6c-1.108 0-2 .892-2 2s.892 2 2 2 2-.892 2-2-.892-2-2-2" transform="translate(-384.57 -499.8)"/><g fill-rule="evenodd"><path fill="#313437" d="M38 12h-8V4z"/><path fill="url(#h)" d="M414.57 511.8h8v8z" opacity=".2" transform="translate(-384.57 -499.8)"/></g></svg>