<svg xmlns="http://www.w3.org/2000/svg" xmlns:xlink="http://www.w3.org/1999/xlink" width="128" height="128" version="1.0"><defs><linearGradient id="e"><stop offset="0" style="stop-color:#fff;stop-opacity:1"/><stop offset="1" style="stop-color:#fff;stop-opacity:0"/></linearGradient><linearGradient id="b"><stop offset="0" style="stop-color:#b900c4;stop-opacity:1"/><stop offset="1" style="stop-color:#ae4300;stop-opacity:1"/></linearGradient><linearGradient id="a"><stop offset="0" style="stop-color:#0968ef;stop-opacity:1"/><stop offset="1" style="stop-color:#aecffc;stop-opacity:1"/></linearGradient><linearGradient xlink:href="#a" id="h" x1="23.5" x2="140.198" y1="64" y2="32.731" gradientUnits="userSpaceOnUse"/><linearGradient xlink:href="#b" id="k" x1="100" x2="32" y1="120" y2="20" gradientUnits="userSpaceOnUse"/><linearGradient id="c"><stop offset="0" style="stop-color:#99c2fc;stop-opacity:1"/><stop offset="1" style="stop-color:#dceafe;stop-opacity:1"/></linearGradient><linearGradient id="d"><stop offset="0" style="stop-color:#fbaeff;stop-opacity:1"/><stop offset="1" style="stop-color:#ffd7d7;stop-opacity:1"/></linearGradient><linearGradient xlink:href="#c" id="f" x1="78.349" x2="92" y1="104" y2="52" gradientUnits="userSpaceOnUse"/><linearGradient xlink:href="#e" id="g" x1="95.013" x2="108.269" y1="48.888" y2="71.847" gradientUnits="userSpaceOnUse"/><linearGradient xlink:href="#e" id="j" x1="69" x2="69" y1="59.972" y2="100.012" gradientUnits="userSpaceOnUse"/><linearGradient xlink:href="#d" id="i" x1="44.159" x2="94.739" y1="124.522" y2="73.941" gradientUnits="userSpaceOnUse"/></defs><path d="M64 80v36h40V40l-24 8z" style="fill:url(#f);fill-rule:evenodd;stroke:none;stroke-width:1px;stroke-linecap:butt;stroke-linejoin:miter;stroke-opacity:1;fill-opacity:1"/><path d="m120 118-4-2-8-4v4H8v4h100v4l8-4z" style="opacity:.61386138;fill:#797979;fill-opacity:1;stroke:none;stroke-width:1;stroke-linecap:round;stroke-linejoin:round;stroke-miterlimit:4;stroke-dasharray:none;stroke-dashoffset:0;stroke-opacity:1"/><rect width="8" height="4" x="4" y="96" rx="0" ry="0" style="opacity:1;fill:#787878;fill-opacity:.61568627;stroke:none;stroke-width:1;stroke-linecap:round;stroke-linejoin:round;stroke-miterlimit:4;stroke-dasharray:none;stroke-dashoffset:0;stroke-opacity:1"/><rect width="8" height="4" x="4" y="76" rx="0" ry="0" style="opacity:1;fill:#787878;fill-opacity:.61568627;stroke:none;stroke-width:1;stroke-linecap:round;stroke-linejoin:round;stroke-miterlimit:4;stroke-dasharray:none;stroke-dashoffset:0;stroke-opacity:1"/><rect width="8" height="4" x="4" y="56" rx="0" ry="0" style="opacity:1;fill:#787878;fill-opacity:.61568627;stroke:none;stroke-width:1;stroke-linecap:round;stroke-linejoin:round;stroke-miterlimit:4;stroke-dasharray:none;stroke-dashoffset:0;stroke-opacity:1"/><rect width="8" height="4" x="4" y="36" rx="0" ry="0" style="opacity:1;fill:#787878;fill-opacity:.61568627;stroke:none;stroke-width:1;stroke-linecap:round;stroke-linejoin:round;stroke-miterlimit:4;stroke-dasharray:none;stroke-dashoffset:0;stroke-opacity:1"/><rect width="8" height="4" x="-124" y="92" rx="0" ry="0" style="opacity:1;fill:#787878;fill-opacity:.61568627;stroke:none;stroke-width:1;stroke-linecap:round;stroke-linejoin:round;stroke-miterlimit:4;stroke-dasharray:none;stroke-dashoffset:0;stroke-opacity:1" transform="rotate(-90)"/><rect width="8" height="4" x="-124" y="72" rx="0" ry="0" style="opacity:1;fill:#787878;fill-opacity:.61568627;stroke:none;stroke-width:1;stroke-linecap:round;stroke-linejoin:round;stroke-miterlimit:4;stroke-dasharray:none;stroke-dashoffset:0;stroke-opacity:1" transform="rotate(-90)"/><rect width="8" height="4" x="-124" y="52" rx="0" ry="0" style="opacity:1;fill:#787878;fill-opacity:.61568627;stroke:none;stroke-width:1;stroke-linecap:round;stroke-linejoin:round;stroke-miterlimit:4;stroke-dasharray:none;stroke-dashoffset:0;stroke-opacity:1" transform="rotate(-90)"/><rect width="8" height="4" x="-124" y="32" rx="0" ry="0" style="opacity:1;fill:#787878;fill-opacity:.61568627;stroke:none;stroke-width:1;stroke-linecap:round;stroke-linejoin:round;stroke-miterlimit:4;stroke-dasharray:none;stroke-dashoffset:0;stroke-opacity:1" transform="rotate(-90)"/><path d="m10 8-2 4-4 8h4v96h4V20h4l-4-8z" style="opacity:.61386138;fill:#797979;fill-opacity:1;stroke:none;stroke-width:1;stroke-linecap:round;stroke-linejoin:round;stroke-miterlimit:4;stroke-dasharray:none;stroke-dashoffset:0;stroke-opacity:1"/><path d="m104 40-24 8-13.875 27.75C82.158 74.535 95.949 68.8 104 60.656z" style="opacity:.7970297;fill:url(#g);fill-opacity:1;stroke:none;stroke-width:6.14200020000000002;stroke-linecap:square;stroke-linejoin:miter;stroke-miterlimit:4;stroke-dasharray:none;stroke-dashoffset:0;stroke-opacity:1"/><path d="m24 104 32-8 24-48 24-8" style="fill:none;fill-rule:evenodd;stroke:url(#h);stroke-width:4;stroke-linecap:round;stroke-linejoin:round;stroke-opacity:1;fill-opacity:1;stroke-miterlimit:4;stroke-dasharray:none"/><path d="M56 68 24 92v24h80V88l-24 16-16-24z" style="fill:url(#i);fill-rule:evenodd;stroke:none;stroke-width:1px;stroke-linecap:butt;stroke-linejoin:miter;stroke-opacity:1;fill-opacity:1"/><path d="M56 68 34.688 83.969C42.122 86.52 50.68 88 59.78 88c3.148 0 6.225-.198 9.219-.531L64 80z" style="opacity:.96039604000000001;fill:url(#j);fill-opacity:1;stroke:none;stroke-width:6.14200020000000002;stroke-linecap:square;stroke-linejoin:miter;stroke-miterlimit:4;stroke-dasharray:none;stroke-dashoffset:0;stroke-opacity:1"/><path d="m24 92 32-24 24 36 24-16" style="fill:none;fill-rule:evenodd;stroke:url(#k);stroke-width:4;stroke-linecap:round;stroke-linejoin:round;stroke-opacity:1;fill-opacity:1;stroke-miterlimit:4;stroke-dasharray:none"/><path d="m24 104 32-8 24-48 24-8" style="fill:none;fill-rule:evenodd;stroke:url(#h);stroke-width:4;stroke-linecap:round;stroke-linejoin:round;stroke-opacity:1;fill-opacity:1;stroke-miterlimit:4;stroke-dasharray:none;opacity:.15841584"/></svg>