<svg xmlns="http://www.w3.org/2000/svg" xmlns:xlink="http://www.w3.org/1999/xlink" width="48" height="48"><defs><linearGradient id="c"><stop offset="0" style="stop-color:#bf3131;stop-opacity:1"/><stop offset="1" style="stop-color:#d35353;stop-opacity:1"/></linearGradient><linearGradient id="b"><stop offset="0" style="stop-color:#000;stop-opacity:1"/><stop offset="1" style="stop-color:#000;stop-opacity:0"/></linearGradient><linearGradient id="a"><stop offset="0" style="stop-color:#d8dcde;stop-opacity:1"/><stop offset="1" style="stop-color:#f9fafb;stop-opacity:1"/></linearGradient><linearGradient xlink:href="#a" id="e" x1="25.102" x2="25.102" y1="43.322" y2="3" gradientTransform="matrix(1 0 0 .9 0 4.4)" gradientUnits="userSpaceOnUse"/><linearGradient xlink:href="#b" id="f" x1="17.225" x2="28.55" y1="11.553" y2="22.878" gradientUnits="userSpaceOnUse"/><linearGradient xlink:href="#c" id="g" x1="15.193" x2="15.111" y1="14.618" y2="-.824" gradientTransform="translate(1 5)" gradientUnits="userSpaceOnUse"/><linearGradient xlink:href="#d" id="h" x2="0" y1="37" y2="4" gradientTransform="translate(12 -1)" gradientUnits="userSpaceOnUse"/><linearGradient id="d"><stop style="stop-color:#da4453"/><stop offset="1" style="stop-color:#ff7336"/></linearGradient><linearGradient xlink:href="#b" id="i" x1="20.438" x2="23.531" y1="22.313" y2="25.406" gradientTransform="translate(12 -1)" gradientUnits="userSpaceOnUse"/></defs><path d="M7 8h34v36H7z" style="opacity:1;fill:url(#e);fill-opacity:1;stroke:none;stroke-width:2;stroke-linecap:round;stroke-linejoin:round;stroke-miterlimit:4;stroke-dasharray:none;stroke-opacity:1"/><path d="M21.895 8 7 18.6v3.423L28.977 44H41V18.043L30.957 8z" style="opacity:.2;fill:url(#f);fill-opacity:1;stroke:none;stroke-width:2;stroke-linecap:round;stroke-linejoin:round;stroke-miterlimit:4;stroke-dasharray:none;stroke-opacity:1"/><path d="M5 6h24v14H5Z" style="fill:url(#g);fill-opacity:1;stroke-width:2;stroke-linejoin:bevel"/><path d="M8.014 12.986h3c1 0 1 0 1-1v-2c0-1 0-1-1-1-.233 0-.575.02-.921.025-1.079.014-2.079-.025-2.079-.025m0 8v-8M15.014 16.992s4.014.35 4-4c-.014-4.525-4-4-4-4M15 16.986v-8M22.014 12.986h4m-4-4h4m-4 8v-8" style="fill:none;stroke:#fff;stroke-width:1.99999976;stroke-linecap:round;stroke-linejoin:bevel;stroke-miterlimit:4;stroke-dasharray:none;stroke-opacity:1"/><path d="M7 43v1h34v-1z" style="opacity:.15;fill:#000;fill-opacity:1;stroke:none;stroke-width:2;stroke-linecap:round;stroke-linejoin:round;stroke-miterlimit:4;stroke-dasharray:none;stroke-opacity:1"/><path d="m45.998 3-2.33 1.143c-2.332 1.144-4.794 3.75-4.794 3.75l.366 2.945c-.138.2-.283.414-.43.629L37.776 9.61l-1.686 2.098 1.19 2.043-.023.033-1.49-1.694s-.972 1.144-3.951 5.402c-2.98 4.26-5.441 9.217-5.441 9.217l.114 3.369c-.16.237-.33.494-.486.724l-.47-2.758-1.036 1.716-.26 1.655-.582.7s-.962 3.598-.777 4.249 2.624-.629 2.624-.629l.128-.857 1.975-.634-2.198-.439.172-.286c.263.08.573.172 1.153.278 1.393.254 2.33-.253 2.33-.253l1.005-1.272s-.777.54-1.651.699c-.862.157-2.326-.205-2.37-.216l.237-.394c.37-.094 3.703-.963 5.662-2.345 2.072-1.462 6.185-5.975 6.185-5.975S37.137 24.03 35 24c-2.014-.03-3.794-.016-4 0 .093-.149 0-1 0-1l8.586-1.344s.552-1.05 1.394-2.734S44 13 44 13s-1.462-.042-2.768-.221a25 25 0 0 1-2.536-.5l.046-.07c.181-.084 1.346-.62 2.216-.891.938-.292 3.8-.697 3.8-.697s.024-.404.23-1.236c.206-.831.618-2.742.618-2.742l-4.98 2.807c.21-.289.407-.545.612-.818l4.551-2.663s.046-.584.138-1.348c.091-.764.071-1.621.071-1.621" style="fill:url(#h);fill-rule:evenodd"/><path d="M46 3s-4.62 4.94-9.222 11.275c-4.602 6.333-9.268 13.499-13.934 21.68C18.792 43.058 20.258 43 20.258 43s.46-1.184 3.678-6.761c3.076-5.332 6.967-12.216 13.474-21.705C40.51 10.012 46 3 46 3" style="fill:#31363b;fill-rule:evenodd"/><path d="m45.998 3-.707.883-2.577 3.298-3.972 5.028c.182-.084 1.345-.62 2.215-.89.939-.293 3.8-.698 3.8-.698s.025-.405.231-1.236c.206-.832.617-2.742.617-2.742l-4.3 2.408c.21-.288.409-.544.613-.816l3.871-2.266s.045-.584.137-1.348c.091-.764.072-1.621.072-1.621m-7.256 9.209L31 23l8.586-1.344s.552-1.05 1.394-2.734C41.822 17.237 44 13 44 13s-1.462-.04-2.768-.22a25 25 0 0 1-2.537-.5zM31 23l-7.965 13.52c.58.203 2.465-.786 2.465-.786l.129-.855 1.976-.635-2.199-.44.172-.284a9 9 0 0 0 1.154.277c1.393.254 2.329-.252 2.329-.252l1.005-1.274s-.778.54-1.652.7c-.861.156-2.325-.206-2.37-.217l.237-.393c.37-.094 3.703-.963 5.662-2.345 2.073-1.462 6.186-5.975 6.186-5.975S37.137 24.031 35 24c-2.014-.03-3.794-.016-4 0 .093-.149 0-1 0-1" style="opacity:.2;fill:url(#i);fill-rule:evenodd"/></svg>