<svg xmlns="http://www.w3.org/2000/svg" xmlns:xlink="http://www.w3.org/1999/xlink" width="48" height="48"><defs><linearGradient xlink:href="#a" id="c" x1="409.42" x2="409.42" y1="506.8" y2="540.8" gradientTransform="translate(-456.67 -592.235)scale(1.17647)" gradientUnits="userSpaceOnUse"/><linearGradient id="a" x1="25" x2="25" y1="3" y2="42.605" gradientTransform="matrix(1 0 0 1 44.644 46.568)" gradientUnits="userSpaceOnUse"><stop offset="0" stop-color="#f39c1f" style="stop-color:#d81c1b;stop-opacity:1"/><stop offset="1" stop-color="#f67400" style="stop-color:#ad0909;stop-opacity:1"/></linearGradient><linearGradient xlink:href="#b" id="d" x1="10" x2="44" y1="10" y2="44" gradientTransform="translate(.47 .47)scale(1.17647)" gradientUnits="userSpaceOnUse"/><linearGradient id="b" x1="392.57" x2="411.57" y1="518.8" y2="537.8" gradientTransform="translate(-384.57 -499.8)" gradientUnits="userSpaceOnUse"><stop stop-color="#292c2f" style="stop-color:#00267a;stop-opacity:1"/><stop offset="1" stop-opacity="0"/></linearGradient></defs><rect width="40" height="40" x="4" y="4" ry="0" style="opacity:1;fill:url(#c);fill-opacity:1;stroke:none;stroke-width:2;stroke-miterlimit:4;stroke-dasharray:none;stroke-opacity:1"/><path d="M4 42.944h40V44H4z" style="opacity:.50400002;fill:#1f3c64;fill-opacity:1;stroke:none;stroke-width:2;stroke-miterlimit:4;stroke-dasharray:none;stroke-opacity:.73929958"/><path d="M16.838 44H44V17.915l-8.764-8.261-.68 1.631-.479 6.102 6.768 1.27-4.768 5.455L41 29.792l-7 .821.154 7.174-6.462-3.363-3.461 6.056-3.77-6.13-6.728 3.187 1.037-7.298-8.883-.859z" style="opacity:.2;fill:url(#d);fill-opacity:1;fill-rule:evenodd;stroke:none;stroke-width:1px;stroke-linecap:butt;stroke-linejoin:miter;stroke-opacity:1"/><path d="m13.924 10.138 6.769 2.765L24.463 7l3.383 5.978 6.846-2.616-.615 7.025 6.768 1.27-4.768 5.455L41 29.792l-7 .821.154 7.174-6.462-3.363L24.077 41l-3.616-6.65-6.922 3.512 1.231-7.623L7 29.044l5.846-5.381-5-5.006 6.846-1.196Z" style="fill:none;stroke:#fff;stroke-width:1px;stroke-linecap:butt;stroke-linejoin:miter;stroke-opacity:1"/><path d="m14.692 17.461 3.385 4.185 6.077 2.391 6.308-1.942 5.615 2.017M13.924 10.138l3.922 5.081 6.23 2.466 3.77-4.707M18.077 21.646l-4.308 5.306L7 29.044" style="fill:none;stroke:#fff;stroke-width:1px;stroke-linecap:butt;stroke-linejoin:miter;stroke-opacity:1"/><path d="m12.846 23.663 5.231-2.017-.23-6.427M14.769 30.24l5.615-1.122 3.77-5.08 3.923 4.931 5.922 1.644" style="fill:none;stroke:#fff;stroke-width:1px;stroke-linecap:butt;stroke-linejoin:miter;stroke-opacity:1"/><path d="m41 29.791-6.462-2.54-6.461 1.718-3.923 5.53-3.77-5.38-6.615-2.167M34.538 27.25l-4.076-5.155M20.692 12.903l3.385 4.782 6.461-2.615 4.154-4.708M30.538 15.07l-.076 7.025M34.077 17.387l-3.616 4.708M24.077 17.685l.077 6.352M20.461 34.35l-.077-5.232M27.692 34.424l.385-5.455M24.077 41l.077-6.501" style="fill:none;stroke:#fff;stroke-width:1px;stroke-linecap:butt;stroke-linejoin:miter;stroke-opacity:1"/></svg>