<svg xmlns="http://www.w3.org/2000/svg" xmlns:xlink="http://www.w3.org/1999/xlink" width="48" height="48"><defs><linearGradient id="h" x1="25" x2="25" y1="3" y2="42.605" gradientTransform="matrix(1 0 0 1 44.644 46.568)" gradientUnits="userSpaceOnUse"><stop offset="0" stop-color="#f39c1f" style="stop-color:#f1863c;stop-opacity:1"/><stop offset="1" stop-color="#f67400" style="stop-color:#d5600f;stop-opacity:1"/></linearGradient><linearGradient id="g" x1="392.57" x2="411.57" y1="518.8" y2="537.8" gradientTransform="translate(-384.57 -499.8)" gradientUnits="userSpaceOnUse"><stop stop-color="#292c2f" style="stop-color:#00267a;stop-opacity:1"/><stop offset="1" stop-opacity="0"/></linearGradient><linearGradient xlink:href="#g" id="j" x1="10" x2="44" y1="10" y2="44" gradientTransform="translate(.47 .47)scale(1.17647)" gradientUnits="userSpaceOnUse"/><linearGradient xlink:href="#h" id="i" x1="409.42" x2="409.42" y1="506.8" y2="540.8" gradientTransform="translate(-456.67 -592.235)scale(1.17647)" gradientUnits="userSpaceOnUse"/></defs><rect width="40" height="40" x="4" y="4" ry="0" style="opacity:1;fill:url(#i);fill-opacity:1;stroke:none;stroke-width:2;stroke-miterlimit:4;stroke-dasharray:none;stroke-opacity:1"/><path d="M4 42.944h40V44H4z" style="opacity:.50400002;fill:#1f3c64;fill-opacity:1;stroke:none;stroke-width:2;stroke-miterlimit:4;stroke-dasharray:none;stroke-opacity:.73929958"/><path d="M25 44h19V20L32 8l-3 3-1.281-1.765L22 19l-5.642 8.613-3.435 2.37L5.9 26.021Z" style="opacity:.2;fill:url(#j);fill-opacity:1;fill-rule:evenodd;stroke:none;stroke-width:1px;stroke-linecap:butt;stroke-linejoin:miter;stroke-opacity:1"/><path d="M30.652 6.887a.7.7 0 0 1 .18.027c-.034-.018.294.224.564.506.271.282.554.628.713.871.491.748 1.654 3.109 2.223 4.582.699 1.81 1.293 3.484 2.525 7.12 1.24 3.656 2.04 5.952 2.418 6.929.17.44.42 1.084.55 1.426.14.368.39.988.571 1.42.169.399.403.992.495 1.248.12.336.35.91.535 1.347.03.073.056.142.09.223-.014-.013-.024-.02-.037-.033-.374-.363-.815-.76-1.213-1.1s-.687-.59-1.012-.787v.002a28 28 0 0 1-.397-.262c-.448-.302-.8-.472-1.378-.668-.78-.263-1.528-.338-2.266-.197-.95.182-1.79.607-2.834 1.379-.747.552-1.97 1.772-2.668 2.602-.243.288-.599.705-.774.904l-.9 1.031c-.3.345-.825.935-1.15 1.295-.336.371-.572.627-.737.83h-.002c.103-.127-.06.06-.21.201-.152.14-.352.322-.563.51-.423.376-.906.792-1.12.961-.198.158-.576.411-.648.451-.32.18-.683.367-.988.516-.304.148-.609.27-.582.261-.073.023-.197.053-.307.083-.094-.223-.178-.42-.283-.682a41 41 0 0 0-.533-1.272 21 21 0 0 1-.38-.927 18 18 0 0 0-.55-1.266 21 21 0 0 1-.437-.982c-.247-.641-.535-1.18-1.143-2.16-.484-.783-.718-1.092-1.19-1.58-.294-.307-.614-.374-.91-.56.241-.225.486-.434.721-.671a41 41 0 0 0 2.123-2.315 44 44 0 0 0 1.948-2.468 47 47 0 0 0 1.775-2.602 50 50 0 0 0 1.604-2.713 55 55 0 0 0 2.703-5.674 59 59 0 0 0 2.039-5.867c.12-.418.178-.751.25-1.06.188-.241.389-.48.418-.504.138-.115.217-.175.351-.303v.002c-.009.009-.067.024.174-.059a.7.7 0 0 1 .242-.015M19.482 24.5a42 42 0 0 1-1.857 2.357q-.97 1.141-2.02 2.2c-.485.489-1.009.96-1.54 1.433-.339.036-.641.062-1.022.274.11-.061-.138.054-.32.13a17 17 0 0 1-.59-.412 72 72 0 0 0-1.526-1.1c-.15-.102-.406-.283-.533-.376-.681-.502-1.313-.963-1.6-1.149a22 22 0 0 1-.564-.4 32 32 0 0 0-.748-.535c-.15-.102-.404-.281-.531-.375-.31-.229-.465-.333-.73-.526.092-.04.887-.37 1.624-.658.385-.15.752-.297 1.037-.412.286-.115.363-.133.6-.254-.07.036.356-.153.733-.304.376-.152.803-.32 1.056-.413.252-.092.615-.245.9-.376.195-.09.86-.364 1.374-.561.54-.207 1.13-.443 1.41-.566.207-.092.56-.244.754-.323.151-.061.29-.125.425-.203s.256-.115.465-.392z" style="color:#000;font-style:normal;font-variant:normal;font-weight:400;font-stretch:normal;font-size:medium;line-height:normal;font-family:sans-serif;font-variant-ligatures:normal;font-variant-position:normal;font-variant-caps:normal;font-variant-numeric:normal;font-variant-alternates:normal;font-feature-settings:normal;text-indent:0;text-align:start;text-decoration:none;text-decoration-line:none;text-decoration-style:solid;text-decoration-color:#000;letter-spacing:normal;word-spacing:normal;text-transform:none;writing-mode:lr-tb;direction:ltr;text-orientation:mixed;dominant-baseline:auto;baseline-shift:baseline;text-anchor:start;white-space:normal;shape-padding:0;clip-rule:nonzero;display:inline;overflow:visible;visibility:visible;opacity:1;isolation:auto;mix-blend-mode:normal;color-interpolation:sRGB;color-interpolation-filters:linearRGB;solid-color:#000;solid-opacity:1;vector-effect:none;fill:#fdebde;fill-opacity:1;fill-rule:nonzero;stroke:none;stroke-width:2;stroke-linecap:butt;stroke-linejoin:miter;stroke-miterlimit:4;stroke-dasharray:none;stroke-dashoffset:0;stroke-opacity:1;color-rendering:auto;image-rendering:auto;shape-rendering:auto;text-rendering:auto"/><path d="M27.719 9.234c-1.23 2.292-2.257 4.327-4.059 6.555-.465.432-.814.767-1.305 1.016a6 6 0 0 0-.23.138c-.415.28-.864.43-1.46.6-.232.066-1.21.552-1.378.678-.39.294-1.95 1.94-2.437 2.634a5 5 0 0 1-.399.502c-.054.06-.167.196-.172.202-.209.277-.33.314-.465.392a3.4 3.4 0 0 1-.425.203c-.194.079-.547.231-.754.323-.28.123-.87.359-1.41.566-.513.197-1.179.471-1.373.56-.286.132-.649.285-.9.377-.254.094-.681.26-1.057.413-.377.151-.802.34-.733.304l-.008.004h-.002c-.228.116-.309.137-.59.25-.285.115-.652.262-1.037.412a74 74 0 0 0-1.625.658c.266.193.42.297.73.526.128.094.383.273.532.375.186.127.505.356.748.535.223.164.524.374.565.4.285.186.918.647 1.6 1.149.126.093.382.274.532.377.305.208.9.64 1.526 1.1.212.155.418.296.59.412.182-.077.43-.192.32-.131.381-.212.683-.238 1.021-.274a34 34 0 0 0 1.541-1.433q1.05-1.059 2.02-2.2a42 42 0 0 0 1.857-2.357q.892-1.215 1.702-2.49c2.495-3.942 4.798-7.889 6.535-12.776m-5.254 8.631c-.7 1.204-1.376 2.423-2.127 3.61h.002a44 44 0 0 1-3.477 4.736q-.944 1.11-1.968 2.143c-.415.418-.88.834-1.356 1.26-.147.022-.303.081-.476.134l-.092.004s-.08.011-.112.018c-.046-.034-.087-.06-.134-.094a70 70 0 0 0-1.551-1.117h-.002c-.138-.095-.4-.28-.504-.358-.684-.503-1.293-.952-1.65-1.183.105.068-.311-.215-.516-.366-.175-.128-.36-.26-.54-.386.36-.141.706-.278.976-.387.207-.084.354-.146.54-.233l.02-.005c.062-.023.06-.023.082-.032l.172-.074a44.786 44.786 0 0 1 1.545-.617c.294-.108.662-.264.973-.406a40 40 0 0 1 1.314-.535c.549-.211 1.13-.442 1.455-.586.197-.087.556-.241.727-.311.176-.071.36-.154.548-.264.03-.016.47-.264.764-.656l.033-.037.076-.088v-.002c.183-.199.34-.403.481-.603.17-.242.684-.842 1.168-1.36s1.062-1.058 1.053-1.05c-.086.064.023-.013.127-.069.103-.056.24-.127.379-.195.275-.136.693-.295.544-.252a6.5 6.5 0 0 0 1.526-.639m-12.383 6.483.031.066-.004.014zm-.227 1.064-.046.047-.02.014zm-.154.125-.021.016q-.028.017-.04.021z" style="color:#000;font-style:normal;font-variant:normal;font-weight:400;font-stretch:normal;font-size:medium;line-height:normal;font-family:sans-serif;font-variant-ligatures:normal;font-variant-position:normal;font-variant-caps:normal;font-variant-numeric:normal;font-variant-alternates:normal;font-feature-settings:normal;text-indent:0;text-align:start;text-decoration:none;text-decoration-line:none;text-decoration-style:solid;text-decoration-color:#000;letter-spacing:normal;word-spacing:normal;text-transform:none;writing-mode:lr-tb;direction:ltr;text-orientation:mixed;dominant-baseline:auto;baseline-shift:baseline;text-anchor:start;white-space:normal;shape-padding:0;clip-rule:nonzero;display:inline;overflow:visible;visibility:visible;opacity:1;isolation:auto;mix-blend-mode:normal;color-interpolation:sRGB;color-interpolation-filters:linearRGB;solid-color:#000;solid-opacity:1;vector-effect:none;fill:#fdebde;fill-opacity:1;fill-rule:nonzero;stroke:none;stroke-width:2;stroke-linecap:square;stroke-linejoin:round;stroke-miterlimit:4;stroke-dasharray:none;stroke-dashoffset:0;stroke-opacity:1;paint-order:normal;color-rendering:auto;image-rendering:auto;shape-rendering:auto;text-rendering:auto"/><path d="m16.197 22.036 2.917 2.21" style="fill:none;stroke:#fdebde;stroke-width:1px;stroke-linecap:butt;stroke-linejoin:miter;stroke-opacity:1"/></svg>