<svg xmlns="http://www.w3.org/2000/svg" xmlns:xlink="http://www.w3.org/1999/xlink" width="48" height="48"><defs><linearGradient id="b" x2="0" y1="44" y2="4" gradientUnits="userSpaceOnUse"><stop stop-color="#bd8d48"/><stop offset="1" stop-color="#e8b971"/></linearGradient><linearGradient id="c" x1="4" x2="4" y1="3" y2="45" gradientUnits="userSpaceOnUse"><stop offset="0" stop-color="#383e51"/><stop offset="1" stop-opacity="0"/></linearGradient><linearGradient id="a" x2="0" y1="34" y2="14" gradientTransform="translate(379.57 499.8)" gradientUnits="userSpaceOnUse"><stop stop-color="#ec0000"/><stop offset="1" stop-color="#ff2020"/></linearGradient><linearGradient xlink:href="#a" id="e" x1="39" x2="8" y1="38" y2="9" gradientUnits="userSpaceOnUse"/></defs><path d="M0 4h48v40H0z" style="fill:#343b40;stroke-width:2.79999995;stroke-opacity:.55;fill-opacity:1"/><path d="M0 4v40h48V4H2Zm2 2h44v36H2Z" style="fill:url(#b);stroke-width:2.79999995;stroke-opacity:.55"/><path d="M0 43h48v1H0z" style="fill:#aa7f41;stroke-width:2.79999995;stroke-opacity:.55"/><path d="M2 6v36h44V6H3Zm1 1h42v34H3Z" style="color:#000;color-interpolation:sRGB;color-interpolation-filters:linearRGB;fill:#aa7f41;fill-opacity:.49800002;color-rendering:auto;image-rendering:auto;shape-rendering:auto;text-rendering:auto"/><path d="M15.264 8c-1.476 0-2.952 1.166-3.182 2.494-.197 1.199.36 1.91 1.87 2.363-.919.778-1.51 1.75-1.706 2.819-.197 1.23.164 2.267 1.213 3.433-1.279.842-1.901 1.33-2.59 1.977-1.41 1.36-2.459 3.334-2.754 5.213-.459 2.559.492 4.923 2.295 5.894.984.519 2.197.713 4.197.713.59 0 1.313-.03 2.887-.095 1.279-.065 2.13.873 1.934 2.136-.197 1.231-1.246 2.139-2.46 2.139-.163 0-.786-.066-1.41-.195-.754-.098-1.017-.13-1.312-.13-.82 0-1.474.55-1.605 1.36-.197 1.101.785 1.879 2.392 1.879 1.541 0 2.821-.648 4.133-2.041 1.148-1.23 1.902-2.721 2.164-4.211.047-.261.067-.508.074-.748h16.838L40 27.115h-.846c-1.04 2.615-2.017 3.172-5.79 3.172h-8.688l6.865-9.35-5.27-8.597h5.499c3.774 0 4.78.752 5.334 3.988h.847L37.625 11H21.553l7.093 11.54-7.26 9.93c-.084-.855-.445-1.557-1.073-2.09-.656-.582-1.376-.745-2.852-.745h-2.854c-1.41 0-2.49-.13-3.048-.389-1.28-.615-2-2.136-1.705-3.82.393-2.3 2.131-4.244 5.148-5.799.853.324 1.507.422 2.523.422 2.591 0 4.265-.681 4.461-1.815.131-.745-.656-1.166-2.1-1.166-1.278 0-2.524.358-4.984 1.362-1.246-1.004-1.574-1.653-1.41-2.69.164-1.004.951-1.976 2.328-2.883 1.64-.064 2.788-.257 3.772-.71 1.18-.551 2.065-1.361 2.164-2.106.131-.615-.361-.973-1.28-.973-1.213 0-2.688.746-5.081 2.592-1.05-.032-1.641-.648-1.477-1.49.098-.713.755-1.198 1.969-1.522l.097-.584c-.295-.032-.556-.064-.72-.064" style="fill:#d6d6d6;fill-opacity:1;stroke-width:.27158287"/><path d="m36 14-5 1-7.381 16L16 16l-4 17.426L26 44h22V29Z" style="opacity:.2;fill:url(#c)"/><path d="M12.057 14 12 34h4V17l7.055 17h1.89L32 17v17h4l-.057-20H30l-6 14-6-14z" style="fill:url(#e);stroke-width:.30405742;fill-opacity:1"/><path d="m35.002 14 .055 19H32v1h4l-.057-20zM15 17l.057 16h-3.055L12 34h4V17zm16 0-6.998 16h-1.361l.414 1h1.89L32 17zM11.057 32v1l.002-1z" style="fill:#fff;fill-opacity:.29411765;stroke-width:.30405742"/></svg>