<svg xmlns="http://www.w3.org/2000/svg" width="48" height="48" viewBox="-2.01 0 48 48"><path d="M15.413 3.737A12.423 12.526 0 0 0 2.99 16.263a12.423 12.526 0 0 0 2.96 8.097 12.423 12.526 0 0 0-2.96 8.114A12.423 12.526 0 0 0 15.413 45a12.423 12.526 0 0 0 11.918-9.023 11.692 11.79 0 0 0 1.967.18A11.692 11.79 0 0 0 40.99 24.369a11.692 11.79 0 0 0-11.692-11.79 11.692 11.79 0 0 0-1.97.17 12.423 12.526 0 0 0-11.915-9.011" style="opacity:.2;stroke-width:1"/><ellipse cx="29.298" cy="23.632" rx="11.692" ry="11.789" style="fill:#5f81d4;stroke-width:1"/><ellipse cx="15.413" cy="15.526" rx="12.423" ry="12.526" style="fill:#5f81d4;stroke-width:1"/><path d="M15.413 3A12.423 12.526 0 0 0 2.99 15.526a12.423 12.526 0 0 0 .016.31 12.423 12.526 0 0 1 12.407-12.1 12.423 12.526 0 0 1 11.916 9.011 11.692 11.79 0 0 1 1.969-.168 11.692 11.79 0 0 1 11.676 11.48 11.692 11.79 0 0 0 .016-.427 11.692 11.79 0 0 0-11.692-11.79 11.692 11.79 0 0 0-1.969.168A12.423 12.526 0 0 0 15.413 3" style="opacity:.2;fill:#fff;stroke-width:1"/><ellipse cx="15.413" cy="31.737" rx="12.423" ry="12.526" style="fill:#5f81d4;stroke-width:1"/><path d="M23.452 9.632A7.308 7.368 0 0 0 16.144 17a7.308 7.368 0 0 0 7.308 7.368A7.308 7.368 0 0 0 30.759 17a7.308 7.368 0 0 0-7.307-7.368m0 14.736a7.308 7.368 0 0 0-7.308 7.369 7.308 7.368 0 0 0 7.308 7.368 7.308 7.368 0 0 0 7.307-7.368 7.308 7.368 0 0 0-7.307-7.369M10.298 17a7.308 7.368 0 0 0-7.308 7.368 7.308 7.368 0 0 0 7.308 7.369 7.308 7.368 0 0 0 7.307-7.369A7.308 7.368 0 0 0 10.298 17" style="opacity:.2;stroke-width:1"/><ellipse cx="10.298" cy="23.632" rx="7.308" ry="7.368" style="fill:#f2f2f2;stroke-width:1"/><ellipse cx="23.452" cy="31" rx="7.308" ry="7.368" style="fill:#f2f2f2;stroke-width:1"/><ellipse cx="23.452" cy="16.263" rx="7.308" ry="7.368" style="fill:#f2f2f2;stroke-width:1"/><path d="M10.775 9.714c.502-.25.985.149.985.149l11.53 6.777 11.148 6.56s.706.342.706 1.16c0 .82-.712 1.088-.712 1.088l-11.168 6.56-11.79 6.923s-.343.304-.786.11c-.507-.225-.375-.794-.375-.794V10.624s-.055-.653.462-.91" style="opacity:.2;stroke-width:1"/><path d="M10.775 8.977c.502-.25.985.15.985.15l11.53 6.776 11.148 6.56s.706.342.706 1.16c0 .82-.712 1.088-.712 1.088l-11.168 6.56-11.79 6.923s-.343.304-.786.11c-.507-.225-.375-.794-.375-.794V9.887s-.055-.653.462-.91" style="fill:#ffbf00;stroke-width:1"/></svg>