<svg xmlns="http://www.w3.org/2000/svg" xmlns:xlink="http://www.w3.org/1999/xlink" width="48" height="48"><defs><linearGradient id="c"><stop offset="0" style="stop-color:#fff;stop-opacity:1"/><stop offset="1" style="stop-color:#eea9a9;stop-opacity:1"/></linearGradient><linearGradient id="b"><stop offset="0" style="stop-color:#000;stop-opacity:1"/><stop offset="1" style="stop-color:#000;stop-opacity:0"/></linearGradient><linearGradient id="a"><stop offset="0" style="stop-color:#cf2134;stop-opacity:1"/><stop offset="1" style="stop-color:#e55a6a;stop-opacity:1"/></linearGradient><linearGradient xlink:href="#a" id="d" x1="36.771" x2="22.872" y1="43.737" y2="2.652" gradientUnits="userSpaceOnUse"/><linearGradient xlink:href="#b" id="e" x1="15.422" x2="35.019" y1="13.478" y2="33.075" gradientUnits="userSpaceOnUse"/><linearGradient xlink:href="#c" id="f" x1="14.023" x2="27.879" y1="8.129" y2="34.944" gradientUnits="userSpaceOnUse"/></defs><rect width="40" height="40" x="4.03" y="4.01" rx="3" style="fill:url(#d);fill-opacity:1"/><path d="M4.025 40.008v1c0 1.662 1.338 3 3 3h34c1.662 0 3-1.338 3-3v-1c0 1.662-1.338 3-3 3h-34c-1.662 0-3-1.338-3-3" style="opacity:.15"/><path d="m15.49 13.133-.054 12.8-3.702 5.43-1.873 2.364 10.282 10.28h20.882c1.662 0 3-1.337 3-3V22.517l-8.236-8.237-8.518 8.518-8.625-8.625z" style="opacity:.3;fill:url(#e);fill-opacity:1;stroke:none;stroke-width:2;stroke-linecap:round;stroke-linejoin:round;stroke-miterlimit:4;stroke-dasharray:none;stroke-opacity:1"/><path d="M15.52 13.002c-1.305.041-2.566.63-3.533 1.524-.981.909-1.685 2.156-1.828 3.498a4.65 4.65 0 0 0 .217 1.995c.22.637.59 1.222 1.082 1.675.58.535 1.304.872 1.97 1.29.333.209.655.44.931.723.276.282.505.617.632.994.112.335.14.697.09 1.047s-.178.688-.364.987c-.372.6-.971 1.035-1.629 1.268-.763.27-1.603.284-2.338.624a3 3 0 0 0-1.377 1.31 3.25 3.25 0 0 0-.352 1.886c.087.758.444 1.479.98 2.015a3.606 3.606 0 0 0 5.03.035c.396-.389.698-.876.867-1.409.168-.533.203-1.11.094-1.659-.084-.419-.249-.816-.401-1.214s-.296-.806-.333-1.232c-.065-.752.219-1.517.71-2.082.491-.566 1.178-.939 1.902-1.103a3.6 3.6 0 0 1 1.428-.048c.472.082.93.271 1.312.564s.688.692.858 1.147.2.967.065 1.435c-.14.478-.437.888-.74 1.281-.302.393-.618.788-.797 1.252a2.7 2.7 0 0 0-.082 1.622c.135.532.422 1.02.797 1.416.416.439.942.767 1.514.946.572.18 1.157.211 1.755.211.6 0 1.223-.031 1.795-.21a3.57 3.57 0 0 0 1.514-.947c.375-.396.662-.884.797-1.416a2.7 2.7 0 0 0-.082-1.622c-.18-.464-.495-.859-.797-1.252s-.6-.803-.74-1.281a2.3 2.3 0 0 1 .065-1.435c.17-.455.476-.854.858-1.147.383-.293.84-.482 1.312-.564a3.6 3.6 0 0 1 1.428.048c.724.164 1.41.537 1.902 1.103.491.565.775 1.33.71 2.082-.037.426-.18.834-.333 1.232-.152.398-.317.795-.4 1.214a3.36 3.36 0 0 0 .093 1.66c.169.532.47 1.019.866 1.408a3.607 3.607 0 0 0 5.03-.036 3.44 3.44 0 0 0 .98-2.014 3.25 3.25 0 0 0-.351-1.886 3 3 0 0 0-1.377-1.31c-.735-.34-1.575-.353-2.338-.624-.658-.233-1.257-.669-1.629-1.268a2.6 2.6 0 0 1-.364-.987c-.05-.35-.022-.712.09-1.047.127-.377.356-.712.632-.994s.598-.514.93-.723c.667-.418 1.392-.755 1.971-1.29a4.1 4.1 0 0 0 1.082-1.675 4.65 4.65 0 0 0 .217-1.995c-.143-1.342-.847-2.59-1.828-3.498-.967-.893-2.228-1.483-3.533-1.524a4.5 4.5 0 0 0-1.913.354 4.1 4.1 0 0 0-1.562 1.17c-.477.587-.777 1.3-1.052 2.007-.274.708-.534 1.43-.95 2.063-.686 1.044-1.768 2.035-3.003 2.035s-2.317-.991-3.003-2.035c-.416-.633-.676-1.355-.95-2.063-.275-.708-.575-1.42-1.052-2.007a4.1 4.1 0 0 0-1.563-1.17 4.5 4.5 0 0 0-1.912-.354zM24 22.666a2.002 2.035 0 0 1 2.002 2.035A2.002 2.035 0 0 1 24 26.735a2.002 2.035 0 0 1-2.002-2.034A2.002 2.035 0 0 1 24 22.666" style="fill:url(#f);fill-opacity:1"/></svg>