<svg xmlns="http://www.w3.org/2000/svg" width="48" height="48" xmlns:v="https://vecta.io/nano"><defs><linearGradient id="A" x1="3" x2="45" y1="43.95" y2="3" gradientUnits="userSpaceOnUse"><stop offset="0" stop-color="#b3edff"/><stop offset="1" stop-color="#68aeff"/></linearGradient><filter id="B" x="-.003" y="-1.003" width="1.005" height="3.006" color-interpolation-filters="sRGB"><feGaussianBlur stdDeviation="0.023 3.066"/></filter><linearGradient id="C" x1="21.225" y1="42.876" x2="41.69" y2="38.281" gradientUnits="userSpaceOnUse"><stop offset="0" stop-color="#c3e8fb"/><stop offset="1" stop-color="#ebebeb"/></linearGradient></defs><rect width="42" height="42" x="3" y="3.1" rx="21" fill="#007194" paint-order="stroke fill markers"/><rect width="42" height="40.95" x="3" y="3" rx="21" ry="20.475" fill="url(#A)"/><path fill="#0c5399" d="M38.492 32.79c-1.724 1.696-4.401 2.1-6.53 2.11-6.654 0-12.451-5.117-12.451-10.99a4.43 4.43 0 0 1 2.31-3.84c-6.018.253-7.565 6.525-7.565 10.199 0 10.387 9.575 11.44 11.638 11.44 1.112 0 2.79-.323 3.797-.641l.183-.061a18.05 18.05 0 0 0 9.365-7.424c.313-.492-.238-1.077-.748-.793z"/><path fill="#0680d7" d="M20.328 39.943a11.1 11.1 0 0 1-3.198-3c-4.156-5.694-1.632-13.758 4.692-16.872.44-.207 1.189-.58 2.186-.563a4.55 4.55 0 0 1 3.612 1.828 4.5 4.5 0 0 1 .895 2.624c0-.03 3.439-11.192-11.25-11.192-6.173 0-11.25 5.857-11.25 10.996a18.3 18.3 0 0 0 1.703 7.874 18 18 0 0 0 21.99 9.435c-2.966.935-6.732.524-9.37-1.124z"/><path fill="#4fe3b2" d="M27.42 26.133c-.114.147-.464.351-.464.796 0 .367.24.72.663 1.016 2.023 1.406 5.835 1.22 5.845 1.22a8.4 8.4 0 0 0 4.255-1.173c2.645-1.545 4.273-3.577 4.28-6.638.037-3.152-1.125-5.247-1.594-6.174C37.425 9.352 30.993 6 23.999 6 14.156 6 6.14 13.904 6 23.743c.067-5.137 5.175-9.904 11.25-9.904.492 0 3.299.048 5.906 1.416 2.297 1.206 3.5 3.28 4.338 4.725 1.216 2.294 1.268 4.402-.073 6.153z"/><rect width="24" height="12" x="20.5" y="33" fill="url(#C)" rx="2.769" ry="2.571"/><path d="M20.518 35.256l6.172 1.578 6.327.332 7.864 5.428-12.415-1.59-7.948 1.59z" transform="matrix(.709596 0 0 .540493 5.872879 18.036239)" fill="#4c88b1" fill-rule="evenodd" filter="url(#B)"/><g opacity=".85"><path d="M24.66 38.398q.326 0 .494-.143t.168-.421q0-.275-.168-.418-.168-.147-.493-.147H23.9v1.129zm.047 2.333q.414 0 .622-.175.21-.175.21-.53 0-.346-.207-.517-.207-.175-.625-.175H23.9v1.397zm1.279-1.919q.443.129.686.476.243.346.243.85 0 .771-.522 1.15-.521.379-1.586.379h-2.283v-5.334h2.065q1.111 0 1.608.336.5.336.5 1.075 0 .39-.182.665-.183.271-.529.403M28.1 36.333h3.712v1.04h-2.336v.993h2.197v1.04h-2.197v1.221h2.415v1.04H28.1zM32.463 36.333h4.915v1.04H35.61v4.294h-1.376v-4.294h-1.771ZM40.757 40.695h-2.15l-.34.972h-1.382l1.976-5.333h1.64l1.975 5.333h-1.383zm-1.807-.99h1.46l-.728-2.121z"/></g></svg>