<svg xmlns="http://www.w3.org/2000/svg" xmlns:xlink="http://www.w3.org/1999/xlink" width="48" height="48"><defs><linearGradient xlink:href="#a" id="d" x1="3" x2="45" y1="43.95" y2="3" gradientUnits="userSpaceOnUse"/><linearGradient id="a"><stop offset="0" style="stop-color:#b3edff;stop-opacity:1"/><stop offset="1" style="stop-color:#68aeff;stop-opacity:1"/></linearGradient></defs><rect width="42" height="42" x="3" y="3.1" rx="21" ry="21" style="fill:#007194;fill-opacity:1;stroke-width:1.04998;paint-order:stroke fill markers"/><rect width="42" height="40.95" x="3" y="3" rx="21" ry="20.475" style="fill:url(#d);fill-opacity:1;stroke-width:1"/><path fill="#0c5399" d="M38.492 32.79c-1.724 1.696-4.401 2.1-6.53 2.11-6.654 0-12.451-5.117-12.451-10.99a4.43 4.43 0 0 1 2.31-3.84c-6.018.253-7.565 6.525-7.565 10.199 0 10.387 9.575 11.44 11.638 11.44 1.112 0 2.79-.323 3.797-.641l.183-.061a18.05 18.05 0 0 0 9.365-7.424c.313-.492-.238-1.077-.748-.793z" class="cls-1" style="stroke-width:.861446"/><path fill="#0680d7" d="M20.328 39.943a11.1 11.1 0 0 1-3.198-3c-4.156-5.694-1.632-13.758 4.692-16.872.44-.207 1.189-.58 2.186-.563a4.55 4.55 0 0 1 3.612 1.828 4.5 4.5 0 0 1 .895 2.624c0-.03 3.439-11.192-11.25-11.192-6.173 0-11.25 5.857-11.25 10.996a18.3 18.3 0 0 0 1.703 7.874c3.875 8.267 13.327 12.323 21.99 9.435-2.966.935-6.732.524-9.37-1.124z" class="cls-3" style="stroke-width:.861446"/><path fill="#4fe3b2" d="M27.42 26.133c-.114.147-.464.351-.464.796 0 .367.24.72.663 1.016 2.023 1.406 5.835 1.22 5.845 1.22a8.4 8.4 0 0 0 4.255-1.173c2.645-1.545 4.273-3.577 4.28-6.638.037-3.152-1.125-5.247-1.594-6.174C37.425 9.352 30.993 6 23.999 6 14.156 6 6.14 13.904 6 23.743c.067-5.137 5.175-9.904 11.25-9.904.492 0 3.299.048 5.906 1.416 2.297 1.206 3.5 3.28 4.338 4.725 1.216 2.294 1.268 4.402-.073 6.153z" class="cls-5" style="stroke-width:.861446"/></svg>