<svg xmlns="http://www.w3.org/2000/svg" xmlns:xlink="http://www.w3.org/1999/xlink" width="48" height="48"><defs><linearGradient id="c" x2="0" y1="547.8" y2="536.8" gradientTransform="matrix(1 0 0 .54545 -384.57 -255.8)" gradientUnits="userSpaceOnUse"><stop stop-color="#c6cdd1"/><stop offset="1" stop-color="#e0e5e7"/></linearGradient><linearGradient id="d" x2="0" y1="536.8" y2="503.8" gradientTransform="translate(-384.57 -499.8)" gradientUnits="userSpaceOnUse"><stop stop-color="#2a2c2f"/><stop offset="1" stop-color="#424649"/></linearGradient><linearGradient xlink:href="#a" id="f" x1="252.725" x2="255.415" y1="388.505" y2="-76.617" gradientTransform="matrix(.0472 0 0 .04427 12.004 9.744)" gradientUnits="userSpaceOnUse"/><linearGradient id="a"><stop stop-color="#f9f9f9"/><stop offset="1" stop-color="#afafaf"/></linearGradient><linearGradient id="b"><stop stop-color="#c52828"/><stop offset="1" stop-color="#ff5454"/></linearGradient><linearGradient xlink:href="#b" id="e" x2="0" y1="534.798" y2="505.798" gradientTransform="matrix(1 0 0 1.03448 -384.568 -517.242)" gradientUnits="userSpaceOnUse"/></defs><path d="M18 37v6h12v-6z" style="fill:url(#c)"/><rect width="48" height="36" y="4" rx="5" ry="5" style="fill:url(#d)"/><path d="M13 42h22v2H13Z" style="fill:#99a1a7"/><path d="M45.998 35.998V8.982a2.99 2.99 0 0 0-.87-2.105 3 3 0 0 0-2.124-.875h-38a2.987 2.987 0 0 0-3 2.988v27.008z" style="fill:url(#e)"/><path d="M35.799 16.748c-.134-1.498-1.086-3.387-3.044-3.455-5.466-.345-11.942-.439-17.507 0-1.727.181-2.91 2.154-3.04 3.652-.272 3.147-.272 4.938 0 8.086.131 1.498 1.285 3.482 3.043 3.69 5.631.344 12.075.394 17.507 0 1.704-.277 2.912-2.192 3.042-3.69.272-3.149.272-5.136 0-8.283zM21.002 24.98v-8.07l7.5 4.035z" style="opacity:.878;fill:url(#f)"/></svg>