<svg xmlns="http://www.w3.org/2000/svg" width="48" height="48"><g transform="translate(-384.571 -499.798)"><rect width="40" height="40" x="388.6" y="503.77" rx="3" ry="3" style="fill:#ccc;fill-opacity:1"/><path d="M388.596 539.773v1c0 1.662 1.338 3 3 3h34c1.662 0 3-1.338 3-3v-1c0 1.662-1.338 3-3 3h-34c-1.662 0-3-1.338-3-3" style="opacity:.15;fill:#000;fill-opacity:1"/><circle cx="408.596" cy="523.773" r="17.045" style="fill:#333;fill-opacity:1;stroke:none;stroke-width:.99999994"/><circle cx="408.596" cy="523.773" r="7.102" style="fill:#4d4d4d;fill-opacity:1;stroke:none;stroke-width:.99999994"/><circle cx="408.596" cy="523.773" r="5.208" style="fill:#1abc9c;fill-opacity:1;stroke:none;stroke-width:.99999994"/><circle cx="408.596" cy="523.773" r=".473" style="fill:#333;fill-opacity:1;stroke:none;stroke-width:.99999994"/><circle cx="408.596" cy="523.773" r="16.985" style="fill:none;stroke:#4d4d4d;stroke-width:.09469177;stroke-miterlimit:4;stroke-dasharray:none;stroke-opacity:1"/><circle cx="408.596" cy="523.773" r="16.039" style="fill:none;stroke:#4d4d4d;stroke-width:.09469179;stroke-miterlimit:4;stroke-dasharray:none;stroke-opacity:1"/><circle cx="408.596" cy="523.773" r="15.565" style="fill:none;stroke:#4d4d4d;stroke-width:.09469179;stroke-miterlimit:4;stroke-dasharray:none;stroke-opacity:1"/><circle cx="408.596" cy="523.773" r="15.092" style="fill:none;stroke:#4d4d4d;stroke-width:.09469179;stroke-miterlimit:4;stroke-dasharray:none;stroke-opacity:1"/><circle cx="408.596" cy="523.773" r="14.618" style="fill:none;stroke:#4d4d4d;stroke-width:.09469178;stroke-miterlimit:4;stroke-dasharray:none;stroke-opacity:1"/><circle cx="408.596" cy="523.773" r="14.145" style="fill:none;stroke:#4d4d4d;stroke-width:.09469179;stroke-miterlimit:4;stroke-dasharray:none;stroke-opacity:1"/><circle cx="408.596" cy="523.773" r="13.672" style="fill:none;stroke:#4d4d4d;stroke-width:.47345886;stroke-miterlimit:4;stroke-dasharray:none;stroke-opacity:1"/><circle cx="408.596" cy="523.773" r="13.198" style="fill:none;stroke:#4d4d4d;stroke-width:.09469182;stroke-miterlimit:4;stroke-dasharray:none;stroke-opacity:1"/><circle cx="408.596" cy="523.773" r="12.725" style="fill:none;stroke:#4d4d4d;stroke-width:.09469182;stroke-miterlimit:4;stroke-dasharray:none;stroke-opacity:1"/><circle cx="408.596" cy="523.773" r="12.251" style="fill:none;stroke:#4d4d4d;stroke-width:.09469179;stroke-miterlimit:4;stroke-dasharray:none;stroke-opacity:1"/><circle cx="408.596" cy="523.773" r="11.778" style="fill:none;stroke:#4d4d4d;stroke-width:.09469179;stroke-miterlimit:4;stroke-dasharray:none;stroke-opacity:1"/><circle cx="408.596" cy="523.773" r="11.304" style="fill:none;stroke:#4d4d4d;stroke-width:.09469178;stroke-miterlimit:4;stroke-dasharray:none;stroke-opacity:1"/><circle cx="408.596" cy="523.773" r="10.831" style="fill:none;stroke:#4d4d4d;stroke-width:.09469177;stroke-miterlimit:4;stroke-dasharray:none;stroke-opacity:1"/><circle cx="408.596" cy="523.773" r="10.357" style="fill:none;stroke:#4d4d4d;stroke-width:.47345892;stroke-miterlimit:4;stroke-dasharray:none;stroke-opacity:1"/><circle cx="408.596" cy="523.773" r="9.884" style="fill:none;stroke:#4d4d4d;stroke-width:.09469179;stroke-miterlimit:4;stroke-dasharray:none;stroke-opacity:1"/><circle cx="408.596" cy="523.773" r="9.411" style="fill:none;stroke:#4d4d4d;stroke-width:.09469179;stroke-miterlimit:4;stroke-dasharray:none;stroke-opacity:1"/><circle cx="408.596" cy="523.773" r="8.937" style="fill:none;stroke:#4d4d4d;stroke-width:.09469179;stroke-miterlimit:4;stroke-dasharray:none;stroke-opacity:1"/><circle cx="408.596" cy="523.773" r="8.464" style="fill:none;stroke:#4d4d4d;stroke-width:.09469179;stroke-miterlimit:4;stroke-dasharray:none;stroke-opacity:1"/><circle cx="408.596" cy="523.773" r="7.99" style="fill:none;stroke:#4d4d4d;stroke-width:.09469179;stroke-miterlimit:4;stroke-dasharray:none;stroke-opacity:1"/><circle cx="408.596" cy="523.773" r="7.517" style="fill:none;stroke:#4d4d4d;stroke-width:.09469179;stroke-miterlimit:4;stroke-dasharray:none;stroke-opacity:1"/><circle cx="408.596" cy="523.773" r="16.808" style="fill:none;stroke:#4d4d4d;stroke-width:.47345892;stroke-miterlimit:4;stroke-dasharray:none;stroke-opacity:1"/><circle cx="393.32" cy="509.701" r="2.624" style="opacity:.98000004;fill:#4aaee8;fill-opacity:1;stroke:none;stroke-width:3.77952766;stroke-miterlimit:4;stroke-dasharray:none;stroke-opacity:.99607843"/><path d="M390.71 509.437a3 3 0 0 0-.014.264 2.624 2.624 0 0 0 2.624 2.624 2.624 2.624 0 0 0 2.624-2.624 3 3 0 0 0-.013-.242 2.624 2.624 0 0 1-2.61 2.361 2.624 2.624 0 0 1-2.611-2.383" style="opacity:.3;fill:#000;fill-opacity:1;stroke:none;stroke-width:3.77952766;stroke-miterlimit:4;stroke-dasharray:none;stroke-opacity:.99607843"/><g style="opacity:.3" transform="translate(333.18 480.736)scale(.08417)"><path d="m722.123 354.196 32.69 180.554s5.675 35.425 29.136 48.184 58.695 27.835 58.695 27.835" style="fill:none;fill-rule:evenodd;stroke:#000;stroke-width:15;stroke-linecap:round;stroke-linejoin:miter;stroke-miterlimit:4;stroke-dasharray:none;stroke-opacity:1"/><rect width="30.139" height="43.958" x="-201.18" y="967.75" rx="0" ry="0" style="opacity:1;fill:#000;fill-opacity:.99607843;stroke:#87e1d0;stroke-width:0;stroke-linejoin:round;stroke-miterlimit:4;stroke-dasharray:none;stroke-opacity:.99607843" transform="rotate(-64.35)"/><path d="m698.352 338.569 9.971 50.668 17.628 34.784 13.68-2.495 3.641-39.707-9.97-50.669c-11.943-3.212-29.047 2.066-34.95 7.419z" style="opacity:1;fill:#000;fill-opacity:.99607843;stroke:#000;stroke-width:0;stroke-linecap:round;stroke-linejoin:miter;stroke-miterlimit:0;stroke-dasharray:none;stroke-opacity:.99607843"/></g><path d="m393.436 510.045 2.751 15.198s.478 2.981 2.453 4.055 4.94 2.343 4.94 2.343" style="fill:none;fill-rule:evenodd;stroke:#4aaee8;stroke-width:1.26255774;stroke-linecap:round;stroke-linejoin:miter;stroke-miterlimit:4;stroke-dasharray:none;stroke-opacity:1"/><rect width="2.537" height="3.7" x="-306.07" y="589.51" rx="0" ry="0" style="opacity:.3;fill:#000;fill-opacity:1;stroke:#87e1d0;stroke-width:0;stroke-linejoin:round;stroke-miterlimit:4;stroke-dasharray:none;stroke-opacity:.99607843" transform="rotate(-64.35)"/><rect width="2.537" height="3.7" x="-305.85" y="589.21" rx="0" ry="0" style="opacity:1;fill:#2c99d8;fill-opacity:.99607843;stroke:#87e1d0;stroke-width:0;stroke-linejoin:round;stroke-miterlimit:4;stroke-dasharray:none;stroke-opacity:.99607843" transform="rotate(-64.35)"/><path d="m391.728 509.38.839 4.265 1.484 2.928 1.151-.21.307-3.342-.84-4.265c-1.005-.27-2.444.174-2.941.624z" style="opacity:.3;fill:#000;fill-opacity:.99607843;stroke:#87e1d0;stroke-width:0;stroke-linecap:round;stroke-linejoin:miter;stroke-miterlimit:0;stroke-dasharray:none;stroke-opacity:.99607843"/><path d="m391.597 508.772.84 4.265 1.483 2.928 1.152-.21.306-3.342-.839-4.265c-1.005-.27-2.445.174-2.942.624z" style="opacity:1;fill:#2c99d8;fill-opacity:.99607843;stroke:#87e1d0;stroke-width:0;stroke-linecap:round;stroke-linejoin:miter;stroke-miterlimit:0;stroke-dasharray:none;stroke-opacity:.99607843"/></g></svg>