<svg xmlns="http://www.w3.org/2000/svg" xmlns:xlink="http://www.w3.org/1999/xlink" width="48" height="48" version="1.0"><defs><linearGradient id="a"><stop offset="0" style="stop-color:#d2d2d2;stop-opacity:1"/><stop offset="1" style="stop-color:#fff;stop-opacity:1"/></linearGradient><linearGradient id="e"><stop offset="0" style="stop-color:#fff;stop-opacity:1"/><stop offset="1" style="stop-color:#c2bfbf;stop-opacity:.99607843"/></linearGradient><linearGradient id="c"><stop offset="0" style="stop-color:#878787;stop-opacity:1"/><stop offset="1" style="stop-color:#000;stop-opacity:.99607843"/></linearGradient><linearGradient xlink:href="#e" id="h" x1="0" x2="1" y1=".5" y2=".5" gradientUnits="objectBoundingBox" spreadMethod="pad"/><linearGradient xlink:href="#c" id="g" x1="0" x2="1" y1=".5" y2=".5" gradientUnits="objectBoundingBox" spreadMethod="pad"/><linearGradient xlink:href="#p" id="s" x1="3" x2="45" y1="43.95" y2="3" gradientTransform="translate(0 -.1)" gradientUnits="userSpaceOnUse"/><linearGradient id="p"><stop offset="0" style="stop-color:#00b4ed;stop-opacity:1"/><stop offset="1" style="stop-color:#0052b2;stop-opacity:1"/></linearGradient><linearGradient xlink:href="#q" id="t" x1="-31.298" x2="-16.835" y1="39.478" y2="39.478" gradientTransform="matrix(.72325 0 0 .72324 59.892 -.717)" gradientUnits="userSpaceOnUse"/><linearGradient id="q"><stop offset="0" stop-color="#091b2b"/><stop offset="1" stop-color="#162034"/></linearGradient><linearGradient id="u" x1="-27.96" x2="-21.514" y1="46.059" y2="31.704" gradientTransform="matrix(.72325 0 0 .72324 59.892 -.717)" gradientUnits="userSpaceOnUse"><stop offset="0" stop-color="#899eb7"/><stop offset=".199" stop-color="#41566f"/><stop offset=".354" stop-color="#506482"/><stop offset=".531" stop-color="#2e435c"/><stop offset=".733" stop-color="#8a9fba"/><stop offset=".897" stop-color="#6c80a0"/><stop offset="1" stop-color="#788aa9"/></linearGradient><linearGradient xlink:href="#q" id="v" x1="-51.246" x2="-23.274" y1="33.073" y2="33.073" gradientTransform="matrix(.72325 0 0 .72324 59.936 -.71)" gradientUnits="userSpaceOnUse"/><linearGradient id="x" x1="-48.424" x2="-40.697" y1="25.307" y2="32.289" gradientTransform="matrix(.72325 0 0 .72325 60.035 -.703)" gradientUnits="userSpaceOnUse"><stop offset="0" stop-color="#2f4661"/><stop offset="1" stop-color="#e5edf5" stop-opacity="0"/></linearGradient><linearGradient id="y" x1="-38.281" x2="-33.721" y1="34.74" y2="23.357" gradientTransform="matrix(.72325 0 0 .72325 60.035 -.703)" gradientUnits="userSpaceOnUse"><stop offset="0" stop-color="#ebf1f8" stop-opacity="0"/><stop offset="1" stop-color="#516988"/></linearGradient><linearGradient id="z" x1="-48.412" x2="-40.697" y1="25.291" y2="31.799" gradientTransform="matrix(.72325 0 0 .72325 60.035 -.703)" gradientUnits="userSpaceOnUse"><stop offset="0" stop-color="#2a445b"/><stop offset="1" stop-color="#ebf1f8" stop-opacity=".033"/></linearGradient><linearGradient id="A" x1="-38.281" x2="-36.684" y1="34.74" y2="43.168" gradientTransform="matrix(.72325 0 0 .72325 60.035 -.703)" gradientUnits="userSpaceOnUse"><stop offset="0" stop-color="#ebf1f8" stop-opacity=".001"/><stop offset="1" stop-color="#5b7492"/></linearGradient><linearGradient id="C" x1="-43.583" x2="-38.072" y1="16.34" y2="12.2" gradientTransform="matrix(.64238 0 0 .64238 22.363 23.72)" gradientUnits="userSpaceOnUse"><stop offset="0" stop-color="#154eaf"/><stop offset="1" stop-color="#144cb1" stop-opacity="0"/></linearGradient><linearGradient id="E" x1="7" x2="18" y1="27" y2="38" gradientUnits="userSpaceOnUse"><stop offset="0" stop-color="#95a5a6"/><stop offset="1" stop-color="#7f8c8d"/></linearGradient><linearGradient xlink:href="#r" id="F" x1="12.495" x2="12.495" y1="24.724" y2="40.28" gradientTransform="rotate(-45 12.495 32.495)" gradientUnits="userSpaceOnUse"/><linearGradient id="r"><stop offset="0" stop-color="#667071"/><stop offset="1" stop-color="#596364"/></linearGradient><radialGradient id="w" cx="-34.024" cy="33.423" r="9.556" gradientTransform="matrix(.72325 0 0 .95107 59.851 -8.341)" gradientUnits="userSpaceOnUse"><stop offset="0" stop-color="#4f6785"/><stop offset="1" stop-color="#e7eff8"/></radialGradient><radialGradient id="B" cx="-23.051" cy="32.302" r="8.92" gradientTransform="matrix(.64238 0 0 .93737 35.162 -6.69)" gradientUnits="userSpaceOnUse"><stop offset="0" stop-color="#d7e8fe"/><stop offset="1" stop-color="#1b90de"/></radialGradient><filter id="D" width="1.13" height="1.178" x="-.065" y="-.089" color-interpolation-filters="sRGB"><feGaussianBlur stdDeviation=".245"/></filter></defs><rect width="42" height="42" x="3" y="3" rx="21" ry="21" style="fill:#007194;fill-opacity:1;stroke-width:1.04998;paint-order:stroke fill markers"/><rect width="42" height="40.95" x="3" y="2.9" rx="21" ry="20.475" style="fill:url(#s);fill-opacity:1;stroke-width:1"/><ellipse cx="42.485" cy="27.835" fill="url(#t)" fill-rule="evenodd" rx="5.23" ry="6.385" style="fill:url(#t)" transform="skewX(-11.56)scale(1 .97971)"/><ellipse cx="41.822" cy="27.46" fill="url(#u)" rx="4.555" ry="5.561" style="fill:url(#u);fill-rule:evenodd;stroke-linecap:round;stroke-linejoin:round" transform="skewX(-11.56)scale(1 .97971)"/><ellipse cx="32.988" cy="23.21" fill="url(#v)" rx="10.115" ry="11.404" style="fill:url(#v);fill-rule:evenodd;stroke-linecap:round;stroke-linejoin:round" transform="skewX(-8.069)scale(1 .9901)"/><ellipse cx="35.244" cy="23.447" fill="url(#w)" rx="6.912" ry="9.089" style="fill:url(#w);fill-rule:evenodd;stroke-linecap:round;stroke-linejoin:round" transform="skewX(-14.663)scale(1 .96743)"/><path fill="url(#x)" d="M25.022 17.59a6.45 9.422 29.531 0 0-2.625 5.093 6.45 9.422 29.531 0 0-.06 5.029l6.924-2.287 1.34-3.13z" style="fill:url(#x);stroke-width:.723226"/><path fill="url(#y)" d="m35.647 16.19-3.126 5.774-.173 2.459.846 3.832a6.45 9.422 29.531 0 0 3.026-5.572 6.45 9.422 29.531 0 0-.573-6.493" style="fill:url(#y);stroke-width:.723226"/><path fill="url(#z)" d="M31.476 13.902a6.45 9.422 29.531 0 0-6.463 3.698l5.588 4.696 1.679-.546z" style="fill:url(#z);stroke-width:.723226"/><path fill="url(#A)" d="m32.349 24.423-1.529 1.633-.196 4.33a6.45 9.422 29.531 0 0 2.57-2.13z" style="fill:url(#A);stroke-width:.723226"/><ellipse cx="35.669" cy="24.56" fill="#222a40" fill-rule="evenodd" rx="2.822" ry="3.354" transform="skewX(-9.833)scale(1 .98531)"/><path fill="url(#B)" d="M19.767 11.866s-.454.672-.138 1.05c.317.377 4.131 4.902 3.988 8.729 0 0-2.36-.59-4.087 1.333s-.645 3.247.416 3.488c1.062.24 4.223-.208 4.768-2.995s-2.19-8.758-2.896-9.5c0 0 3.008-2.199 4.295-1.36 1.286.84 2.272 1.498 3.075 1.424s.857-.176.89-.4-.125-.445-.472-.457c-.347-.011-1.358-.11-1.78-.73-.421-.618-1.465-2.526-2.934-2.632s-3.434.282-5.125 2.05z" style="fill:url(#B);stroke-width:.64239"/><ellipse cx="-4.255" cy="32.785" fill="url(#C)" fill-rule="evenodd" opacity=".5" rx="3.143" ry="2.353" style="fill:url(#C);stroke-width:.64239" transform="matrix(.7678 -.64069 .7585 .65167 0 0)"/><path fill="#c1e8ff" d="M-16.879 13.496q-.046.001-.094.004.198.005.389.02c2.287.164 3.912 3.135 4.568 4.099s2.231 1.117 2.772 1.135.787.361.734.71c-.05.338-.139.497-1.273.612q.25.032.484.012c1.25-.116 1.333-.274 1.385-.623.052-.35-.194-.693-.734-.711s-2.116-.171-2.772-1.135-2.281-3.935-4.568-4.1a10 10 0 0 0-.89-.023" filter="url(#D)" opacity=".8" transform="matrix(.64238 0 0 .64238 35.162 1.13)"/><g stroke-miterlimit="0" stroke-width=".389"><path fill="url(#E)" d="M16.423 36.563a5.655 5.655 0 0 1-7.996-.14 5.655 5.655 0 0 1 .14-7.996 5.655 5.655 0 0 1 7.996.14 5.655 5.655 0 0 1-.14 7.996" style="font-variation-settings:normal;fill:url(#E)" transform="translate(-1.793 -4.74)"/><path fill="url(#F)" d="M8.537 28.455a6 6 0 0 0-.375.406l.71.71.802.803.707.707.707-.707-.707-.707-.801-.801-.71-.71a6 6 0 0 0-.333.3m-.955 1.24a5.66 5.66 0 0 0-.74 2.702 5.655 5.655 0 0 0 5.555 5.752 5.655 5.655 0 0 0 5.752-5.556 5.655 5.655 0 0 0-5.556-5.752 5.66 5.66 0 0 0-2.887.736l.738.739a4.66 4.66 0 0 1 2.133-.475 4.655 4.655 0 0 1 4.573 4.736 4.655 4.655 0 0 1-4.736 4.572 4.655 4.655 0 0 1-4.573-4.735 4.66 4.66 0 0 1 .48-1.98z" style="font-variation-settings:normal;fill:url(#F)" transform="translate(-1.793 -4.74)"/><path d="M6.93 32.492a5.66 5.66 0 0 0 1.498 4.932 5.655 5.655 0 0 0 7.996.138 5.66 5.66 0 0 0 1.637-5.07 5.66 5.66 0 0 1-1.637 3.07 5.655 5.655 0 0 1-7.996-.138 5.66 5.66 0 0 1-1.498-2.932" opacity=".15" style="font-variation-settings:normal" transform="translate(-1.793 -4.74)"/></g></svg>
