<svg xmlns="http://www.w3.org/2000/svg" xmlns:xlink="http://www.w3.org/1999/xlink" width="48" height="48"><defs><linearGradient id="e"><stop offset="0" style="stop-color:#dfb2f2;stop-opacity:1"/><stop offset="1" style="stop-color:#f0dbf9;stop-opacity:1"/></linearGradient><linearGradient id="d"><stop offset="0" style="stop-color:#000;stop-opacity:1"/><stop offset="1" style="stop-color:#000;stop-opacity:0"/></linearGradient><linearGradient id="a"><stop offset="0" style="stop-color:#432b4d;stop-opacity:1"/><stop offset="1" style="stop-color:#b154d8;stop-opacity:1"/></linearGradient><linearGradient id="c"><stop offset="0" style="stop-color:#432b4d;stop-opacity:1"/><stop offset="1" style="stop-color:#b154d8;stop-opacity:1"/></linearGradient><linearGradient id="b"><stop offset="0" style="stop-color:#432b4d;stop-opacity:1"/><stop offset="1" style="stop-color:#913bb5;stop-opacity:1"/></linearGradient><linearGradient xlink:href="#a" id="f" x1="30.573" x2="16.567" y1="42.531" y2="-1.758" gradientTransform="matrix(1.00127 0 0 1 -.005 0)" gradientUnits="userSpaceOnUse"/><linearGradient xlink:href="#b" id="h" x1="30.573" x2="22.038" y1="42.531" y2="4.186" gradientTransform="matrix(.70089 0 0 -.7 8.196 39.8)" gradientUnits="userSpaceOnUse"/><linearGradient xlink:href="#c" id="j" x1="25.944" x2="22.774" y1="29.012" y2="14.793" gradientTransform="translate(1)" gradientUnits="userSpaceOnUse"/><linearGradient xlink:href="#d" id="g" x1="18.77" x2="37.082" y1="11.731" y2="30.043" gradientUnits="userSpaceOnUse"/><linearGradient xlink:href="#e" id="i" x1="27.627" x2="17.833" y1="34.47" y2="10.836" gradientUnits="userSpaceOnUse"/></defs><path d="M24 4C12.92 4 4 12.92 4 24s8.92 20 20 20 20-8.92 20-20S35.08 4 24 4" style="fill:url(#f);fill-opacity:1"/><path d="M31.18 12.668 14.844 30.387l.191 2.502 11.008 11.007A19.95 19.95 0 0 0 44 24q-.001-1.013-.1-2l-9.027-9.027z" style="opacity:.4;fill:url(#g);fill-opacity:1;stroke:none;stroke-width:1;stroke-linecap:butt;stroke-linejoin:bevel;stroke-miterlimit:4;stroke-dasharray:none;stroke-opacity:1"/><path d="M25 37c-7.756 0-14-6.244-14-14S17.244 9 25 9s14 6.244 14 14-6.244 14-14 14" style="fill:url(#h);fill-opacity:1"/><path d="M24 13c-6.074 0-11 4.924-11 11 0 6.074 4.925 11 11 11s11-4.925 11-11-4.924-11-11-11" style="fill:url(#i);fill-rule:evenodd;fill-opacity:1"/><path d="m21 18 10 6.077L21.035 30z" style="fill:url(#j);fill-opacity:1;fill-rule:evenodd"/><path d="M4.012 23.5c-.004.167-.012.332-.012.5 0 11.08 8.92 20 20 20s20-8.92 20-20c0-.168-.008-.333-.012-.5A19.95 19.95 0 0 1 24 43 19.95 19.95 0 0 1 4.012 23.5" style="fill:#000;fill-opacity:1;opacity:.15"/></svg>