<svg xmlns="http://www.w3.org/2000/svg" xmlns:xlink="http://www.w3.org/1999/xlink" width="48" height="48"><defs><linearGradient id="b" x2="0" y1="543.8" y2="503.8" gradientUnits="userSpaceOnUse"><stop stop-color="#18222a"/><stop offset="1" stop-color="#566069"/></linearGradient><linearGradient id="e" x2="0" y1="539.8" y2="507.8" gradientUnits="userSpaceOnUse"><stop stop-color="#2f3943"/><stop offset="1" stop-color="#808c9b"/></linearGradient><linearGradient id="a" x2="0" y1="518.8" y2="520.8" gradientTransform="translate(8 -12)" gradientUnits="userSpaceOnUse"><stop stop-color="#197cf1"/><stop offset="1" stop-color="#21c9fb"/></linearGradient><linearGradient xlink:href="#a" id="h" x2="0" y1="522.8" y2="527.8" gradientTransform="translate(8 -12)" gradientUnits="userSpaceOnUse"/><linearGradient id="g" x2="0" y1="536.8" y2="510.8" gradientUnits="userSpaceOnUse"><stop stop-color="#2f3943"/><stop offset="1" stop-color="#4d5662"/></linearGradient><linearGradient id="d" x1="15" x2="36" y1="15" y2="36" gradientUnits="userSpaceOnUse"><stop stop-color="#292c2f"/><stop offset="1" stop-opacity="0"/></linearGradient></defs><g transform="translate(-384.57 -499.8)"><rect width="40" height="40" x="388.57" y="503.8" fill="url(#b)" rx="20"/><path fill="#161e25" d="M388.58 523.3c-.004.167-.012.332-.012.5 0 11.08 8.92 20 20 20s20-8.92 20-20c0-.168-.008-.333-.012-.5a19.954 19.954 0 0 1-19.988 19.5 19.95 19.95 0 0 1-19.988-19.5"/><path fill="url(#d)" d="M33.19 14.809 14.807 33.192l10.742 10.744a19.94 19.94 0 0 0 18.385-18.385z" opacity=".2" transform="translate(384.57 499.8)"/><g stroke-opacity=".55" stroke-width="2.8"><rect width="32" height="32" x="392.57" y="507.8" fill="url(#e)" rx="16"/><rect width="26" height="26" x="395.57" y="510.8" fill="url(#g)" rx="13"/></g><rect width="2" height="5" x="407.57" y="510.8" fill="url(#h)" rx="1"/><circle cx="408.57" cy="507.8" r="1" fill="url(#a)"/><g fill="#26333a"><circle cx="424.57" cy="523.8" r="1"/><circle cx="392.57" cy="523.8" r="1"/><circle cx="396.57" cy="512.8" r="1"/><circle cx="420.57" cy="512.8" r="1"/><circle cx="396.57" cy="534.8" r="1"/><circle cx="420.57" cy="534.8" r="1"/></g></g></svg>