<svg xmlns="http://www.w3.org/2000/svg" xmlns:xlink="http://www.w3.org/1999/xlink" width="48" height="48"><defs><linearGradient id="c" x2="0" y1="543.8" y2="512.8" gradientUnits="userSpaceOnUse"><stop stop-color="#cea476"/><stop offset="1" stop-color="#dab58b"/></linearGradient><linearGradient id="a" x2="0" y1="512.8" y2="503.8" gradientUnits="userSpaceOnUse"><stop stop-color="#ebc69a"/><stop offset="1" stop-color="#f4e0c8" stop-opacity="0"/></linearGradient><linearGradient xlink:href="#a" id="g" x2="0" y1="512.8" y2="503.8" gradientTransform="translate(-384.57 -525.8)" gradientUnits="userSpaceOnUse"/><linearGradient xlink:href="#c" id="e" x2="0" y1="512.8" y2="503.8" gradientTransform="translate(-384.57 -499.8)" gradientUnits="userSpaceOnUse"/><linearGradient id="h" x1="399.57" x2="417.57" y1="516.8" y2="534.8" gradientTransform="translate(-384.57 -499.8)" gradientUnits="userSpaceOnUse"><stop stop-color="#292c2f"/><stop offset="1" stop-opacity="0"/></linearGradient><linearGradient xlink:href="#a" id="f" x2="0" y1="512.8" y2="503.8" gradientTransform="translate(-384.57 -499.8)" gradientUnits="userSpaceOnUse"/><linearGradient xlink:href="#c" id="d" x2="0" y1="543.8" y2="512.8" gradientTransform="translate(-384.57 -499.8)" gradientUnits="userSpaceOnUse"/></defs><path d="M4 13v25.682c0 .736.148 1.437.416 2.074a5.3 5.3 0 0 0 1.139 1.69c.48.48 1.052.87 1.69 1.138A5.3 5.3 0 0 0 9.317 44h29.364c.736 0 1.437-.148 2.074-.416a5.3 5.3 0 0 0 1.69-1.139c.48-.48.87-1.052 1.138-1.69A5.3 5.3 0 0 0 44 38.683V13H9.318Z" style="fill:url(#d);stroke-width:2.79999995;stroke-opacity:.55"/><path d="m4 13 6-9h29l5 9z" style="fill:url(#e);fill-rule:evenodd"/><path d="M21 4v40l1-1 1 1 1-1 1 1 1-1 1 1V4Z" style="fill:#f4e0c8;stroke-width:2.79999995;stroke-opacity:.55"/><path d="M21 4h6v9h-6z" style="fill:url(#f);stroke-width:2.79999995;stroke-opacity:.55"/><path d="M21-22h6v9h-6z" style="fill:url(#g);stroke-width:2.79999995;stroke-opacity:.55" transform="scale(1 -1)"/><path d="M7 33v8h8v-8zm1 1h6v6H8Zm1 1v1h1v-1zm2 0v2h2v-2zm-2 2v2h1v-2zm2 1v1h2v-1z" style="fill:#5c4c3e;stroke-width:2.79999995;stroke-opacity:.55"/><path d="M27 44h11.682c.736 0 1.437-.148 2.074-.416a5.3 5.3 0 0 0 1.69-1.139c.48-.48.87-1.052 1.138-1.69A5.3 5.3 0 0 0 44 38.683V30L27 13Z" style="opacity:.2;fill:url(#h);fill-rule:evenodd"/><path d="M4.734 41.229c.24.43.475.87.82 1.216.481.48 1.053.87 1.69 1.139A5.3 5.3 0 0 0 9.318 44h29.364c.736 0 1.437-.148 2.074-.416a5.3 5.3 0 0 0 1.69-1.139c.345-.346.58-.785.82-1.216z" style="fill:#9f8569;stroke-width:4.6608634;stroke-opacity:.55"/></svg>