<svg xmlns="http://www.w3.org/2000/svg" xmlns:xlink="http://www.w3.org/1999/xlink" width="48" height="48"><defs><linearGradient id="a" x2="0" y1="543.8" y2="513.8" gradientTransform="matrix(1.125 0 0 1 -51.07 0)" gradientUnits="userSpaceOnUse"><stop stop-color="#197cf1"/><stop offset="1" stop-color="#20bcfa"/></linearGradient><linearGradient xlink:href="#a" id="c" x2="0" y1="44" y2="11" gradientUnits="userSpaceOnUse"/><linearGradient id="h" x2="0" y1="10" y2="14" gradientUnits="userSpaceOnUse"><stop stop-color="#1d1e1e"/><stop offset="1" stop-color="#44484c"/></linearGradient><linearGradient xlink:href="#a" id="g" x2="0" y1="14" y2="10" gradientUnits="userSpaceOnUse"/><linearGradient xlink:href="#a" id="i" x2="0" y1="516.8" y2="503.8" gradientTransform="translate(-384.57 -499.8)" gradientUnits="userSpaceOnUse"/><linearGradient id="b" x2="0" y1="18" y2="15" gradientUnits="userSpaceOnUse"><stop stop-color="#c6cdd1"/><stop offset="1" stop-color="#e0e5e7"/></linearGradient><linearGradient xlink:href="#b" id="j" x2="0" y1="517.8" y2="514.8" gradientTransform="translate(-384.57 -499.8)" gradientUnits="userSpaceOnUse"/><linearGradient id="l" x2="0" y1="19" y2="3" gradientTransform="translate(13 18)" gradientUnits="userSpaceOnUse"><stop stop-color="#7cbaf8"/><stop offset="1" stop-color="#f4fcff"/></linearGradient><linearGradient id="e" x1="16" x2="32" y1="23" y2="39" gradientUnits="userSpaceOnUse"><stop stop-color="#292c2f"/><stop offset="1" stop-opacity="0"/></linearGradient><linearGradient xlink:href="#b" id="k" x2="0" y1="18" y2="15" gradientUnits="userSpaceOnUse"/><linearGradient xlink:href="#a" id="d" x2="0" y1="543.8" y2="513.8" gradientTransform="matrix(1.125 0 0 1 -435.64 -499.8)" gradientUnits="userSpaceOnUse"/><path id="f" fill-rule="evenodd" d="m10 10-1 1 1 1-4 2h36l-4-2 1-1-1-1H24z"/></defs><path d="M9 11v2l1-1zm30 0-1 1 1 1z" style="fill:url(#c);fill-rule:evenodd"/><path d="M6 14v23.844A6.143 6.143 0 0 0 12.156 44h23.688A6.143 6.143 0 0 0 42 37.844V14H12.156Z" style="fill:url(#d)"/><path d="M37.639 43.639c.194-.06.42-.043.605-.121a6.14 6.14 0 0 0 3.274-3.274c.293-.697.439-1.468.457-2.27L32 28l-3.293 3.293-8-8-1.414 1.414 8 8L27 33ZM26.172 44h6.951L18.561 29.44l-2.122 2.12 5.5 5.5-1.353 1.354z" style="opacity:.2;fill:url(#e)"/><use xlink:href="#f" width="100%" height="100%" style="fill:url(#g)"/><use xlink:href="#f" width="100%" height="100%" style="opacity:.6;fill:url(#h)"/><path d="m10 10-1 1h30l-1-1H24Z" style="opacity:.2"/><path d="M16 17v-5c0-4.432 3.568-8 8-8s8 3.568 8 8v5h-1v-5c0-3.878-3.122-7-7-7s-7 3.122-7 7v5z" style="fill:url(#i)"/><path d="M16.501 14.998a1.5 1.5 0 0 1 1.5 1.5 1.5 1.5 0 0 1-1.5 1.5 1.5 1.5 0 0 1-1.5-1.5 1.5 1.5 0 0 1 1.5-1.5m0 1a.5.5 0 0 0-.5.5.5.5 0 0 0 .5.5.5.5 0 0 0 .5-.5.5.5 0 0 0-.5-.5" style="fill:url(#j)"/><path d="M31.5 15a1.5 1.5 0 0 0-1.5 1.5 1.5 1.5 0 0 0 1.5 1.5 1.5 1.5 0 0 0 1.5-1.5 1.5 1.5 0 0 0-1.5-1.5m0 1a.5.5 0 0 1 .5.5.5.5 0 0 1-.5.5.5.5 0 0 1-.5-.5.5.5 0 0 1 .5-.5" style="fill:url(#k)"/><path d="M20 23c-.554 0-1 .446-1 1s.446 1 1 1 1-.446 1-1-.446-1-1-1m7 0-2 2 3 3-3 3 2 2 5-5zm-9.5 6c-.831 0-1.5.669-1.5 1.5s.669 1.5 1.5 1.5 1.5-.669 1.5-1.5-.669-1.5-1.5-1.5m4.5 6c-1.108 0-2 .892-2 2s.892 2 2 2 2-.892 2-2-.892-2-2-2" style="fill:url(#l)"/><path d="M42 36.725a6.143 6.143 0 0 1-6.156 6.156H12.156A6.143 6.143 0 0 1 6 36.725v1.119A6.143 6.143 0 0 0 12.156 44h23.688A6.143 6.143 0 0 0 42 37.844Z" style="fill:#1c5593"/></svg>