<svg xmlns="http://www.w3.org/2000/svg" xmlns:xlink="http://www.w3.org/1999/xlink" width="48" height="48"><defs><linearGradient id="a"><stop offset="0" style="stop-color:#06f;stop-opacity:1"/><stop offset="1" style="stop-color:#34b3fe;stop-opacity:1"/></linearGradient><linearGradient xlink:href="#a" id="b" x1="29.519" x2="29.674" y1="60" y2="5" gradientUnits="userSpaceOnUse"/></defs><path d="M46 8.751A28 28 0 0 0 7.751 19 28 28 0 0 0 18 57.249 28 28 0 0 0 56.249 47 28 28 0 0 0 46 8.751" style="opacity:.2" transform="matrix(.7105 0 0 .71205 1.209 1.052)"/><path d="M46 7.751A28 28 0 0 0 7.751 18 28 28 0 0 0 18 56.249 28 28 0 0 0 56.249 46 28 28 0 0 0 46 7.751" style="fill:url(#b)" transform="matrix(.7105 0 0 .71205 1.209 1.052)"/><path d="M32.66 4.008A28 28 0 0 0 7.75 18a28 28 0 0 0-3.705 14.28A28 28 0 0 1 7.75 19 28 28 0 0 1 32.66 5.008 28 28 0 0 1 46 8.75a28 28 0 0 1 13.945 24.195l.008.242A28 28 0 0 0 46 7.75a28 28 0 0 0-13.34-3.742" style="opacity:.2;fill:#fff" transform="matrix(.7105 0 0 .71205 1.209 1.052)"/><path d="m46.15 15.009-1.78 5.476L50 21.7l-5.132 2.613 3.123 4.839-5.476-1.78L41.3 33l-2.613-5.132-4.839 3.123 1.78-5.476L30 24.3l5.132-2.613-3.123-4.839 5.476 1.78L38.7 13l2.613 5.132z" style="opacity:.2;stroke-width:1.42918" transform="matrix(.7105 0 0 .71205 1.209 1.052)"/><path d="m46.15 14.009-1.78 5.476L50 20.7l-5.132 2.613 3.123 4.839-5.476-1.78L41.3 32l-2.613-5.132-4.839 3.123 1.78-5.476L30 23.3l5.132-2.613-3.123-4.839 5.476 1.78L38.7 12l2.613 5.132z" style="fill:#f2f2f2;fill-opacity:1;stroke-width:1.42918" transform="matrix(.7105 0 0 .71205 1.209 1.052)"/><path d="M17.5 7.485c-6 22 1.692 38.456 17 54" style="opacity:.2;fill:none;stroke:#000;stroke-width:3;stroke-linecap:round;stroke-linejoin:round" transform="matrix(.7105 0 0 .71205 1.209 1.052)"/><path d="M17.5 6.5c-6 22 1.692 38.456 17 54" style="fill:none;stroke:#2d3d53;stroke-width:3;stroke-linecap:round;stroke-linejoin:round;stroke-opacity:1" transform="matrix(.7105 0 0 .71205 1.209 1.052)"/><path d="M59.5 32.485c-15.762 15.681-33 19-53 13" style="opacity:.2;fill:none;stroke:#000;stroke-width:3;stroke-linecap:round;stroke-linejoin:round" transform="matrix(.7105 0 0 .71205 1.209 1.052)"/><path d="M59.5 31.5c-15.762 15.682-33 19-53 13" style="fill:none;stroke:#2d3d53;stroke-width:3;stroke-linecap:round;stroke-linejoin:round;stroke-opacity:1" transform="matrix(.7105 0 0 .71205 1.209 1.052)"/></svg>