<svg xmlns="http://www.w3.org/2000/svg" width="64" height="64"><path d="M6.8 5C5.25 5 4 6.25 4 7.8v8.4C4 17.75 5.25 19 6.8 19h8.4c1.55 0 2.8-1.25 2.8-2.8V7.8C18 6.25 16.75 5 15.2 5Zm42 0C47.25 5 46 6.25 46 7.8v8.4c0 1.55 1.25 2.8 2.8 2.8h8.4c1.55 0 2.8-1.25 2.8-2.8V7.8C60 6.25 58.75 5 57.2 5Zm-42 42C5.25 47 4 48.25 4 49.8v8.4C4 59.75 5.25 61 6.8 61h8.4c1.55 0 2.8-1.25 2.8-2.8v-8.4c0-1.55-1.25-2.8-2.8-2.8Zm42 0c-1.55 0-2.8 1.25-2.8 2.8v8.4c0 1.55 1.25 2.8 2.8 2.8h8.4c1.55 0 2.8-1.25 2.8-2.8v-8.4c0-1.55-1.25-2.8-2.8-2.8Z" style="opacity:.2"/><rect width="14" height="14" x="4" y="46" rx="2.8" ry="2.8" style="fill:#069"/><rect width="14" height="14" x="46" y="46" rx="2.8" ry="2.8" style="fill:#069"/><rect width="14" height="14" x="4" y="4" rx="2.8" ry="2.8" style="fill:#069"/><rect width="14" height="14" x="46" y="4" rx="2.8" ry="2.8" style="fill:#069"/><path d="M6.8 4C5.25 4 4 5.25 4 6.8v1C4 6.25 5.25 5 6.8 5h8.4C16.75 5 18 6.25 18 7.8v-1C18 5.25 16.75 4 15.2 4zm42 0C47.25 4 46 5.25 46 6.8v1C46 6.25 47.25 5 48.8 5h8.4C58.75 5 60 6.25 60 7.8v-1C60 5.25 58.75 4 57.2 4zm-42 42C5.25 46 4 47.25 4 48.8v1C4 48.25 5.25 47 6.8 47h8.4c1.55 0 2.8 1.25 2.8 2.8v-1c0-1.55-1.25-2.8-2.8-2.8zm42 0c-1.55 0-2.8 1.25-2.8 2.8v1c0-1.55 1.25-2.8 2.8-2.8h8.4c1.55 0 2.8 1.25 2.8 2.8v-1c0-1.55-1.25-2.8-2.8-2.8z" style="opacity:.1;fill:#fff"/><path d="M8 8h48v48H8z" class="st0" style="fill:#e4e4e4"/><path d="M43.96 12.98a2 2 0 0 0-1.374.606L37.172 19H15.488L30 35.027V49h-6a2 2 0 1 0 0 4h16a2 2 0 1 0 0-4h-6V35.027L48.512 19h-5.684l2.586-2.586a2 2 0 0 0-1.453-3.434" style="opacity:.1"/><path d="M24 50h16" style="fill:none;stroke:#069;stroke-width:4;stroke-linecap:round;stroke-linejoin:round"/><path d="M30 28.41h4v21.538h-4z" style="fill:#069"/><path d="M44 14 33.23 24.77" style="fill:none;stroke:#069;stroke-width:4;stroke-linecap:round"/><path d="M15.487 18h33.026L32 36.236Z" style="fill:#069"/><path d="M8 56h48v1H8z" style="opacity:.2"/><path d="M8 8h48v1H8z" style="opacity:.2;fill:#fff"/></svg>