<svg xmlns="http://www.w3.org/2000/svg" xmlns:xlink="http://www.w3.org/1999/xlink" width="48" height="48"><defs><linearGradient id="b" x1="428.816" x2="388.865" y1="547.634" y2="499.679" gradientTransform="translate(-384.57 -499.8)" gradientUnits="userSpaceOnUse"><stop offset="0" stop-color="#bdc3c7"/><stop offset="1" stop-color="#eff0f1"/></linearGradient><linearGradient id="a" x1="406.501" x2="419.974" y1="527.014" y2="539.825" gradientTransform="translate(-391.57 -499.8)" gradientUnits="userSpaceOnUse"><stop offset="0" stop-color="#292c2f"/><stop offset="1" stop-opacity="0"/></linearGradient><linearGradient id="f" x1="24" x2="24" y1="37" y2="12" gradientUnits="userSpaceOnUse"><stop offset="0" stop-color="#2c3e50"/><stop offset="1" stop-color="#34495e"/></linearGradient><linearGradient id="d" x1="24" x2="24" y1="51" y2="4" gradientUnits="userSpaceOnUse"><stop offset="0" stop-color="#7f8c8d" stop-opacity="0"/><stop offset="1" stop-color="#7f8c8d"/></linearGradient><linearGradient xlink:href="#a" id="e" x1="18.475" x2="34" y1="13" y2="28.525" gradientUnits="userSpaceOnUse"/><linearGradient xlink:href="#a" id="h" x1="7" x2="11.933" y1="37" y2="41.933" gradientTransform="translate(0 -30)" gradientUnits="userSpaceOnUse"/><linearGradient xlink:href="#a" id="i" x1="7" x2="11.933" y1="37" y2="41.933" gradientTransform="translate(32 -30)" gradientUnits="userSpaceOnUse"/><linearGradient xlink:href="#a" id="j" x1="7" x2="11.933" y1="37" y2="41.933" gradientTransform="translate(32)" gradientUnits="userSpaceOnUse"/><linearGradient xlink:href="#a" id="g" x1="7" x2="11.933" y1="37" y2="41.933" gradientUnits="userSpaceOnUse"/></defs><rect width="40" height="40" x="4" y="4" fill="#95a5a6" rx="6" ry="6"/><rect width="40" height="39" x="4" y="4" fill="url(#b)" rx="6" ry="6"/><path fill="url(#d)" d="M14 11v2h-4v1h4v6h-4v1h4v6h-4v1h4v6h-4v1h27v-1h-3v-6h3v-1h-3v-6h3v-1h-3v-6h3v-1h-3v-2h-3v2H18.475L17 11zm5.21 3H31v6h-7.37zM17 17l2.333 3H17zm0 4h3.111l4.667 6H17zm7.37 0H31v6h-2.21zM17 28h8.556l4.666 6H17zm12.525 0H31v2z" color="#000" style="font-feature-settings:normal;font-variant-alternates:normal;font-variant-caps:normal;font-variant-ligatures:normal;font-variant-numeric:normal;font-variant-position:normal;isolation:auto;mix-blend-mode:normal;paint-order:normal;shape-padding:0;text-decoration-color:#000;text-decoration-line:none;text-decoration-style:solid;text-indent:0;text-orientation:mixed;text-transform:none;white-space:normal"/><path fill="url(#e)" d="m17 11-3 24 8 8h16c3.324 0 6-2.676 6-6V21L34 11l-1.889 15.111z" opacity=".2" style="paint-order:normal"/><path fill="url(#f)" d="M14 11v24h3V17l14 18h3V11h-3v19L17 11z" color="#000" style="font-feature-settings:normal;font-variant-alternates:normal;font-variant-caps:normal;font-variant-ligatures:normal;font-variant-numeric:normal;font-variant-position:normal;isolation:auto;mix-blend-mode:normal;paint-order:normal;shape-padding:0;text-decoration-color:#000;text-decoration-line:none;text-decoration-style:solid;text-indent:0;text-orientation:mixed;text-transform:none;white-space:normal"/><path fill="url(#g)" d="M8.91 36.156c-3.137-.035-2.48 1.968-2.635 3.535l3.287 3.288c.145.01.29.021.438.021h6.398L9.59 36.191a9 9 0 0 0-.68-.035" opacity=".2" style="paint-order:normal"/><path fill="url(#h)" d="m6.276 9.691 9.656 9.657 4.508-2.307L9.59 6.191c-3.908-.34-3.15 1.829-3.314 3.5" opacity=".2" style="paint-order:normal"/><path fill="url(#i)" d="M40.91 6.156c-3.137-.035-2.48 1.968-2.635 3.535L44 15.416V10c0-.565-.084-1.11-.229-1.627L41.59 6.191a9 9 0 0 0-.68-.035" opacity=".2" style="paint-order:normal"/><path fill="url(#j)" d="M40.91 36.156c-3.137-.035-2.48 1.968-2.635 3.535l2.588 2.588a5.98 5.98 0 0 0 2.961-3.853L41.59 36.19a9 9 0 0 0-.68-.035" opacity=".2" style="paint-order:normal"/><g fill="#2c3e50"><path d="M7 6c-.554 0-1 .446-1 1v2c0 .554.446 1 1 1h2c.554 0 1-.446 1-1V7c0-.554-.446-1-1-1zm0 1h2v2H7zM39 6c-.554 0-1 .446-1 1v2c0 .554.446 1 1 1h2c.554 0 1-.446 1-1V7c0-.554-.446-1-1-1zm0 1h2v2h-2zM7 36c-.554 0-1 .446-1 1v2c0 .554.446 1 1 1h2c.554 0 1-.446 1-1v-2c0-.554-.446-1-1-1zm0 1h2v2H7zM39 36c-.554 0-1 .446-1 1v2c0 .554.446 1 1 1h2c.554 0 1-.446 1-1v-2c0-.554-.446-1-1-1zm0 1h2v2h-2z" style="paint-order:normal"/></g><g fill="#2c3e50" stroke-dashoffset="531.552" color="#000"><path d="M7 13v4h2v-4zM7 21v4h2v-4zM7 29v4h2v-4z" opacity=".5" style="font-feature-settings:normal;font-variant-alternates:normal;font-variant-caps:normal;font-variant-ligatures:normal;font-variant-numeric:normal;font-variant-position:normal;isolation:auto;mix-blend-mode:normal;paint-order:normal;shape-padding:0;text-decoration-color:#000;text-decoration-line:none;text-decoration-style:solid;text-indent:0;text-orientation:mixed;text-transform:none;white-space:normal"/><path d="M7 12v4h2v-4zM7 21v4h2v-4zM7 30v4h2v-4z" opacity=".5" style="font-feature-settings:normal;font-variant-alternates:normal;font-variant-caps:normal;font-variant-ligatures:normal;font-variant-numeric:normal;font-variant-position:normal;isolation:auto;mix-blend-mode:normal;paint-order:normal;shape-padding:0;text-decoration-color:#000;text-decoration-line:none;text-decoration-style:solid;text-indent:0;text-orientation:mixed;text-transform:none;white-space:normal" transform="rotate(90 8.5 38.5)"/><path d="M7 12v4h2v-4zM7 21v4h2v-4zM7 30v4h2v-4z" opacity=".5" style="font-feature-settings:normal;font-variant-alternates:normal;font-variant-caps:normal;font-variant-ligatures:normal;font-variant-numeric:normal;font-variant-position:normal;isolation:auto;mix-blend-mode:normal;paint-order:normal;shape-padding:0;text-decoration-color:#000;text-decoration-line:none;text-decoration-style:solid;text-indent:0;text-orientation:mixed;text-transform:none;white-space:normal" transform="rotate(90 23.5 23.5)"/><path d="M7 13v4h2v-4zM7 21v4h2v-4zM7 29v4h2v-4z" opacity=".5" style="font-feature-settings:normal;font-variant-alternates:normal;font-variant-caps:normal;font-variant-ligatures:normal;font-variant-numeric:normal;font-variant-position:normal;isolation:auto;mix-blend-mode:normal;paint-order:normal;shape-padding:0;text-decoration-color:#000;text-decoration-line:none;text-decoration-style:solid;text-indent:0;text-orientation:mixed;text-transform:none;white-space:normal" transform="translate(32)"/></g></svg>