<svg xmlns="http://www.w3.org/2000/svg" xmlns:xlink="http://www.w3.org/1999/xlink" width="48" height="48"><defs><linearGradient id="b"><stop offset="0" style="stop-color:#1e2b35;stop-opacity:1"/><stop offset="1" style="stop-color:#6d7983;stop-opacity:1"/></linearGradient><linearGradient xlink:href="#b" id="e" x1="40.37" x2="10" y1="48" y2="0" gradientUnits="userSpaceOnUse"/><linearGradient xlink:href="#c" id="f" x1="193.9" x2="198.7" y1="166.8" y2="223.3" gradientTransform="rotate(5 4448 -4204)scale(2.93671)" gradientUnits="userSpaceOnUse"/><linearGradient id="c"><stop offset="0" style="stop-color:#c1c1c1;stop-opacity:1"/><stop offset="1" stop-color="#fff9f9" stop-opacity="0" style="stop-color:#fff9f9;stop-opacity:.96296293"/></linearGradient><linearGradient xlink:href="#d" id="g" x1="228.789" x2="318.951" y1="97.012" y2="89.124" gradientTransform="rotate(5 465 -2050)scale(1.50082)" gradientUnits="userSpaceOnUse"/><linearGradient id="d"><stop offset="0" style="stop-color:#292f3a;stop-opacity:1"/><stop offset="1" style="stop-color:#d5d9e1;stop-opacity:.5"/></linearGradient></defs><rect width="42" height="42" x="3" y="3" rx="21" ry="21" style="fill-opacity:1;fill:url(#e)"/><g transform="matrix(.09816 0 0 .09816 7.383 11.686)"><path d="m160 205 154 42-141 44-155-42Z" style="fill:url(#f)"/><path d="M160-35v240l154 42 1-253z" style="fill:url(#g);fill-opacity:1"/><path fill="none" d="M160 205V-35m0 240L18 249m142-44 154 41"/><path d="m84 109 35 54V98l21-7v91l-27 9-35-54v65l-21 6v-91z" style="fill:#ebebeb;fill-opacity:1"/><rect width="86.1" height="12.6" x="185" y="97" fill="#bebebe" ry="2.3" style="fill:#e0e0e0;fill-opacity:1" transform="skewY(15)scale(.9669 1)"/><path d="m181 169 99 26 2 3v8c0 1-1 2-2 1l-99-26-2-3v-7c0-2 1-2 2-2m0-47 99 27 2 2v8l-2 2-99-27c-1 0-2-1-2-3v-7z" style="fill:#bfbfbf;fill-opacity:1"/></g></svg>