<svg xmlns="http://www.w3.org/2000/svg" xmlns:xlink="http://www.w3.org/1999/xlink" width="48" height="48"><defs><linearGradient id="a" x2="0" y1="543.8" y2="503.8" gradientTransform="matrix(1.125 0 0 1 -395.64 -499.8)" gradientUnits="userSpaceOnUse"><stop stop-color="#c6cdd1"/><stop offset="1" stop-color="#e0e5e7"/></linearGradient><linearGradient id="b" x2="0" y1="38" y2="5" gradientTransform="translate(40)" gradientUnits="userSpaceOnUse"><stop stop-color="#eef1f2"/><stop offset="1" stop-color="#f9fafb"/></linearGradient><linearGradient id="e" x1="398.57" x2="416.57" y1="513.8" y2="531.8" gradientTransform="translate(-384.57 -499.8)" gradientUnits="userSpaceOnUse"><stop stop-color="#292c2f"/><stop offset="1" stop-opacity="0"/></linearGradient><linearGradient xlink:href="#a" id="c" x2="0" y1="543.8" y2="503.8" gradientTransform="matrix(1.125 0 0 1 -435.64 -499.8)" gradientUnits="userSpaceOnUse"/><linearGradient xlink:href="#b" id="d" x2="0" y1="38" y2="5" gradientUnits="userSpaceOnUse"/></defs><path d="M16.838 4a10.809 10.809 0 0 0-7.67 3.168A10.8 10.8 0 0 0 6 14.838V44h36V29.773h-.004V14.838a10.81 10.81 0 0 0-3.168-7.67A10.8 10.8 0 0 0 31.158 4Z" style="fill:url(#c)"/><path d="M6 39.9h36V44H6z" style="fill:#99a1a7"/><path d="M6 43h36v1H6z" style="fill:#737b81;stroke-width:2.79999995;stroke-opacity:.55"/><g style="fill:#292c2e;stroke-width:.1"><path d="M16 41h12v3H16zM32 41h6v3h-6z"/></g><path d="M17.367 6.025A9.34 9.34 0 0 0 8 15.392v4.659c1.698.243 3 1.684 3 3.451a3.48 3.48 0 0 1-3 3.45v3.05c0 1.432.629 2.533 1.47 3.498C13.333 37.927 24 38.002 24 38.002h10l.752-.877 4.76-5.553.488-.57v-3.9h-2v-7.1h2v-4.998c-.05-1.147-.234-2.264-.656-3.266a9.345 9.345 0 0 0-8.633-5.713Z" style="fill:url(#d);stroke-width:.1"/><path d="M27.25 13.254 19.596 21l22.4 22.9V28Z" style="opacity:.2;fill:url(#e);fill-rule:evenodd"/><path d="M13 9a.25.25 0 0 0-.25.25c0 .139.111.25.25.25s.25-.111.25-.25A.25.25 0 0 0 13 9m1.75 0-.5.5.75.75-.75.75.5.5L16 10.25zm-2.375 1.5a.374.374 0 0 0-.375.375c0 .208.167.375.375.375a.374.374 0 0 0 .375-.375.374.374 0 0 0-.375-.375M13.5 12a.499.499 0 1 0 0 1 .499.499 0 1 0 0-1" style="fill:#4d4d4d"/><rect width="12" height="12" x="18" y="11" rx="6" style="fill:#abb9be;stroke-width:.1"/><rect width="10" height="10" x="19" y="12" rx="5" style="fill:#ced6d9;stroke-width:.1"/><g style="fill:#4d4d4d;stroke-width:.1"><path d="M29.534 8.91h7v.635h-7zM30.807 10.182h5.727v.636h-5.727zM29.534 11.455h7v.636h-7z"/></g><path d="M13 27h10v5H13z" style="fill:#fdbc4a;stroke-width:.1"/><g style="fill:#fff;stroke-width:.1"><path d="M14 28h8v1h-8zM14 30h6v1h-6z"/></g><path d="M18 42v1h8v-1zm15 0v1h3v1h1v-2z" style="fill:#4c5154"/><g style="fill:#202324"><path d="M16 43h12v1H16zM32 43h6v1h-6z"/></g></svg>