<svg xmlns="http://www.w3.org/2000/svg" xmlns:xlink="http://www.w3.org/1999/xlink" width="48" height="48"><defs><linearGradient id="a"><stop offset="0" style="stop-color:#6e3a84;stop-opacity:1"/><stop offset="1" style="stop-color:#a75ec4;stop-opacity:1"/></linearGradient><linearGradient xlink:href="#a" id="b" x1="24" x2="24" y1="1048.362" y2="1008.362" gradientUnits="userSpaceOnUse"/><linearGradient xlink:href="#a" id="c" x1="24" x2="24" y1="1048.362" y2="1008.362" gradientTransform="translate(-1.2 -51.419)scale(1.05)" gradientUnits="userSpaceOnUse"/></defs><g transform="translate(0 -1004.362)"><circle cx="24" cy="1028.362" r="0" style="opacity:1;fill:url(#b);fill-opacity:1;stroke:none;stroke-width:2;stroke-miterlimit:4;stroke-dasharray:none;stroke-opacity:1"/><circle cx="24" cy="1028.362" r="21" style="opacity:1;fill:url(#c);fill-opacity:1;stroke:none;stroke-width:2.1;stroke-miterlimit:4;stroke-dasharray:none;stroke-opacity:1"/><path d="M44.977 1027.75A21 21 0 0 1 24 1048.313a21 21 0 0 1-20.977-20.389 21 21 0 0 0-.023.439 21 21 0 0 0 21 21 21 21 0 0 0 21-21 21 21 0 0 0-.023-.611" style="opacity:.3;fill:#000;fill-opacity:1;stroke:none;stroke-width:2.1;stroke-miterlimit:4;stroke-dasharray:none;stroke-opacity:1"/><path d="m11.12 1015.658.026.181c.644 4.272 1.014 7.795 1.493 9.937s1.076 3.417 2.195 4.125c1.12.705 2.714.827 5.167.75 2.452-.081 5.769-.691 10.348-.83l.15-.01-.02-.144c-.43-3.28-.575-5.723-.866-7.361-.292-1.636-.75-2.658-1.796-3.351s-2.65-1.055-5.254-1.48c-2.604-.424-6.213-.903-11.265-1.789zm21.945 0a3.326 3.326 0 1 0 0 6.652 3.326 3.326 0 0 0 0-6.652m5.37 5.867-.27.16c-2.156 1.29-3.75 1.521-4.984 2.2a3.86 3.86 0 0 0-1.565 1.538c-.426.744-.76 1.771-1.03 3.268l-.038.231.214-.084c3.348-1.252 4.836-1.362 5.738-2.017.45-.325.728-.786.984-1.55.255-.766.495-1.842.876-3.443zm-.276 5.606-.357.116c-3.578 1.195-5.045 1.54-5.796 2.085-.376.275-.555.606-.692 1.078s-.243 1.091-.49 1.994l-.059.212.214-.06c2.167-.478 3.165-.594 4.01-1.189.846-.596 1.486-1.635 2.965-3.933zm-7.56 3.389-.18.022c-5.443.282-8.277.32-10.165 1.524-.943.604-1.627 1.58-2.25 3.151s-1.196 3.194-1.925 6.229l-.052.22.218-.071a55 55 0 0 1 7.235-1.636c1.682-.27 2.748-.391 3.539-.793s1.268-1.087 1.744-2.4c.475-1.312.962-3.05 1.789-6.064zm6.534.129c-1.598 1.675-2.962 1.977-4.02 2.348-.528.186-.988.393-1.334.803-.347.412-.57 1.012-.656 1.964l-.014.166.163-.029c1.943-.252 3.034-.446 3.86-1.14.827-.693 1.353-1.851 2.218-3.984zm-19.597 3.136-.237.067c-2.467.619-3.606 1.376-4.312 2.63s-.99 2.969-1.838 5.537l-.081.247.25-.09c1.12-.37 1.915-.638 2.523-.94.608-.305 1.031-.648 1.374-1.161.685-1.021 1.069-2.671 2.24-6.063zm19.074 1.499-.24.09c-1.98.755-3.068 1.092-3.663 1.608-.297.258-.461.57-.52.967-.057.399-.019.427.06 1.076l.015.148.147-.046a5 5 0 0 1 1.562-.153c.394.027.704.072.993-.078.29-.135.51-.438.744-1.02s.486-1.008.838-2.36z" style="fill:#d1d5e9;fill-opacity:1;stroke-width:1.1083"/></g></svg>