<svg xmlns="http://www.w3.org/2000/svg" width="48" height="48" viewBox="0 0 12.7 12.7"><g transform="matrix(.77779 0 0 .77779 -.235 -.235)"><ellipse cx="8.413" cy="8.377" rx="5.22" ry="5.005" style="paint-order:stroke fill markers;fill:#253149;fill-opacity:1"/><path d="M7.534 1.393a7.144 7.144 0 0 0-6.211 7.074 7.144 7.144 0 0 0 6.21 7.074z" style="stroke-width:.26458;paint-order:stroke fill markers;fill:#25324b;fill-opacity:1"/><path d="M8.527 1.316a7 7 0 0 0-.993.077v4.415l.106-.002c2.305-.015 3.8 1.99 3.8 1.99S9.668 9.998 7.822 9.998q-.15 0-.288-.015v.58q.103.008.208.007c1.718 0 2.96-.896 4.162-1.958.2.163 1.017.56 1.184.734-1.143.98-3.808 1.769-5.32 1.769q-.12 0-.234-.008v4.418a7 7 0 0 0 .992.078 7.144 7.144 0 0 0 7.144-7.144 7.144 7.144 0 0 0-7.144-7.143zm-.993 9.248c-.063-.004-.11-.012-.17-.02-2.102-.27-2.82-2.64-2.82-2.64s.94-1.423 2.82-1.57c.06-.003.108-.008.17-.01v.632c.05-.003.12-.006.172-.006 1.09 0 1.737.869 1.737.869l-.887.765c-.356-.61-.518-.913-1.022-1.03v-.598c-.062.004-.11.01-.17.016a3.4 3.4 0 0 0-2.03 1.005s.44 1.69 2.03 1.979c.06.013.107.02.17.027v-.478c-.065-.013-.112-.03-.17-.05-.896-.308-1.187-1.38-1.187-1.38s.519-.635 1.184-.554h.002c.07.009.113.02.17.035v1.949c0 .1.22.032.334.032 1.293 0 2.5-1.715 2.5-1.715s-1.133-1.55-2.833-1.498V5.81c-.062.002-.11.005-.17.01-2.083.17-3.886 1.975-3.886 1.975s1.022 3.022 3.885 3.298c.063.007.108.01.17.013z" style="fill:#00aa7f;fill-opacity:1"/></g></svg>