<svg xmlns="http://www.w3.org/2000/svg" width="48" height="48"><defs><linearGradient id="f" x1="389.32" x2="426.695" y1="547.675" y2="499.921" gradientTransform="matrix(1.04996 0 0 1.0499 -452.985 -525.938)" gradientUnits="userSpaceOnUse"><stop stop-color="#18222a" style="stop-color:#1e2b35;stop-opacity:1"/><stop offset="1" stop-color="#566069" style="stop-color:#6d7983;stop-opacity:1"/></linearGradient><linearGradient id="g" x1=".2" x2="1.09" y1=".837" y2=".023" gradientTransform="matrix(3.83425 0 0 15.33702 17.098 16.331)" gradientUnits="userSpaceOnUse"><stop offset="0" style="stop-color:#8e79ff;stop-opacity:1"/><stop offset="51.739%" style="stop-color:#20bdff"/><stop offset="98.261%" style="stop-color:#a5fecb"/></linearGradient><linearGradient id="h" x1="0" x2="1" y1=".5" y2=".5" gradientTransform="matrix(13.05851 0 0 15.33702 17.843 16.331)" gradientUnits="userSpaceOnUse"><stop offset="0%" style="stop-color:#43e97b"/><stop offset="97.826%" style="stop-color:#38f9d7"/></linearGradient><linearGradient id="i" x1=".072" x2=".999" y1=".744" y2=".496" gradientTransform="translate(10 10)scale(28.00003)" gradientUnits="userSpaceOnUse"><stop offset="0" style="stop-color:#9480ff;stop-opacity:1"/><stop offset="51.739%" style="stop-color:#20bdff"/><stop offset="98.261%" style="stop-color:#a5fecb"/></linearGradient></defs><rect width="41.999" height="41.996" x="-44.999" y="3.004" rx="20.999" ry="20.998" style="display:inline;overflow:visible;fill:url(#f);stroke-width:2.93982;stroke-opacity:.55" transform="scale(-1 1)"/><path d="M3.013 23.477c-.004.175-.013.35-.013.525A20.953 20.953 0 0 0 24 45c11.633 0 20.999-9.365 20.999-20.998 0-.176-.008-.349-.013-.525A20.95 20.95 0 0 1 23.999 43.95 20.947 20.947 0 0 1 3.013 23.477" style="display:inline;overflow:visible;opacity:.3;fill:#000;fill-opacity:1;stroke-width:2.93982;stroke-opacity:.55"/><path d="M3.013 24.523c-.004-.175-.013-.348-.013-.525A20.953 20.953 0 0 1 24 3c11.633 0 20.999 9.365 20.999 20.998 0 .176-.008.35-.013.525A20.95 20.95 0 0 0 23.999 4.05 20.947 20.947 0 0 0 3.013 24.523" style="display:inline;overflow:visible;opacity:.3;fill:#fff;fill-opacity:1;stroke-width:2.93982;stroke-opacity:.55"/><path fill="url(#g)" d="m17.1 19.015 3.833-2.684v15.337l-3.835-2.683z" style="isolation:isolate;fill:url(#g);stroke-width:.583335"/><path fill="url(#h)" fill-rule="evenodd" d="M27.067 25.093v-8.762l3.834 2.684v9.97l-3.834 2.683-9.224-13.173 3.09-2.164z" style="isolation:isolate;fill:url(#h);stroke-width:.583335"/><path fill="url(#i)" fill-rule="evenodd" d="M29.767 34.02a1.226 1.226 0 0 1 1.666.45 1.216 1.216 0 0 1-.447 1.663 14 14 0 0 1-14.175-.118 1.22 1.22 0 0 1-.418-1.67 1.22 1.22 0 0 1 1.671-.419 11.5 11.5 0 0 0 5.542 1.633c2.16.073 4.29-.457 6.16-1.539m4.586-15.179a1.216 1.216 0 1 1 2.175-1.09 13.95 13.95 0 0 1 1.464 6.726 13.9 13.9 0 0 1-1.169 5.143 1.218 1.218 0 0 1-2.232-.978c.594-1.337.918-2.782.967-4.248.066-1.922-.35-3.83-1.205-5.553M18.99 13.579a1.223 1.223 0 0 1-1.626-.573 1.22 1.22 0 0 1 .567-1.625 14.02 14.02 0 0 1 12.773.326 1.22 1.22 0 0 1-1.169 2.14 11.5 11.5 0 0 0-5.14-1.406 11.5 11.5 0 0 0-5.405 1.138m-5.963 14.09a1.216 1.216 0 0 1-.767 1.54 1.22 1.22 0 0 1-1.543-.771 14.1 14.1 0 0 1-.709-4.915 13.96 13.96 0 0 1 1.737-6.293 1.217 1.217 0 0 1 2.128 1.181 11.61 11.61 0 0 0-.846 9.259M34.48 15.155a1.218 1.218 0 1 1-2.435-.084 1.218 1.218 0 0 1 2.435.084M15.46 32.028a1.218 1.218 0 1 1-2.434-.083 1.218 1.218 0 0 1 2.434.083m19.489.665a1.219 1.219 0 0 0-2.434-.083 1.218 1.218 0 0 0 2.434.083M16.338 14.536a1.218 1.218 0 1 0-2.435-.082 1.218 1.218 0 0 0 2.435.082" style="isolation:isolate;fill:url(#i);stroke-width:.583335"/></svg>