<svg xmlns="http://www.w3.org/2000/svg" xmlns:xlink="http://www.w3.org/1999/xlink" width="48" height="48"><defs><linearGradient id="d"><stop offset="0" style="stop-color:#000;stop-opacity:.08247422"/><stop offset="1" style="stop-color:#000;stop-opacity:0"/></linearGradient><linearGradient id="c"><stop offset="0" style="stop-color:#000;stop-opacity:.27450982"/><stop offset="1" style="stop-color:#fff;stop-opacity:0"/></linearGradient><linearGradient id="b"><stop offset="0" style="stop-color:#fff;stop-opacity:0"/><stop offset="1" style="stop-color:#fff;stop-opacity:.3137255"/></linearGradient><linearGradient xlink:href="#a" id="g" x1="543.798" x2="503.798" y1="-409.571" y2="-409.571" gradientTransform="matrix(0 1 -1.16667 0 -452.667 -499.798)" gradientUnits="userSpaceOnUse"/><linearGradient id="e"><stop offset="0" style="stop-color:#eef1f2;stop-opacity:1"/><stop offset="1" style="stop-color:#f9fafb;stop-opacity:1"/></linearGradient><linearGradient xlink:href="#b" id="k" x1="384.571" x2="394.571" y1="547.798" y2="530.477" gradientUnits="userSpaceOnUse"/><linearGradient xlink:href="#c" id="i" x1="384.571" x2="414.571" y1="537.798" y2="537.798" gradientUnits="userSpaceOnUse"/><linearGradient xlink:href="#d" id="j" x1="432.571" x2="421.024" y1="547.798" y2="527.798" gradientUnits="userSpaceOnUse"/><linearGradient xlink:href="#e" id="h" x1="25" x2="25" y1="44" y2="20" gradientUnits="userSpaceOnUse"/><linearGradient id="a"><stop offset="0" style="stop-color:#197cf1;stop-opacity:1"/><stop offset="1" style="stop-color:#21c9fb;stop-opacity:1"/></linearGradient><linearGradient id="f"><stop offset="0" style="stop-color:#292c2f;stop-opacity:1"/><stop offset="1" style="stop-color:#000;stop-opacity:0"/></linearGradient><linearGradient xlink:href="#f" id="l" x1="414.571" x2="422.571" y1="511.798" y2="519.798" gradientUnits="userSpaceOnUse"/><linearGradient xlink:href="#e" id="m" x1="400.161" x2="416.669" y1="518.676" y2="518.676" gradientTransform="matrix(1.02985 0 0 1.01928 -12.535 -9.877)" gradientUnits="userSpaceOnUse"/></defs><path d="M24 8 4 20l20 15 20-15z" style="fill:#c8cfd3;fill-opacity:1;fill-rule:evenodd;stroke:none;stroke-width:1px;stroke-linecap:butt;stroke-linejoin:miter;stroke-opacity:1"/><path d="M10 4v40h28V12l-8-8z" style="fill:url(#g);fill-opacity:1;stroke:none;stroke-opacity:1"/><path d="M4 20v24h40V20L28 32h-8z" style="fill:url(#h);fill-opacity:1;stroke:none;stroke-opacity:1"/><path d="m388.571 543.798 16-12h8l16 12z" style="fill:url(#i);fill-opacity:1;fill-rule:evenodd;stroke:none;stroke-width:1px;stroke-linecap:butt;stroke-linejoin:miter;stroke-opacity:1" transform="translate(-384.571 -499.798)"/><path d="m428.571 543.798-16-12 16-12z" style="fill:url(#j);fill-opacity:1;fill-rule:evenodd;stroke:none;stroke-width:1px;stroke-linecap:butt;stroke-linejoin:miter;stroke-opacity:1" transform="translate(-384.571 -499.798)"/><path d="m388.571 543.798 16-12-16-12z" style="fill:url(#k);fill-opacity:1;fill-rule:evenodd;stroke:none;stroke-width:1px;stroke-linecap:butt;stroke-linejoin:miter;stroke-opacity:1" transform="translate(-384.571 -499.798)"/><path d="M388.57 542.8h40v1h-40z" style="fill:#d1d3d4;fill-opacity:1;stroke:none;stroke-opacity:1" transform="translate(-384.571 -499.798)"/><path d="M422.571 511.798h-8v-8z" style="fill:#313437;fill-rule:evenodd;stroke:none;stroke-width:1px;stroke-linecap:butt;stroke-linejoin:miter;stroke-opacity:1;fill-opacity:1" transform="translate(-384.571 -499.798)"/><path d="M414.571 511.798h8v8z" style="fill:url(#l);fill-opacity:1;fill-rule:evenodd;stroke:none;stroke-width:1px;stroke-linecap:butt;stroke-linejoin:miter;stroke-opacity:1;opacity:.2" transform="translate(-384.571 -499.798)"/><path d="M414.394 526.676c-.38-.135-3.975-2.133-5.405-3.004-.294-.18-.306-.26-.306-2.12v-1.935l3.939 2.24 3.938 2.24.006.787c.012 1.63-.78 2.284-2.171 1.792zm-10.539-.972a313 313 0 0 1-3.978-2.291c-.293-.189-.306-.275-.306-2.09 0-1.092.053-1.873.125-1.847.069.024 1.874 1.042 4.012 2.261l3.887 2.217v1.922c0 1.058-.015 1.922-.034 1.922-.018 0-1.686-.943-3.706-2.094m-.371-5.154-3.908-2.24-.002-1.93c-.002-1.061.05-1.91.114-1.885s1.868 1.045 4.009 2.266l3.891 2.221.003 1.918c.002 1.055-.042 1.912-.098 1.904s-1.86-1.022-4.01-2.254zm12.475 2.149a352 352 0 0 0-3.672-2.103c-1.795-1.019-3.342-1.924-3.438-2.011-.128-.118-.164-.638-.136-2.005l.038-1.847 2.992 1.708 3.91 2.231.918.524v1.878c0 1.034-.045 1.878-.102 1.877s-.285-.115-.51-.252m-2.04-6.14a363 363 0 0 0-3.842-2.185l-1.394-.773v-1.934c0-1.495.039-1.918.17-1.865.094.04 1.853 1.038 3.91 2.22l3.74 2.15.038 1.9c.021 1.046-.01 1.9-.068 1.898-.058 0-1.207-.636-2.554-1.412m-10.438-.984-3.91-2.243.003-.473c.015-2.157 1.1-2.702 3.146-1.581.573.314 1.903 1.055 2.955 1.647l1.914 1.077.003 1.918c.002 1.055-.043 1.914-.099 1.909-.056-.008-1.861-1.02-4.012-2.254z" style="opacity:1;fill:url(#m);fill-opacity:1;fill-rule:nonzero;stroke:none;stroke-width:42.53499985;stroke-miterlimit:4;stroke-dasharray:none;stroke-opacity:1" transform="translate(-384.571 -499.798)"/></svg>