<svg xmlns="http://www.w3.org/2000/svg" xmlns:xlink="http://www.w3.org/1999/xlink" width="48" height="48"><defs><linearGradient id="a" x2="0" y1="543.8" y2="503.8" gradientUnits="userSpaceOnUse"><stop stop-color="#197cf1"/><stop offset="1" stop-color="#20bcfa"/></linearGradient><linearGradient xlink:href="#a" id="b" x1="26" x2="26" y1="44" y2="4" gradientUnits="userSpaceOnUse"/></defs><path d="M11.014 8.155c-6.2 6.738-4.698 19.296 3.355 28.047s19.606 10.382 25.807 3.644c6.201-6.739 4.703-19.297-3.35-28.048S17.215 1.416 11.014 8.155m5.623 2.799c4.872-5.295 13.83-4.143 20.01 2.573s7.24 16.45 2.368 21.745-13.833 4.146-20.013-2.57-7.237-16.454-2.365-21.748" style="fill:url(#b);fill-opacity:1;stroke:none"/><rect width="5.003" height="5.003" x="33.498" y="10.498" rx=".885" ry=".885" style="fill:#f4754e;fill-opacity:1;fill-rule:nonzero;stroke:#35383b;stroke-width:.99664694;stroke-miterlimit:4;stroke-dasharray:none;stroke-opacity:1"/><rect width="12.009" height="12.009" x="4.495" y="17.495" rx="2.125" ry="2.125" style="fill:#f4754e;fill-opacity:1;fill-rule:nonzero;stroke:#35383b;stroke-width:.99086577;stroke-miterlimit:4;stroke-dasharray:none;stroke-opacity:1"/><rect width="7.002" height="7.002" x="36.499" y="33.499" rx="1.239" ry="1.239" style="fill:#f4754e;fill-opacity:1;fill-rule:nonzero;stroke:#35383b;stroke-width:.9978314;stroke-miterlimit:4;stroke-dasharray:none;stroke-opacity:1"/></svg>