<svg xmlns="http://www.w3.org/2000/svg" xmlns:xlink="http://www.w3.org/1999/xlink" width="48" height="48"><defs><linearGradient id="a" x2="0" y1="538.8" y2="505.8" gradientTransform="matrix(1.45455 0 0 1 -198.81 -31)" gradientUnits="userSpaceOnUse"><stop stop-color="#bd8d48"/><stop offset="1" stop-color="#e8b971"/></linearGradient><linearGradient id="c" x1="428.57" x2="406.57" gradientTransform="matrix(1.45455 0 0 1 -583.38 -498.8)" gradientUnits="userSpaceOnUse"><stop stop-color="#e3dfd6"/><stop offset="1" stop-color="#f4f1e8"/></linearGradient><linearGradient id="e" x2="0" y1="531.79" y2="544.79" gradientTransform="rotate(-45 -388.224 769.755)" gradientUnits="userSpaceOnUse"><stop/><stop offset="1" stop-opacity="0"/></linearGradient><linearGradient id="f" x1="428.76" x2="430.47" y1="541.51" y2="528.51" gradientTransform="translate(-408.71 -510.793)" gradientUnits="userSpaceOnUse"><stop stop-color="#ebc69a"/><stop offset="1" stop-color="#f4e0c8"/></linearGradient><linearGradient xlink:href="#a" id="b" x2="0" y1="538.8" y2="505.8" gradientTransform="matrix(1.45455 0 0 1 -583.38 -530.8)" gradientUnits="userSpaceOnUse"/><linearGradient xlink:href="#a" id="d" x2="0" y1="538.8" y2="506.72" gradientTransform="matrix(1.45455 0 0 1.12221 -583.38 -560.64)" gradientUnits="userSpaceOnUse"/></defs><path d="M8 6v2h32V6Z" style="color:#000;fill:url(#b)"/><path d="M8 7v1h32V7Z" style="color:#000;fill:url(#c)"/><path d="M8 8v31.8a4.2 4.2 0 0 0 1.227 2.973A4.2 4.2 0 0 0 12.199 44h23.602a4.2 4.2 0 0 0 2.972-1.227A4.2 4.2 0 0 0 40 39.801V8H12.2Z" style="color:#000;fill:url(#d)"/><path d="M29.996 44h5.805a4.2 4.2 0 0 0 2.972-1.227c.38-.38.687-.833.899-1.336.21-.5.325-1.049.326-1.626v-6.809L26.119 18.881l-4.24 4.24 2.637 2.639-3.893.146-.625 1.096-1 6z" style="color:#000;opacity:.2;fill:url(#e)"/><path d="M24 18c-1.662 0-3 1.338-3 3s1.338 3 3 3 3-1.338 3-3-1.338-3-3-3m0 7c-2.77 0-5 .892-5 2v6h10v-6c0-1.108-2.23-2-5-2m0 1c2.216 0 4 .636 4 1.428V32h-8v-4.572C20 26.637 21.784 26 24 26" style="fill:url(#f)"/><path d="M21 4h1v6h-1ZM11 4h1v6h-1zm5 0h1v6h-1zm10 0h1v6h-1zm5 0h1v6h-1zm5 0h1v6h-1z" style="color:#000;fill:#7f8c8d;stroke-linecap:round;stroke-linejoin:round"/></svg>