<svg xmlns="http://www.w3.org/2000/svg" xmlns:xlink="http://www.w3.org/1999/xlink" width="48" height="48"><defs><linearGradient id="b" x2="0" y1="44" y2="4" gradientTransform="translate(0 1004.36)" gradientUnits="userSpaceOnUse"><stop stop-color="#63984b"/><stop offset="1" stop-color="#8fc278"/></linearGradient><linearGradient id="a" x1="17" x2="44" y1="11" y2="41" gradientTransform="translate(0 1004.36)" gradientUnits="userSpaceOnUse"><stop/><stop offset="1" stop-opacity="0"/></linearGradient><linearGradient id="e" x2="0" y1="40" y2="6" gradientTransform="matrix(.94118 0 0 .91176 1.412 2.08)" gradientUnits="userSpaceOnUse"><stop stop-color="#b1b1b1"/><stop offset="1" stop-color="#ddd"/></linearGradient><linearGradient xlink:href="#a" id="f" x1="23" x2="40" y1="21" y2="39" gradientUnits="userSpaceOnUse"/><linearGradient id="g" x2="0" y1="1040.95" y2="1012.95" gradientTransform="translate(0 -1004.36)" gradientUnits="userSpaceOnUse"><stop stop-color="#f2f2f2"/><stop offset="1" stop-color="#fff"/></linearGradient><linearGradient xlink:href="#b" id="c" x2="0" y1="44" y2="4" gradientUnits="userSpaceOnUse"/><linearGradient xlink:href="#a" id="d" x1="17" x2="44" y1="11" y2="41" gradientUnits="userSpaceOnUse"/></defs><path d="M10 4a5.98 5.98 0 0 0-5.53 3.66A6 6 0 0 0 4 10v3l3 2-3 2v21a5.98 5.98 0 0 0 3.66 5.53A6 6 0 0 0 10 44h28a5.98 5.98 0 0 0 5.53-3.66A6 6 0 0 0 44 38V10a5.98 5.98 0 0 0-3.66-5.53A6 6 0 0 0 38 4Z" style="fill:#dce269;fill-rule:evenodd"/><path d="M10 4a5.98 5.98 0 0 0-5.53 3.66A6 6 0 0 0 4 10v2l3 2-3 2v22a5.98 5.98 0 0 0 1.754 4.246c.318.319.735.514 1.119.754h34.254c.384-.24.8-.435 1.12-.754A5.98 5.98 0 0 0 44 38V10a5.98 5.98 0 0 0-3.66-5.53A6 6 0 0 0 38 4Z" style="fill:url(#c);fill-rule:evenodd"/><g style="color:#000;fill:#dee372"><path d="M9 40v1h1v-1zm1 1v1h1v-1zm1 0h1v-1h-1zm1 0v1h1v-1zm1 0h1v-1h-1zm1 0v1h1v-1zm1 0h1v-1h-1zm1 0v1h1v-1zm1 0h1v-1h-1zm1 0v1h1v-1zm1 0h1v-1h-1zm1 0v1h1v-1zm1 0h1v-1h-1zm1 0v1h1v-1zm1 0h1v-1h-1zm1 0v1h1v-1zm11-1v1h1v-1zm1 1v1h1v-1zm1 0h1v-1h-1zm1 0v1h1v-1zm1 0h1v-1h-1zm-4 0h-1v1h1z" style="opacity:.6"/></g><path d="M42 9v1h1V9Zm0 1h-1v1h1zm0 1v1h1v-1zm0 1h-1v1h1zm0 1v1h1v-1zm0 1h-1v1h1zm0 1v1h1v-1zm0 1h-1v1h1zm0 1v1h1v-1zm0 1h-1v1h1zm0 1v1h1v-1zm0 1h-1v1h1zm0 1v1h1v-1zm0 1h-1v1h1zm0 1v1h1v-1zm0 1h-1v1h1z" style="color:#000;opacity:.6;fill:#dee372"/><path d="M12.584 44H38a5.98 5.98 0 0 0 5.53-3.66A6 6 0 0 0 44 38V12l-4-4v31H8Z" style="opacity:.2;fill:url(#d);fill-rule:evenodd"/><path d="M8 8h32v31H8Z" style="fill:url(#e);fill-rule:evenodd"/><path d="M8 38h32v1H8Z" style="fill:#5c5c5c;fill-rule:evenodd"/><path d="M38.041 43.992a6 6 0 0 0 2.299-.463 5.98 5.98 0 0 0 3.656-5.51V16l-6-6L38 37H10l6.785 6.963 21.256.03z" style="opacity:.2;fill:url(#f);fill-rule:evenodd"/><path d="M10 10v27h28V10Z" style="fill:url(#g);fill-rule:evenodd"/><path d="M10 36h28v1H10Z" style="fill:#878787;fill-rule:evenodd"/><path d="M13 28h8v1h-8zm9 0h6v1h-6zm-9 2h7v1h-7zm8 0h3v1h-3zm-8 2h4.03v1H13Zm5 0h8v1h-8z" style="fill:#bcbcbc;fill-rule:evenodd"/><path d="M13 12h10v1H13Zm11 0h5v1h-5zm-11 2h7v1h-7zm9 0h4v1h-4z" style="fill:#959595;fill-rule:evenodd"/></svg>