<svg xmlns="http://www.w3.org/2000/svg" xmlns:xlink="http://www.w3.org/1999/xlink" width="48" height="48" version="1"><defs><linearGradient id="a"><stop offset="0" style="stop-color:#29a883;stop-opacity:1"/><stop offset="1" style="stop-color:#3485fd;stop-opacity:1"/></linearGradient><linearGradient xlink:href="#a" id="c" x1="-44" x2="-4" y1="-4" y2="-44" gradientTransform="matrix(1.05 0 0 1.05 1.2 1.2)" gradientUnits="userSpaceOnUse"/><linearGradient xlink:href="#b" id="d" x1="182.591" x2="220.244" y1="66.364" y2="101.096" gradientTransform="matrix(.53072 0 0 .58612 -77.604 -18.097)" gradientUnits="userSpaceOnUse"/><linearGradient id="b"><stop offset="0" style="stop-color:#8a5bd2;stop-opacity:1"/><stop offset="1" style="stop-color:#348cfe;stop-opacity:1"/></linearGradient><linearGradient id="f" x1="20.405" x2="44.918" y1="36.285" y2="14.209" gradientTransform="matrix(.3612 0 0 .3612 -.967 .017)" gradientUnits="userSpaceOnUse"><stop stop-color="#8E9EFF"/><stop offset="1" stop-color="#fff"/></linearGradient><clipPath id="e" clipPathUnits="userSpaceOnUse"/><clipPath id="g" clipPathUnits="userSpaceOnUse"/></defs><rect width="42" height="42" x="-45" y="-45" rx="21" ry="21" style="fill:url(#c);fill-opacity:1;stroke-width:1.05" transform="scale(1 -1)rotate(90)"/><path d="M3.012 23.475C3.008 23.65 3 23.824 3 24c0 11.634 9.366 21 21 21s21-9.366 21-21c0-.176-.008-.35-.013-.525A20.95 20.95 0 0 1 24 43.95 20.95 20.95 0 0 1 3.013 23.475Z" style="opacity:.15;stroke-width:1.05"/><rect width="42.457" height="42.201" x="2.817" y="3.01" rx="21.229" ry="21.1" style="opacity:.984;fill:url(#d);fill-opacity:1;stroke:none;stroke-width:1.11546;stroke-linecap:round;stroke-miterlimit:4;stroke-dasharray:none;stroke-opacity:1"/><path fill="#2a3782" fill-rule="evenodd" d="M4.86 14.665a.217.217 0 0 1-.217.218h-.017c-.41 0-.788-.218-.992-.572l-2.48-4.297a1.15 1.15 0 0 1 0-1.145l2.48-4.297c.204-.354.582-.572.992-.572h4.96c.41 0 .788.218.992.572l.76 1.317a.227.227 0 0 1-.197.341h-6.03a.25.25 0 0 0-.25.25v2c0 .139.111.25.25.25h7.726c.11 0 .227.047.276.149.066.135.138.339.099.601-.027.183-.058.368-.153.534l-.323.56a.62.62 0 0 1-.54.311H5.11a.25.25 0 0 0-.25.25z" clip-path="url(#e)" clip-rule="evenodd" opacity=".5" style="opacity:.721557;fill:#2b3886;fill-opacity:1;stroke-width:.361209" transform="matrix(2.76849 0 0 2.76849 2.677 -.046)"/><path fill="url(#f)" fill-rule="evenodd" d="M5.754 13.464a.217.217 0 0 1-.217.218H5.52c-.41 0-.788-.218-.992-.572l-2.48-4.297a1.15 1.15 0 0 1 0-1.145l2.48-4.297c.204-.354.582-.572.992-.572h4.96c.41 0 .788.218.992.572l.76 1.317a.227.227 0 0 1-.197.341h-6.03a.25.25 0 0 0-.25.25v2c0 .139.111.25.25.25h7.726c.11 0 .227.047.276.149.066.135.138.339.099.601-.027.183-.058.368-.153.534l-.323.56a.62.62 0 0 1-.54.311H6.003a.25.25 0 0 0-.25.25z" clip-path="url(#g)" clip-rule="evenodd" style="fill:url(#f);stroke-width:.361209" transform="matrix(2.76849 0 0 2.76849 2.677 -.046)"/></svg>