<svg xmlns="http://www.w3.org/2000/svg" xmlns:xlink="http://www.w3.org/1999/xlink" width="48" height="48"><defs><linearGradient id="c" x1="56.58" x2="56.818" y1="81.49" y2="36.609" gradientTransform="matrix(.85072 0 0 .85072 360.154 473.662)" gradientUnits="userSpaceOnUse"><stop stop-color="#00a661"/><stop offset="1" stop-color="#37ce97"/></linearGradient><linearGradient xlink:href="#a" id="b" x1="388.571" x2="428.571" y1="523.798" y2="523.798" gradientTransform="matrix(1.0033 0 0 1.0033 -1.318 -1.715)" gradientUnits="userSpaceOnUse"/><linearGradient id="a" x2="0" y1="1045.87" y2="1006.87" gradientTransform="translate(272.246 -2578.79)scale(2.98983)" gradientUnits="userSpaceOnUse"><stop stop-color="#d3d3d3"/><stop offset="1" stop-color="#fcf9f9"/></linearGradient></defs><g transform="matrix(.9967 0 0 .9967 -383.258 -498.088)"><rect width="40.132" height="40.132" x="388.54" y="503.75" rx="20.066" style="opacity:.9;fill:url(#b);fill-opacity:1;stroke-width:2.79999995;stroke-opacity:.55026502"/><path d="M388.55 523.313c-.004.167-.012.333-.012.502a20.02 20.02 0 0 0 20.067 20.066 20.02 20.02 0 0 0 20.066-20.066c0-.169-.008-.335-.012-.502a20.017 20.017 0 0 1-20.054 19.564 20.017 20.017 0 0 1-20.055-19.564z" style="opacity:.15;fill:#000;fill-opacity:1;stroke-width:2.79999995;stroke-opacity:.55026502"/><path d="M408.679 507.733c-1.746 0-3.429.281-5.003.797v15.213a5.003 5.003 0 1 0 5.003-5.003v-5.003c5.526 0 10.006 4.48 10.006 10.006s-4.48 10.006-10.006 10.006c-5.527 0-10.007-4.48-10.007-10.006v-12.492c-3.657 2.934-6.006 7.438-6.006 12.492 0 8.841 7.168 16.01 16.01 16.01s16.01-7.168 16.01-16.01-7.168-16.01-16.01-16.01" style="color:#000;fill:url(#c);stroke:none;stroke-width:.94099998;stroke-linecap:round;stroke-linejoin:round"/></g></svg>