<svg xmlns="http://www.w3.org/2000/svg" xmlns:xlink="http://www.w3.org/1999/xlink" width="48" height="48"><defs><linearGradient id="f"><stop offset="0" style="stop-color:#7e4ace;stop-opacity:1"/><stop offset=".469" style="stop-color:#d35f5f;stop-opacity:1"/><stop offset="1" style="stop-color:#d40055;stop-opacity:1"/></linearGradient><linearGradient id="g" x1="389.32" x2="426.695" y1="547.675" y2="499.921" gradientTransform="matrix(1.04996 0 0 1.0499 -452.985 -525.938)" gradientUnits="userSpaceOnUse"><stop stop-color="#18222a" style="stop-color:#1e2b35;stop-opacity:1"/><stop offset="1" stop-color="#566069" style="stop-color:#6d7983;stop-opacity:1"/></linearGradient><linearGradient xlink:href="#f" id="k" x2="1" gradientTransform="rotate(90 9.231 19.882)scale(27.18564)" gradientUnits="userSpaceOnUse"/><linearGradient xlink:href="#f" id="j" x1="20" x2="20" y1="38" y2="10" gradientTransform="matrix(1.10347 0 0 1.10347 -2.71 -2.21)" gradientUnits="userSpaceOnUse"/><filter id="h" width="1.072" height="1.072" x="-.036" y="-.036" color-interpolation-filters="sRGB"><feGaussianBlur stdDeviation="9"/></filter><filter id="i" width="1.072" height="1.072" x="-.036" y="-.036" color-interpolation-filters="sRGB"><feGaussianBlur stdDeviation="9"/></filter></defs><rect width="41.999" height="41.996" x="-44.999" y="3.004" rx="20.999" ry="20.998" style="display:inline;overflow:visible;fill:url(#g);stroke-width:2.93982;stroke-opacity:.55" transform="scale(-1 1)"/><path d="M3.013 23.477c-.004.175-.013.35-.013.525A20.953 20.953 0 0 0 24 45c11.633 0 20.999-9.365 20.999-20.998 0-.176-.008-.349-.013-.525A20.95 20.95 0 0 1 23.999 43.95 20.947 20.947 0 0 1 3.013 23.477" style="display:inline;overflow:visible;opacity:.3;fill:#000;fill-opacity:1;stroke-width:2.93982;stroke-opacity:.55"/><path d="M3.013 24.523c-.004-.175-.013-.348-.013-.525A20.953 20.953 0 0 1 24 3c11.633 0 20.999 9.365 20.999 20.998 0 .176-.008.35-.013.525A20.95 20.95 0 0 0 23.999 4.05 20.947 20.947 0 0 0 3.013 24.523" style="display:inline;overflow:visible;opacity:.3;fill:#fff;fill-opacity:1;stroke-width:2.93982;stroke-opacity:.55"/><g fill="#010101" stroke-width="93.632" filter="url(#h)" opacity=".2" style="filter:url(#i)" transform="translate(-3.422 -2.618)scale(.05286)"><path d="M518.75 213.01c-165.67 0-300 134.33-300 300 0 160.9 126.69 292.18 285.73 299.64 4.776.239 9.493.358 14.269.358 76.836 0 146.87-28.896 199.94-76.358-35.164 23.343-76.299 36.716-120.24 36.716-71.463 0-135.4-35.463-178.45-91.343-33.194-39.164-54.627-97.015-56.119-161.97v-14.149c1.493-64.955 22.925-122.87 56.119-161.97 43.045-55.88 107.04-91.343 178.45-91.343 43.94 0 85.075 13.433 120.24 36.776-52.776-47.224-122.45-76.06-198.81-76.358h-1.134z"/><path d="M420 343.94c27.522-32.478 63.104-52.119 101.91-52.119 87.343 0 158.15 99.045 158.15 221.13 0 122.15-70.806 221.13-158.15 221.13-38.866 0-74.388-19.582-101.91-52.06 43.045 55.881 106.99 91.343 178.45 91.343 43.94 0 85.075-13.433 120.24-36.716 61.433-54.925 100.06-134.75 100.06-223.64 0-88.836-38.627-168.72-100.06-223.64-35.164-23.343-76.299-36.716-120.24-36.716-71.463 0-135.4 35.463-178.45 91.343"/></g><path d="M23.795 8.322c-8.757 0-15.858 7.1-15.858 15.858 0 8.505 6.697 15.445 15.104 15.84q.377.018.754.018c4.062 0 7.764-1.527 10.57-4.036-1.86 1.234-4.034 1.941-6.356 1.941-3.778 0-7.158-1.875-9.433-4.828-1.755-2.07-2.888-5.129-2.967-8.563v-.748c.08-3.433 1.212-6.495 2.967-8.562 2.275-2.954 5.658-4.828 9.433-4.828 2.322 0 4.497.71 6.355 1.944a15.8 15.8 0 0 0-10.51-4.037z" style="fill:url(#j);fill-opacity:1"/><path d="M18.575 15.243c1.455-1.717 3.336-2.755 5.387-2.755 4.617 0 8.36 5.236 8.36 11.69 0 6.456-3.743 11.689-8.36 11.689-2.055 0-3.932-1.035-5.387-2.752 2.275 2.954 5.655 4.828 9.433 4.828 2.322 0 4.497-.71 6.356-1.94a15.8 15.8 0 0 0 5.289-11.823c0-4.695-2.042-8.918-5.29-11.822-1.858-1.233-4.033-1.94-6.355-1.94-3.778 0-7.158 1.874-9.433 4.828" style="fill:url(#k);fill-opacity:1"/></svg>