<svg xmlns="http://www.w3.org/2000/svg" xmlns:xlink="http://www.w3.org/1999/xlink" width="48" height="48"><defs><linearGradient id="f" x1="443.88" x2="443.88" y1="220.06" y2="820.06" gradientTransform="translate(-64.242 -46.795)scale(.05286)" gradientUnits="userSpaceOnUse"><stop offset="0" stop-color="#4bd2f5"/><stop offset=".167" stop-color="#4bd2f5" stop-opacity=".882"/><stop offset="1" stop-color="#5587ff"/></linearGradient><linearGradient id="g" x1="643.88" x2="643.88" y1="260.06" y2="780.06" gradientTransform="translate(-64.242 -46.795)scale(.05286)" gradientUnits="userSpaceOnUse"><stop offset="0" stop-color="#5587ff"/><stop offset=".745" stop-color="#4bd2f5" stop-opacity=".882"/><stop offset="1" stop-color="#4bd2f5"/></linearGradient><linearGradient id="h" x1="389.32" x2="426.695" y1="547.675" y2="499.921" gradientTransform="matrix(1.04996 0 0 1.0499 -452.985 -525.938)" gradientUnits="userSpaceOnUse"><stop stop-color="#18222a" style="stop-color:#1e2b35;stop-opacity:1"/><stop offset="1" stop-color="#566069" style="stop-color:#6d7983;stop-opacity:1"/></linearGradient><linearGradient xlink:href="#f" id="k" x1="443.88" x2="443.88" y1="220.06" y2="820.06" gradientTransform="translate(-3.633 -2.99)scale(.05286)" gradientUnits="userSpaceOnUse"/><linearGradient xlink:href="#g" id="l" x1="643.88" x2="643.88" y1="260.06" y2="780.06" gradientTransform="translate(-3.633 -2.99)scale(.05286)" gradientUnits="userSpaceOnUse"/><filter id="i" width="1.072" height="1.072" x="-.036" y="-.036" color-interpolation-filters="sRGB"><feGaussianBlur stdDeviation="9"/></filter><filter id="j" width="1.072" height="1.072" x="-.036" y="-.036" color-interpolation-filters="sRGB"><feGaussianBlur stdDeviation="9"/></filter></defs><rect width="41.999" height="41.996" x="-44.999" y="3.004" rx="20.999" ry="20.998" style="display:inline;overflow:visible;fill:url(#h);stroke-width:2.93982;stroke-opacity:.55" transform="scale(-1 1)"/><path d="M3.013 23.477c-.004.175-.013.35-.013.525A20.953 20.953 0 0 0 24 45c11.633 0 20.999-9.365 20.999-20.998 0-.176-.008-.349-.013-.525A20.95 20.95 0 0 1 23.999 43.95 20.947 20.947 0 0 1 3.013 23.477" style="display:inline;overflow:visible;opacity:.3;fill:#000;fill-opacity:1;stroke-width:2.93982;stroke-opacity:.55"/><path d="M3.013 24.523c-.004-.175-.013-.348-.013-.525A20.953 20.953 0 0 1 24 3c11.633 0 20.999 9.365 20.999 20.998 0 .176-.008.35-.013.525A20.95 20.95 0 0 0 23.999 4.05 20.947 20.947 0 0 0 3.013 24.523" style="display:inline;overflow:visible;opacity:.3;fill:#fff;fill-opacity:1;stroke-width:2.93982;stroke-opacity:.55"/><g fill="#010101" stroke-width="93.632" filter="url(#i)" opacity=".2" style="filter:url(#j)" transform="translate(-3.422 -2.618)scale(.05286)"><path d="M518.75 213.01c-165.67 0-300 134.33-300 300 0 160.9 126.69 292.18 285.73 299.64 4.776.239 9.493.358 14.269.358 76.836 0 146.87-28.896 199.94-76.358-35.164 23.343-76.299 36.716-120.24 36.716-71.463 0-135.4-35.463-178.45-91.343-33.194-39.164-54.627-97.015-56.119-161.97v-14.149c1.493-64.955 22.925-122.87 56.119-161.97 43.045-55.88 107.04-91.343 178.45-91.343 43.94 0 85.075 13.433 120.24 36.776-52.776-47.224-122.45-76.06-198.81-76.358h-1.134z"/><path d="M420 343.94c27.522-32.478 63.104-52.119 101.91-52.119 87.343 0 158.15 99.045 158.15 221.13 0 122.15-70.806 221.13-158.15 221.13-38.866 0-74.388-19.582-101.91-52.06 43.045 55.881 106.99 91.343 178.45 91.343 43.94 0 85.075-13.433 120.24-36.716 61.433-54.925 100.06-134.75 100.06-223.64 0-88.836-38.627-168.72-100.06-223.64-35.164-23.343-76.299-36.716-120.24-36.716-71.463 0-135.4 35.463-178.45 91.343"/></g><path d="M23.795 8.322c-8.757 0-15.859 7.1-15.859 15.858 0 8.505 6.697 15.445 15.104 15.84a15.802 15.802 0 0 0 11.324-4.017c-1.859 1.233-4.033 1.94-6.356 1.94-3.778 0-7.157-1.874-9.433-4.828-1.754-2.07-2.887-5.128-2.966-8.562v-.748c.079-3.434 1.212-6.495 2.966-8.562 2.276-2.954 5.659-4.829 9.433-4.829 2.323 0 4.497.71 6.356 1.944a15.8 15.8 0 0 0-10.51-4.036z" style="fill:url(#k)"/><path d="M18.575 15.243c1.455-1.717 3.336-2.755 5.387-2.755 4.617 0 8.36 5.235 8.36 11.689 0 6.457-3.743 11.69-8.36 11.69-2.054 0-3.932-1.036-5.387-2.753 2.276 2.954 5.656 4.829 9.433 4.829 2.323 0 4.497-.71 6.356-1.941a15.8 15.8 0 0 0 5.29-11.822c0-4.696-2.043-8.919-5.29-11.822-1.859-1.234-4.033-1.94-6.356-1.94-3.778 0-7.157 1.874-9.433 4.828" style="fill:url(#l)"/></svg>