<svg xmlns="http://www.w3.org/2000/svg" xmlns:xlink="http://www.w3.org/1999/xlink" viewBox="0 0 32 32"><defs><linearGradient id="b"><stop offset="0" style="stop-color:#78acd3;stop-opacity:1"/><stop offset="1" style="stop-color:#d98cbb;stop-opacity:1"/></linearGradient><linearGradient id="a"><stop offset="0" style="stop-color:#326e9a;stop-opacity:1"/><stop offset="1" style="stop-color:#339993;stop-opacity:1"/></linearGradient><linearGradient xlink:href="#a" id="c" x1="1" x2="31" y1="15" y2="15" gradientUnits="userSpaceOnUse"/><linearGradient xlink:href="#b" id="d" x1="2" x2="28.784" y1="5.5" y2="5.356" gradientUnits="userSpaceOnUse"/></defs><path d="M2 6v3c-1 0-1 1-1 2v13c0 3 1 4 4 4h22c2.978 0 4-1 4-4V7.99 9c0-1-1-2-2-2 0-3-1-3-4-3h-9s0-2-2-2H6C2.989 2 2 3 2 6" style="color:#3daee9;fill:url(#c);fill-opacity:1;stroke:none"/><path d="M6 2C3 2 2 3.033 2 6v3h9l2-2h16c0-3-1-3-4-3h-9s0-2-2-2z" style="fill-rule:evenodd;fill-opacity:1;fill:url(#d)"/><path d="m14 2 1 3h12V4H16s0-2-2-2m-1 5-2 2H2c-1 0-1 0-1 1h11z" style="opacity:.01;fill:#fff;fill-opacity:.2;fill-rule:evenodd"/><path d="m13 7-2 1H2v1h9zM1.738 27C2.276 27.56 3 28 5 28h22c1.852 0 2.518-.336 3.224-1z" style="color:#31363b;fill-opacity:.2;fill-rule:evenodd"/><rect width="24.058" height="5.592" x="4" y="16" rx="1.058" ry="1" style="color:#000;clip-rule:nonzero;display:inline;overflow:visible;visibility:visible;isolation:auto;mix-blend-mode:normal;color-interpolation:sRGB;color-interpolation-filters:linearRGB;solid-color:#000;solid-opacity:1;fill:#c83771;fill-opacity:1;fill-rule:nonzero;stroke:none;stroke-width:1.32354;stroke-linecap:butt;stroke-linejoin:miter;stroke-miterlimit:4;stroke-dasharray:none;stroke-dashoffset:0;stroke-opacity:1;marker:none;color-rendering:auto;image-rendering:auto;shape-rendering:auto;text-rendering:auto"/><rect width="13" height="7" x="17" y="-11" rx="1" ry="1.384" style="color:#000;clip-rule:nonzero;display:inline;overflow:visible;visibility:visible;isolation:auto;mix-blend-mode:normal;color-interpolation:sRGB;color-interpolation-filters:linearRGB;solid-color:#000;solid-opacity:1;fill:#de87aa;fill-opacity:.59931505;fill-rule:nonzero;stroke:none;stroke-width:1.08852;stroke-linecap:butt;stroke-linejoin:miter;stroke-miterlimit:4;stroke-dasharray:none;stroke-dashoffset:0;stroke-opacity:1;marker:none;color-rendering:auto;image-rendering:auto;shape-rendering:auto;text-rendering:auto" transform="rotate(90)"/><rect width="13" height="7" x="16" y="-11" rx="1" ry="1.252" style="color:#000;clip-rule:nonzero;display:inline;overflow:visible;visibility:visible;isolation:auto;mix-blend-mode:normal;color-interpolation:sRGB;color-interpolation-filters:linearRGB;solid-color:#000;solid-opacity:1;fill:#c83771;fill-opacity:1;fill-rule:nonzero;stroke:none;stroke-width:1.08852;stroke-linecap:butt;stroke-linejoin:miter;stroke-miterlimit:4;stroke-dasharray:none;stroke-dashoffset:0;stroke-opacity:1;marker:none;color-rendering:auto;image-rendering:auto;shape-rendering:auto;text-rendering:auto" transform="rotate(90)"/><rect width="13" height="7" x="17" y="-28" rx="1" ry="1.384" style="color:#000;clip-rule:nonzero;display:inline;overflow:visible;visibility:visible;isolation:auto;mix-blend-mode:normal;color-interpolation:sRGB;color-interpolation-filters:linearRGB;solid-color:#000;solid-opacity:1;fill:#de87aa;fill-opacity:.60000002;fill-rule:nonzero;stroke:none;stroke-width:1.08852;stroke-linecap:butt;stroke-linejoin:miter;stroke-miterlimit:4;stroke-dasharray:none;stroke-dashoffset:0;stroke-opacity:1;marker:none;color-rendering:auto;image-rendering:auto;shape-rendering:auto;text-rendering:auto" transform="rotate(90)"/><rect width="13" height="7" x="16" y="-28" rx="1" ry="1.252" style="color:#000;clip-rule:nonzero;display:inline;overflow:visible;visibility:visible;isolation:auto;mix-blend-mode:normal;color-interpolation:sRGB;color-interpolation-filters:linearRGB;solid-color:#000;solid-opacity:1;fill:#c83771;fill-opacity:1;fill-rule:nonzero;stroke:none;stroke-width:1.08852;stroke-linecap:butt;stroke-linejoin:miter;stroke-miterlimit:4;stroke-dasharray:none;stroke-dashoffset:0;stroke-opacity:1;marker:none;color-rendering:auto;image-rendering:auto;shape-rendering:auto;text-rendering:auto" transform="rotate(90)"/></svg>