<svg xmlns="http://www.w3.org/2000/svg" xmlns:xlink="http://www.w3.org/1999/xlink" width="48" height="48"><defs><linearGradient id="c" x1="68.21" x2="148.521" y1="177.751" y2="258.061" gradientTransform="translate(-16.518 -57.726)scale(.37626)" gradientUnits="userSpaceOnUse"><stop offset="0" stop-color="#59f"/><stop offset="1" stop-color="#06f"/></linearGradient><linearGradient xlink:href="#a" id="d" x1="220.306" x2="54.439" y1="207.919" y2="42.052" gradientTransform="matrix(.168 0 0 .1636 5.931 -1.941)" gradientUnits="userSpaceOnUse"/><linearGradient id="a"><stop offset="0" stop-color="#2a7fff"/><stop offset="1" stop-color="#0cf"/></linearGradient></defs><circle cx="24" cy="24" r="21" fill="url(#c)" style="fill:url(#c)"/><ellipse cx="24" cy="23.45" fill="url(#d)" rx="21" ry="20.45" style="fill:url(#d)"/><path d="m24 7.72-5.075 8.068h2.9v10.085h-5.944v-2.664a4.35 4.322 0 0 0 2.319-3.82 4.35 4.322 0 0 0-4.35-4.322A4.35 4.322 0 0 0 9.5 19.39a4.35 4.322 0 0 0 2.32 3.82v2.664c0 4.034 4.06 4.322 4.06 4.322h5.945v2.746a4.35 4.322 0 0 0-2.175 3.737A4.35 4.322 0 0 0 24 41a4.35 4.322 0 0 0 4.35-4.322 4.35 4.322 0 0 0-2.175-3.738v-2.745h5.944s4.062-.288 4.062-4.322v-2.161h.507A1.803 1.803 0 0 0 38.5 21.91v-5.043c0-.997-.808-1.8-1.812-1.8h-5.076a1.803 1.803 0 0 0-1.812 1.8v5.043c0 .997.808 1.8 1.812 1.8h.507v2.162h-5.944V15.788h2.9z" style="opacity:.2;stroke-width:.999999"/><path d="m24 7-5.075 8.067h2.9v10.085h-5.944V22.49a4.35 4.322 0 0 0 2.319-3.82 4.35 4.322 0 0 0-4.35-4.322 4.35 4.322 0 0 0-4.35 4.322 4.35 4.322 0 0 0 2.32 3.82v2.663c0 4.034 4.06 4.322 4.06 4.322h5.945v2.747a4.35 4.322 0 0 0-2.175 3.737A4.35 4.322 0 0 0 24 40.28a4.35 4.322 0 0 0 4.35-4.322 4.35 4.322 0 0 0-2.175-3.739v-2.745h5.944s4.062-.288 4.062-4.322v-2.16h.507A1.803 1.803 0 0 0 38.5 21.19v-5.042c0-.998-.808-1.801-1.812-1.801h-5.076a1.803 1.803 0 0 0-1.812 1.8v5.043c0 .998.808 1.801 1.812 1.801h.507v2.161h-5.944V15.067h2.9z" style="fill:#fff;stroke-width:.999999"/></svg>