<svg xmlns="http://www.w3.org/2000/svg" viewBox="0 0 48 48"><defs><linearGradient id="a" x1="15.233" x2="39.609" y1="11.995" y2="36.37" gradientUnits="userSpaceOnUse"><stop offset="0"/><stop offset="1" stop-opacity="0"/></linearGradient></defs><path fill="#39fea0" d="M23.986 44H24a20 20 0 0 0 20-20A20 20 0 0 0 24 4h-.012z"/><path fill="#1f4855" d="m23.986 44 .002-40A20 20 0 0 0 4 24a20 20 0 0 0 19.986 20"/><path fill="url(#a)" d="m25.366 11.777-1.626 2.304-10.374 21.597 10.672 8.371c10.162-.441 16.726-6.903 19.1-14.215z" opacity=".2"/><path d="M43.979 23.418A20 20 0 0 1 24 43 20 20 0 0 1 4.021 23.582 20 20 0 0 0 4 24a20 20 0 0 0 20 20 20 20 0 0 0 20-20 20 20 0 0 0-.021-.582" opacity=".2"/><g aria-label="A"><path fill="#1f4855" d="M23.897 28.31h4.77l2.867 7.368h3.1l-9.268-23.9h-1.469v3.35c.023-.084.049-.166.07-.251q.134.4.333 1.166.233.733.467 1.434c.234.7.267.789.334.966l2.666 7.2h-3.87z"/><path fill="#39fea0" d="M23.987 28.307v-2.664h-3.754l2.702-7.2q.2-.566.466-1.533c.176-.584.409-1.432.567-2.033l.02-3.1h-1.321l-9.3 23.9H16.4l2.832-7.366z"/></g></svg>