<svg xmlns="http://www.w3.org/2000/svg" xmlns:xlink="http://www.w3.org/1999/xlink" width="48" height="48"><defs><linearGradient id="c"><stop offset="0" style="stop-color:#d35f5f;stop-opacity:1"/><stop offset="1" style="stop-color:#fca;stop-opacity:1"/></linearGradient><linearGradient xlink:href="#c" id="d" x1="3" x2="45" y1="24" y2="24" gradientUnits="userSpaceOnUse"/></defs><path d="M24 3A21 21 0 0 0 3 24a21 21 0 0 0 21 21 21 21 0 0 0 21-21A21 21 0 0 0 24 3" style="fill-opacity:1;fill:url(#d)"/><path fill="#b46450" d="M10.465 7.974A21 21 0 0 0 3 23.973v.066a21 21 0 0 0 7.464 16.016z"/><path d="M11.578 7.774v2h25v-2z" style="color:#000;fill:#1a1a1a;stroke-width:.883884;stroke-linejoin:round"/><path d="M11.578 8.774v1h25v-1z" style="color:#000;fill:#fff;stroke-width:.883884;stroke-linejoin:round;fill-opacity:1"/><path d="M21.734 5.774h.781v6h-.781zM13.922 5.774h.781v6h-.781zM17.828 5.774h.781v6h-.781zM25.641 5.774h.781v6h-.781zM29.547 5.774h.781v6h-.781zM33.453 5.774h.781v6h-.781z" style="color:#000;fill:#bcc2c3;stroke-width:.883884;stroke-linecap:round;stroke-linejoin:round;fill-opacity:1"/><rect width="6.023" height="6" x="25.541" y="19" ry="1.5" style="opacity:.6;fill:#fff;stroke-width:1.50285"/><rect width="6.023" height="6" x="34.575" y="28" ry="1.5" style="opacity:.6;fill:#fff;stroke-width:1.50285"/><path d="m26.293 31.75 1.506 1.5 3.764-4.5" style="fill:none;stroke:#fff;stroke-width:1.50285;stroke-linecap:round;stroke-linejoin:round"/><rect width="6.023" height="6" x="34.575" y="19" ry="1.5" style="fill:#fff;stroke-width:1.50285"/><rect width="6.023" height="6" x="16.507" y="19" ry="1.5" style="fill:#fff;stroke-width:1.50285"/><rect width="6.023" height="6" x="16.507" y="28" ry="1.5" style="fill:#fff;stroke-width:1.50285"/><rect width="6.023" height="6" x="7.473" y="28" ry="1.5" style="fill:#fff;stroke-width:1.50285"/></svg>