<svg xmlns="http://www.w3.org/2000/svg" width="56" height="56" fill="none"><path fill="url(#a)" d="M51 12a2 2 0 0 0-2-2H13a2 2 0 0 0-2 2v26a2 2 0 0 0 2 2h17.586a1 1 0 0 1 .707.293l8 8c.63.63 1.707.184 1.707-.707V41a1 1 0 0 1 1-1h7a2 2 0 0 0 2-2z"/><path fill="#000405" fill-opacity=".1" fill-rule="evenodd" d="M11 37v1a2 2 0 0 0 2 2h17.586a1 1 0 0 1 .707.293l8 8c.63.63 1.707.184 1.707-.707v-1c0 .89-1.077 1.337-1.707.707l-8-8a1 1 0 0 0-.707-.293H13a2 2 0 0 1-2-2m30 4a1 1 0 0 1 1-1h7a2 2 0 0 0 2-2v-1a2 2 0 0 1-2 2h-7a1 1 0 0 0-1 1z" clip-rule="evenodd"/><path fill="url(#b)" d="M8 10a2 2 0 0 1 2-2h36a2 2 0 0 1 2 2v26a2 2 0 0 1-2 2H28.414a1 1 0 0 0-.707.293l-8 8c-.63.63-1.707.184-1.707-.707V39a1 1 0 0 0-1-1h-7a2 2 0 0 1-2-2z"/><path fill="#031C5A" fill-opacity=".1" fill-rule="evenodd" d="M8 35v1a2 2 0 0 0 2 2h7a1 1 0 0 1 1 1v-1a1 1 0 0 0-1-1h-7a2 2 0 0 1-2-2m10 9.586v1c0 .89 1.077 1.337 1.707.707l8-8a1 1 0 0 1 .707-.293H46a2 2 0 0 0 2-2v-1a2 2 0 0 1-2 2H28.414a1 1 0 0 0-.707.293l-8 8c-.63.63-1.707.184-1.707-.707" clip-rule="evenodd"/><rect width="30" height="4" x="13" y="14" fill="url(#c)" rx="2"/><rect width="31" height="5" x="12.5" y="13.5" stroke="#004E6E" stroke-opacity=".1" rx="2.5"/><rect width="25" height="4" x="13" y="21" fill="url(#d)" rx="2"/><rect width="26" height="5" x="12.5" y="20.5" stroke="#004E6E" stroke-opacity=".1" rx="2.5"/><rect width="20" height="4" x="13" y="28" fill="url(#e)" rx="2"/><rect width="21" height="5" x="12.5" y="27.5" stroke="#004E6E" stroke-opacity=".1" rx="2.5"/><defs><linearGradient id="a" x1="51" x2="11" y1="10" y2="50" gradientUnits="userSpaceOnUse"><stop stop-color="#6EB4D9"/><stop offset="1" stop-color="#004E6E"/></linearGradient><linearGradient id="b" x1="8" x2="48" y1="8" y2="48" gradientUnits="userSpaceOnUse"><stop stop-color="#44F0D3"/><stop offset="1" stop-color="#3DAEE9"/></linearGradient><linearGradient id="c" x1="43" x2="19.585" y1="18" y2="-11.268" gradientUnits="userSpaceOnUse"><stop stop-color="#D1D5D9"/><stop offset="1" stop-color="#FCFFFF"/></linearGradient><linearGradient id="d" x1="38" x2="14.02" y1="25" y2=".021" gradientUnits="userSpaceOnUse"><stop stop-color="#D1D5D9"/><stop offset="1" stop-color="#FCFFFF"/></linearGradient><linearGradient id="e" x1="33" x2="9.393" y1="32" y2="12.328" gradientUnits="userSpaceOnUse"><stop stop-color="#D1D5D9"/><stop offset="1" stop-color="#FCFFFF"/></linearGradient></defs></svg>