<svg xmlns="http://www.w3.org/2000/svg" xmlns:xlink="http://www.w3.org/1999/xlink" width="48" height="48" viewBox="0 0 12.7 12.7"><defs><linearGradient id="b"><stop offset="0" style="stop-color:#1ba97f;stop-opacity:1"/><stop offset="1" style="stop-color:#61c0cf;stop-opacity:1"/></linearGradient><linearGradient xlink:href="#b" id="c" x1="-11.906" x2="-.794" y1="11.906" y2=".795" gradientUnits="userSpaceOnUse"/></defs><rect width="11.112" height="11.111" x="-11.906" y=".795" rx="5.556" ry="5.556" style="fill-opacity:1;fill:url(#c)" transform="scale(-1 1)"/><path d="M.797 6.212q-.002.069-.003.139a5.544 5.544 0 0 0 5.556 5.555 5.544 5.544 0 0 0 5.556-5.555q0-.07-.003-.14a5.543 5.543 0 0 1-5.553 5.417A5.54 5.54 0 0 1 .797 6.212" style="display:inline;overflow:visible;opacity:.3;fill:#000;fill-opacity:1;stroke-width:.777827;stroke-opacity:.55"/><path d="M.797 6.488Q.795 6.42.794 6.35A5.544 5.544 0 0 1 6.35.794a5.544 5.544 0 0 1 5.556 5.555q0 .07-.003.14A5.543 5.543 0 0 0 6.35 1.071 5.54 5.54 0 0 0 .797 6.488" style="display:inline;overflow:visible;opacity:.3;fill:#fff;fill-opacity:1;stroke-width:.777827;stroke-opacity:.55"/><path d="M7.883 4.562A1.533 1.533 0 0 1 6.35 6.095a1.533 1.533 0 0 1-1.533-1.533A1.533 1.533 0 0 1 6.35 3.029a1.533 1.533 0 0 1 1.533 1.533M6.35 6.605c-2.555 0-2.555 1.763-2.555 1.763v.715s.47 1.099 2.555 1.099 2.555-1.099 2.555-1.099v-.715s0-1.763-2.555-1.763" style="opacity:.2;stroke-width:.510932"/><path d="M7.883 4.306A1.533 1.533 0 0 1 6.35 5.84a1.533 1.533 0 0 1-1.533-1.533A1.533 1.533 0 0 1 6.35 2.774a1.533 1.533 0 0 1 1.533 1.532M6.35 6.35c-2.555 0-2.555 1.763-2.555 1.763v.715s.47 1.098 2.555 1.098 2.555-1.098 2.555-1.098v-.715s0-1.763-2.555-1.763" style="fill:#fff;stroke-width:.510932"/></svg>