<svg xmlns="http://www.w3.org/2000/svg" xmlns:xlink="http://www.w3.org/1999/xlink" width="48" height="48"><defs><linearGradient id="m"><stop offset="0" style="stop-color:#0cf;stop-opacity:1"/><stop offset="1" style="stop-color:#59f;stop-opacity:1"/></linearGradient><linearGradient id="e" x1="23.725" x2="27.03" y1="31.803" y2="36.26" gradientTransform="translate(-8 -73)" gradientUnits="userSpaceOnUse"><stop stop-color="#292c2f"/><stop offset="1" stop-opacity="0"/></linearGradient><linearGradient id="b" x1="34.491" x2="4.03" y1="54.701" y2="24.19" gradientTransform="translate(-8 -73)" gradientUnits="userSpaceOnUse"><stop stop-color="#6d429a"/><stop offset=".608" stop-color="#45b9f4"/><stop offset="1" stop-color="#afe6ff"/></linearGradient><linearGradient id="d" x1="29.494" x2="18.771" y1="32.34" y2="30.759" gradientTransform="translate(-8 -73)" gradientUnits="userSpaceOnUse"><stop stop-color="#4c73bd"/><stop offset="1" stop-color="#01afff"/></linearGradient><linearGradient id="c" x1="22.489" x2="27.667" y1="47.628" y2="28.317" gradientTransform="translate(-8 -73)" gradientUnits="userSpaceOnUse"><stop stop-color="#23272d"/><stop offset="1" stop-color="#324356" stop-opacity=".375"/></linearGradient><linearGradient id="f" x1="10.956" x2="8.48" y1="28.63" y2="29.536" gradientTransform="translate(-8 -73)" gradientUnits="userSpaceOnUse"><stop/><stop offset="1" stop-opacity="0"/></linearGradient><linearGradient id="n" x1="70.795" x2="81.378" y1="20.512" y2="20.512" gradientTransform="translate(-543.5 -123.14)scale(7.5637)" gradientUnits="userSpaceOnUse"><stop offset="0" stop-color="#b5cddc"/><stop offset="1" stop-color="#cee0e9"/></linearGradient><linearGradient id="p" x1="76.043" x2="76.043" y1="24.482" y2="20.084" gradientTransform="translate(-543.5 -123.14)scale(7.5637)" gradientUnits="userSpaceOnUse"><stop offset="0" stop-color="#dde8ed"/><stop offset="1" stop-color="#dee6ee"/></linearGradient><linearGradient id="j" x1="543.8" x2="503.8" gradientTransform="matrix(0 1 -1.16667 0 -452.67 -499.8)" gradientUnits="userSpaceOnUse"><stop stop-color="#197cf1"/><stop offset="1" stop-color="#21c9fb"/></linearGradient><linearGradient id="o" x1="70.795" x2="81.378" y1="20.512" y2="20.512" gradientTransform="translate(-537.786 -117.426)scale(7.5637)" gradientUnits="userSpaceOnUse"><stop offset="0" stop-color="#b5cddc"/><stop offset="1" stop-color="#cee0e9"/></linearGradient><linearGradient id="q" x1="76.043" x2="76.043" y1="24.482" y2="20.084" gradientTransform="translate(-537.786 -117.426)scale(7.5637)" gradientUnits="userSpaceOnUse"><stop offset="0" stop-color="#dde8ed"/><stop offset="1" stop-color="#dee6ee"/></linearGradient><linearGradient xlink:href="#b" id="r" x1="34.491" x2="4.03" y1="54.701" y2="24.19" gradientTransform="matrix(.75833 0 0 .75833 15.291 -7.078)" gradientUnits="userSpaceOnUse"/><linearGradient xlink:href="#c" id="s" x1="22.489" x2="27.667" y1="47.628" y2="28.317" gradientTransform="matrix(.75833 0 0 .75833 15.292 -7.078)" gradientUnits="userSpaceOnUse"/><linearGradient xlink:href="#d" id="t" x1="29.494" x2="18.771" y1="32.34" y2="30.759" gradientTransform="matrix(.75833 0 0 .75833 15.291 -7.078)" gradientUnits="userSpaceOnUse"/><linearGradient xlink:href="#e" id="u" x1="23.725" x2="27.03" y1="31.803" y2="36.26" gradientTransform="matrix(.75833 0 0 .75833 15.291 -7.078)" gradientUnits="userSpaceOnUse"/><linearGradient xlink:href="#f" id="v" x1="10.956" x2="8.48" y1="28.63" y2="29.536" gradientTransform="matrix(.75833 0 0 .75833 15.291 -7.078)" gradientUnits="userSpaceOnUse"/><linearGradient xlink:href="#j" id="w" x1="79.531" x2="115.72" y1="-19.125" y2="-19.125" gradientTransform="translate(-69.715 41.763)" gradientUnits="userSpaceOnUse"/><linearGradient xlink:href="#m" id="x" x1="85.222" x2="99.354" y1="19.142" y2="18.731" gradientTransform="translate(-64.705 22.317)" gradientUnits="userSpaceOnUse"/></defs><g stroke-width="7.564"><path fill="url(#n)" d="M32 2A30 30 0 0 0 2 32a30 30 0 0 0 30 30 30 30 0 0 0 30-30A30 30 0 0 0 32 2" style="fill:url(#o)" transform="matrix(.7 0 0 .7 1.6 1.6)"/><path fill="url(#p)" d="M31.945 28.529a3.715 3.129 0 0 0-.367.023 3.715 3.129 0 0 0-.367.047 3.715 3.129 0 0 0-.356.086 3.715 3.129 0 0 0-.351.11 3.715 3.129 0 0 0-.332.14 3.715 3.129 0 0 0-.313.168 3.715 3.129 0 0 0-.291.192 3.715 3.129 0 0 0-.195.152L6.887 48.39A30 30 0 0 0 32 61.999 30 30 0 0 0 57.104 48.38L34.627 29.446a3.715 3.129 0 0 0-.274-.211 3.715 3.129 0 0 0-.3-.184 3.715 3.129 0 0 0-.317-.16 3.715 3.129 0 0 0-.336-.133 3.715 3.129 0 0 0-.351-.101 3.715 3.129 0 0 0-.366-.074 3.715 3.129 0 0 0-.367-.043 3.715 3.129 0 0 0-.37-.012Z" style="fill:url(#q)" transform="matrix(.7 0 0 .7 1.6 1.6)"/><path fill="#fff" d="M24 3a21 21 0 0 0-17.571 9.532L22.16 25.784a2.6 2.19 0 0 0 .137.107 2.6 2.19 0 0 0 .204.134 2.6 2.19 0 0 0 .218.118 2.6 2.19 0 0 0 .233.098 2.6 2.19 0 0 0 .246.077 2.6 2.19 0 0 0 .249.06 2.6 2.19 0 0 0 .257.032 2.6 2.19 0 0 0 .257.017 2.6 2.19 0 0 0 .26-.007 2.6 2.19 0 0 0 .256-.03 2.6 2.19 0 0 0 .256-.052 2.6 2.19 0 0 0 .246-.071 2.6 2.19 0 0 0 .235-.093 2.6 2.19 0 0 0 .222-.114 2.6 2.19 0 0 0 .21-.128 2.6 2.19 0 0 0 .192-.148l15.74-13.258A21 21 0 0 0 23.999 3z"/></g><path d="M14.325 7.122v10.992l6.879 6h6l6-5 .079-5.926-6.067-6.066z" style="color:#000;fill:url(#r);fill-rule:evenodd;stroke-width:.758331"/><path d="M14.325 7.122v9.141l1.517 1.159v-10.3Zm2.275 3.791v2.275h2.275v-2.275zm3.033 0v.759h2.275v-.759zm3.034 0v.759h2.275v-.759zm-3.034 1.517v.758H30.25v-.758zm12.134.758v6.659l1.437-.733.08-5.926zm-15.167.759v.758h12.133v-.758zm0 1.516v.759h10.617v-.759zm0 1.517v.758h12.133v-.758zm1.833 1.517 1.159.758h9.166v-.758zm2.317 1.516 1.058.759h6.167l.5-.759zm1.917 1.517 1.216.758h3.334v-.758z" style="color:#000;fill:url(#s)"/><path d="M33.283 13.188h-6.067V7.122Z" color="#000" style="fill:url(#t);fill-rule:evenodd;stroke-width:.758331"/><path fill="url(#e)" fill-rule="evenodd" d="M27.216 13.188h6.067l.237 7.37z" opacity=".276" style="fill:url(#u);stroke-width:.758331"/><path fill="#34495e" d="M27.216 13.188v-1.516h4.55l1.517 1.516z" opacity=".232" style="color:#000;stroke-width:.758331"/><path fill="url(#f)" d="M18.875 13.188H16.6v-2.275h2.275z" opacity=".332" style="color:#000;fill:url(#v);fill-rule:evenodd;stroke-width:.758331"/><path d="M40.34 10.852 24.067 23.375c.022-.017-.336-.017-.315 0L7.499 10.866a21 21 0 0 0-1.683 2.454L21.94 25.731c1.2.924 2.743.924 3.943 0l16.123-12.408a21 21 0 0 0-1.666-2.47z" style="font-variant-ligatures:normal;font-variant-position:normal;font-variant-caps:normal;font-variant-numeric:normal;font-variant-alternates:normal;font-feature-settings:normal;text-indent:0;text-decoration-line:none;text-decoration-style:solid;text-decoration-color:#000;text-transform:none;text-orientation:mixed;white-space:normal;shape-padding:0;isolation:auto;mix-blend-mode:normal;fill:url(#w);fill-opacity:1;stroke-width:.699997;paint-order:stroke fill markers"/><path d="M19.228 43.402c-1.225 0-2.218-.931-2.218-2.08V34.96c0-1.024.828-1.893 1.887-2.048v-1.273c0-2.608 2.251-4.718 5.032-4.718 2.78 0 5.032 2.11 5.032 4.718v1.273c1.06.155 1.887 1.024 1.887 2.048v6.364c0 1.148-.993 2.08-2.218 2.08zm6.654-10.491v-1.553c0-.993-.86-1.83-1.953-1.83s-1.92.806-1.92 1.83v1.553z" style="fill:url(#x);stroke-width:.999993"/><path d="M23.929 27.23c2.582 0 4.7 1.987 4.7 4.408v1.583c1.027 0 1.888.807 1.888 1.77v6.363c0 .962-.861 1.769-1.887 1.769h-9.402c-1.026 0-1.887-.807-1.887-1.77V34.96c0-.962.86-1.77 1.887-1.77v-1.582c0-2.39 2.119-4.377 4.7-4.377m-2.25 5.99h4.535v-1.862c0-1.179-1.026-2.141-2.284-2.141s-2.251.962-2.251 2.141zm2.25-6.612c-2.945 0-5.362 2.266-5.362 5.029v1.024c-1.093.28-1.887 1.21-1.887 2.297v6.364c0 1.303 1.125 2.39 2.549 2.39h9.402c1.39 0 2.549-1.056 2.549-2.39v-6.364c0-1.086-.795-2.017-1.887-2.297v-1.024c0-2.763-2.417-5.029-5.363-5.029M22.34 32.6v-1.242c0-.838.728-1.52 1.622-1.52s1.622.682 1.622 1.52V32.6z" style="fill:#fff;stroke-width:.442418"/></svg>