<svg xmlns="http://www.w3.org/2000/svg" width="48" height="48"><defs><linearGradient id="a" x1="21.167" x2="22.225" y1="257.842" y2="257.842" gradientTransform="translate(-76.009 -945.579)scale(3.77976)" gradientUnits="userSpaceOnUse"><stop offset="0" style="stop-color:#bf0039;stop-opacity:1"/><stop offset="1" style="stop-color:#e93d58;stop-opacity:1"/></linearGradient><linearGradient id="b" x1="21.167" x2="31.75" y1="257.842" y2="257.842" gradientTransform="translate(-76.009 -945.579)scale(3.77976)" gradientUnits="userSpaceOnUse"><stop offset="0" style="stop-color:#1892d2;stop-opacity:1"/><stop offset=".1" style="stop-color:#1892d2;stop-opacity:1"/><stop offset=".9" style="stop-color:#1892d2;stop-opacity:1"/><stop offset="1" style="stop-color:#0f5c85;stop-opacity:1"/></linearGradient><linearGradient id="c" x1="26.987" x2="25.929" y1="254.137" y2="254.137" gradientTransform="translate(-76.009 -917.577)scale(3.77976)" gradientUnits="userSpaceOnUse"><stop offset="0" style="stop-color:#1892d2;stop-opacity:1"/><stop offset="1" style="stop-color:#e93d58;stop-opacity:1"/></linearGradient><linearGradient id="d" x1="21.167" x2="22.225" y1="257.842" y2="257.842" gradientTransform="translate(-76.009 -946.579)scale(3.77976)" gradientUnits="userSpaceOnUse"><stop offset="0" style="stop-color:#bf0039;stop-opacity:1"/><stop offset="1" style="stop-color:#e93d58;stop-opacity:1"/></linearGradient><linearGradient id="e" x1="21.167" x2="31.75" y1="257.842" y2="257.842" gradientTransform="translate(-76.009 -946.579)scale(3.77976)" gradientUnits="userSpaceOnUse"><stop offset="0" style="stop-color:#1892d2;stop-opacity:1"/><stop offset=".1" style="stop-color:#1892d2;stop-opacity:1"/><stop offset=".9" style="stop-color:#1892d2;stop-opacity:1"/><stop offset="1" style="stop-color:#0f5c85;stop-opacity:1"/></linearGradient><linearGradient id="f" x1="26.987" x2="25.929" y1="254.137" y2="254.137" gradientTransform="matrix(3.77976 0 0 9.44938 -76.009 -2362.44)" gradientUnits="userSpaceOnUse"><stop offset="0" style="stop-color:#1892d2;stop-opacity:1"/><stop offset="1" style="stop-color:#e93d58;stop-opacity:1"/></linearGradient><linearGradient id="g" x1="26.326" x2="30.948" y1="257.312" y2="257.312" gradientTransform="rotate(45 1204.624 407.54)scale(3.77976)" gradientUnits="userSpaceOnUse"><stop offset="0" style="stop-color:#00223e;stop-opacity:.537613"/><stop offset="1" style="stop-color:#5c5f62;stop-opacity:0"/></linearGradient><linearGradient id="h" x1="26.987" x2="25.929" y1="254.137" y2="254.137" gradientTransform="translate(-76.009 -946.579)scale(3.77976)" gradientUnits="userSpaceOnUse"><stop offset="0" style="stop-color:#1892d2;stop-opacity:1"/><stop offset="1" style="stop-color:#e93d58;stop-opacity:1"/></linearGradient><linearGradient id="i" x1="24.342" x2="28.575" y1="256.254" y2="256.254" gradientTransform="matrix(3.77976 0 0 2.91356 -76.009 -721.86)" gradientUnits="userSpaceOnUse"><stop offset="0" style="stop-color:#393c3f;stop-opacity:1"/><stop offset=".133" style="stop-color:#a8abb0;stop-opacity:1"/><stop offset=".333" style="stop-color:#4f5356;stop-opacity:1"/><stop offset=".875" style="stop-color:#393c3f;stop-opacity:1"/><stop offset="1" style="stop-color:#2e3134;stop-opacity:1"/></linearGradient><linearGradient id="j" x1="24.606" x2="28.31" y1="255.328" y2="255.328" gradientTransform="translate(-76.009 -941.079)scale(3.77976)" gradientUnits="userSpaceOnUse"><stop offset="0" style="stop-color:#fcffff;stop-opacity:.6"/><stop offset=".5" style="stop-color:#a8abb0;stop-opacity:.3"/><stop offset="1" style="stop-color:#fcffff;stop-opacity:.6"/></linearGradient><linearGradient id="k" x1="124" x2="132" y1="47.659" y2="47.659" gradientTransform="translate(-88.01 -24.003)scale(1.00006)" gradientUnits="userSpaceOnUse"><stop offset="0" style="stop-color:#3daee9;stop-opacity:.996078"/><stop offset=".75" style="stop-color:#3daee9;stop-opacity:.996078"/><stop offset="1" style="stop-color:#1893d4;stop-opacity:.996078"/></linearGradient><linearGradient id="l" x1="23.283" x2="29.501" y1="253.608" y2="259.826" gradientTransform="translate(-76.009 -946.579)scale(3.77976)" gradientUnits="userSpaceOnUse"><stop offset="0" style="stop-color:#3e0001;stop-opacity:.327848"/><stop offset="1" style="stop-color:#754949;stop-opacity:0"/></linearGradient><linearGradient id="m" x1="92" x2="100" y1="47.659" y2="47.659" gradientTransform="translate(-88.01 -24.003)scale(1.00006)" gradientUnits="userSpaceOnUse"><stop offset="0" style="stop-color:#ff6c7f;stop-opacity:.996078"/><stop offset=".25" style="stop-color:#ff8999;stop-opacity:.996078"/><stop offset="1" style="stop-color:#ff6c7f;stop-opacity:.996078"/></linearGradient></defs><path d="M7.996 13c-2.215 0-4 1.785-4 4v24c0 2.219 1.785 4 4 4h16V13Zm0 0" style="stroke:none;fill-rule:nonzero;fill:url(#a)"/><path d="M23.996 13v32H40c2.215 0 4-1.781 4-4V17c0-2.215-1.785-4-4-4Zm0 0" style="stroke:none;fill-rule:nonzero;fill:url(#b)"/><path d="M21.996 41h4v4h-4Zm0 0" style="stroke:none;fill-rule:nonzero;fill:url(#c)"/><path d="M7.996 13c-2.215 0-4 1.785-4 4v24c0 2.219 1.785 4 4 4H40c2.215 0 4-1.781 4-4V17c0-2.215-1.785-4-4-4Zm0 0" style="stroke:none;fill-rule:nonzero;fill:#000;fill-opacity:.273237"/><path d="M7.996 12c-2.215 0-4 1.785-4 4v24c0 2.219 1.785 4 4 4h16V12Zm0 0" style="stroke:none;fill-rule:nonzero;fill:url(#d)"/><path d="M23.996 12v32H40c2.215 0 4-1.781 4-4V16c0-2.215-1.785-4-4-4Zm0 0" style="stroke:none;fill-rule:nonzero;fill:url(#e)"/><path d="M21.996 34h4v10h-4Zm0 0" style="stroke:none;fill-rule:nonzero;fill:url(#f)"/><path d="M33.313 46.629 18.34 31.656l11.316-11.312 16.969 16.972" style="stroke:none;fill-rule:nonzero;fill:url(#g)"/><path d="M21.996 12h4v4h-4Zm0 0" style="stroke:none;fill-rule:nonzero;fill:url(#h)"/><path d="M23.996 15.5c4.422 0 8 3.582 8 8V26a8 8 0 0 1-16 0v-2.5a8 8 0 0 1 8-8m0 0" style="stroke:none;fill-rule:nonzero;fill:url(#i)"/><path d="M31.996 23.5a8 8 0 1 1-16 0 8 8 0 0 1 16 0m0 0" style="stroke:none;fill-rule:nonzero;fill:#9b9ea2;fill-opacity:1"/><path d="M30.996 23.5a7.001 7.001 0 1 1-13.998-.002 7.001 7.001 0 0 1 13.998.002m0 0" style="stroke:none;fill-rule:nonzero;fill:#5c5f62;fill-opacity:1"/><path d="M23.996 19a7 7 0 0 0-6.062 3.5 7 7 0 0 0-.758 2.137 7 7 0 0 0 6.82 5.863Zm0 0" style="stroke:none;fill-rule:nonzero;fill:#e93d58;fill-opacity:1"/><path d="M23.996 19v11.5a7 7 0 0 0 6.883-5.773A7 7 0 0 0 23.996 19m0 0" style="stroke:none;fill-rule:nonzero;fill:#1892d2;fill-opacity:1"/><path d="M23.973 17.5c-3.676.031-6.715 2.86-6.977 6.5.262 3.64 3.3 6.469 6.977 6.5 3.695-.004 6.761-2.84 7.023-6.5-.262-3.656-3.328-6.492-7.023-6.5m0 0" style="stroke:none;fill-rule:nonzero;fill:url(#j)"/><path d="M40 4a3.99 3.99 0 0 0-4 4v32c0-2.215 1.781-4 4-4 2.215 0 4 1.785 4 4V8c0-2.215-1.785-4-4-4m2.828 38.832" style="stroke:none;fill-rule:nonzero;fill:url(#k)"/><path d="M7.996 12v24a4 4 0 0 0 0 8H44L11.996 12Zm0 0" style="stroke:none;fill-rule:nonzero;fill:url(#l)"/><path d="M7.996 4c-2.215 0-4 1.785-4 4v32c0-2.215 1.785-4 4-4s4 1.785 4 4V8c0-2.215-1.785-4-4-4m2.832 38.832" style="stroke:none;fill-rule:nonzero;fill:url(#m)"/></svg>