<svg xmlns="http://www.w3.org/2000/svg" width="48" height="48" xmlns:v="https://vecta.io/nano"><defs><radialGradient cx="605.714" cy="486.648" r="117.143" fx="605.714" fy="486.648" id="A" href="#B" gradientTransform="matrix(-2.774389,0,0,1.969706,112.7623,-872.8854)"/><linearGradient id="B" href="#J"><stop offset="0"/><stop offset="1" stop-opacity="0"/></linearGradient><radialGradient cx="605.714" cy="486.648" r="117.143" fx="605.714" fy="486.648" id="C" href="#B" gradientTransform="matrix(2.774389,0,0,1.969706,-1891.633,-872.8854)"/><linearGradient x1="-1051.935" y1="-150.697" x2="-1051.935" y2="327.66" id="D" href="#J"><stop offset="0" stop-opacity="0"/><stop offset=".5"/><stop offset="1" stop-opacity="0"/></linearGradient><linearGradient x1="27" y1="38" x2="27.25" y2="10.375" id="E" href="#J"><stop offset="0" stop-color="#d3d7cf"/><stop offset="1" stop-color="#e0e3dd"/></linearGradient><linearGradient x1="4" y1="23" x2="8.125" y2="60.875" id="F" href="#J"><stop offset="0" stop-color="#fff"/><stop offset="1" stop-color="#fff" stop-opacity="0"/></linearGradient><linearGradient x1="37.33" y1="22.135" x2="41.689" y2="22.135" id="G" href="#J"><stop offset="0" stop-color="#204a87"/><stop offset="1" stop-color="#204a87" stop-opacity="0"/></linearGradient><linearGradient x1="37.33" y1="31.946" x2="40.628" y2="31.946" id="H" href="#J"><stop offset="0" stop-color="#c00"/><stop offset="1" stop-color="#c00" stop-opacity="0"/></linearGradient><radialGradient cx="21.92" cy="24.842" r="14.319" fx="21.92" fy="24.842" id="I" href="#J"><stop offset="0" stop-color="#fff"/><stop offset="1" stop-color="#fff" stop-opacity="0"/></radialGradient><linearGradient id="J" gradientUnits="userSpaceOnUse"/></defs><g transform="matrix(.022945 0 0 .017603 44.55078 39.84629)"><path d="M-1559.252-150.697h1339.634V327.66h-1339.634z" opacity=".402" fill="url(#D)"/><path d="M-219.619-150.68V327.65c142.874.9 345.4-107.17 345.4-239.196S-33.655-150.68-219.619-150.68z" opacity=".402" fill="url(#C)"/><path d="M-1559.252-150.68V327.65c-142.874.9-345.4-107.17-345.4-239.196s159.437-239.135 345.4-239.135z" opacity=".402" fill="url(#A)"/></g><rect width="41" height="39" rx="1.946" ry="1.818" x="3.5" y="3.5" fill="url(#E)" stroke="#888a85" stroke-linejoin="round"/><path d="M36.239 24.842a14.32 14.32 0 0 1-21.478 12.401 14.32 14.32 0 0 1 0-24.801 14.32 14.32 0 0 1 21.478 12.401z" transform="matrix(1.234568 0 0 1.234568 -3.727587 -6.766535)" opacity=".577" fill="url(#I)"/><g fill="none"><rect width="39" height="37" rx=".975" x="4.5" y="4.5" opacity=".6" stroke="url(#F)" stroke-linejoin="round"/><path d="M 6.7175144,37.337942 L 13.966335,25.607375 L 20,31 L 27.961048,18.838889 L 36.094616,23.217253 L 41.18897,6.9323501" stroke="url(#G)"/><path d="M 6.7175144,37.337942 L 13.953772,32.814166 L 19.875,36.147971 L 27.823485,26.85634 L 35.885669,29.913321 L 41.18897,26.554563" stroke="url(#H)"/></g><path d="M15.938 26c0 1.105-.881 2-1.969 2S12 27.105 12 26s.881-2 1.969-2 1.969.895 1.969 2zm6 5c0 1.105-.881 2-1.969 2S18 32.105 18 31s.881-2 1.969-2 1.969.895 1.969 2zM30 19c0 1.105-.881 2-1.969 2s-1.969-.895-1.969-2 .881-2 1.969-2S30 17.895 30 19zm7.938 4c0 1.105-.881 2-1.969 2S34 24.105 34 23s.881-2 1.969-2 1.969.895 1.969 2z" fill="#204a87"/><path d="M15.938 33c0 1.105-.881 2-1.969 2S12 34.105 12 33s.881-2 1.969-2 1.969.895 1.969 2zm6 3c0 1.105-.881 2-1.969 2S18 37.105 18 36s.881-2 1.969-2 1.969.895 1.969 2zm8-9c0 1.105-.881 2-1.969 2S26 28.105 26 27s.881-2 1.969-2 1.969.895 1.969 2zm8 3c0 1.105-.881 2-1.969 2S34 31.105 34 30s.881-2 1.969-2 1.969.895 1.969 2z" fill="#c00"/></svg>