<svg xmlns="http://www.w3.org/2000/svg" height="64" width="64" xmlns:v="https://vecta.io/nano"><linearGradient id="A" href="#O"/><linearGradient id="B" x1="35.002" x2="52.002" href="#L" y1="32" y2="49"/><linearGradient id="C" x1="6" x2="19" href="#L" y1="32" y2="45"/><linearGradient id="D" gradientUnits="userSpaceOnUse" x1="32" x2="32" y1="58" y2="32"><stop offset="0" stop-color="#fdad23"/><stop offset="1" stop-color="#fdc96f"/></linearGradient><linearGradient id="E" gradientUnits="userSpaceOnUse" x1="32" x2="32" y1="32" y2="6"><stop offset="0" stop-color="#27ad60"/><stop offset="1" stop-color="#58d68d"/></linearGradient><linearGradient id="F" gradientUnits="userSpaceOnUse" x1="32" x2="32" y1="58" y2="32"><stop offset="0" stop-color="#8e44ad"/><stop offset="1" stop-color="#af7ac4"/></linearGradient><linearGradient id="G" x1="32" x2="32" href="#O" y1="35" y2="29"/><linearGradient id="H" gradientUnits="userSpaceOnUse" x1="32" x2="32" y1="36" y2="28"><stop offset="0" stop-color="#5c7274"/><stop offset="1" stop-color="#a4a4a4"/></linearGradient><linearGradient id="I" href="#N" y1="58" y2="40"/><linearGradient id="J" gradientUnits="userSpaceOnUse" x1="25.637" x2="57.998" y1="40.676" y2="40.676"><stop offset="0" stop-color="#292c2f"/><stop offset="1" stop-color="#292c2f" stop-opacity="0"/></linearGradient><linearGradient id="K" x1="46" x2="53.135" href="#L" y1="40" y2="47.135"/><linearGradient id="L" gradientUnits="userSpaceOnUse"><stop offset="0" stop-color="#292c2f"/><stop offset="1" stop-opacity="0"/></linearGradient><linearGradient id="M" gradientUnits="userSpaceOnUse" x1="32" x2="32" y1="32" y2="6"><stop offset="0" stop-color="#1190d9"/><stop offset="1" stop-color="#73c4ef"/></linearGradient><linearGradient id="N" gradientUnits="userSpaceOnUse" x1="32" x2="32" y1="41" y2="23"><stop offset="0" stop-color="#cecece"/><stop offset="1" stop-color="#ececec"/></linearGradient><linearGradient id="O" gradientUnits="userSpaceOnUse" x1="6" x2="6" y1="58" y2="6"><stop offset="0" stop-color="#98a7b0"/><stop offset="1" stop-color="#dde1e3"/></linearGradient><linearGradient id="P" x1="26" x2="50" href="#L" y1="26" y2="50"/><path d="M32 23a9 9 0 1 0 0 18 9 9 0 1 0 0-18zm0 6c1.662 0 3 1.338 3 3s-1.338 3-3 3-3-1.338-3-3 1.338-3 3-3z" fill="url(#A)"/><path d="M32.002 57V37a5 5 0 0 0 5-5H58c0 14.404-11.595 25-25.998 25z" fill="url(#F)"/><path d="M31.998 57V37a5 5 0 0 1-5-5H6c0 14.404 11.595 25 25.998 25z" fill="url(#D)"/><path d="M6 32l22 22 3.998-2.998v-6.277l-6.361-6.362.004-.004A9 9 0 0 1 23 32zm22.582 8.32a9 9 0 0 0 .272.1 9 9 0 0 1-.272-.1zm.842.3a9 9 0 0 0 .306.077 9 9 0 0 1-.306-.078zm.879.214a9 9 0 0 0 .306.047 9 9 0 0 1-.306-.047zm.875.125a9 9 0 0 0 .82.041 9 9 0 0 1-.82-.041z" fill="url(#C)" opacity=".1"/><path d="M32 6v21a5 5 0 0 0-5 5H6.002C6.002 17.596 17.597 6 32 6z" fill="url(#E)"/><path d="M6.025 31L6 32h18v-1z" fill="#292c2f" opacity=".2"/><path d="M6.002 31.191v.655c0 11.513 7.324 21.237 17.559 24.748l.976-.711C13.991 52.654 6.283 42.779 6.002 31.19z" fill="#ca902a"/><path d="M32 6v21a5 5 0 0 1 5 5h20.998C57.998 17.596 46.403 6 32 6z" fill="url(#M)"/><path d="M40 31v1h17.998l-.025-1zm-8-4a5 5 0 1 0 0 10 5 5 0 0 0 0-10zm0 2c1.662 0 3 1.338 3 3s-1.338 3-3 3-3-1.338-3-3 1.338-3 3-3z" fill="#292c2f" opacity=".2"/><path d="M32 23a9 9 0 1 0 0 18 9 9 0 0 0 0-18zm0 4a5 5 0 1 1 0 10 5 5 0 0 1 0-10z" fill="url(#N)"/><path d="M37 28a1 1 0 1 1 0-2 1 1 0 0 1 0 2zM27 38a1 1 0 1 1 0-2 1 1 0 0 1 0 2zm1-11a1 1 0 1 1-2 0 1 1 0 0 1 2 0zm10 10a1 1 0 1 1-2 0 1 1 0 0 1 2 0z" fill="#292c2f" opacity=".4"/><path d="M32 28a4 4 0 1 0 0 8 4 4 0 0 0 0-8zm0 1a3 3 0 1 1 0 6 3 3 0 0 1 0-6z" fill="url(#H)"/><path d="M33 25a1 1 0 1 1-2 0 1 1 0 0 1 2 0zm7 7a1 1 0 1 1-2 0 1 1 0 0 1 2 0zm-7 7a1 1 0 1 1-2 0 1 1 0 0 1 2 0zm-7-7a1 1 0 1 1-2 0 1 1 0 0 1 2 0z" fill="#4d4d4d"/><path d="M40.979 32.424A9 9 0 0 1 32 41a9 9 0 0 1-8.979-8.424A9 9 0 0 0 23 33a9 9 0 1 0 18 0 9 9 0 0 0-.021-.576z" fill="#7f8c8d"/><path d="M41 32a9 9 0 0 1-15.36 6.36l-.003.003 9.5 9.5L37 46l1-2 8-4 7.135 7.135a25.966 25.966 0 0 0 2.486-4.242L44.727 32zm11.967 15.389l-.264.343a25.966 25.966 0 0 0 .264-.343zm-1.705 2.095l-.162.17a25.966 25.966 0 0 0 .162-.17zM49.54 51.2l-.24.223a25.966 25.966 0 0 0 .24-.223zm-2.01 1.658l-.306.229a25.966 25.966 0 0 0 .306-.229zm-2.203 1.475l-.334.193a25.966 25.966 0 0 0 .334-.193zm-2.371 1.258l-.066.03.004.003a25.966 25.966 0 0 0 .062-.033z" fill="url(#P)" opacity=".3"/><path d="M41 32h3.727l-6.27-6.27A9 9 0 0 1 41 32z" fill="url(#J)" opacity=".2"/><path d="M46 40l-8 4-1 2-3 3-10.447 7.6A26.11 26.11 0 0 0 32 58l.648-.016L37 52l3-3 2-1z" fill="#292c2f" opacity=".2"/><path d="M46 40l-4 8-2 1-3 3-4.352 5.984a25.91 25.91 0 0 0 20.5-10.836z" fill="url(#K)" opacity=".2"/><circle cx="32" cy="32" fill="url(#G)" r="3"/><path d="M44.721 32l10.883 10.88A25.912 25.912 0 0 0 58 32z" fill="url(#B)" opacity=".1"/><path d="M57.998 31.191c-.333 13.717-11.07 25.039-24.605 25.77l-.745 1.023c14.1-.345 25.35-11.868 25.35-26.138v-.655z" fill="#6e3e86"/><path d="M46 40l-8 4-1 2-3 3-10.447 7.6A26.11 26.11 0 0 0 32 58l.648-.016L37 52l3-3 2-1zm-6 4.586L41.414 46 40 47.414 38.586 46zM36.586 48L38 49.414l-.586.586H36v-1.414zM34 51a1 1 0 1 1 0 2 1 1 0 1 1 0-2zm-3 2l2 2-1.654 1.984a25.525 25.525 0 0 1-4.516-.51zm-4.035 4.51l.289.05-.29-.05z" fill="url(#I)"/><path d="M36 48.586L31 53l2 2 4.414-5H36zM38.586 46l-2 2L38 49.414l2-2zM44 42l-4 2.586L41.414 46z" fill="#292c2f" opacity=".1"/></svg>