<svg xmlns="http://www.w3.org/2000/svg" width="48" height="48"><circle cx="24" cy="24" r="21" fill="#4caf50" style="stroke-width:3.77948;paint-order:stroke fill markers"/><path fill-rule="evenodd" d="M11.616 11.558c-.775 0-.775.772-.775.772v3.097s0 .78.775.775l.773-.005v18.579c0 .856.693 1.547 1.55 1.547h2.368c.082-.03 17.195-17.465 19.79-20.126l.29.005c.772.015.772-.775.772-.775v-3.094c0-.775-.773-.775-.773-.775h-9.29s-.773 0-.773.772v3.097c0 .775.773.775.773.775s.775 0 .728-.005l-7.694 7.746v-7.749l.774.008c.775.005.775-.775.775-.775v-3.095c0-.859-.775-.774-.775-.774z" style="fill:#fff;stroke-width:3.18283;paint-order:markers stroke fill"/><path d="M24.348 36.444h1.557l1.193-5.966h-1.557zm2.173-6.924a1.104 1.104 0 0 0 1.1-.854c.106-.51-.223-.851-.758-.851a1.1 1.1 0 0 0-1.109.851c-.094.49.223.854.767.854m1.075 6.924h1.554l.822-4.102c.51-.445.948-.668 1.288-.668.564 0 .757.33.576 1.245l-.703 3.525h1.565l.822-4.102c.51-.445.948-.668 1.287-.668.567 0 .758.33.577 1.245l-.703 3.525h1.567l.745-3.718c.297-1.503-.106-2.396-1.374-2.396-.777 0-1.45.47-2.11 1.044-.148-.66-.576-1.044-1.428-1.044-.777 0-1.418.426-2.025.948h-.042l.052-.8H28.79z" style="font-style:italic;font-weight:700;font-size:4.304px;letter-spacing:0;word-spacing:0;fill:#fff;stroke-width:.843448;stroke-opacity:.098;paint-order:markers stroke fill"/></svg>