<svg xmlns="http://www.w3.org/2000/svg" viewBox="0 0 48 48"><path fill="url(#a)" d="M4 9a5 5 0 0 1 5-5h30a5 5 0 0 1 5 5v30a5 5 0 0 1-5 5H9a5 5 0 0 1-5-5z"/><path fill-opacity=".3" d="M4 38v1a5 5 0 0 0 5 5h30a5 5 0 0 0 5-5v-1a5 5 0 0 1-5 5H9a5 5 0 0 1-5-5"/><path d="M32 11 12.605 31 26 44h18V23Z" style="fill:url(#b)"/><path d="M15 13v16h16V13z" style="fill:#fff"/><path fill="#152940" fill-opacity=".2" d="M8 38c0-1.105.716-2 1.6-2h28.8c.884 0 1.6.895 1.6 2s-.716 2-1.6 2H9.6c-.884 0-1.6-.895-1.6-2"/><path stroke="#000" stroke-opacity=".02" d="M38.4 35.5H9.6c-1.258 0-2.1 1.23-2.1 2.5s.842 2.5 2.1 2.5h28.8c1.258 0 2.1-1.23 2.1-2.5s-.842-2.5-2.1-2.5Z" style="fill:#e1dedb;fill-opacity:1"/><path fill="url(#c)" d="M8 38c0-1.105.746-2 1.667-2h16.666c.92 0 1.667.895 1.667 2s-.746 2-1.667 2H9.667c-.461 0-.878-.224-1.18-.587A2.2 2.2 0 0 1 8 38"/><defs><linearGradient id="a" x1="4" x2="44" y1="4" y2="44" gradientUnits="userSpaceOnUse"><stop stop-color="#fff"/><stop offset="1" stop-color="#EFF0F1"/></linearGradient><linearGradient id="b" x1="13.26" x2="44.327" y1="11.123" y2="43.688" gradientUnits="userSpaceOnUse"><stop offset=".047" stop-color="#00022F" stop-opacity=".4"/><stop offset=".63" stop-color="#00022F" stop-opacity="0"/></linearGradient><linearGradient id="c" x1="18" x2="18" y1="36" y2="40" gradientUnits="userSpaceOnUse"><stop stop-color="#5DC6FF"/><stop offset="1" stop-color="#3DAEE9"/></linearGradient></defs><path d="M24 8c-6.624 0-11.995 5.368-12 12v9.3c0 1.482 1.223 2.7 2.7 2.7H24c6.63-.003 12-5.374 12-12S30.627 8 24 8Zm3 4.937V13c2.016 0 4.046 1.483 4.046 3.611 0 .197-.002.394-.034.618-.056.566-.573.85-1.136.771-.564-.08-.82-.417-.842-1.053.009-.063.013-.164.013-.336 0-1.206-1.113-1.673-2.047-1.673-.933 0-1.997.776-2 1.663V20l1.732-.013c1.353-.028 1.366 2.01.014 2.001l-1.746.01-.013 2.865c-.209 2.25-2.25 4.056-4.55 4.056-2.438 0-4.45-1.995-4.45-4.439.073-2.514 2.083-4.492 4.607-4.468l1.406-.01V22l-1.418.013c-1.387.04-2.574.982-2.597 2.467a2.44 2.44 0 0 0 2.453 2.439c1.356 0 2.564-.994 2.564-2.443v-7.883c0-.14.008-.253.024-.407C23.254 14.336 25.128 13 27 13Z" style="fill:#51a2da"/></svg>