<svg xmlns="http://www.w3.org/2000/svg" width="48" height="48"><path d="M45 24a21 21 0 0 1-21 21A21 21 0 0 1 3 24 21 21 0 0 1 24 3a21 21 0 0 1 21 21" opacity=".99" style="fill:#303650;fill-opacity:1;stroke-width:1.06438"/><path d="M22.26 10.51a.923.923 0 0 0-1.22.474l-.507 1.152a7.39 7.471 23.785 0 0-1.981-.022l-.464-1.196a.923.923 0 0 0-1.198-.528l-1.725.67a.923.923 0 0 0-.527 1.197l.468 1.206a7.39 7.471 23.785 0 0-1.435 1.35l-1.169-.515a.923.923 0 0 0-1.22.474l-.746 1.693a.923.923 0 0 0 .473 1.22l1.105.487a7.39 7.471 23.785 0 0-.105 2.053l-1.065.413a.923.923 0 0 0-.528 1.197l.67 1.725a.923.923 0 0 0 1.197.528l.958-.372a7.39 7.471 23.785 0 0 1.477 1.615l-.394.893a.923.923 0 0 0 .473 1.22l1.694.746a.923.923 0 0 0 1.22-.474l.379-.86a7.39 7.471 23.785 0 0 2.229.037l.345.889a.923.923 0 0 0 1.197.527l1.725-.67a.923.923 0 0 0 .528-1.196l-.371-.956a7.39 7.471 23.785 0 0 1.52-1.52l.987.435a.923.923 0 0 0 1.22-.474l.746-1.693a.923.923 0 0 0-.474-1.22l-1.047-.461a7.39 7.471 23.785 0 0 .014-2.066l1.099-.426a.923.923 0 0 0 .527-1.198l-.67-1.724a.923.923 0 0 0-1.197-.528l-1.129.438a7.39 7.471 23.785 0 0-1.408-1.446l.497-1.128a.923.923 0 0 0-.474-1.22zm-.762 4.024a5.26 5.26 0 0 1 2.693 6.938 5.26 5.26 0 0 1-6.938 2.693 5.26 5.26 0 0 1-2.693-6.937 5.26 5.26 0 0 1 6.938-2.694" style="fill:#fff;fill-opacity:.69999999;stroke-width:.925264"/><path d="M34.651 21.856a.923.923 0 0 0-1.22.474l-.373.846a5.7 5.7 0 0 0-1.684-.037l-.335-.862a.923.923 0 0 0-1.197-.528l-.863.335a.923.923 0 0 0-.527 1.197l.336.865a5.7 5.7 0 0 0-1.218 1.162l-.848-.374a.923.923 0 0 0-1.22.473l-.373.847a.923.923 0 0 0 .474 1.22l.846.373a5.7 5.7 0 0 0-.037 1.684l-.862.335a.923.923 0 0 0-.528 1.197l.335.863a.923.923 0 0 0 1.197.527l.865-.335a5.7 5.7 0 0 0 1.162 1.217l-.374.848a.923.923 0 0 0 .473 1.22l.847.373a.923.923 0 0 0 1.22-.473l.373-.847a5.7 5.7 0 0 0 1.684.037l.335.862a.923.923 0 0 0 1.197.528l.863-.335a.923.923 0 0 0 .527-1.197l-.335-.865a5.7 5.7 0 0 0 1.217-1.162l.848.374a.923.923 0 0 0 1.22-.473l.373-.847a.923.923 0 0 0-.473-1.22l-.847-.373a5.7 5.7 0 0 0 .037-1.684l.862-.335a.923.923 0 0 0 .528-1.197l-.335-.863a.923.923 0 0 0-1.197-.527l-.865.336a5.7 5.7 0 0 0-1.162-1.218l.374-.848a.923.923 0 0 0-.473-1.22zm-1.22 3.917a3.325 3.325 0 0 1 1.7 4.384 3.325 3.325 0 0 1-4.383 1.702 3.325 3.325 0 0 1-1.702-4.384 3.325 3.325 0 0 1 4.384-1.702" style="fill:#fff;stroke-width:.925264"/><path d="M20.84 28.96a.64.64 0 0 0-.849.33l-.26.59a4 4 0 0 0-1.171-.026l-.233-.6a.64.64 0 0 0-.833-.368l-.6.233a.64.64 0 0 0-.367.833l.233.602a4 4 0 0 0-.847.809l-.59-.26a.64.64 0 0 0-.849.329l-.26.589a.64.64 0 0 0 .33.849l.59.26a4 4 0 0 0-.027 1.171l-.6.233a.64.64 0 0 0-.367.833l.233.6c.129.333.5.497.833.368l.602-.234a4 4 0 0 0 .808.847l-.26.59a.64.64 0 0 0 .33.85l.589.259a.64.64 0 0 0 .849-.33l.26-.589a4 4 0 0 0 1.171.026l.233.6c.129.333.5.496.833.367l.6-.233c.333-.129.496-.5.367-.833l-.233-.602a4 4 0 0 0 .847-.808l.59.26a.64.64 0 0 0 .849-.33l.26-.589a.64.64 0 0 0-.33-.848l-.59-.26a4 4 0 0 0 .027-1.172l.6-.233c.332-.129.496-.5.367-.833l-.233-.6a.64.64 0 0 0-.833-.367l-.602.233a4 4 0 0 0-.808-.847l.26-.59a.64.64 0 0 0-.33-.849zm-.85 2.726a2.314 2.314 0 0 1 1.185 3.05 2.314 2.314 0 0 1-3.05 1.185 2.314 2.314 0 0 1-1.185-3.05 2.314 2.314 0 0 1 3.05-1.185" style="fill:#fff;fill-opacity:.64999998;stroke-width:.925264"/></svg>