<svg xmlns="http://www.w3.org/2000/svg" xmlns:xlink="http://www.w3.org/1999/xlink" width="48" height="48"><defs><linearGradient id="c"><stop offset="0" style="stop-color:#252940;stop-opacity:1"/><stop offset="1" style="stop-color:#60f;stop-opacity:1"/></linearGradient><linearGradient id="b"><stop offset="0" style="stop-color:#00aad4;stop-opacity:1"/><stop offset="1" style="stop-color:#95f;stop-opacity:1"/></linearGradient><linearGradient id="a"><stop offset="0" style="stop-color:#fff;stop-opacity:1"/><stop offset="1" style="stop-color:#e4e4e4;stop-opacity:1"/></linearGradient><linearGradient xlink:href="#b" id="g" x1="24" x2="24" y1="283.067" y2="325.067" gradientUnits="userSpaceOnUse"/><linearGradient xlink:href="#c" id="e" x1="23.714" x2="24.286" y1="287.995" y2="366.745" gradientUnits="userSpaceOnUse"/><linearGradient xlink:href="#d" id="h" x1="-36.765" x2="19.515" y1="151.144" y2="147.64" gradientTransform="translate(9.69 9.91)" gradientUnits="userSpaceOnUse"/><linearGradient id="d"><stop offset="0" style="stop-color:#bc5fd3;stop-opacity:1"/><stop offset="1" style="stop-color:#0cf;stop-opacity:1"/></linearGradient><linearGradient xlink:href="#d" id="i" x1="-36.765" x2="19.515" y1="151.144" y2="147.64" gradientTransform="translate(9.69 9.91)" gradientUnits="userSpaceOnUse"/><linearGradient xlink:href="#d" id="j" x1="-36.765" x2="19.515" y1="151.144" y2="147.64" gradientTransform="translate(9.69 9.91)" gradientUnits="userSpaceOnUse"/><linearGradient xlink:href="#d" id="k" x1="-36.765" x2="19.515" y1="151.144" y2="147.64" gradientTransform="translate(9.69 9.91)" gradientUnits="userSpaceOnUse"/><linearGradient xlink:href="#d" id="l" x1="-36.765" x2="19.515" y1="151.144" y2="147.64" gradientTransform="translate(9.69 9.91)" gradientUnits="userSpaceOnUse"/></defs><g transform="translate(0 -280.067)"><circle cx="24" cy="304.067" r="21" style="fill:url(#e);fill-opacity:1"/><circle cx="24" cy="304.067" r="19.945" style="opacity:1;fill:none;fill-opacity:1;stroke:url(#g);stroke-width:2.10957;stroke-linecap:round;stroke-miterlimit:4;stroke-dasharray:none;stroke-dashoffset:0;stroke-opacity:1"/><g style="fill:url(#h);fill-opacity:1;stroke-width:2.44978" transform="matrix(.41282 0 0 .40363 31.944 244.475)"><path d="M-4.113 128.325a4.9 4.9 0 0 1-3.44-1.508 4.9 4.9 0 0 1-1.332-3.51c1.145 1.308 2.245 2.364 3.807 3.126.384.188.797.372 1.044.723.246.35.35 1.176-.079 1.17m15.67 3.996c-.894-1.421-2.674-1.349-4.26-1.898a30.4 30.4 0 0 1-7.783-4.034c-.055-2.502-1.778-4.626-3.61-6.33-1.836-1.704-3.957-3.122-5.52-5.076-1.565-1.955-2.496-4.696-1.477-6.983-1.855 1.419-2.67 3.708-2.61 6.043a11.6 11.6 0 0 1-1.278-3.379 6.07 6.07 0 0 0-.673 4.43 6.07 6.07 0 0 0 2.584 3.663c-8.08-1.816-17.39.326-23.695 5.695 5.244-.47 10.839.953 14.455 4.783-.783 2.254.548 4.762 2.388 6.281 1.841 1.517 4.136 2.352 6.197 3.552 2.063 1.2 4.027 2.988 4.392 5.345.221 1.422-.287 3.04-1.535 3.758.802.253 1.89.162 2.491-.424a5.75 5.75 0 0 1-2.204 3.262c1.59.488 3.339-.406 4.195-1.832 1.142.238 2.31-.5 2.938-1.484.63-.984.835-2.17 1.03-3.321-.664.656-1.292 1.113-2.223 1.184.456-1.401-.517-2.877-1.664-3.803-1.145-.926-2.532-1.6-3.412-2.781-1.1-1.475-1.303-3.395-.293-4.933-.5-.732-.93-1.188-1.175-2.042 2.999 3.036 7.196 4.852 11.461 4.96.651.016 1.326 0 1.923.259.596.26 1.09.897.943 1.532.55-.401.98-.84 1.206-1.483a4.81 4.81 0 0 1-.28 4.528 7.56 7.56 0 0 0 3.98-4.358c.263.669.283 1.561.055 2.244 1.69-.291 2.783-1.054 3.603-2.559.802-1.473.744-3.379-.15-4.799" style="fill:url(#i);fill-opacity:1;fill-rule:nonzero;stroke:none;stroke-width:.326637"/><path d="M-20.58 187.253c13.955.518 26.346-6.322 33.61-16.945a54 54 0 0 1-4.822 1.644c-8.789 2.53-18.75 2.43-26.544-2.355 5.348.911 10.154 1.418 15.491.446 5.336-.971 10.51-3.247 14.452-6.975 2.164-2.048 3.904-4.48 5.285-7.121 2.334-4.46 3.168-9.595 2.27-14.548l-.012-.07a35.7 35.7 0 0 1-5.54 8.406c-4.035 4.541-9.322 8.057-15.219 9.512-8.597 2.121-22.237-.287-25.292-9.947-1.456-4.605-.116-9.977 3.332-13.36 1.795-1.761 4.052-2.97 6.01-4.548 3.64-2.933 6.122-7.027 8.529-11.032l-.562-.636c-8.252-4.036-17.869-5.215-26.852-3.29l5.38 2.505c-3.02-.211-6.069.004-9.032.634q2.376.854 4.75 1.71c-7.107 1.013-13.762 4.898-18.139 10.588 1.892-.875 3.55-1.495 5.625-1.686-1.49 1.728-2.618 4.214-2.674 6.495l3.104-2.77c-1.787 9.08-.304 18.769 4.117 26.898 4.423 8.13 11.75 14.64 20.344 18.073-11.47-2.366-22.281-9.493-28.485-19.426-3.202-5.123-5.258-10.932-6.108-16.911a39 39 0 0 0-.355 8.39c1.285 19.758 17.55 35.585 37.336 36.32" style="fill:url(#j);fill-opacity:1;fill-rule:nonzero;stroke:none;stroke-width:.326637"/><path d="M-50.182 138.787c-.796 10.476 2.782 21.217 9.704 29.122-4.03-4.109-8.51-8.19-10.703-13.512-2.192-5.321-2.147-10.792.999-15.61" style="fill:url(#k);fill-opacity:1;fill-rule:nonzero;stroke:none;stroke-width:.326637"/><path d="M-2.72 171.556c5.34-.324 10.538-2.604 14.394-6.312-.94 2.645-3.403 4.53-6.063 5.427s-5.524.942-8.332.885" style="fill:url(#l);fill-opacity:1;fill-rule:nonzero;stroke:none;stroke-width:.326637"/></g></g></svg>