<svg xmlns="http://www.w3.org/2000/svg" width="128" height="128" xmlns:v="https://vecta.io/nano"><style><![CDATA[.B{stroke-linecap:round}.C{stroke-linejoin:round}.D{stroke-width:3.765}]]></style><defs><linearGradient id="A" x1="266" x2="265" y1="102" y2="101" gradientUnits="userSpaceOnUse"><stop offset="0" stop-color="#d5d3cf"/><stop offset="1" stop-color="#fff"/></linearGradient><clipPath id="B"><path d="m252 116 28-28v-8h-36v36z" fill="#e74747"/></clipPath></defs><g transform="translate(0 -172)"><g transform="matrix(-.3 0 0 -.2128 -12.8 247.36)"><rect x="-429.33" y="-190.96" width="346.67" height="451.13" rx="26.667" ry="44.432" fill="#1a5fb4" paint-order="normal"/><rect x="-429.33" y="-181.57" width="346.67" height="451.13" rx="26.667" ry="44.432" fill="#d5d3cf" paint-order="normal"/><rect x="-429.33" y="-153.37" width="346.67" height="451.13" rx="26.667" ry="37.594" fill="#f6f5f4" paint-order="normal"/></g><g fill="#d5d3cf"><circle cx="108" cy="252" r="2"/><circle cx="108" cy="242" r="2"/><circle cx="108" cy="232" r="2"/><circle cx="108" cy="222" r="2"/><circle cx="108" cy="212" r="2"/><circle cx="108" cy="202" r="2"/><circle cx="108" cy="192" r="2"/><circle cx="20" cy="272" r="2"/><circle cx="20" cy="262" r="2"/><circle cx="20" cy="252" r="2"/><circle cx="20" cy="242" r="2"/><circle cx="20" cy="232" r="2"/><circle cx="20" cy="222" r="2"/><circle cx="20" cy="212" r="2"/><circle cx="20" cy="202" r="2"/><circle cx="20" cy="192" r="2"/></g><g opacity=".3" stroke="#d5d3cf" fill="none" stroke-width="2"><path d="M28 191h72m-72 10h72m-72 10h72m-72 10h72m-72 10h72m-72 10h72m-72 10h72m-72 10h72m-72 10h66"/></g><g opacity=".1" stroke="#00000f" fill="none"><path d="M30 238l-8 8" stroke-width="6"/><path d="M22 246L8 260" stroke-width="12" class="B"/><circle cx="52" cy="216" r="30.118" opacity="1" class="C D"/></g><g fill="none"><path d="M5.89 254.55l15.457-15.457" opacity=".154" stroke-width="1.638" stroke="#fff" class="B"/><g stroke-width="6"><path d="M30 236l-8 8" stroke="#949390"/><path d="M30 234l-8 8" stroke="#d5d3cf"/></g><g stroke-width="12" class="B"><path d="M22 244L8 258" stroke="#241f31"/><path d="M22 242L8 256" stroke="#424048"/></g></g><circle transform="matrix(-1 0 0 1 -20 0)" cx="-72" cy="212.06" r="29.938" fill="#fff" opacity=".5"/><g fill="none"><g class="C D"><circle cx="52" cy="214" r="30.118" stroke="#1a5fb4"/><circle cx="52" cy="212" r="30.118" stroke="#62a0ea"/></g><path d="M5 255l16-16" opacity=".154" stroke-width="2" stroke="#fff" class="B"/></g><rect transform="matrix(0 1 1 0 .000003 .000003)" x="252" y="88" width="36" height="36" rx="8" clip-path="url(#B)" fill="url(#A)" paint-order="normal"/></g></svg>