<svg xmlns="http://www.w3.org/2000/svg" width="48" height="48"><defs><linearGradient id="b"><stop offset="0" style="stop-color:#ffa92d;stop-opacity:1"/><stop offset="1" style="stop-color:#ffe569;stop-opacity:1"/></linearGradient><linearGradient id="a" x2="0" y1="44" y2="8" gradientUnits="userSpaceOnUse"><stop stop-color="#42a603"/><stop offset="1" stop-color="#78da06"/></linearGradient><linearGradient id="c" x1="408.6" x2="387.6" y1="542.8" y2="521.8" gradientTransform="translate(-384.57 -499.8)" gradientUnits="userSpaceOnUse"><stop stop-color="#197cf1"/><stop offset="1" stop-color="#20bcfa"/></linearGradient></defs><path d="M24 18c-10.4 0-20 5.4-20 9 0 1.7 6.8 1.5 7 3l1.7 10.7c.1 1.2.6 1.7 1.3 2 6.8 1.75 13.4 1.7 19.9 0 .7-.2 1.1-.7 1.4-2L37 30c.3-1.2 7-1.3 7-3 0-3.6-9.6-9-20-9" style="fill:url(#a)"/><path d="M4.1 26.3c-.1.26-.1.5-.1.7 0 1.7 6.8 1.5 7 3l1.7 10.7c.1 1.26.65 1.7 1.3 2 6.8 1.8 13.4 1.7 19.9 0 .7-.2 1-.7 1.35-2L37 30c.3-1.23 7-1.33 7-3 0-.2 0-.4-.1-.7-.8 1.4-6.6 1.5-6.9 2.7l-1.7 10.7c-.3 1.26-.65 1.8-1.3 2-6.5 1.7-13.1 1.75-19.9 0-.7-.2-1.2-.7-1.3-2L11 29c-.2-1.4-6.1-1.34-6.9-2.7" style="fill:#000;opacity:.15"/><path d="M24 4c-5.5 0-10 4.6-10 10 0 3.4 1.8 6.5 4.6 7.9 1.8 3 1 1.3 1.3 3.8 0 .65.55 1.2 1.2 1.2 2.1 1.6 4 1.4 5.8 0 .7 0 1.2-.5 1.2-1.2.35-2.4-.16-2.1 1.1-3.7 2.9-1.7 4.8-4.5 4.8-8 0-5.36-4.5-10-10-10" style="fill:url(#b)"/><path d="M18.6 21.9c.4.7.8 1.7 1 3.55 0 .7.8 1.4 1.5 1.4 2.3 1.8 3.95 1.6 5.8 0 .7 0 1.5-.7 1.5-1.4.24-1.74.6-2.9.84-3.47l-2 1h-6.55z" style="fill:url(#c)"/><path d="M20 9c-1.108 0-2 .892-2 2s.892 2 2 2 2-.892 2-2-.892-2-2-2" style="fill:#fbfeff"/></svg>