<svg xmlns="http://www.w3.org/2000/svg" xmlns:xlink="http://www.w3.org/1999/xlink" width="48" height="48" viewBox="0 0 12.7 12.7"><defs><linearGradient id="b"><stop offset="0" style="stop-color:#1ba97f;stop-opacity:1"/><stop offset=".82" style="stop-color:#4fbabb;stop-opacity:1"/><stop offset=".829" style="stop-color:teal;stop-opacity:1"/><stop offset="1" style="stop-color:teal;stop-opacity:1"/></linearGradient><linearGradient id="d" x1="13" x2="42" y1="14" y2="43" gradientTransform="matrix(.795 0 0 .795 61.988 -38.789)" gradientUnits="userSpaceOnUse"><stop offset="0" stop-color="#ffb24d"/><stop offset=".362" stop-color="#ffa733"/><stop offset="1" stop-color="#f28100"/></linearGradient><linearGradient xlink:href="#b" id="c" x1="-11.906" x2="-.794" y1="6.351" y2="6.488" gradientUnits="userSpaceOnUse"/><radialGradient id="e" cx="-12.915" cy="3.525" r="11.947" gradientTransform="matrix(.25904 -.00056 -.00116 .06564 1.243 11.348)" gradientUnits="userSpaceOnUse"><stop offset="0"/><stop offset=".391" stop-opacity=".882"/><stop offset=".796" stop-opacity=".31"/><stop offset="1" stop-opacity="0"/></radialGradient></defs><rect width="11.112" height="11.111" x="-11.906" y=".795" rx="5.556" ry="5.556" style="fill-opacity:1;fill:url(#c)" transform="scale(-1 1)"/><path d="M.797 6.212q-.002.069-.003.139a5.544 5.544 0 0 0 5.556 5.555 5.544 5.544 0 0 0 5.556-5.555q0-.07-.003-.14a5.543 5.543 0 0 1-5.553 5.417A5.54 5.54 0 0 1 .797 6.212" style="display:inline;overflow:visible;opacity:.3;fill:#000;fill-opacity:1;stroke-width:.777827;stroke-opacity:.55"/><path d="M.797 6.488Q.795 6.42.794 6.35A5.544 5.544 0 0 1 6.35.794a5.544 5.544 0 0 1 5.556 5.555q0 .07-.003.14A5.543 5.543 0 0 0 6.35 1.071 5.54 5.54 0 0 0 .797 6.488" style="display:inline;overflow:visible;opacity:.3;fill:#fff;fill-opacity:1;stroke-width:.777827;stroke-opacity:.55"/><path fill="none" stroke="#fff" stroke-width=".529" d="M3.435 7.234h2.116c.53 0 .794-.264 1.323-.264.53 0 .874.264 1.323.264h2.117M3.435 4.06h.794c.53 0 .793-.265 1.322-.265.53 0 .874.265 1.323.265h3.44M3.435 5.647h3.44c.53 0 .793-.265 1.322-.265.53 0 .873.265 1.323.265h.794"/><path fill="#fff" d="M3.435 8.557v.53H7.21l.194-.53z" style="-inkscape-stroke:none"/><path fill="none" stroke="#fff" stroke-width=".529" d="M3.363 7.5H5.48c.53 0 .794-.266 1.323-.266.53 0 .873.265 1.323.265h2.117m-6.88-3.175h.794c.53 0 .794-.265 1.323-.265.53 0 .873.265 1.323.265h3.44m-6.88 1.588h3.44c.53 0 .794-.265 1.323-.265.53 0 .873.264 1.323.264h.794" opacity=".3"/><path fill="#fff" d="M3.364 8.822v.53H7.14l.265-.53z" style="opacity:.3;-inkscape-stroke:none"/><path fill="url(#d)" d="M-7.103 10.388H.942v1.999h-8.045z" opacity=".433" style="fill:url(#e)" transform="matrix(.49696 -.86777 .89227 .4515 0 0)"/><path fill="#bdc3c7" d="m10.338 3.206-.207.01L7.916 8.34 7.89 9.341l.71-.707 2.214-5.122-.134-.159Z" style="stroke-width:.703021"/><path fill-opacity=".2" d="M10.13 3.217 7.918 8.339l.133.16 2.214-5.122Z" style="stroke-width:.703021"/><path fill="#fff" fill-opacity=".2" d="m10.813 3.512-.207.011-2.214 5.123.208-.012Z" style="stroke-width:.703021"/><path fill-opacity=".2" d="m8.05 8.498.342.148-.502.695z" style="stroke-width:.703021"/><path fill-opacity=".4" d="m7.917 8.34.134.159-.162.842Z" style="stroke-width:.703021"/><path fill-opacity=".2" d="m10.338 3.206-.207.01.133.16.342.148.207-.012-.133-.159z" style="stroke-width:.703021"/><path fill="#fff" fill-opacity=".4" d="m8.065 7.998-.074.171.133.159.342.148.207-.012.074-.17-.207.01-.342-.147zm1.955-4.525-.074.17.134.16.341.148.208-.012.074-.17-.208.011-.34-.148zm-.148.342-.074.17.134.16.342.148.208-.012.073-.171-.208.012-.34-.148z" style="stroke-width:.703021"/><path fill-opacity=".266" d="m8.316 8.917-.136.023-.197-.085-.077-.113-.016.599z" style="stroke-width:.703021"/></svg>