<svg xmlns="http://www.w3.org/2000/svg" width="48" height="48" viewBox="0 0 12.7 12.7"><defs><linearGradient id="a" x1="24" x2="24" y1="294" y2="257" gradientTransform="matrix(.26458 0 0 .25828 0 -64.294)" gradientUnits="userSpaceOnUse"><stop offset="0" stop-color="#2c3e50"/><stop offset="1" stop-color="#34495e"/></linearGradient><linearGradient id="c" x1="80" x2="120" y1="152" y2="152" gradientTransform="matrix(.06615 0 0 .06615 -.265 -6.615)" gradientUnits="userSpaceOnUse"><stop offset="0" stop-color="#deeff8"/><stop offset="1" stop-color="#c0e2f4"/></linearGradient><linearGradient id="d" x1="60" x2="140" y1="191.937" y2="191.937" gradientTransform="translate(.397 -5.473)scale(.05953)" gradientUnits="userSpaceOnUse"><stop offset="0" stop-color="#eef6fa"/><stop offset="1" stop-color="#b0dbf2"/></linearGradient><linearGradient id="e" x1="170.079" x2="585.827" y1="472.441" y2="472.441" gradientTransform="matrix(.01591 0 0 .01556 .045 .617)" gradientUnits="userSpaceOnUse"><stop offset="0" stop-color="#f39c1f"/><stop offset="1" stop-color="#fdbc4b"/></linearGradient><radialGradient id="b" cx="178.528" cy="17.338" r="16.221" gradientTransform="matrix(-.00053 .53114 -.55568 -.00055 12.428 -89.894)" gradientUnits="userSpaceOnUse"><stop offset="0" stop-color="#17222d"/><stop offset="1" stop-color="#17222d" stop-opacity="0"/></radialGradient></defs><rect width="10.6" height="10.6" x="1.1" y="1.1" ry="1.8" style="fill:#17222d;stroke-width:.26458332;paint-order:markers fill stroke"/><rect width="10.6" height="10.6" x="1.1" y="1.1" ry="1.852" style="fill:url(#a);stroke-width:.26458332;paint-order:markers fill stroke"/><path d="m7.22 2.71-1.677.426.464 1.25-.553.028.896.896 1.07 1.07-.643.032.558.558-3.325.164.789.789-1.74.086 2.097 2.098-1.18.039 1.23 1.231h4.628a1.804 1.804 0 0 0 1.808-1.808V7.133Z" style="fill:url(#b);paint-order:normal"/><path d="M6.35 2.117A1.323 1.323 0 0 0 5.027 3.44 1.323 1.323 0 0 0 6.35 4.763 1.323 1.323 0 0 0 7.673 3.44 1.323 1.323 0 0 0 6.35 2.117" style="fill:url(#c);stroke-width:.3953191;paint-order:normal"/><path d="M5.16 4.763c-.66 0-1.191.513-1.191 1.152v.931c0 .165.133.298.297.298h4.168a.297.297 0 0 0 .297-.298v-.931q0-.156-.04-.3a1.18 1.18 0 0 0-1.15-.852h-.289c-.26.197-.576.304-.902.305-.326-.001-.642-.108-.901-.305Z" style="fill:url(#d);stroke-width:.35578734;paint-order:normal"/><circle cx="4.895" cy="5.953" r=".397" style="opacity:1;fill:#000;fill-opacity:1;stroke:none;stroke-width:.26458332;stroke-linecap:round;stroke-linejoin:round;stroke-miterlimit:4;stroke-dasharray:none;stroke-opacity:1"/><rect width=".265" height="1.587" x="4.233" y="6.35" ry=".132" style="opacity:1;fill:#000;fill-opacity:1;stroke:none;stroke-width:.26458332;stroke-linecap:round;stroke-linejoin:round;stroke-miterlimit:4;stroke-dasharray:none;stroke-opacity:1"/><rect width=".265" height="1.587" x="7.538" y=".79" ry=".132" style="opacity:1;fill:#000;fill-opacity:1;stroke:none;stroke-width:.26458332;stroke-linecap:round;stroke-linejoin:round;stroke-miterlimit:4;stroke-dasharray:none;stroke-opacity:1" transform="rotate(45)"/><path d="M3.175 7.673c-.167 0-.265.131-.265.294 0 .166.109.235.265.235h.53c.165 0 .264.102.264.265v1.587c0 .163.098.265.264.265h3.704c.167 0 .265-.102.265-.265V8.467c0-.163.099-.265.265-.265h.793c.167 0 .265-.072.265-.235s-.098-.294-.265-.294h-.264z" style="fill:url(#e);stroke-width:.35536751;paint-order:normal"/><path d="M3.649 8.202c.101 0 .196.05.252.135l4.566-.135s.08.005.003.005l-4.212-.005z" style="opacity:.2;fill:#1a1a1a;stroke-width:.36408842"/></svg>