<svg xmlns="http://www.w3.org/2000/svg" xmlns:xlink="http://www.w3.org/1999/xlink" width="48" height="48"><defs><linearGradient xlink:href="#a" id="f" x1="29.203" x2="34.121" y1="24.827" y2="29.225" gradientUnits="userSpaceOnUse"/><linearGradient id="a"><stop offset="0"/><stop offset="1" stop-opacity="0"/></linearGradient><linearGradient xlink:href="#a" id="g" x1="15.949" x2="25.032" y1="23.618" y2="33.699" gradientUnits="userSpaceOnUse"/><linearGradient xlink:href="#a" id="h" x1="21.991" x2="29.321" y1="33.78" y2="41.932" gradientUnits="userSpaceOnUse"/></defs><linearGradient id="c" x2="0" y1="545.798" y2="517.798" gradientTransform="matrix(1.28572 0 0 1.28572 -491.023 -659.743)" gradientUnits="userSpaceOnUse"><stop offset="0" stop-color="#2a2c2f"/><stop offset="1" stop-color="#424649"/></linearGradient><linearGradient id="e" x1="9" x2="23" y1="9" y2="23" gradientTransform="scale(1.5)" gradientUnits="userSpaceOnUse"><stop offset="0" stop-color="#292c2f"/><stop offset="1" stop-opacity="0"/></linearGradient><linearGradient id="b" x1="16" x2="16" y1="30" y2="2" gradientTransform="scale(1.5)" gradientUnits="userSpaceOnUse"><stop offset="0" stop-color="#788085"/><stop offset="1" stop-color="#9ba1a6"/></linearGradient><path fill="url(#b)" d="M24 3C12.366 3 3 12.366 3 24s9.366 21 21 21 21-9.366 21-21S35.634 3 24 3" style="fill:url(#b)"/><rect width="36" height="36" x="6" y="6" fill="url(#c)" rx="21" style="fill:url(#c)"/><path fill="#070707" d="M24 7c-1.17 0-1.514 2.037-2.105 4.828-.471 2.223-.793 3.497-1.08 4.243-.081.211-.151.356-.21.454-.046.079.091.16-.386.073-.398-.071-.85-.958-.679-3.56.072-1.085.226-2.167-.418-2.622-.397-.281-.754-.188-1.012-.065-.666.318-1.544 1.558-3.22 3.89-1.335 1.858-2.073 2.782-2.582 3.214-.357.302-.082.318-1.296-.235a233 233 0 0 0-2.244-1.016c-3.522-1.55-1.145 1.395 1.034 3.902 1.008 1.16 1.724 2.302 2.025 3.132.114.316.136.48.136.591-.581.043-1.548.087-1.548 1.003-.001.709.978 1.348 2.547 2.76 2.014 1.811 4.253 5.393 4.592 6.847q.011.046.018.086l.003.017c-1.27 1.026-.254 2.995 1.115 3.663.862.422 1.005.722 1.058.9.138.463.362 1.05.54 1.342.669 1.099 1.626.339 2.042-.371.085-.145.139-.233.193-.323.094.033.198.07.333.12.847.306 1.413.317 2.242.017.162-.059.272-.097.381-.134l.03.08c.721 1.904 2.27 1.293 2.702-.578.099-.43.157-.593 1.065-1.037 1.45-.708 2.44-2.651 1.147-3.68l.003-.02.019-.084c.337-1.453 2.578-5.033 4.593-6.845 1.57-1.412 2.548-2.051 2.547-2.76 0-.916-.967-.96-1.548-1.003 0-.11.022-.275.136-.591.301-.83 1.017-1.972 2.025-3.132 2.179-2.507 4.556-5.452 1.034-3.902-.268.119-.694.31-2.244 1.016-1.214.553-.94.537-1.296.235-.51-.432-1.247-1.356-2.582-3.214-1.676-2.332-2.554-3.572-3.22-3.89-.258-.123-.615-.216-1.012.065-.644.455-.49 1.537-.418 2.622.17 2.602-.28 3.489-.68 3.56-.476.086-.34.006-.386-.073a3 3 0 0 1-.209-.454c-.287-.746-.609-2.02-1.08-4.243C25.514 9.037 25.171 7 24 7"/><path d="M19.888 45.876c-.164-.27-.444-.977-.62-1.57-.193-.642-.63-1.23-2.022-1.91-1.393-.68-2.342-2.556-1.102-3.276s-2.875-7.807-6.452-11.025-3.86-3.045-1.893-3.207.528-3.626-2.322-6.905-3.059-3.729-2.7-3.57c.36.158.936.416 3.05 1.378s2.088 1.93 6.654-4.426c4.567-6.356 4.568-6.06 4.325-2.364-.243 3.698.346 5.755 1.84 6.024 1.496.27 1.961.229 3.571-7.371s1.955-7.6 3.566 0 2.075 7.64 3.57 7.371c1.495-.27 2.084-2.326 1.841-6.024s-.242-3.992 4.325 2.364c4.566 6.356 4.541 5.388 6.655 4.426a301 301 0 0 1 3.048-1.378c.36-.159.151.29-2.699 3.57s-4.29 6.743-2.322 6.905 1.685-.012-1.893 3.207c-3.577 3.218-7.7 10.301-6.452 11.025s.384 2.55-1.149 3.299c-1.533.748-1.832 1.229-2.048 2.163-.38 1.642-1.072 1.928-1.559.643-.423-1.12-.459-1.13-1.98-.578-.898.325-1.355.32-2.302-.023-1.368-.496-1.306-.519-2.056.761-.392.67-.67.825-.874.49" style="fill:#fff;fill-opacity:1" transform="matrix(.73327 0 0 .73327 6.402 6.384)"/><path fill="url(#e)" d="m31.75 22.609 4.351 4.549-1.867 1.727-2.638 3.854-4.844-4.737z" opacity=".08" style="fill:url(#f)" transform="matrix(.89018 0 0 .89018 2.636 2.641)"/><path fill="url(#b)" d="m16.013 25.993 7.028 6.996 1.893-1.765-8.664-8.633z" opacity=".08" style="fill:url(#g)" transform="matrix(.89018 0 0 .89018 2.636 2.641)"/><path fill="#020202" d="M19.734 25.247c-2.76-3.042-2.985-3.07-2.985-1.143 0 1.928-.357 1.618 2.435 2.767 2.792 1.15 3.31 1.417.55-1.624m9.373 1.456c2.926-1.214 2.029-.68 2.029-2.603 0-1.922-.086-2.048-2.95 1.107-2.863 3.156-2.004 2.71.921 1.496"/><path fill="url(#h)" d="m19.684 36.523 4.613 4.613 3.973-1.256 1.46-.845-1.716-3.589-3.486-2.511z" opacity=".08" style="fill:url(#h)" transform="matrix(.89018 0 0 .89018 2.636 2.641)"/><path d="M23.948 33.546c.846 0 1.654 1.306 3.064 1.707 1.41.4 1.005-.85.122-1.418s-1.938-1.98-3.186-1.966c-.35.004-.681.11-.998.275-.945.495-1.758 1.528-2.509 1.993-1.002.621-.129 1.56.92 1.155 1.05-.405 1.666-1.747 2.587-1.746"/></svg>