<svg xmlns="http://www.w3.org/2000/svg" xmlns:xlink="http://www.w3.org/1999/xlink" width="48" height="48" version="1"><defs><linearGradient id="g"><stop offset="0" style="stop-color:#6f8181;stop-opacity:1"/><stop offset="1" style="stop-color:#b0b8b8;stop-opacity:1"/></linearGradient><linearGradient id="a"><stop offset="0" style="stop-color:#334545;stop-opacity:1"/><stop offset="1" style="stop-color:#172525;stop-opacity:1"/></linearGradient><linearGradient id="e"><stop offset="0" style="stop-color:#cfd5d5;stop-opacity:1"/><stop offset="1" style="stop-color:#fcfcfc;stop-opacity:1"/></linearGradient><linearGradient id="f"><stop offset="0" style="stop-color:#000;stop-opacity:1"/><stop offset="1" style="stop-color:#000;stop-opacity:0"/></linearGradient><linearGradient id="d"><stop offset="0" style="stop-color:#6c5548;stop-opacity:1"/><stop offset="1" style="stop-color:#bb9d71;stop-opacity:1"/></linearGradient><linearGradient id="b"><stop offset="0" style="stop-color:#ffa92d;stop-opacity:1"/><stop offset="1" style="stop-color:#cd7223;stop-opacity:1"/></linearGradient><linearGradient xlink:href="#b" id="k" x1="37.018" x2="30.865" y1="19.24" y2="14.64" gradientTransform="rotate(-106.415 33.547 12.026)scale(.40643)" gradientUnits="userSpaceOnUse"/><linearGradient id="c"><stop offset="0" style="stop-color:black;stop-opacity:1"/><stop offset="1" style="stop-color:black;stop-opacity:0"/></linearGradient><linearGradient xlink:href="#c" id="j" x1="32.35" x2="21.213" y1="28.083" y2="30.293" gradientTransform="matrix(.97383 0 0 1.03908 -3.062 -1.88)" gradientUnits="userSpaceOnUse"/><linearGradient xlink:href="#d" id="h" x1="34.712" x2="5" y1="34.585" y2="9" gradientTransform="translate(0 -1)" gradientUnits="userSpaceOnUse"/><linearGradient xlink:href="#f" id="i" x1="15.263" x2="31" y1="18.832" y2="35" gradientTransform="translate(0 -1)" gradientUnits="userSpaceOnUse"/><linearGradient xlink:href="#g" id="l" x1="37.34" x2="38.347" y1="35.924" y2="33.509" gradientUnits="userSpaceOnUse"/><radialGradient xlink:href="#a" id="m" cx="15.415" cy="35.357" r="7.579" fx="15.415" fy="35.357" gradientTransform="matrix(-.18778 -.6101 .62117 -.17516 22.206 53.218)" gradientUnits="userSpaceOnUse"/><radialGradient xlink:href="#e" id="p" cx="22" cy="22" r="5" fx="22" fy="22" gradientTransform="translate(0 -1)" gradientUnits="userSpaceOnUse"/><radialGradient xlink:href="#e" id="n" cx="13.5" cy="21.5" r="4.5" fx="13.5" fy="21.5" gradientTransform="translate(0 -1)" gradientUnits="userSpaceOnUse"/><radialGradient xlink:href="#a" id="o" cx="3.496" cy="22.823" r="5.5" fx="3.496" fy="22.823" gradientTransform="matrix(1 0 0 1.0909 0 -3.364)" gradientUnits="userSpaceOnUse"/><radialGradient xlink:href="#a" id="q" cx="23.5" cy="22.5" r="2.5" fx="23.5" fy="22.5" gradientTransform="translate(0 -1)" gradientUnits="userSpaceOnUse"/><radialGradient xlink:href="#a" id="r" cx="14.5" cy="21.5" r="2.5" fx="14.5" fy="21.5" gradientTransform="matrix(.8 0 0 .8 3.4 3.8)" gradientUnits="userSpaceOnUse"/></defs><path d="M37.738 7.033c-.314-.048-.597.123-.767.318s-.287.437-.39.742c-.178.528-.83 2.486-3.18 4.422-2.352 1.936-6.406 4.327-13.433 4.502-5.34.06-8.608-3.375-9.968-8.017v2.745l-.022 7.711.044.102s.382.821-.022 1.928-2 2.546-5.564 3.58L4 25.19l.083.443c.198 1.074.986 2.174 2.15 3.3 1.163 1.127 2.72 2.267 4.534 3.298 3.628 2.06 8.275 3.69 12.79 3.765s8.932-1.448 11.855-5.672c2.922-4.223 4.348-11.55 3.18-22.048l-.002-.004v-.004a2.1 2.1 0 0 0-.22-.75c-.119-.216-.317-.438-.632-.486" style="color:#000;font-style:normal;font-variant:normal;font-weight:400;font-stretch:normal;font-size:medium;line-height:normal;font-family:sans-serif;text-indent:0;text-align:start;text-decoration:none;text-decoration-line:none;text-decoration-style:solid;text-decoration-color:#000;letter-spacing:normal;word-spacing:normal;text-transform:none;direction:ltr;block-progression:tb;writing-mode:lr-tb;baseline-shift:baseline;text-anchor:start;white-space:normal;clip-rule:nonzero;display:inline;overflow:visible;visibility:visible;opacity:1;isolation:auto;mix-blend-mode:normal;color-interpolation:sRGB;color-interpolation-filters:linearRGB;solid-color:#000;solid-opacity:1;fill:url(#h);fill-opacity:1;fill-rule:evenodd;stroke:none;stroke-width:.9999997;stroke-linecap:butt;stroke-linejoin:miter;stroke-miterlimit:10;stroke-dasharray:none;stroke-dashoffset:0;stroke-opacity:1;marker:none;color-rendering:auto;image-rendering:auto;shape-rendering:auto;text-rendering:auto"/><path d="M16.436 16.998 9.99 23.443l12.492 12.493c.359.024.717.056 1.075.062 4.514.076 8.932-1.449 11.855-5.672.404-.583.776-1.232 1.12-1.933L25.335 17.197l-4.352 4.35z" style="opacity:.2;fill:url(#i);fill-opacity:1;stroke:none;stroke-width:2;stroke-linecap:round;stroke-linejoin:round;stroke-miterlimit:4;stroke-dasharray:none;stroke-opacity:1"/><path d="M16 29.002c6.563 1.4 9.905.102 11.86-1.51A9.2 9.2 0 0 1 27 26s1.754.68 2.56 1.79c.805 1.11.3 1.792.089 3.21-.47-1.245-1.344-1.713-1.463-2.207-1.759 2.594-6.141 2.486-12.186.209" style="color:#000;display:inline;overflow:visible;visibility:visible;fill:url(#j);fill-opacity:1;fill-rule:evenodd;stroke:none;stroke-width:.9999997;stroke-linecap:butt;stroke-linejoin:miter;stroke-miterlimit:10;stroke-dasharray:none;stroke-dashoffset:0;stroke-opacity:1;marker:none;marker-start:none;marker-mid:none;marker-end:none"/><path d="M38.992 14.844c-.082 6.538-1.42 11.361-3.58 14.482-2.923 4.223-7.34 5.748-11.855 5.672s-9.161-1.705-12.79-3.766c-1.813-1.03-3.371-2.17-4.535-3.296-.985-.954-1.697-1.891-2.013-2.807L4 25.19l.082.444c.198 1.073.987 2.174 2.15 3.3 1.164 1.127 2.722 2.267 4.536 3.297 3.628 2.061 8.274 3.69 12.789 3.766 4.514.076 8.932-1.449 11.855-5.672 2.268-3.277 3.628-8.435 3.58-15.482M9.98 18.463l-.001.994.042.102s.065.168.114.418c.15-.838-.114-1.418-.114-1.418z" style="color:#000;font-style:normal;font-variant:normal;font-weight:400;font-stretch:normal;font-size:medium;line-height:normal;font-family:sans-serif;text-indent:0;text-align:start;text-decoration:none;text-decoration-line:none;text-decoration-style:solid;text-decoration-color:#000;letter-spacing:normal;word-spacing:normal;text-transform:none;direction:ltr;block-progression:tb;writing-mode:lr-tb;baseline-shift:baseline;text-anchor:start;white-space:normal;clip-rule:nonzero;display:inline;overflow:visible;visibility:visible;opacity:.2;isolation:auto;mix-blend-mode:normal;color-interpolation:sRGB;color-interpolation-filters:linearRGB;solid-color:#000;solid-opacity:1;fill:#000;fill-opacity:1;fill-rule:evenodd;stroke:none;stroke-width:.9999997;stroke-linecap:butt;stroke-linejoin:miter;stroke-miterlimit:10;stroke-dasharray:none;stroke-dashoffset:0;stroke-opacity:1;marker:none;color-rendering:auto;image-rendering:auto;shape-rendering:auto;text-rendering:auto"/><path d="m36.968 35.4.926-1.844c-3.446-2.522-9.88-5.08-9.88-5.08L27 29.033s5.842 5.181 9.968 6.367" style="color:#000;display:inline;overflow:visible;visibility:visible;opacity:1;fill:url(#k);fill-opacity:1;fill-rule:nonzero;stroke:none;stroke-width:2.46045303;stroke-linecap:round;stroke-linejoin:miter;stroke-miterlimit:4;stroke-dasharray:none;stroke-dashoffset:0;stroke-opacity:1;marker:none;marker-start:none;marker-mid:none;marker-end:none"/><path d="m37 32-.483.318c-.448.245-.81.66-1.105 1.142-.337.792-.47 1.287-.412 2.06l.7-.12s3.655 1.049 5.385 1.6l.203-.39.712-1.379-5-2.561z" style="color:#000;font-style:normal;font-variant:normal;font-weight:400;font-stretch:normal;font-size:medium;line-height:normal;font-family:sans-serif;text-indent:0;text-align:start;text-decoration:none;text-decoration-line:none;text-decoration-style:solid;text-decoration-color:#000;letter-spacing:normal;word-spacing:normal;text-transform:none;direction:ltr;block-progression:tb;writing-mode:lr-tb;baseline-shift:baseline;text-anchor:start;white-space:normal;clip-rule:nonzero;display:inline;overflow:visible;visibility:visible;opacity:1;isolation:auto;mix-blend-mode:normal;color-interpolation:sRGB;color-interpolation-filters:linearRGB;solid-color:#000;solid-opacity:1;fill:url(#l);fill-opacity:1;fill-rule:nonzero;stroke:none;stroke-width:2.46045303;stroke-linecap:round;stroke-linejoin:miter;stroke-miterlimit:4;stroke-dasharray:none;stroke-dashoffset:0;stroke-opacity:1;marker:none;color-rendering:auto;image-rendering:auto;shape-rendering:auto;text-rendering:auto"/><path d="M47 42c-1.247-4.052-1.69-7.269-4.948-6.982-2.626.23-2.81 3.832-.096 4.826A58 58 0 0 1 47 42" style="color:#000;display:inline;overflow:visible;visibility:visible;opacity:1;fill:url(#m);fill-opacity:1;fill-rule:nonzero;stroke:none;stroke-width:.2;stroke-linecap:round;stroke-linejoin:miter;stroke-miterlimit:4;stroke-dasharray:none;stroke-dashoffset:0;stroke-opacity:1;marker:none;marker-start:none;marker-mid:none;marker-end:none"/><path d="M13.5 16c-1.111 0-2.229.368-3.081 1.126-.853.758-1.42 1.915-1.419 3.374s.566 2.616 1.419 3.374C11.27 24.632 12.389 25 13.5 25s2.23-.368 3.083-1.126S18 21.959 18 20.5s-.564-2.616-1.417-3.374C15.731 16.368 14.611 16 13.5 16" style="color:#000;font-style:normal;font-variant:normal;font-weight:400;font-stretch:normal;font-size:medium;line-height:normal;font-family:sans-serif;text-indent:0;text-align:start;text-decoration:none;text-decoration-line:none;text-decoration-style:solid;text-decoration-color:#000;letter-spacing:normal;word-spacing:normal;text-transform:none;direction:ltr;block-progression:tb;writing-mode:lr-tb;baseline-shift:baseline;text-anchor:start;white-space:normal;clip-rule:nonzero;display:inline;overflow:visible;visibility:visible;opacity:1;isolation:auto;mix-blend-mode:normal;color-interpolation:sRGB;color-interpolation-filters:linearRGB;solid-color:#000;solid-opacity:1;fill:url(#n);fill-opacity:1;fill-rule:evenodd;stroke:none;stroke-width:.99999988;stroke-linecap:butt;stroke-linejoin:miter;stroke-miterlimit:10;stroke-dasharray:none;stroke-dashoffset:0;stroke-opacity:1;marker:none;color-rendering:auto;image-rendering:auto;shape-rendering:auto;text-rendering:auto"/><path d="M5.101 19a4.3 4.3 0 0 0-.716.052 3.9 3.9 0 0 0-1.69.689c-1.98 1.425-2.502 4.654-.056 8.036 2.447 3.381 5.684 3.906 7.665 2.481 1.98-1.424 2.504-4.654.057-8.035-1.605-2.22-3.552-3.208-5.26-3.223" style="color:#000;display:inline;overflow:visible;visibility:visible;fill:url(#o);fill-opacity:1;fill-rule:evenodd;stroke:none;stroke-width:.9999997;stroke-linecap:butt;stroke-linejoin:miter;stroke-miterlimit:10;stroke-dasharray:none;stroke-dashoffset:0;stroke-opacity:1;marker:none;marker-start:none;marker-mid:none;marker-end:none"/><path d="M22 16c-1.238 0-2.481.409-3.427 1.25C17.626 18.092 17 19.374 17 21c0 1.628.626 2.908 1.573 3.75.946.841 2.19 1.25 3.426 1.25s2.48-.409 3.427-1.25C26.372 23.908 27 22.628 27 21c0-1.626-.628-2.908-1.574-3.75-.947-.841-2.19-1.25-3.427-1.25" style="color:#000;font-style:normal;font-variant:normal;font-weight:400;font-stretch:normal;font-size:medium;line-height:normal;font-family:sans-serif;text-indent:0;text-align:start;text-decoration:none;text-decoration-line:none;text-decoration-style:solid;text-decoration-color:#000;letter-spacing:normal;word-spacing:normal;text-transform:none;direction:ltr;block-progression:tb;writing-mode:lr-tb;baseline-shift:baseline;text-anchor:start;white-space:normal;clip-rule:nonzero;display:inline;overflow:visible;visibility:visible;opacity:1;isolation:auto;mix-blend-mode:normal;color-interpolation:sRGB;color-interpolation-filters:linearRGB;solid-color:#000;solid-opacity:1;fill:url(#p);fill-opacity:1;fill-rule:evenodd;stroke:none;stroke-width:.99999964;stroke-linecap:butt;stroke-linejoin:miter;stroke-miterlimit:10;stroke-dasharray:none;stroke-dashoffset:0;stroke-opacity:1;marker:none;color-rendering:auto;image-rendering:auto;shape-rendering:auto;text-rendering:auto"/><path d="M23.5 19c-.613 0-1.232.203-1.709.627S21 20.704 21 21.5s.314 1.45.791 1.873A2.57 2.57 0 0 0 23.5 24c.613 0 1.232-.203 1.709-.627S26 22.296 26 21.5s-.314-1.45-.791-1.873A2.57 2.57 0 0 0 23.5 19" style="color:#000;font-style:normal;font-variant:normal;font-weight:400;font-stretch:normal;font-size:medium;line-height:normal;font-family:sans-serif;text-indent:0;text-align:start;text-decoration:none;text-decoration-line:none;text-decoration-style:solid;text-decoration-color:#000;letter-spacing:normal;word-spacing:normal;text-transform:none;direction:ltr;block-progression:tb;writing-mode:lr-tb;baseline-shift:baseline;text-anchor:start;white-space:normal;clip-rule:nonzero;display:inline;overflow:visible;visibility:visible;opacity:1;isolation:auto;mix-blend-mode:normal;color-interpolation:sRGB;color-interpolation-filters:linearRGB;solid-color:#000;solid-opacity:1;fill:url(#q);fill-opacity:1;fill-rule:evenodd;stroke:none;stroke-width:1.07215703;stroke-linecap:butt;stroke-linejoin:miter;stroke-miterlimit:10;stroke-dasharray:none;stroke-dashoffset:0;stroke-opacity:1;marker:none;color-rendering:auto;image-rendering:auto;shape-rendering:auto;text-rendering:auto"/><path d="M15 19c-.49 0-.986.162-1.367.501-.382.34-.633.862-.633 1.499s.251 1.16.633 1.499c.381.339.877.501 1.367.501s.986-.162 1.367-.501c.382-.34.633-.862.633-1.499s-.251-1.16-.633-1.499A2.05 2.05 0 0 0 15 19" style="color:#000;font-style:normal;font-variant:normal;font-weight:400;font-stretch:normal;font-size:medium;line-height:normal;font-family:sans-serif;text-indent:0;text-align:start;text-decoration:none;text-decoration-line:none;text-decoration-style:solid;text-decoration-color:#000;letter-spacing:normal;word-spacing:normal;text-transform:none;direction:ltr;block-progression:tb;writing-mode:lr-tb;baseline-shift:baseline;text-anchor:start;white-space:normal;clip-rule:nonzero;display:inline;overflow:visible;visibility:visible;opacity:1;isolation:auto;mix-blend-mode:normal;color-interpolation:sRGB;color-interpolation-filters:linearRGB;solid-color:#000;solid-opacity:1;fill:url(#r);fill-opacity:1;fill-rule:evenodd;stroke:none;stroke-width:1.07215703;stroke-linecap:butt;stroke-linejoin:miter;stroke-miterlimit:10;stroke-dasharray:none;stroke-dashoffset:0;stroke-opacity:1;marker:none;color-rendering:auto;image-rendering:auto;shape-rendering:auto;text-rendering:auto"/></svg>