<svg xmlns="http://www.w3.org/2000/svg" xmlns:xlink="http://www.w3.org/1999/xlink" width="48" height="48"><defs><linearGradient id="a"><stop offset="0" style="stop-color:#b48ead;stop-opacity:1"/><stop offset="1" style="stop-color:#b48ead;stop-opacity:.50196081"/></linearGradient><linearGradient xlink:href="#a" id="b" x1="27.925" x2="28.336" y1="45" y2="3" gradientUnits="userSpaceOnUse"/><filter id="c" width="1.436" height="1.175" x="-.218" y="-.087" color-interpolation-filters="sRGB"><feGaussianBlur stdDeviation="1.235"/></filter></defs><path d="M24 3a21 21 0 0 1 0 42 21 21 0 0 1 0-42" style="stroke-width:.65625;fill-opacity:1;fill:url(#b)"/><path d="M27.13 19.749C44.524 16.39 45.193 8.805 45.193 8.805s-1.37 23.51-14.082 24.754c-16.109 1.576-18.516 9.176-18.516 9.176s4.308-21.012 14.535-22.986z" style="opacity:.25;fill:#2e3440;stroke-width:.9375;filter:url(#c)" transform="matrix(.6998 0 0 .6998 7.003 8.31)"/><path d="M16.634 18.712c14.74-6.242 13.39-16.425 13.39-16.425s8.137 20.773-4.062 25.616c-13.628 5.41-13.021 14.65-13.021 14.65s-4.963-20.176 3.694-23.842z" style="opacity:.25;fill:#2e3440;stroke-width:.9375;filter:url(#c)" transform="matrix(.6998 0 0 .6998 7.003 8.31)"/><path d="M7.952 24.234c8.281-10.92 6.419-18.578 6.419-18.578s10.609 13.303 3.39 21.543c-8.065 9.204-4.553 15.608-4.553 15.608S3.203 30.496 7.952 24.233z" style="opacity:.25;fill:#2e3440;stroke-width:.9375;filter:url(#c)" transform="matrix(.6998 0 0 .6998 7.003 8.31)"/><path fill="#bf616a" d="M25.458 20.892c12.173-2.35 12.64-7.659 12.64-7.659s-.958 16.453-9.854 17.323c-11.273 1.103-12.957 6.421-12.957 6.421s3.015-14.704 10.171-16.085z" style="stroke-width:.656056"/><path fill="#d08770" d="M18.113 20.166c10.315-4.368 9.37-11.494 9.37-11.494s5.695 14.537-2.842 17.926c-9.537 3.786-9.112 10.253-9.112 10.253s-3.473-14.12 2.585-16.685z" style="stroke-width:.656056"/><path fill="#ebcb8b" d="M12.038 24.03c5.795-7.64 4.491-13 4.491-13s7.424 9.31 2.372 15.076c-5.643 6.44-3.185 10.922-3.185 10.922s-7.002-8.615-3.678-12.998z" style="stroke-width:.656056"/></svg>