<svg xmlns="http://www.w3.org/2000/svg" xmlns:xlink="http://www.w3.org/1999/xlink" width="48" height="48"><defs><linearGradient id="f" x1="428.57" x2="408.57" gradientTransform="translate(-404.999 -525.99)scale(1.05)" gradientUnits="userSpaceOnUse" spreadMethod="reflect"><stop stop-color="#2f3943"/><stop offset="1" stop-color="#808c9b"/></linearGradient><linearGradient id="g" x1="-395.07" x2="-419.67" y1="-511.2" y2="-535.8" gradientTransform="translate(404.999 525.99)scale(1.05)" gradientUnits="userSpaceOnUse"><stop stop-color="#18222a"/><stop offset="1" stop-color="#566069"/></linearGradient><linearGradient xlink:href="#e" id="i" x1="-9.987" x2="131.474" y1="-13.827" y2="142.431" gradientTransform="matrix(1.20419 0 0 1.21008 9.838 7.627)" gradientUnits="userSpaceOnUse"/><linearGradient id="e"><stop offset="0" style="stop-color:#ffcba7;stop-opacity:1"/><stop offset="1" style="stop-color:#ff8f44;stop-opacity:1"/></linearGradient><filter id="h" width="1.278" height="1.312" x="-.139" y="-.156" style="color-interpolation-filters:sRGB"><feGaussianBlur stdDeviation="8.431"/></filter></defs><rect width="42" height="42" x="3" y="3" fill="url(#f)" rx="21" style="fill:url(#f);stroke-width:2.94;stroke-opacity:.55"/><rect width="37.8" height="37.8" x="-42.9" y="-42.9" fill="url(#g)" rx="18.9" style="fill:url(#g);stroke-width:2.94;stroke-opacity:.55" transform="scale(-1)"/><g fill="#f9aa40" style="stroke-width:1.70682"><path d="M-4.723 4.266v119.468a5.194 5.194 0 0 0 5.194 5.194h15.583a5.194 5.194 0 0 0 5.194-5.194v-98.69h5.195c2.87 0 7.557-.106 10.352.516q8.103 1.805 9.908 9.908c.623 2.795.516 7.482.516 10.352v77.914a5.194 5.194 0 0 0 5.195 5.194h15.582a5.194 5.194 0 0 0 5.195-5.194V108.15h20.777v15.583a5.194 5.194 0 0 0 5.194 5.194h15.583a5.194 5.194 0 0 0 5.194-5.194V108.15h15.583a5.194 5.194 0 0 0 5.194-5.194V92.568a5.194 5.194 0 0 0-5.194-5.194h-15.583V66.597a5.194 5.194 0 0 0-5.194-5.194H99.162a5.194 5.194 0 0 0-5.194 5.194v20.777H73.19V45.82c0-2.87.03-7.53-.318-10.375C70.773 18.282 58.488 2.315 42-.492c-2.825-.48-7.494-.436-10.364-.436H.47a5.194 5.194 0 0 0-5.194 5.194" style="opacity:.25;fill:#000;fill-opacity:1;stroke-width:2.21635;filter:url(#h)" transform="matrix(.16527 0 0 .16492 14.8 13.445)"/><path d="M-4.722 4.268v119.465a5.194 5.194 0 0 0 5.194 5.194h15.583a5.194 5.194 0 0 0 5.194-5.194V25.045h5.194c2.87 0 7.557-.106 10.352.516q8.103 1.805 9.908 9.908c.623 2.795.516 7.482.516 10.352v77.912a5.194 5.194 0 0 0 5.195 5.194h15.582a5.194 5.194 0 0 0 5.194-5.194v-15.582h20.777v15.582a5.194 5.194 0 0 0 5.194 5.194h15.582a5.194 5.194 0 0 0 5.194-5.194v-15.582h15.583a5.194 5.194 0 0 0 5.194-5.194V92.568a5.194 5.194 0 0 0-5.194-5.194h-15.583V66.598a5.194 5.194 0 0 0-5.194-5.195H99.161a5.194 5.194 0 0 0-5.194 5.195v20.776H73.19V45.821c0-2.87.03-7.53-.318-10.375C70.772 18.283 58.488 2.318 42.001-.49c-2.825-.48-7.494-.436-10.364-.436H.472a5.194 5.194 0 0 0-5.194 5.194" style="fill:url(#i);fill-opacity:1;stroke-width:2.21631" transform="matrix(.16527 0 0 .16492 14.8 13.445)"/></g><circle cx="32.461" cy="17.292" r="2.462" style="fill:#00d455;fill-opacity:1;stroke:#00d455;stroke-width:3.076;stroke-linejoin:round;stroke-dasharray:none;stroke-opacity:1;paint-order:stroke fill markers"/><ellipse cx="32.461" cy="17.292" rx=".957" ry=".962" style="fill:#00d455;fill-opacity:1;stroke:#00d455;stroke-width:3.076;stroke-linejoin:round;stroke-opacity:1;paint-order:stroke fill markers"/></svg>