<svg xmlns="http://www.w3.org/2000/svg" xmlns:xlink="http://www.w3.org/1999/xlink" width="48" height="48"><defs><linearGradient id="a" x1="543.8" x2="503.8" gradientTransform="matrix(0 1 -1.16667 0 -452.67 -499.8)" gradientUnits="userSpaceOnUse"><stop stop-color="#197cf1"/><stop offset="1" stop-color="#21c9fb"/></linearGradient><linearGradient id="e" x1="70.795" x2="81.378" y1="20.512" y2="20.512" gradientTransform="translate(-543.5 -123.14)scale(7.5637)" gradientUnits="userSpaceOnUse"><stop offset="0" stop-color="#b5cddc"/><stop offset="1" stop-color="#cee0e9"/></linearGradient><linearGradient id="f" x1="76.043" x2="76.043" y1="24.482" y2="20.084" gradientTransform="translate(-543.5 -123.14)scale(7.5637)" gradientUnits="userSpaceOnUse"><stop offset="0" stop-color="#dde8ed"/><stop offset="1" stop-color="#dee6ee"/></linearGradient><linearGradient xlink:href="#a" id="h" x1="79.531" x2="115.72" y1="-19.125" y2="-19.125" gradientTransform="translate(-73.627 37.83)" gradientUnits="userSpaceOnUse"/></defs><g stroke-width="7.564"><path fill="url(#e)" d="M32 2A30 30 0 0 0 2 32a30 30 0 0 0 30 30 30 30 0 0 0 30-30A30 30 0 0 0 32 2" style="fill:url(#e)" transform="matrix(.7 0 0 .7 1.6 1.6)"/><path fill="url(#f)" d="M31.945 28.529a3.715 3.129 0 0 0-.367.023 3.715 3.129 0 0 0-.367.047 3.715 3.129 0 0 0-.356.086 3.715 3.129 0 0 0-.351.11 3.715 3.129 0 0 0-.332.14 3.715 3.129 0 0 0-.313.168 3.715 3.129 0 0 0-.291.192 3.715 3.129 0 0 0-.195.152L6.887 48.39A30 30 0 0 0 32 61.999 30 30 0 0 0 57.104 48.38L34.627 29.446a3.715 3.129 0 0 0-.274-.211 3.715 3.129 0 0 0-.3-.184 3.715 3.129 0 0 0-.317-.16 3.715 3.129 0 0 0-.336-.133 3.715 3.129 0 0 0-.351-.101 3.715 3.129 0 0 0-.366-.074 3.715 3.129 0 0 0-.367-.043 3.715 3.129 0 0 0-.37-.012Z" style="fill:url(#f)" transform="matrix(.7 0 0 .7 1.6 1.6)"/><path fill="#fff" d="M24 3a21 21 0 0 0-17.571 9.532L22.16 25.784a2.6 2.19 0 0 0 .137.107 2.6 2.19 0 0 0 .204.134 2.6 2.19 0 0 0 .218.118 2.6 2.19 0 0 0 .233.098 2.6 2.19 0 0 0 .246.077 2.6 2.19 0 0 0 .249.06 2.6 2.19 0 0 0 .257.032 2.6 2.19 0 0 0 .257.017 2.6 2.19 0 0 0 .26-.007 2.6 2.19 0 0 0 .256-.03 2.6 2.19 0 0 0 .256-.052 2.6 2.19 0 0 0 .246-.071 2.6 2.19 0 0 0 .235-.093 2.6 2.19 0 0 0 .222-.114 2.6 2.19 0 0 0 .21-.128 2.6 2.19 0 0 0 .192-.148l15.74-13.258A21 21 0 0 0 23.999 3z"/></g><path d="m40.427 10.92-16.27 12.522c.02-.016-.338-.016-.317 0L7.587 10.934a21 21 0 0 0-1.683 2.454l16.123 12.41c1.2.925 2.743.925 3.943 0L42.093 13.39a21 21 0 0 0-1.666-2.47z" style="font-variant-ligatures:normal;font-variant-position:normal;font-variant-caps:normal;font-variant-numeric:normal;font-variant-alternates:normal;font-feature-settings:normal;text-indent:0;text-decoration-line:none;text-decoration-style:solid;text-decoration-color:#000;text-transform:none;text-orientation:mixed;white-space:normal;shape-padding:0;isolation:auto;mix-blend-mode:normal;fill:url(#h);fill-opacity:1;stroke-width:.699997;paint-order:stroke fill markers"/></svg>