<svg xmlns="http://www.w3.org/2000/svg" width="128" height="128" version="1.0"><defs><filter id="c"><feGaussianBlur stdDeviation="1.059"/></filter><filter id="b"><feGaussianBlur stdDeviation=".824"/></filter><filter id="a"><feGaussianBlur stdDeviation=".355"/></filter></defs><path d="M8.376 14.415h91.958v49.85H8.376z" style="fill:#000;fill-opacity:1;fill-rule:evenodd;stroke:none;stroke-width:.25;stroke-miterlimit:4;stroke-dasharray:none;stroke-dashoffset:0;stroke-opacity:1;filter:url(#a)" transform="matrix(1.23229 -.21996 .2475 1.42094 -13.89 20.587)"/><path d="M367.998 359.93h109.22v55.542h-109.22z" style="fill:#2e3436;fill-opacity:1;fill-rule:evenodd;stroke:none;stroke-width:.25;stroke-miterlimit:4;stroke-dasharray:none;stroke-dashoffset:0;stroke-opacity:1;filter:url(#b)" transform="matrix(1.038 -.18528 .22214 1.27532 -461.873 -351.241)"/><path d="M-43.147 160.196H73.232v71.428H-43.147z" style="fill:#002c63;fill-opacity:1;fill-rule:evenodd;stroke:none;stroke-width:.68054122;stroke-miterlimit:4;stroke-dasharray:none;stroke-dashoffset:0;stroke-opacity:1" transform="matrix(.96808 -.1728 .1707 .97998 14.82 -125.042)"/><path d="M12.996-18.647h90.868v.426H12.996z" style="fill:#ff80df;fill-opacity:1;fill-rule:evenodd;stroke:none;stroke-width:2;stroke-miterlimit:4;stroke-dasharray:none;stroke-dashoffset:0;stroke-opacity:1" transform="matrix(1.23229 -.21996 -.24676 -1.41668 -18.883 21.81)"/><path d="M12.996-23.099h90.868v.426H12.996zM12.996-27.668h90.868v.426H12.996zM12.996-32.121h90.868v.426H12.996zM12.996-36.644h90.868v.426H12.996zM12.996-41.097h90.868v.426H12.996zM12.996-45.666h90.868v.426H12.996zM12.996-50.118h90.868v.426H12.996zM12.996-54.747h90.868v.426H12.996zM12.996-59.2h90.868v.426H12.996z" style="fill:#80b3ff;fill-opacity:1;fill-rule:evenodd;stroke:none;stroke-width:2;stroke-miterlimit:4;stroke-dasharray:none;stroke-dashoffset:0;stroke-opacity:1" transform="matrix(1.23229 -.21996 -.24676 -1.41668 -18.883 21.81)"/><path d="M8.376 14.415h91.958v49.85H8.376z" style="fill:#000;fill-opacity:1;fill-rule:evenodd;stroke:none;stroke-width:.25;stroke-miterlimit:4;stroke-dasharray:none;stroke-dashoffset:0;stroke-opacity:1;filter:url(#a)" transform="matrix(1.24654 -.1104 .12423 1.43737 -5.138 18.024)"/><path d="M367.998 359.93h109.22v55.542h-109.22z" style="fill:#2e3436;fill-opacity:1;fill-rule:evenodd;stroke:none;stroke-width:.25;stroke-miterlimit:4;stroke-dasharray:none;stroke-dashoffset:0;stroke-opacity:1;filter:url(#b)" transform="matrix(1.05 -.093 .1115 1.29007 -419.404 -391.913)"/><path d="M-21.728 162.599H94.651v71.428H-21.728z" style="fill:#fff;fill-opacity:1;fill-rule:evenodd;stroke:none;stroke-width:.68054122;stroke-miterlimit:4;stroke-dasharray:none;stroke-dashoffset:0;stroke-opacity:1" transform="matrix(.97927 -.08673 .08568 .99132 14.818 -125.042)"/><path d="M12.996-18.647h90.868v.426H12.996z" style="fill:#ff80df;fill-opacity:1;fill-rule:evenodd;stroke:none;stroke-width:2;stroke-miterlimit:4;stroke-dasharray:none;stroke-dashoffset:0;stroke-opacity:1" transform="matrix(1.24654 -.1104 -.12385 -1.43306 -10.218 18.803)"/><path d="M12.996-23.099h90.868v.426H12.996zM12.996-27.668h90.868v.426H12.996zM12.996-32.121h90.868v.426H12.996zM12.996-36.644h90.868v.426H12.996zM12.996-41.097h90.868v.426H12.996zM12.996-45.666h90.868v.426H12.996zM12.996-50.118h90.868v.426H12.996zM12.996-54.747h90.868v.426H12.996zM12.996-59.2h90.868v.426H12.996z" style="fill:#80b3ff;fill-opacity:1;fill-rule:evenodd;stroke:none;stroke-width:2;stroke-miterlimit:4;stroke-dasharray:none;stroke-dashoffset:0;stroke-opacity:1" transform="matrix(1.24654 -.1104 -.12385 -1.43306 -10.218 18.803)"/><path d="M8.376 14.415h91.958v49.85H8.376z" style="fill:#000;fill-opacity:1;fill-rule:evenodd;stroke:none;stroke-width:.25;stroke-miterlimit:4;stroke-dasharray:none;stroke-dashoffset:0;stroke-opacity:1;filter:url(#a)" transform="matrix(1.2513 0 0 1.44286 2.17 19.892)"/><path d="M367.998 359.93h109.22v55.542h-109.22z" style="fill:#2e3436;fill-opacity:1;fill-rule:evenodd;stroke:none;stroke-width:.25;stroke-miterlimit:4;stroke-dasharray:none;stroke-dashoffset:0;stroke-opacity:1;filter:url(#b)" transform="matrix(1.05401 0 0 1.295 -375.225 -425.036)"/><path d="M5.609 115.999h116.379v71.428H5.609z" style="fill:#6193cf;fill-opacity:1;fill-rule:evenodd;stroke:none;stroke-width:.68054122;stroke-miterlimit:4;stroke-dasharray:none;stroke-dashoffset:0;stroke-opacity:1" transform="matrix(.98301 0 0 .9951 7.496 -74.497)"/><path d="M37.171 55.308h62.413v69.756H37.171z" style="opacity:.9;fill:#a4c0e4;fill-opacity:1;fill-rule:evenodd;stroke:none;stroke-width:2.34292865;stroke-miterlimit:4;stroke-dasharray:none;stroke-dashoffset:0;stroke-opacity:1" transform="matrix(1.60701 0 0 .9951 -39.989 -13.457)"/><path d="M58.85 115.893c-3.431-.005-7.25.151-7.25.406 0 .185-.075.542-.154.781-.116.352-.067.396.308.281.314-.095.463-.018.463.22 0 .192.161.34.309.343.207.003.162.06-.052.219-.33.244.014 1.384.463 1.593.155.073.023.146-.308.157-.499.016-.621.129-.566.593.058.488-.034.563-.668.563-.402 0-.773.14-.823.312s.02.313.154.313c.135 0 .175.114.103.25s.32.692.823 1.25c.74.821.82 1.064.565 1.25-.217.158-.314.116-.36-.125-.036-.192-.287-.506-.565-.719-.487-.371-.548-.379-.977.469-.245.484-.411.98-.411 1.094 0 .283 1.314.569 1.748.375.75-.336.347.124-.566.625-.53.29-.977.697-.977.906 0 .216-.273.451-.617.531-.407.095-.668.367-.822.844-.142.436-.587.895-1.131 1.219-.637.378-.875.69-.875 1.093 0 .308-.175.704-.41.875-.27.196-.464.576-.464 1.032 0 1.32-.11 1.508-.822 1.093-.75-.436-1.491-1.473-1.491-2.093 0-.248-.11-.524-.206-.594-.312-.225-.228-3.443.103-4.031.347-.618.21-1.282-.257-1.282-.172 0-.309.11-.309.22s-.126.143-.308.062c-.298-.134-.298-.21 0-.594.423-.545.43-.933 0-1.125-.268-.12-.32-.338-.206-1.125.08-.55.05-1-.051-1-.21 0-.926-1.84-.926-2.375 0-.197-.096-.422-.205-.5s-.231-.465-.309-.875c-.16-.855-.426-.897-1.902-.375-.56.198-1.01.284-1.028.187a7 7 0 0 1-.052-.5c-.013-.166-.228-.454-.462-.656-.426-.367-.428-.369 0-.75.395-.352.294-.399-1.337-.406-1.04-.005-1.8.103-1.8.25 0 .137.14.25.257.25.299 0 .26.825-.051 1.187-.362.422-1.028.386-1.028-.062 0-.44-.129-.462-.669-.125-.272.17-.42.176-.514 0-.076-.143-.34-.209-.565-.125-.286.105-.412.053-.412-.219 0-.215.132-.406.309-.406.176 0 .36-.171.36-.375 0-.322-1.321-.372-10.078-.375H11.754v71.156h104.474v-58.094c-.324-.528-.73-.357-.874.407-.076.4-.295.768-.463.843-.17.077-.225.317-.154.532.085.26-.04.4-.309.406-.467.01-1.13.537-1.13.906 0 .371-.467.555-1.132.406-.347-.077-.565-.042-.565.125 0 .154-.276.282-.566.282-.665 0-.984.716-.874 1.875.046.486.005.953-.103 1.03-.108.079-.196.26-.154.407s-.14.565-.411.906c-.272.342-.463.752-.463.938 0 .548-.374.391-.514-.219-.347-1.509-.15-2.35 1.028-4.062.69-1.003 1.07-2.344.668-2.344-.118 0-.306.166-.462.406-.174.267-.305.316-.309.125-.004-.171-.127-.312-.257-.312-.274 0-1.44 1.452-1.44 1.78 0 .304-.4.281-.565-.03-.08-.15-.687-.202-1.542-.125-1.294.116-1.522.22-2.006.937-.294.437-.755 1.146-1.08 1.563-.658.847-.756 1.125-.308 1.125.167 0 .362.14.411.312.07.242.18.241.463-.031.277-.266.378-.281.566-.063.188.22.194.282 0 .282-.142 0-.257.169-.257.375s.137.375.257.375c.326 0 .025 1.137-.823 3.187-.726 1.757-.886 1.921-1.594 1.844-.183-.02-.612.44-.977 1.031-.631 1.026-.646 1.112-.36 1.906.357.988.393 1.282.103 1.282-.117 0-.257-.164-.257-.375 0-.498-.81-2.375-1.028-2.375-.092 0-.276.124-.411.28-.184.215-.193.153-.103-.25.16-.716-.2-.671-.771.095-.256.343-.546.625-.669.625-.15 0-.16.15 0 .5.188.408.375.506.823.375l.565-.157-.514.625c-.364.452-.434.741-.308 1.063.096.247.183.581.205.719.023.137.08.306.103.375.222.68.146 1.507-.154 2.156-.377.817-1.43 1.698-1.748 1.469-.1-.073-.394.095-.617.343-.313.35-.483.365-.771.157-.3-.216-.455-.111-.926.437-.322.376-.46.656-.308.656.151 0 .18.136.103.282-.078.146.025.455.205.687s.395.727.515 1.094c.187.575.18.728-.258 1.062-.48.367-.538.327-1.182-.375-.375-.408-.72-.718-.771-.718s-.257.322-.412.75l-.257.78-.154-1.28c-.137-1.206-.206-1.292-.668-1.157-.414.122-.508.005-.617-.562-.073-.376-.341-.99-.617-1.375-.453-.632-.572-.676-1.08-.406-.31.164-.991.807-1.542 1.406-.552.598-1.081 1.062-1.183 1.062-.101 0-.206.347-.206.75 0 .845-.322 2.007-.565 2-.265-.007-1.594-3.61-1.594-4.343 0-.554-.056-.632-.411-.5-.28.103-.41.027-.412-.188 0-.18-.33-.566-.72-.875-.56-.444-1.026-.562-2.159-.562-1.163 0-1.44-.087-1.44-.407 0-.303-.146-.37-.616-.25-.48.123-.676.028-1.08-.468-1.26-1.549-1.68-.027-.463 1.687.336.473 1.228.588 1.44.188.077-.147.36-.03.72.28l.617.5-.412.813c-.538 1.063-3.967 3.177-4.267 2.625-.105-.192-.204-.513-.206-.687s-.241-.794-.565-1.375-.66-1.2-.72-1.406c-.17-.575-1.387-2.741-1.543-2.75-.543-.031-.192 2.364.412 2.812.148.11.257.398.257.656s.183.638.36.844c.176.206.308.544.308.75 0 .207.264.613.617.906.354.294.669.693.669.875 0 .493.603.682 1.645.5.596-.104.925-.075.925.094 0 .496-.953 2.156-1.85 3.281-1.575 1.973-1.86 2.63-1.697 3.75.079.547.252 1 .36 1s.154.372.154.844c0 .73-.122.983-.926 1.656-.878.736-.936.873-.822 1.688.092.66.06.92-.206 1.094-.194.127-.36.457-.36.718 0 .422-.495 1.375-1.388 2.844-.274.45-2.371.992-2.776.719-.089-.06-.155-.428-.155-.813s-.225-1.098-.514-1.593c-.288-.496-.587-1.325-.668-1.844s-.346-1.23-.566-1.594c-.48-.8-.474-1.516-.051-2.469.276-.623.266-.845 0-1.875-.168-.649-.564-1.497-.874-1.875-.504-.612-.547-.774-.36-1.562.16-.68.139-1.004-.103-1.406-.173-.288-.393-.462-.514-.375s-.482.024-.771-.157c-.42-.262-.726-.27-1.491-.03-.526.163-1.426.28-2.005.28-.997 0-1.087-.08-2.16-1.375l-1.13-1.343-.052-1.938c-.025-1.627.081-2.11.514-3 .284-.583.569-1.062.668-1.062s.357-.423.566-.938c.595-1.47 1.393-2.565 1.748-2.406.173.077.826-.028 1.44-.25.613-.222 1.526-.434 2.056-.469.932-.062.977-.04.977.656 0 .396.132.799.308.907.973.595 2.573 1.5 2.674 1.5.064 0 .192-.3.308-.657.159-.485.34-.603.617-.468 1.097.533 3.515.645 3.908.187.104-.12.226-.702.257-1.312l.051-1.125h-1.08c-1.091-.01-1.836-.423-1.747-.97.025-.157.498-.555 1.08-.874.862-.475 1.166-.516 1.542-.281.253.157.779.263 1.182.218 1.077-.12 1.101-.942.052-1.812-.446-.37-.712-.656-.566-.656s.309-.24.309-.532c0-.426-.126-.496-.515-.375-.265.083-.61.155-.77.157-.193.002-.233.182-.155.53l.103.532-.411-.531c-.233-.292-.519-.531-.617-.531-.337 0-.713.763-.977 1.937-.151.673-.366 1.166-.514 1.125-.506-.139-1.08.213-1.08.688 0 .786-.42.573-.771-.407-.358-.996-.775-1.593-1.131-1.593-.127 0-.258-.165-.258-.375 0-.387-.834-.922-1.13-.72-.485.333.068 1.557 1.079 2.376.304.246.448.493.309.594-.126.09-.735-.423-1.337-1.125-.985-1.148-1.123-1.238-1.44-.907-.215.226-.616.3-.977.22-.447-.102-.565-.026-.565.28 0 .222-.186.613-.412.875-.225.263-.573.89-.77 1.375-.406.997-.98 1.208-1.852.72-.523-.295-.6-.428-.565-1.626l.051-1.312.771-.032c1.536-.065 1.491-.058 1.491-.968 0-.566-.14-.967-.41-1.188-.397-.323-.4-.34.153-.625.317-.163 1.118-.873 1.748-1.562s1.277-1.25 1.44-1.25.307-.197.308-.438c.003-.273.056-.33.155-.156.093.166.596.242 1.234.187.589-.05 1.212-.087 1.44-.093.546-.015.968-.709.976-1.594.006-.606.09-.667.36-.406.354.342.447.152.566-1 .048-.476.209-.616.617-.625.294-.007.692-.128.925-.282.405-.266.405-.296-.154-.593-.444-.236-.727-.247-1.131-.032-.739.392-1.115.153-1.234-.78-.079-.611.041-1.02.514-1.72.675-.998.79-1.49.36-1.906-.399-.385-1.234.331-1.234 1.063 0 .311-.214.828-.514 1.156-.454.497-.587.798-.566 1.844.045 2.239-.427 3.858-1.131 3.875-.088.002-.154-.221-.154-.5 0-.715-.553-2.25-.823-2.25-.124 0-.257.152-.257.343 0 .419-.626.759-.874.47-.097-.114-.235-.692-.308-1.313-.122-1.031-.051-1.196.514-1.75.54-.53.985-1.247 2.16-3.375.15-.273.478-.972.719-1.563.416-1.02 1.21-1.684 1.85-1.562.148.028.258-.124.258-.344s.083-.339.205-.25c.123.089.354.03.515-.125.21-.204.358-.198.462 0 .103.194.212.167.463-.063.32-.29.37-.272.103.125-.164.244-.303.487-.257.532.398.38 1.588.845 1.902.75.415-.127 1.954 1.326 1.954 1.843 0 .615-.826.837-1.645.438-.434-.211-.818-.347-.874-.281s.065.528.257 1 .308.947.308 1.093c0 .283.698.782 1.08.782.125 0 .206-.154.206-.344s.211-.392.462-.469c.294-.09.439-.26.36-.5-.158-.48.322-.982.771-.781.258.115.36.035.36-.375 0-.42.108-.53.412-.438.257.079.604-.133.976-.593.644-.795.977-.912.977-.344 0 .481.273.484.617 0 .149-.209.632-.562 1.029-.781.396-.22.72-.504.72-.625 0-.122.185-.22.462-.22.674 0 1.851.47 1.851.75 0 .125.183.25.36.25.379 0 .418-.669.051-.812-.367-.142-.4-1.627-.051-2.406.165-.368.308-.853.308-1.094.001-.292.177-.437.515-.437.488 0 .513.053.514 2 0 1.119.075 2.13.205 2.281.169.197.177.486-.051 1-.24.54-.493.719-.977.719-.789 0-.808.415-.051.75.808.358 1.347.069 1.696-.906.396-1.104.537-1.07.412.093-.069.634-.029 1.1.205 1.438.25.36.389.389.463.156.08-.25.174-.26.411-.031.516.498.567.103.103-.906-.243-.528-.463-1.239-.463-1.563 0-.37-.152-.64-.41-.719-.315-.095-.413-.424-.515-1.406a125 125 0 0 0-.257-2.219c-.074-.591-.045-.937.103-.937.128 0 .257.24.257.531 0 .406.081.507.411.406.238-.072.622.044.874.282.399.376.454.506.206.968-.34.634-.016 1.813.514 1.813.383 0 .392-.12.103-.75q-.216-.47 0-.625c.348-.25.27-1.015-.206-1.719-.503-.745-.509-2.024 0-2.062.743-.057.874-.123.874-.47 0-.2.154-.735.36-1.218.275-.643.533-.895.925-.906.295-.008.751-.164 1.029-.344.634-.41 1.473-.234 1.8.375.506.946 1.043.353.925-1.031l-.052-.625-5.295-.063c-4.92-.062-5.307-.034-5.399.375-.054.243-.113.518-.103.625.03.319-.574.938-.925.938-.178 0-.39.113-.463.25s-.263.25-.463.25c-.201 0-.502.345-.668.781-.164.433-.463.98-.668 1.219-.484.564-.744 2.2-.463 3.062.27.83.19.855-.514.094-.462-.498-.532-.692-.36-1.219.113-.346.33-.716.463-.812s.22-.332.154-.531c-.066-.2.02-.639.206-.97.185-.33.27-.72.205-.843-.192-.363 1.637-1.892 2.16-1.812.427.065 1.13-.748 1.13-1.282 0-.106-3.514-.187-7.814-.187-5.639 0-7.815.08-7.815.281 0 .204-.093.209-.309 0-.203-.196-2.627-.309-5.295-.312m36.041.03v1.157c0 .98-.144 1.29-.823 2.125-.436.537-.97.969-1.182.969-.393 0-.488.391-.257 1.094.204.62.659.465 1.388-.47l.668-.843 1.44.594c1.531.672 2.203.772 2.57.344.137-.16.46-.216.772-.125.461.135.565.296.565 1.03 0 .938.557 2.198.874 1.97.105-.076.155-.359.155-.625 0-.486.315-.656.514-.282.058.11.398.194.72.188.44-.009.668-.206.925-.813.381-.901 1.26-1.123 1.748-.437.151.212.404.322.566.25.176-.079.344.137.462.5.273.837.9 1.135 2.108 1.062.946-.057 1.013-.02 1.08.532.09.746.691 1.553.823 1.093.142-.497 1.472-.366 1.902.188.466.6.72.416.72-.438 0-.477.105-.582.36-.468.186.083.488.156.668.156s.802.563 1.388 1.25c.486.57.974 1.004 1.183 1.094v-.813c-.037-.039-.107-.09-.154-.156-.221-.31-.175-.369.154-.375v-9.75H94.89m-72.957.813c.206-.02.313.094.257.407-.038.217-.218.381-.411.343-.226-.044-.367.135-.411.5-.044.361-.27.608-.566.657-.372.061-.45-.04-.36-.438.16-.71 1.038-1.424 1.491-1.469m80.978.157c.149.008.346.215.72.593.406.412.446.538.205.625-.172.063-.383.224-.514.344-.33.302-.706-.26-.669-1.031.018-.357.109-.54.258-.531m-74.191.28c.04-.018.126.043.36.126.294.104.617.227.668.281s-.035.206-.154.344c-.145.169-.34.08-.617-.281-.232-.303-.308-.445-.257-.47m75.682 0c.046 0 .137.17.205.376s.012.375-.103.375-.205-.17-.205-.375c0-.206.056-.375.103-.375m1.13.75c.103 0 .254.093.463.25.277.21.313.248 0 .25-.199.003-.44-.112-.514-.25-.084-.157-.05-.25.052-.25m-80.822.095c.03.004.07.122.154.343.116.304.355.563.514.563s.309.225.309.5c0 .355-.163.5-.515.5-.272 0-.696.173-.925.375-.682.601-.782.427-.154-.25a2 2 0 0 0 .565-1.438c0-.41.012-.6.052-.593m-1.903.093.566.72.617.718-.463.156c-1.085.355-1.179.265-.874-1zm3.754.125c.019.002.129.089.257.25.35.444.376.464.72.063.343-.4.356-.404.514.094.092.29.119.7.051.906-.133.404-.514.52-.514.156 0-.122-.215-.287-.514-.375-.3-.087-.486-.298-.412-.437.074-.14.047-.39-.051-.563-.037-.064-.063-.095-.051-.094m3.856.22c.107-.02.243.111.565.374.349.285.77.347 1.388.25.967-.15 1.646.152 1.646.719 0 .365-.203.452-.874.375-.196-.022-.438.075-.515.219-.173.327-1.115.352-1.285.03-.07-.13-.247-.166-.411-.093-.356.16-.769-.62-.72-1.375.02-.323.098-.481.206-.5m-1.286 1.03c.123-.01.287.12.36.375.047.164-.039.313-.205.313-.167 0-.309-.165-.309-.375 0-.189.059-.304.154-.313m.823 1.938a.9.9 0 0 1 .308.094c.253.113.284.257.103.718-.125.321-.39.71-.617.875-.379.276-.411.248-.411-.562 0-.744.204-1.15.617-1.125m-9.46.156c.057.003.13.024.205.031 1.521.156 1.977.458 1.389.938-.229.186-.52.676-.669 1.094-.204.573-.448.78-.874.78-.547 0-.55-.042-.514-1.437.032-1.237.06-1.423.463-1.406m11.876.094c.41 0 .422.031.103.312-.537.474-.781 1.422-.514 2.094.31.781.837.782.668 0-.077-.36.012-.742.206-.969.175-.203.354-.637.411-.968.058-.332.069.122.052 1-.021 1.08.076 1.613.257 1.687.164.067.255-.112.257-.469.002-.446.056-.493.206-.218.158.29.249.318.514.062.423-.41 1.33-.263 1.337.219.002.215.147.323.36.281.207-.04.36.082.36.281 0 .333.762.771 1.182.688.202-.04.073 1.078-.206 1.844-.148.407-.108.44.309.312.346-.105.658.038 1.028.469.287.334.61.625.771.625.465 0 .172.835-.411 1.156-.289.159-.551.187-.566.063-.057-.487-.093-.637-.257-.938-.26-.477-1.034-.392-.874.094.072.217.103.579.103.781s.292.693.668 1.094c.726.772.697 1.326-.051.781-.656-.477-.991.016-.36.531.541.442.366.52-.411.157-.362-.17-.455-.37-.36-.72.103-.378-.021-.498-.514-.624-.55-.14-.654-.311-.771-1.313-.074-.625-.074-1.558 0-2.093.102-.75.082-.97-.155-.97-.169 0-.643-.293-1.028-.624-.511-.44-.926-.575-1.645-.563-.782.014-1.068-.1-1.388-.562-.222-.32-.377-.762-.309-.969s.032-.465-.103-.562c-.558-.403.341-1.97 1.131-1.97m-4.73.094c.053-.017.113.004.206 0 .053-.003.138 0 .206 0 .599 0 .594.003.257.437-.332.427-.316.496.051.969.342.44.37.57.103.875-.264.303-.418.278-.926-.156-.695-.596-.75-.97-.154-.97.484 0 .545-.09.257-.718-.113-.246-.157-.388 0-.437m6.787.156c.231 0 .542.225.668.5.206.448.173.5-.411.5-.507 0-.668-.11-.668-.5 0-.33.133-.5.41-.5m-11.363.719.103.625c.076.351.332.656.514.656.242 0 .253-.154.155-.563-.038-.155-.008-.26 0-.312.01.01.037.009.051.031.096.15.447.345.771.438.455.13.566.054.566-.25 0-.217.139-.304.257-.22.118.086.206.36.206.626s.28.922.668 1.437c.87 1.16.91 2.207.051 1.75-.419-.222-.689-.206-1.285.125-.84.468-1.378.525-1.697.157a6 6 0 0 0-.617-.625c-.398-.332-.384-.337.463-.344.664-.006.926-.102.926-.375 0-.376-.197-.456-1.389-.438-.353.006-.514-.024-.308-.093.502-.17.477-.527-.052-.688-.572-.174-.518-.694.103-1.375zm6.324 2.125c.079-.003.187.076.309.218.16.187.307.587.36.907s.23.767.411 1 .36.558.36.718c0 .161.145.313.308.313s.299.225.36.5c.062.275.233.5.36.5.33 0 .88-1.675.72-2.188-.126-.404-.077-.424.309-.03.286.291.41.748.41 1.5 0 1.034-.051 1.08-.719 1.155-.442.05-.668.204-.668.438 0 .272-.248.366-.823.312-.975-.091-1.18.41-.257.625.573.134.637.246.411.563-.146.206-.403.344-.565.344-.368 0-.352.306 0 .718.214.253.197.29-.103.157-.26-.116-.411-.03-.411.25 0 .22-.048.375-.155.375-.15 0-.668 1.283-.668 1.656 0 .041.227.357.514.719.287.361.476.836.411 1.03-.083.254.049.345.463.345.32 0 .833.281 1.183.625s.853.625 1.08.625c.258 0 .39.186.41.5l.052.812c.024.348.913.938 1.388.938.225 0 .262-.32.257-1.188-.003-.652.003-1.582 0-2.062-.002-.481.016-1.188 0-1.594-.015-.406.072-.792.206-.844.307-.119.304-.812 0-.812-.125 0-.136.154-.051.312.087.165.022.215-.103.125-.12-.086-.156-.429-.103-.75.08-.494.197-.554.771-.469.772.115 2.057 1.56 2.057 2.313 0 .572 1.051.68 1.234.125.228-.692.655-.62.565.094-.094.745.795 2.25 1.337 2.25.166 0 .308.153.308.343s.176.429.412.5c.472.144.603.907.154.907-.155 0-.46.25-.72.53-.26.283-.564.451-.668.376-.34-.245-1.474.128-2.108.719-.68.633-.61 1.07.103.625.338-.211.462-.197.462.03 0 .492.652 1.209.977 1.063.17-.075.312-.002.309.188-.008.395-1.08 1.357-1.08.969 0-.144.088-.25.206-.25s.257-.191.257-.407c0-.847-1.79.477-2.16 1.594-.108.326-.365.563-.617.563-.238 0-.462.153-.462.343s-.217.394-.463.47c-.442.134-.403.34 0 1.593.05.156-.388.756-.926 1.344-.537.587-.976 1.184-.976 1.312s.225.548.462.938c.267.436.34.746.206.843-.12.087-.202.024-.206-.156-.022-1.092-2.182-2.104-2.725-1.281-.161.245-.431.325-.72.219-.246-.092-.725-.026-1.08.156-1.25.643-1.325 3.441-.102 4.375.627.479 1.48.258 1.8-.438.125-.273.393-.468.565-.468.358 0 .424.362.103.593-.118.085-.206.446-.206.782 0 .547.084.593.874.593.844 0 .856.027.72.657-.105.488.005.81.36 1.25.36.447.398.593.154.593-.177 0-.462-.256-.617-.593-.287-.626-1.376-1.407-2.005-1.407a.61.61 0 0 1-.514-.375c-.087-.263-.384-.34-1.028-.312-.961.042-2.981-.953-3.034-1.5-.014-.154-.036-.42-.051-.563-.044-.427-1.998-2.718-2.314-2.718-.364 0-.35.286 0 .718.216.267.196.307-.051.22-.169-.06-.608-.768-.977-1.563s-.921-1.623-1.234-1.844-.677-.739-.823-1.156c-.145-.418-.448-.908-.668-1.094-.308-.26-.4-.608-.36-1.5.028-.638.164-1.415.257-1.719.097-.315.066-.603-.051-.687-.114-.082-.206-.406-.206-.72 0-.364-.222-.692-.565-.874-.492-.261-.605-.654-.515-1.469.02-.17-.179-.553-.41-.844-.233-.29-.372-.684-.31-.875.067-.201-.017-.343-.205-.343-.178 0-.528-.395-.771-.875-.463-.914-.77-1.09-.977-.563-.068.172-.066.06 0-.25.164-.772-.162-.703-.926.188-.39.455-.776.683-.976.593-.4-.178-1.068.983-1.44 2.532-.298 1.238-1.143 1.983-1.183 1.03-.012-.292-.005-.39.052-.218.187.566.47.326.72-.625.135-.515.338-1.172.462-1.469s.205-1.304.155-2.218c-.082-1.498-.183-1.713-.772-2.25-.56-.511-.655-.798-.77-2.094-.106-1.174-.05-1.632.205-1.969.181-.238.463-.677.668-1 .302-.475.644-.618 1.645-.687 1.065-.074 1.332-.206 2.057-.97.464-.487.984-.888 1.131-.905 1.234-.149 1.537-.082 1.8.343.228.37.373.393.617.157.24-.233.494-.206 1.182.156.482.253 1.051.458 1.285.437.408-.035.409-.021.052.438-.343.442-.325.48 0 .625.194.087.666.124 1.028.062.516-.088.72.012.977.47.488.866.712.705.617-.407-.085-.993.37-1.624.617-.875.065.197.282.344.514.344s.503.1.566.218c.143.27 1.182.082 1.182-.218 0-.386.846-.235.874.156.05.703.102.819.257 1 .086.1.185-.021.257-.281s.24-.708.36-1c.278-.68.05-1.53-.462-1.72-.52-.191-.73-.863-.412-1.312.107-.15.179-.216.257-.218m-.925 1.906c.202-.026.428.115.514.375.068.206.033.36-.051.344-.605-.114-.876-.303-.772-.5a.4.4 0 0 1 .309-.22m2.88.281c.014-.006.033.01.05.031.072.083.062.289 0 .47-.068.198-.143.134-.154-.157-.007-.197.06-.325.103-.344m-16.608.719c.118 0 .206.033.206.094 0 .06-.088.196-.206.28-.118.086-.205.021-.205-.124 0-.146.087-.25.205-.25m39.795 1.594c.707-.045.441 1.143-.566 1.75-.344.207-.684.377-.72.375-.232-.014-.46-.425-.514-.875-.057-.484.058-.7.669-.875a7 7 0 0 0 .771-.282 1 1 0 0 1 .36-.093m-22.057 1.03c.095-.02.287.154.463.407.291.42.339.661.154 1.125-.128.321-.284.562-.36.563-.33.004-.544-1.728-.257-2.063.01-.01-.013-.028 0-.031m2.982.095c.285 0 .27.068.052.375-.147.206-.264.375-.309.375s-.103-.17-.103-.375c0-.206.169-.375.36-.375m-22.57 4.312c.037-.016.066.023.154.125.13.153.199.405.154.563-.107.372-.36.027-.36-.47 0-.14.014-.201.051-.218m45.295.594c.019.008.047.05.052.156.011.24.104.438.205.438.102 0 .108.281.052.625-.057.343-.01.625.103.625s.394.394.617.875c.222.48.478.875.565.875s.112.158.052.343-.416.449-.823.594c-.523.187-.717.188-.617 0 .225-.424.308-2.437.103-2.437-.329 0-.624-1.106-.463-1.75.063-.251.124-.358.154-.344m4.113.844c.062.003.156.069.257.187.154.18.187.406.052.688-.182.38-.245.39-.36-.125-.106-.471-.084-.757.051-.75m-4.935 1.5c.264 0 .045 1.327-.257 1.562-.386.3-.481.218-.463-.375.018-.588.38-1.187.72-1.187m47.044.03c.053-.002.125.068.205.22.068.128.017.288-.103.375-.12.086-.205-.005-.205-.22q0-.369.103-.374m-89.77.282c.015-.006.034-.02.052 0 .071.083.062.32 0 .5-.068.2-.144.135-.154-.156-.007-.197.059-.325.102-.344m90.078 1.344c.125-.03.206.09.206.344 0 .114-.094.27-.257.343-.208.093-.281-.009-.206-.343.044-.197.16-.32.257-.344m-63.085 1.781c.095-.012.254.043.463.156.285.155.56.423.617.594.07.213-.162.313-.669.313-.743 0-.842-.129-.617-.813.048-.146.11-.237.206-.25m34.036.5c-.426-.004-.925.121-.925.313 0 .105-.217.268-.463.343-.52.159-.4.798.308 1.97.313.516.358.936.257 1.562-.105.657-.04.892.258 1.093.21.143.689.278 1.028.282.612.007.566-.026.463-1.282-.063-.758-.28-1.55-.566-2l-.463-.75.463-.156c.472-.144.573-.79.206-1.219-.091-.105-.31-.154-.566-.156m28.792 1a.63.63 0 0 1 .308.125c.28.204.293.36.103.5-.142.106-.41.186-.617.188-.316.003-.367-.07-.154-.47.127-.236.23-.352.36-.343m-.514 1.844c.013-.007.036-.017.051 0 .06.07.024.67-.051 1.312-.117.993-.193 1.178-.669 1.313a3.3 3.3 0 0 0-.976.5c-.233.185-.636.317-.874.312-.391-.008-.377-.034.102-.343.293-.19.578-.284.669-.22.09.066.238-.066.308-.28s.25-.375.412-.375c.328 0 .976-1.247.976-1.907 0-.176.013-.292.052-.312m-37.07 2.062c.077-.015.154.016.154.125 0 .146-.087.282-.205.282s-.206-.065-.206-.125.088-.165.206-.25c.03-.022.026-.027.051-.032m-42.057 6.657c.012-.013.088.032.258.187.206.189.41.417.41.469 0 .205-.182.072-.462-.344-.133-.198-.217-.3-.206-.312m73.163 1.625c.028-.01.024.037.051.187.047.255.012.586-.103.719-.134.156-.182-.013-.102-.469.051-.294.118-.425.154-.437m-60.515.343c.118 0 .206.065.206.125 0 .061-.088.166-.206.25-.117.085-.205.052-.205-.093 0-.146.088-.282.205-.282m60.926 1.313c.015-.006.034.01.052.031.07.083.061.289 0 .469-.069.2-.093.135-.103-.156-.007-.198.007-.325.051-.344m.771 1.687c.114 0 .206.17.206.375 0 .206-.057.375-.103.375s-.138-.169-.205-.375c-.068-.206-.012-.375.102-.375m-61.645.125c.135-.026.13.083.051.375-.157.579.43.727.617.157.08-.242.447-.3 1.234-.25.907.057 1.196.188 1.748.812.373.421 1.03.847 1.44.938 1.484.329 2.185 1.183 1.696 2.093-.325.607-.137.931.309.5.202-.195.36-.195.36-.03 0 .145.154.255.36.25.206-.007.675.104 1.028.25.353.144 1.216.458 1.902.687 1.182.393 1.205.44 1.08 1.062-.073.362-.334.893-.617 1.188-.29.302-.59.956-.668 1.5-.291 2.014-.532 2.601-1.286 2.968-.953.465-1.522 1.093-1.696 1.938-.078.378-.24.687-.412.687s-.385.31-.462.688c-.224 1.095-.757 1.628-1.44 1.469-.63-.147-.707.056-.36.812.233.508-.215 1.087-1.028 1.375-.261.093-.477.413-.514.719-.037.302-.235.575-.412.594-.176.018-.411.046-.514.062s-.037.178.103.375c.278.39.052 1.076-.617 1.969-.317.423-.337.494 0 .781.34.29.338.38-.154 1.156-.292.46-.51 1.006-.514 1.22s-.152.571-.309.812c-.38.585-.771.553-.771-.063 0-.274-.066-.5-.154-.5-.089 0-.128-.591-.103-1.312s.054-2.52.103-4.032c.049-1.51.227-3.082.36-3.468s.205-1.138.205-1.688.1-1.206.206-1.437.249-1.035.308-1.782c.101-1.258.073-1.392-.514-2.03-.348-.38-.849-.76-1.08-.845-.23-.085-.626-.7-.873-1.343-.248-.643-.637-1.386-.874-1.688-.295-.374-.371-.694-.258-1 .092-.247.18-.668.155-.906-.026-.239.16-.789.462-1.25.567-.865.683-1.563.36-2.156-.22-.406.25-1.008 1.131-1.47.21-.109.33-.17.412-.187m54.293.625c.045 0 .223.357.411.782.355.8.324 1.245-.051.687-.225-.335-.5-1.469-.36-1.469m4.987.22c.014-.004.05.02.052.03.132.778.013 2.026-.206 2.688-.394 1.19-1.302 1.127-1.902-.125-.342-.714-.381-.813 0-.813.172 0 .706-.409 1.182-.937.417-.462.782-.821.874-.844m-6.735.5.617.437c.998.683 2.468 2.59 2.468 3.218 0 .205-.062.375-.154.375-.21 0-1.748-2.395-1.748-2.718 0-.13-.293-.481-.617-.782zm7.815 2.187a.5.5 0 0 1 .206.03c.393.12.392.813 0 .813-.097 0-.204.198-.257.438s-.141.033-.155-.469c-.016-.589.042-.79.206-.812m3.907.093c.17 0 .395.17.463.375.156.474-.1.478-.463 0-.227-.3-.252-.375 0-.375m1.646.375c.174-.013.487.092.977.344 1.081.558 1.427.923 1.645 1.594.121.375.102.386-.257.125-.326-.237-.463-.24-.669 0-.144.168-.346.323-.41.312-.655-.109-1.744-1.743-1.492-2.218.05-.094.1-.148.206-.157m3.187 2.375c.14-.002.287.113.36.25.165.31.103.31-.308 0-.193-.145-.205-.247-.052-.25m-4.627 1.47c.1.006.228.042.36.124.262.164.385.38.308.469-.17.2.288.757.977 1.187.445.278.577.237.823-.156.157-.25.3-.71.308-1.062.006-.196.027-.329.052-.375.013.02.037.05.051.093.069.204.254.504.412.688s.308.495.308.687.354.714.771 1.157c1.231 1.305 1.576 2.167 1.491 3.625-.116 1.993-.661 3.666-1.336 4.03-1.092.592-2.117.285-2.417-.718-.345-1.155-1.08-1.905-1.08-1.094 0 .282-.217.161-.822-.406-.8-.748-.9-.734-1.748-.437-.487.17-.95.44-1.08.625-.13.183-.49.343-.771.343s-.707.123-.926.282c-.64.466-1.071.1-.925-.75.069-.4-.016-.98-.154-1.282-.381-.829-.476-2.89-.155-3.187.149-.138.616-.374 1.029-.531s1.132-.736 1.594-1.282c.628-.743.874-.917 1.08-.718.204.198.489.02 1.027-.625.44-.527.603-.703.823-.688m-26.375.968c.038-.01.038.006.051.031.098.185-.584 3.331-.823 3.781-.22.416-.709.287-.822-.218-.058-.26 0-.626.103-.813s.12-.653.051-1.031c-.077-.428.004-.688.154-.688.133 0 .433-.29.72-.625.215-.25.452-.409.566-.437m38.972 9.219c.219-.007.43.286.308.656-.075.23-.21.437-.308.437-.304 0-.442-.49-.257-.875.073-.154.157-.215.257-.218m-.72 1.593c.18 0-.163 1.088-.463 1.438-.161.188-.308.491-.308.687s-.178.344-.36.344c-.216 0-.268-.11-.155-.312.097-.172.394-.735.669-1.25s.562-.907.617-.907m-7.815.5c.05-.014.128 0 .205 0 .245 0 .407.117.36.282-.132.462-.528.52-.668.093-.067-.202-.05-.33.103-.375m-66.993 7.47c.045 0 .162.168.309.374.218.307.233.375-.052.375a.373.373 0 0 1-.36-.375c0-.206.059-.375.103-.375" style="fill:#6193cf;fill-opacity:1;stroke:none" transform="matrix(.98301 0 0 .9951 7.496 -74.497)"/><path d="M12.996-18.647h90.868v.426H12.996z" style="fill:#ff80df;fill-opacity:1;fill-rule:evenodd;stroke:none;stroke-width:2;stroke-miterlimit:4;stroke-dasharray:none;stroke-dashoffset:0;stroke-opacity:1" transform="matrix(1.2513 0 0 -1.43853 -2.958 20.22)"/><path d="M12.996-23.099h90.868v.426H12.996zM12.996-27.668h90.868v.426H12.996zM12.996-32.121h90.868v.426H12.996zM12.996-36.644h90.868v.426H12.996zM12.996-41.097h90.868v.426H12.996zM12.996-45.666h90.868v.426H12.996zM12.996-50.118h90.868v.426H12.996zM12.996-54.747h90.868v.426H12.996zM12.996-59.2h90.868v.426H12.996z" style="fill:#80b3ff;fill-opacity:1;fill-rule:evenodd;stroke:none;stroke-width:2;stroke-miterlimit:4;stroke-dasharray:none;stroke-dashoffset:0;stroke-opacity:1" transform="matrix(1.2513 0 0 -1.43853 -2.958 20.22)"/><path d="M-104.767 9.617q-1.719.811-1.719 1.402 0 .442.819.81.817.37 2.127.665 1.31.22 3.027.368 1.719.148 3.6.148 9.165 0 15.71-2.434 9.574-3.393 9.574-11.505 0-8.998-10.473-17.184a66 66 0 0 0-8.264-5.827 83 83 0 0 0-9.247-4.867q-6.463-2.803-12.928-4.352a64.3 64.3 0 0 0-13.01-1.917q-7.773-.443-13.582 2.729-5.073 2.802-5.728 6.859a11.2 11.2 0 0 0-.245 2.433q0 3.835 1.227 7.45 1.473 4.277 3.846 6.194.408.59.818.59l.163-.147q0-.295-.409-.885-3.681-4.94-3.682-12.76 0-1.4.246-2.875 1.635-8.409 14.483-8.408 5.891 0 11.782 1.254 5.973 1.254 12.274 3.835a71.6 71.6 0 0 1 10.882 5.605 83 83 0 0 1 9.82 7.08q8.59 7.449 8.59 15.709 0 6.712-6.463 9.661-2.783 1.328-6.383 2.066-3.518.737-7.855.737-4.665 0-7.282-1.18-1.39-.369-1.718-1.254m-29.948 22.642q1.065.369 2.455.369 1.554 0 2.946-.295a9.6 9.6 0 0 0 2.7-.96q9-4.35 19.146-22.272a171 171 0 0 0 10.72-22.494q.244-.517.081-1.918-.163-1.327-.409-1.327.082 0-.245.295-4.338 11.726-14.483 27.583-11.128 17.405-16.856 19.323-1.636.369-2.946.442-1.227.148-2.209-.221-2.372-.885-3.764-2.434-.736-.664-1.063-.664-.41 0-.41.443t.491 1.106q1.392 1.918 3.846 3.024" style="font-size:56.39134598px;font-style:normal;font-variant:normal;font-weight:400;font-stretch:normal;text-align:start;line-height:125%;writing-mode:lr-tb;text-anchor:start;fill:#00438a;fill-opacity:1;stroke:none;stroke-width:1px;stroke-linecap:butt;stroke-linejoin:miter;stroke-opacity:1;filter:url(#c);font-family:Scriptina" transform="translate(178.573 77.828)"/><path d="M-104.767 9.618q-1.719.81-1.718 1.4 0 .444.818.812t2.127.664q1.31.22 3.028.369 1.718.147 3.6.147 9.165 0 15.71-2.434 9.574-3.391 9.574-11.505 0-8.997-10.474-17.184a66 66 0 0 0-8.264-5.826 83 83 0 0 0-9.246-4.868q-6.465-2.802-12.928-4.351a64.3 64.3 0 0 0-13.01-1.918q-7.773-.442-13.583 2.729-5.073 2.802-5.728 6.859a11.3 11.3 0 0 0-.245 2.434q0 3.835 1.227 7.449 1.473 4.277 3.846 6.195.41.59.818.59l.164-.148q0-.294-.41-.885-3.681-4.941-3.681-12.759 0-1.401.245-2.876 1.637-8.408 14.483-8.408 5.891 0 11.783 1.254 5.973 1.254 12.273 3.835a71.6 71.6 0 0 1 10.883 5.605 83 83 0 0 1 9.819 7.08q8.59 7.45 8.591 15.71 0 6.711-6.464 9.66-2.782 1.328-6.382 2.066-3.519.738-7.855.737-4.664 0-7.283-1.18-1.39-.369-1.718-1.253m-29.947 22.641q1.064.369 2.454.369 1.555 0 2.946-.295a9.6 9.6 0 0 0 2.7-.959q9-4.35 19.147-22.273a171 171 0 0 0 10.719-22.494q.244-.516.082-1.917-.165-1.328-.41-1.328.082 0-.245.295-4.337 11.727-14.483 27.583-11.128 17.406-16.855 19.323-1.637.369-2.946.442-1.227.148-2.21-.22-2.372-.885-3.763-2.435-.737-.663-1.064-.663-.41 0-.41.442 0 .443.492 1.106 1.391 1.918 3.846 3.024" style="font-size:56.39134598px;font-style:normal;font-variant:normal;font-weight:400;font-stretch:normal;text-align:start;line-height:125%;writing-mode:lr-tb;text-anchor:start;fill:#000;fill-opacity:1;stroke:none;stroke-width:1px;stroke-linecap:butt;stroke-linejoin:miter;stroke-opacity:1;font-family:Scriptina" transform="translate(178.573 77.828)"/></svg>