<svg xmlns="http://www.w3.org/2000/svg" xmlns:xlink="http://www.w3.org/1999/xlink" width="32" height="32"><linearGradient id="a"><stop offset="0" stop-color="#292c2f"/><stop offset="1" stop-opacity="0"/></linearGradient><linearGradient xlink:href="#a" id="d" x1="7" x2="13" y1="24" y2="30" gradientUnits="userSpaceOnUse"/><linearGradient xlink:href="#a" id="f" x1="8.668" x2="12.782" y1="8.328" y2="12.442" gradientUnits="userSpaceOnUse"/><linearGradient xlink:href="#a" id="e" x1="14" x2="20.741" y1="6.456" y2="13.197" gradientUnits="userSpaceOnUse"/><linearGradient xlink:href="#a" id="g" x1="24.408" x2="30" y1="9.49" y2="15.082" gradientUnits="userSpaceOnUse"/><linearGradient xlink:href="#a" id="j" x1="15.388" x2="19.555" y1="21.833" y2="26" gradientUnits="userSpaceOnUse"/><linearGradient id="c" x1="2" x2="2" y1="30" y2="2" gradientUnits="userSpaceOnUse"><stop offset="0" stop-color="#34749e"/><stop offset="1" stop-color="#62afe8"/></linearGradient><linearGradient xlink:href="#b" id="k" x1="-12.271" x2="-12.271" y1="24.62" y2="20.54" gradientTransform="translate(32.031 -.14)scale(.98049)" gradientUnits="userSpaceOnUse"/><linearGradient xlink:href="#b" id="i" x1="24" x2="24" y1="14" y2="9" gradientUnits="userSpaceOnUse"/><linearGradient id="h" x1="4" x2="4" y1="26" y2="6" gradientUnits="userSpaceOnUse"><stop offset="0" stop-color="#eff0f1"/><stop offset="1" stop-color="#fcfcfc"/></linearGradient><linearGradient id="b" x1="-17.37" x2="-17.37" y1="24.62" y2="20.54" gradientTransform="translate(32.031 -.14)scale(.98049)" gradientUnits="userSpaceOnUse"><stop offset="0" stop-color="#172525"/><stop offset="1" stop-color="#292c2f"/></linearGradient><rect width="28" height="28" x="2" y="2" fill="url(#c)" rx="4"/><path fill="#292c2f" d="M2 25v1c0 2.216 1.784 4 4 4h20c2.216 0 4-1.784 4-4v-1c0 2.216-1.784 4-4 4H6c-2.216 0-4-1.784-4-4" opacity=".2"/><path fill="url(#d)" d="m7 24 6 6h17V19.715l-4-4z" opacity=".2"/><path fill="url(#e)" d="M14 6.456 21.544 14H14z" opacity=".2"/><path fill="url(#f)" d="M8.668 8.328 12 11.66V13H9z" opacity=".2"/><path fill="url(#g)" d="m24.408 9.49 1.99 1.99.86-1.42L30 12.804v7.345l-6.312-6.312z" opacity=".2"/><path fill="url(#h)" fill-rule="evenodd" d="M12.89 6c-.327.008-.582.107-.673.107-2.086.293-1.462 3.219-.577 5.962.075.702-.654.408-1.13-.327C8.909 7.818 8.2 7.945 7.753 7.83c-.428-.089-1.916.694-1.883 2.28.006.457.573 2.605.578 3.272-1.88 3.228-2.645 6.422-.29 9.726 2.376 3.147 9.446 3.252 10.71 2.51.483-.338 7.698-3.893 9.361-5.272 2.479-2.05-.064-4.632-.663-4.992-5.135-3.359-10.384-2.66-10.454-3.192-.036-.616-.014-2.327-.103-2.935C14.66 6.398 13.606 5.984 12.89 6"/><path fill="url(#i)" d="M24.408 9.49a.16.16 0 0 0-.097.008c-.05.022-.066.046-.08.066a.6.6 0 0 0-.065.135q-.06.16-.129.44a19 19 0 0 0-.285 1.392c-.088.518-.16 1.048-.186 1.465a3.3 3.3 0 0 0 0 .531.8.8 0 0 0 .04.192c.02.054.054.11.119.146.03.02.069.036.109.033a.2.2 0 0 0 .107-.043.4.4 0 0 0 .106-.142c.054-.109.1-.256.148-.44.096-.367.188-.874.26-1.394s.126-1.054.143-1.477a4 4 0 0 0-.006-.537 1 1 0 0 0-.032-.19.27.27 0 0 0-.09-.146.14.14 0 0 0-.062-.039m2.729.524a.3.3 0 0 0-.106.02.6.6 0 0 0-.162.105 3 3 0 0 0-.361.394c-.268.336-.586.806-.877 1.297s-.556 1.001-.717 1.424c-.08.211-.136.4-.154.562s-.003.324.127.42c.071.054.168.039.224.01a.6.6 0 0 0 .15-.119c.098-.1.205-.245.323-.424.236-.357.515-.849.78-1.353.263-.505.513-1.02.689-1.42.088-.2.156-.372.2-.502q.035-.097.05-.168a.3.3 0 0 0 .008-.074c-.001-.028 0-.072-.05-.122l-.003-.003-.006-.004a.2.2 0 0 0-.115-.043"/><path fill="url(#j)" d="m15.388 21.833 1.835 1.835-.068.2L25.287 32h6.37L19.563 19.906z" opacity=".2"/><path fill="url(#k)" d="M17.155 23.867c-.326-.197 2.214-3.158 2.837-2.837.91.904-2.88 2.908-2.837 2.837m-1.767-2.034c-.058-.204 3.64-2.441 4.175-1.927.964.35-4.14 2.187-4.175 1.927"/></svg>