<svg xmlns="http://www.w3.org/2000/svg" xmlns:xlink="http://www.w3.org/1999/xlink" width="32" height="32"><linearGradient xlink:href="#a" id="n" x2="0" y1="541.798" y2="489.798" gradientTransform="matrix(1.0871 0 0 1.1 -44.37 -47.98)" gradientUnits="userSpaceOnUse"/><linearGradient xlink:href="#b" id="p" x1="404.571" x2="421.571" gradientTransform="matrix(1.07952 0 0 1.14286 -41.173 -70.685)" gradientUnits="userSpaceOnUse"/><linearGradient xlink:href="#c" id="r" x1="421.571" x2="438.571" gradientTransform="matrix(1.04899 0 0 1.1 -27.651 -47.98)" gradientUnits="userSpaceOnUse"/><linearGradient xlink:href="#d" id="w" x1="421.571" x2="406.571" gradientTransform="matrix(1.0871 0 0 1.1 -44.37 -47.98)" gradientUnits="userSpaceOnUse"/><linearGradient xlink:href="#e" id="x" x1="421.571" x2="436.571" gradientTransform="matrix(1.0871 0 0 1.1 -44.37 -47.98)" gradientUnits="userSpaceOnUse"/><linearGradient xlink:href="#a" id="z" x2="0" y1="541.798" y2="489.798" gradientTransform="matrix(.54355 0 0 .55 -210.47 -268.389)" gradientUnits="userSpaceOnUse"/><linearGradient xlink:href="#b" id="B" x1="404.571" x2="421.571" gradientTransform="matrix(1.07952 0 0 1.14286 -41.173 -68.685)" gradientUnits="userSpaceOnUse"/><linearGradient xlink:href="#c" id="D" x1="421.571" x2="438.571" gradientTransform="matrix(1.04899 0 0 1.1 -27.651 -45.98)" gradientUnits="userSpaceOnUse"/><linearGradient xlink:href="#d" id="I" x1="421.571" x2="406.571" gradientTransform="matrix(1.0871 0 0 1.1 -44.37 -45.98)" gradientUnits="userSpaceOnUse"/><linearGradient xlink:href="#e" id="J" x1="421.571" x2="436.571" gradientTransform="matrix(1.0871 0 0 1.1 -44.37 -45.98)" gradientUnits="userSpaceOnUse"/><linearGradient xlink:href="#f" id="K" x1="15.999" x2="15.999" y1="25" y2="23" gradientUnits="userSpaceOnUse"/><linearGradient xlink:href="#f" id="m" x1="408.573" x2="408.573" y1="545.473" y2="503.852" gradientTransform="matrix(1.08333 0 0 1.02778 -410.619 -509.793)" gradientUnits="userSpaceOnUse"/><linearGradient xlink:href="#g" id="o" x1="394.571" x2="404.571" y1="535.798" y2="522.798" gradientTransform="matrix(1.1 0 0 1.14286 -49.457 -70.685)" gradientUnits="userSpaceOnUse"/><linearGradient xlink:href="#h" id="q" x1="430.571" x2="437.5" y1="536.798" y2="524.798" gradientTransform="matrix(1.1078 0 0 1.14286 -53.449 -70.685)" gradientUnits="userSpaceOnUse"/><linearGradient xlink:href="#i" id="s" x1="387.571" x2="401.571" y1="525.798" y2="513.798" gradientTransform="matrix(1.1 0 0 1.27514 -49.457 -137.418)" gradientUnits="userSpaceOnUse"/><linearGradient xlink:href="#j" id="t" x1="395.571" x2="381.271" y1="513.898" y2="500.698" gradientUnits="userSpaceOnUse"/><linearGradient xlink:href="#k" id="u" x1="404.571" x2="421.571" y1="501.798" y2="501.616" gradientTransform="matrix(1.11765 0 0 1.1 -56.597 -47.98)" gradientUnits="userSpaceOnUse"/><linearGradient xlink:href="#l" id="v" x1="428.571" x2="438.571" y1="495.798" y2="504.798" gradientTransform="matrix(1.04899 0 0 1.0625 -27.65 -29.238)" gradientUnits="userSpaceOnUse"/><linearGradient id="y" x1="408.573" x2="408.573" y1="544.662" y2="501.852" gradientTransform="matrix(.54166 0 0 .51389 -205.31 -252.897)" gradientUnits="userSpaceOnUse"><stop offset="0" stop-color="#197cf1"/><stop offset="1" stop-color="#20bcfa"/></linearGradient><linearGradient xlink:href="#g" id="A" x1="394.571" x2="404.571" y1="535.798" y2="522.798" gradientTransform="matrix(1.1 0 0 1.14286 -49.457 -68.685)" gradientUnits="userSpaceOnUse"/><linearGradient xlink:href="#h" id="C" x1="430.571" x2="437.5" y1="536.798" y2="524.798" gradientTransform="matrix(1.1078 0 0 1.14286 -53.449 -68.685)" gradientUnits="userSpaceOnUse"/><linearGradient xlink:href="#i" id="E" x1="387.571" x2="401.571" y1="525.798" y2="513.798" gradientTransform="matrix(1.1 0 0 1.27514 -49.457 -135.418)" gradientUnits="userSpaceOnUse"/><linearGradient xlink:href="#j" id="F" x1="395.571" x2="381.271" y1="515.898" y2="502.698" gradientUnits="userSpaceOnUse"/><linearGradient xlink:href="#k" id="G" x1="404.571" x2="421.571" y1="501.798" y2="501.616" gradientTransform="matrix(1.11765 0 0 1.1 -56.597 -45.98)" gradientUnits="userSpaceOnUse"/><linearGradient xlink:href="#l" id="H" x1="428.571" x2="438.571" y1="495.798" y2="504.798" gradientTransform="matrix(1.04899 0 0 1.0625 -27.65 -27.238)" gradientUnits="userSpaceOnUse"/><linearGradient id="f"><stop offset="0" stop-color="#2a2c2f"/><stop offset="1" stop-color="#424649"/></linearGradient><linearGradient id="a"><stop offset="0" stop-color="#7e8f9e"/><stop offset="1" stop-color="#84ced5"/></linearGradient><linearGradient id="g"><stop offset="0" stop-color="#e4a56d"/><stop offset="1" stop-color="#a7bd78"/></linearGradient><linearGradient id="b"><stop offset="0" stop-color="#c3a278"/><stop offset="1" stop-color="#68a"/></linearGradient><linearGradient id="h"><stop offset="0" stop-color="#6588af"/><stop offset="1" stop-color="#8ba8cd"/></linearGradient><linearGradient id="c"><stop offset="0" stop-color="#89ad8b"/><stop offset="1" stop-color="#82b3c7"/></linearGradient><linearGradient id="i"><stop offset="0" stop-color="#e1b16f"/><stop offset="1" stop-color="#99bf83"/></linearGradient><linearGradient id="j"><stop offset="0" stop-color="#99c487"/><stop offset="1" stop-color="#b4d99e"/></linearGradient><linearGradient id="k"><stop offset="0" stop-color="#75d5c7"/><stop offset="1" stop-color="#66afb9"/></linearGradient><linearGradient id="l"><stop offset="0" stop-color="#5c7b9e"/><stop offset="1" stop-color="#839dc0"/></linearGradient><linearGradient id="d"><stop offset="0" stop-color="#7fbcc6"/><stop offset="1" stop-color="#8ee4e3"/></linearGradient><linearGradient id="e"><stop offset="0" stop-color="#84d5d7"/><stop offset="1" stop-color="#84a8ba"/></linearGradient><g transform="matrix(.5 0 0 .51429 -188.286 -252.067)"><path fill="url(#m)" d="M6 8v37h52V8z" transform="translate(376.571 491.798)"/><path fill="url(#n)" d="M384.571 501.798v33h47.833v-33z"/><g fill-rule="evenodd"><path fill="url(#o)" d="m395.571 518.798-11 9.41v6.59h11z"/><path fill="url(#p)" d="M395.571 519.798v15h18.352z"/><path fill="url(#q)" d="m432.571 518.798-19 16h19z"/><path fill="url(#r)" d="M414.571 528.198v-24.4l18 15-18 16z"/><path fill="url(#s)" d="M384.571 509.798v21l11-11z"/><path fill="url(#t)" d="M384.571 501.798v8.542l11 9.458v-18z"/><path fill="url(#u)" d="M395.571 501.798v18l19-16-3-2z"/><path fill="url(#v)" d="m417.12 501.798-2.549 2 18 15v-17z"/><path fill="url(#w)" d="m411.571 501.798 3 2v-2z"/><path fill="url(#x)" d="M414.571 501.798v2l3-2z"/></g><path fill="#fff" fill-opacity=".784" d="M384.571 530.798h48v4h-48z"/><circle cx="429.571" cy="532.798" r="1" fill="#4d4d4d"/><path fill="#4d4d4d" d="M386.571 531.798v1h1v-1zm1 1v1h1v-1z"/><path fill="#fff" fill-opacity=".784" d="M386.571 503.798h20v17h-20z"/><path fill="#3580ca" d="M387.571 504.798v4h4.167v-3h-1.042l-1.041-1z"/><path fill="#f95" d="M395.571 504.798v5h4v-3l-2-2z"/><path fill="#d45500" fill-rule="evenodd" d="m397.571 504.798 2 2h-2z"/><path fill="#7aabdc" d="M387.571 505.798h5v4h-5z"/><path fill="#71c837" d="M401.571 504.798v5h4v-3l-2-2z"/><path fill="#447821" fill-rule="evenodd" d="m403.571 504.798 2 2h-2z"/></g><path fill="url(#y)" d="M2 25v1a1 1 0 0 0 1 1h26a1 1 0 0 0 1-1v-1H3z"/><path fill="url(#z)" d="M4 6.5V23h23.916V6.5z"/><g fill-rule="evenodd"><path fill="url(#A)" d="m395.571 520.798-11 9.41v6.59h11z" transform="matrix(.5 0 0 .51515 -188.286 -253.532)"/><path fill="url(#B)" d="M395.571 521.798v15h18.352z" transform="matrix(.5 0 0 .51515 -188.286 -253.532)"/><path fill="url(#C)" d="m432.571 520.798-19 16h19z" transform="matrix(.5 0 0 .51515 -188.286 -253.532)"/><path fill="url(#D)" d="M414.571 530.198v-24.4l18 15-18 16z" transform="matrix(.5 0 0 .51515 -188.286 -253.532)"/><path fill="url(#E)" d="M384.571 511.798v21l11-11z" transform="matrix(.5 0 0 .51515 -188.286 -253.532)"/><path fill="url(#F)" d="M384.571 503.798v8.542l11 9.458v-18z" transform="matrix(.5 0 0 .51515 -188.286 -253.532)"/><path fill="url(#G)" d="M395.571 503.798v18l19-16-3-2z" transform="matrix(.5 0 0 .51515 -188.286 -253.532)"/><path fill="url(#H)" d="m417.12 503.798-2.549 2 18 15v-17z" transform="matrix(.5 0 0 .51515 -188.286 -253.532)"/><path fill="url(#I)" d="m411.571 503.798 3 2v-2z" transform="matrix(.5 0 0 .51515 -188.286 -253.532)"/><path fill="url(#J)" d="M414.571 503.798v2l3-2z" transform="matrix(.5 0 0 .51515 -188.286 -253.532)"/></g><path fill="#fff" fill-opacity=".784" d="M4 22h24v1H4z"/><path fill="#4d4d4d" d="M27 22.5a.5.5 0 0 1-.5.5.5.5 0 0 1-.5-.5.5.5 0 0 1 .5-.5.5.5 0 0 1 .5.5M5 22v1h1v-1z"/><path fill="#fff" fill-opacity=".784" d="M5 7h9v9H5z"/><path fill="#3580ca" d="M6 8v2h2l1-1H8L7 8z"/><path fill="#f95" d="M10 8v3h2V9l-1-1z"/><path fill="#d45500" fill-rule="evenodd" d="m11 8 1 1h-1z"/><path fill="#7aabdc" d="M6 9h3v2H6z"/><path fill="#fff" fill-opacity=".784" d="M4 25.5a.5.5 0 0 1-.5.5.5.5 0 0 1-.5-.5.5.5 0 0 1 .5-.5.5.5 0 0 1 .5.5"/><path fill="url(#K)" fill-rule="evenodd" d="M2 25h28l-1-1H3z"/><path fill="#71c837" d="M6 12v3h2v-2l-1-1z"/><path fill="#447821" fill-rule="evenodd" d="m7 12 1 1H7z"/></svg>