<svg xmlns="http://www.w3.org/2000/svg" width="32" height="32"><linearGradient id="a" x1="16" x2="16" y1="46" y2="18" gradientUnits="userSpaceOnUse"><stop offset="0" stop-color="#afb0b3"/><stop offset="1" stop-color="#bdc3c7"/></linearGradient><linearGradient id="b" x1="17.444" x2="17.444" y1="35.001" y2="3.8" gradientTransform="matrix(1.125 0 0 .83333 -2.625 -.167)" gradientUnits="userSpaceOnUse"><stop offset="0" stop-color="#c0392b"/><stop offset="1" stop-color="#e74c3c"/></linearGradient><path fill="url(#a)" d="M2 18h28v28H2z" transform="translate(0 -16)"/><path fill="url(#b)" d="M3 24h9v5H3zm11 0h15v5H14zM3 17h15v5H3zm17 0h9v5h-9zM3 10h9v5H3zm11 0h15v5H14zm6-7h9v5h-9zM3 3h15v5H3z"/><path fill="#292c2f" d="M2 29h28v1H2z" opacity=".2"/></svg>