<svg xmlns="http://www.w3.org/2000/svg" xmlns:xlink="http://www.w3.org/1999/xlink" width="32" height="32"><linearGradient id="a" x1="25" x2="25" y1="6" y2="26" gradientUnits="userSpaceOnUse"><stop offset="0"/><stop offset="1" stop-color="#292c2f"/></linearGradient><linearGradient xlink:href="#a" id="g" x1="23" x2="23" y1="26" y2="13" gradientUnits="userSpaceOnUse"/><linearGradient xlink:href="#a" id="e" x1="7" x2="7" y1="11" y2="14" gradientUnits="userSpaceOnUse"/><linearGradient xlink:href="#a" id="d" x1="18" x2="18" y1="7" y2="11" gradientUnits="userSpaceOnUse"/><linearGradient xlink:href="#a" id="c" x1="25" x2="25" y1="6" y2="12" gradientUnits="userSpaceOnUse"/><linearGradient xlink:href="#a" id="f" x1="14" x2="14" y1="8" y2="12" gradientUnits="userSpaceOnUse"/><linearGradient id="b" x1="2" x2="2" y1="30" y2="2" gradientUnits="userSpaceOnUse"><stop offset="0" stop-color="#997657"/><stop offset="1" stop-color="#d4ba94"/></linearGradient><rect width="28" height="28" x="2" y="2" fill="url(#b)" rx="4"/><path fill="#292c2f" d="M2 25v1c0 2.216 1.784 4 4 4h20c2.216 0 4-1.784 4-4v-1c0 2.216-1.784 4-4 4H6c-2.216 0-4-1.784-4-4" opacity=".2"/><path fill="url(#c)" d="M22.42 6c-4.16 0-4.941 5.926-2.6 5.926S26.581 6 22.42 6"/><path fill="url(#d)" d="M15.511 11.192c1.247.076 2.614-4.756.272-4.452s-1.518 4.376-.272 4.452"/><path fill="url(#e)" d="M9.8 14.194c.886-.39.114-4.206-1.393-3.165-1.507 1.04.507 3.555 1.393 3.165"/><path fill="url(#f)" d="M12.297 12.197c1.056-.215 1.113-4.543-.768-3.767s-.286 3.982.768 3.767"/><path fill="url(#g)" d="M17.807 21.882c.187 1.43-1.049 2.136-2.26 1.215-3.853-2.934 6.381-4.398 5.707-8.407-.56-3.327-10.77-2.303-11.932 2.903-.786 3.522 3.24 8.407 7.44 8.407 2.067 0 4.45-1.866 4.897-4.23.34-1.803-4.008-1.08-3.852.112"/><rect width="16" height="16" x="16" y="14" fill="#eff0f1" rx="2"/><path fill="#232629" d="M28.76 16q.37 0 .414.559l-.207 1.755h.076l.163-.13h.044v.04q-.338.246-.654 1.351a8.5 8.5 0 0 1-.404 1.755 5.4 5.4 0 0 0-.25 1.535l-.317.923q0 .117.36.234-.065.273-.196.273v.052h.076v.039q0 .143-.37.143l.043.052v.182h-.076q.076.273.327.273v.09h-.327v.053q.163 0 .163.234l-.458.182.044.052v.039q0 .09-.163.09v.053q.207 0 .207.09-.296.119-.774 1.158-.492.923-.85.923h-.088q-.272-.208-.447-1.378-.698-1.781-.698-2.093 0-.807-.447-1.716a5 5 0 0 1-.164-1.015l-.196-.052q-.741 1.34-.774 2.094a4.5 4.5 0 0 0-.327 1.066q.447.142.447.273v.052q-.35-.053-.49-.195-.154.351-.404 1.95-.197.741-.49.741a3.14 3.14 0 0 1-1.386-1.066q-.087 0-.283-.741-.12 0-.164-.741-.414-1.053-.567-2.405V21.42h-.043l-.196.052v-.052q0-.09.196-.09l-.044-.78v-.612l-.316-1.95v-.832q.207-.78.72-.78s.03-.002.13.13l-.13-.039q.796 1.04.937 1.755h.371v.091h-.283v.104q.164.598.24.598h.087l.196-.052.044.052.043-.052.044.052v.04a.76.76 0 0 0-.295.428h-.032v.091h.076q.152 2.172.567 3.29l.164.13h.087q.164 0 .687-1.522.338-.689.49-1.209l-.043-.143q.338-.507.698-.507h.076q.229 0 .327.286.305.429.49 1.287l.611 1.353a.5.5 0 0 1 .12.325q.338.767.61 1.014h.132q.229 0 .61-1.899.066 0 .36-1.014v-.052l-.687-.09-.163.051h-.208v-.104l.415-.039h.807q.469-1.677.86-2.6.132-1.898.36-1.898zm-4.154 1.118h.12v.04q0 .09-.12.09l-.043.052v.052l-.12-.052v-.09zm-.61.507v.052q0 .105-.524.221v-.09l.24-.13.044.038h.032l.208-.09m-1.178.467v.04q-.23.207-.741.376v-.09q.087 0 .087-.144zm2.072.455.043.052v.04l-.076.103h-.044l-.087-.104V18.6zm1.504.052h.044v.04l-.076.103h-.044v-.052zm-.687.65.164.13q-.045.142-.24.142l-.087-.143q0-.064.163-.13m.982.598.032.052v.04l-.032.051H26.6v-.052zm-1.549.468v.04l-.207.194h-.12v-.052q0-.117.327-.182m-1.428 3.979h.044v.09l-.327.196-.044-.052v-.091zm-.12 1.209h.033l.13.143-.043.039h-.044l-.076-.13z"/></svg>