<svg xmlns="http://www.w3.org/2000/svg" xmlns:xlink="http://www.w3.org/1999/xlink" width="32" height="32"><linearGradient xlink:href="#a" id="d" x1="16" x2="0" y1="28" y2="12" gradientUnits="userSpaceOnUse"/><linearGradient id="c"><stop offset="0" stop-color="#bf4231"/><stop offset="1" stop-color="#e05e4c"/></linearGradient><linearGradient id="b"><stop offset="0" stop-color="#ffafa5"/><stop offset="1" stop-color="#ffe5e1"/></linearGradient><linearGradient id="a"><stop offset="0" stop-color="#f58273"/><stop offset="1" stop-color="#ffafa5"/></linearGradient><linearGradient xlink:href="#a" id="e" x1="12" x2="6" y1="12" y2="6" gradientUnits="userSpaceOnUse"/><linearGradient xlink:href="#b" id="f" x1="12" x2="6" y1="12" y2="6" gradientUnits="userSpaceOnUse"/><linearGradient xlink:href="#a" id="l" x1="16" x2="16" y1="12" y2="6" gradientUnits="userSpaceOnUse"/><linearGradient xlink:href="#b" id="g" x1="22" x2="16" y1="12" y2="6" gradientUnits="userSpaceOnUse"/><linearGradient id="h" x1="32" x2="26" y1="12" y2="6" gradientUnits="userSpaceOnUse"><stop offset="0" stop-color="#f36957"/><stop offset="1" stop-color="#ff9487"/></linearGradient><linearGradient xlink:href="#c" id="k" x1="16" x2="0" y1="28" y2="12" gradientUnits="userSpaceOnUse"/><linearGradient xlink:href="#c" id="i" x1="27" x2="23" y1="16" y2="12" gradientUnits="userSpaceOnUse"/><linearGradient id="j" x1="16" x2="16" y1="28" y2="12" gradientUnits="userSpaceOnUse"><stop offset="0" stop-color="#dc4732"/><stop offset="1" stop-color="#f36957"/></linearGradient><path fill="url(#d)" d="m6 6 3 6-3.002-5.992L0 12l16 16 16-16-6-6H16z"/><path fill="url(#e)" d="M5.998 6.008 9 12H0z"/><path fill="url(#f)" d="m6 6 3 6 7-6z"/><path fill="url(#g)" d="M16 6h10l-3 6z"/><path fill="url(#h)" d="m26 6 6 6h-9z"/><path fill="url(#i)" d="m16 28 7-16h9z"/><path fill="url(#j)" d="m16 28 7-16H9z"/><path fill="url(#k)" d="M0 12h9l7 16z"/><path fill="url(#l)" d="m16 6 7 6H9z"/></svg>