<svg xmlns="http://www.w3.org/2000/svg" viewBox="0 0 32 32"><defs><linearGradient id="b" x1="8.446" x2="24.603" y1="6.269" y2="24.571" gradientUnits="userSpaceOnUse"><stop offset="0" stop-opacity=".209"/><stop offset="1" stop-opacity="0"/></linearGradient><linearGradient id="a" x1="30" x2=".15" y1="30" y2=".07" gradientUnits="userSpaceOnUse"><stop offset="0" stop-color="#da6125"/><stop offset="1" stop-color="#e17d4a"/></linearGradient><linearGradient id="d" x1="7.849" x2="14.108" y1="3.512" y2="14.183" gradientUnits="userSpaceOnUse"><stop offset="0" stop-opacity=".209"/><stop offset="1" stop-opacity="0"/></linearGradient></defs><rect width="28" height="28" x="2" y="2" fill="url(#a)" rx="4"/><path fill="#292c2f" d="M2.014 25v1c0 2.216 1.784 4 4 4h20c2.216 0 4-1.784 4-4v-1c0 2.216-1.784 4-4 4h-20c-2.216 0-4-1.784-4-4" opacity=".2"/><path fill="url(#b)" d="M22.554 9.003s2.906 9.769 1.985 10.503c-.922.735-8.539-7.072-8.539-7.072l-7.075 10.56L15.96 30c5.18.05 9.151-.025 9.151-.025 2.234-.163 4.644-.436 4.89-4.637v-8.92z"/><path fill="url(#d)" d="M22.554 9.003s-6.642-3.901-12.273-.266c-5.632 3.635-1.356 14.257-1.356 14.257l6.975.642c13.304 1.197 9.047 3.518 8.96-6.424z"/><path fill="#fff" d="M15.745 6.236c-5.392 0-9.764 4.372-9.764 9.764 0 5.393 4.372 9.764 9.764 9.764A9.763 9.763 0 0 0 25.509 16c0-5.392-4.37-9.764-9.764-9.764m0 1.665c4.474 0 8.1 3.625 8.1 8.099 0 .688-.095 1.352-.256 1.99l-3.852-4.282-4.926 5.603 2.377-4.754L16 12.434 9 20.481A8.098 8.098 0 0 1 15.745 7.9z"/></svg>