<svg xmlns="http://www.w3.org/2000/svg" xmlns:xlink="http://www.w3.org/1999/xlink" width="32" height="32"><linearGradient xlink:href="#a" id="f" x1="16" x2="16" y1="8" y2="11" gradientUnits="userSpaceOnUse"/><linearGradient id="b" x2="0" y1="30" y2="8" gradientUnits="userSpaceOnUse"><stop offset="0" stop-color="#cea476"/><stop offset="1" stop-color="#dab58b"/></linearGradient><linearGradient xlink:href="#a" id="e" x1="16" x2="16" y1="8" y2="2" gradientUnits="userSpaceOnUse"/><linearGradient xlink:href="#b" id="d" x2="0" y1="30" y2="8" gradientUnits="userSpaceOnUse"/><linearGradient xlink:href="#b" id="c" x2="0" y1="8" y2="2" gradientUnits="userSpaceOnUse"/><linearGradient id="a" x2="0" y1="512.8" y2="503.8" gradientTransform="translate(-256.38 -333.867)scale(.66667)" gradientUnits="userSpaceOnUse"><stop offset="0" stop-color="#ebc69a"/><stop offset="1" stop-color="#f4e0c8" stop-opacity="0"/></linearGradient><path fill="url(#c)" fill-rule="evenodd" d="M6 2 2 8h28l-4-6H7z"/><path fill="url(#d)" d="M2 8h28v22H2z"/><path fill="#5c4c3e" d="M3 24v5h5v-5zm1 1h1v1h1v-1h1v2H6v1H5v-1H4z"/><g stroke-opacity=".55" stroke-width="1.867"><path fill="#f4e0c8" d="M14 2v9l1-1 1 1 1-1s1 1 1 .972V2z"/><path fill="url(#e)" d="M14 2h4v6h-4z"/><path fill="url(#f)" d="M14 8v3l1-1 1 1 1-1s1 1 1 .973V8z"/></g><path fill="#292c2f" d="M2 29h28v1H2z" opacity=".2"/></svg>