<svg xmlns="http://www.w3.org/2000/svg" width="32" height="32"><linearGradient id="b" x1="53" x2="37.6" y1="-5.4" y2="-20.8" gradientUnits="userSpaceOnUse"><stop offset="0" stop-color="#2980b9"/><stop offset="1" stop-color="#489ed6"/></linearGradient><linearGradient id="a" x1="10" x2="21" y1="3" y2="14" gradientTransform="rotate(180 16 16)" gradientUnits="userSpaceOnUse"><stop offset="0" stop-color="#fdbc4b"/><stop offset="1" stop-color="#fed286"/></linearGradient><path fill="url(#a)" fill-rule="evenodd" d="M24 10v2a5 5 0 0 1-5 5h-6a3 3 0 0 0-3 3v7a3 3 0 0 0 3 3h7a3 3 0 0 0 3-3v-3h-7v-2h11c1.657 0 3-2.686 3-6s-1.343-6-3-6z"/><path fill="url(#b)" fill-rule="evenodd" d="M12 2a3 3 0 0 0-3 3v3h7v2H5c-1.657 0-3 2.686-3 6s1.343 6 3 6h3v-2a5 5 0 0 1 5-5h6a3 3 0 0 0 3-3V5a3 3 0 0 0-3-3z"/><path fill="#fcfcfc" d="M12 4a1 1 0 0 0-1 1 1 1 0 0 0 1 1 1 1 0 0 0 1-1 1 1 0 0 0-1-1m9 23a1 1 0 0 1-1 1 1 1 0 0 1-1-1 1 1 0 0 1 1-1 1 1 0 0 1 1 1"/><path fill="#292c2f" fill-rule="evenodd" d="M29.975 15.5C29.845 18.576 28.57 21 27 21H16v1h11c1.657 0 3-2.686 3-6 0-.171-.018-.332-.025-.5M10 26v1a3 3 0 0 0 3 3h7a3 3 0 0 0 3-3v-1a3 3 0 0 1-3 3h-7a3 3 0 0 1-3-3M9 7v1h7V7zm13 4a3 3 0 0 1-3 3h-6a5 5 0 0 0-5 5v1a5 5 0 0 1 5-5h6a3 3 0 0 0 3-3zM2.025 15.5c-.007.168-.025.329-.025.5 0 3.314 1.343 6 3 6h3v-1H5c-1.571 0-2.846-2.424-2.975-5.5" opacity=".2"/></svg>