<svg xmlns="http://www.w3.org/2000/svg" xmlns:xlink="http://www.w3.org/1999/xlink" width="32" height="32"><linearGradient id="a"><stop offset="0" stop-color="#bdc3c7"/><stop offset="1" stop-color="#eff0f1"/></linearGradient><linearGradient xlink:href="#a" id="d" x1="2" x2="2" y1="30" y2="2" gradientUnits="userSpaceOnUse"/><linearGradient id="l" x1="17.923" x2="17.923" y1="11.385" y2="6" gradientUnits="userSpaceOnUse"><stop offset="0" stop-color="#292c2f"/><stop offset="1" stop-color="#4d4d4d"/></linearGradient><linearGradient xlink:href="#b" id="k" x1="16" x2="16" y1="26" y2="10.615" gradientUnits="userSpaceOnUse"/><linearGradient id="b"><stop offset="0" stop-color="#3b85b5"/><stop offset="1" stop-color="#54a3d8"/></linearGradient><linearGradient xlink:href="#b" id="j" x1="12" x2="12" y1="38" y2="9" gradientTransform="matrix(.38443 0 0 .38462 3.698 3.692)" gradientUnits="userSpaceOnUse"/><linearGradient xlink:href="#c" id="i" x1="6.769" x2="17.538" y1="7.154" y2="17.923" gradientUnits="userSpaceOnUse"/><linearGradient id="c"><stop offset="0" stop-color="#292c2f"/><stop offset="1" stop-opacity="0"/></linearGradient><linearGradient xlink:href="#a" id="e" x1="11.385" x2="11.385" y1="26" y2="7.538" gradientUnits="userSpaceOnUse"/><linearGradient xlink:href="#b" id="h" x1="8.308" x2="8.308" y1="18.308" y2="7.154" gradientUnits="userSpaceOnUse"/><linearGradient xlink:href="#c" id="g" x1="16" x2="19.077" y1="7.923" y2="11" gradientUnits="userSpaceOnUse"/><linearGradient xlink:href="#a" id="f" x1="17.538" x2="17.538" y1="26" y2="7.538" gradientUnits="userSpaceOnUse"/><rect width="28" height="28" x="2" y="2" fill="url(#d)" rx="4"/><path fill="#292c2f" d="M2 25v1c0 2.216 1.784 4 4 4h20c2.216 0 4-1.784 4-4v-1c0 2.216-1.784 4-4 4H6c-2.216 0-4-1.784-4-4" opacity=".2"/><path d="M16 16 4 9"/><g stroke-width=".385"><path fill="url(#e)" d="m15.615 16-7.307-1.538 1.538 3.076a3.02 3.02 0 0 0 2.692.77c.397-.086.77-.253 1.154-.385A7 7 0 0 1 16 17.538z"/><path fill="url(#f)" d="M19.461 10.615a3.47 3.47 0 0 0 .385-3.077l-.77-.384h-3.46a5.7 5.7 0 0 0-.77 2.308 5.45 5.45 0 0 0 .385 2.692c.27.638.673 1.236.769 1.923.092.656-.11 1.32-.385 1.923-.47 1.033-1.149 1.955-1.713 2.94s-1.022 2.08-.979 3.214c.02.532.152 1.06.385 1.538l.769-.769 5-.77 2.307-4.615a9.4 9.4 0 0 1-1.923-4.615 9.4 9.4 0 0 1 0-2.308"/><path fill="url(#g)" d="m16 7.154-.75.75a5.7 5.7 0 0 0-.404 1.558c-.057.53-.035 1.07.06 1.594l.072.22 5.253 5.252-.28-1.587a9.3 9.3 0 0 1-.49-2.018 9.4 9.4 0 0 1 0-2.308 3.47 3.47 0 0 0 .385-3.077l-.77-.384z" opacity=".2"/><path fill="url(#h)" d="m15.615 16-8.461-2.308a4.57 4.57 0 0 0 .769 2.693 4.57 4.57 0 0 0 2.019 1.655c.814.34 1.73.434 2.596.268a5.2 5.2 0 0 1-1.923-.77c-.458-.3-.874-.681-1.154-1.153a2.8 2.8 0 0 1-.384-1.539z"/><path fill="url(#e)" d="m6.77 8.692 1.153 4.231v.385l.961.577.73.577.863.253.138.056q.192.044.385.075L15.615 16l.77-1.154-.385-.77z"/><path fill="url(#i)" d="m7.538 9.077.054 4.174c.332.318.703.596 1.1.826.048.027.098.049.146.075l-.48-.13 4.264 4.263c.366-.09.714-.239 1.07-.362q.486-.165.992-.258c-.265.422-.534.843-.781 1.275-.077.133-.144.273-.215.41l3.188 3.188L20.23 21v-2.692L16 14.077z" opacity=".2"/><path fill="url(#j)" d="M16 14.077 6.77 7.154a4.5 4.5 0 0 0-.765 2.308A4.83 4.83 0 0 0 6.7 12.14a5.6 5.6 0 0 0 1.992 1.936c.707.41 1.497.673 2.308.77a3.81 3.81 0 0 1-2.692-2.309 3.78 3.78 0 0 1 0-2.692z"/><path fill="url(#k)" d="M19.461 10.615a4.1 4.1 0 0 0-.384 1.539c-.04.783.145 1.56.384 2.308.325 1.01.756 2.015.77 3.076.014 1.077-.42 2.14-1.13 2.951-.709.81-1.68 1.375-2.716 1.665a6.46 6.46 0 0 1-3.462 0V26l1.154-2.692a6.88 6.88 0 0 0 5.769-1.154A5.6 5.6 0 0 0 21 21a4.76 4.76 0 0 0 .77-3.846c-.16-.673-.466-1.302-.77-1.923a33 33 0 0 0-.385-.77c-.265-.508-.558-1.005-.769-1.538a5.6 5.6 0 0 1-.385-2.308"/><path fill="url(#l)" d="M17.923 6a3.46 3.46 0 0 0-3.462 3.462 3.46 3.46 0 0 0 .517 1.814 2.9 2.9 0 0 1-.132-.853 2.885 2.885 0 0 1 2.885-2.885 2.89 2.89 0 0 1 2.304 1.154H26l-5.019-.836A3.46 3.46 0 0 0 17.923 6"/></g></svg>