<svg xmlns="http://www.w3.org/2000/svg" xmlns:xlink="http://www.w3.org/1999/xlink" width="32" height="32"><linearGradient xlink:href="#a" id="d" x1="16" x2="16" y1="22" y2="10" gradientUnits="userSpaceOnUse"/><linearGradient xlink:href="#a" id="c" x1="16" x2="16" y1="26" y2="6" gradientUnits="userSpaceOnUse"/><linearGradient xlink:href="#a" id="e" x1="6" x2="6" y1="21" y2="11" gradientUnits="userSpaceOnUse"/><linearGradient id="f" x1="6" x2="15" y1="21" y2="30" gradientUnits="userSpaceOnUse"><stop offset="0"/><stop offset="1" stop-opacity="0"/></linearGradient><linearGradient id="a"><stop offset="0" stop-color="#eff0f1"/><stop offset="1" stop-color="#fcfcfc"/></linearGradient><linearGradient id="b" x1="2" x2="2" y1="30" y2="2" gradientUnits="userSpaceOnUse"><stop offset="0" stop-color="#3bb566"/><stop offset="1" stop-color="#7ceca4"/></linearGradient><rect width="28" height="28" x="2" y="2" fill="url(#b)" rx="4"/><path fill="#292c2f" d="M2 25v1c0 2.216 1.784 4 4 4h20c2.216 0 4-1.784 4-4v-1c0 2.216-1.784 4-4 4H6c-2.216 0-4-1.784-4-4" opacity=".2"/><path d="M16 16 4 9"/><path fill="url(#c)" d="M16 6a10 10 0 0 0-8.502 4.75l1.797.898A8 8 0 0 1 16 8a8 8 0 0 1 8 8 8 8 0 0 1-8 8 8 8 0 0 1-6.709-3.645l-1.789.893A10 10 0 0 0 16 26a10 10 0 0 0 10-10A10 10 0 0 0 16 6m-8.941 5.53A10 10 0 0 0 6 16a10 10 0 0 0 1.066 4.467l1.782-.89A8 8 0 0 1 8 16a8 8 0 0 1 .852-3.574z"/><path fill="url(#d)" d="M16 10a6 6 0 0 0-4.9 2.55l1.816.907A4 4 0 0 1 16 12a4 4 0 0 1 4 4 4 4 0 0 1-4 4 4 4 0 0 1-3.084-1.457l-1.82.908A6 6 0 0 0 16 22a6 6 0 0 0 6-6 6 6 0 0 0-6-6m-5.365 3.318A6 6 0 0 0 10 16a6 6 0 0 0 .64 2.68l1.784-.89A4 4 0 0 1 12 16a4 4 0 0 1 .426-1.787z"/><path fill="url(#e)" d="M16 16 6 11v10z"/><path fill="url(#f)" d="M16 16 6 21l9 9h11a3.99 3.99 0 0 0 2.83-1.17z" opacity=".2"/></svg>