<svg xmlns="http://www.w3.org/2000/svg" xmlns:xlink="http://www.w3.org/1999/xlink" width="32" height="32"><linearGradient id="b" x1="32" x2="32" y1="28" y2="4" gradientUnits="userSpaceOnUse"><stop offset="0" stop-color="#17a81a"/><stop offset="1" stop-color="#41cd52"/></linearGradient><linearGradient xlink:href="#a" id="d" x1="20" x2="29" y1="12" y2="21" gradientUnits="userSpaceOnUse"/><linearGradient xlink:href="#a" id="c" x1="8" x2="21" y1="10" y2="23" gradientUnits="userSpaceOnUse"/><linearGradient id="a" x1="-14.65" x2="-6.43" y1="9.178" y2="17.522" gradientTransform="translate(1.01 -1.022)" gradientUnits="userSpaceOnUse"><stop offset="0" stop-color="#292c2f"/><stop offset="1" stop-opacity="0"/></linearGradient><path fill="url(#b)" fill-rule="evenodd" d="M5 4 0 9v19h27l5-5V4z"/><path fill="#292c2f" d="m28 27-1 1H0v-1z" opacity=".2"/><path fill="url(#c)" d="m7.778 21.93 5.07 5.07h13.301l-4.414-4.414v-6.067l-2.202-2.202V12.88l-3.415-3.415L12 9l-4 1z" opacity=".2"/><path fill="url(#d)" d="m19.533 14.317 2.202 2.202v6.067L26.149 27H28l4-4v-4.963L23.203 9.24z" opacity=".2"/><path fill="#fcfcfc" d="M11.997 23.235q-3.328 0-4.65-1.792-1.302-1.792-1.302-5.654 0-3.882 1.323-5.76 1.344-1.877 4.63-1.877t4.607 1.877q1.323 1.856 1.323 5.739 0 2.56-.555 4.139-.533 1.578-1.77 2.41l1.792 2.88-2.198 1.024-1.898-3.114q-.406.128-1.302.128m-2.773-3.307q.725 1.237 2.773 1.237t2.752-1.216q.726-1.237.726-4.16t-.747-4.245q-.725-1.323-2.73-1.323t-2.753 1.323q-.746 1.323-.746 4.224t.725 4.16m16.923-5.611h-2.944v4.694q0 1.301.192 1.728.192.426.981.426l1.75-.064.106 1.856q-1.43.278-2.176.278-1.813 0-2.496-.832-.661-.832-.661-3.136v-4.95h-1.366v-1.984H20.9V9.24h2.304v3.093h2.944z"/></svg>