<svg xmlns="http://www.w3.org/2000/svg" width="32" height="32"><linearGradient id="a" x1="16" x2="16" y1="30" y2="2" gradientUnits="userSpaceOnUse"><stop offset="0" stop-color="#db3636"/><stop offset="1" stop-color="#de4646"/></linearGradient><linearGradient id="e" x1="3.8" x2="3.8" y1="-6" y2="-28" gradientUnits="userSpaceOnUse"><stop offset="0" stop-color="#4d4d4d"/><stop offset="1" stop-color="#7f8c8d"/></linearGradient><linearGradient id="c" x1="-4.2" x2="11.8" y1="-25" y2="-9" gradientUnits="userSpaceOnUse"><stop offset="0" stop-color="#292c2f"/><stop offset="1" stop-opacity="0"/></linearGradient><linearGradient id="b" x1="-7.2" x2="-7.2" y1="-6" y2="-28" gradientUnits="userSpaceOnUse"><stop offset="0" stop-color="#1b1e21"/><stop offset="1" stop-color="#363c42"/></linearGradient><linearGradient id="d" x1="3.8" x2="13.8" y1="-17" y2="-7" gradientUnits="userSpaceOnUse"><stop offset="0"/><stop offset="1" stop-opacity="0"/></linearGradient><path fill="url(#a)" d="M16 2a14 14 0 0 0-3 .336v2.059a12 12 0 0 0-3.084 1.277L8.463 4.219a14 14 0 0 0-4.254 4.234l1.463 1.463A12 12 0 0 0 4.39 13H2.34A14 14 0 0 0 2 16a14 14 0 0 0 .336 3h2.059a12 12 0 0 0 1.277 3.084l-1.453 1.453a14 14 0 0 0 4.234 4.254l1.463-1.463A12 12 0 0 0 13 27.61v2.05a14 14 0 0 0 3 .34 14 14 0 0 0 3-.336v-2.059a12 12 0 0 0 3.084-1.277l1.453 1.453a14 14 0 0 0 4.254-4.234l-1.463-1.463A12 12 0 0 0 27.61 19h2.05a14 14 0 0 0 .34-3 14 14 0 0 0-.336-3h-2.059a12 12 0 0 0-1.277-3.084l1.453-1.453a14 14 0 0 0-4.234-4.254l-1.463 1.463A12 12 0 0 0 19 4.39V2.34A14 14 0 0 0 16 2m7.547 2.209a14 14 0 0 0-4.506-1.857 14 14 0 0 1 4.506 1.857M29.664 13a14 14 0 0 0-1.838-4.46A14 14 0 0 1 29.664 13m-1.873 10.547a14 14 0 0 0 1.857-4.506 14 14 0 0 1-1.857 4.506M19 29.664a14 14 0 0 0 4.46-1.838A14 14 0 0 1 19 29.664M8.453 27.791a14 14 0 0 0 4.506 1.857 14 14 0 0 1-4.506-1.857M2.336 19a14 14 0 0 0 1.838 4.46A14 14 0 0 1 2.336 19M4.209 8.453a14 14 0 0 0-1.857 4.506 14 14 0 0 1 1.857-4.506M13 2.336a14 14 0 0 0-4.46 1.838A14 14 0 0 1 13 2.336"/><g transform="translate(12.2 33)"><path fill="url(#b)" d="M14.8-17a11 11 0 0 1-11 11 11 11 0 0 1-11-11 11 11 0 0 1 11-11 11 11 0 0 1 11 11"/><path fill="#fcfcfc" d="M4.331-25.99a9 9 0 0 0-2.408.191l.184.985a8 8 0 0 1 2.166-.178 7.99 7.99 0 0 1 6.681 4.416l.893-.447A8.99 8.99 0 0 0 4.33-25.99zm-5 1.183a9 9 0 0 0-3.68 3.985l.87.517a8 8 0 0 1 3.26-3.607zm12.278 6.084q.02.1.039.2-.019-.1-.04-.2zm-16.682.274q-.079.453-.111.912-.027.501.002 1.002l1.01.058a8 8 0 0 1-.014-1.002 8 8 0 0 1 .076-.705zm16.83.685q.012.124.022.248-.01-.124-.022-.248"/><path fill="#ed1515" d="m11.847-21.023-.893.447a7.95 7.95 0 0 1 .832 4.04 8 8 0 0 1-.129.995l1.002.06q.09-.492.125-.994a8.95 8.95 0 0 0-.937-4.548"/><path fill="url(#c)" d="M14.8-17a11 11 0 0 1-11 11 11 11 0 0 1-11-11 11 11 0 0 1 11-11 11 11 0 0 1 11 11" opacity=".2"/><path fill="#fcbcbe" d="m5.895-16.642-.018.098q.01-.048.018-.098"/><path fill="url(#d)" d="M2.386-15.586 12.8-5.172l4-5.775-3.37-3.37L4.8-17z" opacity=".2"/><path fill="#da4453" d="M4.779-17.201A1 1 0 0 1 4.8-17a1 1 0 0 1-.338.748l8.18 2.727.472.158.317-.95-.475-.158z"/><circle cx="3.8" cy="-17" r="2" fill="#eff0f1"/><path fill="#31363b" d="M4.8-17a1 1 0 0 1-1 1 1 1 0 0 1-1-1 1 1 0 0 1 1-1 1 1 0 0 1 1 1"/><path fill="url(#e)" d="M3.8-28a11 11 0 0 0-11 11 11 11 0 0 0 .402 2.89l.953-.26A10 10 0 0 1-6.2-17a10 10 0 0 1 10-10 10 10 0 0 1 10 10 10 10 0 0 1-.371 2.627l.973.264A11 11 0 0 0 14.8-17a11 11 0 0 0-11-11"/></g></svg>