<svg xmlns="http://www.w3.org/2000/svg" xmlns:xlink="http://www.w3.org/1999/xlink" width="32" height="32"><linearGradient xlink:href="#a" id="h" x1="11" x2="11" y1="14" y2="2" gradientUnits="userSpaceOnUse"/><linearGradient xlink:href="#a" id="g" x1="21.666" x2="21.666" y1="16" y2="6.667" gradientUnits="userSpaceOnUse"/><linearGradient id="i" x1="15" x2="15" y1="28" y2="15" gradientUnits="userSpaceOnUse"><stop offset="0" stop-color="#375a7d"/><stop offset=".154" stop-color="#3b85b5"/><stop offset="1" stop-color="#7cbcec"/></linearGradient><linearGradient id="c" x1="-80.458" x2="-73.211" y1="16.418" y2="43.464" gradientTransform="rotate(-165 -38.335 17.781)" gradientUnits="userSpaceOnUse"><stop offset="0" stop-color="#b0b4b8"/><stop offset="1" stop-color="#dadcde"/></linearGradient><linearGradient xlink:href="#b" id="f" x1="17.666" x2="23" y1="9.333" y2="14.667" gradientUnits="userSpaceOnUse"/><linearGradient xlink:href="#b" id="e" x1="13.667" x2="18.885" y1="8.666" y2="13.885" gradientUnits="userSpaceOnUse"/><linearGradient xlink:href="#b" id="d" x1="18" x2="24" y1="22" y2="28" gradientUnits="userSpaceOnUse"/><linearGradient id="a"><stop offset="0" stop-color="#f67400"/><stop offset="1" stop-color="#f39c1f"/></linearGradient><linearGradient id="b"><stop offset="0" stop-color="#292c2f"/><stop offset="1" stop-color="#0b0000" stop-opacity="0"/></linearGradient><path fill="url(#c)" fill-rule="evenodd" d="M30 16a14 14 0 0 1-14 14A14 14 0 0 1 2 16 14 14 0 0 1 16 2a14 14 0 0 1 14 14"/><path fill="#292c2f" d="M29.979 15.414A14 14 0 0 1 16 29 14 14 0 0 1 2.021 15.586 14 14 0 0 0 2 16a14 14 0 0 0 14 14 14 14 0 0 0 14-14 14 14 0 0 0-.021-.586" opacity=".2"/><path fill="url(#d)" d="M24 16 11 28l.117.117c1.57.596 3.204.876 4.883.883a14 14 0 0 0 13.26-9.568l-1.846-1.846L25 17zm4.785 5.662q-.056.129-.115.256l.07-.147q.023-.054.045-.109m-.46.953a14 14 0 0 1-.393.686q.15-.238.289-.48.052-.103.103-.206z" opacity=".3"/><path fill="url(#e)" d="M17.666 2v2.666L12.334 10 15 14l1.084 1.084 2.074-1.75-1.107-4 2.484-2.135 2.131-.533h.668z" opacity=".3"/><path fill="url(#f)" d="m32.333 24.615-3.64-3.64L27 20l-2.667-2.667h-8L15 16l3.157-2.667-1.106-4L19.535 7.2l2.132-.533H23L32.333 16z" opacity=".3"/><path fill="url(#g)" d="m15 16 1.333-1.333c.262-.262.518-.536.674-.871s.204-.717.144-1.08c-.059-.365-.218-.705-.388-1.033-.171-.327-.355-.655-.43-1.016-.106-.514.022-1.058.28-1.514.259-.456.64-.832 1.054-1.153A6.9 6.9 0 0 1 23 6.667 7.15 7.15 0 0 0 19 8c-.43.31-.833.676-1.1 1.135a2.2 2.2 0 0 0-.276.744 1.75 1.75 0 0 0 .043.788c.146.488.514.87.826 1.272.158.201.304.413.402.648.097.234.148.496.105.746-.055.322-.256.604-.504.818-.247.213-.539.366-.83.516Q16.341 15.351 15 16"/><path fill="url(#h)" d="M15 14a14 14 0 0 0-1.333-1.333c-.634-.551-1.322-1.048-1.862-1.692a3.8 3.8 0 0 1-.649-1.072A2.5 2.5 0 0 1 11 8.667c.08-.574.396-1.094.808-1.499.413-.404.92-.701 1.443-.947 1.048-.488 2.205-.801 3.082-1.554A3.9 3.9 0 0 0 17.667 2c.481.547.754 1.272.754 2s-.273 1.453-.754 2c-.654.743-1.619 1.116-2.458 1.641-.418.263-.816.574-1.109.974-.293.397-.476.893-.433 1.385.044.5.309.95.59 1.365s.591.824.743 1.302c.137.43.137.902 0 1.333"/><path fill="url(#i)" fill-rule="evenodd" d="M8 16v6a7 7 0 0 0 3 5.734V28h10v-.258A7 7 0 0 0 23.924 23H26a2 2 0 0 0 2-2v-2a2 2 0 0 0-2-2h-2v-1zm16 2h2a1 1 0 0 1 1 1v2a1 1 0 0 1-1 1h-2z"/></svg>