<svg xmlns="http://www.w3.org/2000/svg" width="32" height="32"><linearGradient id="a" x1="2" x2="2" y1="30" y2="2" gradientUnits="userSpaceOnUse"><stop offset="0" stop-color="#cfd2d5"/><stop offset="1" stop-color="#eff0f1"/></linearGradient><linearGradient id="b" x1="8" x2="30" y1="8" y2="30" gradientUnits="userSpaceOnUse"><stop offset="0" stop-color="#292c2f"/><stop offset="1" stop-opacity="0"/></linearGradient><rect width="28" height="28" x="2" y="2" fill="url(#a)" rx="4"/><path fill="#292c2f" d="M2 25v1c0 2.216 1.784 4 4 4h20c2.216 0 4-1.784 4-4v-1c0 2.216-1.784 4-4 4H6c-2.216 0-4-1.784-4-4" opacity=".2"/><g fill-rule="evenodd"><path fill="#173f4f" d="m7.8 22.2 6.4-3.6v2L9.8 23"/><path fill="#35b9ab" d="m7.8 21 5.117-2.738 1.283.338-6.4 3.6"/><path fill="#173f4f" d="m6.6 22.6 1.2-.4V11H6.6"/><path fill="#35b9ab" d="m16.2 24.2-8.4-2-1.2.4 9.6 2.4"/><path fill="#73ba25" d="M5 9v14.8L17.8 27l.035-14.97zm1.6 2 9.6 2.4V25l-9.6-2.4z"/><path fill="#173f4f" d="M27 7.4v15.2L17.8 27l.025-14.97zm-1.6 2.8L19 13.4v11.2l6.4-3.2zM7.537 8.87 14.2 5.8v1.6L9.949 9.432"/><path fill="#35b9ab" d="M14.2 5 5 9l12.83 3.025L27 7.4zm0 .8 9.6 2-6.4 3.2-9.856-2.13z"/><path fill="#173f4f" d="m14.2 7.4 1.255.115L15.4 18.2l-1.2.4"/><path fill="#73ba25" d="m23.8 7.8-9.6-2v1.6L21.4 9m-8.486 9.274v-10.3L14.2 7.4v11.2m0 0v2l7.643 1.56 2.412-1.177"/><path fill="#35b9ab" d="m23.8 20.2-8.4-2-1.2.4 9.6 2.4"/><path fill="#73ba25" d="m25.4 10.2-1.6.8v10l1.6.4"/><path fill="#35b9ab" d="M25.4 21.4 19 24.6v-1.2l4.8-2.4z"/></g><path fill="url(#b)" d="m5 23.8 6.2 6.2H30V10.4l-3-3L14.2 5 5 9z" opacity=".2"/></svg>