<svg xmlns="http://www.w3.org/2000/svg" xmlns:xlink="http://www.w3.org/1999/xlink" width="32" height="32"><linearGradient id="h" x1="20" x2="20" y1="25" y2="7" gradientTransform="matrix(1.35501 0 0 1.27276 -4.486 -4.182)" gradientUnits="userSpaceOnUse"><stop offset="0" stop-color="#eff0f1"/><stop offset="1" stop-color="#fcfcfc"/></linearGradient><linearGradient id="i" x1="20" x2="20" y1="25" y2="7" gradientTransform="matrix(1.35501 0 0 1.27276 -4.486 -4.182)" gradientUnits="userSpaceOnUse"><stop offset="0" stop-color="#afb0b3"/><stop offset="1" stop-color="#bdc3c7"/></linearGradient><linearGradient xlink:href="#a" id="f" x1="15" x2="23" y1="8.5" y2="16.5" gradientUnits="userSpaceOnUse"/><linearGradient xlink:href="#a" id="e" x1="11" x2="19" y1="9.5" y2="17.5" gradientUnits="userSpaceOnUse"/><linearGradient xlink:href="#a" id="g" x1="21" x2="29" y1="8" y2="16" gradientUnits="userSpaceOnUse"/><linearGradient xlink:href="#a" id="c" x1="25.5" x2="30" y1="18" y2="22.5" gradientUnits="userSpaceOnUse"/><linearGradient xlink:href="#a" id="d" x1="12" x2="12" y1="24" y2="30" gradientUnits="userSpaceOnUse"/><linearGradient id="b" x1="16" x2="16" y1="30" y2="4" gradientUnits="userSpaceOnUse"><stop offset="0" stop-color="#73ba25"/><stop offset="1" stop-color="#59bbe7"/></linearGradient><linearGradient id="a"><stop offset="0" stop-color="#292c2f"/><stop offset="1" stop-opacity="0"/></linearGradient><path fill="url(#b)" d="M16 2A14 14 0 0 0 2 16a14 14 0 0 0 14 14 14 14 0 0 0 14-14A14 14 0 0 0 16 2"/><path fill="url(#c)" d="M25.5 18 20 25l3.068 3.068a14 14 0 0 0 5.834-6.666z" opacity=".2"/><path fill="url(#d)" d="m5 23 6.11 6.11A14 14 0 0 0 16 30a14 14 0 0 0 7.068-1.932L20 25z" opacity=".2"/><path fill="url(#e)" d="m11 9.5 2 2V17h-2z" opacity=".2"/><path fill="url(#f)" d="m15 8.5 2.5 2.5v5H15z" opacity=".2"/><path fill="url(#g)" d="M21 8v10h4.5l3.402 3.402a14 14 0 0 0 1.063-4.437z" opacity=".2"/><path fill="url(#h)" d="M6 18.5 5 23l15 2V7l-2.5 1v7.5L15 16V8.5l-2 1v7l-2 .5V9.5l-2 1v7z"/><path fill="url(#i)" d="m20 25 6-2-.5-5-4.5-2.5V8l-1-1z"/><path fill="#639e2f" d="M2.021 15.414A14 14 0 0 0 2 16a14 14 0 0 0 14 14 14 14 0 0 0 14-14 14 14 0 0 0-.021-.414A14 14 0 0 1 16 29 14 14 0 0 1 2.021 15.414"/></svg>