<svg xmlns="http://www.w3.org/2000/svg" xmlns:xlink="http://www.w3.org/1999/xlink" width="48" height="48"><defs><linearGradient id="d" x2="0" y1="44" y2="4" gradientUnits="userSpaceOnUse"><stop stop-color="#18222a"/><stop offset="1" stop-color="#566069"/></linearGradient><linearGradient id="g" x2="0" y1="540.8" y2="536.8" gradientUnits="userSpaceOnUse"><stop stop-color="#2f3943"/><stop offset="1" stop-color="#4d5662"/></linearGradient><linearGradient id="a" x2="0" y1="537.8" y2="538.8" gradientUnits="userSpaceOnUse"><stop stop-color="#197cf1"/><stop offset="1" stop-color="#21c9fb"/></linearGradient><linearGradient xlink:href="#a" id="h" x2="0" y1="539.8" y2="538.8" gradientTransform="translate(0 -1078.6)" gradientUnits="userSpaceOnUse"/><linearGradient id="e" x2="0" y1="543.8" y2="503.8" gradientUnits="userSpaceOnUse"><stop stop-color="#2f3943"/><stop offset="1" stop-color="#808c9b"/></linearGradient><linearGradient id="b" x1="13" x2="38" y1="13" y2="39" gradientUnits="userSpaceOnUse"><stop stop-color="#292c2f"/><stop offset="1" stop-opacity="0"/></linearGradient><linearGradient xlink:href="#b" id="i" x1="15" x2="36" y1="15" y2="36" gradientTransform="translate(384.57 499.8)" gradientUnits="userSpaceOnUse"/></defs><g transform="translate(-384.57 -499.8)"><path fill="url(#d)" d="M6 4v40h36V4z" transform="translate(384.57 499.8)"/><path fill="url(#b)" d="m34.605 13.395-21.21 21.21L22.788 44h19.213V20.79z" opacity=".2" transform="translate(384.57 499.8)"/><rect width="30" height="30" x="393.57" y="508.8" fill="#26333a" rx="15"/><rect width="28" height="28" x="394.57" y="509.8" fill="url(#e)" rx="14"/><path fill="#13191f" d="M390.57 542.8h36v1h-36z"/><rect width="4" height="4" x="391.57" y="536.8" fill="url(#g)" rx="2"/><circle cx="394.67" cy="538.3" r=".5" fill="url(#a)"/><rect width="4" height="4" x="421.57" y="536.8" fill="url(#g)" rx="2"/><circle cx="424.67" cy="-539.3" r=".5" fill="url(#h)" transform="scale(1 -1)"/><path fill="url(#i)" d="m415.39 515.9-4.579 2.223-11.12.202 5.801 4.324 10.714.758 3.185-1.488-4.832 2.54-10.778-.222 7.419 5.31 2.207-1.524-6.88 3.047-6.874-1.561-1.855.819 15.704 13.333c10.07.136 13.07-8.864 13.06-18.385z" opacity=".2"/><path fill="#ff3131" d="M410.39 517.46c-1.681 0-4.14-1.409-6.537-1.409s-3.829 1.409-4.078 1.601-.405.928.342.704 1.37-.224 2.553-.224 4.02 1.665 6.88 1.665c2.864 0 5.261-2.274 5.79-3.074.529-.801.031-1.057-.374-.865s-3.02 1.601-4.576 1.601"/><path fill="#319831" d="M414.39 523.46c-1.681 0-4.14-1.409-6.537-1.409s-3.829 1.409-4.078 1.601-.405.928.342.704 1.37-.224 2.553-.224 4.02 1.665 6.88 1.665c2.864 0 5.261-2.274 5.79-3.074.529-.801.031-1.057-.374-.865s-3.02 1.601-4.576 1.601"/><path fill="#3232cc" d="M408.39 529.46c-1.681 0-4.14-1.409-6.537-1.409s-3.829 1.409-4.078 1.601-.405.929.342.704c.747-.224 1.37-.224 2.553-.224s4.02 1.665 6.88 1.665c2.864 0 5.261-2.274 5.79-3.074.529-.801.031-1.057-.374-.865s-3.02 1.601-4.576 1.601"/></g></svg>