<svg xmlns="http://www.w3.org/2000/svg" width="48" height="48"><defs><linearGradient id="d" x1="17.901" x2="39.584" y1="16.317" y2="38" gradientUnits="userSpaceOnUse"><stop stop-color="#172525"/><stop offset="1" stop-color="#172525" stop-opacity="0"/></linearGradient><linearGradient id="a" x1="423.04" x2="398.97" y1="537.22" y2="505.83" gradientUnits="userSpaceOnUse"><stop stop-color="#197cf1"/><stop offset="1" stop-color="#20bcfa"/></linearGradient><linearGradient id="c" x1="398.46" x2="427.88" y1="506.87" y2="536.3" gradientTransform="translate(.001 .001)" gradientUnits="userSpaceOnUse"><stop stop-color="#abdaf9"/><stop offset="1" stop-color="#7cbcec"/></linearGradient></defs><g transform="translate(-384.57 -499.8)"><rect width="40" height="40" x="388.57" y="503.8" fill="url(#a)" rx="20"/><path fill="url(#c)" fill-rule="evenodd" d="M408.57 503.8c-1.452 0-2.864.16-4.227.451l-1.773 3.549-2.68-2.01a19.94 19.94 0 0 0-10.254 11.584l3.934-1.574 3 2 1-3 13-7-.793-3.961q-.599-.038-1.207-.039m14.81 6.568-.811 2.432 1 1-4 6 2 7 6.633.83c.239-1.239.367-2.519.367-3.83 0-3.425-.857-6.641-2.361-9.453l-1.639-.547.596-1.193a20 20 0 0 0-1.785-2.238m-34.414 9.432a20 20 0 0 0-.381 3.381l6.984 2.619-1-3-2-3zm6.603 6 5 12v4.338a20 20 0 0 0 8 1.662c.199 0 .395-.008.592-.014l6.408-10.986-16-9z"/><path fill="#2b3c4d" d="M388.58 523.3c-.004.167-.012.332-.012.5 0 11.08 8.92 20 20 20s20-8.92 20-20c0-.168-.008-.333-.012-.5a19.953 19.953 0 0 1-19.988 19.5 19.95 19.95 0 0 1-19.988-19.5" opacity=".2"/><path fill="url(#d)" d="m25.711 13.629-3.668 5.361-.684-.588-4.184 4.941-3.529 2.232 3.758 4.197-.154 2.475 11.338 11.207a19.934 19.934 0 0 0 15.402-19.09l-9.691-9.777-5.865 1.83z" opacity=".4" transform="translate(384.57 499.8)"/><path fill="#fcfcfc" d="m410.311 513.405-3.678.344v14.205l3.638-.496v-6.072l4.85 6.72 3.799-1.144-4.972-6.453 5.012-6.11-3.88-.84-4.81 6.11zm-8.285 3.475a.3.3 0 0 0-.12.038l-1.415 1.375c-.06.06-.084.16-.04.23l1.657 2.597c-.298.473-.517.99-.687 1.527l-3.072.612c-.086.022-.161.07-.161.153v1.908c0 .081.079.17.16.191l2.991.687c.16.622.401 1.214.727 1.757l-1.738 2.482c-.048.07-.024.17.04.23l1.415 1.336c.06.055.169.083.243.04l2.708-1.567c.533.291 1.091.533 1.697.687l.647 2.865c.018.083.074.153.161.153h2.02a.23.23 0 0 0 .203-.153l.727-2.865a7.5 7.5 0 0 0 1.779-.726l2.667 1.68c.074.045.18.023.243-.038l1.414-1.336c.06-.06.084-.16.04-.229l-.97-1.527-.323.114c-.047.023-.095 0-.121-.039 0 0-.612-.875-1.414-1.985-.961 1.776-2.918 2.979-5.173 2.979-3.206 0-5.82-2.432-5.82-5.461 0-2.228 1.417-4.144 3.436-5.002v-1.412a7 7 0 0 0-1.05.42h-.04l-2.709-1.68a.2.2 0 0 0-.12-.038" color="#000"/></g></svg>