<svg xmlns="http://www.w3.org/2000/svg" xmlns:xlink="http://www.w3.org/1999/xlink" width="48" height="48"><defs><linearGradient id="a"><stop offset="0" style="stop-color:#e4f2f6;stop-opacity:1"/><stop offset="1" style="stop-color:#b1caee;stop-opacity:1"/></linearGradient><linearGradient id="b" x2="0" y1="543.8" y2="503.8" gradientTransform="translate(-384.57 504.562)" gradientUnits="userSpaceOnUse"><stop stop-color="#2f74c8"/><stop offset="1" stop-color="#4699d7"/></linearGradient><linearGradient id="c" x1="18.437" x2="36.098" y1="15.968" y2="33.629" gradientTransform="translate(0 1004.362)" gradientUnits="userSpaceOnUse"><stop stop-color="#292c2f" style="stop-color:#000;stop-opacity:1"/><stop offset="1" stop-opacity="0"/></linearGradient><linearGradient xlink:href="#a" id="d" x1="21.051" x2="28.564" y1="1016.939" y2="1040.107" gradientUnits="userSpaceOnUse"/></defs><g transform="translate(0 -1004.362)"><rect width="40" height="40" x="4" y="1008.36" rx="0" style="fill:url(#b)"/><path d="M4 1047.36h40v1H4z" style="fill:#2a6bae"/><path d="m26.05 1017.167-.335 3.02-1.84 2.451-.002 2.768-2.908-.646-1.428.21-.543 1.411 4.471 4.422.34 2.777.064-.87-.002 1.878-1.98 2.758-4.713-1.422-4.242-3.03-.887 2.088 13.38 13.38H44v-13.245z" style="opacity:.2;fill:url(#c);stroke-linejoin:round"/><path d="M24 1016.362a3 3 0 0 0-1 5.826v2.174h-4v2h4v8c0 1-1.378 1.592-2.037 1.506-2.952-.387-5.349-1.023-6.727-2.3l2.023.101-3.449-3.215c-.65 1.473-.727 2.936-.81 4.51l1.067-1.053c.513 2.117 7.522 3.451 8.512 4.322l2.42 2.13 2.418-2.128c.993-.873 8-2.21 8.506-4.33l1.076 1.06c0-1.603-.349-3-.81-4.51l-1.726 1.606-1.465 1.607 1.767-.102c-1.375 1.273-3.76 1.912-6.702 2.301-.668.088-2.065-.506-2.065-1.506v-8h4v-2h-4v-2.176a3 3 0 0 0 2-2.824 3 3 0 0 0-3-3m0 2a1 1 0 1 1 0 2 1 1 0 0 1 0-2" style="fill:url(#d);stroke-linejoin:round;fill-opacity:1"/></g></svg>