<svg xmlns="http://www.w3.org/2000/svg" xmlns:xlink="http://www.w3.org/1999/xlink" width="48" height="48"><defs><linearGradient id="f" x1="29.06" x2="29.01" y1="13.634" y2="1.499" gradientTransform="matrix(-.99376 -.00282 .00423 .65925 47.823 4.893)" gradientUnits="userSpaceOnUse"><stop stop-color="#977a5c"/><stop offset="1" stop-color="#9d8062"/></linearGradient><linearGradient id="d" x2="0" y1="38" y2="8" gradientTransform="translate(0 6)" gradientUnits="userSpaceOnUse"><stop stop-color="#d8dcde"/><stop offset="1" stop-color="#f9fafb"/></linearGradient><linearGradient id="a" x2="0" y1="8" y2="4" gradientTransform="translate(1)" gradientUnits="userSpaceOnUse"><stop stop-color="#2f3943"/><stop offset="1" stop-color="#4d5662"/></linearGradient><linearGradient xlink:href="#a" id="g" x2="0" y1="8" y2="4" gradientTransform="translate(26)" gradientUnits="userSpaceOnUse"/><linearGradient id="b" x1="8" x2="19" y1="8" y2="19" gradientUnits="userSpaceOnUse"><stop/><stop offset="1" stop-opacity="0"/></linearGradient><linearGradient xlink:href="#b" id="h" x1="8" x2="19" y1="8" y2="19" gradientTransform="translate(25)" gradientUnits="userSpaceOnUse"/></defs><g stroke-linejoin="bevel" stroke-width="2"><path fill="url(#d)" d="M4 13v28c0 2 1 3 2.883 3h34.298C43 44 44 43 44 41V13Z"/><path fill="url(#f)" d="M7 6h-.05H41c2 0 3 1 3 2.824V14H4V8.825C4 7 5 6 7 6"/><g stroke-linecap="round"><path fill="#725c45" d="M4 13h40v1H4z"/><g fill="#bdc3c7"><rect width="11" height="6" x="4.9" y="15.5" ry="2"/><rect width="16" height="5" x="27" y="38" ry="2"/></g><path fill="#725c45" d="M7 7h9v1H7z"/><path fill="url(#a)" d="M8 4h7v4H8z"/><path fill="#725c45" d="M32 7h9v1h-9z"/><path fill="url(#g)" d="M33 4h7v4h-7z"/><path fill="#fcfcfc" d="M18 10h12v2H18z"/></g></g><g fill-rule="evenodd"><path fill="url(#b)" d="m8 8 11 11h7L15 8z" opacity=".2"/><path fill="url(#h)" d="m33 8 11 11v-7l-4-4z" opacity=".2"/></g><g stroke-linecap="round" stroke-linejoin="bevel" stroke-width="2"><g fill="#da4453"><path d="M19 18h4v1h-4zM34 30h2v1h-2zM5 36h1v1H5zM7 36h1v1H7z"/></g><g fill="#27ae60"><path d="M16 36h2v1h-2zM28 24h4v1h-4zM10 24h4v1h-4zM16 24h4v1h-4zM22 24h4v1h-4z"/></g><g fill="#3daefd"><path d="M34 36h3v1h-3zM5 30h3v1H5zM40 18h3v1h-3z"/></g></g></svg>