<svg xmlns="http://www.w3.org/2000/svg" xmlns:xlink="http://www.w3.org/1999/xlink" width="48" height="48"><defs><linearGradient id="a" x2="0" y1="543.8" y2="503.8" gradientUnits="userSpaceOnUse"><stop stop-color="#a1adb3"/><stop offset="1" stop-color="#bfc7cb"/></linearGradient><linearGradient xlink:href="#a" id="b" x2="0" y1="537.8" y2="509.8" gradientTransform="translate(0 -1047.6)" gradientUnits="userSpaceOnUse"/><linearGradient id="c" x2="0" y1="31" y2="17" gradientTransform="matrix(1 0 0 -1 384.57 547.8)" gradientUnits="userSpaceOnUse"><stop stop-color="#1d1e1e"/><stop offset="1" stop-color="#44484c"/></linearGradient></defs><g transform="translate(-384.57 -499.8)"><circle cx="408.57" cy="523.8" r="20" fill="url(#a)"/><circle cx="408.57" cy="-523.8" r="14" fill="url(#b)" transform="scale(1 -1)"/><path fill="url(#c)" d="M408.571 530.798a1 1 0 0 1-1-1 1 1 0 0 1 1-1 1 1 0 0 1 1 1 1 1 0 0 1-1 1m-4.228-1.758a1 1 0 0 1-.72-.293 1 1 0 0 1 0-1.414 1 1 0 0 1 1.413 0 1 1 0 0 1 0 1.414 1 1 0 0 1-.693.293m8.457 0a1 1 0 0 1-.693-.293 1 1 0 0 1 0-1.414 1 1 0 0 1 1.414 0 1 1 0 0 1 0 1.414 1 1 0 0 1-.721.293m-4.229-3.242a2 2 0 0 1-2-2 2 2 0 0 1 2-2 2 2 0 0 1 2 2 2 2 0 0 1-2 2m-6-1a1 1 0 0 1-1-1 1 1 0 0 1 1-1 1 1 0 0 1 1 1 1 1 0 0 1-1 1m12 0a1 1 0 0 1-1-1 1 1 0 0 1 1-1 1 1 0 0 1 1 1 1 1 0 0 1-1 1m-10.257-4.242a1 1 0 0 1-.692-.293 1 1 0 0 1 0-1.414 1 1 0 0 1 1.414 0 1 1 0 0 1 0 1.414 1 1 0 0 1-.722.293m8.515 0a1 1 0 0 1-.722-.293 1 1 0 0 1 0-1.414 1 1 0 0 1 1.414 0 1 1 0 0 1 0 1.414 1 1 0 0 1-.692.293m-4.258-1.758a1 1 0 0 1-1-1 1 1 0 0 1 1-1 1 1 0 0 1 1 1 1 1 0 0 1-1 1"/><path fill="#737b81" d="M428.549 523.218A20 20 0 0 1 408.57 542.8a20 20 0 0 1-19.979-19.418 20 20 0 0 0-.021.418 20 20 0 0 0 20 20 20 20 0 0 0 20-20 20 20 0 0 0-.021-.582"/></g></svg>