<svg xmlns="http://www.w3.org/2000/svg" xmlns:xlink="http://www.w3.org/1999/xlink" width="32" height="32"><defs><linearGradient id="a"><stop stop-color="#3e3e3e"/><stop offset="1" stop-color="#494949"/></linearGradient><linearGradient id="c" x1="406.501" x2="419.974" y1="527.014" y2="539.825" gradientTransform="translate(242.993 110.881)scale(.69328)" gradientUnits="userSpaceOnUse"><stop stop-color="#292c2f"/><stop offset="1" stop-opacity="0"/></linearGradient><linearGradient xlink:href="#a" id="b" x1="505.44" x2="505.44" y1="484.728" y2="464.045" gradientTransform="translate(40)" gradientUnits="userSpaceOnUse"/></defs><path fill="#2d2d2d" fill-rule="evenodd" d="M6.176 3A4.166 4.166 0 0 0 2 7.176v7.135a4.17 4.17 0 0 0 4.176 4.177h19.648A4.17 4.17 0 0 0 30 14.311V9.176A4.166 4.166 0 0 0 25.824 5H16l-2-2H7.717z"/><path fill-opacity=".235" d="m13 8-.047.047L11 9.023H5.305a3.6 3.6 0 0 0-1.37.276 3.55 3.55 0 0 0-1.892 1.892c-.01.022-.005.049-.014.07h.028c.016-.016.022-.039.039-.056.076-.076.166-.136.248-.205H12l.375-1.127.602-1.803.023-.047-.01.004zm-1.688 1.115"/><path fill="#fff" fill-opacity=".235" fill-rule="evenodd" d="M28.533 6a4.6 4.6 0 0 0-1.08-.674c-.5-.21-1.05-.326-1.629-.326H16l-2-2 1 3z"/><path fill="url(#b)" fill-rule="evenodd" d="m526.571 463.798-2 2h-6.253a3.75 3.75 0 0 0-1.461.293c-.449.19-.851.464-1.19.803-.338.338-.614.74-.803 1.19a3.75 3.75 0 0 0-.293 1.46v11.998a3.25 3.25 0 0 0 3.256 3.256h23.488a3.25 3.25 0 0 0 3.256-3.256v-14.488a3.25 3.25 0 0 0-3.255-3.256z" transform="translate(-513.571 -455.798)"/><path fill-opacity=".235" d="M1.223 26.852c.018.05.012.112.033.162a3.25 3.25 0 0 0 3 1.986h23.488a3.26 3.26 0 0 0 2.305-.951c.294-.294.53-.646.695-1.035.021-.05.015-.111.033-.162z"/><path fill="#5f5f5f" d="m13.5 8-2 2h2zm0 2v2h2v-2zm2 0h2V8h-2zm2 0v2h2v-2zm2 0h2V8h-2zm2 0v2h2v-2zm2 0h2V8h-2zm2 0v2h2v-2zm2 0h2V8.582c-.164-.108-.303-.249-.486-.326A3.3 3.3 0 0 0 27.744 8H27.5zm2 0v2H31v-.744c0-.446-.093-.87-.254-1.256zm0 2h-2v2h2zm-2 2h-2v2h2zm0 2v2h2v-2zm0 2h-2v2h2zm-2 0v-2h-2v2zm-2-2v-2h-2v2zm-2-2v-2h-2v2zm-2 0h-2v2h2zm-2 0v-2h-2v2zm6 0h2v-2h-2zm-10-2h-2v2h2zm-2 2h-2v2h2zm0 2v2h2v-2zm0 2h-2v2h2zm-2 0v-2h-2v2zm-2-2v-2h-2v2zm-2-2v-2h-2v2zm-2-2v-1.75c-.068.024-.149.015-.215.043a3.8 3.8 0 0 0-1.19.803c-.04.04-.056.1-.095.142V12zm2 0h2v-2h-2zm2 0v2h2v-2zm2 0h2v-2h-2z" opacity=".6"/><path fill="url(#c)" fill-rule="evenodd" d="m523.764 480.952 3.645 3.646h12.706l3.875-4.91-12.418-11.77 1.87 9.098z" opacity=".4" transform="translate(-513.571 -455.798)"/><path fill="#d1d8d8" d="M16 11.434c-2.386 0-4 1.682-4 4.13l1 .031c0-1.76 1.492-3.096 3-3.096s3 1.337 3 3.096V18h-9v7h12v-7h-1.999v-2.405c0-2.323-1.614-4.161-4-4.161z"/><path fill="#fff" fill-opacity=".235" d="m13 8-2 2H4.746a4 4 0 0 0-.373.018 4 4 0 0 0-.371.054 4 4 0 0 0-.363.094 4 4 0 0 0-.354.127 3.7 3.7 0 0 0-1.08.728L12 11z"/></svg>