<svg xmlns="http://www.w3.org/2000/svg" width="48" height="48" version="1"><path d="M24 3.737a10.36 10.316 0 0 0-10.36 10.316A10.36 10.316 0 0 0 24 24.368a10.36 10.316 0 0 0 10.36-10.315A10.36 10.316 0 0 0 24 3.737m0 4.42a5.92 5.895 0 0 1 5.92 5.896A5.92 5.895 0 0 1 24 19.947a5.92 5.895 0 0 1-5.92-5.894A5.92 5.895 0 0 1 24 8.158" style="opacity:.2;stroke-width:1"/><path d="M5.502 12.579c.01 7.538-.019 15.076.015 22.614.154 4.855 4.478 9.2 9.666 9.714 3.345.173 6.704.042 10.055.083 2.618-.047 5.249.111 7.858-.119 5.175-.637 9.379-5.085 9.4-9.944.008-7.45.001-14.899.003-22.348z" style="opacity:.2;stroke-width:1"/><path d="M24 3a10.36 10.316 0 0 0-10.36 10.316A10.36 10.316 0 0 0 24 23.632a10.36 10.316 0 0 0 10.36-10.316A10.36 10.316 0 0 0 24 3m0 4.421a5.92 5.895 0 0 1 5.92 5.895A5.92 5.895 0 0 1 24 19.21a5.92 5.895 0 0 1-5.92-5.895A5.92 5.895 0 0 1 24 7.42" style="fill:#f95;stroke-width:1"/><path d="M24 3a10.36 10.316 0 0 0-10.36 10.316 10.36 10.316 0 0 0 .016.305A10.36 10.316 0 0 1 24 3.737a10.36 10.316 0 0 1 10.344 10.01 10.36 10.316 0 0 0 .016-.431A10.36 10.316 0 0 0 24 3m5.904 10.628A5.92 5.895 0 0 1 24 19.211a5.92 5.895 0 0 1-5.904-5.47 5.92 5.895 0 0 0-.016.312A5.92 5.895 0 0 0 24 19.947a5.92 5.895 0 0 0 5.92-5.894 5.92 5.895 0 0 0-.016-.425" style="opacity:.2;fill:#fff;stroke-width:1"/><path d="M5.502 11.842c.01 7.538-.019 15.076.015 22.614.154 4.855 4.478 9.2 9.666 9.714 3.345.173 6.704.042 10.055.083 2.618-.047 5.249.111 7.858-.119 5.175-.637 9.379-5.085 9.4-9.944.008-7.45.001-14.899.003-22.348z" style="fill:#0cf;stroke-width:1"/><path d="M24.137 18.476a6.6 6.6 0 0 0-1.296.164c-1.409.315-2.841.68-4.112 1.002-1.16.238-2.304 1.5-2.107 2.531l3.838 16.988c.237 1.05 1.43 1.646 2.673 1.336 1.243-.311 2.055-1.406 1.818-2.456l-1.415-6.254c.659-.18 1.395-.348 2.025-.468 3.518-.878 5.728-4.424 4.939-7.92-.684-3.008-3.371-5.001-6.363-4.923m.197 3.683a2.408 2.944 78.56 0 1 2.57 1.769 2.408 2.944 78.56 0 1-2.297 3.003 2.408 2.944 78.56 0 1-.05.007l-1.632.378-1.145-4.68 1.68-.386a2.408 2.944 78.56 0 1 .874-.09" style="opacity:.2;stroke-width:1"/><path d="M24.137 17.74a6.6 6.6 0 0 0-1.296.164c-1.409.314-2.841.68-4.112 1.001-1.16.239-2.304 1.5-2.107 2.532l3.838 16.988c.237 1.05 1.43 1.646 2.673 1.335s2.055-1.406 1.818-2.455l-1.415-6.255c.659-.179 1.395-.348 2.025-.467 3.518-.88 5.728-4.425 4.939-7.92-.684-3.008-3.371-5.002-6.363-4.923m.197 3.682a2.408 2.944 78.56 0 1 2.57 1.77 2.408 2.944 78.56 0 1-2.297 3.003 2.408 2.944 78.56 0 1-.05.007l-1.632.377-1.145-4.68 1.68-.386a2.408 2.944 78.56 0 1 .874-.09" style="fill:#f95;stroke-width:1"/><path d="M5.5 11.842h37v.737h-37z" style="opacity:.2;fill:#fff;stroke-width:1"/></svg>