<svg xmlns="http://www.w3.org/2000/svg" xmlns:xlink="http://www.w3.org/1999/xlink" width="48" height="48"><defs><linearGradient xlink:href="#a" id="b" x2="0" y1="543.798" y2="503.798" gradientTransform="translate(-384.571 -499.798)" gradientUnits="userSpaceOnUse"/><linearGradient id="a"><stop stop-color="#197cf1"/><stop offset="1" stop-color="#20bcfa"/></linearGradient></defs><rect width="40" height="40" x="3.999" y="4.002" fill="url(#b)" rx="20" style="fill:url(#b)"/><path fill="#0c69cf" d="M4.012 23.5c-.004.167-.012.332-.012.5 0 11.08 8.92 20 20 20s20-8.92 20-20c0-.168-.008-.333-.012-.5A19.95 19.95 0 0 1 24 43 19.95 19.95 0 0 1 4.012 23.5"/><path d="M30.65 11.326q-.699-.339-1.332-.407a3.1 3.1 0 0 0-1.172.086q-.53.154-.935.501-.405.348-.646.85a3.56 3.56 0 0 0-.324 1.086q-.027.225-.019.373c.003.1.001.187.009.228l.044.444q.034.31-.065.477-.09.176-.35.2-.06.004-.13.002a.7.7 0 0 1-.127-.016l-6.969-3.365-2.27 4.73a1.091 1.091 0 0 0-.015.258q.027.26.201.351.167.098.476.067l.442-.046c.041-.005.128-.003.228-.009q.148-.008.37.02a3.3 3.3 0 0 1 1.083.324q.5.241.848.648.347.408.5.938.151.531.085 1.175-.07.636-.405 1.337-.338.704-.77 1.17-.436.459-.93.676-.494.22-1.029.201a2.65 2.65 0 0 1-1.068-.279 4.153 4.153 0 0 1-.97-.637 3 3 0 0 1-.278-.273c-.066-.085-.092-.14-.112-.183l-.243-.377q-.166-.263-.348-.333-.177-.078-.398.063a1 1 0 0 0-.103.08 1 1 0 0 0-.09.091l-3.338 6.96 6.967 3.365q.056.012.128.015.07.003.131-.001.259-.026.35-.199.098-.17.065-.477l-.044-.446c-.008-.04-.005-.128-.01-.228a2.3 2.3 0 0 1 .02-.372 4 4 0 0 1 .1-.495q.072-.274.223-.591.24-.5.646-.85.405-.35.935-.5a3 3 0 0 1 1.172-.087q.63.07 1.333.406.7.34 1.166.773.454.437.674.934.215.495.2 1.03a2.7 2.7 0 0 1-.278 1.074q-.15.31-.317.555-.166.245-.32.416-.15.173-.272.279c-.085.067-.14.093-.183.115l-.376.242q-.258.167-.331.349-.077.179.063.399a1 1 0 0 0 .17.195l4.683 2.262 3.341-6.959a1 1 0 0 1 .09-.09q.054-.047.103-.08.22-.14.398-.064.18.071.348.333l.242.377c.02.042.047.098.115.184q.105.12.276.273a4.2 4.2 0 0 0 .97.638q.534.258 1.07.277.533.02 1.027-.199.494-.22.93-.676.43-.468.77-1.171.334-.703.405-1.336.066-.645-.085-1.175a2.49 2.49 0 0 0-1.348-1.586 3.2 3.2 0 0 0-.589-.225 4 4 0 0 0-.494-.1 2 2 0 0 0-.37-.02c-.1.005-.187.002-.226.01l-.444.044q-.31.032-.476-.065-.172-.09-.2-.352a1 1 0 0 1 .014-.259l2.27-4.73-4.683-2.263a1 1 0 0 1-.168-.193q-.143-.22-.063-.4.07-.18.33-.349l.375-.243a1 1 0 0 0 .185-.114q.12-.105.272-.278.15-.172.319-.416.166-.247.316-.557.258-.537.278-1.072a2.4 2.4 0 0 0-.2-1.032q-.218-.496-.674-.933-.467-.434-1.166-.772z" style="isolation:isolate;fill:#ecf0f1;fill-opacity:1;stroke-width:1.99994"/></svg>