<svg xmlns="http://www.w3.org/2000/svg" width="48" height="48"><linearGradient id="b" x2="0" y1="545.798" y2="517.798" gradientTransform="matrix(.85715 0 0 .85715 57.223 75.97)" gradientUnits="userSpaceOnUse"><stop offset="0" stop-color="#2a2c2f"/><stop offset="1" stop-color="#424649"/></linearGradient><linearGradient id="c" x1="9" x2="23" y1="9" y2="23" gradientUnits="userSpaceOnUse"><stop offset="0" stop-color="#292c2f"/><stop offset="1" stop-opacity="0"/></linearGradient><linearGradient id="e" x2="0" y1="18" y2="7" gradientUnits="userSpaceOnUse"><stop offset="0" stop-color="#197cf1"/><stop offset="1" stop-color="#20bcfa"/></linearGradient><linearGradient id="a" x1="16" x2="16" y1="30" y2="2" gradientUnits="userSpaceOnUse"><stop offset="0" stop-color="#788085"/><stop offset="1" stop-color="#9ba1a6"/></linearGradient><g transform="matrix(1.5 0 0 1.5 -576.857 -773.697)"><path fill="url(#a)" d="M16 2C8.244 2 2 8.244 2 16s6.244 14 14 14 14-6.244 14-14S23.756 2 16 2" style="fill:url(#a)" transform="translate(384.571 515.798)"/><rect width="24" height="24" x="388.571" y="519.798" fill="url(#b)" rx="14" style="fill:url(#b)"/><path fill="url(#c)" fill-rule="evenodd" d="M15 7v10.691l9.283 9.284a13.95 13.95 0 0 0 4.951-6.74L16 7Z" opacity=".2" style="fill:url(#c)" transform="translate(384.571 515.798)"/><path fill="url(#e)" d="M15 7v11h8v-1h-7V7Z" style="fill:url(#e)" transform="translate(384.571 515.798)"/></g></svg>