<svg xmlns="http://www.w3.org/2000/svg" xmlns:xlink="http://www.w3.org/1999/xlink" width="32" height="32"><defs><linearGradient xlink:href="#a" id="c" x1="378.571" x2="378.571" y1="553.798" y2="525.798" gradientTransform="translate(-376.571 -523.798)" gradientUnits="userSpaceOnUse"/></defs><linearGradient id="a" x1="378.571" x2="378.571" y1="553.798" y2="525.798" gradientTransform="translate(-336.571 -523.798)" gradientUnits="userSpaceOnUse"><stop offset="0" stop-color="#63984b"/><stop offset="1" stop-color="#8fc278"/></linearGradient><linearGradient id="e" x1="394.571" x2="394.571" y1="549.798" y2="529.798" gradientTransform="translate(-376.571 -523.798)" gradientUnits="userSpaceOnUse"><stop offset="0" stop-color="#999a9c"/><stop offset="1" stop-color="#dcdfdf"/></linearGradient><linearGradient xlink:href="#b" id="d" x1="392.571" x2="406.571" y1="539.798" y2="553.798" gradientTransform="translate(-376.571 -523.798)" gradientUnits="userSpaceOnUse"><stop offset="0"/><stop offset="1" stop-opacity="0"/></linearGradient><linearGradient id="b" x1="389.571" x2="399.571" y1="536.798" y2="546.798" gradientUnits="userSpaceOnUse"><stop offset="0" stop-color="#292c2f"/><stop offset="1" stop-opacity="0"/></linearGradient><path d="M6 2c-.554 0-1.082.11-1.56.313a4 4 0 0 0-1.27.857 4 4 0 0 0-.857 1.27A4 4 0 0 0 2 6v1l2 2-2 1v16a3.98 3.98 0 0 0 1.17 2.83c.361.362.79.656 1.27.858A4 4 0 0 0 6 30h20c.554 0 1.082-.11 1.56-.313a4 4 0 0 0 1.27-.857c.362-.361.656-.79.858-1.27A4 4 0 0 0 30 26V6c0-.554-.11-1.082-.313-1.56a4 4 0 0 0-.857-1.27 4 4 0 0 0-1.27-.857A4 4 0 0 0 26 2Z" style="fill:url(#c)"/><path d="M10 30h16c.554 0 1.082-.11 1.56-.313a4 4 0 0 0 1.27-.857c.362-.361.656-.79.858-1.27A4 4 0 0 0 30 26V10l-4-4L6 26Z" style="opacity:.2;fill:url(#d)"/><path d="M6 6h20v20H6Z" style="fill:url(#e)"/><path d="M6 25h20v1H6Z" style="fill:#616365"/><path d="M7 21h4v1H7Zm0 2h2v1H7ZM22 7v3h1V9h1V8h-1V7Zm2 1h1V7h-1zm0 1v1h1V9Z" style="fill:#484a4b"/><path d="M5 27h1v1H5Zm1 1h1v1H6Zm1-1h1v1H7Zm1 1h1v1H8Zm1-1h1v1H9Zm1 1h1v1h-1zm1-1h1v1h-1zm14 0h1v1h-1zm-1 1h1v1h-1zm-1-1h1v1h-1zm-1 1h1v1h-1zm-1-1h1v1h-1zm-1 1h1v1h-1zm-1-1h1v1h-1zm-1 1h1v1h-1zm-6 0h1v1h-1ZM27 4h1v1h-1zm1 1h1v1h-1zm-1 1h1v1h-1zm1 1h1v1h-1zm-1 1h1v1h-1zm1 1h1v1h-1zm-1 1h1v1h-1zm1 1h1v1h-1zm-1 1h1v1h-1zm1 1h1v1h-1zm-1 11h1v1h-1zm1-1h1v1h-1zm-1-1h1v1h-1zm1-1h1v1h-1zm-1-1h1v1h-1z"/><path d="M3.422 29c.31.268.634.526 1.017.688A4 4 0 0 0 6 30h20c.554 0 1.082-.11 1.56-.313.384-.161.707-.42 1.018-.687z" style="fill:#4a7937"/></svg>