<svg xmlns="http://www.w3.org/2000/svg" xmlns:xlink="http://www.w3.org/1999/xlink" viewBox="0 0 32 32"><defs><linearGradient id="a" x2="0" y1="543.8" y2="502.66" gradientTransform="matrix(.66667 0 0 .63518 -256.38 -317.28)" gradientUnits="userSpaceOnUse"><stop offset="0" stop-color="#c6cdd1"/><stop offset="1" stop-color="#e0e5e7"/></linearGradient><linearGradient xlink:href="#a" id="e" x2="0" y1="543.8" y2="502.66" gradientTransform="matrix(.66667 0 0 .63518 -256.38 -317.28)" gradientUnits="userSpaceOnUse"/><linearGradient xlink:href="#a" id="f" x2="0" y1="543.8" y2="502.66" gradientTransform="matrix(.66667 0 0 .63518 -256.38 -317.28)" gradientUnits="userSpaceOnUse"/><linearGradient id="d"><stop stop-color="#555753"/><stop offset="1" stop-color="#2e3436"/></linearGradient><linearGradient xlink:href="#b" id="g" x1="9" x2="23" y1="11" y2="25" gradientUnits="userSpaceOnUse"/><linearGradient id="b"><stop/><stop offset="1" stop-opacity="0"/></linearGradient><radialGradient xlink:href="#d" id="h" cx="25.641" cy="3.684" r="17.995" gradientTransform="matrix(.58725 0 0 .25689 2.726 11.91)" gradientUnits="userSpaceOnUse"/></defs><path fill="url(#e)" d="m32 9-1-1L1.123 27l2.432 3H28.8c1.774 0 3.2-1.426 3.2-3.2z"/><path fill="url(#f)" d="M3.2 2A3.19 3.19 0 0 0 0 5.2v21.6A3.19 3.19 0 0 0 3.2 30h.355l-2.432-3L31 8l1 1V5.2A3.19 3.19 0 0 0 28.8 2z"/><path fill="#566069" d="M2.5 2A2.49 2.49 0 0 0 0 4.5V6h32V4.5A2.49 2.49 0 0 0 29.5 2z"/><path fill="#3daee9" d="M0 6h32v1H0z"/><rect width="30" height="20" x="1" y="8" fill="#fff" ry="2"/><rect width="2" height="2" x="29" y="3" fill="#eff0f1" rx="1"/><path fill="url(#g)" fill-rule="evenodd" d="M21.018 11.396c-.4 1.173-1.025 2.254-1.805 3.267l-2.79-2.791-1.285 2.032.122.317.322.316.644.634 1.288 1.267c-.04.037.015.073-.026.11l-.23-.121-3.697-3.698-.62 1.138.373.372-.452.606.181.181.181.181.362.362.724.724 1.448 1.448c-.549-.324-1.548-.561-1.548-.561l-.535-.504-1.135-1.135-.568-.568-.283-.283-.142-.142-.209-.142-.44.8.248.429-.46.37.209.231.11.232.419.463.84.925 1.678 1.852c-.327.186-1.534.376-1.875.556l1.04 2.562L19 29h12v-7z" opacity=".2"/><path fill="url(#h)" d="M20.427 11c-2.844 0-3.377 4.155-1.777 4.155S23.272 11 20.427 11m-4.38.64a2 2 0 0 0-.144.008c-1.612.196-1.045 2.819-.187 2.868.83.047 1.74-2.872.33-2.876zm-2.795.968a.8.8 0 0 0-.33.06c-1.295.51-.196 2.622.53 2.48.658-.128.752-2.481-.2-2.54m-2.114 1.726a.6.6 0 0 0-.364.127c-1.037.744.349 2.542.959 2.263.533-.244.193-2.363-.595-2.39m6.124 1.716c-2.247-.037-5.21 1.059-5.716 3.261C10.999 21.694 13.8 25 16.722 25c1.437 0 3.095-1.263 3.406-2.863.237-1.22-2.788-.73-2.68.076.13.968-.73 1.446-1.571.822-2.681-1.985 4.438-2.976 3.969-5.689-.146-.844-1.236-1.274-2.584-1.296"/></svg>