<svg xmlns="http://www.w3.org/2000/svg" xmlns:xlink="http://www.w3.org/1999/xlink" width="32" height="32"><defs><linearGradient id="a"><stop stop-color="#c6cdd1"/><stop offset="1" stop-color="#e0e5e7"/></linearGradient><linearGradient id="d"><stop/><stop offset="1" stop-opacity="0"/></linearGradient><linearGradient id="c"><stop stop-color="#2a2c2f"/><stop offset="1" stop-color="#424649"/></linearGradient><linearGradient xlink:href="#a" id="j" x2="0" y1="524.798" y2="522.798" gradientTransform="matrix(1 0 0 -1 0 -3)" gradientUnits="userSpaceOnUse"/><linearGradient xlink:href="#a" id="l" x2="0" y1="524.798" y2="522.798" gradientTransform="matrix(1 0 0 -1 0 -3)" gradientUnits="userSpaceOnUse"/><linearGradient id="e"><stop stop-color="#39a1d8"/><stop offset="1" stop-color="#4db4e8"/></linearGradient><linearGradient xlink:href="#b" id="k" x1="9" x2="23" y1="5" y2="19" gradientTransform="translate(0 3)" gradientUnits="userSpaceOnUse"/><linearGradient id="b"><stop stop-color="#383e51"/><stop offset="1" stop-color="#655c6f" stop-opacity="0"/></linearGradient><linearGradient xlink:href="#c" id="f" x1="0" x2="0" y1="25" y2="2" gradientTransform="translate(384.571 515.798)" gradientUnits="userSpaceOnUse"/><linearGradient xlink:href="#d" id="g" x1="393.571" x2="410.571" y1="519.798" y2="536.798" gradientUnits="userSpaceOnUse"/><linearGradient xlink:href="#a" id="h" x2="0" y1="542.798" y2="538.798" gradientTransform="translate(0 2)" gradientUnits="userSpaceOnUse"/><linearGradient xlink:href="#e" id="i" x2="0" y1="536.798" y2="518.798" gradientUnits="userSpaceOnUse"/></defs><g transform="translate(-384.571 -515.798)"><path d="M388.571 517.798c-2.216 0-4 1.784-4 4v15c0 2.216 1.784 4 4 4h24c2.216 0 4-1.784 4-4v-15c0-2.216-1.784-4-4-4zm0 1h24c1.662 0 3 1.784 3 4v14h-30v-14c0-2.216 1.338-4 3-4" style="fill:url(#f);paint-order:stroke fill markers"/><path d="m414.571 519.798 1 3v14h-30l4 4h23c.554 0 1.082-.11 1.561-.312a4 4 0 0 0 1.27-.858c.361-.361.655-.79.857-1.27a4 4 0 0 0 .312-1.56v-15z" style="opacity:.2;fill:url(#g);fill-rule:evenodd"/><path d="M397.571 540.798h6v4h-6z" style="fill:url(#h)"/><path d="M394.571 544.798h12v1h-12z" style="fill:#99a1a7"/><path d="M388.571 518.798c-.415 0-.81.11-1.17.313a3.1 3.1 0 0 0-.953.857c-.542.723-.877 1.722-.877 2.83v14h30v-14c0-1.108-.334-2.107-.877-2.83a3.1 3.1 0 0 0-.953-.857 2.4 2.4 0 0 0-1.17-.313z" style="fill:url(#i)"/><path d="M393.571-527.798h14v3h-14z" style="fill:url(#j)" transform="scale(1 -1)"/><path d="M14 21h17v-4l-8-8v3H9l4 4H9Z" style="fill:url(#k);fill-rule:evenodd" transform="translate(384.571 515.798)"/><path d="M393.571-531.798h14v3h-14z" style="fill:url(#l)" transform="scale(1 -1)"/><circle cx="395.071" cy="526.298" r=".5" style="fill:#4d4d4d"/><circle cx="395.071" cy="530.298" r=".5" style="fill:#4d4d4d"/><circle cx="397.071" cy="530.298" r=".5" style="fill:#4d4d4d"/><circle cx="399.071" cy="530.298" r=".5" style="fill:#4d4d4d"/></g></svg>