<svg xmlns="http://www.w3.org/2000/svg" xmlns:xlink="http://www.w3.org/1999/xlink" width="32" height="32"><defs><linearGradient xlink:href="#a" id="h" x1="0" x2="0" y1="25" y2="2" gradientUnits="userSpaceOnUse"/><linearGradient id="a"><stop stop-color="#2a2c2f"/><stop offset="1" stop-color="#424649"/></linearGradient><linearGradient xlink:href="#b" id="j" x1="393.571" x2="410.571" y1="519.798" y2="536.798" gradientTransform="translate(-384.571 -515.798)" gradientUnits="userSpaceOnUse"/><linearGradient id="b"><stop/><stop offset="1" stop-opacity="0"/></linearGradient><linearGradient xlink:href="#c" id="k" x1="418.17" x2="384.571" y1="503.079" y2="531.458" gradientTransform="matrix(.625 0 0 .55 -239.357 -274.089)" gradientUnits="userSpaceOnUse"/><linearGradient id="c"><stop stop-color="#1abc9c"/><stop offset="1" stop-color="#2980b9"/></linearGradient><linearGradient xlink:href="#d" id="l" x1="404.045" x2="430.736" y1="521.633" y2="528.35" gradientTransform="matrix(.625 0 0 .55 -239.357 -274.089)" gradientUnits="userSpaceOnUse"/><linearGradient id="d"><stop stop-color="#cc4a5e"/><stop offset="1" stop-color="#aa478a"/></linearGradient><linearGradient xlink:href="#e" id="m" x1="398.092" x2="394.003" y1="542.224" y2="524.9" gradientTransform="matrix(.625 0 0 .55 -239.357 -274.089)" gradientUnits="userSpaceOnUse"/><linearGradient id="e"><stop stop-color="#334545"/><stop offset="1" stop-color="#536161"/></linearGradient><linearGradient xlink:href="#e" id="n" x1="431.571" x2="439.571" y1="568.798" y2="562.798" gradientTransform="matrix(-.625 0 0 .55 285.107 -296.089)" gradientUnits="userSpaceOnUse"/><linearGradient xlink:href="#e" id="o" x1="406.537" x2="423.32" y1="581.87" y2="572.678" gradientTransform="matrix(-.625 0 0 .55 285.107 -296.089)" gradientUnits="userSpaceOnUse"/><linearGradient xlink:href="#e" id="p" x1="423.054" x2="431.225" y1="572.334" y2="566.766" gradientTransform="matrix(-.625 0 0 .55 285.107 -296.089)" gradientUnits="userSpaceOnUse"/><linearGradient xlink:href="#e" id="q" x1="431.313" x2="440.632" y1="577.102" y2="571.445" gradientTransform="matrix(-.625 0 0 .55 285.107 -296.089)" gradientUnits="userSpaceOnUse"/><linearGradient xlink:href="#e" id="r" x1="430.567" x2="423.75" y1="577.362" y2="591.328" gradientTransform="matrix(-.625 0 0 .55 285.107 -296.089)" gradientUnits="userSpaceOnUse"/><linearGradient xlink:href="#f" id="s" x2="0" y1="542.798" y2="538.798" gradientTransform="translate(-384.572 -513.798)" gradientUnits="userSpaceOnUse"/><linearGradient id="f"><stop stop-color="#c6cdd1"/><stop offset="1" stop-color="#e0e5e7"/></linearGradient><linearGradient xlink:href="#g" id="t" x1="393.571" x2="407.571" y1="520.798" y2="534.798" gradientTransform="translate(-384.571 -515.798)" gradientUnits="userSpaceOnUse"/></defs><linearGradient id="g"><stop offset="0"/><stop offset="1" stop-opacity="0"/></linearGradient><linearGradient id="u" x2="0" y1="533.798" y2="521.798" gradientTransform="translate(-384.571 -515.798)" gradientUnits="userSpaceOnUse"><stop offset="0" stop-color="#eff0f1"/><stop offset="1" stop-color="#fcfcfc"/></linearGradient><path d="M4 2C1.784 2 0 3.784 0 6v15c0 2.216 1.784 4 4 4h24c2.216 0 4-1.784 4-4V6c0-2.216-1.784-4-4-4Zm0 1h24c1.662 0 3 1.784 3 4v14H1V7c0-2.216 1.338-4 3-4" style="fill:url(#h);paint-order:stroke fill markers"/><path d="m30 4 1 3v14H1l4 4h23c.554 0 1.082-.11 1.56-.313a4 4 0 0 0 1.27-.857c.362-.361.656-.79.858-1.27A4 4 0 0 0 32 21V6Z" style="opacity:.2;fill:url(#j);fill-rule:evenodd"/><path d="M4 3c-.416 0-.81.11-1.17.313-.36.201-.682.495-.953.857C1.335 4.893 1 5.892 1 7v14h30V7c0-1.108-.335-2.107-.877-2.83a3.1 3.1 0 0 0-.953-.857A2.4 2.4 0 0 0 28 3Z" style="fill:url(#k)"/><path d="M25.137 21H31V7c0-1.108-.335-2.107-.877-2.83-.146-.195-.34-.312-.514-.463L10.354 13.49Z" style="fill:url(#l)"/><path d="M10.375 13.45 1 18.213V21h24.276z" style="fill:url(#m)"/><path d="m15.537 16.072-5.162-2.622v5.245z" style="fill:url(#n)"/><path d="M20.698 18.694V21h4.538z" style="fill:url(#o)"/><path d="M15.537 16.072V21h.624l4.537-2.305z" style="fill:url(#p)"/><path d="M10.375 18.695V21h4.537z" style="fill:url(#q)"/><path d="M20.698 18.694 16.16 21h4.538z" style="fill:url(#r)"/><path d="M31 8.125V7c0-1.108-.335-2.107-.877-2.83-.146-.195-.34-.312-.514-.463L10.354 13.49Z" style="fill:#aa478a"/><path d="M13 25h6v4h-6z" style="fill:url(#s)"/><path d="M10 29h12v1H10Z" style="fill:#99a1a7"/><path d="M16 5v1h-1l-1 1-1 1v4h-2v7l2 2 4 4h11c.554 0 1.082-.11 1.56-.313a4 4 0 0 0 1.27-.857c.362-.361.656-.79.858-1.27A4 4 0 0 0 32 21v-1l-1-1L18 6Z" style="opacity:.2;fill:url(#t);fill-rule:evenodd"/><path d="M16 5c-1.662 0-3 1.338-3 3v4h-2v7h10v-7h-2V8c0-1.662-1.338-3-3-3m0 1c1.246 0 2 .546 2 2v4h-4V8c0-1.454.754-2 2-2" style="fill:url(#u)"/></svg>