<svg xmlns="http://www.w3.org/2000/svg" xmlns:xlink="http://www.w3.org/1999/xlink" width="32" height="32"><defs><linearGradient id="g"><stop stop-color="#2a2c2f"/><stop offset="1" stop-color="#424649"/></linearGradient><linearGradient id="a"><stop stop-color="#c6cdd1"/><stop offset="1" stop-color="#e0e5e7"/></linearGradient><linearGradient xlink:href="#a" id="M" x2="0" y1="542.798" y2="538.798" gradientTransform="translate(-384.571 -513.798)" gradientUnits="userSpaceOnUse"/><linearGradient id="f"><stop stop-color="#e81877"/><stop offset=".312" stop-color="#dd1d8c"/><stop offset=".562" stop-color="#6d57b1"/><stop offset=".75" stop-color="#2a78c1"/><stop offset="1" stop-color="#018dcb"/></linearGradient><linearGradient id="c"><stop stop-color="#e51561"/><stop offset=".312" stop-color="#e4156c"/><stop offset=".562" stop-color="#e71e2c"/><stop offset=".75" stop-color="#e8301e"/><stop offset="1" stop-color="#e6320e"/></linearGradient><linearGradient id="d"><stop stop-color="#bec900"/><stop offset=".312" stop-color="#9ec80a"/><stop offset=".562" stop-color="#71b93d"/><stop offset=".75" stop-color="#35a48f"/><stop offset="1" stop-color="#018fca"/></linearGradient><linearGradient id="b"><stop stop-color="#c1cc00"/><stop offset=".312" stop-color="#dfcd00"/><stop offset=".562" stop-color="#f0cc00"/><stop offset=".75" stop-color="#fd8c08"/><stop offset="1" stop-color="#f25c13"/></linearGradient><linearGradient xlink:href="#b" id="C" x1="8" x2="24" y1="24" y2="8" gradientTransform="rotate(180 216.286 273.899)" gradientUnits="userSpaceOnUse"/><linearGradient xlink:href="#c" id="B" x1="8.043" x2="24" y1="24.022" y2="8" gradientTransform="matrix(1 0 0 -1 384.571 547.798)" gradientUnits="userSpaceOnUse"/><linearGradient xlink:href="#d" id="D" x1="8.192" x2="24.062" y1="24.135" y2="8.233" gradientTransform="matrix(-1 0 0 1 432.571 499.798)" gradientUnits="userSpaceOnUse"/><linearGradient xlink:href="#c" id="H" x1="8.323" x2="23.943" y1="23.961" y2="8.255" gradientTransform="matrix(1 0 0 -1 384.571 547.798)" gradientUnits="userSpaceOnUse"/><linearGradient xlink:href="#b" id="J" x1="8" x2="24.272" y1="24" y2="8.385" gradientTransform="rotate(180 216.286 273.899)" gradientUnits="userSpaceOnUse"/><linearGradient xlink:href="#d" id="L" x1="8" x2="24.042" y1="24" y2="8.469" gradientTransform="matrix(-1 0 0 1 432.571 499.798)" gradientUnits="userSpaceOnUse"/><linearGradient xlink:href="#f" id="s" x1="8.255" x2="24.093" y1="24.161" y2="8.402" gradientUnits="userSpaceOnUse"/><linearGradient xlink:href="#c" id="v" x1="7.49" x2="24" y1="23.598" y2="8" gradientTransform="matrix(1 0 0 -1 384.571 547.798)" gradientUnits="userSpaceOnUse"/><linearGradient xlink:href="#b" id="x" x1="8.371" x2="24" y1="24.121" y2="8" gradientTransform="rotate(180 216.286 273.899)" gradientUnits="userSpaceOnUse"/><linearGradient xlink:href="#d" id="z" x1="8.394" x2="24.139" y1="24.08" y2="8.362" gradientTransform="matrix(-1 0 0 1 432.571 499.798)" gradientUnits="userSpaceOnUse"/><linearGradient xlink:href="#f" id="i" x1="8.273" x2="24.149" y1="24.302" y2="8.377" gradientUnits="userSpaceOnUse"/><linearGradient xlink:href="#c" id="m" x1="8.385" x2="24" y1="24.353" y2="8" gradientTransform="matrix(1 0 0 -1 384.571 547.798)" gradientUnits="userSpaceOnUse"/><linearGradient xlink:href="#d" id="o" x1="8.125" x2="23.775" y1="24.159" y2="8.481" gradientTransform="matrix(-1 0 0 1 432.571 499.798)" gradientUnits="userSpaceOnUse"/><linearGradient xlink:href="#b" id="q" x1="8.233" x2="24" y1="24.063" y2="8" gradientTransform="rotate(180 216.286 273.899)" gradientUnits="userSpaceOnUse"/><linearGradient xlink:href="#f" id="F" x1="8.059" x2="23.775" y1="23.328" y2="8.372" gradientUnits="userSpaceOnUse"/><linearGradient xlink:href="#f" id="A" x1="8.457" x2="24.105" y1="23.998" y2="8.236" gradientUnits="userSpaceOnUse"/><linearGradient xlink:href="#g" id="N" x1="0" x2="0" y1="25" y2="2" gradientUnits="userSpaceOnUse"/><clipPath id="h"><rect width="32" height="32" x="8" y="8" rx="16"/></clipPath><clipPath id="l"><rect width="32" height="32" x="392.571" y="507.798" rx="16"/></clipPath><clipPath id="n"><rect width="32" height="32" x="392.571" y="507.798" rx="16"/></clipPath><clipPath id="p"><rect width="32" height="32" x="392.571" y="507.798" rx="16"/></clipPath><clipPath id="r"><rect width="32" height="32" x="8" y="8" rx="16"/></clipPath><clipPath id="u"><rect width="32" height="32" x="392.571" y="507.798" rx="16"/></clipPath><clipPath id="w"><rect width="32" height="32" x="392.571" y="507.798" rx="16"/></clipPath><clipPath id="y"><rect width="32" height="32" x="392.571" y="507.798" rx="16"/></clipPath><clipPath id="E"><rect width="32" height="32" x="8" y="8" rx="16"/></clipPath><clipPath id="G"><rect width="32" height="32" x="392.571" y="507.798" rx="16"/></clipPath><clipPath id="I"><rect width="32" height="32" x="392.571" y="507.798" rx="16"/></clipPath><clipPath id="K"><rect width="32" height="32" x="392.571" y="507.798" rx="16"/></clipPath><filter id="t" width="1.12" height="1.12" x="-.06" y="-.06" color-interpolation-filters="sRGB"><feGaussianBlur stdDeviation=".4"/></filter></defs><path d="M24.159 10.832c-5.838 1.535-13.025 4.163-13.403 5.493-.173.314.495 4.974 1.12 7.636L24 24Z" clip-path="url(#h)" style="fill:url(#i)" transform="matrix(1.30244 .201 -.34899 .75017 -6.883 -10.828)"/><path d="M408.571 539.798c-3.734 0-6.86 1.426-7.909-1.596-1.321-3.807-3.052-10.433-4.198-15.28l12.107.876z" clip-path="url(#l)" style="fill:url(#m)" transform="matrix(1.30244 .201 -.34899 .75017 -333.34 -463.066)"/><path d="M408.55 510.761c3.708-.73 7.008-1.273 7.342-.962.574.533 3.584 9.873 4.929 15.046l-12.25-1.047z" clip-path="url(#n)" style="fill:url(#o)" transform="matrix(1.30244 .201 -.34899 .75017 -333.34 -463.066)"/><path d="M408.571 539.798c6.646 0 13.345-4.595 14.097-6.92.311-.961-1.848-6.356-1.848-8.575l-12.249-.505z" clip-path="url(#p)" style="fill:url(#q)" transform="matrix(1.30244 .201 -.34899 .75017 -333.34 -463.066)"/><path d="M23.93 11.46c-5.762 0-10.064.604-10.573 1.537-.331.607-.977 7.298-.977 10.4L24 24Z" clip-path="url(#r)" style="opacity:.7;fill:url(#s);filter:url(#t)" transform="matrix(1.34838 0 0 .77664 -16.361 -6.64)"/><path d="M408.571 539.798c-5.955 0-10.944 2.648-11.464-4.122-.104-1.356.007-8.688.007-11.596l11.458-.282z" clip-path="url(#u)" style="opacity:.7;fill:url(#v);filter:url(#t)" transform="matrix(1.34838 0 0 .77664 -534.911 -394.801)"/><path d="M408.571 539.798c8.864 0 11.667-7.056 11.667-15.92l-11.667-.08z" clip-path="url(#w)" style="opacity:.7;fill:url(#x);filter:url(#t)" transform="matrix(1.34838 0 0 .77664 -534.911 -394.801)"/><path d="M408.641 511.299c8.864 0 11.597 3.474 11.597 12.338l-11.667.161z" clip-path="url(#y)" style="opacity:.7;fill:url(#z);filter:url(#t)" transform="matrix(1.34838 0 0 .77664 -534.911 -394.801)"/><path d="M23.874 8.398C17.25 12.245 8.883 22.008 8.429 23.977L24 24Z" clip-path="url(#r)" style="opacity:.35;fill:url(#A)" transform="scale(1.34838 .77664)rotate(45 28.252 5.079)"/><path d="M408.571 539.798c-7.337-7.388-11-11.262-15.616-16.023l15.616.023z" clip-path="url(#u)" style="opacity:.35;fill:url(#B)" transform="scale(1.34838 .77664)rotate(45 823.848 -209.241)"/><path d="M408.571 539.798c8.864 0 16-7.136 16-16h-16z" clip-path="url(#w)" style="opacity:.35;fill:url(#C)" transform="scale(1.34838 .77664)rotate(45 823.848 -209.241)"/><path d="M408.445 508.218c6.409 5.87 9.963 9.238 16.126 15.58h-16z" clip-path="url(#y)" style="opacity:.35;fill:url(#D)" transform="scale(1.34838 .77664)rotate(45 823.848 -209.241)"/><path d="M23.98 11.81c-3.284-.917-8.176-1.473-8.282-1.08-.78 2.89-4.49 7.742-4.49 13.266L24 24Z" clip-path="url(#E)" style="opacity:.3;fill:url(#F)" transform="matrix(.34899 .75017 -1.30244 .201 38.883 -10.828)"/><path d="M409.107 535.935c-7.82-2.059-13.72-3.915-13.955-4.417-.936-.885.46-5.353.46-7.72h12.96z" clip-path="url(#G)" style="opacity:.3;fill:url(#H)" transform="matrix(.34899 .75017 -1.30244 .201 555.629 -399.788)"/><path d="M408.748 535.718c1.995 0 6.535 2.425 8.28 2.084 6.006-1.174 7.543-7.135 7.543-14.004h-16z" clip-path="url(#I)" style="opacity:.3;fill:url(#J)" transform="matrix(.34899 .75017 -1.30244 .201 555.629 -399.788)"/><path d="M408.541 511.797c4.89 1.31 14.039 3.68 14.79 4.244 2.194 1.645 1.24 3.898 1.24 7.757h-16z" clip-path="url(#K)" style="opacity:.3;fill:url(#L)" transform="matrix(.34899 .75017 -1.30244 .201 555.629 -399.788)"/><path d="M13 25h6v4h-6z" style="fill:url(#M)"/><path d="M10 29h12v1H10Z" style="fill:#99a1a7"/><path d="M4 2C1.784 2 0 3.784 0 6v15c0 2.216 1.784 4 4 4h24c2.216 0 4-1.784 4-4V6c0-2.216-1.784-4-4-4Zm0 1h24c1.662 0 3 1.784 3 4v14H1V7c0-2.216 1.338-4 3-4" style="fill:url(#N);paint-order:stroke fill markers"/></svg>