<svg xmlns="http://www.w3.org/2000/svg" xmlns:xlink="http://www.w3.org/1999/xlink" width="32" height="32"><defs><linearGradient xlink:href="#a" id="b" x1="388.423" x2="388.423" y1="557.798" y2="505.798" gradientTransform="matrix(.58696 0 0 .53846 -227.988 -270.353)" gradientUnits="userSpaceOnUse"/><linearGradient id="a" x1="388.423" x2="388.423" y1="557.798" y2="505.798" gradientTransform="matrix(.58696 0 0 .53846 -227.988 -270.353)" gradientUnits="userSpaceOnUse"><stop offset="0" stop-color="#7f8c8d"/><stop offset="1" stop-color="#afb0b3"/></linearGradient></defs><linearGradient id="e" x1="400.571" x2="400.571" y1="522.798" y2="535.798" gradientTransform="translate(-384.571 -515.798)" gradientUnits="userSpaceOnUse"><stop offset="0" stop-color="#da4453"/><stop offset="1" stop-color="#c72737"/></linearGradient><linearGradient id="d" x1="12" x2="26" y1="11" y2="25" gradientUnits="userSpaceOnUse"><stop offset="0" stop-color="#292c2f"/><stop offset="1" stop-color="#292c2f" stop-opacity=".138"/></linearGradient><linearGradient id="c" x1="12" x2="12" y1="48" y2="10" gradientTransform="matrix(.55555 0 0 .54843 -1.778 -1.325)" gradientUnits="userSpaceOnUse"><stop offset="0" stop-color="#eef1f2"/><stop offset="1" stop-color="#f9fafb"/></linearGradient><path d="M9 2C6.23 2 4 4.23 4 7v23h24V7c0-2.77-2.23-5-5-5Z" style="fill:url(#b)"/><path d="M25 27h3v3h-3ZM4 27h3v3H4Z" style="opacity:.3;fill:#292c2f"/><path d="M7 27h18v3H7Z" style="fill:#292c2e"/><path d="M9 28h9v1H9Zm10 0h4v1h-4z" style="fill:#f6b44d"/><path d="M11 4.064c-2.761 0-5 2.21-5 4.936v5c.706.623 1.11 1.565 1.111 2.5S6.706 18.377 6 19v3l3 3h14l3-3v-3c-.706-.623-1.11-1.565-1.111-2.5S25.294 14.623 26 14V9c0-2.726-2.239-4.936-5-4.936Z" style="fill:url(#c)"/><path d="M16 7v.002a3 3 0 0 0-3 2.955l.002.043H13v3h-2v7l7 7h10v-9.242l-9.879-9.88z" style="opacity:.2;fill:url(#d)"/><path d="M4 29h24v1H4Z" style="opacity:.4;fill:#292c2f"/><path d="M16 7c-1.662 0-3 1.338-3 3v3h-2v7h10v-7h-2v-3c0-1.662-1.338-3-3-3m0 1c1.246 0 2 .546 2 2v3h-4v-3c0-1.454.754-2 2-2" style="fill:url(#e)"/><path d="M4 27h3v3zm21 0h3v3h-3z" style="opacity:.2;fill:#292c2f"/></svg>