<svg xmlns="http://www.w3.org/2000/svg" xmlns:xlink="http://www.w3.org/1999/xlink" width="48" height="48"><defs><linearGradient id="c" x2="0" y1="543.8" y2="512.8" gradientUnits="userSpaceOnUse"><stop stop-color="#cea476"/><stop offset="1" stop-color="#dab58b"/></linearGradient><linearGradient id="a" x2="0" y1="512.8" y2="503.8" gradientTransform="translate(0 -.001)" gradientUnits="userSpaceOnUse"><stop stop-color="#ebc69a"/><stop offset="1" stop-color="#f4e0c8" stop-opacity="0"/></linearGradient><linearGradient xlink:href="#a" id="i" x2="0" y1="512.8" y2="503.8" gradientTransform="matrix(1 0 0 .55556 0 -797.69)" gradientUnits="userSpaceOnUse"/><linearGradient xlink:href="#c" id="g" x2="0" y1="512.8" y2="503.8" gradientTransform="translate(-384.57 -499.8)" gradientUnits="userSpaceOnUse"/><linearGradient id="j" x1="399.57" x2="417.57" y1="516.8" y2="534.8" gradientTransform="translate(-384.57 -499.8)" gradientUnits="userSpaceOnUse"><stop stop-color="#292c2f"/><stop offset="1" stop-opacity="0"/></linearGradient><linearGradient xlink:href="#d" id="f" x2="0" y1="543.8" y2="512.8" gradientTransform="translate(-384.57 -499.8)" gradientUnits="userSpaceOnUse"/><linearGradient id="d" x2="0" y1="543.8" y2="512.8" gradientUnits="userSpaceOnUse"><stop stop-color="#cea476"/><stop offset="1" stop-color="#dab58b"/></linearGradient><linearGradient xlink:href="#e" id="k" x2="0" y1="512.8" y2="503.8" gradientTransform="translate(-384.57 -499.8)" gradientUnits="userSpaceOnUse"/><linearGradient id="e" x2="0" y1="512.8" y2="503.8" gradientUnits="userSpaceOnUse"><stop stop-color="#ebc69a"/><stop offset="1" stop-color="#f4e0c8" stop-opacity="0"/></linearGradient><linearGradient xlink:href="#e" id="l" x2="0" y1="512.8" y2="503.8" gradientTransform="translate(-384.57 -525.8)" gradientUnits="userSpaceOnUse"/><linearGradient xlink:href="#a" id="h" x2="0" y1="512.8" y2="503.8" gradientTransform="translate(0 -.001)" gradientUnits="userSpaceOnUse"/></defs><path d="M4 13v25.682c0 .736.148 1.437.416 2.074a5.3 5.3 0 0 0 1.139 1.69c.48.48 1.052.87 1.69 1.138A5.3 5.3 0 0 0 9.317 44h29.364c.736 0 1.437-.148 2.074-.416a5.3 5.3 0 0 0 1.69-1.139c.48-.48.87-1.052 1.138-1.69A5.3 5.3 0 0 0 44 38.683V13H9.318Z" style="fill:url(#f);stroke-width:2.79999995;stroke-opacity:.55"/><path d="m4 13 6-9h29l5 9z" style="fill:url(#g);fill-rule:evenodd"/><g style="stroke-width:2.79999995;stroke-opacity:.55"><path d="M405.57 503.8v13.458l1-.336 1 .336 1-.336 1 .336 1-.336 1 .336V503.8Z" style="fill:#f4e0c8" transform="translate(-384.57 -499.8)"/><path d="M405.57 503.8h6v9h-6z" style="fill:url(#h)" transform="translate(-384.57 -499.8)"/><path d="M405.57-517.8h6v5h-6z" style="fill:url(#i)" transform="matrix(1 0 0 -1 -384.57 -499.8)"/><path d="M418.57 514.8v8h8v-8zm1 1h6v6h-6zm1 1v1h1v-1zm2 0v2h2v-2zm-2 2v2h1v-2zm2 1v1h2v-1z" style="fill:#5c4c3e" transform="translate(-384.57 -499.8)"/></g><path d="M18 44h20.682c.736 0 1.437-.148 2.074-.416a5.3 5.3 0 0 0 1.69-1.139c.48-.48.87-1.052 1.138-1.69A5.3 5.3 0 0 0 44 38.683V36l-9-9v4l-5 .62L20 22l-8 16z" style="opacity:.2;fill:url(#j);fill-rule:evenodd"/><path d="M18.02 22 12 38h1.947l1.924-5.063h6.414L24.055 38H26l-5.684-16Zm1.172 1.842 2.455 7.627h-5.176zm12.639 2.061c-1.679 0-3.247.41-4.152.885l.508 1.381c.972-.453 2.384-.777 3.688-.777 1.634 0 2.342.733 2.342 2.135v1.316l-1.193.129c-3.048.431-6.05.84-6.05 3.881 0 2.156 1.656 3.148 3.6 3.148 1.237 0 2.651-.388 3.689-1.531l.264 1.273h1.48v-8.496c0-2.588-1.833-3.344-4.174-3.344m2.385 6.168v2.846c-.773 1.035-2.34 1.703-3.467 1.703-1.126 0-1.967-.538-1.967-1.832 0-1.617.995-2.135 4.352-2.566.022 0 1.082-.15 1.082-.15" style="fill:#5c4c3e"/><path d="M21 4h6v9h-6z" style="fill:url(#k);stroke-width:2.79999995;stroke-opacity:.55"/><path d="M21-22h6v9h-6z" style="fill:url(#l);stroke-width:2.79999995;stroke-opacity:.55" transform="scale(1 -1)"/><path d="M4.734 41.229c.24.43.475.87.82 1.216.481.48 1.053.87 1.69 1.139A5.3 5.3 0 0 0 9.318 44h29.364c.736 0 1.437-.148 2.074-.416a5.3 5.3 0 0 0 1.69-1.139c.345-.346.58-.785.82-1.216z" style="fill:#9f8569;stroke-width:4.6608634;stroke-opacity:.55"/></svg>