<svg xmlns="http://www.w3.org/2000/svg" xmlns:xlink="http://www.w3.org/1999/xlink" width="32" height="32"><defs><linearGradient xlink:href="#a" id="e" x1="403.571" x2="403.571" y1="538.798" y2="519.798" gradientTransform="matrix(1 0 0 1.21053 -387.571 -627.23)" gradientUnits="userSpaceOnUse"/><linearGradient xlink:href="#b" id="g" x1="400.571" x2="400.571" y1="535.798" y2="520.798" gradientTransform="matrix(1.25 0 0 1.13333 -484.714 -587.238)" gradientUnits="userSpaceOnUse"/></defs><linearGradient id="c"><stop offset="0" stop-color="#c6cdd1"/><stop offset="1" stop-color="#e0e5e7"/></linearGradient><linearGradient id="a" x1="403.571" x2="403.571" y1="538.798" y2="519.798" gradientTransform="matrix(1 0 0 1.21053 -387.571 -627.23)" gradientUnits="userSpaceOnUse"><stop offset="0" stop-color="#2a2c2f"/><stop offset="1" stop-color="#424649"/></linearGradient><linearGradient xlink:href="#c" id="f" x1="400.571" x2="400.571" y1="544.798" y2="540.798" gradientTransform="translate(-384.571 -515.798)" gradientUnits="userSpaceOnUse"/><linearGradient id="b" x1="400.571" x2="400.571" y1="535.798" y2="520.798" gradientTransform="matrix(1.25 0 0 1.13333 -484.714 -607.238)" gradientUnits="userSpaceOnUse"><stop offset="0" stop-color="#232629"/><stop offset="1" stop-color="#292c30"/></linearGradient><linearGradient xlink:href="#c" id="p" x1="389.571" x2="389.571" y1="534.798" y2="519.798" gradientTransform="matrix(2 0 0 1 -773.143 -515.798)" gradientUnits="userSpaceOnUse"/><linearGradient id="d"><stop offset="0"/><stop offset="1" stop-opacity="0"/></linearGradient><linearGradient xlink:href="#d" id="q" x1="386.571" x2="389.571" y1="520.798" y2="523.798" gradientTransform="translate(-384.571 -515.798)" gradientUnits="userSpaceOnUse"/><linearGradient xlink:href="#d" id="r" x1="386.571" x2="389.571" y1="522.798" y2="525.798" gradientTransform="translate(-384.571 -515.798)" gradientUnits="userSpaceOnUse"/><linearGradient xlink:href="#d" id="s" x1="386.571" x2="389.571" y1="524.798" y2="527.798" gradientTransform="translate(-384.571 -515.798)" gradientUnits="userSpaceOnUse"/><linearGradient xlink:href="#d" id="t" x1="386.571" x2="389.571" y1="526.798" y2="529.798" gradientTransform="translate(-384.571 -515.798)" gradientUnits="userSpaceOnUse"/><linearGradient xlink:href="#d" id="u" x1="386.571" x2="389.571" y1="528.798" y2="531.798" gradientTransform="translate(-384.571 -515.798)" gradientUnits="userSpaceOnUse"/><linearGradient xlink:href="#d" id="v" x1="386.571" x2="389.571" y1="530.798" y2="533.798" gradientTransform="translate(-384.571 -515.798)" gradientUnits="userSpaceOnUse"/><linearGradient xlink:href="#d" id="w" x1="386.571" x2="389.571" y1="532.798" y2="535.798" gradientTransform="translate(-384.571 -515.798)" gradientUnits="userSpaceOnUse"/><linearGradient xlink:href="#d" id="x" x1="386.571" x2="389.571" y1="534.798" y2="537.798" gradientTransform="translate(-384.571 -515.798)" gradientUnits="userSpaceOnUse"/><linearGradient xlink:href="#d" id="h" x1="390.571" x2="397.071" y1="520.798" y2="527.298" gradientTransform="translate(-384.571 -515.798)" gradientUnits="userSpaceOnUse"/><linearGradient xlink:href="#d" id="i" x1="390.571" x2="397.071" y1="532.798" y2="539.298" gradientTransform="translate(-384.571 -515.798)" gradientUnits="userSpaceOnUse"/><linearGradient xlink:href="#d" id="j" x1="390.571" x2="396.025" y1="522.798" y2="528.251" gradientTransform="translate(-384.571 -515.798)" gradientUnits="userSpaceOnUse"/><linearGradient xlink:href="#d" id="k" x1="390.571" x2="396.025" y1="526.798" y2="532.251" gradientTransform="translate(-384.571 -515.798)" gradientUnits="userSpaceOnUse"/><linearGradient xlink:href="#d" id="l" x1="390.571" x2="396.025" y1="528.798" y2="534.251" gradientTransform="translate(-384.571 -515.798)" gradientUnits="userSpaceOnUse"/><linearGradient xlink:href="#d" id="m" x1="390.571" x2="395.071" y1="524.798" y2="529.298" gradientTransform="translate(-384.571 -515.798)" gradientUnits="userSpaceOnUse"/><linearGradient xlink:href="#d" id="n" x1="390.571" x2="395.071" y1="530.798" y2="535.298" gradientTransform="translate(-384.571 -515.798)" gradientUnits="userSpaceOnUse"/><linearGradient xlink:href="#d" id="o" x1="390.571" x2="395.071" y1="534.798" y2="539.298" gradientTransform="translate(-384.571 -515.798)" gradientUnits="userSpaceOnUse"/><path d="M4 2c-.554 0-1.082.11-1.56.313a4 4 0 0 0-1.27.857 4 4 0 0 0-.857 1.27A4 4 0 0 0 0 6v15a3.98 3.98 0 0 0 1.17 2.83c.361.362.79.656 1.27.858A4 4 0 0 0 4 25h24c.554 0 1.082-.11 1.56-.313a4 4 0 0 0 1.27-.857c.362-.361.656-.79.858-1.27A4 4 0 0 0 32 21V6c0-.554-.11-1.082-.313-1.56a4 4 0 0 0-.857-1.27 4 4 0 0 0-1.27-.857A4 4 0 0 0 28 2Z" style="fill:url(#e)"/><path d="M13 25h6v4h-6z" style="fill:url(#f)"/><path d="M10 29h12v1H10Z" style="fill:#9eaab6"/><path d="M4 3c-.416 0-.81.11-1.17.313-.36.201-.682.495-.953.857C1.335 4.893 1 5.892 1 7v13h30V7c0-1.108-.335-2.107-.877-2.83a3.1 3.1 0 0 0-.953-.857A2.4 2.4 0 0 0 28 3Z" style="fill:url(#g)"/><path d="m6 5 1 1h7l2 2 2-2-2-2z" style="opacity:.2;fill:url(#h)"/><path d="m6 17 1 1h5l3 3 3-3-2-2z" style="opacity:.2;fill:url(#i)"/><path d="m6 7 1 1h5l2 2 2-2-2-2z" style="opacity:.2;fill:url(#j)"/><path d="m6 11 1 1h7l1 1 1-1-2-2z" style="opacity:.2;fill:url(#k)"/><path d="m6 13 1 1h5l2 2 2-2-2-2z" style="opacity:.2;fill:url(#l)"/><path d="m6 9 1 1h7l-2-2Z" style="opacity:.2;fill:url(#m)"/><path d="m6 15 1 1h7l-2-2z" style="opacity:.2;fill:url(#n)"/><path d="m6 19 2 2h5l1-1-2-2z" style="opacity:.2;fill:url(#o)"/><path d="M5.999 4h10v1h-10zm0 6h8v1h-8zm0 2h8v1h-8zm0 2h6v1h-6zm0-8h8v1h-8zm0 2h6v1h-6zm0 8h10v1h-10zm0 2h6v1h-6z" style="fill:url(#p)"/><path d="m2 5 1 1h2l1 1 1-1-2-2Z" style="opacity:.2;fill:url(#q)"/><path d="m2 7 1 1h2l1 1 1-1-2-2Z" style="opacity:.2;fill:url(#r)"/><path d="m2 9 1 1h2l1 1 1-1-2-2Z" style="opacity:.2;fill:url(#s)"/><path d="m2 11 1 1h2l1 1 1-1-2-2z" style="opacity:.2;fill:url(#t)"/><path d="m2 13 1 1h2l1 1 1-1-2-2z" style="opacity:.2;fill:url(#u)"/><path d="m2 15 1 1h2l1 1 1-1-2-2z" style="opacity:.2;fill:url(#v)"/><path d="m2 17 1 1h2l1 1 1-1-2-2z" style="opacity:.2;fill:url(#w)"/><path d="m2 19 1 1 1 1h2l1-1-2-2Z" style="opacity:.2;fill:url(#x)"/><path d="M2 4h3v1H2Zm0 2h3v1H2Zm0 2h3v1H2Zm0 2h3v1H2Zm0 2h3v1H2Zm0 2h3v1H2Zm0 2h3v1H2Zm0 2h3v1H2Z" style="fill:#11d116"/><path d="M1 20h30v1H1Z" style="fill:#333639"/></svg>