<svg xmlns="http://www.w3.org/2000/svg" xmlns:xlink="http://www.w3.org/1999/xlink" width="48" height="48"><defs><linearGradient id="b"><stop offset="0" style="stop-color:#00ebfa;stop-opacity:1"/><stop offset="1" style="stop-color:#0c89ca;stop-opacity:1"/></linearGradient><linearGradient xlink:href="#b" id="c" x1="25.169" x2="25.881" y1="3.051" y2="45.356" gradientUnits="userSpaceOnUse"/></defs><rect width="42" height="42" x="3" y="3" rx="21" ry="21" style="fill:url(#c);stroke-width:1.04999;fill-opacity:1"/><path d="M12.367 11c-1.21 0-2.184.974-2.184 2.183v21.834c0 1.21.974 2.183 2.184 2.183s2.183-.974 2.183-2.183V13.183c0-1.21-.974-2.183-2.183-2.183" style="opacity:.5;stroke-width:.99997"/><path d="M12.367 19.733c-1.21 0-2.184.974-2.184 2.184v13.1c0 1.21.974 2.183 2.184 2.183s2.183-.974 2.183-2.183v-13.1c0-1.21-.974-2.184-2.183-2.184" style="fill:#fff;fill-opacity:1;stroke-width:.99997"/><path d="M16.733 19.605a4.367 4.367 0 0 1-4.366 4.367A4.367 4.367 0 0 1 8 19.605a4.367 4.367 0 0 1 4.367-4.366 4.367 4.367 0 0 1 4.366 4.366" style="opacity:.2;stroke-width:.99997"/><path d="M16.733 18.878a4.367 4.367 0 0 1-4.366 4.366A4.367 4.367 0 0 1 8 18.878a4.367 4.367 0 0 1 4.367-4.367 4.367 4.367 0 0 1 4.366 4.367" style="fill:#999;fill-opacity:1;stroke-width:.99997"/><path d="M35.656 11c-1.21 0-2.184.974-2.184 2.183v21.834c0 1.21.974 2.183 2.184 2.183s2.183-.974 2.183-2.183V13.183c0-1.21-.974-2.183-2.183-2.183" style="opacity:.5;stroke-width:.99997"/><path d="M35.656 24.243c-1.21 0-2.184.973-2.184 2.183v8.59c0 1.21.974 2.184 2.184 2.184s2.183-.974 2.183-2.183v-8.591c0-1.21-.974-2.183-2.183-2.183" style="fill:#fff;fill-opacity:1;stroke-width:.99997"/><path d="M40.022 23.372a4.367 4.367 0 0 1-4.366 4.367 4.367 4.367 0 0 1-4.367-4.367 4.367 4.367 0 0 1 4.367-4.366 4.367 4.367 0 0 1 4.366 4.366" style="opacity:.2;stroke-width:.99997"/><path d="M40.022 22.644a4.367 4.367 0 0 1-4.366 4.367 4.367 4.367 0 0 1-4.367-4.367 4.367 4.367 0 0 1 4.367-4.366 4.367 4.367 0 0 1 4.366 4.366" style="fill:#999;stroke-width:.99997;fill-opacity:1"/><path d="M24.011 11c-1.21 0-2.183.974-2.183 2.183v21.834c0 1.21.974 2.183 2.183 2.183 1.21 0 2.183-.974 2.183-2.183V13.183c0-1.21-.973-2.183-2.183-2.183" style="opacity:.504;stroke-width:.99997"/><path d="M24.011 29.922c-1.21 0-2.183.974-2.183 2.184v2.91c0 1.21.974 2.184 2.183 2.184 1.21 0 2.183-.974 2.183-2.183v-2.911c0-1.21-.973-2.184-2.183-2.184" style="fill:#fff;fill-opacity:1;stroke-width:.99997"/><path d="M28.378 29.194a4.367 4.367 0 0 1-4.367 4.367 4.367 4.367 0 0 1-4.367-4.367 4.367 4.367 0 0 1 4.367-4.366 4.367 4.367 0 0 1 4.367 4.366" style="opacity:.2;stroke-width:.99997"/><path d="M28.378 28.467a4.367 4.367 0 0 1-4.367 4.366 4.367 4.367 0 0 1-4.367-4.366 4.367 4.367 0 0 1 4.367-4.367 4.367 4.367 0 0 1 4.367 4.367" style="fill:#999;stroke-width:.99997;fill-opacity:1"/></svg>