<svg xmlns="http://www.w3.org/2000/svg" xmlns:xlink="http://www.w3.org/1999/xlink" width="48" height="48" viewBox="0 0 12.7 12.7"><defs><linearGradient id="a"><stop offset="0" stop-color="#2980b9"/><stop offset="1" stop-color="#3daee9"/></linearGradient><linearGradient id="b" x1="24" x2="24" y1="294" y2="257" gradientTransform="matrix(3.77953 0 0 3.68954 0 -918.425)" gradientUnits="userSpaceOnUse"><stop offset="0" stop-color="#27ae60"/><stop offset="1" stop-color="#2ecc71"/></linearGradient><linearGradient xlink:href="#a" id="e" x1="90.709" x2="90.709" y1="193.885" y2="90.709" gradientUnits="userSpaceOnUse"/><linearGradient id="d" x1="24" x2="24" y1="51.299" y2="24" gradientUnits="userSpaceOnUse"><stop offset="0" stop-color="#1d99f3"/><stop offset="1" stop-color="#3daee9"/></linearGradient><linearGradient xlink:href="#a" id="c" x1="24" x2="24" y1="51.299" y2="24" gradientTransform="scale(3.77953)" gradientUnits="userSpaceOnUse"/></defs><g transform="matrix(.26458 0 0 .26458 0 0)"><rect width="40" height="40" x="4" y="4" fill="#34495e" rx="6" ry="6" style="paint-order:stroke fill markers"/><path fill="#34495e" d="M37.795 15.117a22.63 22.63 0 0 0-22.678 22.678v102.047a22.63 22.63 0 0 0 22.678 22.678H143.62a22.63 22.63 0 0 0 22.678-22.678V37.795a22.63 22.63 0 0 0-22.678-22.678z" style="paint-order:markers fill stroke" transform="scale(.26458)"/><path fill="url(#b)" d="M37.795 15.117a22.63 22.63 0 0 0-22.678 22.678v102.047a22.63 22.63 0 0 0 22.678 22.678H143.62a22.63 22.63 0 0 0 22.678-22.678V37.795a22.63 22.63 0 0 0-22.678-22.678z" style="paint-order:markers fill stroke" transform="scale(.26458)"/><path fill="#eff0f1" d="M25.188 18.926a22.63 22.63 0 0 0-9.1 12.28l131.045 131.046a22.6 22.6 0 0 0 13.726-7.654z" style="paint-order:normal" transform="scale(.26458)"/><path fill="#eff0f1" d="M156.23 18.926 83.8 91.357l10.69 10.69 70.841-70.842a22.63 22.63 0 0 0-9.1-12.28" style="paint-order:normal" transform="scale(.26458)"/><path fill="url(#c)" d="M159.203 21.299 88.037 92.465a3.78 3.78 0 0 0 0 5.346l20.824 20.824a3.78 3.78 0 1 0 5.344-5.346L96.053 95.14 163.79 27.4a22.6 22.6 0 0 0-4.588-6.101" color="#000" style="font-feature-settings:normal;font-variant-alternates:normal;font-variant-caps:normal;font-variant-ligatures:normal;font-variant-numeric:normal;font-variant-position:normal;isolation:auto;mix-blend-mode:normal;shape-padding:0;text-decoration-color:#000;text-decoration-line:none;text-decoration-style:solid;text-indent:0;text-orientation:mixed;text-transform:none;white-space:normal" transform="scale(.26458)"/><path fill="#f39c1f" d="M15.117 41.574v22.678H166.3V41.574z" style="paint-order:normal" transform="scale(.26458)"/><path fill="#fdbc4b" d="M15.117 45.354v15.119H166.3v-15.12z" style="paint-order:normal" transform="scale(.26458)"/><path fill="#fdbc4b" d="M15.117 75.264v15.422q.687.174 1.352.384c3.256 1.044 6.213 2.772 8.42 4.98 3.586 3.59 6.028 9.459 8.685 16.243 2.69 6.866 5.933 15.133 13.21 21.344 7.26 6.198 16.109 8.174 23.821 9.222 7.638 1.038 14.487 1.351 20.09 3.078 5.266 1.624 10.203 4.636 14.17 8.586 2.359 2.349 4.39 5.061 6.057 7.997h16.668c-2.652-6.965-6.719-13.392-12.057-18.708-5.667-5.642-12.658-9.942-20.385-12.324-8.151-2.512-15.882-2.709-22.507-3.61-6.55-.89-12.355-2.595-16.041-5.741-3.71-3.166-6.37-8.774-8.948-15.356-2.61-6.663-5.446-14.786-12.068-21.414-4.142-4.145-9.205-6.993-14.502-8.691a41.5 41.5 0 0 0-5.965-1.412" color="#000" style="font-feature-settings:normal;font-variant-alternates:normal;font-variant-caps:normal;font-variant-ligatures:normal;font-variant-numeric:normal;font-variant-position:normal;isolation:auto;mix-blend-mode:normal;paint-order:fill markers stroke;shape-padding:0;text-decoration-color:#000;text-decoration-line:none;text-decoration-style:solid;text-indent:0;text-orientation:mixed;text-transform:none;white-space:normal" transform="scale(.26458)"/><path fill="#eff0f1" d="M28.118 29.29s.317 1.73.829 3.657l5.86 5.861a3.98 3.98 0 0 0 2.83-2.828l-5.862-5.862c-1.926-.512-3.657-.828-3.657-.828" style="paint-order:normal"/></g><g transform="matrix(.26458 0 0 .26458 0 0)"><path fill="url(#d)" d="M29.349 30.52s1.266 6.923 2.828 8.485a4 4 0 1 0 5.657-5.657c-1.562-1.562-8.485-2.828-8.485-2.828" style="paint-order:normal"/><path fill="url(#e)" d="M15.117 82.93v56.912a22.63 22.63 0 0 0 22.678 22.678h81.611c-2.25-4.952-5.354-9.515-9.207-13.352-4.817-4.797-10.78-8.453-17.277-10.455-6.878-2.12-14.168-2.375-21.299-3.344s-14.458-2.81-19.932-7.482c-5.492-4.688-8.445-11.626-11.078-18.35S35.34 95.817 30.236 90.71c-3.174-3.177-7.184-5.465-11.46-6.836a33 33 0 0 0-3.659-.943" style="paint-order:stroke fill markers" transform="scale(.26458)"/><circle cx="-.828" cy="50.334" r="2.994" fill="#eff0f1" style="paint-order:normal" transform="rotate(-45)"/><path fill="#34495e" fill-opacity=".128" d="M147.498 15.453q.38.063.754.137c-.25-.051-.502-.094-.754-.137m4.967 145.289" style="paint-order:stroke fill markers" transform="scale(.26458)"/><path fill="#fff" fill-opacity=".128" d="M37.795 15.117a22.63 22.63 0 0 0-22.678 22.678v51.023H166.3V37.795a22.63 22.63 0 0 0-22.678-22.678z" style="paint-order:stroke fill markers" transform="scale(.26458)"/><path fill="#34495e" fill-opacity=".075" d="M90.709 15.117V162.52h52.912a22.63 22.63 0 0 0 22.678-22.678V37.795a22.63 22.63 0 0 0-22.678-22.678z" style="paint-order:stroke fill markers" transform="scale(.26458)"/></g></svg>