<svg xmlns="http://www.w3.org/2000/svg" xmlns:xlink="http://www.w3.org/1999/xlink" width="48" height="48"><defs><linearGradient id="m" x1="400.57" x2="392.9" y1="537.6" y2="546.58" gradientTransform="matrix(1.25 0 0 1.26667 -92.14 -151.08)" gradientUnits="userSpaceOnUse"><stop stop-color="#ffc35a" style="stop-color:#faae2a;stop-opacity:1"/><stop offset="1" stop-color="#faae2a" style="stop-color:#fcd187;stop-opacity:1"/></linearGradient><linearGradient id="k" x2="0" y1="43.922" y2="2.987" gradientTransform="translate(-122.513 -45.504)" gradientUnits="userSpaceOnUse"><stop stop-color="#22a7f0" style="stop-color:#085077;stop-opacity:1"/><stop offset="1" stop-color="#19b5fe" style="stop-color:#0db1fe;stop-opacity:1"/></linearGradient><linearGradient xlink:href="#k" id="r" x1="44" x2="4" y1="44" y2="4" gradientTransform="translate(-.125 -.125)scale(1.03125)" gradientUnits="userSpaceOnUse"/><linearGradient xlink:href="#m" id="q" x1="44" x2="4" y1="44" y2="4" gradientTransform="translate(-1.375 -1.375)scale(1.03125)" gradientUnits="userSpaceOnUse"/></defs><path d="M36 14v4c-.052 4.25-3 7-7.035 6.97L19 25c-3.503 0-4.913 3-4.93 5.014L14 38.375C13.974 41.491 16.509 44 19.625 44h7.5c3.116 0 5.87-2.46 5.872-5.576L33 35H23v-2l13.055.047C40.21 33.06 44 29.405 44 25.25V21.5c0-4.155-3.845-7.5-8-7.5m-7 22.5a1.87 1.87 0 0 1 1.875 1.875A1.87 1.87 0 0 1 29 40.25a1.87 1.87 0 0 1-1.875-1.875A1.87 1.87 0 0 1 29 36.5" style="fill:url(#q);fill-opacity:1;stroke:none;stroke-width:2.0625;stroke-linecap:round;stroke-linejoin:round;stroke-miterlimit:4;stroke-dasharray:none;stroke-opacity:1"/><path d="M20.875 4c-3.116 0-5.87 2.46-5.872 5.576L15 13h10v2l-13.154.052C7.691 15.07 4 18.595 4 22.75v3.75c0 4.155 3.845 7.5 8 7.5v-4c0-4.563 2.36-6.96 7-7h10c3 0 5-2.55 5-4V9.625A5.613 5.613 0 0 0 28.375 4ZM19 7.75a1.87 1.87 0 0 1 1.875 1.875A1.87 1.87 0 0 1 19 11.5a1.87 1.87 0 0 1-1.875-1.875A1.87 1.87 0 0 1 19 7.75" style="fill:url(#r);fill-opacity:1;stroke-width:1.875"/><path d="m17 21-1 .102a6.5 6.5 0 0 0-5.967 6.767l.01.131H10v5.734c.649.169 1.32.266 2 .266v-4c0-4.563 2.36-6.96 7-7h10c1.818 0 3.258-.94 4.12-2zm6 10v2l13.055.047c1.931.007 3.779-.786 5.209-2.047zm-7.69 11a5.63 5.63 0 0 0 4.315 2h7.5a5.6 5.6 0 0 0 4.305-2z" style="opacity:.2;fill:#000;fill-opacity:1;stroke:none;stroke-width:2;stroke-linecap:round;stroke-linejoin:round;stroke-miterlimit:4;stroke-dasharray:none;stroke-opacity:1"/></svg>