<svg xmlns="http://www.w3.org/2000/svg" xmlns:xlink="http://www.w3.org/1999/xlink" width="48" height="48"><defs><linearGradient id="j"><stop offset="0" style="stop-color:#f10000;stop-opacity:1"/><stop offset="1" style="stop-color:#b20000;stop-opacity:1"/></linearGradient><linearGradient id="i"><stop offset="0" style="stop-color:#fff;stop-opacity:1"/><stop offset="1" style="stop-color:#fff;stop-opacity:0"/></linearGradient><linearGradient id="d" x1="4" x2="43" y1="18" y2="31" gradientTransform="translate(0 -2)" gradientUnits="userSpaceOnUse"><stop stop-color="#292c2f" style="stop-color:#000;stop-opacity:1"/><stop offset="1" stop-opacity="0" style="stop-color:#000;stop-opacity:.32644629"/></linearGradient><linearGradient xlink:href="#d" id="k" x1="30.625" x2="44" y1="14" y2="28" gradientTransform="translate(0 14)" gradientUnits="userSpaceOnUse"/><linearGradient xlink:href="#i" id="m" x1="16.75" x2="36" y1="-4.5" y2="32" gradientUnits="userSpaceOnUse"/><radialGradient xlink:href="#j" id="l" cx="20.853" cy="17.349" r="8.129" fx="20.853" fy="17.349" gradientTransform="matrix(-.01163 1.19509 -1.27492 -.0124 46.24 -9.623)" gradientUnits="userSpaceOnUse"/></defs><g style="display:inline"><path d="M24.156 23.813 4 18.843V43c0 .554.446 1 1 1h16.02z" style="color:#000;clip-rule:nonzero;display:inline;overflow:visible;visibility:visible;opacity:1;isolation:auto;mix-blend-mode:normal;color-interpolation:sRGB;color-interpolation-filters:linearRGB;solid-color:#000;solid-opacity:1;fill:#0d9e0e;fill-opacity:1;fill-rule:nonzero;stroke-width:2;stroke-linecap:butt;stroke-linejoin:bevel;stroke-miterlimit:4;stroke-dasharray:none;stroke-dashoffset:0;stroke-opacity:1;color-rendering:auto;image-rendering:auto;shape-rendering:auto;text-rendering:auto"/><path d="M5 4c-.554 0-1 .446-1 1v15l20 4 4-20zM44 28l-20-4-4 20h23c.554 0 1-.446 1-1z" style="color:#000;clip-rule:nonzero;display:inline;overflow:visible;visibility:visible;opacity:1;isolation:auto;mix-blend-mode:normal;color-interpolation:sRGB;color-interpolation-filters:linearRGB;solid-color:#000;solid-opacity:1;fill:#08c513;fill-opacity:1;fill-rule:nonzero;stroke-width:2;stroke-linecap:butt;stroke-linejoin:bevel;stroke-miterlimit:4;stroke-dasharray:none;stroke-dashoffset:0;stroke-opacity:1;color-rendering:auto;image-rendering:auto;shape-rendering:auto;text-rendering:auto"/><path d="m26.867 4-3.066 20.188L44 28.03V5c0-.554-.446-1-1-1Z" style="color:#000;clip-rule:nonzero;display:inline;overflow:visible;visibility:visible;opacity:1;isolation:auto;mix-blend-mode:normal;color-interpolation:sRGB;color-interpolation-filters:linearRGB;solid-color:#000;solid-opacity:1;fill:#0d9e0e;fill-opacity:1;fill-rule:nonzero;stroke-width:2;stroke-linecap:butt;stroke-linejoin:bevel;stroke-miterlimit:4;stroke-dasharray:none;stroke-dashoffset:0;stroke-opacity:1;color-rendering:auto;image-rendering:auto;shape-rendering:auto;text-rendering:auto"/><path d="M4 42v1c0 .554.446 1 1 1h38c.554 0 1-.446 1-1v-1c0 .554-.446 1-1 1H5c-.554 0-1-.446-1-1" style="opacity:.738;fill:#056b00;fill-opacity:1"/><path d="m16 38 6 6h21c.554 0 1-.446 1-1V22L34 12l-1 5.063L31 19h-8l-7-6.875-1.187 6.938 1.937 6.812 7.313 7.5L24 36Z" style="opacity:.2;fill:url(#k);fill-rule:evenodd"/><path d="M4 6V5c0-.554.446-1 1-1h38c.554 0 1 .446 1 1v1c0-.554-.446-1-1-1H5c-.554 0-1 .446-1 1" style="opacity:.35;fill:#fff;fill-opacity:1"/><path d="M4.219 4.25v.156c0 .216.149.396.424.502-.442.147-.645.547-.645.817v.156c0-.334.415-.879 1-.879h.154c.02 0 .034.006.055.006h37.555c.02 0 .034-.006.054-.006h.182c.593 0 1 .557 1 .89v-.156c0-.27-.242-.682-.672-.83.272-.106.424-.285.424-.5V4.25c0 .323-.416.58-.94.596H5.159c-.523-.017-.94-.273-.94-.596" style="opacity:.569;fill:#fff;fill-opacity:1"/><path d="M4.219 43.752v-.156c0-.216.149-.396.424-.502-.442-.148-.645-.547-.645-.817v-.156c0 .334.415.879 1 .879h.154c.02 0 .034-.006.055-.006h37.555c.02 0 .034.005.054.006h.182c.593 0 1-.557 1-.89v.156c0 .27-.242.682-.672.83.272.106.424.285.424.5v.156c0-.323-.416-.58-.94-.596H5.159c-.523.017-.94.273-.94.596" style="opacity:.676;fill:#54ff58;fill-opacity:1"/></g><g style="display:inline"><rect width="40" height="40" x="4" y="4" rx="1" ry="1" style="color:#000;clip-rule:nonzero;display:inline;overflow:visible;visibility:visible;opacity:1;isolation:auto;mix-blend-mode:normal;color-interpolation:sRGB;color-interpolation-filters:linearRGB;solid-color:#000;solid-opacity:1;fill:#6e6e6e;fill-opacity:.19421488;fill-rule:nonzero;stroke:none;stroke-width:2;stroke-linecap:butt;stroke-linejoin:bevel;stroke-miterlimit:4;stroke-dasharray:none;stroke-dashoffset:0;stroke-opacity:1;marker:none;color-rendering:auto;image-rendering:auto;shape-rendering:auto;text-rendering:auto"/></g><g style="display:inline"><rect width="19.787" height="7.094" x="14" y="12" rx="0" ry="0" style="color:#000;clip-rule:nonzero;display:inline;overflow:visible;visibility:visible;opacity:1;isolation:auto;mix-blend-mode:normal;color-interpolation:sRGB;color-interpolation-filters:linearRGB;solid-color:#000;solid-opacity:1;fill:#fff;fill-opacity:.33471075;fill-rule:nonzero;stroke:none;stroke-width:2;stroke-linecap:butt;stroke-linejoin:bevel;stroke-miterlimit:4;stroke-dasharray:none;stroke-dashoffset:0;stroke-opacity:1;marker:none;color-rendering:auto;image-rendering:auto;shape-rendering:auto;text-rendering:auto"/><path d="M16.026 19.217a8.117 8.117 0 0 0 16.231 0L32 17l-16 .022Z" style="color:#000;clip-rule:nonzero;display:inline;overflow:visible;visibility:visible;opacity:1;isolation:auto;mix-blend-mode:normal;color-interpolation:sRGB;color-interpolation-filters:linearRGB;solid-color:#000;solid-opacity:1;fill:url(#l);fill-opacity:1;fill-rule:nonzero;stroke:none;stroke-width:2;stroke-linecap:butt;stroke-linejoin:bevel;stroke-miterlimit:4;stroke-dasharray:none;stroke-dashoffset:0;stroke-opacity:1;marker:none;color-rendering:auto;image-rendering:auto;shape-rendering:auto;text-rendering:auto"/><path d="M14 12v7c0 5.185 3.947 9.449 9 9.951V36h-5c-1.108 0-2 .892-2 2h16c0-1.108-.892-2-2-2h-5v-7.049c5.053-.502 9-4.766 9-9.951v-7h-2v7l.002.031a8.033 8.033 0 0 1-8.033 8.032C19.533 27.063 16 23.436 16 19l.002-.031H16V12z" style="color:#000;clip-rule:nonzero;display:inline;overflow:visible;visibility:visible;opacity:1;isolation:auto;mix-blend-mode:normal;color-interpolation:sRGB;color-interpolation-filters:linearRGB;solid-color:#000;solid-opacity:1;fill:#e8e8e8;fill-opacity:1;fill-rule:nonzero;stroke:none;stroke-width:2;stroke-linecap:butt;stroke-linejoin:bevel;stroke-miterlimit:4;stroke-dasharray:none;stroke-dashoffset:0;stroke-opacity:1;marker:none;color-rendering:auto;image-rendering:auto;shape-rendering:auto;text-rendering:auto"/><path d="M16 18.004 32 18v-1H16Z" style="color:#000;clip-rule:nonzero;display:inline;overflow:visible;visibility:visible;opacity:.23900003;isolation:auto;mix-blend-mode:normal;color-interpolation:sRGB;color-interpolation-filters:linearRGB;solid-color:#000;solid-opacity:1;fill:#fff;fill-opacity:1;fill-rule:nonzero;stroke:none;stroke-width:2;stroke-linecap:butt;stroke-linejoin:bevel;stroke-miterlimit:4;stroke-dasharray:none;stroke-dashoffset:0;stroke-opacity:1;marker:none;color-rendering:auto;image-rendering:auto;shape-rendering:auto;text-rendering:auto"/><path d="M14 12v7c0 5.185 3.947 9.449 9 9.951V36h-5c-1.108 0-2 .892-2 2h16c0-1.108-.892-2-2-2h-5v-7.049c5.053-.502 9-4.766 9-9.951v-7h-2v7l.002.031a8.033 8.033 0 0 1-8.033 8.032C19.533 27.063 16 23.436 16 19l.002-.031H16V12z" style="color:#000;clip-rule:nonzero;display:inline;overflow:visible;visibility:visible;opacity:1;isolation:auto;mix-blend-mode:normal;color-interpolation:sRGB;color-interpolation-filters:linearRGB;solid-color:#000;solid-opacity:1;fill:#e8e8e8;fill-opacity:1;fill-rule:nonzero;stroke:none;stroke-width:2;stroke-linecap:butt;stroke-linejoin:bevel;stroke-miterlimit:4;stroke-dasharray:none;stroke-dashoffset:0;stroke-opacity:1;marker:none;color-rendering:auto;image-rendering:auto;shape-rendering:auto;text-rendering:auto"/></g><g style="display:inline"><rect width="40" height="40" x="4" y="4" rx="1" ry="1" style="color:#000;clip-rule:nonzero;display:inline;overflow:visible;visibility:visible;opacity:.55100002;isolation:auto;mix-blend-mode:normal;color-interpolation:sRGB;color-interpolation-filters:linearRGB;solid-color:#000;solid-opacity:1;fill:url(#m);fill-opacity:1;fill-rule:nonzero;stroke:none;stroke-width:2;stroke-linecap:butt;stroke-linejoin:bevel;stroke-miterlimit:4;stroke-dasharray:none;stroke-dashoffset:0;stroke-opacity:1;marker:none;color-rendering:auto;image-rendering:auto;shape-rendering:auto;text-rendering:auto"/><path d="m17.926 17.657.225 2.764 2.764.225-2.764.225-.225 2.764-.225-2.764-2.764-.225 2.764-.225z" style="color:#000;clip-rule:nonzero;display:inline;overflow:visible;visibility:visible;opacity:.62400004;isolation:auto;mix-blend-mode:normal;color-interpolation:sRGB;color-interpolation-filters:linearRGB;solid-color:#000;solid-opacity:1;fill:#fff;fill-opacity:1;fill-rule:nonzero;stroke:none;stroke-width:2;stroke-linecap:butt;stroke-linejoin:bevel;stroke-miterlimit:4;stroke-dasharray:none;stroke-dashoffset:0;stroke-opacity:1;marker:none;color-rendering:auto;image-rendering:auto;shape-rendering:auto;text-rendering:auto"/><path d="m19.734 21.176.119 1.58 1.58.118-1.58.119-.119 1.58-.118-1.58-1.58-.119 1.58-.119z" style="color:#000;clip-rule:nonzero;display:inline;overflow:visible;visibility:visible;opacity:.62400004;isolation:auto;mix-blend-mode:normal;color-interpolation:sRGB;color-interpolation-filters:linearRGB;solid-color:#000;solid-opacity:1;fill:#fff;fill-opacity:1;fill-rule:nonzero;stroke:none;stroke-width:2;stroke-linecap:butt;stroke-linejoin:bevel;stroke-miterlimit:4;stroke-dasharray:none;stroke-dashoffset:0;stroke-opacity:1;marker:none;color-rendering:auto;image-rendering:auto;shape-rendering:auto;text-rendering:auto"/><path d="m13.999 12.015 2-.011v.287h-2zM31.999 12.015l2-.011v.287h-2z" style="display:inline;opacity:.7;fill:#fff;fill-opacity:1;fill-rule:evenodd;stroke:none;stroke-width:1px;stroke-linecap:butt;stroke-linejoin:miter;stroke-opacity:1"/><path d="M16.064 20.063c.475 4.024 3.825 7.267 7.908 7.272 4.085-.003 7.492-3.247 7.967-7.273h-.011c-.508 3.948-3.874 7-7.96 7-4.074 0-7.38-3.063-7.892-7zM18 36c-1.108 0-2 .892-2 2h.025A1.99 1.99 0 0 1 18 36.248h5V36Zm7 0v.248h5c1.023 0 1.852.763 1.975 1.752H32c0-1.108-.892-2-2-2z" style="color:#000;clip-rule:nonzero;display:inline;overflow:visible;visibility:visible;opacity:1;isolation:auto;mix-blend-mode:normal;color-interpolation:sRGB;color-interpolation-filters:linearRGB;solid-color:#000;solid-opacity:1;fill:#fff;fill-opacity:1;fill-rule:nonzero;stroke:none;stroke-width:2;stroke-linecap:butt;stroke-linejoin:bevel;stroke-miterlimit:4;stroke-dasharray:none;stroke-dashoffset:0;stroke-opacity:1;marker:none;color-rendering:auto;image-rendering:auto;shape-rendering:auto;text-rendering:auto"/></g></svg>