<svg xmlns="http://www.w3.org/2000/svg" xmlns:xlink="http://www.w3.org/1999/xlink" width="48" height="48" version="1.0"><defs><linearGradient id="c" x1="216" x2="216" y1="28" y2="284" gradientTransform="matrix(.20834 0 0 .2299 -7.668 -11.867)" gradientUnits="userSpaceOnUse"><stop offset="0" stop-color="#d4279f"/><stop offset="1" stop-color="#fa3da3"/></linearGradient><linearGradient id="b" x1="38.31" x2="264" y1="270.69" y2="268" gradientTransform="matrix(0 .16314 -.16292 0 49.415 -.961)" gradientUnits="userSpaceOnUse"><stop offset="0" stop-color="#4d4d4d"/><stop offset="1" stop-color="#4d4d4d"/></linearGradient><linearGradient xlink:href="#a" id="d" x1="42.102" x2="5.84" y1="42.005" y2="6.005" gradientTransform="matrix(-1.0961 0 0 1.0961 50.306 -2.126)" gradientUnits="userSpaceOnUse"/><linearGradient xlink:href="#b" id="e" x1="42" x2="6" y1="42" y2="6" gradientTransform="translate(-2.307 -2.126)scale(1.0961)" gradientUnits="userSpaceOnUse"/><linearGradient id="a"><stop offset="0" style="stop-color:#a0a0a0;stop-opacity:1"/><stop offset="1" style="stop-color:#555;stop-opacity:1"/></linearGradient></defs><path d="M24 3.973v40.055h13.05c6.303 0 6.95-.649 6.95-6.973v-26.11c0-6.324-.647-6.973-6.95-6.973Z" style="fill:url(#c);stroke-width:.6851092"/><path d="M4 24.18v12.875c0 6.325.646 6.973 6.95 6.973H24V24.18Z" style="fill:url(#d);fill-opacity:1;stroke-width:.6851092"/><path d="M10.95 3.973c-6.304 0-6.95.648-6.95 6.973V24.18h20V3.973Z" style="opacity:1;fill:url(#e);fill-opacity:1;stroke:none;stroke-width:2.192204;stroke-linecap:round;stroke-linejoin:round;stroke-miterlimit:4;stroke-dasharray:none;stroke-opacity:1"/><path d="M13.589 9.777c-.497 0-1.186.173-2.524.627-.13.043-.13.042-.238.086l.086.325c.841-.216.993-.238 1.21-.238.539 0 .667.194.97 1.49l.626 2.66-1.77 2.526c-.453.648-.863 1.038-1.1 1.038-.13 0-.346-.065-.561-.195-.28-.151-.498-.216-.692-.216-.431 0-.732.323-.732.756 0 .561.41.907 1.079.907s.927-.193 2.006-1.49c.582-.713 1.057-1.361 1.942-2.55l.648 2.593c.28 1.124.56 1.447 1.25 1.447.82 0 1.382-.517 2.634-2.462l-.302-.173a8 8 0 0 0-.475.582c-.497.648-.756.865-1.015.865-.302 0-.496-.281-.647-.886-.064-.238-.064-.28-.085-.345-.54-2.204-.777-3.197-.777-3.522.97-1.685 1.724-2.616 2.113-2.616.129 0 .323.066.518.174.259.151.411.195.606.195.431 0 .732-.324.732-.778 0-.475-.367-.8-.884-.8-.95 0-1.748.78-3.259 3.091l-.237-1.19c-.303-1.47-.54-1.901-1.122-1.901M29.03 20.209v1.897h9.907v-1.897zm0 5.688v1.895h9.907v-1.895zm-14.965 2.289q-2.242 0-3.64 1.323-1.388 1.321-1.389 3.194 0 1.688 1 2.796.999 1.107 2.212 1.35l.017.514h-2.083q-.634 0-.925-.214-.289-.214-.32-.757h-.282v2.39h4.273l-.145-2.305q-1.145-.421-1.55-1.453-.405-1.04-.405-2.3 0-1.742.902-2.858.907-1.122 2.288-1.121 1.298 0 2.259 1.053.97 1.055.97 3.033-.001 3.027-1.97 3.646l-.197 2.306h4.27v-2.391h-.28q-.016.42-.252.695-.23.276-.955.276h-2.12l.075-.513q1.466-.428 2.321-1.527.861-1.108.86-2.69 0-1.948-1.38-3.193-1.38-1.253-3.554-1.254" style="font-variant-ligatures:normal;font-variant-caps:normal;font-variant-numeric:normal;font-feature-settings:normal;fill:#f2f2f2;stroke-width:.17869967px"/></svg>