<svg xmlns="http://www.w3.org/2000/svg" xmlns:xlink="http://www.w3.org/1999/xlink" width="48" height="48"><defs><linearGradient id="b" x2="0" y1="44" y2="4" gradientUnits="userSpaceOnUse"><stop stop-color="#7cbaf8"/><stop offset="1" stop-color="#f4fcff"/></linearGradient><linearGradient id="d" x2="0" y1="39" y2="9" gradientTransform="matrix(1.02857 0 0 1.2 -5.314 -2013.52)" gradientUnits="userSpaceOnUse"><stop stop-color="#197cf1"/><stop offset="1" stop-color="#20bcfa"/></linearGradient><linearGradient id="a" x1="25.04" x2="42.99" y1="13.01" y2="30.26" gradientUnits="userSpaceOnUse"><stop stop-color="#292c2f"/><stop offset="1" stop-color="#292c2f" stop-opacity="0"/></linearGradient><linearGradient xlink:href="#a" id="e" x1="14.59" x2="36.06" y1="18.26" y2="40.44" gradientUnits="userSpaceOnUse"/></defs><g stroke-width="2"><g fill-rule="evenodd" color="#000"><path fill="url(#b)" d="M44 24a20 20 0 0 1-20 20A20 20 0 0 1 4 24 20 20 0 0 1 24 4a20 20 0 0 1 20 20"/><path fill="url(#d)" d="M24 6C14.059 6 6 14.06 6 24c0 9.941 8.06 18 18 18 9.941 0 18-8.06 18-18 0-9.941-8.06-18-18-18m1 7h2v6.08A7 6 0 0 1 31 18a7 6 0 0 1 7 6 7 6 0 0 1-7 6 7 6 0 0 1-4-1.086V31h-2zm-4 4h2v18h-2v-6.08A7 6 0 0 1 17 30a7 6 0 0 1-7-6 7 6 0 0 1 7-6 7 6 0 0 1 4 1.086zm-4 3a5 4 0 0 0-5 4 5 4 0 0 0 5 4 5 4 0 0 0 4-1.61v-4.782A5 4 0 0 0 17 20m14 0a5 4 0 0 0-4 1.61v4.783A5 4 0 0 0 31 28a5 4 0 0 0 5-4 5 4 0 0 0-5-4"/></g><path fill="url(#e)" d="m23.01 17.06-.014.023v17.916h-2v-6.08a7 6 0 0 1-4 1.08 7 6 0 0 1-5.437-2.228l-.021.02 15.906 15.905a20 20 0 0 0 13.34-8.864l-5.87-5.869a7 6 0 0 1-3.918 1.035 7 6 0 0 1-4-1.086v2.086h-2V19.045z" opacity=".2"/><path fill="url(#a)" d="M27 13.01v6.066a7 6 0 0 1 4-1.08 7 6 0 0 1 1.06.074zm8.773 6.563-.023.023a7 6 0 0 1 .328.281zm.752.752A7 6 0 0 1 38 23.997a7 6 0 0 1-7 6 7 6 0 0 1-4-1.086v2.086h-1.955l9.8 9.8a20 20 0 0 0 8.83-13.321z" opacity=".2"/></g></svg>