<svg xmlns="http://www.w3.org/2000/svg" xmlns:xlink="http://www.w3.org/1999/xlink" width="48" height="48"><defs><linearGradient id="a" x1="-14.65" x2="-6.43" y1="9.178" y2="17.522" gradientTransform="translate(1.01 -1.022)" gradientUnits="userSpaceOnUse"><stop/><stop offset="1" stop-opacity="0"/></linearGradient><linearGradient xlink:href="#a" id="d" x1="-28.756" x2="-10.858" y1="9.268" y2="27.436" gradientTransform="translate(0 -1.022)" gradientUnits="userSpaceOnUse"/><linearGradient id="b" x1="-41.26" x2="-2.994" y1="-.883" y2="37.956" gradientTransform="translate(-1.01 -1.022)" gradientUnits="userSpaceOnUse"><stop stop-color="#66b036"/><stop offset="1" stop-color="#239161"/></linearGradient><linearGradient id="e" x1="-2.994" x2="-41.26" y1="37.956" y2="-.883" gradientTransform="translate(0 -1.022)" gradientUnits="userSpaceOnUse"><stop stop-color="#34495e"/><stop offset="1" stop-color="#1c7865"/></linearGradient><linearGradient id="f" x1="548.57" x2="562.57" gradientUnits="userSpaceOnUse"><stop stop-color="#faae2a"/><stop offset="1" stop-color="#ffc35a"/></linearGradient><linearGradient id="h" x1="548.57" x2="562.57" gradientUnits="userSpaceOnUse"><stop stop-color="#c61423"/><stop offset="1" stop-color="#dc2b41"/></linearGradient><path id="g" d="m11 3.286-7 6.857h4.2L11 23.857l2.8-13.714H18z"/></defs><g transform="matrix(.99317 0 0 .97839 45.973 4.864)"><path fill="url(#b)" d="M-36.03-.883c-2.894 0-5.137 2.332-5.223 5.224v33.615h33.04a5.21 5.21 0 0 0 5.223-5.224V-.883z"/><g fill-rule="evenodd" stroke-width="1.014"><path fill="url(#d)" d="m-29.17 6.271-3.02 4.088 2.458 17.375 3.02 2.044-1.074 2.044 4.332 4.398 13.01-1.912a3.26 3.26 0 0 0 1.363-.603l-5.54-8.686.794-9.199-9.06-9.199z" opacity=".2"/><path fill="url(#a)" d="m-12.06 7.293-3.02 20.442 6.751 6.853c1.063-.939 2.311-3.634 2.311-5.304V13.426z" opacity=".2"/></g><g stroke-linejoin="bevel" stroke-width="2"><path fill="#fff" d="M-27.16 5.249c-4.03 0-7.05 2.044-7.05 11.754 0 8.01 2.149 10.798 5.086 11.53.524 6.17 6.997 4.312 6.997 4.312v-2.044s-2.611.88-2.975-2.29c2.888-.769 4.989-3.586 4.989-11.508 0-9.71-3.02-11.754-7.05-11.754m0 2.044c2.01 0 3.02 1.689 3.02 9.71 0 8.02-1.01 9.71-3.02 9.71s-3.02-1.689-3.02-9.71c0-8.02 1.01-9.71 3.02-9.71"/><path fill="url(#e)" d="M-2.994 31.71a5.21 5.21 0 0 1-5.223 5.224h-33.04v1.022h33.04a5.21 5.21 0 0 0 5.223-5.224z"/></g><path fill="#fff" fill-rule="evenodd" d="M-15.08 7.293h3.02v4.088h2.01v2.044h-2.01v11.243c0 2.044 2.01.511 2.01.511v2.044s-6.04 3.577-6.04-2.555V13.425h-1.01v-2.044h1.01z"/><use xlink:href="#g" fill="url(#f)" transform="matrix(0 .73006 -.88102 0 4.935 19.704)"/><use xlink:href="#g" fill="url(#h)" transform="matrix(0 .73006 .88102 0 -20.992 26.859)"/><g fill-rule="evenodd" color="#000"><path fill="#aa111e" d="m-17.312 34.225-.785.665 6.042 5.11v-1.33zm14.299.15-9.042 1.53v1.033L.027 34.894z"/><path fill="#e59305" d="m1.256 27.07.785.665-6.04 5.11v-1.33zm-14.299.15 9.04 1.531v1.028l-12.08-2.044z"/></g></g></svg>