<svg xmlns="http://www.w3.org/2000/svg" width="48" height="48"><defs><linearGradient id="a" x2="0" y1="1048.9" y2="1007.82" gradientUnits="userSpaceOnUse"><stop stop-color="#3889e9"/><stop offset="1" stop-color="#5ea5fb"/></linearGradient><linearGradient id="b" x1="396.57" x2="412.57" y1="513.38" y2="531.38" gradientTransform="translate(-384.57 504.98)" gradientUnits="userSpaceOnUse"><stop stop-color="#292c2f"/><stop offset="1" stop-opacity="0"/></linearGradient><linearGradient id="c" x2="0" y1="534.8" y2="510.8" gradientTransform="translate(-384.57 -499.8)" gradientUnits="userSpaceOnUse"><stop stop-color="#8cbdf8"/><stop offset="1" stop-color="#d5e8ff"/></linearGradient></defs><g fill-rule="evenodd"><path fill="#fff" d="M5 5h38v38H5z"/><path fill="url(#a)" d="M4 1008.36h40v40H4z" transform="translate(0 -1004.36)"/><path fill="#fff" d="M5 5v38h38V5zm1 1h36v36H6z" color="#000" opacity=".2"/><path fill="url(#b)" d="m10 1036.36 13 12h21v-25l-5-5v18h-4l-3 3-4-3z" opacity=".2" transform="translate(0 -1004.36)"/><path fill="url(#c)" d="M19.5 11a3.5 3.5 0 0 0-3.469 3h-6.03v8h-2v1h5v-1h-2v-7h5.03c.24 1.699 1.703 3 3.469 3a3.5 3.5 0 0 0 3.469-3h4.03v2h9v-2h2v16h-3.03a3.5 3.5 0 0 0-3.469-3 3.5 3.5 0 0 0-3.469 3h-3.125a1.48 1.48 0 0 0-1.406-1 1.5 1.5 0 0 0 0 3 1.48 1.48 0 0 0 1.406-1h3.125c.24 1.699 1.703 3 3.469 3a3.5 3.5 0 0 0 3.469-3h4.03V14h-3v-2h-9v2h-4.03a3.5 3.5 0 0 0-3.469-3m0 1c.503 0 .983.15 1.375.406L19.5 13.781l-1.375-1.375A2.53 2.53 0 0 1 19.5 12m-2.094 1.125 1.375 1.375-1.375 1.375a2.53 2.53 0 0 1 0-2.75m4.188 0a2.53 2.53 0 0 1 0 2.75L20.219 14.5zM19.5 15.219l1.375 1.375a2.53 2.53 0 0 1-2.75 0zM9 24v1h1v7h4.094c.204.586.75 1 1.406 1a1.5 1.5 0 0 0 1.469-1.813l5.313-3.063-.5-.875-5.344 3.094a1.48 1.48 0 0 0-.938-.344 1.48 1.48 0 0 0-1.406 1H11v-6h1v-1zm22.5 5a2.5 2.5 0 1 1 0 5 2.5 2.5 0 0 1 0-5m-16 2a.5.5 0 1 1 0 1 .5.5 0 0 1 0-1m8 0a.5.5 0 1 1 0 1 .5.5 0 0 1 0-1" color="#000"/></g></svg>