<svg xmlns="http://www.w3.org/2000/svg" width="48" height="48"><defs><linearGradient id="c" x1="406.57" x2="429.12" y1="538.8" y2="507.52" gradientTransform="matrix(-1.81818 0 0 1.2469 783.22 -627.83)" gradientUnits="userSpaceOnUse"><stop stop-color="#1d1d5b"/><stop offset="1" stop-color="#1f4778"/></linearGradient><linearGradient id="d" x1="433.32" x2="382.57" y1="-516.3" y2="-498.05" gradientTransform="matrix(1 0 0 -1 -384.57 -499.8)" gradientUnits="userSpaceOnUse"><stop stop-color="#363d68"/><stop offset="1" stop-color="#5272a2" stop-opacity=".427"/></linearGradient><linearGradient id="e" x1="46" x2="45.75" y1="61.25" y2="49.25" gradientTransform="matrix(-1 0 0 1 442.57 482.8)" gradientUnits="userSpaceOnUse"><stop stop-color="#3e5172"/><stop offset="1" stop-color="#6f7da0"/></linearGradient><linearGradient id="f" x1="52.625" x2="41.38" y1="23.375" y2="13.25" gradientTransform="rotate(180 228.285 280.4)" gradientUnits="userSpaceOnUse"><stop/><stop offset="1" stop-color="#655c6f" stop-opacity="0"/></linearGradient><linearGradient id="g" x1="393.57" x2="439.57" gradientTransform="matrix(1 0 0 -1 -384.57 -499.8)" gradientUnits="userSpaceOnUse"><stop stop-color="#fff" stop-opacity=".573"/><stop offset="1" stop-color="#fff" stop-opacity="0"/></linearGradient><linearGradient id="h" x1="394.57" x2="435.57" gradientTransform="matrix(1 0 0 -1 -384.57 -499.8)" gradientUnits="userSpaceOnUse"><stop stop-color="#0b084e"/><stop offset="1" stop-color="#e88f21" stop-opacity="0"/></linearGradient><linearGradient id="b" x1="393.74" x2="393.57" y1="548.89" y2="525.05" gradientTransform="translate(-384.57 -499.8)" gradientUnits="userSpaceOnUse"><stop stop-color="#2a3561"/><stop offset="1" stop-color="#192656"/></linearGradient></defs><path d="M16 44H4V32l13-1z" style="color:#000;fill:url(#b)"/><path d="M10.156 4A6.143 6.143 0 0 0 4 10.156V32l12 12h28V10.156A6.143 6.143 0 0 0 37.844 4Z" style="color:#000;fill:url(#c)"/><path d="M10.156 4A6.143 6.143 0 0 0 4 10.156V11h40v-.844A6.143 6.143 0 0 0 37.844 4Z" style="color:#4d4d4d;fill:url(#d)"/><path d="M23.84 16.125a6.22 6.22 0 0 0-6.221 6.221 6 6 0 0 0 .071.89l-.071-.001a4.444 4.444 0 0 0-4.444 4.444 4.444 4.444 0 0 0 4.444 4.444h11.554a5.333 5.333 0 0 0 5.333-5.333A5.33 5.33 0 0 0 30 21.526a6.22 6.22 0 0 0-6.16-5.402m0 .89a5 5 0 0 1 .532.025 5.33 5.33 0 0 1 2.477.906h.002a5.3 5.3 0 0 1 1.165 1.085v.002a5.33 5.33 0 0 1 1.08 2.429 5.3 5.3 0 0 1 .076.885 4.4 4.4 0 0 1 .885.089 4 4 0 0 1 .43.11h.001a4 4 0 0 1 .415.152h.002a4 4 0 0 1 .398.193l.004.002a4 4 0 0 1 .375.23l.004.002a4 4 0 0 1 .35.268l.002.002a4 4 0 0 1 .323.3l.002.002a4.4 4.4 0 0 1 .55.695l.003.002a4 4 0 0 1 .218.383l.002.002a4 4 0 0 1 .18.403l.003.002a4 4 0 0 1 .139.42v.002a4 4 0 0 1 .097.432v.002a4 4 0 0 1 .054.44 4 4 0 0 1 .01.313 4.444 4.444 0 0 1-4.444 4.444H17.622a3.555 3.555 0 0 1-3.555-3.555 4 4 0 0 1 .017-.354 3.555 3.555 0 0 1 3.538-3.201 4 4 0 0 1 .265.012v.002a3.6 3.6 0 0 1 1.028.233 5.3 5.3 0 0 1-.304-1.02 5 5 0 0 1-.066-.45l-.012-.103a5 5 0 0 1-.023-.451 5 5 0 0 1 .026-.533 5.333 5.333 0 0 1 5.307-4.8z" style="color:#4d4d4d;opacity:.38999999;fill:#8bddff"/><g style="fill-rule:evenodd"><path d="m388.57 531.8 12 12v-12z" style="fill:url(#e)" transform="translate(-384.57 -499.8)"/><path d="m412.57 543.8-12-12v12z" style="opacity:.2;fill:url(#f)" transform="translate(-384.57 -499.8)"/></g><path d="M10.156 4c-.852 0-1.663.172-2.4.482-.29.123-.505.355-.77.518h34.028c-.265-.163-.48-.395-.77-.518a6.2 6.2 0 0 0-2.4-.482Z" style="color:#4d4d4d;opacity:.25600011;fill:url(#g)"/><path d="M4 12h40v-1H4Z" style="color:#4d4d4d;opacity:.144;fill:url(#h)"/></svg>