<svg xmlns="http://www.w3.org/2000/svg" xmlns:xlink="http://www.w3.org/1999/xlink" width="48" height="48"><defs><linearGradient id="g" x1="-2.994" x2="-19.1" y1="36.39" y2="23.839" gradientUnits="userSpaceOnUse"><stop stop-color="#95a5a6"/><stop offset="1" stop-color="#eff0f1"/></linearGradient><linearGradient id="a" x1="-14.65" x2="-6.43" y1="9.178" y2="17.522" gradientTransform="translate(1.01 -1.022)" gradientUnits="userSpaceOnUse"><stop/><stop offset="1" stop-opacity="0"/></linearGradient><linearGradient xlink:href="#a" id="e" x1="-28.756" x2="-10.858" y1="9.268" y2="27.436" gradientTransform="translate(0 -1.022)" gradientUnits="userSpaceOnUse"/><linearGradient id="c" x1="-41.26" x2="-2.994" y1="-.883" y2="37.956" gradientTransform="translate(-1.01 -1.022)" gradientUnits="userSpaceOnUse"><stop stop-color="#66b036"/><stop offset="1" stop-color="#239161"/></linearGradient><linearGradient id="f" x1="-2.994" x2="-41.26" y1="37.956" y2="-.883" gradientTransform="translate(0 -1.022)" gradientUnits="userSpaceOnUse"><stop stop-color="#34495e"/><stop offset="1" stop-color="#1c7865"/></linearGradient></defs><path fill="url(#c)" d="M-36.03-.883c-2.894 0-5.137 2.332-5.223 5.224v33.615h33.04a5.21 5.21 0 0 0 5.223-5.224V-.883z" transform="matrix(.99317 0 0 .97839 45.973 4.864)"/><g fill-rule="evenodd" stroke-width="1.014"><path fill="url(#e)" d="m-29.17 6.271-3.02 4.088 2.458 17.375 3.02 2.044-1.074 2.044 4.332 4.398 13.01-1.912a3.26 3.26 0 0 0 1.363-.603l-5.54-8.686.794-9.199-9.06-9.199z" opacity=".2" transform="matrix(.99317 0 0 .97839 45.973 4.864)"/><path fill="url(#a)" d="m-12.06 7.293-3.02 20.442 6.751 6.853c1.063-.939 2.311-3.634 2.311-5.304V13.426z" opacity=".2" transform="matrix(.99317 0 0 .97839 45.973 4.864)"/></g><g stroke-linejoin="bevel" stroke-width="2"><path fill="#fff" d="M18.999 10c-4.003 0-7.002 2-7.002 11.5 0 7.836 2.134 10.564 5.05 11.28.521 6.037 6.95 4.22 6.95 4.22v-2s-2.593.86-2.955-2.241c2.869-.753 4.955-3.509 4.955-11.26 0-9.5-2.999-11.5-7.001-11.5m0 2c1.996 0 2.999 1.653 2.999 9.5s-1.003 9.5-3 9.5c-1.996 0-2.999-1.652-2.999-9.5 0-7.846 1.003-9.5 3-9.5"/><path fill="url(#f)" d="M-2.994 31.71a5.21 5.21 0 0 1-5.223 5.224h-33.04v1.022h33.04a5.21 5.21 0 0 0 5.223-5.224z" transform="matrix(.99317 0 0 .97839 45.973 4.864)"/></g><g fill-rule="evenodd" stroke-width="1.014"><path fill="url(#g)" d="M2.041 21.458s-3.344 2.232-6.288 3.934-5.488 2.875-7.089 4.993c-3.202 4.235-.63 9.603-.63 9.603s5.773 1.132 8.975-3.103c1.601-2.118 2.058-4.915 2.916-8.243.858-3.327 2.116-7.184 2.116-7.184" transform="matrix(.99317 0 0 .97839 45.973 4.864)"/><path fill="#7f8c8d" d="M48 25.86s-.34.215-.4.256a110 110 0 0 0-1.701 5.771c-.853 3.255-1.307 5.993-2.897 8.065-3.18 4.143-8.911 3.037-8.911 3.037s-.829-1.714-.952-3.953c-.13 2.71.952 4.956.952 4.956s5.732 1.106 8.911-3.037c1.59-2.072 2.045-4.809 2.897-8.065S48 25.862 48 25.862"/><path fill="#fff" d="M30.996 12h3v4h1.996v1.999h-1.997v11c0 2 1.997.5 1.997.5v2s-6 3.5-6-2.5v-11H28.99v-2h1.003z"/></g></svg>