<svg xmlns="http://www.w3.org/2000/svg" xmlns:xlink="http://www.w3.org/1999/xlink" width="48" height="48"><defs><linearGradient id="c" x2="0" y1="44" y2="4" gradientTransform="translate(-60)" gradientUnits="userSpaceOnUse"><stop stop-color="#092240"/><stop offset="1" stop-color="#115570"/></linearGradient><linearGradient id="a" x2="0" y1="30" y2="14" gradientUnits="userSpaceOnUse"><stop stop-color="#c2d4e7"/><stop offset="1" stop-color="#e0e3f7"/></linearGradient><linearGradient id="b" x1="7" x2="27" y1="14" y2="34" gradientUnits="userSpaceOnUse"><stop stop-opacity=".691"/><stop offset="1" stop-opacity="0"/></linearGradient><linearGradient xlink:href="#a" id="i" x2="0" y1="529.8" y2="525.8" gradientTransform="translate(-356.57 -499.8)" gradientUnits="userSpaceOnUse"/><linearGradient xlink:href="#a" id="j" x2="0" y1="529.8" y2="525.8" gradientTransform="translate(-362.57 -499.8)" gradientUnits="userSpaceOnUse"/><linearGradient xlink:href="#b" id="g" x1="32" x2="38" y1="27" y2="32" gradientTransform="translate(0 1)" gradientUnits="userSpaceOnUse"/><linearGradient xlink:href="#b" id="h" x1="32" x2="38" y1="27" y2="32" gradientTransform="translate(6 1)" gradientUnits="userSpaceOnUse"/><linearGradient xlink:href="#b" id="e" x1="7" x2="27" y1="14" y2="34" gradientUnits="userSpaceOnUse"/><linearGradient xlink:href="#a" id="f" x2="0" y1="30" y2="14" gradientUnits="userSpaceOnUse"/><linearGradient xlink:href="#c" id="d" x2="0" y1="44" y2="4" gradientUnits="userSpaceOnUse"/></defs><path d="M12.953 4c-1.24 0-2.42.25-3.492.701a8.9 8.9 0 0 0-2.844 1.916 8.9 8.9 0 0 0-1.916 2.844A9 9 0 0 0 4 12.953v12.094c0 1.24.25 2.42.701 3.492a8.9 8.9 0 0 0 1.916 2.844 8.9 8.9 0 0 0 2.844 1.916 9 9 0 0 0 3.492.701H24l11 10V34h.047c1.24 0 2.42-.25 3.492-.701a8.9 8.9 0 0 0 2.844-1.916 8.9 8.9 0 0 0 1.916-2.844A9 9 0 0 0 44 25.047V12.953c0-1.24-.25-2.42-.701-3.492a8.9 8.9 0 0 0-1.916-2.844 8.9 8.9 0 0 0-2.844-1.916A9 9 0 0 0 35.047 4Z" style="fill:url(#d);fill-rule:evenodd"/><path d="M16 34h19.047c1.24 0 2.42-.25 3.492-.701.171-.072.288-.225.453-.307L20 14h-2v4l-4-4v4l2 2H8l6 6H8Z" style="opacity:.2;fill:url(#e);fill-rule:evenodd"/><path d="M12 14v4H8v2h4v4H8v2h4v4h2v-4h4v4h2v-4h4v-2h-4v-4h4v-2h-4v-4h-2v4h-4v-4zm2 6h4v4h-4z" style="fill:url(#f)"/><path d="M36.621 33.684c.646-.119 1.33-.137 1.918-.385.353-.15.61-.44.938-.631L33 27l-2 2Z" style="opacity:.2;fill:url(#g)"/><path d="M40.541 31.951c.265-.211.602-.329.842-.568.411-.412.65-.96.974-1.445L39 27l-2 2Z" style="opacity:.2;fill:url(#h)"/><rect width="4" height="4" x="36" y="26" rx="2" style="fill:url(#i)"/><rect width="4" height="4" x="30" y="26" rx="2" style="fill:url(#j)"/></svg>