<svg xmlns="http://www.w3.org/2000/svg" width="48" height="48"><defs><linearGradient id="a" x1="428.57" x2="388.57" y1="543.8" y2="503.8" gradientUnits="userSpaceOnUse"><stop stop-color="#375a7d"/><stop offset="1" stop-color="#31bfa6"/></linearGradient><linearGradient id="e" x1="12.521" x2="22.282" y1="12.08" y2="24.797" gradientTransform="translate(384.57 499.8)" gradientUnits="userSpaceOnUse"><stop stop-color="#fcfcfc"/><stop offset="1" stop-color="#eff1f1"/></linearGradient><linearGradient id="c" x1="14.576" x2="28.742" y1="25.538" y2="44" gradientUnits="userSpaceOnUse"><stop stop-color="#4ce0c6"/><stop offset=".3" stop-color="#7fe9d6"/><stop offset="1" stop-color="#31bfa6"/></linearGradient><linearGradient id="b" x1="18" x2="27.975" y1="24" y2="37" gradientUnits="userSpaceOnUse"><stop stop-color="#172525"/><stop offset="1" stop-color="#172525" stop-opacity="0"/></linearGradient></defs><g fill-rule="evenodd"><g color="#000" transform="translate(-384.57 -499.8)"><circle cx="408.57" cy="523.8" r="20" fill="url(#a)"/><path fill="#375a7d" d="M428.55 523.277a20 20 0 0 1-19.98 19.623 20 20 0 0 1-19.98-19.477l-.02.377a20 20 0 0 0 20 20 20 20 0 0 0 20-20 20 20 0 0 0-.02-.523"/></g><path fill="url(#b)" d="m41 19-6.813 1.813-17.688-1.188-7.5 9.688-.34 4.074 9.82 9.82a20 20 0 0 0 5.52.793 20 20 0 0 0 20-20 20 20 0 0 0-.14-2.139z" opacity=".4"/><path fill="url(#c)" d="M17.887 22.848 9 24l-.355 9.348C24.046 23.494 34 39.378 44.005 33c-8 0-14.673-12.09-24.5-9z"/><path fill="url(#e)" d="M394.66 512.4a18 18 0 0 0-4.084 11.4 18 18 0 0 0 2.66 9.387c13.944-17.18 21.21-5.01 32.34-14.387-10 2-12.898-10.456-30.916-6.4" transform="translate(-384.57 -499.8)"/></g></svg>