<svg xmlns="http://www.w3.org/2000/svg" width="48" height="48"><defs><linearGradient id="a" x1="-162.29" x2="737.63" y1="61.2" y2="505.06" gradientTransform="matrix(.06535 .02041 -.01819 .05824 8.418 -1.328)" gradientUnits="userSpaceOnUse"><stop stop-color="#fafafa"/><stop offset="1" stop-color="#939393"/></linearGradient><linearGradient id="b" x1="41" x2="21.13" y1="41" y2="18.25" gradientUnits="userSpaceOnUse"><stop stop-color="#502ae3"/><stop offset="1" stop-color="#4db4f6"/></linearGradient></defs><g fill-rule="evenodd"><path fill="url(#a)" d="M28.889 5.374A21.4 17.01 17.344 0 0 3.39 15.232a21.4 17.01 17.344 0 0 15.356 22.616 21.4 17.01 17.344 0 0 25.497-9.858A21.4 17.01 17.344 0 0 28.89 5.374m1.026 6.583A15.96 12.68 17.344 0 1 41.37 28.82a15.96 12.68 17.344 0 1-19.016 7.345A15.96 12.68 17.344 0 1 10.9 19.305a15.96 12.68 17.344 0 1 19.015-7.348" color="#000"/><path fill="url(#b)" d="m41.546 41.02-6.863.004-4.677-6.913s-.753-1.295-1.216-1.671c-.386-.313-.551-.425-.933-.425h-.868l.002 9-5.958.003v-23h12.972s5.257.97 5.364 6.177c.119 5.805-5.081 7.513-5.081 7.513.713.292 6.449 7.967 7.259 9.308m-10.285-18.01-4.212-.003-.002 3.911 4.214-.001s1.952-.006 1.952-1.989c0-2.023-1.952-1.917-1.952-1.917"/><g fill="#fff" fill-opacity=".196"><path d="M21.03 18.02v1h12.973s5.278.983 5.363 5.178c-.106-5.207-5.363-6.178-5.363-6.178z"/><path d="M33.21 24.924c0 1.983-1.953 1.99-1.953 1.99h-4.213v1h4.213s1.953.086 1.953-2.99" color="#000"/></g><path fill-opacity=".103" d="M16.518 4.6a21.4 17.01 17.344 0 0-.598.142c.2-.045.394-.103.598-.143m10.283.215q1.041.236 2.088.561a21.4 17.01 17.344 0 0-2.088-.56m2.088.56c.59.184 1.161.396 1.727.615a21.4 17.01 17.344 0 0-1.727-.615m-14.254-.316a21.4 17.01 17.344 0 0-.752.252c.25-.083.496-.177.752-.252m-1.809.619a21.4 17.01 17.344 0 0-.699.308c.233-.103.46-.214.699-.309m18.877.771c.281.124.564.245.838.377a21.4 17.01 17.344 0 0-.838-.376m-20.596.008a21.4 17.01 17.344 0 0-.609.344c.203-.115.4-.236.609-.344m-1.598.93a21.4 17.01 17.344 0 0-.525.37c.175-.123.345-.252.526-.37m24.13.014c.252.136.505.271.75.414a21.4 17.01 17.344 0 0-.75-.414M8.053 8.457a21.4 17.01 17.344 0 0-.457.402c.152-.134.299-.273.454-.402m27.45.053c.206.135.415.266.615.406a21.4 17.01 17.344 0 0-.615-.406m1.686 1.21c.19.15.384.296.568.45a21.4 17.01 17.344 0 0-.568-.45m-11.976.458c-6.676-.158-12.614 3.695-14.31 9.127a15.96 12.68 17.344 0 1 19.014-7.348 15.96 12.68 17.344 0 1 11.898 13.299c-.223-5.88-4.925-12.126-11.898-14.299a17 17 0 0 0-4.704-.779m13.463.82c.194.181.394.357.58.543a21.4 17.01 17.344 0 0-.58-.543m1.37 1.391c.18.2.369.395.54.6a21.4 17.01 17.344 0 0-.534-.6m-35.475.14a21.4 17.01 17.344 0 0-.037.065zm36.697 1.344c.163.217.336.429.488.65a21.4 17.01 17.344 0 0-.488-.651m-37.423.129a21.4 17.01 17.344 0 0-.09.215q.044-.108.09-.215m38.498 1.453c.134.22.28.436.404.66a21.4 17.01 17.344 0 0-.404-.66m1.014 1.889c.06.13.132.26.189.393a21.4 17.01 17.344 0 0-.19-.393m-32.715 3.01a10 10 0 0 0-.11.73 15.96 12.68 17.344 0 1 .11-.73m-.167 1.231c-.021.278-.025.556-.023.834a15.96 12.68 17.344 0 1 .023-.834m-.018 1.268c.013.286.042.571.078.855a15.96 12.68 17.344 0 1-.078-.855m.137 1.297c.047.283.111.565.18.846a15.96 12.68 17.344 0 1-.18-.846m.287 1.281c.08.276.176.548.275.82a15.96 12.68 17.344 0 1-.275-.821m-6.803.039a21.4 17.01 17.344 0 0 .262.54c-.085-.18-.183-.358-.262-.54m37.736.27a15.96 12.68 17.344 0 1-.02.728c.018-.242.02-.485.02-.729m-30.487.977c.104.255.224.507.346.758a15.96 12.68 17.344 0 1-.346-.758m-6.443.39a21.4 17.01 17.344 0 0 .431.704c-.144-.235-.297-.465-.432-.699m36.838.035a15.96 12.68 17.344 0 1-.09.594c.038-.196.063-.395.09-.594m-29.813.814c.131.246.28.486.428.727a15.96 12.68 17.344 0 1-.428-.73m-6.04.732a21.4 17.01 17.344 0 0 .519.695c-.175-.233-.359-.459-.52-.695m38 .338-.074.18a21.4 17.01 17.344 0 0 .074-.18m-31.24.135c.162.242.342.476.52.711a15.96 12.68 17.344 0 1-.52-.71m28.284.847a15.96 12.68 17.344 0 1-.6 1.123q.334-.54.6-1.123m-.6 1.123a15.96 12.68 17.344 0 1-2.622 2.91 11.1 11.1 0 0 0 2.623-2.91m-2.623 2.91a15.96 12.68 17.344 0 1-1.09.764q.57-.356 1.09-.764M7.047 30.23a21.4 17.01 17.344 0 0 .527.59c-.176-.196-.359-.389-.524-.59m6.428.074c.219.27.459.53.699.789a15.96 12.68 17.344 0 1-.7-.79m29.634.306-.06.104a21.4 17.01 17.344 0 0 .06-.104m-28.673.775q.511.526 1.078 1.018a15.96 12.68 17.344 0 1-1.078-1.017m1.078 1.018a18.6 18.6 0 0 0 3.89 2.576 15.96 12.68 17.344 0 1-3.89-2.576m3.89 2.576q.697.347 1.438.645a15.96 12.68 17.344 0 1-1.438-.645M8.393 31.695a21.4 17.01 17.344 0 0 .53.496c-.176-.161-.36-.326-.53-.496m33.766.387-.033.043a21.4 17.01 17.344 0 0 .033-.043m-32.275.97a21.4 17.01 17.344 0 0 .597.471q-.301-.233-.598-.473m1.61 1.232a21.4 17.01 17.344 0 0 .66.44c-.221-.145-.445-.288-.66-.44m28.563.064c-.16.142-.314.288-.48.424a21.4 17.01 17.344 0 0 .48-.424m-3.838.674a15.96 12.68 17.344 0 1-.803.441c.277-.136.54-.289.803-.44m-22.941.406a21.4 17.01 17.344 0 0 .658.363c-.22-.12-.443-.238-.658-.363m25.418.004c-.195.139-.384.283-.586.414a21.4 17.01 17.344 0 0 .586-.414m-3.8.261a15.96 12.68 17.344 0 1-.766.327c.262-.1.513-.214.766-.326m-1.32.511a15.96 12.68 17.344 0 1-.813.258c.277-.076.544-.168.813-.258m3.629.178c-.23.131-.455.27-.693.391a21.4 17.01 17.344 0 0 .693-.39m-22.105.011a21.4 17.01 17.344 0 0 .867.39c-.291-.127-.583-.253-.867-.39m8.559.12c.308.075.615.136.922.194a15.96 12.68 17.344 0 1-.922-.193m8.5.091a15.96 12.68 17.344 0 1-.812.177c.274-.05.54-.113.809-.176m-6.97.213c.336.053.668.092 1 .127a15.96 12.68 17.344 0 1-1-.127m5.544.055a15.96 12.68 17.344 0 1-.918.113c.31-.028.614-.069.918-.113m-3.98.13c.338.025.672.036 1.01.044a15.96 12.68 17.344 0 1-1.006-.045m2.58.016a15.96 12.68 17.344 0 1-1.043.04c.352-.001.697-.018 1.043-.04m6.23.193c-.25.11-.493.23-.75.332a21.4 17.01 17.344 0 0 .75-.332m-18.547.016a21.4 17.01 17.344 0 0 1.734.619 27 27 0 0 1-1.734-.62m16.73.689c-.248.082-.488.173-.739.246a21.4 17.01 17.344 0 0 .739-.246m-2.03.564c-.198.045-.391.1-.593.14a21.4 17.01 17.344 0 0 .593-.14" color="#000"/></g></svg>