<svg xmlns="http://www.w3.org/2000/svg" width="48" height="48"><ellipse cx="24.001" cy="24.369" rx="20.999" ry="20.631" style="opacity:.2;stroke-width:2.80969"/><ellipse cx="24.001" cy="23.631" rx="20.999" ry="20.631" style="fill:#ff4500;fill-opacity:1;stroke-width:2.80969"/><path d="M25.512 11.102a.746.746 0 0 0-.753.63l-1.286 8.233c-2.955.086-5.758.906-7.872 2.303a3.03 3.03 0 0 0-2.101-.847c-1.657 0-3 1.32-3 2.948 0 1.1.624 2.107 1.617 2.613A5.5 5.5 0 0 0 12 28.053c0 4.476 5.373 8.105 12 8.105s12-3.629 12-8.105a5.5 5.5 0 0 0-.12-1.068 2.94 2.94 0 0 0 1.62-2.616c0-1.628-1.343-2.948-3-2.948-.788 0-1.545.305-2.106.85-1.999-1.326-4.621-2.138-7.413-2.295l1.14-7.241 3.9.852c.138 1.106 1.094 1.938 2.229 1.94 1.243 0 2.25-.99 2.25-2.211s-1.007-2.21-2.25-2.21a2.26 2.26 0 0 0-1.904 1.036l-4.679-1.02a.7.7 0 0 0-.155-.019zM20.25 24.37c1.243 0 2.25.99 2.25 2.21 0 1.221-1.007 2.21-2.25 2.21S18 27.8 18 26.58c0-1.22 1.007-2.21 2.25-2.21m7.5 0c1.243 0 2.25.99 2.25 2.21 0 1.221-1.007 2.21-2.25 2.21s-2.25-.989-2.25-2.21c0-1.22 1.007-2.21 2.25-2.21m1.459 6.605c.698-.058 1.091.77.598 1.258 0 0-.492.512-1.427.936-.936.423-2.372.816-4.398.783-2.013-.034-3.424-.426-4.35-.827s-1.418-.872-1.418-.872c-.46-.442-.176-1.21.466-1.26l.073-.003a.76.76 0 0 1 .536.23s.214.236.952.556c.739.32 1.947.663 3.777.696 1.818.03 3-.312 3.73-.642.728-.33.942-.587.942-.587a.76.76 0 0 1 .519-.268z" style="opacity:.2;stroke-width:2.80969"/><path d="M25.512 10.366a.746.746 0 0 0-.753.63l-1.286 8.232c-2.955.086-5.758.906-7.872 2.303a3.03 3.03 0 0 0-2.101-.847c-1.657 0-3 1.32-3 2.948 0 1.1.624 2.107 1.617 2.613A5.5 5.5 0 0 0 12 27.316c0 4.477 5.373 8.105 12 8.105s12-3.628 12-8.105a5.5 5.5 0 0 0-.12-1.068 2.94 2.94 0 0 0 1.62-2.616c0-1.628-1.343-2.948-3-2.948-.788 0-1.545.306-2.106.85-1.999-1.326-4.621-2.138-7.413-2.295l1.14-7.241 3.9.852c.138 1.106 1.094 1.938 2.229 1.94 1.243 0 2.25-.99 2.25-2.211s-1.007-2.21-2.25-2.21a2.26 2.26 0 0 0-1.904 1.036l-4.679-1.02a.7.7 0 0 0-.155-.019zM20.25 23.632c1.243 0 2.25.99 2.25 2.21 0 1.221-1.007 2.21-2.25 2.21S18 27.064 18 25.843c0-1.22 1.007-2.21 2.25-2.21m7.5 0c1.243 0 2.25.99 2.25 2.21 0 1.221-1.007 2.21-2.25 2.21s-2.25-.989-2.25-2.21c0-1.22 1.007-2.21 2.25-2.21m1.459 6.605c.698-.058 1.091.77.598 1.258 0 0-.492.512-1.427.936-.936.423-2.372.816-4.398.783-2.013-.034-3.424-.425-4.35-.827-.926-.4-1.418-.872-1.418-.872-.46-.442-.176-1.21.466-1.26l.073-.003a.76.76 0 0 1 .536.23s.214.236.952.556c.739.32 1.947.663 3.777.696 1.818.03 3-.312 3.73-.642.728-.33.942-.587.942-.587a.76.76 0 0 1 .519-.267z" style="fill:#fff;stroke-width:2.80969"/><path d="M24 3A21 20.632 0 0 0 3 23.632a21 20.632 0 0 0 .013.363A21 20.632 0 0 1 24 3.737a21 20.632 0 0 1 20.981 20.258 21 20.632 0 0 0 .019-.363A21 20.632 0 0 0 24 3" style="opacity:.2;fill:#fff;stroke-width:.743398"/></svg>