<svg xmlns="http://www.w3.org/2000/svg" xmlns:xlink="http://www.w3.org/1999/xlink" width="48" height="48"><defs><linearGradient id="i" x1="17.428" x2="36.551" y1="12.997" y2="32.13" gradientUnits="userSpaceOnUse"><stop stop-color="#abf9c7"/><stop offset="1" stop-color="#54d883"/></linearGradient><linearGradient id="h" x1="33.405" x2="17.759" y1="32.721" y2="12.32" gradientUnits="userSpaceOnUse"><stop stop-color="#197cf1"/><stop offset="1" stop-color="#20bcfa"/></linearGradient><linearGradient id="b" x1="24" x2="40" y1="23" y2="39" gradientUnits="userSpaceOnUse"><stop stop-color="#292c2f"/><stop offset="1" stop-opacity="0"/></linearGradient><linearGradient id="n" x1="32.776" x2="27.52" y1="12.911" y2="6.084" gradientUnits="userSpaceOnUse"><stop stop-color="#95a5a6"/><stop offset="1" stop-color="#eff0f1"/></linearGradient><linearGradient id="a" x1="10.281" x2="3.574" y1="24.827" y2="7.355" gradientTransform="scale(-1)rotate(-15 -182.297 182.282)" gradientUnits="userSpaceOnUse"><stop stop-color="#cfd5d5"/><stop offset="1" stop-color="#6f8181"/></linearGradient><linearGradient xlink:href="#a" id="m" x1="36.16" x2="49.3" y1="20.947" y2="39.03" gradientUnits="userSpaceOnUse"/><linearGradient xlink:href="#a" id="d" x1="13.938" x2="28.495" y1="12.375" y2="28.542" gradientUnits="userSpaceOnUse"/><linearGradient xlink:href="#b" id="k" x1="28.476" x2="39.592" y1="30.991" y2="41" gradientUnits="userSpaceOnUse"/><linearGradient xlink:href="#b" id="l" x1="28" x2="33.402" y1="13" y2="19" gradientUnits="userSpaceOnUse"/><linearGradient xlink:href="#b" id="f" x1="29.654" x2="19.887" gradientUnits="userSpaceOnUse"/></defs><g color="#000"><circle cx="29.394" cy="16.971" r="14.381" fill="#6f8181" transform="rotate(15)"/><path fill="url(#d)" fill-rule="evenodd" d="M24.04 8a16 16 0 0 0-1.682.082L22.202 9.1a17 17 0 0 0-4.205.967l-.646-.867a16 16 0 0 0-2.84 1.643l.345.8a15.3 15.3 0 0 0-3.33 2.9l-1.289-.502a17 17 0 0 0-1.744 3.02l.928.744a14.5 14.5 0 0 0-1.24 4.03l-2.084.32a18 18 0 0 0-.006 3.689l2.041.311c.929 8.368 7.211 14.844 15.867 14.844 9.389 0 14-7.611 14-17 0 7.732-6.268 14-14 14s-14-6.268-14-14 6.268-14 14-14 14 6.268 14 14c0-6.538-4.02-13.942-12.205-14.893l-.156-1.021a16 16 0 0 0-1.598-.086"/><path fill="url(#f)" d="M24.04 8a16 16 0 0 0-1.682.082L22.202 9.1a17 17 0 0 0-4.205.967l-.453 8.898h16.838v-5.213c-2.01-2.424-4.858-4.211-8.588-4.645l-.156-1.021A16 16 0 0 0 24.04 8" opacity=".4"/><path fill="url(#b)" fill-rule="evenodd" d="M33.19 14.807 14.803 33.194l10.736 10.734c.169-.013.338-.02.506-.037l.475-3.102a17 17 0 0 0 3.688-.984l1.957 2.441a20 20 0 0 0 3.549-2.055l-1.135-2.91c1-.794 1.91-1.698 2.709-2.695l2.893 1.127a20 20 0 0 0 2.051-3.553l-2.422-1.941a17 17 0 0 0 .607-1.818q.238-.928.371-1.877l3.092-.475c.018-.17.028-.34.041-.51z" opacity=".2"/></g><rect width="26" height="26" x="11" y="11" fill="url(#h)" rx="13"/><path fill="url(#i)" fill-rule="evenodd" d="M24 11c-.944 0-1.862.104-2.747.293L20.1 13.6l-1.742-1.306a12.96 12.96 0 0 0-6.665 7.53l2.557-1.023 1.95 1.3.65-1.95 8.45-4.55-.515-2.575q-.39-.024-.785-.025m9.627 4.269-.527 1.581.65.65-2.6 3.9 1.3 4.55 4.311.54c.155-.806.239-1.637.239-2.49 0-2.226-.557-4.316-1.535-6.145l-1.065-.355.387-.776a13 13 0 0 0-1.16-1.455m-22.369 6.131a13 13 0 0 0-.248 2.198l4.54 1.702-.65-1.95-1.3-1.95zm4.292 3.9 3.25 7.8v2.82a13 13 0 0 0 5.2 1.08q.193-.002.385-.009l4.165-7.141-10.4-5.85z"/><path fill="#172525" d="M11.03 23.5c-.006.167-.025.331-.025.5 0 7.202 5.798 13 13 13s13-5.798 13-13c0-.169-.019-.333-.025-.5A12.96 12.96 0 0 1 24.005 36c-7.03 0-12.711-5.534-12.975-12.5" opacity=".2"/><g stroke-linejoin="round" stroke-width="3" color="#000"><path fill="url(#a)" d="m39.13 13.11-1.779.614-1.348 3.279 1 3 .68 1.037a14 14 0 0 1-.156 6.586 14 14 0 0 1-5.545 7.877l-2.385 1.401.615 2.901 1.959 2.441a20 20 0 0 0 3.551-2.043l-1.139-2.922c.999-.795 1.905-1.7 2.701-2.697l2.914 1.135a20 20 0 0 0 2.047-3.553l-2.438-1.953c.471-1.188.805-2.426.998-3.689l3.07-.471c.14-1.364.139-2.738-.002-4.102l-3.068-.471q-.138-.95-.383-1.879a17 17 0 0 0-.617-1.809l1.337-1.34c-.558-1.251-2.01-3.343-2.01-3.343"/><path fill="#172525" d="M43.967 23.51a20 20 0 0 1-.084 1.539l-3.092.475a17 17 0 0 1-.371 1.877 17 17 0 0 1-.607 1.818l.268.215q.187-.511.34-1.033.239-.928.371-1.877l3.092-.475q.123-1.267.084-2.539m-2.092 8.361a20 20 0 0 1-1.691 2.842l-2.893-1.127a17 17 0 0 1-2.709 2.695l.291.744a17 17 0 0 0 2.418-2.439l2.893 1.127a20 20 0 0 0 2.051-3.553zm-11.539 6.558c-1.188.465-1.314 1.841-.125 1.376l1.957 2.441a20 20 0 0 0 3.549-2.055l-.311-.795a20 20 0 0 1-3.238 1.85z" opacity=".2"/></g><g fill-rule="evenodd"><path fill="url(#k)" d="m37 20-.227.34L37 21c-.091.091-.197.18-.293.27a13 13 0 0 1-.15 6.096 13 13 0 0 1-7.41 8.572l.446.963.615 2.902 1.96 2.441a20 20 0 0 0 3.55-2.043l-1.139-2.922c1-.795 1.905-1.7 2.701-2.697l2.914 1.135a20 20 0 0 0 2.047-3.553l-2.438-1.953c.471-1.188.805-2.426.998-3.689l.842-.129z" opacity=".2"/><path fill="url(#l)" d="m26 13 7 7 6-4-4-4-4.563-.5z" opacity=".4"/></g><g stroke-linejoin="round" stroke-width="3" color="#000"><path fill="url(#m)" d="M37.746 14.12c-.889-.978-2.35-2.161-4.746-3.119l-2 2s3.189 2.866.242 5.795L25 25.001 5.68 32.269s1.318 2.341 2.119 3.451l2.922-1.139c.795.999 1.7 1.905 2.697 2.701l-1.135 2.914a20 20 0 0 0 3.553 2.047l1.953-2.438c1.188.471 2.426.805 3.689.998l.471 3.07c1.364.14 2.738.139 4.102-.002l.471-3.068q.95-.138 1.879-.383a17 17 0 0 0 1.809-.617s4.354-9.443 5.885-13.514c.765-2.036.906-6.289.906-6.289s1.028-5.075.746-5.881"/><path fill="#172525" d="M29.412 39.19c-.961.266-2.01.47-2.889.602l-.475 3.102a20 20 0 0 1-4.098-.008l-.475-3.092a17 17 0 0 1-1.877-.371 17 17 0 0 1-1.818-.607l-1.941 2.422a20 20 0 0 1-3.242-1.848l-.311.797a20 20 0 0 0 3.553 2.051l1.941-2.422a17 17 0 0 0 1.818.607q.928.239 1.877.371l.475 3.092c1.362.143 2.735.146 4.098.008l.475-3.102a17 17 0 0 0 3.688-.984l.053-.133zm-23.1-7.148-.633.229c.733 1.328 1.32 2.23 2.129 3.449l2.91-1.135a17 17 0 0 0 2.4 2.467l.295-.758a17 17 0 0 1-2.695-2.709l-2.91 1.135c-.641-.898-1.012-1.686-1.496-2.678" opacity=".2"/></g><g fill-rule="evenodd"><path fill="#cfd5d5" d="M32.776 12.911s-1.323-.889-2.197-1.016C30.001 11 29.001 12 29.001 12h-3v1s2.125.998 3 1 1.814.885 1.814.885z"/><path fill="#536161" d="m32 8 5 3-1 1h-4l-.369-1.635z"/><path fill="url(#n)" d="M33 13s-2.457.085-3-1l-1-2-3-2s0-1 3-1v1s2-1 4 0c0 0-.776 1.38-.323 2.684C33 11.612 33 12 33 12z"/><path fill="#e05e4c" d="M30 9h1l1 2-2-1z"/></g></svg>