<svg xmlns="http://www.w3.org/2000/svg" xmlns:xlink="http://www.w3.org/1999/xlink" width="48" height="48"><defs><linearGradient id="a"><stop offset="0" style="stop-color:#fff;stop-opacity:1"/><stop offset="1" style="stop-color:#e4e4e4;stop-opacity:1"/></linearGradient><linearGradient xlink:href="#b" id="o" x1="735.667" x2="735.667" y1="660.831" y2="388.102" gradientTransform="matrix(.12828 0 0 .12828 -67.713 236.12)" gradientUnits="userSpaceOnUse"/><linearGradient id="b"><stop offset="0" style="stop-color:#f2b187;stop-opacity:1"/><stop offset=".549" style="stop-color:#ec908c;stop-opacity:1"/><stop offset=".88" style="stop-color:#ec8f8b;stop-opacity:1"/><stop offset="1" style="stop-color:#de6865;stop-opacity:1"/></linearGradient><linearGradient xlink:href="#c" id="j" x1="722.429" x2="731.732" y1="521.948" y2="556.666" gradientTransform="matrix(.12828 0 0 .12828 -67.713 236.12)" gradientUnits="userSpaceOnUse"/><linearGradient id="c"><stop offset="0" style="stop-color:#f2bd9a;stop-opacity:0"/><stop offset=".105" style="stop-color:#1631cf;stop-opacity:.61176471"/><stop offset="1" style="stop-color:#003cf2;stop-opacity:.00045954"/></linearGradient><linearGradient xlink:href="#d" id="k" x1="748.222" x2="734.854" y1="404.501" y2="538.796" gradientTransform="matrix(.12828 0 0 .12828 -67.713 236.12)" gradientUnits="userSpaceOnUse"/><linearGradient id="d"><stop offset="0" style="stop-color:#f2b187;stop-opacity:1"/><stop offset="1" style="stop-color:#f2a472;stop-opacity:1"/></linearGradient><linearGradient xlink:href="#e" id="l" x1="740.757" x2="687.044" y1="450.959" y2="584.658" gradientTransform="matrix(.12828 0 0 .12828 -67.713 236.12)" gradientUnits="userSpaceOnUse"/><linearGradient id="e"><stop offset="0" style="stop-color:#f2bd9a;stop-opacity:1"/><stop offset="1" style="stop-color:#f26000;stop-opacity:.25890476"/></linearGradient><linearGradient xlink:href="#f" id="m" x1="746.408" x2="681.246" y1="555.41" y2="574.947" gradientTransform="matrix(.12828 0 0 .12828 -67.713 236.12)" gradientUnits="userSpaceOnUse"/><linearGradient id="f"><stop offset="0" style="stop-color:#f2bd9a;stop-opacity:.69014871"/><stop offset="1" style="stop-color:#f2bd9a;stop-opacity:0"/></linearGradient><linearGradient xlink:href="#g" id="p" x1="674.579" x2="786.789" y1="450.79" y2="568.281" gradientTransform="matrix(.12828 0 0 .12828 -67.713 236.12)" gradientUnits="userSpaceOnUse"/><linearGradient id="g"><stop offset="0" style="stop-color:#ffd14b;stop-opacity:1"/><stop offset="1" style="stop-color:#ffd14b;stop-opacity:0"/></linearGradient><linearGradient xlink:href="#b" id="i" x1="735.667" x2="735.667" y1="660.831" y2="388.102" gradientTransform="matrix(.12828 0 0 .12828 -67.713 236.12)" gradientUnits="userSpaceOnUse"/><linearGradient xlink:href="#g" id="n" x1="674.579" x2="786.789" y1="450.79" y2="568.281" gradientTransform="matrix(.12828 0 0 .12828 -67.713 236.12)" gradientUnits="userSpaceOnUse"/></defs><g transform="translate(0 -280.067)"><circle cx="24" cy="304.067" r="21" style="fill:#2c314c;fill-opacity:1"/><circle cx="24" cy="304.067" r="19.945" style="opacity:1;fill:none;fill-opacity:1;stroke:#424970;stroke-width:2.10957;stroke-linecap:round;stroke-miterlimit:4;stroke-dasharray:none;stroke-dashoffset:0;stroke-opacity:1"/><path d="M28.059 285.067c-1.242-.005-2.332 1.677-2.332 1.677.165-.218.382-.417.627-.535-.793.427-1.568 1.896-2.226 3.813-.828 2.41-.746 5.242-.472 7.57-5.189 3.355-5.897 4.63-7.132 6.77-2.623 4.543-.686 9.45 2.638 11.888l.001.001q.008.004.014.01l.013.008q.2.145.407.28c.027.015.054.035.081.051q.066.042.132.082l.128.076h.001l.007.006q.157.09.316.174l.09.048q.036.02.073.036.1.05.2.095.012.006.024.01.095.043.191.085.034.013.069.03.12.052.241.096c1.705.646 4.122.945 6.531.39a18 18 0 0 1 .148.909c.094.735.089 1.263.002 1.638a2 2 0 0 1-.094.285 1 1 0 0 1-.132.217 1 1 0 0 1-.078.086q-.042.039-.089.072a1 1 0 0 1-.095.058q-.15.077-.334.108c-.041.008-.084.01-.127.015q-.065.006-.133.008-.136.004-.285-.005a4 4 0 0 1-.31-.027c-.107-.01-.217-.028-.33-.043l-.35-.047a2.183 2.183 0 0 0-.411-.015q-.062.004-.12.012a1.3 1.3 0 0 0-.213.056c-.033.01-.065.028-.096.04q-.045.021-.087.047-.04.024-.078.053a.848.848 0 0 0-.136.125 1 1 0 0 0-.06.069c-.144.192-.216.43-.232.663a1.5 1.5 0 0 0 .014.34 1.3 1.3 0 0 0 .084.299.7.7 0 0 0 .143.217s.022.033.066.084a2.4 2.4 0 0 0 .532.465q.15.1.337.189.063.028.128.055.067.027.138.05.141.05.299.082l.161.028q.083.012.17.019.088.008.18.008.09 0 .187-.005a3 3 0 0 0 .609-.092 5 5 0 0 0 .22-.061c.075-.025.15-.048.228-.077a6 6 0 0 0 .481-.212 6 6 0 0 0 .514-.293 4 4 0 0 0 .43-.312 3.4 3.4 0 0 0 .36-.34 3 3 0 0 0 .297-.363 3.4 3.4 0 0 0 .337-.583 4 4 0 0 0 .274-.824q.023-.106.042-.21c.074-.423.09-.85.075-1.264a8 8 0 0 0-.067-.803q-.029-.224-.063-.434l-.021-.125-.054-.303-.028-.152-.01-.048-.055-.3-.038-.194a9.8 9.8 0 0 0 2.106-1.421l.002-.003q.232-.202.454-.423.033-.033.064-.069.01-.007.018-.018l.017-.018a4 4 0 0 0 .142-.16q.04-.044.077-.09v-.001l.058-.075.012-.015.006-.008.009-.013c.02-.029.043-.054.063-.083q.02-.029.041-.06.05-.07.1-.144v-.001l.03-.049q.004-.003.007-.01l.03-.047.066-.106v-.001l.036-.064.008-.015.02-.033.062-.11q.06-.113.118-.23a7 7 0 0 0 .394-.986v-.002q.042-.127.079-.258v-.001a8.769 8.769 0 0 0 .132-.53v-.001l.011-.055.003-.012.001-.008q.022-.098.04-.196.023-.134.044-.269v-.003q.02-.135.037-.27v-.002q.016-.136.028-.274l.018-.273v-.001q.008-.136.012-.272v-.001q.002-.136 0-.271v-.003a8 8 0 0 0-.007-.268v-.001a7 7 0 0 0-.017-.267v-.001a7 7 0 0 0-.025-.263v-.002a6 6 0 0 0-.035-.258v-.003a7 7 0 0 0-.045-.254v-.001a6 6 0 0 0-.054-.249v-.002a6 6 0 0 0-.064-.242v-.001a4.736 4.736 0 0 0-.156-.468v-.002q-.044-.112-.093-.222a4 4 0 0 0-.102-.216 8 8 0 0 0-.153-.28l-.013-.021a8 8 0 0 0-.898-1.265l-.016-.016a7.4 7.4 0 0 0-1.826-1.515l-.01-.005c-.5-.29-1.024-.51-1.554-.651l-.008-.001a5.4 5.4 0 0 0-1.061-.171h-.012a6 6 0 0 0-.306-.008q-.108 0-.214.006a3 3 0 0 0-.198.015l-.135.016-.792-4.052v-.003c-.032-.162-.058-.319-.086-.477.772-.82 1.478-1.601 1.901-2.16q.057-.075.114-.158.059-.082.118-.173.06-.091.12-.191l.122-.205a13 13 0 0 0 1.06-2.416v-.001l.1-.317c.419-1.395.66-2.99.447-4.51a7 7 0 0 0-.13-.693v-.001a6.313 6.313 0 0 0-.413-1.195l-.031-.068-.018-.037a5 5 0 0 0-.097-.195q0-.002-.003-.005a5 5 0 0 0-.233-.4q-.006-.01-.014-.021a3 3 0 0 0-.227-.305l-.011-.013a3 3 0 0 0-.111-.122l-.003-.001a2 2 0 0 0-.368-.306l-.006-.005a1.5 1.5 0 0 0-.218-.113l-.045-.018a1.3 1.3 0 0 0-.35-.083h-.006q-.058-.006-.115-.008zm-.554 1.322q.044.036.086.08c.222.221.443.552.653 1.028.285.622 1.148 4.924-2.119 8.235v-.003a23 23 0 0 1-.022-.85l.001-.192q.002-.297.013-.581l.004-.133a11 11 0 0 1 .03-.496 15 15 0 0 1 .094-.917q.005-.053.014-.102.045-.32.1-.62.025-.124.05-.243l.021-.105.06-.267.002-.008a12 12 0 0 1 .214-.792l.02-.06q.036-.114.073-.223h-.001c.625-1.843 1.446-2.642 1.446-2.642-.214-.459-.432-.797-.653-1.028-.029-.03-.057-.053-.086-.08zm-3.288 14.75c.02.114.048.257.064.354.045.279.111.65.195 1.097s.184.966.299 1.543l.046.226a8 8 0 0 0-.577.406l-.003.005a6 6 0 0 0-.2.16l-.01.008-.008.008q-.078.065-.15.131l-.109.1a4 4 0 0 0-.163.158l-.108.112-.02.022-.092.105q-.058.067-.112.135l-.024.032q-.034.042-.066.085-.063.08-.121.163a4.3 4.3 0 0 0-.546 1.1 4 4 0 0 0-.138.55v.002a4 4 0 0 0-.047.363v.001c-.102 1.151.266 2.242.67 3.06q.065.129.13.248v.001q.063.12.128.227v.001q.063.11.124.207c.122.197.233.36.32.481.117.162.191.25.191.25q-.001 0-.054-.168a5 5 0 0 1-.058-.207l-.004-.019a7 7 0 0 1-.063-.267l-.004-.018a9 9 0 0 1-.058-.29l-.005-.03v-.002l-.004-.018-.002-.021a10 10 0 0 1-.118-.916 12 12 0 0 1-.035-.57v-.001c-.023-.474.03-.908.143-1.302q.113-.395.302-.735v-.001q.046-.084.098-.166.051-.082.107-.16.11-.157.235-.3.063-.072.128-.14c.22-.227.47-.425.737-.593l.033-.019c.392 1.901.845 4.044 1.29 6.084.093.428.184.832.275 1.246h-.001c.042.194.083.374.125.563q.011.053.024.104c-1.64.195-3.475-.29-5.06-1.6a5 5 0 0 1-.162-.14l-.051-.048q-.015-.012-.029-.026l-.074-.07q-.107-.105-.205-.211a5 5 0 0 1-.306-.37q-.035-.047-.069-.094l-.03-.043-.102-.154-.001-.003-.014-.02q-.014-.025-.028-.048a4 4 0 0 1-.254-.484l-.007-.016a5 5 0 0 1-.204-.562l-.002-.008-.023-.084-.015-.061-.001-.005a5 5 0 0 1-.111-.602l-.002-.01a5.6 5.6 0 0 1-.038-.8 7.399 7.399 0 0 1 .095-.994l.018-.093.002-.012q.019-.106.041-.211l.01-.047q.013-.064.029-.128.025-.114.055-.226.016-.067.035-.136l.045-.156.032-.108.02-.072v-.001l.035-.104q.058-.18.122-.358.051-.146.106-.288l.018-.042q.067-.169.137-.333.227-.525.471-.991v-.001q.008-.01.016-.028.19-.358.376-.67l-.011.015c.306-.52.593-.94.795-1.212a7 7 0 0 1 .352-.434c.27-.305.729-.784 1.228-1.301zm3.632 4.7c.422.005.84.063 1.233.178q.178.053.348.12c.284.111.552.255.795.431a3.2 3.2 0 0 1 .648.627c.224.29.4.626.517 1.012q.03.097.054.196.024.101.043.204v.001q.037.208.052.433a5 5 0 0 1 .008.46 5.36 5.36 0 0 1-.05.665v.002q-.015.107-.034.212-.037.21-.087.412v.001a5 5 0 0 1-.055.198v.001l-.016.046a5 5 0 0 1-.19.521v.001q-.08.182-.172.354v.001q-.046.085-.094.168v.001q-.025.042-.05.082l-.051.082q-.051.08-.107.16l-.112.153v.001q-.058.074-.118.148-.12.145-.251.282-.256.263-.546.485c-.018.01-.037.028-.055.04q-.09.069-.183.132l-1.527-7.818z" style="fill:#45007e;fill-opacity:.0695295;stroke:none;stroke-width:.128268px;stroke-linecap:butt;stroke-linejoin:miter;stroke-opacity:1"/><path d="M27.584 284.34c-1.241-.004-2.332 1.677-2.332 1.677.166-.217.383-.416.628-.535-.794.428-1.569 1.897-2.227 3.813-.828 2.41-.746 5.242-.472 7.57-5.188 3.355-5.897 4.631-7.132 6.77-2.623 4.544-.686 9.451 2.638 11.889h.002l.014.01.012.009q.201.144.407.28.041.024.082.05.065.043.132.082l.127.076.002.001.006.005q.157.09.316.175l.09.047q.037.02.073.037.1.05.2.095.013.006.025.01.095.043.19.084.034.014.07.03.12.052.24.097c1.705.646 4.122.944 6.532.39a18 18 0 0 1 .147.908c.094.735.09 1.264.003 1.639a2 2 0 0 1-.094.285 1 1 0 0 1-.211.302q-.042.04-.088.072a1 1 0 0 1-.096.058q-.15.079-.334.108c-.041.008-.083.01-.126.016q-.066.006-.134.008-.136.004-.285-.005a4 4 0 0 1-.31-.028c-.107-.01-.216-.028-.33-.042l-.35-.048a2.183 2.183 0 0 0-.411-.015q-.06.005-.12.013a1.3 1.3 0 0 0-.213.055c-.033.01-.065.028-.095.041q-.046.02-.087.046-.042.025-.079.053l-.072.058a1 1 0 0 0-.064.067 1 1 0 0 0-.059.07c-.145.191-.216.43-.233.662a1.5 1.5 0 0 0 .014.34 1.3 1.3 0 0 0 .084.3.7.7 0 0 0 .144.217s.021.032.066.084a2.4 2.4 0 0 0 .532.465q.15.1.337.188.061.029.128.056.066.027.137.05.141.048.3.081l.16.029q.084.011.17.018.09.008.18.008.091.002.187-.005a3 3 0 0 0 .61-.091l.22-.061c.074-.026.15-.048.227-.078a7 7 0 0 0 .237-.096 6 6 0 0 0 .497-.252 5 5 0 0 0 .486-.308 4 4 0 0 0 .393-.326 3 3 0 0 0 .329-.353 3.5 3.5 0 0 0 .377-.57 3.903 3.903 0 0 0 .374-1.022q.023-.105.042-.21c.074-.423.091-.85.076-1.264a10.217 10.217 0 0 0-.13-1.237l-.022-.125-.053-.302-.029-.152-.009-.049-.056-.299-.038-.195a9.8 9.8 0 0 0 2.106-1.42l.003-.004q.23-.201.453-.422v-.001l.065-.068q.008-.007.018-.019.008-.009.017-.018.072-.076.141-.159l.078-.09v-.001l.057-.075.013-.016.005-.008.01-.013.063-.083q.02-.029.04-.06.051-.07.1-.144l.03-.05.008-.01.03-.046.065-.107.037-.065.008-.015.02-.033.061-.11q.06-.114.118-.23a7 7 0 0 0 .395-.986v-.002q.041-.127.078-.258v-.001a8.775 8.775 0 0 0 .132-.53v-.001q.005-.028.012-.055l.002-.013.002-.008.039-.195q.024-.134.045-.269v-.003q.02-.135.036-.27v-.002q.016-.136.029-.274l.018-.273v-.001l.01-.272v-.001a8 8 0 0 0 .002-.271v-.003a8 8 0 0 0-.008-.268v-.001a7 7 0 0 0-.017-.267v-.001a7 7 0 0 0-.025-.263v-.002a6 6 0 0 0-.035-.258v-.003a7 7 0 0 0-.045-.254v-.001a6 6 0 0 0-.053-.249v-.002a5.483 5.483 0 0 0-.137-.481 5 5 0 0 0-.084-.23v-.002q-.044-.113-.092-.222a4 4 0 0 0-.103-.216 8 8 0 0 0-.153-.28l-.013-.022a8 8 0 0 0-.898-1.265l-.016-.015a7.4 7.4 0 0 0-1.826-1.515l-.01-.005c-.5-.29-1.023-.51-1.554-.651l-.008-.001a5.4 5.4 0 0 0-1.061-.172h-.011a6 6 0 0 0-.306-.008v.001q-.108 0-.215.005a3 3 0 0 0-.198.016l-.135.015-.792-4.051v-.003q-.045-.242-.085-.478c.772-.82 1.477-1.6 1.9-2.16q.057-.074.115-.158a5 5 0 0 0 .117-.172q.06-.091.12-.191t.122-.205a13 13 0 0 0 1.06-2.416v-.001l.1-.318c.419-1.394.66-2.99.447-4.509a6.72 6.72 0 0 0-.46-1.703l-.083-.186-.03-.068-.019-.037a5 5 0 0 0-.097-.195l-.002-.005a5 5 0 0 0-.233-.4q-.008-.01-.014-.022a3 3 0 0 0-.228-.304l-.011-.013a3 3 0 0 0-.111-.122l-.003-.001a2 2 0 0 0-.367-.307q-.004-.001-.007-.005a1.5 1.5 0 0 0-.218-.112l-.045-.018a1.3 1.3 0 0 0-.35-.083H27.7q-.058-.006-.115-.008zm-.553 1.322q.043.037.085.08c.223.222.444.552.653 1.028.285.622 1.148 4.925-2.118 8.235v-.003a23 23 0 0 1-.023-.85l.002-.191q0-.298.012-.582l.004-.133a11 11 0 0 1 .03-.495 15 15 0 0 1 .094-.917l.014-.102q.045-.322.1-.62l.05-.244.021-.105.06-.267.002-.008a12 12 0 0 1 .214-.792l.02-.06.073-.223h-.001c.625-1.842 1.446-2.642 1.446-2.642-.214-.458-.432-.797-.653-1.027q-.043-.043-.086-.08zm-3.288 14.75c.02.115.047.257.063.355.045.278.111.65.195 1.096s.184.966.3 1.543l.045.226a8 8 0 0 0-.576.407q-.003.001-.004.005a6 6 0 0 0-.2.16l-.009.008-.01.008-.15.13q-.054.052-.107.1l-.075.07-.088.089-.108.112-.02.022-.093.105q-.058.066-.112.134l-.024.032-.066.085q-.063.08-.12.163a4.3 4.3 0 0 0-.547 1.1 4 4 0 0 0-.137.55v.002a4 4 0 0 0-.048.364c-.101 1.152.266 2.243.671 3.06q.064.13.13.248v.001q.063.12.127.228.064.11.125.207v.001c.12.196.232.36.32.48.117.162.19.25.19.25q-.001 0-.054-.168a5 5 0 0 1-.058-.207l-.003-.019a7 7 0 0 1-.064-.266q0-.009-.004-.019a10 10 0 0 1-.057-.289l-.006-.031v-.001l-.003-.018q-.002-.008-.003-.022a10 10 0 0 1-.118-.915v-.001a12 12 0 0 1-.035-.57v-.001c-.022-.473.03-.907.143-1.301v-.001a3.5 3.5 0 0 1 .302-.735q.047-.084.098-.166v-.001q.051-.081.107-.159.11-.157.236-.3v-.001l.128-.14q.332-.34.737-.593.015-.009.032-.018a574 574 0 0 0 1.29 6.083l.275 1.247.124.563.024.103c-1.64.195-3.475-.29-5.06-1.6a5 5 0 0 1-.161-.14l-.052-.048q-.014-.011-.028-.025l-.075-.071q-.106-.105-.205-.21a6 6 0 0 1-.306-.37l-.068-.095-.031-.043-.101-.153-.002-.003-.014-.021q-.013-.025-.028-.048a4 4 0 0 1-.254-.484l-.007-.016a5 5 0 0 1-.203-.561l-.003-.008-.022-.084-.016-.062-.001-.005a5 5 0 0 1-.111-.602l-.001-.01a5.6 5.6 0 0 1-.038-.8q.004-.206.022-.415a7 7 0 0 1 .073-.578v-.001l.017-.092q0-.007.003-.013.019-.106.04-.21l.01-.048q.013-.064.03-.128.026-.114.054-.226l.035-.136.045-.156.032-.108.021-.072v-.001l.034-.104q.059-.18.122-.358.052-.145.107-.288l.018-.042a13 13 0 0 1 .608-1.324q.007-.012.015-.029.19-.358.377-.67l-.012.015c.307-.52.593-.94.795-1.212a7 7 0 0 1 .352-.434c.27-.305.73-.784 1.229-1.301zm3.632 4.7a4.6 4.6 0 0 1 1.232.178q.178.053.349.12.428.168.794.432a3.2 3.2 0 0 1 .649.626c.223.29.4.627.516 1.012v.001q.03.097.054.195v.001q.024.101.043.204.037.21.052.433v.001a5 5 0 0 1 .008.46 6 6 0 0 1-.025.448v.001a5 5 0 0 1-.025.216v.001q-.015.108-.034.212v.001q-.037.21-.087.412a5 5 0 0 1-.055.199q-.007.024-.015.047a5 5 0 0 1-.191.52v.002a5 5 0 0 1-.172.353v.001l-.094.169q-.025.043-.05.082l-.05.082v.001l-.107.159-.113.154q-.057.075-.118.148v.001q-.12.145-.25.281v.001q-.256.264-.547.485c-.018.01-.037.028-.055.04q-.09.068-.182.131c-.405-2.064-.793-4.05-1.528-7.81z" style="fill:#45007e;fill-opacity:.0695295;stroke:none;stroke-width:.128268px;stroke-linecap:butt;stroke-linejoin:miter;stroke-opacity:1"/><path d="M27.099 286.139s-3.34 3.247-1.68 11.765c1.66 8.517 3.485 17.833 3.485 17.833.284 1.506.967 4.486-1.516 6.06-2.83 1.795-4.25-.24-4.25-.24-.444-.443-.413-2.129 1.192-1.91 1.913.262 3.106.562 1.997-4.277-1.11-4.84-2.83-13.006-3.192-15.233-.309-1.905-1.579-7.32-.153-11.472 1.186-3.452 2.75-5.46 4.117-2.526" style="fill:url(#i);fill-opacity:1;stroke:none;stroke-width:.128268px;stroke-linecap:butt;stroke-linejoin:miter;stroke-opacity:1"/><path d="M25.419 297.904c1.66 8.517 3.485 17.833 3.485 17.833.284 1.506.967 4.486-1.516 6.06-2.83 1.795-4.25-.24-4.25-.24-.444-.443-.413-2.129 1.192-1.91 1.913.262 3.106.562 1.997-4.277-1.11-4.84-2.83-13.006-3.192-15.233z" style="opacity:.500664;fill:url(#j);fill-opacity:1;stroke:none;stroke-width:.128268px;stroke-linecap:butt;stroke-linejoin:miter;stroke-opacity:1"/><path d="M24.582 285.387s2.53-3.905 4.271.206c1.48 3.495-.425 8.095-1.62 9.673-1.226 1.621-4.808 5.092-5.562 6.019s-4.929 6.956-.898 10.289c4.04 3.34 9.7 1.318 9.63-3.659s-8.306-4.37-8.066.682c.062 1.612.407 2.53.407 2.53s-4.773-5.693 2.264-8.833c2.606-1.163 6.03.496 7.606 3.565 1.15 2.242.59 6.06-1.185 7.835-3.485 3.485-8.5 3.396-11.423 2.288-4.429-1.678-7.741-7.584-4.628-12.978 1.291-2.235 1.994-3.522 7.854-7.233 5.285-3.346 4.194-8.917 3.867-9.632-.886-2.01-1.972-1.467-2.517-.752z" style="fill:url(#k);fill-opacity:1;stroke:none;stroke-width:.128268px;stroke-linecap:butt;stroke-linejoin:miter;stroke-opacity:1"/><path d="M26.913 283.71a1 1 0 0 0-.082.006c1.725 1.74 6.08 7.97-7.298 17.642-5.928 4.286-5.046 9.146-1.515 13.535a8.4 8.4 0 0 0 1.989 1.09c2.921 1.107 7.937 1.196 11.422-2.289 1.775-1.774 2.336-5.593 1.185-7.835-1.575-3.07-5-4.728-7.606-3.565-7.037 3.14-2.264 8.834-2.264 8.834s-.345-.92-.407-2.531c-.24-5.053 7.997-5.66 8.067-.682s-5.59 7-9.631 3.659c-4.031-3.333.143-9.362.898-10.29.754-.926 4.336-4.397 5.563-6.018 1.194-1.578 3.1-6.178 1.62-9.673-.6-1.413-1.29-1.88-1.941-1.882" style="fill:url(#l);fill-opacity:1;stroke:none;stroke-width:.128268px;stroke-linecap:butt;stroke-linejoin:miter;stroke-opacity:1"/><path d="M20.708 302.712c-5.408 7.333.834 14.983 8.543 10.728 2.8-1.545 3.529-6.342 1.096-8.57-3.348-3.067-10.652-.319-7.603 6.257 0 0-.345-.918-.407-2.53-.24-5.053 7.997-5.66 8.067-.682s-5.59 7-9.631 3.659c-3.073-2.54-1.38-6.642-.066-8.862" style="fill:url(#m);fill-opacity:1;stroke:none;stroke-width:.128268px;stroke-linecap:butt;stroke-linejoin:miter;stroke-opacity:1"/><path d="M26.758 301.921q-.108 0-.215.005a4.4 4.4 0 0 0-1.535.366c-1.92.857-2.957 1.904-3.455 2.974-.532 3.104 1.19 5.86 1.19 5.86-3.048-6.576 4.256-9.325 7.604-6.259 2.433 2.229 1.703 7.026-1.096 8.571-.896.495-1.772.827-2.613 1.019l.81 1.655a9.9 9.9 0 0 0 3.98-2.42c1.776-1.774 2.336-5.593 1.186-7.835-1.24-2.416-3.626-3.957-5.856-3.937zm3.637 6.408-.004.072zm-.04.452-.011.075zm-.076.45-.004.019zm-.094.37-.016.057zm-.129.39c-.009.026-.018.046-.028.07zm-.164.386c-.006.01-.012.027-.018.036.006-.01.012-.027.018-.036m-.173.327q-.012.018-.023.041zm-.204.324-.041.057zm-.474.585-.038.041zm-.27.263-.057.05q.03-.025.057-.05m-.302.251q-.026.019-.054.04c.018-.01.036-.026.054-.04m-.293.208q-.022.013-.043.03.022-.013.043-.03m-.317.192-.074.04c.025-.01.05-.027.074-.04m-1.015.432c-.099.031-.199.056-.3.083.101-.027.201-.052.3-.083m-.415.112" style="fill:url(#n);fill-opacity:1;stroke:none;stroke-width:.128268px;stroke-linecap:butt;stroke-linejoin:miter;stroke-opacity:1"/><path d="m28.149 311.882.755 3.855c.284 1.506.967 4.486-1.516 6.06-2.83 1.795-4.25-.24-4.25-.24-.444-.443-.413-2.129 1.192-1.91 1.913.262 3.106.562 1.997-4.277a365 365 0 0 1-.643-2.863z" style="fill:url(#o);fill-opacity:1;stroke:none;stroke-width:.128268px;stroke-linecap:butt;stroke-linejoin:miter;stroke-opacity:1"/><path d="M25.543 288.779c-.971 1.75-1.346 3.919-1.352 6.306q.43-.348.79-.713c-.116-2.448.229-4.283.673-5.59zm-.211 8.639c-.315.334-.623.664-.946 1 .141 1.271.35 2.575.598 3.887a.05.05 0 0 1 .024-.008c.386-.172.79-.28 1.204-.333-.372-1.901-.416-2.12-.793-4.057q-.047-.246-.087-.486zm1.371 7.053c-.422.032-.755.008-1.157.133 1.563 7.446 3.806 14.099 2.195 16.938 2.056-1.623 1.432-4.376 1.163-5.805z" style="fill:#f6ebff;fill-opacity:.197812;stroke:none;stroke-width:.128268px;stroke-linecap:butt;stroke-linejoin:miter;stroke-opacity:1"/><path d="M26.758 301.921q-.108 0-.215.005a4.4 4.4 0 0 0-1.535.366c-1.92.857-2.957 1.904-3.455 2.974-.532 3.104 1.19 5.86 1.19 5.86-3.048-6.576 4.256-9.325 7.604-6.259 2.433 2.229 1.703 7.026-1.096 8.571-.896.495-1.772.827-2.613 1.019l.81 1.655a9.9 9.9 0 0 0 3.98-2.42c1.776-1.774 2.336-5.593 1.186-7.835-1.24-2.416-3.626-3.957-5.856-3.937zm3.637 6.408-.004.072zm-.04.452-.011.075zm-.076.45-.004.019zm-.094.37-.016.057zm-.129.39c-.009.026-.018.046-.028.07zm-.164.386c-.006.01-.012.027-.018.036.006-.01.012-.027.018-.036m-.173.327q-.012.018-.023.041zm-.204.324-.041.057zm-.474.585-.038.041zm-.27.263-.057.05q.03-.025.057-.05m-.302.251q-.026.019-.054.04c.018-.01.036-.026.054-.04m-.293.208q-.022.013-.043.03.022-.013.043-.03m-.317.192-.074.04c.025-.01.05-.027.074-.04m-1.015.432c-.099.031-.199.056-.3.083.101-.027.201-.052.3-.083m-.415.112" style="fill:url(#p);fill-opacity:1;stroke:none;stroke-width:.128268px;stroke-linecap:butt;stroke-linejoin:miter;stroke-opacity:1"/></g></svg>