<svg xmlns="http://www.w3.org/2000/svg" xmlns:xlink="http://www.w3.org/1999/xlink" width="48" height="48"><defs><linearGradient id="c" x1="389.32" x2="426.695" y1="547.675" y2="499.921" gradientTransform="matrix(1.04996 0 0 1.0499 -452.983 -525.938)" gradientUnits="userSpaceOnUse"><stop stop-color="#18222a" style="stop-color:#1e2b35;stop-opacity:1"/><stop offset="1" stop-color="#566069" style="stop-color:#6d7983;stop-opacity:1"/></linearGradient><linearGradient xlink:href="#a" id="d" x1="26.015" x2="17.391" y1="30.788" y2="46.862" gradientTransform="matrix(.8 0 0 .8 4.923 -8)" gradientUnits="userSpaceOnUse"/><linearGradient id="a"><stop offset="0" style="stop-color:#158f76;stop-opacity:0"/><stop offset=".047" style="stop-color:#158f76;stop-opacity:.0627451"/><stop offset=".102" style="stop-color:#158f76;stop-opacity:.17254902"/><stop offset=".165" style="stop-color:#158f76;stop-opacity:.56862745"/><stop offset=".224" style="stop-color:#158f76;stop-opacity:.84705882"/><stop offset=".274" style="stop-color:#158f76;stop-opacity:.98783278"/><stop offset=".728" style="stop-color:#158f76;stop-opacity:1"/><stop offset=".777" style="stop-color:#158f76;stop-opacity:.87058824"/><stop offset=".842" style="stop-color:#158f76;stop-opacity:.58823529"/><stop offset=".918" style="stop-color:#158f76;stop-opacity:.16078431"/><stop offset=".965" style="stop-color:#158f76;stop-opacity:.05098039"/><stop offset="1" style="stop-color:#158f76;stop-opacity:0"/></linearGradient><linearGradient xlink:href="#b" id="e" x1="23.444" x2="33.503" y1="28.842" y2="48.039" gradientTransform="matrix(.8 0 0 .8 4.923 -8)" gradientUnits="userSpaceOnUse"/><linearGradient id="b"><stop offset="0" style="stop-color:#de59ff;stop-opacity:0"/><stop offset=".045" style="stop-color:#de59ff;stop-opacity:.11764706"/><stop offset=".103" style="stop-color:#de59ff;stop-opacity:.27058824"/><stop offset=".151" style="stop-color:#de59ff;stop-opacity:.42352941"/><stop offset=".208" style="stop-color:#de59ff;stop-opacity:.59607843"/><stop offset=".244" style="stop-color:#de59ff;stop-opacity:.81568627"/><stop offset=".325" style="stop-color:#de59ff;stop-opacity:1"/><stop offset=".635" style="stop-color:#de59ff;stop-opacity:1"/><stop offset=".692" style="stop-color:#e064ff;stop-opacity:.9254902"/><stop offset=".725" style="stop-color:#e373ff;stop-opacity:.83529412"/><stop offset=".911" style="stop-color:#fbedff;stop-opacity:.09411765"/><stop offset=".955" style="stop-color:#fdf7ff;stop-opacity:.04313725"/><stop offset="1" style="stop-color:#fff;stop-opacity:0"/></linearGradient></defs><rect width="41.998" height="41.996" x="-45" y="3.004" rx="20.999" style="fill:url(#c);stroke-width:2.93982;stroke-opacity:.55" transform="scale(-1 1)"/><path d="M3.013 23.477c-.005.175-.013.349-.013.525A20.953 20.953 0 0 0 24 45c11.633 0 20.998-9.365 20.998-20.998 0-.176-.008-.35-.012-.525A20.95 20.95 0 0 1 23.999 43.95 20.947 20.947 0 0 1 3.013 23.477" style="opacity:.3;fill:#000;fill-opacity:1;stroke-width:2.93982;stroke-opacity:.55"/><path d="M3.013 24.523c-.005-.175-.013-.349-.013-.525A20.953 20.953 0 0 1 24 3c11.633 0 20.998 9.365 20.998 20.998 0 .176-.008.35-.012.525A20.95 20.95 0 0 0 23.999 4.05 20.947 20.947 0 0 0 3.013 24.523" style="opacity:.3;fill:#fff;fill-opacity:1;stroke-width:2.93982;stroke-opacity:.55"/><path d="M12.293 13.6c-.417.003-.702.105-.827.321l-2.4 4.157c-.707 1.226 4.323 5.04 10.29 8.674-.083-3.59-.002-7.362.245-10.581-3.226-1.547-5.961-2.58-7.308-2.57M28.89 21.25c.084 3.59.002 7.362-.245 10.581 4.226 2.026 7.606 3.163 8.134 2.248l2.4-4.157c.707-1.226-4.323-5.04-10.29-8.672" style="fill:#ffdf7e;fill-opacity:.988235;stroke-width:.615384"/><path d="M35.953 13.6c-1.346-.008-4.082 1.023-7.308 2.57.247 3.219.329 6.991.245 10.582 5.967-3.633 10.998-7.448 10.29-8.674l-2.4-4.157c-.126-.216-.41-.318-.827-.32m-16.597 7.647c-5.967 3.634-10.997 7.448-10.29 8.674l2.401 4.157c.528.915 3.908-.222 8.134-2.248-.247-3.22-.328-6.992-.245-10.583" style="fill:#975cf6;fill-opacity:1;stroke-width:.615384"/><path d="M21.723 8h4.8c3.2 0 3.2 32 0 32h-4.8c-3.2 0-3.2-32 0-32" color="#000" style="fill:url(#d);fill-opacity:1;stroke-width:.615384"/><path d="M21.723 8h4.8c3.2 0 3.2 32 0 32h-4.8c-3.2 0-3.2-32 0-32" color="#000" style="fill:url(#e);fill-opacity:1;stroke-width:.615384"/><path d="M21.723 8h4.8c3.2 0 3.2 32 0 32h-4.8c-3.2 0-3.2-32 0-32" color="#000" style="fill:#fff;fill-opacity:.428955;stroke-width:.615384"/></svg>