<svg xmlns="http://www.w3.org/2000/svg" xmlns:xlink="http://www.w3.org/1999/xlink" width="48" height="48" fill-rule="evenodd" stroke-linejoin="round" stroke-miterlimit="2" clip-rule="evenodd"><defs><linearGradient id="a"><stop offset="0" style="stop-color:#223144;stop-opacity:1"/><stop offset="1" style="stop-color:#6d89b2;stop-opacity:1"/></linearGradient><linearGradient xlink:href="#a" id="b" x1="24" x2="23.805" y1="46.763" y2="9.208" gradientUnits="userSpaceOnUse"/></defs><g fill-rule="nonzero"><path d="M46.764 23.999c0-.866-.141-2.562-.141-2.562C43.349 16.032 33.166 4.71 25.198 2.433c-1.018-.29-3.299-1.126-4.318-.987A22.71 22.71 0 0 0 1.236 23.999a22.7 22.7 0 0 0 9.985 18.864c3.639 2.464 9.304.87 14.048.87 2.985 0 6.3-3.659 7.644-5.715 2.469-3.775 8.054 1.971 10.6-2.257a22.7 22.7 0 0 0 3.251-11.762" style="fill:url(#b);fill-opacity:1" transform="matrix(.9225 0 0 .92273 1.86 1.85)"/><path d="M23.506 1.246a23 23 0 0 0-3.462.329c-.032.027 7.813 2.014 10.75 4.051 2.241 1.58 4.105 4.608 5.328 7.01.678 1.332.087 1.336-2.73.331-2.173-.774-4.632-1.564-4.801-1.378-.069.077-.255.532-.411 1.012-.296.909-1.056 1.869-1.186 1.739-.041-.041.04-.618.18-1.283.307-1.447.324-2.209.076-3.365-.269-1.253-.43-1.33-1.872-.901-.666.199-2.103.557-3.192.796-3.259.717-5.077 1.591-7.098 2.806-1.189.715-1.447.745-1.298.153.189-.755-.339-.511-1.703.785-1.287 1.222-1.681 1.446-1.681.958 0-.57-.342-.198-1.003 1.089a31 31 0 0 0-1.182 2.657c-.396 1.058-.75 1.598-1.859 2.836-2.151 2.404-2.233 2.913-.475 2.913 1.305 0 1.34.334.064.609l-.858.184.016 1.056c.02 1.439.467 2.32 1.396 2.752.443.207.839.561 1.038.93.32.594 1.187 1.44 1.476 1.44.084 0 .106-.38.051-.845-.111-.939.271-2.001.827-2.298.256-.137.402-.057.771.427.455.596 1.273 1.239 1.408 1.104.039-.038-.124-.57-.363-1.18-.656-1.673-.597-1.927.305-2.713 1.023-.891 2.11-1.357 2.839-1.22 1.12.21 3.372 2.013 3.616 2.984.146.583-.207 1.382-.849 1.923-.665.559-1.875 1.294-2.307 1.294-.182 0-.698-.323-1.147-.719s-.859-.675-.91-.624c-.05.051-.006.392.096.76s.186.77.187.889c.002.385-.976.234-2.003-.306-.547-.288-1.025-.523-1.063-.523-.319 0 .865 4.068 1.419 4.804.411.546.827.842 1.353.876.699.046 1.592-.368 2.928-1.263 2.218-1.487 3.813-2.835 6.033-3.196 1.218-.198 1.844.046 2.73 1.072 1.218 1.408 3.999 8.163 3.715 8.905-3.029 1.949-6.357 2.414-9.701 2.443-3.501.1-6.123-.661-9.164-1.539A22.7 22.7 0 0 0 24 46.763c8.77 0 16.34-4.915 20.145-12.146-2.243-1.159-6.135-2.928-8.525-3.78-.792-.282-1.295-.55-1.205-.64.324-.324 6.704.777 9.664 1.667.22.067.736.234 1.136.369.156-.405.315-.81.449-1.227-.506-.264-1.091-.575-1.368-.724-2.366-1.279-5.923-2.569-9.321-3.384-3.027-.726-2.901-.684-2.567-.871.619-.347 8.407.393 12.366 1.174.187.036 1.062.195 1.721.317.09-.585.153-1.181.198-1.78a36 36 0 0 0-2.895-1.165c-3.244-1.174-7.888-1.831-12.055-2.069-1.778-.102-2.44-.457-2.003-.64 2.789-.516 3.366-1.279 8.666-1.279 2.894.167 5.603.767 8.258 1.305-.913-10.024-8.269-18.124-17.916-20.157l-.293-.062q-.282-.054-.567-.1c-.19-.033-.372-.068-.582-.096q-.127-.016-.254-.031a34 34 0 0 0-3.546-.198" style="fill:#3385ff;fill-opacity:1" transform="matrix(.9225 0 0 .92273 1.86 1.85)"/><path fill="#fff" d="M13.252 17.695c.08.003.143.02.18.054.362.335-.797 1.66-1.644 1.877-1.47.377-1.807.122-1.037-.782.445-.522 1.938-1.175 2.5-1.15"/></g></svg>