<svg xmlns="http://www.w3.org/2000/svg" xmlns:xlink="http://www.w3.org/1999/xlink" width="128" height="128" version="1.0"><defs><linearGradient id="aw"><stop offset="0" style="stop-color:#fff;stop-opacity:1"/><stop offset="1" style="stop-color:#fff;stop-opacity:0"/></linearGradient><linearGradient id="B"><stop offset="0" style="stop-color:#00f;stop-opacity:1"/><stop offset="1" style="stop-color:#00f;stop-opacity:0"/></linearGradient><linearGradient id="o" x1="15.721" x2="24.936" y1="125.786" y2="108.343" gradientTransform="translate(-80)" gradientUnits="userSpaceOnUse"><stop offset="0" style="stop-color:#000"/><stop offset=".893" style="stop-color:#fff"/></linearGradient><linearGradient id="y"><stop offset="0" style="stop-color:#acfd56;stop-opacity:.68627453"/><stop offset="1" style="stop-color:#fff;stop-opacity:.70909089"/></linearGradient><linearGradient id="z"><stop offset="0" style="stop-color:#fff;stop-opacity:1"/><stop offset="1" style="stop-color:#fff;stop-opacity:0"/></linearGradient><linearGradient xlink:href="#B" id="aR" x1="514.129" x2="584.117" y1="-5.484" y2="-5.484" gradientUnits="userSpaceOnUse"/><linearGradient xlink:href="#D" id="aB" x1="60.001" x2="60.001" y1="12.845" y2="120.214" gradientTransform="translate(145.714 -238.214)" gradientUnits="userSpaceOnUse"/><linearGradient id="D" x1="60.001" x2="60.001" y1="12.845" y2="120.214" gradientTransform="translate(145.714 -238.214)" gradientUnits="userSpaceOnUse"><stop offset="0" style="stop-color:#fff"/><stop offset="1" style="stop-color:#fff;stop-opacity:0"/></linearGradient><linearGradient xlink:href="#E" id="aC" x1="60.001" x2="60.001" y1="94" y2="26" gradientTransform="translate(145.714 -238.214)" gradientUnits="userSpaceOnUse"/><linearGradient id="E" x1="60.001" x2="60.001" y1="94" y2="26" gradientTransform="translate(145.714 -238.214)" gradientUnits="userSpaceOnUse"><stop offset=".296" style="stop-color:#fff"/><stop offset="1" style="stop-color:#4a4a55"/></linearGradient><linearGradient xlink:href="#F" id="aD" x1="60.001" x2="60.001" y1="92" y2="28" gradientTransform="translate(145.714 -238.214)" gradientUnits="userSpaceOnUse"/><linearGradient id="F" x1="60.001" x2="60.001" y1="92" y2="28" gradientTransform="translate(145.714 -238.214)" gradientUnits="userSpaceOnUse"><stop offset=".195" style="stop-color:#e9e9f0"/><stop offset=".26" style="stop-color:#dadae2"/><stop offset=".461" style="stop-color:#b1b1bb"/><stop offset=".644" style="stop-color:#93939f"/><stop offset=".8" style="stop-color:#81818e"/><stop offset=".911" style="stop-color:#7a7a88"/><stop offset="1" style="stop-color:#696975"/></linearGradient><linearGradient xlink:href="#G" id="aE" x1="60.001" x2="60.001" y1="86" y2="34.001" gradientTransform="translate(145.714 -238.214)" gradientUnits="userSpaceOnUse"/><linearGradient id="G" x1="60.001" x2="60.001" y1="86" y2="34.001" gradientTransform="translate(145.714 -238.214)" gradientUnits="userSpaceOnUse"><stop offset="0" style="stop-color:#bbb"/><stop offset="1" style="stop-color:#555"/></linearGradient><linearGradient id="H"><stop offset="0" style="stop-color:#c6ff92;stop-opacity:1"/><stop offset=".58" style="stop-color:#9ef451;stop-opacity:1"/><stop offset="1" style="stop-color:#6fc226;stop-opacity:1"/></linearGradient><linearGradient id="I"><stop offset="0" style="stop-color:#3e6b13;stop-opacity:0"/><stop offset=".795" style="stop-color:#477a16;stop-opacity:0"/><stop offset="1" style="stop-color:#426111;stop-opacity:1"/></linearGradient><linearGradient id="J"><stop offset="0" style="stop-color:#acfd56;stop-opacity:.68627453"/><stop offset="1" style="stop-color:#fff;stop-opacity:.70909089"/></linearGradient><linearGradient id="K"><stop offset="0" style="stop-color:#fff;stop-opacity:1"/><stop offset="1" style="stop-color:#fff;stop-opacity:0"/></linearGradient><linearGradient xlink:href="#L" id="bg" x1="514.129" x2="584.117" y1="-5.484" y2="-5.484" gradientUnits="userSpaceOnUse"/><linearGradient id="L"><stop offset="0" style="stop-color:#00f;stop-opacity:1"/><stop offset="1" style="stop-color:#00f;stop-opacity:0"/></linearGradient><linearGradient id="M"><stop offset="0" style="stop-color:#acfd56;stop-opacity:.68627453"/><stop offset="1" style="stop-color:#fff;stop-opacity:.70909089"/></linearGradient><linearGradient id="N"><stop offset="0" style="stop-color:#fff;stop-opacity:1"/><stop offset="1" style="stop-color:#fff;stop-opacity:0"/></linearGradient><linearGradient xlink:href="#R" id="bn" x1="514.129" x2="584.117" y1="-5.484" y2="-5.484" gradientUnits="userSpaceOnUse"/><linearGradient id="R"><stop offset="0" style="stop-color:#00f;stop-opacity:1"/><stop offset="1" style="stop-color:#00f;stop-opacity:0"/></linearGradient><linearGradient id="S"><stop offset="0" style="stop-color:#acfd56;stop-opacity:.68627453"/><stop offset="1" style="stop-color:#fff;stop-opacity:.70909089"/></linearGradient><linearGradient id="T"><stop offset="0" style="stop-color:#fff;stop-opacity:1"/><stop offset="1" style="stop-color:#fff;stop-opacity:0"/></linearGradient><linearGradient xlink:href="#U" id="bu" x1="514.129" x2="584.117" y1="-5.484" y2="-5.484" gradientUnits="userSpaceOnUse"/><linearGradient id="U"><stop offset="0" style="stop-color:#00f;stop-opacity:1"/><stop offset="1" style="stop-color:#00f;stop-opacity:0"/></linearGradient><linearGradient id="V"><stop offset="0" style="stop-color:#acfd56;stop-opacity:.68627453"/><stop offset="1" style="stop-color:#fff;stop-opacity:.70909089"/></linearGradient><linearGradient id="W"><stop offset="0" style="stop-color:#fff;stop-opacity:1"/><stop offset="1" style="stop-color:#fff;stop-opacity:0"/></linearGradient><linearGradient xlink:href="#X" id="bB" x1="514.129" x2="584.117" y1="-5.484" y2="-5.484" gradientUnits="userSpaceOnUse"/><linearGradient id="X"><stop offset="0" style="stop-color:#00f;stop-opacity:1"/><stop offset="1" style="stop-color:#00f;stop-opacity:0"/></linearGradient><linearGradient id="Y"><stop offset="0" style="stop-color:#acfd56;stop-opacity:.68627453"/><stop offset="1" style="stop-color:#fff;stop-opacity:.70909089"/></linearGradient><linearGradient id="Z"><stop offset="0" style="stop-color:#fff;stop-opacity:1"/><stop offset="1" style="stop-color:#fff;stop-opacity:0"/></linearGradient><linearGradient xlink:href="#aa" id="bJ" x1="514.129" x2="584.117" y1="-5.484" y2="-5.484" gradientUnits="userSpaceOnUse"/><linearGradient id="aa"><stop offset="0" style="stop-color:#00f;stop-opacity:1"/><stop offset="1" style="stop-color:#00f;stop-opacity:0"/></linearGradient><linearGradient id="ab"><stop offset="0" style="stop-color:#acfd56;stop-opacity:.68627453"/><stop offset="1" style="stop-color:#fff;stop-opacity:.70909089"/></linearGradient><linearGradient id="ac"><stop offset="0" style="stop-color:#fff;stop-opacity:1"/><stop offset="1" style="stop-color:#fff;stop-opacity:0"/></linearGradient><linearGradient id="ad"><stop offset="0" style="stop-color:#c6ff92;stop-opacity:1"/><stop offset=".58" style="stop-color:#9ef451;stop-opacity:1"/><stop offset="1" style="stop-color:#6fc226;stop-opacity:1"/></linearGradient><linearGradient id="ae"><stop offset="0" style="stop-color:#3e6b13;stop-opacity:0"/><stop offset=".795" style="stop-color:#477a16;stop-opacity:0"/><stop offset="1" style="stop-color:#426111;stop-opacity:1"/></linearGradient><linearGradient id="af"><stop offset="0" style="stop-color:#acfd56;stop-opacity:.68627453"/><stop offset="1" style="stop-color:#fff;stop-opacity:.70909089"/></linearGradient><linearGradient id="ag"><stop offset="0" style="stop-color:#fff;stop-opacity:1"/><stop offset="1" style="stop-color:#fff;stop-opacity:0"/></linearGradient><linearGradient id="ah"><stop offset="0" style="stop-color:#c6ff92;stop-opacity:1"/><stop offset=".58" style="stop-color:#9ef451;stop-opacity:1"/><stop offset="1" style="stop-color:#6fc226;stop-opacity:1"/></linearGradient><linearGradient id="ai"><stop offset="0" style="stop-color:#3e6b13;stop-opacity:0"/><stop offset=".795" style="stop-color:#477a16;stop-opacity:0"/><stop offset="1" style="stop-color:#426111;stop-opacity:1"/></linearGradient><linearGradient id="aj"><stop offset="0" style="stop-color:#acfd56;stop-opacity:.68627453"/><stop offset="1" style="stop-color:#fff;stop-opacity:.70909089"/></linearGradient><linearGradient id="ak"><stop offset="0" style="stop-color:#fff;stop-opacity:1"/><stop offset="1" style="stop-color:#fff;stop-opacity:0"/></linearGradient><linearGradient xlink:href="#al" id="ch" x1="514.129" x2="584.117" y1="-5.484" y2="-5.484" gradientUnits="userSpaceOnUse"/><linearGradient id="al"><stop offset="0" style="stop-color:#00f;stop-opacity:1"/><stop offset="1" style="stop-color:#00f;stop-opacity:0"/></linearGradient><linearGradient id="am"><stop offset="0" style="stop-color:#acfd56;stop-opacity:.68627453"/><stop offset="1" style="stop-color:#fff;stop-opacity:.70909089"/></linearGradient><linearGradient id="an"><stop offset="0" style="stop-color:#fff;stop-opacity:1"/><stop offset="1" style="stop-color:#fff;stop-opacity:0"/></linearGradient><linearGradient xlink:href="#ap" id="co" x1="514.129" x2="584.117" y1="-5.484" y2="-5.484" gradientUnits="userSpaceOnUse"/><linearGradient id="ap"><stop offset="0" style="stop-color:#00f;stop-opacity:1"/><stop offset="1" style="stop-color:#00f;stop-opacity:0"/></linearGradient><linearGradient id="aq"><stop offset="0" style="stop-color:#acfd56;stop-opacity:.68627453"/><stop offset="1" style="stop-color:#fff;stop-opacity:.70909089"/></linearGradient><linearGradient id="ar"><stop offset="0" style="stop-color:#fff;stop-opacity:1"/><stop offset="1" style="stop-color:#fff;stop-opacity:0"/></linearGradient><linearGradient id="as"><stop offset="0" style="stop-color:#c6ff92;stop-opacity:1"/><stop offset=".58" style="stop-color:#9ef451;stop-opacity:1"/><stop offset="1" style="stop-color:#6fc226;stop-opacity:1"/></linearGradient><linearGradient id="at"><stop offset="0" style="stop-color:#3e6b13;stop-opacity:0"/><stop offset=".795" style="stop-color:#477a16;stop-opacity:0"/><stop offset="1" style="stop-color:#426111;stop-opacity:1"/></linearGradient><linearGradient id="au"><stop offset="0" style="stop-color:#acfd56;stop-opacity:.68627453"/><stop offset="1" style="stop-color:#fff;stop-opacity:.70909089"/></linearGradient><linearGradient id="av"><stop offset="0" style="stop-color:#fff;stop-opacity:1"/><stop offset="1" style="stop-color:#fff;stop-opacity:0"/></linearGradient><linearGradient xlink:href="#aw" id="ax" x1="250" x2="243" y1="60" y2="60" gradientTransform="matrix(1.00009 0 0 1.01677 -454.143 -236.763)" gradientUnits="userSpaceOnUse"/><filter id="aS"><feGaussianBlur stdDeviation=".666"/></filter><filter id="aU"><feGaussianBlur stdDeviation=".605"/></filter><filter id="az"><feGaussianBlur stdDeviation="2.4"/></filter><filter id="ba"><feGaussianBlur stdDeviation=".666"/></filter><filter id="bc"><feGaussianBlur stdDeviation=".605"/></filter><filter id="bh"><feGaussianBlur stdDeviation=".666"/></filter><filter id="bj"><feGaussianBlur stdDeviation=".605"/></filter><filter id="bo"><feGaussianBlur stdDeviation=".666"/></filter><filter id="bq"><feGaussianBlur stdDeviation=".605"/></filter><filter id="bv"><feGaussianBlur stdDeviation=".666"/></filter><filter id="bx"><feGaussianBlur stdDeviation=".605"/></filter><filter id="bC"><feGaussianBlur stdDeviation=".666"/></filter><filter id="bE"><feGaussianBlur stdDeviation=".605"/></filter><filter id="bK"><feGaussianBlur stdDeviation=".666"/></filter><filter id="bM"><feGaussianBlur stdDeviation=".605"/></filter><filter id="bS"><feGaussianBlur stdDeviation=".666"/></filter><filter id="bU"><feGaussianBlur stdDeviation=".605"/></filter><filter id="ca"><feGaussianBlur stdDeviation=".666"/></filter><filter id="cc"><feGaussianBlur stdDeviation=".605"/></filter><filter id="ci"><feGaussianBlur stdDeviation=".666"/></filter><filter id="ck"><feGaussianBlur stdDeviation=".605"/></filter><filter id="cf" style="color-interpolation-filters:sRGB"><feFlood flood-color="#000" flood-opacity=".498" result="flood"/><feComposite in="flood" in2="SourceGraphic" operator="in" result="composite1"/><feGaussianBlur in="composite1" result="blur" stdDeviation="2.6"/><feOffset dx="1.1" dy="1.1" result="offset"/><feComposite in="SourceGraphic" in2="offset" result="composite2"/></filter><filter id="ce" style="color-interpolation-filters:sRGB"><feFlood flood-color="#000" flood-opacity=".498" result="flood"/><feComposite in="flood" in2="SourceGraphic" operator="in" result="composite1"/><feGaussianBlur in="composite1" result="blur" stdDeviation="2.6"/><feOffset dx="1.1" dy="1.1" result="offset"/><feComposite in="SourceGraphic" in2="offset" result="composite2"/></filter><filter id="bW" style="color-interpolation-filters:sRGB"><feFlood flood-color="#000" flood-opacity=".498" result="flood"/><feComposite in="flood" in2="SourceGraphic" operator="in" result="composite1"/><feGaussianBlur in="composite1" result="blur" stdDeviation="2.6"/><feOffset dx="1.1" dy="1.1" result="offset"/><feComposite in="SourceGraphic" in2="offset" result="composite2"/></filter><filter id="bO" style="color-interpolation-filters:sRGB"><feFlood flood-color="#000" flood-opacity=".498" result="flood"/><feComposite in="flood" in2="SourceGraphic" operator="in" result="composite1"/><feGaussianBlur in="composite1" result="blur" stdDeviation="2.6"/><feOffset dx="1.1" dy="1.1" result="offset"/><feComposite in="SourceGraphic" in2="offset" result="composite2"/></filter><filter id="bH" style="color-interpolation-filters:sRGB"><feFlood flood-color="#000" flood-opacity=".498" result="flood"/><feComposite in="flood" in2="SourceGraphic" operator="in" result="composite1"/><feGaussianBlur in="composite1" result="blur" stdDeviation="2.6"/><feOffset dx="1.1" dy="1.1" result="offset"/><feComposite in="SourceGraphic" in2="offset" result="composite2"/></filter><filter id="bG" style="color-interpolation-filters:sRGB"><feFlood flood-color="#000" flood-opacity=".498" result="flood"/><feComposite in="flood" in2="SourceGraphic" operator="in" result="composite1"/><feGaussianBlur in="composite1" result="blur" stdDeviation="2.6"/><feOffset dx="1.1" dy="1.1" result="offset"/><feComposite in="SourceGraphic" in2="offset" result="composite2"/></filter><filter id="bz" style="color-interpolation-filters:sRGB"><feFlood flood-color="#000" flood-opacity=".498" result="flood"/><feComposite in="flood" in2="SourceGraphic" operator="in" result="composite1"/><feGaussianBlur in="composite1" result="blur" stdDeviation="2.6"/><feOffset dx="1.1" dy="1.1" result="offset"/><feComposite in="SourceGraphic" in2="offset" result="composite2"/></filter><filter id="bs" style="color-interpolation-filters:sRGB"><feFlood flood-color="#000" flood-opacity=".498" result="flood"/><feComposite in="flood" in2="SourceGraphic" operator="in" result="composite1"/><feGaussianBlur in="composite1" result="blur" stdDeviation="2.6"/><feOffset dx="1.1" dy="1.1" result="offset"/><feComposite in="SourceGraphic" in2="offset" result="composite2"/></filter><filter id="bl" style="color-interpolation-filters:sRGB"><feFlood flood-color="#000" flood-opacity=".498" result="flood"/><feComposite in="flood" in2="SourceGraphic" operator="in" result="composite1"/><feGaussianBlur in="composite1" result="blur" stdDeviation="2.6"/><feOffset dx="1.1" dy="1.1" result="offset"/><feComposite in="SourceGraphic" in2="offset" result="composite2"/></filter><filter id="be" style="color-interpolation-filters:sRGB"><feFlood flood-color="#000" flood-opacity=".498" result="flood"/><feComposite in="flood" in2="SourceGraphic" operator="in" result="composite1"/><feGaussianBlur in="composite1" result="blur" stdDeviation="2.6"/><feOffset dx="1.1" dy="1.1" result="offset"/><feComposite in="SourceGraphic" in2="offset" result="composite2"/></filter><filter id="aW" style="color-interpolation-filters:sRGB"><feFlood flood-color="#000" flood-opacity=".498" result="flood"/><feComposite in="flood" in2="SourceGraphic" operator="in" result="composite1"/><feGaussianBlur in="composite1" result="blur" stdDeviation="2.6"/><feOffset dx="1.1" dy="1.1" result="offset"/><feComposite in="SourceGraphic" in2="offset" result="composite2"/></filter><filter id="aP" style="color-interpolation-filters:sRGB"><feFlood flood-color="#000" flood-opacity=".498" result="flood"/><feComposite in="flood" in2="SourceGraphic" operator="in" result="composite1"/><feGaussianBlur in="composite1" result="blur" stdDeviation="2.6"/><feOffset dx="1.1" dy="1.1" result="offset"/><feComposite in="SourceGraphic" in2="offset" result="composite2"/></filter><filter id="aN" style="color-interpolation-filters:sRGB"><feFlood flood-color="#000" flood-opacity=".498" result="flood"/><feComposite in="flood" in2="SourceGraphic" operator="in" result="composite1"/><feGaussianBlur in="composite1" result="blur" stdDeviation="2.6"/><feOffset dx="1.1" dy="1.1" result="offset"/><feComposite in="SourceGraphic" in2="offset" result="composite2"/></filter><filter id="aM" style="color-interpolation-filters:sRGB"><feFlood flood-color="#000" flood-opacity=".498" result="flood"/><feComposite in="flood" in2="SourceGraphic" operator="in" result="composite1"/><feGaussianBlur in="composite1" result="blur" stdDeviation="2.6"/><feOffset dx="1.1" dy="1.1" result="offset"/><feComposite in="SourceGraphic" in2="offset" result="composite2"/></filter><filter id="aL" style="color-interpolation-filters:sRGB"><feFlood flood-color="#000" flood-opacity=".498" result="flood"/><feComposite in="flood" in2="SourceGraphic" operator="in" result="composite1"/><feGaussianBlur in="composite1" result="blur" stdDeviation="2.6"/><feOffset dx="1.1" dy="1.1" result="offset"/><feComposite in="SourceGraphic" in2="offset" result="composite2"/></filter><filter id="aK" style="color-interpolation-filters:sRGB"><feFlood flood-color="#000" flood-opacity=".498" result="flood"/><feComposite in="flood" in2="SourceGraphic" operator="in" result="composite1"/><feGaussianBlur in="composite1" result="blur" stdDeviation="2.6"/><feOffset dx="1.1" dy="1.1" result="offset"/><feComposite in="SourceGraphic" in2="offset" result="composite2"/></filter><filter id="aJ" style="color-interpolation-filters:sRGB"><feFlood flood-color="#000" flood-opacity=".498" result="flood"/><feComposite in="flood" in2="SourceGraphic" operator="in" result="composite1"/><feGaussianBlur in="composite1" result="blur" stdDeviation="2.6"/><feOffset dx="1.1" dy="1.1" result="offset"/><feComposite in="SourceGraphic" in2="offset" result="composite2"/></filter><filter id="aI" style="color-interpolation-filters:sRGB"><feFlood flood-color="#000" flood-opacity=".498" result="flood"/><feComposite in="flood" in2="SourceGraphic" operator="in" result="composite1"/><feGaussianBlur in="composite1" result="blur" stdDeviation="2.6"/><feOffset dx="1.1" dy="1.1" result="offset"/><feComposite in="SourceGraphic" in2="offset" result="composite2"/></filter><filter id="aH" style="color-interpolation-filters:sRGB"><feFlood flood-color="#000" flood-opacity=".498" result="flood"/><feComposite in="flood" in2="SourceGraphic" operator="in" result="composite1"/><feGaussianBlur in="composite1" result="blur" stdDeviation="2.6"/><feOffset dx="1.1" dy="1.1" result="offset"/><feComposite in="SourceGraphic" in2="offset" result="composite2"/></filter><filter id="aG" style="color-interpolation-filters:sRGB"><feFlood flood-color="#000" flood-opacity=".498" result="flood"/><feComposite in="flood" in2="SourceGraphic" operator="in" result="composite1"/><feGaussianBlur in="composite1" result="blur" stdDeviation="2.6"/><feOffset dx="1.1" dy="1.1" result="offset"/><feComposite in="SourceGraphic" in2="offset" result="composite2"/></filter><filter id="aF" style="color-interpolation-filters:sRGB"><feFlood flood-color="#000" flood-opacity=".498" result="flood"/><feComposite in="flood" in2="SourceGraphic" operator="in" result="composite1"/><feGaussianBlur in="composite1" result="blur" stdDeviation="2.6"/><feOffset dx="1.1" dy="1.1" result="offset"/><feComposite in="SourceGraphic" in2="offset" result="composite2"/></filter><filter id="aO" style="color-interpolation-filters:sRGB"><feFlood flood-color="#000" flood-opacity=".498" result="flood"/><feComposite in="flood" in2="SourceGraphic" operator="in" result="composite1"/><feGaussianBlur in="composite1" result="blur" stdDeviation="2.6"/><feOffset dx="1.1" dy="1.1" result="offset"/><feComposite in="SourceGraphic" in2="offset" result="composite2"/></filter><filter id="cm" color-interpolation-filters="sRGB"><feFlood flood-color="#000" flood-opacity=".498" result="flood"/><feComposite in="flood" in2="SourceGraphic" operator="in" result="composite1"/><feGaussianBlur in="composite1" result="blur" stdDeviation="2.6"/><feOffset dx="1.1" dy="1.1" result="offset"/><feComposite in="SourceGraphic" in2="offset" result="composite2"/></filter><filter id="cp" color-interpolation-filters="sRGB"><feGaussianBlur stdDeviation=".666"/></filter><filter id="cr" color-interpolation-filters="sRGB"><feGaussianBlur stdDeviation=".605"/></filter><filter id="ct" color-interpolation-filters="sRGB"><feFlood flood-color="#000" flood-opacity=".498" result="flood"/><feComposite in="flood" in2="SourceGraphic" operator="in" result="composite1"/><feGaussianBlur in="composite1" result="blur" stdDeviation="2.6"/><feOffset dx="1.1" dy="1.1" result="offset"/><feComposite in="SourceGraphic" in2="offset" result="composite2"/></filter><filter id="cx" color-interpolation-filters="sRGB"><feGaussianBlur stdDeviation=".666"/></filter><filter id="cz" color-interpolation-filters="sRGB"><feGaussianBlur stdDeviation=".605"/></filter><radialGradient xlink:href="#y" id="aT" cx="455.504" cy="-40.35" r="14.103" fx="455.504" fy="-32.883" gradientTransform="matrix(1.48649 0 0 1.83784 -221.596 32.465)" gradientUnits="userSpaceOnUse"/><radialGradient xlink:href="#z" id="aV" cx="419.656" cy="-36.612" r="27.473" fx="419.656" fy="-36.612" gradientTransform="matrix(.65244 0 0 .58806 -242.327 106.037)" gradientUnits="userSpaceOnUse"/><radialGradient xlink:href="#C" id="aA" cx="59.511" cy="124" r="125.171" gradientTransform="translate(145.714 -238.214)" gradientUnits="userSpaceOnUse"/><radialGradient id="C" cx="59.511" cy="124" r="125.171" gradientTransform="translate(145.714 -238.214)" gradientUnits="userSpaceOnUse"><stop offset=".177" style="stop-color:#f0f0f0"/><stop offset=".532" style="stop-color:#a5a5bb"/></radialGradient><radialGradient xlink:href="#H" id="aX" cx="654.536" cy="-20.356" r="38.29" fx="653.773" fy="3.277" gradientTransform="matrix(.63567 0 0 .63567 -384.556 115.193)" gradientUnits="userSpaceOnUse"/><radialGradient xlink:href="#I" id="aZ" cx="549.109" cy="-5.5" r="34.641" fx="549.109" fy="15.369" gradientTransform="matrix(1 0 0 .99955 0 -.002)" gradientUnits="userSpaceOnUse"/><radialGradient xlink:href="#J" id="bb" cx="455.504" cy="-40.35" r="14.103" fx="455.504" fy="-32.883" gradientTransform="matrix(1.48649 0 0 1.83784 -221.596 32.465)" gradientUnits="userSpaceOnUse"/><radialGradient xlink:href="#K" id="bd" cx="419.656" cy="-36.612" r="27.473" fx="419.656" fy="-36.612" gradientTransform="matrix(.65244 0 0 .58806 -242.327 106.037)" gradientUnits="userSpaceOnUse"/><radialGradient xlink:href="#M" id="bi" cx="455.504" cy="-40.35" r="14.103" fx="455.504" fy="-32.883" gradientTransform="matrix(1.48649 0 0 1.83784 -221.596 32.465)" gradientUnits="userSpaceOnUse"/><radialGradient xlink:href="#N" id="bk" cx="419.656" cy="-36.612" r="27.473" fx="419.656" fy="-36.612" gradientTransform="matrix(.65244 0 0 .58806 -242.327 106.037)" gradientUnits="userSpaceOnUse"/><radialGradient xlink:href="#S" id="bp" cx="455.504" cy="-40.35" r="14.103" fx="455.504" fy="-32.883" gradientTransform="matrix(1.48649 0 0 1.83784 -221.596 32.465)" gradientUnits="userSpaceOnUse"/><radialGradient xlink:href="#T" id="br" cx="419.656" cy="-36.612" r="27.473" fx="419.656" fy="-36.612" gradientTransform="matrix(.65244 0 0 .58806 -242.327 106.037)" gradientUnits="userSpaceOnUse"/><radialGradient xlink:href="#V" id="bw" cx="455.504" cy="-40.35" r="14.103" fx="455.504" fy="-32.883" gradientTransform="matrix(1.48649 0 0 1.83784 -221.596 32.465)" gradientUnits="userSpaceOnUse"/><radialGradient xlink:href="#W" id="by" cx="419.656" cy="-36.612" r="27.473" fx="419.656" fy="-36.612" gradientTransform="matrix(.65244 0 0 .58806 -242.327 106.037)" gradientUnits="userSpaceOnUse"/><radialGradient xlink:href="#Y" id="bD" cx="455.504" cy="-40.35" r="14.103" fx="455.504" fy="-32.883" gradientTransform="matrix(1.48649 0 0 1.83784 -221.596 32.465)" gradientUnits="userSpaceOnUse"/><radialGradient xlink:href="#Z" id="bF" cx="419.656" cy="-36.612" r="27.473" fx="419.656" fy="-36.612" gradientTransform="matrix(.65244 0 0 .58806 -242.327 106.037)" gradientUnits="userSpaceOnUse"/><radialGradient xlink:href="#ab" id="bL" cx="455.504" cy="-40.35" r="14.103" fx="455.504" fy="-32.883" gradientTransform="matrix(1.48649 0 0 1.83784 -221.596 32.465)" gradientUnits="userSpaceOnUse"/><radialGradient xlink:href="#ac" id="bN" cx="419.656" cy="-36.612" r="27.473" fx="419.656" fy="-36.612" gradientTransform="matrix(.65244 0 0 .58806 -242.327 106.037)" gradientUnits="userSpaceOnUse"/><radialGradient xlink:href="#ad" id="bP" cx="654.536" cy="-20.356" r="38.29" fx="653.773" fy="3.277" gradientTransform="matrix(.63567 0 0 .63567 -384.556 115.193)" gradientUnits="userSpaceOnUse"/><radialGradient xlink:href="#ae" id="bR" cx="549.109" cy="-5.5" r="34.641" fx="549.109" fy="15.369" gradientTransform="matrix(1 0 0 .99955 0 -.002)" gradientUnits="userSpaceOnUse"/><radialGradient xlink:href="#af" id="bT" cx="455.504" cy="-40.35" r="14.103" fx="455.504" fy="-32.883" gradientTransform="matrix(1.48649 0 0 1.83784 -221.596 32.465)" gradientUnits="userSpaceOnUse"/><radialGradient xlink:href="#ag" id="bV" cx="419.656" cy="-36.612" r="27.473" fx="419.656" fy="-36.612" gradientTransform="matrix(.65244 0 0 .58806 -242.327 106.037)" gradientUnits="userSpaceOnUse"/><radialGradient xlink:href="#ah" id="bX" cx="654.536" cy="-20.356" r="38.29" fx="653.773" fy="3.277" gradientTransform="matrix(.63567 0 0 .63567 -384.556 115.193)" gradientUnits="userSpaceOnUse"/><radialGradient xlink:href="#ai" id="bZ" cx="549.109" cy="-5.5" r="34.641" fx="549.109" fy="15.369" gradientTransform="matrix(1 0 0 .99955 0 -.002)" gradientUnits="userSpaceOnUse"/><radialGradient xlink:href="#aj" id="cb" cx="455.504" cy="-40.35" r="14.103" fx="455.504" fy="-32.883" gradientTransform="matrix(1.48649 0 0 1.83784 -221.596 32.465)" gradientUnits="userSpaceOnUse"/><radialGradient xlink:href="#ak" id="cd" cx="419.656" cy="-36.612" r="27.473" fx="419.656" fy="-36.612" gradientTransform="matrix(.65244 0 0 .58806 -242.327 106.037)" gradientUnits="userSpaceOnUse"/><radialGradient xlink:href="#am" id="cj" cx="455.504" cy="-40.35" r="14.103" fx="455.504" fy="-32.883" gradientTransform="matrix(1.48649 0 0 1.83784 -221.596 32.465)" gradientUnits="userSpaceOnUse"/><radialGradient xlink:href="#an" id="cl" cx="419.656" cy="-36.612" r="27.473" fx="419.656" fy="-36.612" gradientTransform="matrix(.65244 0 0 .58806 -242.327 106.037)" gradientUnits="userSpaceOnUse"/><radialGradient xlink:href="#aq" id="cq" cx="455.504" cy="-40.35" r="14.103" fx="455.504" fy="-32.883" gradientTransform="matrix(1.48649 0 0 1.83784 -221.596 32.465)" gradientUnits="userSpaceOnUse"/><radialGradient xlink:href="#ar" id="cs" cx="419.656" cy="-36.612" r="27.473" fx="419.656" fy="-36.612" gradientTransform="matrix(.65244 0 0 .58806 -242.327 106.037)" gradientUnits="userSpaceOnUse"/><radialGradient xlink:href="#as" id="cu" cx="654.536" cy="-20.356" r="38.29" fx="653.773" fy="3.277" gradientTransform="matrix(.63567 0 0 .63567 -384.556 115.193)" gradientUnits="userSpaceOnUse"/><radialGradient xlink:href="#at" id="cw" cx="549.109" cy="-5.5" r="34.641" fx="549.109" fy="15.369" gradientTransform="matrix(1 0 0 .99955 0 -.002)" gradientUnits="userSpaceOnUse"/><radialGradient xlink:href="#au" id="cy" cx="455.504" cy="-40.35" r="14.103" fx="455.504" fy="-32.883" gradientTransform="matrix(1.48649 0 0 1.83784 -221.596 32.465)" gradientUnits="userSpaceOnUse"/><radialGradient xlink:href="#av" id="cA" cx="419.656" cy="-36.612" r="27.473" fx="419.656" fy="-36.612" gradientTransform="matrix(.65244 0 0 .58806 -242.327 106.037)" gradientUnits="userSpaceOnUse"/><clipPath id="aQ" clipPathUnits="userSpaceOnUse"><path d="M549.138-40.479c-19.32 0-35.01 15.69-35.01 35.01s15.69 34.979 35.01 34.979 34.979-15.66 34.979-34.979c0-19.32-15.66-35.01-34.979-35.01" style="fill:#aac0ef;fill-opacity:1;stroke:none"/></clipPath><clipPath id="aY" clipPathUnits="userSpaceOnUse"><path d="M549.138-40.479c-19.32 0-35.01 15.69-35.01 35.01s15.69 34.979 35.01 34.979 34.979-15.66 34.979-34.979c0-19.32-15.66-35.01-34.979-35.01" style="fill:#aac0ef;fill-opacity:1;stroke:none"/></clipPath><clipPath id="bf" clipPathUnits="userSpaceOnUse"><path d="M549.138-40.479c-19.32 0-35.01 15.69-35.01 35.01s15.69 34.979 35.01 34.979 34.979-15.66 34.979-34.979c0-19.32-15.66-35.01-34.979-35.01" style="fill:#aac0ef;fill-opacity:1;stroke:none"/></clipPath><clipPath id="bm" clipPathUnits="userSpaceOnUse"><path d="M549.138-40.479c-19.32 0-35.01 15.69-35.01 35.01s15.69 34.979 35.01 34.979 34.979-15.66 34.979-34.979c0-19.32-15.66-35.01-34.979-35.01" style="fill:#aac0ef;fill-opacity:1;stroke:none"/></clipPath><clipPath id="bt" clipPathUnits="userSpaceOnUse"><path d="M549.138-40.479c-19.32 0-35.01 15.69-35.01 35.01s15.69 34.979 35.01 34.979 34.979-15.66 34.979-34.979c0-19.32-15.66-35.01-34.979-35.01" style="fill:#aac0ef;fill-opacity:1;stroke:none"/></clipPath><clipPath id="bA" clipPathUnits="userSpaceOnUse"><path d="M549.138-40.479c-19.32 0-35.01 15.69-35.01 35.01s15.69 34.979 35.01 34.979 34.979-15.66 34.979-34.979c0-19.32-15.66-35.01-34.979-35.01" style="fill:#aac0ef;fill-opacity:1;stroke:none"/></clipPath><clipPath id="bI" clipPathUnits="userSpaceOnUse"><path d="M549.138-40.479c-19.32 0-35.01 15.69-35.01 35.01s15.69 34.979 35.01 34.979 34.979-15.66 34.979-34.979c0-19.32-15.66-35.01-34.979-35.01" style="fill:#aac0ef;fill-opacity:1;stroke:none"/></clipPath><clipPath id="bQ" clipPathUnits="userSpaceOnUse"><path d="M549.138-40.479c-19.32 0-35.01 15.69-35.01 35.01s15.69 34.979 35.01 34.979 34.979-15.66 34.979-34.979c0-19.32-15.66-35.01-34.979-35.01" style="fill:#aac0ef;fill-opacity:1;stroke:none"/></clipPath><clipPath id="bY" clipPathUnits="userSpaceOnUse"><path d="M549.138-40.479c-19.32 0-35.01 15.69-35.01 35.01s15.69 34.979 35.01 34.979 34.979-15.66 34.979-34.979c0-19.32-15.66-35.01-34.979-35.01" style="fill:#aac0ef;fill-opacity:1;stroke:none"/></clipPath><clipPath id="cg" clipPathUnits="userSpaceOnUse"><path d="M549.138-40.479c-19.32 0-35.01 15.69-35.01 35.01s15.69 34.979 35.01 34.979 34.979-15.66 34.979-34.979c0-19.32-15.66-35.01-34.979-35.01" style="fill:#aac0ef;fill-opacity:1;stroke:none"/></clipPath><clipPath id="cn" clipPathUnits="userSpaceOnUse"><path d="M549.138-40.479c-19.32 0-35.01 15.69-35.01 35.01s15.69 34.979 35.01 34.979 34.979-15.66 34.979-34.979c0-19.32-15.66-35.01-34.979-35.01" style="fill:#aac0ef;fill-opacity:1;stroke:none"/></clipPath><clipPath id="cv" clipPathUnits="userSpaceOnUse"><path d="M549.138-40.479c-19.32 0-35.01 15.69-35.01 35.01s15.69 34.979 35.01 34.979 34.979-15.66 34.979-34.979c0-19.32-15.66-35.01-34.979-35.01" style="fill:#aac0ef;fill-opacity:1;stroke:none"/></clipPath><mask id="ay" maskUnits="userSpaceOnUse"><path d="M-211.122-258.116h73.567v163.45h-73.567z" style="fill:url(#ax);fill-opacity:1;stroke:#000;stroke-width:0;stroke-linecap:round;stroke-linejoin:miter;stroke-miterlimit:4;stroke-opacity:1;stroke-dasharray:none;stroke-dashoffset:0" transform="scale(-1 1)"/></mask></defs><g mask="url(#ay)" transform="rotate(-45 425.136 115.226)scale(.99999 1)"><path d="M265.715-171.212v-12.002l-12.44-.415a47.7 47.7 0 0 0-3.152-11.816l10.555-6.572-6-10.394-10.981 5.86a48.2 48.2 0 0 0-8.645-8.644l5.86-10.981-10.392-6-6.572 10.556a47.7 47.7 0 0 0-11.817-3.155l-.416-12.44h-12l-.415 12.44a47.7 47.7 0 0 0-11.817 3.154l-6.572-10.554-10.393 6 5.86 10.98a48.3 48.3 0 0 0-8.645 8.647l-10.981-5.861-6 10.392 10.556 6.573a47.6 47.6 0 0 0-3.154 11.817l-12.44.413v12l12.44.415a47.7 47.7 0 0 0 3.154 11.817l-10.555 6.573 5.999 10.393 10.983-5.862a48.2 48.2 0 0 0 8.646 8.646l-5.862 10.982 10.392 6 6.573-10.557a47.7 47.7 0 0 0 11.817 3.154l.414 12.439h12l.415-12.44a47.7 47.7 0 0 0 11.816-3.153l6.572 10.556 10.393-6-5.861-10.983a48.3 48.3 0 0 0 8.645-8.645l10.98 5.86 6.002-10.392-10.556-6.572a47.7 47.7 0 0 0 3.154-11.816zm-60 23.998c-16.542 0-30-13.458-30-30s13.458-30 30-30 30 13.458 30 30-13.458 30-30 30" style="filter:url(#az)"/><path d="M265.715-172.212v-12.002l-12.44-.415a47.7 47.7 0 0 0-3.152-11.816l10.555-6.572-6-10.394-10.981 5.86a48.2 48.2 0 0 0-8.645-8.644l5.86-10.981-10.392-6-6.572 10.556a47.7 47.7 0 0 0-11.817-3.155l-.416-12.44h-12l-.415 12.44a47.7 47.7 0 0 0-11.817 3.154l-6.572-10.554-10.393 6 5.86 10.98a48.3 48.3 0 0 0-8.645 8.647l-10.981-5.861-6 10.392 10.556 6.573a47.6 47.6 0 0 0-3.154 11.817l-12.44.413v12l12.44.415a47.7 47.7 0 0 0 3.154 11.817l-10.555 6.573 5.999 10.393 10.983-5.862a48.2 48.2 0 0 0 8.646 8.646l-5.862 10.982 10.392 6 6.573-10.557a47.7 47.7 0 0 0 11.817 3.154l.414 12.439h12l.415-12.44a47.7 47.7 0 0 0 11.816-3.153l6.572 10.556 10.393-6-5.861-10.983a48.3 48.3 0 0 0 8.645-8.645l10.98 5.86 6.002-10.392-10.556-6.572a47.7 47.7 0 0 0 3.154-11.816zm-60 23.998c-16.542 0-30-13.458-30-30s13.458-30 30-30 30 13.458 30 30-13.458 30-30 30" style="fill:url(#aA)"/><path d="m200.682-237.214-.382 11.473a1 1 0 0 1-.867.958 46.7 46.7 0 0 0-11.57 3.088 1 1 0 0 1-1.228-.396l-6.061-9.734-8.717 5.033 5.406 10.128a1 1 0 0 1-.27 1.262 47.3 47.3 0 0 0-8.466 8.466 1 1 0 0 1-1.262.27l-10.128-5.405-5.033 8.717 9.734 6.06a1 1 0 0 1 .397 1.23 46.7 46.7 0 0 0-3.088 11.57 1 1 0 0 1-.958.867l-11.473.382v3.17c8.88 1.79 18.332 3.163 28.128 4.096l-.13-2.235c0-17.093 13.908-31 31-31 17.095 0 31 13.907 31 31l-.128 2.25c9.789-.924 19.24-2.291 28.129-4.073v-3.21l-11.473-.381a1 1 0 0 1-.958-.867 46.8 46.8 0 0 0-3.087-11.568 1.002 1.002 0 0 1 .397-1.229l9.733-6.061-5.033-8.718-10.128 5.406c-.43.229-.963.115-1.262-.271a47.3 47.3 0 0 0-8.465-8.466 1 1 0 0 1-.271-1.262l5.405-10.128-8.717-5.034-6.062 9.734a1 1 0 0 1-1.23.396 46.7 46.7 0 0 0-11.57-3.088 1 1 0 0 1-.865-.958l-.383-11.473z" style="fill:url(#aB)"/><path d="M205.715-212.214c-18.777 0-34 15.223-34 34s15.223 34 34 34 34-15.222 34-34-15.222-34-34-34m0 59c-13.785 0-25-11.215-25-25s11.215-25 25-25 25 11.215 25 25-11.215 25-25 25" style="fill:url(#aC)"/><path d="M205.715-210.214c-17.645 0-32 14.355-32 32s14.355 32 32 32 32-14.355 32-32-14.355-32-32-32m0 57c-13.785 0-25-11.215-25-25s11.215-25 25-25 25 11.215 25 25-11.215 25-25 25" style="fill:url(#aD)"/><path d="M205.715-204.214c-14.336 0-26 11.664-26 26s11.664 26 26 26 26-11.663 26-26-11.663-26-26-26m0 50c-13.233 0-24-10.767-24-24s10.767-24 24-24 24 10.767 24 24-10.767 24-24 24" style="fill:url(#aE)"/><path d="m161.006-159.793-10.253 6.384.425.735 10.13-6.308c-.11-.266-.198-.543-.302-.811M180.91-232.175l6.573 10.555a47.6 47.6 0 0 1 11.817-3.154l.415-12.44h12l.415 12.439a47.7 47.7 0 0 1 11.817 3.155l6.572-10.555 9.984 5.766.408-.765-10.391-6.001-6.572 10.555a47.7 47.7 0 0 0-11.817-3.155l-.416-12.44h-12l-.415 12.44a47.7 47.7 0 0 0-11.817 3.154l-6.572-10.554-10.393 6 .408.765zM235.42-215.887l-.37.694a48.3 48.3 0 0 1 8.646 8.645l10.98-5.861 5.576 9.658.425-.265-6-10.394-10.981 5.86a48.3 48.3 0 0 0-8.275-8.337M176.01-139.54l-5.491 10.289.408.235 5.454-10.218c-.127-.097-.245-.207-.371-.305" style="fill:#fff"/><path d="M249.696-176.83c-.394 23.923-19.966 43.267-43.981 43.267s-43.587-19.344-43.981-43.267c-.004.244-.02.487-.02.732 0 24.262 19.739 44 44 44 24.263 0 44-19.738 44-44 0-.245-.014-.488-.018-.732" style="opacity:.5;fill:#fff"/><path d="M253.276-184.628a47.7 47.7 0 0 0-2.85-11.005l-.304.189a47.7 47.7 0 0 1 3.153 11.816l12.44.414v-1zM250.12-158.982l10.132 6.308.425-.735-10.252-6.384c-.106.268-.194.545-.304.81M156.753-212.41l10.98 5.86a48.3 48.3 0 0 1 8.647-8.645l-.371-.694a48.3 48.3 0 0 0-8.275 8.339l-10.981-5.861-6 10.392.425.265zM235.05-139.234l5.453 10.217.408-.235-5.491-10.287c-.125.098-.243.208-.37.305M145.715-183.214l12.439-.415a47.7 47.7 0 0 1 3.154-11.817l-.303-.19a47.6 47.6 0 0 0-2.851 11.007l-12.44.415v12z" style="fill:#fff"/></g><path d="m90.029 17.065-14 25" style="fill:none;stroke:#000;stroke-width:2;stroke-linecap:butt;stroke-linejoin:miter;stroke-miterlimit:4;stroke-opacity:1;stroke-dasharray:none;filter:url(#aF)" transform="rotate(-45 63.193 63.596)"/><path d="M88.029 63.065h25" style="fill:none;stroke:#000;stroke-width:2;stroke-linecap:butt;stroke-linejoin:miter;stroke-miterlimit:4;stroke-opacity:1;stroke-dasharray:none;filter:url(#aG)" transform="rotate(-45 63.193 63.596)"/><path d="m76.404 84.065-12.375 34" style="fill:none;stroke:#000;stroke-width:2;stroke-linecap:butt;stroke-linejoin:miter;stroke-miterlimit:4;stroke-opacity:1;stroke-dasharray:none;filter:url(#aH)" transform="rotate(-45 63.193 63.596)"/><path d="m76.279 41.628-12-32.438" style="fill:none;stroke:#000;stroke-width:2;stroke-linecap:butt;stroke-linejoin:miter;stroke-miterlimit:4;stroke-opacity:1;stroke-dasharray:none;filter:url(#aI)" transform="rotate(-45 63.193 63.596)"/><path d="m76.029 41.878 34.502-6.332" style="fill:none;stroke:#000;stroke-width:2;stroke-linecap:butt;stroke-linejoin:miter;stroke-miterlimit:4;stroke-opacity:1;stroke-dasharray:none;filter:url(#aJ)" transform="rotate(-45 63.193 63.596)"/><path d="M110.62 35.59 89.029 63.066" style="fill:none;stroke:#000;stroke-width:2;stroke-linecap:butt;stroke-linejoin:miter;stroke-miterlimit:4;stroke-opacity:1;stroke-dasharray:none;filter:url(#aK)" transform="rotate(-45 63.193 63.596)"/><path d="m76.279 84.003 15.25 27.937" style="fill:none;stroke:#000;stroke-width:2;stroke-linecap:butt;stroke-linejoin:miter;stroke-miterlimit:4;stroke-opacity:1;stroke-dasharray:none;filter:url(#aL)" transform="rotate(-45 63.193 63.596)"/><path d="m110.752 90.546-34.411-6.543" style="fill:none;stroke:#000;stroke-width:2;stroke-linecap:butt;stroke-linejoin:miter;stroke-miterlimit:4;stroke-opacity:1;stroke-dasharray:none;filter:url(#aM)" transform="rotate(-45 63.193 63.596)"/><path d="m89.029 63.065 21.856 27.26" style="fill:none;stroke:#000;stroke-width:2;stroke-linecap:butt;stroke-linejoin:miter;stroke-miterlimit:4;stroke-opacity:1;stroke-dasharray:none;filter:url(#aN)" transform="rotate(-45 63.193 63.596)"/><path d="M111.609-.722a41.875 41.875 0 1 1-3.47 80.155" style="fill:none;stroke:#000;stroke-width:3.3900001;stroke-linecap:round;stroke-linejoin:miter;stroke-miterlimit:4;stroke-opacity:1;stroke-dasharray:none;stroke-dashoffset:0;filter:url(#aO)" transform="rotate(-45 114.671 54.871)scale(.59468)"/><g style="filter:url(#aP)" transform="rotate(-45 86.842 -89.881)scale(.27219)"><path d="M31.52 77.913c-13.437 0-24.35 10.913-24.35 24.35s10.913 24.33 24.35 24.33 24.33-10.892 24.33-24.33-10.892-24.35-24.33-24.35" style="fill:#00f;fill-opacity:1;stroke:none"/><path d="M549.125-40.125c-19.124 0-34.656 15.532-34.656 34.656 0 17.548 13.1 32.01 30.031 34.282-14.59-2.229-25.781-14.823-25.781-30.032 0-16.782 13.624-30.406 30.406-30.406s30.406 13.624 30.406 30.406c0 15.734-11.959 28.663-27.281 30.219 17.666-1.573 31.5-16.393 31.5-34.469 0-19.124-15.5-34.656-34.625-34.656M552.25 29c-.51.052-1.045.099-1.562.125.518-.023 1.05-.08 1.562-.125m-7.75-.187c.512.068 1.013.141 1.531.187a31 31 0 0 1-1.531-.187m1.531.187c.51.045 1.015.102 1.532.125A30 30 0 0 1 546.03 29" clip-path="url(#aQ)" style="fill:url(#aR);fill-opacity:1;stroke:none;filter:url(#aS)" transform="translate(-351.931 106.271)scale(.69811)"/><path d="M469.607-34.831c0 9.684-6.314 17.534-14.103 17.534-7.79 0-14.104-7.85-14.104-17.534s6.315-17.534 14.104-17.534 14.103 7.85 14.103 17.534" style="opacity:.40625;fill:url(#aT);fill-opacity:1;stroke:none;filter:url(#aU)" transform="matrix(.7373 0 0 .64114 -304.374 113.542)"/><path d="m32.597 80.68.184 3.833c1.52.027 3 .17 4.424.395-.296-1.247-.588-2.494-.897-3.74a22 22 0 0 0-3.71-.488m-2.813.024c-1.232.093-2.431.297-3.569.58a367 367 0 0 0-.958 3.972 31 31 0 0 1 4.588-.65l.183-3.902c-.084.005-.161-.007-.244 0m8.767 1.115q.565 1.785 1.121 3.577c2.68.657 5.113 1.642 7.157 2.903-1.588-2.851-4.55-5.169-8.278-6.48m-14.905.278c-3.991 1.601-7.011 4.395-8.216 7.735 1.866-1.549 4.236-2.82 6.932-3.74.426-1.33.85-2.662 1.284-3.995m9.196 3.694.285 5.597c1.954.051 3.863.227 5.668.558q-.617-2.856-1.284-5.714c-1.501-.253-3.06-.41-4.67-.441m-3.058.07c-1.69.123-3.307.4-4.853.766a341 341 0 0 0-1.264 5.714 35.4 35.4 0 0 1 5.852-.883zm10.316.928a642 642 0 0 1 1.795 5.9c2.189.621 4.193 1.427 5.974 2.416.148-.67.224-1.343.224-2.044a9.4 9.4 0 0 0-.49-2.95c-2.094-1.434-4.64-2.573-7.503-3.322m-18.207.72c-2.706.98-5.068 2.329-6.891 3.95a9.4 9.4 0 0 0-.143 1.602c0 .936.143 1.84.408 2.718a25.8 25.8 0 0 1 4.77-2.346 693 693 0 0 1 1.856-5.924" style="opacity:.39673911;fill:url(#aV);fill-opacity:1;stroke:none"/></g><g style="filter:url(#aW)" transform="rotate(-45 46.016 -24.826)scale(.27219)"><path d="M31.52 77.913c-13.437 0-24.35 10.913-24.35 24.35s10.913 24.33 24.35 24.33 24.33-10.892 24.33-24.33-10.892-24.35-24.33-24.35" style="fill:url(#aX);fill-opacity:1;stroke:none"/><path d="M549.125-40.125c-19.124 0-34.656 15.532-34.656 34.656 0 17.548 13.1 32.01 30.031 34.282-14.59-2.229-25.781-14.823-25.781-30.032 0-16.782 13.624-30.406 30.406-30.406s30.406 13.624 30.406 30.406c0 15.734-11.959 28.663-27.281 30.219 17.666-1.573 31.5-16.393 31.5-34.469 0-19.124-15.5-34.656-34.625-34.656M552.25 29c-.51.052-1.045.099-1.562.125.518-.023 1.05-.08 1.562-.125m-7.75-.187c.512.068 1.013.141 1.531.187a31 31 0 0 1-1.531-.187m1.531.187c.51.045 1.015.102 1.532.125A30 30 0 0 1 546.03 29" clip-path="url(#aY)" style="fill:url(#aZ);fill-opacity:1;stroke:none;filter:url(#ba)" transform="translate(-351.931 106.271)scale(.69811)"/><path d="M469.607-34.831c0 9.684-6.314 17.534-14.103 17.534-7.79 0-14.104-7.85-14.104-17.534s6.315-17.534 14.104-17.534 14.103 7.85 14.103 17.534" style="opacity:.40625;fill:url(#bb);fill-opacity:1;stroke:none;filter:url(#bc)" transform="matrix(.7373 0 0 .64114 -304.374 113.542)"/><path d="m32.597 80.68.184 3.833c1.52.027 3 .17 4.424.395-.296-1.247-.588-2.494-.897-3.74a22 22 0 0 0-3.71-.488m-2.813.024c-1.232.093-2.431.297-3.569.58a367 367 0 0 0-.958 3.972 31 31 0 0 1 4.588-.65l.183-3.902c-.084.005-.161-.007-.244 0m8.767 1.115q.565 1.785 1.121 3.577c2.68.657 5.113 1.642 7.157 2.903-1.588-2.851-4.55-5.169-8.278-6.48m-14.905.278c-3.991 1.601-7.011 4.395-8.216 7.735 1.866-1.549 4.236-2.82 6.932-3.74.426-1.33.85-2.662 1.284-3.995m9.196 3.694.285 5.597c1.954.051 3.863.227 5.668.558q-.617-2.856-1.284-5.714c-1.501-.253-3.06-.41-4.67-.441m-3.058.07c-1.69.123-3.307.4-4.853.766a341 341 0 0 0-1.264 5.714 35.4 35.4 0 0 1 5.852-.883zm10.316.928a642 642 0 0 1 1.795 5.9c2.189.621 4.193 1.427 5.974 2.416.148-.67.224-1.343.224-2.044a9.4 9.4 0 0 0-.49-2.95c-2.094-1.434-4.64-2.573-7.503-3.322m-18.207.72c-2.706.98-5.068 2.329-6.891 3.95a9.4 9.4 0 0 0-.143 1.602c0 .936.143 1.84.408 2.718a25.8 25.8 0 0 1 4.77-2.346 693 693 0 0 1 1.856-5.924" style="opacity:.39673911;fill:url(#bd);fill-opacity:1;stroke:none"/></g><g style="filter:url(#be)" transform="rotate(-45 65.597 -49.97)scale(.27219)"><path d="M31.52 77.913c-13.437 0-24.35 10.913-24.35 24.35s10.913 24.33 24.35 24.33 24.33-10.892 24.33-24.33-10.892-24.35-24.33-24.35" style="fill:#00f;fill-opacity:1;stroke:none"/><path d="M549.125-40.125c-19.124 0-34.656 15.532-34.656 34.656 0 17.548 13.1 32.01 30.031 34.282-14.59-2.229-25.781-14.823-25.781-30.032 0-16.782 13.624-30.406 30.406-30.406s30.406 13.624 30.406 30.406c0 15.734-11.959 28.663-27.281 30.219 17.666-1.573 31.5-16.393 31.5-34.469 0-19.124-15.5-34.656-34.625-34.656M552.25 29c-.51.052-1.045.099-1.562.125.518-.023 1.05-.08 1.562-.125m-7.75-.187c.512.068 1.013.141 1.531.187a31 31 0 0 1-1.531-.187m1.531.187c.51.045 1.015.102 1.532.125A30 30 0 0 1 546.03 29" clip-path="url(#bf)" style="fill:url(#bg);fill-opacity:1;stroke:none;filter:url(#bh)" transform="translate(-351.931 106.271)scale(.69811)"/><path d="M469.607-34.831c0 9.684-6.314 17.534-14.103 17.534-7.79 0-14.104-7.85-14.104-17.534s6.315-17.534 14.104-17.534 14.103 7.85 14.103 17.534" style="opacity:.40625;fill:url(#bi);fill-opacity:1;stroke:none;filter:url(#bj)" transform="matrix(.7373 0 0 .64114 -304.374 113.542)"/><path d="m32.597 80.68.184 3.833c1.52.027 3 .17 4.424.395-.296-1.247-.588-2.494-.897-3.74a22 22 0 0 0-3.71-.488m-2.813.024c-1.232.093-2.431.297-3.569.58a367 367 0 0 0-.958 3.972 31 31 0 0 1 4.588-.65l.183-3.902c-.084.005-.161-.007-.244 0m8.767 1.115q.565 1.785 1.121 3.577c2.68.657 5.113 1.642 7.157 2.903-1.588-2.851-4.55-5.169-8.278-6.48m-14.905.278c-3.991 1.601-7.011 4.395-8.216 7.735 1.866-1.549 4.236-2.82 6.932-3.74.426-1.33.85-2.662 1.284-3.995m9.196 3.694.285 5.597c1.954.051 3.863.227 5.668.558q-.617-2.856-1.284-5.714c-1.501-.253-3.06-.41-4.67-.441m-3.058.07c-1.69.123-3.307.4-4.853.766a341 341 0 0 0-1.264 5.714 35.4 35.4 0 0 1 5.852-.883zm10.316.928a642 642 0 0 1 1.795 5.9c2.189.621 4.193 1.427 5.974 2.416.148-.67.224-1.343.224-2.044a9.4 9.4 0 0 0-.49-2.95c-2.094-1.434-4.64-2.573-7.503-3.322m-18.207.72c-2.706.98-5.068 2.329-6.891 3.95a9.4 9.4 0 0 0-.143 1.602c0 .936.143 1.84.408 2.718a25.8 25.8 0 0 1 4.77-2.346 693 693 0 0 1 1.856-5.924" style="opacity:.39673911;fill:url(#bk);fill-opacity:1;stroke:none"/></g><g style="filter:url(#bl)" transform="rotate(-45 8.553 -29.765)scale(.27219)"><path d="M31.52 77.913c-13.437 0-24.35 10.913-24.35 24.35s10.913 24.33 24.35 24.33 24.33-10.892 24.33-24.33-10.892-24.35-24.33-24.35" style="fill:#00f;fill-opacity:1;stroke:none"/><path d="M549.125-40.125c-19.124 0-34.656 15.532-34.656 34.656 0 17.548 13.1 32.01 30.031 34.282-14.59-2.229-25.781-14.823-25.781-30.032 0-16.782 13.624-30.406 30.406-30.406s30.406 13.624 30.406 30.406c0 15.734-11.959 28.663-27.281 30.219 17.666-1.573 31.5-16.393 31.5-34.469 0-19.124-15.5-34.656-34.625-34.656M552.25 29c-.51.052-1.045.099-1.562.125.518-.023 1.05-.08 1.562-.125m-7.75-.187c.512.068 1.013.141 1.531.187a31 31 0 0 1-1.531-.187m1.531.187c.51.045 1.015.102 1.532.125A30 30 0 0 1 546.03 29" clip-path="url(#bm)" style="fill:url(#bn);fill-opacity:1;stroke:none;filter:url(#bo)" transform="translate(-351.931 106.271)scale(.69811)"/><path d="M469.607-34.831c0 9.684-6.314 17.534-14.103 17.534-7.79 0-14.104-7.85-14.104-17.534s6.315-17.534 14.104-17.534 14.103 7.85 14.103 17.534" style="opacity:.40625;fill:url(#bp);fill-opacity:1;stroke:none;filter:url(#bq)" transform="matrix(.7373 0 0 .64114 -304.374 113.542)"/><path d="m32.597 80.68.184 3.833c1.52.027 3 .17 4.424.395-.296-1.247-.588-2.494-.897-3.74a22 22 0 0 0-3.71-.488m-2.813.024c-1.232.093-2.431.297-3.569.58a367 367 0 0 0-.958 3.972 31 31 0 0 1 4.588-.65l.183-3.902c-.084.005-.161-.007-.244 0m8.767 1.115q.565 1.785 1.121 3.577c2.68.657 5.113 1.642 7.157 2.903-1.588-2.851-4.55-5.169-8.278-6.48m-14.905.278c-3.991 1.601-7.011 4.395-8.216 7.735 1.866-1.549 4.236-2.82 6.932-3.74.426-1.33.85-2.662 1.284-3.995m9.196 3.694.285 5.597c1.954.051 3.863.227 5.668.558q-.617-2.856-1.284-5.714c-1.501-.253-3.06-.41-4.67-.441m-3.058.07c-1.69.123-3.307.4-4.853.766a341 341 0 0 0-1.264 5.714 35.4 35.4 0 0 1 5.852-.883zm10.316.928a642 642 0 0 1 1.795 5.9c2.189.621 4.193 1.427 5.974 2.416.148-.67.224-1.343.224-2.044a9.4 9.4 0 0 0-.49-2.95c-2.094-1.434-4.64-2.573-7.503-3.322m-18.207.72c-2.706.98-5.068 2.329-6.891 3.95a9.4 9.4 0 0 0-.143 1.602c0 .936.143 1.84.408 2.718a25.8 25.8 0 0 1 4.77-2.346 693 693 0 0 1 1.856-5.924" style="opacity:.39673911;fill:url(#br);fill-opacity:1;stroke:none"/></g><g style="filter:url(#bs)" transform="rotate(-45 21.85 -62.721)scale(.27219)"><path d="M31.52 77.913c-13.437 0-24.35 10.913-24.35 24.35s10.913 24.33 24.35 24.33 24.33-10.892 24.33-24.33-10.892-24.35-24.33-24.35" style="fill:#00f;fill-opacity:1;stroke:none"/><path d="M549.125-40.125c-19.124 0-34.656 15.532-34.656 34.656 0 17.548 13.1 32.01 30.031 34.282-14.59-2.229-25.781-14.823-25.781-30.032 0-16.782 13.624-30.406 30.406-30.406s30.406 13.624 30.406 30.406c0 15.734-11.959 28.663-27.281 30.219 17.666-1.573 31.5-16.393 31.5-34.469 0-19.124-15.5-34.656-34.625-34.656M552.25 29c-.51.052-1.045.099-1.562.125.518-.023 1.05-.08 1.562-.125m-7.75-.187c.512.068 1.013.141 1.531.187a31 31 0 0 1-1.531-.187m1.531.187c.51.045 1.015.102 1.532.125A30 30 0 0 1 546.03 29" clip-path="url(#bt)" style="fill:url(#bu);fill-opacity:1;stroke:none;filter:url(#bv)" transform="translate(-351.931 106.271)scale(.69811)"/><path d="M469.607-34.831c0 9.684-6.314 17.534-14.103 17.534-7.79 0-14.104-7.85-14.104-17.534s6.315-17.534 14.104-17.534 14.103 7.85 14.103 17.534" style="opacity:.40625;fill:url(#bw);fill-opacity:1;stroke:none;filter:url(#bx)" transform="matrix(.7373 0 0 .64114 -304.374 113.542)"/><path d="m32.597 80.68.184 3.833c1.52.027 3 .17 4.424.395-.296-1.247-.588-2.494-.897-3.74a22 22 0 0 0-3.71-.488m-2.813.024c-1.232.093-2.431.297-3.569.58a367 367 0 0 0-.958 3.972 31 31 0 0 1 4.588-.65l.183-3.902c-.084.005-.161-.007-.244 0m8.767 1.115q.565 1.785 1.121 3.577c2.68.657 5.113 1.642 7.157 2.903-1.588-2.851-4.55-5.169-8.278-6.48m-14.905.278c-3.991 1.601-7.011 4.395-8.216 7.735 1.866-1.549 4.236-2.82 6.932-3.74.426-1.33.85-2.662 1.284-3.995m9.196 3.694.285 5.597c1.954.051 3.863.227 5.668.558q-.617-2.856-1.284-5.714c-1.501-.253-3.06-.41-4.67-.441m-3.058.07c-1.69.123-3.307.4-4.853.766a341 341 0 0 0-1.264 5.714 35.4 35.4 0 0 1 5.852-.883zm10.316.928a642 642 0 0 1 1.795 5.9c2.189.621 4.193 1.427 5.974 2.416.148-.67.224-1.343.224-2.044a9.4 9.4 0 0 0-.49-2.95c-2.094-1.434-4.64-2.573-7.503-3.322m-18.207.72c-2.706.98-5.068 2.329-6.891 3.95a9.4 9.4 0 0 0-.143 1.602c0 .936.143 1.84.408 2.718a25.8 25.8 0 0 1 4.77-2.346 693 693 0 0 1 1.856-5.924" style="opacity:.39673911;fill:url(#by);fill-opacity:1;stroke:none"/></g><g style="filter:url(#bz)" transform="rotate(-45 97.123 -47.178)scale(.27219)"><path d="M31.52 77.913c-13.437 0-24.35 10.913-24.35 24.35s10.913 24.33 24.35 24.33 24.33-10.892 24.33-24.33-10.892-24.35-24.33-24.35" style="fill:#00f;fill-opacity:1;stroke:none"/><path d="M549.125-40.125c-19.124 0-34.656 15.532-34.656 34.656 0 17.548 13.1 32.01 30.031 34.282-14.59-2.229-25.781-14.823-25.781-30.032 0-16.782 13.624-30.406 30.406-30.406s30.406 13.624 30.406 30.406c0 15.734-11.959 28.663-27.281 30.219 17.666-1.573 31.5-16.393 31.5-34.469 0-19.124-15.5-34.656-34.625-34.656M552.25 29c-.51.052-1.045.099-1.562.125.518-.023 1.05-.08 1.562-.125m-7.75-.187c.512.068 1.013.141 1.531.187a31 31 0 0 1-1.531-.187m1.531.187c.51.045 1.015.102 1.532.125A30 30 0 0 1 546.03 29" clip-path="url(#bA)" style="fill:url(#bB);fill-opacity:1;stroke:none;filter:url(#bC)" transform="translate(-351.931 106.271)scale(.69811)"/><path d="M469.607-34.831c0 9.684-6.314 17.534-14.103 17.534-7.79 0-14.104-7.85-14.104-17.534s6.315-17.534 14.104-17.534 14.103 7.85 14.103 17.534" style="opacity:.40625;fill:url(#bD);fill-opacity:1;stroke:none;filter:url(#bE)" transform="matrix(.7373 0 0 .64114 -304.374 113.542)"/><path d="m32.597 80.68.184 3.833c1.52.027 3 .17 4.424.395-.296-1.247-.588-2.494-.897-3.74a22 22 0 0 0-3.71-.488m-2.813.024c-1.232.093-2.431.297-3.569.58a367 367 0 0 0-.958 3.972 31 31 0 0 1 4.588-.65l.183-3.902c-.084.005-.161-.007-.244 0m8.767 1.115q.565 1.785 1.121 3.577c2.68.657 5.113 1.642 7.157 2.903-1.588-2.851-4.55-5.169-8.278-6.48m-14.905.278c-3.991 1.601-7.011 4.395-8.216 7.735 1.866-1.549 4.236-2.82 6.932-3.74.426-1.33.85-2.662 1.284-3.995m9.196 3.694.285 5.597c1.954.051 3.863.227 5.668.558q-.617-2.856-1.284-5.714c-1.501-.253-3.06-.41-4.67-.441m-3.058.07c-1.69.123-3.307.4-4.853.766a341 341 0 0 0-1.264 5.714 35.4 35.4 0 0 1 5.852-.883zm10.316.928a642 642 0 0 1 1.795 5.9c2.189.621 4.193 1.427 5.974 2.416.148-.67.224-1.343.224-2.044a9.4 9.4 0 0 0-.49-2.95c-2.094-1.434-4.64-2.573-7.503-3.322m-18.207.72c-2.706.98-5.068 2.329-6.891 3.95a9.4 9.4 0 0 0-.143 1.602c0 .936.143 1.84.408 2.718a25.8 25.8 0 0 1 4.77-2.346 693 693 0 0 1 1.856-5.924" style="opacity:.39673911;fill:url(#bF);fill-opacity:1;stroke:none"/></g><path d="m57.47 87.852 6.342 29.131" style="fill:none;stroke:#000;stroke-width:2;stroke-linecap:butt;stroke-linejoin:miter;stroke-miterlimit:4;stroke-opacity:1;stroke-dasharray:none;filter:url(#bG)" transform="rotate(-45 63.193 63.596)"/><g style="filter:url(#bH)" transform="rotate(-45 142.479 -47.288)scale(.27219)"><path d="M31.52 77.913c-13.437 0-24.35 10.913-24.35 24.35s10.913 24.33 24.35 24.33 24.33-10.892 24.33-24.33-10.892-24.35-24.33-24.35" style="fill:#00f;fill-opacity:1;stroke:none"/><path d="M549.125-40.125c-19.124 0-34.656 15.532-34.656 34.656 0 17.548 13.1 32.01 30.031 34.282-14.59-2.229-25.781-14.823-25.781-30.032 0-16.782 13.624-30.406 30.406-30.406s30.406 13.624 30.406 30.406c0 15.734-11.959 28.663-27.281 30.219 17.666-1.573 31.5-16.393 31.5-34.469 0-19.124-15.5-34.656-34.625-34.656M552.25 29c-.51.052-1.045.099-1.562.125.518-.023 1.05-.08 1.562-.125m-7.75-.187c.512.068 1.013.141 1.531.187a31 31 0 0 1-1.531-.187m1.531.187c.51.045 1.015.102 1.532.125A30 30 0 0 1 546.03 29" clip-path="url(#bI)" style="fill:url(#bJ);fill-opacity:1;stroke:none;filter:url(#bK)" transform="translate(-351.931 106.271)scale(.69811)"/><path d="M469.607-34.831c0 9.684-6.314 17.534-14.103 17.534-7.79 0-14.104-7.85-14.104-17.534s6.315-17.534 14.104-17.534 14.103 7.85 14.103 17.534" style="opacity:.40625;fill:url(#bL);fill-opacity:1;stroke:none;filter:url(#bM)" transform="matrix(.7373 0 0 .64114 -304.374 113.542)"/><path d="m32.597 80.68.184 3.833c1.52.027 3 .17 4.424.395-.296-1.247-.588-2.494-.897-3.74a22 22 0 0 0-3.71-.488m-2.813.024c-1.232.093-2.431.297-3.569.58a367 367 0 0 0-.958 3.972 31 31 0 0 1 4.588-.65l.183-3.902c-.084.005-.161-.007-.244 0m8.767 1.115q.565 1.785 1.121 3.577c2.68.657 5.113 1.642 7.157 2.903-1.588-2.851-4.55-5.169-8.278-6.48m-14.905.278c-3.991 1.601-7.011 4.395-8.216 7.735 1.866-1.549 4.236-2.82 6.932-3.74.426-1.33.85-2.662 1.284-3.995m9.196 3.694.285 5.597c1.954.051 3.863.227 5.668.558q-.617-2.856-1.284-5.714c-1.501-.253-3.06-.41-4.67-.441m-3.058.07c-1.69.123-3.307.4-4.853.766a341 341 0 0 0-1.264 5.714 35.4 35.4 0 0 1 5.852-.883zm10.316.928a642 642 0 0 1 1.795 5.9c2.189.621 4.193 1.427 5.974 2.416.148-.67.224-1.343.224-2.044a9.4 9.4 0 0 0-.49-2.95c-2.094-1.434-4.64-2.573-7.503-3.322m-18.207.72c-2.706.98-5.068 2.329-6.891 3.95a9.4 9.4 0 0 0-.143 1.602c0 .936.143 1.84.408 2.718a25.8 25.8 0 0 1 4.77-2.346 693 693 0 0 1 1.856-5.924" style="opacity:.39673911;fill:url(#bN);fill-opacity:1;stroke:none"/></g><g style="filter:url(#bO)" transform="rotate(-45 50.746 -85.12)scale(.27219)"><path d="M31.52 77.913c-13.437 0-24.35 10.913-24.35 24.35s10.913 24.33 24.35 24.33 24.33-10.892 24.33-24.33-10.892-24.35-24.33-24.35" style="fill:url(#bP);fill-opacity:1;stroke:none"/><path d="M549.125-40.125c-19.124 0-34.656 15.532-34.656 34.656 0 17.548 13.1 32.01 30.031 34.282-14.59-2.229-25.781-14.823-25.781-30.032 0-16.782 13.624-30.406 30.406-30.406s30.406 13.624 30.406 30.406c0 15.734-11.959 28.663-27.281 30.219 17.666-1.573 31.5-16.393 31.5-34.469 0-19.124-15.5-34.656-34.625-34.656M552.25 29c-.51.052-1.045.099-1.562.125.518-.023 1.05-.08 1.562-.125m-7.75-.187c.512.068 1.013.141 1.531.187a31 31 0 0 1-1.531-.187m1.531.187c.51.045 1.015.102 1.532.125A30 30 0 0 1 546.03 29" clip-path="url(#bQ)" style="fill:url(#bR);fill-opacity:1;stroke:none;filter:url(#bS)" transform="translate(-351.931 106.271)scale(.69811)"/><path d="M469.607-34.831c0 9.684-6.314 17.534-14.103 17.534-7.79 0-14.104-7.85-14.104-17.534s6.315-17.534 14.104-17.534 14.103 7.85 14.103 17.534" style="opacity:.40625;fill:url(#bT);fill-opacity:1;stroke:none;filter:url(#bU)" transform="matrix(.7373 0 0 .64114 -304.374 113.542)"/><path d="m32.597 80.68.184 3.833c1.52.027 3 .17 4.424.395-.296-1.247-.588-2.494-.897-3.74a22 22 0 0 0-3.71-.488m-2.813.024c-1.232.093-2.431.297-3.569.58a367 367 0 0 0-.958 3.972 31 31 0 0 1 4.588-.65l.183-3.902c-.084.005-.161-.007-.244 0m8.767 1.115q.565 1.785 1.121 3.577c2.68.657 5.113 1.642 7.157 2.903-1.588-2.851-4.55-5.169-8.278-6.48m-14.905.278c-3.991 1.601-7.011 4.395-8.216 7.735 1.866-1.549 4.236-2.82 6.932-3.74.426-1.33.85-2.662 1.284-3.995m9.196 3.694.285 5.597c1.954.051 3.863.227 5.668.558q-.617-2.856-1.284-5.714c-1.501-.253-3.06-.41-4.67-.441m-3.058.07c-1.69.123-3.307.4-4.853.766a341 341 0 0 0-1.264 5.714 35.4 35.4 0 0 1 5.852-.883zm10.316.928a642 642 0 0 1 1.795 5.9c2.189.621 4.193 1.427 5.974 2.416.148-.67.224-1.343.224-2.044a9.4 9.4 0 0 0-.49-2.95c-2.094-1.434-4.64-2.573-7.503-3.322m-18.207.72c-2.706.98-5.068 2.329-6.891 3.95a9.4 9.4 0 0 0-.143 1.602c0 .936.143 1.84.408 2.718a25.8 25.8 0 0 1 4.77-2.346 693 693 0 0 1 1.856-5.924" style="opacity:.39673911;fill:url(#bV);fill-opacity:1;stroke:none"/></g><g style="filter:url(#bW)" transform="rotate(-45 120.48 -76.346)scale(.27219)"><path d="M31.52 77.913c-13.437 0-24.35 10.913-24.35 24.35s10.913 24.33 24.35 24.33 24.33-10.892 24.33-24.33-10.892-24.35-24.33-24.35" style="fill:url(#bX);fill-opacity:1;stroke:none"/><path d="M549.125-40.125c-19.124 0-34.656 15.532-34.656 34.656 0 17.548 13.1 32.01 30.031 34.282-14.59-2.229-25.781-14.823-25.781-30.032 0-16.782 13.624-30.406 30.406-30.406s30.406 13.624 30.406 30.406c0 15.734-11.959 28.663-27.281 30.219 17.666-1.573 31.5-16.393 31.5-34.469 0-19.124-15.5-34.656-34.625-34.656M552.25 29c-.51.052-1.045.099-1.562.125.518-.023 1.05-.08 1.562-.125m-7.75-.187c.512.068 1.013.141 1.531.187a31 31 0 0 1-1.531-.187m1.531.187c.51.045 1.015.102 1.532.125A30 30 0 0 1 546.03 29" clip-path="url(#bY)" style="fill:url(#bZ);fill-opacity:1;stroke:none;filter:url(#ca)" transform="translate(-351.931 106.271)scale(.69811)"/><path d="M469.607-34.831c0 9.684-6.314 17.534-14.103 17.534-7.79 0-14.104-7.85-14.104-17.534s6.315-17.534 14.104-17.534 14.103 7.85 14.103 17.534" style="opacity:.40625;fill:url(#cb);fill-opacity:1;stroke:none;filter:url(#cc)" transform="matrix(.7373 0 0 .64114 -304.374 113.542)"/><path d="m32.597 80.68.184 3.833c1.52.027 3 .17 4.424.395-.296-1.247-.588-2.494-.897-3.74a22 22 0 0 0-3.71-.488m-2.813.024c-1.232.093-2.431.297-3.569.58a367 367 0 0 0-.958 3.972 31 31 0 0 1 4.588-.65l.183-3.902c-.084.005-.161-.007-.244 0m8.767 1.115q.565 1.785 1.121 3.577c2.68.657 5.113 1.642 7.157 2.903-1.588-2.851-4.55-5.169-8.278-6.48m-14.905.278c-3.991 1.601-7.011 4.395-8.216 7.735 1.866-1.549 4.236-2.82 6.932-3.74.426-1.33.85-2.662 1.284-3.995m9.196 3.694.285 5.597c1.954.051 3.863.227 5.668.558q-.617-2.856-1.284-5.714c-1.501-.253-3.06-.41-4.67-.441m-3.058.07c-1.69.123-3.307.4-4.853.766a341 341 0 0 0-1.264 5.714 35.4 35.4 0 0 1 5.852-.883zm10.316.928a642 642 0 0 1 1.795 5.9c2.189.621 4.193 1.427 5.974 2.416.148-.67.224-1.343.224-2.044a9.4 9.4 0 0 0-.49-2.95c-2.094-1.434-4.64-2.573-7.503-3.322m-18.207.72c-2.706.98-5.068 2.329-6.891 3.95a9.4 9.4 0 0 0-.143 1.602c0 .936.143 1.84.408 2.718a25.8 25.8 0 0 1 4.77-2.346 693 693 0 0 1 1.856-5.924" style="opacity:.39673911;fill:url(#cd);fill-opacity:1;stroke:none"/></g><path d="m57.47 37.742 5.78-29.196" style="fill:none;stroke:#000;stroke-width:2;stroke-linecap:butt;stroke-linejoin:miter;stroke-miterlimit:4;stroke-opacity:1;stroke-dasharray:none;filter:url(#ce)" transform="rotate(-45 63.193 63.596)"/><g style="filter:url(#cf)" transform="rotate(-45 13.227 6.269)scale(.27219)"><path d="M31.52 77.913c-13.437 0-24.35 10.913-24.35 24.35s10.913 24.33 24.35 24.33 24.33-10.892 24.33-24.33-10.892-24.35-24.33-24.35" style="fill:#00f;fill-opacity:1;stroke:none"/><path d="M549.125-40.125c-19.124 0-34.656 15.532-34.656 34.656 0 17.548 13.1 32.01 30.031 34.282-14.59-2.229-25.781-14.823-25.781-30.032 0-16.782 13.624-30.406 30.406-30.406s30.406 13.624 30.406 30.406c0 15.734-11.959 28.663-27.281 30.219 17.666-1.573 31.5-16.393 31.5-34.469 0-19.124-15.5-34.656-34.625-34.656M552.25 29c-.51.052-1.045.099-1.562.125.518-.023 1.05-.08 1.562-.125m-7.75-.187c.512.068 1.013.141 1.531.187a31 31 0 0 1-1.531-.187m1.531.187c.51.045 1.015.102 1.532.125A30 30 0 0 1 546.03 29" clip-path="url(#cg)" style="fill:url(#ch);fill-opacity:1;stroke:none;filter:url(#ci)" transform="translate(-351.931 106.271)scale(.69811)"/><path d="M469.607-34.831c0 9.684-6.314 17.534-14.103 17.534-7.79 0-14.104-7.85-14.104-17.534s6.315-17.534 14.104-17.534 14.103 7.85 14.103 17.534" style="opacity:.40625;fill:url(#cj);fill-opacity:1;stroke:none;filter:url(#ck)" transform="matrix(.7373 0 0 .64114 -304.374 113.542)"/><path d="m32.597 80.68.184 3.833c1.52.027 3 .17 4.424.395-.296-1.247-.588-2.494-.897-3.74a22 22 0 0 0-3.71-.488m-2.813.024c-1.232.093-2.431.297-3.569.58a367 367 0 0 0-.958 3.972 31 31 0 0 1 4.588-.65l.183-3.902c-.084.005-.161-.007-.244 0m8.767 1.115q.565 1.785 1.121 3.577c2.68.657 5.113 1.642 7.157 2.903-1.588-2.851-4.55-5.169-8.278-6.48m-14.905.278c-3.991 1.601-7.011 4.395-8.216 7.735 1.866-1.549 4.236-2.82 6.932-3.74.426-1.33.85-2.662 1.284-3.995m9.196 3.694.285 5.597c1.954.051 3.863.227 5.668.558q-.617-2.856-1.284-5.714c-1.501-.253-3.06-.41-4.67-.441m-3.058.07c-1.69.123-3.307.4-4.853.766a341 341 0 0 0-1.264 5.714 35.4 35.4 0 0 1 5.852-.883zm10.316.928a642 642 0 0 1 1.795 5.9c2.189.621 4.193 1.427 5.974 2.416.148-.67.224-1.343.224-2.044a9.4 9.4 0 0 0-.49-2.95c-2.094-1.434-4.64-2.573-7.503-3.322m-18.207.72c-2.706.98-5.068 2.329-6.891 3.95a9.4 9.4 0 0 0-.143 1.602c0 .936.143 1.84.408 2.718a25.8 25.8 0 0 1 4.77-2.346 693 693 0 0 1 1.856-5.924" style="opacity:.39673911;fill:url(#cl);fill-opacity:1;stroke:none"/></g><g style="filter:url(#cm)" transform="rotate(-45 52.49 -.669)scale(.27219)"><path d="M31.52 77.913c-13.437 0-24.35 10.913-24.35 24.35s10.913 24.33 24.35 24.33 24.33-10.892 24.33-24.33-10.892-24.35-24.33-24.35" style="fill:#00f;fill-opacity:1;stroke:none"/><path d="M549.125-40.125c-19.124 0-34.656 15.532-34.656 34.656 0 17.548 13.1 32.01 30.031 34.282-14.59-2.229-25.781-14.823-25.781-30.032 0-16.782 13.624-30.406 30.406-30.406s30.406 13.624 30.406 30.406c0 15.734-11.959 28.663-27.281 30.219 17.666-1.573 31.5-16.393 31.5-34.469 0-19.124-15.5-34.656-34.625-34.656M552.25 29c-.51.052-1.045.099-1.562.125.518-.023 1.05-.08 1.562-.125m-7.75-.187c.512.068 1.013.141 1.531.187-.51-.052-1.028-.11-1.531-.187m1.531.187c.51.045 1.015.102 1.532.125A30 30 0 0 1 546.03 29" clip-path="url(#cn)" style="fill:url(#co);fill-opacity:1;stroke:none;filter:url(#cp)" transform="translate(-351.931 106.271)scale(.69811)"/><path d="M469.607-34.831c0 9.684-6.314 17.534-14.103 17.534-7.79 0-14.104-7.85-14.104-17.534s6.315-17.534 14.104-17.534 14.103 7.85 14.103 17.534" style="opacity:.40625;fill:url(#cq);fill-opacity:1;stroke:none;filter:url(#cr)" transform="matrix(.7373 0 0 .64114 -304.374 113.542)"/><path d="m32.597 80.68.184 3.833c1.52.027 3 .17 4.424.395-.296-1.247-.588-2.494-.897-3.74a22 22 0 0 0-3.71-.488m-2.813.024c-1.232.093-2.431.297-3.569.58a367 367 0 0 0-.958 3.972 31 31 0 0 1 4.588-.65l.183-3.902c-.084.005-.161-.007-.244 0m8.767 1.115q.565 1.785 1.121 3.577c2.68.657 5.113 1.642 7.157 2.903-1.588-2.851-4.55-5.169-8.278-6.48m-14.905.278c-3.991 1.601-7.011 4.395-8.216 7.735 1.866-1.549 4.236-2.82 6.932-3.74.426-1.33.85-2.662 1.284-3.995m9.196 3.694.285 5.597c1.954.051 3.863.227 5.668.558q-.617-2.856-1.284-5.714c-1.501-.253-3.06-.41-4.67-.441m-3.058.07c-1.69.123-3.307.4-4.853.766a341 341 0 0 0-1.264 5.714 35.4 35.4 0 0 1 5.852-.883zm10.316.928a642 642 0 0 1 1.795 5.9c2.189.621 4.193 1.427 5.974 2.416.148-.67.224-1.343.224-2.044a9.4 9.4 0 0 0-.49-2.95c-2.094-1.434-4.64-2.573-7.503-3.322m-18.207.72c-2.706.98-5.068 2.329-6.891 3.95a9.4 9.4 0 0 0-.143 1.602c0 .936.143 1.84.408 2.718a25.8 25.8 0 0 1 4.77-2.346 693 693 0 0 1 1.856-5.924" style="opacity:.39673911;fill:url(#cs);fill-opacity:1;stroke:none"/></g><g style="filter:url(#ct)" transform="rotate(-45 109.738 -24.65)scale(.27219)"><path d="M31.52 77.913c-13.437 0-24.35 10.913-24.35 24.35s10.913 24.33 24.35 24.33 24.33-10.892 24.33-24.33-10.892-24.35-24.33-24.35" style="fill:url(#cu);fill-opacity:1;stroke:none"/><path d="M549.125-40.125c-19.124 0-34.656 15.532-34.656 34.656 0 17.548 13.1 32.01 30.031 34.282-14.59-2.229-25.781-14.823-25.781-30.032 0-16.782 13.624-30.406 30.406-30.406s30.406 13.624 30.406 30.406c0 15.734-11.959 28.663-27.281 30.219 17.666-1.573 31.5-16.393 31.5-34.469 0-19.124-15.5-34.656-34.625-34.656M552.25 29c-.51.052-1.045.099-1.562.125.518-.023 1.05-.08 1.562-.125m-7.75-.187c.512.068 1.013.141 1.531.187-.51-.052-1.028-.11-1.531-.187m1.531.187c.51.045 1.015.102 1.532.125A30 30 0 0 1 546.03 29" clip-path="url(#cv)" style="fill:url(#cw);fill-opacity:1;stroke:none;filter:url(#cx)" transform="translate(-351.931 106.271)scale(.69811)"/><path d="M469.607-34.831c0 9.684-6.314 17.534-14.103 17.534-7.79 0-14.104-7.85-14.104-17.534s6.315-17.534 14.104-17.534 14.103 7.85 14.103 17.534" style="opacity:.40625;fill:url(#cy);fill-opacity:1;stroke:none;filter:url(#cz)" transform="matrix(.7373 0 0 .64114 -304.374 113.542)"/><path d="m32.597 80.68.184 3.833c1.52.027 3 .17 4.424.395-.296-1.247-.588-2.494-.897-3.74a22 22 0 0 0-3.71-.488m-2.813.024c-1.232.093-2.431.297-3.569.58a367 367 0 0 0-.958 3.972 31 31 0 0 1 4.588-.65l.183-3.902c-.084.005-.161-.007-.244 0m8.767 1.115q.565 1.785 1.121 3.577c2.68.657 5.113 1.642 7.157 2.903-1.588-2.851-4.55-5.169-8.278-6.48m-14.905.278c-3.991 1.601-7.011 4.395-8.216 7.735 1.866-1.549 4.236-2.82 6.932-3.74.426-1.33.85-2.662 1.284-3.995m9.196 3.694.285 5.597c1.954.051 3.863.227 5.668.558q-.617-2.856-1.284-5.714c-1.501-.253-3.06-.41-4.67-.441m-3.058.07c-1.69.123-3.307.4-4.853.766a341 341 0 0 0-1.264 5.714 35.4 35.4 0 0 1 5.852-.883zm10.316.928a642 642 0 0 1 1.795 5.9c2.189.621 4.193 1.427 5.974 2.416.148-.67.224-1.343.224-2.044a9.4 9.4 0 0 0-.49-2.95c-2.094-1.434-4.64-2.573-7.503-3.322m-18.207.72c-2.706.98-5.068 2.329-6.891 3.95a9.4 9.4 0 0 0-.143 1.602c0 .936.143 1.84.408 2.718a25.8 25.8 0 0 1 4.77-2.346 693 693 0 0 1 1.856-5.924" style="opacity:.39673911;fill:url(#cA);fill-opacity:1;stroke:none"/></g></svg>