<svg xmlns="http://www.w3.org/2000/svg" xmlns:xlink="http://www.w3.org/1999/xlink" width="48" height="48"><defs><linearGradient id="a"><stop offset="0" style="stop-color:#df2323;stop-opacity:1"/><stop offset="1" style="stop-color:#e76f6f;stop-opacity:1"/></linearGradient><linearGradient xlink:href="#a" id="b" x1="417.391" x2="402.986" y1="534.987" y2="504.664" gradientUnits="userSpaceOnUse"/></defs><path d="M409.637 529.597c-.054.325.213 1.093.336 1.547.134.495.228.943.336 1.34.144.534.201.846.335 1.34.159.584.316.987.56 1.548.228.525.362.873.56 1.237.226.417.212 1.093.335 1.547.14.515.336 1.032.448 1.443.141.522.336.684.336 1.341 0 .77-.146.86-.896.516-.514-.237-.71-1.468-2.238-1.658-3.144-.425-5.133 1.44-5.178 4 2.004-1.064 5.054-1.99 6.633-1.93.642 0 1.104.045 1.455.206.265.123-.35 1.724-.088 1.724h2s.077-1.974.042-2.136c-.11-.507 0-1.131 0-1.65 0-.432.112-.982.112-1.547 0-.443.13-.812.484-1.137.131-.121.223-.275.335-.412.441-.542-1.495.245-2.014.724 0 0-.112-.196-.112-.825 0-.538-.313-1.05-.448-1.547-.149-.55-.178-.965-.335-1.546l-.56-2.063c-.12-.44-.335-.925-.448-1.34-.113-.419-.112-.902-.112-1.444 0-.71.024-.906-.335-1.237-.517-.476-1.543.088-1.543.515z" style="fill:#377d50;fill-rule:evenodd;stroke:none" transform="translate(-384.571 -499.798)"/><path d="M411.27 504.819c-1.52.329-2.098 3-3.762 2.979-2.014-.016-4.53-.083-6.806-.92-2.112-.048-2.585 3.415-4.67 3.185-1.609.204-5.511 2.016-6.216 4.808-.507 1.723-.238 3.651.922 5.061 1.427 2.16 3.24 4.138 5.452 5.518 1.624.788 3.482.79 5.18 1.345.292.219.919.946 1.131 1.12l.086.108c-.855.84-2.656 1.376-1.694 2.837.565 2.706 3.395 5.81 5.71 5.938 2.315-.177 1.13-3.103 1.903-4.473 1.546-2.847 4.053-.997 5.707.265 1.742 1.14 2.52-2.148 4.149-.729 1.114-.502 2.512-2.335 3.846-3.202 1.034-1.446-.538-3.69 1.696-4.295 1.448-1.09 1.6-3.104 2.867-4.364 1.356-1.414 1.057-4.47-1.418-4.199-1.614-.015-4.675 2.608-4.99-.633-.852-2.577-1.476-5.492-3.783-7.232-1.474-1.599-3.946-3.064-5.31-3.117" style="fill:url(#b);fill-rule:evenodd;stroke:none;fill-opacity:1" transform="translate(-384.571 -499.798)"/><path d="M400.571 519.798c1.557 1.253 3.571 2.221 5.654 2.205 1.969-.085 3.958-1.806 5.898-.73 1.56.531 3.514 2.097 1.753 3.585-1.238.683-2.561 1.266-3.431 2.395-1.323 1.061-2.995 1.614-4.54 2.312-1.6.881-3.061-.974-3.473-1.62-.015.015-.037.026-.052.04v.011h-.002.002c0-.043-.09-.203-.335-.566-1.389-1.418-1.559-3.637-1.334-5.487.908-.245.193-1.387-.14-2.135z" style="fill:#f57373;fill-rule:evenodd;stroke:none;fill-opacity:1" transform="translate(-384.571 -499.798)"/><path d="M410.517 506.436c-.881.878-.855 2.585-2.34 2.592 1.329.232 1.292 1.02-.058.714-1.597-.182-3.84-.468-4.691 1.272-1.096 1.484-.801 3.364.183 4.786.208 2.165 2.738.581 4.141.87 1.758-.623 3.756-2.113 3.299-4.236-.28-1.513 2.03-1.023.934-2.524-1.11-.602-2.773-3.045-.438-3.046 2.397.48 3.389 2.954 4.873 4.604 1.16 1.6 1.899 3.488 1.954 5.475.256 1.412 1.074 3.26-.353 4.326-1.486.834 1.524.39 1.226-.816.24-1.395 2.3-2.744 3.277-2.357-.894.675-3.087 3.01-.923 3.403.652.063 1.698.234.368.122-1.858-.649-3.519.6-4.445 2.122-.837.451.165-2.021-.664-2.53.738-2.05-.564-4.056-2.439-4.91-1.68-.387-2.235-3.175-2.566-3.832-.28 2.12-1.628 3.837-3.785 4.364 1.493.043 2.902.835 4.452.708.855.374 3.433-.352 2.851 1.007-1.857.274-3.638-.664-5.503-.598-1.99-.39-4.034-.487-6.036-.448-1.294-1.06-1.489-3.081-1.655-4.682-.213-1.46 1.504-2.62 1.848-3.358-1.208-1.031-3.295.03-3.94 1.304-.662 1.362-1.494 2.667-1.686 4.194-.5 1.203-.244 2.78 1.345 2.654-.421 1.672-2.395-1.194-2.745-2.06-.272-1.883 1.277-3.37 2.057-4.93 1.236-1.1 2.718-2.333 4.435-2.342 1.13-.38 1.727.966 2.768.355 1.993.581 3.062-.215 3.663-1.69.168-.202.346-.405.593-.513" style="fill:#ffafa5;fill-rule:evenodd;stroke:none" transform="translate(-384.571 -499.798)"/><g style="fill:#ffafa5;fill-rule:evenodd;stroke:none"><path d="M11.377 1012.682c-.985 2.459-2.25 5.596-.417 7.973 1.169 1.495 3.22 2.627 2.745 4.845-.08 1.402-.157 3.655-1.732 1.964-1.77-.83-2.545-2.718-4.221-3.693-1.373-.906-3.667-3.248-2.762-4.328.856 1.923 2.42 4.085 4.709 4.203 2.917-.254-.84-2.882-1.023-4.45-1.152-2.051-.719-5.023 1.51-6.146.371-.193.776-.321 1.19-.368M22.636 1013.824c1.3-.425 3.569 1.4 3.376 1.765-1.836-1.713-.37 1.153-.853 1.903.813-1.346-1.932-3.176-2.04-2.18 1.017.44 1.525 2.156.455 2.673 1.187-1.117-.485-3.15-1.51-1.918 1.907 1.691-2.92 1.079-1.17-.751.367-.612 1.062-1.257 1.742-1.492" style="fill:#ffafa5" transform="matrix(.86979 0 0 .86979 3.065 -870.312)"/></g><path d="M5.03 16.252c-.12 1.38.237 2.788 1.138 3.883 1.426 2.16 3.238 4.138 5.451 5.517 1.623.789 3.482.791 5.18 1.346.169.126.43.4.678.66.195-.14.384-.281.539-.433l-.086-.108c-.213-.173-.838-.9-1.131-1.119-1.698-.555-3.557-.557-5.18-1.346-2.213-1.38-4.025-3.357-5.451-5.517-.683-.83-1.05-1.841-1.139-2.883m37.911 1.352c-.092.59-.331 1.17-.742 1.597-1.266 1.26-1.419 3.275-2.867 4.365-2.234.604-.661 2.85-1.695 4.295-1.334.867-2.732 2.7-3.846 3.201-1.629-1.418-2.407 1.872-4.148.731-1.655-1.262-4.163-3.113-5.71-.266-.773 1.37.413 4.296-1.902 4.473-2.315-.129-5.144-3.232-5.709-5.937-.065-.1-.088-.186-.129-.278-.199.345-.219.75.13 1.277.564 2.706 3.393 5.81 5.708 5.938 2.315-.177 1.13-3.103 1.903-4.473 1.546-2.847 4.054-.996 5.709.266 1.741 1.14 2.52-2.149 4.148-.73 1.114-.503 2.512-2.335 3.846-3.202 1.034-1.445-.54-3.69 1.695-4.295 1.448-1.09 1.6-3.105 2.867-4.365.646-.674.904-1.716.742-2.597" style="fill:#000;fill-rule:evenodd;stroke:none;fill-opacity:1;opacity:.15"/></svg>