<svg xmlns="http://www.w3.org/2000/svg" xmlns:xlink="http://www.w3.org/1999/xlink" width="48" height="48"><defs><linearGradient id="c"><stop offset="0" style="stop-color:#000;stop-opacity:1"/><stop offset="1" style="stop-color:#000;stop-opacity:0"/></linearGradient><linearGradient xlink:href="#a" id="d" x1="426.741" x2="389.476" y1="543.086" y2="502.825" gradientTransform="translate(-384.571 -499.798)" gradientUnits="userSpaceOnUse"/><linearGradient id="a"><stop stop-color="#105be2" style="stop-color:#1919bf;stop-opacity:1"/><stop offset="1" stop-color="#26dbfc" style="stop-color:#9e9ef3;stop-opacity:1"/></linearGradient><linearGradient xlink:href="#c" id="e" x1="4.949" x2="43.119" y1="4.712" y2="42.78" gradientUnits="userSpaceOnUse"/></defs><rect width="40" height="40" x="4" y="4" rx="20" style="opacity:1;fill:url(#d);stroke-width:2.79999995;stroke-opacity:.55026502"/><path d="M9.874 17.26 8.267 28.7l7.872 13.42 9.49 1.905A19.94 19.94 0 0 0 43.88 25.504L30.107 9.31l-11.104-.343-4.81 5.617Z" style="opacity:.3;fill:url(#e);fill-opacity:1;stroke:none;stroke-width:2;stroke-linecap:round;stroke-linejoin:round;stroke-miterlimit:4;stroke-dasharray:none;stroke-opacity:1"/><g style="display:inline;fill:#fff;fill-opacity:1"><path d="M172.781 12.594a11.145 11.145 0 0 0-11.156 11.156c0 2.37.742 4.567 2 6.375L136.156 62c-1.196-.345-2.474-.562-3.781-.562-7.503 0-13.562 6.09-13.562 13.593 0 .395.03.77.062 1.156L94.688 92.126a11.1 11.1 0 0 0-6.438-2.062c-6.17 0-11.187 5.017-11.187 11.187 0 3.866 1.984 7.244 4.968 9.25l-4.406 83.25a8.73 8.73 0 0 0-4.656 7.75 8.745 8.745 0 0 0 8.75 8.75c.402 0 .8-.01 1.187-.062l60.719 62.25c-.019.232-.031.45-.031.687a8.745 8.745 0 0 0 8.75 8.75c1.773 0 3.433-.5 4.812-1.406l32.938 17.656c-.062.476-.094.944-.094 1.438 0 6.17 4.986 11.187 11.156 11.187 5.826 0 10.61-4.465 11.125-10.156l89.25-26.063c2.039 2.71 5.255 4.469 8.907 4.469 6.17 0 11.156-4.986 11.156-11.156 0-2.619-.898-5.033-2.406-6.938l38.625-85.031c6.17 0 11.156-4.986 11.156-11.156 0-5.43-3.865-9.962-9-10.969l-12.094-40.437a8.79 8.79 0 0 0 3.188-6.782 8.745 8.745 0 0 0-8.75-8.75c-.584 0-1.168.079-1.72.188l-55.5-68c.084-.484.157-.992.157-1.5a8.745 8.745 0 0 0-8.75-8.75 8.8 8.8 0 0 0-6.844 3.25l-86.343-2.938c-1.537-4.333-5.672-7.437-10.532-7.437M183.22 27.75 268 30.625a8.78 8.78 0 0 0 3.438 5.031l-2 9.469a13.57 13.57 0 0 0-9.313 7.563l-94.875 11.03 6.344-28.843c.395.042.78.063 1.187.063 4.76 0 8.828-2.995 10.438-7.188m97.156 8.563 54.125 66.28a8.6 8.6 0 0 0-.937 3.938 8.77 8.77 0 0 0 2.78 6.406l-4.437 12.5L284.47 64.72a13.5 13.5 0 0 0 1.562-6.344c0-5.84-3.673-10.829-8.844-12.75l1.813-8.75a8.6 8.6 0 0 0 1.375-.562m-113.437 1.75-5.75 26.124-18.375 2.157c-.048-.057-.109-.1-.157-.156zM260.75 68.03l-27.5 107.313c-.76.172-1.502.385-2.219.656l-70.968-80.25 33.062-3.687c1.483 2.73 4.362 4.593 7.688 4.593 4.836 0 8.78-3.944 8.78-8.781 0-.683-.101-1.33-.25-1.969l46.5-17.281zm-20.937 2.438-32.125 11.969a8.79 8.79 0 0 0-6.875-3.313 8.745 8.745 0 0 0-8.75 8.75c0 .136.025.272.03.406l-33.062 3.688 2.719-12.406ZM275.593 72l51.75 66.25-10.656 29.969-65.062 15.125a16.9 16.9 0 0 0-3.5-4.25zM157.72 80.031 155.406 90.5l-8.187-9.25zM121.75 83.47c.754.95 1.615 1.812 2.594 2.531l-1.906 10.063-23.344 2.624c-.022-.094-.038-.187-.063-.28zm9.938 5.125c.231.011.453.031.687.031.292 0 .588-.013.875-.031l5.063 5.687-7.875.875zm9.75 9.219 9.906 11.218-4.25 19.344a8.75 8.75 0 0 0-8.438 8.75c0 2.689 1.218 5.081 3.125 6.688L112.5 188.719l17.156-89.594Zm-19.782 2.218L103.094 197c-3.125.648-5.77 2.619-7.344 5.281l-5.281-1a8.74 8.74 0 0 0-5.156-7.75l4.312-81.187c5.089-.632 9.096-4.712 9.688-9.813zm32.844 12.563 66.156 74.875c-.105.396-.204.78-.281 1.187l-107 11.469a11.3 11.3 0 0 0-2.5-1.906l34.281-52.625a9 9 0 0 0 2.25.281 8.745 8.745 0 0 0 8.75-8.75 8.74 8.74 0 0 0-5.281-8.031zm185.188 2.312c.243.076.498.133.75.188l10.28 34.437L334.689 129Zm-9.563 26.875 15.406 19.719-24.437 5.688zm16.281 31.375-35.125 77.313.719-48.281c3.841-.68 6.781-4.027 6.781-8.063 0-3.26-1.9-6.055-4.656-7.375l2.375-6.656zm-34.312 7.969-1.719 4.844c-4.424.117-8 3.704-8 8.156 0 3.677 2.446 6.806 5.781 7.844l-.812 55.125a11.2 11.2 0 0 0-6.531 5.094l-48.75-10.532a8.745 8.745 0 0 0-8.75-8.656c-4.691 0-8.524 3.678-8.75 8.313l-11.907 2.937 14.688-45.5c8.212-.163 14.992-6.165 16.344-14.031zM222.188 200a17 17 0 0 0 4.28 5.063l-16.937 52.375-36.375 8.906-57.5-54.063c.116-.274.219-.559.313-.844zM93 209.563l1.344.25q.125.736.344 1.437zm8.656 8.906c1.16.408 2.42.625 3.719.625.257 0 .497-.014.75-.031l48.5 45.625a9 9 0 0 0-2.281-.313 8.64 8.64 0 0 0-4.625 1.344zm133.563 36.625a8.75 8.75 0 0 0 8.094 5.406 8.75 8.75 0 0 0 7.937-5.062l42.906 9.218-82.687 24.188 9.781-30.313zm-27.063 6.625-8.687 26.812a11 11 0 0 0-2.125.563L176.5 269.469Zm-45 11.031 5.594 5.219-7.687-4.125c.015-.194.028-.396.03-.594z" style="fill:#fff;fill-opacity:1;stroke:none" transform="matrix(.1081 0 0 .1081 .111 6.522)"/></g><path d="M4.012 23.5c-.004.167-.012.332-.012.5 0 11.08 8.92 20 20 20s20-8.92 20-20c0-.168-.008-.333-.012-.5A19.95 19.95 0 0 1 24 43 19.95 19.95 0 0 1 4.012 23.5" style="opacity:.15;fill:#000;fill-opacity:1;stroke-width:2.79999995;stroke-opacity:.55026502"/></svg>