<svg xmlns="http://www.w3.org/2000/svg" xmlns:xlink="http://www.w3.org/1999/xlink" width="48" height="48"><defs><linearGradient xlink:href="#a" id="b" x1="407.626" x2="407.687" y1="543.768" y2="504.133" gradientUnits="userSpaceOnUse"/><linearGradient id="a"><stop offset="0" style="stop-color:#71368a;stop-opacity:1"/><stop offset="1" style="stop-color:#9c29cc;stop-opacity:1"/></linearGradient></defs><g transform="translate(-384.571 -499.798)"><rect width="40" height="40" x="388.57" y="503.8" rx="3" ry="3" style="fill:url(#b);fill-opacity:1"/><path d="M388.571 539.798v1c0 1.662 1.338 3 3 3h34c1.662 0 3-1.338 3-3v-1c0 1.662-1.338 3-3 3h-34c-1.662 0-3-1.338-3-3" style="opacity:.15;fill:#000;fill-opacity:1"/><path d="M405.325 509.798a.976.976 0 0 0-.98.973c0 .212.08.406.196.566l-2.45 2.794c-.097-.025-.187-.062-.293-.062a1.21 1.21 0 0 0-1.209 1.193c0 .025.031.038.033.063l-2.156 1.413a.98.98 0 0 0-.555-.189.976.976 0 0 0-.98.974c0 .328.174.608.424.785l-.392 7.285a.79.79 0 0 0-.392.69c0 .422.36.754.784.754q.034.001.066 0l5.356 5.432v.032c0 .422.327.785.752.785.15 0 .306-.051.424-.126l2.94 1.539c-.006.044-.033.08-.033.126 0 .537.438.973.98.973.508 0 .896-.39.947-.88l7.84-2.292c.178.247.488.409.816.409.542 0 .98-.436.98-.974a.97.97 0 0 0-.228-.596l3.397-7.442c.541 0 .98-.436.98-.974a.96.96 0 0 0-.785-.942l-1.077-3.548c.169-.14.294-.33.294-.565 0-.422-.36-.754-.784-.754-.037 0-.063.027-.098.031l-4.933-5.966c.007-.04.033-.083.033-.125 0-.422-.36-.754-.784-.754-.253 0-.448.127-.588.314l-7.61-.283a.97.97 0 0 0-.915-.659m.915 1.319 7.48.282c.049.171.15.31.294.409l-.196.847c-.35.082-.628.316-.784.629l-8.362 1.004.555-2.575c.037.004.06.032.098.032a.98.98 0 0 0 .915-.628m8.525.753 4.801 5.81c-.05.101-.098.193-.098.314 0 .21.09.395.23.533l-.393 1.1-4.18-5.276c.091-.168.163-.36.163-.565 0-.512-.326-.934-.784-1.1l.163-.784c.034-.011.067-.016.098-.032m-9.93.157-.522 2.293-1.6.188c-.01-.011-.024-.02-.033-.031zm8.231 2.607-2.417 9.357c-.075.017-.157.035-.228.063l-6.206-7.002 2.907-.314c.13.237.394.408.686.408.424 0 .75-.364.75-.785 0-.058-.02-.103-.032-.157l4.181-1.539zm-1.796.188-2.907 1.068c-.141-.168-.318-.283-.555-.283-.425 0-.784.332-.784.754v.031l-2.875.346.229-1.13zm3.103.157 4.54 5.778-.947 2.638-5.683 1.318a1.4 1.4 0 0 0-.327-.376zm-10.387.691-.196.91-.719-.816zm-3.103.314q.087.105.196.188l-.163.911-2.058.251c-.002-.01.002-.021 0-.031zm.85.44h.13l.457.502-.686.094zm.881.816.85.942-.393 1.727a.745.745 0 0 0-.718.754c0 .238.122.425.294.565l-2.58 3.894 1.502-7.756zm-1.764.188-1.633 8.447a.97.97 0 0 0-.653.503l-.457-.094a.78.78 0 0 0-.458-.723l.392-7.096a.94.94 0 0 0 .817-.817zm2.875 1.1 5.814 6.5c-.011.04-.025.083-.033.125l-9.407 1.005a1 1 0 0 0-.196-.157l3.005-4.616a.7.7 0 0 0 .196.031c.425 0 .784-.332.784-.753 0-.302-.202-.567-.457-.691zm16.266.188c.02.006.044-.005.065 0l.882 3.014-1.372-1.79zm-.85 2.355 1.373 1.727-2.156.502zm1.47 2.7-3.102 6.752.065-4.208a.72.72 0 0 0 .588-.69c0-.28-.189-.512-.425-.629l.229-.597zm-3.004.723-.164.408a.723.723 0 0 0-.718.722c0 .33.217.608.522.69l-.098 4.805c-.24.074-.433.26-.555.471l-4.279-.942c0-.421-.359-.753-.784-.753-.413 0-.766.316-.784.722l-1.045.251 1.307-3.956a1.506 1.506 0 0 0 1.437-1.225zm-7.938 1.632c.09.164.217.321.36.44l-1.503 4.585-3.135.785-5.063-4.742c.007-.019.026-.043.032-.063zm-11.334.817.13.031c.007.039-.01.089 0 .126zm.784.785c.093.029.192.063.294.063h.065l4.28 3.988a.716.716 0 0 0-.62.094zm11.694 3.203a.75.75 0 0 0 .718.47c.319 0 .602-.165.719-.439l3.723.817-7.25 2.104.881-2.67zm-2.385.596-.784 2.356a1 1 0 0 0-.13.03l-1.862-1.726zm-3.92.942.49.472-.685-.377v-.063z" style="opacity:.98999999;fill:#ecf0f1;fill-opacity:1;stroke:none"/></g></svg>