<svg xmlns="http://www.w3.org/2000/svg" xmlns:xlink="http://www.w3.org/1999/xlink" width="48" height="48"><defs><linearGradient id="c"><stop stop-color="#dcedfe" stop-opacity=".742"/><stop offset="1" stop-color="#dcedfe" stop-opacity="0"/></linearGradient><linearGradient id="a" x1="10.972" x2="40.709" y1="-.018" y2="30.416" gradientTransform="translate(15.653 1.018)" gradientUnits="userSpaceOnUse"><stop/><stop offset="1" stop-opacity="0"/></linearGradient><linearGradient xlink:href="#a" id="m" x1="11" x2="29.13" y1="4" y2="22.13" gradientTransform="translate(23.03 5.02)" gradientUnits="userSpaceOnUse"/><linearGradient id="n" x1="7.347" x2="30.347" y1="6.982" y2="45.982" gradientTransform="translate(23.03 5.02)" gradientUnits="userSpaceOnUse"><stop stop-color="#eee"/><stop offset="1" stop-color="#ccc"/></linearGradient><linearGradient id="q" x2="0" y1="36" y2="32" gradientTransform="matrix(1 0 0 1.0091 11.528 4.726)" gradientUnits="userSpaceOnUse"><stop stop-color="#c58c00"/><stop offset="1" stop-color="#ffc318"/></linearGradient><linearGradient id="o" x1="23.22" x2="19" y1="42.986" y2="33" gradientTransform="matrix(1 0 0 1.25 11.03 -4.982)" gradientUnits="userSpaceOnUse"><stop stop-color="#70431c"/><stop offset="1" stop-color="#be8c5a"/></linearGradient><linearGradient xlink:href="#a" id="p" x1="13.98" x2="21" y1="38.957" y2="46" gradientTransform="translate(16.03 1.018)" gradientUnits="userSpaceOnUse"/><linearGradient id="d" x2="0" y1="43.922" y2="2.987" gradientUnits="userSpaceOnUse"><stop stop-color="#22a7f0"/><stop offset="1" stop-color="#19b5fe"/></linearGradient><linearGradient id="g" x2="0" y1="43.922" y2="34.04" gradientUnits="userSpaceOnUse"><stop stop-color="#c8e3fe"/><stop offset="1" stop-color="#e4f1fe"/></linearGradient><linearGradient id="j" x1="19" x2="27" y1="33.998" y2="44" gradientUnits="userSpaceOnUse"><stop stop-color="#383e51"/><stop offset="1" stop-color="#655c6f" stop-opacity="0"/></linearGradient><radialGradient xlink:href="#c" id="f" cx="31.01" cy="48.672" r="16" gradientTransform="matrix(.59169 -.93256 2.10028 1.33257 -80.07 8.555)" gradientUnits="userSpaceOnUse"/><radialGradient xlink:href="#c" id="e" cx="30.3" cy="38.13" r="16" gradientTransform="matrix(.53188 -.49081 .78529 .851 -19.809 -.579)" gradientUnits="userSpaceOnUse"/></defs><path fill="url(#d)" d="M40 3v41H18L8 34V3l10.354-.013z"/><g color="#000"><path fill="url(#e)" d="M8 5v14l1 1v-2h2v2H9l1 1h1v1l1 1v-2h2v2h-2l1 1h1v1l1 1v-2h2v2h-2l1 1h1v1l1 1v-2h2v2h1v-2h2v2h1v-2h2v2h1v-2h2v2h1v-2h2v2h1v-2h2v2h1v-2h2v2h1v-2h1v-1h-1v-2h1v-1h-1v-2h1v-1h-1v-2h1v-1h-1v-2h1v-1h-1v-2h1v-1h-1V9h1V8h-1V6h1V5H11zm1 1h2v2H9zm3 0h2v2h-2zm3 0h2v2h-2zm3 0h2v2h-2zm3 0h2v2h-2zm3 0h2v2h-2zm3 0h2v2h-2zm3 0h2v2h-2zm3 0h2v2h-2zm3 0h2v2h-2zM9 9h2v2H9zm3 0h2v2h-2zm3 0h2v2h-2zm3 0h2v2h-2zm3 0h2v2h-2zm3 0h2v2h-2zm3 0h2v2h-2zm3 0h2v2h-2zm3 0h2v2h-2zm3 0h2v2h-2zM9 12h2v2H9zm3 0h2v2h-2zm3 0h2v2h-2zm3 0h2v2h-2zm3 0h2v2h-2zm3 0h2v2h-2zm3 0h2v2h-2zm3 0h2v2h-2zm3 0h2v2h-2zm3 0h2v2h-2zM9 15h2v2H9zm3 0h2v2h-2zm3 0h2v2h-2zm3 0h2v2h-2zm3 0h2v2h-2zm3 0h2v2h-2zm3 0h2v2h-2zm3 0h2v2h-2zm3 0h2v2h-2zm3 0h2v2h-2zm-24 3h2v2h-2zm3 0h2v2h-2zm3 0h2v2h-2zm3 0h2v2h-2zm3 0h2v2h-2zm3 0h2v2h-2zm3 0h2v2h-2zm3 0h2v2h-2zm3 0h2v2h-2zm-21 3h2v2h-2zm3 0h2v2h-2zm3 0h2v2h-2zm3 0h2v2h-2zm3 0h2v2h-2zm3 0h2v2h-2zm3 0h2v2h-2zm3 0h2v2h-2zm-18 3h2v2h-2zm3 0h2v2h-2zm3 0h2v2h-2zm3 0h2v2h-2zm3 0h2v2h-2zm3 0h2v2h-2zm3 0h2v2h-2z" opacity=".647"/><path fill="url(#f)" d="M8 20v14l1 1v-2h2v2H9l1 1h1v1l1 1v-2h2v2h-2l1 1h1v1l1 1v-2h2v2h-2l1 1h1v1l1 1v-2h2v2h1v-2h2v2h1v-2h2v2h1v-2h2v2h1v-2h2v2h1v-2h2v2h1v-2h2v2h1v-2h1v-1h-1v-2h1v-1h-1v-2h1v-1h-1v-2h1v-1h-1v-2h1v-1h-1v-2h1v-1h-1v-2h1v-1h-1v-2h1v-1H11zm1 1h2v2H9zm3 0h2v2h-2zm3 0h2v2h-2zm3 0h2v2h-2zm3 0h2v2h-2zm3 0h2v2h-2zm3 0h2v2h-2zm3 0h2v2h-2zm3 0h2v2h-2zm3 0h2v2h-2zM9 24h2v2H9zm3 0h2v2h-2zm3 0h2v2h-2zm3 0h2v2h-2zm3 0h2v2h-2zm3 0h2v2h-2zm3 0h2v2h-2zm3 0h2v2h-2zm3 0h2v2h-2zm3 0h2v2h-2zM9 27h2v2H9zm3 0h2v2h-2zm3 0h2v2h-2zm3 0h2v2h-2zm3 0h2v2h-2zm3 0h2v2h-2zm3 0h2v2h-2zm3 0h2v2h-2zm3 0h2v2h-2zm3 0h2v2h-2zM9 30h2v2H9zm3 0h2v2h-2zm3 0h2v2h-2zm3 0h2v2h-2zm3 0h2v2h-2zm3 0h2v2h-2zm3 0h2v2h-2zm3 0h2v2h-2zm3 0h2v2h-2zm3 0h2v2h-2zm-24 3h2v2h-2zm3 0h2v2h-2zm3 0h2v2h-2zm3 0h2v2h-2zm3 0h2v2h-2zm3 0h2v2h-2zm3 0h2v2h-2zm3 0h2v2h-2zm3 0h2v2h-2zm-21 3h2v2h-2zm3 0h2v2h-2zm3 0h2v2h-2zm3 0h2v2h-2zm3 0h2v2h-2zm3 0h2v2h-2zm3 0h2v2h-2zm3 0h2v2h-2zm-18 3h2v2h-2zm3 0h2v2h-2zm3 0h2v2h-2zm3 0h2v2h-2zm3 0h2v2h-2zm3 0h2v2h-2zm3 0h2v2h-2z"/></g><g transform="scale(-1 1)"><rect width="22" height="1" x="-40" y="43" fill="#2e3132" fill-opacity=".294" rx="0"/><path fill="#fff" fill-opacity=".41" d="M-40 3h32v1h-32z"/></g><g fill-rule="evenodd"><path fill="url(#g)" d="m8 34 10 10V34z"/><path fill="url(#j)" d="M28 44 18 34v10z" opacity=".2"/></g><path fill="#0c3155" fill-opacity=".474" d="M29.02 2.987H16.291c-3.949.231-5.847 2.432-6.771 4.589-1.573 5.559 1.063 11.493 6.414 11.613 2.919 0 5.45-1.529 7.592-3.348.328-.278 4.4-3.02 9.948-3.329l.278-3.261c-6.514 1.106-11.32 5.03-12.199 5.955-1.554 1.644-3.329 2.462-5.334 2.462-5.104-.667-5.214-6.462-3.618-9.356 0 0 1.893-4.66 16.419-5.325"/><g fill-rule="evenodd"><path fill="url(#a)" d="m37.22 9.791-.57 1.227 1 34h1.857l.309-32.63z" opacity=".2"/><path fill="url(#m)" d="m34.03 9.02 2 2 2 20-7 2z" opacity=".2"/></g><path fill="url(#n)" d="M34.03 9.02a2 2 0 0 0-1.145 3.637C31.419 17.084 28.74 24.31 26.03 27.02c0 0 3.977 6.02 3.977 10.02h10c0-4 4.02-10.02 4.02-10.02-2.71-2.71-5.387-9.934-6.854-14.361a2 2 0 0 0-1.146-3.639v18.27a2 2 0 1 1-2 .001V13.02z"/><rect width="10.02" height="5.05" x="30" y="39.96" fill="url(#o)" rx="0"/><path fill="url(#p)" fill-rule="evenodd" d="m30.03 40.02 5 5h5V40z" opacity=".2"/><path fill="url(#q)" d="M30.03 37.02h10c.831 0 1.5.675 1.5 1.514s-.669 1.514-1.5 1.514h-10c-.831 0-1.5-.675-1.5-1.514s.669-1.514 1.5-1.514"/></svg>