<svg xmlns="http://www.w3.org/2000/svg" xmlns:xlink="http://www.w3.org/1999/xlink" width="48" height="48"><defs><linearGradient id="m" x1="8" x2="27" y1="25" y2="44" gradientUnits="userSpaceOnUse"><stop/><stop offset="1" stop-opacity="0"/></linearGradient><linearGradient id="d" x2="0" y1="44" y2="18" gradientUnits="userSpaceOnUse"><stop stop-color="#c6cdd1"/><stop offset="1" stop-color="#e0e5e7"/></linearGradient><linearGradient id="a" x2="0" y1="20" y2="16" gradientUnits="userSpaceOnUse"><stop stop-color="#06a370"/><stop offset="1" stop-color="#22d1b0"/></linearGradient><linearGradient xlink:href="#a" id="e" x2="0" y1="21" y2="4" gradientUnits="userSpaceOnUse"/><linearGradient xlink:href="#a" id="l" x2="0" y1="15" y2="4" gradientUnits="userSpaceOnUse"/><linearGradient xlink:href="#a" id="i" x2="0" y1="16" y2="7" gradientUnits="userSpaceOnUse"/><linearGradient xlink:href="#a" id="g" x2="0" y1="17" y2="10" gradientUnits="userSpaceOnUse"/><linearGradient id="b" x2="0" y1="17" y2="8" gradientUnits="userSpaceOnUse"><stop stop-color="#c61423"/><stop offset="1" stop-color="#dc2b41"/></linearGradient><linearGradient xlink:href="#b" id="k" x2="0" y1="17" y2="12" gradientUnits="userSpaceOnUse"/><linearGradient xlink:href="#b" id="f" x2="0" y1="21" y2="12" gradientUnits="userSpaceOnUse"/><linearGradient id="n" x2="0" y1="25" y2="10" gradientUnits="userSpaceOnUse"><stop stop-color="#f39c12"/><stop offset="1" stop-color="#f5ab35"/></linearGradient></defs><path fill="url(#d)" d="M4 18h40v26H4z"/><g stroke-linecap="round" stroke-linejoin="bevel" stroke-width="2"><path fill="url(#a)" d="M8 16h4v9H8z"/><path fill="url(#e)" d="M12 4h4v21h-4z"/><path fill="url(#f)" d="M16 12h4v13h-4z"/><path fill="url(#g)" d="M20 10h4v15h-4z"/><path fill="url(#i)" d="M24 7h4v18h-4z"/><path fill="url(#k)" d="M28 12h4v13h-4z"/><path fill="url(#l)" d="M32 4h4v21h-4z"/><path fill="url(#b)" d="M36 8h4v17h-4z"/><g fill="#eff0f1"><path d="M8 31h4v3H8zM8 39h4v3H8zM8 27h4v3H8zM14 31h4v3h-4zM14 39h4v3h-4zM14 27h4v3h-4zM20 31h12v3H20zM20 39h12v3H20zM20 27h12v3H20zM34 31h6v3h-6zM34 39h6v3h-6zM34 27h6v3h-6zM8 35h4v3H8zM14 35h4v3h-4zM20 35h12v3H20zM34 35h6v3h-6z"/></g><path fill="#4d4d4d" d="M9 28h1v1H9z"/><path fill="#c0392b" d="M9 32h2v1H9z"/><path fill="#4d4d4d" d="M9 36h1v1H9z"/><path fill="#258e52" d="M9 40h2v1H9z"/><path fill="#4d4d4d" d="M15 40h1v1h-1z"/><path fill="#258e52" d="M15 36h1v1h-1z"/><path fill="#c0392b" d="M15 32h1v1h-1z"/><g fill="#4d4d4d"><path d="M15 28h1v1h-1zM21 28h4v1h-4z"/></g><g fill="#258e52"><path d="M21 32h2v1h-2zM24 32h2v1h-2zM21 36h3v1h-3z"/></g><g fill="#c0392b"><path d="M21 40h7v1h-7zM29 40h1v1h-1z"/></g><path fill="#258e52" d="M35 28h3v1h-3z"/><path fill="#4d4d4d" d="M35 32h1v1h-1z"/><path fill="#c0392b" d="M35 36h2v1h-2z"/><path fill="#4d4d4d" d="M35 40h3v1h-3z"/></g><path fill="url(#m)" fill-rule="evenodd" d="m8 25 19 19h17V29l-4-4z" opacity=".2"/><path fill="#2e3132" d="M4 43h40v1H4z" opacity=".1"/><path fill="url(#n)" fill-rule="evenodd" d="M8 25v-3c2 0 2-3 4-3s1.5 4 4 4 2-4 4-4 2-4 4-4 2 4 4 4 2-2 4-2 2-5 4-5 2 7 4 7v6z"/><path fill="#2e3132" fill-opacity=".294" d="M8 24h32v1H8z"/></svg>