<svg xmlns="http://www.w3.org/2000/svg" xmlns:xlink="http://www.w3.org/1999/xlink" width="48" height="48"><defs><linearGradient id="e" x1="428.57" x2="408.57" gradientUnits="userSpaceOnUse" spreadMethod="reflect"><stop stop-color="#2f3943"/><stop offset="1" stop-color="#808c9b"/></linearGradient><linearGradient id="f" x1="-395.07" x2="-419.67" y1="-511.2" y2="-535.8" gradientUnits="userSpaceOnUse"><stop stop-color="#18222a"/><stop offset="1" stop-color="#566069"/></linearGradient><linearGradient id="b" x1="-398.07" x2="-417.2" y1="-514" y2="-533.13" gradientUnits="userSpaceOnUse"><stop stop-color="#b97c1b"/><stop offset="1" stop-color="#dc8f16"/></linearGradient><linearGradient id="a" x1="421.64" x2="396.59" y1="536.87" y2="511.82" gradientTransform="rotate(180 408.57 523.8)" gradientUnits="userSpaceOnUse"><stop stop-color="#f39c12"/><stop offset="1" stop-color="#f5ab35"/></linearGradient><linearGradient xlink:href="#a" id="h" x1="417" x2="393.5" y1="532.23" y2="508.73" gradientTransform="rotate(180 408.57 523.8)" gradientUnits="userSpaceOnUse"/><linearGradient xlink:href="#a" id="i" x1="414.4" x2="391.69" y1="529.62" y2="506.91" gradientTransform="rotate(180 408.57 523.8)" gradientUnits="userSpaceOnUse"/><linearGradient xlink:href="#b" id="g" x1="-401.07" x2="-425.57" y1="-516.8" y2="-541.3" gradientUnits="userSpaceOnUse"/></defs><g stroke-opacity=".55" stroke-width="2.8" transform="translate(-384.57 -499.8)"><rect width="40" height="40" x="388.57" y="503.8" fill="url(#e)" rx="20"/><rect width="36" height="36" x="-426.57" y="-541.8" fill="url(#f)" rx="18" transform="scale(-1)"/><rect width="30" height="30" x="-538.8" y="-423.57" fill="#26333a" rx="15" transform="scale(1 -1)rotate(90)"/><rect width="28" height="28" x="-422.57" y="-537.8" fill="url(#b)" rx="14" transform="scale(-1)"/><rect width="20" height="20" x="-418.57" y="-533.8" fill="url(#g)" rx="10" transform="scale(-1)"/><path fill="url(#a)" d="M408.57 509.8c-7.756 0-14 6.244-14 14s6.244 14 14 14 14-6.244 14-14-6.244-14-14-14m0 1c7.202 0 13 5.798 13 13s-5.798 13-13 13-13-5.798-13-13 5.798-13 13-13"/><path fill="url(#h)" d="M408.57 511.8c-6.648 0-12 5.352-12 12s5.352 12 12 12 12-5.352 12-12-5.352-12-12-12m0 3c4.986 0 9 4.01 9 9 0 4.986-4.01 9-9 9-4.986 0-9-4.01-9-9 0-4.986 4.01-9 9-9"/><path fill="url(#i)" d="M408.57 515.8a8 8 0 0 0-3.236.684l1.863 4.66 1.252-.332 2.045-4.771a8 8 0 0 0-1.924-.24m2.883.541-1.977 4.611 1.125.648 4.818-1.928a7.97 7.97 0 0 0-3.967-3.332m-7.01.609a7.97 7.97 0 0 0-3.332 3.967l4.611 1.977.648-1.125zm11.443 3.613-4.66 1.863.332 1.252 4.771 2.045c.152-.617.24-1.259.24-1.924a8 8 0 0 0-.684-3.236m-15.08 1.312a8 8 0 0 0-.24 1.924c0 1.154.247 2.247.684 3.236l4.66-1.863-.332-1.252zm10.607 2.83-.648 1.125 1.928 4.818a7.97 7.97 0 0 0 3.332-3.967zm-4.879 1.293-4.818 1.928a7.97 7.97 0 0 0 3.967 3.332l1.977-4.611zm3.404.457-1.252.332-2.045 4.771c.617.152 1.259.24 1.924.24a8 8 0 0 0 3.236-.684z"/></g><g stroke-linejoin="round" transform="translate(-384.57 -499.8)"><circle cx="643.01" cy="166.83" r="2" fill="#2c3e50" color="#000" transform="rotate(37.5)"/><g fill="#fbdeaf" stroke-width="2"><path d="M401.571 513.798a3 3 0 0 0-3 3 3 3 0 0 0 3 3 3 3 0 0 0 3-3 3 3 0 0 0-3-3M405.571 519.298a1.5 1.5 0 0 0-1.5 1.5 1.5 1.5 0 0 0 1.5 1.5 1.5 1.5 0 0 0 1.5-1.5 1.5 1.5 0 0 0-1.5-1.5"/></g></g></svg>