<svg xmlns="http://www.w3.org/2000/svg" xmlns:xlink="http://www.w3.org/1999/xlink" viewBox="0 0 48 48"><defs><linearGradient id="c" x1="3" x2="-1" y1="507.8" y2="503.8" gradientTransform="rotate(90 -58.615 481.185)" gradientUnits="userSpaceOnUse"><stop offset="0" stop-color="#2f3943"/><stop offset="1" stop-color="#4d5662"/></linearGradient><linearGradient id="a" x2="0" y1="-521.8" y2="-518.8" gradientTransform="matrix(1 0 0 1.66667 0 347.867)" gradientUnits="userSpaceOnUse"><stop offset="0" stop-color="#84cbfe"/><stop offset="1" stop-color="#84cbfe" stop-opacity="0"/></linearGradient><linearGradient xlink:href="#a" id="d" x1="408.555" x2="408.572" y1="-521.501" y2="-518.815" gradientTransform="matrix(1 0 0 1.16667 0 85.467)" gradientUnits="userSpaceOnUse"/><linearGradient xlink:href="#a" id="e" x1="408.555" x2="408.572" y1="-521.501" y2="-518.815" gradientTransform="matrix(1 0 0 1.16667 -817.14 1132.067)" gradientUnits="userSpaceOnUse"/><linearGradient id="b" x2="0" y1="509.8" y2="537.8" gradientTransform="matrix(1 0 0 1.07143 0 -38.414)" gradientUnits="userSpaceOnUse"><stop offset="0" stop-color="#2e5d89"/><stop offset="1" stop-color="#1b92f4"/></linearGradient></defs><g transform="translate(-384.57 -499.8)"><path fill="#d0d5d7" d="M426.57 507.8v-2c0-1.136-.915-2-2.051-2h-31.898c-1.136 0-2.051.864-2.051 2v2z"/><rect width="36" height="35.5" x="390.57" y="505.8" fill="#d0d5d7" rx="0"/><path fill="#eff0f1" d="M391.57 506.8h34v32h-34z"/><path fill="url(#b)" d="M392.57 507.8h32v30h-32z"/><path fill="#d0d5d7" d="M390.57 539.8v2c0 1.136.915 2 2.051 2h31.898c1.136 0 2.051-.864 2.051-2v-2z"/><g stroke-linecap="round" stroke-linejoin="bevel"><path fill="#eff0f1" stroke="gray" stroke-linejoin="miter" stroke-width=".974" d="M407.057 510.287h10.017l5.009 5.007v15.019h-15.026z"/><path fill="#eff0f1" stroke="gray" stroke-linejoin="miter" stroke-width=".974" d="M395.057 515.287h10.017l5.009 5.007v15.019h-15.026z"/><path fill="#84cbfe" d="M392.57 522.8h32v1h-32z"/></g><g stroke-linejoin="round" stroke-width="2"><path fill="url(#c)" d="M422.57 539.8h-28v1c0 1.108.892 2 2 2h24c1.108 0 2-.892 2-2z"/><circle cx="-541.3" cy="-420.07" r=".5" fill="#11d116" transform="scale(1 -1)rotate(90)"/></g><g stroke-width="1.08"><path fill="url(#d)" d="M392.57-523.3h32v3.5h-32z" transform="matrix(1 0 0 -1 0 0)"/><path fill="url(#e)" d="M-424.57 523.3h32v3.5h-32z" transform="matrix(-1 0 0 1 0 0)"/></g></g></svg>