<svg xmlns="http://www.w3.org/2000/svg" xmlns:xlink="http://www.w3.org/1999/xlink" width="48" height="48"><defs><linearGradient id="a" x2="0" y1="543.8" y2="503.8" gradientTransform="matrix(1.125 0 0 .85 -51.07 79.57)" gradientUnits="userSpaceOnUse"><stop stop-color="#c6cdd1"/><stop offset="1" stop-color="#e0e5e7"/></linearGradient><linearGradient id="k" x1="390.57" x2="418.57" y1="507.8" y2="535.8" gradientUnits="userSpaceOnUse"><stop/><stop offset="1" stop-opacity="0"/></linearGradient><linearGradient id="b" x2="0" y1="507.8" y2="503.8" gradientUnits="userSpaceOnUse"><stop stop-color="#2f3943"/><stop offset="1" stop-color="#4d5662"/></linearGradient><linearGradient xlink:href="#a" id="f" x1="43" x2="8" y1="46" y2="37" gradientUnits="userSpaceOnUse"/><linearGradient id="h" x2="0" y1="509.8" y2="537.8" gradientUnits="userSpaceOnUse"><stop stop-color="#2e5d89"/><stop offset="1" stop-color="#1b92f4"/></linearGradient><linearGradient xlink:href="#b" id="l" x1="3" x2="-1" gradientTransform="rotate(90 -58.615 481.185)" gradientUnits="userSpaceOnUse"/><linearGradient id="d" x2="0" y1="-521.8" y2="-518.8" gradientUnits="userSpaceOnUse"><stop stop-color="#84cbfe"/><stop offset="1" stop-color="#84cbfe" stop-opacity="0"/></linearGradient><linearGradient xlink:href="#d" id="i" x2="0" y1="-521.8" y2="-518.8" gradientTransform="translate(0 1044.6)" gradientUnits="userSpaceOnUse"/><linearGradient id="m" x2="0" y1="505.8" y2="509.8" gradientUnits="userSpaceOnUse"><stop stop-color="#18222a"/><stop offset="1" stop-color="#566069"/></linearGradient><linearGradient xlink:href="#a" id="e" x2="0" y1="509.8" y2="537.8" gradientTransform="matrix(1.0625 0 0 1.07143 -25.536 -37.414)" gradientUnits="userSpaceOnUse"/></defs><g transform="translate(-384.57 -499.8)"><rect width="36" height="34" x="390.57" y="507.8" fill="url(#a)" rx="0"/><path fill="url(#e)" d="M391.57 508.8h34v30h-34z"/><path fill="url(#f)" d="M6 40v1.949C6 43.085 6.915 44 8.051 44h31.898A2.047 2.047 0 0 0 42 41.949V40z" transform="translate(384.57 499.8)"/><path fill="url(#h)" d="M392.57 509.8h32v28h-32z"/><path fill="url(#b)" d="M390.57 507.8v-1.949c0-1.136.915-2.051 2.051-2.051h31.898c1.136 0 2.051.915 2.051 2.051v1.949z"/><g stroke-linecap="round" stroke-linejoin="bevel" stroke-width="6.2"><path fill="#84cbfe" d="M392.57 521.8h32v1h-32z"/><path fill="url(#i)" d="M392.57 522.8h32v3h-32z" opacity=".2"/><path fill="url(#d)" d="M392.57-521.8h32v3h-32z" opacity=".2" transform="scale(1 -1)"/><path fill="#eff0f1" d="M393.57 515.8h17v21h-17z"/></g><path fill="url(#k)" fill-rule="evenodd" d="m390.57 507.8 32 32h4v-32z" opacity=".2"/><g stroke-linejoin="round" stroke-width="2"><path fill="url(#l)" d="M422.57 539.8h-28v1c0 1.108.892 2 2 2h24c1.108 0 2-.892 2-2z"/><circle cx="-541.3" cy="-420.07" r=".5" fill="#11d116" transform="scale(1 -1)rotate(90)"/></g><path fill="url(#m)" d="M390.57 505.8h36v2h-36z"/></g></svg>