<svg xmlns="http://www.w3.org/2000/svg" xmlns:xlink="http://www.w3.org/1999/xlink" width="48" height="48"><defs><linearGradient id="b" x2="0" y1="542.8" y2="503.8" gradientUnits="userSpaceOnUse"><stop stop-color="#f39c12"/><stop offset="1" stop-color="#f5ab35"/></linearGradient><linearGradient id="h" x1="41.528" x2="24.265" y1="55.41" y2="25.511" gradientUnits="userSpaceOnUse"><stop stop-color="#f7bb5d"/><stop offset="1" stop-color="#fce3bc"/></linearGradient><linearGradient id="a" x2="0" y1="523.8" y2="549.8" gradientTransform="rotate(-45 -387.023 738.107)" gradientUnits="userSpaceOnUse"><stop/><stop offset="1" stop-opacity="0"/></linearGradient><linearGradient xlink:href="#a" id="e" x1="410.88" x2="422.57" y1="520.94" y2="532.63" gradientTransform="translate(-384.57 -499.8)" gradientUnits="userSpaceOnUse"/><linearGradient id="g" x1="428.57" x2="388.57" y1="543.8" y2="503.8" gradientUnits="userSpaceOnUse"><stop stop-color="#f39c12"/><stop offset="1" stop-color="#ffc35a"/></linearGradient><linearGradient xlink:href="#b" id="d" x1="391.57" x2="461.2" gradientTransform="translate(250.71 -442.32)" gradientUnits="userSpaceOnUse"/></defs><g stroke-linejoin="round" stroke-width=".5" transform="translate(-384.57 -499.8)"><circle cx="408.57" cy="523.8" r="20" fill="url(#b)"/><path fill="#b97d1b" d="M428.549 523.218A20 20 0 0 1 408.57 542.8a20 20 0 0 1-19.979-19.418 20 20 0 0 0-.021.418 20 20 0 0 0 20 20 20 20 0 0 0 20-20 20 20 0 0 0-.021-.582"/></g><g stroke-linejoin="bevel" stroke-width="2" transform="translate(-384.57 -499.8)"><path fill="url(#a)" d="M36.729 11.271 11.272 36.728l6.127 6.127A20 20 0 0 0 24.001 44a20 20 0 0 0 20-20 20 20 0 0 0-1.145-6.602z" opacity=".2" transform="translate(384.57 499.8)"/><circle cx="659.28" cy="81.48" r="17" fill="url(#d)" transform="rotate(45)"/></g><g fill-rule="evenodd"><path fill="url(#e)" d="m26.06 12.789-.307 1.682 1.9 3.248 4.281.563 1.438 2.5-4.094 7.938-4.75 6.156-2.283-1.232-.248 1.357 11 11L45.56 30.024l-12.5-12.5-2 .266z" opacity=".2"/><path fill="url(#g)" d="m407.6 534.24-7.625-11.06-.406-5.25 5.344-.625 3.75-5.03 4.188 5.656 4.844.656-2.281 7.906-6.094 7.719z" transform="translate(-384.57 -499.8)"/></g><path fill="url(#h)" d="M24 6A18 18 0 0 0 6 24a18 18 0 0 0 18 18 18 18 0 0 0 18-18A18 18 0 0 0 24 6m0 2a16 16 0 0 1 15.705 13H36c-.554 0-1 .446-1 1s.446 1 1 1h3.963A16 16 0 0 1 40 24a16 16 0 0 1-.05 1H36c-.554 0-1 .446-1 1s.446 1 1 1h3.709A16 16 0 0 1 24 40 16 16 0 0 1 8.295 27H12c.554 0 1-.446 1-1s-.446-1-1-1H8.04A16 16 0 0 1 8 24a16 16 0 0 1 .05-1H12c.554 0 1-.446 1-1s-.446-1-1-1H8.291A16 16 0 0 1 24 8m0 4c-.667 0-1.291.188-1.77.537-.47.349-.772.811-1 1.266-.454.909-.684 1.869-1.12 2.75-.165.321-.217.317-.325.349-.108.033-.371.04-.765-.017-.8-.114-2.109-.458-3.467.225-.769.38-1.274 1.107-1.483 1.872-.216.765-.198 1.584-.06 2.432.286 1.696 1.09 3.534 2.16 5.141.96 1.436 2.214 3.695 3.498 5.625.642.96 1.288 1.84 1.959 2.533C22.298 35.402 23 36 24 36s1.7-.598 2.371-1.287c.669-.693 1.319-1.573 1.961-2.533 1.284-1.93 2.543-4.189 3.5-5.625 1.071-1.607 1.872-3.445 2.154-5.141.144-.848.154-1.667-.054-2.432-.213-.765-.712-1.492-1.485-1.872-1.357-.683-2.669-.339-3.465-.225-.397.057-.661.05-.772.017-.1-.032-.15-.028-.315-.349-.441-.881-.675-1.841-1.125-2.75-.228-.455-.53-.917-1.006-1.266C25.29 12.188 24.667 12 24 12m0 10c.554 0 1 .446 1 1v6c0 .554-.446 1-1 1s-1-.446-1-1v-6c0-.554.446-1 1-1"/></svg>