<svg xmlns="http://www.w3.org/2000/svg" xmlns:xlink="http://www.w3.org/1999/xlink" width="48" height="48"><defs><linearGradient id="d" x1="424.57" x2="393.27" y1="512.78" y2="536.8" gradientTransform="matrix(-1 0 0 1 432.57 -499.8)" gradientUnits="userSpaceOnUse" spreadMethod="reflect"><stop stop-color="#eff0f1"/><stop offset="1" stop-color="#bdc3c7"/></linearGradient><linearGradient id="a" x1="411.37" x2="408.57" y1="517.52" y2="502.8" gradientUnits="userSpaceOnUse"><stop stop-color="#2f3943"/><stop offset="1" stop-color="#808c9b"/></linearGradient><linearGradient xlink:href="#a" id="i" x1="389.07" x2="428.57" y1="518.55" y2="534.91" gradientUnits="userSpaceOnUse"/><linearGradient xlink:href="#a" id="l" x1="408.86" x2="406.83" y1="546.05" y2="528.99" gradientTransform="translate(0 1)" gradientUnits="userSpaceOnUse"/><linearGradient id="c" x1="-1.875" x2="39" gradientUnits="userSpaceOnUse"><stop stop-color="#197cf1"/><stop offset="1" stop-color="#21c9fb"/></linearGradient><linearGradient xlink:href="#c" id="k" x1="395.1" x2="423.91" y1="512.45" y2="541.27" gradientUnits="userSpaceOnUse" spreadMethod="reflect"/><linearGradient xlink:href="#c" id="m" x1="50" x2="9" gradientTransform="translate(384.57 500.8)" gradientUnits="userSpaceOnUse"/><linearGradient xlink:href="#d" id="g" x1="-409.69" x2="-403.54" y1="534.42" y2="519.57" gradientUnits="userSpaceOnUse"/><linearGradient id="n" x1="390.57" x2="428.57" gradientUnits="userSpaceOnUse"><stop stop-color="#292c2f"/><stop offset="1" stop-opacity="0"/></linearGradient><linearGradient id="f" x1="36" x2="12.558" y1="42" y2="11.45" gradientUnits="userSpaceOnUse"><stop stop-color="#18222a"/><stop offset="1" stop-color="#566069"/></linearGradient></defs><g stroke-opacity=".55" stroke-width="2.8" transform="translate(-384.57 -499.8)"><path fill="url(#d)" d="M24 4C12.92 4 4 12.92 4 24s8.92 20 20 20 20-8.92 20-20S35.08 4 24 4m0 3c2.216 0 4 1.784 4 4s-1.784 4-4 4-4-1.784-4-4 1.784-4 4-4m-11.539 6.506a4 4 0 0 1 2.281.529 3.99 3.99 0 0 1 1.463 5.465 3.99 3.99 0 0 1-5.463 1.465A3.993 3.993 0 0 1 9.277 15.5a3.99 3.99 0 0 1 3.184-1.994m23.08 0a3.99 3.99 0 0 1 3.184 1.994 3.993 3.993 0 0 1-1.465 5.465 3.99 3.99 0 0 1-5.463-1.465 3.99 3.99 0 0 1 1.463-5.465 4 4 0 0 1 2.281-.529m-22.518 13a3.99 3.99 0 0 1 3.184 1.994 3.99 3.99 0 0 1-1.463 5.465A3.993 3.993 0 0 1 9.279 32.5a3.993 3.993 0 0 1 1.465-5.465 4 4 0 0 1 2.279-.529m21.957 0a4 4 0 0 1 2.279.529 3.993 3.993 0 0 1 1.465 5.465 3.993 3.993 0 0 1-5.465 1.465 3.99 3.99 0 0 1-1.463-5.465 3.99 3.99 0 0 1 3.184-1.994M24.001 33c2.216 0 4 1.784 4 4s-1.784 4-4 4-4-1.784-4-4 1.784-4 4-4" transform="translate(384.57 499.8)"/><path fill="url(#f)" d="M24 8a16 16 0 0 0-2.92.277A3.991 3.991 0 0 0 24 15a3.989 3.989 0 0 0 2.92-6.721A16 16 0 0 0 24 8m-11.539 5.506a4 4 0 0 0-.615.098 16 16 0 0 0-2.916 5.08 3.992 3.992 0 0 0 7.275.816 3.984 3.984 0 0 0-1.463-5.46 3.96 3.96 0 0 0-2.281-.534m23.078 0a3.95 3.95 0 0 0-2.279.534 3.984 3.984 0 0 0-1.465 5.46 3.995 3.995 0 0 0 5.465 1.465 3.97 3.97 0 0 0 1.81-2.283 16 16 0 0 0-2.937-5.084 4 4 0 0 0-.594-.092m-22.519 13a3.95 3.95 0 0 0-2.278.534 3.95 3.95 0 0 0-1.812 2.28 16 16 0 0 0 2.93 5.073 3.992 3.992 0 0 0 4.346-5.893 3.99 3.99 0 0 0-3.186-1.994m21.959 0a3.99 3.99 0 0 0-3.184 1.994 3.99 3.99 0 0 0 1.465 5.465c.91.529 1.95.646 2.9.426a16 16 0 0 0 2.91-5.075 3.95 3.95 0 0 0-1.81-2.276 3.96 3.96 0 0 0-2.281-.534M24 33a3.991 3.991 0 0 0-2.92 6.721A16 16 0 0 0 24 40a16 16 0 0 0 2.92-.277A3.97 3.97 0 0 0 28 37c0-2.216-1.78-4-4-4" transform="translate(384.57 499.8)"/><rect width="14" height="14" x="-415.57" y="516.8" fill="url(#g)" rx="7" transform="scale(-1 1)"/><path fill="#bdc3c7" d="M388.58 523.3c-.004.167-.012.332-.012.5 0 11.08 8.92 20 20 20s20-8.92 20-20c0-.168-.008-.333-.012-.5a19.953 19.953 0 0 1-19.988 19.5 19.95 19.95 0 0 1-19.988-19.5"/></g><g stroke-linejoin="round" stroke-width="3" color="#000"><path fill="url(#i)" d="m402.57 511.8 24 24h-12l-24-24z" transform="translate(-384.57 -499.8)"/><path fill="url(#k)" d="m395.76 511.8-1.022 1.022 4.334 4.334 2.889-2.889-2.466-2.466zm6.976 3.241-2.889 2.889 4.334 4.334 2.891-2.889zm5.108 5.108-2.889 2.889 4.334 4.334 2.891-2.889zm5.108 5.108-2.889 2.889 4.334 4.334 2.891-2.889zm5.108 5.108-2.889 2.889 2.466 2.466h3.735l1.022-1.022z" transform="translate(-384.57 -499.8)"/><path fill="url(#l)" d="M393.57 535.8v8h25l8-8z" transform="translate(-384.57 -499.8)"/><path fill="url(#m)" d="M393.57 537.8v4h4v-4zm5 0v4h6v-4zm7 0v4h6v-4zm7 0v4h6v-4zm7 0v4h1l4-4z" transform="translate(-384.57 -499.8)"/><path fill="url(#a)" d="m398.57 503.8-8 8h33v-8z" transform="translate(-384.57 -499.8)"/><path fill="url(#c)" d="M13 6h-1l-4 4h5zm1 0v4h6V6zm7 0v4h6V6zm7 0v4h6V6zm7 0v4h4V6z"/><path fill="url(#n)" d="M423.57 510.57v1.225h-33l24 24h9.994a19.9 19.9 0 0 0 4.01-12c0-5.086-1.895-9.703-5-13.225" opacity=".2" transform="translate(-384.57 -499.8)"/></g></svg>