<svg xmlns="http://www.w3.org/2000/svg" xmlns:xlink="http://www.w3.org/1999/xlink" width="48" height="48"><defs><linearGradient id="c"><stop offset="0" style="stop-color:#000;stop-opacity:1"/><stop offset="1" style="stop-color:#000;stop-opacity:0"/></linearGradient><linearGradient id="b"><stop offset="0" style="stop-color:#cd1d31;stop-opacity:1"/><stop offset="1" style="stop-color:#e54456;stop-opacity:1"/></linearGradient><linearGradient id="a"><stop offset="0" stop-color="#282629"/><stop offset="1" stop-color="#424242"/></linearGradient><linearGradient xlink:href="#a" id="d" x1="404.071" x2="395.671" y1="545.098" y2="517.798" gradientTransform="translate(-163.673 -235.913)scale(1.42857)" gradientUnits="userSpaceOnUse"/><linearGradient xlink:href="#b" id="f" x1="410.767" x2="406.752" y1="531.303" y2="515.918" gradientUnits="userSpaceOnUse"/><linearGradient xlink:href="#c" id="e" x1="20.586" x2="35.315" y1="18.733" y2="33.463" gradientUnits="userSpaceOnUse"/></defs><g transform="translate(-384.571 -499.798)"><rect width="40" height="40" x="388.57" y="503.8" ry="20" style="opacity:1;fill:url(#d);fill-opacity:1;stroke:none"/><g style="fill:#fff;fill-opacity:1;opacity:.5"><path d="M392.57 512.8h3v2h-3zM392.57 516.8h3v2h-3zM392.57 520.8h3v2h-3zM392.57 524.8h3v2h-3zM392.57 528.8h3v2h-3zM392.57 532.8h3v2h-3z" style="opacity:1;fill:#fff;fill-opacity:1;stroke:none;stroke-width:2;stroke-linecap:round;stroke-linejoin:round;stroke-miterlimit:4;stroke-dasharray:none;stroke-opacity:1"/></g><g style="fill:#fff;fill-opacity:1;opacity:.5"><path d="M392.57 512.8h3v2h-3zM392.57 516.8h3v2h-3zM392.57 520.8h3v2h-3zM392.57 524.8h3v2h-3zM392.57 528.8h3v2h-3zM392.57 532.8h3v2h-3z" style="opacity:1;fill:#fff;fill-opacity:1;stroke:none;stroke-width:2;stroke-linecap:round;stroke-linejoin:round;stroke-miterlimit:4;stroke-dasharray:none;stroke-opacity:1" transform="translate(29)"/></g><path d="M388.583 523.298c-.004.166-.012.332-.012.5 0 11.08 8.92 20 20 20s20-8.92 20-20c0-.168-.008-.334-.011-.5a19.95 19.95 0 0 1-19.989 19.5 19.95 19.95 0 0 1-19.988-19.5" style="opacity:.15;fill:#000;fill-opacity:1;stroke:none"/><path d="m33.201 16.863-16.504.29-1.72 4.72-.522 8.953L27.348 43.72a19.94 19.94 0 0 0 16.365-16.344z" style="opacity:.4;fill:url(#e);fill-opacity:1;stroke:none;stroke-width:2;stroke-linecap:round;stroke-linejoin:round;stroke-miterlimit:4;stroke-dasharray:none;stroke-opacity:1" transform="translate(384.571 499.798)"/><rect width="20" height="16" x="398.57" y="515.8" rx="3.026" ry="2.629" style="fill:url(#f);fill-opacity:1"/><path d="M405.715 518.799a1.12 1.12 0 0 0-1.143 1.119v7.76c0 .861.93 1.401 1.678.972l6.76-3.88a1.12 1.12 0 0 0 0-1.944l-6.76-3.879a1.1 1.1 0 0 0-.535-.148" style="color:#000;font-style:normal;font-variant:normal;font-weight:400;font-stretch:normal;font-size:medium;line-height:normal;font-family:sans-serif;text-indent:0;text-align:start;text-decoration:none;text-decoration-line:none;text-decoration-style:solid;text-decoration-color:#000;letter-spacing:normal;word-spacing:normal;text-transform:none;direction:ltr;block-progression:tb;writing-mode:lr-tb;baseline-shift:baseline;text-anchor:start;white-space:normal;clip-rule:nonzero;display:inline;overflow:visible;visibility:visible;opacity:1;isolation:auto;mix-blend-mode:normal;color-interpolation:sRGB;color-interpolation-filters:linearRGB;solid-color:#000;solid-opacity:1;fill:#fff8eb;fill-opacity:1;fill-rule:nonzero;stroke:none;stroke-width:2.24022985;stroke-linecap:round;stroke-linejoin:round;stroke-miterlimit:4;stroke-dasharray:none;stroke-dashoffset:0;stroke-opacity:1;color-rendering:auto;image-rendering:auto;shape-rendering:auto;text-rendering:auto"/></g></svg>