<svg xmlns="http://www.w3.org/2000/svg" width="48" height="48" xmlns:v="https://vecta.io/nano"><defs><linearGradient id="A" x2="-51.07" x1="-51.07" href="#M"><stop stop-color="#197cf1" offset="0"/><stop stop-color="#20bcfa" offset="1"/></linearGradient><linearGradient id="B" x2="-2.216" y1="44.664" y2="10.222" href="#A" x1="-2.216"/><linearGradient id="C" x2="0" y1="10" y2="14" href="#M"><stop stop-color="#1d1e1e" offset="0"/><stop stop-color="#44484c" offset="1"/></linearGradient><linearGradient id="D" y1="14" y2="10" href="#A"/><linearGradient id="E" x2="-422.3" y1="16.504" y2="2.936" href="#A" x1="-422.3"/><linearGradient id="F" href="#M"><stop stop-color="#c6cdd1" offset="0"/><stop stop-color="#e0e5e7" offset="1"/></linearGradient><linearGradient id="G" x2="-422.3" y1="17.548" y2="14.417" href="#F" x1="-422.3"/><linearGradient id="H" x2="-2.216" y1="17.527" y2="14.396" href="#F" x1="-2.216"/><linearGradient id="I" x2="-478.08" y1="44.684" y2="13.373" href="#A" x1="-478.08"/><linearGradient id="J" x1="10.958" x2="10.958" y1="41.204" y2="20.511" href="#M"><stop stop-color="#7cbaf8" offset="0"/><stop stop-color="#f4fcff" offset="1"/></linearGradient><linearGradient id="K" x1="27.882" x2="48.097" y1="14.976" y2="34.291" href="#M"><stop stop-color="#292c2f" offset="0"/><stop stop-opacity="0" offset="1"/></linearGradient><path id="L" d="m10 10-1 1 1 1-4 2h36l-4-2 1-1-1-1H24z" fill-rule="evenodd"/><linearGradient id="M" gradientUnits="userSpaceOnUse"/></defs><path d="M7.615 10.221v2.087l1.092-1.044zm32.77 0l-1.092 1.044 1.092 1.044z" fill="url(#B)" fill-rule="evenodd"/><path d="M4.338 13.352v24.885a6.71 6.411 0 0 0 6.724 6.425h25.875a6.71 6.411 0 0 0 6.724-6.425V13.352h-32.6z" fill="url(#I)"/><g transform="matrix(1.0923 0 0 1.0437 -2.2162 -1.2592)"><use fill="url(#D)" href="#L"/><use fill="url(#C)" opacity=".6" href="#L"/></g><path d="M8.707 9.177l-1.092 1.044h32.77l-1.092-1.044H24z" opacity=".2"/><path d="M15.261 16.483v-5.218c0-4.625 3.898-8.349 8.739-8.349s8.739 3.724 8.739 8.349v5.218h-1.092v-5.218c0-4.047-3.41-7.306-7.646-7.306s-7.646 3.258-7.646 7.306v5.218z" fill="url(#E)"/><path d="M15.809 14.394a1.639 1.566 0 0 1 1.638 1.566 1.639 1.566 0 0 1-1.639 1.565 1.639 1.566 0 0 1-1.639-1.565 1.639 1.566 0 0 1 1.639-1.565m0 1.044a.546.522 0 0 0-.546.522.546.522 0 0 0 .546.522.546.522 0 0 0 .546-.522.546.522 0 0 0-.546-.522" fill="url(#G)"/><path d="M32.193 14.396a1.639 1.566 0 0 0-1.639 1.566 1.639 1.566 0 0 0 1.639 1.566 1.639 1.566 0 0 0 1.639-1.565 1.639 1.566 0 0 0-1.639-1.565m0 1.044a.546.522 0 0 1 .546.522.546.522 0 0 1-.546.522.546.522 0 0 1-.546-.522.546.522 0 0 1 .546-.522" fill="url(#H)"/><path d="M43.662 37.069a6.71 6.411 0 0 1-6.724 6.425H11.063a6.71 6.411 0 0 1-6.724-6.425v1.168a6.71 6.411 0 0 0 6.724 6.425h25.875a6.71 6.411 0 0 0 6.724-6.425z" fill="#1c5593"/><path d="M21.815 44.662h15.122a6.554 6.262 0 0 0 .67-.031 6.554 6.262 0 0 0 .663-.094 6.554 6.262 0 0 0 .651-.158 6.554 6.262 0 0 0 .629-.219 6.554 6.262 0 0 0 .606-.277 6.554 6.262 0 0 0 .571-.334 6.554 6.262 0 0 0 .535-.386 6.554 6.262 0 0 0 .492-.436 6.554 6.262 0 0 0 .443-.48 6.554 6.262 0 0 0 .393-.52 6.554 6.262 0 0 0 .334-.557 6.554 6.262 0 0 0 .275-.582 6.554 6.262 0 0 0 .213-.607 6.554 6.262 0 0 0 .147-.626 6.554 6.262 0 0 0 .083-.637 6.554 6.262 0 0 0 .017-.48v-.255L26.62 21.702l-4.937.453-.306 5.392 4.578 4.374-1.95 2.305 4.013 3.847-9.784-.17-2.101-2.007-.874 2.505z" fill="url(#K)" opacity=".2"/><path d="M21.378 21.701v5.845h.874v-5.01h3.496v5.01h.874v-5.844zm-2.877 6.095l-.618.591 3.751 3.585.008-.007 2.365 2.261 2.36-2.254 3.751-3.583-.618-.59-3.751 3.583L24 33.051l-1.748-1.67zm-3.24 8.099V38.4h17.477v-2.505h-.874v1.67h-15.73v-1.67z" fill="url(#J)"/></svg>