<svg xmlns="http://www.w3.org/2000/svg" width="48" height="48" xmlns:v="https://vecta.io/nano"><defs><linearGradient id="A" x2="-51.07" x1="-51.07" href="#J"><stop stop-color="#197cf1" offset="0"/><stop stop-color="#20bcfa" offset="1"/></linearGradient><linearGradient id="B" x2="-2.216" y1="44.664" y2="10.222" href="#A" x1="-2.216"/><linearGradient id="C" x2="0" y1="10" y2="14" href="#J"><stop stop-color="#1d1e1e" offset="0"/><stop stop-color="#44484c" offset="1"/></linearGradient><linearGradient id="D" y1="14" y2="10" href="#A"/><linearGradient id="E" x2="-422.3" y1="16.504" y2="2.936" href="#A" x1="-422.3"/><linearGradient  href="#J"><stop stop-color="#c6cdd1" offset="0"/><stop stop-color="#e0e5e7" offset="1"/></linearGradient><linearGradient id="G" x2="-478.08" y1="44.684" y2="13.373" href="#A" x1="-478.08"/><linearGradient id="H" x1="27.786" x2="48.001" y1="14.976" y2="34.291" href="#J"><stop stop-color="#292c2f" offset="0"/><stop stop-opacity="0" offset="1"/></linearGradient><path id="I" d="m10 10-1 1 1 1-4 2h36l-4-2 1-1-1-1H24z" fill-rule="evenodd"/><linearGradient id="J" gradientUnits="userSpaceOnUse"/></defs><path d="M7.615 10.221v2.087l1.092-1.044zm32.77 0l-1.092 1.044 1.092 1.044z" fill="url(#B)" fill-rule="evenodd"/><path d="M4.338 13.352v24.885a6.71 6.411 0 0 0 6.724 6.425h25.875a6.71 6.411 0 0 0 6.724-6.425V13.352h-32.6z" fill="url(#G)"/><g transform="matrix(1.0923 0 0 1.0437 -2.2162 -1.2592)"><use fill="url(#D)" href="#I"/><use fill="url(#C)" opacity=".6" href="#I"/></g><path d="M8.707 9.177l-1.092 1.044h32.77l-1.092-1.044H24z" opacity=".2"/><path d="M15.261 16.483v-5.218c0-4.625 3.898-8.349 8.739-8.349s8.739 3.724 8.739 8.349v5.218h-1.092v-5.218c0-4.047-3.41-7.306-7.646-7.306s-7.646 3.258-7.646 7.306v5.218z" fill="url(#E)"/><path d="M15.809 14.394a1.639 1.566 0 0 1 1.638 1.566 1.639 1.566 0 0 1-1.639 1.565 1.639 1.566 0 0 1-1.639-1.565 1.639 1.566 0 0 1 1.639-1.565m0 1.044a.546.522 0 0 0-.546.522.546.522 0 0 0 .546.522.546.522 0 0 0 .546-.522.546.522 0 0 0-.546-.522m16.385-1.043a1.639 1.566 0 0 0-1.639 1.566 1.639 1.566 0 0 0 1.639 1.566 1.639 1.566 0 0 0 1.639-1.565 1.639 1.566 0 0 0-1.639-1.565m0 1.044a.546.522 0 0 1 .546.522.546.522 0 0 1-.546.522.546.522 0 0 1-.546-.522.546.522 0 0 1 .546-.522" fill="#bddfe3"/><path d="M43.662 37.069a6.71 6.411 0 0 1-6.724 6.425H11.063a6.71 6.411 0 0 1-6.724-6.425v1.168a6.71 6.411 0 0 0 6.724 6.425h25.875a6.71 6.411 0 0 0 6.724-6.425z" fill="#1c5593"/><path d="M22.421 44.662h14.42l.67-.031.663-.094.651-.158.629-.219.606-.277c.196-.102.387-.213.571-.334s.364-.249.535-.386a6.45 6.45 0 0 0 .492-.436 6.36 6.36 0 0 0 .443-.48 6.28 6.28 0 0 0 .393-.52c.121-.18.233-.366.334-.557a6.13 6.13 0 0 0 .275-.582 6.07 6.07 0 0 0 .213-.607c.06-.206.109-.415.147-.626s.083-.637.083-.637L32.977 22.229l-12.968-1.646-.147 10.636 2.697 3.329 2.818.757 2.546 1.491-5.478-8.172-5.472-7.907-1.881 14.795z" fill="url(#H)" opacity=".2"/><path d="M33.738 36.723v-12.06a4.175 4.175 0 0 0-4.175-4.175h-9.277a.464.464 0 0 0-.464.464v10.205a.464.464 0 0 0 .464.464h1.855a.464.464 0 0 0 .464-.464v-7.422a.464.464 0 0 1 .464-.464h1.855a.464.464 0 0 1 .464.464v7.422a.464.464 0 0 0 .464.464h1.855a.464.464 0 0 0 .464-.464v-7.422a.464.464 0 0 1 .464-.464h.928a1.392 1.392 0 0 1 1.392 1.392v9.277a.464.464 0 0 1-.464.464h-12.06a1.392 1.392 0 0 1-1.392-1.392v-12.06a.464.464 0 0 0-.464-.464H14.72a.464.464 0 0 0-.464.464v12.06a4.175 4.175 0 0 0 4.175 4.175h14.843a.464.464 0 0 0 .464-.464z" fill="#bddfe3"/></svg>