<svg xmlns="http://www.w3.org/2000/svg" xmlns:xlink="http://www.w3.org/1999/xlink" width="48" height="48"><defs><linearGradient id="b"><stop offset="0" style="stop-color:#3a465f;stop-opacity:1"/><stop offset="1" style="stop-color:#30394f;stop-opacity:1"/></linearGradient><linearGradient xlink:href="#b" id="c" x1="3" x2="44.998" y1="24" y2="24" gradientUnits="userSpaceOnUse"/></defs><rect width="41.998" height="42" x="3" y="3" rx="20.999" ry="21" style="fill-opacity:1;fill:url(#c)"/><path d="M33.74 33.657a1.34 1.34 0 0 1-1.845.445c-5.053-3.087-11.414-3.786-18.906-2.074a1.342 1.342 0 0 1-.597-2.616c8.198-1.873 15.23-1.067 20.903 2.4.632.388.832 1.213.444 1.845zm2.634-5.86a1.68 1.68 0 0 1-2.308.553c-5.785-3.556-14.603-4.585-21.445-2.508a1.68 1.68 0 0 1-2.094-1.118 1.68 1.68 0 0 1 1.119-2.093c7.816-2.372 17.532-1.223 24.176 2.86a1.677 1.677 0 0 1 .553 2.306zm.226-6.102c-6.936-4.12-18.38-4.499-25.003-2.489a2.013 2.013 0 1 1-1.168-3.852c7.602-2.308 20.24-1.863 28.225 2.878a2.01 2.01 0 0 1 .704 2.759 2.01 2.01 0 0 1-2.757.704z" style="fill:#00aa7f;fill-opacity:1"/></svg>