<svg xmlns="http://www.w3.org/2000/svg" xmlns:xlink="http://www.w3.org/1999/xlink" width="48" height="48"><defs><linearGradient id="a" x1="29.455" x2="15" y1="44" y2="16" gradientTransform="matrix(1.1 0 0 1.10714 -2.4 -4.714)" gradientUnits="userSpaceOnUse"><stop stop-color="#197cf1"/><stop offset="1" stop-color="#20bcfa"/></linearGradient><linearGradient id="e" x2="0" y1="16" y2="12" gradientTransform="matrix(1.05556 0 0 1 -1.333 -3)" gradientUnits="userSpaceOnUse"><stop stop-color="#06a370"/><stop offset="1" stop-color="#22d1b0"/></linearGradient><linearGradient id="c" x2="0" y1="12" y2="8" gradientTransform="translate(0 -2)" gradientUnits="userSpaceOnUse"><stop stop-color="#713e88"/><stop offset="1" stop-color="#9b59b6"/></linearGradient><linearGradient id="b" x2="0" y1="4" y2="8" gradientTransform="matrix(.92857 0 0 1 1.714 0)" gradientUnits="userSpaceOnUse"><stop stop-color="#da4453"/><stop offset="1" stop-color="#c0392b"/></linearGradient><linearGradient id="i" x2="0" y1="39" y2="23" gradientTransform="translate(0 -2)" gradientUnits="userSpaceOnUse"><stop stop-color="#60c0f4"/><stop offset="1" stop-color="#b9e9ff"/></linearGradient><linearGradient id="j" x1="19" x2="30" y1="35" y2="46" gradientTransform="translate(0 -2)" gradientUnits="userSpaceOnUse"><stop/><stop offset="1" stop-opacity="0"/></linearGradient><linearGradient xlink:href="#a" id="f" x1="21.531" x2="2" y1="44.736" y2="14" gradientUnits="userSpaceOnUse"/><linearGradient xlink:href="#a" id="h" x1="41" x2="20.806" y1="46.02" y2="11.02" gradientUnits="userSpaceOnUse"/></defs><g stroke-width="2"><g stroke-linecap="round" stroke-linejoin="bevel"><path fill="url(#b)" d="M11 4h26v7H11z"/><path fill="url(#c)" d="M8 6h32v7H8z"/><path fill="url(#e)" d="M5 9h38v7H5z"/><path fill="url(#a)" d="M2 13h44v31H2z"/></g><g stroke-linejoin="round"><path fill="url(#f)" d="M2 14.5v27L29 28z"/><path fill="url(#h)" d="m46 19.5-44 22V44h44z"/><path fill="url(#i)" d="m19 23 10 5-10 5z"/></g></g><g fill-rule="evenodd"><path fill="url(#j)" d="M30 44 19 33l10-5 16 16z" opacity=".2"/><path fill="#1c5593" d="M2 43h44v1H2z"/></g></svg>