<svg xmlns="http://www.w3.org/2000/svg" xmlns:xlink="http://www.w3.org/1999/xlink" width="48" height="48"><defs><linearGradient id="b"><stop offset="0" style="stop-color:#054e87;stop-opacity:1"/><stop offset="1" style="stop-color:#1d99f3;stop-opacity:1"/></linearGradient><linearGradient id="a"><stop offset="0" style="stop-color:#31363b;stop-opacity:.208"/><stop offset="1" style="stop-color:#31363b;stop-opacity:0"/></linearGradient><linearGradient xlink:href="#a" id="e" x1="21.969" x2="35.969" y1="1035.362" y2="1049.362" gradientTransform="translate(10 -14)" gradientUnits="userSpaceOnUse"/><linearGradient xlink:href="#a" id="f" x1="23" x2="36" y1="1035.362" y2="1048.362" gradientTransform="translate(13 -1021.362)" gradientUnits="userSpaceOnUse"/><linearGradient xlink:href="#a" id="i" x1="21.475" x2="34.475" y1="1035.158" y2="1048.158" gradientTransform="translate(-15.75 -1005.862)" gradientUnits="userSpaceOnUse"/><linearGradient xlink:href="#b" id="c" x1="24" x2="24" y1="1008.362" y2="1048.362" gradientUnits="userSpaceOnUse"/><linearGradient xlink:href="#a" id="d" x1="21.085" x2="35.969" y1="1036.975" y2="1049.362" gradientTransform="translate(5.978 -17.513)" gradientUnits="userSpaceOnUse"/><linearGradient xlink:href="#a" id="g" x1="21.085" x2="35.969" y1="1036.975" y2="1049.362" gradientTransform="translate(-6.33 -4.852)" gradientUnits="userSpaceOnUse"/><linearGradient xlink:href="#a" id="h" x1="21.969" x2="35.969" y1="1035.362" y2="1049.362" gradientTransform="translate(-2.87 -1.17)" gradientUnits="userSpaceOnUse"/></defs><g transform="translate(0 -1004.362)"><circle cx="24" cy="1028.362" r="20" style="opacity:1;fill:url(#c);fill-opacity:1;stroke:none;stroke-width:1;stroke-linecap:round;stroke-linejoin:round;stroke-miterlimit:4;stroke-dasharray:none;stroke-opacity:1"/><path d="m26.586 1028.025 8.105-.42 1.91-6.755-5.591-4.442-6.872 5.833z" style="fill:url(#d);fill-opacity:1;fill-rule:evenodd;stroke:none;stroke-width:1px;stroke-linecap:butt;stroke-linejoin:miter;stroke-opacity:1"/><path d="m31.028 1028.357 3.972-.995 1.977-2.976-4-4-4.95 4.97z" style="fill:url(#e);fill-opacity:1;fill-rule:evenodd;stroke:none;stroke-width:1px;stroke-linecap:butt;stroke-linejoin:miter;stroke-opacity:1"/><path d="M35.924 13.33A7.47 7.47 0 0 1 38 18.5a7.5 7.5 0 0 1-7.5 7.5 8 8 0 0 1-.61-.03l-5.896 5.112a6 6 0 0 1-.428 2.158 6 6 0 0 1-7.806 3.326 6 6 0 0 1-.822-.414 6 6 0 0 1-.606-.408l-.02-.014-.011.002 8.193 8.194q.752.065 1.506.074a20 20 0 0 0 1.31-.047q.1-.007.2-.016a20 20 0 0 0 1.845-.222l.096-.018a20 20 0 0 0 1.397-.312c.24-.06.481-.117.718-.186a20 20 0 0 0 1.217-.404c.221-.08.445-.155.662-.242a20 20 0 0 0 1.149-.514c.22-.105.441-.204.656-.316a20 20 0 0 0 1.031-.592c.232-.14.468-.272.694-.42a20 20 0 0 0 .953-.686c.206-.153.419-.3.619-.46a20 20 0 0 0 .908-.797c.19-.174.387-.34.57-.52a20 20 0 0 0 .834-.893c.164-.181.336-.355.493-.542a20 20 0 0 0 .863-1.137c.102-.142.216-.275.314-.42a20 20 0 0 0 3.371-9.258v-.008A20 20 0 0 0 44 24a20 20 0 0 0-.22-2.814z" style="fill:url(#f);fill-opacity:1;fill-rule:evenodd;stroke:none;stroke-width:1px;stroke-linecap:butt;stroke-linejoin:miter;stroke-opacity:1" transform="translate(0 1004.362)"/><path d="m15.316 1040.068 6.36-.64 1.357-7.552-6.63-1.768-3.8 4.574z" style="fill:url(#g);fill-opacity:1;fill-rule:evenodd;stroke:none;stroke-width:1px;stroke-linecap:butt;stroke-linejoin:miter;stroke-opacity:1"/><path d="m16.985 1040.234 3.973-.417 2.21-3.445-3.062-3.156-6.933 3.987z" style="fill:url(#h);fill-opacity:1;fill-rule:evenodd;stroke:none;stroke-width:1px;stroke-linecap:butt;stroke-linejoin:miter;stroke-opacity:1"/><path d="m5.77 29.313 13.593 14.119a20 20 0 0 0 3.131.494l-8.193-8.194-2.002-4.974z" style="fill:url(#i);fill-opacity:1;fill-rule:evenodd;stroke:none;stroke-width:1px;stroke-linecap:butt;stroke-linejoin:miter;stroke-opacity:1" transform="translate(0 1004.362)"/><path d="M30.5 11a7.5 7.5 0 0 0-7.5 7.5q.002.302.03.604c-1.29 1.575-4.806 5.547-5.114 5.902a6 6 0 0 0-5.482 3.754 6 6 0 1 0 11.132 4.48 6 6 0 0 0 .428-2.158l5.897-5.111A8 8 0 0 0 30.5 26a7.5 7.5 0 0 0 0-15m0 3a4.5 4.5 0 1 1 0 9 4.5 4.5 0 0 1 0-9M18.047 27a4.001 4.001 0 1 1-.093 8.002A4.001 4.001 0 0 1 18.047 27" style="opacity:1;fill:#fff;fill-opacity:1;stroke:none;stroke-width:1;stroke-linecap:round;stroke-linejoin:round;stroke-miterlimit:4;stroke-dasharray:none;stroke-opacity:1" transform="translate(0 1004.362)"/><circle cx="30.5" cy="1022.862" r="3.5" style="opacity:1;fill:#fff;fill-opacity:1;stroke:none;stroke-width:1;stroke-linecap:round;stroke-linejoin:round;stroke-miterlimit:4;stroke-dasharray:none;stroke-opacity:1"/><path d="M5.072 22.564A19 19 0 0 0 5 24a19 19 0 0 0 .77 5.313l11.11 4.47a3 3 0 0 0 3.903-1.664 3 3 0 0 0-1.664-3.902z" style="opacity:1;fill:#fff;fill-opacity:1;stroke:none;stroke-width:1;stroke-linecap:round;stroke-linejoin:round;stroke-miterlimit:4;stroke-dasharray:none;stroke-opacity:1" transform="translate(0 1004.362)"/></g></svg>