<svg xmlns="http://www.w3.org/2000/svg" xmlns:xlink="http://www.w3.org/1999/xlink" width="48" height="48"><defs><linearGradient id="f" x2="0" y1="543.8" y2="503.8" gradientTransform="matrix(1.125 0 0 .925 -51.07 38.785)" gradientUnits="userSpaceOnUse"><stop stop-color="#bd8d48"/><stop offset="1" stop-color="#e8b971"/></linearGradient><linearGradient id="g" x2="0" y1="542.8" y2="504.8" gradientTransform="matrix(1 0 0 .92105 -1 40.852)" gradientUnits="userSpaceOnUse"><stop stop-color="#977a5c"/><stop offset="1" stop-color="#9d8062"/></linearGradient><linearGradient id="b" x1="402.57" x2="395.57" y1="532.8" y2="526.8" gradientTransform="translate(0 -2)" gradientUnits="userSpaceOnUse"><stop stop-color="#90a8b0"/><stop offset="1" stop-color="#e1e7ea"/></linearGradient><linearGradient id="n" x1="424.57" x2="392.57" y1="535.8" y2="506.8" gradientUnits="userSpaceOnUse"><stop stop-color="#b6c2c7"/><stop offset="1" stop-color="#c9dbe1"/></linearGradient><linearGradient id="a" x1="416.57" x2="409.57" y1="532.8" y2="526.8" gradientTransform="translate(37.658 -25.948)" gradientUnits="userSpaceOnUse"><stop stop-color="#afc0c6"/><stop offset="1" stop-color="#cad5d9"/></linearGradient><linearGradient xlink:href="#a" id="i" x1="416.57" x2="409.57" y1="532.8" y2="526.8" gradientTransform="translate(38.971 -26.542)" gradientUnits="userSpaceOnUse"/><linearGradient xlink:href="#b" id="h" x1="402.57" x2="395.57" y1="532.8" y2="526.8" gradientTransform="translate(6 -2)" gradientUnits="userSpaceOnUse"/><linearGradient xlink:href="#b" id="l" x1="402.57" x2="395.57" y1="532.8" y2="526.8" gradientTransform="translate(165.27 -158.82)" gradientUnits="userSpaceOnUse"/><linearGradient xlink:href="#b" id="m" x1="402.57" x2="395.57" y1="532.8" y2="526.8" gradientTransform="translate(12 -2)" gradientUnits="userSpaceOnUse"/><linearGradient id="d" x1="400.07" x2="400.32" y1="508.67" y2="531.17" gradientUnits="userSpaceOnUse"><stop stop-color="#96acb4"/><stop offset="1" stop-color="#475b63"/></linearGradient><linearGradient xlink:href="#d" id="k" x1="212.72" x2="213.34" y1="621.6" y2="642.18" gradientUnits="userSpaceOnUse"/></defs><g transform="translate(-384.57 -499.8)"><path fill="url(#d)" d="M398.57 509.8h1v16h-1z" color="#000"/><rect width="36" height="7" x="390.57" y="534.8" fill="url(#f)" rx="0"/><path fill="url(#g)" d="M390.57 535.8h36v5h-36z" opacity=".5"/><path fill="#936e39" d="M390.57 540.8h36v1h-36z"/><g color="#000"><circle cx="399.01" cy="527.8" r="3" fill="url(#b)"/><g fill="url(#d)"><path d="M404.57 509.8h1v16h-1zM410.57 509.8h1v16h-1z"/></g><circle cx="405.01" cy="527.8" r="3" fill="url(#h)"/><circle cx="450.77" cy="503.85" r="3" fill="url(#a)" opacity=".358" transform="rotate(2.919)"/><circle cx="452.08" cy="503.26" r="3" fill="url(#i)" opacity=".214" transform="rotate(2.919)"/><path fill="url(#k)" d="M216.52 621.45h1v16h-1z" transform="rotate(-20.009)"/><circle cx="564.28" cy="370.97" r="3" fill="url(#l)" transform="rotate(17.919)"/><circle cx="411.01" cy="527.8" r="3" fill="url(#m)"/><path fill="url(#n)" d="M393.57 534.8h2v-25h26v25h2v-27h-30z"/></g></g></svg>