<svg xmlns="http://www.w3.org/2000/svg" width="48" height="48"><linearGradient id="c" x1="23" x2="37" y1="20" y2="34" gradientUnits="userSpaceOnUse"><stop offset="0" stop-color="#292c2f"/><stop offset="1" stop-opacity="0"/></linearGradient><linearGradient id="a" x1="44" x2="4" y1="44" y2="4" gradientUnits="userSpaceOnUse"><stop offset="0" stop-color="#172525"/><stop offset="1" stop-color="#536161"/></linearGradient><linearGradient id="e" x1="24" x2="24" y1="35" y2="13" gradientTransform="matrix(2.04287 -6.83085 5.78193 2.36331 25.22 34.653)" gradientUnits="userSpaceOnUse"><stop offset="0" stop-color="#cd7223"/><stop offset=".53" stop-color="#f48e00"/><stop offset="1" stop-color="#ffa92d"/></linearGradient><linearGradient id="d" x1="27" x2="25.427" y1="28" y2="32.718" gradientUnits="userSpaceOnUse"><stop offset="0" stop-color="#b1621e"/><stop offset="1" stop-color="#ffa21d"/></linearGradient><rect width="40" height="40" x="4" y="4" fill="url(#a)" ry="1"/><path fill="url(#c)" d="m16 35 8 8h20V25L32 13v6l-7 2.333 7 2.334v6z" opacity=".4"/><path fill="url(#d)" d="m16 29 16-5.333v6L16 35z"/><path fill="#fff" d="M4 6V5c0-.554.446-1 1-1h38c.554 0 1 .446 1 1v1c0-.554-.446-1-1-1H5c-.554 0-1 .446-1 1" opacity=".184"/><path d="M4 42v1c0 .554.446 1 1 1h38c.554 0 1-.446 1-1v-1c0 .554-.446 1-1 1H5c-.554 0-1-.446-1-1" opacity=".481"/><path fill="url(#e)" d="m32 13-16 5.334v6l16 5.332v-6l-7-2.332L32 19z"/></svg>