<svg xmlns="http://www.w3.org/2000/svg" width="48" height="48"><linearGradient id="c" x1="23" x2="37" y1="20" y2="34" gradientUnits="userSpaceOnUse"><stop offset="0" stop-color="#292c2f"/><stop offset="1" stop-opacity="0"/></linearGradient><linearGradient id="a" x1="44" x2="4" y1="44" y2="4" gradientUnits="userSpaceOnUse"><stop offset="0" stop-color="#172525"/><stop offset="1" stop-color="#536161"/></linearGradient><linearGradient id="d" x1="24" x2="24" y1="35" y2="13" gradientTransform="matrix(2.04287 -6.83085 5.78193 2.36331 25.22 34.653)" gradientUnits="userSpaceOnUse"><stop offset="0" stop-color="#23a2cd"/><stop offset=".53" stop-color="#00b8f5"/><stop offset="1" stop-color="#2ecbff"/></linearGradient><rect width="40" height="40" x="4" y="4" fill="url(#a)" ry="1"/><path fill="url(#c)" d="M17.3 33.06 27.24 43H44v-9.5L34.5 24l-2.967 2.967h-5.631z" opacity=".4"/><path fill="#fff" d="M4 6V5c0-.554.446-1 1-1h38c.554 0 1 .446 1 1v1c0-.554-.446-1-1-1H5c-.554 0-1 .446-1 1" opacity=".184"/><path d="M4 42v1c0 .554.446 1 1 1h38c.554 0 1-.446 1-1v-1c0 .554-.446 1-1 1H5c-.554 0-1-.446-1-1" opacity=".481"/><path fill="url(#d)" d="m23.672 26.601-9.572-6.78 3.2-4.88 9.572 6.78z" opacity=".612"/><path fill="url(#d)" d="M24.188 21.033h7.345L34.5 24l-2.967 2.967h-5.631L17.3 33.06l-3.2-4.88L20 24Z"/></svg>