<svg xmlns="http://www.w3.org/2000/svg" xmlns:xlink="http://www.w3.org/1999/xlink" width="48" height="48"><defs><linearGradient id="f"><stop offset="0" style="stop-color:#000;stop-opacity:1"/><stop offset="1" style="stop-color:#000;stop-opacity:0"/></linearGradient><linearGradient id="c" x1="-430.57" x2="-385.57" y1="541.8" y2="503.8" gradientTransform="translate(383.57 -499.8)" gradientUnits="userSpaceOnUse"><stop stop-color="#197cf1" style="stop-color:#0b5dbd;stop-opacity:1"/><stop offset="1" stop-color="#21c9fb" style="stop-color:#0dc4fb;stop-opacity:1"/></linearGradient><linearGradient id="b"><stop offset="0" style="stop-color:#fff;stop-opacity:1"/><stop offset="1" style="stop-color:#fff;stop-opacity:0"/></linearGradient><linearGradient xlink:href="#b" id="j" x1="11.875" x2="32.125" y1="-15.125" y2="33.5" gradientUnits="userSpaceOnUse"/><linearGradient xlink:href="#c" id="g" x1="-331.57" x2="-383.57" y1="549.742" y2="499.8" gradientTransform="translate(383.57 -499.8)" gradientUnits="userSpaceOnUse"/><linearGradient xlink:href="#f" id="i" x1="18" x2="37" y1="13" y2="33" gradientUnits="userSpaceOnUse"/></defs><rect width="40" height="40" x="4" y="4" rx="1" ry="1" style="color:#000;clip-rule:nonzero;display:inline;overflow:visible;visibility:visible;opacity:1;isolation:auto;mix-blend-mode:normal;color-interpolation:sRGB;color-interpolation-filters:linearRGB;solid-color:#000;solid-opacity:1;fill:url(#g);fill-opacity:1;fill-rule:nonzero;stroke-width:.5;stroke-linecap:butt;stroke-linejoin:round;stroke-miterlimit:4;stroke-dasharray:none;stroke-dashoffset:0;stroke-opacity:1;color-rendering:auto;image-rendering:auto;shape-rendering:auto;text-rendering:auto;filter-blend-mode:normal;filter-gaussianBlur-deviation:0"/><path d="M5 4c-.554 0-1 .446-1 1v38c0 .554.446 1 1 1h5v-8h28v8h5c.554 0 1-.446 1-1V5c0-.554-.446-1-1-1h-1v2h-2V4h-2v8H10V4H8v2H6V4Zm1 4h2v2H6zm34 0h2v2h-2zM6 12h2v2H6zm34 0h2v2h-2zM6 16h2v2H6zm4-2h28v20H10V16zm30 2h2v2h-2zM6 20h2v2H6zm34 0h2v2h-2zM6 24h2v2H6zm34 0h2v2h-2zM6 28h2v2H6zm34 0h2v2h-2zM6 32h2v2H6zm34 0h2v2h-2zM6 36h2v2H6zm34 0h2v2h-2zM6 40h2v2H6zm34 0h2v2h-2z" style="fill:#000;stroke-width:.5;stroke-linejoin:round;fill-opacity:1;opacity:.656"/><path d="M4 42v1c0 .554.446 1 1 1h38c.554 0 1-.446 1-1v-1c0 .554-.446 1-1 1H5c-.554 0-1-.446-1-1" style="opacity:.3;fill:#000;fill-opacity:1"/><path d="M4 6V5c0-.554.446-1 1-1h38c.554 0 1 .446 1 1v1c0-.554-.446-1-1-1H5c-.554 0-1 .446-1 1" style="opacity:.3;fill:#fff;fill-opacity:1"/><path d="M28 14 16 26v4l14 14h13c.554 0 1-.446 1-1V30z" style="fill:url(#i);fill-rule:evenodd;stroke:none;stroke-width:1px;stroke-linecap:butt;stroke-linejoin:miter;stroke-opacity:1;fill-opacity:1;opacity:.242"/><path d="M28 14 16.008 25.992h-.004v4.01h4.01v-.004l11.992-11.992-.002-.002.002-.002-4-4-.002.002zm-1.998 3.412 2.59 2.59-7.588 7.588V26h-2v-1.59zm-7.998 7.998V27h2v1.59l-.41.41h-1.59l-1-1v-1.59zm5 3.59-1 1h10v-1z" style="color:#000;clip-rule:nonzero;display:inline;overflow:visible;visibility:visible;opacity:.872;isolation:auto;mix-blend-mode:normal;color-interpolation:sRGB;color-interpolation-filters:linearRGB;solid-color:#000;solid-opacity:1;fill:#fff;fill-opacity:1;fill-rule:evenodd;stroke-width:1;stroke-linecap:butt;stroke-linejoin:miter;stroke-miterlimit:4;stroke-dasharray:none;stroke-dashoffset:0;stroke-opacity:1;color-rendering:auto;image-rendering:auto;shape-rendering:auto;text-rendering:auto"/><g style="display:inline"><rect width="40" height="40" x="4" y="4" rx="1" ry="1" style="opacity:.43600003;fill:url(#j);fill-opacity:1"/></g><rect width="12" height="1" x="18" y="31" rx="0" ry="1" style="color:#000;clip-rule:nonzero;display:inline;overflow:visible;visibility:visible;opacity:.872;isolation:auto;mix-blend-mode:normal;color-interpolation:sRGB;color-interpolation-filters:linearRGB;solid-color:#000;solid-opacity:1;fill:#fff;fill-opacity:1;fill-rule:evenodd;stroke:none;stroke-width:1;stroke-linecap:butt;stroke-linejoin:miter;stroke-miterlimit:4;stroke-dasharray:none;stroke-dashoffset:0;stroke-opacity:1;marker:none;color-rendering:auto;image-rendering:auto;shape-rendering:auto;text-rendering:auto"/></svg>