<svg xmlns="http://www.w3.org/2000/svg" xmlns:xlink="http://www.w3.org/1999/xlink" width="48" height="48"><defs><linearGradient id="a"><stop offset="0" style="stop-color:#f11c1c;stop-opacity:1"/><stop offset="1" style="stop-color:#e05e4c;stop-opacity:1"/></linearGradient><linearGradient id="b" x2="0" y1="544.8" y2="503.8" gradientUnits="userSpaceOnUse"><stop offset="0" stop-color="#44484c"/><stop offset="1" stop-color="#1d1e1e"/></linearGradient><linearGradient id="c"><stop offset="0" style="stop-color:#000;stop-opacity:1"/><stop offset="1" style="stop-color:#000;stop-opacity:0"/></linearGradient><linearGradient xlink:href="#a" id="f" x2="0" y1="544.8" y2="503.8" gradientTransform="translate(-384.565 -499.911)" gradientUnits="userSpaceOnUse"/><linearGradient xlink:href="#b" id="d" x1="428.029" x2="386.827" y1="532.205" y2="524.418" gradientTransform="rotate(-120 72.136 385.663)" gradientUnits="userSpaceOnUse"/><linearGradient xlink:href="#a" id="e" x2="0" y1="544.8" y2="503.8" gradientTransform="rotate(-120 72.102 385.717)" gradientUnits="userSpaceOnUse"/><linearGradient xlink:href="#c" id="h" x1="7.669" x2="42.224" y1="14.513" y2="34.463" gradientUnits="userSpaceOnUse"/><linearGradient xlink:href="#a" id="g" x1="18.437" x2="13.059" y1="38.559" y2="31.145" gradientUnits="userSpaceOnUse"/></defs><path d="M27.25 4.01s-6.398.034-6.705.045c-.734.108-1.557.718-1.557.718.019.006.038-.025.059-.021.565-.338 1.45-.404 2.004.154l1.215 2.104 2.084 3.61 2.629 4.552c-1.188.678-3.465 2-3.465 2L34.44 20.1l2.932-10.922s-3.47 1.99-3.467 1.994L30.29 4.908c-.406-.572-1.074-.787-1.648-.883-.129-.018-.735-.025-1.391-.015M15.244 18.752 4.318 21.676s3.46 2.008 3.463 2.004l-3.617 6.263c-.292.638-.144 1.324.06 1.87.049.12.346.649.682 1.212 0 0 3.229 5.523 3.39 5.784.462.58 1.401.99 1.401.99-.004-.019-.04-.02-.047-.04-.575-.32-1.075-1.055-.869-1.814l1.215-2.103 2.084-3.61 2.629-4.552c1.18.69 3.463 2 3.463 2zM31 28l-8 8 7.994 8s.011-4 .006-4h7.232c.699-.065 1.218-.536 1.588-.986.08-.102.391-.625.711-1.198 0 0 3.168-5.557 3.313-5.828.272-.69.156-1.707.156-1.707-.014.014.004.045-.01.06C44 31 43.614 31.8 42.854 32H31c.007-1.367 0-4 0-4" style="fill:url(#d);fill-opacity:1"/><path d="m13.004 14.54 6.772 3.924c.019-.013.62-1.024 1.33-2.254.71-1.227 1.736-2.987 2.269-3.906l.003-.002.972-1.682-3.299-5.713c-.558-.563-1.45-.591-2.022-.146-.36.289-.48.427-.8.959-.452.75-5.22 8.817-5.229 8.822" style="fill:url(#e);fill-opacity:1"/><path d="m38.361 20.115-6.611 4.002c.002.023.577 1.049 1.287 2.279.707 1.229 1.718 2.997 2.248 3.918v.004L36.256 32h6.597c.767-.202 1.237-.961 1.137-1.678-.07-.456-.13-.629-.43-1.172-.423-.767-5.199-9.03-5.199-9.04" style="fill:url(#f);fill-opacity:1"/><path d="M20.998 39.998 21 32s-6.112-.002-8.92 0l-3.298 5.945c-.209.765.214 1.552.885 1.824.43.167.61.202 1.23.213.875.018 10.097.013 10.105.018" style="fill:url(#g);fill-opacity:1"/><path d="M13.744 13.29 13 14.542l.004-.004 6.771 3.924c.011-.008.452-.766.745-1.262zm1.5 5.462L4.318 21.676s3.46 2.008 3.463 2.004l-.01.017 6.928 4 .01-.017c1.18.69 3.463 2 3.463 2zm16.871 5.144-.365.221c.002.023.577 1.05 1.287 2.28.707 1.228 1.718 2.996 2.248 3.917v.004l.97 1.682H31c.007-1.367 0-4 0-4l-5.773 5.773L36.01 40h2.222c.699-.065 1.218-.536 1.588-.986.08-.102.391-.625.711-1.198 0 0 3.168-5.557 3.313-5.828.161-.408.182-.862.176-1.22z" style="opacity:.2;fill:url(#h);fill-opacity:1;stroke:none;stroke-width:4;stroke-linecap:round;stroke-linejoin:round;stroke-miterlimit:4;stroke-dasharray:none;stroke-opacity:1"/></svg>