<svg xmlns="http://www.w3.org/2000/svg" viewBox="0 0 48 48"><linearGradient id="a" x1="4" x2="4" y1="3" y2="45" gradientUnits="userSpaceOnUse"><stop offset="0" stop-color="#2a2c2f"/><stop offset="1" stop-color="#536161"/></linearGradient><linearGradient id="b" x1="4" x2="4" y1="3" y2="45" gradientUnits="userSpaceOnUse"><stop offset="0" stop-color="#292c2f"/><stop offset="1" stop-opacity="0"/></linearGradient><path fill="url(#a)" d="M4 4v40h40V4z"/><path fill="url(#b)" d="m8 34 10 10h26V14l-4-4.25L37 11l-4 5h-3l-8-8v14H8l6 6 2 4 6 2z" opacity=".2"/><path d="M8 8v14h14V8zm19.75 0L26 9.75 31.25 15 26 20.25 27.75 22 33 16.75 38.25 22 40 20.25 34.75 15 40 9.75 38.25 8 33 13.25zM10 10h10v10H10zm4 16v6H8v2h6v6h2v-6h6v-2h-6v-6zm19 0a7 7 0 0 0-7 7 7 7 0 0 0 7 7 7 7 0 0 0 7-7 7 7 0 0 0-7-7m0 2a5 5 0 0 1 5 5 5 5 0 0 1-5 5 5 5 0 0 1-5-5 5 5 0 0 1 5-5" style="fill:#fff"/><path d="M4 43v1h40v-1z" style="opacity:.33;fill:#fff"/></svg>