<svg xmlns="http://www.w3.org/2000/svg" width="48" height="48"><rect width="41.276" height="42" x="-45" y="-45" rx="20.638" ry="21" style="opacity:.2;stroke-width:.730462" transform="scale(1 -1)rotate(90)"/><rect width="41.276" height="42" x="-44.276" y="-45" rx="20.638" ry="21" style="fill:#009d9d;fill-opacity:1" transform="scale(1 -1)rotate(90)"/><path d="M22.895 10.966v2.954a10.684 10.5 0 0 0-9.418 8.632h2.258A8.474 8.328 0 0 1 24 16.034a8.474 8.328 0 0 1 8.26 6.518h2.253a10.684 10.5 0 0 0-9.408-8.63v-2.956ZM24 18.206a6.263 6.155 0 0 0-6.263 6.156 6.263 6.155 0 0 0 .104 1.086h10.053A4.053 3.983 0 0 1 24 28.345a4.053 3.983 0 0 1-3.121-1.448h-2.58A6.263 6.155 0 0 0 24 30.517a6.263 6.155 0 0 0 6.263-6.155 6.263 6.155 0 0 0-.103-1.086H20.106A4.053 3.983 0 0 1 24 20.379a4.053 3.983 0 0 1 3.122 1.449H29.7a6.263 6.155 0 0 0-5.7-3.621m-10.513 7.966a10.684 10.5 0 0 0 9.408 8.63v2.957h2.21v-2.955a10.684 10.5 0 0 0 9.418-8.632h-2.258A8.474 8.328 0 0 1 24 32.69a8.474 8.328 0 0 1-8.259-6.518z" style="opacity:.2;stroke-width:.730462"/><path d="M22.895 10.241v2.955a10.684 10.5 0 0 0-9.418 8.632h2.258A8.474 8.328 0 0 1 24 15.31a8.474 8.328 0 0 1 8.26 6.518h2.253a10.684 10.5 0 0 0-9.408-8.63v-2.957zM24 17.483a6.263 6.155 0 0 0-6.263 6.155 6.263 6.155 0 0 0 .104 1.086h10.053A4.053 3.983 0 0 1 24 27.621a4.053 3.983 0 0 1-3.121-1.449h-2.58A6.263 6.155 0 0 0 24 29.793a6.263 6.155 0 0 0 6.263-6.155 6.263 6.155 0 0 0-.103-1.086H20.106A4.053 3.983 0 0 1 24 19.655a4.053 3.983 0 0 1 3.122 1.448H29.7a6.263 6.155 0 0 0-5.7-3.62m-10.513 7.965a10.684 10.5 0 0 0 9.408 8.63v2.956h2.21V34.08a10.684 10.5 0 0 0 9.418-8.632h-2.258A8.474 8.328 0 0 1 24 31.966a8.474 8.328 0 0 1-8.259-6.518z" style="fill:#fff;stroke-width:.730462"/><path d="M24 3C12.366 3 3 12.205 3 23.638c0 .121.007.241.009.362C3.205 12.736 12.489 3.724 24 3.724S44.795 12.736 44.991 24c.003-.121.01-.24.01-.362C45 12.205 35.633 3 24 3" style="opacity:.2;fill:#fff;stroke-width:.730462"/></svg>