<svg xmlns="http://www.w3.org/2000/svg" xmlns:xlink="http://www.w3.org/1999/xlink" width="48" height="48"><defs><linearGradient id="d"><stop offset="0" style="stop-color:#e14253;stop-opacity:1"/><stop offset="1" style="stop-color:#ed8895;stop-opacity:1"/></linearGradient><linearGradient xlink:href="#d" id="f" x1="36.771" x2="23.829" y1="43.737" y2="14.117" gradientTransform="translate(-1.231 -1.21)scale(1.05)" gradientUnits="userSpaceOnUse"/></defs><rect width="42" height="42" x="3" y="3" rx="21" style="fill:url(#f);fill-opacity:1;stroke-width:1.05"/><path d="M36.47 9.597c-.621-.003-1.795.12-3.113.314-.084.013-.161.04-.242.058-1.539.229-3.203.525-4.447.845q-.549.14-1.086.292c-.267.075-.512.161-.77.24q-.36.108-.71.22c-.154.051-.31.1-.46.152a41 41 0 0 0-3.22 1.22v-.007q-.082.037-.163.074c-.09.04-.185.075-.275.115-.131.058-.246.12-.373.179-6.68 3.062-11.314 7.615-13.141 13.115-.48 1.445-.783 3.176-.878 4.638-.008.043-.024.088-.027.13-.005.096.002.171-.002.265-.001.049-.008.104-.01.152l.01-.004c-.02.764.014 1.444.146 1.88.464 1.524 1.484 2.69 3.093 3.572.041.025.063.052.108.076q.698.37 1.545.672c1.375.49 3.377.878 5.438 1.098.089.015.154.04.257.05q.624.063 1.248.102c1.353.084 4.639-.05 5.721-.232 3.892-.655 7.041-2.408 9.026-5.027 1.453-1.917 2.36-4.52 1.778-5.1-.207-.207-.436-.126-.801.285-.777.875-2.293 1.851-3.676 2.428-.895.361-2.56.645-3.489.518l.271-.945.613-.829c.21-.012.744-.028.97-.05 1.72-.16 3.72-1.84 4.745-3.272 1.186-1.659 2.015-4.092 2.05-6.012.016-.857-.018-1.099-.175-1.256a.4.4 0 0 0-.119-.093c-.11-.046-.222.066-.57.463-1.751 1.945-4.386 3.871-6.494 5.012l-1.08-.672.372-.966a58 58 0 0 0 3.12-1.955q.064-.048.129-.097.003-.005.002-.009c2.975-2.124 4.795-5.82 5.19-10.58.065-.8.05-.962-.102-1.02-.073-.027-.213-.04-.409-.04z" style="opacity:.2;stroke-width:.526333"/><path d="M36.469 9.07c-.621-.002-1.794.122-3.111.316-1.594.233-2.688 1.6-3.981 1.933-10.485 2.693-17.588 7.296-20.005 14.568-.807 2.43-.517 5.157-.114 6.482.607 1.996 3.56 3.069 6.164 3.997 1.434.512.575 1.835 2.727 2.051q.626.063 1.248.102c1.353.084 4.64-.05 5.722-.232 3.893-.655 7.04-2.408 9.026-5.027 1.453-1.917 2.361-4.52 1.779-5.1-.208-.207-.439-.125-.803.286-.777.875-2.293 1.851-3.676 2.428-.895.361-2.243.644-3.172.517l.272-.944.612-.829q.315-.017.654-.049c1.72-.16 3.719-1.84 4.744-3.273 1.186-1.658 2.016-4.091 2.05-6.012.016-.857-.018-1.099-.175-1.256a.4.4 0 0 0-.12-.094c-.11-.045-.22.067-.568.464-1.751 1.945-4.386 3.87-6.494 5.011l-1.08-.672.373-.965a58 58 0 0 0 3.118-1.957c3.057-2.107 4.921-5.852 5.32-10.684.067-.8.051-.961-.1-1.02-.073-.027-.214-.04-.41-.04" style="fill:#d81b60;stroke-width:.526333"/><path d="M33.773 9.338c-1.696.234-3.687.584-5.106.948q-.549.141-1.085.293c-9.903 2.796-13.748 8.29-16.08 15.308-.808 2.43-1.808 5.802-1.405 7.127.475 1.563-.869 2.694.812 3.584q.698.37 1.545.672c1.575.561 3.964 1 6.33 1.193 5.228-3.843 9.032-8.789 11.627-14.736a23 23 0 0 1-1.164.682l-1.08-.672.373-.965a58 58 0 0 0 3.119-1.956q.064-.048.13-.097a36.8 36.8 0 0 0 1.984-11.381" style="fill:#fd5450;stroke-width:.526333"/><path d="M28.045 10.46a42 42 0 0 0-6.06 2.134c-6.888 3.061-8.299 7.173-10.16 12.777-.492 1.48-4.172 3.8-4.259 5.285-.056.954-.014 1.775.143 2.293.502 1.65 1.647 2.885 3.496 3.79a29.48 29.48 0 0 0 16.84-26.278" style="fill:#ff9e21;stroke-width:.526333"/><path d="M22.422 12.405c-7.12 3.06-12.052 7.76-13.953 13.482-.54 1.625-.871 3.631-.915 5.186a22.11 22.11 0 0 0 14.868-18.668" style="fill:#fdd835;stroke-width:.526333"/><path d="M21.227 19.071a8.42 8.42 0 0 0-8.421 8.422 8.42 8.42 0 0 0 8.421 8.421 8.42 8.42 0 0 0 8.421-8.421 8.42 8.42 0 0 0-8.421-8.422m0 1.58a6.84 6.84 0 0 1 6.842 6.842 6.84 6.84 0 0 1-6.842 6.842 6.84 6.84 0 0 1-6.842-6.842 6.84 6.84 0 0 1 6.842-6.843" style="opacity:.2;stroke-width:.526333"/><path d="M21.227 18.545a8.42 8.42 0 0 0-8.421 8.421 8.42 8.42 0 0 0 8.421 8.422 8.42 8.42 0 0 0 8.421-8.422 8.42 8.42 0 0 0-8.421-8.42m0 1.58a6.84 6.84 0 0 1 6.842 6.841 6.84 6.84 0 0 1-6.842 6.843 6.84 6.84 0 0 1-6.842-6.843 6.84 6.84 0 0 1 6.842-6.842" style="fill:#fff;stroke-width:.526333"/><path d="M18.743 23.282a.659.668 0 0 0-.674.667v7.087a.659.668 0 0 0 .988.578l3.026-1.772 3.026-1.771a.659.668 0 0 0 0-1.157l-3.026-1.771-3.026-1.772a.659.668 0 0 0-.314-.089" style="opacity:.2;stroke-width:.526333"/><path d="M18.743 22.755a.659.668 0 0 0-.674.667v7.087a.659.668 0 0 0 .988.578l3.026-1.772 3.026-1.772a.659.668 0 0 0 0-1.156l-3.026-1.772-3.026-1.771a.659.668 0 0 0-.314-.089" style="fill:#fff;stroke-width:.526333"/><path d="M36.47 9.07c-.622-.002-1.795.122-3.113.316a3 3 0 0 0-.304.06c-1.52.227-3.161.525-4.386.84q-.549.141-1.085.293c-.287.081-.553.172-.83.258q-.301.091-.599.186c-.177.059-.357.115-.53.175q-1.666.555-3.201 1.213l.002-.007q-.082.037-.163.074c-.09.04-.185.076-.275.116-.13.057-.244.117-.37.175-6.682 3.063-11.318 7.616-13.145 13.118-.481 1.446-.784 3.178-.878 4.641-.008.043-.024.086-.026.127-.021.356-.024.684-.017.995.004-.154.007-.305.017-.467.002-.041.018-.085.026-.128.094-1.463.397-3.195.877-4.641 1.828-5.501 6.464-10.055 13.146-13.117.126-.058.24-.119.37-.176q.137-.058.275-.115.081-.037.162-.074l-.002.007a41 41 0 0 1 3.202-1.213c.173-.06.353-.117.53-.175q.297-.095.598-.186c.278-.086.543-.177.831-.258q.537-.152 1.085-.293c1.225-.315 2.867-.613 4.386-.841q.149-.036.304-.06c1.318-.193 2.49-.318 3.112-.315.196.001.337.014.41.042.066.025.103.082.121.192.034-.522.007-.67-.12-.72-.074-.027-.215-.04-.411-.042zm-.246 9.862c-.094.03-.22.169-.482.466-1.442 1.601-3.479 3.181-5.33 4.33-.392.242-.782.475-1.165.682l-.914-.57-.165.425 1.08.672c.382-.207.772-.44 1.163-.682 1.852-1.149 3.89-2.729 5.331-4.33.348-.396.458-.509.569-.463a.4.4 0 0 1 .119.094c.116.116.164.282.176.706.014-.836-.02-1.078-.176-1.234a.4.4 0 0 0-.12-.093.12.12 0 0 0-.086-.004zm-.55 9.119c-.15.01-.325.138-.554.395-.777.874-2.292 1.852-3.675 2.429-.85.342-2.104.61-3.024.527l-.148.516c.929.127 2.277-.155 3.172-.516 1.383-.577 2.898-1.554 3.675-2.429.365-.41.596-.492.803-.286.08.08.13.201.155.35.044-.403.003-.719-.155-.877q-.114-.117-.249-.11" style="opacity:.2;fill:#fff;stroke-width:.526333"/></svg>