<svg xmlns="http://www.w3.org/2000/svg" xmlns:xlink="http://www.w3.org/1999/xlink" width="48" height="48"><defs><linearGradient id="c" x2="0" y1="543.8" y2="503.8" gradientUnits="userSpaceOnUse"><stop stop-color="#c6cdd1"/><stop offset="1" stop-color="#e0e5e7"/></linearGradient><linearGradient id="a" x2="0" y1="13" y2="33" gradientTransform="translate(384.57 499.8)" gradientUnits="userSpaceOnUse"><stop stop-color="#f67400"/><stop offset="1" stop-color="#fdbc4b"/></linearGradient><linearGradient xlink:href="#a" id="e" x2="0" y1="42" y2="6" gradientUnits="userSpaceOnUse"/><linearGradient id="d" x1="410.57" x2="428.57" y1="539.8" y2="523.8" gradientUnits="userSpaceOnUse"><stop stop-color="#f67400"/><stop offset="1" stop-color="#f67400" stop-opacity="0"/></linearGradient><linearGradient id="f" x1="402.57" x2="418.57" y1="520.8" y2="536.8" gradientUnits="userSpaceOnUse"><stop stop-color="#292c2f"/><stop offset="1" stop-opacity="0"/></linearGradient></defs><g stroke-opacity=".55" stroke-width="2.8" transform="translate(-384.57 -499.8)"><rect width="40" height="40" x="388.57" y="503.8" fill="url(#c)" rx="20"/><path fill="url(#a)" d="m408.57 512.8-9 9h5v11h8v-11h5z"/><path fill="gray" d="M408.57 541.8c9.972 0 18-8.03 18-18 0-9.972-8.03-18-18-18v2c8.864 0 16 7.136 16 16s-7.136 16-16 16z" opacity=".5"/><path fill="url(#d)" d="M408.57 505.8c-9.972 0-18 8.03-18 18 0 9.972 8.03 18 18 18 9.972 0 18-8.03 18-18 0-9.972-8.03-18-18-18m0 2c8.864 0 16 7.136 16 16s-7.136 16-16 16-16-7.136-16-16 7.136-16 16-16"/><path fill="url(#e)" d="M24 42v-2c-8.864 0-16-7.136-16-16S15.136 8 24 8V6C14.028 6 6 14.03 6 24c0 9.972 8.03 18 18 18" transform="translate(384.57 499.8)"/><path fill="#99a1a7" d="M388.58 523.3c-.004.167-.012.332-.012.5 0 11.08 8.92 20 20 20s20-8.92 20-20c0-.168-.008-.333-.012-.5a19.953 19.953 0 0 1-19.988 19.5 19.95 19.95 0 0 1-19.988-19.5"/></g><path fill="url(#f)" fill-rule="evenodd" d="M412.57 521.8v11h-8l10.06 10.06a19.95 19.95 0 0 0 12.467-11.533l-9.531-9.531z" opacity=".2" transform="translate(-384.57 -499.8)"/></svg>