<svg xmlns="http://www.w3.org/2000/svg" xmlns:xlink="http://www.w3.org/1999/xlink" width="48" height="48"><defs><linearGradient id="b"><stop offset="0" style="stop-color:#000;stop-opacity:1"/><stop offset="1" style="stop-color:#000;stop-opacity:0"/></linearGradient><linearGradient xlink:href="#a" id="g" x2="0" y1="539.798" y2="527.798" gradientTransform="matrix(1.33333 0 0 1.16667 -509.762 -595.764)" gradientUnits="userSpaceOnUse"/><linearGradient id="a"><stop style="stop-color:#42a603"/><stop offset="1" style="stop-color:#78da06"/></linearGradient><linearGradient xlink:href="#b" id="f" x1="5" x2="21" y1="11" y2="27" gradientTransform="matrix(1.25 0 0 1.28571 4 3.429)" gradientUnits="userSpaceOnUse"/><linearGradient xlink:href="#c" id="d" x2="0" y1="543.798" y2="502.655" gradientTransform="matrix(.83333 0 0 .81666 -316.476 -404.501)" gradientUnits="userSpaceOnUse"/><linearGradient id="c"><stop style="stop-color:#c6cdd1"/><stop offset="1" style="stop-color:#e0e5e7"/></linearGradient><linearGradient xlink:href="#b" id="e" x1="391.571" x2="406.571" y1="525.798" y2="540.798" gradientTransform="matrix(1.25 0 0 1.28571 -476.714 -659.739)" gradientUnits="userSpaceOnUse"/></defs><rect width="40" height="36" x="4" y="6" rx="0" style="fill:url(#d)"/><path d="m6 40 36-26 2 2v26H8Z" style="opacity:.2;fill:url(#e);fill-rule:evenodd"/><path d="M4 41h40v1H4z" style="fill:#99a1a7"/><path d="M4 6h40v5H4z" style="fill:#566069"/><path d="M4 11h40v1H4z" style="fill:#3daee9"/><path d="M6 14h36v26H6z" style="fill:#fff"/><rect width="3" height="3" x="39" y="7" rx="1.5" style="fill:#eff0f1"/><path d="m31 27-12 7 8 8h17v-2z" style="opacity:.2;fill:url(#f);fill-rule:evenodd"/><path d="M19 20v14l12-7z" style="fill:url(#g);fill-rule:evenodd"/></svg>