<svg xmlns="http://www.w3.org/2000/svg" xmlns:xlink="http://www.w3.org/1999/xlink" width="32" height="32"><defs><linearGradient xlink:href="#a" id="c" x2="17" y1="-1" y2="18" gradientUnits="userSpaceOnUse"/></defs><linearGradient id="a" x2="17" y1="-1" y2="18" gradientTransform="translate(40)" gradientUnits="userSpaceOnUse"><stop offset="0" stop-color="#fff"/><stop offset="1" stop-color="#fff" stop-opacity="0"/></linearGradient><linearGradient id="b" x1="9" x2="30" y1="9" y2="30" gradientUnits="userSpaceOnUse"><stop offset="0"/><stop offset="1" stop-opacity="0"/></linearGradient><rect width="28" height="28" x="2" y="2" rx="5" ry="5" style="fill:#2d3033"/><path d="M14.545 30H25a5 5 0 0 0 3.54-1.46A5 5 0 0 0 30 25v-7.828l-6.586-6.586L22 12H6l-.729.729L11 18.455V20H6l-.729.729z" style="fill:url(#b)"/><g transform="translate(-30)"><path fill="#3daee9" d="M36 19c-1.352-.02-1.352 2.02 0 2h6v-2z"/><circle cx="42" cy="20" r="2" fill="#fafafa"/><path fill="#fcfcfc" d="M42 19v2h14c1.352.02 1.352-2.02 0-2z" opacity=".2"/></g><g transform="translate(-30)"><path fill="#3daee9" d="M36 11c-1.352-.02-1.352 2.02 0 2h16v-2z"/><circle cx="52" cy="12" r="2" fill="#fafafa"/><path fill="#fcfcfc" d="M52 11v2h4c1.352.02 1.352-2.02 0-2z" opacity=".2"/></g><path d="M7 2a5 5 0 0 0-3.54 1.46 5 5 0 0 0-1.067 1.59c-.123.292-.126.633-.192.95H29.8c-.066-.317-.069-.658-.192-.95a5 5 0 0 0-2.658-2.657A5 5 0 0 0 25 2z" style="opacity:.3;vector-effect:none;fill:#fff;fill-opacity:1;fill-rule:nonzero;stroke:none;stroke-width:1;stroke-linecap:round;stroke-linejoin:round;stroke-miterlimit:4;stroke-dasharray:none;stroke-dashoffset:0;stroke-opacity:1;paint-order:stroke fill markers"/><path d="M7 30a5 5 0 0 1-3.54-1.46 5 5 0 0 1-1.067-1.59c-.123-.292-.126-.633-.192-.95H29.8c-.066.317-.069.658-.192.95a5 5 0 0 1-2.658 2.657A5 5 0 0 1 25 30Z" style="opacity:.3;vector-effect:none;fill:#000;fill-opacity:1;fill-rule:nonzero;stroke:none;stroke-width:1;stroke-linecap:round;stroke-linejoin:round;stroke-miterlimit:4;stroke-dasharray:none;stroke-dashoffset:0;stroke-opacity:1;paint-order:stroke fill markers"/><path d="M7 2a5 5 0 0 0-3.54 1.46A5 5 0 0 0 2 7v18a5 5 0 0 0 1.46 3.54A5 5 0 0 0 7 30h18a5 5 0 0 0 3.54-1.46A5 5 0 0 0 30 25V7a5 5 0 0 0-1.46-3.54A5 5 0 0 0 25 2Z" style="opacity:.27600002;fill:url(#c)"/></svg>