<svg xmlns="http://www.w3.org/2000/svg" xmlns:xlink="http://www.w3.org/1999/xlink" width="48" height="48"><defs><linearGradient id="c"><stop offset="0" style="stop-color:#000;stop-opacity:1"/><stop offset="1" style="stop-color:#000;stop-opacity:0"/></linearGradient><linearGradient id="b"><stop offset="0" style="stop-color:#fff;stop-opacity:1"/><stop offset="1" style="stop-color:#7cafec;stop-opacity:1"/></linearGradient><linearGradient xlink:href="#a" id="d" x1="417.634" x2="399.646" y1="540.799" y2="500.893" gradientTransform="matrix(1.05 0 0 1.04933 -405 -525.652)" gradientUnits="userSpaceOnUse"/><linearGradient id="a"><stop stop-color="#105be2" style="stop-color:#2579b0;stop-opacity:1"/><stop offset="1" stop-color="#26dbfc" style="stop-color:#7cbfec;stop-opacity:1"/></linearGradient><linearGradient xlink:href="#b" id="f" x1="19" x2="29" y1="12" y2="36" gradientTransform="matrix(1.05 0 0 1.04933 -1.2 -1.197)" gradientUnits="userSpaceOnUse"/><linearGradient xlink:href="#c" id="e" x1="20" x2="36" y1="16" y2="32" gradientTransform="matrix(1.05 0 0 1.04933 -1.2 -1.197)" gradientUnits="userSpaceOnUse"/></defs><rect width="42" height="41.973" x="3" y="3" rx="21" style="opacity:1;fill:url(#d);stroke-width:2.93909;stroke-opacity:.550265"/><path d="m20.493 12.274-8.746 11.362 2.3 9.707L25.71 45c10.31-.857 18.453-9.09 19.165-19.435l-11.587-11.58Z" style="opacity:.3;fill:url(#e);fill-opacity:1;stroke:none;stroke-width:2.09934;stroke-linecap:round;stroke-linejoin:round;stroke-miterlimit:4;stroke-dasharray:none;stroke-opacity:1"/><path d="M24 10.345c-7.546 0-13.65 6.101-13.65 13.642S16.454 37.628 24 37.628s13.65-6.1 13.65-13.641S31.546 10.345 24 10.345m-3.15 9.444v2.099h6.3v-2.099l3.75 2.099 3.6 2.099-3.6 2.098-3.75 2.099v-2.099h-6.3v2.099l-3.75-2.099-3.6-2.098 3.6-2.099z" style="fill:url(#f);fill-opacity:1;stroke-width:1.0497"/><path d="M3.012 23.462c-.004.175-.012.349-.012.525 0 11.626 9.366 20.986 21 20.986s21-9.36 21-20.986c0-.176-.008-.35-.012-.525A20.94 20.94 0 0 1 24 43.924 20.94 20.94 0 0 1 3.012 23.462" style="opacity:.15;fill:#000;fill-opacity:1;stroke-width:2.93909;stroke-opacity:.550265"/></svg>