<svg xmlns="http://www.w3.org/2000/svg" xmlns:xlink="http://www.w3.org/1999/xlink" width="48" height="48"><defs><linearGradient id="c"><stop offset="0" style="stop-color:#000;stop-opacity:1"/><stop offset="1" style="stop-color:#000;stop-opacity:0"/></linearGradient><linearGradient id="b"><stop offset="0" style="stop-color:#fff;stop-opacity:1"/><stop offset="1" style="stop-color:#7cafec;stop-opacity:1"/></linearGradient><linearGradient xlink:href="#a" id="d" x1="417.634" x2="399.646" y1="540.799" y2="500.893" gradientTransform="translate(-384.571 -499.798)" gradientUnits="userSpaceOnUse"/><linearGradient id="a"><stop stop-color="#105be2" style="stop-color:#2579b0;stop-opacity:1"/><stop offset="1" stop-color="#26dbfc" style="stop-color:#7cbfec;stop-opacity:1"/></linearGradient><linearGradient xlink:href="#b" id="f" x1="19" x2="29" y1="12" y2="36" gradientUnits="userSpaceOnUse"/><linearGradient xlink:href="#c" id="e" x1="20" x2="36" y1="16" y2="32" gradientUnits="userSpaceOnUse"/></defs><rect width="40" height="40" x="4" y="4" rx="20" style="opacity:1;fill:url(#d);stroke-width:2.79999995;stroke-opacity:.55026502"/><path d="m20.66 12.838-8.33 10.828 2.191 9.25 11.108 11.11A19.94 19.94 0 0 0 43.88 25.503L32.846 14.469z" style="opacity:.3;fill:url(#e);fill-opacity:1;stroke:none;stroke-width:2;stroke-linecap:round;stroke-linejoin:round;stroke-miterlimit:4;stroke-dasharray:none;stroke-opacity:1"/><path d="M24 11c-7.187 0-13 5.814-13 13s5.813 13 13 13 13-5.814 13-13-5.813-13-13-13m-3 9v2h6v-2l3.572 2L34 24l-3.428 2L27 28v-2h-6v2l-3.572-2L14 24l3.428-2z" style="fill:url(#f);fill-opacity:1"/><path d="M4.012 23.5c-.004.167-.012.332-.012.5 0 11.08 8.92 20 20 20s20-8.92 20-20c0-.168-.008-.333-.012-.5A19.95 19.95 0 0 1 24 43 19.95 19.95 0 0 1 4.012 23.5" style="opacity:.15;fill:#000;stroke-width:2.79999995;stroke-opacity:.55026502;fill-opacity:1"/></svg>