<svg xmlns="http://www.w3.org/2000/svg" xmlns:xlink="http://www.w3.org/1999/xlink" width="48" height="48"><defs><linearGradient id="b" x2="0" y1="44" y2="4" gradientTransform="matrix(-1 0 0 1 -12 0)" gradientUnits="userSpaceOnUse"><stop stop-color="#197cf1"/><stop offset="1" stop-color="#20bcfa"/></linearGradient><linearGradient id="d" x2="0" y1="515.8" y2="509.8" gradientTransform="translate(-360.638 -504.732)" gradientUnits="userSpaceOnUse"><stop stop-color="#c61423"/><stop offset="1" stop-color="#dc2b41"/></linearGradient><linearGradient id="a" x1="388.57" x2="418.57" y1="503.8" y2="533.8" gradientTransform="translate(-359.57 -505.8)" gradientUnits="userSpaceOnUse"><stop stop-color="#292c2f"/><stop offset="1" stop-opacity="0"/></linearGradient><linearGradient id="f" x2="0" y1="9" y2="5" gradientTransform="translate(-1.068 1.068)" gradientUnits="userSpaceOnUse"><stop stop-color="#f7aeb4"/><stop offset="1" stop-color="#f8d4d9"/></linearGradient><linearGradient xlink:href="#a" id="e" x1="422.85" x2="428.78" y1="504.87" y2="510.8" gradientTransform="translate(-385.638 -498.732)" gradientUnits="userSpaceOnUse"/><linearGradient xlink:href="#b" id="c" x2="0" y1="44" y2="4" gradientTransform="matrix(-1 0 0 1 48 0)" gradientUnits="userSpaceOnUse"/></defs><path d="M12.953 7c-1.24 0-2.42.25-3.492.701a8.9 8.9 0 0 0-2.844 1.916 8.9 8.9 0 0 0-1.916 2.844A9 9 0 0 0 4 15.953v9.094c0 1.24.25 2.42.701 3.492a8.9 8.9 0 0 0 1.916 2.844 8.9 8.9 0 0 0 2.844 1.916 9 9 0 0 0 3.492.701H13v10l10-10h9.047c1.24 0 2.42-.25 3.492-.701a8.9 8.9 0 0 0 2.844-1.916 8.9 8.9 0 0 0 1.916-2.844A9 9 0 0 0 41 25.047v-9.094c0-1.24-.25-2.42-.701-3.492a8.9 8.9 0 0 0-1.916-2.844 8.9 8.9 0 0 0-2.844-1.916A9 9 0 0 0 32.047 7Z" style="fill:url(#c);fill-rule:evenodd"/><circle cx="39.932" cy="8.068" r="3" style="fill:url(#d)"/><path d="m41.932 8.068-1 .33-2 .67-.35.465 1.529 1.529a3 3 0 0 0 2.69-2.125z" style="opacity:.2;fill:url(#e);fill-rule:evenodd"/><path d="M39.932 6.068c-.277 0-.5.223-.5.5v.293l-.207-.207a.5.5 0 0 0-.707 0 .5.5 0 0 0 0 .707l.207.207h-.293a.5.5 0 1 0 0 1h.293l-.207.207a.5.5 0 0 0 0 .707.5.5 0 0 0 .707 0l.207-.207v.293a.5.5 0 1 0 1 0v-.293l.207.207a.5.5 0 0 0 .707 0 .5.5 0 0 0 0-.707l-.207-.207h.293a.5.5 0 1 0 0-1h-.293l.207-.207a.5.5 0 0 0 0-.707.5.5 0 0 0-.707 0l-.207.207v-.293c0-.277-.223-.5-.5-.5" style="fill:url(#f)"/></svg>