<svg xmlns="http://www.w3.org/2000/svg" xmlns:xlink="http://www.w3.org/1999/xlink" width="48" height="48"><defs><linearGradient xlink:href="#b" id="e" x1="8.877" x2="9.751" y1="286.763" y2="282.656" gradientTransform="matrix(2.63892 0 0 2.63891 1.738 -737.337)" gradientUnits="userSpaceOnUse"/><linearGradient id="d"><stop offset="0" style="stop-color:#3b3e4a;stop-opacity:1"/><stop offset="1" style="stop-color:#565a6c;stop-opacity:1"/></linearGradient><linearGradient xlink:href="#c" id="g" x1="6.115" x2="15.922" y1="294.709" y2="287.338" gradientTransform="matrix(2.63892 0 0 2.63891 2.443 -737.601)" gradientUnits="userSpaceOnUse"/><linearGradient id="c"><stop offset="0" style="stop-color:#777c92;stop-opacity:1"/><stop offset="1" style="stop-color:#82879b;stop-opacity:1"/></linearGradient><linearGradient xlink:href="#b" id="i" x1="23.359" x2="6.061" y1="25.08" y2="40.277" gradientTransform="matrix(.69821 0 0 .69821 1.738 1.735)" gradientUnits="userSpaceOnUse"/><linearGradient id="b"><stop offset="0" style="stop-color:#6b7186;stop-opacity:1"/><stop offset="1" style="stop-color:#82879b;stop-opacity:1"/></linearGradient><linearGradient xlink:href="#d" id="j" x1="8.877" x2="9.751" y1="286.763" y2="282.656" gradientTransform="matrix(3.70803 0 0 3.70603 -7.164 -1045.394)" gradientUnits="userSpaceOnUse"/><filter id="f" width="1.152" height="1.123" x="-.076" y="-.062" style="color-interpolation-filters:sRGB"><feGaussianBlur stdDeviation=".274"/></filter><filter id="h" width="1.494" height="1.348" x="-.247" y="-.174" style="color-interpolation-filters:sRGB"><feGaussianBlur stdDeviation=".647"/></filter></defs><circle cx="24.277" cy="24.277" r="20.398" style="fill:url(#e);fill-opacity:1;stroke:none;stroke-width:2.15748;stroke-linecap:round;stroke-miterlimit:4;stroke-dasharray:none;stroke-dashoffset:0;stroke-opacity:1"/><path d="m11.826 281.832-1.483-.066c.633.88 1.315 3.462 1.43 4.585.309 3.012-.579 4.697-2.257 5.17-.84.237-1.707.127-2.444-.384s-1.361-1.438-1.64-2.91l-.786.148c.31 1.629 1.034 2.77 1.971 3.42s2.07.793 3.115.498c2.09-.59 3.847-2.9 3.506-6.223-.129-1.258-.606-3.12-1.412-4.238" style="color:#000;font-style:normal;font-variant:normal;font-weight:400;font-stretch:normal;font-size:medium;line-height:normal;font-family:sans-serif;font-variant-ligatures:normal;font-variant-position:normal;font-variant-caps:normal;font-variant-numeric:normal;font-variant-alternates:normal;font-feature-settings:normal;text-indent:0;text-align:start;text-decoration:none;text-decoration-line:none;text-decoration-style:solid;text-decoration-color:#000;letter-spacing:normal;word-spacing:normal;text-transform:none;writing-mode:lr-tb;direction:ltr;text-orientation:mixed;dominant-baseline:auto;baseline-shift:baseline;text-anchor:start;white-space:normal;shape-padding:0;clip-rule:nonzero;display:inline;overflow:visible;visibility:visible;opacity:.123;isolation:auto;mix-blend-mode:normal;color-interpolation:sRGB;color-interpolation-filters:linearRGB;solid-color:#000;solid-opacity:1;vector-effect:none;fill:#000;fill-opacity:.652174;fill-rule:nonzero;stroke:none;stroke-width:.8;stroke-linecap:butt;stroke-linejoin:miter;stroke-miterlimit:4;stroke-dasharray:none;stroke-dashoffset:0;stroke-opacity:1;filter:url(#f);color-rendering:auto;image-rendering:auto;shape-rendering:auto;text-rendering:auto;enable-background:accumulate" transform="matrix(2.63892 0 0 2.63891 1.738 -737.336)"/><path d="m32.135 4.936-.334.05c3.535 4.917 5.135 11.52 4.732 16.604-.654 8.239-9.491 15.224-18.485 8.873l-3.013-6.998c-2.366 8.197 1.227 17.105 12.253 20.79A20.4 20.4 0 0 0 45.38 24.012 20.4 20.4 0 0 0 32.135 4.936" style="fill:url(#g);fill-opacity:1;stroke:none;stroke-width:.698219px;stroke-linecap:butt;stroke-linejoin:miter;stroke-opacity:1"/><path d="m4.488 287.409 1.026 1.683c.853 1.553 1.069 3.28 2.4 4.673l2.464 2.166c-1.14.777-1.885.22-3.173.266l-3.118-3.993z" style="opacity:.249;fill:#000;fill-opacity:.652174;stroke:none;stroke-width:.265;stroke-linecap:butt;stroke-linejoin:miter;stroke-miterlimit:4;stroke-dasharray:none;stroke-opacity:1;filter:url(#h)" transform="matrix(2.63892 0 0 2.63891 1.738 -737.336)"/><path d="M33.212 7.012c1.899 2.637 3.21 7.53 3.531 10.672 1.712 16.717-18.605 22.15-21.708 5.78" style="fill:none;stroke:#fff;stroke-width:.395845;stroke-linecap:butt;stroke-linejoin:miter;stroke-miterlimit:4;stroke-dasharray:none;stroke-opacity:.195652"/><path d="M19.427 12.923c-6.503.056-11.87 4.733-15.407 9.055a20 20 0 0 0-.141 2.3 20.4 20.4 0 0 0 20.398 20.398 20.4 20.4 0 0 0 3.305-.279l.022-.195-.316.052C16.26 40.57 12.669 31.662 15.035 23.464l3.012 7c3.89 2.745 7.748 2.995 10.93 1.731l1.678-14.691c-3.991-3.333-7.769-4.61-11.228-4.58" style="fill:url(#i);fill-opacity:1;stroke:none;stroke-width:.69822px;stroke-linecap:butt;stroke-linejoin:miter;stroke-opacity:1"/><path d="M15.64 21.921c-5.344 12.593 4.457 19.916 10.348 22.443" style="fill:none;stroke:#fff;stroke-width:.395845;stroke-linecap:butt;stroke-linejoin:miter;stroke-miterlimit:4;stroke-dasharray:none;stroke-opacity:.0923913"/><path d="M5.042 21.048c6.112-6.675 14.341-11.353 24-4.488" style="fill:none;stroke:#fff;stroke-width:.395845;stroke-linecap:butt;stroke-linejoin:miter;stroke-miterlimit:4;stroke-dasharray:none;stroke-opacity:.206522"/><circle cx="24.277" cy="24.277" r="20.398" style="fill:none;fill-opacity:1;stroke:#7680ac;stroke-width:2.15748;stroke-linecap:round;stroke-miterlimit:4;stroke-dasharray:none;stroke-dashoffset:0;stroke-opacity:1"/><path d="M24.507 11.2a13.007 13 0 0 0-13.007 13 13.007 13 0 0 0 13.007 13 13.007 13 0 0 0 13.007-13 13.007 13 0 0 0-13.007-13" style="fill:url(#j);fill-opacity:1;stroke:none;stroke-width:3.0307;stroke-linecap:round;stroke-miterlimit:4;stroke-dasharray:none;stroke-dashoffset:0;stroke-opacity:1"/><path d="M24.507 11.2a13.007 13 0 0 0-13.007 13 13.007 13 0 0 0 13.007 13 13.007 13 0 0 0 13.007-13 13.007 13 0 0 0-13.007-13m-6.247 5.678 7.996 7.274-7.996 7.274-1.745-1.917 5.888-5.357-5.888-5.357zm7.676 12.045H32.5v2.597h-6.563z" style="fill:#f5f5f5;fill-opacity:.956522;stroke:none;stroke-width:.370705;stroke-linecap:round;stroke-miterlimit:4;stroke-dasharray:none;stroke-dashoffset:0;stroke-opacity:1"/><path d="M24.507 11.495c-7.02 0-12.711 5.689-12.711 12.705s5.69 12.704 12.711 12.705c7.02 0 12.711-5.689 12.711-12.705s-5.69-12.704-12.711-12.705z" style="fill:none;fill-opacity:.956522;stroke:#e0eff5;stroke-width:.296564;stroke-linecap:round;stroke-miterlimit:4;stroke-dasharray:none;stroke-dashoffset:0;stroke-opacity:1"/></svg>