<svg xmlns="http://www.w3.org/2000/svg" xmlns:xlink="http://www.w3.org/1999/xlink" width="48" height="48"><linearGradient id="b" x1="0" x2="24" y1="0" y2="48" gradientUnits="userSpaceOnUse"><stop offset="0" stop-color="#1a2530"/><stop offset=".333" stop-color="#2c3e50"/><stop offset=".458" stop-color="#34495e"/><stop offset=".833" stop-color="#8e44ad"/><stop offset="1" stop-color="#9b59b6"/></linearGradient><linearGradient id="c" x1="11" x2="6" y1="4" y2="17" gradientUnits="userSpaceOnUse"><stop offset="0" stop-color="#194d6f"/><stop offset=".231" stop-color="#115c92"/><stop offset="1" stop-color="#9b59b6"/></linearGradient><radialGradient id="e" cx="0" cy="0" r="1" gradientTransform="matrix(5 0 0 8 8 13)" gradientUnits="userSpaceOnUse"><stop offset="0" stop-color="#0c3d61"/><stop offset="1" stop-color="#0c3d61" stop-opacity=".149"/></radialGradient><linearGradient id="a"><stop offset="0" stop-color="#fdbc4b"/><stop offset="1" stop-color="#fdbc4b" stop-opacity="0"/></linearGradient><linearGradient xlink:href="#a" id="f" x1="10" x2="7" y1="19" y2="11" gradientUnits="userSpaceOnUse"/><linearGradient id="g" x1="5" x2="15" y1="10" y2="22" gradientUnits="userSpaceOnUse"><stop offset="0" stop-color="#3daee9"/><stop offset=".5" stop-color="#177ac2"/><stop offset="1" stop-color="#9b59b6"/></linearGradient><linearGradient xlink:href="#a" id="h" x1="10.131" x2="20.869" y1="14.505" y2="14.505" gradientUnits="userSpaceOnUse"/><radialGradient id="i" cx="0" cy="0" r="1" gradientTransform="matrix(29.00002 30 -16.78492 16.22544 15 14)" gradientUnits="userSpaceOnUse"><stop offset="0" stop-color="#fdbc4b" stop-opacity=".851"/><stop offset=".3" stop-color="#fdbc4b" stop-opacity=".349"/><stop offset=".617" stop-color="#2ecc71" stop-opacity=".118"/><stop offset="1" stop-color="#3daee9" stop-opacity=".05"/></radialGradient><linearGradient id="j" x1="8" x2="8" y1="4" y2="14" gradientUnits="userSpaceOnUse"><stop offset="0" stop-color="#318bba"/><stop offset=".276" stop-color="#177ac2"/><stop offset="1" stop-color="#9b59b6"/></linearGradient><radialGradient xlink:href="#a" id="k" cx="0" cy="0" r="1" gradientTransform="matrix(24 0 0 21 32 44)" gradientUnits="userSpaceOnUse"/><radialGradient id="l" cx="0" cy="0" r="1" gradientTransform="matrix(16 27.99997 -27.78377 15.87645 14 16)" gradientUnits="userSpaceOnUse"><stop offset="0" stop-opacity=".251"/><stop offset=".396" stop-opacity=".15"/><stop offset="1" stop-opacity=".05"/></radialGradient><linearGradient id="m" x1="46" x2="32" y1="50" y2="20" gradientUnits="userSpaceOnUse"><stop offset="0" stop-color="#9b59b6"/><stop offset="1" stop-color="#9b59b6" stop-opacity="0"/></linearGradient><linearGradient id="n" x1="28" x2="30" y1="23" y2="31" gradientUnits="userSpaceOnUse"><stop offset="0" stop-color="#11d116"/><stop offset="1" stop-color="#11d116" stop-opacity="0"/></linearGradient><path fill="url(#b)" d="M40 4H8a4 4 0 0 0-4 4v32a4 4 0 0 0 4 4h32a4 4 0 0 0 4-4V8a4 4 0 0 0-4-4"/><path fill="#194d6f" d="M14 4v7.438c0 .311.223.562.5.562s.5-.25.5-.562V4z"/><path fill="url(#c)" d="M10.715 6.01a4 4 0 0 0-2.543 6.818L11 15.656 18.656 12l-4.828-4.828a4 4 0 0 0-3.113-1.162"/><path fill="url(#e)" d="M12 7c-1.219.031-2 .33-2.828 1.172-.802 1.07-1.16 1.979-1.172 3.14 0 .658.446 1.188 1 1.188a.9.9 0 0 0 .4-.1l.014.014v-.021c.346-.187.586-.599.586-1.08 0-.94.163-1.602.59-2.125C11.34 8.438 12 8 13 8c2 0 2.492.836 3.242 1.586l-1.414-1.414A4 4 0 0 0 12 7z"/><path fill="url(#f)" d="M10.715 6.01a4 4 0 0 0-2.543 6.818L11 15.656 18.656 12l-4.828-4.828a4 4 0 0 0-3.113-1.162" opacity=".35"/><path fill="url(#g)" d="M19.87 9.54a1 1 0 0 0-.104.007L14 10.625A3.01 3.01 0 0 0 11.508 13h-.016l-1.334 5.246a1 1 0 0 0 .973 1.225c.066-.002.13-.004.195-.016l5.74-1.434a3.02 3.02 0 0 0 2.061-2.1l1.71-5.14q.032-.119.032-.242a1 1 0 0 0-1-1"/><path fill="url(#h)" d="M19.87 9.54a1 1 0 0 0-.104.007L14 10.625A3.01 3.01 0 0 0 11.508 13h-.016l-1.334 5.246a1 1 0 0 0 .973 1.225c.066-.002.13-.004.195-.016l5.74-1.434a3.02 3.02 0 0 0 2.061-2.1l1.71-5.14q.032-.119.032-.242a1 1 0 0 0-1-1" opacity=".5"/><path fill="#2c3e50" d="M14.68 16.75c1.242 0 2.652-1.007 3.15-2.25.496-1.243-.108-2.25-1.35-2.25-1.244 0-2.654 1.007-3.15 2.25-.498 1.243.107 2.25 1.35 2.25" opacity=".5"/><path fill="#2c3e50" d="M14.68 16.75c1.242 0 2.652-1.007 3.15-2.25.496-1.243-.108-2.25-1.35-2.25-1.244 0-2.654 1.007-3.15 2.25-.498 1.243.107 2.25 1.35 2.25" opacity=".5"/><path fill="url(#i)" d="M18.984 12.186q-1.285.005-2.566.066v.002c-1.063.032-2.249.746-2.93 1.885-2.945 6.434-4.48 14.1-4.504 22.047.004 2.643.183 5.26.526 7.814H40a4 4 0 0 0 4-4V18.127c-6.684-3.697-15.433-5.941-25.016-5.941"/><path fill="url(#j)" d="M8 4v7.438c0 .311.223.562.5.562s.5-.25.5-.562V4z"/><path fill="url(#k)" d="M40 4H8a4 4 0 0 0-4 4v32a4 4 0 0 0 4 4h32a4 4 0 0 0 4-4V8a4 4 0 0 0-4-4" opacity=".3"/><path fill="url(#l)" d="m13.5 23-.7 2.6 4.2 4.199v3.846L15 35l9 9h16c2.216 0 4-1.784 4-4V26l-3-3-4.268.518 1.133 1.132-.8 1.295-2.428-2.427-4.637.22 3.82 3.82.746 1.206-1.644 2.658L29.5 28h-2l-5-5z"/><path d="m13.5 23-.7 2.6 1.415 1.414h1.049l.54-1.35H17v7.98L15 35l1.414 1.414h6v-1L21 34a6 6 0 0 1-.586-.033v-8.303h1.8l1.35 1.35h1.05l-.7-2.6L22.5 23zm16.87 0-.37.738 1.414 1.414q.575.128 1.125.338l2.027 3.274-3.006 4.855L30.103 35l1.414 1.414h3.75l.517-.518-1.156-1.156 1.82-2.94 1.371 2.216-.937.984 1.414 1.414h3.75l.37-.738L41 34.262a8 8 0 0 1-.879-.248l-2.146-3.467 2.918-4.719a8 8 0 0 1 1.89-.676l-.369-.738L41 23l-4.268.518 1.133 1.132-1.77 2.862-1.335-2.157q.658-.175 1.29-.423l-1.413-1.414zm-.87 5-8.203.754L23 30.457v8.152L21.44 40l1.413 1.414h8.657c.119-1.028.37-2.036.748-3L30.844 37h-1.078q-.474.896-.791 1.86a12 12 0 0 0-1.471-.106l-.004-.004h-1.086v-3.086l1 .002q.236.008.451.086l.912.912h.637v-3.25L28 32h-.541c-.17.48-.567.832-1.045.953v-2.289h2v-.004q.383-.004.764-.033l1.386 1.387h1.05l-.7-2.6z" opacity=".08"/><path fill="#fcfcfc" d="m13.5 23-.7 2.6h1.05l.54-1.35H17v9.395A6 6 0 0 1 15 34v1h6v-1a6 6 0 0 1-2-.355V24.25h2.61l.54 1.35h1.05l-.7-2.6zm16.87 0-.37.738a8 8 0 0 1 1.865.662l2.701 4.364-3.006 4.855a8 8 0 0 1-1.828.643l.37.738h3.75l.517-.518a12 12 0 0 0-1.566-.496l2.5-4.033 2.515 4.063q-.742.187-1.455.466l.518.518h3.75l.369-.738a8 8 0 0 1-1.594-.532l-2.845-4.597 2.918-4.719a8 8 0 0 1 1.89-.676L41 23h-3.75l-.518.518q.75.293 1.532.486l-2.438 3.943-2.48-4.006q.657-.175 1.29-.423L34.12 23zm-8.93 5-.143.754a3 3 0 0 1 1.703.644v9.211a3 3 0 0 1-1.703.637l.142.754h8.657c.119-1.028.37-2.036.748-3h-1.078q-.474.896-.791 1.86-.734-.099-1.475-.106v-.004H25v-4.5l1 .002c.615.02 1.157.415 1.363.998H28V32h-.541a1.5 1.5 0 0 1-1.408 1H25v-3.75h2v-.004q.825-.007 1.64-.129l.51 1.483h1.05l-.7-2.6z"/><path fill="url(#m)" d="m13.5 23-.7 2.6h1.05l.54-1.35H17v9.395A6 6 0 0 1 15 34v1h6v-1a6 6 0 0 1-2-.355V24.25h2.61l.54 1.35h1.05l-.7-2.6zm16.87 0-.37.738a8 8 0 0 1 1.865.662l2.701 4.364-3.006 4.855a8 8 0 0 1-1.828.643l.37.738h3.75l.517-.518a12 12 0 0 0-1.566-.496l2.5-4.033 2.515 4.063q-.742.187-1.455.466l.518.518h3.75l.369-.738a8 8 0 0 1-1.594-.532l-2.845-4.597 2.918-4.719a8 8 0 0 1 1.89-.676L41 23h-3.75l-.518.518q.75.293 1.532.486l-2.438 3.943-2.48-4.006q.657-.175 1.29-.423L34.12 23zm-8.93 5-.143.754a3 3 0 0 1 1.703.644v9.211a3 3 0 0 1-1.703.637l.142.754h8.657c.119-1.028.37-2.036.748-3h-1.078q-.474.896-.791 1.86-.734-.099-1.475-.106v-.004H25v-4.5l1 .002c.615.02 1.157.415 1.363.998H28V32h-.541a1.5 1.5 0 0 1-1.408 1H25v-3.75h2v-.004q.825-.007 1.64-.129l.51 1.483h1.05l-.7-2.6z" opacity=".4"/><path fill="url(#n)" d="m13.5 23-.7 2.6h1.05l.54-1.35H17v9.395A6 6 0 0 1 15 34v1h6v-1a6 6 0 0 1-2-.355V24.25h2.61l.54 1.35h1.05l-.7-2.6zm16.87 0-.37.738a8 8 0 0 1 1.865.662l2.701 4.364-3.006 4.855a8 8 0 0 1-1.828.643l.37.738h3.75l.517-.518a12 12 0 0 0-1.566-.496l2.5-4.033 2.515 4.063q-.742.187-1.455.466l.518.518h3.75l.369-.738a8 8 0 0 1-1.594-.532l-2.845-4.597 2.918-4.719a8 8 0 0 1 1.89-.676L41 23h-3.75l-.518.518q.75.293 1.532.486l-2.438 3.943-2.48-4.006q.657-.175 1.29-.423L34.12 23zm-8.93 5-.143.754a3 3 0 0 1 1.703.644v9.211a3 3 0 0 1-1.703.637l.142.754h8.657c.119-1.028.37-2.036.748-3h-1.078q-.474.896-.791 1.86-.734-.099-1.475-.106v-.004H25v-4.5l1 .002c.615.02 1.157.415 1.363.998H28V32h-.541a1.5 1.5 0 0 1-1.408 1H25v-3.75h2v-.004q.825-.007 1.64-.129l.51 1.483h1.05l-.7-2.6z" opacity=".05"/><path fill="#fcfcfc" d="m33.865 10-1.107 2H31v1h1v2.436L34.455 11H38v-1zM27 12v1h3v-1zm10 1c-.826 0-2 .518-2 2.5 0 1.537.972 2.469 2 2.5.705 0 1.48-.257 1.835-.806l-.773-.512c-.346.372-.74.38-1.03.38A1.044 1.044 0 0 1 36.014 16L39 15.85V15c0-1.108-.892-2-2-2m-10 1v1h3v-1zm9.996-.092c.77-.021 1.039.49 1.064 1.092l-2.095-.003c.03-.524.223-1.068 1.03-1.09M29 16v1h1v2h1v-2h1v2h1v-2h1v-1z" opacity=".15"/><path d="M4 39v1c0 2.216 1.784 4 4 4h32c2.216 0 4-1.784 4-4v-1c0 2.216-1.784 4-4 4H8c-2.216 0-4-1.784-4-4" opacity=".12"/><path fill="#fff" d="M4 9V8c0-2.216 1.784-4 4-4h32c2.216 0 4 1.784 4 4v1c0-2.216-1.784-4-4-4H8C5.784 5 4 6.784 4 9" opacity=".12"/><path fill="#000018" d="m16.225 9.568-2.975.557a3.01 3.01 0 0 0-2.492 2.375h-.016l-.588 2.31.7.7.638-2.51h.016A3.01 3.01 0 0 1 14 10.625l2.764-.518z" opacity=".03"/><path fill="#000016" d="m16.498 9.842-2.848.533a3.01 3.01 0 0 0-2.492 2.375h-.015l-.618 2.432.329.328.638-2.51h.016A3.01 3.01 0 0 1 14 10.625l2.764-.518z" opacity=".03"/></svg>