<svg xmlns="http://www.w3.org/2000/svg" width="750" height="750" fill="none"><path fill="url(#a)" d="M315.422 163.218h.06c21.812-76.256 116.863-113.48 213.726-113.48 66.934 0 127.02 21.19 168.211 54.83a247.2 247.2 0 0 0-72.01 14.312c33.283 12.37 61.874 31.403 83.064 54.948a256 256 0 0 0-48.415-3.662 344.8 344.8 0 0 1 61.045 196.437c0 191.31-155.088 346.396-346.398 346.396C186.345 713 28.31 555.29 28.31 366.603c0-29.8 3.958-60.57 11.648-89.43 2.02-6.057 4.83-11.867 8.561-13.994 4.672-2.663 8.927 5.275 9.61 7.858a317.3 317.3 0 0 0 20.359 55.146c-.743-39.549 16.152-75.574 39.39-106.73 15.499-20.774 29.869-40.023 36.5-95.575.445-3.732 3.979-6.414 7.551-5.246 50.436 16.508 77.395 100.495 73.209 170.724 27.86 3.989 27.731-25.119 27.731-25.119-8.907-27.375-2.969-78.255 52.455-101.019z" style="fill:url(#a);stroke-width:.989705"/><path fill="url(#b)" d="M709.769 278.391c8.422 190.518-148.199 354.78-339.182 354.78-178.79 0-325.295-138.193-338.548-313.588a366 366 0 0 0-3.72 49.584C29.673 556.835 187.322 713 374.713 713c191.31 0 346.397-155.087 346.397-346.396 0-30.483-3.95-60.046-11.342-88.213" opacity=".9" style="fill:url(#b);stroke-width:.989705"/><path fill="url(#c)" d="M366.263 188.466c-3.731-6.602-20.962-16.37-28.494-18.072 28.504-91.3 173.714-119.329 262.59-103.177 36.985 6.73 83.046 26.88 97.06 37.352-41.192-33.64-101.287-54.83-168.211-54.83-96.863 0-191.914 37.223-213.727 113.48h-.158c-55.424 22.763-61.362 73.663-52.455 101.028 8.551-32.65 49.238-72.773 103.395-75.781" style="mix-blend-mode:screen;fill:url(#c);stroke-width:.989705"/><path fill="url(#d)" d="M466.926 125.41c-77.81 15.311-103.236 20.32-129.275 45.072 29.245-77.425 103.899-93.121 192.853-57.829a6313 6313 0 0 1-63.578 12.768z" style="fill:url(#d);stroke-width:.989705"/><path fill="url(#e)" d="M47.113 266.574c-21.26 87.035-4.83 189.33 91.744 275.178-28.75-31.443-63.854-147.536 13.609-230.473 5.216-5.592 14.192-1.484 14.48 6.156 6.383 172.367 145.466 277.642 305.818 257.957-49.683-2.791-213.994-60.343-91.765-83.106 63.885-11.906 164.053-30.562 164.053-120.447 0-145.704-112.658-188.301-180.977-181.967-46.754 4.335-88.371 34.006-101.178 74.357 4.919 15.904-14.687 27.038-27.761 25.168 4.196-70.22-22.763-154.256-73.209-170.764-3.562-1.168-7.106 1.514-7.551 5.246-6.631 55.552-21.001 74.801-36.49 95.575-23.248 31.166-40.142 67.181-39.4 106.73a317.3 317.3 0 0 1-20.358-55.146c-.564-2.138-3.662-8.106-7.403-8.383-2.029-.149-3.107 1.83-3.612 3.92" style="fill:url(#e);stroke-width:.989705"/><path fill="url(#f)" d="M338.076 501.103C432.138 577.48 621.3 520.215 621.3 334.516c-76.366 115.756-173.634 195.606-283.214 166.587z" style="mix-blend-mode:screen;fill:url(#f);stroke-width:.989705"/><path fill="url(#g)" d="M152.467 311.28a7.83 7.83 0 0 1 6.908-2.535c-69.338 84.57-13.41 233.096 24.971 269.586 2.148 6.077-36.412-25.524-41.727-32.917-29.196-24.773-71.04-147.526 9.848-234.135" style="mix-blend-mode:screen;fill:url(#g);stroke-width:.989705"/><path fill="url(#h)" d="M374.705 508.1c94.081 0 170.358-62.231 170.358-139.002s-76.277-139.004-170.358-139.004c-80.265 0-170.397 52.216-170.358 141.033.04 137.242 145.032 216.2 268.626 204.245-9.284-1.079-67.201-4.157-106.344-48.436-3.533-3.989-9.66-10.956-6.878-15.48 2.77-4.522 10.411-3.364 14.944-3.364z" style="fill:url(#h);stroke-width:.989705"/><path fill="#fff" d="m526.506 305.935-134.64 128.84c-11.945 8.491-24.663 9.105-37.212 1.405L222.597 306.41a137 137 0 0 1 12.669-17.201l13.855 12.965c34.68 32.502 62.718 58.759 102.237 92.488 17.834 15.221 23.377 14.924 40.875 0 45.21-38.599 78.275-67.795 121.258-106.186a137 137 0 0 1 13.005 17.469z" opacity=".6" style="stroke-width:.989705"/><mask id="i" width="345" height="276" x="202" y="297" maskUnits="userSpaceOnUse"><path fill="#fff" d="M546.835 362.969c0 77.57-77.07 140.45-172.13 140.45-4.59 0-12.3-1.18-15.11 3.4-2.81 4.56 3.38 11.6 6.95 15.63 37.16 42.04 91.07 47.33 105.22 48.72l2.23.22c-124.88 12.08-271.38-67.7-271.42-206.37a121.96 121.96 0 0 1 18.53-65.32l134.08 121.78c9.54 8.66 25.61 8.66 35.15 0l136.62-124.09c12.7 19.58 19.88 41.9 19.88 65.58"/></mask><g mask="url(#i)" transform="matrix(.9897 0 0 .9897 3.858 9.865)"><path fill="url(#j)" d="M162.705 200.979h435.07v394.47h-435.07z" opacity=".7" style="fill:url(#j)"/><g filter="url(#k)"><path fill="#458fcd" fill-rule="evenodd" d="M334.745 422.298c-25.35-26.38-101.27-114.03-101.27-114.03l5.87.26 118.86 88.77c8.9 6.47 21.6 6.4 30.42-.15l116.55-88.5 6.18-.49s-73.44 85.57-101.57 113.76-49.69 26.76-75.04.38" clip-rule="evenodd"/></g></g><path fill="#fff" d="M398.606 160.555c18.23-5.74 16.627-23.783 16.627-23.783s-9.115-10.738-27.177-4.79c-16.904 5.572-19.527 17.617-19.527 17.617s9.234 17.518 30.077 10.956" style="stroke-width:.989705"/><defs><linearGradient id="a" x1="146.185" x2="639.585" y1="155.649" y2="615.869" gradientTransform="matrix(.9897 0 0 .9897 3.858 9.865)" gradientUnits="userSpaceOnUse"><stop stop-color="#1B91F3"/><stop offset="1" stop-color="#0B68CB"/></linearGradient><linearGradient id="d" x1="283.475" x2="461.015" y1="273.458" y2="75.818" gradientTransform="matrix(.9897 0 0 .9897 3.858 9.865)" gradientUnits="userSpaceOnUse"><stop stop-color="#0F5DB0"/><stop offset="1" stop-color="#0F5DB0" stop-opacity="0"/></linearGradient><linearGradient id="f" x1="594.625" x2="512.075" y1="416.559" y2="619.249" gradientTransform="matrix(.9897 0 0 .9897 3.858 9.865)" gradientUnits="userSpaceOnUse"><stop stop-color="#E247C4" stop-opacity="0"/><stop offset="1" stop-color="#E247C4" stop-opacity=".64"/></linearGradient><linearGradient id="g" x1="82.716" x2="155.445" y1="234.79" y2="527.51" gradientTransform="matrix(.9897 0 0 .9897 3.858 9.865)" gradientUnits="userSpaceOnUse"><stop offset=".1" stop-color="#EF3ACC"/><stop offset="1" stop-color="#EF3ACC" stop-opacity="0"/></linearGradient><linearGradient id="h" x1="374.705" x2="374.705" y1="273.95" y2="569.949" gradientTransform="matrix(.9897 0 0 .9897 3.858 9.865)" gradientUnits="userSpaceOnUse"><stop stop-color="#fff"/><stop offset=".91" stop-color="#BEE1FE"/><stop offset="1" stop-color="#96CEFD"/></linearGradient><linearGradient id="j" x1="380.245" x2="380.245" y1="441.449" y2="565.449" gradientUnits="userSpaceOnUse"><stop stop-color="#BCE0FD"/><stop offset="1" stop-color="#88CCFC"/></linearGradient><radialGradient id="b" cx="0" cy="0" r="1" gradientTransform="matrix(116.71578 268.65484 -257.36165 111.8095 147.636 320.632)" gradientUnits="userSpaceOnUse"><stop offset=".53" stop-color="#0B4186" stop-opacity="0"/><stop offset="1" stop-color="#0B4186" stop-opacity=".45"/></radialGradient><radialGradient id="c" cx="0" cy="0" r="1" gradientTransform="matrix(-38.5494 -49.3463 81.65708 -63.79062 383.612 200.332)" gradientUnits="userSpaceOnUse"><stop stop-color="#EF3ACC" stop-opacity="0"/><stop offset="1" stop-color="#EF3ACC" stop-opacity=".64"/></radialGradient><radialGradient id="e" cx="0" cy="0" r="1" gradientTransform="matrix(198.43608 -411.6282 508.48184 245.12689 244.063 555.34)" gradientUnits="userSpaceOnUse"><stop offset=".02" stop-color="#094188"/><stop offset=".97" stop-color="#0B4186" stop-opacity="0"/></radialGradient><filter id="k" width="341.88" height="198.416" x="201.475" y="276.158" color-interpolation-filters="sRGB" filterUnits="userSpaceOnUse"><feFlood flood-opacity="0" result="BackgroundImageFix"/><feBlend in="SourceGraphic" in2="BackgroundImageFix" result="shape"/><feGaussianBlur result="effect1_foregroundBlur_106_1002" stdDeviation="16"/></filter></defs></svg>