<svg xmlns="http://www.w3.org/2000/svg" xmlns:xlink="http://www.w3.org/1999/xlink" width="48" height="48"><defs><linearGradient id="c" x1="68.21" x2="148.521" y1="177.751" y2="258.061" gradientTransform="translate(-16.518 -57.726)scale(.37626)" gradientUnits="userSpaceOnUse"><stop offset="0" stop-color="#59f"/><stop offset="1" stop-color="#06f"/></linearGradient><linearGradient xlink:href="#a" id="d" x1="220.306" x2="54.439" y1="207.919" y2="42.052" gradientTransform="matrix(.168 0 0 .1636 5.931 -1.941)" gradientUnits="userSpaceOnUse"/><linearGradient id="a"><stop offset="0" stop-color="#2a7fff"/><stop offset="1" stop-color="#0cf"/></linearGradient></defs><circle cx="24" cy="24" r="21" fill="url(#c)" style="fill:url(#c)"/><ellipse cx="24" cy="23.45" fill="url(#d)" rx="21" ry="20.45" style="fill:url(#d)"/><path d="M1.746 12q-.125.244-.246.49c1.266.705 4.913 2.541 6.645 3.63 2.188 1.343 5.146 4.085 5.378 4.546-2.276 3.973-1.243 7.49-1.512 7.864-.193.312-1.982 2.283-1.406 2.573.572.286 1.48-.164 1.618-.251.286-.176.58-.432.457.08-.242 1.034-1.34 3.524.175 2.995.185-.107 2.624-2.8 2.919-2.893 4.852 1.267 10.28.686 11.284.216.523.04 2.004.969 2.847 1.414.844.442 3.143 1.546 2.462-.462-.211-.635-1.722-2.256-1.477-2.362.54-.216 1.876.56 2.39.704 1.539.432 1.746-.166.775-1.483-.959-1.318-1.103-1.115-1.407-1.723-.237-.49 0-1.03.176-1.162.312-.238 4.904-2.794 5.98-3.773 1.596-1.454 0-3.267-.39-3.524-3.31-2.387-6.707-1.876-6.751-2.255-.023-.432-.014-1.68-.071-2.11-.33-2.926-1.679-2.19-1.863-2.19-1.35.212-.853 2.282-.282 4.229.045.498-.47.278-.774-.247-1.037-2.789-1.472-2.74-1.758-2.824-.277-.065-1.252.533-1.235 1.661.005.322.387 1.856.387 2.327-.637.56-.669 1.828-1.337 2.29-1.946.407-6.623-.964-7.207-1.025-2.022-.38-2.905 1.14-3.23.776-2.624-3.014-6.632-5.252-8.368-5.64-.673-.144-2.944-1.15-3.762-1.657-.132-.083-.282-.135-.427-.212Zm29.25 7.014c.023-.03.05 0 .075.04.193.644.408 1.256 1.683 1.41.15.03-.707.521-1.296.213-.537-.327-.585-1.512-.461-1.657zm3.306 3.238a.47.47 0 0 1 .286 0c.312.085-2.261 1.424-2.462 1.239-.122-.119 1.372-1.089 2.18-1.239zm.673.85c.268.026-1.49 1.847-1.688 1.658-.145-.131 1.139-1.702 1.688-1.658" style="fill:#f2f2f2;stroke-width:.999992"/></svg>