<svg xmlns="http://www.w3.org/2000/svg" xmlns:xlink="http://www.w3.org/1999/xlink" width="48" height="48"><defs><clipPath id="g" clipPathUnits="userSpaceOnUse"/><clipPath id="h" clipPathUnits="userSpaceOnUse"/><clipPath id="i" clipPathUnits="userSpaceOnUse"/><clipPath id="k" clipPathUnits="userSpaceOnUse"/><clipPath id="l" clipPathUnits="userSpaceOnUse"/><clipPath id="m" clipPathUnits="userSpaceOnUse"/><clipPath id="n" clipPathUnits="userSpaceOnUse"/><clipPath id="o" clipPathUnits="userSpaceOnUse"/><clipPath id="p" clipPathUnits="userSpaceOnUse"/><clipPath id="q" clipPathUnits="userSpaceOnUse"/><linearGradient id="d"><stop offset="0" style="stop-color:#fca;stop-opacity:1"/><stop offset="1" style="stop-color:#f95;stop-opacity:1"/></linearGradient><linearGradient xlink:href="#d" id="f" x1="-45" x2="-10.334" y1="45" y2="0" gradientUnits="userSpaceOnUse"/><linearGradient id="e"><stop offset="0" style="stop-color:#00b33b;stop-opacity:1"/><stop offset="1" style="stop-color:#faffb7;stop-opacity:1"/></linearGradient><radialGradient xlink:href="#e" id="j" cx="412" cy="741.362" r="40" fx="412" fy="741.362" gradientTransform="matrix(.12193 0 0 .12193 -26.266 -68.221)" gradientUnits="userSpaceOnUse"/></defs><rect width="41.999" height="41.996" x="-45" y="3.004" rx="20.999" ry="20.998" style="fill-opacity:1;fill:url(#f)" transform="scale(-1 1)"/><path d="M3.013 23.477c-.004.175-.013.35-.013.525A20.953 20.953 0 0 0 24 45c11.633 0 20.999-9.365 20.999-20.998 0-.176-.008-.349-.013-.525A20.95 20.95 0 0 1 23.999 43.95 20.947 20.947 0 0 1 3.013 23.477" style="display:inline;overflow:visible;opacity:.3;fill:#000;fill-opacity:1;stroke-width:2.93982;stroke-opacity:.55"/><path d="M3.013 24.523c-.004-.175-.013-.348-.013-.525A20.953 20.953 0 0 1 24 3c11.633 0 20.999 9.365 20.999 20.998 0 .176-.008.35-.013.525A20.95 20.95 0 0 0 23.999 4.05 20.947 20.947 0 0 0 3.013 24.523" style="display:inline;overflow:visible;opacity:.3;fill:#fff;fill-opacity:1;stroke-width:2.93982;stroke-opacity:.55"/><path d="M11.105 16.199c-1.377.787-1.28 5.12-1.28 6.706 0 1.585 1.707 3.414 3.658 4.39s5.121 3.17 7.194 3.535 5.182.762 6.157.854c.976.091 3.972-.286 6.584-2.622 3.81-3.405 2.534-7.131 7.255-9.754 3.841-2.134 2.333-2.859 2.229-4.689-.122-2.133-.46-2.14-2.168-2.566-1.535-.384-6.523-.976-9.023-.366s-5.352 1.976-6.828 2.56c-5.672 2.247-6.439-2.244-13.778 1.952" clip-path="url(#g)" style="fill:#fff;fill-opacity:1;fill-rule:evenodd;stroke:none;stroke-width:.12193px;stroke-linecap:butt;stroke-linejoin:miter;stroke-opacity:1" transform="matrix(.80413 0 0 .80413 2.761 4.162)"/><path d="M25.497 12.787c.323 1 1.416.735 3.142.186.486-.167 2.061-.874 4.197-1.205 2.284-.354 1.98-.33 5.048.018 2.261.256 3.873 1.141 4.005.31.16-1.005-2.02-2.367-4.008-2.697-1.8-.299-4.786-.714-8.145.72-1.653.707-4.611 1.518-4.24 2.668z" clip-path="url(#h)" style="fill:#000;fill-opacity:1;fill-rule:evenodd;stroke:#000;stroke-width:.12193px;stroke-linecap:butt;stroke-linejoin:miter;stroke-opacity:1" transform="matrix(.80413 0 0 .80413 2.761 4.162)"/><path d="M22.231 18.302c-.731.396-2.743 2.256-3.627 2.347s-1.25-.396-1.981-.122-4.542 1.463-5 1.768c-.457.305-.61.915-.304 1.189.305.274 4.054.518 4.572.792.518.275 3.597 1.799 4.481 1.768s4.146.244 5.395-.274c1.25-.518 3.384-3.75 4.512-4.572s2.438-1.86 3.688-2.226 2.713-1.34 3.262-2.072.7-1.403 0-1.555c-.701-.152-1.677.762-2.53.945-.854.183-3.597.183-5.243 0s-7.164 2.073-7.225 2.012" clip-path="url(#i)" style="fill:#000;fill-opacity:1;fill-rule:evenodd;stroke:none;stroke-width:.12193px;stroke-linecap:butt;stroke-linejoin:miter;stroke-opacity:1" transform="matrix(.80413 0 0 .80413 2.761 4.162)"/><circle cx="23.969" cy="22.173" r="4.877" clip-path="url(#k)" style="fill:url(#j);fill-opacity:1;stroke:none;stroke-width:.12193;stroke-linecap:round;stroke-miterlimit:4;stroke-dasharray:none;stroke-dashoffset:0;stroke-opacity:1" transform="matrix(.80413 0 0 .80413 2.761 4.162)"/><circle cx="23.969" cy="22.173" r="1.219" clip-path="url(#l)" style="fill:#000;fill-opacity:1;stroke:#000;stroke-width:.12193;stroke-linecap:round;stroke-miterlimit:4;stroke-dasharray:none;stroke-dashoffset:0;stroke-opacity:1" transform="matrix(.80413 0 0 .80413 2.761 4.162)"/><path d="M32.19 16.175c-2.583-.62-5.848.037-7.735.495-1.73.42-3.355 1.346-4.02 1.988-.353.342-1.098.992-1.494 1.181-.3.144-.724.184-1.145.122-.545-.08-.964-.443-1.157-1.11-.246-.85-.47-1.584-.146-2.533a.245.245 0 0 0-.461-.164c-.447 1.252-.478 2.484-.156 3.453s1.026 1.684 1.996 1.787c.657.069 1.189-.058 1.646-.305.458-.247.845-.603 1.28-.987.872-.767 1.932-1.677 4.063-2.252 4.47-1.207 2.438-1.096 7.34-1.187a.244.244 0 0 0-.012-.488" clip-path="url(#m)" style="fill:#000;fill-opacity:1;fill-rule:evenodd;stroke:none;stroke-width:.48772;stroke-linecap:round;stroke-linejoin:miter;stroke-miterlimit:4;stroke-dasharray:none;stroke-opacity:1" transform="matrix(.80413 0 0 .80413 2.761 4.162)"/><path d="M36.913 15c-.255.038-.504.144-.766.267-1.304.787-2.585.894-4.062.792-.923-.064-1.905-.156-2.77-.065-1.708.18-2.888.907-2.888.907l.32.518s1.064-.654 2.633-.819c.773-.081 1.732 0 2.663.065s1.831.121 2.557-.072c.698-.187 1.318-.546 1.806-.774.244-.114.453-.192.594-.213s.182-.01.236.045a.46.46 0 0 1 .149.26c.014.083.004.189-.069.342-.145.308-.547.77-1.265 1.36-.675.557-1.616.9-2.655 1.3-1.04.4-2.11.95-3.209 1.718-1.211.848-1.29 1.715-2.641 2.93-.852.766-1.898 1.834-3.15 1.981-3.62.426-4.567-.431-6.893-.978-1.473-.346-2.923-.808-4.15-.919-.613-.055-1.143-.11-1.478-.213a.9.9 0 0 1-.34-.168c-.057-.053-.072-.085-.075-.167-.01-.26.05-.345.255-.477.205-.131.577-.25 1.063-.377.973-.252 2.397-.56 4-1.455l-.296-.534c-1.523.85-2.862 1.141-3.856 1.399-.498.129-.914.242-1.243.453-.328.211-.548.58-.533 1.014a.86.86 0 0 0 .274.594c.16.146.353.234.572.301.437.134.984.18 1.6.236 1.233.111 2.734.238 3.925.854 2.333 1.206 4.228 2.536 7.937 2.1 1.493-.176 3.256-1.502 3.994-2.615s1.29-1.987 2.244-2.708c.674-.51 1.282-1.212 2.312-1.944.9-.64 1.938-1.2 2.728-1.852.748-.616 1.208-1.105 1.43-1.573.11-.235.158-.473.121-.702a1.1 1.1 0 0 0-.32-.59c-.204-.204-.5-.26-.754-.221" clip-path="url(#n)" style="fill:#000;fill-opacity:1;fill-rule:evenodd;stroke:none;stroke-width:.609649;stroke-linecap:butt;stroke-linejoin:miter;stroke-miterlimit:4;stroke-dasharray:none;stroke-opacity:1" transform="matrix(.80413 0 0 .80413 2.761 4.162)"/><path d="M23.44 4.702s-1.468 4.1-1.777 4.892c-.452 1.161-2.285 3.024-1.253 3.925.541.473 1.496-.693 1.824-1.185 1.239-1.855.24-.443 2.378-4.817.5-1.022 1.06-2.18.117-2.448z" clip-path="url(#o)" style="fill:#000;fill-opacity:1;fill-rule:evenodd;stroke:#000;stroke-width:.12193px;stroke-linecap:butt;stroke-linejoin:miter;stroke-opacity:1" transform="matrix(.80413 0 0 .80413 2.761 4.162)"/><path d="M14.686 4.828s1.46 5.117 2.409 5.376c.948.258-1.607-3.56-.595-5.376h3.355z" clip-path="url(#p)" style="fill:#000;fill-opacity:1;fill-rule:evenodd;stroke:#000;stroke-width:.12193px;stroke-linecap:butt;stroke-linejoin:miter;stroke-opacity:1" transform="matrix(.80413 0 0 .80413 2.761 4.162)"/><path d="M15.14 36.598c3.233 1.803 8.78 4.024 14.266 2.317s8.413-2.805 11.705-7.072c3.292-4.268 2.454.58 1.844 2.043s-1.966 3.078-4.16 4.663-10.869 4.262-15.486 3.536c-5.425-.853-10.242-4.146-10.851-4.755-.61-.61-1.951-1.463-1.22-2.317.732-.853 3.05 1.11 3.902 1.585z" clip-path="url(#q)" style="fill:#000;fill-opacity:1;fill-rule:evenodd;stroke:#000;stroke-width:.12193px;stroke-linecap:butt;stroke-linejoin:miter;stroke-opacity:1" transform="matrix(.80413 0 0 .80413 2.761 4.162)"/></svg>