<svg xmlns="http://www.w3.org/2000/svg" width="48" height="48"><ellipse cx="24" cy="24.368" rx="21" ry="20.632" style="opacity:.403846;stroke-width:.743388"/><ellipse cx="24" cy="23.632" rx="21" ry="20.632" style="fill:#e4e4e4;stroke-width:.743388"/><path d="M19.163 20.792c5.383-1.842 6.3-6.642 5.613-11.054 0-.16.137-.273.274-.228C30.204 12.012 36 17.471 36 25.66c0 6.278-4.902 11.828-12.026 11.828a11.454 11.373 0 0 1-6.46-21.086c.137-.09.32 0 .32.16.07.841.298 2.957 1.238 4.23z" style="opacity:.1;stroke-width:.743388"/><path d="M19.163 20.792c5.383-1.842 6.3-6.642 5.613-11.054 0-.16.137-.273.274-.228C30.204 12.012 36 17.471 36 25.66c0 6.278-4.902 11.828-12.026 11.828a11.454 11.373 0 0 1-6.46-21.086c.137-.09.32 0 .32.16.07.841.298 2.957 1.238 4.23z" style="fill:#ff5473;stroke-width:.743388"/><path d="M24 3A21 20.632 0 0 0 3 23.632a21 20.632 0 0 0 .013.362A21 20.632 0 0 1 24 3.737a21 20.632 0 0 1 20.98 20.257 21 20.632 0 0 0 .02-.362A21 20.632 0 0 0 24 3" style="opacity:.394231;fill:#bdbdbd;fill-opacity:1;stroke-width:.743388"/></svg>