<svg xmlns="http://www.w3.org/2000/svg" xmlns:xlink="http://www.w3.org/1999/xlink" width="48" height="48"><defs><linearGradient id="a"><stop offset="0" style="stop-color:#c83771;stop-opacity:1"/><stop offset="1" style="stop-color:#0cf;stop-opacity:1"/></linearGradient><linearGradient xlink:href="#a" id="b" x1="83.133" x2="143.118" y1="2.041" y2="62.004" gradientTransform="matrix(.69972 0 0 .69948 -55.154 1.602)" gradientUnits="userSpaceOnUse"/></defs><path d="M36.76 7.333q-2.7-2.08-5.908-3.187-3.314-1.145-6.858-1.145C12.399 3.001 3 12.397 3 23.986c0 10.603 7.868 19.365 18.084 20.781q.75.105 1.51.154c.463.028.928.048 1.4.048 11.592 0 20.99-9.395 20.99-20.983a20.93 20.93 0 0 0-.79-5.715q-.93-3.28-2.857-6.104-1.904-2.782-4.576-4.835Z" style="fill:url(#b)"/><ellipse cx="24.008" cy="24.015" fill="none" rx="20.992" ry="20.985"/><path d="M29.633 22.307c1.4 5.972 3.215 8.284 4.5 8.96.479.25 1.125.383 1.125.56 0 .262-.594.549-1.125.56-1.276.027-5.013-3.116-7.875-6.72-1.166-1.467 0-3.36 0-3.36zm-11.25 0c-1.438 6.133-3.069 8.326-4.5 8.96-.482.213-1.125.39-1.125.56 0 .278.588.547 1.125.56 1.311.034 4.999-3.1 7.875-6.72 1.505-1.897 0-3.36 0-3.36z" style="opacity:.2;stroke-width:2.245"/><path d="M29.633 21.187c1.4 5.972 3.215 8.284 4.5 8.96.479.25 1.125.383 1.125.56 0 .262-.594.549-1.125.56-1.276.027-5.013-3.116-7.875-6.72-1.166-1.467 0-3.36 0-3.36zm-11.25 0c-1.438 6.133-3.069 8.326-4.5 8.96-.482.213-1.125.39-1.125.56 0 .278.588.547 1.125.56 1.311.034 4.999-3.1 7.875-6.72 1.505-1.897 0-3.36 0-3.36z" style="fill:#e4e4e4;stroke-width:2.245"/><path d="M31.883 12.227c3.375 0 5.625 2.24 5.625 5.6v5.6a2.26 2.26 0 0 1-2.25 2.24h-6.75v5.6c0 1.006.45 2.24.45 2.24.524 1.16 1.534 3.03 3.116 3.203.796.085 1.5-.096 1.721-.334.126-.134.338-.407.338-.629 0-.399.321-1.12 1.125-1.12.715-.009 1.125.291 1.125.74 0 .649-.959 1.256-1.125 1.5 0 0 .888.314 1.125.405.294.112.562.475.562.715 0 .452-.562 1.12-1.125 1.12-.688 0-1.089-.75-1.687-.56-1.582.502-3.375.56-6.75.56-3.976 0-6.672-3.044-7.394-5.441-.481-1.6-.481-3.378-.481-5.759v-2.24h-3.375c-3.375 0-5.625-3.36-5.625-6.72v-4.48c0-1.12 1.125-2.24 2.25-2.24z" style="opacity:.2;stroke-width:2.245"/><path d="M31.883 11.107c3.375 0 5.625 2.24 5.625 5.6v5.6a2.26 2.26 0 0 1-2.25 2.24h-6.75v5.6c0 1.006.45 2.24.45 2.24.524 1.16 1.534 3.03 3.116 3.203.796.085 1.5-.096 1.721-.334.126-.134.338-.407.338-.629 0-.399.321-1.12 1.125-1.12.715-.009 1.125.291 1.125.74 0 .649-.959 1.256-1.125 1.5 0 0 .888.314 1.125.405.294.112.562.475.562.715 0 .452-.562 1.12-1.125 1.12-.688 0-1.089-.75-1.687-.56-1.582.502-3.375.56-6.75.56-3.976 0-6.672-3.044-7.394-5.441-.481-1.6-.481-3.378-.481-5.759v-2.24h-3.375c-3.375 0-5.625-3.36-5.625-6.72v-4.48c0-1.12 1.125-2.24 2.25-2.24z" style="fill:#383e5c;fill-opacity:1;stroke-width:2.245"/><ellipse cx="-4.464" cy="34.56" rx="2.497" ry="1.963" style="opacity:.1;stroke-width:2.24559" transform="matrix(.56108 -.82776 .89737 .44129 0 0)"/><ellipse cx="-3.45" cy="33.926" rx="2.497" ry="1.963" style="fill:#e4e4e4;stroke-width:2.24559" transform="matrix(.56108 -.82776 .89737 .44129 0 0)"/><ellipse cx="-25.86" cy="-5.569" rx="2.497" ry="1.963" style="opacity:.1;stroke-width:2.24559" transform="matrix(-.56108 -.82776 -.89737 .44129 0 0)"/><ellipse cx="-24.843" cy="-6.206" rx="2.497" ry="1.963" style="fill:#e4e4e4;stroke-width:2.24559" transform="matrix(-.56108 -.82776 -.89737 .44129 0 0)"/><path d="M12.758 11.107c-1.125 0-2.25 1.12-2.25 2.24v1.12c0-1.12 1.125-2.24 2.25-2.24h19.125c3.375 0 5.625 2.24 5.625 5.6v-1.12c0-3.36-2.25-5.6-5.625-5.6zm15.75 19.04v1.12c0 1.006.447 2.24.447 2.24.525 1.16 1.54 3.03 3.121 3.203.797.085 1.499-.096 1.72-.334.125-.134.337-.407.337-.629 0-.399.321-1.12 1.125-1.12.384-.004.68.083.87.233.144-.195.255-.401.255-.614 0-.448-.41-.748-1.125-.739-.804 0-1.125.721-1.125 1.12 0 .222-.212.495-.338.63-.22.237-.922.418-1.719.333-1.582-.172-2.596-2.043-3.12-3.203 0 0-.448-1.234-.448-2.24m7.575 5.898c-.294.365-.72.667-.825.822 0 0 .888.316 1.125.408.11.04.209.12.299.212.16-.201.263-.427.263-.62 0-.24-.268-.6-.562-.712a12 12 0 0 0-.3-.11" style="opacity:.1;fill:#fff;stroke-width:2.245"/></svg>