<svg xmlns="http://www.w3.org/2000/svg" width="48" height="48"><linearGradient id="a" x1="4" x2="4" y1="44" y2="4" gradientUnits="userSpaceOnUse"><stop offset="0" stop-color="#be1111"/><stop offset="1" stop-color="#e74c3c"/></linearGradient><rect width="40" height="40" x="4" y="4" fill="url(#a)" ry="5"/><path fill="#8e0d0d" d="M4 37.871v1A5.12 5.12 0 0 0 9.129 44H38.87A5.12 5.12 0 0 0 44 38.871v-1A5.12 5.12 0 0 1 38.871 43H9.13A5.12 5.12 0 0 1 4 37.871"/><path d="M12.974 13.645h5.521v5.5h-5.521zM21.24 19.145h5.521v5.5H21.24zM11.9 30.145h5.521v5.5H11.9zM30.589 30.145h5.521v5.5h-5.521zM17.94 27.395h5.521v5.5H17.94zM24.55 27.395h5.521v5.5H24.55zM29.538 13.645h5.521v5.5h-5.521z" style="fill:#fff5f5;fill-opacity:1;stroke-width:.465406"/></svg>