<svg xmlns="http://www.w3.org/2000/svg" width="48" height="48"><defs><linearGradient id="c" x1="11.825" x2="38.882" y1="8.318" y2="37.24" gradientUnits="userSpaceOnUse"><stop/><stop offset="1" stop-opacity="0"/></linearGradient><linearGradient id="a" x2="0" y1="43.943" y2="3.77" gradientUnits="userSpaceOnUse"><stop stop-color="#663579"/><stop offset="1" stop-color="#16a085"/></linearGradient><linearGradient id="d" x1="37.46" x2="23.68" y1="35.601" y2="21.467" gradientUnits="userSpaceOnUse"><stop stop-color="#735a93"/><stop offset="1" stop-color="#8b6cb1"/></linearGradient></defs><g image-rendering="optimizeSpeed"><path fill="url(#a)" d="M43.39 18.915a19.268 19.268 0 0 0-.513-1.693A18.6 18.6 0 0 0 41.375 14a20.8 20.8 0 0 0-3.235-4.142c-1.65-1.65-3.447-2.953-5.403-3.913a18.8 18.8 0 0 0-5.345-1.682c-.689-.11-1.39-.186-2.121-.227a23 23 0 0 0-2.457-.004q-.425.021-.85.061-3.613.328-6.735 1.864-2.899 1.424-5.375 3.9c-3.782 3.782-5.733 8.326-5.852 13.623q-.006.258-.006.519c0 5.523 1.953 10.239 5.858 14.14q5.419 5.418 12.911 5.822l.049.004h.017c.36.019.703.03 1.038.03h.127c.436 0 .869-.013 1.275-.034l.294-.019a21 21 0 0 0 3.479-.544c3.424-.86 6.447-2.61 9.1-5.258.258-.258.508-.519.742-.775 1.689-1.858 2.956-3.881 3.807-6.081.386-.994.684-2.023.903-3.095a21 21 0 0 0 .392-3.409q.013-.385.013-.784v-.127q0-.197-.004-.396a20.7 20.7 0 0 0-.602-4.561"/><path fill="url(#c)" d="M43.911 26.02 27.99 9l-2.203 1.974-3.467-3.431-1.268 3.786 2.99 3.098-9.43 23.809 5.394 5.394c12.831-3.682 22.601-6.509 23.905-17.613" opacity=".2"/><path fill="#442c58" d="M4.01 23.5c-.004.167-.012.332-.012.5 0 11.08 8.92 20 20 20s20-8.92 20-20c0-.168-.008-.333-.012-.5A19.954 19.954 0 0 1 23.998 43 19.95 19.95 0 0 1 4.01 23.5"/><path fill="#fdfcdf" d="M21 13c-.65 1.696-.766 3.177-2.43 4.203C14.303 19.268 11.006 23.927 11 29c0 7.18 5.82 13 13 13v-3c-5.523 0-10-4.477-10-10s4.477-10 10-10v-5c-1.216-.093-2.12-.485-3-1"/><path fill="url(#d)" d="M27 13c-.783.421-1.972 1.076-3 1v28a13 13 0 0 0 13-13 13 13 0 0 0-7.678-11.844c-1.28-.864-2.135-2.4-2.322-4.156"/><g fill="#78af52"><path d="M20.428 6c-.018.055-.035.11-.048.157Q18.821 11.314 23.655 13c.943-2.635-.048-4.909-2.984-6.843A9 9 0 0 0 20.427 6M25.04 13c-.249-2.02.742-3.361 2.963-4q-.362 3.333-2.963 4"/></g></g><g stroke-width="2"><path fill="#eaeace" d="M24 19a10 10 0 0 0-10 10 10 10 0 0 0 10 10v-3a7 7 0 0 1-7-7 7 7 0 0 1 7-7z"/><path fill="#d1d1b8" d="M24 22a7 7 0 0 0-7 7 7 7 0 0 0 7 7v-3a4 4 0 0 1-4-4 4 4 0 0 1 4-4z"/><path fill="#bfbfa9" d="M24 25a4 4 0 0 0-4 4 4 4 0 0 0 4 4z"/></g></svg>