<svg xmlns="http://www.w3.org/2000/svg" xmlns:xlink="http://www.w3.org/1999/xlink" width="48" height="48"><defs><linearGradient xlink:href="#a" id="b" x2="0" y1="543.798" y2="503.798" gradientUnits="userSpaceOnUse"/><linearGradient id="a"><stop stop-color="#197cf1"/><stop offset="1" stop-color="#20bcfa"/></linearGradient></defs><path fill="url(#b)" d="M408.571 503.798c-11.08 0-20 8.92-20 20s8.92 20 20 20 20-8.92 20-20-8.92-20-20-20" transform="translate(-384.571 -499.798)"/><path d="M4.012 24c-.004.163-.012.325-.012.488C4 35.298 12.92 44 24 44s20-8.702 20-19.512c0-.163-.008-.325-.012-.488C43.724 34.582 34.912 43.023 24 43.023S4.276 34.582 4.012 24" opacity=".15"/><path fill="#fff" d="M19.387 8.28q-.7-.002-1.192.49a1.63 1.63 0 0 0-.492 1.19q0 .698.492 1.188.152.156.326.262.384.235.866.235.696 0 1.187-.497c.328-.326.496-.723.496-1.187q0-.48-.234-.861a1.8 1.8 0 0 0-.262-.33 1.61 1.61 0 0 0-1.187-.49m4.302 0q-.698-.002-1.191.49-.494.495-.492 1.19-.002.698.492 1.188.152.156.326.262.384.235.865.235.695 0 1.188-.497.492-.49.492-1.187a1.64 1.64 0 0 0-.492-1.191 1.62 1.62 0 0 0-1.188-.49m4.303 0q-.7-.002-1.193.49a1.63 1.63 0 0 0-.492 1.19q0 .698.492 1.188.154.156.328.262.385.235.865.235a1.6 1.6 0 0 0 1.186-.497 1.6 1.6 0 0 0 .494-1.187 1.62 1.62 0 0 0-.494-1.191 1.61 1.61 0 0 0-1.186-.49m-12.906 4.534q-.698-.001-1.193.493a1.62 1.62 0 0 0-.49 1.19q-.002.695.49 1.189.154.155.33.261.38.233.863.233.696-.001 1.187-.494.496-.494.497-1.19 0-.48-.239-.863a1.7 1.7 0 0 0-.258-.326 1.6 1.6 0 0 0-1.187-.493m17.205 0q-.698-.001-1.19.493-.493.492-.492 1.19-.002.695.493 1.189.153.155.328.261.38.233.861.233.695-.001 1.19-.494.492-.494.492-1.19a1.63 1.63 0 0 0-.493-1.19 1.62 1.62 0 0 0-1.189-.492M19.387 17.35q-.7-.002-1.192.492a1.62 1.62 0 0 0-.492 1.19q0 .696.492 1.19.152.154.326.26.384.233.866.233.696-.002 1.187-.492a1.63 1.63 0 0 0 .496-1.192 1.62 1.62 0 0 0-.496-1.19 1.6 1.6 0 0 0-1.187-.491m4.302 0q-.698-.002-1.191.492-.494.493-.492 1.19-.002.696.492 1.19.152.154.326.26.384.233.865.233.695-.002 1.188-.492.492-.494.492-1.192a1.64 1.64 0 0 0-.492-1.19 1.61 1.61 0 0 0-1.188-.491m4.303 0a1.62 1.62 0 0 0-1.193.492 1.62 1.62 0 0 0-.492 1.19q0 .696.492 1.19.154.154.328.26.385.233.865.233.695-.002 1.186-.492.494-.494.494-1.192a1.62 1.62 0 0 0-.494-1.19 1.6 1.6 0 0 0-1.186-.491m-4.303 4.535q-.698 0-1.191.492-.494.493-.492 1.19-.002.698.492 1.19.152.155.326.26.384.235.865.235a1.63 1.63 0 0 0 1.188-.494q.492-.492.492-1.192a1.63 1.63 0 0 0-.492-1.189 1.62 1.62 0 0 0-1.188-.492m0 4.535q-.698.002-1.191.492a1.62 1.62 0 0 0-.492 1.192q-.002.695.492 1.189.152.153.326.26.384.234.865.234.695-.001 1.188-.494.492-.493.492-1.19a1.64 1.64 0 0 0-.492-1.19 1.63 1.63 0 0 0-1.188-.493m0 4.537a1.63 1.63 0 0 0-1.191.49 1.62 1.62 0 0 0-.492 1.192q-.002.695.492 1.19.152.151.326.259.384.234.865.234.695-.001 1.188-.494.492-.493.492-1.19a1.64 1.64 0 0 0-.492-1.19 1.63 1.63 0 0 0-1.188-.491m-4.302 4.535a1.63 1.63 0 0 0-1.192.49 1.63 1.63 0 0 0-.492 1.192q0 .695.492 1.19.152.151.326.259.384.235.866.234.696-.001 1.187-.494c.328-.328.496-.726.496-1.19a1.63 1.63 0 0 0-.496-1.19 1.62 1.62 0 0 0-1.187-.49m4.302 0a1.63 1.63 0 0 0-1.191.49q-.494.496-.492 1.192-.002.695.492 1.19.152.151.326.259.384.235.865.234.695-.001 1.188-.494.492-.493.492-1.19a1.64 1.64 0 0 0-.492-1.19 1.63 1.63 0 0 0-1.188-.49"/><path fill-opacity=".2" d="M25.137 9.098q.232.382.232.863 0 .697-.492 1.187-.493.496-1.188.497-.481 0-.865-.235.106.173.258.324.493.495 1.191.496.697-.001 1.188-.496.493-.49.494-1.19-.001-.695-.494-1.189a1.8 1.8 0 0 0-.324-.257m4.3 0q.235.382.235.863 0 .697-.494 1.187a1.6 1.6 0 0 1-1.186.497q-.481 0-.865-.235.106.173.258.324.493.495 1.191.496.695-.001 1.188-.496.492-.492.492-1.19 0-.695-.492-1.189a1.7 1.7 0 0 0-.327-.257m-8.601.002q.234.38.234.86-.002.698-.496 1.188-.49.496-1.187.497-.481 0-.866-.235.107.173.258.324.495.495 1.194.496.694-.001 1.185-.496.495-.49.496-1.19 0-.695-.496-1.189a1.7 1.7 0 0 0-.322-.255m8.6 4.53q.236.386.236.866 0 .696-.494 1.19a1.62 1.62 0 0 1-1.186.494q-.482 0-.863-.233.104.17.256.323.493.495 1.191.496.694 0 1.188-.496.492-.491.492-1.188 0-.698-.492-1.191a1.7 1.7 0 0 0-.328-.26m4.302 0q.235.386.235.866 0 .696-.493 1.19-.494.493-1.189.494-.48 0-.861-.233.104.17.256.323c.33.33.723.496 1.191.496q.696 0 1.187-.496a1.6 1.6 0 0 0 .495-1.188q0-.698-.495-1.191a1.7 1.7 0 0 0-.326-.26m-17.207.003q.239.383.239.863 0 .696-.497 1.19a1.62 1.62 0 0 1-1.187.494q-.482 0-.863-.233.103.17.256.323.492.495 1.19.496c.466 0 .858-.166 1.188-.496q.495-.491.497-1.188a1.63 1.63 0 0 0-.497-1.191 1.7 1.7 0 0 0-.326-.258m4.303 0q.236.383.236.863-.002.696-.496 1.19a1.62 1.62 0 0 1-1.187.494q-.48 0-.864-.235.105.172.256.325.495.495 1.194.496a1.6 1.6 0 0 0 1.185-.496q.495-.491.496-1.188 0-.697-.496-1.191a1.8 1.8 0 0 0-.324-.258m4.3 0q.235.383.235.863 0 .696-.492 1.19-.493.493-1.188.494-.481 0-.865-.235.106.172.258.325.493.495 1.191.496.697 0 1.188-.496.493-.491.494-1.188-.001-.697-.494-1.191a1.7 1.7 0 0 0-.326-.258m-12.902 4.535q.235.383.235.863-.001.698-.494 1.192a1.63 1.63 0 0 1-1.19.492q-.48 0-.861-.233.103.173.254.325.495.493 1.193.494.696-.001 1.188-.494.495-.493.496-1.19 0-.697-.496-1.191a1.8 1.8 0 0 0-.325-.258m4.301 0q.236.383.237.863 0 .698-.497 1.192a1.63 1.63 0 0 1-1.187.492q-.481 0-.865-.233.105.173.258.325.492.493 1.19.494a1.62 1.62 0 0 0 1.188-.494q.495-.493.497-1.19a1.63 1.63 0 0 0-.497-1.191 1.8 1.8 0 0 0-.324-.258m8.604 0q.232.383.232.863 0 .698-.492 1.192-.493.49-1.188.492-.481 0-.865-.233.106.173.258.325.493.493 1.191.494.697-.001 1.188-.494.493-.493.494-1.19-.001-.697-.494-1.191a1.8 1.8 0 0 0-.324-.258m4.3 0q.235.383.235.863 0 .698-.494 1.192a1.62 1.62 0 0 1-1.186.492q-.481 0-.865-.233.106.173.258.325.493.493 1.191.494.695-.001 1.188-.494.492-.493.492-1.19t-.492-1.191a1.7 1.7 0 0 0-.327-.258m4.301 0q.235.383.235.863 0 .698-.493 1.192-.494.49-1.189.492-.48 0-.861-.233.103.173.256.325c.33.328.723.494 1.191.494q.696-.001 1.187-.494.495-.493.495-1.19t-.495-1.191a1.7 1.7 0 0 0-.326-.258m4.303 0q.234.383.234.863 0 .698-.494 1.192a1.63 1.63 0 0 1-1.187.492q-.48 0-.864-.233.106.173.258.325.492.493 1.19.494.695-.001 1.19-.494.49-.493.491-1.19 0-.697-.492-1.191a1.7 1.7 0 0 0-.326-.258m-17.205.002q.234.384.234.861-.002.698-.496 1.192a1.62 1.62 0 0 1-1.187.492q-.481 0-.866-.232.107.172.258.324.495.493 1.194.494.694-.001 1.185-.494.495-.493.496-1.19 0-.697-.496-1.191a1.8 1.8 0 0 0-.322-.256m-8.604 4.533q.235.387.235.863-.001.7-.494 1.192c-.33.326-.724.494-1.19.494q-.48 0-.861-.232.104.168.254.322.495.493 1.193.494.696-.001 1.188-.494.495-.493.496-1.19 0-.695-.496-1.191a1.8 1.8 0 0 0-.325-.258m4.3 0q.238.387.238.863 0 .7-.497 1.192a1.63 1.63 0 0 1-1.187.494q-.482 0-.863-.232.103.168.256.322.492.493 1.19.494a1.62 1.62 0 0 0 1.188-.494q.495-.493.497-1.19-.002-.695-.497-1.191a1.7 1.7 0 0 0-.326-.258m8.603 0q.234.387.234.863 0 .7-.492 1.192a1.63 1.63 0 0 1-1.188.494q-.481 0-.865-.234.106.172.258.324.493.493 1.191.494.697-.001 1.188-.494.493-.493.494-1.19-.001-.695-.494-1.191a1.7 1.7 0 0 0-.326-.258m4.3 0q.238.384.237.863 0 .7-.494 1.192a1.62 1.62 0 0 1-1.186.494q-.482 0-.863-.232.104.168.256.322.493.493 1.191.494.694-.001 1.188-.494.492-.493.492-1.19a1.63 1.63 0 0 0-.492-1.191 1.8 1.8 0 0 0-.328-.258m4.303 0q.235.384.235.863 0 .7-.493 1.192c-.33.326-.725.494-1.189.494q-.48 0-.861-.232.104.168.256.322c.33.328.723.494 1.191.494q.696-.001 1.187-.494.495-.493.495-1.19 0-.695-.495-1.191a1.7 1.7 0 0 0-.326-.258m4.301 0q.237.384.236.863 0 .7-.494 1.192a1.63 1.63 0 0 1-1.187.494q-.48 0-.862-.232.105.168.256.322.492.493 1.19.494.695-.001 1.19-.494.49-.493.491-1.19a1.63 1.63 0 0 0-.492-1.191 1.8 1.8 0 0 0-.328-.258m-17.203.002q.234.384.234.862-.002.698-.496 1.19a1.62 1.62 0 0 1-1.187.495q-.48 0-.864-.234.106.172.256.324.495.493 1.194.494.694-.001 1.185-.494.495-.493.496-1.19 0-.695-.496-1.19a1.7 1.7 0 0 0-.322-.257m8.601 4.533q.235.386.235.866 0 .695-.494 1.19a1.62 1.62 0 0 1-1.186.493q-.481 0-.865-.232.106.172.258.324.493.49 1.191.492.695-.002 1.188-.492a1.63 1.63 0 0 0 .492-1.191q0-.697-.492-1.19a1.8 1.8 0 0 0-.327-.26m4.301 0q.235.386.235.866 0 .695-.493 1.19-.494.492-1.189.493-.48 0-.861-.232.103.172.256.324c.33.326.723.492 1.191.492q.696-.002 1.187-.492.495-.496.495-1.191 0-.697-.495-1.19a1.7 1.7 0 0 0-.326-.26m4.303 0q.234.386.234.866 0 .695-.494 1.19a1.62 1.62 0 0 1-1.187.493q-.48 0-.864-.232.106.172.258.324.492.49 1.19.492.695-.002 1.19-.492a1.63 1.63 0 0 0 .491-1.191q0-.697-.492-1.19a1.8 1.8 0 0 0-.326-.26m-25.809.002q.235.383.235.864-.001.695-.494 1.19-.493.492-1.19.493-.48 0-.861-.232.103.172.254.324.495.49 1.193.492.696-.002 1.188-.492.495-.496.496-1.191 0-.697-.496-1.19a1.8 1.8 0 0 0-.325-.258m4.301 0q.236.383.237.864 0 .695-.497 1.19a1.62 1.62 0 0 1-1.187.493q-.481 0-.865-.232.105.172.258.324.492.49 1.19.492c.466 0 .858-.166 1.188-.492q.495-.496.497-1.191-.002-.697-.497-1.19a1.8 1.8 0 0 0-.324-.258m4.303 0q.234.386.234.864-.002.695-.496 1.19a1.62 1.62 0 0 1-1.187.493q-.481 0-.866-.234.107.174.258.326.495.49 1.194.492.694-.002 1.185-.492.495-.496.496-1.191 0-.697-.496-1.19a1.8 1.8 0 0 0-.322-.258m4.3 0q.233.383.233.864 0 .695-.492 1.19-.493.492-1.188.493-.481 0-.865-.234.106.174.258.326.493.49 1.191.492.697-.002 1.188-.492.493-.496.494-1.191-.001-.697-.494-1.19a1.8 1.8 0 0 0-.324-.258m4.301 4.534q.235.384.235.865 0 .695-.494 1.19a1.62 1.62 0 0 1-1.186.493q-.481 0-.865-.232.106.172.258.324.493.491 1.191.492.695 0 1.188-.492.492-.494.492-1.191 0-.696-.492-1.19a1.8 1.8 0 0 0-.327-.26m4.301 0q.235.384.235.865 0 .695-.493 1.19-.494.492-1.189.493-.48 0-.861-.232.103.172.256.324c.33.327.723.492 1.191.492q.696 0 1.187-.492.495-.494.495-1.191 0-.696-.495-1.19a1.7 1.7 0 0 0-.326-.26m-17.205.002q.236.382.237.863 0 .696-.497 1.19a1.62 1.62 0 0 1-1.187.493q-.481 0-.865-.232.105.172.258.324.492.491 1.19.492c.466 0 .858-.165 1.188-.492a1.63 1.63 0 0 0 .497-1.191q-.002-.696-.497-1.19a1.8 1.8 0 0 0-.324-.257m4.303 0q.234.385.234.863-.002.696-.496 1.19a1.62 1.62 0 0 1-1.187.493q-.481 0-.866-.234.107.175.258.326.495.491 1.194.492.694 0 1.185-.492.495-.494.496-1.191 0-.696-.496-1.19a1.8 1.8 0 0 0-.322-.257m4.3 0q.233.382.233.863 0 .696-.492 1.19-.493.493-1.188.493-.481 0-.865-.234.106.175.258.326.493.491 1.191.492.697 0 1.188-.492.493-.494.494-1.191-.001-.696-.494-1.19a1.8 1.8 0 0 0-.324-.257m4.301 4.533q.235.385.235.865 0 .696-.494 1.19a1.62 1.62 0 0 1-1.186.494q-.481 0-.865-.233.106.172.258.324c.328.327.726.495 1.191.495a1.63 1.63 0 0 0 1.188-.495q.492-.492.492-1.191 0-.696-.492-1.19a1.8 1.8 0 0 0-.327-.26m-8.601.002q.234.385.234.863-.002.696-.496 1.19a1.62 1.62 0 0 1-1.187.494q-.481 0-.866-.235.107.175.258.326c.33.327.728.495 1.194.495.463 0 .857-.168 1.185-.495a1.62 1.62 0 0 0 .496-1.19q0-.698-.496-1.19a1.8 1.8 0 0 0-.322-.258m4.3 0q.233.383.233.863 0 .696-.492 1.19-.493.493-1.188.494-.481 0-.865-.235.106.175.258.326c.328.327.726.495 1.191.495s.86-.168 1.188-.495q.493-.492.494-1.19-.001-.698-.494-1.19a1.8 1.8 0 0 0-.324-.258"/><path fill="#64a2f1" d="M19.387 12.814q-.7-.001-1.192.493a1.62 1.62 0 0 0-.492 1.19q0 .695.492 1.189.154.154.328.26.385.234.864.234.696-.001 1.187-.494c.328-.329.496-.726.496-1.19q0-.48-.236-.863a1.7 1.7 0 0 0-.26-.326 1.6 1.6 0 0 0-1.187-.493m4.302 0q-.698-.001-1.191.493-.494.492-.492 1.19-.002.695.492 1.189.152.154.326.26.384.234.865.234.695-.001 1.188-.494.492-.494.492-1.19a1.62 1.62 0 0 0-.492-1.19 1.61 1.61 0 0 0-1.188-.492m4.303 0a1.62 1.62 0 0 0-1.193.493 1.62 1.62 0 0 0-.492 1.19q0 .695.492 1.189.155.155.33.261.382.233.863.233.695-.001 1.186-.494.494-.494.494-1.19a1.62 1.62 0 0 0-.494-1.19 1.6 1.6 0 0 0-1.186-.492M10.783 17.35q-.697-.002-1.19.492-.494.493-.493 1.19 0 .696.494 1.19.151.154.328.26.38.233.861.233.697-.002 1.19-.492.493-.494.494-1.192a1.62 1.62 0 0 0-.494-1.19 1.62 1.62 0 0 0-1.19-.491m4.303 0q-.698-.002-1.193.492a1.62 1.62 0 0 0-.49 1.19q-.002.696.49 1.19.154.154.328.26.383.233.865.233.696-.002 1.187-.492.496-.494.497-1.192a1.62 1.62 0 0 0-.497-1.19 1.6 1.6 0 0 0-1.187-.491m17.205 0q-.698-.002-1.19.492-.493.493-.492 1.19-.002.696.493 1.19.151.154.328.26.38.233.861.233.695-.002 1.19-.492.492-.494.492-1.192a1.62 1.62 0 0 0-.493-1.19 1.62 1.62 0 0 0-1.189-.491m4.303 0c-.468 0-.862.162-1.192.492a1.62 1.62 0 0 0-.49 1.19q-.001.696.49 1.19.154.154.328.26.383.233.864.233.696-.002 1.187-.492.495-.494.494-1.192a1.62 1.62 0 0 0-.494-1.19 1.6 1.6 0 0 0-1.187-.491m-25.81 4.535a1.62 1.62 0 0 0-1.19.492q-.495.493-.494 1.19 0 .698.494 1.19.154.156.328.263.38.232.861.232c.466 0 .86-.168 1.19-.494q.493-.492.494-1.192a1.63 1.63 0 0 0-.494-1.189 1.62 1.62 0 0 0-1.19-.492m4.302 0q-.698 0-1.193.492a1.62 1.62 0 0 0-.49 1.19q-.002.698.49 1.19.154.156.33.263.38.232.863.232c.464 0 .86-.168 1.187-.494a1.62 1.62 0 0 0 .497-1.192q0-.477-.239-.863a1.7 1.7 0 0 0-.258-.326 1.62 1.62 0 0 0-1.187-.492m4.3 0q-.698 0-1.19.492a1.62 1.62 0 0 0-.493 1.19q0 .698.492 1.19.154.155.328.26.385.235.864.235c.465 0 .859-.168 1.187-.494.328-.328.496-.726.496-1.192a1.62 1.62 0 0 0-.496-1.189 1.62 1.62 0 0 0-1.187-.492m8.606 0q-.7 0-1.193.492a1.62 1.62 0 0 0-.492 1.19q0 .698.492 1.19.155.156.33.263.382.232.863.232c.464 0 .858-.168 1.186-.494q.494-.492.494-1.192 0-.48-.236-.863a1.7 1.7 0 0 0-.258-.326 1.61 1.61 0 0 0-1.186-.492m4.299 0a1.62 1.62 0 0 0-1.19.492q-.493.493-.492 1.19-.002.698.493 1.19.153.156.328.263.38.232.861.232c.464 0 .86-.168 1.19-.494q.492-.492.492-1.192a1.62 1.62 0 0 0-.493-1.189 1.63 1.63 0 0 0-1.189-.492m4.303 0c-.468 0-.862.164-1.192.492a1.62 1.62 0 0 0-.49 1.19q-.001.698.49 1.19.155.156.33.263.38.232.862.232c.463 0 .86-.168 1.187-.494q.495-.492.494-1.192 0-.48-.236-.863a1.7 1.7 0 0 0-.258-.326 1.62 1.62 0 0 0-1.187-.492m-25.81 4.535q-.698.002-1.19.492-.495.494-.494 1.192 0 .695.494 1.189.151.155.328.262.38.232.861.232.697-.001 1.19-.494t.494-1.19a1.62 1.62 0 0 0-.494-1.19 1.63 1.63 0 0 0-1.19-.493m4.302 0q-.698.002-1.193.492-.492.494-.49 1.192-.002.695.49 1.189.154.155.328.262.383.232.865.232.696-.001 1.187-.494.496-.493.497-1.19 0-.48-.237-.863a1.7 1.7 0 0 0-.26-.328 1.63 1.63 0 0 0-1.187-.492m4.3 0q-.698.002-1.19.492-.493.494-.493 1.192 0 .695.492 1.189.152.153.326.26.384.234.866.234.696-.001 1.187-.494c.328-.328.496-.726.496-1.19a1.63 1.63 0 0 0-.496-1.19 1.62 1.62 0 0 0-1.187-.493m8.606 0q-.7.002-1.193.492-.492.494-.492 1.192 0 .695.492 1.189.154.155.328.262.385.232.865.232.695-.001 1.186-.494.494-.493.494-1.19a1.63 1.63 0 0 0-.494-1.19 1.62 1.62 0 0 0-1.186-.493m4.299 0q-.698.002-1.19.492a1.62 1.62 0 0 0-.492 1.192q-.002.695.493 1.189.151.155.328.262.38.232.861.232.695-.001 1.19-.494.492-.493.492-1.19a1.63 1.63 0 0 0-.493-1.19 1.63 1.63 0 0 0-1.189-.493m4.303 0c-.468 0-.862.166-1.192.492q-.491.494-.49 1.192-.001.695.49 1.189.154.155.328.262.383.232.864.232.696-.001 1.187-.494.495-.493.494-1.19a1.63 1.63 0 0 0-.494-1.19 1.63 1.63 0 0 0-1.187-.493m-21.508 4.537q-.698 0-1.193.49-.492.494-.49 1.192-.002.695.49 1.19.154.154.328.26.383.233.865.233.696-.001 1.187-.494.496-.493.497-1.19 0-.48-.237-.863a1.7 1.7 0 0 0-.26-.328 1.62 1.62 0 0 0-1.187-.49m4.3 0a1.63 1.63 0 0 0-1.19.49q-.493.494-.493 1.192 0 .695.492 1.19.152.151.326.259.384.234.866.234.696-.001 1.187-.494c.328-.328.496-.726.496-1.19a1.63 1.63 0 0 0-.496-1.19 1.62 1.62 0 0 0-1.187-.491m8.606 0q-.7 0-1.193.49-.492.494-.492 1.192 0 .695.492 1.19.154.154.328.26.385.233.865.233.695-.001 1.186-.494.494-.493.494-1.19a1.63 1.63 0 0 0-.494-1.19 1.62 1.62 0 0 0-1.186-.491m4.299 0q-.698 0-1.19.49a1.62 1.62 0 0 0-.492 1.192q-.002.695.493 1.19.151.154.328.26.38.233.861.233.695-.001 1.19-.494.492-.493.492-1.19a1.63 1.63 0 0 0-.493-1.19 1.63 1.63 0 0 0-1.189-.491m-4.299 4.535q-.7 0-1.193.49a1.63 1.63 0 0 0-.492 1.192q0 .695.492 1.19.154.154.328.261.385.232.865.232.695-.001 1.186-.494.494-.493.494-1.19a1.63 1.63 0 0 0-.494-1.19 1.62 1.62 0 0 0-1.186-.49"/></svg>