<svg xmlns="http://www.w3.org/2000/svg" xmlns:xlink="http://www.w3.org/1999/xlink" width="48" height="48"><defs><linearGradient xlink:href="#a" id="c" x1="17.25" x2="17.25" y1="29.643" y2="3.056" gradientTransform="translate(-.46 -.637)scale(1.44392)" gradientUnits="userSpaceOnUse"/><linearGradient id="a"><stop offset="0" style="stop-color:#55bcf2;stop-opacity:1"/><stop offset="1" style="stop-color:#1a80e2;stop-opacity:1"/></linearGradient></defs><rect width="42" height="42" x="3" y="3" rx="21" ry="21" style="fill:url(#c);fill-opacity:1;stroke-width:3.88082;stroke-linecap:round;stroke-linejoin:round"/><path d="M38.165 15.217a11.6 11.6 0 0 1-3.337.915 5.84 5.84 0 0 0 2.554-3.213 11.7 11.7 0 0 1-3.692 1.41 5.8 5.8 0 0 0-4.242-1.835 5.812 5.812 0 0 0-5.661 7.134 16.5 16.5 0 0 1-11.978-6.072 5.77 5.77 0 0 0-.786 2.921 5.81 5.81 0 0 0 2.584 4.837 5.8 5.8 0 0 1-2.632-.73v.073a5.82 5.82 0 0 0 4.661 5.698c-.487.131-1 .204-1.531.204q-.561 0-1.094-.108a5.815 5.815 0 0 0 5.428 4.036 11.66 11.66 0 0 1-7.218 2.484q-.704-.001-1.386-.08a16.43 16.43 0 0 0 8.908 2.615c10.69 0 16.535-8.855 16.535-16.534l-.02-.753a11.6 11.6 0 0 0 2.907-3.002" style="fill:#fff;fill-opacity:1;stroke-width:.200126"/></svg>
