<svg xmlns="http://www.w3.org/2000/svg" xmlns:xlink="http://www.w3.org/1999/xlink" width="48" height="48"><defs><linearGradient id="a"><stop offset="0" style="stop-color:#d5d5d5;stop-opacity:1"/><stop offset="1" style="stop-color:#c4c4c4;stop-opacity:0"/></linearGradient><linearGradient id="e" x1="80.368" x2="82.141" y1="13.177" y2="14.704" gradientTransform="matrix(2.6634 0 0 2.68624 -180.667 -4.626)" gradientUnits="userSpaceOnUse"><stop offset="0" stop-color="#fafafa"/><stop offset="1" stop-color="#90a0b3"/></linearGradient><linearGradient xlink:href="#a" id="c" x1="16.424" x2="44.089" y1="5.357" y2="23.458" gradientUnits="userSpaceOnUse"/><filter id="b" width="1.189" height="1.181" x="-.094" y="-.09" color-interpolation-filters="sRGB"><feGaussianBlur stdDeviation=".398"/></filter><filter id="d" width="1.128" height="1.113" x="-.064" y="-.057" color-interpolation-filters="sRGB"><feGaussianBlur stdDeviation=".227"/></filter></defs><ellipse cx="23.832" cy="24.109" fill="#f3f3f3" color="#000" rx="20.655" ry="20.832" style="fill:#ccc;fill-opacity:1"/><path fill="#9cb8d7" d="M57.641 9.825c.816 3.562-6.407 9.598-9.879 10.551l4.69-.01c4.099-2.626 3.513-2.28 5.435-4.445z" filter="url(#b)" opacity=".2" transform="matrix(2.31532 0 0 2.55417 -91.238 -9.877)"/><path fill="#fafafa" d="M23.655 3A20.655 20.952 0 0 0 3 23.953a20.655 20.952 0 0 0 14.411 19.964l1.387-.159c9.777-2.728 23.54-11.168 24.084-27.453A20.655 20.952 0 0 0 23.655 3Zm19.274 13.431 1.159 10.406a20.655 20.952 0 0 0 .001-.006l-1.156-10.388a20.655 20.952 0 0 0-.004-.012z" color="#000" style="fill:url(#c)"/><path fill="none" stroke="#dcdcdc" stroke-width=".495" d="m4.46 27.607 36.842-4.259M6.522 33.417l29.58-3.225M3.362 21.483l38.513-4.387M37.313 30.137l4.683-.536" style="stroke:gray;stroke-opacity:1"/><path fill="#141414" d="M57.818 9.829s.054 3.078-2.664 4.54c-2.245 1.209.939 2.69-5.86 5.1 8.851-2.575 8.524-9.64 8.524-9.64" filter="url(#d)" opacity=".3" transform="matrix(2.86142 0 0 2.70881 -122.26 -9.212)"/><path fill="#141414" d="M57.818 9.829s.054 3.078-2.664 4.54c-2.245 1.209.939 2.69-5.86 5.1 8.851-2.575 8.524-9.64 8.524-9.64" filter="url(#d)" opacity=".3" transform="matrix(2.7805 0 0 2.6131 -117.313 -7.447)"/><path fill="url(#e)" d="M42.299 17.146s.142 8.269-7.095 12.198c-5.979 3.246 2.5 7.223-15.607 13.697 23.572-6.917 22.888-25.8 22.888-25.8z" style="fill:url(#e)"/><path fill="none" stroke="#fafafa" stroke-width=".354" d="M42.299 17.146s-.503 8.402-6.675 11.844c-7.1 3.96 2.585 7.498-16.122 13.906"/><path fill="#fafafa" d="m42.928 16.431 1.16 10.405a20.655 20.952 0 0 0 0-.005l-1.156-10.388a20.655 20.952 0 0 0-.003-.012z" color="#000"/><path d="M32.655 10 10.7 11.936l.246 9.079 1.576-.14c.095-1.856.326-2.589.662-3.801.714-2.798 2.456-3.145 4.949-3.365 1.21-.107 1.698-.435 1.778.482l1.667 18.923c.165 1.87.171 1.944-.02 2.293-.26.393-.944.601-3.033.785l-.953.084.151 1.724 12.572-1.108-.152-1.724-.952.084c-2.053.18-2.762.096-3.088-.245-.249-.31-.255-.384-.42-2.255L24.016 13.83c-.08-.917.458-.68 1.667-.786 2.236-.197 4.04-.273 5.15 1.847.669 1.308 1.114 2.166 1.59 4.231L34 18.982Z" style="font-size:362.163px;font-family:C059;-inkscape-font-specification:C059;fill:#2c2c2c;fill-opacity:1;stroke-width:.174367"/></svg>