<svg xmlns="http://www.w3.org/2000/svg" xmlns:xlink="http://www.w3.org/1999/xlink" width="48" height="48"><defs><linearGradient id="a"><stop offset="0" style="stop-color:#1fb6ca;stop-opacity:1"/><stop offset="1" style="stop-color:#5a7ddf;stop-opacity:1"/></linearGradient><linearGradient id="b"><stop offset="0" style="stop-color:#fff;stop-opacity:1"/><stop offset="1" style="stop-color:#f7f7f7;stop-opacity:1"/></linearGradient><linearGradient id="c"><stop offset="0" style="stop-color:#d1edf9;stop-opacity:1"/><stop offset="1" style="stop-color:#16a1c3;stop-opacity:1"/></linearGradient><linearGradient id="d"><stop offset="0" style="stop-color:#e6effc;stop-opacity:1"/><stop offset="1" style="stop-color:#2293e0;stop-opacity:1"/></linearGradient><linearGradient id="e"><stop offset="0" style="stop-color:#d7ebf9;stop-opacity:1"/><stop offset="1" style="stop-color:#2782e4;stop-opacity:1"/></linearGradient><linearGradient id="f"><stop offset="0" style="stop-color:#dae3fc;stop-opacity:1"/><stop offset="1" style="stop-color:#ccf5fa;stop-opacity:1"/></linearGradient><linearGradient xlink:href="#a" id="g" x1="6.718" x2="9.319" y1="283.855" y2="294.403" gradientTransform="matrix(3.77953 0 0 3.77953 -7.332 -1125.245)" gradientUnits="userSpaceOnUse"/><linearGradient xlink:href="#b" id="h" x1="8.624" x2="8.6" y1="279.395" y2="297.491" gradientTransform="matrix(3.77953 0 0 3.77953 -7.332 -1125.245)" gradientUnits="userSpaceOnUse"/><linearGradient xlink:href="#c" id="i" x1="6.715" x2="8.502" y1="286.898" y2="284.041" gradientTransform="matrix(3.77953 0 0 3.77953 -6.39 -1124.494)" gradientUnits="userSpaceOnUse"/><linearGradient xlink:href="#d" id="j" x1="-150.295" x2="-148.714" y1="249.848" y2="244.08" gradientTransform="matrix(3.77953 0 0 3.77953 573.357 -967.362)" gradientUnits="userSpaceOnUse"/><linearGradient xlink:href="#e" id="k" x1="7.117" x2="11.895" y1="289.21" y2="287.117" gradientTransform="matrix(3.77953 0 0 3.77953 -6.39 -1124.494)" gradientUnits="userSpaceOnUse"/><linearGradient xlink:href="#f" id="l" x1="12.483" x2="8.34" y1="291.488" y2="283.157" gradientTransform="matrix(3.77953 0 0 3.77953 -6.39 -1124.494)" gradientUnits="userSpaceOnUse"/></defs><g transform="matrix(.6827 0 0 .6827 6.967 47.513)"><circle cx="24.949" cy="-34.441" r="29.215" style="fill:url(#g);fill-opacity:1;stroke:none;stroke-width:3.09001;stroke-linecap:round;stroke-miterlimit:4;stroke-dasharray:none;stroke-dashoffset:0;stroke-opacity:1"/><circle cx="24.949" cy="-34.441" r="29.215" style="fill:none;fill-opacity:1;stroke:url(#h);stroke-width:3.09001;stroke-linecap:round;stroke-miterlimit:4;stroke-dasharray:none;stroke-dashoffset:0;stroke-opacity:1"/><path d="m27.53-53.44-.485-.282c-1.977-1.157-4.593-.372-5.83 1.779l-4.31 7.492c-1.237 2.151-.669 4.798 1.308 5.954l.485.283c1.977 1.156 4.592.372 5.83-1.78l4.31-7.492c1.237-2.15.669-4.797-1.308-5.953z" style="fill:url(#i);fill-opacity:1;stroke-width:.124239;stroke-linecap:round;stroke-linejoin:round"/><rect width="8.825" height="17.083" x="-1.05" y="-37.307" rx="4.413" ry="4.592" style="fill:url(#j);fill-opacity:1;stroke-width:.124239;stroke-linecap:round;stroke-linejoin:round" transform="scale(-1 1)rotate(-30.33)"/><path d="M14.668-36.347c-2.062.091-2.764.64-3.249 1.453-1.405 2.434-3.184 5.399-4.265 7.271-.253.437-.426.73-.66 1.135 1.31-1.311 3.253-1.103 4.143-1.103h32.767l-10.693-8.756z" style="fill:url(#k);fill-opacity:1;stroke:none;stroke-width:.328718px;stroke-linecap:butt;stroke-linejoin:miter;stroke-opacity:1"/><path d="M25.131-54.292a3.9 3.9 0 0 0-1.976.53l-.484.284c-.539.314-.97.743-1.293 1.24-1.04 1.777-2.155 3.774-3.21 5.634 1.167-1.115 2.294-1.687 3.308-.727l15.717 26.877c1.252 2.142 3.853 2.935 5.83 1.78l.484-.284c1.977-1.156 2.561-3.811 1.309-5.954l-15.83-27.07c-.862-1.473-2.36-2.308-3.855-2.31" style="fill:url(#l);fill-opacity:1;stroke-width:.124239;stroke-linecap:round;stroke-linejoin:round"/></g></svg>