<svg xmlns="http://www.w3.org/2000/svg" xmlns:xlink="http://www.w3.org/1999/xlink" width="48" height="48"><defs><linearGradient id="a" x2="0" y1="543.8" y2="513.8" gradientTransform="matrix(1.125 0 0 1 -51.07 0)" gradientUnits="userSpaceOnUse"><stop stop-color="#a40"/><stop offset="1" stop-color="#f95"/></linearGradient><linearGradient xlink:href="#a" id="e" x2="0" y1="44" y2="11" gradientUnits="userSpaceOnUse"/><linearGradient id="i" x2="0" y1="10" y2="14" gradientUnits="userSpaceOnUse"><stop stop-color="#1d1e1e"/><stop offset="1" stop-color="#44484c"/></linearGradient><linearGradient xlink:href="#a" id="h" x2="0" y1="14" y2="10" gradientUnits="userSpaceOnUse"/><linearGradient xlink:href="#a" id="j" x2="0" y1="516.8" y2="503.8" gradientTransform="translate(-384.57 -499.8)" gradientUnits="userSpaceOnUse"/><linearGradient id="b" x2="0" y1="18" y2="15" gradientUnits="userSpaceOnUse"><stop stop-color="#c6cdd1"/><stop offset="1" stop-color="#e0e5e7"/></linearGradient><linearGradient xlink:href="#b" id="k" x2="0" y1="517.8" y2="514.8" gradientTransform="translate(-384.57 -499.8)" gradientUnits="userSpaceOnUse"/><linearGradient id="d" x1="16" x2="32" y1="23" y2="39" gradientTransform="translate(45.881 -11.424)" gradientUnits="userSpaceOnUse"><stop stop-color="#292c2f"/><stop offset="1" stop-opacity="0"/></linearGradient><linearGradient xlink:href="#b" id="l" x2="0" y1="18" y2="15" gradientUnits="userSpaceOnUse"/><linearGradient xlink:href="#a" id="f" x2="0" y1="543.8" y2="513.8" gradientTransform="matrix(1.125 0 0 1 -435.64 -499.8)" gradientUnits="userSpaceOnUse"/><linearGradient xlink:href="#c" id="n" x1="-19.255" x2="-19.255" y1="22.296" y2="-2.488" gradientTransform="matrix(.8 0 0 .8 27.464 22.85)" gradientUnits="userSpaceOnUse"/><linearGradient id="c" x2="0" y1="19" y2="3" gradientTransform="translate(13 18)" gradientUnits="userSpaceOnUse"><stop stop-color="#f95"/><stop offset="1" stop-color="#f4fcff"/></linearGradient><linearGradient xlink:href="#d" id="m" x1="27.555" x2="46.062" y1="15.555" y2="34.062" gradientUnits="userSpaceOnUse"/><path id="g" fill-rule="evenodd" d="m10 10-1 1 1 1-4 2h36l-4-2 1-1-1-1H24z"/></defs><path d="M9 11v2l1-1zm30 0-1 1 1 1z" style="fill:url(#e);fill-rule:evenodd"/><path d="M6 14v23.844A6.143 6.143 0 0 0 12.156 44h23.688A6.143 6.143 0 0 0 42 37.844V14H12.156Z" style="fill:url(#f)"/><use xlink:href="#g" width="100%" height="100%" style="fill:url(#h)"/><use xlink:href="#g" width="100%" height="100%" style="opacity:.6;fill:url(#i)"/><path d="m10 10-1 1h30l-1-1H24Z" style="opacity:.2"/><path d="M16 17v-5c0-4.432 3.568-8 8-8s8 3.568 8 8v5h-1v-5c0-3.878-3.122-7-7-7s-7 3.122-7 7v5z" style="fill:url(#j)"/><path d="M16.501 14.998a1.5 1.5 0 0 1 1.5 1.5 1.5 1.5 0 0 1-1.5 1.5 1.5 1.5 0 0 1-1.5-1.5 1.5 1.5 0 0 1 1.5-1.5m0 1a.5.5 0 0 0-.5.5.5.5 0 0 0 .5.5.5.5 0 0 0 .5-.5.5.5 0 0 0-.5-.5" style="fill:url(#k)"/><path d="M31.5 15a1.5 1.5 0 0 0-1.5 1.5 1.5 1.5 0 0 0 1.5 1.5 1.5 1.5 0 0 0 1.5-1.5 1.5 1.5 0 0 0-1.5-1.5m0 1a.5.5 0 0 1 .5.5.5.5 0 0 1-.5.5.5.5 0 0 1-.5-.5.5.5 0 0 1 .5-.5" style="fill:url(#l)"/><path d="M42 36.725a6.143 6.143 0 0 1-6.156 6.156H12.156A6.143 6.143 0 0 1 6 36.725v1.119A6.143 6.143 0 0 0 12.156 44h23.688A6.143 6.143 0 0 0 42 37.844Z" style="fill:#803300"/><path d="M22 44h13.844a6 6 0 0 0 .613-.03 6 6 0 0 0 .607-.09 6 6 0 0 0 .596-.151 6 6 0 0 0 .576-.21 6 6 0 0 0 .555-.265 6 6 0 0 0 .523-.32 6 6 0 0 0 .49-.37 6 6 0 0 0 .45-.418 6 6 0 0 0 .406-.46 6 6 0 0 0 .36-.498 6 6 0 0 0 .306-.534 6 6 0 0 0 .252-.558 6 6 0 0 0 .195-.582 6 6 0 0 0 .135-.6 6 6 0 0 0 .076-.61 6 6 0 0 0 .016-.46V37.6L26.4 22l-4.52.434-.28 5.166 4.191 4.191L24.006 34l3.674 3.686-8.957-.163L16.8 35.6 16 38Z" style="opacity:.2;fill:url(#m)"/><path d="M21.6 22v5.6h.8v-4.8h3.2v4.8h.8V22Zm-2.634 5.84-.566.566 3.434 3.435.007-.007L24.006 34l2.16-2.16 3.434-3.433-.566-.565-3.434 3.433-1.6 1.6-1.6-1.6zM16 35.6V38h16v-2.4h-.8v1.6H16.8v-1.6z" style="fill:url(#n)"/></svg>