<svg xmlns="http://www.w3.org/2000/svg" xmlns:xlink="http://www.w3.org/1999/xlink" width="32" height="32"><defs><linearGradient id="a"><stop offset="0" style="stop-color:#cd1f03;stop-opacity:1"/><stop offset="1" style="stop-color:#d94460;stop-opacity:1"/></linearGradient><linearGradient id="d"><stop offset="0" style="stop-color:#000;stop-opacity:.145"/><stop offset="1" style="stop-color:#000;stop-opacity:0"/></linearGradient><linearGradient id="e"><stop offset="0" style="stop-color:#cd1f03;stop-opacity:1"/><stop offset="1" style="stop-color:#d94460;stop-opacity:1"/></linearGradient><linearGradient xlink:href="#e" id="h" x1="394.346" x2="383.146" y1="545.128" y2="533.928" gradientTransform="matrix(1.92262 0 0 1.92262 -735.534 -1038.172)" gradientUnits="userSpaceOnUse"/><linearGradient xlink:href="#d" id="g" x1="5.887" x2="31.688" y1="24.047" y2="48.456" gradientTransform="matrix(1.34584 0 0 1.34584 -2.923 -47.364)" gradientUnits="userSpaceOnUse"/><linearGradient xlink:href="#a" id="f" x1="394.346" x2="383.146" y1="545.128" y2="533.928" gradientTransform="translate(-661.514 -934.606)scale(1.7316)" gradientUnits="userSpaceOnUse"/></defs><g transform="translate(0 16)"><rect width="28" height="28" x="2" y="-14" rx="1" ry="1" style="fill:url(#f);color:#000;clip-rule:nonzero;display:inline;overflow:visible;visibility:visible;opacity:1;isolation:auto;mix-blend-mode:normal;color-interpolation:sRGB;color-interpolation-filters:linearRGB;solid-color:#000;solid-opacity:1;fill-opacity:1;fill-rule:nonzero;stroke:none;stroke-width:1;stroke-linecap:butt;stroke-linejoin:miter;stroke-miterlimit:4;stroke-dasharray:none;stroke-dashoffset:0;stroke-opacity:1;marker:none;filter-blend-mode:normal;filter-gaussianBlur-deviation:0;color-rendering:auto;image-rendering:auto;shape-rendering:auto;text-rendering:auto"/><path d="M4-12h24v24H4z" style="color:#000;display:inline;overflow:visible;visibility:visible;fill:#f5d66c;fill-opacity:1;fill-rule:nonzero;stroke:none;stroke-width:1;marker:none"/><path d="m16.96-9.553 1.55 1.55 4.678 1.746 4.805 4.812-.058 13.382-12.11.012-4.117-3.991-.237-1.724-4.64-4.58 1.963-5.77 2.558-2.439 4.877-1.606Z" style="color:#000;display:inline;overflow:visible;visibility:visible;fill:url(#g);fill-opacity:1;fill-rule:nonzero;stroke:none;stroke-width:1px;marker:none"/><path d="m15.916-8.937-.006.612c-1.695.128-3.313.525-4.775 1.35C8.647-5.647 6.958-1.79 6.865.894c.005.245-.052.52.047.746.237.306.803.397 1.053.057C8.61.953 9.608.433 10.655.485c.979-.05 1.883.48 2.454 1.191.207.27.644.341.914.117.324-.304.612-.656 1.01-.889.285-.177.6-.303.934-.363.058 2.337-.002 3.368.01 5.706.02.386-.08.77-.352 1.066-.482.61-1.43.836-2.158.483a1.67 1.67 0 0 1-.986-1.414c-.029-.292-.235-.592-.576-.612-.382-.049-.72.29-.667.64-.023 1.281 1.067 2.44 2.394 2.682 1.427.298 2.991-.539 3.442-1.83.256-.696.119-1.444.162-2.165.012-1.957-.029-2.606.03-4.563.785.151 1.418.672 1.904 1.235.276.248.76.192.966-.11.46-.564 1.118-1.014 1.875-1.134.979-.188 1.977.173 2.716.764.29.182.504.481.83.608.421.124.93-.236.823-.662.013-2.494-1.326-6.242-3.471-7.71-1.487-1.032-3.3-1.617-5.139-1.795-.17-.029-.345-.018-.496-.06l-.012-.607c.007-.928-1.318-.915-1.346 0m6.54 3.96c.833.635 1.955 2.825 2.23 4.317-.821-.483-1.498-.481-2.48-.39-.979.064-1.903.856-2.604 1.487-.844-.764-2.016-1.575-3.205-1.492-1.038.025-2.02.475-2.767 1.131C12.498-.969 10.721-1.35 9.207-.86c-.33.1-.675.146-.706-.136.414-1.96 2.738-4.309 3.63-4.818.93-.48 2.911-1.226 4.555-1.166 2.148-.112 4.829 1.138 5.77 2.004" style="color:#000;display:inline;overflow:visible;visibility:visible;fill:url(#h);fill-opacity:1;fill-rule:nonzero;stroke:none;stroke-width:1;marker:none"/><path d="M3-14c-.554 0-1 .446-1 1v1c0-.554.446-1 1-1h26c.554 0 1 .446 1 1v-1c0-.554-.446-1-1-1z" style="color:#000;clip-rule:nonzero;display:inline;overflow:visible;visibility:visible;opacity:.3;isolation:auto;mix-blend-mode:normal;color-interpolation:sRGB;color-interpolation-filters:linearRGB;solid-color:#000;solid-opacity:1;fill:#fff;fill-opacity:1;fill-rule:nonzero;stroke-width:1;stroke-linecap:butt;stroke-linejoin:miter;stroke-miterlimit:4;stroke-dasharray:none;stroke-dashoffset:0;stroke-opacity:1;color-rendering:auto;image-rendering:auto;shape-rendering:auto;text-rendering:auto"/><path d="M3 14c-.554 0-1-.446-1-1v-1c0 .554.446 1 1 1h26c.554 0 1-.446 1-1v1c0 .554-.446 1-1 1z" style="color:#000;clip-rule:nonzero;display:inline;overflow:visible;visibility:visible;opacity:.3;isolation:auto;mix-blend-mode:normal;color-interpolation:sRGB;color-interpolation-filters:linearRGB;solid-color:#000;solid-opacity:1;fill:#000;fill-opacity:1;fill-rule:nonzero;stroke-width:1;stroke-linecap:butt;stroke-linejoin:miter;stroke-miterlimit:4;stroke-dasharray:none;stroke-dashoffset:0;stroke-opacity:1;color-rendering:auto;image-rendering:auto;shape-rendering:auto;text-rendering:auto"/></g></svg>