<svg xmlns="http://www.w3.org/2000/svg" xmlns:xlink="http://www.w3.org/1999/xlink" width="48" height="48"><defs><linearGradient id="a" x2="0" y1="543.8" y2="515.8" gradientTransform="matrix(1.125 0 0 1 -51.07 0)" gradientUnits="userSpaceOnUse"><stop stop-color="#1d1e1e"/><stop offset="1" stop-color="#44484c"/></linearGradient><linearGradient id="c" x2="0" y1="525.8" y2="503.8" gradientTransform="translate(-384.57 -499.8)" gradientUnits="userSpaceOnUse"><stop stop-color="#c6cdd1"/><stop offset="1" stop-color="#e0e5e7"/></linearGradient><linearGradient id="d" x1="5" x2="27" y1="14" y2="36" gradientUnits="userSpaceOnUse"><stop stop-color="#383e51"/><stop offset="1" stop-color="#655c6f" stop-opacity="0"/></linearGradient><linearGradient xlink:href="#a" id="b" x2="0" y1="543.8" y2="515.8" gradientTransform="matrix(1.16129 0 0 1 -449.95 -499.8)" gradientUnits="userSpaceOnUse"/></defs><path d="M8 26v11.65A6.33 6.33 0 0 0 14.35 44h19.3A6.33 6.33 0 0 0 40 37.65V26Z" style="fill:url(#b)"/><path d="M11 4h26v22H11Z" style="fill:url(#c)"/><path d="m22 11-7 7 24 24.25V26.002h-2v-11l-4-4h-7v4z" style="opacity:.2;fill:url(#d);fill-rule:evenodd"/><path d="M15 11h7v7h-7zm11 0h7v7h-7z" style="fill:#202224;stroke-width:2.79999995;stroke-opacity:.55"/><path d="M17 11h3v7h-3zm11 0h3v7h-3z" style="fill:#fdbc4a;stroke-width:2.79999995;stroke-opacity:.55"/><path d="m25.53 32-1.336 1.336-3.227.59 1.318 1.318-1.256 1.256 1.5 1.5 1.256-1.256L25.04 38l.619-3.13 1.37-1.37z" style="opacity:.2;fill:#f2f2f2;fill-rule:evenodd"/></svg>