<svg xmlns="http://www.w3.org/2000/svg" width="48" height="48"><g transform="translate(-3.5 -3.877)"><rect width="42" height="42" x="6.5" y="6.476" rx="21" ry="21" style="fill:#4791ce;stroke-width:.750002"/><path d="M15.514 10.192c-3.56 2.84-4.258 3.54-6.22 6.83h6.22zm0 6.83v10.516H26.03V17.022Zm0 10.516H6.5c0 4.141 1.498 8.465 2.835 10.51l6.179.007zm0 10.517v6.767c2.358 1.638 4.737 2.464 4.737 2.464 2.095.646 3.245.901 5.78 1.285V38.055Z" style="fill:#87bdff;stroke-width:.751166"/><rect width="4.507" height="44.262" x="25.279" y="6.115" rx="2.253" ry="2.213" style="opacity:.2;stroke-width:.744407"/><rect width="4.507" height="44.262" x="25.279" y="5.377" rx="2.253" ry="2.213" style="fill:#304059;stroke-width:.744407"/><circle cx="27.533" cy="27.899" r="9.014" style="opacity:.2;stroke-width:.751166"/><circle cx="27.533" cy="27.147" r="9.014" style="fill:#375179;stroke-width:.751166"/><path d="M29.786 23.392v7.511l5.258-3.756zm-4.507 0v7.511l-5.258-3.756z" style="fill:#9fc8ff;stroke-width:.751166"/></g></svg>