<svg xmlns="http://www.w3.org/2000/svg" width="48" height="48"><defs><linearGradient id="b" x2="0" y1="525.8" y2="503.8" gradientTransform="translate(-384.57 -499.8)" gradientUnits="userSpaceOnUse"><stop stop-color="#c6cdd1"/><stop offset="1" stop-color="#e0e5e7"/></linearGradient><linearGradient id="c" x1="5" x2="27" y1="14" y2="36" gradientUnits="userSpaceOnUse"><stop stop-color="#383e51"/><stop offset="1" stop-color="#655c6f" stop-opacity="0"/></linearGradient><linearGradient id="a" x2="0" y1="543.8" y2="515.8" gradientTransform="matrix(1.16129 0 0 1 -449.95 -499.8)" gradientUnits="userSpaceOnUse"><stop stop-color="#197cf1"/><stop offset="1" stop-color="#20bcfa"/></linearGradient></defs><path d="M8 26v11.65A6.336 6.336 0 0 0 14.35 44h19.3A6.336 6.336 0 0 0 40 37.65V26Z" style="fill:url(#a)"/><path d="M11 4h26v22H11Z" style="fill:url(#b)"/><path d="m22 11-7 7 24 24.25V26.002h-2v-11l-4-4h-7v4z" style="opacity:.2;fill:url(#c);fill-rule:evenodd"/><path d="M15 11h7v7h-7zm11 0h7v7h-7z" style="fill:#202224;stroke-width:2.79999995;stroke-opacity:.55"/><path d="M17 11h3v7h-3zm11 0h3v7h-3z" style="fill:#fdbc4a;stroke-width:2.79999995;stroke-opacity:.55"/><path d="M22.5 32a.5.5 0 0 0-.5.5.5.5 0 0 0 .5.5.5.5 0 0 0 .5-.5.5.5 0 0 0-.5-.5m2.5 0-1 1 1 1-1 1 1 1 2-2zm-3.5 2.1a.5.5 0 0 0-.5.5.5.5 0 0 0 .5.5.5.5 0 0 0 .5-.5.5.5 0 0 0-.5-.5M23 36a1 1 0 0 0-1 1 1 1 0 0 0 1 1 1 1 0 0 0 1-1 1 1 0 0 0-1-1" style="fill:#085ba7;fill-rule:evenodd"/></svg>