<svg xmlns="http://www.w3.org/2000/svg" xmlns:xlink="http://www.w3.org/1999/xlink" width="48" height="48"><defs><linearGradient id="e" x2="0" y1="543.8" y2="503.8" gradientTransform="translate(-384.57 -499.8)" gradientUnits="userSpaceOnUse"><stop stop-color="#2a2c2f"/><stop offset="1" stop-color="#424649"/></linearGradient><linearGradient id="d" x1="0" x2="0" y1="44" y2="12" gradientUnits="userSpaceOnUse"><stop stop-color="#77b76b"/><stop offset="1" stop-color="#58b4b4"/></linearGradient><linearGradient id="a" x2="0" y1="21" y2="15" gradientUnits="userSpaceOnUse"><stop stop-color="#b8ddd2"/><stop offset="1" stop-color="#c4e4dd"/></linearGradient><linearGradient xlink:href="#a" id="j" x2="0" y1="21" y2="15" gradientTransform="translate(22 10)" gradientUnits="userSpaceOnUse"/><linearGradient id="c" x1="9" x2="13" y1="15" y2="21.928" gradientUnits="userSpaceOnUse"><stop stop-color="#fff"/><stop offset="1" stop-color="#fff" stop-opacity="0"/></linearGradient><linearGradient id="b" x1="10" x2="36" y1="15" y2="41" gradientUnits="userSpaceOnUse"><stop stop-color="#292c2f"/><stop offset="1" stop-opacity="0"/></linearGradient><linearGradient xlink:href="#b" id="i" x1="6" x2="22" y1="11" y2="27" gradientTransform="translate(22 10)" gradientUnits="userSpaceOnUse"/><linearGradient xlink:href="#c" id="h" x1="9" x2="13" y1="15" y2="21.928" gradientUnits="userSpaceOnUse"/><linearGradient xlink:href="#b" id="k" x1="10" x2="36" y1="15" y2="41" gradientUnits="userSpaceOnUse"/><linearGradient xlink:href="#a" id="l" x2="0" y1="21" y2="15" gradientUnits="userSpaceOnUse"/><linearGradient xlink:href="#d" id="f" x1="-42" x2="-42" y1="44" y2="18.025" gradientTransform="translate(60)" gradientUnits="userSpaceOnUse"/><path id="g" fill-rule="evenodd" d="M12.637 17.938q-.308.015-.637.063c-5.639.806-4.793 8.099-10 11.428v1C7.207 27.1 6.361 19.807 12 19.001c7-1 7 9 12 12 6.586 3.088 9-8 17 2 2 2 3.367.637 5 .488v-1c-1.633.149-3 1.512-5-.488-8-10-10.414 1.088-17-2-4.844-2.906-4.995-12.382-11.363-12.06"/></defs><rect width="40" height="40" x="4" y="4" ry="9" style="fill:url(#e)"/><path d="M13.676 17.936a10 10 0 0 0-.7.058c-5.343.642-5.389 5.745-8.976 9.108v14.9h40V30.105c-8.141-7.785-10.848 1.735-17.85-1.03-5.145-2.598-5.467-10.875-11.818-11.14a8 8 0 0 0-.656 0z" style="opacity:.11000001;fill:#1a1a1a;fill-rule:evenodd"/><path d="M13 18c-5.458.006-5.309 4.847-9 10v16h40V33s-5.472-5.342-9.035-5.342c-3.008 0-5.316 2.942-8.69 2.928C20.157 30.56 19.19 17.993 13 18" style="fill:url(#f);fill-rule:evenodd"/><use xlink:href="#g" width="100%" height="100%" style="fill:url(#h)"/><path d="M34 25v1h-1v1h-1l12 12v-4l-6-6zm4 0v2h-1l7 7v-3zm-6 4v2l12 12v-3L33 29Z" style="opacity:.2;fill:url(#i);fill-rule:evenodd"/><path d="M32 25v2h1v-1h1v-1zm4 0v1h1v1h1v-2zm-4 4v2h2v-1h-1v-1zm5 0v1h-1v1h2v-2z" style="fill:url(#j)"/><path d="M12 15v1h-1v1h-1l27 27h4L16 19Zm4 0v2h-1l27 27h3zm-6 4v2l23 23h3L11 19Z" style="opacity:.2;fill:url(#k);fill-rule:evenodd"/><path d="M10 15v2h1v-1h1v-1zm4 0v1h1v1h1v-2zm-4 4v2h2v-1h-1v-1zm5 0v1h-1v1h2v-2z" style="fill:url(#l)"/><path d="M4 43h40v1H4Z" style="fill:#498d48"/></svg>