<svg xmlns="http://www.w3.org/2000/svg" width="32" height="32"><linearGradient id="b" x1="386.57" x2="386.57" y1="527.133" y2="504.911" gradientTransform="matrix(1 0 0 .99 -386.57 -492.862)" gradientUnits="userSpaceOnUse"><stop offset="0" stop-color="#1d1e1e"/><stop offset="1" stop-color="#44484c"/></linearGradient><linearGradient id="a" x1="-2" x2="-2" y1="30" y2="2" gradientUnits="userSpaceOnUse"><stop offset="0" stop-color="#c6cdd1"/><stop offset="1" stop-color="#e0e5e7"/></linearGradient><path fill="url(#a)" d="M6 2C3 2 2 3 2 5.922V27c0 2 1 3 3.136 3h21.89C29 30 30 29 30 27V6c0-3-1-4-4-4Z"/><path fill="url(#b)" d="M2 7h28v20H2z"/><path fill="#566069" d="M6 2h20c3 0 4 1 4 4H2c0-3 1-4 4-4"/><path fill="#3daee9" d="M2 6h28v1H2z"/><rect width="2" height="2" x="27" y="3" fill="#eff0f1" rx="1"/><circle cx="7.5" cy="21.5" r="3.5" fill="#eff0f1"/><circle cx="7.5" cy="21.5" r="2.5" fill="#3daefd"/><path fill="#da4453" d="M13 11h2v1h-2zm3 0h3v1h-3z"/><path fill="#95a5a6" d="M22 11h3v1h-3zm0 2h6v1h-6zm4-2h2v1h-2z"/><path fill="#bdc3c7" d="M13 13h4v1h-4zm5 0h2v1h-2z"/><path fill="#3daefd" d="M13 20h2v1h-2zm3 0h3v1h-3z"/><path fill="#95a5a6" d="M22 20h4v1h-4z"/><path fill="#bdc3c7" d="M13 22h3v1h-3z"/><path fill="#95a5a6" d="M22 22h3v1h-3zm4 0h1v1h-1zm1-2h1v1h-1z"/><g fill-rule="evenodd"><path fill="#eff0f1" d="m7.5 8.92-3.501 1.467s.416 1.902.867 3c.225.551.5 1.121.889 1.617s.965.99 1.745.99 1.354-.494 1.743-.99.664-1.066.889-1.617c.451-1.102.869-3 .869-3z"/><path fill="#da4453" d="m5 11 2.5-1 2.5 1s-.928 4-2.5 4S5 11 5 11"/></g><path fill="#99a1a7" d="M3 29h26s0 1-2 1H5c-2 0-2-1-2-1"/></svg>