<svg xmlns="http://www.w3.org/2000/svg" xmlns:xlink="http://www.w3.org/1999/xlink" width="32" height="32"><defs><linearGradient id="c"><stop offset="0" style="stop-color:#ff2a2a;stop-opacity:1"/><stop offset="1" style="stop-color:#ff9e9e;stop-opacity:1"/></linearGradient><linearGradient xlink:href="#b" id="e" x1="406.501" x2="419.974" y1="527.014" y2="539.825" gradientTransform="matrix(.7 0 0 .7 -270.492 669.705)" gradientUnits="userSpaceOnUse"/><linearGradient id="b" x1="406.501" x2="419.974" y1="527.014" y2="539.825" gradientTransform="matrix(.45 0 0 .45 -174.665 777.889)" gradientUnits="userSpaceOnUse"><stop stop-color="#292c2f"/><stop offset="1" stop-opacity="0"/></linearGradient><linearGradient xlink:href="#c" id="d" x1="3" x2="31" y1="1023.362" y2="1050.362" gradientUnits="userSpaceOnUse"/></defs><g transform="translate(0 -1020.362)"><rect width="28" height="28" x="2" y="1022.362" ry="4.667" style="fill:url(#d);fill-opacity:1;stroke-width:1.5557"/><path d="M2 1044.141v1.554a4.656 4.656 0 0 0 4.667 4.667h18.666a4.656 4.656 0 0 0 4.667-4.667v-1.554a4.656 4.656 0 0 1-4.667 4.664H6.667A4.656 4.656 0 0 1 2 1044.141" style="opacity:.2;fill:#000;fill-opacity:1;stroke-width:1.5557"/><path d="m12.995 1029.362-.99.99 6.01 6.01-6.01 6.011.99.99 7-7-.99-.99z" style="fill:#fff;fill-opacity:1"/><path d="m13 1043.362 6.71 6.711h9.8v-4.2l-9.51-9.51z" style="opacity:.4;fill:url(#e);fill-rule:evenodd;stroke-width:.999983"/><path d="M6.511 1022.362c-3.11 0-4.51 3.11-4.51 4.646l13.999.014 14-.014c0-1.536-1.4-4.646-4.511-4.646z" style="opacity:.3;fill:#fff;fill-opacity:1;stroke-width:1.00797"/></g></svg>