<svg xmlns="http://www.w3.org/2000/svg" width="48" height="48"><defs><linearGradient id="b" x2="0" y1="40" y2="17" gradientTransform="matrix(.95455 0 0 .97826 1.091 4.87)" gradientUnits="userSpaceOnUse"><stop stop-color="#16a085"/><stop offset="1" stop-color="#2ecc71"/></linearGradient><linearGradient id="c" x1="418.57" x2="434.57" y1="526.8" y2="525.8" gradientTransform="matrix(.95455 0 0 .97826 -366 -484.06)" gradientUnits="userSpaceOnUse" spreadMethod="reflect"><stop stop-color="#c9ce3b"/><stop offset="1" stop-color="#c9ce3b" stop-opacity="0"/></linearGradient><linearGradient id="f" x2="0" y1="31" y2="17" gradientUnits="userSpaceOnUse"><stop stop-color="#bcfd93"/><stop offset="1" stop-color="#edffda"/></linearGradient><linearGradient id="d" x1="23" x2="38" y1="16.998" y2="31.998" gradientUnits="userSpaceOnUse"><stop stop-color="#292c2f"/><stop offset="1" stop-opacity="0"/></linearGradient><linearGradient id="a" x2="0" y1="552.07" y2="429.4" gradientUnits="userSpaceOnUse"><stop stop-color="#34495e"/><stop offset="1" stop-color="#1c7865"/></linearGradient></defs><g transform="translate(-124.06 -136.02)scale(.32609)"><rect width="122.67" height="122.67" x="392.7" y="429.4" fill="url(#a)" rx="61.33"/><g fill-rule="evenodd"><g stroke-width=".326"><path fill="url(#b)" d="M13.723 22.416a6 6 0 0 0-1.178.063c-4.302.63-4.655 5.31-7.158 8.828C8.296 38.748 15.505 44 24 44c6.59 0 12.398-3.17 16.04-8.06-7.483-9.356-9.804 1.271-16.04-1.725-4.474-2.751-4.754-11.521-10.277-11.801" transform="translate(380.44 417.13)scale(3.06667)"/><path fill="url(#c)" d="M13.707 22.416a6.3 6.3 0 0 0-1.162.063c-4.302.63-4.655 5.31-7.158 8.828.081.207.155.417.242.621 2.287-3.47 2.758-7.862 6.916-8.471 6.682-.978 6.682 8.804 11.455 11.738 6.126 2.944 8.473-7.273 15.656 1.258.132-.166.254-.341.381-.512-7.483-9.356-9.804 1.271-16.04-1.725-4.479-2.754-4.753-11.539-10.293-11.801" transform="translate(380.44 417.13)scale(3.06667)"/></g><path fill="url(#d)" d="m25 17-2 14 10.576 10.576a20 20 0 0 0 8-8z" opacity=".2" transform="translate(380.44 417.13)scale(3.06667)"/><path fill="url(#f)" d="m25 17-5 8h3v6l5-8h-3z" transform="translate(380.44 417.13)scale(3.06667)"/></g><path fill="#128269" d="M392.74 489.2c-.012.511-.036 1.019-.036 1.533 0 33.979 27.355 61.33 61.33 61.33 33.979 0 61.33-27.355 61.33-61.33 0-.514-.024-1.023-.036-1.533-.812 33.26-27.834 59.8-61.3 59.8-33.464 0-60.49-26.539-61.3-59.8"/></g></svg>