<svg xmlns="http://www.w3.org/2000/svg" xmlns:xlink="http://www.w3.org/1999/xlink" width="48" height="48"><defs><linearGradient id="c"><stop offset="0" style="stop-color:#fff;stop-opacity:1"/><stop offset="1" style="stop-color:#cbb0ea;stop-opacity:1"/></linearGradient><linearGradient id="b"><stop offset="0" style="stop-color:#000;stop-opacity:1"/><stop offset="1" style="stop-color:#000;stop-opacity:0"/></linearGradient><linearGradient id="a"><stop offset="0" style="stop-color:#7d519e;stop-opacity:1"/><stop offset="1" style="stop-color:#a987c2;stop-opacity:1"/></linearGradient><linearGradient xlink:href="#a" id="d" x1="24.112" x2="17.358" y1="36.417" y2="8.984" gradientUnits="userSpaceOnUse"/><linearGradient xlink:href="#b" id="f" x1="24.935" x2="39.71" y1="10.262" y2="25.036" gradientUnits="userSpaceOnUse"/><linearGradient xlink:href="#b" id="e" x1="15.063" x2="35.919" y1="12.237" y2="33.093" gradientUnits="userSpaceOnUse"/><linearGradient xlink:href="#c" id="g" x1="15.588" x2="28.731" y1="8.79" y2="31.554" gradientUnits="userSpaceOnUse"/></defs><path d="M15 6C9.46 6 5 10.46 5 16v10a9.977 9.977 0 0 0 9 9.951V44l8-8h11c5.54 0 10-4.46 10-10V16c0-5.54-4.46-10-10-10z" style="fill:url(#d);fill-opacity:1;fill-rule:evenodd"/><path d="m16.258 12.113-1.664 7.106 3.908 6.23L29.052 36H33a9.96 9.96 0 0 0 6.154-2.12L17.711 12.438z" style="opacity:.2;fill:url(#e);fill-opacity:1;stroke:none;stroke-width:2;stroke-linecap:round;stroke-linejoin:round;stroke-miterlimit:4;stroke-dasharray:none;stroke-opacity:1"/><path d="m27.58 10.564-2.414.422.057.45 3.363 3.363-3.463-.026.066.616 16.147 16.146A9.97 9.97 0 0 0 43 26v-2.883L32.268 12.383z" style="opacity:.2;fill:url(#f);fill-opacity:1;stroke:none;stroke-width:2;stroke-linecap:round;stroke-linejoin:round;stroke-miterlimit:4;stroke-dasharray:none;stroke-opacity:1"/><path d="M25.889 10c-.484 0-.884.386-.889.854-.003.47.398.864.885.867 2.1.016 3.826.68 5.219 1.988 1.375 1.297 2.093 3.093 2.11 5.438v.002c.006.466.407.851.891.851l.01-.002c.486-.004.889-.396.885-.865v-.002c-.011-1.366-.233-2.623-.668-3.728a8.05 8.05 0 0 0-1.98-2.928c-1.723-1.62-3.923-2.457-6.456-2.475zm-9.02 2.022c-.339-.058-.706.005-1.072.181h-.03l-.04.024a8 8 0 0 0-1.913 1.552l-.046.051v.047c-.413.514-.686 1.032-.749 1.55-.02.089-.019.168-.019.253 0 .236.035.476.107.71l.02.067.04.024c.236.808.77 2.065 1.94 4.195a25.6 25.6 0 0 0 2.366 3.584c.416.522.888 1.066 1.435 1.613l.055.053c.009.009.02.027.05.057l.055.054h.004l.035.037.01.012.01.01a19 19 0 0 0 1.615 1.43 25.6 25.6 0 0 0 3.582 2.373c2.132 1.176 3.401 1.707 4.205 1.94l.03.034.048.018c.228.076.465.11.7.107a1 1 0 0 0 .26-.02q.825-.097 1.634-.777l.006-.007.006-.004.008-.01q.006-.007.011-.014a7.8 7.8 0 0 0 1.541-1.894l.026-.043v-.041c.356-.742.215-1.498-.363-1.98a64 64 0 0 0-.637-.526c-.353-.287-.77-.625-1.053-.832a20 20 0 0 0-1.83-1.168h-.002c-.904-.506-1.848-.212-2.264.326l-.728.912c-.294.37-.881.335-.897.334-4.941-1.271-6.27-6.24-6.28-6.275 0-.016-.036-.604.335-.903l.908-.726c.54-.413.843-1.358.334-2.264-.265-.468-.779-1.3-1.168-1.83h-.002a36 36 0 0 0-.832-1.055c-.143-.176-.274-.338-.37-.453l-.112-.137-.034-.037-.01-.011a1.54 1.54 0 0 0-.925-.541zm9.072 1.98c-.476-.033-.904.324-.939.783-.035.46.336.871.812.905 1.178.083 1.972.429 2.569 1.06v.002c.61.643.886 1.377.863 2.381v.004c-.01.462.377.853.856.863h.021c.472 0 .865-.372.875-.828.032-1.38-.417-2.61-1.322-3.564-.91-.96-2.198-1.497-3.735-1.606" style="fill:url(#g);fill-opacity:1"/><path d="M5 25v1a9.977 9.977 0 0 0 9 9.951v-1A9.977 9.977 0 0 1 5 25m38 0c0 5.54-4.46 10-10 10H22l-8 8v1l8-8h11c5.54 0 10-4.46 10-10z" style="fill:#000;fill-opacity:1;fill-rule:evenodd;opacity:.15"/></svg>