<svg xmlns="http://www.w3.org/2000/svg" xmlns:xlink="http://www.w3.org/1999/xlink" width="48" height="48"><defs><linearGradient id="a"><stop offset="0" style="stop-color:#0082c9;stop-opacity:1"/><stop offset="1" style="stop-color:#1cafff;stop-opacity:1"/></linearGradient><linearGradient xlink:href="#a" id="b" x1="18.23" x2="150" y1="150" y2="0" gradientTransform="matrix(.2634 0 0 .2634 28 28)" gradientUnits="userSpaceOnUse"/></defs><circle cx="24" cy="24" r="21" style="fill:url(#b);fill-opacity:1;fill-rule:evenodd;stroke:none;stroke-width:.0263408;stroke-miterlimit:4;stroke-dasharray:none;stroke-opacity:1"/><path d="m7.433 19.262 1.667 2.5s.833-1.666 3.333-1.666c1.667 3.333 4.167 20.833 10 20.833 11.667 0 17.5-20 17.5-25 0-.833.834-4.167-4.166-4.167-6.667 0-9.167 8.334-9.167 8.334s2.5-.834 5-.834c.833 2.5-1.667 8.334-5.833 11.667-3.334-4.167-3.334-18.333-7.5-18.333-3.334 0-10.834 6.666-10.834 6.666" style="opacity:.2;stroke-width:.999967"/><path d="m7.433 18.429 1.667 2.5s.833-1.667 3.333-1.667c1.667 3.334 4.167 20.834 10 20.834 11.667 0 17.5-20 17.5-25 0-.834.834-4.167-4.166-4.167-6.667 0-9.167 8.333-9.167 8.333s2.5-.833 5-.833c.833 2.5-1.667 8.333-5.833 11.667-3.334-4.167-3.334-18.334-7.5-18.334-3.334 0-10.834 6.667-10.834 6.667" style="fill:#fff;stroke-width:.999967"/></svg>