<svg xmlns="http://www.w3.org/2000/svg" xmlns:xlink="http://www.w3.org/1999/xlink" width="48" height="48"><defs><linearGradient id="b"><stop offset="0" style="stop-color:#2ad4ff;stop-opacity:1"/><stop offset=".493" style="stop-color:#a1925e;stop-opacity:1"/><stop offset=".521" style="stop-color:#9b8d5e;stop-opacity:1"/><stop offset="1" style="stop-color:#414668;stop-opacity:1"/></linearGradient><linearGradient xlink:href="#b" id="c" x1="-11" x2="-11.098" y1="2.001" y2="14.334" gradientTransform="matrix(2.33333 0 0 2.33333 -2.333 2.333)" gradientUnits="userSpaceOnUse"/></defs><g transform="translate(-4 -3.998)"><rect width="41.998" height="41.996" x="-48.999" y="7.002" rx="20.999" ry="20.998" style="fill:url(#c);fill-opacity:1;stroke-width:2.33334" transform="scale(-1 1)"/><path d="M7.013 27.475C7.009 27.65 7 27.825 7 28a20.953 20.953 0 0 0 20.999 20.998c11.633 0 21-9.365 21-20.998 0-.176-.008-.349-.013-.525a20.95 20.95 0 0 1-20.987 20.473A20.946 20.946 0 0 1 7.013 27.475" style="display:inline;overflow:visible;opacity:.3;fill:#000;fill-opacity:1;stroke-width:2.9398;stroke-opacity:.55"/><path d="M7.013 28.521c-.004-.175-.013-.348-.013-.525A20.953 20.953 0 0 1 27.999 6.998c11.633 0 21 9.365 21 20.998 0 .176-.008.35-.013.525A20.95 20.95 0 0 0 27.999 8.048 20.946 20.946 0 0 0 7.013 28.521" style="display:inline;overflow:visible;opacity:.3;fill:#fff;fill-opacity:1;stroke-width:2.9398;stroke-opacity:.55"/></g><g transform="translate(35 -87)"><circle cx="1" cy="123" r="12" fill="#64cc5f"/><path d="M-4 116.99h1c6.075 0 11 4.925 11 11v1H7c-.546 0-1-.45-1-1a9 9 0 0 0-9-9c-.546 0-1-.45-1-1z" style="fill:#fff;stroke-width:2.00001"/><path d="M-4 120.997h1a7 7 0 0 1 7 7v1H3c-.547 0-1-.45-1-1a5 5 0 0 0-5-5c-.547 0-1-.45-1-1z" style="fill:#fff;stroke-width:2.00001"/><path d="M-1.997 124.995a2 2 0 1 1 0 4 2 2 0 0 1 0-4" style="fill:#fff;stroke-width:2.00001"/></g></svg>