<svg xmlns="http://www.w3.org/2000/svg" xmlns:xlink="http://www.w3.org/1999/xlink" width="48" height="48"><defs><linearGradient id="c" x1="392.57" x2="411.57" y1="518.8" y2="537.8" gradientTransform="translate(-384.57 -499.8)" gradientUnits="userSpaceOnUse"><stop stop-color="#00267a"/><stop offset="1" stop-opacity="0"/></linearGradient><linearGradient id="b" x1="392.57" x2="411.57" y1="518.8" y2="537.8" gradientTransform="translate(-384.57 -499.8)" gradientUnits="userSpaceOnUse"><stop stop-color="#292c2f"/><stop offset="1" stop-opacity="0"/></linearGradient><linearGradient xlink:href="#a" id="j" x1="10" x2="38" y1="24" y2="24" gradientTransform="translate(-3.429 -3.429)scale(1.14286)" gradientUnits="userSpaceOnUse"/><linearGradient id="a"><stop offset="0" stop-color="#eff0f1"/><stop offset="1" stop-color="#fcfcfc"/></linearGradient><linearGradient xlink:href="#b" id="i" x1="15.866" x2="23.068" y1="23.893" y2="23.893" gradientTransform="translate(-4.235 -4.235)scale(1.17647)" gradientUnits="userSpaceOnUse"/><linearGradient xlink:href="#c" id="h" x1="10" x2="41.704" y1="10" y2="41.704" gradientTransform="translate(-4.235 -4.235)scale(1.17647)" gradientUnits="userSpaceOnUse"/><linearGradient xlink:href="#c" id="g" x1="10" x2="44" y1="10" y2="44" gradientTransform="translate(-4.235 -4.235)scale(1.17647)" gradientUnits="userSpaceOnUse"/><linearGradient xlink:href="#b" id="f" x1="23.906" x2="42" y1="22.995" y2="42" gradientTransform="translate(-4.235 -4.235)scale(1.17647)" gradientUnits="userSpaceOnUse"/><linearGradient xlink:href="#d" id="e" x1="408.57" x2="408.57" y1="540.8" y2="506.8" gradientTransform="translate(-456.67 -592.235)scale(1.17647)" gradientUnits="userSpaceOnUse"/><linearGradient id="d"><stop offset="0" stop-color="#2980b9"/><stop offset="1" stop-color="#3498db"/></linearGradient></defs><rect width="40" height="40" x="4" y="4" ry="4" style="fill:url(#e)"/><path d="M42.662 42.943c.05-.045.12-.065.168-.113.362-.361.656-.79.858-1.27.2-.475.309-1 .31-1.55L44 12l-4-4-2 2 1.293 29.293L10 38l-2 2 2.002 2.943z" style="opacity:.2;fill:url(#f);fill-rule:evenodd"/><path d="M8.835 15.774 10 17l5.473 5.591 3.414 7.682h.446l.113 6.272L21 38l.693 1.294h17.601v-9.373h-7.068l-3.53-13.04-2.692 9.421-2.572-9.36-3.619 12.621-1.645-.956-3.14-12.833z" style="opacity:.2;fill:url(#g);fill-rule:evenodd"/><path d="m23.509 12.585 5.215 4.893-.153-4.907 10.723 10.302v7.05h-7.069l-3.148-11.75-2.885 4.998-2.709-4.691z" style="opacity:.2;fill:url(#h);fill-rule:evenodd"/><path d="m16 15 6.248 6.071-2.887 10.774-4.299-16.042z" style="opacity:.2;fill:url(#i);fill-rule:evenodd"/><path d="M5.338 42.943c.33.298.686.57 1.101.745A4 4 0 0 0 8 44h32c.554 0 1.082-.11 1.56-.313.416-.175.773-.446 1.102-.744z" style="opacity:.50400002;fill:#1f3c64"/><path d="M8 8v32h32V8Zm2 2h28v19h-5l-3.246-12.013-1.183-4.416h-.002l-1.183 4.418-1.348 5.036-1.15-4.29-.2-.746v-.002l-1.179-4.402-4.058 15.145L16 15h-6zm0 7h4l4.263 15.132 1.183 4.413 1.183-4.411v-.002l2.875-10.73 1.35 5.038 1.184 4.417 1.183-4.417 1.348-5.036L31 31h7v7H10Z" style="fill:url(#j)"/></svg>