<svg xmlns="http://www.w3.org/2000/svg" xmlns:xlink="http://www.w3.org/1999/xlink" xml:space="preserve" width="48" height="48"><defs><linearGradient id="e"><stop offset="0" style="stop-color:#b1ecdb;stop-opacity:1"/><stop offset="1" style="stop-color:#daf6ee;stop-opacity:1"/></linearGradient><linearGradient xlink:href="#e" id="f" x1="-59.13" x2="-17.992" y1="43.559" y2="2.427" gradientTransform="translate(62.417 1.438)" gradientUnits="userSpaceOnUse"/></defs><path d="M24 3C12.415 3 3 12.413 3 24s9.414 21 21 21 21-9.413 21-21S35.588 3 24 3" style="color:#000;font-style:normal;font-variant:normal;font-weight:400;font-stretch:normal;font-size:medium;line-height:normal;font-family:sans-serif;font-variant-ligatures:normal;font-variant-position:normal;font-variant-caps:normal;font-variant-numeric:normal;font-variant-alternates:normal;font-feature-settings:normal;text-indent:0;text-align:start;text-decoration:none;text-decoration-line:none;text-decoration-style:solid;text-decoration-color:#000;letter-spacing:normal;word-spacing:normal;text-transform:none;writing-mode:lr-tb;direction:ltr;text-orientation:mixed;dominant-baseline:auto;baseline-shift:baseline;text-anchor:start;white-space:normal;shape-padding:0;clip-rule:nonzero;display:inline;overflow:visible;visibility:visible;isolation:auto;mix-blend-mode:normal;color-interpolation:sRGB;color-interpolation-filters:linearRGB;solid-color:#000;solid-opacity:1;vector-effect:none;fill:url(#f);fill-opacity:1;fill-rule:nonzero;stroke:none;stroke-width:1.87999;stroke-linecap:butt;stroke-linejoin:miter;stroke-miterlimit:4;stroke-dasharray:none;stroke-dashoffset:0;stroke-opacity:1;color-rendering:auto;image-rendering:auto;shape-rendering:auto;text-rendering:auto"/><g style="fill:#20c997;fill-opacity:1" transform="translate(-.038 -.502)"><path d="M35.8 11.342c-1.164-.005-2.421.449-3.092 1.61-2.031 3.518 2.52 5.792-.699 10.396-1.554 2.691-6.713 4.569-9.654.64l-5.986-10.446c-1.151-2.008-3.657-2.72-5.619-1.595l-.224.129C8.564 13.2 7.91 15.722 9.06 17.73l11.35 19.805a4.2 4.2 0 0 0 3.005 2.077c1.716.388 3.566-.385 4.505-2.03l11.418-20.008c1.148-2.01.499-4.53-1.463-5.655l-.225-.128c-.486-.279-1.151-.446-1.85-.449" style="fill:#20c997;fill-opacity:1;stroke:none;stroke-width:.570978;stroke-linecap:round;stroke-linejoin:round;stroke-miterlimit:4;stroke-dasharray:none;stroke-opacity:1"/></g></svg>