<svg xmlns="http://www.w3.org/2000/svg" xmlns:xlink="http://www.w3.org/1999/xlink" xml:space="preserve" width="48" height="48"><defs><linearGradient id="e"><stop offset="0" style="stop-color:#ea3434;stop-opacity:1"/><stop offset="1" style="stop-color:#ed3535;stop-opacity:1"/></linearGradient><linearGradient xlink:href="#e" id="f" x1="100.364" x2="100.364" y1="67.914" y2="46.018" gradientTransform="matrix(1.7005 0 0 1.7005 -147.982 -73.659)" gradientUnits="userSpaceOnUse"/></defs><circle cx="24" cy="24" r="21" style="fill:url(#f);fill-opacity:1;stroke-width:1.34978;stroke-linecap:round;stroke-linejoin:round"/><path d="M35.8 11.342c-1.164-.005-2.421.449-3.092 1.61-2.031 3.518 2.52 5.792-.699 10.396-1.554 2.691-6.713 4.569-9.654.64l-5.986-10.446c-1.151-2.008-3.657-2.72-5.619-1.595l-.224.129C8.564 13.2 7.91 15.722 9.06 17.73l11.35 19.805a4.2 4.2 0 0 0 3.005 2.077c1.716.388 3.566-.385 4.505-2.03l11.418-20.008c1.148-2.01.499-4.53-1.463-5.655l-.225-.128c-.486-.279-1.151-.446-1.85-.449" style="fill:#ffdfdf;fill-opacity:1;stroke:none;stroke-width:.570978;stroke-linecap:round;stroke-linejoin:round;stroke-miterlimit:4;stroke-dasharray:none;stroke-opacity:1"/></svg>