<svg xmlns="http://www.w3.org/2000/svg" xmlns:xlink="http://www.w3.org/1999/xlink" viewBox="0 0 48 48"><linearGradient id="a"><stop offset="0" stop-color="#fff"/><stop offset="1" stop-color="#f5f5f5"/></linearGradient><linearGradient id="b" x1="13" x2="42" y1="14" y2="43" gradientUnits="userSpaceOnUse"><stop offset="0" stop-color="#ffb24d"/><stop offset=".362" stop-color="#ffa733"/><stop offset="1" stop-color="#f28100"/></linearGradient><linearGradient id="c" x1="23" x2="42" y1="25" y2="44" gradientUnits="userSpaceOnUse"><stop offset="0" stop-color="#e5840b"/><stop offset="1" stop-color="#f27a00"/></linearGradient><linearGradient xlink:href="#a" id="e" x1="15" x2="25" y1="27" y2="37" gradientUnits="userSpaceOnUse"/><linearGradient xlink:href="#a" id="g" x1="19" x2="27" y1="13" y2="21" gradientUnits="userSpaceOnUse"/><linearGradient id="d" x1="16" x2="34" y1="22" y2="28" gradientUnits="userSpaceOnUse"><stop offset="0" stop-color="#ffb24d"/><stop offset=".157" stop-color="#ffa733"/><stop offset="1" stop-color="#f28100"/></linearGradient><path fill="url(#b)" d="M11 29a1 1 0 0 0-.955.705l-4 13A1 1 0 0 0 7 44h34a1 1 0 0 0 .955-1.295l-4-13A1 1 0 0 0 37 29z"/><path fill="url(#c)" d="m19 29-5.121 5.121L22.758 43H42a1 1 0 0 0-.045-.295l-4-13A1 1 0 0 0 37 29h-2z"/><path fill="url(#d)" d="M23.996 4a3 3 0 0 0-2.853 2.086l-8 25a3 3 0 0 0 1.324 3.492C17.343 36.288 20.98 37 24 37s6.657-.712 9.533-2.422a3 3 0 0 0 1.324-3.492l-8-25A3 3 0 0 0 23.997 4"/><path fill="url(#e)" d="M33.432 26.633C30.572 28.3 26.985 29 24 29s-6.571-.699-9.432-2.367l-1.425 4.453a3 3 0 0 0 1.324 3.492C17.343 36.288 20.98 37 24 37s6.657-.712 9.533-2.422a3 3 0 0 0 1.324-3.492z"/><path fill="url(#g)" d="m19.117 12.412-4.549 14.22 2.221-6.939C19.155 20.603 21.75 21 24 21s4.845-.397 7.21-1.307l2.222 6.94-4.55-14.22C27.217 12.813 25.53 13 24 13s-3.216-.186-4.883-.588"/><path fill="#d97716" d="M6.002 43A1 1 0 0 0 7 44h34a1 1 0 0 0 1-1z"/></svg>