<svg xmlns="http://www.w3.org/2000/svg" xmlns:xlink="http://www.w3.org/1999/xlink" width="48" height="48"><defs><linearGradient id="f"><stop offset="0" style="stop-color:#ccc;stop-opacity:1"/><stop offset="1" style="stop-color:#ccc;stop-opacity:1"/></linearGradient><linearGradient id="d"><stop style="stop-color:#c61423"/><stop offset="1" style="stop-color:#dc2b41"/></linearGradient><linearGradient id="e"><stop style="stop-color:#383e51"/><stop offset="1" style="stop-color:#655c6f;stop-opacity:0"/></linearGradient><linearGradient xlink:href="#f" id="g" x1="-44.999" x2="-3.001" y1="24.002" y2="24.002" gradientUnits="userSpaceOnUse"/><linearGradient xlink:href="#d" id="i" x2="0" y1="524.798" y2="515.798" gradientTransform="matrix(1.3625 0 0 1.3625 -532.677 -684.903)" gradientUnits="userSpaceOnUse"/><linearGradient xlink:href="#e" id="h" x1="15" x2="31" y1="16" y2="32" gradientTransform="matrix(1.3625 0 0 1.3625 -8.7 -4.61)" gradientUnits="userSpaceOnUse"/></defs><rect width="41.999" height="41.996" x="-44.999" y="3.004" rx="20.999" ry="20.998" style="display:inline;overflow:visible;fill:url(#g);stroke-width:2.93982;stroke-opacity:.55;fill-opacity:1" transform="scale(-1 1)"/><path d="M3.013 23.477c-.004.175-.013.35-.013.525A20.953 20.953 0 0 0 24 45c11.633 0 20.999-9.365 20.999-20.998 0-.176-.008-.349-.013-.525A20.95 20.95 0 0 1 23.999 43.95 20.947 20.947 0 0 1 3.013 23.477" style="display:inline;overflow:visible;opacity:.3;fill:#000;fill-opacity:1;stroke-width:2.93982;stroke-opacity:.55"/><path d="M3.013 24.523c-.004-.175-.013-.348-.013-.525A20.953 20.953 0 0 1 24 3c11.633 0 20.999 9.365 20.999 20.998 0 .176-.008.35-.013.525A20.95 20.95 0 0 0 23.999 4.05 20.947 20.947 0 0 0 3.013 24.523" style="display:inline;overflow:visible;opacity:.3;fill:#fff;fill-opacity:1;stroke-width:2.93982;stroke-opacity:.55"/><path d="m28.088 18.552-8.175 10.9 20.438 20.437H56.7v-2.725Z" style="opacity:.2;fill:url(#h);fill-rule:evenodd;stroke-width:1.36251"/><circle cx="24" cy="24.002" r="6.812" style="fill:url(#i);stroke-width:3.815;stroke-opacity:.550265"/></svg>