<svg xmlns="http://www.w3.org/2000/svg" xmlns:xlink="http://www.w3.org/1999/xlink" width="48" height="48"><defs><linearGradient xlink:href="#a" id="h" x1="17.25" x2="17.25" y1="29.643" y2="3.056" gradientTransform="translate(-.46 -.637)scale(1.44392)" gradientUnits="userSpaceOnUse"/><linearGradient id="a"><stop offset="0" style="stop-color:#24aaef;stop-opacity:1"/><stop offset="1" style="stop-color:#1875ce;stop-opacity:1"/></linearGradient><linearGradient xlink:href="#b" id="i" x1="11.551" x2="12.851" y1="4.24" y2="5.873" gradientUnits="userSpaceOnUse"/><linearGradient id="b"><stop offset="0" style="stop-color:#b9e3fd;stop-opacity:1"/><stop offset="1" style="stop-color:#b9e3fd;stop-opacity:0"/></linearGradient><linearGradient xlink:href="#c" id="j" x1="10.619" x2="12.586" y1="13.341" y2="11.374" gradientUnits="userSpaceOnUse"/><linearGradient id="c"><stop offset="0" style="stop-color:#aed1fc;stop-opacity:.99607843"/><stop offset="1" style="stop-color:#fff;stop-opacity:0"/></linearGradient><linearGradient xlink:href="#d" id="k" x1="12.35" x2="12.327" y1="12.723" y2="3.99" gradientUnits="userSpaceOnUse"/><linearGradient id="d"><stop offset="0" style="stop-color:#a5c1fb;stop-opacity:.92156863"/><stop offset="1" style="stop-color:#8eccfb;stop-opacity:.92156863"/></linearGradient><linearGradient id="e"><stop offset="0" style="stop-color:#b8e3fe;stop-opacity:1"/><stop offset="1" style="stop-color:#b8e3fe;stop-opacity:0"/></linearGradient><linearGradient xlink:href="#f" id="m" x1="-9.136" x2="9.851" y1="-3.125" y2="12.269" gradientUnits="userSpaceOnUse"/><linearGradient id="f"><stop offset="0" style="stop-color:#b2d2fb;stop-opacity:0"/><stop offset="1" style="stop-color:#b2d2fb;stop-opacity:1"/></linearGradient><radialGradient xlink:href="#e" id="l" cx="6.332" cy="8.621" r="4.047" fx="6.332" fy="8.621" gradientTransform="matrix(.42951 .477 -.74216 .66827 10.01 -.16)" gradientUnits="userSpaceOnUse"/></defs><rect width="42" height="42" x="3" y="3" rx="21" ry="21" style="fill:url(#h);fill-opacity:1;stroke-width:3.88082;stroke-linecap:round;stroke-linejoin:round"/><path fill="#35a0f3" d="M10.688 3.18a.76.76 0 0 0-.339.126c.175.218-.178 2.27.265 2.549l.345.216v4.95l-.543.408c-.418.313.038 2.119-.071 2.351.12.074.302.153.46.134a.5.5 0 0 0 .154-.046l2.209-1.083c.24-.118.483-.215.483-.484v-7.51c0-.267-.243-.365-.483-.483l-2.21-1.083a.48.48 0 0 0-.27-.045z" style="fill:url(#i);fill-opacity:1;stroke-width:1.27188;paint-order:stroke fill markers" transform="translate(.498 .628)scale(2.79319)"/><path fill="#35a0f3" d="M10.688 3.18a.76.76 0 0 0-.339.126c.175.218-.178 2.27.265 2.549l.345.216v4.95l-.543.408c-.418.313.038 2.119-.071 2.351.12.074.302.153.46.134a.5.5 0 0 0 .154-.046l2.209-1.083c.24-.118.483-.215.483-.484v-7.51c0-.267-.243-.365-.483-.483l-2.21-1.083a.48.48 0 0 0-.27-.045z" style="fill:url(#j);fill-opacity:1;stroke-width:1.27188;paint-order:stroke fill markers" transform="translate(.498 .628)scale(2.79319)"/><path d="M10.688 3.18a.76.76 0 0 0-.339.126c.175.218-.178 2.27.265 2.549l.345.216v4.95l-.543.408c-.418.313.038 2.119-.071 2.351.12.074.302.153.46.134a.5.5 0 0 0 .154-.046l2.209-1.083c.24-.118.483-.215.483-.484v-7.51c0-.267-.243-.365-.483-.483l-2.21-1.083a.48.48 0 0 0-.27-.045z" style="opacity:.774848;fill:url(#k);fill-opacity:1;stroke-width:1.27188;paint-order:stroke fill markers" transform="translate(.498 .628)scale(2.79319)"/><path d="M40.03 12.266c-.462-.029-.976.182-1.438.609L22.84 27.434l6.357 4.863 12.225-9.35v-8.45c0-1.474-.624-2.184-1.393-2.231m-22.454 20.03-6.15 5.684v.002c-.529.49-.91 1.343-.242 1.977l2.54 2.416c1 .95 2.143.124 2.583-.22l6.533-4.997z" style="fill:#bbe4fe;fill-opacity:.972549;stroke-width:4.8072;paint-order:stroke fill markers" transform="matrix(.73902 0 0 .73902 .498 .628)"/><path fill="#1a81da" d="m3.023 7.04 7.187 6.643c.327.302.75.195.75-.429v-2.236L4.314 5.936c-.117-.091-.42-.309-.684-.058l-.672.64c-.176.167-.076.393.064.522" style="fill:url(#l);fill-opacity:1;stroke-width:1.27188;paint-order:stroke fill markers" transform="translate(.498 .628)scale(2.79319)"/><path d="m3.023 7.04 7.187 6.643c.327.302.75.195.75-.429v-2.236L4.314 5.936c-.117-.091-.42-.309-.684-.058l-.672.64c-.176.167-.076.393.064.522" style="fill:url(#m);fill-opacity:1;stroke-width:1.27188;paint-order:stroke fill markers" transform="translate(.498 .628)scale(2.79319)"/></svg>