<svg xmlns="http://www.w3.org/2000/svg" width="48" height="48" viewBox="0 0 12.7 12.7"><defs><linearGradient id="a" x1="24" x2="24" y1="318.585" y2="131.687" gradientTransform="matrix(3.77953 0 0 3.68954 0 -918.425)" gradientUnits="userSpaceOnUse"><stop offset="0" stop-color="#da4453"/><stop offset="1" stop-color="#fcfcfc"/></linearGradient><linearGradient id="b" x1="26" x2="26" y1="-2.325" y2="36.339" gradientTransform="matrix(3.77953 0 0 3.68954 0 -918.425)" gradientUnits="userSpaceOnUse"><stop offset="0" stop-color="#da4453"/><stop offset="1" stop-color="#da4453" stop-opacity=".075"/></linearGradient><linearGradient id="c" x1="10.22" x2="10.22" y1="12.866" y2="31.201" gradientTransform="matrix(1 0 0 1 5.965 4.953)" gradientUnits="userSpaceOnUse"><stop offset="0" stop-color="#da4453"/><stop offset="1" stop-color="#da4453" stop-opacity="0"/></linearGradient></defs><g transform="matrix(.26458 0 0 .26458 0 0)"><rect width="40" height="40" x="4" y="4" fill="#34495e" rx="6" ry="6" style="paint-order:stroke fill markers"/><path fill="#34495e" d="M37.795 15.117a22.63 22.63 0 0 0-22.678 22.678v102.047a22.63 22.63 0 0 0 22.678 22.678H143.62a22.63 22.63 0 0 0 22.678-22.678V37.795a22.63 22.63 0 0 0-22.678-22.678z" style="paint-order:markers fill stroke" transform="scale(.26458)"/><path fill="url(#a)" d="M37.795 15.117a22.63 22.63 0 0 0-22.678 22.678v102.047a22.63 22.63 0 0 0 22.678 22.678H143.62a22.63 22.63 0 0 0 22.678-22.678V37.795a22.63 22.63 0 0 0-22.678-22.678z" style="paint-order:markers fill stroke" transform="scale(.26458)"/><path fill="url(#b)" d="M10.1 4C6.72 4 4 6.676 4 10v14h40V10c0-3.324-2.72-6-6.1-6z" style="paint-order:normal"/><path fill="url(#c)" d="m19.566 11.174-1.36 8.617-4.536-4.535-3.45 12.371L25.593 43h11.78l.112-.107.108.107H38c3.324 0 6-2.676 6-6V21.586l-6.33-6.33-.441 1.58-5.663-5.662-1.36 8.617-4.536-4.535-.441 1.58z" style="paint-order:normal"/><g fill="#da4453" transform="translate(0 3)"><rect width="4" height="20" x="22" y="14" ry="1" style="paint-order:normal"/><rect width="4" height="20" x="16" y="10" ry="1" style="paint-order:normal"/><rect width="4" height="20" x="28" y="10" ry="1" style="paint-order:normal"/><rect width="4" height="11" x="34" y="14" ry="1" style="paint-order:normal"/><rect width="4" height="11" x="10" y="14" ry="1" style="paint-order:normal"/></g><g fill="#fcfcfc" transform="translate(0 1)"><rect width="4" height="20" x="22" y="14" ry="1" style="paint-order:normal"/><rect width="4" height="20" x="16" y="10" ry="1" style="paint-order:normal"/><rect width="4" height="20" x="28" y="10" ry="1" style="paint-order:normal"/><rect width="4" height="11" x="34" y="14" ry="1" style="paint-order:normal"/><rect width="4" height="11" x="10" y="14" ry="1" style="paint-order:normal"/></g></g></svg>