<svg xmlns="http://www.w3.org/2000/svg" width="48" height="48"><defs><linearGradient id="a" x1="389.32" x2="426.695" y1="547.675" y2="499.921" gradientTransform="matrix(1.04996 0 0 1.0499 -452.985 -525.938)" gradientUnits="userSpaceOnUse"><stop stop-color="#18222a" style="stop-color:#1e2b35;stop-opacity:1"/><stop offset="1" stop-color="#566069" style="stop-color:#6d7983;stop-opacity:1"/></linearGradient></defs><rect width="41.999" height="41.996" x="-45" y="3.004" rx="20.999" ry="20.998" style="display:inline;overflow:visible;fill:url(#a);stroke-width:2.93982;stroke-opacity:.55" transform="scale(-1 1)"/><path d="M3.013 23.477c-.004.175-.013.349-.013.525A20.953 20.953 0 0 0 24 45c11.633 0 20.999-9.365 20.999-20.998 0-.176-.008-.349-.013-.525A20.95 20.95 0 0 1 24 43.95 20.947 20.947 0 0 1 3.013 23.477" style="display:inline;overflow:visible;opacity:.3;fill:#000;fill-opacity:1;stroke-width:2.93982;stroke-opacity:.55"/><path d="M3.013 24.523c-.004-.175-.013-.348-.013-.525A20.953 20.953 0 0 1 24 3c11.633 0 20.999 9.365 20.999 20.998 0 .176-.008.35-.013.525A20.95 20.95 0 0 0 24 4.05 20.947 20.947 0 0 0 3.013 24.523" style="display:inline;overflow:visible;opacity:.3;fill:#fff;fill-opacity:1;stroke-width:2.93982;stroke-opacity:.55"/><g transform="matrix(2.42942 0 0 2.47519 3.412 -690.147)"><path fill="#03adeb" d="M-112.36 264.53c.737 0 1.505.666 1.503 1.403l-.022 6.612c-.002.736-.717 1.173-1.454 1.173s-1.457-.621-1.458-1.358l-.008-6.366c-.001-.737.702-1.464 1.439-1.464" style="paint-order:normal" transform="matrix(.92176 -.38775 .4003 .91639 0 0)"/><path fill="#559def" d="M14.627 285.98c-.679-.286-1.654.027-1.947.703l-2.627 6.067c-.293.676.18 1.449.86 1.734.678.286 1.603-.099 1.899-.774l2.556-5.83c.295-.675-.062-1.614-.741-1.9" style="paint-order:normal"/><path fill="#0cccfd" d="M9.479 286.92c.748.973 1.31 2.108 1.726 2.824.417.715.488.866.805 1.451s1.03 1.065 1.758.334c-.065.167-.639 1.58-.928 2.164-.192.39-.318.524-.658.717-.641.362-1.618.138-1.992-.496l-3.23-5.474c1.153-.695 1.324-.837 2.519-1.52" style="paint-order:normal"/><path fill="#1ee2fd" d="M9.711 285.37c-.802.16-1.789.93-2.238 1.514-.749.972-1.31 2.108-1.726 2.823-.417.716-.488.866-.805 1.452-.318.585-1.048 1.068-1.776.337.065.166.656 1.576.945 2.161.193.39.319.524.659.716.641.362 1.618.139 1.992-.496l3.23-5.473a7.2 7.2 0 0 1 1.05-1.347c.544-.548 1.199-.852.977-1.206-.477-.76-1.475-.652-2.277-.491z" style="paint-order:normal"/><path fill="#41f3fd" d="M5.801 287.44c-.456-.165-.829-.494-.88-1.114-.051-.619.317-1.063.743-1.042s.57.378.472.71c-.1.331-.2.457-.262.686s-.064.47-.073.76"/><path fill="#66efff" d="M7 286.19c-.386-.658-.283-1.404-.06-1.954.225-.55.764-1.16 1.362-1.32s1.142-.074 1.387.535c.244.608-.286 1.36-.92 1.536s-1.218.516-1.77 1.203z"/><circle cx="11.342" cy="283.14" r=".677" fill="#66efff" style="paint-order:normal"/><path fill="#bdfdfe" d="M40.379 19.467c-1.243-.001-2.518.19-3.654.418-1.427.286-3.009 1.124-4.465 2.152-1.004 1.25-1.745 2.742-1.856 4.46-.296 3.455 2.104 4.213 4.188 2.437.319-.272.498-.501.687-.713.898-.833 6.312-2.926 9.768-4.7.585-.598.873-1.146.516-1.716-1.126-1.797-3.112-2.336-5.184-2.338" style="paint-order:normal" transform="translate(0 280.07)scale(.26458)"/><path fill="#bdfdfe" d="M44.643 21.932a4 4 0 0 0-.57.002c-2.72.204-6.19 3.027-7.534 4.61a26 26 0 0 0-1.248 1.648c.964 1.455 2.68 1.677 4.395.562a28 28 0 0 1 2.05-2.338c1.862-1.876 4.174-3.042 3.968-4.24a3.6 3.6 0 0 0-1.06-.244z" style="paint-order:normal" transform="translate(0 280.07)scale(.26458)"/></g></svg>