<svg xmlns="http://www.w3.org/2000/svg" xmlns:xlink="http://www.w3.org/1999/xlink" width="48" height="48"><defs><linearGradient id="a"><stop offset="0" style="stop-color:#a8cbfe;stop-opacity:1"/><stop offset="1" style="stop-color:#cbbbe9;stop-opacity:1"/></linearGradient><linearGradient xlink:href="#a" id="b" x1="32.617" x2="32.423" y1="49.714" y2="14.28" gradientUnits="userSpaceOnUse"/></defs><g transform="matrix(.7366 0 0 .73684 .429 .053)"><circle cx="32" cy="33" r="28" style="opacity:.2"/><circle cx="32" cy="32" r="28" style="fill:#3c4153"/><path d="M32.004 11c-1.94 0-2.811.074-4.242.367-1.183.242-3.1.788-3.364.957-.067.043.704.843 3.72 3.871 2.09 2.1 3.84 3.82 3.886 3.82s1.796-1.72 3.887-3.82c3.015-3.028 3.785-3.828 3.718-3.87-.264-.17-2.18-.716-3.363-.958-1.43-.293-2.302-.367-4.242-.367m13.133 4.281c-.091-.037-8.965 8.844-8.965 8.973 0 .093 4.443 4.582 4.535 4.582.032 0 .45-.399.93-.883s1.448-1.44 2.152-2.125l1.277-1.242.235.355c.572.883 1.305 2.57 1.652 3.793.427 1.505.567 2.567.567 4.313 0 1.486-.042 1.985-.286 3.156a15.4 15.4 0 0 1-1.18 3.527c-.381.807-.91 1.711-1 1.711-.037 0-2.988-2.932-6.558-6.515l-6.492-6.516-6.492 6.516c-3.57 3.583-6.521 6.515-6.559 6.515-.089 0-.618-.904-1-1.71a16.3 16.3 0 0 1-1.39-4.735c-.1-.716-.1-3.182 0-3.899a17.4 17.4 0 0 1 .863-3.503c.264-.731.932-2.114 1.281-2.653l.234-.355 1.223 1.187c.673.654 1.642 1.61 2.152 2.125s.954.938.985.938c.092 0 4.535-4.49 4.535-4.582 0-.047-2.002-2.095-4.45-4.551-4.3-4.318-4.455-4.463-4.577-4.387-.25.156-1.212.963-1.786 1.496-5.179 4.815-7.755 11.977-6.84 19.008a22.26 22.26 0 0 0 3.903 9.977c.746 1.054 1.298 1.703 2.394 2.8.966.967 2.28 2.114 2.426 2.118.03 0 2.972-2.924 6.535-6.5s6.517-6.504 6.563-6.504 2.976 2.902 6.508 6.449 6.463 6.476 6.52 6.508c.253.141 2.977-2.403 4.14-3.867 1.999-2.518 3.441-5.469 4.2-8.582.75-3.082.83-6.454.226-9.497a22.2 22.2 0 0 0-6.641-11.93c-.573-.534-1.682-1.454-1.82-1.51M32.004 46.11c-.047 0-1.766 1.693-3.82 3.766l-3.735 3.77.328.124c1.543.583 4.047 1.078 5.996 1.184 1.177.064 1.219.061 2.329 0a21 21 0 0 0 3.238-.402c.861-.17 2.273-.55 2.898-.786l.32-.12-3.734-3.77c-2.054-2.073-3.774-3.766-3.82-3.766" style="opacity:.2"/><path d="M33.103 53.954a21 21 0 0 0 3.238-.402c.862-.169 2.272-.552 2.897-.787l.321-.12-3.735-3.769c-2.054-2.072-3.773-3.768-3.82-3.768s-1.765 1.696-3.82 3.768l-3.735 3.769.328.124c1.542.582 4.046 1.076 5.996 1.183 1.176.064 1.22.064 2.33.002" style="fill:#3485fd"/><path d="M25.442 43.214c3.563-3.577 6.516-6.502 6.563-6.502s2.973 2.902 6.505 6.448 6.467 6.475 6.523 6.506c.254.142 2.975-2.4 4.138-3.865 2-2.517 3.444-5.467 4.202-8.58.75-3.082.83-6.457.225-9.5a22.2 22.2 0 0 0-6.64-11.927c-.572-.534-1.683-1.457-1.822-1.514-.09-.037-8.964 8.846-8.964 8.975 0 .093 4.443 4.58 4.535 4.58.031 0 .45-.396.93-.88s1.448-1.44 2.151-2.125l1.28-1.245.232.358c.572.882 1.307 2.567 1.654 3.79.427 1.504.567 2.568.567 4.314 0 1.487-.045 1.985-.288 3.155a15.4 15.4 0 0 1-1.177 3.53c-.382.807-.911 1.711-1 1.711-.038 0-2.99-2.932-6.56-6.516l-6.492-6.516-6.491 6.516c-3.57 3.584-6.523 6.516-6.56 6.516-.09 0-.618-.904-1-1.71a16.3 16.3 0 0 1-1.39-4.735c-.1-.717-.1-3.185 0-3.902.167-1.202.457-2.374.865-3.502.264-.73.932-2.113 1.28-2.651l.233-.358 1.223 1.188c.673.654 1.64 1.61 2.152 2.125.51.515.954.937.985.937.092 0 4.535-4.487 4.535-4.58 0-.047-2.002-2.095-4.45-4.551-4.3-4.318-4.453-4.463-4.576-4.387-.249.156-1.213.963-1.787 1.496-5.179 4.815-7.757 11.977-6.84 19.008a22.25 22.25 0 0 0 3.901 9.976c.746 1.054 1.301 1.702 2.398 2.8.965.967 2.28 2.114 2.426 2.117.03.001 2.971-2.924 6.534-6.5" style="fill:url(#b)"/><path d="M35.89 15.197c3.016-3.028 3.785-3.829 3.718-3.872-.264-.17-2.18-.714-3.362-.956-1.431-.293-2.301-.369-4.242-.369s-2.81.076-4.241.369c-1.183.242-3.098.787-3.363.956-.067.043.703.844 3.718 3.872 2.09 2.1 3.84 3.818 3.886 3.818s1.796-1.718 3.887-3.818" style="fill:#984ee5"/><path d="M32.004 10c-1.94 0-2.811.074-4.242.367-1.183.242-3.1.788-3.364.957-.026.017.256.327.663.754.73-.233 1.879-.543 2.7-.71 1.432-.294 2.302-.368 4.243-.368 1.94 0 2.811.074 4.242.367.822.168 1.971.478 2.701.711.407-.427.69-.737.662-.754-.264-.17-2.18-.715-3.363-.957-1.43-.293-2.302-.367-4.242-.367m13.133 4.281c-.091-.037-8.965 8.844-8.965 8.973 0 .01.284.291.484.49 1.29-1.388 8.398-8.497 8.48-8.463.14.057 1.248.978 1.821 1.512a22.2 22.2 0 0 1 6.64 11.93c.23 1.15.341 2.35.368 3.562.03-1.55-.076-3.095-.367-4.562a22.2 22.2 0 0 0-6.641-11.93c-.573-.534-1.682-1.455-1.82-1.512m-26.274.026a.07.07 0 0 0-.054.01c-.25.155-1.212.962-1.786 1.496-4.6 4.277-7.105 10.408-6.972 16.654.14-5.895 2.617-11.606 6.972-15.654.574-.534 1.536-1.34 1.786-1.497.122-.076.276.07 4.578 4.387 2.176 2.185 3.58 3.629 3.957 4.047.205-.203.492-.486.492-.496 0-.047-2.002-2.095-4.45-4.55-3.763-3.779-4.352-4.362-4.523-4.397m13.14 13.103-6.491 6.516c-3.57 3.584-6.521 6.515-6.559 6.515-.089 0-.618-.904-1-1.71a16.3 16.3 0 0 1-1.39-4.735c-.025-.174-.023-.618-.036-.95a35 35 0 0 0-.013 1.905c.004-.308.003-.623.013-.904.013.331.011.775.035.95a16.3 16.3 0 0 0 1.391 4.733c.382.807.911 1.711 1 1.711.038 0 2.988-2.931 6.559-6.515l6.492-6.516 6.492 6.516c3.57 3.584 6.521 6.515 6.559 6.515.089 0 .618-.904 1-1.71.535-1.13.917-2.263 1.18-3.528a12 12 0 0 0 .245-1.871q.006.189.02.361c.004-.223.02-.363.02-.646 0-.278-.032-.467-.04-.715a12 12 0 0 1-.246 1.871 15.4 15.4 0 0 1-1.18 3.527c-.381.807-.91 1.711-1 1.711-.037 0-2.988-2.931-6.558-6.515zm0 17.7c-.046 0-1.765 1.692-3.82 3.765l-3.734 3.77.328.125c.12.045.277.085.41.128l2.997-3.023c2.054-2.073 3.773-3.766 3.82-3.766s1.766 1.693 3.82 3.766l2.98 3.008c.143-.038.34-.082.434-.117l.32-.121-3.734-3.77c-2.054-2.073-3.774-3.766-3.82-3.766" style="opacity:.2;fill:#fff"/><path d="M32 4A28 28 0 0 0 4 32a28 28 0 0 0 .018.492A28 28 0 0 1 32 5a28 28 0 0 1 27.975 27.492A28 28 0 0 0 60 32 28 28 0 0 0 32 4" style="opacity:.1;fill:#fff"/></g></svg>