<svg xmlns="http://www.w3.org/2000/svg" xmlns:xlink="http://www.w3.org/1999/xlink" width="48" height="48"><defs><linearGradient xlink:href="#a" id="c" x1="388.571" x2="428.571" y1="523.798" y2="523.798" gradientTransform="translate(-384.571 -499.793)" gradientUnits="userSpaceOnUse"/><linearGradient id="a" x1="400.57" x2="392.9" y1="537.6" y2="546.58" gradientTransform="matrix(1.25 0 0 1.26667 -92.14 -151.08)" gradientUnits="userSpaceOnUse"><stop stop-color="#ffc35a"/><stop offset="1" stop-color="#faae2a"/></linearGradient><linearGradient id="b" x1="390.57" x2="386.57" y1="535.36" y2="540.75" gradientTransform="matrix(1.25 0 0 1.26667 -92.14 -151.08)" gradientUnits="userSpaceOnUse"><stop stop-color="#fdbc4b"/><stop offset="1" stop-color="#dde341"/></linearGradient><linearGradient xlink:href="#b" id="e" x1="13" x2="31" y1="13" y2="31" gradientTransform="translate(10.669 -5.019)" gradientUnits="userSpaceOnUse"><stop stop-color="#383e51"/><stop offset="1" stop-color="#655c6f" stop-opacity="0"/></linearGradient></defs><rect width="40" height="40" x="4.005" y="4" rx="20" ry="20" style="opacity:.9;fill:url(#c);fill-opacity:1;stroke-width:2.8;stroke-opacity:.550265"/><path d="M4.012 23.505c-.004.166-.012.332-.012.5 0 11.08 8.92 20 20 20s20-8.92 20-20c0-.168-.008-.334-.012-.5A19.95 19.95 0 0 1 24 43.005a19.95 19.95 0 0 1-19.988-19.5" style="opacity:.15;fill:#000;fill-opacity:1;stroke-width:2.8;stroke-opacity:.550265"/><path d="m36.889 8.695-7.752 24.223-5-13-2 2-7 16 4.707 5.648q1.17.246 2.386.352h3.54A19.95 19.95 0 0 0 44 24a19.93 19.93 0 0 0-7.111-15.305" style="opacity:.2;fill:url(#e);fill-opacity:1;fill-rule:evenodd"/><path d="M36.828 7.918q.99 0 1.105 1.49l-.552 4.681h.203l.436-.346h.117v.104q-.902.658-1.745 3.605-.32 2.531-1.076 4.68-.668 2.22-.668 4.092l-.844 2.461q0 .312.96.624-.174.729-.523.728v.139h.203v.104q0 .381-.988.381l.116.139v.485h-.204q.204.729.873.728v.243h-.873v.139q.436 0 .436.624l-1.22.485.116.139v.104q0 .243-.437.243v.138q.553 0 .553.243-.785.312-2.064 3.085-1.31 2.462-2.268 2.462h-.233q-.727-.555-1.192-3.675-1.86-4.75-1.861-5.582 0-2.15-1.192-4.576-.32-1.075-.436-2.704l-.524-.14q-1.977 3.572-2.064 5.583-.552 1.179-.872 2.843 1.192.381 1.192.728v.138q-.93-.138-1.309-.52-.406.936-1.075 5.2-.524 1.977-1.309 1.977-2.21-.867-3.692-2.843-.232 0-.756-1.976-.32 0-.436-1.976-1.105-2.808-1.512-6.414v-3.606h-.117l-.523.139v-.139q0-.242.523-.242l-.116-2.08v-1.63l-.843-5.2v-2.22q.552-2.08 1.919-2.08s.08-.005.349.347l-.35-.104q2.124 2.775 2.501 4.68h.989v.243h-.756v.278q.435 1.594.64 1.594h.232l.524-.138.116.138.116-.138.117.138v.104q-.582.418-.786 1.144h-.087v.243h.204q.406 5.79 1.512 8.772l.436.346h.232q.437 0 1.832-4.056.901-1.838 1.309-3.224l-.117-.382q.902-1.352 1.861-1.352h.204q.61 0 .872.763.815 1.145 1.308 3.432l1.629 3.606q.32.381.32.867.9 2.045 1.628 2.704h.349q.61 0 1.628-5.062.174 0 .96-2.704v-.139l-1.832-.243-.437.14h-.552v-.278l1.105-.104h2.152q1.25-4.473 2.297-6.934.348-5.062.959-5.062zM25.751 10.9h.32v.104q0 .242-.32.242l-.117.139v.139l-.32-.14v-.242zm-1.629 1.352v.138q0 .278-1.395.59v-.243l.64-.347.116.104h.087zm-3.14 1.248v.104q-.61.555-1.977 1.005v-.242q.233 0 .233-.382zm5.524 1.213.117.139v.104l-.204.277h-.116l-.233-.277v-.104zm4.013.139h.116v.104l-.203.277h-.117v-.138zm-1.832 1.733.436.347q-.115.381-.64.381l-.232-.381q0-.174.436-.347m2.617 1.595.087.139v.104l-.087.138h-.233v-.138zm-4.129 1.248v.104l-.552.52h-.32v-.138q0-.312.872-.486m-3.809 10.61h.117v.242l-.873.52-.116-.139v-.243zm-.32 3.223h.088l.349.382-.117.104h-.116l-.204-.347z" style="font-style:normal;font-variant:normal;font-weight:700;font-stretch:normal;font-size:medium;line-height:125%;letter-spacing:0;word-spacing:0;fill:#fff;fill-opacity:1;stroke:none"/></svg>