<svg xmlns="http://www.w3.org/2000/svg" xmlns:xlink="http://www.w3.org/1999/xlink" width="48" height="48"><defs><linearGradient id="h"><stop offset="0" style="stop-color:#fff;stop-opacity:.18478261"/><stop offset=".442" style="stop-color:#fff;stop-opacity:.45882353"/><stop offset=".651" style="stop-color:#fff;stop-opacity:.48235294"/><stop offset=".77" style="stop-color:#fff;stop-opacity:.37254902"/><stop offset="1" style="stop-color:#fff;stop-opacity:0"/></linearGradient><linearGradient id="g"><stop offset="0" style="stop-color:#cdb4de;stop-opacity:0"/><stop offset=".322" style="stop-color:#cdb4de;stop-opacity:.4627451"/><stop offset=".497" style="stop-color:#cdb4de;stop-opacity:.50196078"/><stop offset=".662" style="stop-color:#cdb4de;stop-opacity:.44705882"/><stop offset=".894" style="stop-color:#cdb4de;stop-opacity:.07058824"/><stop offset="1" style="stop-color:#cdb4de;stop-opacity:0"/></linearGradient><linearGradient id="f"><stop offset="0" style="stop-color:#362685;stop-opacity:1"/><stop offset="1" style="stop-color:#493fa0;stop-opacity:1"/></linearGradient><linearGradient id="e"><stop offset="0" style="stop-color:#374394;stop-opacity:1"/><stop offset="1" style="stop-color:#5a65b2;stop-opacity:1"/></linearGradient><linearGradient id="d"><stop offset="0" style="stop-color:#244d7d;stop-opacity:1"/><stop offset="1" style="stop-color:#6176b9;stop-opacity:1"/></linearGradient><linearGradient id="c"><stop offset="0" style="stop-color:#3d6ca8;stop-opacity:1"/><stop offset="1" style="stop-color:#a4d4da;stop-opacity:0"/></linearGradient><linearGradient id="b"><stop offset="0" style="stop-color:#3d77a8;stop-opacity:1"/><stop offset="1" style="stop-color:#aac7dc;stop-opacity:1"/></linearGradient><linearGradient id="a"><stop offset="0" style="stop-color:#94bada;stop-opacity:1"/><stop offset="1" style="stop-color:#b0d6e1;stop-opacity:1"/></linearGradient><linearGradient xlink:href="#a" id="l" x1="264.499" x2="285.072" y1="71.977" y2="77.949" gradientTransform="matrix(.33644 0 0 .33644 -81.57 -11.028)" gradientUnits="userSpaceOnUse"/><linearGradient xlink:href="#b" id="j" x1="286.795" x2="305.911" y1="32.573" y2="93.089" gradientTransform="matrix(.33644 0 0 .33644 -81.57 -11.028)" gradientUnits="userSpaceOnUse"/><linearGradient xlink:href="#c" id="k" x1="261.314" x2="298.745" y1="103.042" y2="112.996" gradientTransform="matrix(.33644 0 0 .33644 -81.57 -11.028)" gradientUnits="userSpaceOnUse"/><linearGradient xlink:href="#d" id="i" x1="300.332" x2="347.531" y1="46.382" y2="125.611" gradientTransform="matrix(.33644 0 0 .33644 -81.57 -11.028)" gradientUnits="userSpaceOnUse"/><linearGradient xlink:href="#e" id="n" x1="324.027" x2="348.378" y1="111.877" y2="149.601" gradientTransform="matrix(.33644 0 0 .33644 -81.57 -11.028)" gradientUnits="userSpaceOnUse"/><linearGradient xlink:href="#f" id="p" x1="346.999" x2="349.329" y1="144.46" y2="158.792" gradientTransform="matrix(.33644 0 0 .33644 -81.57 -11.028)" gradientUnits="userSpaceOnUse"/><linearGradient xlink:href="#g" id="m" x1="331.269" x2="361.862" y1="169.691" y2="78.12" gradientTransform="matrix(.33644 0 0 .33644 -81.57 -11.028)" gradientUnits="userSpaceOnUse"/><linearGradient xlink:href="#h" id="o" x1="301.21" x2="362.291" y1="148.454" y2="143.305" gradientTransform="matrix(.33644 0 0 .33644 -81.57 -11.028)" gradientUnits="userSpaceOnUse"/></defs><circle cx="24" cy="24" r="21" style="opacity:1;fill:url(#i);fill-opacity:1;stroke:none;stroke-width:3.92329;stroke-linecap:round;stroke-linejoin:miter;stroke-miterlimit:4;stroke-dasharray:none;stroke-opacity:1;paint-order:stroke markers fill"/><path d="M24 3A21 21 0 0 0 3 24a21 21 0 0 0 1.835 8.522c4.133 5.1 9.168 5.225 12.589 2.444 1.023-.832 1.902-1.925 2.568-3.221 2.334-4.647.901-9.844 1.929-15.135.399-2.784 1.02-5.074 1.886-6.841 2.435-4.964 6.806-5.807 13.62-1.908A21 21 0 0 0 24 3" style="fill:url(#j);fill-opacity:1;stroke:none;stroke-width:.336445px;stroke-linecap:butt;stroke-linejoin:miter;stroke-opacity:1"/><path d="M24 3A21 21 0 0 0 3 24a21 21 0 0 0 1.835 8.522c4.133 5.1 9.168 5.225 12.589 2.444 1.023-.832 1.902-1.925 2.568-3.221 2.334-4.647.901-9.844 1.929-15.135.399-2.784 1.02-5.074 1.886-6.841 2.435-4.964 6.806-5.807 13.62-1.908A21 21 0 0 0 24 3" style="fill:url(#k);fill-opacity:1;stroke:none;stroke-width:.336445px;stroke-linecap:butt;stroke-linejoin:miter;stroke-opacity:1"/><path d="M20.503 3.297A21 21 0 0 0 3 24a21 21 0 0 0 .097 1.85c2.58 7.502 9.711 3.677 9.888-1.634.358-10.78 1.792-18.047 7.518-20.919" style="fill:url(#l);fill-opacity:1;stroke:none;stroke-width:.336445px;stroke-linecap:butt;stroke-linejoin:miter;stroke-opacity:1"/><path d="M40.843 11.497C21.06 5.82 30.037 50.925 4.836 32.523A21 21 0 0 0 24 45c11.598 0 21-9.402 21-21a21 21 0 0 0-4.157-12.503" style="opacity:.529;fill:url(#m);fill-opacity:1;stroke:none;stroke-width:.336445px;stroke-linecap:butt;stroke-linejoin:miter;stroke-opacity:1"/><path d="M39.17 21.486c-3.446-.06-7.864 3.44-10.504 10.499-2.571 6.876-8.795 12.779-15.994 9.671A21 21 0 0 0 24 45a21 21 0 0 0 20.128-15.052c.36-5.586-1.92-8.41-4.958-8.462" style="fill:url(#n);fill-opacity:1;stroke:none;stroke-width:.336445px;stroke-linecap:butt;stroke-linejoin:miter;stroke-opacity:1"/><path d="M37.968 28.822c-6.219-.257-12.37 18.019-24.801 13.03-.165-.062-.33-.124-.495-.195A21 21 0 0 0 24 45a21 21 0 0 0 18.813-11.722c-1.688-3.126-3.27-4.391-4.845-4.456" style="opacity:.239;fill:url(#o);fill-opacity:1;stroke:none;stroke-width:.336445px;stroke-linecap:butt;stroke-linejoin:miter;stroke-opacity:1"/><path d="M36.549 34.874c-2.162.128-4.175 1.528-6.12 4.3-1.838 2.617-6.111 5.352-9.584 5.479l.828.187q1.159.145 2.327.16c5.886-.012 11.007-1.96 14.976-6.306.067-.981-.048-2.164-.427-2.825-.525-.916-.993-1.054-2-.995m-.001 1.21c.56-.033.797.081 1.01.454.198.344.3 1.11.114 2.248A20.13 20.13 0 0 1 26.93 43.92c1.71-.977 3.25-2.282 4.371-3.88 1.742-2.48 4.043-3.885 5.246-3.956" style="color:#000;font-style:normal;font-variant:normal;font-weight:400;font-stretch:normal;font-size:medium;line-height:normal;font-family:sans-serif;font-variant-ligatures:normal;font-variant-position:normal;font-variant-caps:normal;font-variant-numeric:normal;font-variant-alternates:normal;font-feature-settings:normal;text-indent:0;text-align:start;text-decoration:none;text-decoration-line:none;text-decoration-style:solid;text-decoration-color:#000;letter-spacing:normal;word-spacing:normal;text-transform:none;writing-mode:lr-tb;direction:ltr;text-orientation:mixed;dominant-baseline:auto;baseline-shift:baseline;text-anchor:start;white-space:normal;shape-padding:0;clip-rule:nonzero;display:inline;overflow:visible;visibility:visible;opacity:1;isolation:auto;mix-blend-mode:normal;color-interpolation:sRGB;color-interpolation-filters:linearRGB;solid-color:#000;solid-opacity:1;vector-effect:none;fill:#fff;fill-opacity:.184314;fill-rule:nonzero;stroke:none;stroke-width:1.68223;stroke-linecap:butt;stroke-linejoin:miter;stroke-miterlimit:4;stroke-dasharray:none;stroke-dashoffset:0;stroke-opacity:1;color-rendering:auto;image-rendering:auto;shape-rendering:auto;text-rendering:auto"/><path d="M36.498 35.245c-1.682.1-4.04 1.685-5.883 4.312-2 2.848-5.526 4.822-8.833 5.32A21 21 0 0 0 24 45a21 21 0 0 0 14.476-5.8c.57-2.849-.41-4.048-1.978-3.955" style="fill:url(#p);fill-opacity:1;stroke:none;stroke-width:.336445px;stroke-linecap:butt;stroke-linejoin:miter;stroke-opacity:1"/><path d="M39.185 20.645c-4.028-.07-8.59 3.783-11.307 11.045-1.235 3.303-3.362 6.367-5.956 8.186s-7.083 2.45-10.424 1.008l1.115.736.059.037c7.2 3.107 13.423-2.796 15.994-9.672 2.64-7.06 7.058-10.558 10.504-10.499 3.039.053 5.319 2.876 4.958 8.462a21 21 0 0 0 .7-3.408c-.213-1.32-.614-2.445-1.196-3.352-1.037-1.616-2.671-2.512-4.447-2.543M27.718 44.661" style="color:#000;font-style:normal;font-variant:normal;font-weight:400;font-stretch:normal;font-size:medium;line-height:normal;font-family:sans-serif;font-variant-ligatures:normal;font-variant-position:normal;font-variant-caps:normal;font-variant-numeric:normal;font-variant-alternates:normal;font-feature-settings:normal;text-indent:0;text-align:start;text-decoration:none;text-decoration-line:none;text-decoration-style:solid;text-decoration-color:#000;letter-spacing:normal;word-spacing:normal;text-transform:none;writing-mode:lr-tb;direction:ltr;text-orientation:mixed;dominant-baseline:auto;baseline-shift:baseline;text-anchor:start;white-space:normal;shape-padding:0;clip-rule:nonzero;display:inline;overflow:visible;visibility:visible;opacity:.074;isolation:auto;mix-blend-mode:normal;color-interpolation:sRGB;color-interpolation-filters:linearRGB;solid-color:#000;solid-opacity:1;vector-effect:none;fill:#fff;fill-opacity:1;fill-rule:nonzero;stroke:none;stroke-width:1.68223;stroke-linecap:butt;stroke-linejoin:miter;stroke-miterlimit:4;stroke-dasharray:none;stroke-dashoffset:0;stroke-opacity:1;color-rendering:auto;image-rendering:auto;shape-rendering:auto;text-rendering:auto"/><path d="M30.24 5.414a8 8 0 0 0-.396 0c-2.684.074-4.667 1.563-6.036 4.355-.867 1.768-1.488 4.057-1.887 6.84-1.028 5.292.405 10.49-1.929 15.136-.666 1.296-1.545 2.39-2.568 3.221-3.42 2.781-8.455 2.656-12.587-2.442l.011.027c2.891 3.677 7.743 7.347 13.163 2.915 1.218-.99 1.808-1.862 2.574-3.35l.004-.007-.004.007c2.683-5.344 1.227-10.203 2.16-15.004l.007-.042.006-.04c.382-2.67 1.025-5.24 1.779-6.777 1.059-2.158 2.78-3.612 4.425-4.022 2.07-.516 7.893 1.54 10.464 3.55a21 21 0 0 0-1.883-1.83l-.003-.002-.105-.081-.008-.007-.002-.001c-2.794-1.599-5.177-2.4-7.184-2.446Z" style="color:#000;font-style:normal;font-variant:normal;font-weight:400;font-stretch:normal;font-size:medium;line-height:normal;font-family:sans-serif;font-variant-ligatures:normal;font-variant-position:normal;font-variant-caps:normal;font-variant-numeric:normal;font-variant-alternates:normal;font-feature-settings:normal;text-indent:0;text-align:start;text-decoration:none;text-decoration-line:none;text-decoration-style:solid;text-decoration-color:#000;letter-spacing:normal;word-spacing:normal;text-transform:none;writing-mode:lr-tb;direction:ltr;text-orientation:mixed;dominant-baseline:auto;baseline-shift:baseline;text-anchor:start;white-space:normal;shape-padding:0;clip-rule:nonzero;display:inline;overflow:visible;visibility:visible;opacity:1;isolation:auto;mix-blend-mode:normal;color-interpolation:sRGB;color-interpolation-filters:linearRGB;solid-color:#000;solid-opacity:1;vector-effect:none;fill:#220c1e;fill-opacity:.112319;fill-rule:nonzero;stroke:none;stroke-width:3.36445;stroke-linecap:butt;stroke-linejoin:miter;stroke-miterlimit:4;stroke-dasharray:none;stroke-dashoffset:0;stroke-opacity:1;color-rendering:auto;image-rendering:auto;shape-rendering:auto;text-rendering:auto"/><path d="M36.785 35.242a3 3 0 0 0-.287.003c-1.682.1-4.04 1.686-5.883 4.312-1.98 2.821-5.458 4.782-8.737 5.303q.293.033.587.057c.247.022.495.031.743.044a21 21 0 0 0 .42.02c1.992-.94 5.259-2.289 7.373-5.175 1.791-2.446 4.311-4.02 5.513-4.09.56-.033 1.166.382 1.38.755.364.214.479 1.593.414 2.877l.168-.148c.534-2.67-.294-3.892-1.691-3.957m.518 4.989q-.215.179-.435.352a21 21 0 0 0 .435-.352m-1.728 1.276q-.222.149-.448.29a21 21 0 0 0 .448-.29m-1.906 1.126q-.183.093-.367.183a21 21 0 0 0 .367-.183m-1.94.886c-.11.044-.223.083-.334.125zm-1.977.67q-.163.047-.327.089zm-2.038.473q-.155.027-.309.052zm-2.09.268q-.162.014-.325.024z" style="color:#000;font-style:normal;font-variant:normal;font-weight:400;font-stretch:normal;font-size:medium;line-height:normal;font-family:sans-serif;font-variant-ligatures:normal;font-variant-position:normal;font-variant-caps:normal;font-variant-numeric:normal;font-variant-alternates:normal;font-feature-settings:normal;text-indent:0;text-align:start;text-decoration:none;text-decoration-line:none;text-decoration-style:solid;text-decoration-color:#000;letter-spacing:normal;word-spacing:normal;text-transform:none;writing-mode:lr-tb;direction:ltr;text-orientation:mixed;dominant-baseline:auto;baseline-shift:baseline;text-anchor:start;white-space:normal;shape-padding:0;clip-rule:nonzero;display:inline;overflow:visible;visibility:visible;opacity:1;isolation:auto;mix-blend-mode:normal;color-interpolation:sRGB;color-interpolation-filters:linearRGB;solid-color:#000;solid-opacity:1;vector-effect:none;fill:#000;fill-opacity:.184314;fill-rule:nonzero;stroke:none;stroke-width:1.68223;stroke-linecap:butt;stroke-linejoin:miter;stroke-miterlimit:4;stroke-dasharray:none;stroke-dashoffset:0;stroke-opacity:1;color-rendering:auto;image-rendering:auto;shape-rendering:auto;text-rendering:auto"/></svg>