<svg xmlns="http://www.w3.org/2000/svg" xmlns:xlink="http://www.w3.org/1999/xlink" width="48" height="48"><defs><linearGradient xlink:href="#a" id="i" x1="300.332" x2="347.531" y1="46.382" y2="125.611" gradientTransform="matrix(.34445 0 0 .33644 -84.082 -11.028)" gradientUnits="userSpaceOnUse"/><linearGradient id="a"><stop offset="0" style="stop-color:#244d7d;stop-opacity:1"/><stop offset="1" style="stop-color:#6176b9;stop-opacity:1"/></linearGradient><linearGradient xlink:href="#b" id="j" x1="286.795" x2="305.911" y1="32.573" y2="93.089" gradientTransform="matrix(.34445 0 0 .33644 -84.082 -11.028)" gradientUnits="userSpaceOnUse"/><linearGradient id="b"><stop offset="0" style="stop-color:#3d77a8;stop-opacity:1"/><stop offset="1" style="stop-color:#aac7dc;stop-opacity:1"/></linearGradient><linearGradient xlink:href="#c" id="k" x1="261.314" x2="298.745" y1="103.042" y2="112.996" gradientTransform="matrix(.34445 0 0 .33644 -84.082 -11.028)" gradientUnits="userSpaceOnUse"/><linearGradient id="c"><stop offset="0" style="stop-color:#3d6ca8;stop-opacity:1"/><stop offset="1" style="stop-color:#a4d4da;stop-opacity:0"/></linearGradient><linearGradient xlink:href="#d" id="l" x1="264.499" x2="285.072" y1="71.977" y2="77.949" gradientTransform="matrix(.34445 0 0 .33644 -84.082 -11.028)" gradientUnits="userSpaceOnUse"/><linearGradient id="d"><stop offset="0" style="stop-color:#94bada;stop-opacity:1"/><stop offset="1" style="stop-color:#b0d6e1;stop-opacity:1"/></linearGradient><linearGradient xlink:href="#e" id="m" x1="331.269" x2="361.862" y1="169.691" y2="78.12" gradientTransform="matrix(.34445 0 0 .33644 -84.082 -11.028)" gradientUnits="userSpaceOnUse"/><linearGradient id="e"><stop offset="0" style="stop-color:#cdb4de;stop-opacity:0"/><stop offset=".322" style="stop-color:#cdb4de;stop-opacity:.4627451"/><stop offset=".497" style="stop-color:#cdb4de;stop-opacity:.50196078"/><stop offset=".662" style="stop-color:#cdb4de;stop-opacity:.44705882"/><stop offset=".894" style="stop-color:#cdb4de;stop-opacity:.07058824"/><stop offset="1" style="stop-color:#cdb4de;stop-opacity:0"/></linearGradient><linearGradient xlink:href="#f" id="n" x1="324.027" x2="348.378" y1="111.877" y2="149.601" gradientTransform="matrix(.34445 0 0 .33644 -84.082 -11.028)" gradientUnits="userSpaceOnUse"/><linearGradient id="f"><stop offset="0" style="stop-color:#374394;stop-opacity:1"/><stop offset="1" style="stop-color:#5a65b2;stop-opacity:1"/></linearGradient><linearGradient xlink:href="#g" id="o" x1="301.21" x2="362.291" y1="148.454" y2="143.305" gradientTransform="matrix(.34445 0 0 .33644 -84.082 -11.028)" gradientUnits="userSpaceOnUse"/><linearGradient id="g"><stop offset="0" style="stop-color:#fff;stop-opacity:.18478261"/><stop offset=".442" style="stop-color:#fff;stop-opacity:.45882353"/><stop offset=".651" style="stop-color:#fff;stop-opacity:.48235294"/><stop offset=".77" style="stop-color:#fff;stop-opacity:.37254902"/><stop offset="1" style="stop-color:#fff;stop-opacity:0"/></linearGradient><linearGradient xlink:href="#h" id="p" x1="346.999" x2="349.329" y1="144.46" y2="158.792" gradientTransform="matrix(.34445 0 0 .33644 -84.082 -11.028)" gradientUnits="userSpaceOnUse"/><linearGradient id="h"><stop offset="0" style="stop-color:#362685;stop-opacity:1"/><stop offset="1" style="stop-color:#493fa0;stop-opacity:1"/></linearGradient></defs><ellipse cx="24" cy="24" rx="21.5" ry="21" style="fill:url(#i);fill-opacity:1;stroke:none;stroke-width:3.96971;stroke-linecap:round;stroke-linejoin:miter;stroke-miterlimit:4;stroke-dasharray:none;stroke-opacity:1;paint-order:stroke markers fill"/><path d="M24 3A21.5 21 0 0 0 2.5 24a21.5 21 0 0 0 1.879 8.522c4.23 5.1 9.386 5.225 12.888 2.444 1.048-.832 1.947-1.925 2.63-3.221 2.389-4.647.922-9.844 1.974-15.135.409-2.784 1.044-5.074 1.932-6.841 2.493-4.964 6.968-5.807 13.944-1.908A21.5 21 0 0 0 24 3" style="fill:url(#j);fill-opacity:1;stroke:none;stroke-width:.340426px;stroke-linecap:butt;stroke-linejoin:miter;stroke-opacity:1"/><path d="M24 3A21.5 21 0 0 0 2.5 24a21.5 21 0 0 0 1.879 8.522c4.23 5.1 9.386 5.225 12.888 2.444 1.048-.832 1.947-1.925 2.63-3.221 2.389-4.647.922-9.844 1.974-15.135.409-2.784 1.044-5.074 1.932-6.841 2.493-4.964 6.968-5.807 13.944-1.908A21.5 21 0 0 0 24 3" style="fill:url(#k);fill-opacity:1;stroke:none;stroke-width:.340426px;stroke-linecap:butt;stroke-linejoin:miter;stroke-opacity:1"/><path d="M20.42 3.297A21.5 21 0 0 0 2.5 24a21.5 21 0 0 0 .1 1.85c2.64 7.502 9.942 3.677 10.122-1.634.367-10.78 1.836-18.047 7.698-20.919" style="fill:url(#l);fill-opacity:1;stroke:none;stroke-width:.340426px;stroke-linecap:butt;stroke-linejoin:miter;stroke-opacity:1"/><path d="M41.244 11.497C20.99 5.82 30.181 50.925 4.38 32.523 7.825 40.1 15.512 44.989 24 45c11.874 0 21.5-9.402 21.5-21a20.68 20.68 0 0 0-4.256-12.503" style="opacity:.529;fill:url(#m);fill-opacity:1;stroke:none;stroke-width:.340426px;stroke-linecap:butt;stroke-linejoin:miter;stroke-opacity:1"/><path d="M39.531 21.486c-3.528-.06-8.051 3.44-10.754 10.499-2.632 6.876-9.004 12.779-16.375 9.671A21.5 21 0 0 0 24 45a21.5 21 0 0 0 20.607-15.052c.37-5.586-1.965-8.41-5.076-8.462" style="fill:url(#n);fill-opacity:1;stroke:none;stroke-width:.340426px;stroke-linecap:butt;stroke-linejoin:miter;stroke-opacity:1"/><path d="M38.3 28.822c-6.367-.257-12.663 18.019-25.391 13.03-.169-.062-.337-.124-.507-.195A21.5 21 0 0 0 24 45a21.5 21 0 0 0 19.261-11.722c-1.728-3.126-3.347-4.391-4.96-4.456" style="opacity:.239;fill:url(#o);fill-opacity:1;stroke:none;stroke-width:.340426px;stroke-linecap:butt;stroke-linejoin:miter;stroke-opacity:1"/><path d="M36.848 34.874c-2.214.128-4.274 1.528-6.267 4.3-1.88 2.617-6.256 5.352-9.811 5.479l.847.187q1.186.145 2.383.16c6.026-.012 11.269-1.96 15.332-6.306.07-.981-.048-2.164-.437-2.825-.538-.916-1.016-1.054-2.047-.995m-.001 1.21c.573-.033.816.081 1.035.454.202.344.306 1.11.116 2.248C34.93 41.558 31.094 43.329 27 43.92c1.751-.977 3.328-2.282 4.476-3.88 1.783-2.48 4.139-3.885 5.37-3.956" style="color:#000;font-style:normal;font-variant:normal;font-weight:400;font-stretch:normal;font-size:medium;line-height:normal;font-family:sans-serif;font-variant-ligatures:normal;font-variant-position:normal;font-variant-caps:normal;font-variant-numeric:normal;font-variant-alternates:normal;font-feature-settings:normal;text-indent:0;text-align:start;text-decoration:none;text-decoration-line:none;text-decoration-style:solid;text-decoration-color:#000;letter-spacing:normal;word-spacing:normal;text-transform:none;writing-mode:lr-tb;direction:ltr;text-orientation:mixed;dominant-baseline:auto;baseline-shift:baseline;text-anchor:start;white-space:normal;shape-padding:0;clip-rule:nonzero;display:inline;overflow:visible;visibility:visible;isolation:auto;mix-blend-mode:normal;color-interpolation:sRGB;color-interpolation-filters:linearRGB;solid-color:#000;solid-opacity:1;vector-effect:none;fill:#fff;fill-opacity:.184314;fill-rule:nonzero;stroke:none;stroke-width:1.70212;stroke-linecap:butt;stroke-linejoin:miter;stroke-miterlimit:4;stroke-dasharray:none;stroke-dashoffset:0;stroke-opacity:1;color-rendering:auto;image-rendering:auto;shape-rendering:auto;text-rendering:auto"/><path d="M36.796 35.245c-1.722.1-4.136 1.685-6.024 4.312-2.047 2.848-5.657 4.822-9.043 5.32A21.5 21 0 0 0 24 45a21.5 21 0 0 0 14.82-5.8c.584-2.849-.42-4.048-2.024-3.955" style="fill:url(#p);fill-opacity:1;stroke:none;stroke-width:.340426px;stroke-linecap:butt;stroke-linejoin:miter;stroke-opacity:1"/><path d="M39.546 20.645c-4.123-.07-8.795 3.783-11.575 11.045-1.265 3.303-3.443 6.367-6.099 8.186s-7.251 2.45-10.671 1.008l1.14.736.061.037c7.371 3.107 13.743-2.796 16.375-9.672 2.703-7.06 7.227-10.558 10.754-10.499 3.111.053 5.445 2.876 5.076 8.462.335-1.115.575-2.255.717-3.408-.218-1.32-.629-2.445-1.225-3.352-1.06-1.616-2.734-2.512-4.553-2.543m-11.74 24.016" style="color:#000;font-style:normal;font-variant:normal;font-weight:400;font-stretch:normal;font-size:medium;line-height:normal;font-family:sans-serif;font-variant-ligatures:normal;font-variant-position:normal;font-variant-caps:normal;font-variant-numeric:normal;font-variant-alternates:normal;font-feature-settings:normal;text-indent:0;text-align:start;text-decoration:none;text-decoration-line:none;text-decoration-style:solid;text-decoration-color:#000;letter-spacing:normal;word-spacing:normal;text-transform:none;writing-mode:lr-tb;direction:ltr;text-orientation:mixed;dominant-baseline:auto;baseline-shift:baseline;text-anchor:start;white-space:normal;shape-padding:0;clip-rule:nonzero;display:inline;overflow:visible;visibility:visible;opacity:.074;isolation:auto;mix-blend-mode:normal;color-interpolation:sRGB;color-interpolation-filters:linearRGB;solid-color:#000;solid-opacity:1;vector-effect:none;fill:#fff;fill-opacity:1;fill-rule:nonzero;stroke:none;stroke-width:1.70212;stroke-linecap:butt;stroke-linejoin:miter;stroke-miterlimit:4;stroke-dasharray:none;stroke-dashoffset:0;stroke-opacity:1;color-rendering:auto;image-rendering:auto;shape-rendering:auto;text-rendering:auto"/><path d="M30.39 5.414a8 8 0 0 0-.406 0c-2.75.074-4.779 1.563-6.181 4.355-.887 1.768-1.523 4.057-1.932 6.84-1.052 5.292.415 10.49-1.974 15.136-.683 1.296-1.582 2.39-2.63 3.221-3.501 2.781-8.656 2.656-12.887-2.442l.012.027c2.96 3.677 7.928 7.347 13.477 2.915 1.246-.99 1.85-1.862 2.634-3.35l.004-.007-.004.007c2.748-5.344 1.257-10.203 2.211-15.004l.008-.042.006-.04c.392-2.67 1.05-5.24 1.821-6.777 1.084-2.158 2.847-3.612 4.53-4.022 2.12-.516 8.081 1.54 10.714 3.55a21 21 0 0 0-1.928-1.83l-.003-.002-.108-.081-.008-.007-.002-.001c-2.86-1.599-5.3-2.4-7.355-2.446z" style="color:#000;font-style:normal;font-variant:normal;font-weight:400;font-stretch:normal;font-size:medium;line-height:normal;font-family:sans-serif;font-variant-ligatures:normal;font-variant-position:normal;font-variant-caps:normal;font-variant-numeric:normal;font-variant-alternates:normal;font-feature-settings:normal;text-indent:0;text-align:start;text-decoration:none;text-decoration-line:none;text-decoration-style:solid;text-decoration-color:#000;letter-spacing:normal;word-spacing:normal;text-transform:none;writing-mode:lr-tb;direction:ltr;text-orientation:mixed;dominant-baseline:auto;baseline-shift:baseline;text-anchor:start;white-space:normal;shape-padding:0;clip-rule:nonzero;display:inline;overflow:visible;visibility:visible;isolation:auto;mix-blend-mode:normal;color-interpolation:sRGB;color-interpolation-filters:linearRGB;solid-color:#000;solid-opacity:1;vector-effect:none;fill:#220c1e;fill-opacity:.112319;fill-rule:nonzero;stroke:none;stroke-width:3.40426;stroke-linecap:butt;stroke-linejoin:miter;stroke-miterlimit:4;stroke-dasharray:none;stroke-dashoffset:0;stroke-opacity:1;color-rendering:auto;image-rendering:auto;shape-rendering:auto;text-rendering:auto"/><path d="M37.09 35.242a3 3 0 0 0-.294.003c-1.722.1-4.136 1.686-6.024 4.312-2.027 2.821-5.587 4.782-8.945 5.303q.3.033.602.057c.253.022.507.031.76.044a21.5 21 0 0 0 .43.02c2.04-.94 5.384-2.289 7.549-5.175 1.833-2.446 4.413-4.02 5.644-4.09.573-.033 1.194.382 1.413.755.373.214.49 1.593.423 2.877a21.5 21 0 0 0 .173-.148c.546-2.67-.302-3.892-1.732-3.957m.53 4.989c-.148.118-.295.238-.445.352a21.5 21 0 0 0 .445-.352m-1.77 1.276q-.227.149-.458.29a21.5 21 0 0 0 .459-.29m-1.95 1.126q-.189.093-.377.183a21.5 21 0 0 0 .376-.183m-1.986.886c-.114.044-.23.083-.343.125a21.5 21 0 0 0 .343-.125m-2.025.67q-.166.047-.335.089a21.5 21 0 0 0 .335-.088m-2.086.473q-.159.027-.317.052a21.5 21 0 0 0 .317-.052m-2.14.268-.333.024a21.5 21 0 0 0 .332-.024" style="color:#000;font-style:normal;font-variant:normal;font-weight:400;font-stretch:normal;font-size:medium;line-height:normal;font-family:sans-serif;font-variant-ligatures:normal;font-variant-position:normal;font-variant-caps:normal;font-variant-numeric:normal;font-variant-alternates:normal;font-feature-settings:normal;text-indent:0;text-align:start;text-decoration:none;text-decoration-line:none;text-decoration-style:solid;text-decoration-color:#000;letter-spacing:normal;word-spacing:normal;text-transform:none;writing-mode:lr-tb;direction:ltr;text-orientation:mixed;dominant-baseline:auto;baseline-shift:baseline;text-anchor:start;white-space:normal;shape-padding:0;clip-rule:nonzero;display:inline;overflow:visible;visibility:visible;isolation:auto;mix-blend-mode:normal;color-interpolation:sRGB;color-interpolation-filters:linearRGB;solid-color:#000;solid-opacity:1;vector-effect:none;fill:#000;fill-opacity:.184314;fill-rule:nonzero;stroke:none;stroke-width:1.70212;stroke-linecap:butt;stroke-linejoin:miter;stroke-miterlimit:4;stroke-dasharray:none;stroke-dashoffset:0;stroke-opacity:1;color-rendering:auto;image-rendering:auto;shape-rendering:auto;text-rendering:auto"/></svg>