<svg xmlns="http://www.w3.org/2000/svg" xmlns:xlink="http://www.w3.org/1999/xlink" width="48" height="48" viewBox="0 0 12.7 12.7"><defs><linearGradient id="b"><stop offset="0" style="stop-color:#1ba97f;stop-opacity:1"/><stop offset="1" style="stop-color:#61c0cf;stop-opacity:1"/></linearGradient><linearGradient xlink:href="#b" id="c" x1="-11.906" x2="-.794" y1="11.906" y2=".795" gradientUnits="userSpaceOnUse"/></defs><rect width="11.112" height="11.111" x="-11.906" y=".795" rx="5.556" ry="5.556" style="fill-opacity:1;fill:url(#c)" transform="scale(-1 1)"/><path d="M.797 6.212q-.002.069-.003.139a5.544 5.544 0 0 0 5.556 5.555 5.544 5.544 0 0 0 5.556-5.555q0-.07-.003-.14a5.543 5.543 0 0 1-5.553 5.417A5.54 5.54 0 0 1 .797 6.212" style="display:inline;overflow:visible;opacity:.3;fill:#000;fill-opacity:1;stroke-width:.777827;stroke-opacity:.55"/><path d="M.797 6.488Q.795 6.42.794 6.35A5.544 5.544 0 0 1 6.35.794a5.544 5.544 0 0 1 5.556 5.555q0 .07-.003.14A5.543 5.543 0 0 0 6.35 1.071 5.54 5.54 0 0 0 .797 6.488" style="display:inline;overflow:visible;opacity:.3;fill:#fff;fill-opacity:1;stroke-width:.777827;stroke-opacity:.55"/><path fill="#fff" d="M9.03 9.497c.535-.256.784-.577.87-1.122.065-.415.035-.522-.78-.914-1.036-.499-.972-.501-1.418.053-.278.345-.397.457-.487.457-1.056-.286-2.13-1.11-2.472-2.193 0-.046.113-.216.25-.377.404-.473.404-.485.052-1.353-.406-1-.543-.993-.986-1.012-.452-.018-.595.054-.881.444-.297.404-.402.729-.4 1.227.003.633.21 1.141.811 1.987 1.031 1.451 2.037 2.239 3.486 2.73.887.3 1.435.32 1.954.073z" style="stroke-width:.255135"/></svg>