<svg xmlns="http://www.w3.org/2000/svg" xmlns:xlink="http://www.w3.org/1999/xlink" width="48" height="48"><defs><linearGradient id="k" x1="27" x2="19" y1="44" y2="33" gradientTransform="matrix(1 0 0 1.25 -5 -6)" gradientUnits="userSpaceOnUse"><stop stop-color="#18222a"/><stop offset="1" stop-color="#566069"/></linearGradient><linearGradient id="j" x2="0" y1="36" y2="32" gradientTransform="translate(-4.5 4)" gradientUnits="userSpaceOnUse"><stop stop-color="#f39c12"/><stop offset="1" stop-color="#f5ab35"/></linearGradient><linearGradient id="b" x2="0" y1="543.8" y2="503.8" gradientTransform="matrix(1.125 0 0 1 -435.64 -499.8)" gradientUnits="userSpaceOnUse"><stop stop-color="#bd8d48"/><stop offset="1" stop-color="#e8b971"/></linearGradient><linearGradient id="g" x2="0" y1="541.8" y2="505.8" gradientTransform="translate(-384.57 -499.8)" gradientUnits="userSpaceOnUse"><stop stop-color="#d8dcde"/><stop offset="1" stop-color="#f9fafb"/></linearGradient><linearGradient id="d" x2="0" y1="542.8" y2="504.8" gradientTransform="translate(-384.57 -499.8)" gradientUnits="userSpaceOnUse"><stop stop-color="#977a5c"/><stop offset="1" stop-color="#9d8062"/></linearGradient><linearGradient id="a" x1="11" x2="29.13" y1="4" y2="22.13" gradientTransform="translate(7 4)" gradientUnits="userSpaceOnUse"><stop/><stop offset="1" stop-opacity="0"/></linearGradient><linearGradient id="i" x1="8" x2="21" y1="4" y2="32" gradientTransform="translate(7 4)" gradientUnits="userSpaceOnUse"><stop stop-color="#bdc3c7"/><stop offset="1" stop-color="#7f8c8d"/></linearGradient><linearGradient xlink:href="#a" id="h" x1="21.57" x2="42" y1="8.773" y2="29.2" gradientUnits="userSpaceOnUse"/><linearGradient xlink:href="#a" id="l" x1="14" x2="21" y1="39" y2="46" gradientUnits="userSpaceOnUse"/></defs><rect width="36" height="40" x="6" y="4" fill="url(#b)" rx="3" ry="3"/><rect width="34" height="38" x="7" y="5" fill="url(#d)" opacity=".5" rx="2" ry="2"/><rect width="30" height="1" x="9" y="43" fill="#aa7f41" ry="0"/><rect width="32" height="36" x="8" y="6" fill="url(#g)" rx="1" ry="1"/><g fill="#1f1f1f" fill-opacity=".314"><rect width="28" height="2" x="10" y="40" ry=".878"/><rect width="28" height="1" x="10" y="41" ry=".5"/></g><g fill-rule="evenodd"><path fill="url(#h)" d="M21.57 8.773 21 10l1 34h20V29.203Z" opacity=".2"/><path fill="url(#a)" d="m18 8 2 2 2 20-7 2z" opacity=".2"/></g><g stroke-linejoin="bevel"><path fill="url(#i)" d="M18 8a2 2 0 0 0-2 2 2 2 0 0 0 .855 1.637C15.39 16.06 12.71 23.29 10 26c0 0 4 6 4 10h10c0-4 4-10 4-10-2.71-2.71-5.387-9.93-6.85-14.361A2 2 0 0 0 22 10a2 2 0 0 0-2-2v18.27a2 2 0 1 1-2 .001V12z"/><g stroke-width="6.2"><path fill="url(#j)" d="M14 36h10c.831 0 1.5.669 1.5 1.5S24.831 39 24 39H14c-.831 0-1.5-.669-1.5-1.5S13.169 36 14 36"/><rect width="10" height="5" x="14" y="39" fill="url(#k)" rx="0"/></g></g><path fill="url(#l)" fill-rule="evenodd" d="m14 39 5 5h5v-5z" opacity=".2"/></svg>