<svg xmlns="http://www.w3.org/2000/svg" xmlns:xlink="http://www.w3.org/1999/xlink" width="48" height="48" viewBox="0 0 12.7 12.7"><defs><linearGradient id="b" x1="26" x2="26" y1="-2.325" y2="36.339" gradientTransform="matrix(1 0 0 .9762 -22.502 -246.905)" gradientUnits="userSpaceOnUse"><stop offset="0" stop-color="#da4453"/><stop offset="1" stop-color="#da4453" stop-opacity=".075" style="stop-color:#ec9da4;stop-opacity:1"/></linearGradient><linearGradient xlink:href="#b" id="c" x1="-11.906" x2="-.794" y1="11.906" y2=".795" gradientUnits="userSpaceOnUse"/></defs><rect width="11.112" height="11.111" x="-11.906" y=".795" rx="5.556" ry="5.556" style="fill-opacity:1;fill:url(#c)" transform="scale(-1 1)"/><path d="M.797 6.488Q.795 6.42.794 6.35A5.544 5.544 0 0 1 6.35.794a5.544 5.544 0 0 1 5.556 5.555q0 .07-.003.14A5.543 5.543 0 0 0 6.35 1.071 5.54 5.54 0 0 0 .797 6.488" style="display:inline;overflow:visible;opacity:.3;fill:#fff;fill-opacity:1;stroke-width:.777827;stroke-opacity:.55"/><path fill="#fff" d="m5.65 6.036.555-1.154-.503-1.05s-.113-.313-.477-.313H2.536s-.497.049-.409.494l2.495 5.28s.37.694.87 0l2.18-4.612s.085-.188.175-.188h1.247s.125-.01.07.111l-1.47 3.129s-.084.213-.178 0L7.03 6.672l-.537 1.144.609 1.316s.511 1.063 1.011 0c.5-1.064 2.414-5.078 2.414-5.078s.266-.535-.346-.535H7.305s-.182.007-.288.226c-.105.22-1.882 4.018-1.882 4.018s-.066.132-.136 0S3.5 4.614 3.5 4.614s-.07-.129.118-.129h1.188s.107-.019.197.176c.089.195.645 1.375.645 1.375z" style="stroke-width:.877822"/></svg>