<svg xmlns="http://www.w3.org/2000/svg" xmlns:xlink="http://www.w3.org/1999/xlink" width="48" height="48"><defs><linearGradient id="a" x1="19.33" x2="19.472" y1="62.5" y2="3.807" gradientTransform="translate(-58.857 1.339)scale(.71429)" gradientUnits="userSpaceOnUse"><stop stop-color="#212329"/><stop offset="1" stop-color="#31363b"/></linearGradient><linearGradient id="c" x2="0" y1="10" y2="32" gradientTransform="translate(1)" gradientUnits="userSpaceOnUse"><stop stop-color="#f67400"/><stop offset="1" stop-color="#ed1515"/></linearGradient><linearGradient id="d" x1="16" x2="43.999" y1="12.997" y2="41" gradientUnits="userSpaceOnUse"><stop stop-color="#292c2f"/><stop offset="1" stop-opacity="0"/></linearGradient><linearGradient xlink:href="#a" id="b" x1="19.33" x2="19.472" y1="62.5" y2="3.807" gradientTransform="translate(1.143 1.339)scale(.71429)" gradientUnits="userSpaceOnUse"/></defs><path d="M12.953 4c-1.24 0-2.42.25-3.492.701a8.9 8.9 0 0 0-2.844 1.916 8.9 8.9 0 0 0-1.916 2.844A9 9 0 0 0 4 12.953v16.094c0 1.24.25 2.42.701 3.492a8.9 8.9 0 0 0 1.916 2.844 8.9 8.9 0 0 0 2.844 1.916 9 9 0 0 0 2.533.648l.008.053-.004 8L20 38h15.047c1.24 0 2.42-.25 3.492-.701a8.9 8.9 0 0 0 2.844-1.916 8.9 8.9 0 0 0 1.916-2.844A9 9 0 0 0 44 29.047V12.953c0-1.24-.25-2.42-.701-3.492a8.9 8.9 0 0 0-1.916-2.844 8.9 8.9 0 0 0-2.844-1.916A9 9 0 0 0 35.047 4Z" style="fill:url(#b)"/><path d="m13 13 3-3 8 8 8-8 3 3-8 8 8 8-3 3-8-8-8 8-3-3 8-8z" style="fill:url(#c)"/><path d="M22 38h13.047c1.24 0 2.42-.25 3.492-.701a8.9 8.9 0 0 0 2.844-1.916 8.9 8.9 0 0 0 1.916-2.844A9 9 0 0 0 44 29.047V23l-9-10-8 8 8 8-3 3-8-8-8 8z" style="fill:url(#d)"/></svg>