<svg xmlns="http://www.w3.org/2000/svg" xmlns:xlink="http://www.w3.org/1999/xlink" width="48" height="48"><defs><linearGradient id="e" x1="392.22" x2="430.91" y1="512.95" y2="538.87" gradientTransform="matrix(1.05579 0 0 1.04628 -22.795 -24.685)" gradientUnits="userSpaceOnUse"><stop stop-color="#303a44"/><stop offset="1" stop-color="#525c68"/></linearGradient><linearGradient id="j" x1="11.08" x2="39.28" y1="12.636" y2="40.843" gradientTransform="matrix(1.07864 0 0 1.06893 -2.178 -1.825)" gradientUnits="userSpaceOnUse" spreadMethod="reflect"><stop stop-color="#f19519"/><stop offset="1" stop-color="#fcdc4d"/></linearGradient><linearGradient id="k" x1="393.87" x2="398.44" y1="509.4" y2="513.11" gradientTransform="matrix(1.05579 0 0 1.04628 -4.098 -6.327)" gradientUnits="userSpaceOnUse"><stop stop-color="#292c2f"/><stop offset="1" stop-opacity="0"/></linearGradient><linearGradient id="l" x1="414.5" x2="391.55" y1="517.94" y2="535.72" gradientTransform="matrix(-1.05579 0 0 1.04628 839.94 -24.685)" gradientUnits="userSpaceOnUse"><stop stop-color="#0a0d0f"/><stop offset="1" stop-color="#808c9b"/></linearGradient><linearGradient id="m" x1="11.08" x2="39.28" y1="12.636" y2="40.843" gradientTransform="matrix(-1.07864 0 0 1.06893 50.18 -1.825)" gradientUnits="userSpaceOnUse" spreadMethod="reflect"><stop stop-color="#f19b19"/><stop offset="1" stop-color="#ffd92e"/></linearGradient><linearGradient id="c" x1="389.57" x2="427.57" gradientTransform="rotate(45 408.693 523.774)" gradientUnits="userSpaceOnUse"><stop stop-color="#fcfcfc"/><stop offset="1" stop-color="#eff0f1"/></linearGradient><linearGradient id="d" x1="771.72" x2="799.06" y1="133.24" y2="160.57" gradientUnits="userSpaceOnUse"><stop stop-color="#e5e7e8"/><stop offset="1" stop-color="#dcdee0"/></linearGradient><linearGradient id="a" x1="392.47" x2="391.55" y1="513.71" y2="535.72" gradientTransform="matrix(-1.05579 0 0 1.04628 839.94 -24.685)" gradientUnits="userSpaceOnUse"><stop stop-color="#1c242a"/><stop offset="1" stop-color="#2c3138"/></linearGradient><linearGradient xlink:href="#a" id="b" x1="392.47" x2="391.55" y1="513.71" y2="535.72" gradientTransform="matrix(-1.05579 0 0 1.04628 813.94 -24.685)" gradientUnits="userSpaceOnUse"/></defs><g stroke-linejoin="round" stroke-width="3" color="#000"><path fill="url(#b)" d="M389.57 510.8v25l12.02.042-.021-25.04z" transform="translate(-384.57 -499.8)"/><path fill="url(#a)" d="m414.91 510.8.021 25.04H426.6l-.021-25.04z" transform="translate(-384.57 -499.8)"/></g><g stroke-opacity=".55" stroke-width="8.587"><path fill="#f9f9f9" d="M23.97 15.889c-1.88 0-3.758.72-5.197 2.16a7.333 7.333 0 0 0 0 10.393 7.333 7.333 0 0 0 10.394 0 7.333 7.333 0 0 0 0-10.394 7.33 7.33 0 0 0-5.197-2.16m-.002 4.157a3.155 3.155 0 0 1 3.155 3.156 3.155 3.155 0 0 1-3.155 3.155 3.155 3.155 0 0 1-3.156-3.155 3.155 3.155 0 0 1 3.156-3.156" opacity=".4"/><path fill="url(#c)" d="M408.59 504.69a18.94 18.94 0 0 0-13.436 5.582 18.96 18.96 0 0 0 0 26.871 18.96 18.96 0 0 0 26.871 0 18.96 18.96 0 0 0 0-26.871 18.94 18.94 0 0 0-13.436-5.582m0 13.02c1.532 0 3.064.588 4.238 1.762a5.98 5.98 0 0 1 0 8.477 5.98 5.98 0 0 1-8.477 0 5.98 5.98 0 0 1 0-8.477 5.98 5.98 0 0 1 4.238-1.762" transform="translate(-405.377 -527.07)scale(1.0508)"/><path fill="url(#d)" d="M408.777 512.708a11 11 0 0 0-.78.028 11 11 0 0 0-1.09.133 11 11 0 0 0-1.074.24 11 11 0 0 0-1.043.347 11 11 0 0 0-1.004.448 11 11 0 0 0-.953.549 11 11 0 0 0-.894.638 11 11 0 0 0-.826.727 11 11 0 0 0-.749.804 11 11 0 0 0-.666.875 11 11 0 0 0-.574.938 11 11 0 0 0-.478.99 11 11 0 0 0-.38 1.033 11 11 0 0 0-.27 1.065 11 11 0 0 0-.165 1.086 11 11 0 0 0-.054 1.1 11 11 0 0 0 .027.779 11 11 0 0 0 .133 1.09 11 11 0 0 0 .242 1.074 11 11 0 0 0 .346 1.043 11 11 0 0 0 .447 1.004 11 11 0 0 0 .549.953 11 11 0 0 0 .64.894 11 11 0 0 0 .725.826 11 11 0 0 0 .805.749 11 11 0 0 0 .875.666 11 11 0 0 0 .937.574 11 11 0 0 0 .99.478 11 11 0 0 0 1.034.38 11 11 0 0 0 1.064.27 11 11 0 0 0 1.086.165 11 11 0 0 0 1.1.054 11 11 0 0 0 .779-.027 11 11 0 0 0 1.09-.133 11 11 0 0 0 1.074-.242 11 11 0 0 0 1.043-.346 11 11 0 0 0 1.004-.447 11 11 0 0 0 .953-.549 11 11 0 0 0 .894-.64 11 11 0 0 0 .827-.725 11 11 0 0 0 .748-.805 11 11 0 0 0 .666-.875 11 11 0 0 0 .574-.937 11 11 0 0 0 .478-.99 11 11 0 0 0 .38-1.034 11 11 0 0 0 .27-1.064 11 11 0 0 0 .165-1.086 11 11 0 0 0 .055-1.1 11 11 0 0 0-.028-.779 11 11 0 0 0-.133-1.09 11 11 0 0 0-.242-1.074 11 11 0 0 0-.345-1.043 11 11 0 0 0-.448-1.004 11 11 0 0 0-.549-.953 11 11 0 0 0-.638-.894 11 11 0 0 0-.727-.827 11 11 0 0 0-.804-.748 11 11 0 0 0-.875-.666 11 11 0 0 0-.938-.574 11 11 0 0 0-.99-.478 11 11 0 0 0-1.033-.38 11 11 0 0 0-1.065-.27 11 11 0 0 0-1.086-.165 11 11 0 0 0-1.1-.055m-.19 4.998c1.533 0 3.068.585 4.242 1.76a5.99 5.99 0 0 1 0 8.484 5.985 5.985 0 0 1-8.482 0 5.99 5.99 0 0 1 0-8.484 5.97 5.97 0 0 1 4.24-1.76" transform="translate(-405.377 -527.07)scale(1.0508)"/></g><path fill="#bdc3c7" d="M4.01 23.5c-.004.167-.012.332-.012.5 0 11.08 8.92 20 20 20s20-8.92 20-20c0-.168-.008-.333-.012-.5A19.953 19.953 0 0 1 23.998 43 19.95 19.95 0 0 1 4.01 23.5"/><g stroke-linejoin="round" stroke-width="3" color="#000"><path fill="url(#e)" d="m395.57 504.8 31 31-6 6-31-31z" transform="translate(-384.57 -499.8)"/><path fill="url(#j)" d="m10 7-3 3 2 2 3-3zm3 3-3 3 4 4 3-3zm5 5-3 3 4 4 3-3zm5.238 4.738-3.051 3.02 4.574 4.533 3.053-3.02zM28 25l-3 3 4 4 3-3zm5 5-3 3 4 4 3-3zm5 5-3 3 2 2 3-3z"/><path fill="url(#k)" d="m414.07 523.3-6 6 8.5 8.5 6-6z" opacity=".671" transform="translate(-384.57 -499.8)"/><path fill="url(#l)" d="m420.57 504.8-31 31 6 6 31-30.997z" transform="translate(-384.57 -499.8)"/><path fill="url(#m)" d="m37 7-2 2 3 3 2-2zm-3 3-4 4 3 3 4-4zm-5 5-4 4 3 3 4-4zm-5 5-4 4 3 3 4-4zm-5 5-4 4 3 3 4-4zm-5 5-4 4 3 3 4-4zm-5 5-2 2 3 3 2-2z"/></g></svg>