<svg xmlns="http://www.w3.org/2000/svg" xmlns:xlink="http://www.w3.org/1999/xlink" width="48" height="48"><defs><linearGradient id="c"><stop offset="0" style="stop-color:#000;stop-opacity:1"/><stop offset="1" style="stop-color:#000;stop-opacity:0"/></linearGradient><linearGradient id="b"><stop offset="0" style="stop-color:#fcfcfc;stop-opacity:1"/><stop offset="1" style="stop-color:#fbc2bb;stop-opacity:1"/></linearGradient><linearGradient id="a"><stop offset="0" style="stop-color:#c61423;stop-opacity:1"/><stop offset="1" style="stop-color:#f58273;stop-opacity:1"/></linearGradient><linearGradient xlink:href="#a" id="d" x1="32.249" x2="16.546" y1="42.037" y2="4.902" gradientUnits="userSpaceOnUse"/><linearGradient xlink:href="#b" id="g" x1="17.197" x2="27.308" y1="11.627" y2="31.453" gradientUnits="userSpaceOnUse"/><linearGradient xlink:href="#c" id="f" x1="22.137" x2="29.967" y1="1.975" y2="1.975" gradientUnits="userSpaceOnUse"/><linearGradient xlink:href="#c" id="e" x1="19.732" x2="33.161" y1="23.413" y2="36.842" gradientUnits="userSpaceOnUse"/></defs><rect width="40" height="40" x="4" y="4" rx="20" style="fill:url(#d);fill-opacity:1"/><path d="M4.012 23.5c-.004.166-.012.332-.012.5 0 11.08 8.92 20 20 20s20-8.92 20-20c0-.168-.008-.334-.012-.5A19.95 19.95 0 0 1 24 43 19.95 19.95 0 0 1 4.012 23.5" style="fill:#2c2e31;fill-opacity:.235294"/><path d="m34.318 15.29-5.029 4.718-14.285 8.556-3.613 4.428 10.933 10.934a19.953 19.953 0 0 0 21.652-18.979z" style="opacity:.2;fill:url(#e);fill-opacity:1;stroke:none;stroke-width:2;stroke-linecap:round;stroke-linejoin:round;stroke-miterlimit:4;stroke-dasharray:none;stroke-opacity:1"/><path d="m23.274 1.327.291-3.554h29.072v8.404H22.144l-.007-1.99z" style="opacity:.2;fill:url(#f);fill-opacity:1;stroke:none;stroke-width:2;stroke-linecap:round;stroke-linejoin:round;stroke-miterlimit:4;stroke-dasharray:none;stroke-opacity:1" transform="rotate(45)"/><path d="M17.93 15q-.098.004-.226.012c-.324.021-6.437 1.166-6.827 1.279-.41.119-.762.371-.848.61-.146.407.278 1.727.837 2.614 2.23 2.649 4.707 3.322 7.134 4.75.279.326.389.483-1.748 1.43-3.34 1.478-4.42 2.736-5.06 4.597-.19.55-.277 2.004-.144 2.37.173.474.277.57 3.504-.043 3.241-.615 2.973-.65 3.244-.907.22-.208.232-.259.329-1.246.055-.565.17-1.67.253-1.962.195-.68.684-1.39 1.217-1.764 2.022-1.423 5.828-.714 7.887 1.47.776.823 1.263 1.997 1.652 3.273.224.736.452 1.056.806 1.126.326.065.334-.037 4.458-.82 2.294-.436 3.249-.647 3.384-.753.29-.225.291-.778.002-1.691-.496-1.57-1.356-2.613-2.95-3.82-.787-.597-1.783-1.161-3.468-1.968-1.603-.768-2.366-.975-2.366-1.214 0-.197.63-.285 1.9-.665 2.787-.834 4.13-2.003 4.13-4.169 0-.95-.18-1.717-.46-1.966-.37-.33-1.021-.341-2.579-.06-4.992.903-4.648.868-4.88 1.244-.123.199-.118.245.108 1.149.13.517.233 1.165.233 1.316-.002.32-.418.853-.62 1.044-.498.465-1.624.782-2.778.782-1.396 0-2.448-.48-3.492-1.592-.755-.804-1.14-1.582-1.655-3.013-.451-1.257-.513-1.421-.977-1.413z" style="fill:url(#g);fill-opacity:1;stroke-width:1.02207494"/></svg>