<svg xmlns="http://www.w3.org/2000/svg" xmlns:xlink="http://www.w3.org/1999/xlink" width="48" height="48"><defs><linearGradient id="a" x1="407.63" x2="407.69" y1="543.77" y2="504.13" gradientTransform="translate(-384.57 -499.8)" gradientUnits="userSpaceOnUse" spreadMethod="pad"><stop stop-color="#c6cdd1"/><stop offset="1" stop-color="#e0e5e7"/></linearGradient><linearGradient id="c" x1="29.439" x2="38.26" y1="26.03" y2="35.796" gradientUnits="userSpaceOnUse"><stop stop-color="#292c2f"/><stop offset="1" stop-color="#292c2f" stop-opacity="0"/></linearGradient><linearGradient id="e" x1="319.208" x2="657.653" y1="235.149" y2="269.494" gradientUnits="userSpaceOnUse"><stop offset="0" style="stop-color:#e54c18"/><stop offset="1" style="stop-color:#fec350"/></linearGradient><linearGradient xlink:href="#a" id="f" x1="25" x2="25" y1="44" y2="4" gradientUnits="userSpaceOnUse"/><linearGradient xlink:href="#b" id="g" x1="10.973" x2="36.937" y1="24" y2="24" gradientTransform="matrix(1.00141 0 0 1.00257 .011 .438)" gradientUnits="userSpaceOnUse"/><linearGradient xlink:href="#c" id="h" x1="29.439" x2="38.26" y1="26.03" y2="35.796" gradientUnits="userSpaceOnUse"/><linearGradient xlink:href="#e" id="i" x1="319.208" x2="657.653" y1="235.149" y2="269.494" gradientTransform="matrix(.08824 0 0 .08717 -18.921 3.391)" gradientUnits="userSpaceOnUse"/><linearGradient id="b" x2="0" y1="542.8" y2="503.8" gradientUnits="userSpaceOnUse"><stop stop-color="#2a2c2f"/><stop offset="1" stop-color="#424649"/></linearGradient></defs><rect width="40" height="40" x="4" y="4" rx="3" style="fill:url(#f);fill-opacity:1"/><g font-size="12.666" style="font-size:12.66600037px"><text x="730.88" y="132.19" style="font-family:&quot;Droid Sans&quot;" transform="translate(-384.57 -499.8)">
   
  </text></g><path d="m11.29 37.99 9.817-12.85L11 11.013l6.496.005 8.053 11.11-12.041 15.864zm19.214.01-7.998-11.129L34.648 11h2.163l-9.857 12.91L37 38z" style="fill:url(#g);fill-opacity:1"/><path d="M4 40v1c0 1.662 1.338 3 3 3h34c1.662 0 3-1.338 3-3v-1c0 1.662-1.338 3-3 3H7c-1.662 0-3-1.338-3-3" style="opacity:.15"/><path d="M37.427 20.486s2.632 3.833 1.678 7.621c-.537 2.131-3.529 3.588-5.53 5.957-3.083 3.647-20.893.36-22.71-1.86L13.9 35.32l-2.61 2.672L17 44l24.003.003c1.662 0 3-1.338 3-3V28.18z" style="opacity:.2;fill:url(#h)"/><path d="M23.999 15.93c-.781 0-1.616.059-2.367.13 1.338 1.724 2.449 3.185 3.727 4.843-.718-1.525-2.192-2.987-1.682-3.74.504-.744 1.434-.619 1.505-.619 1.49 0 2.924.167 4.265.474l.315-.427c-1.789-.455-3.732-.662-5.763-.662m8.07 1.39-.289.41c4.132 1.598 6.927 4.651 6.927 8.15 0 5.152-6.06 9.333-13.525 9.333-7.467 0-13.528-4.18-13.528-9.333 0-2.806 1.797-5.324 4.64-7.036l-.874-1.316C10.96 19.396 8 22.675 8 26.408c0 5.81 7.167 10.521 15.999 10.521C32.83 36.93 40 32.217 40 26.41c0-3.874-3.187-7.261-7.93-9.088" style="fill:url(#i);fill-opacity:1"/></svg>