<svg xmlns="http://www.w3.org/2000/svg" viewBox="0 0 48 48"><defs><linearGradient id="c" x1="389.32" x2="426.695" y1="547.675" y2="499.921" gradientTransform="matrix(1.04996 0 0 1.0499 -452.985 -525.94)" gradientUnits="userSpaceOnUse"><stop stop-color="#18222a" style="stop-color:#1e2b35;stop-opacity:1"/><stop offset="1" stop-color="#566069" style="stop-color:#6d7983;stop-opacity:1"/></linearGradient></defs><rect width="41.999" height="41.996" x="-44.999" y="3.002" rx="20.999" ry="20.998" style="display:inline;overflow:visible;fill:url(#c);stroke-width:2.93982;stroke-opacity:.55" transform="scale(-1 1)"/><path d="M3.012 23.475C3.008 23.65 3 23.825 3 24a20.953 20.953 0 0 0 20.999 20.998c11.633 0 21-9.365 21-20.998 0-.176-.009-.349-.013-.525a20.95 20.95 0 0 1-20.987 20.473A20.947 20.947 0 0 1 3.012 23.475" style="display:inline;overflow:visible;opacity:.3;fill:#000;fill-opacity:1;stroke-width:2.93982;stroke-opacity:.55"/><path d="M3.012 24.521c-.004-.175-.012-.348-.012-.525A20.953 20.953 0 0 1 23.999 2.998c11.633 0 21 9.365 21 20.998 0 .176-.009.35-.013.525A20.95 20.95 0 0 0 23.999 4.048 20.947 20.947 0 0 0 3.012 24.521" style="display:inline;overflow:visible;opacity:.3;fill:#fff;fill-opacity:1;stroke-width:2.93982;stroke-opacity:.55"/><path d="M32.852 23.508c2.588 2.653 2.909 5.767 1.137 9.027a14.25 14.25 0 0 1-4.159 4.701c.212-.317.321-.485.434-.645 2.441-3.414 3.254-6.989 1.147-10.898-.816-1.513-1.618-3.073-1.615-4.848 0-.782.113-1.56.174-2.339.318 2 1.486 3.572 2.882 5.002M26.13 21.575c-.834-2.287-.84-4.54.207-6.73.424-.883.922-1.706 1.366-2.587.779-1.543 1.219-3.018.925-4.814a1.08 1.08 0 0 1 .113-.683c.14.24 1.28 6.087-.188 8.57-1.133 1.905-2.297 3.81-2.424 6.244" style="fill:#f55;stroke-width:.0609679"/><path d="M30.288 28.5c-.311-2.05-2.308-4.934-3.684-5.381 2.837 3.936.406 5.387-.754 4.899-6.423-4.78-1.557-15.47-1.646-16.542-1.591 1.643-3.274 3.206-4.76 4.934-2.73 3.182-4.814 6.723-5.12 11.045a29 29 0 0 0 .129 3.195c-1.755-2.028-1.758-4.295-1.485-6.637-3.95 7.235 1.454 16.115 6.026 14.903-1.41-1.113-2.049-1.98-2.11-2.946 1.454 1.44 3.192 1.365 5.155 1.16a8.1 8.1 0 0 1-2.024-5.141v-1.246a8.8 8.8 0 0 0 2.506 4.005c-.984-2.254-.782-4.463-.625-6.675v-.191c1.523 2.448 2.469 4.97 1.963 8.023 1.687-.98 2.42-2.55 3.19-4.35.767 2.448-.13 4.388-.899 6.395 2.67-2.574 4.766-5.422 4.138-9.45z" style="fill:#f55;stroke-width:.0609679"/></svg>