<svg xmlns="http://www.w3.org/2000/svg" width="48" height="48"><defs><linearGradient id="a" x2="0" y1="543.8" y2="503.8" gradientUnits="userSpaceOnUse"><stop stop-color="#2a2c2f"/><stop offset="1" stop-color="#536161"/></linearGradient><linearGradient id="b" x2="0" y1="34" y2="14" gradientTransform="translate(379.57 499.8)" gradientUnits="userSpaceOnUse"><stop stop-color="#b40000"/><stop offset="1" stop-color="#b40000"/></linearGradient><linearGradient id="c" x1="403.57" x2="416.57" y1="523.8" y2="536.8" gradientUnits="userSpaceOnUse"><stop stop-color="#292c2f"/><stop offset="1" stop-opacity="0"/></linearGradient><linearGradient id="d" x2="0" y1="34" y2="14" gradientTransform="translate(379.57 499.8)" gradientUnits="userSpaceOnUse"><stop stop-color="#ec0000"/><stop offset="1" stop-color="#ff2020"/></linearGradient></defs><g transform="translate(-384.57 -499.8)"><rect width="40" height="40" x="388.57" y="503.8" fill="url(#a)" rx="0"/><path fill="#1c1e20" d="M388.57 542.8h40v1h-40z"/><path fill="url(#b)" d="m407.16 523.8 10 10 1.414-1.414-8.584-8.586 8.584-8.586-1.414-1.414z"/><path fill="url(#c)" fill-rule="evenodd" d="m399.99 533.8 9.586 9.586h19l3.586-14.586-13.586-13.586z" opacity=".4"/><path fill="url(#d)" d="m399.99 513.8-1.414 1.414 8.584 8.586-8.584 8.586 1.414 1.414 10-10z"/><path fill="#fff" fill-opacity=".294" fill-rule="evenodd" d="m399.984 513.8-.414.414 10 9.996.414-.414z"/></g></svg>