<svg xmlns="http://www.w3.org/2000/svg" xmlns:xlink="http://www.w3.org/1999/xlink" width="32" height="32"><defs><linearGradient id="c"><stop offset="0" style="stop-color:#33383a;stop-opacity:1"/><stop offset="1" style="stop-color:#485052;stop-opacity:1"/></linearGradient><linearGradient xlink:href="#a" id="e" x1="19.685" x2="2" y1="19.814" y2="2" gradientTransform="matrix(1.55555 0 0 1.55555 -1.111 1019.251)" gradientUnits="userSpaceOnUse"><stop offset="0" stop-color="#be1111" style="stop-color:#2a2c2f;stop-opacity:1"/><stop offset="1" stop-color="#e74c3c" style="stop-color:#536161;stop-opacity:1"/></linearGradient><linearGradient id="a" x1="428.816" x2="388.865" y1="547.634" y2="499.679" gradientTransform="matrix(.45 0 0 .45 -207.465 783.495)" gradientUnits="userSpaceOnUse"><stop stop-color="#2a2c2f"/><stop offset="1" stop-color="#536161"/></linearGradient><linearGradient xlink:href="#b" id="f" x1="31.82" x2="9.344" y1="43.723" y2="7.308" gradientTransform="matrix(.7 0 0 .7 -1.295 1019.562)" gradientUnits="userSpaceOnUse"/><linearGradient id="b" x1="31.82" x2="9.344" y1="43.723" y2="7.308" gradientTransform="matrix(.45 0 0 .45 -1.609 1002.799)" gradientUnits="userSpaceOnUse"><stop stop-color="#536161" style="stop-color:#dce1e1;stop-opacity:1"/><stop offset="1" stop-color="#f4f5f5" style="stop-color:#fbfbfb;stop-opacity:1"/></linearGradient><linearGradient xlink:href="#c" id="g" x1="28.407" x2="17.319" y1="26.08" y2="15.302" gradientTransform="matrix(.7 0 0 .7 -1.295 1019.562)" gradientUnits="userSpaceOnUse"/><linearGradient xlink:href="#d" id="h" x1="406.501" x2="419.974" y1="527.014" y2="539.825" gradientTransform="matrix(.7 0 0 .7 -270.492 669.705)" gradientUnits="userSpaceOnUse"/><linearGradient id="d" x1="406.501" x2="419.974" y1="527.014" y2="539.825" gradientTransform="matrix(.45 0 0 .45 -174.665 777.889)" gradientUnits="userSpaceOnUse"><stop stop-color="#292c2f"/><stop offset="1" stop-opacity="0"/></linearGradient></defs><g transform="translate(0 -1020.362)"><rect width="28" height="28" x="2" y="1022.362" ry="4.667" style="fill:url(#e);fill-opacity:1;stroke-width:1.5557"/><path d="M2 1044.141v1.554a4.656 4.656 0 0 0 4.667 4.667h18.666a4.656 4.656 0 0 0 4.667-4.667v-1.554a4.656 4.656 0 0 1-4.667 4.664H6.667A4.656 4.656 0 0 1 2 1044.141" style="opacity:.2;fill:#000;fill-opacity:1;stroke-width:1.5557"/><path d="m12.995 1029.362-.99.99 6.01 6.01-6.01 6.011.99.99 7-7-.99-.99z" style="fill:url(#f);stroke:url(#g);stroke-width:.14;stroke-miterlimit:4;stroke-dasharray:none;stroke-opacity:1"/><path d="m13 1043.362 6.71 6.711h9.8v-4.2l-9.51-9.51z" style="opacity:.4;fill:url(#h);fill-rule:evenodd;stroke-width:.999983"/><path d="M6.511 1022.362c-3.11 0-4.51 3.11-4.51 4.646l13.999.014 14-.014c0-1.536-1.4-4.646-4.511-4.646z" style="opacity:.3;fill:#fff;fill-opacity:1;stroke-width:1.00797"/></g></svg>