<svg xmlns="http://www.w3.org/2000/svg" xmlns:xlink="http://www.w3.org/1999/xlink" viewBox="0 0 48 48"><defs><linearGradient id="a"><stop offset="0" stop-opacity=".149"/></linearGradient><linearGradient id="c" x1="65.818" x2="-17.818" y1="1150.829" y2="1067.629" gradientTransform="matrix(.95652 0 0 1.15385 1.043 -1253.879)" gradientUnits="userSpaceOnUse"><stop offset="0" stop-color="#1e2124"/><stop offset="1" stop-color="#606a6c"/></linearGradient><linearGradient xlink:href="#a" id="d" x1="-56" x2="-56" y1="1124.862" y2="1118.862" gradientTransform="matrix(1 0 0 .66666 80 -706.902)" gradientUnits="userSpaceOnUse"/><linearGradient id="e" x1="27" x2="27" y1="50" y2="54" gradientTransform="translate(-3 -8)" gradientUnits="userSpaceOnUse"><stop offset="0" stop-color="#51595b"/><stop offset="1" stop-color="#777c81"/></linearGradient><linearGradient id="b"><stop offset="0"/><stop offset="1" stop-opacity="0"/></linearGradient><linearGradient xlink:href="#b" id="f" x1="111.561" x2="123.561" y1="45.061" y2="57.061" gradientTransform="translate(-96 -14)" gradientUnits="userSpaceOnUse"/><linearGradient id="g" x1="125.439" x2="133.561" y1="35" y2="35" gradientTransform="translate(-106 -14)" gradientUnits="userSpaceOnUse"><stop offset="0" stop-color="#2980b9"/></linearGradient><linearGradient xlink:href="#b" id="h" x1="115.5" x2="119.5" y1="39" y2="35" gradientTransform="translate(-96 -14)" gradientUnits="userSpaceOnUse"/><linearGradient xlink:href="#b" id="i" x1="111.561" x2="124.561" y1="45.061" y2="58.061" gradientTransform="translate(-87.56 -10.06)" gradientUnits="userSpaceOnUse"/><linearGradient id="j" x1="131" x2="109.439" y1="49" y2="30.939" gradientTransform="translate(-96 -14)" gradientUnits="userSpaceOnUse"><stop offset="0" stop-color="#3498db"/><stop offset="1" stop-color="#3daee9"/></linearGradient><linearGradient id="k" x1="-36" x2="-36" y1="1115.362" y2="1108.362" gradientTransform="matrix(1 0 0 .57143 60 -627.347)" gradientUnits="userSpaceOnUse"><stop offset="0" stop-color="#95a5a6"/><stop offset="1" stop-color="#bdc3c7"/></linearGradient><linearGradient id="m" x1="96" x2="144" y1="21" y2="21" gradientTransform="translate(-96 -14)" gradientUnits="userSpaceOnUse"><stop offset="0" stop-color="#fff" stop-opacity=".149"/></linearGradient><linearGradient xlink:href="#a" id="l" x1="-60" x2="-12" y1="1114.362" y2="1114.362" gradientTransform="translate(60 -1105.362)" gradientUnits="userSpaceOnUse"/></defs><path fill="url(#c)" d="M2 10h44v30H2z" style="paint-order:markers stroke fill"/><rect width="48" height="2" y="40" fill="#9ea8aa" rx="1" ry="1" style="paint-order:markers stroke fill"/><path fill="url(#d)" d="M.152 40.5A1 1 0 0 0 0 41c0 .554.446 1 1 1h46c.554 0 1-.446 1-1a1 1 0 0 0-.152-.5.98.98 0 0 1-.848.5H1a.98.98 0 0 1-.848-.5" style="paint-order:markers stroke fill"/><path fill="url(#e)" fill-rule="evenodd" d="M19 42h10l-2 2h-6z" style="paint-order:markers stroke fill"/><path fill="url(#f)" d="m27.56 19.06-12 12 12 12 2.25-2.25L24 35l11-3 1.81 1.81 2.75-2.75z" opacity=".15" style="paint-order:markers stroke fill"/><path fill="#2980b9" stroke="url(#g)" stroke-width="3" d="m26.5 18-6 6"/><path fill="none" stroke="url(#h)" stroke-width="3" d="m23.5 21-3 3" opacity=".5"/><path fill="url(#i)" d="m24 35 11-3 13 13-11 3z" opacity=".15" style="paint-order:markers stroke fill"/><path fill="none" stroke="url(#j)" stroke-width="3" d="m14.5 18 6 6-6 6m9.5 3.5h11"/><rect width="48" height="4" y="6" fill="url(#k)" rx="1" ry="1" style="paint-order:markers stroke fill"/><path fill="url(#l)" d="M0 8v1c0 .554.446 1 1 1h46c.554 0 1-.446 1-1V8c0 .554-.446 1-1 1H1c-.554 0-1-.446-1-1" style="paint-order:markers stroke fill"/><path fill="url(#m)" d="M1 6c-.554 0-1 .446-1 1v1c0-.554.446-1 1-1h46c.554 0 1 .446 1 1V7c0-.554-.446-1-1-1z" style="paint-order:markers stroke fill"/></svg>