<svg xmlns="http://www.w3.org/2000/svg" xmlns:xlink="http://www.w3.org/1999/xlink" width="48" height="48"><defs><linearGradient id="a"><stop offset="0" style="stop-color:#c6cdd1;stop-opacity:1"/><stop offset="1" style="stop-color:#e0e5e7;stop-opacity:1"/></linearGradient><linearGradient id="c"><stop offset="0" style="stop-color:#000;stop-opacity:1"/><stop offset="1" style="stop-color:#000;stop-opacity:0"/></linearGradient><linearGradient id="b"><stop offset="0" style="stop-color:#d01c2d;stop-opacity:1"/><stop offset="1" style="stop-color:#e05e4c;stop-opacity:1"/></linearGradient><linearGradient xlink:href="#a" id="d" x1="400.556" x2="395.707" y1="546.927" y2="525.911" gradientTransform="matrix(1.94056 0 0 1.94182 -359.252 -518.382)" gradientUnits="userSpaceOnUse"/><linearGradient xlink:href="#b" id="f" x1="414.727" x2="399.489" y1="539.763" y2="508.239" gradientUnits="userSpaceOnUse"/><linearGradient xlink:href="#c" id="e" x1="23.547" x2="37.308" y1="16.764" y2="30.525" gradientUnits="userSpaceOnUse"/></defs><g transform="translate(-384.571 -499.798)"><circle cx="408.571" cy="523.798" r="20" style="opacity:1;fill:url(#d);fill-opacity:1;stroke:none;stroke-width:1.93961203;stroke-miterlimit:4;stroke-dasharray:none;stroke-dashoffset:0;stroke-opacity:1"/><path d="m35.055 9.47-8.889 11.622-4.09 7.916-1.078 11.668 3.313 3.312A20 20 0 0 0 44 24a20 20 0 0 0-1.207-6.791z" style="opacity:.2;fill:url(#e);fill-opacity:1;stroke:none;stroke-width:2;stroke-linecap:round;stroke-linejoin:round;stroke-miterlimit:4;stroke-dasharray:none;stroke-opacity:1" transform="translate(384.571 499.798)"/><path d="m397.421 509.306-4.242 4.242 12.4 12.401v14.742h6v-14.758l12.385-12.385-4.242-4.242-11.151 11.151z" style="fill:url(#f);fill-opacity:1"/><path d="M43.979 23.418A20 20 0 0 1 24 43 20 20 0 0 1 4.021 23.582 20 20 0 0 0 4 24a20 20 0 0 0 20 20 20 20 0 0 0 20-20 20 20 0 0 0-.021-.582" style="opacity:.15;fill:#000;fill-opacity:1;stroke:none;stroke-width:1.93961203;stroke-miterlimit:4;stroke-dasharray:none;stroke-dashoffset:0;stroke-opacity:1" transform="translate(384.571 499.798)"/></g></svg>