<svg xmlns="http://www.w3.org/2000/svg" xmlns:xlink="http://www.w3.org/1999/xlink" width="48" height="48"><defs><linearGradient xlink:href="#a" id="g" x2="0" y1="543.8" y2="512.8" gradientTransform="translate(-384.57 -499.8)" gradientUnits="userSpaceOnUse"/><linearGradient id="a" x2="0" y1="543.8" y2="512.8" gradientUnits="userSpaceOnUse"><stop stop-color="#cea476"/><stop offset="1" stop-color="#dab58b"/></linearGradient><linearGradient xlink:href="#b" id="i" x1="411.427" x2="411.427" y1="543.8" y2="512.8" gradientTransform="matrix(.50313 0 0 1 -171.625 -499.8)" gradientUnits="userSpaceOnUse"/></defs><linearGradient id="d"><stop offset="0" stop-color="#cea476"/><stop offset="1" stop-color="#dab58b"/></linearGradient><linearGradient xlink:href="#d" id="j" x1="21" x2="21" y1="13" y2="4" gradientUnits="userSpaceOnUse"/><linearGradient xlink:href="#e" id="l" x1="408.57" x2="408.57" y1="512.798" y2="505.598" gradientTransform="matrix(1 0 0 -.55556 -384.57 297.89)" gradientUnits="userSpaceOnUse"/><linearGradient xlink:href="#e" id="k" x1="411.57" x2="411.57" y1="512.801" y2="503.801" gradientTransform="translate(-384.57 -499.801)" gradientUnits="userSpaceOnUse"><stop offset="0" stop-color="#ebc69a"/><stop offset="1" stop-color="#f4e0c8" stop-opacity="0"/></linearGradient><linearGradient xlink:href="#f" id="h" x2="0" y1="30" y2="8" gradientTransform="matrix(1.41667 0 0 1.4091 1.167 1.727)" gradientUnits="userSpaceOnUse"/><linearGradient id="f" x2="0" y1="30" y2="8" gradientUnits="userSpaceOnUse"><stop offset="0" stop-color="#cfd2d5"/><stop offset="1" stop-color="#eff0f1"/></linearGradient><linearGradient id="b" x1="411.427" x2="411.427" y1="543.8" y2="512.8" gradientTransform="matrix(.50313 0 0 1 -231.625 -499.8)" gradientUnits="userSpaceOnUse"><stop offset="0" stop-color="#73ba25"/><stop offset="1" stop-color="#81c13b" stop-opacity=".85"/></linearGradient><linearGradient xlink:href="#f" id="n" x1="44" x2="44" y1="44" y2="13" gradientUnits="userSpaceOnUse"/><linearGradient id="m" x1="42" x2="62" y1="24" y2="44" gradientUnits="userSpaceOnUse"><stop offset="0" stop-color="#292c2f"/><stop offset="1" stop-opacity="0"/></linearGradient><linearGradient id="e" x1="408.57" x2="408.57" y1="512.798" y2="504.698" gradientTransform="matrix(.66667 0 0 -.37037 -256.38 197.926)" gradientUnits="userSpaceOnUse"><stop offset="0" stop-color="#ebc69a"/><stop offset="1" stop-color="#73ba25" stop-opacity="0"/></linearGradient><path d="M4 13v25.682c0 .736.148 1.437.416 2.074a5.3 5.3 0 0 0 1.139 1.69c.48.48 1.052.87 1.69 1.138A5.3 5.3 0 0 0 9.317 44h29.364c.736 0 1.437-.148 2.074-.416a5.3 5.3 0 0 0 1.69-1.139c.48-.48.87-1.052 1.138-1.69A5.3 5.3 0 0 0 44 38.683V13H9.318Z" style="fill:url(#g)"/><path d="M4 13v25.682c0 .736.148 1.437.416 2.074a5.3 5.3 0 0 0 1.139 1.69c.48.48 1.052.87 1.69 1.138A5.3 5.3 0 0 0 9.317 44H21V13Z" style="fill:url(#h)"/><path d="M21 44h17.682c.736 0 1.437-.148 2.074-.416a5.3 5.3 0 0 0 1.69-1.139c.48-.48.87-1.052 1.138-1.69A5.3 5.3 0 0 0 44 38.683V13H21Z" style="fill:url(#i)"/><path d="m4 13 6-9h29l5 9z" style="fill:url(#j);fill-rule:evenodd"/><path d="M21 4v14l1-1 1 1 1-1 1 1 1-1 1 1V4Z" style="fill:#f4e0c8"/><path d="M21 4h6v9h-6z" style="fill:url(#k)"/><path d="M21 18h6v-5h-6z" style="fill:url(#l)"/><path d="M30 44h8.682c.736 0 1.437-.148 2.074-.416a5.3 5.3 0 0 0 1.69-1.139c.48-.48.87-1.052 1.138-1.69A5.3 5.3 0 0 0 44 38.683V32l-8-8h-6v6l5 5-2 3 1 1h-6l-1-1-1 2z" style="opacity:.2;fill:url(#m)"/><path d="M30 24v6h1v-5h4v5h1v-6h-5Zm-2.207 7-.793.816L33 38l6-6.184-.793-.816L33 36.367ZM26 38v2h14v-2h-1v1H27v-1z" style="fill:url(#n)"/><path d="M21 41.229H4.734c.24.43.475.87.82 1.216a5.3 5.3 0 0 0 1.69 1.139A5.3 5.3 0 0 0 9.318 44H21Z" style="fill:#999"/><path d="M21 41.229V44h17.682c.736 0 1.437-.148 2.074-.416a5.3 5.3 0 0 0 1.69-1.139c.345-.346.58-.785.82-1.216z" style="fill:#447821"/></svg>