<svg xmlns="http://www.w3.org/2000/svg" xmlns:xlink="http://www.w3.org/1999/xlink" width="32" height="32"><defs><linearGradient xlink:href="#a" id="g" x2="0" y1="30" y2="8" gradientUnits="userSpaceOnUse"/><linearGradient xlink:href="#b" id="f" x2="0" y1="30" y2="8" gradientUnits="userSpaceOnUse"/><linearGradient xlink:href="#c" id="k" x1="408.57" x2="408.57" y1="512.798" y2="504.698" gradientTransform="matrix(.66667 0 0 -.37037 -256.38 197.926)" gradientUnits="userSpaceOnUse"/><linearGradient xlink:href="#d" id="l" x1="34" x2="48" y1="16" y2="30" gradientUnits="userSpaceOnUse"/><linearGradient xlink:href="#d" id="m" x1="34" x2="48" y1="16" y2="30" gradientUnits="userSpaceOnUse"/></defs><linearGradient xlink:href="#a" id="n" x1="30" x2="30" y1="30" y2="8" gradientUnits="userSpaceOnUse"/><linearGradient id="d" x1="34" x2="48" y1="16" y2="30" gradientUnits="userSpaceOnUse"><stop offset="0" stop-color="#292c2f"/><stop offset="1" stop-opacity="0"/></linearGradient><linearGradient xlink:href="#b" id="e" x1="10" x2="10" y1="8" y2="2" gradientUnits="userSpaceOnUse"/><linearGradient id="b" x2="0" y1="30" y2="8" gradientUnits="userSpaceOnUse"><stop offset="0" stop-color="#cea476"/><stop offset="1" stop-color="#dab58b"/></linearGradient><linearGradient id="h" x1="411.427" x2="411.427" y1="543.8" y2="512.8" gradientTransform="matrix(.35 0 0 .70968 -120 -355.923)" gradientUnits="userSpaceOnUse"><stop offset="0" stop-color="#73ba25"/><stop offset="1" stop-color="#81c13b" stop-opacity=".85"/></linearGradient><linearGradient id="c" x1="408.57" x2="408.57" y1="512.798" y2="504.698" gradientTransform="matrix(.66667 0 0 -.37037 -256.38 197.926)" gradientUnits="userSpaceOnUse"><stop offset="0" stop-color="#ebc69a"/><stop offset="1" stop-color="#73ba25" stop-opacity="0"/></linearGradient><linearGradient xlink:href="#c" id="j" x1="408.57" x2="408.57" y1="512.801" y2="503.801" gradientTransform="translate(-256.38 -333.867)scale(.66667)" gradientUnits="userSpaceOnUse"><stop offset="0" stop-color="#ebc69a"/><stop offset="1" stop-color="#f4e0c8" stop-opacity="0"/></linearGradient><linearGradient id="a" x2="0" y1="30" y2="8" gradientUnits="userSpaceOnUse"><stop offset="0" stop-color="#cfd2d5"/><stop offset="1" stop-color="#eff0f1"/></linearGradient><path d="M6 2 2 8h28l-4-6H7Z" style="fill:url(#e);fill-rule:evenodd"/><path d="M2 8v19.148A2.846 2.846 0 0 0 4.852 30h22.296A2.846 2.846 0 0 0 30 27.148V8H4.852Z" style="fill:url(#f)"/><path d="M2 8v19.148c0 .79.319 1.503.834 2.018A2.84 2.84 0 0 0 4.852 30H14V8Z" style="fill:url(#g)"/><path d="M14 30h13.148c.79 0 1.503-.319 2.018-.834A2.84 2.84 0 0 0 30 27.148V8H14Z" style="fill:url(#h)"/><g style="stroke-width:1.86699998;stroke-opacity:.55"><path d="M14 2v9l1-1 1 1 1-1s1 1 1 .972V2Z" style="fill:#f4e0c8"/><path d="M14 2h4v6h-4z" style="fill:url(#j)"/><path d="M14 8v3l1-1 1 1 1-1s1 1 1 .973V8Z" style="fill:url(#k)"/></g><path d="m16 28 2-1-1-1z" style="opacity:.2;fill:url(#l)"/><path d="M18 30h9.148c.79 0 1.503-.319 2.018-.834A2.84 2.84 0 0 0 30 27.148V22l-6-6h-4v4l3.383 3.383L22 26l1 1-7 1z" style="opacity:.2;fill:url(#m)"/><path d="M20 16v4h1v-3h2v3h1v-4h-3Zm-2.195 4-.805.832L22 26l5-5.168-.805-.832L22 24.338ZM16 26v2h12v-2h-1v1H17v-1z" style="fill:url(#n)"/><path d="M2.766 29c.04.045.026.124.068.166A2.84 2.84 0 0 0 4.852 30H14v-1z" style="fill:#adb1b3"/><path d="M14 29v1h13.148c.79 0 1.503-.319 2.018-.834.042-.042.029-.121.068-.166z" style="fill:#649e26"/></svg>