<svg xmlns="http://www.w3.org/2000/svg" xmlns:xlink="http://www.w3.org/1999/xlink" width="32" height="32"><defs><linearGradient xlink:href="#a" id="c" x1="388.423" x2="388.423" y1="557.798" y2="505.798" gradientTransform="matrix(.58696 0 0 .53846 -227.988 -270.353)" gradientUnits="userSpaceOnUse"/></defs><linearGradient id="b" gradientUnits="userSpaceOnUse"><stop offset="0" stop-color="#292c2f"/><stop offset="1" stop-opacity="0"/></linearGradient><linearGradient xlink:href="#b" id="d" x1="-421.447" x2="-410.447" y1="-504.204" y2="-493.204"/><linearGradient id="f" x1="16" x2="16" y1="22" y2="6" gradientUnits="userSpaceOnUse"><stop offset="0" stop-color="#73ba25"/><stop offset="1" stop-color="#81c13b"/></linearGradient><linearGradient id="g" x1="16" x2="16" y1="22" y2="6" gradientUnits="userSpaceOnUse"><stop offset="0" stop-color="#173f4f"/><stop offset="1" stop-color="#2f5361"/></linearGradient><linearGradient id="h" x1="16" x2="16" y1="22" y2="6" gradientUnits="userSpaceOnUse"><stop offset="0" stop-color="#35b9ab"/><stop offset="1" stop-color="#4ac0b4"/></linearGradient><linearGradient xlink:href="#b" id="i" x1="9.088" x2="23.102" y1="9.986" y2="24"/><linearGradient xlink:href="#b" id="k" x1="16" x2="25" y1="14" y2="23"/><linearGradient xlink:href="#b" id="j" x1="8" x2="21" y1="14" y2="27"/><linearGradient id="e" x1="1.333" x2="1.333" y1="48.714" y2="9.714" gradientTransform="matrix(.52174 0 0 .53846 -.696 -1.23)" gradientUnits="userSpaceOnUse"><stop offset="0" stop-color="#eef1f2"/><stop offset="1" stop-color="#f9fafb"/></linearGradient><linearGradient id="a" x1="388.423" x2="388.423" y1="557.798" y2="505.798" gradientTransform="matrix(.58696 0 0 .53846 -227.988 -270.353)" gradientUnits="userSpaceOnUse"><stop offset="0" stop-color="#7f8c8d"/><stop offset="1" stop-color="#afb0b3"/></linearGradient><path d="M9 2C6.23 2 4 4.23 4 7v23h24V7c0-2.77-2.23-5-5-5Z" style="fill:url(#c)"/><path d="M7 27h18v3H7Z" style="fill:#292c2e"/><path d="M9 28h9v1H9Zm10 0h4v1h-4z" style="fill:#f6b44d"/><path d="M24 27h4v3h-4ZM4 27h4v3H4Z" style="opacity:.2;fill:#292c2f"/><path d="M4 27h4v3H7Zm20 0h4v3h-4z" style="opacity:.2;fill:#292c2f"/><path d="M24.535 5.465 28 8.928V30H14l-8-8Z" style="opacity:.2;fill:url(#d)"/><path d="M11 4a5 5 0 0 0-5 5v4.768a3 3 0 0 1 .996 2.117L7 16a2 2 0 0 1-.01.2v.005A3 3 0 0 1 6 18.23V22l3 3h14l3-3v-3.768a3 3 0 0 1-.996-2.117L25 16a2 2 0 0 1 .01-.205A3 3 0 0 1 26 13.77V9a5 5 0 0 0-5-5Z" style="fill:url(#e)"/><path d="M16 6a8 8 0 0 0-6.912 3.986L16 13.441l6.908-3.455A8 8 0 0 0 16 6" style="fill:url(#f)"/><path d="M8.635 10.877A8 8 0 0 0 8 14a8 8 0 0 0 7.5 7.975v-7.666z" style="fill:url(#g)"/><path d="m23.357 10.879-6.857 3.43v7.673A8 8 0 0 0 24 14a8 8 0 0 0-.643-3.121" style="fill:url(#h)"/><path d="m21.65 8.35.05.064a8 8 0 0 1 1.208 1.572L16 13.441 9.088 9.986l2.234 2.235 4.178 2.088 1 1v-1l6.857-3.43L28 15.52v-.82Z" style="opacity:.2;fill:url(#i)"/><path d="M15.5 14.309v7.666a8 8 0 0 1-5.066-2.239L17.695 27h3.823L16.5 21.982V15.31Zm-5.066 5.427-.082-.088-.004.004z" style="opacity:.2;fill:url(#j)"/><path d="M23.357 10.879A8 8 0 0 1 24 14a8 8 0 0 1-7.5 7.982L21.518 27H28V15.521Z" style="opacity:.2;fill:url(#k)"/><path d="M4 29h3v1H4Zm21 0h3v1h-3z" style="opacity:.2;fill:#292c2f"/></svg>