<svg xmlns="http://www.w3.org/2000/svg" xmlns:xlink="http://www.w3.org/1999/xlink" width="32" height="32"><linearGradient id="a"><stop offset="0" stop-color="#35b9ab"/><stop offset="1" stop-color="#73ba25"/></linearGradient><linearGradient xlink:href="#a" id="c" x1="2" x2="30" y1="1022.362" y2="1050.362" gradientUnits="userSpaceOnUse"/><linearGradient xlink:href="#a" id="b" x1="2" x2="30" y1="2" y2="30" gradientUnits="userSpaceOnUse"/><linearGradient id="d" x1="12.5" x2="25.1" y1="1031.462" y2="1044.062" gradientUnits="userSpaceOnUse"><stop offset="0" stop-color="#292c2f"/><stop offset="1" stop-opacity="0"/></linearGradient><circle cx="16" cy="16" r="14" fill="url(#b)"/><g transform="translate(0 -1020.362)"><circle cx="16" cy="1036.362" r="0" fill="url(#c)"/><path fill="url(#d)" d="m19.79 1027.262-13.736 9.397 6.22 6.22-1.014 1.013 6.359 6.358a14 14 0 0 0 12.328-12.83z" opacity=".2"/><g stroke-width=".7"><path fill="#fcfcfc" d="M19.205 1044.509a4 4 0 0 0-.312-.124c-.12-.042-.323-.115-.45-.163l-.558-.207-.664-.248-.335-.127-2.542.122c-1.397.067-2.663.13-2.812.138-.15.01-.271.006-.271-.008 0-.028.225-.39.78-1.251l.179-.278.007-2.012.007-2.011.138-1.378c.076-.758.13-1.392.119-1.409-.01-.016-.005-.047.012-.068a.8.8 0 0 0 .048-.255l.018-.217-.219.022c-.12.012-.24.032-.267.045a1.4 1.4 0 0 1-.262.044c-.708.069-1.268.198-1.723.4-.12.053-.225.097-.233.097-.043 0-1.46.666-1.703.8-.255.142-.331.174-.427.184a.7.7 0 0 0-.147.109c-.144.124-.428.234-.68.262a.9.9 0 0 1-.41-.048c-.207-.06-.26-.094-.494-.315-.204-.192-.288-.3-.38-.486-.107-.22-.118-.267-.123-.542-.005-.265.004-.317.075-.44.096-.166.349-.343.531-.371a.6.6 0 0 0 .271-.135c.077-.063.255-.2.396-.306 1.107-.822 1.594-1.225 1.594-1.318 0-.03.54-.95.631-1.074.096-.131.389-.357.602-.464a6 6 0 0 1 .904-.327c.486-.125.439-.101.378-.192-.03-.044-.371-.43-.757-.856s-.724-.814-.75-.863a21 21 0 0 1-.301-.677c-.14-.323-.284-.653-.32-.731-.163-.35-.19-.427-.19-.552 0-.157.06-.252.203-.32.227-.11.32-.054.852.514.24.258.713.734 1.049 1.057.552.532 1.109 1.17 1.248 1.431.088.164.466.631.64.79.109.1.209.164.255.164q.263.002.782-.525c.696-.703 1.272-1.246 1.497-1.41.28-.204 1.501-.792 2.12-1.02.244-.09.473-.177.51-.192a2 2 0 0 1 .197-.066.6.6 0 0 0 .162-.066.14.14 0 0 1 .082-.028c.028 0 .273-.08.544-.177.87-.312.895-.316 1.077-.171.136.109.181.25.125.392-.104.265-.934 1.372-1.393 1.859-.56.593-.866.791-1.83 1.182-1.117.452-1.161.476-1.487.806-.19.19-.521.76-.472.807.013.012.085 0 .16-.03.938-.35 1.278-.469 1.782-.618.326-.096.622-.187.658-.201s.154-.043.263-.064c.108-.021.22-.05.246-.062.027-.014.198-.042.378-.064.181-.022.359-.05.395-.061.036-.012.332-.012.657-.001.513.018.626.032.842.102.94.306 1.769.883 2.702 1.882.39.418.654.788.891 1.248.303.59.337.72.43 1.63.123 1.214.291 2.735.377 3.418.161 1.278.26 2.016.28 2.082.008.027.03.177.05.334s.087.586.15.952c.062.366.113.718.113.783 0 .115-.002.117-.152.137a3 3 0 0 1-.272.022c-.099 0-.156.035-.348.206-.127.113-.247.205-.268.205-.02 0-.1-.1-.176-.222l-.14-.222h-.18c-.162 0-.203.015-.431.166-.139.092-.28.193-.316.224-.035.03-.08.05-.099.045-.054-.017-.112-.214-.114-.384l-.002-.156-.216.022a6 6 0 0 0-.462.07c-.31.063-.369.047-.28-.074.035-.049.221-.322.414-.607l.35-.52-.054-.45a36 36 0 0 1-.072-.65c-.01-.11-.031-.208-.047-.217-.015-.01-.028-.05-.028-.09 0-.041-.072-.223-.16-.404-.09-.182-.207-.423-.262-.537a10 10 0 0 0-.266-.493l-.165-.286-.206.009c-.354.015-.346.009-.37.253a1 1 0 0 1-.052.27c-.017.03-.031.089-.031.13s-.022.145-.049.231a4 4 0 0 0-.099.458c-.027.166-.063.374-.08.461s-.048.267-.069.398c-.02.13-.05.303-.066.381-.015.079-.045.25-.065.382a7 7 0 0 1-.068.372c-.062.272-.043.307.523.96.2.232.326.402.306.414a2 2 0 0 1-.291.078c-.51.114-.67.154-1.01.258-.303.092-.393.098-.522.033m-3.376-1.448c.43-.446.556-.597.634-.763.21-.447.26-.554.456-.992.112-.25.203-.49.203-.534 0-.062-.736-1.862-.774-1.893a26 26 0 0 0-1.044-.294.4.4 0 0 1-.121-.045c-.058-.045-.13.005-.398.271l-.24.24.02.169c.037.31.083.644.115.837.018.104.077.477.132.826.054.35.114.722.131.827s.077.477.13.827c.055.35.114.705.132.79.018.084.033.189.033.232s.012.075.027.07c.015-.007.269-.261.564-.567z"/><path fill="#173f4f" d="M19.205 1044.509a4 4 0 0 0-.312-.124c-.12-.042-.323-.115-.45-.163l-.558-.207-.664-.248-.335-.127-2.542.122c-1.397.067-2.663.13-2.812.138-.15.01-.271.006-.271-.008 0-.028.225-.39.78-1.251l.179-.278.007-2.012.007-2.011.138-1.378c.076-.758.13-1.392.119-1.409-.01-.016-.005-.047.012-.068a.8.8 0 0 0 .048-.255l.018-.217-.219.022c-.12.012-.24.032-.267.045a1.4 1.4 0 0 1-.262.044c-.708.069-1.268.198-1.723.4-.12.053-.225.097-.233.097-.043 0-1.46.666-1.703.8-.255.142-.331.174-.427.184a.7.7 0 0 0-.147.109c-.144.124-.428.234-.68.262a.9.9 0 0 1-.41-.048c-.207-.06-.26-.094-.494-.315-.204-.192-.288-.3-.38-.486-.107-.22-.118-.267-.123-.542-.005-.265.004-.317.075-.44.096-.166.349-.343.531-.371a.6.6 0 0 0 .271-.135c.077-.063.255-.2.396-.306 1.107-.822 1.594-1.225 1.594-1.318 0-.03.54-.95.631-1.074.096-.131.389-.357.602-.464a6 6 0 0 1 .904-.327c.486-.125.44-.101.378-.192-.03-.044-.371-.43-.757-.856-.387-.426-.724-.814-.75-.863a21 21 0 0 1-.301-.677 52 52 0 0 0-.32-.731c-.163-.35-.19-.427-.19-.552 0-.157.06-.252.203-.32.227-.11.32-.054.852.514.24.258.713.734 1.049 1.057.552.532 1.109 1.17 1.248 1.431.088.164.466.631.64.79.109.1.209.164.255.164q.263.002.782-.525c.696-.703 1.272-1.246 1.497-1.41.28-.204 1.501-.792 2.12-1.02.244-.09.473-.177.51-.192a2 2 0 0 1 .197-.066.6.6 0 0 0 .162-.066.14.14 0 0 1 .082-.028c.028 0 .273-.08.544-.177.87-.312.895-.316 1.077-.171.136.109.181.25.125.392-.104.265-.934 1.372-1.393 1.859-.56.593-.866.791-1.83 1.182-1.117.452-1.161.476-1.487.806-.19.19-.521.76-.472.807.013.012.085 0 .16-.03.938-.35 1.278-.469 1.782-.618a22 22 0 0 0 .658-.201c.036-.015.154-.043.263-.064.108-.021.22-.05.246-.062.027-.014.198-.042.378-.064s.359-.05.395-.061c.036-.012.332-.012.657 0 .513.017.626.03.842.101.94.306 1.769.883 2.702 1.882.39.418.655.788.891 1.248.303.59.337.72.43 1.63.123 1.214.291 2.735.377 3.418.161 1.278.26 2.016.28 2.082.008.027.03.177.05.334s.087.586.15.952c.062.366.113.718.113.783 0 .115-.002.117-.152.137a3 3 0 0 1-.272.022c-.099 0-.156.035-.348.206-.127.113-.247.205-.268.205-.02 0-.1-.1-.176-.222l-.14-.223h-.179c-.163 0-.203.016-.432.167-.138.092-.28.192-.316.223s-.08.052-.099.046c-.054-.017-.112-.214-.114-.384l-.002-.156-.216.022a6 6 0 0 0-.462.07c-.31.062-.368.047-.28-.075.035-.048.221-.321.414-.607l.35-.519-.054-.45a36 36 0 0 1-.071-.65c-.01-.11-.032-.208-.047-.217-.016-.01-.029-.05-.029-.091s-.072-.222-.16-.404c-.09-.181-.207-.422-.262-.536a10 10 0 0 0-.266-.493l-.164-.286-.207.008c-.354.015-.346.01-.37.254a1 1 0 0 1-.051.27.3.3 0 0 0-.032.13c0 .04-.022.145-.049.23a4 4 0 0 0-.098.459c-.028.166-.064.373-.081.46s-.048.267-.068.398a12 12 0 0 1-.066.382c-.016.079-.046.25-.066.382-.02.13-.05.298-.067.371-.062.273-.043.308.522.96.2.232.326.403.306.415s-.15.047-.29.078c-.511.113-.672.154-1.012.258-.302.092-.392.098-.52.032zm.473-.685a2 2 0 0 1-.121-.308c.006-.006.094.086.195.206.287.34.286.339.481.294a.6.6 0 0 0 .166-.054 7 7 0 0 0-.272-.386c-.15-.204-.284-.389-.298-.41-.013-.022.134-.957.327-2.08.35-2.03.351-2.04.285-2.091l-.39-.295a4 4 0 0 1-.484-.422c-.158-.177-.176-.238-.033-.108.16.145.072-.031-.209-.421-.24-.334-.289-.422-.312-.57-.029-.187-.002-.668.038-.668.013 0 .032.106.042.236a1 1 0 0 0 .086.357c.037.067.172.351.3.631s.25.53.273.558c.043.053.511.405.75.563.089.059.161.135.173.182.012.044.042.08.067.08s.184-.05.352-.113c.297-.109.423-.182.423-.244 0-.017.021-.075.047-.13.303-.65.386-.89.363-1.051-.013-.09-.012-.092.014-.02.06.162.035.306-.106.637a8 8 0 0 1-.184.408.22.22 0 0 0-.024.14.4.4 0 0 1-.031.182l-.05.118.45.784c.466.816.505.911.588 1.436.092.584.206 1.128.246 1.175.033.038.008.086-.136.262-.351.433-.463.584-.444.602.03.03.356-.053.491-.125.123-.065.204-.055.13.017q-.093.089.047.088h.087l-.023.197c-.026.222-.052.224.253-.017.126-.099.166-.116.204-.085.026.02.08.034.122.03a.3.3 0 0 1 .134.017.4.4 0 0 0 .168.004l.11-.02.044.19c.052.226.09.215.18-.053.086-.253.096-.263.301-.263.155 0 .177-.007.162-.055a6 6 0 0 1-.07-.438c-.078-.57-.338-2.355-.377-2.591-.146-.886-.395-3.153-.46-4.196-.04-.656-.09-.84-.362-1.385-.392-.782-1.142-1.62-2.025-2.26-.495-.36-.859-.55-1.372-.713l-.323-.103-.63.016c-.655.017-.916.054-1.567.224-.527.138-1.667.514-2.186.722-.272.108-.549.22-.617.246-.068.027-.123.066-.123.085 0 .096.278.47.542.73.412.406.5.465.722.488.232.023.272.072.06.072-.222 0-.374-.101-.821-.55-.346-.346-.404-.424-.647-.876-.162-.303.08-.967.523-1.43.31-.323.598-.496 1.248-.75.308-.119.751-.308.986-.42.353-.166.475-.244.699-.443.425-.379.959-1.015 1.431-1.704.26-.378.3-.465.196-.425a9 9 0 0 1-.271.096c-1.598.55-1.705.588-2.328.844-.962.395-1.474.683-1.973 1.109a15 15 0 0 0-.753.744c-.56.583-.785.773-1.047.881-.304.126-.603.04-.872-.249a8 8 0 0 1-.669-.85c-.256-.39-.574-.75-1.248-1.414a62 62 0 0 1-1.05-1.059c-.197-.206-.363-.369-.37-.362-.007.006.039.122.102.256s.18.397.26.586.174.406.21.484c.26.56.235.528 1.214 1.608l.955 1.051-.3.055c-.626.113-1.415.372-1.731.57-.258.16-.312.228-.691.876-.305.52-.37.61-.606.827-.145.135-.54.449-.877.699-.338.25-.677.508-.754.574l-.14.12.253.135c.138.074.252.14.252.147s-.105-.023-.234-.066c-.354-.116-.509-.127-.696-.05-.13.055-.17.092-.225.212-.06.133-.063.166-.028.367.058.334.329.686.657.857.144.074.487.058.674-.033.14-.068.18-.109.271-.283a.74.74 0 0 0 .11-.414c.003-.3.047-.385.074-.145.047.409.063.524.075.524.007 0 .386-.178.842-.395.901-.43 1.619-.734 1.981-.843.208-.063.416-.099 1.561-.272.777-.118 1.165-.278 1.506-.62l.11-.112-.076.14c-.092.166-.265.316-.507.438-.207.105-.19.049-.26.824-.026.299-.086.929-.132 1.4l-.132 1.348c-.035.366-.048.983-.048 2.4v1.906l-.27.399c-.148.22-.298.43-.332.468-.092.101-.044.137.186.137h.205l.123-.156c.195-.247.235-.261.138-.05a1.6 1.6 0 0 1-.12.227c-.027.032-.022.047.022.064.063.023 2.274-.098 2.304-.126.026-.025-.119-1.04-.302-2.121a76 76 0 0 1-.148-.938c-.053-.35-.118-.758-.144-.906a12 12 0 0 1-.07-.451l-.021-.18.209-.218c.114-.119.293-.31.396-.423l.189-.206.107.041c.202.078 2.646.864 2.684.864.071 0 .037-.06-.138-.244a1.7 1.7 0 0 1-.216-.265c-.051-.103.21.164.414.425.084.108.253.312.376.454.192.223.234.256.306.243.063-.012.084-.003.084.036 0 .029-.108.47-.241.982-.583 2.243-.755 2.94-.737 2.986.012.03.282.133.713.272l.693.223v-.201c0-.11-.015-.21-.033-.22s-.032-.044-.032-.074c.002-.098.085.044.213.362l.119.297.253.01c.139.005.264 0 .278-.01s-.033-.152-.106-.315zm-.412-6.876c.033-.283.08-.339.08-.098.001.211-.02.297-.071.297-.02 0-.024-.073-.01-.199zm-12.555-.67c-.053-.037-.058-.065-.037-.183a.9.9 0 0 0 .001-.41l-.026-.112.086.076c.047.042.134.166.193.276.09.168.102.214.074.29-.038.104-.187.137-.29.064zm-.573-.317a.27.27 0 0 1-.071-.169c0-.052-.018-.112-.04-.133s-.025-.038-.006-.038c.069 0 .214.185.232.297.023.134-.012.148-.115.043m5.626-2.604c-.102-.048-.174-.214-.174-.4 0-.15.004-.159.123-.21.134-.056.188-.064.383-.057.126.006.127.007.069.069-.033.035-.046.064-.029.064.05 0 .144.177.144.271 0 .125-.2.302-.34.299a.5.5 0 0 1-.176-.036m-.306-.741c0-.008.074-.051.163-.095.124-.06.21-.08.354-.076l.19.004-.181.024c-.1.013-.258.054-.353.09a.6.6 0 0 1-.173.053m-.526-.804c0-.044.28-.161.549-.23.278-.07.442-.082.207-.015-.22.063-.616.2-.69.238-.037.019-.066.022-.066.008zm4.832-1.485c0-.008.233-.234.518-.5.285-.267.58-.547.657-.622s.14-.123.14-.107c0 .035-.52.662-.62.748-.113.098-.092.147.048.11.164-.044.182-.006.027.056-.07.028-.264.114-.43.19-.3.14-.34.154-.34.125m.065 12.734c.43-.446.556-.597.634-.763.21-.447.26-.554.456-.992.112-.25.203-.49.203-.534 0-.062-.736-1.862-.774-1.893a26 26 0 0 0-1.044-.294.4.4 0 0 1-.121-.045c-.058-.045-.13.005-.398.271l-.24.24.02.169c.037.31.083.644.115.837.018.104.077.477.132.826.054.35.114.722.131.827s.077.477.13.827c.055.35.114.705.132.79.018.084.033.189.033.232s.012.075.027.07c.015-.007.268-.261.564-.567z"/></g></g><path fill="#292c2f" d="M29.979 15.414A14 14 0 0 1 16 29 14 14 0 0 1 2.021 15.586 14 14 0 0 0 2 16a14 14 0 0 0 14 14 14 14 0 0 0 14-14 14 14 0 0 0-.021-.586" opacity=".3"/></svg>