<svg xmlns="http://www.w3.org/2000/svg" xmlns:xlink="http://www.w3.org/1999/xlink" width="32" height="32"><defs><linearGradient xlink:href="#a" id="g" x1="10" x2="10" y1="8" y2="2" gradientUnits="userSpaceOnUse"/><linearGradient id="a" x2="0" y1="30" y2="8" gradientUnits="userSpaceOnUse"><stop offset="0" stop-color="#cea476"/><stop offset="1" stop-color="#dab58b"/></linearGradient><linearGradient xlink:href="#a" id="i" x2="0" y1="30" y2="8" gradientUnits="userSpaceOnUse"/><linearGradient xlink:href="#b" id="k" x2="0" y1="30" y2="8" gradientUnits="userSpaceOnUse"/><linearGradient id="b" x2="0" y1="30" y2="8" gradientUnits="userSpaceOnUse"><stop offset="0" stop-color="#cfd2d5"/><stop offset="1" stop-color="#eff0f1"/></linearGradient><linearGradient xlink:href="#c" id="j" x1="32" x2="32" y1="30" y2="8" gradientUnits="userSpaceOnUse"/><linearGradient xlink:href="#d" id="o" x1="408.57" x2="408.57" y1="512.798" y2="504.698" gradientTransform="matrix(.66667 0 0 -.37037 -256.38 197.926)" gradientUnits="userSpaceOnUse"/></defs><linearGradient xlink:href="#f" id="m" x1="22" x2="22" y1="30" y2="8" gradientUnits="userSpaceOnUse"/><linearGradient id="d" x1="408.57" x2="408.57" y1="512.798" y2="504.698" gradientTransform="matrix(.66667 0 0 -.37037 -256.38 197.926)" gradientUnits="userSpaceOnUse"><stop offset="0" stop-color="#ebc69a"/><stop offset="1" stop-color="#173f4f" stop-opacity="0"/></linearGradient><linearGradient id="c" x1="32" x2="32" y1="30" y2="8" gradientUnits="userSpaceOnUse"><stop offset="0" stop-color="#173f4f"/><stop offset="1" stop-color="#2f5361"/></linearGradient><linearGradient id="l" x1="18" x2="30" y1="18" y2="30" gradientUnits="userSpaceOnUse"><stop offset="0" stop-color="#292c2f"/><stop offset="1" stop-opacity="0"/></linearGradient><linearGradient id="f" x2="0" y1="30" y2="8" gradientUnits="userSpaceOnUse"><stop offset="0" stop-color="#cfd2d5"/><stop offset="1" stop-color="#eff0f1"/></linearGradient><linearGradient xlink:href="#d" id="n" x1="18" x2="18" y1="8" y2="2" gradientUnits="userSpaceOnUse"><stop offset="0" stop-color="#ebc69a"/><stop offset="1" stop-color="#f4e0c8" stop-opacity="0"/></linearGradient><path d="M6 2 2 8h28l-4-6H7Z" style="fill:url(#g);fill-rule:evenodd"/><path d="M2 8v19.148A2.846 2.846 0 0 0 4.852 30h22.296A2.846 2.846 0 0 0 30 27.148V8H4.852Z" style="fill:url(#i)"/><path d="M14 8v22h13.148c.79 0 1.503-.319 2.018-.834a3 3 0 0 0 .191-.21 3 3 0 0 0 .168-.23 3 3 0 0 0 .145-.244 3 3 0 0 0 .121-.257 3 3 0 0 0 .094-.268 3 3 0 0 0 .066-.275 3 3 0 0 0 .04-.282 3 3 0 0 0 .009-.252V8Z" style="fill:url(#j)"/><path d="M2 8v19.148c0 .79.319 1.503.834 2.018A2.84 2.84 0 0 0 4.852 30H14V8Z" style="fill:url(#k)"/><path d="M2.766 29c.04.045.026.124.068.166A2.84 2.84 0 0 0 4.852 30h22.296c.79 0 1.503-.319 2.018-.834.042-.042.03-.121.068-.166z" style="opacity:.2;fill:#232629"/><path d="M21.516 30h5.632c.79 0 1.503-.319 2.018-.834a3 3 0 0 0 .191-.21 3 3 0 0 0 .168-.23 3 3 0 0 0 .145-.244 3 3 0 0 0 .121-.257 3 3 0 0 0 .094-.268 3 3 0 0 0 .066-.275 3 3 0 0 0 .04-.282 3 3 0 0 0 .009-.252v-5.632l-3.05-3.051L25 18l-2-2-4 3-3 4 2 2 .465 1.95z" style="opacity:.2;fill:url(#l)"/><path d="M21 16v1.102a5 5 0 0 0-1.754.73l-.781-.781-1.414 1.414.781.781A5 5 0 0 0 17.105 21H16v2h1.102a5 5 0 0 0 .73 1.754l-.781.781 1.414 1.414.781-.781a5 5 0 0 0 1.754.727V28h2v-1.102a5 5 0 0 0 1.754-.73l.781.781 1.414-1.414-.781-.781A5 5 0 0 0 26.895 23H28v-2h-1.102a5 5 0 0 0-.73-1.754l.781-.781-1.414-1.414-.781.781A5 5 0 0 0 23 17.105V16Zm1 2a4 4 0 0 1 2.87 1.213A4 4 0 0 1 26 22a4 4 0 0 1-1.213 2.87A4 4 0 0 1 22 26a4 4 0 0 1-2.87-1.213A4 4 0 0 1 18 22a4 4 0 0 1 1.213-2.87A4 4 0 0 1 22 18m-1 2v4l3-2z" style="fill:url(#m)"/><g style="stroke-width:1.86699998;stroke-opacity:.55"><path d="M14 2v9l1-1 1 1 1-1s1 1 1 .972V2Z" style="fill:#f4e0c8"/><path d="M14 2h4v6h-4z" style="fill:url(#n)"/><path d="M14 8v3l1-1 1 1 1-1s1 1 1 .973V8Z" style="fill:url(#o)"/></g></svg>