<svg xmlns="http://www.w3.org/2000/svg" xmlns:xlink="http://www.w3.org/1999/xlink" width="48" height="48"><linearGradient xlink:href="#a" id="c" x1="11" x2="35" y1="10" y2="34" gradientTransform="translate(-1)" gradientUnits="userSpaceOnUse"/><linearGradient id="d" x2="0" y1="20" y2="44" gradientTransform="translate(384.57 499.8)" gradientUnits="userSpaceOnUse"><stop offset="0" stop-color="#eff0f1"/><stop offset="1" stop-color="#bdc3c7"/></linearGradient><linearGradient id="a" x1="10" x2="15" y1="36" y2="41" gradientTransform="translate(384.57 500.8)" gradientUnits="userSpaceOnUse"><stop offset="0" stop-color="#292c2f"/><stop offset="1" stop-opacity="0"/></linearGradient><linearGradient xlink:href="#a" id="e" x1="9.905" x2="14.905" y1="36" y2="41" gradientTransform="translate(398.67 500.8)" gradientUnits="userSpaceOnUse"/><linearGradient id="b" x1="25.07" x2="25" y1="33.844" y2="10" gradientTransform="matrix(1 0 0 1.08333 384.57 492.96)" gradientUnits="userSpaceOnUse"><stop offset="0" stop-color="#73ba25"/><stop offset="1" stop-color="#96cb5c"/></linearGradient><path fill="url(#b)" d="M392.57 503.8h32v26h-32z" transform="translate(-384.57 -499.8)"/><path fill="url(#c)" d="m24 10 16 16v4H29l-6-6z" opacity=".2"/><path fill="#fcfcfc" d="M23 24V14l-4.5 4.5L17 17l7-7 7 7-1.5 1.5L25 14v10z"/><path fill="#232629" d="M24 34c-1.662 0-3 1.338-3 3s1.338 3 3 3a2.99 2.99 0 0 0 2.813-2h8.375a2.99 2.99 0 0 0 5.813-1c0-1.662-1.338-3-3-3a2.99 2.99 0 0 0-2.813 2h-8.375A2.99 2.99 0 0 0 24 34" opacity=".2"/><path fill="url(#d)" d="M388.57 529.8v14h40v-14z" transform="translate(-384.57 -499.8)"/><path fill="#4d4d4d" d="M26.81 38h8.375a2.99 2.99 0 0 0 5.813-1c0-1.662-1.338-3-3-3a2.99 2.99 0 0 0-2.813 2H26.81c.188 1 .188 1 0 2" opacity=".779"/><path fill="url(#e)" d="m406.67 539.13 4.762 4.667h8.143l-9.143-9.429z" opacity=".2" transform="translate(-384.57 -499.8)"/><path fill="url(#a)" d="m392.57 539.13 4.619 4.667h13.381l-4.867-6.937-7.133-.067-2.238-2.425z" opacity=".2" transform="translate(-384.57 -499.8)"/><path fill="#35b9ab" d="M10 34c-1.662 0-3 1.338-3 3s1.338 3 3 3a2.99 2.99 0 0 0 2.813-2h8.375a2.99 2.99 0 0 0 5.813-1c0-1.662-1.338-3-3-3a2.99 2.99 0 0 0-2.813 2h-8.375A2.99 2.99 0 0 0 10 34"/><path fill="#95a5a6" d="M4 43h40v1H4z"/><path fill="#eff0f1" d="M4 30h40v1H4z"/></svg>