<svg xmlns="http://www.w3.org/2000/svg" xmlns:xlink="http://www.w3.org/1999/xlink" viewBox="0 0 32 32"><defs><linearGradient xlink:href="#a" id="f" x1="10" x2="10" y1="8" y2="2" gradientUnits="userSpaceOnUse"/><linearGradient id="a" x2="0" y1="30" y2="8" gradientUnits="userSpaceOnUse"><stop offset="0" stop-color="#cea476"/><stop offset="1" stop-color="#dab58b"/></linearGradient><linearGradient xlink:href="#a" id="g" x2="0" y1="30" y2="8" gradientUnits="userSpaceOnUse"/><linearGradient xlink:href="#b" id="j" x2="0" y1="30" y2="8" gradientUnits="userSpaceOnUse"/><linearGradient id="b" x2="0" y1="30" y2="8" gradientUnits="userSpaceOnUse"><stop offset="0" stop-color="#cfd2d5"/><stop offset="1" stop-color="#eff0f1"/></linearGradient><linearGradient id="k" x1="411.427" x2="411.427" y1="543.8" y2="512.8" gradientTransform="matrix(.35 0 0 .70968 -120 -355.923)" gradientUnits="userSpaceOnUse"><stop offset="0" stop-color="#73ba25"/><stop offset="1" stop-color="#81c13b" stop-opacity=".85"/></linearGradient><linearGradient xlink:href="#c" id="l" x1="408.57" x2="408.57" y1="512.801" y2="503.801" gradientTransform="translate(-256.38 -333.867)scale(.66667)" gradientUnits="userSpaceOnUse"><stop offset="0" stop-color="#ebc69a"/><stop offset="1" stop-color="#f4e0c8" stop-opacity="0"/></linearGradient><linearGradient id="c" x1="408.57" x2="408.57" y1="512.798" y2="504.698" gradientTransform="matrix(.66667 0 0 -.37037 -256.38 197.926)" gradientUnits="userSpaceOnUse"><stop offset="0" stop-color="#ebc69a"/><stop offset="1" stop-color="#73ba25" stop-opacity="0"/></linearGradient><linearGradient xlink:href="#c" id="m" x1="408.57" x2="408.57" y1="512.798" y2="504.698" gradientTransform="matrix(.66667 0 0 -.37037 -256.38 197.926)" gradientUnits="userSpaceOnUse"/><linearGradient xlink:href="#d" id="n" x1="18" x2="30" y1="18" y2="30" gradientUnits="userSpaceOnUse"/></defs><linearGradient xlink:href="#e" id="o" x1="22" x2="22" y1="30" y2="8" gradientTransform="matrix(0 -1 -1 0 44 44)" gradientUnits="userSpaceOnUse"/><linearGradient id="d" x1="18" x2="30" y1="18" y2="30" gradientTransform="translate(40)" gradientUnits="userSpaceOnUse"><stop offset="0" stop-color="#292c2f"/><stop offset="1" stop-opacity="0"/></linearGradient><linearGradient id="e" x2="0" y1="30" y2="8" gradientUnits="userSpaceOnUse"><stop offset="0" stop-color="#cfd2d5"/><stop offset="1" stop-color="#eff0f1"/></linearGradient><path d="M6 2 2 8h28l-4-6H7Z" style="fill:url(#f);fill-rule:evenodd"/><path d="M2 8v19.148A2.846 2.846 0 0 0 4.852 30h22.296A2.846 2.846 0 0 0 30 27.148V8H4.852Z" style="fill:url(#g)"/><path d="M2 8v19.148c0 .79.319 1.503.834 2.018A2.84 2.84 0 0 0 4.852 30H14V8Z" style="fill:url(#j)"/><path d="M14 30h13.148c.79 0 1.503-.319 2.018-.834A2.84 2.84 0 0 0 30 27.148V8H14Z" style="fill:url(#k)"/><g style="stroke-width:1.86699998;stroke-opacity:.55"><path d="M14 2v9l1-1 1 1 1-1s1 1 1 .972V2Z" style="fill:#f4e0c8"/><path d="M14 2h4v6h-4z" style="fill:url(#l)"/><path d="M14 8v3l1-1 1 1 1-1s1 1 1 .973V8Z" style="fill:url(#m)"/></g><path d="M2.766 29c.04.045.026.124.068.166A2.84 2.84 0 0 0 4.852 30H14v-1z" style="fill:#adb1b3"/><path d="M14 29v1h13.148c.79 0 1.503-.319 2.018-.834.042-.042.029-.121.068-.166z" style="fill:#649e26"/><path d="m22 16-3.031.844 10.955 10.955.027-.117a3 3 0 0 0 .04-.282 3 3 0 0 0 .009-.252v-5.632l-3.758-3.758Zm-5.156 2.969L16 22l1.758 4.242L21.516 30h5.632c.202 0 .325-.174.514-.213z" style="opacity:.2;fill:url(#n)"/><path d="M28 22a5.96 5.96 0 0 1-.844 3.031l-2.687-2.687.718-.719 1.625 1.625c.052-.195.098-.39.125-.594.008-.052.026-.103.032-.156.017-.168.031-.327.031-.5a5 5 0 0 0-5-5c-.243 0-.486.028-.719.063-.136.02-.274.031-.406.062a4.7 4.7 0 0 0-.813.281c-.03.014-.063.018-.093.032-.092.04-.164.108-.25.156-.008.004-.023-.005-.032 0l-.718-.75A5.96 5.96 0 0 1 22 16a6 6 0 0 1 6 6m-2.969 5.156A5.96 5.96 0 0 1 22 28a6 6 0 0 1-6-6 5.96 5.96 0 0 1 .844-3.031l.75.75 1.906 1.937-.688.688-1.625-1.594c-.05.195-.097.39-.125.594-.007.052-.025.103-.03.156A5 5 0 0 0 17 22c0 .173.014.332.031.5s.03.337.063.5A5.02 5.02 0 0 0 22 27c.248 0 .48-.028.719-.063.136-.02.274-.031.406-.062.287-.067.548-.167.813-.281.03-.013.063-.018.093-.032.09-.04.165-.108.25-.156h.032z" style="fill:url(#o)"/></svg>