<svg xmlns="http://www.w3.org/2000/svg" xmlns:xlink="http://www.w3.org/1999/xlink" width="256" height="256"><defs><linearGradient id="v"><stop offset="0" style="stop-color:#000;stop-opacity:1"/><stop offset="1" style="stop-color:#000;stop-opacity:0"/></linearGradient><linearGradient id="u"><stop offset="0" style="stop-color:#72afc2;stop-opacity:1"/><stop offset="1" style="stop-color:#72afc2;stop-opacity:0"/></linearGradient><linearGradient id="s"><stop offset="0" style="stop-color:#0d2024;stop-opacity:1"/><stop offset=".695" style="stop-color:#1d363e;stop-opacity:1"/><stop offset="1" style="stop-color:#2e4c59;stop-opacity:1"/></linearGradient><linearGradient id="t"><stop offset="0" style="stop-color:#0d2024;stop-opacity:1"/><stop offset=".68" style="stop-color:#1d363e;stop-opacity:1"/><stop offset="1" style="stop-color:#2e4c59;stop-opacity:1"/></linearGradient><linearGradient id="q"><stop offset="0" style="stop-color:#000;stop-opacity:1"/><stop offset="1" style="stop-color:#2f4a58;stop-opacity:1"/></linearGradient><linearGradient id="r"><stop offset="0" style="stop-color:#000;stop-opacity:1"/><stop offset="1" style="stop-color:#5b91ac;stop-opacity:0"/></linearGradient><linearGradient id="n"><stop offset="0" style="stop-color:#fff;stop-opacity:1"/><stop offset="1" style="stop-color:#fff;stop-opacity:0"/></linearGradient><linearGradient id="o"><stop offset="0" style="stop-color:#13191b;stop-opacity:0"/><stop offset=".931" style="stop-color:#13191b;stop-opacity:0"/><stop offset="1" style="stop-color:#00385c;stop-opacity:1"/></linearGradient><linearGradient id="p"><stop offset="0" style="stop-color:#1c2e37;stop-opacity:1"/><stop offset=".236" style="stop-color:#2d627b;stop-opacity:1"/><stop offset=".593" style="stop-color:#357c9d;stop-opacity:1"/><stop offset=".871" style="stop-color:#9fcce0;stop-opacity:1"/><stop offset=".905" style="stop-color:#3e97bf;stop-opacity:1"/><stop offset=".945" style="stop-color:#9ecbdf;stop-opacity:1"/><stop offset="1" style="stop-color:#fff;stop-opacity:1"/></linearGradient><linearGradient id="l"><stop offset="0" style="stop-color:#fff;stop-opacity:1"/><stop offset="1" style="stop-color:#fff;stop-opacity:0"/></linearGradient><linearGradient id="j"><stop offset="0" style="stop-color:#fff;stop-opacity:1"/><stop offset="1" style="stop-color:#fff;stop-opacity:0"/></linearGradient><linearGradient id="i"><stop offset="0" style="stop-color:#fff;stop-opacity:1"/><stop offset="1" style="stop-color:#fff;stop-opacity:0"/></linearGradient><linearGradient id="h"><stop offset="0" style="stop-color:#000;stop-opacity:0"/><stop offset="1" style="stop-color:#000;stop-opacity:0"/></linearGradient><linearGradient id="c"><stop offset="0" style="stop-color:#5f5f5f;stop-opacity:1"/><stop offset=".002" style="stop-color:#7b7b7b;stop-opacity:1"/><stop offset=".016" style="stop-color:#b8b8b8;stop-opacity:1"/><stop offset=".069" style="stop-color:#7b7b7b;stop-opacity:1"/><stop offset="1" style="stop-color:#7b7b7b;stop-opacity:1"/></linearGradient><linearGradient id="g"><stop offset="0" style="stop-color:#23343f;stop-opacity:1"/><stop offset="1" style="stop-color:#0d2024;stop-opacity:1"/></linearGradient><linearGradient id="f"><stop offset="0" style="stop-color:#fff;stop-opacity:1"/><stop offset="1" style="stop-color:#fff;stop-opacity:0"/></linearGradient><linearGradient id="e"><stop offset="0" style="stop-color:#fff;stop-opacity:1"/><stop offset="1" style="stop-color:#fff;stop-opacity:0"/></linearGradient><linearGradient id="b"><stop offset="0" style="stop-color:#5f5f5f;stop-opacity:1"/><stop offset=".008" style="stop-color:#7b7b7b;stop-opacity:1"/><stop offset=".016" style="stop-color:#bcbcbc;stop-opacity:1"/><stop offset=".116" style="stop-color:#7b7b7b;stop-opacity:1"/><stop offset="1" style="stop-color:#7b7b7b;stop-opacity:1"/></linearGradient><linearGradient id="d"><stop offset="0" style="stop-color:#656565;stop-opacity:1"/><stop offset="1" style="stop-color:#c8c8c3;stop-opacity:1"/></linearGradient><linearGradient xlink:href="#b" id="a" x1="7" x2="135" y1="986.362" y2="986.362" gradientUnits="userSpaceOnUse" spreadMethod="reflect"/><linearGradient xlink:href="#c" id="z" x1="7" x2="128.017" y1="986.362" y2="986.362" gradientUnits="userSpaceOnUse" spreadMethod="reflect"/><linearGradient xlink:href="#d" id="A" x1="-98.955" x2="160" y1="1071.87" y2="922.362" gradientUnits="userSpaceOnUse"/><linearGradient xlink:href="#j" id="O" x1="59.865" x2="126.385" y1="233.376" y2="132.086" gradientUnits="userSpaceOnUse"/><linearGradient id="m"><stop offset="0" style="stop-color:#fff;stop-opacity:1"/><stop offset="1" style="stop-color:#fff;stop-opacity:0"/></linearGradient><linearGradient xlink:href="#m" id="X" x1="2227.072" x2="2231.779" y1="-1248.16" y2="-1248.969" gradientUnits="userSpaceOnUse"/><radialGradient xlink:href="#e" id="B" cx="70" cy="957.786" r="120.5" fx="2.5" fy="957.786" gradientTransform="matrix(1 0 0 .38174 0 606.734)" gradientUnits="userSpaceOnUse"/><radialGradient xlink:href="#f" id="H" cx="246.392" cy="231.327" r="2.215" fx="246.392" fy="231.327" gradientTransform="matrix(1.94533 0 0 1.42511 -232.922 697.695)" gradientUnits="userSpaceOnUse"/><radialGradient xlink:href="#f" id="J" cx="246.392" cy="231.327" r="2.215" fx="246.392" fy="231.327" gradientTransform="matrix(1.94533 0 0 1.42511 -232.922 -98.667)" gradientUnits="userSpaceOnUse"/><radialGradient xlink:href="#b" id="L" cx="127.047" cy="958.19" r="107.909" fx="127.047" fy="958.19" gradientTransform="matrix(.99484 0 0 .36797 1.255 606.484)" gradientUnits="userSpaceOnUse"/><radialGradient xlink:href="#g" id="K" cx="132.473" cy="998.66" r="107.353" fx="132.473" fy="998.66" gradientTransform="matrix(1.26004 -.34466 .14342 .52433 -179.5 491.05)" gradientUnits="userSpaceOnUse"/><radialGradient xlink:href="#h" id="U" cx="8.656" cy="285.182" r="119.149" fx="8.656" fy="285.182" gradientTransform="matrix(1 0 0 .40031 .045 895.18)" gradientUnits="userSpaceOnUse"/><radialGradient xlink:href="#i" id="T" cx="8.656" cy="284.433" r="119.649" fx="8.656" fy="284.433" gradientTransform="matrix(1 0 0 .40282 .045 894.768)" gradientUnits="userSpaceOnUse"/><radialGradient xlink:href="#g" id="k" cx="132.473" cy="998.66" r="107.353" fx="132.473" fy="998.66" gradientTransform="matrix(1.26004 -.34466 .14342 .52433 136.6 491.05)" gradientUnits="userSpaceOnUse"/><radialGradient xlink:href="#l" id="W" cx="128" cy="999.862" r="103" fx="128" fy="999.862" gradientTransform="matrix(1 0 0 .0736 0 925.774)" gradientUnits="userSpaceOnUse"/><radialGradient xlink:href="#n" id="ar" cx="127.94" cy="69.43" r="3.218" fx="127.94" fy="69.43" gradientTransform="matrix(1.69047 0 0 .99884 -88.03 825.595)" gradientUnits="userSpaceOnUse"/><radialGradient xlink:href="#n" id="ao" cx="127.94" cy="69.43" r="3.218" fx="127.94" fy="69.43" gradientTransform="matrix(3.68032 0 0 2.20691 -342.52 683.496)" gradientUnits="userSpaceOnUse"/><radialGradient xlink:href="#o" id="aq" cx="-397.875" cy="-33.375" r="8.125" fx="-398.084" fy="-37.762" gradientUnits="userSpaceOnUse"/><radialGradient xlink:href="#p" id="ap" cx="-397.835" cy="-35.165" r="8.125" fx="-398.033" fy="-42.268" gradientTransform="matrix(1.0562 0 0 .81746 22.373 -6.405)" gradientUnits="userSpaceOnUse"/><radialGradient xlink:href="#o" id="an" cx="-397.875" cy="-33.375" r="8.125" fx="-398.084" fy="-37.762" gradientUnits="userSpaceOnUse"/><radialGradient xlink:href="#p" id="am" cx="-397.835" cy="-35.165" r="8.125" fx="-398.033" fy="-42.268" gradientTransform="matrix(1.0562 0 0 .81746 22.373 -6.405)" gradientUnits="userSpaceOnUse"/><radialGradient xlink:href="#q" id="al" cx="128.313" cy="929.453" r="19.882" fx="128.666" fy="919.897" gradientTransform="matrix(1.62669 0 0 2.42978 -80.56 -1330.871)" gradientUnits="userSpaceOnUse"/><radialGradient xlink:href="#r" id="ai" cx="128.605" cy="158.182" r="25.755" fx="128.959" fy="137.422" gradientTransform="matrix(1 0 0 .99314 0 -1.24)" gradientUnits="userSpaceOnUse"/><radialGradient xlink:href="#s" id="Q" cx="129.754" cy="153.823" r="28.991" fx="129.754" fy="133.434" gradientTransform="matrix(1 0 0 .5 0 76.912)" gradientUnits="userSpaceOnUse"/><radialGradient xlink:href="#t" id="ac" cx="129.754" cy="153.823" r="28.991" fx="129.754" fy="133.434" gradientTransform="matrix(1 0 0 .5 0 76.912)" gradientUnits="userSpaceOnUse"/><radialGradient xlink:href="#u" id="S" cx="127.389" cy="179.203" r="31.15" fx="127.041" fy="190.191" gradientTransform="matrix(.68077 -.01091 .00384 .25577 40.592 116.573)" gradientUnits="userSpaceOnUse"/><radialGradient xlink:href="#v" id="as" cx="129.75" cy="53.375" r="2.25" fx="129.75" fy="53.375" gradientTransform="matrix(1.40965 0 0 1 -53.152 0)" gradientUnits="userSpaceOnUse"/><radialGradient xlink:href="#o" id="w" cx="-397.875" cy="-33.375" r="8.125" fx="-398.084" fy="-37.762" gradientUnits="userSpaceOnUse"/><radialGradient xlink:href="#v" id="av" cx="129.75" cy="53.375" r="2.25" fx="129.75" fy="53.375" gradientTransform="matrix(1.40965 0 0 1 -53.152 0)" gradientUnits="userSpaceOnUse"/><filter id="E" width="1.002" height="1.075" x="-.001" y="-.037"><feGaussianBlur stdDeviation=".121"/></filter><filter id="F" width="1.012" height="1.211" x="-.006" y="-.105"><feGaussianBlur stdDeviation=".609"/></filter><filter id="C" width="1.005" height="1.012" x="-.003" y="-.006"><feGaussianBlur stdDeviation=".228"/></filter><filter id="I" width="1.267" height="1.08" x="-.134" y="-.04"><feGaussianBlur stdDeviation=".156"/></filter><filter id="x" width="1.023" height="1.058" x="-.012" y="-.029"><feGaussianBlur stdDeviation="1.166"/></filter><filter id="G" width="1.075" height="2.152" x="-.037" y="-.576"><feGaussianBlur stdDeviation="3.988"/></filter><filter id="P" width="1.036" height="1.097" x="-.018" y="-.048"><feGaussianBlur stdDeviation="1.754"/></filter><filter id="Y" width="1.2" height="1.021" x="-.1" y="-.011"><feGaussianBlur stdDeviation=".15"/></filter><filter id="V" width="1.036" height="1.101" x="-.018" y="-.048"><feGaussianBlur stdDeviation="1.493"/></filter><filter id="M" width="1.065" height="1.165" x="-.032" y="-.083"><feGaussianBlur stdDeviation="3.447"/></filter><filter id="y" width="1.048" height="1.126" x="-.024" y="-.063"><feGaussianBlur stdDeviation="2.43"/></filter><filter id="aj" width="1.087" height="1.141" x="-.043" y="-.071"><feGaussianBlur stdDeviation=".972"/></filter><filter id="ah" width="1.056" height="1.236" x="-.028" y="-.118"><feGaussianBlur stdDeviation=".678"/></filter><filter id="ak" width="1.07" height="1.088" x="-.035" y="-.044"><feGaussianBlur stdDeviation=".554"/></filter><filter id="ad" width="1.077" height="1.163" x="-.038" y="-.082"><feGaussianBlur stdDeviation=".926"/></filter><filter id="aa" width="1.054" height="1.26" x="-.027" y="-.13"><feGaussianBlur stdDeviation=".613"/></filter><filter id="ab" width="1.023" height="1.122" x="-.012" y="-.061"><feGaussianBlur stdDeviation=".263"/></filter><filter id="ae" width="1.041" height="1.172" x="-.021" y="-.086"><feGaussianBlur stdDeviation=".495"/></filter><filter id="af" width="1.073" height="1.413" x="-.036" y="-.207"><feGaussianBlur stdDeviation=".818"/></filter><filter id="ag" width="1.036" height="1.129" x="-.018" y="-.064"><feGaussianBlur stdDeviation=".409"/></filter><filter id="Z" width="1.023" height="1.126" x="-.011" y="-.063"><feGaussianBlur stdDeviation=".244"/></filter><filter id="R" width="1.029" height="1.06" x="-.014" y="-.03"><feGaussianBlur stdDeviation=".35"/></filter><filter id="at" width="1.21" height="1.21" x="-.105" y="-.105"><feGaussianBlur stdDeviation=".197"/></filter><clipPath id="D" clipPathUnits="userSpaceOnUse"><path d="M43.188 935.362c-3.229 0-6.159.96-6.563 2.156l-29.594 87.688a.6.6 0 0 0-.031.125v.094l.031 13.531c-.404 1.327 2.764 2.406 7.094 2.406h226.75c4.33 0 7.492-1.079 7.094-2.406l.031-13.531v-.063a.6.6 0 0 0-.031-.157l-29.188-87.687c-.399-1.197-3.334-2.156-6.562-2.156z" style="fill:url(#a);fill-opacity:1"/></clipPath><clipPath id="N" clipPathUnits="userSpaceOnUse"><path d="m362.87 919.99-26.457 78.127c-.199.567 1.276 1.28 3.09 1.243H547.89c2.01.042 3.389-.676 3.19-1.243l-24.425-78.127a.96.96 0 0 0-.902-.622H364.766c-.885 0-1.769.345-1.897.622" style="fill:url(#k);fill-opacity:1;stroke:none"/></clipPath><clipPath id="au" clipPathUnits="userSpaceOnUse"><path d="M-389.75-33.375a8.125 8.125 0 1 1-16.25 0 8.125 8.125 0 1 1 16.25 0" style="opacity:.3535912;fill:url(#w);fill-opacity:1;fill-rule:evenodd;stroke:none" transform="matrix(.55088 0 0 .74447 348.837 72.651)"/></clipPath></defs><path d="m36.63 948.023-29.595 91.678c-.404 1.197 2.756 2.161 7.087 2.161h226.747c4.33 0 7.496-.964 7.097-2.161l-29.197-91.678c-.383-1.202-3.318-2.16-6.547-2.16H43.186c-3.228 0-6.152.963-6.556 2.16" style="fill:#000;fill-opacity:1;filter:url(#x)" transform="translate(0 -817.362)"/><path d="m34.63 952.023-28.195 87.178c-.404 1.197 3.356 3.161 7.687 3.161h226.747c4.33 0 8.196-1.664 7.797-2.861l-26.897-87.478c-.37-1.206-3.318-2.16-6.547-2.16H41.186c-3.228 0-6.152.963-6.556 2.16" style="fill:#000;fill-opacity:1;filter:url(#y)" transform="translate(0 -817.362)"/><path d="M36.63 937.758 7 1025.362l.035 13.604c-.404 1.328 2.756 2.396 7.087 2.396h226.747c4.33 0 7.496-1.069 7.097-2.396l.034-13.604-5.021-7-24.21-80.604c-.399-1.327-3.318-2.396-6.547-2.396H43.186c-3.228 0-6.152 1.069-6.556 2.396" style="fill:url(#z);fill-opacity:1" transform="translate(0 -817.362)"/><path d="m36.63 937.523-29.595 87.678c-.404 1.197 2.756 2.161 7.087 2.161h226.747c4.33 0 7.496-.964 7.097-2.161l-29.197-87.678c-.399-1.197-3.318-2.16-6.547-2.16H43.186c-3.228 0-6.152.963-6.556 2.16" style="fill:url(#A);fill-opacity:1" transform="translate(0 -817.362)"/><path d="m36.63 937.523-29.595 87.678c.26.767 3.064 1.962 7.087 2.161 57.136-26.26 167.744-75.386 204.647-89.839-.399-1.197-3.318-2.16-6.547-2.16H43.186c-3.228 0-6.152.963-6.556 2.16" style="opacity:.23504274;fill:url(#B);fill-opacity:1;filter:url(#C)" transform="translate(0 -817.362)"/><g clip-path="url(#D)" transform="translate(0 -817.362)"><path d="M7.25 1025.188c-.045.129.03.54-.031.406.04.099.145.198.281.312.128.108.236 6.956.45 7.062.24.119-.145-6.816.925-6.405 1.252.38 3.1.593 5.25.593h226.75c1.69 0 3.278-.15 4.451-.39.32-.067.76 5.587 1.029 5.506.318-.097.368-5.915.602-6.028.226-.11.41-.225.543-.337.136-.114.241-.213.281-.313a.44.44 0 0 0 0-.312l-.031-.094c-.47.407-1.231.702-2.281.937-1.236.277-2.822.469-4.594.469H14.125c-1.772 0-3.358-.192-4.594-.469-1.05-.235-1.811-.53-2.281-.937z" style="opacity:.52709398;fill:#fff;fill-opacity:1;filter:url(#E)"/><path d="m7.156 1024.83-.125.376c-.103.305.026.595.348.858.283.23.163 12.461.717 12.641.428.14 1.483-11.759 2.045-11.658 1.122.2 2.483.315 3.984.315h226.75c1.204 0 1.169.06 2.14-.074.794-.108 2.951 10.937 3.528 10.759.378-.117.394-11.572.66-11.713.615-.328.904-.713.766-1.128l-.125-.375c-.694.881-3.45 1.532-6.969 1.532H14.125c-3.519 0-6.28-.65-6.969-1.532z" style="opacity:.52709398;fill:#fff;fill-opacity:1;filter:url(#F)"/><rect width="256.326" height="16.617" x="-1.768" y="1037.684" rx="5.051" ry="5.051" style="opacity:.60683761;fill:#fff;fill-opacity:1;filter:url(#G)"/><path d="M242.807 1027.056c.084 0 4.526-.835 4.526-.835s-.722.042-.797.67c-.19 1.567.43 8.567-.05 8.674-.082.018-1.302-8.63-1.302-8.63z" style="fill:url(#H);fill-opacity:1;stroke:none;filter:url(#I)"/><path d="M244.53 230.738c.085 0 2.803-.879 2.803-.879s-.214.927-.29 1.553c-.188 1.568.1 8.855-.381 8.962-.082.019-.688-9.825-.688-9.825z" style="fill:url(#J);fill-opacity:1;stroke:none;filter:url(#I)" transform="matrix(-1 0 0 1 254.764 796.362)"/></g><path d="m46.77 919.99-26.457 77.227c-.199.567 1.276 1.28 3.09 1.243H231.79c2.01.042 3.389-.676 3.19-1.243l-24.425-77.227a.96.96 0 0 0-.902-.622H48.666c-.885 0-1.769.345-1.897.622" style="fill:url(#K);fill-opacity:1;stroke:none" transform="translate(0 -796.362)"/><path d="M48.666 919.362c-.885 0-1.769.342-1.897.617l-26.256 77.72c-.077.218.087.468.435.678l25.821-76.426c.128-.274 1.012-.616 1.897-.616h160.988a.96.96 0 0 1 .902.616l23.99 75.926c.342-.21.512-.46.435-.678l-24.425-77.22a.96.96 0 0 0-.902-.617z" style="fill:url(#L);fill-opacity:1;stroke:none" transform="translate(0 -796.362)"/><path d="M315 895.362v100h23.688l27.187-72.375c.127-.273 1-.625 1.875-.625h155c.385-.009.746.262.875.625l25.25 72.375H570v-100z" clip-path="url(#N)" style="opacity:.82062779;fill:#000;fill-opacity:1;stroke:none;filter:url(#M)" transform="translate(-315.688 -795.462)"/><path d="m37.598 123.71-25.635 74.978c-.932 2.95-4.302 9.556-1.058 9.26l228.804.322 3.536-4.242-23.335-73.54 18.031 70.711v3.89L19.51 203.38c-2.234-.592-1.698-2.381-1.186-4.346l25.163-77.739z" style="fill:url(#O);stroke:none;stroke-width:1px;stroke-linecap:butt;stroke-linejoin:miter;stroke-opacity:1;fill-opacity:1;filter:url(#P);opacity:.50495049999999997"/><path d="M158.745 153.823c0 8.006-12.98 14.496-28.99 14.496-16.012 0-28.992-6.49-28.992-14.496s12.98-13.374 28.991-13.374c16.012 0 28.991 5.368 28.991 13.374" style="opacity:.75138119;fill:url(#Q);fill-opacity:1;fill-rule:evenodd;stroke:none;filter:url(#R)" transform="matrix(2.6115 0 0 2.4168 -210.46 -210.712)"/><path d="M158.745 153.823c0 8.006-12.98 14.496-28.99 14.496-16.012 0-28.992-6.49-28.992-14.496s12.98-13.374 28.991-13.374c16.012 0 28.991 5.368 28.991 13.374" style="opacity:.75138119;fill:url(#S);fill-opacity:1;fill-rule:evenodd;stroke:none;filter:url(#R)" transform="matrix(2.60173 0 0 2.40775 -209.191 -209.442)"/><path d="m28.143 944.573-13.867 52.193c-.932 2.95-1.83 6.13 1.414 5.834l224.065 2.032 3.535-4.242-23.334-73.54 18.03 70.711v3.89l-219.556-.708c-2.233-.592-2.545-2.72-2.033-4.684l15.635-52.9z" style="opacity:.54708520999999999;fill:url(#T);fill-opacity:1;stroke:url(#U);stroke-width:1px;stroke-linecap:butt;stroke-linejoin:miter;stroke-opacity:1;filter:url(#V)" transform="translate(0 -796.362)"/><path d="M25 998.462h206v1.8H25z" style="opacity:.69801983;fill:url(#W);fill-opacity:1;stroke:none" transform="translate(0 -796.362)"/><path d="M2227.5-1257.625c-.13-.013-.246.029-.375.094h-.031a.2.2 0 0 0-.031.031v.031a.2.2 0 0 0-.031.031v.031c1.046 15.272 1.199 23.272 1.094 27.437-.052 2.083-.147 3.214-.25 3.813-.021.123-.044.137-.063.219-.27-.863-.484-2.298-.625-4.125-.166-2.154-.243-4.802-.281-7.657-.078-5.709.022-12.17.03-16.718v-.031a.2.2 0 0 0-.03-.031v-.031a.2.2 0 0 0-.032-.031h-.03a.2.2 0 0 0-.031-.031h-.062a.2.2 0 0 0-.031.03h-.031c-.065.062-.094.162-.125.25-.031.09-.07.185-.094.313a10 10 0 0 0-.125 1c-.07.834-.105 1.998-.125 3.344-.04 2.692.01 6.203.125 9.781.113 3.578.28 7.198.5 10.094.109 1.448.248 2.734.375 3.719.126.985.252 1.671.406 2.031l.125-.063c.048.065.08.13.094.125.024-.01.053-.015.094-.031.082-.032.2-.068.312-.125.113-.057.214-.136.313-.219.098-.082.198-.172.218-.312.78-5.414 1.147-13.58 1-20.407-.073-3.413-.272-6.498-.625-8.75-.176-1.125-.398-2.032-.656-2.687-.129-.328-.245-.588-.406-.781-.16-.193-.378-.327-.594-.344z" style="fill:url(#X);fill-opacity:1;fill-rule:evenodd;stroke:none;filter:url(#Y)" transform="translate(.996 -796.995)"/><path d="M102.372 953.281c3.14 6.663 13.531 9.334 25.441 9.334 14.739 0 23.489-3.328 26.117-8.656-5.268 9.95-42.674 12.396-51.558-.678" style="fill:#000;fill-opacity:.875;fill-rule:evenodd;stroke:none;filter:url(#Z)" transform="matrix(2.9064 0 0 -2.92596 -244.759 2945.116)"/><path d="M100.832 953.281c4.328 6.474 14.645 9.93 26.07 10.37.407.015.863.946 1.272.954.429.01.789-.91 1.187-.91 13.063-.052 22.689-4.978 25.96-9.736-3.765 5.792-15.007 8.943-26.544 8.988-.187.001-.374-4.268-.561-4.269-.188 0-.375 4.266-.562 4.264-11.18-.152-22.419-3.231-26.822-9.66" style="opacity:.89502761;fill:#000;fill-opacity:.875;fill-rule:evenodd;stroke:none;filter:url(#aa)" transform="matrix(2.5966 0 0 2.1742 -205.086 -1900.584)"/><path d="M100.832 953.281c4.482 6.705 15.074 10.058 26.981 10.29 13.69.265 24.135-4.706 27.509-9.612-7.536 11.59-45.393 12.605-54.49-.678" style="opacity:.89502761;fill:#5e889d;fill-opacity:1;fill-rule:evenodd;stroke:none;filter:url(#ab)" transform="matrix(2.5966 0 0 2.1742 -205.086 -1903.379)"/><path d="M158.745 153.823c0 8.006-12.98 14.496-28.99 14.496-16.012 0-28.992-6.49-28.992-14.496s12.98-12.75 28.991-12.75c16.012 0 28.991 4.744 28.991 12.75" style="fill:url(#ac);fill-opacity:1;fill-rule:evenodd;stroke:none;filter:url(#ad)" transform="matrix(1.7298 0 0 1.3616 -96.149 -52.288)"/><path d="M128.222 934.358c-15.986 0-28.957 5.937-28.957 13.25 0 .188.021.351.038.538.776-6.996 13.432-12.559 28.92-12.559 15.486 0 28.105 5.563 28.88 12.559.017-.187.039-.35.039-.538 0-7.313-12.933-13.25-28.92-13.25z" style="opacity:.50276244;fill:#598195;fill-opacity:1;fill-rule:evenodd;stroke:none;filter:url(#ae)" transform="matrix(1.71589 0 0 1.33687 -92 -1110.706)"/><path d="M155.342 953.17c-2.484 4.793-14.12 6.992-25.666 7.229-2.34-1.06-1.45-.23-2.994-.015-11.251-.344-22.562-2.475-25.035-7.166-.015.154-.047.312-.047.468 0 6.005 12.902 8.984 26.595 8.984s27.194-2.98 27.194-8.984c0-.171-.029-.346-.047-.515z" style="opacity:.50276244;fill:#74cbf8;fill-opacity:1;fill-rule:evenodd;stroke:none;filter:url(#af)" transform="matrix(1.66875 0 0 1.39729 -85.957 -1169.536)"/><path d="M155.942 952.44c-2.485 4.791-14.72 8.659-26.266 8.659-1.385 0-1.19-8.745-1.593-8.745-.602 0-.12 8.77-1.4 8.73-11.252-.344-23.162-3.907-25.635-8.598-.015.155-.047.313-.047.469 0 5.424 11.653 9.726 23.875 10.472 1.309.08 1.283 4.17 3.319 4.17 1.827 0 2.123-4.133 3.934-4.188 11.436-.35 23.86-5.251 23.86-10.454 0-.171-.03-.346-.048-.516z" style="opacity:.50276244;fill:#000;fill-opacity:.91911765;fill-rule:evenodd;stroke:none;filter:url(#ag)" transform="matrix(1.66875 0 0 1.39729 -85.957 -1169.536)"/><path d="M128.222 934.358c-15.986 0-28.957 5.937-28.957 13.25 0 .188.021.351.038.538.776-6.996 13.432-12.559 28.92-12.559 15.486 0 28.105 5.563 28.88 12.559.017-.187.039-.35.039-.538 0-7.313-12.933-13.25-28.92-13.25z" style="opacity:.50276244;fill:#000;fill-opacity:1;fill-rule:evenodd;stroke:none;filter:url(#ah)" transform="matrix(1.71589 0 0 1.33687 -92 -1109.868)"/><path d="M128.693 132.963c-8.294 7.747-14.282 18.25-26.297 21.552l4.377 6.026 9.193 4.065 10.96 1.415 9.9-1.061 10.075-2.475 9.244-6.457c-13.205-3.168-18.9-14.708-27.452-23.065" style="fill:url(#ai);fill-opacity:1;stroke:none;filter:url(#aj)" transform="matrix(1.36736 0 0 1.14492 -47.349 -16.287)"/><path d="M128.313 920.293c0 9.923-7.598 20.93-18.109 26.807-.774.433-1.501 1.141-.547 2.158 1.037 1.107 3.81 1.511 4.463.8 6.07-6.593 10.215-16.465 14.192-16.55 3.978.085 8.082 9.957 14.15 16.55.654.711 3.469.307 4.506-.8.954-1.017.227-1.625-.547-2.058-10.511-5.878-18.109-16.984-18.109-26.907" style="opacity:.23204423;fill:#b0c9d6;fill-opacity:1;stroke:none;filter:url(#ak)" transform="matrix(.92871 0 0 1.25874 9 -1037.904)"/><path d="M128.165 900.911c0 12.83-9.15 42.249-18.913 49.848-.719.56-1.394 2.77-.508 4.084.964 1.431 3.538 1.953 4.146 1.035 5.636-8.526 11.58-23.55 15.275-23.659 3.694.11 9.6 15.133 15.236 23.659.607.918 3.221.396 4.185-1.035.885-1.315.21-3.524-.509-4.084-9.761-7.599-18.912-37.018-18.912-49.848" style="fill:url(#al);fill-opacity:1;stroke:none" transform="translate(0 -796.362)"/><path d="M-389.75-33.375a8.125 8.125 0 1 1-16.25 0 8.125 8.125 0 0 1 16.25 0" style="fill:url(#am);fill-opacity:1;fill-rule:evenodd;stroke:none" transform="matrix(1.5414 0 0 1.49555 741.451 100.02)"/><path d="M-389.75-33.375a8.125 8.125 0 1 1-16.25 0 8.125 8.125 0 0 1 16.25 0" style="opacity:.3535912;fill:url(#an);fill-opacity:1;fill-rule:evenodd;stroke:none" transform="matrix(1.5414 0 0 1.49555 741.451 100.02)"/><path d="M136.306 839.533c0 2.718-3.674 4.92-8.207 4.92-4.532 0-8.206-2.202-8.206-4.92s3.674-5.098 8.206-5.098c4.533 0 8.207 2.38 8.207 5.098" style="opacity:.7845304;fill:url(#ao);fill-opacity:1;fill-rule:evenodd;stroke:none" transform="translate(0 -796.362)"/><path d="M-389.75-33.375a8.125 8.125 0 1 1-16.25 0 8.125 8.125 0 0 1 16.25 0" style="fill:url(#ap);fill-opacity:1;fill-rule:evenodd;stroke:none" transform="matrix(.708 0 0 .67688 409.865 125.585)"/><path d="M-389.75-33.375a8.125 8.125 0 1 1-16.25 0 8.125 8.125 0 0 1 16.25 0" style="opacity:.3535912;fill:url(#aq);fill-opacity:1;fill-rule:evenodd;stroke:none" transform="matrix(.708 0 0 .67688 409.865 125.585)"/><path d="M131.906 896.217c0 1.23-1.688 2.227-3.77 2.227s-3.769-.997-3.769-2.227 1.688-2.307 3.77-2.307 3.769 1.077 3.769 2.307" style="opacity:.7845304;fill:url(#ar);fill-opacity:1;fill-rule:evenodd;stroke:none" transform="translate(0 -796.362)"/><path d="M132 53.375a2.25 2.25 0 1 1-4.5 0 2.25 2.25 0 0 1 4.5 0" clip-path="url(#au)" style="opacity:.61878453;fill:url(#as);fill-opacity:1;fill-rule:evenodd;stroke:none;filter:url(#at)" transform="matrix(2.79807 0 0 2.00887 -234.617 -45.926)"/><path d="M132 53.375a2.25 2.25 0 1 1-4.5 0 2.25 2.25 0 0 1 4.5 0" clip-path="url(#au)" style="opacity:.82320437;fill:url(#av);fill-opacity:1;fill-rule:evenodd;stroke:none" transform="matrix(1.26018 0 0 .90474 -35.19 59.724)"/></svg>