<svg xmlns="http://www.w3.org/2000/svg" xmlns:xlink="http://www.w3.org/1999/xlink" width="48" height="48"><defs><linearGradient id="c"><stop offset="0" style="stop-color:#fff;stop-opacity:1"/><stop offset="1" style="stop-color:#a3d5fe;stop-opacity:1"/></linearGradient><linearGradient xlink:href="#a" id="d" x1="6.718" x2="9.319" y1="283.855" y2="294.403" gradientTransform="matrix(2.5803 0 0 2.5803 1.961 -457.565)" gradientUnits="userSpaceOnUse"/><linearGradient id="a"><stop offset="0" style="stop-color:#1fb6ca;stop-opacity:1"/><stop offset="1" style="stop-color:#cd87de;stop-opacity:1"/></linearGradient><linearGradient xlink:href="#b" id="e" x1="8.624" x2="8.6" y1="279.395" y2="297.491" gradientTransform="matrix(2.5803 0 0 2.5803 1.961 -457.565)" gradientUnits="userSpaceOnUse"/><linearGradient id="b"><stop offset="0" style="stop-color:#fff;stop-opacity:1"/><stop offset="1" style="stop-color:#f7f7f7;stop-opacity:1"/></linearGradient><linearGradient xlink:href="#c" id="f" x1="17.57" x2="17.57" y1="276.583" y2="288.017" gradientTransform="translate(7.199 6.744)" gradientUnits="userSpaceOnUse"/></defs><g transform="translate(0 -263.133)"><circle cx="24" cy="287.133" r="19.945" style="fill:url(#d);fill-opacity:1;stroke:none;stroke-width:2.10957;stroke-linecap:round;stroke-miterlimit:4;stroke-dasharray:none;stroke-dashoffset:0;stroke-opacity:1"/><circle cx="24" cy="287.133" r="19.945" style="fill:none;fill-opacity:1;stroke:url(#e);stroke-width:2.10957;stroke-linecap:round;stroke-miterlimit:4;stroke-dasharray:none;stroke-dashoffset:0;stroke-opacity:1"/><path d="M14.84 280.655c-.729 0-1.316.58-1.316 1.301v7.376c0 1.923 1.566 3.472 3.51 3.472h10.969c.729 0 1.316-.58 1.316-1.302v-7.376c0-1.923-1.566-3.471-3.51-3.471h-8.775zm19.175.002c-.258-.019-.552.106-.832.385-.984.98-2.138 1.808-2.945 2.98-.332.483-.31 1.122-.312 1.723-.001.33.002.658 0 .984.002.325-.001.654 0 .983.003.601-.02 1.24.312 1.723.807 1.172 1.96 2 2.945 2.98.28.28.574.405.832.386.43-.032.76-.468.76-1.278 0-1.584.023-3.188 0-4.794.023-1.607 0-3.21 0-4.795 0-.81-.33-1.246-.76-1.278" style="fill:url(#f);fill-opacity:1;stroke-width:.607468"/></g></svg>