<svg xmlns="http://www.w3.org/2000/svg" width="48" height="48"><path d="M23.813 4.96c10.41 0 18.851 8.442 18.851 18.853 0 10.41-8.441 18.851-18.851 18.851S4.96 34.223 4.96 23.813 13.402 4.96 23.813 4.96m0 0" style="fill:#00a489;fill-opacity:1;fill-rule:nonzero;stroke:none" transform="matrix(.96123 0 0 .96123 1.111 1.111)"/><path d="M23.86 1.965A21.78 21.78 0 0 0 5.151 12.488q-.054.087-.109.18-.012.017-.023.039l-.11.191-.129.227q-.02.036-.043.074l-.086.156a1 1 0 0 0-.043.082q-.046.077-.082.153l-.043.078-.09.172a1 1 0 0 1-.03.062l-.118.23-.02.044-.093.187q-.017.042-.04.082-.034.079-.073.157l-.036.078q-.035.08-.07.156l-.039.086c-.027.058-.05.113-.078.172q-.011.032-.027.062-.05.113-.098.23-.013.035-.031.075c-.024.055-.043.11-.067.16l-.035.086a2 2 0 0 1-.062.156c-.012.032-.024.059-.032.09q-.034.076-.062.152-.013.04-.031.086-.037.1-.075.2l-.011.035v.004q-.047.117-.086.234l-.024.074q-.03.078-.054.16L3.066 17l-.046.14c-.008.032-.02.063-.028.094a3 3 0 0 0-.054.168l-.024.07-.07.235v.004l-.012.047c-.02.062-.039.129-.055.191q-.016.046-.027.086-.018.08-.043.16l-.023.094a4.134 4.134 0 0 0-.062.246q-.024.075-.04.156-.013.042-.02.082-.03.118-.054.235c-.008.027-.012.054-.02.078q-.017.084-.035.16l-.023.106c-.008.046-.02.093-.028.136q-.011.051-.02.11-.015.07-.027.14l-.023.106a3 3 0 0 1-.027.156q-.005.041-.016.082l-.039.234-.012.086-.023.153c-.008.035-.012.074-.02.11a2 2 0 0 1-.02.136q-.004.054-.015.11c-.004.042-.012.089-.015.132a1 1 0 0 1-.016.11l-.024.206c0 .008 0 .02-.003.028 0 .015-.004.031-.004.043q-.013.1-.02.195l-.012.102-.011.144-.012.106-.012.136q-.001.051-.008.11-.003.071-.007.148c-.004.031-.004.063-.008.094l-.012.23q-.005.048-.004.094a2 2 0 0 0-.008.148q-.005.059-.004.11-.004.07-.003.133-.005.06-.004.113c0 .047-.004.09-.004.133v.113q-.002.066-.004.137v.328c0 .043.004.082.004.125v.113c0 .043.004.086.004.13q-.001.056.004.108 0 .069.003.137c0 .031.004.067.004.102q.002.066.004.136c.004.032.004.063.008.094q.005.135.016.27c0 .031.004.058.004.09l.011.132q.001.053.008.106l.012.137q.001.046.008.093l.02.235q.009.073.015.148c.004.008.004.02.004.027.011.11.027.223.039.333l.012.082q.006.076.02.148l.01.082q.011.081.02.156l.012.07.023.16.012.06a12 12 0 0 0 .106.605l.03.16.013.066q.017.08.035.16l.012.067.035.164.011.039q.061.284.133.566c0 .012.004.028.008.04.016.058.027.113.043.167q.011.03.016.063.023.076.043.16c.003.016.011.035.015.055q.105.381.223.762a.2.2 0 0 1 .015.043q.025.085.055.171.005.02.016.043c.02.059.035.118.058.176q.002.013.004.02c.07.199.137.398.211.597l.07.184.012.027.07.184.008.02q.038.093.075.187.122.299.25.598h.004l.082.187c.003.008.003.012.007.02q.044.093.086.187c.121.262.25.524.38.777l.003.004.094.188q.004.001.008.008c.03.062.066.125.097.187q.204.374.418.742l.016.02q.053.088.105.18v.003q.282.464.586.914c.043.063.082.122.125.18a18 18 0 0 0 .649.89q.33.436.687.852l.14.164a20.872 20.872 0 0 0 .746.82h.005a22 22 0 0 0 4.851 3.79 21.78 21.78 0 0 0 29.817-7.988A21.78 21.78 0 0 0 34.727 4.91a21.8 21.8 0 0 0-10.868-2.945m-.047 2.996a18.81 18.81 0 0 1 18.851 18.852 18.81 18.81 0 0 1-18.851 18.851 18.79 18.79 0 0 1-14.16-6.383c1.35-.742 3.421-.508 5.921-.226 1.313.152 2.805.324 4.352.36 4.32.026 8.969-.77 11.836-2.024 1.855-.805 3.039-1.344 3.781-2.016.266-.223.402-.582.547-.969l.101-.254c.121-.312.297-.972.375-1.332.032-.16.047-.328-.066-.418l-.395.075c-1.257.757-4.406 2.191-7.347 2.253-3.653.075-11.004-3.671-11.774-4.07l-.074-.086c-.18-.441-1.281-3.05-1.52-3.601 5.297 3.488 9.688 5.414 13.047 5.71 3.743.337 6.66-1.706 7.907-2.581.246-.16.43-.297.504-.329l.082-.125c-.207-1.312-2.164-7.675-3.645-9.203-.406-.418-.734-.828-1.394-1.215-5.352-3.117-18.043-5-18.641-5.085l-.102.027-.035.09s-.05 2.633-.058 2.925a76 76 0 0 0-4.59-1.351A18.8 18.8 0 0 1 23.812 4.96m3.496 11.555h.136a5.456 5.456 0 0 1 5.242 5.625 5.4 5.4 0 0 1-1.722 3.777 5.37 5.37 0 0 1-3.899 1.46 5.45 5.45 0 0 1-5.238-5.62 5.4 5.4 0 0 1 1.723-3.785 5.4 5.4 0 0 1 3.758-1.457m-.098 1.597a3.72 3.72 0 0 0-2.523 1.016 3.73 3.73 0 0 0-1.2 2.637 3.8 3.8 0 0 0 3.653 3.925 3.8 3.8 0 0 0 2.718-1.015 3.76 3.76 0 0 0 1.2-2.637 3.8 3.8 0 0 0-3.66-3.922q-.048.001-.094-.004zm.809 1.907c.93 0 1.68.5 1.68 1.12 0 .618-.75 1.118-1.68 1.118s-1.68-.5-1.68-1.117c0-.621.75-1.121 1.68-1.121m0 0" style="fill:#f5f5f5;fill-opacity:1;fill-rule:nonzero;stroke:none" transform="matrix(.96123 0 0 .96123 1.111 1.111)"/><path d="M23.813 1.984A21.78 21.78 0 0 0 1.983 23.813 21.78 21.78 0 0 0 23.813 45.64 21.78 21.78 0 0 0 45.64 23.813 21.78 21.78 0 0 0 23.813 1.983m0 .993a20.79 20.79 0 0 1 20.835 20.836 20.79 20.79 0 0 1-20.836 20.835A20.79 20.79 0 0 1 2.977 23.812 20.79 20.79 0 0 1 23.813 2.977m0 0" style="fill:#00a489;fill-opacity:1;fill-rule:nonzero;stroke:none" transform="matrix(.96123 0 0 .96123 1.111 1.111)"/></svg>