<svg xmlns="http://www.w3.org/2000/svg" width="32" height="32"><defs><linearGradient id="a" x1="415.88" x2="385.482" y1="543.793" y2="543.911" gradientUnits="userSpaceOnUse"><stop offset="0" stop-color="#d98cbb"/><stop offset="1" stop-color="#78acd3"/></linearGradient><linearGradient id="b" x1="421.887" x2="379.755" y1="525.794" y2="540.786" gradientUnits="userSpaceOnUse"><stop offset="0" stop-color="#438dc2"/><stop offset="1" stop-color="#3db3ac"/></linearGradient><linearGradient id="c" x1="384.712" x2="416.93" y1="528.293" y2="528.293" gradientUnits="userSpaceOnUse"><stop offset="0" stop-color="#326e9a"/><stop offset="1" stop-color="#339993"/></linearGradient></defs><path fill="url(#a)" d="M415.571 539.859v.788c0 1.74-1.221 3.151-2.727 3.151h-24.545c-1.506 0-2.727-1.411-2.727-3.151v-.788z" transform="translate(-384.571 -515.798)"/><path fill="url(#b)" d="M415.571 522.622v17.647h-30v-17.647c0-1.559 1.221-2.824 2.727-2.824h24.545c1.506 0 2.727 1.264 2.727 2.824z" transform="translate(-384.571 -515.798)"/><path fill="url(#c)" d="M410.442 519.798c-.011 3.666-24.87 6.11-24.87 16.941v-14.118c0-1.559 1.221-2.824 2.727-2.824z" transform="translate(-384.571 -515.798)"/></svg>