<svg xmlns="http://www.w3.org/2000/svg" xmlns:xlink="http://www.w3.org/1999/xlink" width="48" height="48"><defs><linearGradient id="a"><stop style="stop-color:#197cf1"/><stop offset="1" style="stop-color:#21c9fb"/></linearGradient><linearGradient xlink:href="#a" id="d" x2="0" y1="543.798" y2="503.798" gradientTransform="matrix(1.01818 0 0 1 -3.065 0)" gradientUnits="userSpaceOnUse"/><linearGradient id="b"><stop style="stop-color:#292c2f"/><stop offset="1" style="stop-opacity:0"/></linearGradient><linearGradient xlink:href="#b" id="e" x1="401.571" x2="408.571" y1="524.798" y2="531.798" gradientTransform="matrix(1.42857 0 0 1.42265 -159.103 -232.806)" gradientUnits="userSpaceOnUse"/><linearGradient id="c"><stop style="stop-color:#7cbaf8"/><stop offset="1" style="stop-color:#f4fcff"/></linearGradient><linearGradient xlink:href="#b" id="f" x1="9" x2="23" y1="9" y2="23" gradientTransform="translate(390.846 510.79)" gradientUnits="userSpaceOnUse"/><linearGradient xlink:href="#c" id="g" x1="391.742" x2="409.401" y1="531.798" y2="531.798" gradientUnits="userSpaceOnUse"/><linearGradient xlink:href="#c" id="h" x1="409.414" x2="391.57" y1="538.084" y2="523.615" gradientTransform="matrix(1.0014 0 0 1.01644 -.552 -8.643)" gradientUnits="userSpaceOnUse"/><linearGradient xlink:href="#c" id="i" x1="391.742" x2="409.401" y1="531.798" y2="531.798" gradientUnits="userSpaceOnUse"/></defs><path d="M392.571 503.798v40h32v-30l-10-10z" style="fill:url(#d)" transform="translate(-384.571 -499.798)"/><path d="m424.571 513.798-10-10v10z" style="fill:#313437;fill-rule:evenodd" transform="translate(-384.571 -499.798)"/><path d="m414.571 513.798 10 9.959v-9.959z" style="fill:url(#e);opacity:.2;fill-rule:evenodd" transform="translate(-384.571 -499.798)"/><path d="m402.571 517.798-6 14 12 12 16-17-5-6v4l-3 1-11.684-10z" style="opacity:.2;fill:url(#f);fill-rule:evenodd" transform="translate(-384.571 -499.798)"/><g style="fill:url(#g);fill-opacity:1" transform="matrix(1.35912 0 0 1.32697 -520.427 -681.683)"><path d="m395.03 532.905 2-5.748 1.807 5.748zm5.581 4.922h1.432l-4.182-12.058h-1.693l-4.426 12.058h1.432l1.416-3.816h4.72z" style="fill:url(#h);fill-opacity:1"/><path d="M405.533 536.787c-.829 0-1.446-.406-1.446-1.381 0-1.22.731-1.61 3.201-1.934.016 0 .796-.114.796-.114v2.145c-.568.78-1.722 1.284-2.55 1.284m2.584-.114.195.959h1.089v-6.403c0-1.95-1.35-2.518-3.072-2.518-1.235 0-2.388.308-3.055.666l.374 1.04c.715-.341 1.755-.585 2.714-.585 1.202 0 1.722.552 1.722 1.609v.99l-.877.098c-2.243.325-4.453.634-4.453 2.925 0 1.625 1.22 2.373 2.65 2.373.91 0 1.95-.293 2.713-1.154" style="fill:url(#i);fill-opacity:1"/></g></svg>