<svg xmlns="http://www.w3.org/2000/svg" width="48" height="48"><defs><linearGradient id="b" x1="16" x2="44" y1="14" y2="42" gradientUnits="userSpaceOnUse"><stop offset="0"/><stop offset="1" stop-opacity="0"/></linearGradient><linearGradient id="a" x1="23.355" x2="23.355" y1="44.044" y2="4.206" gradientUnits="userSpaceOnUse"><stop offset="0" stop-color="#8c025a"/><stop offset="1" stop-color="#c74778"/></linearGradient></defs><rect width="40" height="40" x="4" y="4" fill="url(#a)" rx="3"/><path fill="url(#b)" d="M25.309 11.33 11.193 25.445l5.668 5.666-2.057 2.057L25.637 44H41c1.662 0 3-1.338 3-3V25.707L33.133 14.84l-2.156 2.156z" opacity=".2"/><path d="M4 40v1c0 1.662 1.338 3 3 3h34c1.662 0 3-1.338 3-3v-1c0 1.662-1.338 3-3 3H7c-1.662 0-3-1.338-3-3" opacity=".15"/><path fill="#fff" d="M23.607 11.002c-.725.027-1.123.27-1.383.793a3.3 3.3 0 0 0-.303 1.242c-.001 1.276-1.29 2.441-2.703 2.441-.694 0-1.074-.191-2.479-1.242-.639-.479-1.043-.355-2.035.621-.942.928-.965 1.371-.131 2.478.345.458.693 1.068.775 1.357.203.715-.129 2.025-.662 2.607-.437.477-1.52.85-2.465.85-.899 0-1.223.511-1.223 1.928 0 1.103.042 1.253.42 1.504.231.154.9.348 1.486.432s1.263.283 1.502.441c.505.335 1.091 1.535 1.096 2.246.004.516-.393 1.429-.803 1.844-.446.452-.774 1.275-.656 1.65.151.481 1.171 1.509 1.699 1.713.303.117.523.083.816-.125.859-.609 2.328-1.272 2.824-1.272.748 0 1.988.66 2.26 1.203.128.256.288.851.355 1.322.164 1.143.425 1.682.861 1.775l.707.156c.191.045.619.045.953 0 .87-.117 1.334-.765 1.48-2.07.134-1.193.244-1.385 1.123-1.947.892-.571 1.591-.682 2.277-.363.569.264.799.401 1.732 1.023.684.456 1.11.38 1.9-.344 1.189-1.088 1.214-1.56.148-2.803-1.014-1.183-1.026-2.64-.029-3.758.382-.428.725-.577 1.855-.803 1.708-.341 1.985-.62 1.99-2.006s-.215-1.61-1.818-1.861c-1.526-.239-2.015-.583-2.551-1.791-.446-1.005-.322-1.593.629-2.973.488-.707.73-1.224.674-1.441-.125-.486-1.705-1.934-2.109-1.934-.187 0-.687.269-1.109.596-1.166.901-1.861 1.105-2.857.838-1.171-.314-1.587-.809-1.883-2.238-.34-1.642-.559-1.937-1.525-2.047a6 6 0 0 0-.842-.043z"/><path fill="#c3377e" d="M24 19a5 5 0 1 1 0 10 5 5 0 1 1 0-10"/></svg>