<svg xmlns="http://www.w3.org/2000/svg" width="32" height="32"><defs><linearGradient id="c" x1="376.571" x2="376.571" y1="551.797" y2="497.798" href="#a"><stop offset="0" stop-color="#707070"/><stop offset="1" stop-color="#ccc"/></linearGradient><linearGradient id="g" x1="376.571" x2="376.571" y1="519.798" y2="515.798" href="#a"><stop stop-color="#197cf1"/><stop offset="1" stop-color="#21c9fb"/></linearGradient><linearGradient id="h" x1="-392.571" x2="-392.571" y1="515.798" y2="511.798" href="#a"><stop stop-color="#197cf1"/><stop offset="1" stop-color="#21c0fb"/></linearGradient><linearGradient id="f" x1="398.571" x2="394.571" y1="527.798" y2="539.798" href="#a"><stop offset="0" stop-color="#7e7e7e"/><stop offset="1" stop-color="#969999"/></linearGradient><linearGradient id="d" x1="390.571" x2="394.571" y1="491.798" y2="491.798" href="#a"><stop offset="0" stop-color="#5b6467"/><stop offset="1" stop-color="#b5b5b5"/></linearGradient><linearGradient id="e" x1="424.571" x2="426.571" y1="491.798" y2="491.798" href="#a"><stop offset="0" stop-color="#888"/><stop offset="1" stop-color="#b5b5b5" stop-opacity=".463"/></linearGradient><linearGradient id="i" x1="-392.571" x2="-392.571" y1="509.798" y2="501.798" href="#a"><stop stop-color="#18222a"/><stop offset="1" stop-color="#566069"/></linearGradient><linearGradient id="j" x1="376.571" x2="376.571" y1="523.797" y2="505.798" href="#a"><stop offset="0" stop-color="#678ca3"/><stop offset="1" stop-color="#9bc9d7"/></linearGradient><linearGradient id="a" gradientUnits="userSpaceOnUse"/><filter id="b" width="1" height="1" x="0" y="0" color-interpolation-filters="sRGB"><feColorMatrix values="1.424 0 0 0.114655 -0.212 0 1.424 0 0.114655 -0.212 0 0 1.424 0.114655 -0.212 0 0 0 1 0"/></filter></defs><g filter="url(#b)" transform="matrix(.5 0 0 .5 -188.286 -245.899)"><g fill-rule="evenodd"><path fill="url(#c)" d="M408.571 497.798c-5.776 1.756-7.839 2.204-14 4-1.888 6.678-2.566 11.741-1.656 19.406l-.281 1.16-.062-.566v.824l-.609 2.547c-.589 1.308-1.391 3.238-1.391 4.629 0 1.505.281 2.629 1.133 5.277.209.906.473 1.813.867 2.723.5 4.047 1.114 5.074 3.469 7.969 4.991 2.87 7.801 5.028 12.531 6.031 4.166-.724 8.354-3.348 10.918-6.043l1.082.043c2.09-2.236 3.476-5.291 4-8 2-8 2-6 2-8 0-1.063-.533-3.668-1.062-6.02-.309-2.047-.772-4.124-1.359-6.398l.023-3.582.332-.402c-.021-2.636-.241-4.042-.723-6.168l-.262-.855-.707-.395c-.242-1.907-.713-3.791-1.844-5.379-4.719.188-9.428-2.564-12.398-2.801z"/><path fill="url(#d)" d="m392.864 520.696.051.508-.281 1.16-.062-.566v.824l-.609 2.547c-.589 1.308-1.391 3.238-1.391 4.629 0 1.505.281 2.629 1.133 5.277.209.906.473 1.813.867 2.723l.227 1.359c3.106-8.476.779-16.39.066-18.461z"/><path fill="#6e6e6e" d="m396.571 537.798 1.2-1.4.6-.7.3-.35c.41-.527.344-.8.344-1.25l-.065-1.931-.085-1.589-.121-1.404c-.135-1.528-.433-2.231-.873-2.441l-.7-.316-.7-.316-.7-.316c.482 3.876.734 7.889.8 12.015z" opacity=".6"/><path fill="url(#e)" d="m424.396 518.415-1.613 24.211c.856-1.579 1.485-3.254 1.789-4.828 2-8 2-6 2-8 0-1.063-.533-3.668-1.062-6.02-.261-1.724-.652-3.496-1.113-5.363z"/><path fill="url(#f)" d="m394.571 527.798-.266.793c.158 3.101-.113 6.761-1.508 10.566-.078-.423-.16-.819-.227-1.359.453 3.67 1.068 4.914 2.922 7.262.979-5.299.687-16.18-.922-17.262z"/></g><path fill="#1b252d" fill-opacity=".384" d="m408.571 497.798-.5.145v25.355a.5.5 0 1 0 1 0V497.88z"/><g fill-rule="evenodd"><path fill="url(#g)" d="M406.171 516.798v2l2.4 1 2.4-1v-2l-2.4 1z"/><path fill="url(#h)" d="M406.171 514.798v-2l2.4-1 2.4 1v2l-2.4-1z"/></g><rect width="4" height="8" x="406.571" y="501.997" fill="url(#i)" rx=".5"/><path fill="url(#j)" fill-rule="evenodd" d="m422.767 505.7-.195.098c.84 1.681 1.315 5.123 1.598 8.555l.004-.555.332-.402c-.021-2.636-.241-4.042-.723-6.168l-.262-.855-.707-.395zm1.645 12.777.16 5.32.516-2.312z"/><path fill="#2c2e2e" d="M406.571 537.798a.5.5 0 1 0 0 1 .5.5 0 1 0 0-1m3.5 0-1 1 1.5 1.5-.5.5-.5.5-.5.5 1 1 .5-.5.5-.5.5-.5 1-1zm-4.75 3a.75.75 0 1 0 0 1.5.75.75 0 1 0 0-1.5m2.25 3a1 1 0 1 0 0 2 1 1 0 1 0 0-2"/></g></svg>