<svg xmlns="http://www.w3.org/2000/svg" width="96" height="96"><defs><linearGradient id="b" href="#a" stop-color="#fff"><stop offset="0"/><stop offset="1" stop-opacity="0"/></linearGradient><linearGradient id="c" href="#a"><stop offset="0" stop-color="#aaa"/><stop offset="1" stop-color="#f0f0f0"/></linearGradient><linearGradient id="d" x1="32.251" x2="32.251" y1="90.868" y2="6.761" href="#a"><stop offset="0"/><stop offset="1" stop-opacity=".588"/></linearGradient><linearGradient id="e" x1="36.357" x2="36.357" y1="6" y2="63.893" href="#b"/><linearGradient id="m" x1="24" x2="24" y1="54" y2="74" href="#a" stop-color="#fff"><stop offset="0"/><stop offset="1" stop-opacity="0"/></linearGradient><linearGradient id="l" x1="40" x2="40" y1="42" y2="73" href="#a" stop-color="#fff"><stop offset="0"/><stop offset="1" stop-opacity="0"/></linearGradient><linearGradient id="k" x1="56" x2="56" y1="30" y2="73" href="#b"/><linearGradient id="j" x1="72" x2="72" y1="18" y2="72.009" href="#b"/><linearGradient id="i" x1="22.5" x2="22.5" y1="78" y2="52.737" href="#c"/><linearGradient id="h" x1="44.5" x2="44.5" y1="78" y2="41.684" href="#c"/><linearGradient id="g" x1="54.611" x2="54.611" y1="78" y2="30.631" href="#c"/><linearGradient id="f" x1="70.5" x2="70.5" y1="78" y2="18" href="#c"/><linearGradient id="a" gradientUnits="userSpaceOnUse"/></defs><path fill="url(#d)" d="M6 84v1c0 3.324 2.676 6 6 6h72c3.324 0 6-2.676 6-6v-1c0 3.324-2.676 6-6 6H12c-3.324 0-6-2.676-6-6" opacity=".45"/><rect width="84" height="84" x="6" y="6" opacity=".6" rx="6"/><path fill="url(#e)" d="M12 6c-3.324 0-6 2.676-6 6v72c0 .335.041.651.094.969l.188.875.031.094c.099.288.235.547.375.813.145.274.316.536.5.781s.374.473.594.688c.44.428.943.815 1.5 1.094.279.14.573.247.875.344a5 5 0 0 1-.719-.375c-.007-.004-.024.004-.031 0l-.094-.062c-.12-.077-.231-.164-.344-.25l-.313-.25a5 5 0 0 1-.5-.531l-.312-.407c-.025-.038-.038-.086-.063-.125l-.187-.312a5 5 0 0 1-.281-.625c-.008-.022-.024-.041-.031-.063-.032-.092-.036-.187-.062-.281l-.094-.313A5 5 0 0 1 7 85V13c0-2.782 2.218-5 5-5h72c2.782 0 5 2.218 5 5v72a5 5 0 0 1-.125 1.063l-.156.594c-.008.022-.023.041-.031.063l-.219.531-.125.25c-.055.097-.127.188-.187.281a5 5 0 0 1-.312.406 5 5 0 0 1-.469.5l-.031.031a5 5 0 0 1-.437.344l-.312.219c-.007.004-.024-.004-.031 0a5 5 0 0 1-.719.375c.302-.097.596-.204.875-.344a6.1 6.1 0 0 0 2.094-1.781c.185-.245.355-.508.5-.781a6 6 0 0 0 .375-.812l.031-.094c.09-.278.139-.579.188-.875.053-.318.094-.634.094-.969V12c0-3.324-2.676-6-6-6z" opacity=".01"/><rect width="12" height="60" x="66" y="18" fill="url(#f)" rx="3"/><rect width="12" height="48" x="50" y="30" fill="url(#g)" rx="3"/><rect width="12" height="36" x="34" y="42" fill="url(#h)" rx="3"/><rect width="12" height="24" x="18" y="54" fill="url(#i)" rx="3"/><path fill="url(#j)" d="M69 18c-1.662 0-3 1.338-3 3v54c0 1.662 1.338 3 3 3h6c1.662 0 3-1.338 3-3V21c0-1.662-1.338-3-3-3zm0 1.063h6A1.92 1.92 0 0 1 76.938 21v54A1.92 1.92 0 0 1 75 76.938h-6A1.92 1.92 0 0 1 67.063 75V21A1.92 1.92 0 0 1 69 19.063" opacity=".6"/><path fill="url(#k)" d="M53 30c-1.662 0-3 1.329-3 2.969v42.062C50 76.671 51.338 78 53 78h6.125c1.662 0 3-1.329 3-2.969V32.969c0-1.64-1.338-2.969-3-2.969zm0 1h6.125c1.132 0 2 .869 2 1.969v42.062c0 1.1-.868 1.969-2 1.969H53c-1.132 0-2-.869-2-1.969V32.969c0-1.1.868-1.969 2-1.969" opacity=".6"/><path fill="url(#l)" d="M37 42c-1.662 0-3 1.355-3 3.031v29.938C34 76.645 35.338 78 37 78h6c1.662 0 3-1.355 3-3.031V45.031C46 43.355 44.662 42 43 42zm0 1h6c1.122 0 2 .884 2 2.031v29.938C45 76.116 44.122 77 43 77h-6c-1.122 0-2-.884-2-2.031V45.031c0-1.147.878-2.031 2-2.031" opacity=".6"/><path fill="url(#m)" d="M21 54c-1.662 0-3 1.407-3 3.156v17.688C18 76.593 19.338 78 21 78h6c1.662 0 3-1.407 3-3.156V57.156C30 55.407 28.662 54 27 54zm0 1.063h6c1.054 0 1.938.893 1.938 2.094v17.688c0 1.2-.883 2.094-1.937 2.094h-6c-1.054 0-1.937-.893-1.937-2.094V57.156c0-1.2.883-2.094 1.938-2.094z" opacity=".6"/></svg>