<svg xmlns="http://www.w3.org/2000/svg" width="48" height="48"><defs><linearGradient id="a" x1="48" x2="48" y1="44" y2="4" gradientUnits="userSpaceOnUse"><stop offset="0" stop-color="#2f74c8"/><stop offset="1" stop-color="#4699d7"/></linearGradient><linearGradient id="b" x1="25.863" x2="45.444" y1="13.66" y2="35.021" gradientUnits="userSpaceOnUse"><stop offset="0" stop-opacity=".286"/><stop offset="1" stop-opacity="0"/></linearGradient><linearGradient id="c" x1="23.621" x2="23.621" y1="9.121" y2="41.783" gradientUnits="userSpaceOnUse"><stop offset="0" stop-color="#f9f9f9"/><stop offset="1" stop-color="#f9f9f9" stop-opacity="0"/></linearGradient></defs><g fill-rule="evenodd"><path fill="url(#a)" d="M44 4v30H24L13 44V34H4V4z"/><path fill="url(#b)" d="m26.347 34.767-11.164-9.536 2.116-4.655.767-5.967 2.483-3.775 3.144-1.57 4.828 2.333 12.832 11.818.55 12.033c-18.731 2.739-1.318 10.271-15.557-.681z" opacity=".2"/><path fill="url(#c)" d="m28.63 15.404-.05 4.956 1.834 3.697-13.731.14 1.91-3.735.051-4.957c.028-2.737 2.286-4.979 5.043-5.006s4.971 2.167 4.943 4.905m-5.113 11.821a1.82 1.82 0 0 1-1.854-1.839l3.745-.038a1.91 1.91 0 0 1-1.891 1.878zM23.7 9.259c-3.447.036-6.27 2.837-6.304 6.259l-.05 4.956-2.547 4.982 5.617-.057c-.018 1.711 1.365 3.083 3.088 3.065s3.135-1.418 3.153-3.129l5.617-.057-2.445-4.931.05-4.956c.035-3.421-2.731-6.166-6.178-6.132z"/></g></svg>