<svg xmlns="http://www.w3.org/2000/svg" viewBox="0 0 48 48"><defs><linearGradient id="a" x1="0" x2="0" y1="47" y2="1" gradientUnits="userSpaceOnUse"><stop offset="0" stop-color="#dd6bd2"/><stop offset="1" stop-color="#7ca8e1"/></linearGradient></defs><path d="M35.29 6.683c5.353 3.711 8.852 9.896 8.852 16.903a20.56 20.56 0 0 1-20.558 20.558c-7.007 0-13.192-3.498-16.903-8.852a21.2 21.2 0 0 0 3.455 4.54 20.94 20.94 0 0 0 14.134 5.454c11.606 0 21.014-9.409 21.014-21.014a20.94 20.94 0 0 0-5.454-14.134 21.2 21.2 0 0 0-4.54-3.455m4.54 3.455A20.94 20.94 0 0 1 45.512 24.5c0 11.606-9.408 21.014-21.014 21.014a20.93 20.93 0 0 1-14.362-5.682c3.801 3.786 9.03 6.139 14.819 6.139 11.606 0 21.014-9.409 21.014-21.014 0-5.788-2.353-11.019-6.139-14.819" opacity=".05"/><path d="M39.831 10.138a20.94 20.94 0 0 1 5.454 14.134c0 11.606-9.408 21.014-21.014 21.014a20.94 20.94 0 0 1-14.134-5.454 20.94 20.94 0 0 0 14.362 5.682c11.606 0 21.014-9.409 21.014-21.014a20.93 20.93 0 0 0-5.682-14.362" opacity=".1"/><path d="M30.667 4.285c7.871 2.882 13.477 10.431 13.477 19.306a20.56 20.56 0 0 1-20.558 20.558c-8.87 0-16.42-5.605-19.297-13.477 3.188 9.815 13.03 15.863 23.226 14.272S45.244 34.595 45.29 24.276A21.01 21.01 0 0 0 30.671 4.289z" opacity=".2"/><path fill="url(#a)" d="M24 1C11.297 1 1 11.297 1 24c0 2.779.503 5.44 1.406 7.906l43.566-1.094a23 23 0 0 0 1.031-6.813c0-12.703-10.297-23-23-23z" transform="matrix(.91367 0 0 .91367 2.115 2.115)"/><path fill-opacity=".902" d="M38.291 18.048c.244.286.471.594.685.914.007.011.021.017.028.028l.058.086c.211.324.392.672.571 1.028l.485 1.085.058.172.172.514c.037.121.052.248.086.371l.2.743.028.143.058.343.114.914c.004.039.025.075.028.114l.028.571.028.885c-.001.141-.024.285-.028.429l-.058 1.085-.228 1.571c.072.016.736.253 1 .343.795-4.98-.695-9.006-3.312-11.335z" opacity=".1"/><path fill="#f5f5f5" d="M31.01 14.934c-1.72.114-3.526.732-5.282 1.913-2.477-1.181-11.208-2.228-11.987 7.738-1.773-.332-6.371 1.413-6.652 5.768l-2.768.914c2.946 8.047 10.663 13.787 19.73 13.787 9.44 0 17.424-6.222 20.072-14.791l-3.512-1.228c1.659-8.616-3.447-14.516-9.594-14.105z"/><path d="M38.689 8.996a20.94 20.94 0 0 1 5.454 14.134c0 11.606-9.408 21.014-21.014 21.014A20.94 20.94 0 0 1 8.995 38.69c3.817 3.921 9.146 6.367 15.047 6.367 11.606 0 21.014-9.409 21.014-21.014 0-5.904-2.446-11.23-6.367-15.047" opacity=".1"/></svg>