<svg xmlns="http://www.w3.org/2000/svg" width="32" height="32"><defs><linearGradient id="b" x1="-343.347" x2="-343.347" y1="557.796" y2="505.796" href="#a"><stop stop-color="#34495e"/><stop offset="1" stop-color="#1c7865"/></linearGradient><linearGradient id="a" gradientUnits="userSpaceOnUse"/><linearGradient id="c" x1="32.436" x2="32" y1="58" y2="30" href="#a"><stop stop-color="#16a085"/><stop offset="1" stop-color="#2ecc71"/></linearGradient><linearGradient id="d" x1="10" x2="54" href="#a"><stop stop-color="#c9ce3b"/><stop offset="1" stop-color="#c9ce3b" stop-opacity="0"/></linearGradient><linearGradient id="e" x1="19" x2="47" y1="18" y2="46" href="#a"><stop stop-color="#292c2f"/><stop offset="1" stop-opacity="0"/></linearGradient><linearGradient id="f" x1="-399.571" x2="-399.571" y1="545.798" y2="517.798" href="#a"><stop stop-color="#bcfd93"/><stop offset="1" stop-color="#fafff5"/></linearGradient></defs><g transform="matrix(.54086 0 0 .54086 -200.652 -271.628)"><rect width="52" height="52" x="374.571" y="505.798" fill="url(#b)" rx="26"/><g fill-rule="evenodd"><path fill="url(#c)" d="M20.438 37.586c-2.946-.015-7.834.402-11.059 7.264 4.241 7.476 12.077 12.622 21.193 13.111A29 29 0 0 0 32 58a26 26 0 0 0 1.641-.057l.373-.027a25 25 0 0 0 1.271-.127l.404-.053a26 26 0 0 0 3.09-.627l.348-.098a26 26 0 0 0 1.246-.387l.277-.094c.497-.175.99-.359 1.473-.562a25 25 0 0 0 1.414-.65l.295-.15q.586-.3 1.154-.627l.213-.121a26 26 0 0 0 2.646-1.783l.1-.078q.597-.464 1.166-.961l.084-.072a26 26 0 0 0 2.297-2.293l.02-.02q.016-.02.031-.039a26 26 0 0 0 1-1.211l.025-.029.016-.02c.67-.867 1.286-1.78 1.844-2.73-15.531 6.283-22.242-5.759-32.703-7.582-.365.002-.799-.013-1.287-.016" transform="translate(368.571 499.798)"/><path fill="url(#d)" d="M20.438 37.586c-2.946-.015-7.834.402-11.059 7.264.088.156.188.303.279.457 3.222-6.323 7.916-6.736 10.779-6.721l1.287.016c10.272 1.79 16.936 13.424 31.885 7.885a26 26 0 0 0 .818-1.303c-15.531 6.283-22.242-5.759-32.703-7.582-.365.002-.799-.013-1.287-.016z" transform="translate(368.571 499.798)"/><path fill="url(#e)" d="M33 18v12h.227v1.648L25 34l6 6v6l10.295 10.295a25.96 25.96 0 0 0 15-15z" opacity=".2" transform="translate(368.571 499.798)"/><path fill="url(#f)" d="m401.571 517.798-8 16h6v12l8-16h-6z"/></g><path fill="#128269" d="m374.583 531.298-.012.5c0 14.404 11.596 26 26 26s26-11.596 26-26c0-.168-.009-.333-.012-.5a25.94 25.94 0 0 1-25.988 25.5 25.94 25.94 0 0 1-25.988-25.5"/></g></svg>