<svg xmlns="http://www.w3.org/2000/svg" width="32" height="32"><defs><linearGradient id="a" x1="388.735" x2="428.408" y1="503.991" y2="543.932" gradientUnits="userSpaceOnUse"><stop offset="0" stop-color="#3f3f3f"/><stop offset=".11" stop-color="#de7d9c"/><stop offset=".449" stop-color="#cc3d8a"/><stop offset=".934" stop-color="#5f2b76"/><stop offset="1" stop-color="#3f3f3f" stop-opacity="0"/></linearGradient></defs><g transform="matrix(.70318 0 0 .70318 -271.298 -352.324)"><rect width="40" height="40" x="388.57" y="503.8" fill="url(#a)" opacity=".9" rx="20"/><path d="m388.583 523.298-.012.5a19.96 19.96 0 1 0 40 0l-.012-.5c-.264 10.847-9.076 19.5-19.988 19.5s-19.724-8.653-19.988-19.5" opacity=".15"/><path fill="#fff" d="M408.353 510.185c-2.69-.012-4.996.487-7.094 1.537-.698.35-.807.472-.762.85.092.77.49.845 1.668.316 2.19-.983 3.255-1.192 6.018-1.195 3.17-.003 4.338.269 6.938 1.615.447.231 1.861 1.323 2.389.736.523-.523.247-.955-1.1-1.721-2.655-1.509-4.974-2.124-8.057-2.139zm-.082 3.113c-3.549-.003-7.096 1.4-9.697 4.209-1.006 1.087-2.18 2.868-2.18 3.309 0 .514.212.797.596.797.301 0 .607-.325 1.336-1.42 1.63-2.449 3.743-4.074 6.465-4.973 2.111-.689 4.583-.609 6.959 0 3.067 1.008 5.699 3.254 7.141 6.096.314.618.501.807.809.807.529 0 .84-.394.695-.883-.233-.789-1.477-2.7-2.418-3.717-2.605-2.813-6.156-4.222-9.705-4.225zm.168 3.092a10.3 10.3 0 0 0-2.291.219c-3.645.762-6.691 3.714-7.666 7.428-.517 1.971-.28 5.191.574 7.766.255.77.378.93.744.973.841.098.923-.303.42-2.043-1.44-4.98-.2-9.217 3.371-11.527 3.531-2.284 8.387-1.608 11.15 1.551 1.732 1.98 2.681 5.328 1.926 6.789-.499.965-1.715 1.545-2.713 1.295-.73-.183-1.594-1.08-1.705-1.768-.391-2.427-.942-3.377-2.338-4.027-1.191-.554-2.183-.539-3.352.053-1.089.551-1.923 1.664-2.092 2.791-.061.406-.034 1.284.061 1.951.589 4.153 3.56 7.439 7.641 8.449a8.2 8.2 0 0 0 1.865.199l.934-.031c.527-.268.556-.884 0-1.187l-1.32-.201c-1.662-.253-2.35-.472-3.492-1.115-2.484-1.398-4.264-4.43-4.264-7.262 0-1.248.473-1.977 1.574-2.434.796-.33.807-.33 1.604 0 1.007.418 1.492 1.116 1.617 2.326.229 2.22 1.77 3.682 3.883 3.682 1.696 0 3.123-1.1 3.629-2.797.495-1.66-.17-4.449-1.566-6.57a9.98 9.98 0 0 0-8.193-4.508zm-.109 3.217c-1.056.013-2.141.208-3.031.555-1.372.672-2.679 2.014-3.355 3.441-.515 1.086-.545 1.255-.545 3.1 0 2.269.275 3.474 1.252 5.512.842 1.756 2.008 3.287 3.305 4.336 1.124.909 1.243.953 1.711.611.479-.35.212-.952-.756-1.693-1.049-.804-2.182-2.259-2.947-3.785-1.256-2.506-1.573-5.604-.754-7.377.594-1.287 1.501-2.247 2.656-2.814 1.388-.682 3.416-.682 4.805 0 1.657.814 2.717 2.296 3.092 4.328.224 1.213.563 1.617 1.08 1.283.24-.154.292-.412.27-1.336-.054-2.246-1.628-4.502-3.928-5.631-.772-.376-1.798-.543-2.854-.529zm4.687 13.648c-2.899-.632-5.133-3.186-5.384-6.154-.079-.938-.052-1.062.273-1.236.619-.331.976.016 1.1 1.069.311 2.647 2.257 4.644 4.874 5.002 1.281.175 1.692.667 1.075 1.284-.309.309-.653.315-1.939.035z"/></g></svg>