<svg xmlns="http://www.w3.org/2000/svg" width="64" height="64"><defs><linearGradient id="b" x1="42.798" x2="12" y1="5.341" y2="31.355" gradientUnits="userSpaceOnUse"><stop stop-color="#1abc9c"/><stop offset="1" stop-color="#2980b9"/></linearGradient><linearGradient id="c" x1="29.851" x2="54.317" y1="22.348" y2="28.506" gradientUnits="userSpaceOnUse"><stop stop-color="#cc4a5e"/><stop offset="1" stop-color="#aa478a"/></linearGradient><linearGradient id="d" x1="24.394" x2="20.645" y1="41.224" y2="25.343" href="#a"/><linearGradient id="a" gradientUnits="userSpaceOnUse"><stop stop-color="#334545"/><stop offset="1" stop-color="#536161"/></linearGradient><linearGradient id="e" x1="407.571" x2="399.571" y1="528.798" y2="522.798" href="#a"/><linearGradient id="f" x1="56.031" x2="40.648" y1="50.729" y2="22.643" href="#a"/><linearGradient id="g" x1="60.891" x2="53.401" y1="35.1" y2="24.112" href="#a"/><linearGradient id="h" x1="33.32" x2="24.778" y1="40.972" y2="26.899" href="#a"/><linearGradient id="i" x1="430.567" x2="423.75" y1="577.362" y2="591.328" gradientTransform="matrix(-.91667 0 0 .91667 428.69 -492.481)" href="#a"/></defs><path fill="url(#b)" d="M12 6v30h44V6z" transform="matrix(1.31818 0 0 1.73333 -12.818 -4.4)"/><path fill="url(#c)" d="M56 6 25.719 23.482 47.4 36H56z" transform="matrix(1.31818 0 0 1.73333 -12.818 -4.4)"/><path fill="url(#d)" d="M25.75 23.416 12 31.355V36h35.605z" transform="matrix(1.31818 0 0 1.73333 -12.818 -4.4)"/><path fill="url(#e)" d="m407.83 527.566-8.259-4.768v9.536z" transform="matrix(1.20833 0 0 1.58889 -461.69 -794.479)"/><path fill="url(#f)" d="M40.891 32.156V36h6.656z" transform="matrix(1.31818 0 0 1.73333 -12.818 -4.4)"/><path fill="url(#g)" d="M53.32 27.787V36h.916l6.654-3.842z" transform="matrix(1.31818 0 0 1.73333 -39.181 -4.4)"/><path fill="url(#h)" d="M25.75 32.158V36h6.654z" transform="matrix(1.31818 0 0 1.73333 -12.818 -4.4)"/><path fill="url(#i)" d="M40.891 32.156 34.234 36h6.656z" transform="matrix(1.31818 0 0 1.73333 -12.818 -4.4)"/><path fill="#aa478a" d="M21.084 36.303 61 6v14.804z"/><path fill="#fff" fill-opacity=".784" d="M3 54v4h58v-4z"/><path d="M52.577 54.94a2.4 2.4 0 0 1-.351.196l.048.188c.092-.029.177-.079.28-.145v1.691h.23v-1.929h-.206zm.624.129.077.193a.6.6 0 0 1 .431-.159c.219 0 .341.122.341.336v.013c-.003.151-.1.299-.251.465l-.666.74.029.211h1.128l.016-.198h-.896l.544-.581c.211-.227.341-.412.343-.655v-.008c0-.317-.222-.526-.573-.526-.251 0-.415.069-.523.169M54.643 56.9h.267v-.301h-.267zm0-1.184h.267v-.299h-.267zM56.152 56.337c0 .235-.172.365-.425.365a.66.66 0 0 1-.428-.14l-.074.188c.071.069.254.148.505.148.375 0 .65-.214.65-.557 0-.272-.151-.446-.386-.499.209-.063.338-.214.338-.462 0-.309-.267-.478-.552-.478-.267 0-.439.058-.555.148l.074.188a.7.7 0 0 1 .431-.137c.227 0 .354.095.354.309 0 .304-.28.338-.576.338v.19c.359 0 .645.055.645.402zM57.521 55.23v.972h-.645zm.436 1.16.018-.188h-.238v-1.263h-.24l-.848 1.252v.198h.872v.478h.217v-.478zM6.5 54.9a.167.167 0 1 0 0 .333.167.167 0 0 0 0-.333m.833 0-.323.26.432.536-.406.406.297.297.667-.667zm-1.083.667a.25.25 0 1 0 0 .5.25.25 0 1 0 0-.5m.5.833a.25.25 0 1 0 0 .5.25.25 0 1 0 0-.5"/></svg>