<svg xmlns="http://www.w3.org/2000/svg" width="48" height="48"><style>.B{filter:url(#L)}</style><defs><linearGradient id="A" x2="0" y1="44" y2="4" href="#M"><stop stop-color="#18222a"/><stop offset="1" stop-color="#566069"/></linearGradient><linearGradient id="B" x1="274.522" x2="274.522" y1="540.798" y2="536.798" href="#E"/><linearGradient id="C" x1="304.522" x2="304.522" y1="540.798" y2="536.798" href="#E"/><linearGradient id="D" href="#M"><stop stop-color="#2f3943"/><stop offset="1" stop-color="#808c9b"/></linearGradient><linearGradient id="E" href="#M"><stop stop-color="#2f3943"/><stop offset="1" stop-color="#4d5662"/></linearGradient><linearGradient id="F" href="#M"><stop stop-color="#197cf1"/><stop offset="1" stop-color="#21c9fb"/></linearGradient><linearGradient id="G" x2="0" y1="537.798" y2="538.798" href="#F"/><linearGradient id="H" x1="0" x2="0" y1="-538.798" y2="-539.798" href="#F"/><linearGradient id="I" x2="0" y1="543.798" y2="503.798" href="#D"/><linearGradient id="J" x2="0" y1="499.798" y2="547.798" href="#D"/><linearGradient id="K" x1="13" x2="38" y1="13" y2="39" href="#M"><stop stop-color="#292c2f"/><stop offset="1" stop-opacity="0"/></linearGradient><linearGradient id="M" gradientUnits="userSpaceOnUse"/><filter id="L" width="1" height="1" x="0" y="0" color-interpolation-filters="sRGB"><feColorMatrix values="1.424 0 0 0.114655 -0.212 0 1.424 0 0.114655 -0.212 0 0 1.424 0.114655 -0.212 0 0 0 1 0"/></filter></defs><g transform="translate(-384.571 -499.798)"><path fill="url(#A)" d="M6 4v40h36V4z" class="B" transform="translate(384.571 499.798)"/><path fill="url(#K)" d="m34.605 13.395-21.21 21.21L22.787 44H42V20.787l-7.395-7.393z" class="B" opacity=".2" transform="translate(384.571 499.798)"/><rect width="30" height="30" x="393.571" y="508.798" fill="#26333a" class="B" rx="15"/><rect width="28" height="28" x="394.571" y="509.798" fill="url(#I)" class="B" rx="14"/><rect width="22" height="22" x="397.571" y="512.798" fill="url(#J)" class="B" rx="11"/><rect width="10" height="10" x="403.571" y="518.798" fill="#26333a" class="B" rx="5"/><path fill="#13191f" d="M390.571 542.798h36v1h-36z" class="B"/><rect width="4" height="4" x="391.571" y="536.798" fill="url(#B)" class="B" rx="2"/><circle cx="394.671" cy="538.298" r=".5" fill="url(#G)" class="B"/><rect width="4" height="4" x="421.571" y="536.798" fill="url(#C)" class="B" rx="2"/><circle cx="424.671" cy="-539.298" r=".5" fill="url(#H)" class="B" transform="scale(1 -1)"/></g></svg>