<svg xmlns="http://www.w3.org/2000/svg" width="32" height="32"><defs><linearGradient id="a" x1="15.809" x2="15.809" y1="29.021" y2="1.897" gradientUnits="userSpaceOnUse"><stop offset="0" stop-color="#5d9b33"/><stop offset="1" stop-color="#7dc648"/></linearGradient></defs><g transform="translate(.304 .304)"><circle cx="15.696" cy="15.696" r="14.004" fill="url(#a)"/><path d="M25.456 5.668a13.96 13.96 0 0 1 3.634 9.419c0 7.734-6.269 14.004-14.004 14.004a13.96 13.96 0 0 1-9.419-3.634A13.96 13.96 0 0 0 15.694 29.7c7.734 0 14.004-6.27 14.004-14.004a13.95 13.95 0 0 0-4.243-10.027z" opacity=".1"/><path d="M16.305 7.171a9 9 0 0 0-1.218.093v9.04h2.435V7.263a8.5 8.5 0 0 0-1.218-.091zm2.435.332v2.57a6.69 6.69 0 0 1 4.262 6.231 6.7 6.7 0 0 1-6.698 6.698 6.7 6.7 0 0 1-6.698-6.698 6.7 6.7 0 0 1 4.262-6.238V7.512a9.13 9.13 0 0 0-6.698 8.793 9.133 9.133 0 0 0 9.133 9.133 9.133 9.133 0 0 0 9.133-9.133 9.13 9.13 0 0 0-6.698-8.801z" opacity=".1"/><path fill="#f9f9f9" d="M15.696 6.563a9 9 0 0 0-1.218.093v9.04h2.435V6.654a9 9 0 0 0-1.218-.091zm2.435.332v2.57a6.69 6.69 0 0 1 4.262 6.231 6.7 6.7 0 0 1-6.698 6.698 6.7 6.7 0 0 1-6.698-6.698 6.7 6.7 0 0 1 4.262-6.238V6.902a9.13 9.13 0 0 0-6.698 8.793 9.133 9.133 0 0 0 9.133 9.133 9.133 9.133 0 0 0 9.133-9.133 9.13 9.13 0 0 0-6.698-8.801z"/></g></svg>