<svg xmlns="http://www.w3.org/2000/svg" viewBox="0 0 32 32"><defs><linearGradient id="a" x1="-256.38" x2="-256.38" y1="28.131" y2="2" gradientUnits="userSpaceOnUse"><stop offset="0" stop-color="#c6cdd1"/><stop offset="1" stop-color="#e0e5e7"/></linearGradient><linearGradient id="c" x1="-167.274" x2="-167.274" y1="13.799" y2="-3.001" gradientUnits="userSpaceOnUse"><stop stop-color="#c6cdd1"/><stop offset="1" stop-color="#e0e5e7"/></linearGradient><linearGradient id="b" x1="20" x2="40" y1="-1" y2="19" gradientUnits="userSpaceOnUse"><stop/><stop offset="1" stop-opacity="0"/></linearGradient></defs><g transform="translate(-384.57 -515.8)"><g fill="url(#a)" transform="translate(384.57 515.8)"><path d="m32 9-1-1L1.123 27l2.432 3H28.8a3.19 3.19 0 0 0 3.2-3.2z"/><path d="M3.2 2A3.19 3.19 0 0 0 0 5.2v21.6A3.19 3.19 0 0 0 3.2 30h.355l-2.432-3L31 8l1 1V5.2A3.19 3.19 0 0 0 28.8 2z"/></g><path fill="#566069" d="M387.07 517.8a2.49 2.49 0 0 0-2.5 2.5v1.5h32v-1.5a2.49 2.49 0 0 0-2.5-2.5z"/><path fill="#3daee9" d="M384.57 521.8h32v1h-32z"/><rect width="30" height="20" x="385.57" y="523.8" fill="#fff" ry="2"/><rect width="2" height="2" x="413.57" y="518.8" fill="#eff0f1" rx="1"/></g><g transform="translate(-9.62 11.258)"><path fill="url(#b)" fill-rule="evenodd" d="M35.399-1 37 15l-16.572-.571 4.755 4.404L41 19h1V5.261L36.437-.554z" opacity=".2"/><path fill="url(#c)" d="M20 2h17v11.267A1.733 1.733 135 0 1 35.267 15H21.725A1.725 1.725 45 0 1 20 13.276z"/><path fill="#566069" d="M21.731-1h13.535A1.734 1.734 45 0 1 37 .734V3H20V.731A1.73 1.73 135 0 1 21.731-1"/><path fill="#3daee9" d="M20 3h17v1H20z"/><path fill="#fff" d="M21 5h15v6.563A1.437 1.437 135 0 1 34.563 13H22.386A1.386 1.386 45 0 1 21 11.614z"/><rect width="2" height="2" x="34" fill="#eff0f1" rx="1"/></g></svg>