<svg xmlns="http://www.w3.org/2000/svg" xmlns:xlink="http://www.w3.org/1999/xlink" width="64" height="64"><defs><linearGradient id="b"><stop style="stop-color:#c6cdd1"/><stop offset="1" style="stop-color:#e0e5e7"/></linearGradient><linearGradient id="a"><stop style="stop-color:#2e5d89"/><stop offset="1" style="stop-color:#1b92f4"/></linearGradient><linearGradient id="e"><stop style="stop-color:#147de1"/><stop offset=".7" style="stop-color:#88bff4"/><stop offset="1" style="stop-color:#3995ed"/></linearGradient><linearGradient id="d"><stop style="stop-color:#23262c"/><stop offset=".7" style="stop-color:#4e5462"/><stop offset="1" style="stop-color:#23262c"/></linearGradient><linearGradient id="c"><stop style="stop-color:#74868f"/><stop offset=".7" style="stop-color:#d3d9dc"/><stop offset="1" style="stop-color:#d6dddf"/></linearGradient><linearGradient id="g"><stop style="stop-color:#f2f2f2"/><stop offset="1" style="stop-color:#f9f9f9"/></linearGradient><linearGradient xlink:href="#b" id="l" x1="409.495" x2="409.571" y1="541.986" y2="502.655" gradientTransform="matrix(1.08333 0 0 1.1059 -34.048 -55.586)" gradientUnits="userSpaceOnUse"/><linearGradient xlink:href="#c" id="p" x1="407.348" x2="408.571" gradientTransform="translate(-246.399 -346.46)scale(1.63489)" gradientUnits="userSpaceOnUse"/><linearGradient xlink:href="#d" id="o" x1="407.348" x2="408.571" gradientTransform="translate(-246.399 -346.46)scale(1.63489)" gradientUnits="userSpaceOnUse"/><linearGradient xlink:href="#e" id="q" x1="407.348" x2="408.571" gradientTransform="translate(-246.399 -346.46)scale(1.63489)" gradientUnits="userSpaceOnUse"/><linearGradient xlink:href="#d" id="r" x1="22.777" x2="24" gradientTransform="translate(382.334 496.814)scale(1.63489)" gradientUnits="userSpaceOnUse"/><linearGradient xlink:href="#f" id="n" x1="400.571" x2="414.571" y1="525.798" y2="539.798" gradientTransform="translate(-242.357 -341.12)scale(1.625)" gradientUnits="userSpaceOnUse"/><linearGradient id="f"><stop style="stop-color:#292c2f"/><stop offset="1" style="stop-opacity:0"/></linearGradient><linearGradient xlink:href="#g" id="m" x1="386.571" x2="429.571" gradientUnits="userSpaceOnUse"/></defs><path d="M382.571 506.798h52v37.004h-52z" style="fill:url(#l)" transform="translate(-376.571 -491.798)"/><path d="M386.571 511.798h44v27h-44z" style="fill:url(#m);fill-rule:evenodd;stroke-linejoin:bevel;stroke-width:.2" transform="translate(-376.571 -491.798)"/><path d="m421.571 513.798-1 23 8 8h6v-18z" style="fill:url(#n);opacity:.2;fill-rule:evenodd" transform="translate(-376.571 -491.798)"/><path d="M382.571 500.793h52v7.005h-52z" style="fill:#23262c" transform="translate(-376.571 -491.798)"/><path d="M419.571 513.798h2v12h-2z" style="fill:url(#o)" transform="translate(-376.571 -491.798)"/><path d="M419.571 525.798h2v8.619h-2z" style="fill:url(#p)" transform="translate(-376.571 -491.798)"/><path d="M419.571 532.798h2v1.619h-2z" style="fill:url(#q)" transform="translate(-376.571 -491.798)"/><path d="M419.571 534.417v.381l1 2 1-2v-.381z" style="fill:url(#r);fill-rule:evenodd" transform="translate(-376.571 -491.798)"/><path d="M382.571 542.798h52v2h-52z" style="fill:#23262c" transform="translate(-376.571 -491.798)"/><path d="M385.571 503.798h5v1h-5z" style="fill:#ebf4fd;fill-rule:evenodd;stroke-linejoin:bevel;stroke-width:.2" transform="translate(-376.571 -491.798)"/><path d="M426.571 503.798h5v1h-5z" style="fill:#3995ed;fill-rule:evenodd;stroke-linejoin:bevel;stroke-width:.2" transform="translate(-376.571 -491.798)"/><path d="M386.571 510.798h44v2h-44z" style="fill:#cad3d6;fill-rule:evenodd;stroke-linejoin:bevel;stroke-width:.2" transform="translate(-376.571 -491.798)"/></svg>