<svg xmlns="http://www.w3.org/2000/svg" width="32" height="32"><defs><linearGradient id="a" x2="0" y1="545.798" y2="517.798" gradientUnits="userSpaceOnUse"><stop stop-color="#197cf1"/><stop offset="1" stop-color="#20bcfa"/></linearGradient><linearGradient id="c" x2="0" y1="23" y2="9" gradientUnits="userSpaceOnUse"><stop stop-color="#7cbaf8"/><stop offset="1" stop-color="#f4fcff"/></linearGradient><linearGradient id="b" x1="9" x2="23" y1="9" y2="23" gradientUnits="userSpaceOnUse"><stop stop-color="#383e51"/><stop offset="1" stop-color="#655c6f" stop-opacity="0"/></linearGradient></defs><g transform="translate(-384.571 -515.798)"><rect width="28" height="28" x="386.571" y="517.798" fill="url(#a)" rx="14"/><path fill="url(#b)" fill-rule="evenodd" d="M16 9a3.3 3.3 0 0 1 .635.063 3.4 3.4 0 0 1 .596.17L17 9zm0 1a2.49 2.49 0 0 0-2.449 1.994 2.5 2.5 0 0 0-.051.506c0 1.385 1.115 2.5 2.5 2.5a2.48 2.48 0 0 0 1.545-.545L16 16l-1.113 1.113a6 6 0 0 0-.932.25l-.668.287-.199.1a6 6 0 0 0-1.512 1.199 6 6 0 0 0-.658.863l-.262.461-.027.059-.193.426-.057.156-.129.371-.043.168-.094.387-.008.055L9 23l7 7h14V20l-1 1-9-9-.732-.73a3.5 3.5 0 0 1 .233 1.231l-1.545 1.545A2.48 2.48 0 0 0 18.5 12.5c0-1.385-1.115-2.5-2.5-2.5" opacity=".2" transform="translate(384.571 515.798)"/><path fill="url(#c)" d="M16 9c-1.939 0-3.5 1.561-3.5 3.5S14.061 16 16 16s3.5-1.561 3.5-3.5S17.939 9 16 9m0 7c-3.878 0-7 3.122-7 7h10v-1h-8.91A5.98 5.98 0 0 1 16 17c1.146 0 2.199.339 3.105.895l.744-.744A6.97 6.97 0 0 0 16 16m0-6c1.385 0 2.5 1.115 2.5 2.5S17.385 15 16 15s-2.5-1.115-2.5-2.5S14.615 10 16 10m6 6a1 1 0 1 0 0 2 1 1 0 1 0 0-2m-1 3v4h2v-4z" transform="translate(384.571 515.798)"/></g></svg>