<svg xmlns="http://www.w3.org/2000/svg" width="32" height="32"><defs><linearGradient id="a" x2="0" y1="545.798" y2="517.798" gradientUnits="userSpaceOnUse"><stop stop-color="#197cf1"/><stop offset="1" stop-color="#20bcfa"/></linearGradient><linearGradient id="c" x2="0" y1="538.798" y2="524.798" gradientUnits="userSpaceOnUse"><stop stop-color="#7cbaf8"/><stop offset="1" stop-color="#f4fcff"/></linearGradient><linearGradient id="b" x1="9" x2="23" y1="9" y2="23" gradientUnits="userSpaceOnUse"><stop stop-color="#383e51"/><stop offset="1" stop-color="#655c6f" stop-opacity="0"/></linearGradient></defs><g transform="translate(-384.571 -515.798)"><rect width="28" height="28" x="386.571" y="517.798" fill="url(#a)" rx="14"/><path fill="url(#b)" fill-rule="evenodd" d="M17.594 12.984 16 15.027l1.982 1.145c-.804.377-2.205 1.063 1.018 1.828.34.081-.063.679-.15 1H19l2.703 2.703-.39 1.297 3.713 3.713a14 14 0 0 0 2.904-3.393zM16 14l-.082.113c.125.029.245.073.365.113zm-4.379 6.129L11 21l8.535 8.535a13.9 13.9 0 0 0 4.164-1.836l-6.416-6.416A4 4 0 0 1 15 22a3.98 3.98 0 0 1-3.379-1.871" opacity=".2" transform="translate(384.571 515.798)"/><path fill="url(#c)" d="M401.571 524.798c-.831 0-1.5.669-1.5 1.5s.669 1.5 1.5 1.5 1.5-.669 1.5-1.5-.669-1.5-1.5-1.5m-1.166 3.314-1.789 5.98c-.009.021-.011.044-.018.066l-.027.104.006.002c-.001.011-.006.021-.006.033a.5.5 0 0 0 .5.5h4.5l2.309 4 .691-.398-1-4.602-3.699-.699.053-.76 3.646 1.459-3.604-2.881.203-2.115zm-.834.686a4.99 4.99 0 1 0 0 10 4.97 4.97 0 0 0 2.992-1.008l-.719-.719a3.95 3.95 0 0 1-2.273.727 3.99 3.99 0 1 1 0-8z"/></g></svg>