<svg xmlns="http://www.w3.org/2000/svg" viewBox="0 0 32 32"><defs><linearGradient id="a" x1="-256.38" x2="-256.38" y1="28.131" y2="2" gradientUnits="userSpaceOnUse"><stop offset="0" stop-color="#c6cdd1"/><stop offset="1" stop-color="#e0e5e7"/></linearGradient></defs><g transform="translate(-384.57 -515.8)"><g fill="url(#a)" transform="translate(384.57 515.8)"><path d="m32 9-1-1L1.123 27l2.432 3H28.8a3.19 3.19 0 0 0 3.2-3.2z"/><path d="M3.2 2A3.19 3.19 0 0 0 0 5.2v21.6A3.19 3.19 0 0 0 3.2 30h.355l-2.432-3L31 8l1 1V5.2A3.19 3.19 0 0 0 28.8 2z"/></g><path fill="#566069" d="M387.07 517.8a2.49 2.49 0 0 0-2.5 2.5v1.5h32v-1.5a2.49 2.49 0 0 0-2.5-2.5z"/><path fill="#3daee9" d="M384.57 521.8h32v1h-32z"/><rect width="30" height="20" x="385.57" y="523.8" fill="#fff" ry="2"/><rect width="2" height="2" x="413.57" y="518.8" fill="#eff0f1" rx="1"/></g></svg>