<svg xmlns="http://www.w3.org/2000/svg" width="32" height="32"><linearGradient id="b" gradientUnits="userSpaceOnUse"><stop offset="0" stop-color="#292c2f"/><stop offset="1" stop-opacity="0"/></linearGradient><linearGradient id="a" gradientUnits="userSpaceOnUse"><stop offset="0"/><stop offset="1" stop-opacity="0"/></linearGradient><linearGradient id="g" x1="24" x2="31" y1="23" y2="30" href="#a"/><linearGradient id="e" x1="8" x2="15" y1="23" y2="30" href="#a"/><linearGradient id="f" x1="24" x2="32" y1="9" y2="17" href="#a"/><linearGradient id="d" x1="8" x2="16" y1="9" y2="17" href="#a"/><linearGradient id="h" x1="8" x2="12" y1="9" y2="13" href="#b"/><linearGradient id="i" x1="24" x2="28" y1="23" y2="27" href="#b"/><linearGradient id="c" x1="32" x2="32" y1="30" y2="2" gradientUnits="userSpaceOnUse"><stop offset="0" stop-color="#171d25"/><stop offset="1" stop-color="#303236"/></linearGradient><path fill="url(#c)" fill-rule="evenodd" d="M0 2h32v28H0z"/><path fill="url(#d)" d="m1 15 2 2h12l2 2 2-2-2-2V5l-2-2z" opacity=".2"/><path fill="url(#e)" d="m1 29 1 1h16l-1-1V19l-2-2z" opacity=".2"/><path fill="url(#f)" d="m17 15 2 2h12l1 1V4l-1-1z" opacity=".2"/><path fill="url(#g)" d="m17 29 1 1h14V18l-1-1z" opacity=".2"/><g fill-rule="evenodd"><path fill="#397da1" d="M1 3h14v12H1z"/><path fill="#4a4a4f" d="M1 17h14v12H1zM17 3h14v12H17zm0 14h14v12H17z"/></g><path fill="url(#h)" d="m4 12 3 3h8V9l-3-3z" opacity=".2"/><g fill-rule="evenodd"><path fill="#67aace" d="M4 6h8v6H4z"/><path fill="#85c9ec" d="M4 6v6h8V6zm1 1h6v4H5z"/></g><path fill="url(#i)" d="m20 26 3 3h8v-6l-3-3z" opacity=".2"/><path fill="#636367" d="M20 20h8v6h-8z"/><path fill="#9a9b9d" d="M20 20v6h8v-6zm1 1h6v4h-6z"/></svg>