<svg xmlns="http://www.w3.org/2000/svg" xmlns:xlink="http://www.w3.org/1999/xlink" width="32" height="32"><defs><linearGradient id="a"><stop style="stop-color:#c6cdd1"/><stop offset="1" style="stop-color:#e0e5e7"/></linearGradient><linearGradient id="b"><stop style="stop-color:#197cf1"/><stop offset="1" style="stop-color:#20bcfa"/></linearGradient><linearGradient id="c"><stop style="stop-color:#faae2a"/><stop offset="1" style="stop-color:#ffc35a"/></linearGradient><linearGradient xlink:href="#a" id="e" x2="0" y1="551.798" y2="528.798" gradientTransform="matrix(.63587 0 0 1 144.251 -31)" gradientUnits="userSpaceOnUse"/><linearGradient xlink:href="#b" id="g" x2="0" y1="557.798" y2="505.798" gradientTransform="matrix(.78261 0 0 1 83.254 -8)" gradientUnits="userSpaceOnUse"/><linearGradient xlink:href="#c" id="h" x1="398.571" x2="400.571" gradientTransform="matrix(2 0 0 2 -396.571 -537.798)" gradientUnits="userSpaceOnUse"/><linearGradient xlink:href="#c" id="i" x1="398.571" x2="400.571" gradientTransform="matrix(2 0 0 2 -384.571 -537.798)" gradientUnits="userSpaceOnUse"/><linearGradient xlink:href="#d" id="j" x1="11" x2="11" y1="22" y2="9" gradientTransform="matrix(1.40555 0 0 1.27778 385.095 520.679)" gradientUnits="userSpaceOnUse"/><linearGradient id="d" x1="11" x2="11" y1="22" y2="9" gradientUnits="userSpaceOnUse"><stop offset="0" stop-color="#7cbaf8"/><stop offset="1" stop-color="#f4fcff"/></linearGradient></defs><g transform="matrix(.6875 0 0 .57692 -264.892 -286.157)"><rect width="26" height="24" x="395.571" y="497.798" rx="0" style="fill:url(#e)"/><path d="M392.571 520.798v22.256a6.75 6.75 0 0 0 1.971 4.773 6.73 6.73 0 0 0 4.774 1.971h18.511a6.75 6.75 0 0 0 4.774-1.97 6.73 6.73 0 0 0 1.97-4.774v-22.256h-25.255z" style="fill:url(#g)"/><path d="M394.335 547.519c.083.092.12.22.207.308a6.73 6.73 0 0 0 4.774 1.971h18.511a6.75 6.75 0 0 0 4.774-1.97c.087-.088.124-.217.207-.31z" style="fill:#0c69cf"/><path d="M398.571 501.798h8v8h-8zm12.001 0h8v8h-8z" style="fill:#23262c"/><path d="M400.571 501.798h4v8h-4z" style="fill:url(#h)"/><path d="M412.572 501.798h4v8h-4z" style="fill:url(#i)"/></g><path fill="url(#d)" d="M399.15 532.179v7.666h2.812v-7.667zm1.406 8.944c-.779 0-1.405.57-1.405 1.278s.626 1.278 1.405 1.278 1.406-.57 1.406-1.278-.627-1.278-1.406-1.278" style="fill:url(#j);stroke-width:1.34017" transform="translate(-384.571 -515.798)"/></svg>