<svg xmlns="http://www.w3.org/2000/svg" xmlns:xlink="http://www.w3.org/1999/xlink" width="32" height="32"><defs><linearGradient id="a"><stop style="stop-color:#c6cdd1"/><stop offset="1" style="stop-color:#e0e5e7"/></linearGradient><linearGradient id="b"><stop style="stop-color:#197cf1"/><stop offset="1" style="stop-color:#20bcfa"/></linearGradient><linearGradient id="c"><stop style="stop-color:#faae2a"/><stop offset="1" style="stop-color:#ffc35a"/></linearGradient><linearGradient xlink:href="#a" id="h" x2="0" y1="551.798" y2="528.798" gradientTransform="matrix(.63587 0 0 1 144.251 -31)" gradientUnits="userSpaceOnUse"/><linearGradient xlink:href="#b" id="i" x2="0" y1="557.798" y2="505.798" gradientTransform="matrix(.78261 0 0 1 83.254 -8)" gradientUnits="userSpaceOnUse"/><linearGradient xlink:href="#c" id="j" x1="398.571" x2="400.571" gradientTransform="matrix(2 0 0 2 -396.571 -537.798)" gradientUnits="userSpaceOnUse"/><linearGradient xlink:href="#c" id="l" x1="398.571" x2="400.571" gradientTransform="matrix(2 0 0 2 -384.571 -537.798)" gradientUnits="userSpaceOnUse"/><linearGradient xlink:href="#d" id="m" x1="8" x2="17" y1="11" y2="20" gradientUnits="userSpaceOnUse"/><linearGradient id="d" x1="8" x2="17" y1="11" y2="20" gradientUnits="userSpaceOnUse"><stop offset="0" stop-color="#292c2f"/><stop offset="1" stop-opacity="0"/></linearGradient><linearGradient xlink:href="#e" id="n" x1="11" x2="11" y1="17" y2="11" gradientUnits="userSpaceOnUse"/><linearGradient id="e" x1="11" x2="11" y1="17" y2="11" gradientUnits="userSpaceOnUse"><stop offset="0" stop-color="#7cbaf8"/><stop offset="1" stop-color="#f4fcff"/></linearGradient></defs><g transform="matrix(.57545 0 0 .53118 -219.105 -262.422)"><rect width="26" height="24" x="395.571" y="497.798" rx="0" style="fill:url(#h)"/><path d="M392.571 520.798v22.256a6.75 6.75 0 0 0 1.971 4.773 6.73 6.73 0 0 0 4.774 1.971h18.511a6.75 6.75 0 0 0 4.774-1.97 6.73 6.73 0 0 0 1.97-4.774v-22.256h-25.255z" style="fill:url(#i)"/><path d="M394.335 547.519c.083.092.12.22.207.308a6.73 6.73 0 0 0 4.774 1.971h18.511a6.75 6.75 0 0 0 4.774-1.97c.087-.088.124-.217.207-.31z" style="fill:#0c69cf"/><path d="M398.571 501.798h8v8h-8zm12.001 0h8v8h-8z" style="fill:#23262c"/><path d="M400.571 501.798h4v8h-4z" style="fill:url(#j)"/><path d="M412.572 501.798h4v8h-4z" style="fill:url(#l)"/></g><g stroke-width=".5"><path fill="url(#d)" d="m9.854 11.146-.708.708L12 14.707V15l5 5v-4l-3-3-1.293 1zm-.788 2.288-.882.882 1.476 1.477a.75.75 0 0 0 .059.988L12.938 20h2.697z" opacity=".2" style="fill:url(#m)" transform="translate(-.85 -.69)scale(1.53453)"/><path fill="url(#e)" d="M9.5 11.002a.5.5 0 0 0-.5.5.5.5 0 0 0 .5.5.5.5 0 0 0 .5-.5.5.5 0 0 0-.5-.5m2.5 0-.75.75 1.25 1.25-1.25 1.25.75.75 2-2zm-3.375 2.25a.625.625 0 0 0-.625.625.625.625 0 0 0 .625.625.625.625 0 0 0 .625-.625.625.625 0 0 0-.625-.625m1.625 2.25a.75.75 0 0 0-.75.75.75.75 0 0 0 .75.75.75.75 0 0 0 .75-.75.75.75 0 0 0-.75-.75" style="fill:url(#n)" transform="translate(-.85 -.69)scale(1.53453)"/></g></svg>