<svg xmlns="http://www.w3.org/2000/svg" width="64" height="64"><defs><linearGradient id="a" x1="32" x2="31" y1="6" y2="57" gradientUnits="userSpaceOnUse"><stop stop-color="#faae2a"/><stop offset="1" stop-color="#ffc35a"/></linearGradient><linearGradient id="c" x1="9.586" x2="48.125" y1="18.167" y2="58.382" gradientUnits="userSpaceOnUse"><stop offset="0"/><stop offset="1" stop-opacity="0"/></linearGradient><linearGradient id="d" x1="42.783" x2="42.881" y1="42.856" y2="-7.205" gradientUnits="userSpaceOnUse"><stop offset="0" stop-color="#fff"/><stop offset="1" stop-color="#fff" stop-opacity=".939"/></linearGradient><filter id="b" width="1" height="1" x="0" y="0" color-interpolation-filters="sRGB"><feComposite in2="SourceGraphic" k2="1" operator="arithmetic"/><feColorMatrix result="A" type="saturate" values="1"/><feFlood flood-color="#be42ff" flood-opacity="1"/><feBlend in2="A" mode="multiply"/><feBlend mode="screen"/><feColorMatrix type="saturate" values="1"/><feComposite in2="SourceGraphic" k2="1" operator="in"/></filter></defs><path fill="url(#a)" d="M32 6c-6.333 3.354-12.667 4.725-19 6l1.502 25c.42 6.998 9.452 16.561 17.498 20.998C40.046 53.561 49.078 43.989 49.498 37L51 12c-6.333-1.275-12.667-2.646-19-6" filter="url(#b)" transform="matrix(1.17345 0 0 1.17345 -4.878 -6.1)"/><path fill="#e59305" d="M14.382 35v2c0 7 9.516 16.561 17.618 20.998C40.101 53.561 49.618 44 49.618 37v-2c0 7-9.516 16.561-17.618 20.998C23.899 51.561 14.382 42 14.382 35" filter="url(#b)" transform="matrix(1.17345 0 0 1.17345 -4.878 -6.1)"/><path fill="url(#c)" fill-rule="evenodd" d="m36.67 15.367-7.879.002-.072 27.099 24.663 17.117 7.067-24.432z" opacity=".2"/><path fill="url(#d)" fill-opacity=".712" d="M36.668 15.36v3.063h-5.939v9.416h5.05v3.063h-5.05v11.651H28.79V15.36z"/></svg>