<svg xmlns="http://www.w3.org/2000/svg" width="32" height="32"><defs><linearGradient id="a" x1="28.612" x2="28.612" y1="544.798" y2="518.798" gradientUnits="userSpaceOnUse"><stop stop-color="#197cf1"/><stop offset="1" stop-color="#20bcfa"/></linearGradient><linearGradient id="c" x2="0" y1="30" y2="2" gradientUnits="userSpaceOnUse"><stop stop-color="#7cbaf8"/><stop offset="1" stop-color="#f4fcff"/></linearGradient><linearGradient id="b" x1="9" x2="23" y1="9" y2="23" gradientUnits="userSpaceOnUse"><stop stop-color="#292c2f"/><stop offset="1" stop-opacity="0"/></linearGradient></defs><g transform="translate(-384.571 -515.798)"><rect width="26" height="26" x="387.571" y="518.798" fill="url(#a)" rx="13"/><path fill="url(#b)" fill-rule="evenodd" d="m17 9-2 2 2 2-2 10 8 8h8v-8z" opacity=".2" transform="translate(384.571 515.798)"/><path fill="url(#c)" d="M16 2C8.413 2 2.289 7.979 2.025 15.5c-.006.167-.025.331-.025.5a13.97 13.97 0 0 0 14 14 13.97 13.97 0 0 0 14-14c0-.169-.02-.333-.025-.5C29.711 7.979 23.587 2 16 2m0 1c7.202 0 13 5.798 13 13s-5.798 13-13 13S3 23.202 3 16 8.798 3 16 3m-1 6v2h2V9zm0 4v10h2V13z" transform="translate(384.571 515.798)"/></g></svg>