<svg xmlns="http://www.w3.org/2000/svg" xmlns:xlink="http://www.w3.org/1999/xlink" width="32" height="32"><defs><linearGradient id="a"><stop style="stop-color:#1abc9c"/><stop offset="1" style="stop-color:#2980b9"/></linearGradient><linearGradient id="b"><stop style="stop-color:#cc4a5e"/><stop offset="1" style="stop-color:#aa478a"/></linearGradient><linearGradient id="c"><stop style="stop-color:#334545"/><stop offset="1" style="stop-color:#536161"/></linearGradient><linearGradient xlink:href="#a" id="d" x1="418.17" x2="384.571" y1="503.079" y2="531.458" gradientTransform="matrix(.66667 0 0 .85555 128.191 86.772)" gradientUnits="userSpaceOnUse"/><linearGradient xlink:href="#b" id="e" x1="404.045" x2="430.736" y1="521.633" y2="528.35" gradientTransform="matrix(.66667 0 0 .85555 128.191 86.771)" gradientUnits="userSpaceOnUse"/><linearGradient xlink:href="#c" id="h" x1="398.092" x2="394.003" y1="542.224" y2="524.9" gradientTransform="matrix(.66667 0 0 .85555 128.191 86.771)" gradientUnits="userSpaceOnUse"/><linearGradient xlink:href="#c" id="i" x1="431.571" x2="439.571" y1="568.798" y2="562.798" gradientTransform="matrix(-.66667 0 0 .85555 687.618 52.549)" gradientUnits="userSpaceOnUse"/><linearGradient xlink:href="#c" id="j" x1="406.537" x2="423.32" y1="581.87" y2="572.678" gradientTransform="matrix(-.66667 0 0 .85555 687.62 52.549)" gradientUnits="userSpaceOnUse"/><linearGradient xlink:href="#c" id="k" x1="423.054" x2="431.225" y1="572.334" y2="566.766" gradientTransform="matrix(-.66667 0 0 .85555 687.618 52.549)" gradientUnits="userSpaceOnUse"/><linearGradient xlink:href="#c" id="l" x1="431.313" x2="440.632" y1="577.102" y2="571.445" gradientTransform="matrix(-.66667 0 0 .85555 687.62 52.549)" gradientUnits="userSpaceOnUse"/><linearGradient xlink:href="#c" id="m" x1="430.567" x2="423.75" y1="577.362" y2="591.328" gradientTransform="matrix(-.66667 0 0 .85555 687.62 52.549)" gradientUnits="userSpaceOnUse"/></defs><g transform="translate(-384.571 -515.798)"><path d="M389.571 517.798a5 5 0 0 0-3.54 1.461 5 5 0 0 0-1.46 3.54v18a5 5 0 0 0 1.46 3.538 5 5 0 0 0 3.54 1.461h22a5 5 0 0 0 3.54-1.46 5 5 0 0 0 1.46-3.54v-18a5 5 0 0 0-1.46-3.539 5 5 0 0 0-3.54-1.46z" style="fill:url(#d)"/><path d="M410.317 545.798h1.254a5 5 0 0 0 3.54-1.46 5 5 0 0 0 1.46-3.54v-18a5 5 0 0 0-1.46-3.54c-.077-.075-.188-.108-.269-.179l-20.294 15.035 15.77 11.684z" style="fill:url(#e)"/><path d="M384.688 541.378c.057.47.098.949.276 1.37a5 5 0 0 0 2.658 2.657 5 5 0 0 0 1.95.393h20.894l-15.895-11.744z" style="fill:url(#h)"/><path d="m400.077 538.133-5.506-4.08v8.16z" style="fill:url(#i)"/><path d="M405.582 542.211v3.587h4.841l-4.84-3.587z" style="fill:url(#j)"/><path d="M400.077 538.133v7.665h.666l4.84-3.586-5.506-4.08z" style="fill:url(#k)"/><path d="M394.571 542.212v3.586h4.84z" style="fill:url(#l)"/><path d="m405.582 542.211-4.84 3.587h4.84z" style="fill:url(#m)"/><path d="M416.571 525.769v-2.97a5 5 0 0 0-1.46-3.54c-.077-.076-.188-.109-.269-.18l-20.294 15.037z" style="fill:#aa478a"/><path d="M384.695 541.798c.067.317.146.658.27.95a5 5 0 0 0 2.657 2.658 5 5 0 0 0 1.95.392h22a5 5 0 0 0 3.54-1.46 5 5 0 0 0 1.066-1.59 5.4 5.4 0 0 0 .285-.95z" style="fill:#fff;fill-opacity:.784"/><circle cx="412.571" cy="543.798" r="1" style="fill:#4d4d4d"/><path d="M386.571 542.798v1h1v-1zm1 1v1h1v-1z" style="fill:#4d4d4d"/><path d="M399.071 522.798a5.5 5.5 0 0 0-5.5 5.5 5.5 5.5 0 0 0 5.5 5.5 5.5 5.5 0 0 0 3.52-1.275l4.28 4.279.704-.707-4.28-4.281a5.5 5.5 0 0 0 1.276-3.516 5.5 5.5 0 0 0-5.5-5.5m0 1a4.5 4.5 0 0 1 4.5 4.5 4.5 4.5 0 0 1-4.5 4.5 4.5 4.5 0 0 1-4.5-4.5 4.5 4.5 0 0 1 4.5-4.5" style="opacity:.75;fill:#fff"/></g></svg>