<svg xmlns="http://www.w3.org/2000/svg" xmlns:xlink="http://www.w3.org/1999/xlink" width="32" height="32"><defs><linearGradient xlink:href="#a" id="d" x2="0" y1="543.798" y2="503.798" gradientTransform="matrix(.93333 0 0 .93333 -365.333 547.484)" gradientUnits="userSpaceOnUse"/><linearGradient id="a"><stop style="stop-color:#2f3943"/><stop offset="1" style="stop-color:#808c9b"/></linearGradient><linearGradient xlink:href="#a" id="e" x2="0" y1="499.798" y2="547.798" gradientTransform="matrix(.93333 0 0 .93333 -365.333 547.484)" gradientUnits="userSpaceOnUse"/><linearGradient xlink:href="#b" id="f" x1="393.571" x2="407.571" y1="524.798" y2="538.798" gradientTransform="translate(-384.572 504.564)" gradientUnits="userSpaceOnUse"/><linearGradient id="b"><stop/><stop offset="1" style="stop-opacity:0"/></linearGradient><linearGradient xlink:href="#c" id="g" x2="0" y1="23" y2="9" gradientTransform="translate(0 1020.362)" gradientUnits="userSpaceOnUse"/><linearGradient id="c"><stop style="stop-color:#ffd42a"/><stop offset="1" style="stop-color:#ffdf62"/></linearGradient></defs><g transform="translate(0 -1020.362)"><rect width="28" height="28" x="2" y="1022.362" rx="14" style="fill:#26333a;stroke-width:.09375"/><rect width="26.133" height="26.133" x="2.933" y="1023.295" rx="13.067" style="fill:url(#d);stroke-width:.093333"/><rect width="20.533" height="20.533" x="5.733" y="1026.096" rx="10.267" style="fill:url(#e);stroke-width:.084615"/><path d="m17 1029.362-.972 8.056-2.266.84 2.238 2.104-1.602 1.171-2.051-1.722 2.121 1.31-1.385 2.223 8.763 5.769s5.134-3.595 7.205-7.7z" style="opacity:.2;fill:url(#f)"/><path d="M16 1029.362a3 3 0 0 0-2.826 2H15v1h-2v1h2v1h-2v1h2v1h-2a3 3 0 0 0 3 3 3 3 0 0 0 3-3h-2v-1h2v-1h-2v-1h2v-1h-2v-1h1.824a3 3 0 0 0-2.824-2m-5 7a5 5 0 0 0 3.492 4.762L13 1043.362h6l-1.49-2.234a5 5 0 0 0 3.49-4.766h-1a4 4 0 0 1-4 4 4 4 0 0 1-4-4z" style="fill:url(#g);stroke-width:2"/></g></svg>