<svg xmlns="http://www.w3.org/2000/svg" xmlns:xlink="http://www.w3.org/1999/xlink" width="32" height="32"><linearGradient id="h" x1="11" x2="11" y1="19" y2="11" gradientUnits="userSpaceOnUse"><stop offset="0" stop-color="#8e44ad"/><stop offset="1" stop-color="#b08bc4"/></linearGradient><linearGradient id="f" x1="16" x2="16" y1="10" y2="2" gradientUnits="userSpaceOnUse"><stop offset="0" stop-color="#da4453"/><stop offset="1" stop-color="#e4848f"/></linearGradient><linearGradient id="k" x1="7" x2="7" y1="28" y2="20" gradientUnits="userSpaceOnUse"><stop offset="0" stop-color="#208c4e"/><stop offset="1" stop-color="#6dbd7f"/></linearGradient><linearGradient id="b" x2="0" y1="30" y2="2" gradientUnits="userSpaceOnUse"><stop offset="0" stop-color="#c3c8cd"/><stop offset="1" stop-color="#e4e6e8"/></linearGradient><linearGradient id="a"><stop offset="0" stop-color="#292c2f"/><stop offset="1" stop-opacity="0"/></linearGradient><linearGradient xlink:href="#a" id="c" x1="12" x2="20" y1="9" y2="17" gradientUnits="userSpaceOnUse"/><linearGradient xlink:href="#a" id="d" x1="17" x2="24" y1="18" y2="25" gradientUnits="userSpaceOnUse"/><linearGradient xlink:href="#a" id="e" x1="21" x2="29" y1="27" y2="35" gradientUnits="userSpaceOnUse"/><linearGradient xlink:href="#a" id="g" x1="7" x2="14" y1="18" y2="25" gradientUnits="userSpaceOnUse"/><linearGradient xlink:href="#a" id="i" x1="3" x2="11" y1="27" y2="35" gradientUnits="userSpaceOnUse"/><linearGradient xlink:href="#a" id="j" x1="12" x2="20" y1="27" y2="35" gradientUnits="userSpaceOnUse"/><path fill="url(#b)" d="M4 2h24c1.108 0 2 .892 2 2v24c0 1.108-.892 2-2 2H4c-1.108 0-2-.892-2-2V4c0-1.108.892-2 2-2"/><path fill="#7f8c8d" d="m15.688 7.61-5 4-.188.39v5.76l-4.813 3.85.625.78L11 18.64l4.688 3.75.624-.78-4.812-3.85v-5.52l4.5-3.6 4.5 3.6V18l.188.39 5 4 .625-.78-4.813-3.85V12l-.188-.39-5-4z"/><path fill="url(#c)" d="m12.292 9.708 2 2 .416-.416 5 5 5-5L30 16.585v-4L19.708 2.292z" opacity=".2"/><path fill="url(#d)" d="M17.292 18.708 18.585 20l.707.708.416-.416 4.5 4.5 4.5-4.5L30 21.585v-5l-5.292-5.293z" opacity=".2"/><path fill="url(#e)" d="m28.707 20.293-7.414 7.414L22.584 29H28c1.108 0 2-.892 2-2v-5.416z" opacity=".2"/><rect width="8" height="8" x="12" y="2" fill="url(#f)" rx="1"/><path fill="url(#g)" d="m14.707 11.293-7.414 7.414L8.584 20l1.208 1.208.916-.916L12 21.584 19 21l.292-.292-.708-.708-1.291-1.293L17 13.584z" opacity=".2"/><path fill="url(#h)" d="M18 11h6c.554 0 1 .446 1 1v6c0 .554-.446 1-1 1h-6c-.554 0-1-.446-1-1v-6c0-.554.446-1 1-1M8 11h6c.554 0 1 .446 1 1v6c0 .554-.446 1-1 1H8c-.554 0-1-.446-1-1v-6c0-.554.446-1 1-1"/><path fill="url(#i)" d="M3.292 27.708 4.585 29h9l-1.293-1.292L12 21.585l-1.292-1.293z" opacity=".2"/><path fill="url(#j)" d="M12.292 27.708 13.585 29h9l-1.293-1.292L21 21.585l-1.292-1.293z" opacity=".2"/><path fill="url(#k)" d="M4 20h6c.554 0 1 .446 1 1v6c0 .554-.446 1-1 1H4c-.554 0-1-.446-1-1v-6c0-.554.446-1 1-1m9 0h6c.554 0 1 .446 1 1v6c0 .554-.446 1-1 1h-6c-.554 0-1-.446-1-1v-6c0-.554.446-1 1-1m9 0h6c.554 0 1 .446 1 1v6c0 .554-.446 1-1 1h-6c-.554 0-1-.446-1-1v-6c0-.554.446-1 1-1"/><path fill="#292c2f" d="M12 8v1c0 .554.446 1 1 1h6c.554 0 1-.446 1-1V8c0 .554-.446 1-1 1h-6c-.554 0-1-.446-1-1m5 9v1c0 .554.446 1 1 1h6c.554 0 1-.446 1-1v-1c0 .554-.446 1-1 1h-6c-.554 0-1-.446-1-1M7 17v1c0 .554.446 1 1 1h6c.554 0 1-.446 1-1v-1c0 .554-.446 1-1 1H8c-.554 0-1-.446-1-1m-4 9v1c0 .554.446 1 1 1h6c.554 0 1-.446 1-1v-1c0 .554-.446 1-1 1H4c-.554 0-1-.446-1-1m9 0v1c0 .554.446 1 1 1h6c.554 0 1-.446 1-1v-1c0 .554-.446 1-1 1h-6c-.554 0-1-.446-1-1m9 0v1c0 .554.446 1 1 1h6c.554 0 1-.446 1-1v-1c0 .554-.446 1-1 1h-6c-.554 0-1-.446-1-1" opacity=".2"/><path fill="#97a0a7" d="M2 27v1c0 1.108.892 2 2 2h24c1.108 0 2-.892 2-2v-1c0 1.108-.892 2-2 2H4c-1.108 0-2-.892-2-2"/></svg>