<svg xmlns="http://www.w3.org/2000/svg" xmlns:xlink="http://www.w3.org/1999/xlink" width="32" height="32"><defs><linearGradient id="a"><stop style="stop-color:#2a2c2f"/><stop offset="1" style="stop-color:#424649"/></linearGradient><linearGradient id="b"><stop style="stop-color:#c6cdd1"/><stop offset="1" style="stop-color:#e0e5e7"/></linearGradient><linearGradient xlink:href="#a" id="N" x2="0" y1="538.798" y2="519.798" gradientTransform="matrix(1 0 0 1.21053 -3 -111.432)" gradientUnits="userSpaceOnUse"/><linearGradient xlink:href="#b" id="M" x2="0" y1="542.798" y2="538.798" gradientTransform="translate(0 2)" gradientUnits="userSpaceOnUse"/><linearGradient id="e"><stop style="stop-color:#e81877"/><stop offset=".312" style="stop-color:#dd1d8c"/><stop offset=".562" style="stop-color:#6d57b1"/><stop offset=".75" style="stop-color:#2a78c1"/><stop offset="1" style="stop-color:#018dcb"/></linearGradient><linearGradient id="f"><stop style="stop-color:#e51561"/><stop offset=".312" style="stop-color:#e4156c"/><stop offset=".562" style="stop-color:#e71e2c"/><stop offset=".75" style="stop-color:#e8301e"/><stop offset="1" style="stop-color:#e6320e"/></linearGradient><linearGradient id="d"><stop style="stop-color:#bec900"/><stop offset=".312" style="stop-color:#9ec80a"/><stop offset=".562" style="stop-color:#71b93d"/><stop offset=".75" style="stop-color:#35a48f"/><stop offset="1" style="stop-color:#018fca"/></linearGradient><linearGradient id="c"><stop style="stop-color:#c1cc00"/><stop offset=".312" style="stop-color:#dfcd00"/><stop offset=".562" style="stop-color:#f0cc00"/><stop offset=".75" style="stop-color:#fd8c08"/><stop offset="1" style="stop-color:#f25c13"/></linearGradient><linearGradient xlink:href="#c" id="C" x1="8" x2="24" y1="24" y2="8" gradientTransform="rotate(180 216.286 273.899)" gradientUnits="userSpaceOnUse"/><linearGradient xlink:href="#f" id="B" x1="8" x2="24" y1="24" y2="8" gradientTransform="matrix(1 0 0 -1 384.571 547.798)" gradientUnits="userSpaceOnUse"/><linearGradient xlink:href="#e" id="A" x1="8.457" x2="24.105" y1="23.998" y2="8.236" gradientUnits="userSpaceOnUse"/><linearGradient xlink:href="#d" id="D" x1="8.192" x2="24.062" y1="24.135" y2="8.233" gradientTransform="matrix(-1 0 0 1 432.571 499.798)" gradientUnits="userSpaceOnUse"/><linearGradient xlink:href="#f" id="G" x1="8.323" x2="23.943" y1="23.961" y2="8.255" gradientTransform="matrix(1 0 0 -1 384.571 547.798)" gradientUnits="userSpaceOnUse"/><linearGradient xlink:href="#c" id="I" x1="8" x2="24.272" y1="24" y2="8.385" gradientTransform="rotate(180 216.286 273.899)" gradientUnits="userSpaceOnUse"/><linearGradient xlink:href="#d" id="K" x1="8" x2="24.042" y1="24" y2="8.469" gradientTransform="matrix(-1 0 0 1 432.571 499.798)" gradientUnits="userSpaceOnUse"/><linearGradient xlink:href="#e" id="r" x1="8.255" x2="24.093" y1="24.161" y2="8.402" gradientUnits="userSpaceOnUse"/><linearGradient xlink:href="#f" id="u" x1="7.49" x2="24" y1="23.598" y2="8" gradientTransform="matrix(1 0 0 -1 384.571 547.798)" gradientUnits="userSpaceOnUse"/><linearGradient xlink:href="#c" id="w" x1="8.371" x2="24" y1="24.121" y2="8" gradientTransform="rotate(180 216.286 273.899)" gradientUnits="userSpaceOnUse"/><linearGradient xlink:href="#d" id="y" x1="8.394" x2="24.139" y1="24.08" y2="8.362" gradientTransform="matrix(-1 0 0 1 432.571 499.798)" gradientUnits="userSpaceOnUse"/><linearGradient xlink:href="#e" id="j" x1="8.273" x2="24.149" y1="24.302" y2="8.377" gradientUnits="userSpaceOnUse"/><linearGradient xlink:href="#f" id="l" x1="8.385" x2="24" y1="24.353" y2="8" gradientTransform="matrix(1 0 0 -1 384.571 547.798)" gradientUnits="userSpaceOnUse"/><linearGradient xlink:href="#d" id="n" x1="8.125" x2="23.775" y1="24.159" y2="8.481" gradientTransform="matrix(-1 0 0 1 432.571 499.798)" gradientUnits="userSpaceOnUse"/><linearGradient xlink:href="#c" id="p" x1="8.233" x2="24" y1="24.063" y2="8" gradientTransform="rotate(180 216.286 273.899)" gradientUnits="userSpaceOnUse"/><linearGradient xlink:href="#e" id="E" x1="8.059" x2="23.775" y1="23.328" y2="8.372" gradientUnits="userSpaceOnUse"/><clipPath id="k"><rect width="32" height="32" x="8" y="8" rx="16"/></clipPath><clipPath id="m"><rect width="32" height="32" x="392.571" y="507.798" rx="16"/></clipPath><clipPath id="o"><rect width="32" height="32" x="392.571" y="507.798" rx="16"/></clipPath><clipPath id="q"><rect width="32" height="32" x="392.571" y="507.798" rx="16"/></clipPath><clipPath id="t"><rect width="32" height="32" x="8" y="8" rx="16"/></clipPath><clipPath id="v"><rect width="32" height="32" x="392.571" y="507.798" rx="16"/></clipPath><clipPath id="x"><rect width="32" height="32" x="392.571" y="507.798" rx="16"/></clipPath><clipPath id="z"><rect width="32" height="32" x="392.571" y="507.798" rx="16"/></clipPath><clipPath id="F"><rect width="32" height="32" x="8" y="8" rx="16"/></clipPath><clipPath id="H"><rect width="32" height="32" x="392.571" y="507.798" rx="16"/></clipPath><clipPath id="J"><rect width="32" height="32" x="392.571" y="507.798" rx="16"/></clipPath><clipPath id="L"><rect width="32" height="32" x="392.571" y="507.798" rx="16"/></clipPath><filter id="s" width="1.167" height="1.154" x="-.083" y="-.077" style="color-interpolation-filters:sRGB"><feGaussianBlur stdDeviation=".4"/></filter></defs><path d="M24.159 10.832c-5.838 1.535-13.606 3.705-14.132 4.661-.173.315 1.224 5.806 1.85 8.468L24 24Z" clip-path="url(#k)" style="fill:url(#j)" transform="matrix(1.30244 .201 -.34899 .75017 -6.883 -10.828)"/><path d="M408.571 539.798c-3.734 0-6.86 1.426-7.909-1.596-1.321-3.807-3.052-10.433-4.198-15.28l12.107.876z" clip-path="url(#m)" style="fill:url(#l)" transform="matrix(1.30244 .201 -.34899 .75017 -333.34 -463.066)"/><path d="M408.55 510.761c3.708-.73 7.388-2.077 7.722-1.767.574.533 3.204 10.678 4.549 15.85l-12.25-1.046Z" clip-path="url(#o)" style="fill:url(#n)" transform="matrix(1.30244 .201 -.34899 .75017 -333.34 -463.066)"/><path d="M408.571 539.798c6.646 0 13.345-4.595 14.097-6.92.311-.961-1.848-6.356-1.848-8.575l-12.249-.505Z" clip-path="url(#q)" style="fill:url(#p)" transform="matrix(1.30244 .201 -.34899 .75017 -333.34 -463.066)"/><path d="M23.93 11.46c-5.762 0-10.78-.525-11.289.408-.33.607-.26 8.427-.26 11.528L24 24Z" clip-path="url(#t)" style="opacity:.7;fill:url(#r);filter:url(#s)" transform="matrix(1.34838 0 0 .77664 -16.361 -6.64)"/><path d="M408.571 539.798c-5.955 0-10.944 2.648-11.464-4.122-.104-1.356.007-8.688.007-11.596l11.458-.282z" clip-path="url(#v)" style="opacity:.7;fill:url(#u);filter:url(#s)" transform="matrix(1.34838 0 0 .77664 -534.911 -394.801)"/><path d="M408.571 539.798c8.864 0 11.667-7.056 11.667-15.92l-11.667-.08z" clip-path="url(#x)" style="opacity:.7;fill:url(#w);filter:url(#s)" transform="matrix(1.34838 0 0 .77664 -534.911 -394.801)"/><path d="M408.641 511.299c8.864 0 11.597 3.474 11.597 12.338l-11.667.161z" clip-path="url(#z)" style="opacity:.7;fill:url(#y);filter:url(#s)" transform="matrix(1.34838 0 0 .77664 -534.911 -394.801)"/><path d="M23.961 7.47C17.34 11.317 11.668 19.492 7.621 23.98L24 24Z" clip-path="url(#t)" style="opacity:.35;fill:url(#A)" transform="scale(1.34838 .77664)rotate(45 28.252 5.079)"/><path d="M408.571 539.798c-7.337-7.388-11.384-11.24-16-16h16z" clip-path="url(#v)" style="opacity:.35;fill:url(#B)" transform="scale(1.34838 .77664)rotate(45 823.848 -209.241)"/><path d="M408.571 539.798c8.864 0 16-7.136 16-16h-16z" clip-path="url(#x)" style="opacity:.35;fill:url(#C)" transform="scale(1.34838 .77664)rotate(45 823.848 -209.241)"/><path d="M408.571 507.798c6.409 5.87 9.837 9.658 16 16h-16z" clip-path="url(#z)" style="opacity:.35;fill:url(#D)" transform="scale(1.34838 .77664)rotate(45 823.848 -209.241)"/><path d="M23.98 11.81c-3.284-.917-8.668-2.105-8.774-1.711-.78 2.89-3.997 8.373-3.997 13.897L24 24Z" clip-path="url(#F)" style="opacity:.3;fill:url(#E)" transform="matrix(.34899 .75017 -1.30244 .201 38.883 -10.828)"/><path d="M409.107 535.935c-7.82-2.059-14.67-4.037-14.905-4.54-.351-.752 1.41-5.23 1.41-7.598l12.96.001z" clip-path="url(#H)" style="opacity:.3;fill:url(#G)" transform="matrix(.34899 .75017 -1.30244 .201 555.629 -399.788)"/><path d="M408.748 535.718c1.995 0 6.535 2.425 8.28 2.084 6.006-1.174 7.543-7.135 7.543-14.004h-16z" clip-path="url(#J)" style="opacity:.3;fill:url(#I)" transform="matrix(.34899 .75017 -1.30244 .201 555.629 -399.788)"/><path d="M408.541 511.797c4.89 1.31 14.039 3.68 14.79 4.244 2.194 1.645 1.24 3.898 1.24 7.757h-16z" clip-path="url(#L)" style="opacity:.3;fill:url(#K)" transform="matrix(.34899 .75017 -1.30244 .201 555.629 -399.788)"/><path d="M397.571 540.798h6v4h-6z" style="fill:url(#M)" transform="translate(-384.571 -515.798)"/><path d="M394.571 544.798h12v1h-12z" style="fill:#99a1a7" transform="translate(-384.571 -515.798)"/><path d="M384.571 519.798v19c0 1 1 2 1.872 2h28.26c.868 0 1.868-1 1.868-2v-19c0-1-1-2-1.887-2h-28.113c-1 0-2 1-2 2m1 1c0-2 1-2 2.144-2h25.897c1.96 0 1.96 1 1.96 2v14c0 1 0 2-2.017 2h-25.983c-2 0-2-1-2-2z" style="fill:url(#N)" transform="translate(-384.571 -515.798)"/></svg>