<svg xmlns="http://www.w3.org/2000/svg" xmlns:xlink="http://www.w3.org/1999/xlink" width="32" height="32"><defs><linearGradient id="b"><stop style="stop-color:#2e3436"/><stop offset="1" style="stop-color:#555753"/></linearGradient><linearGradient id="c"><stop/><stop offset="1" style="stop-opacity:0"/></linearGradient><linearGradient xlink:href="#a" id="d" x2="0" y1="543.8" y2="502.66" gradientTransform="matrix(.66667 0 0 .63518 -256.38 -317.28)" gradientUnits="userSpaceOnUse"/><linearGradient id="a" x2="0" y1="543.8" y2="502.66" gradientTransform="matrix(.66667 0 0 .63518 -256.38 -317.28)" gradientUnits="userSpaceOnUse"><stop offset="0" stop-color="#c6cdd1"/><stop offset="1" stop-color="#e0e5e7"/></linearGradient><linearGradient xlink:href="#a" id="e" x2="0" y1="543.8" y2="502.66" gradientTransform="matrix(.66667 0 0 .63518 -256.38 -317.28)" gradientUnits="userSpaceOnUse"/><linearGradient xlink:href="#b" id="g" x2="0" y1="25" y2="11" gradientTransform="translate(384.571 515.798)" gradientUnits="userSpaceOnUse"/><linearGradient xlink:href="#c" id="f" x1="9" x2="23" y1="11" y2="25" gradientTransform="translate(384.571 515.798)" gradientUnits="userSpaceOnUse"/></defs><g transform="translate(-384.57 -515.8)"><path d="m32 9-1-1L1.123 27l2.432 3H28.8c1.774 0 3.2-1.426 3.2-3.2z" style="fill:url(#d)" transform="translate(384.57 515.8)"/><path d="M3.2 2A3.19 3.19 0 0 0 0 5.2v21.6A3.19 3.19 0 0 0 3.2 30h.355l-2.432-3L31 8l1 1V5.2A3.19 3.19 0 0 0 28.8 2Z" style="fill:url(#e)" transform="translate(384.57 515.8)"/><path d="M387.07 517.8a2.49 2.49 0 0 0-2.5 2.5v1.5h32v-1.5a2.49 2.49 0 0 0-2.5-2.5z" style="fill:#566069"/><path d="M384.57 521.8h32v1h-32z" style="fill:#3daee9"/><rect width="30" height="20" x="385.57" y="523.8" ry="2" style="fill:#fff"/><rect width="2" height="2" x="413.57" y="518.8" rx="1" style="fill:#eff0f1"/></g><path d="m400.571 526.798-2 4 2.332 2.332-1.332.668-2-2-4 2 12 12h11v-3l-9-9z" style="opacity:.2;fill:url(#f);fill-rule:evenodd" transform="translate(-384.571 -515.798)"/><path d="m400.571 526.798-2 4h4zm-3 5-4 2 4 2zm6 0v4l4-2zm-3 1c-.554 0-1 .446-1 1s.446 1 1 1 1-.446 1-1-.446-1-1-1m-2 4 2 4 2-4z" style="fill:url(#g);stroke-width:.1" transform="translate(-384.571 -515.798)"/></svg>