<svg xmlns="http://www.w3.org/2000/svg" xmlns:xlink="http://www.w3.org/1999/xlink" width="32" height="32"><defs><linearGradient xlink:href="#a" id="b" x2="0" y1="543.8" y2="502.66" gradientTransform="matrix(.66667 0 0 .63518 -256.38 -317.28)" gradientUnits="userSpaceOnUse"/><linearGradient id="a" x2="0" y1="543.8" y2="502.66" gradientTransform="matrix(.66667 0 0 .63518 -256.38 -317.28)" gradientUnits="userSpaceOnUse"><stop offset="0" stop-color="#c6cdd1"/><stop offset="1" stop-color="#e0e5e7"/></linearGradient><linearGradient xlink:href="#a" id="c" x2="0" y1="543.8" y2="502.66" gradientTransform="matrix(.66667 0 0 .63518 -256.38 -317.28)" gradientUnits="userSpaceOnUse"/></defs><g transform="translate(-384.57 -515.8)"><path d="m32 9-1-1L1.123 27l2.432 3H28.8c1.774 0 3.2-1.426 3.2-3.2z" style="fill:url(#b)" transform="translate(384.57 515.8)"/><path d="M3.2 2A3.19 3.19 0 0 0 0 5.2v21.6A3.19 3.19 0 0 0 3.2 30h.355l-2.432-3L31 8l1 1V5.2A3.19 3.19 0 0 0 28.8 2Z" style="fill:url(#c)" transform="translate(384.57 515.8)"/><path d="M387.07 517.8a2.49 2.49 0 0 0-2.5 2.5v1.5h32v-1.5a2.49 2.49 0 0 0-2.5-2.5z" style="fill:#566069"/><path d="M384.57 521.8h32v1h-32z" style="fill:#3daee9"/><rect width="30" height="20" x="385.57" y="523.8" ry="2" style="fill:#fff"/><rect width="2" height="2" x="413.57" y="518.8" rx="1" style="fill:#eff0f1"/></g></svg>