<svg xmlns="http://www.w3.org/2000/svg" xmlns:xlink="http://www.w3.org/1999/xlink" width="32" height="32"><defs><linearGradient id="b"><stop stop-color="#2a2c2f"/><stop offset="1" stop-color="#424649"/></linearGradient><linearGradient id="a"><stop stop-color="#60a5e7" stop-opacity="0"/><stop offset="1" stop-color="#a6f3fb" stop-opacity=".258"/></linearGradient><linearGradient id="d"><stop stop-color="#c6cdd1"/><stop offset="1" stop-color="#e0e5e7"/></linearGradient><linearGradient xlink:href="#a" id="e" x2="0" y1="535.798" y2="520.798" gradientTransform="matrix(1.25 0 0 1.2 -484.714 -621.958)" gradientUnits="userSpaceOnUse"/><linearGradient id="c"><stop/><stop offset="1" stop-opacity="0"/></linearGradient><linearGradient xlink:href="#b" id="f" x1="0" x2="0" y1="25" y2="2" gradientUnits="userSpaceOnUse"/><linearGradient xlink:href="#c" id="g" x1="393.571" x2="410.571" y1="519.798" y2="536.798" gradientTransform="translate(-384.571 -515.798)" gradientUnits="userSpaceOnUse"/><linearGradient xlink:href="#d" id="h" x2="0" y1="542.798" y2="538.798" gradientTransform="translate(-384.571 -513.798)" gradientUnits="userSpaceOnUse"/></defs><path d="M4 3c-.415 0-.81.11-1.17.313a3.1 3.1 0 0 0-.953.857C1.335 4.893 1 5.892 1 7v14h30V7c0-1.108-.334-2.107-.877-2.83a3.1 3.1 0 0 0-.953-.857A2.4 2.4 0 0 0 28 3Z" style="fill:#fff"/><path d="M4 3c-.415 0-.81.11-1.17.313a3.1 3.1 0 0 0-.953.857C1.335 4.893 1 5.892 1 7v14h30V7c0-1.108-.334-2.107-.877-2.83a3.1 3.1 0 0 0-.953-.857A2.4 2.4 0 0 0 28 3Z" style="fill:url(#e)"/><path d="M4 2C1.784 2 0 3.784 0 6v15c0 2.216 1.784 4 4 4h24c2.216 0 4-1.784 4-4V6c0-2.216-1.784-4-4-4Zm0 1h24c1.662 0 3 1.784 3 4v14H1V7c0-2.216 1.338-4 3-4" style="fill:url(#f);paint-order:stroke fill markers"/><path d="m30 4 1 3v14H1l4 4h23c.554 0 1.082-.11 1.561-.312a4 4 0 0 0 1.27-.858c.361-.361.655-.79.857-1.27A4 4 0 0 0 32 21V6Z" style="opacity:.2;fill:url(#g);fill-rule:evenodd"/><path d="M13 25h6v4h-6z" style="fill:url(#h)"/><path d="M10 29h12v1H10Z" style="fill:#99a1a7"/></svg>