<svg xmlns="http://www.w3.org/2000/svg" xmlns:xlink="http://www.w3.org/1999/xlink" width="32" height="32"><defs><linearGradient xlink:href="#a" id="k" x1="8" x2="24" y1="24" y2="8" gradientTransform="scale(-1.56108 1.56108)rotate(-45 -11.27 57.827)" gradientUnits="userSpaceOnUse"/><linearGradient xlink:href="#a" id="h" x1="8" x2="24" y1="24" y2="8" gradientTransform="scale(-1.56108 1.56108)rotate(-15 -50.212 146.557)" gradientUnits="userSpaceOnUse"/><linearGradient xlink:href="#a" id="j" x1="8" x2="24" y1="24" y2="8" gradientTransform="scale(-1.56108 1.56108)rotate(-75 -2.92 38.801)" gradientUnits="userSpaceOnUse"/><linearGradient xlink:href="#c" id="m" x1="8" x2="24" y1="24" y2="8" gradientTransform="scale(1.56108)rotate(15 74.213 -35.738)" gradientUnits="userSpaceOnUse"/><linearGradient xlink:href="#d" id="i" x1="8" x2="24" y1="24" y2="8" gradientTransform="scale(-1.56108)rotate(15 132.083 -122.557)" gradientUnits="userSpaceOnUse"/><linearGradient xlink:href="#e" id="s" x1="394.571" x2="408.571" y1="523.798" y2="537.798" gradientTransform="translate(-384.571 -515.798)" gradientUnits="userSpaceOnUse"/></defs><linearGradient id="c"><stop offset="0" stop-color="#e81877"/><stop offset=".312" stop-color="#dd1d8c"/><stop offset=".562" stop-color="#6d57b1"/><stop offset=".75" stop-color="#2a78c1"/><stop offset="1" stop-color="#018dcb"/></linearGradient><linearGradient id="f"><stop offset="0" stop-color="#e51561"/><stop offset=".312" stop-color="#e4156c"/><stop offset=".562" stop-color="#e71e2c"/><stop offset=".75" stop-color="#e8301e"/><stop offset="1" stop-color="#e6320e"/></linearGradient><linearGradient id="a"><stop offset="0" stop-color="#bec900"/><stop offset=".312" stop-color="#9ec80a"/><stop offset=".562" stop-color="#71b93d"/><stop offset=".75" stop-color="#35a48f"/><stop offset="1" stop-color="#018fca"/></linearGradient><linearGradient id="d"><stop offset="0" stop-color="#c1cc00"/><stop offset=".312" stop-color="#dfcd00"/><stop offset=".562" stop-color="#f0cc00"/><stop offset=".75" stop-color="#fd8c08"/><stop offset="1" stop-color="#f25c13"/></linearGradient><linearGradient xlink:href="#d" id="q" x1="8" x2="24" y1="24" y2="8" gradientTransform="scale(-1.56108)rotate(75 28.358 -14.801)" gradientUnits="userSpaceOnUse"/><linearGradient id="e" x1="394.571" x2="408.571" y1="523.798" y2="537.798" gradientTransform="translate(-344.571 -515.798)" gradientUnits="userSpaceOnUse"><stop offset="0" stop-color="#292c2f"/><stop offset="1" stop-color="#292c2f" stop-opacity=".036"/></linearGradient><linearGradient id="t" x1="400.571" x2="400.571" y1="536.798" y2="522.798" gradientTransform="matrix(.99946 0 0 .99953 -384.36 -515.548)" gradientUnits="userSpaceOnUse"><stop offset="0" stop-color="#eff0f1"/><stop offset="1" stop-color="#fcfcfc"/></linearGradient><linearGradient xlink:href="#d" id="p" x1="8" x2="24" y1="24" y2="8" gradientTransform="rotate(-135 21.873 30.179)scale(1.56108)" gradientUnits="userSpaceOnUse"/><linearGradient xlink:href="#c" id="n" x1="8" x2="24" y1="24" y2="8" gradientTransform="scale(1.56108)rotate(15 74.213 -35.738)" gradientUnits="userSpaceOnUse"/><linearGradient xlink:href="#f" id="g" x1="8" x2="24" y1="24" y2="8" gradientTransform="scale(1.56108 -1.56108)rotate(-15 -108.083 59.739)" gradientUnits="userSpaceOnUse"/><linearGradient xlink:href="#c" id="r" x1="8" x2="24" y1="24" y2="8" gradientTransform="rotate(45 55.06 -.179)scale(1.56108)" gradientUnits="userSpaceOnUse"/><linearGradient xlink:href="#f" id="o" x1="8" x2="24" y1="24" y2="8" gradientTransform="scale(1.56108 -1.56108)rotate(-45 -22.671 24.114)" gradientUnits="userSpaceOnUse"/><linearGradient xlink:href="#c" id="l" x1="8" x2="24" y1="24" y2="8" gradientTransform="scale(1.56108)rotate(75 26.92 7.524)" gradientUnits="userSpaceOnUse"/><path d="M0 9.713v15.289a5 5 0 0 0 .025.498 5 5 0 0 0 .075.496 5 5 0 0 0 .123.484 5 5 0 0 0 .17.47 5 5 0 0 0 .216.45 5 5 0 0 0 .262.428 5 5 0 0 0 .303.399 5 5 0 0 0 .287.312 5 5 0 0 0 .37.334 5 5 0 0 0 .4.297 5 5 0 0 0 .43.254 5 5 0 0 0 .452.21 5 5 0 0 0 .471.165 5 5 0 0 0 .484.115 5 5 0 0 0 .495.068A5 5 0 0 0 5 30h6.713L16 14Z" style="fill:url(#g)"/><path d="M32 18.287V7a5 5 0 0 0-.023-.5 5 5 0 0 0-.075-.494 5 5 0 0 0-.123-.485 5 5 0 0 0-.172-.47 5 5 0 0 0-.216-.451 5 5 0 0 0-.262-.426 5 5 0 0 0-.3-.399 5 5 0 0 0-.29-.314 5 5 0 0 0-.37-.334 5 5 0 0 0-.401-.297 5 5 0 0 0-.428-.254 5 5 0 0 0-.453-.21 5 5 0 0 0-.471-.163 5 5 0 0 0-.484-.117 5 5 0 0 0-.494-.066A5 5 0 0 0 27 2.002h-7.785L16 14Z" style="fill:url(#h)"/><path d="M11.713 30H27a5 5 0 0 0 .5-.023 5 5 0 0 0 .494-.075 5 5 0 0 0 .485-.123 5 5 0 0 0 .47-.172 5 5 0 0 0 .451-.216 5 5 0 0 0 .426-.26 5 5 0 0 0 .399-.303 5 5 0 0 0 .314-.289 5 5 0 0 0 .336-.37 5 5 0 0 0 .295-.401 5 5 0 0 0 .254-.428 5 5 0 0 0 .21-.453 5 5 0 0 0 .165-.471 5 5 0 0 0 .115-.484 5 5 0 0 0 .068-.494A5 5 0 0 0 32 25v-6.713L16 14Z" style="fill:url(#i)"/><path d="M20.287 30H27a5 5 0 0 0 .5-.023 5 5 0 0 0 .494-.075 5 5 0 0 0 .485-.123 5 5 0 0 0 .47-.172 5 5 0 0 0 .451-.216 5 5 0 0 0 .426-.26 5 5 0 0 0 .399-.303 5 5 0 0 0 .314-.289 5 5 0 0 0 .336-.37 5 5 0 0 0 .295-.401 5 5 0 0 0 .254-.428 5 5 0 0 0 .21-.453 5 5 0 0 0 .165-.471 5 5 0 0 0 .115-.484 5 5 0 0 0 .068-.494A5 5 0 0 0 32 25V9.713L16 14Z" style="opacity:.3;fill:url(#j)"/><path d="M30.54 28.54a5 5 0 0 0 .335-.37 5 5 0 0 0 .295-.402 5 5 0 0 0 .254-.428 5 5 0 0 0 .21-.453 5 5 0 0 0 .165-.471 5 5 0 0 0 .115-.484 5 5 0 0 0 .068-.494A5 5 0 0 0 32 25V7a5 5 0 0 0-.023-.5 5 5 0 0 0-.075-.494 5 5 0 0 0-.123-.485 5 5 0 0 0-.172-.47 5 5 0 0 0-.216-.451 5 5 0 0 0-.262-.426 5 5 0 0 0-.3-.399 5 5 0 0 0-.29-.314 5 5 0 0 0-.37-.334 5 5 0 0 0-.401-.297 5 5 0 0 0-.428-.254 5 5 0 0 0-.453-.21 5 5 0 0 0-.471-.163 5 5 0 0 0-.484-.117l-.016-.002L16 14Z" style="opacity:.35;fill:url(#k)"/><path d="M32 9.713V7a5 5 0 0 0-.023-.5 5 5 0 0 0-.075-.494 5 5 0 0 0-.123-.485 5 5 0 0 0-.172-.47 5 5 0 0 0-.216-.451 5 5 0 0 0-.262-.426 5 5 0 0 0-.3-.399 5 5 0 0 0-.29-.314 5 5 0 0 0-.37-.334 5 5 0 0 0-.401-.297 5 5 0 0 0-.428-.254 5 5 0 0 0-.453-.21 5 5 0 0 0-.471-.163 5 5 0 0 0-.484-.117 5 5 0 0 0-.494-.066A5 5 0 0 0 27 2.002L12.785 2 16 14Z" style="opacity:.3;fill:url(#l)"/><path d="M5 2a5 5 0 0 0-.5.023 5 5 0 0 0-.494.075 5 5 0 0 0-.485.123 5 5 0 0 0-.47.172 5 5 0 0 0-.451.216 5 5 0 0 0-.426.262 5 5 0 0 0-.399.3 5 5 0 0 0-.314.29 5 5 0 0 0-.336.37 5 5 0 0 0-.295.401 5 5 0 0 0-.254.43 5 5 0 0 0-.21.451 5 5 0 0 0-.165.473 5 5 0 0 0-.115.484 5 5 0 0 0-.068.494A5 5 0 0 0 0 7.002v2.71L16 14l3.215-11.998Z" style="fill:url(#m)"/><path d="M5 2a5 5 0 0 0-.5.023 5 5 0 0 0-.494.075 5 5 0 0 0-.485.123 5 5 0 0 0-.47.172 5 5 0 0 0-.451.216 5 5 0 0 0-.426.262 5 5 0 0 0-.399.3 5 5 0 0 0-.314.29 5 5 0 0 0-.336.37 5 5 0 0 0-.295.401 5 5 0 0 0-.254.43 5 5 0 0 0-.21.451 5 5 0 0 0-.165.473 5 5 0 0 0-.115.484 5 5 0 0 0-.068.494A5 5 0 0 0 0 7.002v11.285L16 14 12.785 2Z" style="fill:url(#n)"/><path d="m4.086 2.086-.08.012a5 5 0 0 0-.485.123 5 5 0 0 0-.47.172 5 5 0 0 0-.451.216 5 5 0 0 0-.426.262 5 5 0 0 0-.399.3 5 5 0 0 0-.314.29 5 5 0 0 0-.336.37 5 5 0 0 0-.295.401 5 5 0 0 0-.254.43 5 5 0 0 0-.21.451 5 5 0 0 0-.165.473 5 5 0 0 0-.115.484 5 5 0 0 0-.068.494A5 5 0 0 0 0 7.002v18a5 5 0 0 0 .025.498 5 5 0 0 0 .075.496 5 5 0 0 0 .123.484 5 5 0 0 0 .17.47 5 5 0 0 0 .216.45 5 5 0 0 0 .262.428 5 5 0 0 0 .303.399 5 5 0 0 0 .287.312L16 14Z" style="opacity:.35;fill:url(#o)"/><path d="M1.46 28.54a5 5 0 0 0 .37.333 5 5 0 0 0 .4.297 5 5 0 0 0 .43.254 5 5 0 0 0 .453.21 5 5 0 0 0 .471.165 5 5 0 0 0 .484.115 5 5 0 0 0 .495.068A5 5 0 0 0 5 30h22a5 5 0 0 0 .5-.023 5 5 0 0 0 .494-.075 5 5 0 0 0 .485-.123 5 5 0 0 0 .47-.172 5 5 0 0 0 .451-.216 5 5 0 0 0 .426-.26 5 5 0 0 0 .399-.303 5 5 0 0 0 .314-.289L16 14Z" style="opacity:.35;fill:url(#p)"/><path d="M0 18.287v6.715a5 5 0 0 0 .025.498 5 5 0 0 0 .075.496 5 5 0 0 0 .123.484 5 5 0 0 0 .17.47 5 5 0 0 0 .216.45 5 5 0 0 0 .262.428 5 5 0 0 0 .303.399 5 5 0 0 0 .287.312 5 5 0 0 0 .37.334 5 5 0 0 0 .4.297 5 5 0 0 0 .43.254 5 5 0 0 0 .452.21 5 5 0 0 0 .471.165 5 5 0 0 0 .484.115 5 5 0 0 0 .495.068A5 5 0 0 0 5 30h15.287L16 14Z" style="opacity:.3;fill:url(#q)"/><path d="m4 2 12 12L28 2Z" style="opacity:.35;fill:url(#r)"/><path d="M22.865 7.137a1.75 7.875 44.998 0 1-4.332 6.804 1.75 7.875 44.998 0 1-3.545 3.061l12.834 12.926.172-.026a5 5 0 0 0 .485-.123 5 5 0 0 0 .47-.172 5 5 0 0 0 .451-.216 5 5 0 0 0 .426-.26 5 5 0 0 0 .399-.303 5 5 0 0 0 .314-.289 5 5 0 0 0 .336-.37 5 5 0 0 0 .295-.401 5 5 0 0 0 .254-.428 5 5 0 0 0 .21-.453 5 5 0 0 0 .165-.471 5 5 0 0 0 .115-.484 5 5 0 0 0 .068-.494A5 5 0 0 0 32 25v-8.729Zm-9.847 7.85L13 15l.004.004a1.75 7.875 44.998 0 1 .014-.018zm.136.17 1.703 1.714a3.01 3.01 0 0 0-1.703-1.715zm.696 1.618c.422.389.4.942.4 1.305C14.25 19.248 12.503 21 9 21l9 9h9l.07-.004z" style="opacity:.25;fill:url(#s)"/><path d="M.102 26a5 5 0 0 0 .12.48 5 5 0 0 0 .17.47 5 5 0 0 0 .217.45 5 5 0 0 0 .262.428 5 5 0 0 0 .303.399 5 5 0 0 0 .287.312 5 5 0 0 0 .37.334 5 5 0 0 0 .4.297 5 5 0 0 0 .43.254 5 5 0 0 0 .452.21 5 5 0 0 0 .471.165 5 5 0 0 0 .484.115 5 5 0 0 0 .495.068A5 5 0 0 0 5 30h11v-4z" style="fill:#fff;fill-opacity:.78399999"/><path d="M16 30h11a5 5 0 0 0 .5-.023 5 5 0 0 0 .494-.075 5 5 0 0 0 .485-.123 5 5 0 0 0 .47-.172 5 5 0 0 0 .451-.216 5 5 0 0 0 .426-.26 5 5 0 0 0 .399-.303 5 5 0 0 0 .314-.289 5 5 0 0 0 .336-.37 5 5 0 0 0 .295-.401 5 5 0 0 0 .254-.428 5 5 0 0 0 .21-.453 5 5 0 0 0 .165-.471 5 5 0 0 0 .1-.416H16Z" style="fill:#31363b;fill-opacity:.86199999"/><circle cx="27" cy="28" r="1" style="fill:#eff0f1"/><path d="M4 27v1h1v-1zm1 1v1h1v-1z" style="fill:#4d4d4d"/><path d="M22.574 7.006a1.75 7.875 44.998 0 0-6.515 4.461 1.75 7.875 44.998 0 0-3.1 3.6 3.04 3.04 0 0 1 1.976 1.975 1.75 7.875 44.998 0 0 3.599-3.1 1.75 7.875 44.998 0 0 4.33-6.806 1.75 7.875 44.998 0 0-.29-.13M12.5 16.331C9 17.269 11.625 19.484 9 21c3.503 0 5.25-1.75 5.25-2.919 0-.582.059-1.653-1.75-1.75" style="fill:url(#t)"/></svg>