<svg xmlns="http://www.w3.org/2000/svg" viewBox="0 0 32 32"><defs><linearGradient id="a" x1="370.22" x2="370.03" y1="509.64" y2="479.76" gradientTransform="translate(55.171 70.016)scale(.93333)" gradientUnits="userSpaceOnUse"><stop offset="0" stop-color="#197cf1"/><stop offset="1" stop-color="#21c9fb"/></linearGradient><linearGradient id="c" x2="0" y1="22" y2="10" gradientTransform="translate(372.9 504.13)scale(1.6667)" gradientUnits="userSpaceOnUse"><stop offset="0" stop-color="#7cbaf8"/><stop offset="1" stop-color="#f4fcff"/></linearGradient><linearGradient id="b" x1="7.269" x2="25.93" y1="9.312" y2="28.651" gradientTransform="translate(384.31 512.98)" gradientUnits="userSpaceOnUse"><stop offset="0" stop-color="#292c2f"/><stop offset="1" stop-opacity="0"/></linearGradient></defs><g transform="translate(-384.57 -515.8)"><circle cx="400.57" cy="531.8" r="14" fill="url(#a)"/><path fill="url(#b)" fill-rule="evenodd" d="m402.07 522.8 1.308 3.255.376 3.473-1.928 3.531-4.29 1.435-1.398.31-4.568-1.504 12 12 3.575-1.416 3.095-2.253 2.096-2.972.96-2.275.774-1.584z" opacity=".2"/><path fill="url(#c)" d="M397.07 520.8c-4.155 0-7.5 3.345-7.5 7.5s3.345 7.5 7.5 7.5c1.775 0 3.383-.633 4.665-1.657l6.657 6.657 1.178-1.178-6.657-6.657c1.024-1.282 1.657-2.89 1.657-4.665 0-4.155-3.345-7.5-7.5-7.5m0 1.667c3.232 0 5.833 2.601 5.833 5.833s-2.601 5.833-5.833 5.833-5.833-2.601-5.833-5.833 2.601-5.833 5.833-5.833"/></g></svg>