<svg xmlns="http://www.w3.org/2000/svg" xmlns:xlink="http://www.w3.org/1999/xlink" width="32" height="32"><linearGradient xlink:href="#a" id="c" x1="32" x2="32" y1="30" y2="2" gradientUnits="userSpaceOnUse"/><linearGradient id="e" x1="-16.5" x2="-16.5" y1="29.5" y2="5.5" gradientUnits="userSpaceOnUse"><stop offset="0" stop-color="#31363b"/><stop offset="1" stop-color="#333c45"/></linearGradient><linearGradient id="b"><stop offset="0" stop-color="#292c2f"/><stop offset="1" stop-opacity="0"/></linearGradient><linearGradient xlink:href="#a" id="h" x1="9" x2="9" y1="11" y2="13" gradientUnits="userSpaceOnUse"/><linearGradient xlink:href="#a" id="i" x1="23" x2="23" y1="11" y2="13" gradientUnits="userSpaceOnUse"/><linearGradient xlink:href="#a" id="j" x1="23" x2="23" y1="15" y2="17" gradientUnits="userSpaceOnUse"/><linearGradient xlink:href="#a" id="f" x1="23" x2="23" y1="19" y2="21" gradientUnits="userSpaceOnUse"/><linearGradient xlink:href="#a" id="g" x1="9" x2="9" y1="19" y2="21" gradientUnits="userSpaceOnUse"/><linearGradient xlink:href="#a" id="k" x1="9" x2="9" y1="15" y2="17" gradientUnits="userSpaceOnUse"/><linearGradient id="p" x1="16" x2="16" y1="28" y2="4" gradientUnits="userSpaceOnUse"><stop offset="0" stop-color="#cfd5d5"/><stop offset="1" stop-color="#eff0f1"/></linearGradient><linearGradient xlink:href="#b" id="l" x1="9.854" x2="29" y1="4.146" y2="23.293" gradientUnits="userSpaceOnUse"/><linearGradient xlink:href="#b" id="m" x1="12.854" x2="29" y1="4.146" y2="20.293" gradientUnits="userSpaceOnUse"/><linearGradient xlink:href="#b" id="n" x1="19.854" x2="31" y1="4.146" y2="15.293" gradientUnits="userSpaceOnUse"/><linearGradient xlink:href="#b" id="o" x1="22.854" x2="30" y1="4.146" y2="11.293" gradientUnits="userSpaceOnUse"/><linearGradient id="d" x2="0" y1="30" y2="2" gradientUnits="userSpaceOnUse"><stop offset="0" stop-color="#54a3d8"/><stop offset="1" stop-color="#7cbcec"/></linearGradient><linearGradient id="a" x1="5" x2="5" y1="21" y2="11" gradientUnits="userSpaceOnUse"><stop offset="0" stop-color="#375a7d"/><stop offset="1" stop-color="#3b85b5"/></linearGradient><path fill="url(#c)" d="M4 30h24v-2H4zM4 2h24v2H4z"/><path fill="#292c2f" d="M4 28h24v2H4z" opacity=".2"/><path fill="url(#d)" d="M3 2a1 1 0 0 0-.1.006 1 1 0 0 0-.1.014 1 1 0 0 0-.095.025 1 1 0 0 0-.094.033 1 1 0 0 0-.09.045 1 1 0 0 0-.085.05 1 1 0 0 0-.08.061 1 1 0 0 0-.073.069 1 1 0 0 0-.066.076 1 1 0 0 0-.059.08 1 1 0 0 0-.049.088 1 1 0 0 0-.04.09 1 1 0 0 0-.032.095 1 1 0 0 0-.023.098 1 1 0 0 0-.012.1L2 3v26l.002.07a1 1 0 0 0 .012.1 1 1 0 0 0 .023.098 1 1 0 0 0 .031.095 1 1 0 0 0 .041.09 1 1 0 0 0 .05.088 1 1 0 0 0 .058.08 1 1 0 0 0 .066.076 1 1 0 0 0 .072.069 1 1 0 0 0 .08.06 1 1 0 0 0 .086.051 1 1 0 0 0 .09.045 1 1 0 0 0 .094.033 1 1 0 0 0 .096.025 1 1 0 0 0 .1.014A1 1 0 0 0 3 30h1a1 1 0 0 0 .1-.006 1 1 0 0 0 .1-.014 1 1 0 0 0 .095-.025 1 1 0 0 0 .094-.033 1 1 0 0 0 .09-.045 1 1 0 0 0 .085-.05 1 1 0 0 0 .08-.061 1 1 0 0 0 .073-.069 1 1 0 0 0 .066-.076 1 1 0 0 0 .059-.08 1 1 0 0 0 .049-.088 1 1 0 0 0 .04-.09 1 1 0 0 0 .032-.095 1 1 0 0 0 .023-.098 1 1 0 0 0 .012-.1L5 29v-1h22v1l.002.07a1 1 0 0 0 .012.1 1 1 0 0 0 .023.098 1 1 0 0 0 .031.095 1 1 0 0 0 .041.09 1 1 0 0 0 .05.088 1 1 0 0 0 .058.08 1 1 0 0 0 .066.076 1 1 0 0 0 .072.069 1 1 0 0 0 .08.06 1 1 0 0 0 .086.051 1 1 0 0 0 .09.045 1 1 0 0 0 .094.033 1 1 0 0 0 .096.025 1 1 0 0 0 .1.014A1 1 0 0 0 28 30h1a1 1 0 0 0 .1-.006 1 1 0 0 0 .1-.014 1 1 0 0 0 .095-.025 1 1 0 0 0 .094-.033 1 1 0 0 0 .09-.045 1 1 0 0 0 .085-.05 1 1 0 0 0 .08-.061 1 1 0 0 0 .073-.069 1 1 0 0 0 .066-.076 1 1 0 0 0 .059-.08 1 1 0 0 0 .049-.088 1 1 0 0 0 .04-.09 1 1 0 0 0 .032-.095 1 1 0 0 0 .023-.098 1 1 0 0 0 .012-.1L30 29V3l-.002-.07a1 1 0 0 0-.012-.1 1 1 0 0 0-.023-.098 1 1 0 0 0-.031-.095 1 1 0 0 0-.041-.09 1 1 0 0 0-.05-.088 1 1 0 0 0-.058-.08 1 1 0 0 0-.066-.076 1 1 0 0 0-.072-.069 1 1 0 0 0-.08-.06 1 1 0 0 0-.086-.051 1 1 0 0 0-.09-.045 1 1 0 0 0-.094-.033 1 1 0 0 0-.096-.025 1 1 0 0 0-.1-.014A1 1 0 0 0 29 2h-1a1 1 0 0 0-.1.006 1 1 0 0 0-.1.014 1 1 0 0 0-.095.025 1 1 0 0 0-.094.033 1 1 0 0 0-.09.045 1 1 0 0 0-.085.05 1 1 0 0 0-.08.061 1 1 0 0 0-.073.069 1 1 0 0 0-.066.076 1 1 0 0 0-.059.08 1 1 0 0 0-.049.088 1 1 0 0 0-.04.09 1 1 0 0 0-.032.095 1 1 0 0 0-.023.098 1 1 0 0 0-.012.1L27 3v1H5V3l-.002-.07a1 1 0 0 0-.012-.1 1 1 0 0 0-.023-.098 1 1 0 0 0-.031-.095 1 1 0 0 0-.041-.09 1 1 0 0 0-.05-.088 1 1 0 0 0-.058-.08 1 1 0 0 0-.066-.076 1 1 0 0 0-.072-.069 1 1 0 0 0-.08-.06 1 1 0 0 0-.086-.051 1 1 0 0 0-.09-.045 1 1 0 0 0-.094-.033 1 1 0 0 0-.096-.025 1 1 0 0 0-.1-.014A1 1 0 0 0 4 2z"/><path fill="url(#e)" d="M4 4a1 1 0 0 0-1 1v22a1 1 0 0 0 1 1h24a1 1 0 0 0 1-1V5a1 1 0 0 0-1-1zm1 2h10v20H5zm12 0h10v20H17z" opacity=".8"/><path fill="url(#f)" d="M18 19h8v2h-8z"/><path fill="url(#g)" d="M6 19h8v2H6z"/><path fill="url(#h)" d="M6 11h8v2H6z"/><path fill="url(#i)" d="M18 11h8v2h-8z"/><path fill="url(#j)" d="M18 15h8v2h-8z"/><path fill="url(#k)" d="M6 15h8v2H6z"/><path fill="url(#l)" d="M9.854 4.146 12 6.293l.146 21.56L14.293 30h-3l-2.147-2.146z" opacity=".2"/><path fill="url(#m)" d="M12.854 4.146 19 10.293l.146 17.56L21.293 30h-7l-2.147-2.146z" opacity=".2"/><path fill="url(#n)" d="M19.854 4.146 22 6.293l.146 21.56L24.293 30h-3l-2.147-2.146z" opacity=".2"/><path fill="url(#o)" d="m22.854 4.146-.708 23.708L24.293 30H29a1 1 0 0 0 .295-.045 1 1 0 0 0 .35-.19 1 1 0 0 0 .246-.312 1 1 0 0 0 .107-.383L30 29V11.293z" opacity=".2"/><path fill="url(#p)" d="M9.5 4a.5.5 0 0 0-.5.5v23a.5.5 0 0 0 1 0v-23a.5.5 0 0 0-.5-.5m3 0a.5.5 0 0 0-.5.5v23a.5.5 0 0 0 1 0v-23a.5.5 0 0 0-.5-.5m7 0a.5.5 0 0 0-.5.5v23a.5.5 0 0 0 1 0v-23a.5.5 0 0 0-.5-.5m3 0a.5.5 0 0 0-.5.5v23a.5.5 0 0 0 1 0v-23a.5.5 0 0 0-.5-.5"/></svg>