<svg xmlns="http://www.w3.org/2000/svg" xmlns:xlink="http://www.w3.org/1999/xlink" width="32" height="32" viewBox="0 0 8.467 8.467"><linearGradient id="b"><stop offset="0" stop-color="#232629"/><stop offset="1" stop-color="#a2abae"/></linearGradient><linearGradient id="a"><stop offset="0" stop-color="#31363b"/><stop offset="1" stop-color="#31363b" stop-opacity="0"/></linearGradient><linearGradient id="c" x1="4.233" x2="4.233" y1="7.938" y2=".53" gradientUnits="userSpaceOnUse"><stop offset="0" stop-color="#7f8c8d"/><stop offset="1" stop-color="#bdc3c7"/></linearGradient><linearGradient id="d" x1="16" x2="16" y1="5" y2="27" gradientUnits="userSpaceOnUse"><stop offset="0" stop-color="#232629"/><stop offset="1" stop-color="#292c2f"/></linearGradient><linearGradient id="e" x1="4.234" x2="4.234" y1="290.65" y2="291.179" gradientTransform="matrix(1 0 0 1.99995 -.794 -579.962)" gradientUnits="userSpaceOnUse"><stop offset="0" stop-color="#fdbc4b" stop-opacity=".8"/><stop offset="1" stop-color="#fdbc4b" stop-opacity="0"/></linearGradient><linearGradient xlink:href="#a" id="f" x1="4.233" x2="4.233" y1="295.412" y2="294.619" gradientTransform="matrix(1.25 0 0 1 -1.058 -288.268)" gradientUnits="userSpaceOnUse"/><linearGradient xlink:href="#a" id="g" x1="4.587" x2="4.587" y1="295.413" y2="294.619" gradientTransform="matrix(.375 0 0 1 .926 -289.063)" gradientUnits="userSpaceOnUse"/><linearGradient xlink:href="#a" id="h" x1="3.88" x2="3.88" y1="295.413" y2="294.619" gradientTransform="matrix(.375 0 0 1 4.366 -289.063)" gradientUnits="userSpaceOnUse"/><linearGradient xlink:href="#a" id="i" x1="7.411" x2="7.411" y1="295.413" y2="294.619" gradientTransform="matrix(.47242 0 0 7.5588 27.499 -2216.967)" gradientUnits="userSpaceOnUse"/><linearGradient xlink:href="#a" id="j" x1="1.061" x2="1.061" y1="295.413" y2="294.619" gradientTransform="matrix(.47242 0 0 7.5588 .499 -2216.967)" gradientUnits="userSpaceOnUse"/><linearGradient xlink:href="#a" id="k" x1="4.444" x2="4.444" y1="295.412" y2="294.618" gradientTransform="matrix(.625 0 0 1.66667 -1.19 -486.798)" gradientUnits="userSpaceOnUse"/><linearGradient xlink:href="#a" id="l" x1="4.021" x2="4.021" y1="295.412" y2="294.618" gradientTransform="matrix(.625 0 0 1.66667 4.366 -486.798)" gradientUnits="userSpaceOnUse"/><radialGradient xlink:href="#b" id="m" cx="-1.146" cy="-291.923" r=".265" gradientTransform="matrix(-3.99387 .00017 -.0003 -6.98997 -3.343 -2037.884)" gradientUnits="userSpaceOnUse"/><radialGradient xlink:href="#b" id="n" cx="-1.146" cy="-291.923" r=".265" gradientTransform="matrix(3.99387 .00007 .00011 -6.9895 11.756 -2037.75)" gradientUnits="userSpaceOnUse"/><rect width="8.467" height="7.409" y=".529" fill="url(#c)" rx=".529"/><path fill="url(#d)" d="M3 5v5H2v1h1v4H2v1h1v5h5v3h3v3h10v-3h3v-3h5v-5h1v-1h-1v-4h1v-1h-1V5z" transform="scale(.2646)"/><path fill="url(#e)" d="M1.323 1.323h.265v1.058h-.265zm.794 0h.264v1.058h-.264zm.794 0h.264v1.058h-.264zm3.968 0h.265v1.058h-.265zm-.793 0h.264v1.058h-.264zm-.794 0h.264v1.058h-.264zm-.794 0h.265v1.058h-.265zm-.794 0h.265v1.058h-.265z"/><path fill="url(#f)" d="M2.91 6.35h2.646v.794H2.911z"/><path fill="url(#g)" d="M2.117 5.556h.794v.794h-.794z"/><path fill="url(#h)" d="M5.556 5.556h.794v.794h-.794z"/><path fill="url(#i)" d="M29 10v1h1v-1zm0 5v1h1v-1z" transform="scale(.2646)"/><path fill="url(#j)" d="M2 10v1h1v-1zm0 5v1h1v-1z" transform="scale(.2646)"/><path fill="url(#k)" d="M.794 4.234h1.323v1.322H.794z"/><path fill="url(#l)" d="M6.35 4.233h1.323v1.323H6.35z"/><path fill="url(#m)" d="M1.058 3.969H.53V2.91h.53z"/><path fill="url(#n)" d="M7.409 3.969h.529V2.91h-.53z"/><path fill="#69777b" d="M0 7.144v.265c0 .293.236.529.53.529h7.408a.53.53 0 0 0 .529-.53v-.264c0 .293-.236.53-.53.53H.53A.53.53 0 0 1 0 7.143z"/></svg>