<svg xmlns="http://www.w3.org/2000/svg" xmlns:xlink="http://www.w3.org/1999/xlink" width="32" height="32"><defs><linearGradient xlink:href="#a" id="g" x1="418.17" x2="384.571" y1="503.079" y2="531.458" gradientTransform="matrix(.66608 0 0 .8548 -256.155 -428.515)" gradientUnits="userSpaceOnUse"/><linearGradient id="a"><stop style="stop-color:#1abc9c"/><stop offset="1" style="stop-color:#2980b9"/></linearGradient><linearGradient xlink:href="#b" id="h" x1="404.045" x2="430.736" y1="521.633" y2="528.35" gradientTransform="matrix(.66608 0 0 .8548 -256.155 -428.515)" gradientUnits="userSpaceOnUse"/><linearGradient id="b"><stop style="stop-color:#cc4a5e"/><stop offset="1" style="stop-color:#aa478a"/></linearGradient><linearGradient xlink:href="#c" id="i" x1="398.092" x2="394.003" y1="542.224" y2="524.9" gradientTransform="matrix(.66608 0 0 .8548 -256.155 -428.515)" gradientUnits="userSpaceOnUse"/><linearGradient id="c"><stop style="stop-color:#334545"/><stop offset="1" style="stop-color:#536161"/></linearGradient><linearGradient xlink:href="#c" id="j" x1="431.571" x2="439.571" y1="568.798" y2="562.798" gradientTransform="matrix(-.66608 0 0 .8548 302.78 -462.707)" gradientUnits="userSpaceOnUse"/><linearGradient xlink:href="#c" id="m" x1="406.537" x2="423.32" y1="581.87" y2="572.678" gradientTransform="matrix(-.66608 0 0 .8548 302.78 -462.707)" gradientUnits="userSpaceOnUse"/><linearGradient xlink:href="#c" id="n" x1="423.054" x2="431.225" y1="572.334" y2="566.766" gradientTransform="matrix(-.66608 0 0 .8548 302.78 -462.707)" gradientUnits="userSpaceOnUse"/><linearGradient xlink:href="#c" id="o" x1="431.313" x2="440.632" y1="577.102" y2="571.445" gradientTransform="matrix(-.66608 0 0 .8548 302.78 -462.707)" gradientUnits="userSpaceOnUse"/><linearGradient xlink:href="#c" id="p" x1="430.567" x2="423.75" y1="577.362" y2="591.328" gradientTransform="matrix(-.66608 0 0 .8548 302.78 -462.707)" gradientUnits="userSpaceOnUse"/><linearGradient xlink:href="#d" id="q" x1="406.571" x2="406.571" y1="531.798" y2="523.798" gradientUnits="userSpaceOnUse"/><linearGradient xlink:href="#e" id="r" x1="407.571" x2="407.571" y1="535.798" y2="532.798" gradientUnits="userSpaceOnUse"/></defs><linearGradient id="e" x1="407.571" x2="407.571" y1="535.798" y2="532.798" gradientUnits="userSpaceOnUse"><stop offset="0" stop-color="#eff0f1"/><stop offset="1" stop-color="#fcfcfc"/></linearGradient><linearGradient id="d" x1="406.571" x2="406.571" y1="531.798" y2="523.798" gradientUnits="userSpaceOnUse"><stop offset="0" stop-color="#eff0f1"/><stop offset="1" stop-color="#fcfcfc"/></linearGradient><path d="M0 4.817v23.417c0 .936.937 1.873 1.845 1.873h28.173c.892 0 1.923-.937 1.923-1.873V4.817c0-1.874-.937-2.81-2.904-2.81H2.81C.937 2.007.055 3.228 0 4.817" style="fill:url(#g);stroke-width:.999155"/><path d="M31.94 9.5 9.97 18.434l15.754 11.673h4.35c.837 0 1.868-.937 1.868-1.873z" style="fill:url(#h);stroke-width:1.99822;stroke-linecap:round"/><path d="M9.991 18.372 0 25.776v2.458c0 .936.937 1.873 1.825 1.873h24.047z" style="fill:url(#i);stroke-width:1.99822;stroke-linecap:round"/><path d="m15.492 22.449-5.5-4.076v8.151z" style="fill:url(#j);stroke-width:1.99822;stroke-linecap:round"/><path d="M20.993 26.523v3.584h4.837z" style="fill:url(#m);stroke-width:1.99822;stroke-linecap:round"/><path d="M15.492 22.448v7.659h.666l4.835-3.583z" style="fill:url(#n);stroke-width:1.99822;stroke-linecap:round"/><path d="M9.991 26.524v3.583h4.835z" style="fill:url(#o);stroke-width:1.99822;stroke-linecap:round"/><path d="m20.993 26.523-4.837 3.584h4.837z" style="fill:url(#p);stroke-width:1.99822;stroke-linecap:round"/><path d="M9.969 18.435 28.1 2.007c1.453-.03 2.94-.021 3.495 1.232.112.254.251.643.31 1.005.206 1.276.036 3.2.036 6.193z" style="fill:#aa478a;stroke-width:1.99822;stroke-linecap:round"/><rect width="31.972" height="3.996" y="26.111" rx="1.998" ry="1.998" style="fill:#fff;fill-opacity:.784314;stroke-width:.999155"/><circle cx="29.974" cy="28.109" r=".999" style="fill:#4d4d4d;stroke-width:.999155"/><path d="M1.998 27.11v.999h1v-1zm1 .999v.999h.998v-1z" style="fill:#4d4d4d;stroke-width:.999155"/><g fill-rule="evenodd"><path fill="url(#d)" d="M400.571 523.798a1 1 0 0 0-1 1h2a1 1 0 0 0-1-1m0 2a6 6 0 0 0-6 6h12a6 6 0 0 0-6-6" style="fill:url(#q)" transform="translate(-384.58 -514.426)"/><path fill="url(#e)" d="M394.571 532.798a1 1 0 0 0-1 1v2h14v-2a1 1 0 0 0-1-1z" style="fill:url(#r)" transform="translate(-384.58 -514.426)"/></g></svg>