<svg xmlns="http://www.w3.org/2000/svg" xmlns:xlink="http://www.w3.org/1999/xlink" width="32" height="32"><defs><linearGradient xlink:href="#a" id="d" x2="0" y1="545.798" y2="517.798" gradientUnits="userSpaceOnUse"/><linearGradient xlink:href="#b" id="f" x2="0" y1="30" y2="2" gradientUnits="userSpaceOnUse"/><linearGradient xlink:href="#b" id="g" x2="0" y1="20" y2="12" gradientUnits="userSpaceOnUse"/><linearGradient id="c"><stop style="stop-color:#292c2f"/><stop offset="1" style="stop-opacity:0"/></linearGradient><linearGradient xlink:href="#c" id="e" x1="393.571" x2="407.571" y1="524.798" y2="538.798" gradientTransform="translate(-384.571 -515.798)" gradientUnits="userSpaceOnUse"/><linearGradient id="a"><stop style="stop-color:#c6cdd1"/><stop offset="1" style="stop-color:#e0e5e7"/></linearGradient><linearGradient id="b"><stop style="stop-color:#2a2c2f"/><stop offset="1" style="stop-color:#424649"/></linearGradient></defs><g transform="translate(-384.571 -515.798)"><rect width="28" height="28" x="386.571" y="517.798" rx="14" style="fill:url(#d)"/><path d="M21.234 9.326 18.77 12.58l9.726 9.727a13.9 13.9 0 0 0 1.356-4.364zM16.801 12.1l-.602.8L28.301 25H29.7zm-2 1-.602.8 6.112 6.112-1.26 1.261-6.416-6.418-3.373 2.137L21.248 28.98a14 14 0 0 0 4.803-3.229l.25.25H27.7l-.983-.982q.011-.014.023-.026l-5.705-5.705-.023.024z" style="fill:url(#e);opacity:.2;fill-rule:evenodd" transform="translate(384.571 515.798)"/><path d="M20 9c-1.108 0-2 .892-2 2s.892 2 2 2 2-.892 2-2-.892-2-2-2m-9 5c-1.108 0-2 .892-2 2s.892 2 2 2 2-.892 2-2-.892-2-2-2m9 5c-1.108 0-2 .892-2 2s.892 2 2 2 2-.892 2-2-.892-2-2-2" style="fill:url(#f)" transform="translate(384.571 515.798)"/><path d="M16.5 12a.499.499 0 1 0 0 1 .499.499 0 1 0 0-1m-2 1a.499.499 0 1 0 0 1 .499.499 0 1 0 0-1m0 5a.499.499 0 1 0 0 1 .499.499 0 1 0 0-1m2 1a.499.499 0 1 0 0 1 .499.499 0 1 0 0-1" style="fill:url(#g)" transform="translate(384.571 515.798)"/></g></svg>