<svg xmlns="http://www.w3.org/2000/svg" xmlns:xlink="http://www.w3.org/1999/xlink" width="32" height="32"><defs><linearGradient id="c"><stop style="stop-color:#bcfd93"/><stop offset="1" style="stop-color:#fafff5"/></linearGradient><linearGradient xlink:href="#a" id="d" x2="0" y1="545.798" y2="517.798" gradientUnits="userSpaceOnUse"/><linearGradient id="b"><stop style="stop-color:#292c2f"/><stop offset="1" style="stop-opacity:0"/></linearGradient><linearGradient xlink:href="#b" id="e" x1="9" x2="23" y1="9" y2="23" gradientUnits="userSpaceOnUse"/><linearGradient id="a"><stop style="stop-color:#42a603"/><stop offset="1" style="stop-color:#78da06"/></linearGradient><linearGradient xlink:href="#c" id="f" x2="0" y1="538.798" y2="524.798" gradientUnits="userSpaceOnUse"/></defs><g transform="translate(-384.571 -515.798)"><rect width="28" height="28" x="386.571" y="517.798" rx="14" style="fill:url(#d)"/><path d="M16 9v6h.113v.824L12 17l3 3v3l6.05 6.05a14 14 0 0 0 4.393-2.72l.006-.006a14 14 0 0 0 1.867-2.09q.007-.006.012-.013.006-.01.012-.02c.12-.167.246-.33.36-.502l-.02-.02c.402-.611.774-1.246 1.078-1.921z" style="fill:url(#e);opacity:.2;fill-rule:evenodd" transform="translate(384.571 515.798)"/><path d="m400.571 524.798-4 8h3v6l4-8h-3z" style="fill:url(#f);fill-rule:evenodd"/></g></svg>