<svg xmlns="http://www.w3.org/2000/svg" xmlns:xlink="http://www.w3.org/1999/xlink" width="32" height="32"><linearGradient id="a"><stop offset="0" stop-color="#c6cdd1"/><stop offset="1" stop-color="#e0e5e7"/></linearGradient><linearGradient id="c" x1="403.571" x2="403.571" y1="538.798" y2="519.798" gradientTransform="matrix(1 0 0 1.21053 -3 -111.432)" gradientUnits="userSpaceOnUse"><stop offset="0" stop-color="#2a2c2f"/><stop offset="1" stop-color="#424649"/></linearGradient><linearGradient xlink:href="#a" id="d" x1="400.571" x2="400.571" y1="544.798" y2="540.798" gradientUnits="userSpaceOnUse"/><linearGradient id="e" x1="400.571" x2="400.571" y1="535.798" y2="520.798" gradientTransform="matrix(1.25 0 0 1.13333 -484.714 -587.238)" gradientUnits="userSpaceOnUse"><stop offset="0" stop-color="#232629"/><stop offset="1" stop-color="#292c30"/></linearGradient><linearGradient xlink:href="#a" id="n" x1="389.571" x2="389.571" y1="534.798" y2="519.798" gradientUnits="userSpaceOnUse"/><linearGradient id="b"><stop offset="0"/><stop offset="1" stop-opacity="0"/></linearGradient><linearGradient xlink:href="#b" id="o" x1="386.571" x2="389.571" y1="520.798" y2="523.798" gradientUnits="userSpaceOnUse"/><linearGradient xlink:href="#b" id="p" x1="386.571" x2="389.571" y1="522.798" y2="525.798" gradientUnits="userSpaceOnUse"/><linearGradient xlink:href="#b" id="q" x1="386.571" x2="389.571" y1="524.798" y2="527.798" gradientUnits="userSpaceOnUse"/><linearGradient xlink:href="#b" id="r" x1="386.571" x2="389.571" y1="526.798" y2="529.798" gradientUnits="userSpaceOnUse"/><linearGradient xlink:href="#b" id="s" x1="386.571" x2="389.571" y1="528.798" y2="531.798" gradientUnits="userSpaceOnUse"/><linearGradient xlink:href="#b" id="t" x1="386.571" x2="389.571" y1="530.798" y2="533.798" gradientUnits="userSpaceOnUse"/><linearGradient xlink:href="#b" id="u" x1="386.571" x2="389.571" y1="532.798" y2="535.798" gradientUnits="userSpaceOnUse"/><linearGradient xlink:href="#b" id="v" x1="386.571" x2="389.571" y1="534.798" y2="537.798" gradientUnits="userSpaceOnUse"/><linearGradient xlink:href="#b" id="f" x1="390.571" x2="397.071" y1="520.798" y2="527.298" gradientUnits="userSpaceOnUse"/><linearGradient xlink:href="#b" id="g" x1="390.571" x2="397.071" y1="532.798" y2="539.298" gradientUnits="userSpaceOnUse"/><linearGradient xlink:href="#b" id="h" x1="390.571" x2="396.025" y1="522.798" y2="528.251" gradientUnits="userSpaceOnUse"/><linearGradient xlink:href="#b" id="i" x1="390.571" x2="396.025" y1="526.798" y2="532.251" gradientUnits="userSpaceOnUse"/><linearGradient xlink:href="#b" id="j" x1="390.571" x2="396.025" y1="528.798" y2="534.251" gradientUnits="userSpaceOnUse"/><linearGradient xlink:href="#b" id="k" x1="390.571" x2="395.071" y1="524.798" y2="529.298" gradientUnits="userSpaceOnUse"/><linearGradient xlink:href="#b" id="l" x1="390.571" x2="395.071" y1="530.798" y2="535.298" gradientUnits="userSpaceOnUse"/><linearGradient xlink:href="#b" id="m" x1="390.571" x2="395.071" y1="534.798" y2="539.298" gradientUnits="userSpaceOnUse"/><path fill="url(#c)" d="M384.571 517.798h32v23h-32z" transform="translate(-384.571 -515.798)"/><path fill="#333639" d="M1 20h30v1H1z"/><path fill="url(#d)" d="M397.571 540.798h6v4h-6z" transform="translate(-384.571 -515.798)"/><path fill="#9eaab6" d="M10 29h12v1H10z"/><path fill="url(#e)" d="M1 3h30v17H1z"/><path fill="url(#f)" d="m390.571 520.798 1 1h7l2 2 2-2-2-2z" opacity=".2" transform="translate(-384.571 -515.798)"/><path fill="url(#g)" d="m390.571 532.798 1 1h5l3 3 3-3-2-2z" opacity=".2" transform="translate(-384.571 -515.798)"/><path fill="url(#h)" d="m390.571 522.798 1 1h5l2 2 2-2-2-2z" opacity=".2" transform="translate(-384.571 -515.798)"/><path fill="url(#i)" d="m390.571 526.798 1 1h7l1 1 1-1-2-2z" opacity=".2" transform="translate(-384.571 -515.798)"/><path fill="url(#j)" d="m390.571 528.798 1 1h5l2 2 2-2-2-2z" opacity=".2" transform="translate(-384.571 -515.798)"/><path fill="url(#k)" d="m390.571 524.798 1 1h7l-2-2z" opacity=".2" transform="translate(-384.571 -515.798)"/><path fill="url(#l)" d="m390.571 530.798 1 1h7l-2-2z" opacity=".2" transform="translate(-384.571 -515.798)"/><path fill="url(#m)" d="m390.571 534.798 2 2h5l1-1-2-2z" opacity=".2" transform="translate(-384.571 -515.798)"/><path fill="url(#n)" d="M389.571 519.798h5v1h-5zm0 6h4v1h-4zm0 2h4v1h-4zm0 2h3v1h-3zm0-8h4v1h-4zm0 2h3v1h-3zm0 8h5v1h-5zm0 2h3v1h-3z" transform="matrix(2 0 0 1 -773.143 -515.798)"/><path fill="url(#o)" d="m386.571 520.798 1 1h2l1 1 1-1-2-2z" opacity=".2" transform="translate(-384.571 -515.798)"/><path fill="url(#p)" d="m386.571 522.798 1 1h2l1 1 1-1-2-2z" opacity=".2" transform="translate(-384.571 -515.798)"/><path fill="url(#q)" d="m386.571 524.798 1 1h2l1 1 1-1-2-2z" opacity=".2" transform="translate(-384.571 -515.798)"/><path fill="url(#r)" d="m386.571 526.798 1 1h2l1 1 1-1-2-2z" opacity=".2" transform="translate(-384.571 -515.798)"/><path fill="url(#s)" d="m386.571 528.798 1 1h2l1 1 1-1-2-2z" opacity=".2" transform="translate(-384.571 -515.798)"/><path fill="url(#t)" d="m386.571 530.798 1 1h2l1 1 1-1-2-2z" opacity=".2" transform="translate(-384.571 -515.798)"/><path fill="url(#u)" d="m386.571 532.798 1 1h2l1 1 1-1-2-2z" opacity=".2" transform="translate(-384.571 -515.798)"/><path fill="url(#v)" d="m386.571 534.798 1 1 1 1h2l1-1-2-2z" opacity=".2" transform="translate(-384.571 -515.798)"/><path fill="#11d116" d="M2 4h3v1H2zm0 2h3v1H2zm0 2h3v1H2zm0 2h3v1H2zm0 2h3v1H2zm0 2h3v1H2zm0 2h3v1H2zm0 2h3v1H2z"/></svg>