<svg xmlns="http://www.w3.org/2000/svg" width="32" height="32"><linearGradient id="a" x1="386.571" x2="386.878" y1="549.798" y2="502.854" gradientTransform="matrix(.54545 0 0 .53846 177.715 249.753)" gradientUnits="userSpaceOnUse"><stop offset="0" stop-color="#7f8c8d"/><stop offset="1" stop-color="#afb0b3"/></linearGradient><linearGradient id="e" x1="400.571" x2="400.571" y1="522.798" y2="535.798" gradientUnits="userSpaceOnUse"><stop offset="0" stop-color="#da4453"/><stop offset="1" stop-color="#c72737"/></linearGradient><linearGradient id="c" x1="12" x2="26" y1="11" y2="25" gradientUnits="userSpaceOnUse"><stop offset="0" stop-color="#292c2f"/><stop offset="1" stop-color="#292c2f" stop-opacity=".138"/></linearGradient><linearGradient id="b" x1="12" x2="12" y1="48" y2="10" gradientTransform="matrix(.55555 0 0 .54843 382.794 514.473)" gradientUnits="userSpaceOnUse"><stop offset="0" stop-color="#eef1f2"/><stop offset="1" stop-color="#f9fafb"/></linearGradient><path fill="url(#a)" d="M388.571 519.798c-.021-.99.964-2.02 2.006-2h19.994c1.031.04 1.945 1.05 2 2v26h-24z" style="fill:url(#a)" transform="translate(-384.571 -515.798)"/><path fill="#292c2f" d="M25 27h3v3h-3zM4 27h3v3H4z" opacity=".3"/><path fill="#292c2e" d="M7 27h18v3H7z"/><path fill="#f6b44d" d="M9 28h9v1H9zm10 0h4v1h-4z"/><path fill="url(#b)" d="M395.571 519.862c-2.761 0-5 2.21-5 4.936v5c.706.623 1.11 1.565 1.112 2.5-.001.935-.406 1.877-1.112 2.5v3l3 3h14l3-3v-3c-.705-.623-1.11-1.565-1.11-2.5s.404-1.877 1.11-2.5v-5c0-2.726-2.238-4.936-5-4.936z" transform="translate(-384.571 -515.798)"/><path fill="url(#c)" d="M16 7v.002a3 3 0 0 0-3 2.955l.002.043H13v3h-2v7l7 7h10v-9.242l-9.879-9.88z" opacity=".2"/><path fill="#292c2f" d="M4 29h24v1H4z" opacity=".4"/><path fill="url(#e)" d="M400.571 522.798c-1.662 0-3 1.338-3 3v3h-2v7h10v-7h-2v-3c0-1.662-1.338-3-3-3m0 1c1.247 0 2 .546 2 2v3h-4v-3c0-1.454.754-2 2-2" transform="translate(-384.571 -515.798)"/><path fill="#292c2f" d="M4 27h3v3zm21 0h3v3h-3z" opacity=".2"/></svg>