<svg xmlns="http://www.w3.org/2000/svg" xmlns:xlink="http://www.w3.org/1999/xlink" width="32" height="32"><linearGradient id="l" x1="15" x2="28" y1="13" y2="26" gradientUnits="userSpaceOnUse"><stop offset="0" stop-color="#292c2f"/><stop offset="1" stop-opacity="0"/></linearGradient><linearGradient id="m" x1="26" x2="26" y1="21" y2="7" gradientUnits="userSpaceOnUse"><stop offset="0" stop-color="#31363b"/><stop offset="1" stop-color="#4d4d4d"/></linearGradient><linearGradient xlink:href="#a" id="f" x1="4" x2="8" y1="19" y2="23" gradientTransform="translate(0 -1)" gradientUnits="userSpaceOnUse"/><linearGradient xlink:href="#a" id="j" x1="4" x2="8" y1="19" y2="23" gradientTransform="translate(0 -8)" gradientUnits="userSpaceOnUse"/><linearGradient id="b"><stop offset="0"/><stop offset="1" stop-opacity="0"/></linearGradient><linearGradient xlink:href="#b" id="k" x1="3.999" x2="8" y1="4" y2="8" gradientUnits="userSpaceOnUse"/><linearGradient id="c" x1="28" x2="28" y1="30" y2="2" gradientUnits="userSpaceOnUse"><stop offset="0" stop-color="#997657"/><stop offset="1" stop-color="#d4ba94"/></linearGradient><linearGradient id="d" x1="44.691" x2="44.691" y1="14.355" y2="12.605" gradientTransform="matrix(.66667 0 0 16 -25.794 -199.679)" gradientUnits="userSpaceOnUse"><stop offset="0" stop-color="#433a35"/><stop offset="1" stop-color="#6c5548"/></linearGradient><linearGradient xlink:href="#b" id="a" x1="432.711" x2="432.711" y1="531.791" y2="544.519" gradientTransform="rotate(-45 -404.503 771.496)" gradientUnits="userSpaceOnUse"/><path fill="url(#c)" d="M4 2h19.975C27 2 28 3 28 6v24H4Z"/><path fill="#232629" d="M4 29h24v1H4z" opacity=".6"/><path fill="url(#d)" d="M4 2v28h4v-1H5v-1h3V2H5z"/><path fill="#c5cfd3" d="M4 28h24v1H4z"/><path fill="#232629" d="M4 27h24v1H4z" opacity=".4"/><path fill="#2ecc71" d="M28 6h2v4h-2z"/><path fill="#2980b9" d="M28 12h2v4h-2z"/><path fill="#da4453" d="M28 18h2v4h-2z"/><circle cx="6" cy="21" r="1" fill="#232629"/><circle cx="6" cy="14" r="1" fill="#232629"/><path fill="url(#f)" d="M6.333 20H4l4 4 1.333-1z" opacity=".2"/><path fill="#7f8c8d" d="M4.5 19A2.5 3 0 0 0 2 22a2.5 3 0 0 0 2 2.938v-1.055A1.5 2 0 0 1 3 22a1.5 2 0 0 1 1.5-2A1.5 2 0 0 1 6 22a1 1 0 0 0 .938-.654A2.5 3 0 0 0 4.5 19"/><path fill="url(#j)" d="M6.333 13H4l4 4 1.332-1z" opacity=".2"/><path fill="#7f8c8d" d="M4.5 12A2.5 3 0 0 0 2 15a2.5 3 0 0 0 2 2.938v-1.055A1.5 2 0 0 1 3 15a1.5 2 0 0 1 1.5-2A1.5 2 0 0 1 6 15a1 1 0 0 0 .938-.654A2.5 3 0 0 0 4.5 12"/><circle cx="6" cy="7" r="1" fill="#232629"/><path fill="url(#k)" d="M6.333 6H4l4 4 1.332-1z" opacity=".2"/><path fill="#7f8c8d" d="M4.5 5A2.5 3 0 0 0 2 8a2.5 3 0 0 0 2 2.938V9.883A1.5 2 0 0 1 3 8a1.5 2 0 0 1 1.5-2A1.5 2 0 0 1 6 8a1 1 0 0 0 .938-.654A2.5 3 0 0 0 4.5 5"/><path fill="url(#l)" d="m11 21 6 6h11V15.753l-7.877-7.876L18 7l-3 3 .877 2.123L18 14.246 15 15l-3 3z" opacity=".2"/><path fill="url(#m)" d="M18 7c-1.662 0-3 1.338-3 3s1.338 3 3 3 3-1.338 3-3-1.338-3-3-3m0 1c1.108 0 2 .892 2 2s-.892 2-2 2-2-.892-2-2 .892-2 2-2m0 6c-3.878 0-7 3.122-7 7h14c0-3.878-3.122-7-7-7m-.049 1H18a5.98 5.98 0 0 1 5.91 5H12.09a5.98 5.98 0 0 1 5.861-5"/></svg>