<svg xmlns="http://www.w3.org/2000/svg" xmlns:xlink="http://www.w3.org/1999/xlink" width="32" height="32"><defs><linearGradient id="c"><stop/><stop offset="1" style="stop-opacity:0"/></linearGradient><linearGradient id="a"><stop style="stop-color:#555753"/><stop offset="1" style="stop-color:#2e3436"/></linearGradient><linearGradient xlink:href="#b" id="d" x2="0" y1="543.8" y2="502.66" gradientTransform="matrix(.66667 0 0 .63518 -256.38 -317.28)" gradientUnits="userSpaceOnUse"/><linearGradient id="b" x2="0" y1="543.8" y2="502.66" gradientTransform="matrix(.66667 0 0 .63518 -256.38 -317.28)" gradientUnits="userSpaceOnUse"><stop offset="0" stop-color="#c6cdd1"/><stop offset="1" stop-color="#e0e5e7"/></linearGradient><linearGradient xlink:href="#b" id="e" x2="0" y1="543.8" y2="502.66" gradientTransform="matrix(.66667 0 0 .63518 -256.38 -317.28)" gradientUnits="userSpaceOnUse"/><linearGradient xlink:href="#c" id="g" x1="9" x2="23" y1="11" y2="25" gradientTransform="translate(383.571 514.398)" gradientUnits="userSpaceOnUse"/><radialGradient xlink:href="#a" id="f" cx="25.641" cy="3.684" r="17.995" gradientTransform="matrix(.58725 0 0 .25689 386.87 526.708)" gradientUnits="userSpaceOnUse"/></defs><g transform="translate(-384.57 -515.8)"><path d="m32 9-1-1L1.123 27l2.432 3H28.8c1.774 0 3.2-1.426 3.2-3.2z" style="fill:url(#d)" transform="translate(384.57 515.8)"/><path d="M3.2 2A3.19 3.19 0 0 0 0 5.2v21.6A3.19 3.19 0 0 0 3.2 30h.355l-2.432-3L31 8l1 1V5.2A3.19 3.19 0 0 0 28.8 2Z" style="fill:url(#e)" transform="translate(384.57 515.8)"/><path d="M387.07 517.8a2.49 2.49 0 0 0-2.5 2.5v1.5h32v-1.5a2.49 2.49 0 0 0-2.5-2.5z" style="fill:#566069"/><path d="M384.57 521.8h32v1h-32z" style="fill:#3daee9"/><rect width="30" height="20" x="385.57" y="523.8" ry="2" style="fill:#fff"/><rect width="2" height="2" x="413.57" y="518.8" rx="1" style="fill:#eff0f1"/></g><path d="M404.571 525.798c-2.844 0-3.377 4.155-1.777 4.155s4.622-4.155 1.777-4.155m-4.38.64q-.068 0-.144.008c-1.612.196-1.045 2.819-.187 2.868.831.047 1.74-2.872.33-2.876zm-2.795.968a.8.8 0 0 0-.329.06c-1.295.51-.197 2.622.529 2.48.658-.128.752-2.481-.2-2.54zm-2.114 1.726a.6.6 0 0 0-.364.127c-1.037.744.349 2.542.959 2.263.534-.244.193-2.363-.595-2.39zm6.124 1.716c-2.246-.037-5.21 1.059-5.716 3.261-.547 2.383 2.254 5.689 5.176 5.689 1.438 0 3.096-1.263 3.406-2.863.237-1.22-2.788-.73-2.68.076.131.968-.729 1.446-1.571.822-2.681-1.985 4.439-2.976 3.969-5.689-.146-.844-1.236-1.274-2.584-1.296" style="fill:url(#f)" transform="translate(-384.571 -515.798)"/><path d="M404.59 525.794c-.4 1.174-1.025 2.254-1.806 3.268l-2.789-2.792-1.286 2.032.123.317.322.317.643.633 1.288 1.267c-.04.038.015.073-.025.11l-.23-.12-3.698-3.699-.619 1.138.372.373-.451.605.18.181.181.181.362.362.724.724 1.448 1.448c-.548-.324-1.548-.561-1.548-.561l-.535-.504-1.135-1.135-.567-.567-.284-.284-.142-.142-.208-.142-.44.8.247.43-.46.37.21.23.109.232.42.463.839.926 1.678 1.85c-.326.187-1.533.377-1.874.557l1.039 2.562 5.893 6.174h12v-7z" style="opacity:.2;fill:url(#g);fill-rule:evenodd" transform="translate(-384.571 -515.798)"/></svg>