<svg xmlns="http://www.w3.org/2000/svg" viewBox="0 0 32 32"><linearGradient id="a" x1="22" x2="22" y1="30" y2="23" gradientTransform="translate(-5.5)" gradientUnits="userSpaceOnUse"><stop offset="0" stop-color="#82868d"/><stop offset="1" stop-color="#d9dada"/></linearGradient><linearGradient id="b" x1="16" x2="16" y1="26" y2="1.412" gradientTransform="matrix(1 0 0 .97607 0 .599)" gradientUnits="userSpaceOnUse"><stop offset="0" stop-color="#f79f06"/><stop offset=".043" stop-color="#eeab32"/><stop offset=".167" stop-color="#e18f00"/><stop offset=".801" stop-color="#f8c468"/><stop offset="1" stop-color="#ffc35a"/></linearGradient><circle cx="16" cy="26.5" r="3.5" fill="url(#a)"/><path fill="url(#b)" d="M16 2c-1.984 0-3.5 1.547-3.5 3.477 0 .166.014.359.043.523C8.928 7.227 8.004 10.528 8 14.264 8 19.144 4 23.048 2 25v1h28v-1c-2-1.952-6-5.856-6-10.736-.004-3.736-.928-7.037-4.543-8.264.029-.164.043-.357.043-.523C19.5 3.547 17.984 2 16 2"/><path d="M2 25h28v1H2zM12.547 5c-.021.157-.047.313-.047.477 0 .166.014.359.043.523h6.914c.029-.164.043-.357.043-.523 0-.164-.026-.32-.047-.477z" opacity=".15"/></svg>