<svg xmlns="http://www.w3.org/2000/svg" xmlns:xlink="http://www.w3.org/1999/xlink" width="32" height="32"><linearGradient id="i" x1="27" x2="27" y1="28" y2="5" gradientUnits="userSpaceOnUse"><stop offset="0" stop-color="#433a35"/><stop offset="1" stop-color="#6c5548"/></linearGradient><linearGradient id="d" x1="31" x2="31" y1="28" y2="5" gradientUnits="userSpaceOnUse"><stop offset="0" stop-color="#6c5548"/><stop offset="1" stop-color="#997657"/></linearGradient><linearGradient id="a"><stop offset="0" stop-color="#292c2f"/><stop offset="1" stop-opacity="0"/></linearGradient><linearGradient xlink:href="#a" id="l" x1="3" x2="10" y1="23" y2="30" gradientUnits="userSpaceOnUse"/><linearGradient xlink:href="#a" id="g" x1="5" x2="17" y1="18" y2="30" gradientUnits="userSpaceOnUse"/><linearGradient id="b"><stop offset="0" stop-color="#172525"/><stop offset="1" stop-color="#334545"/></linearGradient><linearGradient id="q" x1="21" x2="21" y1="29" y2="20" gradientUnits="userSpaceOnUse"><stop offset="0" stop-color="#2980b9"/><stop offset="1" stop-color="#1d99f3"/></linearGradient><linearGradient id="n" x1="23" x2="23" y1="28" y2="6" gradientUnits="userSpaceOnUse"><stop offset="0" stop-color="#997657"/><stop offset="1" stop-color="#bb9d71"/></linearGradient><linearGradient xlink:href="#b" id="m" x1="8" x2="8" y1="23" y2="20" gradientUnits="userSpaceOnUse"/><linearGradient xlink:href="#b" id="h" x1="7.781" x2="7.005" y1="22.743" y2="19.845" gradientUnits="userSpaceOnUse"/><linearGradient xlink:href="#b" id="c" x1="8.813" x2="7.313" y1="22.376" y2="19.778" gradientUnits="userSpaceOnUse"/><linearGradient xlink:href="#b" id="p" x1="27" x2="27" y1="18" y2="13" gradientUnits="userSpaceOnUse"/><linearGradient xlink:href="#b" id="o" x1="20" x2="20" y1="20" y2="17" gradientUnits="userSpaceOnUse"/><linearGradient xlink:href="#b" id="k" x1="28.325" x2="26.772" y1="18.274" y2="12.478" gradientUnits="userSpaceOnUse"/><linearGradient xlink:href="#b" id="j" x1="20.597" x2="19.821" y1="20.344" y2="17.447" gradientUnits="userSpaceOnUse"/><linearGradient xlink:href="#b" id="f" x1="28.268" x2="25.768" y1="18.072" y2="13.742" gradientUnits="userSpaceOnUse"/><linearGradient xlink:href="#b" id="e" x1="21.206" x2="19.706" y1="19.84" y2="17.242" gradientUnits="userSpaceOnUse"/><path fill="url(#c)" d="M6.533 22.75c.769-.268 1.574-.524 1.967-.918.25-.25.375-.541.438-.853C9 20.666 9 20.333 9 20c0 0-3 0-3 1 0 0 0 1 .533 1.75" transform="rotate(30 37.098 13.17)"/><path fill="url(#d)" d="M9.35 4.035c-.167.289-.333.577-.543.817-.21.239-.465.43-.807.521-.538.144-1.362-.037-2.162-.19-.348 1.228-.744 2.127-.356 3.55.732 2.731 2.605 3.434 4.198 4.732 1.592 1.297 3.463 2 5.195 3s1.733.998 2.465 3.73l1.465 5.465 4.695.98A15.3 15.3 0 0 0 26 25a15.3 15.3 0 0 0 3.18-3.566L29 20s-2.465-3.733-1.465-5.465 4.136-9.16 3.27-9.66-3.354 1.142-5.487 1.836-3.288.028-4.404-.04-2.192.464-3.393.542c-1.2.077-2.52-.299-4.914-1.488S9.35 4.035 9.35 4.035" transform="translate(0 1)"/><path fill="url(#e)" d="M19 19.5c-.333-.501.334-1.501 1-2 .667-.5 1.334-.5 1.667-.001s.333 1.497-.334 1.999c-.668.502-1.999.502-2.332.001z" transform="rotate(30 37.098 13.17)"/><path fill="url(#f)" d="M27.5 12.832c.833.167 1.166 2.166.833 3.5s-1.33 2-2.166 1.833S24.667 17 25 15.666c.334-1.334 1.668-3 2.5-2.834" transform="rotate(30 37.098 13.17)"/><path fill="url(#g)" d="M26.916 5.975 27 10l-1 2v5H14.008c.29.152.582.3.867.465 1.732 1 1.733.998 2.465 3.73l1.465 5.465 4.695.98A15.3 15.3 0 0 0 26 26a15.3 15.3 0 0 0 3.18-3.566L29 21s-2.465-3.733-1.465-5.465c.579-1.002 1.858-3.895 2.678-6.265z"/><path fill="url(#h)" d="M6.533 22.75c.769-.268 1.574-.524 1.967-.918.25-.25.375-.541.438-.853C9 20.666 9 20.333 9 20c0 0-3 0-3 1 0 0 0 1 .533 1.75" transform="rotate(15 42.894 3.51)"/><path fill="url(#i)" d="M26.635 4.904c-1.02.036-2.866 2.067-4.63 3.213-1.88 1.222-3.17.878-4.265 1.102s-1.997 1.017-3.136 1.402c-1.14.386-2.513.364-5.133-.166s-3.584-.789-3.584-.789c-.087.322-.172.644-.313.93a1.6 1.6 0 0 1-.644.71c-.482.28-1.325.317-2.137.378-.018 1.275-.167 2.246.576 3.52 1.414 2.449 3.403 2.642 5.277 3.483s3.864 1.036 5.795 1.553c1.932.518 1.932.518 3.346 2.967l3.043 4.54A15.3 15.3 0 0 0 26 25a15.3 15.3 0 0 0 3.18-3.566L29 20s-3.346-2.967-2.828-4.898c.518-1.932 1.622-9.92.656-10.178a.7.7 0 0 0-.193-.02" transform="translate(0 1)"/><path fill="url(#j)" d="M19 19.5c-.333-.501.334-1.501 1-2 .667-.5 1.334-.5 1.667-.001s.333 1.497-.334 1.999c-.668.502-1.999.502-2.332.001z" transform="rotate(15 42.894 3.51)"/><path fill="url(#k)" d="M27.5 12.832c.833.167 1.166 2.166.833 3.5s-1.33 2-2.166 1.833S24.667 17 25 15.666c.334-1.334 1.668-3 2.5-2.834" transform="rotate(15 42.894 3.51)"/><path fill="url(#l)" d="M23.2 7.102V23h-6.132c.205.327.42.688.72 1.207l.599.895.418 1.558.728.153 1.297 1.933A15.3 15.3 0 0 0 26 26a15.3 15.3 0 0 0 3.18-3.566L29 21s-2.465-3.733-1.465-5.465c.3-.52.797-1.575 1.317-2.781l-5.026-5.025-.002.001z"/><path fill="url(#m)" d="M6.533 22.75c.769-.268 1.574-.524 1.967-.918.25-.25.375-.541.438-.853C9 20.666 9 20.333 9 20c0 0-3 0-3 1 0 0 0 1 .533 1.75" transform="translate(-5 -3)"/><path fill="url(#n)" d="M23 6c-1 0-2.332 2.665-3.832 4.332S16.334 12 15.334 12.5s-1.667 1.499-2.668 2.166-2.331 1.001-5 1.168S4 16 4 16c0 .333 0 .666-.063.979a1.6 1.6 0 0 1-.437.853c-.393.394-1.198.65-1.967.918.313 1.237.42 2.213 1.467 3.25 2 2 3.972 1.673 6 2s4 0 6 0 2 0 4 2l1.766 1.766A15.3 15.3 0 0 0 26 25a15.3 15.3 0 0 0 4-5s-5-2-5-4-1-10-2-10" transform="translate(0 1)"/><path fill="url(#o)" d="M19 19.5c-.333-.501.334-1.501 1-2 .667-.5 1.334-.5 1.667-.001s.333 1.497-.334 1.999c-.668.502-1.999.502-2.332.001z" transform="translate(-5 -3)"/><path fill="url(#p)" d="M27.5 12.832c.833.167 1.166 2.166.833 3.5s-1.33 2-2.166 1.833S24.667 17 25 15.666c.334-1.334 1.668-3 2.5-2.834" transform="translate(-5 -3)"/><path fill="url(#q)" d="M28 20a15.3 15.3 0 0 1-4 5 15.3 15.3 0 0 1-4.47 2.53l1.236 1.236A15.3 15.3 0 0 0 26 26a15.3 15.3 0 0 0 4-5z"/></svg>