<svg xmlns="http://www.w3.org/2000/svg" xmlns:xlink="http://www.w3.org/1999/xlink" width="32" height="32"><linearGradient xlink:href="#a" id="b" x1="-27.898" x2="-7.898" y1="3.831" y2="23.831" gradientUnits="userSpaceOnUse"/><linearGradient xlink:href="#a" id="c" x1="-10.898" x2="-3.898" y1="10.831" y2="17.831" gradientUnits="userSpaceOnUse"/><linearGradient id="d" x1="-31.898" x2="-31.898" y1="27.831" y2="-.169" gradientUnits="userSpaceOnUse"><stop offset="0" stop-color="#a5a5a5"/><stop offset="1" stop-color="#f5f2f5"/></linearGradient><linearGradient id="a"><stop offset="0" stop-color="#292c2f"/><stop offset="1" stop-opacity="0"/></linearGradient><linearGradient xlink:href="#a" id="e" x1="13" x2="24" y1="15" y2="26" gradientUnits="userSpaceOnUse"/><linearGradient id="f" x1="399.571" x2="399.571" y1="538.798" y2="524.798" gradientUnits="userSpaceOnUse"><stop offset="0" stop-color="#ffd42a"/><stop offset="1" stop-color="#ffdf62"/></linearGradient><g transform="translate(33.898 2.17)"><rect width="28" height="28" x="-31.898" y="-.169" fill="#4f575f" rx="14"/><path fill="url(#b)" fill-rule="evenodd" d="m-15.304.079-2.975.38-4.135 2.388-1.502 2.6s-1.973 1.39-2.271 1.31c-2.517-.028-3.87.666-4.58 1.549-.301.703-.537 1.44-.72 2.197-.006.76.16 1.35.16 1.35 7.06 6.358 14.122 9.098 21.183 13.644a14 14 0 0 0 1.275-.96l.069-.06q.54-.462 1.029-.978.106-.115.21-.232a14 14 0 0 0 1.749-2.375l.055-.09a14 14 0 0 0 1.824-6.282l.002-.02v-.001L-5.755 6.86a13.95 13.95 0 0 0-9.55-6.783z" opacity=".2"/><path fill="url(#c)" fill-rule="evenodd" d="m-4.886 8.673-4.307 6.66 4.12 4.12a14 14 0 0 0 .187-10.78" opacity=".2"/><path fill="url(#d)" d="M-17.898-.17a14 14 0 0 0-13.06 9h.06l3-1 1 1 1 1v-2l2-1v-1l2-1 2-2v1l1-1-1-1h2v1l2-1-1-1v-.95a14 14 0 0 0-1-.05m10.375 4.626-.375.375v1h1.469a14 14 0 0 0-1.094-1.375m1.316 1.684-.691.69-2 2-1 1-1 3v1l1 1 1 1 2 1 2.79-.687a14 14 0 0 0 .21-2.312 14 14 0 0 0-2.31-7.691zm-23.691 4.69-1 1h-.838q-.075.51-.113 1.024v.002l1.95.975 1 1 2 1 1 1-1 1v2l1 2 2 2v2.629a14 14 0 0 0 6 1.37q.255-.003.51-.017l.49-.982v-1l2-1 1-1v-2l1-1v-1l-1-1-3-1-1-1-1-1h-1l-1-1-3-1-2 1h-2v-2h-1v-2z"/></g><g fill-rule="evenodd"><path fill="url(#e)" d="m19 15-7 2 3 3v3l6.05 6.05a13.97 13.97 0 0 0 6.65-5.35z" opacity=".2"/><path fill="url(#f)" d="m400.571 524.798-4 8h3v6l4-8h-3z" transform="translate(-384.571 -515.798)"/></g><path fill="#292c2f" d="M29.979 15.414A14 14 0 0 1 16 29 14 14 0 0 1 2.021 15.586 14 14 0 0 0 2 16a14 14 0 0 0 14 14 14 14 0 0 0 14-14 14 14 0 0 0-.021-.586" opacity=".3"/></svg>