<svg xmlns="http://www.w3.org/2000/svg" xmlns:xlink="http://www.w3.org/1999/xlink" width="32" height="32"><defs><linearGradient id="a"><stop style="stop-color:#197cf1"/><stop offset="1" style="stop-color:#20bcfa"/></linearGradient><linearGradient xlink:href="#a" id="d" x2="0" y1="545.798" y2="517.798" gradientUnits="userSpaceOnUse"/><linearGradient id="b"><stop style="stop-color:#383e51"/><stop offset="1" style="stop-color:#655c6f;stop-opacity:0"/></linearGradient><linearGradient xlink:href="#b" id="f" x1="393.571" x2="407.571" y1="524.798" y2="538.798" gradientTransform="translate(-384.571 -515.798)" gradientUnits="userSpaceOnUse"/><linearGradient id="c"><stop style="stop-color:#7cbaf8"/><stop offset="1" style="stop-color:#f4fcff"/></linearGradient><linearGradient xlink:href="#c" id="e" x2="0" y1="538.798" y2="524.798" gradientUnits="userSpaceOnUse"/></defs><g transform="translate(-384.571 -515.798)"><rect width="28" height="28" x="386.571" y="517.798" rx="14" style="fill:url(#d)"/><path d="m404.571 528.796-3.998-3.998h-1.002v4.994l-3.293-3.295-.707.707 4 4v1.188l-4 4 .707.707 3.293-3.295v4.994h1.002l3.998-3.998v-.004l-2.998-2.998 2.998-2.998v-.004m-1.412.002-2.29 2.29-.298-.296v-4.582zm0 6-2.588 2.588v-4.582l.297-.297z" style="fill:url(#e)"/><path d="m20 12.998-2.996 3L20.002 19 16 23h-1v-4.994L11.707 21.3l8.152 8.152a13.96 13.96 0 0 0 8.9-7.695zm-3.703 3.711-.297.297v4.582L18.588 19z" style="fill:url(#f);opacity:.2;fill-rule:evenodd" transform="translate(384.571 515.798)"/></g></svg>