<svg xmlns="http://www.w3.org/2000/svg" xmlns:xlink="http://www.w3.org/1999/xlink" width="32" height="32"><linearGradient id="a"><stop offset="0" stop-color="#292c2f"/><stop offset="1" stop-opacity="0"/></linearGradient><linearGradient id="b" x1="16" x2="16" y1="30" y2="2" gradientUnits="userSpaceOnUse"><stop offset="0" stop-color="#2a2c2f"/><stop offset="1" stop-color="#424649"/></linearGradient><linearGradient id="g" x1="16" x2="16" y1="28" y2="4" gradientUnits="userSpaceOnUse"><stop offset="0" stop-color="#1d99f3"/><stop offset="1" stop-color="#3daee9"/></linearGradient><linearGradient xlink:href="#a" id="c" x1="3" x2="17" y1="3" y2="17" gradientUnits="userSpaceOnUse"/><linearGradient xlink:href="#a" id="d" x1="17" x2="31" y1="3" y2="17" gradientUnits="userSpaceOnUse"/><linearGradient xlink:href="#a" id="e" x1="17" x2="31" y1="17" y2="31" gradientUnits="userSpaceOnUse"/><linearGradient xlink:href="#a" id="f" x1="3" x2="17" y1="17" y2="31" gradientUnits="userSpaceOnUse"/><linearGradient id="k" x1="16" x2="16" y1="28" y2="4" gradientUnits="userSpaceOnUse"><stop offset="0" stop-color="#eff0f1"/><stop offset="1" stop-color="#fcfcfc"/></linearGradient><linearGradient xlink:href="#a" id="h" x1="16" x2="26" y1="9" y2="19" gradientUnits="userSpaceOnUse"/><linearGradient xlink:href="#a" id="j" x1="16" x2="23" y1="23" y2="30" gradientUnits="userSpaceOnUse"/><linearGradient xlink:href="#a" id="i" x1="9" x2="15" y1="16" y2="22" gradientUnits="userSpaceOnUse"/><rect width="28" height="28" x="2" y="2" fill="url(#b)" rx="1"/><path fill="url(#c)" d="m15 3 2 2v12H5l-2-2V3z" opacity=".2"/><path fill="url(#d)" d="m29 3 1 1v13H19l-2-2V3z" opacity=".2"/><path fill="url(#e)" d="M17 17v12l1 1h10c1.108 0 2-.892 2-2V18l-1-1z" opacity=".2"/><path fill="url(#f)" d="m15 17 2 2v11H4l-1-1V17z" opacity=".2"/><path fill="url(#g)" d="M3 17h12v12H3zm14 0h12v12H17zm0-14h12v12H17zM3 3h12v12H3z"/><path fill="url(#h)" d="m25 9 5 5v8.172l-6.586-6.586L23 16H9V9z" opacity=".2"/><path fill="url(#i)" d="M8.586 16.414 15.172 23H23v-7H9z" opacity=".2"/><path fill="url(#j)" d="m11 22-1-1-3 2 7 7h16v-7.828l-6.586-6.586L23 16v7H12z" opacity=".2"/><path fill="url(#k)" d="M22 7v1H10a1.99 1.99 0 0 0-1.566.756A2 2 0 0 0 8 10v5a2 2 0 0 0 .03.34 2 2 0 0 0 .187.566A2 2 0 0 0 10 17h11a1 1 0 0 1 .49.13 1 1 0 0 1 .194.142A1 1 0 0 1 22 18v3a1 1 0 0 1-1 1H10v-1l-3 2 3 2v-1h12a2 2 0 0 0 1.436-.607 2 2 0 0 0 .492-.858A2 2 0 0 0 24 22v-5a2 2 0 0 0-.03-.34 2 2 0 0 0-.187-.566A2 2 0 0 0 22 15H11a1 1 0 0 1-.49-.13 1 1 0 0 1-.194-.142A1 1 0 0 1 10 14v-3a1 1 0 0 1 1-1h11v1l3-2z"/><path fill="#17181b" d="M2 28v1c0 .554.446 1 1 1h26c.554 0 1-.446 1-1v-1c0 .554-.446 1-1 1H3c-.554 0-1-.446-1-1"/></svg>