<svg xmlns="http://www.w3.org/2000/svg" xmlns:xlink="http://www.w3.org/1999/xlink" width="32" height="32"><linearGradient id="f" x1="6.099" x2="6.099" y1="24.845" y2="8.511" gradientUnits="userSpaceOnUse"><stop offset="0" stop-color="#ffd42a"/><stop offset="1" stop-color="#ffdf62"/></linearGradient><linearGradient xlink:href="#a" id="e" x1="11" x2="25" y1="11" y2="25" gradientUnits="userSpaceOnUse"/><linearGradient xlink:href="#a" id="b" x1="6" x2="26" y1="6" y2="26" gradientUnits="userSpaceOnUse"/><linearGradient id="a"><stop offset="0" stop-color="#292c2f"/><stop offset="1" stop-opacity="0"/></linearGradient><linearGradient xlink:href="#a" id="c" x1="23" x2="30" y1="13" y2="20" gradientUnits="userSpaceOnUse"/><linearGradient id="d" x1="2" x2="2" y1="30" y2="2" gradientUnits="userSpaceOnUse"><stop offset="0" stop-color="#a5a5a5"/><stop offset="1" stop-color="#f5f2f5"/></linearGradient><rect width="28" height="28" x="2" y="2" fill="#4f575f" rx="14"/><path fill="url(#b)" fill-rule="evenodd" d="m18.594 2.248-2.975.38-4.135 2.388-1.502 2.601s-1.973 1.39-2.271 1.31c-2.517-.029-3.869.665-4.58 1.548-.301.703-.537 1.44-.72 2.197-.006.76.161 1.351.161 1.351 7.06 6.357 14.121 9.097 21.182 13.643a14 14 0 0 0 1.275-.959l.069-.06q.54-.463 1.029-.979.107-.115.21-.232a14 14 0 0 0 1.749-2.375l.055-.09a14 14 0 0 0 1.824-6.282l.002-.02v-.001L28.143 9.03a13.95 13.95 0 0 0-9.55-6.783z" opacity=".2"/><path fill="url(#c)" fill-rule="evenodd" d="m29.012 10.842-4.307 6.66 4.12 4.12a14 14 0 0 0 .187-10.78" opacity=".2"/><path fill="url(#d)" d="M16 2a14 14 0 0 0-13.059 9H3l3-1 1 1 1 1v-2l2-1V8l2-1 2-2v1l1-1-1-1h2v1l2-1-1-1v-.95A14 14 0 0 0 16 2m10.375 4.625L26 7v1h1.469a14 14 0 0 0-1.094-1.375m1.316 1.684L27 9l-2 2-1 1-1 3v1l1 1 1 1 2 1 2.791-.688A14 14 0 0 0 30 16a14 14 0 0 0-2.309-7.691M4 13l-1 1h-.838q-.075.51-.113 1.023v.002L4 16l1 1 2 1 1 1-1 1v2l1 2 2 2v2.629A14 14 0 0 0 16 30q.255-.005.51-.018L17 29v-1l2-1 1-1v-2l1-1v-1l-1-1-3-1-1-1-1-1h-1l-1-1-3-1-2 1H6v-2H5v-2z"/><path fill="#292c2f" d="M29.979 15.414A14 14 0 0 1 16 29 14 14 0 0 1 2.021 15.586 14 14 0 0 0 2 16a14 14 0 0 0 14 14 14 14 0 0 0 14-14 14 14 0 0 0-.021-.586" opacity=".3"/><g fill-rule="evenodd"><circle cx="16" cy="16" r="7" fill="#4f575f"/><path fill="url(#e)" d="M16 9a7 7 0 0 0-7 7 7 7 0 0 0 2.053 4.947l-.002.002L20.1 30H30v-9.893l-8.922-8.921A7 7 0 0 0 16 9" opacity=".2"/><path fill="url(#f)" d="M15 9v6h2V9zm-1 .295A7 7 0 0 0 9 16a7 7 0 0 0 7 7 7 7 0 0 0 7-7 7 7 0 0 0-5-6.701v1.053A6 6 0 0 1 22 16a6 6 0 0 1-6 6 6 6 0 0 1-6-6 6 6 0 0 1 4-5.65z"/></g></svg>