<svg xmlns="http://www.w3.org/2000/svg" xmlns:xlink="http://www.w3.org/1999/xlink" width="32" height="32"><defs><linearGradient id="a"><stop style="stop-color:#197cf1"/><stop offset="1" style="stop-color:#20bcfa"/></linearGradient><linearGradient xlink:href="#a" id="d" x2="0" y1="545.798" y2="517.798" gradientUnits="userSpaceOnUse"/><linearGradient id="b"><stop style="stop-color:#7cbaf8"/><stop offset="1" style="stop-color:#f4fcff"/></linearGradient><linearGradient xlink:href="#b" id="f" x2="0" y1="23" y2="9" gradientUnits="userSpaceOnUse"/><linearGradient id="c"><stop style="stop-color:#383e51"/><stop offset="1" style="stop-color:#655c6f;stop-opacity:0"/></linearGradient><linearGradient xlink:href="#c" id="e" x1="393.571" x2="407.571" y1="524.798" y2="538.798" gradientTransform="translate(-384.571 -515.798)" gradientUnits="userSpaceOnUse"/></defs><g transform="translate(-384.571 -515.798)"><rect width="28" height="28" x="386.571" y="517.798" rx="14" style="fill:url(#d)"/><path d="M16 9q.327 0 .635.063h.004c.205.037.4.098.591.17L17 9zm0 1a2.493 2.493 0 0 0-2.5 2.5c0 1.385 1.115 2.5 2.5 2.5a2.48 2.48 0 0 0 1.545-.545L16 16l-1.113 1.113c-.32.062-.632.142-.932.25h-.002q-.334.142-.666.287c-.068.031-.132.068-.2.1a6 6 0 0 0-1.51 1.2l-.003.001a6 6 0 0 0-.918 1.322q-.014.03-.027.059-.106.209-.193.426-.03.077-.057.156-.07.183-.129.371-.022.083-.043.168a6 6 0 0 0-.094.387l-.008.055L9 23l7 7h14V20l-1 1-9-9-.732-.73c.071.19.132.386.17.591v.004c.037.207.062.417.062.635l-1.545 1.545A2.48 2.48 0 0 0 18.5 12.5c0-1.385-1.115-2.5-2.5-2.5" style="fill:url(#e);opacity:.2;fill-rule:evenodd" transform="translate(384.571 515.798)"/><path d="M16 9a3.49 3.49 0 0 0-3.5 3.5c0 1.939 1.561 3.5 3.5 3.5s3.5-1.561 3.5-3.5S17.939 9 16 9m0 7c-3.878 0-7 3.122-7 7h10v-1h-8.91A5.98 5.98 0 0 1 16 17c1.146 0 2.2.34 3.105.895l.745-.745A6.98 6.98 0 0 0 16 16m0-6c1.385 0 2.5 1.115 2.5 2.5S17.385 15 16 15a2.495 2.495 0 0 1-2.5-2.5c0-1.385 1.115-2.5 2.5-2.5m6 6c-.554 0-1 .446-1 1s.446 1 1 1 1-.446 1-1-.446-1-1-1m-1 3v4h2v-4z" style="fill:url(#f)" transform="translate(384.571 515.798)"/></g></svg>