<svg xmlns="http://www.w3.org/2000/svg" xmlns:xlink="http://www.w3.org/1999/xlink" viewBox="0 0 32 32"><defs><linearGradient id="a" x1="370.22" x2="370.03" y1="509.64" y2="479.76" gradientTransform="translate(55.171 70.016)scale(.93333)" gradientUnits="userSpaceOnUse"><stop offset="0" stop-color="#197cf1"/><stop offset="1" stop-color="#21c9fb"/></linearGradient><linearGradient id="d" x2="0" y1="532.79" y2="514.8" gradientTransform="matrix(1.4173 0 0 1.4172 -177.73 -210.24)" gradientUnits="userSpaceOnUse"><stop offset="0" stop-color="#7cbaf8"/><stop offset="1" stop-color="#f4fcff"/></linearGradient><linearGradient id="c" x1="24.263" x2="37.703" y1="26.227" y2="39.259" gradientTransform="matrix(.77562 0 0 .79718 380.45 509.32)" gradientUnits="userSpaceOnUse"><stop offset="0" stop-color="#292c2f"/><stop offset="1" stop-color="#292c2f" stop-opacity="0"/></linearGradient></defs><g transform="translate(-384.57 -515.8)"><circle cx="400.57" cy="531.8" r="14" fill="url(#a)"/><path fill="#fff" d="M399.94 534.47c-.633-.278-1.817-.259-2.367-.025-1.8.767-4.038.21-4.01-1.52.024-1.564.548-2.154 2.292-3.221 1.347-1.09 1.825-1.495 2.697-1.453 1.223.06 1.68.56 2.598 1.453 1.535.986 2.547 1.435 2.472 3.022-.037 1.894-2.367 2.17-3.682 1.744z" opacity=".69"/><path id="b" fill="#fff" stroke-width=".621" d="M398.46 527.74c-.506-.029-.936-.438-.964-1.064-.025-.576.053-1.167.635-1.688.112-1.254.181-1.198.547-2.372.225 1.205.264 1.431.277 2.382.504.362.624.82.556 1.522-.058.6-.424 1.218-1.051 1.22" opacity=".69"/><g fill="#fff" stroke-width="1.033"><use xlink:href="#b" width="100%" height="100%" transform="translate(-4.712 2.53)"/><use xlink:href="#b" width="100%" height="100%" transform="translate(-2.404 .666)"/><use xlink:href="#b" width="100%" height="100%" transform="matrix(-1 0 0 1 799.53 .965)"/><use xlink:href="#b" width="100%" height="100%" transform="matrix(-1 0 0 1 801.79 2.586)"/></g><path fill="url(#c)" d="m404.57 521.3 2.18 5.32-.634 6.487-2.475 3.314-4.78 1.582-8.291-2.703 10.5 10.5c5.899-.018 13.459-7.541 13.5-14.5z" opacity=".2"/><path fill="url(#d)" d="M398.49 519.35c-5.476 0-9.915 4.44-9.915 9.915 0 5.476 4.439 9.915 9.915 9.915a9.9 9.9 0 0 0 5.929-1.983l4.483 4.6 2.002-2.002-4.483-4.6a9.9 9.9 0 0 0 1.984-5.93c0-5.476-4.44-9.915-9.915-9.915m0 2.833a7.08 7.08 0 0 1 7.082 7.082 7.067 7.067 0 0 1-7.083 7.083 7.08 7.08 0 0 1-7.083-7.082c0-4.409 3.107-7.082 7.083-7.082"/></g></svg>