<svg xmlns="http://www.w3.org/2000/svg" xmlns:xlink="http://www.w3.org/1999/xlink" width="32" height="32"><linearGradient id="b" x2="0" y1="545.798" y2="517.798" gradientUnits="userSpaceOnUse"><stop offset="0" stop-color="#197cf1"/><stop offset="1" stop-color="#20bcfa"/></linearGradient><linearGradient id="a"><stop offset="0" stop-color="#7cbaf8"/><stop offset="1" stop-color="#f4fcff"/></linearGradient><linearGradient xlink:href="#a" id="d" x2="0" y1="23" y2="9" gradientUnits="userSpaceOnUse"/><linearGradient xlink:href="#a" id="e" x1="-21" x2="-21" y1="23" y2="9" gradientTransform="matrix(.5 0 0 1 395.071 515.798)" gradientUnits="userSpaceOnUse"/><linearGradient id="c" x1="9" x2="23" y1="9" y2="23" gradientUnits="userSpaceOnUse"><stop offset="0" stop-color="#292c2f"/><stop offset="1" stop-opacity="0"/></linearGradient><g transform="translate(-384.571 -515.798)"><rect width="28" height="28" x="386.571" y="517.798" fill="url(#b)" rx="14"/><path fill="url(#c)" d="M16 8.996 14 10l-1 2 .285 2.715L16 16l-3 1-3 3-1 3 7 7c6.09 0 11.23-3.856 13.166-9.264L18.215 9.786z" opacity=".2" transform="translate(384.571 515.798)"/><path fill="url(#d)" d="M16 9c-1.939 0-3.5 1.561-3.5 3.5S14.061 16 16 16s3.5-1.561 3.5-3.5S17.939 9 16 9m0 7c-3.878 0-7 3.122-7 7h8v-1h-6.91A5.98 5.98 0 0 1 16 17c.359 0 .707.038 1.045.104l.26-.973A6.7 6.7 0 0 0 16 16m0-6c1.385 0 2.5 1.115 2.5 2.5S17.385 15 16 15s-2.5-1.115-2.5-2.5S14.615 10 16 10" transform="translate(384.571 515.798)"/><g fill="url(#e)" stroke-width=".707"><path d="M406.571 532.798v6h1v-6z"/><path d="M402.571 537.798h6v-1h-6zm0-3h6v-1h-6z"/><path d="M403.571 532.798v6h1v-6z"/></g></g><path fill="#292c2f" fill-rule="evenodd" d="M29.979 15.414A14 14 0 0 1 16 29 14 14 0 0 1 2.021 15.586 14 14 0 0 0 2 16a14 14 0 0 0 14 14 14 14 0 0 0 14-14 14 14 0 0 0-.021-.586" opacity=".2"/></svg>