<svg xmlns="http://www.w3.org/2000/svg" xmlns:xlink="http://www.w3.org/1999/xlink" width="32" height="32"><defs><linearGradient id="a"><stop style="stop-color:#566069"/><stop offset="1" style="stop-color:#18222a"/></linearGradient><linearGradient id="c"><stop style="stop-color:#253440"/><stop offset="1" style="stop-color:#566069;stop-opacity:.463277"/></linearGradient><linearGradient id="b"><stop style="stop-color:#18222a"/><stop offset="1" style="stop-color:#566069"/></linearGradient><linearGradient id="d"><stop style="stop-color:#197cf1"/><stop offset="1" style="stop-color:#21c9fb"/></linearGradient><linearGradient xlink:href="#c" id="h" x2="0" y1="543.798" y2="539.798" gradientTransform="matrix(2 0 0 2 -392.573 -539.798)" gradientUnits="userSpaceOnUse"/><linearGradient xlink:href="#c" id="i" x2="0" y1="543.798" y2="539.798" gradientTransform="matrix(2 0 0 2 -366.573 -539.798)" gradientUnits="userSpaceOnUse"/><linearGradient xlink:href="#d" id="k" x1="20" x2="8" y1="19" y2="10" gradientTransform="matrix(2 0 0 2 378.571 489.298)" gradientUnits="userSpaceOnUse"/><linearGradient xlink:href="#e" id="j" x1="9" x2="23" y1="9" y2="23" gradientTransform="matrix(2 0 0 2 378.571 488.798)" gradientUnits="userSpaceOnUse"/><linearGradient id="e"><stop style="stop-color:#292c2f"/><stop offset="1" style="stop-opacity:0"/></linearGradient><linearGradient xlink:href="#b" id="g" x2="0" y1="543.798" y2="519.798" gradientTransform="matrix(2 0 0 2 -392.573 -539.798)" gradientUnits="userSpaceOnUse"/><radialGradient xlink:href="#a" id="f" cx="400.571" cy="531.798" r="14" gradientTransform="matrix(2 0 0 2 -392.573 -539.8)" gradientUnits="userSpaceOnUse"/></defs><g transform="translate(-204 -266.045)scale(.53846)"><rect width="52" height="52" x="382.571" y="497.798" rx="2" style="fill:url(#f);stroke-width:2;stroke-linejoin:round"/><rect width="48" height="48" x="384.571" y="499.798" rx="1" style="fill:url(#g);stroke-width:2;stroke-linejoin:round"/><rect width="22" height="8" x="384.571" y="539.798" rx="0" style="fill:#83878a;stroke-width:2;stroke-linejoin:round"/><rect width="22" height="8" x="410.571" y="539.798" rx="0" style="fill:#83878a;stroke-width:2;stroke-linejoin:round"/><rect width="22" height="2" x="384.571" y="545.798" rx="0" style="fill:url(#h);stroke-width:2;stroke-linejoin:round"/><rect width="22" height="2" x="410.571" y="545.798" rx="0" style="fill:url(#i);stroke-width:2;stroke-linejoin:round"/><path d="m407.509 510.548-2.938.25h-2l-2 4 4 4v14l17 17h13v-14.865z" style="opacity:.2;fill:url(#j);fill-rule:evenodd"/><path d="M404.571 509.298a4 4 0 0 0-4 4 4 4 0 0 0 3 3.871v-2.144a2 2 0 0 1-1-1.727 2 2 0 0 1 2-2 2 2 0 0 1 2 2 2 2 0 0 1-.02.27l1.688 1.312a4 4 0 0 0 .332-1.582 4 4 0 0 0-4-4zm0 4 .012 19.5 5.989-8h9z" style="fill:url(#k);stroke-width:2;stroke-linejoin:round"/></g></svg>