<svg xmlns="http://www.w3.org/2000/svg" xmlns:xlink="http://www.w3.org/1999/xlink" width="32" height="32"><defs><linearGradient id="c"><stop style="stop-color:#2f3943"/><stop offset="1" style="stop-color:#808c9b"/></linearGradient><linearGradient id="b"><stop style="stop-color:#2f3943"/><stop offset="1" style="stop-color:#4d5662"/></linearGradient><linearGradient id="a"><stop style="stop-color:#18222a"/><stop offset="1" style="stop-color:#566069"/></linearGradient><linearGradient xlink:href="#a" id="f" x2="0" y1="545.798" y2="517.798" gradientUnits="userSpaceOnUse"/><linearGradient xlink:href="#b" id="i" x2="0" y1="541.798" y2="521.798" gradientUnits="userSpaceOnUse"/><linearGradient xlink:href="#c" id="g" x2="0" y1="541.798" y2="521.798" gradientUnits="userSpaceOnUse"/><linearGradient id="d"><stop style="stop-color:#197cf1"/><stop offset="1" style="stop-color:#21c9fb"/></linearGradient><linearGradient xlink:href="#d" id="j" x2="0" y1="522.798" y2="527.798" gradientUnits="userSpaceOnUse"/><linearGradient xlink:href="#d" id="k" x2="0" y1="518.798" y2="520.798" gradientUnits="userSpaceOnUse"/><linearGradient xlink:href="#e" id="h" x1="11" x2="22" y1="13" y2="24" gradientUnits="userSpaceOnUse"/><linearGradient id="e"><stop style="stop-color:#292c2f"/><stop offset="1" style="stop-opacity:0"/></linearGradient></defs><g transform="translate(-384.571 -515.798)"><rect width="28" height="28" x="386.572" y="517.798" rx="14" ry="14" style="fill:url(#f)"/><rect width="24" height="24" x="388.572" y="519.798" rx="12" ry="12" style="fill:url(#g)"/><path d="M22 8 8 22l8 8c7.756 0 14-6.244 14-14z" style="fill:url(#h);opacity:.2;fill-rule:evenodd" transform="translate(384.571 515.798)"/><rect width="20" height="20" x="390.572" y="521.798" rx="10" ry="10" style="fill:url(#i)"/><rect width="2" height="5" x="399.571" y="522.798" rx="1" style="fill:url(#j)"/><circle cx="400.571" cy="519.798" r="1" style="fill:url(#k)"/><circle cx="531.798" cy="-412.571" r="1" style="fill:#26333a" transform="rotate(90)"/><circle cx="531.798" cy="-388.571" r="1" style="fill:#26333a" transform="rotate(90)"/><circle cx="660.836" cy="-93.006" r="1" style="fill:#26333a" transform="rotate(60)"/><circle cx="660.836" cy="-69.006" r="1" style="fill:#26333a" transform="rotate(60)"/><circle cx="612.804" cy="248.265" r="1" style="fill:#26333a" transform="rotate(30)"/><circle cx="81.006" cy="648.836" r="1" style="fill:#26333a" transform="rotate(-30)"/><circle cx="-260.265" cy="600.804" r="1" style="fill:#26333a" transform="rotate(-60)"/><circle cx="-260.265" cy="624.804" r="1" style="fill:#26333a" transform="rotate(-60)"/></g></svg>