<svg xmlns="http://www.w3.org/2000/svg" xmlns:xlink="http://www.w3.org/1999/xlink" width="32" height="32"><defs><linearGradient id="a"><stop style="stop-color:#42a603"/><stop offset="1" style="stop-color:#78da06"/></linearGradient><linearGradient xlink:href="#a" id="d" x2="0" y1="545.798" y2="517.798" gradientUnits="userSpaceOnUse"/><linearGradient xlink:href="#b" id="f" x2="0" y1="538.798" y2="524.798" gradientTransform="translate(-384.571 -515.798)" gradientUnits="userSpaceOnUse"/><linearGradient id="b"><stop style="stop-color:#bcfd93"/><stop offset="1" style="stop-color:#fafff5"/></linearGradient><linearGradient xlink:href="#c" id="e" x1="9" x2="23" y1="9" y2="23" gradientUnits="userSpaceOnUse"/><linearGradient id="c"><stop style="stop-color:#383e51"/><stop offset="1" style="stop-color:#655c6f;stop-opacity:0"/></linearGradient></defs><g transform="translate(-384.571 -515.798)"><circle cx="400.571" cy="531.798" r="14" style="fill:url(#d)"/><path d="M14 9v6l11.375 11.375A14 14 0 0 0 30 16l-7-7zm-1 6-4 6 8.86 8.86a14 14 0 0 0 6.984-3.016z" style="fill:url(#e);opacity:.2;fill-rule:evenodd" transform="translate(384.571 515.798)"/><path d="M14 9v6h6v3l3-3V9zm1 1h7v4h-7zm-2.5 5-.5.4-2 1.666V17H9v4h1v-.066l2 1.666.5.4h.5v-8z" style="stroke-opacity:.550265;fill:url(#f);stroke-width:2.8" transform="translate(384.571 515.798)"/></g></svg>