<svg xmlns="http://www.w3.org/2000/svg" xmlns:xlink="http://www.w3.org/1999/xlink" width="32" height="32"><defs><linearGradient xlink:href="#a" id="g" x2="0" y1="543.8" y2="502.66" gradientTransform="matrix(.66667 0 0 .63518 -256.38 -317.28)" gradientUnits="userSpaceOnUse"/><linearGradient id="a" x2="0" y1="543.8" y2="502.66" gradientTransform="matrix(.66667 0 0 .63518 -256.38 -317.28)" gradientUnits="userSpaceOnUse"><stop offset="0" stop-color="#c6cdd1"/><stop offset="1" stop-color="#e0e5e7"/></linearGradient><linearGradient xlink:href="#a" id="h" x2="0" y1="543.8" y2="502.66" gradientTransform="matrix(.66667 0 0 .63518 -256.38 -317.28)" gradientUnits="userSpaceOnUse"/><linearGradient xlink:href="#d" id="k" x1="8" x2="8" y1="25" y2="11" gradientUnits="userSpaceOnUse"/><linearGradient xlink:href="#f" id="j" x1="11" x2="25" y1="14" y2="28" gradientTransform="translate(.05 -.018)" gradientUnits="userSpaceOnUse"/><linearGradient xlink:href="#d" id="l" x1="8" x2="8" y1="25" y2="11" gradientUnits="userSpaceOnUse"/><linearGradient xlink:href="#d" id="m" x1="8" x2="8" y1="25" y2="11" gradientUnits="userSpaceOnUse"/></defs><linearGradient id="d" x1="8" x2="8" y1="25" y2="11" gradientUnits="userSpaceOnUse"><stop offset="0" stop-color="#2e3436"/><stop offset="1" stop-color="#555753"/></linearGradient><linearGradient id="f"><stop offset="0"/><stop offset="1" stop-opacity="0"/></linearGradient><linearGradient xlink:href="#f" id="i" x1="11" x2="25" y1="14" y2="28" gradientUnits="userSpaceOnUse"/><g transform="translate(-384.57 -515.8)"><path d="m32 9-1-1L1.123 27l2.432 3H28.8c1.774 0 3.2-1.426 3.2-3.2z" style="fill:url(#g)" transform="translate(384.57 515.8)"/><path d="M3.2 2A3.19 3.19 0 0 0 0 5.2v21.6A3.19 3.19 0 0 0 3.2 30h.355l-2.432-3L31 8l1 1V5.2A3.19 3.19 0 0 0 28.8 2Z" style="fill:url(#h)" transform="translate(384.57 515.8)"/><path d="M387.07 517.8a2.49 2.49 0 0 0-2.5 2.5v1.5h32v-1.5a2.49 2.49 0 0 0-2.5-2.5z" style="fill:#566069"/><path d="M384.57 521.8h32v1h-32z" style="fill:#3daee9"/><rect width="30" height="20" x="385.57" y="523.8" ry="2" style="fill:#fff"/><rect width="2" height="2" x="413.57" y="518.8" rx="1" style="fill:#eff0f1"/></g><path fill="url(#i)" d="M8.05 10.982h16l7 7v10h-17l-6-6z" opacity=".2" style="fill:url(#j)"/><path fill="#fcfcfc" d="M9.05 11.982h14v9h-14z"/><g fill="url(#d)" style="fill:url(#k)" transform="translate(.05 -.018)"><path d="M16 12a9 9 0 0 0-7.877 4.668c.129.364.357.677.656.908A8 8 0 0 1 16 13a4 4 0 0 0-4 4 4 4 0 0 0 4 4 4 4 0 0 0 4-4 4 4 0 0 0-3.65-3.982 8 8 0 0 1 6.87 4.558c.302-.234.533-.55.66-.918A9 9 0 0 0 16 12m0 2a3 3 0 0 1 3 3 3 3 0 0 1-3 3 3 3 0 0 1-3-3 3 3 0 0 1 3-3m0 1a2 2 0 0 0-2 2 2 2 0 0 0 2 2 2 2 0 0 0 2-2 2 2 0 0 0-.09-.588A1 1 0 0 1 17 17a1 1 0 0 1-1-1 1 1 0 0 1 .59-.91A2 2 0 0 0 16 15" style="fill:url(#l)"/><path d="M8 11v11h7v2h-3v1h8v-1h-3v-2h7V11H9Zm1 1h14v9H9Z" style="fill:url(#m)"/></g></svg>