<svg xmlns="http://www.w3.org/2000/svg" xmlns:xlink="http://www.w3.org/1999/xlink" width="32" height="32"><defs><linearGradient xlink:href="#a" id="d" x2="0" y1="545.798" y2="517.798" gradientUnits="userSpaceOnUse"/><linearGradient id="a"><stop style="stop-color:#197cf1"/><stop offset="1" style="stop-color:#20bcfa"/></linearGradient><linearGradient xlink:href="#b" id="f" x2="0" y1="545.798" y2="517.798" gradientTransform="translate(232.898 299.885)scale(.42857)" gradientUnits="userSpaceOnUse"/><linearGradient id="c"><stop style="stop-color:#292c2f"/><stop offset="1" style="stop-opacity:0"/></linearGradient><linearGradient xlink:href="#c" id="e" x1="401.571" x2="415.571" y1="516.698" y2="530.698" gradientTransform="translate(-388.571 -511.798)" gradientUnits="userSpaceOnUse"/><linearGradient id="b"><stop style="stop-color:#7cbaf8"/><stop offset="1" style="stop-color:#f4fcff"/></linearGradient></defs><path d="M414.571 520.798v15c0 2-1 3-2.781 3h-4.219v7l-7-7h-10.939c-2.06 0-3.06-1-3.06-3v-15c0-2 1-3 3.143-3h21.78c2.076 0 3.076 1 3.076 3" style="fill:url(#d)" transform="translate(-384.571 -515.798)"/><path d="m26.9 4.9-1.9 11H13l9 9 1 1V23h7V8l-3-3Z" style="opacity:.2;fill:url(#e);fill-rule:evenodd"/><path d="M411.571 520.798v10.9h-5v3l-3-3h-6v-10.9z" style="fill:url(#f)" transform="translate(-384.571 -515.798)"/></svg>