<svg xmlns="http://www.w3.org/2000/svg" xmlns:xlink="http://www.w3.org/1999/xlink" width="32" height="32"><defs><linearGradient id="a"><stop style="stop-color:#197cf1"/><stop offset="1" style="stop-color:#20bcfa"/></linearGradient><linearGradient xlink:href="#a" id="f" x2="0" y1="545.798" y2="517.798" gradientUnits="userSpaceOnUse"/><linearGradient id="b"><stop style="stop-color:#7cbaf8"/><stop offset="1" style="stop-color:#f4fcff"/></linearGradient><linearGradient xlink:href="#b" id="j" x2="0" y1="23" y2="9" gradientTransform="translate(384.571 515.798)" gradientUnits="userSpaceOnUse"/><linearGradient id="c"><stop style="stop-color:#383e51"/><stop offset="1" style="stop-color:#655c6f;stop-opacity:0"/></linearGradient><linearGradient xlink:href="#c" id="i" x1="393.571" x2="407.571" y1="524.798" y2="538.798" gradientUnits="userSpaceOnUse"/><linearGradient id="d"><stop offset="0" stop-color="#292c2f"/><stop offset="1" stop-opacity="0"/></linearGradient><linearGradient xlink:href="#d" id="g" x1="23" x2="30" y1="13" y2="20" gradientTransform="translate(384.571 515.798)" gradientUnits="userSpaceOnUse"/><linearGradient id="h" x1="2" x2="2" y1="30" y2="2" gradientTransform="translate(384.571 515.798)" gradientUnits="userSpaceOnUse"><stop offset="0" stop-color="#54d883"/><stop offset="1" stop-color="#abf9c7"/></linearGradient></defs><g transform="translate(-384.571 -515.798)"><rect width="28" height="28" x="386.571" y="517.798" rx="14" style="fill:url(#f)"/><path d="m414.301 529.068-4.73 4.73 3.758 3.758a14 14 0 0 0 .972-8.488" style="opacity:.2;fill:url(#g);fill-rule:evenodd"/><path d="M400.571 517.798a14 14 0 0 0-13.059 9h.06l3-1 1 1 1 1v-2l2-1v-1l2-1 2-2v1l1-1-1-1h2v1l2-1-1-1v-.95a14 14 0 0 0-1-.05zm10.375 4.625-.375.375v1h1.47a14 14 0 0 0-1.095-1.375m1.316 1.684-.69.691-2 2-1 1-1 3v1l1 1 1 1 2 1 2.79-.688a14 14 0 0 0 .21-2.312 14 14 0 0 0-2.31-7.691m-23.69 4.691-1 1h-.839q-.075.51-.113 1.023v.002l1.951.975 1 1 2 1 1 1-1 1v2l1 2 2 2v2.629a14 14 0 0 0 6 1.371q.255-.005.51-.018l.49-.982v-1l2-1 1-1v-2l1-1v-1l-1-1-3-1-1-1-1-1h-1l-1-1-3-1-2 1h-2v-2h-1v-2z" style="fill:url(#h)"/><path d="M414.55 531.212a14 14 0 0 1-13.979 13.586 14 14 0 0 1-13.979-13.414 14 14 0 0 0-.02.414 14 14 0 0 0 14 14 14 14 0 0 0 14-14 14 14 0 0 0-.022-.586" style="opacity:.2;fill:#292c2f"/><path d="M400.571 524.798q.327 0 .635.063h.004c.205.037.401.098.592.17l-.23-.233zm0 1a2.493 2.493 0 0 0-2.5 2.5c0 1.385 1.115 2.5 2.5 2.5a2.48 2.48 0 0 0 1.545-.545l-1.545 1.545-1.113 1.113c-.32.062-.632.142-.932.25h-.002c-.221.096-.446.189-.666.287-.068.031-.131.068-.199.1a6 6 0 0 0-1.511 1.2l-.002.001a6 6 0 0 0-.918 1.322l-.028.06q-.105.207-.193.425-.03.077-.057.156-.069.183-.129.371-.022.084-.043.168a6 6 0 0 0-.093.387l-.008.055-1.106 1.105 7 7h14v-10l-1 1-9-9-.732-.73c.071.19.132.386.17.591v.004c.037.207.062.418.062.635l-1.545 1.545a2.48 2.48 0 0 0 .545-1.545c0-1.385-1.115-2.5-2.5-2.5" style="opacity:.2;fill:url(#i);fill-rule:evenodd"/><path d="M400.571 524.798a3.49 3.49 0 0 0-3.5 3.5c0 1.939 1.561 3.5 3.5 3.5s3.5-1.561 3.5-3.5-1.56-3.5-3.5-3.5m0 7c-3.878 0-7 3.122-7 7h10v-1h-8.91a5.98 5.98 0 0 1 5.91-5c1.147 0 2.2.34 3.106.895l.744-.745a6.98 6.98 0 0 0-3.85-1.15m0-6c1.385 0 2.5 1.115 2.5 2.5s-1.115 2.5-2.5 2.5a2.495 2.495 0 0 1-2.5-2.5c0-1.385 1.115-2.5 2.5-2.5m6 6c-.554 0-1 .446-1 1s.446 1 1 1 1-.446 1-1-.446-1-1-1m-1 3v4h2v-4z" style="fill:url(#j)"/></g></svg>