<svg xmlns="http://www.w3.org/2000/svg" xmlns:xlink="http://www.w3.org/1999/xlink" viewBox="0 0 32 32"><linearGradient xlink:href="#a" id="g" x1="9" x2="23" y1="9" y2="23" gradientUnits="userSpaceOnUse"/><linearGradient id="b"><stop offset="0" stop-color="#7f8c8d"/><stop offset="1" stop-color="#bdc3c7"/></linearGradient><linearGradient id="c"><stop offset="0" stop-color="#31363b"/><stop offset="1" stop-color="#232629"/></linearGradient><linearGradient xlink:href="#b" id="q" x1="26" x2="27" y1="10" y2="5" gradientUnits="userSpaceOnUse"/><radialGradient id="o" cx="23" cy="13" r="6.324" gradientTransform="matrix(1 0 0 .31624 -1 8.889)" gradientUnits="userSpaceOnUse"><stop offset="0" stop-color="#4d4d4d"/><stop offset="1" stop-color="#31363b"/></radialGradient><linearGradient xlink:href="#c" id="p" x1="15" x2="24" y1="10" y2="19" gradientUnits="userSpaceOnUse"/><linearGradient xlink:href="#c" id="h" x1="9" x2="23" y1="21" y2="21" gradientUnits="userSpaceOnUse"/><linearGradient id="n" x1="9" x2="11" y1="13" y2="15" gradientUnits="userSpaceOnUse"><stop offset="0" stop-color="#fcfcfc"/><stop offset="1" stop-color="#eff0f1"/></linearGradient><linearGradient xlink:href="#b" id="i" x1="13" x2="7" y1="17" y2="11" gradientUnits="userSpaceOnUse"/><linearGradient id="a"><stop offset="0" stop-color="#292c2f"/><stop offset="1" stop-opacity="0"/></linearGradient><linearGradient id="d" x1="388.423" x2="388.423" y1="557.798" y2="505.798" gradientTransform="matrix(.58696 0 0 .53846 -228.988 -270.353)" gradientUnits="userSpaceOnUse"><stop offset="0" stop-color="#7f8c8d"/><stop offset="1" stop-color="#afb0b3"/></linearGradient><linearGradient xlink:href="#a" id="e" x1="-422.447" x2="-411.447" y1="-504.204" y2="-493.204" gradientUnits="userSpaceOnUse"/><linearGradient id="f" x1="1.333" x2="1.333" y1="48.714" y2="9.714" gradientTransform="matrix(.52174 0 0 .53846 -1.696 -1.23)" gradientUnits="userSpaceOnUse"><stop offset="0" stop-color="#eef1f2"/><stop offset="1" stop-color="#f9fafb"/></linearGradient><path fill="url(#d)" d="M3 5c0-2 1-3 2.941-3H24c2 0 3 1 3 2.97V30H3Z"/><path fill="#292c2e" d="M6 27h18v3H6z"/><path fill="#f6b44d" d="M8 28h9v1H8zm10 0h4v1h-4z"/><path fill="#292c2f" d="M23 27h4v3h-4zM3 27h4v3H3z" opacity=".2"/><path fill="#292c2f" d="M3 27h4v3H6zm20 0h4v3h-4z" opacity=".2"/><path fill="url(#e)" d="M23.535 5.465 27 8.928V30H13l-8-8z" opacity=".2"/><path fill="url(#f)" d="M10 4a5 5 0 0 0-5 5v4.768a3 3 0 0 1 .996 2.117L6 16a2 2 0 0 1-.01.2v.005A3 3 0 0 1 5 18.23V22l3 3h14l3-3v-3.768a3 3 0 0 1-.996-2.117L24 16a2 2 0 0 1 .01-.205A3 3 0 0 1 25 13.77V9a5 5 0 0 0-5-5z"/><path fill="url(#g)" d="M15 5v8.5l6 6-1 4.5-9.5-.5L14 27h13V11.6l-6-6zm8 1 4 4V6z" opacity=".3"/><path fill="url(#h)" d="M9 19a7 7 0 0 0 14 0h-2a5 5 0 1 1-10 0v-3H9z"/><circle cx="10" cy="14" r="3" fill="url(#i)"/><path fill="url(#g)" d="m21.4 22.55-10-10-2.85 2.85 2 2-.55 4.963L16 25z" opacity=".3"/><circle cx="10" cy="14" r="2" fill="url(#n)"/><path fill="url(#o)" d="M15.676 11A7 7 0 0 0 22 15a7 7 0 0 0 6.324-4h-1.129A6 6 0 0 1 22 14a6 6 0 0 1-5.195-3z"/><path fill="none" stroke="url(#p)" stroke-width="2" d="M28 10v3l-6 6-6-6v-3"/><path fill="none" stroke="url(#q)" d="M18 5.5h-2.5V10m13 0V5.5H26"/><path d="M18 7V4h1.5a1.5 1.5 0 1 1 0 3zM26 4v3h-1.5a1.5 1.5 0 1 1 0-3z"/></svg>