<svg xmlns="http://www.w3.org/2000/svg" xmlns:xlink="http://www.w3.org/1999/xlink" viewBox="0 0 32 32"><defs><linearGradient id="a" x2="0" y1="543.8" y2="502.66" gradientTransform="matrix(.66667 0 0 .63518 -256.38 -317.28)" gradientUnits="userSpaceOnUse"><stop offset="0" stop-color="#c6cdd1"/><stop offset="1" stop-color="#e0e5e7"/></linearGradient><linearGradient xlink:href="#a" id="b" x2="0" y1="543.8" y2="502.66" gradientTransform="matrix(.66667 0 0 .63518 -256.38 -317.28)" gradientUnits="userSpaceOnUse"/><linearGradient xlink:href="#a" id="d" x2="0" y1="543.8" y2="502.66" gradientTransform="matrix(.66667 0 0 .63518 -256.38 -317.28)" gradientUnits="userSpaceOnUse"/></defs><path d="m32 9-1-1L1.123 27l2.432 3H28.8c1.774 0 3.2-1.426 3.2-3.2z" style="fill:url(#b)"/><path d="M3.2 2A3.19 3.19 0 0 0 0 5.2v21.6A3.19 3.19 0 0 0 3.2 30h.355l-2.432-3L31 8l1 1V5.2A3.19 3.19 0 0 0 28.8 2Z" style="fill:url(#d)"/><path d="M16 6h16V4.5A2.49 2.49 0 0 0 29.5 2H16Z" style="fill:#566069"/><path d="M16 6V2H2.5A2.49 2.49 0 0 0 0 4.5V6Z" style="fill:#eff0f1"/><path d="M0 6h32v1H0Z" style="fill:#3daee9"/><rect width="30" height="20" x="1" y="8" ry="2" style="fill:#fff"/><rect width="2" height="2" x="29" y="3" rx="1" style="fill:#eff0f1"/><rect width="2" height="2" x="-3" y="3" rx="1" style="fill:#566069" transform="scale(-1 1)"/></svg>