<svg xmlns="http://www.w3.org/2000/svg" width="32" height="32" xmlns:v="https://vecta.io/nano"><defs><linearGradient id="A" href="#B"><stop stop-color="#334545"/><stop offset="1" stop-color="#536161"/></linearGradient><linearGradient id="B" gradientUnits="userSpaceOnUse"/><linearGradient id="C" gradientTransform="matrix(0.57701325,0,0,0.81300027,-219.53782,-406.64966)" x1="418.17" y1="503.079" x2="384.571" y2="531.458" href="#B"><stop stop-color="#1abc9c"/><stop offset="1" stop-color="#2980b9"/></linearGradient><linearGradient id="D" y1="521.633" x1="404.045" y2="528.35" x2="430.736" gradientTransform="matrix(0.57701325,0,0,0.81300027,-219.53782,-406.6506)" href="#B"><stop stop-color="#cc4a5e"/><stop offset="1" stop-color="#aa478a"/></linearGradient><linearGradient href="#A" id="E" y1="542.224" x1="398.092" y2="524.9" x2="394.003" gradientTransform="matrix(0.57701325,0,0,0.81300027,-219.53782,-406.6506)"/><linearGradient href="#A" id="F" y1="568.798" x1="431.571" y2="562.798" x2="439.571" gradientTransform="matrix(-0.57701325,0,0,0.81300027,264.65495,-439.17062)"/><linearGradient href="#A" id="G" y1="581.87" x1="406.537" y2="572.678" x2="423.32" gradientTransform="matrix(-0.57701325,0,0,0.81300027,264.65582,-439.17062)"/><linearGradient href="#A" id="H" y1="572.334" x1="423.054" y2="566.766" x2="431.225" gradientTransform="matrix(-0.57701325,0,0,0.81300027,264.65495,-439.17062)"/><linearGradient href="#A" id="I" y1="577.102" x1="431.313" y2="571.445" x2="440.632" gradientTransform="matrix(-0.57701325,0,0,0.81300027,264.65582,-439.17062)"/><linearGradient href="#A" id="J" y1="577.362" x1="430.567" y2="591.328" x2="423.75" gradientTransform="matrix(-0.57701325,0,0,0.81300027,264.65582,-439.17062)"/><linearGradient id="K" y1="8.642" x1="10.152" y2="21.946" x2="22.27" href="#B"><stop stop-color="#383e51"/><stop offset="1" stop-color="#655c6f" stop-opacity="0"/></linearGradient><linearGradient id="L" x1="2.363" y1="21.437" x2="2.363" y2="9.32" href="#B"><stop stop-color="#eff0f1"/><stop offset="1" stop-color="#fcfcfc"/></linearGradient></defs><g transform="matrix(1.021032 0 0 1 -.552266 -.244039)"><path d="M6.69 2.94a4.331 4.755 0 0 0-3.064 1.388 4.319 4.742 0 0 0-1.264 3.364v17.105a4.331 4.755 0 0 0 1.264 3.362 4.319 4.742 0 0 0 3.064 1.388h19.041a4.331 4.755 0 0 0 3.064-1.387 4.319 4.742 0 0 0 1.264-3.364V7.692a4.331 4.755 0 0 0-1.264-3.363 4.319 4.742 0 0 0-3.064-1.387z" fill="url(#C)"/><path d="M24.646 29.548h1.085a4.331 4.755 0 0 0 3.064-1.387 4.318 4.741 0 0 0 1.264-3.364V7.692a4.332 4.756 0 0 0-1.264-3.364c-.067-.071-.163-.103-.233-.17L10.998 18.445l13.649 11.103z" fill="url(#D)"/><path d="M2.464 25.348c.049.447.085.902.239 1.302a4.318 4.741 0 0 0 2.301 2.525 4.331 4.755 0 0 0 1.687.373h18.085l-13.757-11.16z" fill="url(#E)"/><path d="M15.783 22.264l-4.766-3.877v7.754z" fill="url(#F)"/><path d="M20.548 26.139v3.409h4.19l-4.189-3.409z" fill="url(#G)"/><path d="M15.783 22.264v7.284h.576l4.189-3.408-4.766-3.877z" fill="url(#H)"/><path d="M11.018 26.14v3.408h4.189z" fill="url(#I)"/><path d="M20.548 26.139l-4.189 3.409h4.189z" fill="url(#J)"/><path d="M30.059 10.515V7.693a4.332 4.756 0 0 0-1.264-3.364c-.067-.072-.163-.104-.233-.171L10.998 18.447z" fill="#aa478a"/><path d="M2.47 25.747a5.49 5.49 0 0 0 .233.903 4.318 4.741 0 0 0 2.301 2.526 4.331 4.755 0 0 0 1.687.373h19.041a4.331 4.755 0 0 0 3.064-1.387 4.318 4.741 0 0 0 .924-1.511 4.631 5.084 0 0 0 .247-.903z" fill="#fff" fill-opacity=".784"/><g fill="#4d4d4d"><ellipse cy="27.647" cx="26.597" rx=".866" ry=".893"/><path d="M4.094 26.754v.893h.866v-.893zm.866.893v.893h.866v-.893z"/></g><path d="M18.808 29.548h6.924a4.331 4.755 0 0 0 3.064-1.387c.389-.43.621-.991.924-1.511.322-.554.34-1.176.34-1.853v-5.702l-7.79-8.552v.95H10.152l7.79 8.552H14.48l-.866.95h-.866l-.866.95z" opacity=".2" fill="url(#K)" fill-rule="evenodd"/><path d="M17.509 9.32a2.157 2.157 0 0 0-2.121 1.731h-5.236v.866h5.236a2.16 2.16 0 0 0 2.121 1.731 2.157 2.157 0 0 0 2.121-1.731h2.64v-.866h-2.64a2.157 2.157 0 0 0-2.121-1.731zm-5.193 7.79a2.164 2.164 0 1 0 0 4.328 2.157 2.157 0 0 0 2.121-1.731h7.833v-.866h-7.833a2.157 2.157 0 0 0-2.121-1.731zm0 .866c.719 0 1.298.58 1.298 1.298s-.579 1.298-1.298 1.298-1.298-.579-1.298-1.298.579-1.298 1.298-1.298z" fill="url(#L)"/></g></svg>