<svg xmlns="http://www.w3.org/2000/svg" xmlns:xlink="http://www.w3.org/1999/xlink" width="32" height="32"><linearGradient id="f" x1="2" x2="2" y1="27" y2="9" gradientUnits="userSpaceOnUse"><stop offset="0" stop-color="#31363b"/><stop offset="1" stop-color="#4f575f"/></linearGradient><linearGradient id="a"><stop offset="0" stop-color="#292c2f"/><stop offset="1" stop-opacity="0"/></linearGradient><radialGradient xlink:href="#a" id="e" cx="12" cy="1" r="9.5" gradientTransform="matrix(0 .31579 -1.89476 -.00005 3.895 5.21)" gradientUnits="userSpaceOnUse"/><radialGradient xlink:href="#a" id="d" cx="2" cy="5.5" r="14.5" gradientTransform="matrix(0 1.37931 -2.27586 0 14.517 9.241)" gradientUnits="userSpaceOnUse"/><linearGradient id="b" x2="0" y1="543.798" y2="502.655" gradientTransform="matrix(.66667 0 0 .63518 -256.381 -317.28)" gradientUnits="userSpaceOnUse"><stop offset="0" stop-color="#c6cdd1"/><stop offset="1" stop-color="#e0e5e7"/></linearGradient><linearGradient id="c" x1="7" x2="22" y1="10" y2="25" gradientUnits="userSpaceOnUse"><stop offset="0"/><stop offset="1" stop-opacity="0"/></linearGradient><path fill="url(#b)" d="M0 6c0-3 1-4 4.106-4h23.963C31 2 32 3 32 6v21c0 2-1 3-2.985 3H3c-2 0-3-1-3-3.09Z"/><path fill="url(#c)" fill-rule="evenodd" d="M1 28 31 8l1 1v21H3z" opacity=".2"/><path fill="#566069" d="M4 2h24c3 0 4 1 4 4H0c0-3 1-4 4-4"/><path fill="#3daee9" d="M0 6h32v1H0z"/><path fill="#eff0f1" d="M1 8h30v20H1z"/><rect width="2" height="2" x="29" y="3" fill="#eff0f1" rx="1"/><path fill="url(#d)" d="m2 27 1 1h28V13l-1-1z" opacity=".2"/><path fill="#fcfcfc" d="M2 12h28v15H2z"/><path fill="url(#e)" d="m2 10 2 2h16v-2l-1-1z" opacity=".2"/><path fill="#fcfcfc" d="M2 9h18v1H2z"/><path fill="url(#f)" d="M2 9h9v1H2zm0 17h4v1H2zm6 0h12v1H8zm-6-2h4v1H2zm6 0h14v1H8zm-6-2h4v1H2zm6 0h12v1H8zm-6-2h4v1H2zm6 0h14v1H8zm-6-2h4v1H2zm6 0h10v1H8zm-6-2h4v1H2zm6 0h16v1H8zm-6-2h4v1H2zm6 0h18v1H8zm-6-2h4v1H2zm6 0h12v1H8z"/></svg>