<svg xmlns="http://www.w3.org/2000/svg" xmlns:xlink="http://www.w3.org/1999/xlink" viewBox="0 0 32 32"><defs><linearGradient xlink:href="#a" id="d" x2="0" y1="543.8" y2="502.66" gradientTransform="matrix(.66667 0 0 .63518 -256.38 -317.28)" gradientUnits="userSpaceOnUse"/><linearGradient id="a" x2="0" y1="543.8" y2="502.66" gradientTransform="matrix(.66667 0 0 .63518 -256.38 -317.28)" gradientUnits="userSpaceOnUse"><stop offset="0" stop-color="#c6cdd1"/><stop offset="1" stop-color="#e0e5e7"/></linearGradient><linearGradient xlink:href="#a" id="e" x2="0" y1="543.8" y2="502.66" gradientTransform="matrix(.66667 0 0 .63518 -256.38 -317.28)" gradientUnits="userSpaceOnUse"/><linearGradient xlink:href="#c" id="g" x1="384.571" x2="411.571" y1="513.798" y2="538.798" gradientTransform="translate(-384.661 -515.788)" gradientUnits="userSpaceOnUse"/><linearGradient xlink:href="#c" id="i" x1="391.189" x2="410.156" y1="530.465" y2="545.543" gradientTransform="translate(-384.671 -515.798)" gradientUnits="userSpaceOnUse"/></defs><linearGradient id="c"><stop offset="0"/><stop offset="1" stop-opacity="0"/></linearGradient><linearGradient xlink:href="#c" id="f" x1="384.571" x2="411.571" y1="513.798" y2="538.798" gradientTransform="translate(-384.571 -515.798)" gradientUnits="userSpaceOnUse"/><linearGradient xlink:href="#c" id="h" x1="391.189" x2="410.156" y1="530.465" y2="545.543" gradientTransform="translate(-384.582 -515.808)" gradientUnits="userSpaceOnUse"/><g transform="translate(-384.57 -515.8)"><path d="m32 9-1-1L1.123 27l2.432 3H28.8c1.774 0 3.2-1.426 3.2-3.2z" style="fill:url(#d)" transform="translate(384.57 515.8)"/><path d="M3.2 2A3.19 3.19 0 0 0 0 5.2v21.6A3.19 3.19 0 0 0 3.2 30h.355l-2.432-3L31 8l1 1V5.2A3.19 3.19 0 0 0 28.8 2Z" style="fill:url(#e)" transform="translate(384.57 515.8)"/><path d="M387.07 517.8a2.49 2.49 0 0 0-2.5 2.5v1.5h32v-1.5a2.49 2.49 0 0 0-2.5-2.5z" style="fill:#566069"/><path d="M384.57 521.8h32v1h-32z" style="fill:#3daee9"/><rect width="30" height="20" x="385.57" y="523.8" ry="2" style="fill:#fff"/><rect width="2" height="2" x="413.57" y="518.8" rx="1" style="fill:#eff0f1"/></g><path fill="url(#f)" d="m7.9 14 8.01 8.01h8l6 6h1v-8L23.9 13v1z" opacity=".25" style="fill:url(#g)"/><path fill="url(#h)" d="m8.356 24 4.325 4h17.22l-6-6v1H12.298l-.984 1.364-1.415-.031z" opacity=".25" style="fill:url(#i)"/><path fill="#353b3e" d="M16.4 11a2.49 2.49 0 0 0-2.45 2H7.9v1h6.05c.231 1.144 1.236 2 2.45 2a2.49 2.49 0 0 0 2.45-2h5.05v-1h-5.05a2.49 2.49 0 0 0-2.45-2m-6 9a2.495 2.495 0 0 0-2.5 2.5c0 1.385 1.115 2.5 2.5 2.5a2.49 2.49 0 0 0 2.45-2H23.9v-1H12.85a2.49 2.49 0 0 0-2.45-2m0 1c.831 0 1.5.669 1.5 1.5s-.669 1.5-1.5 1.5c-.83 0-1.5-.669-1.5-1.5s.67-1.5 1.5-1.5"/></svg>