<svg xmlns="http://www.w3.org/2000/svg" xmlns:xlink="http://www.w3.org/1999/xlink" width="32" height="32"><defs><linearGradient xlink:href="#a" id="d" x1="418.17" x2="384.571" y1="503.079" y2="531.458" gradientTransform="matrix(.66667 0 0 .85555 -256.38 -429.026)" gradientUnits="userSpaceOnUse"/><linearGradient id="a"><stop stop-color="#1abc9c"/><stop offset="1" stop-color="#2980b9"/></linearGradient><linearGradient xlink:href="#b" id="e" x1="404.045" x2="430.736" y1="521.633" y2="528.35" gradientTransform="matrix(.66667 0 0 .85555 -256.38 -429.027)" gradientUnits="userSpaceOnUse"/><linearGradient id="b"><stop stop-color="#cc4a5e"/><stop offset="1" stop-color="#aa478a"/></linearGradient><linearGradient xlink:href="#c" id="f" x1="398.092" x2="394.003" y1="542.224" y2="524.9" gradientTransform="matrix(.66667 0 0 .85555 -256.38 -429.027)" gradientUnits="userSpaceOnUse"/><linearGradient id="c"><stop stop-color="#334545"/><stop offset="1" stop-color="#536161"/></linearGradient><linearGradient xlink:href="#c" id="j" x1="431.571" x2="439.571" y1="568.798" y2="562.798" gradientTransform="matrix(-.66667 0 0 .85555 303.047 -463.249)" gradientUnits="userSpaceOnUse"/><linearGradient xlink:href="#c" id="l" x1="406.537" x2="423.32" y1="581.87" y2="572.678" gradientTransform="matrix(-.66667 0 0 .85555 303.048 -463.249)" gradientUnits="userSpaceOnUse"/><linearGradient xlink:href="#c" id="k" x1="423.054" x2="431.225" y1="572.334" y2="566.766" gradientTransform="matrix(-.66667 0 0 .85555 303.047 -463.249)" gradientUnits="userSpaceOnUse"/><linearGradient xlink:href="#c" id="m" x1="431.313" x2="440.632" y1="577.102" y2="571.445" gradientTransform="matrix(-.66667 0 0 .85555 303.048 -463.249)" gradientUnits="userSpaceOnUse"/><linearGradient xlink:href="#c" id="n" x1="430.567" x2="423.75" y1="577.362" y2="591.328" gradientTransform="matrix(-.66667 0 0 .85555 303.048 -463.249)" gradientUnits="userSpaceOnUse"/></defs><path d="M5 2a5 5 0 0 0-3.54 1.461A5 5 0 0 0 0 7.001v18a5 5 0 0 0 1.46 3.538A5 5 0 0 0 5 30h22a5 5 0 0 0 3.54-1.46A5 5 0 0 0 32 25V7a5 5 0 0 0-1.46-3.539A5 5 0 0 0 27 2.001Z" style="fill:url(#d)"/><path d="M25.746 30H27a5 5 0 0 0 3.54-1.46A5 5 0 0 0 32 25V7a5 5 0 0 0-1.46-3.54c-.077-.075-.188-.108-.269-.179L9.977 18.316 25.747 30Z" style="fill:url(#e)"/><path d="M.117 25.58c.057.47.098.949.276 1.37a5 5 0 0 0 2.658 2.657A5 5 0 0 0 5 30h20.895L10 18.256Z" style="fill:url(#f)"/><path d="M15.506 22.335 10 18.255v8.16z" style="fill:url(#j)"/><path d="M15.506 22.335V30h.666l4.84-3.586z" style="fill:url(#k)"/><path d="M32 9.971v-2.97a5 5 0 0 0-1.46-3.54c-.077-.076-.188-.109-.269-.18L9.977 18.318Z" style="fill:#aa478a"/><path d="M21.011 26.413V30h4.841l-4.84-3.587z" style="fill:url(#l)"/><path d="M5 2a5 5 0 0 0-.5.023 5 5 0 0 0-.494.075 5 5 0 0 0-.485.123 5 5 0 0 0-.47.172 5 5 0 0 0-.451.216 5 5 0 0 0-.426.262 5 5 0 0 0-.399.3 5 5 0 0 0-.314.29 5 5 0 0 0-.336.37 5 5 0 0 0-.295.401 5 5 0 0 0-.254.43 5 5 0 0 0-.21.451 5 5 0 0 0-.165.473 5 5 0 0 0-.115.484 5 5 0 0 0-.068.494A5 5 0 0 0 0 7.002V12A10 10 0 0 0 10 2Zm17 .002A10 10 0 0 0 32 12V7a5 5 0 0 0-.023-.5 5 5 0 0 0-.075-.494 5 5 0 0 0-.123-.485 5 5 0 0 0-.172-.47 5 5 0 0 0-.216-.451 5 5 0 0 0-.262-.426 5 5 0 0 0-.3-.399 5 5 0 0 0-.29-.314 5 5 0 0 0-.37-.334 5 5 0 0 0-.401-.297 5 5 0 0 0-.428-.254 5 5 0 0 0-.453-.21 5 5 0 0 0-.471-.163 5 5 0 0 0-.484-.117 5 5 0 0 0-.494-.066A5 5 0 0 0 27 2.002ZM.002 20v5.041a5 5 0 0 0 .023.459 5 5 0 0 0 .075.496 5 5 0 0 0 .123.484 5 5 0 0 0 .17.47 5 5 0 0 0 .216.45 5 5 0 0 0 .262.428 5 5 0 0 0 .303.399 5 5 0 0 0 .287.312 5 5 0 0 0 .37.334 5 5 0 0 0 .4.297 5 5 0 0 0 .43.254 5 5 0 0 0 .452.21 5 5 0 0 0 .471.165 5 5 0 0 0 .484.115 5 5 0 0 0 .495.068A5 5 0 0 0 5 30h5.002a10 10 0 0 0-10-10M32 20a10 10 0 0 0-10 10h5a5 5 0 0 0 .5-.023 5 5 0 0 0 .494-.075 5 5 0 0 0 .485-.123 5 5 0 0 0 .47-.172 5 5 0 0 0 .451-.216 5 5 0 0 0 .426-.26 5 5 0 0 0 .399-.303 5 5 0 0 0 .314-.289 5 5 0 0 0 .336-.37 5 5 0 0 0 .295-.401 5 5 0 0 0 .254-.428 5 5 0 0 0 .21-.453 5 5 0 0 0 .165-.471 5 5 0 0 0 .115-.484 5 5 0 0 0 .068-.494A5 5 0 0 0 32 25Z" style="fill:#93cee9"/><path d="M10 26.414V30h4.84z" style="fill:url(#m)"/><path d="M21.011 26.413 16.171 30h4.84z" style="fill:url(#n)"/><path d="M.124 26c.067.317.146.658.269.95a5 5 0 0 0 2.658 2.658A5 5 0 0 0 5 30h22a5 5 0 0 0 3.54-1.46 5 5 0 0 0 1.067-1.59 5.4 5.4 0 0 0 .285-.95z" style="fill:#fff;fill-opacity:.78399999"/><circle cx="28" cy="28" r="1" style="fill:#4d4d4d"/><path d="M2 27v1h1v-1zm1 1v1h1v-1z" style="fill:#4d4d4d"/></svg>