<svg xmlns="http://www.w3.org/2000/svg" xmlns:xlink="http://www.w3.org/1999/xlink" width="32" height="32"><defs><linearGradient id="a"><stop style="stop-color:#197cf1"/><stop offset="1" style="stop-color:#20bcfa"/></linearGradient><linearGradient xlink:href="#a" id="d" x2="0" y1="545.798" y2="517.798" gradientUnits="userSpaceOnUse"/><linearGradient id="b"><stop style="stop-color:#7cbaf8"/><stop offset="1" style="stop-color:#f4fcff"/></linearGradient><linearGradient xlink:href="#b" id="f" x2="0" y1="538.798" y2="524.798" gradientUnits="userSpaceOnUse"/><linearGradient xlink:href="#c" id="e" x1="9" x2="23" y1="9" y2="23" gradientUnits="userSpaceOnUse"/><linearGradient id="c"><stop style="stop-color:#383e51"/><stop offset="1" style="stop-color:#655c6f;stop-opacity:0"/></linearGradient></defs><g transform="translate(-384.571 -515.798)"><rect width="28" height="28" x="386.571" y="517.798" rx="14" style="fill:url(#d)"/><path d="M17.594 12.984 16 15.027l1.982 1.145C17.18 16.549 15.778 17.235 19 18c.34.08-.063.68-.15 1H19l2.703 2.703-.39 1.297 3.712 3.713a14 14 0 0 0 2.905-3.393zM16 14l-.082.113c.125.03.245.073.365.114zm-4.379 6.129L11 21l8.535 8.535A13.9 13.9 0 0 0 23.7 27.7l-6.416-6.416A4 4 0 0 1 15 22a3.98 3.98 0 0 1-3.379-1.871" style="fill:url(#e);opacity:.2;fill-rule:evenodd" transform="translate(384.571 515.798)"/><path d="M401.571 524.798c-.83 0-1.5.669-1.5 1.5s.67 1.5 1.5 1.5c.831 0 1.5-.669 1.5-1.5s-.669-1.5-1.5-1.5m-1.166 3.314-1.789 5.98c-.009.022-.01.045-.017.067l-.028.104.006.002c0 .011-.006.021-.006.033 0 .277.223.5.5.5h4.5l2.31 4 .69-.398-1-4.602-3.699-.7.053-.759 3.646 1.459-3.603-2.88.203-2.116zm-.834.686c-2.77 0-5 2.23-5 5a4.99 4.99 0 0 0 7.993 3.992l-.72-.719a3.94 3.94 0 0 1-2.273.727c-2.216 0-4-1.784-4-4s1.784-4 4-4z" style="fill:url(#f)"/></g></svg>