<svg xmlns="http://www.w3.org/2000/svg" xmlns:xlink="http://www.w3.org/1999/xlink" width="32" height="32"><defs><linearGradient id="f"><stop style="stop-color:#c6cdd1"/><stop offset="1" style="stop-color:#e0e5e7"/></linearGradient><linearGradient id="a"><stop style="stop-color:#197cf1"/><stop offset="1" style="stop-color:#21c9fb"/></linearGradient><linearGradient xlink:href="#a" id="h" x1="384.571" x2="409.571" y1="540.798" y2="521.798" gradientTransform="translate(-6 4)" gradientUnits="userSpaceOnUse"/><linearGradient id="b"><stop style="stop-color:#eef1f2"/><stop offset="1" style="stop-color:#f9fafb"/></linearGradient><linearGradient xlink:href="#b" id="j" x1="401.571" x2="384.571" y1="537.243" y2="507.798" gradientTransform="translate(-4 5)" gradientUnits="userSpaceOnUse"/><linearGradient xlink:href="#f" id="i" x1="432.571" x2="412.571" y1="539.798" y2="503.798" gradientTransform="translate(-10 4)" gradientUnits="userSpaceOnUse"/><linearGradient xlink:href="#b" id="k" x1="384.571" x2="396.327" y1="536.798" y2="509.301" gradientTransform="matrix(-1 0 0 1 805.143 5)" gradientUnits="userSpaceOnUse"/><linearGradient id="g"><stop style="stop-color:#7cbaf8"/><stop offset="1" style="stop-color:#f4fcff"/></linearGradient><linearGradient xlink:href="#g" id="l" x1="9" x2="3.746" y1="34" y2="22.724" gradientTransform="translate(379.571 505.798)" gradientUnits="userSpaceOnUse"/></defs><path d="M397.571 530.798h6v2l-6 6z" style="fill:#2980b9;fill-rule:evenodd" transform="translate(-384.571 -515.798)"/><path d="m397.571 537.798 6-6v1l-6 6z" style="fill:#289769;fill-rule:evenodd" transform="translate(-384.571 -515.798)"/><path d="M384.571 544.798h14v-9l2.5-2.5 2.5-2.5-2.5-2.5-2.5-2.5v-8h-14z" style="fill:url(#h);fill-rule:evenodd" transform="translate(-384.571 -515.798)"/><path d="M408.571 523.798h-6v4l6 6z" style="fill:#99a1a7;fill-rule:evenodd" transform="translate(-384.571 -515.798)"/><path d="m408.571 532.798-6-6v1l6 6z" style="fill:#289769;fill-rule:evenodd" transform="translate(-384.571 -515.798)"/><path d="M416.571 544.798h-14v-9l5-5-5-5v-8h14z" style="fill:url(#i);fill-rule:evenodd" transform="translate(-384.571 -515.798)"/><path d="M398.571 543.798h-14v2h14z" style="fill:#2980b9;stroke-linejoin:round;stroke-width:.5" transform="translate(-384.571 -515.798)"/><path d="M402.571 543.798h14v2h-14z" style="fill:#99a1a7;stroke-linejoin:round;stroke-width:.5" transform="translate(-384.571 -515.798)"/><path d="M402.571 544.798h14v1h-14z" style="fill:#289769;stroke-linejoin:round;stroke-width:.5" transform="translate(-384.571 -515.798)"/><path d="M384.571 519.798v1h4.5l2.5 2.715v14.57l-2.5 2.715h-4.5v1h5l3-3v-16l-3-3z" style="fill:url(#j);opacity:.2;fill-rule:evenodd" transform="translate(-384.571 -515.798)"/><path d="M416.571 519.798v22h-5l-3-3v-16l3-3z" style="fill:url(#k);fill-rule:evenodd" transform="translate(-384.571 -515.798)"/><path d="M402.571 539.798h2v2h-2zM402.571 519.798h2v2h-2z" style="fill:#4c5154;stroke-linejoin:round;stroke-width:.5" transform="translate(-384.571 -515.798)"/><path d="M384.571 544.798h14v1h-14z" style="fill:#289769;stroke-linejoin:round;stroke-width:.5" transform="translate(-384.571 -515.798)"/><path d="M411.571 520.798h4v1h-4zM413.571 522.798h2v1h-2zM411.571 522.798h1v1h-1zM412.571 524.798h3v1h-3z" style="fill:#4d4d4d;stroke-linejoin:round;stroke-width:.5" transform="translate(-384.571 -515.798)"/><path d="M385.571 534.798v5h1v-5zm2 0v1h1v-1zm0 2v1h1v-1zm0 2v1h1v-1z" style="fill:url(#l);stroke-linejoin:round;stroke-width:.5" transform="translate(-384.571 -515.798)"/><path d="M396.571 519.798h2v2h-2zM396.571 539.798h2v2h-2z" style="fill:#2980b9;stroke-linejoin:round;stroke-width:.5" transform="translate(-384.571 -515.798)"/></svg>