<svg xmlns="http://www.w3.org/2000/svg" xmlns:xlink="http://www.w3.org/1999/xlink" width="32" height="32"><defs><linearGradient id="a"><stop stop-color="#1abc9c"/><stop offset="1" stop-color="#2980b9"/></linearGradient><linearGradient id="c"><stop stop-color="#cc4a5e"/><stop offset="1" stop-color="#aa478a"/></linearGradient><linearGradient id="b"><stop stop-color="#334545"/><stop offset="1" stop-color="#536161"/></linearGradient><linearGradient xlink:href="#a" id="g" x1="418.17" x2="384.571" y1="503.079" y2="531.458" gradientTransform="matrix(.66667 0 0 .85555 -256.38 -429.026)" gradientUnits="userSpaceOnUse"/><linearGradient xlink:href="#b" id="j" x1="431.571" x2="439.571" y1="568.798" y2="562.798" gradientTransform="matrix(-.66667 0 0 .85555 303.047 -463.249)" gradientUnits="userSpaceOnUse"/><linearGradient xlink:href="#b" id="k" x1="406.537" x2="423.32" y1="581.87" y2="572.678" gradientTransform="matrix(-.66667 0 0 .85555 303.048 -463.249)" gradientUnits="userSpaceOnUse"/><linearGradient xlink:href="#b" id="l" x1="423.054" x2="431.225" y1="572.334" y2="566.766" gradientTransform="matrix(-.66667 0 0 .85555 303.047 -463.249)" gradientUnits="userSpaceOnUse"/><linearGradient xlink:href="#b" id="m" x1="431.313" x2="440.632" y1="577.102" y2="571.445" gradientTransform="matrix(-.66667 0 0 .85555 303.048 -463.249)" gradientUnits="userSpaceOnUse"/><linearGradient xlink:href="#b" id="n" x1="430.567" x2="423.75" y1="577.362" y2="591.328" gradientTransform="matrix(-.66667 0 0 .85555 303.048 -463.249)" gradientUnits="userSpaceOnUse"/><linearGradient id="d" x1="393.571" x2="407.571" y1="522.798" y2="536.798" gradientTransform="translate(-384.571 -515.798)" gradientUnits="userSpaceOnUse"><stop offset="0" stop-color="#292c2f"/><stop offset="1" stop-opacity="0"/></linearGradient><linearGradient id="p" x2="0" y1="536.798" y2="522.798" gradientTransform="translate(-384.571 -515.798)" gradientUnits="userSpaceOnUse"><stop offset="0" stop-color="#eff0f1"/><stop offset="1" stop-color="#fcfcfc"/></linearGradient><linearGradient xlink:href="#c" id="h" x1="404.045" x2="430.736" y1="521.633" y2="528.35" gradientTransform="matrix(.66667 0 0 .85555 -256.38 -429.027)" gradientUnits="userSpaceOnUse"/><linearGradient xlink:href="#b" id="i" x1="398.092" x2="394.003" y1="542.224" y2="524.9" gradientTransform="matrix(.66667 0 0 .85555 -256.38 -429.027)" gradientUnits="userSpaceOnUse"/><linearGradient xlink:href="#d" id="o" x1="393.571" x2="407.571" y1="522.798" y2="536.798" gradientTransform="translate(-384.571 -515.798)" gradientUnits="userSpaceOnUse"/></defs><path d="M5 2a5 5 0 0 0-3.54 1.461A5 5 0 0 0 0 7.001v18a5 5 0 0 0 1.46 3.538A5 5 0 0 0 5 30h22a5 5 0 0 0 3.54-1.46A5 5 0 0 0 32 25V7a5 5 0 0 0-1.46-3.539A5 5 0 0 0 27 2.001Z" style="fill:url(#g)"/><path d="M25.746 30H27a5 5 0 0 0 3.54-1.46A5 5 0 0 0 32 25V7a5 5 0 0 0-1.46-3.54c-.077-.075-.188-.108-.269-.179L9.977 18.316 25.747 30Z" style="fill:url(#h)"/><path d="M.117 25.58c.057.47.098.949.276 1.37a5 5 0 0 0 2.658 2.657A5 5 0 0 0 5 30h20.895L10 18.256Z" style="fill:url(#i)"/><path d="M15.506 22.335 10 18.255v8.16z" style="fill:url(#j)"/><path d="M21.011 26.413V30h4.841l-4.84-3.587z" style="fill:url(#k)"/><path d="M15.506 22.335V30h.666l4.84-3.586z" style="fill:url(#l)"/><path d="M10 26.414V30h4.84z" style="fill:url(#m)"/><path d="M21.011 26.413 16.171 30h4.84z" style="fill:url(#n)"/><path d="M32 9.971v-2.97a5 5 0 0 0-1.46-3.54c-.077-.076-.188-.109-.269-.18L9.977 18.318Z" style="fill:#aa478a"/><path d="M2 27v1h1v-1zm1 1v1h1v-1z" style="fill:#4d4d4d"/><path d="M12 7.1v1.5l7 7.013L18 17l12 12a5 5 0 0 0 .225-.172 5 5 0 0 0 .314-.289 5 5 0 0 0 .336-.37 5 5 0 0 0 .295-.401 5 5 0 0 0 .254-.428 5 5 0 0 0 .21-.453 5 5 0 0 0 .165-.471 5 5 0 0 0 .115-.484 5 5 0 0 0 .068-.494A5 5 0 0 0 32 25v-4l-9-9-3 2.137L13 7.1Zm-.76 5.535L9.385 14.49 14 19.105l-.988 1.383L22.525 30h6.08l-.2-.201z" style="opacity:.2;fill:url(#o);fill-rule:evenodd"/><path d="M12.5 7a.873.873 0 0 0-.875.875c0 .485.39.875.875.875s.875-.39.875-.875A.873.873 0 0 0 12.5 7M18 7l-2 2 3 3-3 3 2 2 3-3 2-2-2-2zm-7.688 5.25A1.31 1.31 0 0 0 9 13.563a1.31 1.31 0 0 0 1.313 1.312 1.31 1.31 0 0 0 1.312-1.313 1.31 1.31 0 0 0-1.313-1.312m3.938 5.25c-.97 0-1.75.78-1.75 1.75S13.28 21 14.25 21 16 20.22 16 19.25s-.78-1.75-1.75-1.75" style="fill:url(#p)"/><path d="M.124 26c.067.317.146.658.269.95a5 5 0 0 0 2.658 2.658A5 5 0 0 0 5 30h22a5 5 0 0 0 3.54-1.46 5 5 0 0 0 1.067-1.59 5.4 5.4 0 0 0 .285-.95z" style="fill:#fff;fill-opacity:.78399999"/><circle cx="28" cy="28" r="1" style="fill:#4d4d4d"/><path d="M2 27v1h1v-1zm1 1v1h1v-1z" style="fill:#4d4d4d"/></svg>