<svg xmlns="http://www.w3.org/2000/svg" xmlns:xlink="http://www.w3.org/1999/xlink" width="32" height="32"><linearGradient id="e" x1="6" x2="6" y1="30" y2="2" gradientUnits="userSpaceOnUse"><stop offset="0" stop-color="#54d883"/><stop offset="1" stop-color="#abf9c7"/></linearGradient><linearGradient id="d" x1="10" x2="30" y1="6" y2="26" gradientUnits="userSpaceOnUse"><stop offset="0" stop-color="#292c2f"/><stop offset="1" stop-opacity="0"/></linearGradient><linearGradient id="c" x1="6" x2="6" y1="30" y2="2" gradientUnits="userSpaceOnUse"><stop offset="0" stop-color="#197cf1"/><stop offset="1" stop-color="#20bcfa"/></linearGradient><linearGradient id="b" gradientUnits="userSpaceOnUse"><stop offset="0" stop-color="#433a35"/><stop offset="1" stop-color="#997657"/></linearGradient><linearGradient id="a" gradientUnits="userSpaceOnUse"><stop offset="0" stop-color="#6c5548"/><stop offset="1" stop-color="#997657"/></linearGradient><radialGradient id="f" cx="16" cy="16" r="9" gradientTransform="matrix(.88889 -.00002 .00003 1.44444 4.778 -7.11)" gradientUnits="userSpaceOnUse"><stop offset="0" stop-color="#fff"/><stop offset="1" stop-color="#eff0f1" stop-opacity="0"/></radialGradient><radialGradient id="u" cx="7" cy="16" r="1" gradientUnits="userSpaceOnUse"><stop offset="0" stop-color="#eff0f1"/><stop offset="1" stop-color="#bdc3c7"/></radialGradient><linearGradient xlink:href="#a" id="g" x1="27" x2="27" y1="29" y2="3"/><linearGradient xlink:href="#a" id="h" x1="27" x2="26" y1="29" y2="29"/><linearGradient xlink:href="#b" id="i" x1="11" x2="12" y1="29" y2="29"/><linearGradient xlink:href="#b" id="j" x1="8" x2="9" y1="29" y2="29" gradientTransform="matrix(1 0 0 .04 3 2.84)"/><linearGradient id="k" x1="5" x2="13" y1="16" y2="16" gradientUnits="userSpaceOnUse"><stop offset="0" stop-color="#997657"/><stop offset="1" stop-color="#d4ba94"/></linearGradient><linearGradient xlink:href="#a" id="l" x1="8" x2="6" y1="27" y2="27"/><linearGradient xlink:href="#a" id="m" x1="12" x2="10" y1="26" y2="26"/><linearGradient xlink:href="#a" id="n" x1="8" x2="6" y1="7" y2="7"/><linearGradient xlink:href="#a" id="o" x1="12" x2="10" y1="8" y2="8"/><linearGradient xlink:href="#a" id="p" x1="8" x2="6" y1="21" y2="21"/><linearGradient xlink:href="#a" id="q" x1="12" x2="10" y1="21" y2="21"/><linearGradient xlink:href="#a" id="r" x1="8" x2="6" y1="13" y2="13"/><linearGradient xlink:href="#a" id="s" x1="12" x2="10" y1="13" y2="13"/><linearGradient xlink:href="#a" id="t" x1="4" x2="5" y1="16" y2="16"/><path fill="url(#c)" d="M14.809 3A14 14 0 0 0 11 5.266v21.468A14 14 0 0 0 14.809 29H25.19q.941-.375 1.809-.877V3.877A14 14 0 0 0 25.191 3z"/><path fill="url(#d)" fill-rule="evenodd" d="M14.807 3A14 14 0 0 0 11 5.26v12.314l6.188 3.559L18.502 29h6.686A14 14 0 0 0 27 28.125V3.877A14 14 0 0 0 25.191 3z" opacity=".2"/><path fill="url(#e)" d="M14.854 3A14 14 0 0 0 11 5.291V11l1 1v-2l2-1V8l2-1 2-2v1l1-1-1-1h2v1l2-1-1-1zM14 16l-2 1h-1v1l1 1-1 1v2l1 2 2 2v2.629a14 14 0 0 0 .885.371H21v-1l2-1 1-1v-2l1-1v-1l-1-1-3-1-1-1-1-1h-1l-1-1z"/><path fill="url(#f)" d="M11 3h16v26H11z" opacity=".4"/><path fill="url(#g)" d="M11 3h16v1H11zm0 25h16v1H11z"/><path fill="url(#h)" d="M26 3h1v26h-1z"/><path fill="url(#i)" d="M11 4h1v25h-1z"/><path fill="url(#j)" d="M11 3h1v1h-1z"/><path fill="url(#k)" d="M13 4 5 2v28l8-2z"/><path fill="url(#l)" d="m6 28 2-.5v-4.625L6 23z"/><path fill="url(#m)" d="m10 27 2-.5v-3.875l-2 .125z"/><path fill="url(#n)" d="m6 4 2 .5v4.625L6 9z"/><path fill="url(#o)" d="m10 5 2 .5v3.875l-2-.125z"/><path fill="url(#p)" d="M8 18H6v4l2-.125z"/><path fill="url(#q)" d="M12 18h-2v3.75l2-.125z"/><path fill="url(#r)" d="M8 14H6v-4l2 .125z"/><path fill="url(#s)" d="M12 14h-2v-3.75l2 .125z"/><path fill="url(#t)" d="M4 2.5 5 2v28l-1-.5z"/><circle cx="7" cy="16" r="1" fill="url(#u)"/></svg>