<svg xmlns="http://www.w3.org/2000/svg" xmlns:xlink="http://www.w3.org/1999/xlink" width="32" height="32"><linearGradient id="b" x2="0" y1="44" y2="4" gradientTransform="matrix(.7 0 0 .7 -.7 -1.1)" gradientUnits="userSpaceOnUse"><stop offset="0" stop-color="#1d1e1e"/><stop offset="1" stop-color="#44484c"/></linearGradient><linearGradient xlink:href="#a" id="c" x2="0" y1="507.8" y2="506.8" gradientTransform="matrix(.7 0 0 .7 -270.499 -350.76)"/><linearGradient id="a" x2="0" y1="507.8" y2="506.8" gradientUnits="userSpaceOnUse"><stop offset="0" stop-color="#3da103"/><stop offset="1" stop-color="#7ddf07"/></linearGradient><linearGradient xlink:href="#a" id="d" x2="0" y1="507.8" y2="506.8" gradientTransform="matrix(.7 0 0 .7 -270.499 -339.76)"/><linearGradient xlink:href="#a" id="e" x2="0" y1="507.8" y2="506.8" gradientTransform="matrix(.7 0 0 .7 -270.499 -328.76)"/><linearGradient id="f" x1="5" x2="18" y1="12" y2="25" gradientUnits="userSpaceOnUse"><stop offset="0" stop-color="#292c2f"/><stop offset="1" stop-opacity="0"/></linearGradient><path fill="#111213" d="M3 7h26v17H3z"/><g stroke-width=".7"><path fill="url(#b)" d="M3 2v28h26V2zm1 6h24v4H4zm0 11h24v4H4z"/><path fill="url(#c)" d="M5 4h2v1H5z"/><path fill="url(#d)" d="M5 15h2v1H5z"/><path fill="url(#e)" d="M5 26h2v1H5z"/></g><path d="M3 29h26v1H3z" opacity=".2"/><path fill="url(#f)" fill-rule="evenodd" d="m4 12 7 7h17v4H15l7 7h7V13l-1-1z" opacity=".4"/><rect width="16" height="16" x="16" y="14" fill="#eff0f1" rx="2"/><g fill="#232629"><path d="M27.936 23a2 2 0 0 1 .064.5v.5a2 2 0 0 1-2 2h-1v2h5v-5h-2z"/><path d="M25 23v2h1a1 1 0 0 0 .295-.045 1 1 0 0 0 .35-.19 1 1 0 0 0 .246-.312A1 1 0 0 0 27 24v-.5a1 1 0 0 0-.137-.5zm-7 0v5h5v-2h-3v-1h3v-2zm0-7v5h2.064a2 2 0 0 1-.064-.5V20a2 2 0 0 1 2-2h1v-2z"/><path d="M22 19a1 1 0 0 0-.295.045 1 1 0 0 0-.35.19 1 1 0 0 0-.246.312A1 1 0 0 0 21 20v.5a1 1 0 0 0 .137.5H23v-2zm3-3v2h3v1h-3v2h5v-5z"/></g></svg>