<svg xmlns="http://www.w3.org/2000/svg" xmlns:xlink="http://www.w3.org/1999/xlink" width="32" height="32"><linearGradient id="b"><stop offset="0" stop-color="#eef1f2"/><stop offset="1" stop-color="#f9fafb"/></linearGradient><linearGradient id="c"><stop offset="0"/><stop offset="1" stop-opacity="0"/></linearGradient><linearGradient id="a"><stop offset="0" stop-color="#18222a"/><stop offset="1" stop-color="#566069"/></linearGradient><linearGradient id="d"><stop offset="0" stop-color="#2f3943"/><stop offset="1" stop-color="#4d5662"/></linearGradient><linearGradient id="e" x1="432.572" x2="432.572" y1="531.798" y2="507.798" gradientTransform="matrix(.58333 0 0 .625 154.239 211.424)" gradientUnits="userSpaceOnUse"><stop offset="0" stop-color="#c6cdd1"/><stop offset="1" stop-color="#e0e5e7"/></linearGradient><linearGradient xlink:href="#a" id="f" x1="426.571" x2="426.571" y1="514.798" y2="511.298" gradientTransform="matrix(.55556 0 0 1.14286 165.587 -57.542)" gradientUnits="userSpaceOnUse"/><linearGradient xlink:href="#b" id="g" x1="393.571" x2="393.571" y1="520.798" y2="519.798" gradientUnits="userSpaceOnUse"/><linearGradient xlink:href="#b" id="h" x1="410.349" x2="410.349" y1="507.512" y2="505.798" gradientTransform="matrix(.5625 0 0 .58333 162.75 225.75)" gradientUnits="userSpaceOnUse"/><linearGradient xlink:href="#b" id="i" x1="403.238" x2="403.238" y1="519.798" y2="507.798" gradientTransform="matrix(.5625 0 0 .75 162.75 140.95)" gradientUnits="userSpaceOnUse"/><linearGradient xlink:href="#a" id="j" x1="426.571" x2="426.571" y1="533.798" y2="539.048" gradientTransform="matrix(.61111 0 0 .57143 142.889 237.77)" gradientUnits="userSpaceOnUse"/><linearGradient id="k" x1="396.127" x2="421.016" y1="539.798" y2="539.798" gradientTransform="matrix(.72321 0 0 .5 97.087 275.9)" gradientUnits="userSpaceOnUse"><stop offset="0" stop-color="#e74c3c"/><stop offset=".25" stop-color="#f39c1f"/><stop offset=".5" stop-color="#11d116"/><stop offset=".75" stop-color="#3498db"/><stop offset="1" stop-color="#9b59b6"/></linearGradient><linearGradient xlink:href="#c" id="l" x1="395.971" x2="406.771" y1="533.798" y2="545.798" gradientTransform="matrix(.55556 0 0 .5 164.587 275.899)" gradientUnits="userSpaceOnUse"/><linearGradient xlink:href="#d" id="m" x1="402.571" x2="382.571" y1="537.798" y2="530.798" gradientUnits="userSpaceOnUse"/><linearGradient xlink:href="#d" id="n" x1="352.571" x2="361.571" y1="528.798" y2="528.798" gradientTransform="rotate(-90 371.571 521.798)" gradientUnits="userSpaceOnUse"/><linearGradient xlink:href="#d" id="o" x1="352.571" x2="361.571" y1="528.798" y2="528.798" gradientTransform="scale(1 -1)rotate(90 914.37 21)" gradientUnits="userSpaceOnUse"/><linearGradient xlink:href="#c" id="p" x1="383.571" x2="390.571" y1="530.798" y2="537.798" gradientUnits="userSpaceOnUse"/><g transform="translate(-376.571 -517.798)"><g stroke-linejoin="round"><path fill="url(#e)" d="M378.572 528.798h28v15h-28z"/><path fill="#737b81" d="M378.571 543.798h28v1h-28z"/><path fill="url(#f)" d="M382.571 522.798h20v8h-20z"/><path fill="url(#g)" d="M383.571 519.798h18v9h-18z"/><path fill="url(#h)" d="M383.571 520.798h18v7h-18z"/><path fill="url(#i)" d="M383.571 521.798h18v9h-18z"/><path fill="url(#j)" d="M381.571 542.798h22v4h-22z"/><path fill="#eff0f1" d="M382.571 542.798h20v5h-20z"/><path fill="url(#k)" d="M383.571 542.798h18v4h-18z"/></g><path fill="url(#l)" fill-rule="evenodd" d="m381.571 542.798 5 5h14v-1h1v-4z" opacity=".2"/><path fill="#99a1a7" d="M380.571 539.798h24v1h-24z"/><path fill="url(#m)" d="M382.571 530.798v5c0 .554.446 1 1 1h18c.554 0 1-.446 1-1v-5z"/><path fill="url(#n)" d="M378.571 541.798h1c.554 0 1-.446 1-1v-10c0-.554-.446-1-1-1h-1z"/><path fill="url(#o)" d="M406.571 541.798h-1c-.554 0-1-.446-1-1v-10c0-.554.446-1 1-1h1z"/><path fill="url(#p)" fill-rule="evenodd" d="m382.571 530.798 8 8h12v-8z" opacity=".2"/><path fill="#d9d9d9" d="M362.321 531.798a.25.25 0 1 0 0 .5.25.25 0 1 0 0-.5m1.75 0-.5.5.75.75-.25.25-.25.25-.25.25.5.5.25-.25.25-.25.25-.25.5-.5zm-2.375 1.5a.374.374 0 1 0 0 .75.374.374 0 1 0 0-.75m1.125 1.5a.499.499 0 1 0 0 1 .499.499 0 1 0 0-1"/><circle cx="406.071" cy="540.298" r=".5" fill="#11d116"/></g></svg>