<svg xmlns="http://www.w3.org/2000/svg" xmlns:xlink="http://www.w3.org/1999/xlink" width="32" height="32"><defs><linearGradient id="g"><stop style="stop-color:#c6cdd1"/><stop offset="1" style="stop-color:#cfd7da;stop-opacity:1"/></linearGradient><linearGradient id="e"><stop style="stop-color:#147de1"/><stop offset=".7" style="stop-color:#88bff4"/><stop offset="1" style="stop-color:#3995ed"/></linearGradient><linearGradient id="d"><stop style="stop-color:#23262c"/><stop offset=".7" style="stop-color:#4e5462"/><stop offset="1" style="stop-color:#23262c"/></linearGradient><linearGradient id="c"><stop style="stop-color:#74868f"/><stop offset=".7" style="stop-color:#d3d9dc"/><stop offset="1" style="stop-color:#d6dddf"/></linearGradient><linearGradient id="b"><stop style="stop-color:#f2f2f2"/><stop offset="1" style="stop-color:#f9f9f9"/></linearGradient><linearGradient xlink:href="#a" id="h" x2="0" y1="543.798" y2="502.655" gradientTransform="matrix(.66667 0 0 .68056 128.19 175.713)" gradientUnits="userSpaceOnUse"/><linearGradient id="a"><stop style="stop-color:#c6cdd1"/><stop offset="1" style="stop-color:#e0e5e7"/></linearGradient><linearGradient xlink:href="#b" id="i" x2="0" y1="540.798" y2="524.798" gradientUnits="userSpaceOnUse"/><linearGradient xlink:href="#c" id="k" x1="407.571" x2="408.571" gradientUnits="userSpaceOnUse"/><linearGradient xlink:href="#d" id="j" x1="407.571" x2="408.571" gradientUnits="userSpaceOnUse"/><linearGradient xlink:href="#e" id="l" x1="407.571" x2="408.571" gradientUnits="userSpaceOnUse"/><linearGradient xlink:href="#d" id="n" x1="23" x2="24" gradientUnits="userSpaceOnUse"/><linearGradient xlink:href="#f" id="m" x1="400.571" x2="414.571" y1="525.798" y2="539.798" gradientTransform="translate(-384.571 -515.798)" gradientUnits="userSpaceOnUse"/><linearGradient id="f"><stop style="stop-color:#292c2f"/><stop offset="1" style="stop-opacity:0"/></linearGradient><linearGradient xlink:href="#g" id="o" x1="385.571" x2="415.571" y1="544.798" y2="544.798" gradientUnits="userSpaceOnUse"/></defs><g transform="translate(-384.571 -515.798)"><rect width="32" height="28" x="384.571" y="517.798" rx="2.108" ry="2" style="fill:url(#h)"/><rect width="32" height="5" x="384.571" y="517.798" rx="2" ry="2" style="fill:#23262c"/><path d="M411.572 519.798h3v1h-3z" style="fill:#3995ed"/><path d="M386.571 519.798h3v1h-3z" style="fill:#ebf4fd"/><path d="M387.571 524.798h26v16h-26z" style="fill:url(#i)"/><path d="M387.571 524.798h26v1h-26z" style="fill:#cad3d6"/><path d="M407.571 526.798h1v7h-1z" style="fill:url(#j)"/><path d="M407.571 533.798h1v5h-1z" style="fill:url(#k)"/><path d="M407.571 537.798h1v1h-1z" style="fill:url(#l)"/><path d="m24 11-.5 13 4 4 2 2H32V19l-2-2z" style="opacity:.2;fill:url(#m);fill-rule:evenodd" transform="translate(384.571 515.798)"/><path d="M23 23v.3l.5.7.5-.7V23Z" style="fill:url(#n);fill-rule:evenodd" transform="translate(384.571 515.798)"/><rect width="30" height="2" x="385.571" y="543.798" ry="1" style="fill:url(#o);fill-opacity:1"/></g></svg>