<svg xmlns="http://www.w3.org/2000/svg" xmlns:xlink="http://www.w3.org/1999/xlink" width="32" height="32"><linearGradient id="b" x2="0" y1="44" y2="4" gradientTransform="matrix(.7 0 0 .7 -.7 -1.1)" gradientUnits="userSpaceOnUse"><stop offset="0" stop-color="#1d1e1e"/><stop offset="1" stop-color="#44484c"/></linearGradient><linearGradient xlink:href="#a" id="c" x1="6" x2="6" y1="5" y2="4"/><linearGradient id="a" x2="0" y1="507.8" y2="506.8" gradientUnits="userSpaceOnUse"><stop offset="0" stop-color="#3da103"/><stop offset="1" stop-color="#7ddf07"/></linearGradient><linearGradient xlink:href="#a" id="d" x1="6" x2="6" y1="16" y2="15"/><linearGradient xlink:href="#a" id="e" x1="6" x2="6" y1="27" y2="26"/><linearGradient id="f" x1="5" x2="18" y1="12" y2="25" gradientUnits="userSpaceOnUse"><stop offset="0" stop-color="#292c2f"/><stop offset="1" stop-opacity="0"/></linearGradient><path fill="#111213" d="M3 7h26v17H3z"/><path fill="url(#b)" d="M3 2v28h26V2zm1 6h24v4H4zm0 11h24v4H4z"/><path d="M3 29h26v1H3z" opacity=".2"/><g stroke-width=".7"><path fill="url(#c)" d="M5 4h2v1H5z"/><path fill="url(#d)" d="M5 15h2v1H5z"/><path fill="url(#e)" d="M5 26h2v1H5z"/></g><path fill="url(#f)" fill-rule="evenodd" d="m4 12 7 7h17v4H15l7 7h7V13l-1-1z" opacity=".4"/><rect width="16" height="16" x="16" y="14" fill="#eff0f1" rx="2"/><path fill="#232629" d="m27 15-2 2-2 1-1 1-5 1v2l1 1v1l1 1v1l1 1h7l1 1 3-3-1-1-1-5-2 2-2 1-1 1-4.654.932-.346-.346v-.766l4.494-.9 1.1-1.1 2-1 1.642-1.642L28 17l-2 2-2 1-1 1-4.654.932-.346-.346v-.766l4.494-.9 1.1-1.1 2-1 1.642-1.642z"/></svg>