<svg xmlns="http://www.w3.org/2000/svg" xmlns:xlink="http://www.w3.org/1999/xlink" fill="none" viewBox="0 0 32 33"><defs><linearGradient id="a" x1="10.286" x2="16.3" y1="1" y2="27.933" gradientUnits="userSpaceOnUse"><stop offset="0" stop-color="#26343c"/><stop offset=".448" stop-color="#1a2530"/><stop offset="1" stop-color="#121920"/></linearGradient><linearGradient id="b" x2="32" y1="28" y2="28" gradientUnits="userSpaceOnUse"><stop offset="0" stop-color="#070f17"/><stop offset="1"/></linearGradient><linearGradient id="c" x2="32" y1="1" y2="1" gradientUnits="userSpaceOnUse"><stop offset="0" stop-color="#3b4c56"/><stop offset=".5" stop-color="#334551"/><stop offset="1" stop-color="#243540"/></linearGradient><linearGradient id="d" x1="21.599" x2="-3.073" y1="2.411" y2="17.237" gradientUnits="userSpaceOnUse"><stop offset="0" stop-color="#1abc9c"/><stop offset="1" stop-color="#2980b9"/></linearGradient><linearGradient id="e" x1="9.887" x2="6.089" y1="31.766" y2="19.225" gradientUnits="userSpaceOnUse"><stop offset="0" stop-color="#334545"/><stop offset="1" stop-color="#536161"/></linearGradient><linearGradient id="f" x1="13.217" x2="29.16" y1="16.352" y2="19.478" gradientUnits="userSpaceOnUse"><stop offset="0" stop-color="#cc4a5e"/><stop offset="1" stop-color="#aa478a"/></linearGradient><linearGradient id="g"><stop offset="0"/><stop offset="1" stop-opacity="0"/></linearGradient><linearGradient xlink:href="#g" id="h" x1="16" x2="16" y1="3" y2="26" gradientUnits="userSpaceOnUse"/><linearGradient xlink:href="#g" id="i" x1="15.408" x2="33.185" y1="9.778" y2="29.037" gradientUnits="userSpaceOnUse"/><linearGradient id="j" x1="17.635" x2="17.635" y1="9.846" y2="32.002" gradientUnits="userSpaceOnUse"><stop offset="0" stop-color="#fccec0"/><stop offset="1" stop-color="#c98350"/></linearGradient><linearGradient id="k" x1="18" x2="18" y1="21" y2="32" gradientUnits="userSpaceOnUse"><stop offset="0" stop-color="#a96535" stop-opacity="0"/><stop offset="1" stop-color="#a96535"/></linearGradient><linearGradient id="l" x1="18" x2="18" y1="10" y2="25.5" gradientUnits="userSpaceOnUse"><stop offset="0" stop-color="#fff"/><stop offset="1" stop-color="#fff" stop-opacity=".5"/></linearGradient><style id="current-color-scheme" type="text/css">.ColorScheme-Highlight{color:#3daee9}</style></defs><path fill="url(#a)" d="M0 4a3 3 0 0 1 3-3h26a3 3 0 0 1 3 3v21a3 3 0 0 1-3 3H3a3 3 0 0 1-3-3z"/><path fill="url(#b)" d="M29 28H3a3 3 0 0 1-3-3v-1a3 3 0 0 0 3 3h26a3 3 0 0 0 3-3v1a3 3 0 0 1-3 3"/><path fill="url(#c)" d="M3 1a3 3 0 0 0-3 3v1a3 3 0 0 1 3-3h26a3 3 0 0 1 3 3V4a3 3 0 0 0-3-3z"/><path fill="url(#d)" d="M3 3a1 1 0 0 0-1 1v21a1 1 0 0 0 1 1h26a1 1 0 0 0 1-1V4a1 1 0 0 0-1-1z"/><path fill="url(#e)" d="M11.14 17.14 2 24v1a1 1 0 0 0 1 1h19z"/><path fill="url(#f)" d="m29.664 3.252-18.521 13.89L22 26h7a1 1 0 0 0 1-1V3.988a1 1 0 0 0-.336-.736"/><path fill="#aa478a" d="M29.664 3.252 11.14 17.14 30 11V3.981a1 1 0 0 0-.336-.729"/><path fill="url(#h)" d="M2 4a1 1 0 0 1 1-1h26a1 1 0 0 1 1 1v21a1 1 0 0 1-1 1H3a1 1 0 0 1-1-1z" opacity=".2"/><path d="M21.65 11.5a5.5 5.5 0 1 1-11 0 5.5 5.5 0 0 1 11 0" class="ColorScheme-Highlight" opacity=".5" style="fill:currentColor"/><path d="M20.65 11.5a4.5 4.5 0 1 1-9 0 4.5 4.5 0 0 1 9 0" class="ColorScheme-Highlight" style="fill:currentColor"/><path fill="#000" fill-opacity=".4" d="M20.65 11.5a4.5 4.5 0 1 1-9 0 4.5 4.5 0 0 1 9 0"/><path fill="url(#i)" d="M17.5 28V10.5L32 25a3 3 0 0 1-3 3z" opacity=".2"/><path fill="url(#j)" d="M16.704 31.704c2.476.275 5.974.295 6.461.296l.117.001c2.15.035 4.01-1.397 4.286-3.536l.691-4.761c.593-3.556-2.074-4.445-2.963-2.667 0-2.074-2.37-3.26-3.555-1.481 0-1.778-2.556-2.963-3.741-1.186v-6.518c0-2.37-3.5-2.963-3.5 0V24.5S14 23 13 22c-3.26-3.26-4.889-.074-4.889-.074 2.37 1.778 4.166 9.286 8.593 9.778"/><path fill="url(#k)" d="M23.165 32c-.487-.001-3.985-.021-6.461-.296-2.809-.312-4.558-3.449-6.067-6.154-.87-1.559-1.66-2.974-2.526-3.624 0 0 .147-.287.44-.6.7.74 1.366 1.933 2.086 3.224 1.509 2.705 3.258 5.842 6.067 6.154 2.476.275 5.974.294 6.461.296l.102.001h.014c2.151.035 4.011-1.397 4.287-3.536l.691-4.761a7 7 0 0 0 .06-.457c.045.422.032.908-.06 1.457l-.69 4.761c-.277 2.14-2.137 3.57-4.288 3.536h-.014z"/><path fill="url(#l)" fill-rule="evenodd" d="M14.5 24.5S14 23 13 22c-3.26-3.26-4.889-.074-4.889-.074q.223.169.44.4c.685-.732 2.168-1.607 4.449.674 1 1 1.5 2.5 1.5 2.5zm3.5-5.13v-1c1.185-1.777 3.74-.592 3.74 1.185 1.186-1.777 3.556-.592 3.556 1.482.85-1.7 3.323-.962 3.023 2.21-.248-2.31-2.271-2.713-3.023-1.21 0-2.074-2.37-3.26-3.555-1.481 0-1.778-2.556-2.963-3.741-1.186m0-7.518v1c0-2.37-3.5-2.963-3.5 0v-1c0-2.963 3.5-2.37 3.5 0" clip-rule="evenodd" opacity=".6"/></svg>