<svg xmlns="http://www.w3.org/2000/svg" viewBox="0 0 32 32"><defs><linearGradient id="h" x1="16" x2="16" y1="30" y2="2" gradientUnits="userSpaceOnUse"><stop offset="0" stop-color="#788085"/><stop offset="1" stop-color="#9ba1a6"/></linearGradient><linearGradient id="c" x1="23" x2="23" y1="18" y2="9" gradientUnits="userSpaceOnUse"><stop offset="0" stop-color="#c61423"/><stop offset="1" stop-color="#dc2b41"/></linearGradient><linearGradient id="a" x1="400.571" x2="400.571" y1="545.798" y2="517.798" gradientTransform="matrix(.85714 0 0 .85714 -327.347 -439.827)" gradientUnits="userSpaceOnUse"><stop offset="0" stop-color="#eff0f1"/><stop offset="1" stop-color="#fcfcfc"/></linearGradient><linearGradient id="b" x1="9" x2="18" y1="14" y2="23" gradientUnits="userSpaceOnUse"><stop offset="0" stop-color="#4d4d4d"/><stop offset="1" stop-color="#232629"/></linearGradient><linearGradient id="d" x1="11" x2="26" y1="8" y2="24" gradientTransform="translate(-2 1)" gradientUnits="userSpaceOnUse"><stop offset="0" stop-color="#292c2f"/><stop offset="1" stop-opacity="0"/></linearGradient></defs><path fill="url(#a)" d="M16 4c6.648 0 12 5.352 12 12s-5.352 12-12 12S4 22.648 4 16 9.352 4 16 4"/><path fill="#4d4d4d" d="M16.5 6h-1V4h1z"/><path fill="url(#b)" d="m18 18-9 5 5-9z"/><path fill="url(#c)" d="m14 14 9-5-5 9z"/><path fill="#bdc3c7" d="M17 16a1 1 0 0 1-1 1 1 1 0 0 1-1-1 1 1 0 0 1 1-1 1 1 0 0 1 1 1"/><path fill="#9fa5a8" d="M16.5 16a.5.5 0 0 1-.5.5.5.5 0 0 1-.5-.5.5.5 0 0 1 .5-.5.5.5 0 0 1 .5.5"/><path fill="url(#d)" fill-rule="evenodd" d="M23 9 9 23l4.79 4.79a11.948 11.948 0 0 0 11.008-3.63l.608-.705a11.96 11.96 0 0 0 2.383-9.666z" opacity=".2"/><g fill="#4d4d4d" stroke-width="1.414"><path d="M6 15.5v1H4v-1zM28 15.5v1h-2v-1zM16.5 28h-1v-2h1z"/></g><path fill="url(#h)" d="M16 2C8.268 2 2 8.268 2 16s6.268 14 14 14 14-6.268 14-14S23.732 2 16 2m0 2c6.648 0 12 5.352 12 12s-5.352 12-12 12S4 22.648 4 16 9.352 4 16 4"/><path d="M29.979 15.414C29.755 22.976 23.565 28.992 16 29c-7.5-.005-13.665-5.92-13.979-13.414A14 14 0 0 0 2 16c0 7.732 6.268 14 14 14s14-6.268 14-14a14 14 0 0 0-.021-.586" opacity=".2"/><path fill="#788085" d="M16 3C9.352 3 4 8.352 4 15c0 .169.019.333.025.5A11.96 11.96 0 0 1 16 4c6.48 0 11.712 5.088 11.975 11.5.006-.167.025-.331.025-.5 0-6.648-5.352-12-12-12"/></svg>