<svg xmlns="http://www.w3.org/2000/svg" xmlns:xlink="http://www.w3.org/1999/xlink" width="32" height="32"><defs><linearGradient id="c"><stop style="stop-color:#2a2c2f"/><stop offset="1" style="stop-color:#424649"/></linearGradient><linearGradient id="d"><stop stop-color="#21c9fb"/><stop offset="1" stop-color="#197cf1"/></linearGradient><linearGradient xlink:href="#a" id="k" x1="393.571" x2="407.571" y1="524.798" y2="538.798" gradientTransform="translate(-1.9 1.1)" gradientUnits="userSpaceOnUse"/><linearGradient id="a"><stop style="stop-color:#292c2f"/><stop offset="1" style="stop-opacity:0"/></linearGradient><linearGradient id="b"><stop/><stop offset="1" style="stop-opacity:0"/></linearGradient><linearGradient xlink:href="#b" id="i" x1="391.571" x2="406.571" y1="525.798" y2="540.798" gradientTransform="translate(-1 -.022)" gradientUnits="userSpaceOnUse"/><linearGradient xlink:href="#c" id="m" x2="0" y1="543.798" y2="539.798" gradientTransform="translate(.1)" gradientUnits="userSpaceOnUse"/><linearGradient xlink:href="#d" id="j" x2="0" y1="543.798" y2="523.798" gradientTransform="translate(.1)" gradientUnits="userSpaceOnUse"/><linearGradient xlink:href="#c" id="l" x2="0" y1="-533.798" y2="-523.798" gradientTransform="translate(.1 -3)" gradientUnits="userSpaceOnUse"/><linearGradient xlink:href="#e" id="g" x2="0" y1="543.8" y2="502.66" gradientTransform="matrix(.66667 0 0 .63518 -256.38 -317.28)" gradientUnits="userSpaceOnUse"/><linearGradient id="e" x2="0" y1="543.8" y2="502.66" gradientTransform="matrix(.66667 0 0 .63518 -256.38 -317.28)" gradientUnits="userSpaceOnUse"><stop offset="0" stop-color="#c6cdd1"/><stop offset="1" stop-color="#e0e5e7"/></linearGradient><linearGradient xlink:href="#e" id="h" x2="0" y1="543.8" y2="502.66" gradientTransform="matrix(.66667 0 0 .63518 -256.38 -317.28)" gradientUnits="userSpaceOnUse"/></defs><g transform="translate(-384.571 -515.798)"><g transform="translate(.088 -.002)"><path d="m32 9-1-1L1.123 27l2.432 3H28.8c1.774 0 3.2-1.426 3.2-3.2z" style="fill:url(#g)" transform="translate(384.57 515.8)"/><path d="M3.2 2A3.19 3.19 0 0 0 0 5.2v21.6A3.19 3.19 0 0 0 3.2 30h.355l-2.432-3L31 8l1 1V5.2A3.19 3.19 0 0 0 28.8 2Z" style="fill:url(#h)" transform="translate(384.57 515.8)"/><path d="M387.07 517.8a2.49 2.49 0 0 0-2.5 2.5v1.5h32v-1.5a2.49 2.49 0 0 0-2.5-2.5z" style="fill:#566069"/><path d="M384.57 521.8h32v1h-32z" style="fill:#3daee9"/><rect width="30" height="20" x="385.57" y="523.8" ry="2" style="fill:#fff"/><rect width="2" height="2" x="413.57" y="518.8" rx="1" style="fill:#eff0f1"/></g><path d="m384.571 543.776 30-20 1 1v21h-29z" style="opacity:.2;fill:url(#i);fill-rule:evenodd"/><rect width="30" height="20" x="385.671" y="523.798" rx="2.1" ry="2" style="fill:url(#j)"/><rect width="12" height="12" x="394.671" y="525.798" rx="6" style="opacity:.3;fill:#ebf9fe"/><path d="m404.166 528.304-7.045 7.045 8.45 8.449h9.1v-4.9z" style="opacity:.2;fill:url(#k);fill-rule:evenodd"/><rect width="10" height="10" x="395.671" y="-536.798" rx="5" style="fill:url(#l)" transform="scale(1 -1)"/><path d="M398.671 528.798v6l4.5-3z" style="fill:#fff;fill-rule:evenodd"/><rect width="30" height="4" x="385.671" y="539.798" rx="1.9" ry="2" style="fill:url(#m)"/><rect width="16" height="2" x="387.484" y="540.798" rx="1" style="fill:#3092df"/><rect width="2" height="2" x="401.484" y="540.798" rx="1" style="fill:#daebf9"/></g></svg>