<svg xmlns="http://www.w3.org/2000/svg" xmlns:xlink="http://www.w3.org/1999/xlink" width="32" height="32"><defs><linearGradient id="c"><stop/><stop offset="1" style="stop-opacity:0"/></linearGradient><linearGradient xlink:href="#b" id="d" x2="0" y1="543.8" y2="502.66" gradientTransform="matrix(.66667 0 0 .63518 -256.38 -317.28)" gradientUnits="userSpaceOnUse"/><linearGradient id="b" x2="0" y1="543.8" y2="502.66" gradientTransform="matrix(.66667 0 0 .63518 -256.38 -317.28)" gradientUnits="userSpaceOnUse"><stop offset="0" stop-color="#c6cdd1"/><stop offset="1" stop-color="#e0e5e7"/></linearGradient><linearGradient xlink:href="#b" id="e" x2="0" y1="543.8" y2="502.66" gradientTransform="matrix(.66667 0 0 .63518 -256.38 -317.28)" gradientUnits="userSpaceOnUse"/><linearGradient xlink:href="#c" id="f" x1="393.571" x2="407.571" y1="526.798" y2="540.798" gradientUnits="userSpaceOnUse"/></defs><g transform="translate(-384.57 -515.8)"><path d="m32 9-1-1L1.123 27l2.432 3H28.8c1.774 0 3.2-1.426 3.2-3.2z" style="fill:url(#d)" transform="translate(384.57 515.8)"/><path d="M3.2 2A3.19 3.19 0 0 0 0 5.2v21.6A3.19 3.19 0 0 0 3.2 30h.355l-2.432-3L31 8l1 1V5.2A3.19 3.19 0 0 0 28.8 2Z" style="fill:url(#e)" transform="translate(384.57 515.8)"/><path d="M387.07 517.8a2.49 2.49 0 0 0-2.5 2.5v1.5h32v-1.5a2.49 2.49 0 0 0-2.5-2.5z" style="fill:#566069"/><path d="M384.57 521.8h32v1h-32z" style="fill:#3daee9"/><rect width="30" height="20" x="385.57" y="523.8" ry="2" style="fill:#fff"/><rect width="2" height="2" x="413.57" y="518.8" rx="1" style="fill:#eff0f1"/></g><path d="m393.571 540.798 14-14 9 9v10h-18z" style="opacity:.2;fill:url(#f);fill-rule:evenodd" transform="translate(-384.571 -515.798)"/><path d="M393.571 526.798h14v3h-14z" style="fill:#566069;stroke-width:3.77953" transform="translate(-384.571 -515.798)"/><path d="M393.571 529.798h14v1h-14z" style="fill:#3daee9;stroke-width:3.77953" transform="translate(-384.571 -515.798)"/><path d="M393.571 530.798h14v10h-14z" style="fill:#c6cdd1;stroke-width:3.77953" transform="translate(-384.571 -515.798)"/><path d="M394.571 531.798h12v8h-12z" style="fill:#fff;stroke-width:3.77953" transform="translate(-384.571 -515.798)"/><path d="M399.571 532.798v6l3-3z" style="fill:#3daee9;fill-rule:evenodd" transform="translate(-384.571 -515.798)"/></svg>