<svg xmlns="http://www.w3.org/2000/svg" xmlns:xlink="http://www.w3.org/1999/xlink" width="32" height="32"><defs><linearGradient xlink:href="#a" id="e" x2="0" y1="545.798" y2="517.798" gradientUnits="userSpaceOnUse"/><linearGradient id="a"><stop style="stop-color:#42a603"/><stop offset="1" style="stop-color:#78da06"/></linearGradient><linearGradient xlink:href="#b" id="f" x2="0" y1="543.798" y2="503.798" gradientTransform="matrix(.7 0 0 .7 114.571 165.14)" gradientUnits="userSpaceOnUse"/><linearGradient id="b"><stop style="stop-color:#197cf1"/><stop offset="1" style="stop-color:#21c9fb"/></linearGradient><linearGradient xlink:href="#c" id="g" x1="401.571" x2="408.571" y1="524.798" y2="531.798" gradientUnits="userSpaceOnUse"/><linearGradient id="c"><stop style="stop-color:#292c2f"/><stop offset="1" style="stop-opacity:0"/></linearGradient><linearGradient xlink:href="#c" id="h" x1="401.571" x2="408.571" y1="524.798" y2="531.798" gradientTransform="translate(6)" gradientUnits="userSpaceOnUse"/><linearGradient xlink:href="#d" id="i" x2="0" y1="537.798" y2="525.798" gradientUnits="userSpaceOnUse"/><linearGradient id="d"><stop style="stop-color:#7cbaf8"/><stop offset="1" style="stop-color:#f4fcff"/></linearGradient></defs><path d="M392.571 517.798v28h19.023c1.977 0 2.977-1 2.977-3v-18l-7-7z" style="fill:url(#e)" transform="translate(-384.571 -515.798)"/><path d="m414.571 524.798-7-7v4c0 2 1 3 3.025 3z" style="fill:#313437;fill-rule:evenodd" transform="translate(-384.571 -515.798)"/><path d="M386.571 520.798v22c0 2 1 3 3.042 3h18.958v-21l-7-7h-12.019c-1.98 0-2.98 1-2.98 3" style="fill:url(#f)" transform="translate(-384.571 -515.798)"/><path d="m408.571 524.798-7-7v4c0 2 1 3 2.953 3z" style="fill:#313437;fill-rule:evenodd" transform="translate(-384.571 -515.798)"/><path d="m401.571 524.798 7 7v-7z" style="opacity:.01;fill:url(#g);fill-rule:evenodd" transform="translate(-384.571 -515.798)"/><path d="m407.571 524.798 7 7v-7z" style="opacity:.2;fill:url(#h);fill-rule:evenodd" transform="translate(-384.571 -515.798)"/><path d="M392.571 525.798v12h6l4-4v-8h-9zm1 1h8v7h-3v3h-5z" style="fill:url(#i)" transform="translate(-384.571 -515.798)"/></svg>