<svg xmlns="http://www.w3.org/2000/svg" xmlns:xlink="http://www.w3.org/1999/xlink" width="32" height="32"><defs><linearGradient id="c"><stop/><stop offset="1" style="stop-opacity:0"/></linearGradient><linearGradient id="b"><stop style="stop-color:#2e3436"/><stop offset="1" style="stop-color:#555753"/></linearGradient><linearGradient id="d"><stop style="stop-color:#292c2f"/><stop offset="1" style="stop-opacity:0"/></linearGradient><linearGradient xlink:href="#a" id="e" x2="0" y1="543.8" y2="502.66" gradientTransform="matrix(.66667 0 0 .63518 -256.38 -317.28)" gradientUnits="userSpaceOnUse"/><linearGradient id="a" x2="0" y1="543.8" y2="502.66" gradientTransform="matrix(.66667 0 0 .63518 -256.38 -317.28)" gradientUnits="userSpaceOnUse"><stop offset="0" stop-color="#c6cdd1"/><stop offset="1" stop-color="#e0e5e7"/></linearGradient><linearGradient xlink:href="#a" id="f" x2="0" y1="543.8" y2="502.66" gradientTransform="matrix(.66667 0 0 .63518 -256.38 -317.28)" gradientUnits="userSpaceOnUse"/><linearGradient xlink:href="#b" id="h" x2="0" y1="27" y2="9" gradientTransform="translate(384.417 515.798)" gradientUnits="userSpaceOnUse"/><linearGradient xlink:href="#c" id="g" x1="391.571" x2="406.571" y1="525.798" y2="540.798" gradientTransform="translate(-.154)" gradientUnits="userSpaceOnUse"/><linearGradient xlink:href="#d" id="i" x1="18" x2="30" y1="15" y2="27" gradientTransform="translate(384.417 515.798)" gradientUnits="userSpaceOnUse"/></defs><g transform="translate(-384.57 -515.8)"><path d="m32 9-1-1L1.123 27l2.432 3H28.8c1.774 0 3.2-1.426 3.2-3.2z" style="fill:url(#e)" transform="translate(384.57 515.8)"/><path d="M3.2 2A3.19 3.19 0 0 0 0 5.2v21.6A3.19 3.19 0 0 0 3.2 30h.355l-2.432-3L31 8l1 1V5.2A3.19 3.19 0 0 0 28.8 2Z" style="fill:url(#f)" transform="translate(384.57 515.8)"/><path d="M387.07 517.8a2.49 2.49 0 0 0-2.5 2.5v1.5h32v-1.5a2.49 2.49 0 0 0-2.5-2.5z" style="fill:#566069"/><path d="M384.57 521.8h32v1h-32z" style="fill:#3daee9"/><rect width="30" height="20" x="385.57" y="523.8" ry="2" style="fill:#fff"/><rect width="2" height="2" x="413.57" y="518.8" rx="1" style="fill:#eff0f1"/></g><path d="m385.417 543.798 30-20 1 1v21h-29z" style="opacity:.2;fill:url(#g);fill-rule:evenodd" transform="translate(-384.571 -515.798)"/><path d="M385.417 523.798h30v20h-30z" style="fill:#fff" transform="translate(-384.571 -515.798)"/><path d="M386.417 524.798v1h27v-1zm0 3v1h22v-1zm0 3v1h9v-1zm16 0v12h12v-12zm1 1h10v10h-10v-1zm0 9h2l2-2-1-1zm10 0-3-3-3 3zm-7.5-8c-.83 0-1.5.669-1.5 1.5s.67 1.5 1.5 1.5c.831 0 1.5-.669 1.5-1.5s-.669-1.5-1.5-1.5m-19.5 1v1h14v-1zm0 3v1h11v-1zm0 3v1h14v-1z" style="color:#000;fill:url(#h);stroke-width:2" transform="translate(-384.571 -515.798)"/><path d="m409.517 530.98-1.1.5v.318h-2s-1 1-2 1-1 2-1 2v3l1 3 .283-.494.118 1.176 4.6 4.318h7v-9l-3.6-4.02.507 1.53z" style="opacity:.2;fill:url(#i);fill-rule:evenodd" transform="translate(-384.571 -515.798)"/><path d="M408.417 530.798a6 6 0 1 0 0 12 6 6 0 0 0 0-12m0 1a5 5 0 0 1 5 5c0 1.205-.444 2.295-1.154 3.158l-7.004-7.004c.863-.71 1.953-1.154 3.158-1.154m-3.846 1.842 7.004 7.004c-.863.71-1.953 1.154-3.158 1.154a5 5 0 0 1-5-5c0-1.205.444-2.295 1.154-3.158" style="color:#000;fill:#da4453;stroke-width:2" transform="translate(-384.571 -515.798)"/><path d="M408.417 530.798a6 6 0 1 0 0 12 6 6 0 0 0 0-12m0 1a5 5 0 0 1 5 5c0 1.205-.444 2.295-1.154 3.158l-7.004-7.004c.863-.71 1.953-1.154 3.158-1.154m-3.846 1.842 7.004 7.004c-.863.71-1.953 1.154-3.158 1.154a5 5 0 0 1-5-5c0-1.205.444-2.295 1.154-3.158" style="color:#000;fill:#da4453;stroke-width:2" transform="translate(-384.571 -515.798)"/></svg>