<svg xmlns="http://www.w3.org/2000/svg" xmlns:xlink="http://www.w3.org/1999/xlink" width="32" height="32"><linearGradient xlink:href="#a" id="c" x1="6" x2="26" y1="6" y2="26" gradientUnits="userSpaceOnUse"/><linearGradient id="b"><stop offset="0" stop-color="#292c2f"/><stop offset="1" stop-opacity="0"/></linearGradient><linearGradient xlink:href="#b" id="a"/><linearGradient xlink:href="#a" id="d" x1="23" x2="30" y1="13" y2="20" gradientUnits="userSpaceOnUse"/><linearGradient id="e" x1="2" x2="2" y1="30" y2="2" gradientUnits="userSpaceOnUse"><stop offset="0" stop-color="#a5a5a5"/><stop offset="1" stop-color="#f5f2f5"/></linearGradient><linearGradient id="g" x2="0" y1="23" y2="9" gradientUnits="userSpaceOnUse"><stop offset="0" stop-color="#ffd42a"/><stop offset="1" stop-color="#ffdf62"/></linearGradient><linearGradient xlink:href="#b" id="f" x1="12" x2="25" y1="12" y2="25" gradientUnits="userSpaceOnUse"/><rect width="28" height="28" x="2" y="2" fill="#4f575f" rx="14"/><path fill="url(#c)" fill-rule="evenodd" d="m18.594 2.248-2.975.38-4.135 2.388-1.502 2.601s-1.973 1.39-2.271 1.31c-2.517-.029-3.869.665-4.58 1.548-.301.703-.537 1.44-.72 2.197-.006.76.161 1.351.161 1.351 7.06 6.357 14.121 9.097 21.182 13.643a14 14 0 0 0 1.275-.959l.069-.06q.54-.463 1.029-.979.107-.115.21-.232a14 14 0 0 0 1.749-2.375l.055-.09a14 14 0 0 0 1.824-6.282l.002-.02v-.001L28.143 9.03a13.95 13.95 0 0 0-9.55-6.783z" opacity=".2"/><path fill="url(#d)" fill-rule="evenodd" d="m29.012 10.842-4.307 6.66 4.12 4.12a14 14 0 0 0 .187-10.78" opacity=".2"/><path fill="url(#e)" d="M16 2a14 14 0 0 0-13.059 9H3l3-1 1 1 1 1v-2l2-1V8l2-1 2-2v1l1-1-1-1h2v1l2-1-1-1v-.95A14 14 0 0 0 16 2m10.375 4.625L26 7v1h1.469a14 14 0 0 0-1.094-1.375m1.316 1.684L27 9l-2 2-1 1-1 3v1l1 1 1 1 2 1 2.791-.688A14 14 0 0 0 30 16a14 14 0 0 0-2.309-7.691M4 13l-1 1h-.838q-.075.51-.113 1.023v.002L4 16l1 1 2 1 1 1-1 1v2l1 2 2 2v2.629A14 14 0 0 0 16 30q.255-.005.51-.018L17 29v-1l2-1 1-1v-2l1-1v-1l-1-1-3-1-1-1-1-1h-1l-1-1-3-1-2 1H6v-2H5v-2z"/><path fill="url(#f)" fill-rule="evenodd" d="M16.1 9 15 10v2h-2l-1 1-1 1v6l9.318 9.318a13.96 13.96 0 0 0 8.83-8.53l-8.548-8.59-.692.63z" opacity=".2"/><path fill="url(#g)" d="M16 9a2 2 0 0 0-2 2 2 2 0 0 0 .031.338A6 6 0 0 0 10 17a6 6 0 0 0 6 6 6 6 0 0 0 6-6 6 6 0 0 0-1.135-3.502A1 1 0 0 0 21 13a1 1 0 0 0-1-1 1 1 0 0 0-.5.135 6 6 0 0 0-1.53-.795A2 2 0 0 0 18 11a2 2 0 0 0-2-2m0 1a1 1 0 0 1 1 1l-.006.084A6 6 0 0 0 16 11a6 6 0 0 0-.996.09A1 1 0 0 1 15 11a1 1 0 0 1 1-1m0 2a5 5 0 0 1 .441.021l.059.004.13.02a5 5 0 0 1 .32.05l.134.03a5 5 0 0 1 .37.096l.103.03h.002l.062.024a5 5 0 0 1 .342.133l.133.06a5 5 0 0 1 .328.167l.088.05a5 5 0 0 1 .365.235l.014.008.06.045.049.035a5 5 0 0 1 .992.992l.002.004a5 5 0 0 1 .266.39l.013.02.008.016a5 5 0 0 1 .225.416l.004.007.004.008a5 5 0 0 1 .175.422l.022.059a5 5 0 0 1 .12.388l.03.123a5 5 0 0 1 .065.323 5 5 0 0 1 .031.2 5 5 0 0 1 .025.28A5 5 0 0 1 21 17a5 5 0 0 1-.021.441 5 5 0 0 1-.026.21 5 5 0 0 1-.043.275 5 5 0 0 1-.053.236 5 5 0 0 1-.06.242 5 5 0 0 1-.084.25 5 5 0 0 1-.08.221 5 5 0 0 1-.12.262l-.085.177a5 5 0 0 1-.145.254 5 5 0 0 1-.115.188 5 5 0 0 1-.158.22 5 5 0 0 1-.137.18 5 5 0 0 1-.174.2 5 5 0 0 1-.166.177 5 5 0 0 1-.178.166 5 5 0 0 1-.199.174 5 5 0 0 1-.18.137 5 5 0 0 1-.22.158 5 5 0 0 1-.188.115 5 5 0 0 1-.254.145l-.177.086a5 5 0 0 1-.262.119 5 5 0 0 1-.22.08 5 5 0 0 1-.25.084 5 5 0 0 1-.243.06 5 5 0 0 1-.236.053 5 5 0 0 1-.276.043 5 5 0 0 1-.209.026A5 5 0 0 1 16 22a5 5 0 0 1-.441-.021 5 5 0 0 1-.21-.026 5 5 0 0 1-.275-.043 5 5 0 0 1-.236-.053 5 5 0 0 1-.242-.06 5 5 0 0 1-.25-.084 5 5 0 0 1-.221-.08 5 5 0 0 1-.262-.12l-.177-.085a5 5 0 0 1-.254-.145 5 5 0 0 1-.188-.115 5 5 0 0 1-.22-.158 5 5 0 0 1-.18-.137 5 5 0 0 1-.2-.174 5 5 0 0 1-.177-.166 5 5 0 0 1-.166-.178 5 5 0 0 1-.174-.199 5 5 0 0 1-.137-.18 5 5 0 0 1-.158-.22 5 5 0 0 1-.115-.188 5 5 0 0 1-.145-.254l-.086-.177a5 5 0 0 1-.119-.262 5 5 0 0 1-.08-.22 5 5 0 0 1-.084-.25 5 5 0 0 1-.06-.243 5 5 0 0 1-.053-.236 5 5 0 0 1-.043-.276 5 5 0 0 1-.026-.209A5 5 0 0 1 11 17a5 5 0 0 1 .021-.441l.024-.19a5 5 0 0 1 .05-.318l.032-.145a5 5 0 0 1 .088-.342l.047-.142a5 5 0 0 1 .117-.322l.072-.16a5 5 0 0 1 .145-.295l.068-.122a5 5 0 0 1 .195-.318l.063-.086a5 5 0 0 1 .246-.322l.039-.045a5 5 0 0 1 .314-.336 5 5 0 0 1 .37-.324l.023-.02a5 5 0 0 1 .377-.267l.041-.026a5 5 0 0 1 .406-.232 5 5 0 0 1 .455-.203 5 5 0 0 1 1.121-.291l.026-.004.021-.002a5 5 0 0 1 .371-.033l.114-.008zm0 1v3a1 1 0 0 1 1 1h3a4 4 0 0 0-.018-.338 4 4 0 0 0-.025-.21 4 4 0 0 0-.027-.186 4 4 0 0 0-.051-.223l-.04-.154a4 4 0 0 0-.07-.215 4 4 0 0 0-.066-.18 4 4 0 0 0-.078-.174 4 4 0 0 0-.09-.185 4 4 0 0 0-.094-.164 4 4 0 0 0-.115-.188l-.097-.135a4 4 0 0 0-.141-.185l-.113-.129a4 4 0 0 0-.149-.16 4 4 0 0 0-.16-.149l-.129-.113a4 4 0 0 0-.185-.14l-.135-.098a4 4 0 0 0-.188-.115 4 4 0 0 0-.164-.094 4 4 0 0 0-.185-.09 4 4 0 0 0-.174-.078 4 4 0 0 0-.18-.067 4 4 0 0 0-.215-.07l-.154-.039a4 4 0 0 0-.223-.05 4 4 0 0 0-.185-.028 4 4 0 0 0-.211-.025A4 4 0 0 0 16 13"/><path fill="#292c2f" d="M29.979 15.414A14 14 0 0 1 16 29 14 14 0 0 1 2.021 15.586 14 14 0 0 0 2 16a14 14 0 0 0 14 14 14 14 0 0 0 14-14 14 14 0 0 0-.021-.586" opacity=".3"/></svg>