<svg xmlns="http://www.w3.org/2000/svg" xmlns:xlink="http://www.w3.org/1999/xlink" width="32" height="32"><defs><linearGradient id="a"><stop style="stop-color:#2a2c2f"/><stop offset="1" style="stop-color:#424649"/></linearGradient><linearGradient xlink:href="#a" id="d" x2="0" y1="545.798" y2="517.798" gradientUnits="userSpaceOnUse"/><linearGradient id="b"><stop style="stop-color:#999a9c"/><stop offset="1" style="stop-color:#f4f5f5"/></linearGradient><linearGradient xlink:href="#b" id="f" x2="0" y1="537.798" y2="525.798" gradientUnits="userSpaceOnUse"/><linearGradient xlink:href="#c" id="e" x1="9" x2="23" y1="9" y2="23" gradientUnits="userSpaceOnUse"/><linearGradient id="c"><stop style="stop-color:#292c2f"/><stop offset="1" style="stop-opacity:0"/></linearGradient></defs><g transform="translate(-384.571 -515.798)"><rect width="28" height="28" x="386.571" y="517.798" rx="14" style="fill:url(#d)"/><path d="M13.281 9.97 7.17 21.835l8.133 8.13c.232.012.462.036.697.036a13.96 13.96 0 0 0 13.64-10.879l-5.35-5.351-3.33-.288-1.901 1.088.08.053-.065-.012 2.623 2.623-.537.618z" style="fill:url(#e);opacity:.2;fill-rule:evenodd" transform="translate(384.571 515.798)"/><path d="m395.025 532.79 1.998-5.656 1.804 5.655zm5.573 4.842h1.43l-4.176-11.863h-1.69l-4.42 11.863h1.43l1.414-3.754h4.712zM405.533 536.787c-.829 0-1.446-.406-1.446-1.381 0-1.22.731-1.61 3.201-1.934.016 0 .796-.114.796-.114v2.145c-.568.78-1.722 1.284-2.55 1.284m2.584-.114.195.959h1.089v-6.403c0-1.95-1.35-2.518-3.072-2.518-1.235 0-2.388.308-3.055.666l.374 1.04c.715-.341 1.755-.585 2.714-.585 1.202 0 1.722.552 1.722 1.609v.99l-.877.098c-2.243.325-4.453.634-4.453 2.925 0 1.625 1.22 2.373 2.65 2.373.91 0 1.95-.293 2.713-1.154" style="fill:url(#f)"/></g></svg>