<svg xmlns="http://www.w3.org/2000/svg" xmlns:xlink="http://www.w3.org/1999/xlink" width="32" height="32"><defs><linearGradient id="a"><stop style="stop-color:#c6cdd1"/><stop offset="1" style="stop-color:#e0e5e7"/></linearGradient><linearGradient xlink:href="#a" id="b" x2="0" y1="540.798" y2="522.798" gradientUnits="userSpaceOnUse"/></defs><path d="M384.571 522.798h32v18h-32z" style="fill:url(#b);opacity:.99" transform="translate(-384.571 -515.798)"/><path d="M384.571 539.798h32v1h-32z" style="fill:#abb4ba" transform="translate(-384.571 -515.798)"/><path d="M414.571 523.798h1v1h-1zM411.571 523.798h1v1h-1zM408.571 523.798h1v1h-1z" style="fill:#31c281" transform="translate(-384.571 -515.798)"/><path d="M1 12v3h3v-3zm4 0v3h3v-3zm4 0v3h3v-3zm4 0v3h3v-3zm4 0v3h3v-3zm4 0v3h3v-3zm4 0v3h6v-3zM1 16v3h5v-3zm6 0v3h3v-3zm4 0v3h3v-3zm4 0v3h3v-3zm4 0v3h3v-3zm4 0v3h3v-3zm4 0v3h4v-3zM1 20v3h3v-3zm4 0v3h3v-3zm4 0v3h10v-3zm11 1v2h3v-2zm4-1v3h3v-3zm4 1v2h3v-2z" style="fill:#536161"/><path d="M1 14v1h3v-1zm4 0v1h3v-1zm4 0v1h3v-1zm4 0v1h3v-1zm4 0v1h3v-1zm4 0v1h3v-1zm4 0v1h6v-1zM1 18v1h5v-1zm6 0v1h3v-1zm4 0v1h3v-1zm4 0v1h3v-1zm4 0v1h3v-1zm4 0v1h3v-1zm4 0v1h4v-1zM1 22v1h3v-1zm4 0v1h3v-1zm4 0v1h10v-1zm11 0v1h3v-1zm4 0v1h3v-1zm4 0v1h3v-1z" style="fill:#334545"/></svg>