<svg xmlns="http://www.w3.org/2000/svg" xmlns:xlink="http://www.w3.org/1999/xlink" width="22" height="22"><defs><linearGradient xlink:href="#a" id="e" x1="8.208" x2="19.361" y1="6.403" y2="18.837" gradientTransform="translate(-1 -6)" gradientUnits="userSpaceOnUse"/></defs><linearGradient xlink:href="#a" id="d" x1="8.208" x2="19.361" y1="6.403" y2="18.837" gradientUnits="userSpaceOnUse"/><linearGradient id="b" x2="0" y1="543.798" y2="502.655" gradientTransform="matrix(.41667 0 0 .40833 -159.238 -203.25)" gradientUnits="userSpaceOnUse"><stop offset="0" stop-color="#c6cdd1"/><stop offset="1" stop-color="#e0e5e7"/></linearGradient><linearGradient id="a" x1="5.375" x2="14.75" y1="7" y2="16.375" gradientUnits="userSpaceOnUse"><stop offset="0"/><stop offset="1" stop-opacity="0"/></linearGradient><path fill="url(#b)" d="M4 2h14c2 0 3 1 3 2.93v12.06C21 19 20 20 18 20h.064-14.12C2 20 1 19 1 17V5c0-1 1-3 3-3"/><path fill="url(#a)" fill-rule="evenodd" d="M2 18 20 7l1 1-4 12H4c-1 0-2-1-2-2" opacity=".2"/><path fill="#566069" d="M1 5q0-3 3-3h14q3 0 3 3z"/><path fill="#3daee9" d="M1 5h20v1H1z"/><path fill="#fff" d="M2 7h18v11H2z"/><rect width="1.5" height="1.5" x="18.2" y="3" fill="#eff0f1" rx=".75"/><path d="m16 14-1 2 2 2h3z" style="opacity:.3;fill:url(#d)"/><path d="m15 8-1 2 6 6v-3z" style="opacity:.3;fill:url(#e)"/><path d="m15 8-1 2h2zm0 3.5a.499.499 0 1 0 0 1 .499.499 0 1 0 0-1M14 14l1 2 1-2Z" style="fill:#4a525a"/></svg>