<svg xmlns="http://www.w3.org/2000/svg" id="svg1" width="22" height="22" version="1.1"><style id="current-color-scheme" type="text/css">.ColorScheme-Text{color:#bac8df}</style><g id="22-22-preferences-desktop-display-randr-0"><path id="rect3832-6" fill-opacity="0" d="M0 0h22v22H0z"/><path id="path43-3" d="M19.571 3.002H2.43C1.714 3.002 1 3.67 1 4.335v11.332C1 16.333 1.714 17 2.429 17H9.57v.877H8.27c-.323 0-.635.115-.877.322a1.26 1.26 0 0 0-.435.8h8.083a1.26 1.26 0 0 0-.435-.8 1.35 1.35 0 0 0-.877-.322h-1.3V17h7.143c.715 0 1.429-.667 1.429-1.333V4.335c0-.666-.714-1.333-1.429-1.333-.012-.013.025.026 0 0m-7.465 13.331H9.89c-.173 0-.32-.167-.32-.333s.147-.333.32-.333h2.215c.172 0 .323.167.323.333s-.15.333-.323.333M20 15H2V4h18z" class="ColorScheme-Text" style="stroke-width:.0350512;fill-opacity:1;fill:currentColor"/><path id="path2830-6" d="M18.375 13.375h-1.557a.313.313 0 0 0-.318.313c0 .175.142.312.318.312H19v-2.182a.313.313 0 0 0-.312-.318c-.176 0-.313.105-.313.28z" class="ColorScheme-Text" style="stroke-width:.211663;stroke:none;fill-rule:evenodd;fill-opacity:1;fill:currentColor"/><path id="path2830-3-7" d="M3.625 5.625h1.557a.313.313 0 0 0 .318-.312A.313.313 0 0 0 5.182 5H3v2.182c0 .176.137.318.313.318.175 0 .312-.105.312-.28Z" class="ColorScheme-Text" style="stroke-width:.211663;stroke:none;fill-rule:evenodd;fill-opacity:1;fill:currentColor"/></g></svg>