<svg xmlns="http://www.w3.org/2000/svg" width="32" height="32"><linearGradient id="c" x1="393.571" x2="407.571" y1="527.673" y2="541.673" gradientUnits="userSpaceOnUse"><stop offset="0" stop-color="#292c30"/><stop offset="1" stop-opacity="0"/></linearGradient><linearGradient id="a" x2="0" y1="543.798" y2="502.655" gradientTransform="matrix(.66667 0 0 .63518 128.19 198.519)" gradientUnits="userSpaceOnUse"><stop offset="0" stop-color="#c6cdd1"/><stop offset="1" stop-color="#e0e5e7"/></linearGradient><linearGradient id="b" x1="391.571" x2="406.571" y1="525.798" y2="540.798" gradientUnits="userSpaceOnUse"><stop offset="0"/><stop offset="1" stop-opacity="0"/></linearGradient><linearGradient id="h" x1="358.571" x2="358.571" y1="519.798" y2="505.798" gradientUnits="userSpaceOnUse"><stop offset="0" stop-color="#4d4d4d"/><stop offset="1" stop-color="#585858"/></linearGradient><linearGradient id="g" x1="356.571" x2="356.571" y1="519.798" y2="505.798" gradientUnits="userSpaceOnUse"><stop offset="0" stop-color="#afb0b3"/><stop offset="1" stop-color="#bdc3c7"/></linearGradient><linearGradient id="f" x1="350.571" x2="350.571" y1="505.798" y2="519.798" gradientUnits="userSpaceOnUse"><stop offset="0" stop-color="#7f8c8d"/><stop offset="1" stop-color="#afb0b3"/></linearGradient><linearGradient id="e" x1="353.571" x2="353.571" y1="505.798" y2="519.798" gradientUnits="userSpaceOnUse"><stop offset="0" stop-color="#31363b"/><stop offset="1" stop-color="#4d4d4d"/></linearGradient><linearGradient id="d" x1="428.371" x2="428.371" y1="530.798" y2="525.798" gradientTransform="matrix(2.85714 0 0 2.8 -885.347 -966.434)" gradientUnits="userSpaceOnUse"><stop offset="0" stop-color="#da4453"/><stop offset="1" stop-color="#fa4e5f"/></linearGradient><g transform="translate(-384.571 -515.798)"><path fill="url(#a)" d="M388.571 517.798h24c2 0 4 1 4 4.11v20.82c0 2.07-1 3.07-3 3.07h-26c-2 0-3-1-3-3.043v-20.981c0-1.976 1-3.976 4-3.976"/><path fill="url(#b)" fill-rule="evenodd" d="m385.571 543.798 30-20 1 1v21h-29z" opacity=".2"/><path fill="#566069" d="M388.571 517.798h24c2 0 4 1 4 4h-32c0-3 2-4 4-4"/><path fill="#3daee9" d="M384.571 521.798h32v1h-32z"/><path fill="#fff" d="M385.571 523.798h30v20h-30z"/><rect width="2" height="2" x="413.571" y="518.798" fill="#eff0f1" rx="1"/></g><path fill="url(#c)" fill-opacity=".2" d="m396.513 535.673-1.177-8 3.235 3.235 6.177-3.235 1.823 1.824 4.06-1.824 7.94 7.941v6.059h-16.058z" transform="translate(-387.571 -513.673)"/><path fill="url(#d)" d="M331.571 505.798h3l3.5 10 3.5-10h3l-5 14h-3z" transform="matrix(.58824 0 0 .57143 -189.042 -275.027)"/><path fill="url(#e)" d="m342.571 519.798 5-14h3l-5 14zm10 0 5-14h3l-5 14z" transform="matrix(.58824 0 0 .57143 -189.042 -275.027)"/><path fill="url(#f)" d="m339.571 519.798 5-14h3l-5 14zm10 0 5-14h3l-5 14z" transform="matrix(.58824 0 0 .57143 -189.042 -275.027)"/><path fill="url(#g)" d="M352.571 519.798h-3l-5-14h3zm10 0h-3l-5-14h3z" transform="matrix(.58824 0 0 .57143 -189.042 -275.027)"/><path fill="url(#h)" d="m347.571 505.798 5 14h3l-5-14zm10 0 5 14h3l-5-14z" transform="matrix(.58824 0 0 .57143 -189.042 -275.027)"/><path fill="#4d4d4d" d="M24 24h3v-3h1v3h3v1h-3v3h-1v-3h-3z"/></svg>