<svg xmlns="http://www.w3.org/2000/svg" width="32" height="32"><linearGradient id="e" x1="30" x2="25" y1="30" y2="2" gradientUnits="userSpaceOnUse"><stop offset="0" stop-color="#6f7881"/><stop offset="1" stop-color="#bdc3c7"/></linearGradient><linearGradient id="a" x1="29" x2="26" y1="29" y2="4" gradientTransform="matrix(-1 0 0 1 52 -3)" gradientUnits="userSpaceOnUse"><stop offset="0" stop-color="#cfd2d5"/><stop offset="1" stop-color="#eff0f1"/></linearGradient><linearGradient id="f" x1="25" x2="30" y1="25" y2="30" gradientUnits="userSpaceOnUse"><stop offset="0" stop-color="#292c2f"/><stop offset="1" stop-opacity="0"/></linearGradient><linearGradient id="b" x1="2" x2="30" y1="30" y2="2" gradientTransform="matrix(-1 0 0 1 32.001 0)" gradientUnits="userSpaceOnUse"><stop offset="0" stop-color="#eff0f1"/><stop offset="1" stop-color="#fcfcfc"/></linearGradient><linearGradient id="d" x1="23.001" x2="15.001" y1="20" y2="12" gradientUnits="userSpaceOnUse"><stop offset="0" stop-color="#7ceca4"/><stop offset="1" stop-color="#7cbcec"/></linearGradient><linearGradient id="c" x1="2.001" x2="29.999" y1="29.998" y2="2" gradientTransform="matrix(-1 0 0 1 32.001 0)" gradientUnits="userSpaceOnUse"><stop offset="0" stop-color="#31363b"/><stop offset="1" stop-color="#4f575f"/></linearGradient><g fill-rule="evenodd"><path fill="url(#a)" d="M26 4v2h-1v21.5a2.5 2.5 0 0 0 2.5 2.5 2.5 2.5 0 0 0 2.5-2.5V6a2 2 0 0 0-2-2z"/><path fill="url(#b)" d="M26.001 2v27a1 1 0 0 0 .707.955 6 6 0 0 1-.707.045h-22c-1.105 0-2.042-.896-2-2V2z"/><path fill="url(#c)" d="M4.002 4v5h5V4zM5 5h1v1h1V5h1v1H7v1h1v1H7V7H6v1H5zm6 0v1h13V5zm0 3v1h13V8zm-6.998 3v1h8v-1zm10 0v10h10V11zm-10 3v1h8v-1zm0 3v1h8v-1zm0 3v1h8v-1zm0 4v1h20v-1zm0 3v1h20v-1z"/><path fill="url(#d)" d="M15.001 12h8v8h-8z"/><path fill="#bdc3c7" d="M2.002 2v26c-.029.742.39 1.38 1 1.727v.003a2 2 0 0 0 1 .27h1a2 2 0 0 1-2-2V3H25V2H3.002z"/><path fill="url(#e)" d="M25 2v25.5a2.5 2.5 0 1 0 5 0v-22a1.5 1.5 0 0 0-3 0v22a.5.5 0 0 0 1 0v-22a.5.5 0 0 1 1 0v22a1.5 1.5 0 0 1-3 0V2z"/><path fill="url(#f)" d="M26 2v26a2 2 0 0 0 2 2 2 2 0 0 0 2-2V6z" opacity=".2"/></g></svg>