<svg xmlns="http://www.w3.org/2000/svg" xmlns:xlink="http://www.w3.org/1999/xlink" width="32" height="32"><defs><linearGradient xlink:href="#a" id="i" x2="0" y1="545.798" y2="517.798" gradientUnits="userSpaceOnUse"/><linearGradient id="a"><stop style="stop-color:#1d1e1e"/><stop offset="1" style="stop-color:#44484c"/></linearGradient><linearGradient xlink:href="#b" id="k" x1="8" x2="24" y1="24" y2="8" gradientUnits="userSpaceOnUse"/><linearGradient id="b"><stop style="stop-color:#e81877"/><stop offset=".312" style="stop-color:#dd1d8c"/><stop offset=".562" style="stop-color:#6d57b1"/><stop offset=".75" style="stop-color:#2a78c1"/><stop offset="1" style="stop-color:#018dcb"/></linearGradient><linearGradient xlink:href="#c" id="m" x1="8" x2="24" y1="24" y2="8" gradientTransform="matrix(1 0 0 -1 384.571 547.798)" gradientUnits="userSpaceOnUse"/><linearGradient id="c"><stop style="stop-color:#e51561"/><stop offset=".312" style="stop-color:#e4156c"/><stop offset=".562" style="stop-color:#e71e2c"/><stop offset=".75" style="stop-color:#e8301e"/><stop offset="1" style="stop-color:#e6320e"/></linearGradient><linearGradient xlink:href="#d" id="o" x1="8" x2="24" y1="24" y2="8" gradientTransform="matrix(-1 0 0 1 432.571 499.798)" gradientUnits="userSpaceOnUse"/><linearGradient id="d"><stop style="stop-color:#bec900"/><stop offset=".312" style="stop-color:#9ec80a"/><stop offset=".562" style="stop-color:#71b93d"/><stop offset=".75" style="stop-color:#35a48f"/><stop offset="1" style="stop-color:#018fca"/></linearGradient><linearGradient xlink:href="#e" id="q" x1="8" x2="24" y1="24" y2="8" gradientTransform="rotate(180 216.286 273.899)" gradientUnits="userSpaceOnUse"/><linearGradient id="e"><stop style="stop-color:#c1cc00"/><stop offset=".312" style="stop-color:#dfcd00"/><stop offset=".562" style="stop-color:#f0cc00"/><stop offset=".75" style="stop-color:#fd8c08"/><stop offset="1" style="stop-color:#f25c13"/></linearGradient><linearGradient xlink:href="#f" id="B" x2="0" y1="543.798" y2="503.798" gradientTransform="matrix(.2 0 0 .2 318.857 -636.558)" gradientUnits="userSpaceOnUse"/><linearGradient id="f"><stop style="stop-color:#2a2c2f"/><stop offset="1" style="stop-color:#424649"/></linearGradient><linearGradient xlink:href="#g" id="C" x2="0" y1="524.798" y2="522.798" gradientTransform="translate(-8 8)" gradientUnits="userSpaceOnUse"/><linearGradient id="g"><stop style="stop-color:#989a9b"/><stop offset="1" style="stop-color:#f6f6f7"/></linearGradient><linearGradient xlink:href="#h" id="A" x1="393.571" x2="407.571" y1="524.798" y2="538.798" gradientTransform="translate(-384.571 -515.798)" gradientUnits="userSpaceOnUse"/><linearGradient id="h"><stop style="stop-color:#292c2f"/><stop offset="1" style="stop-opacity:0"/></linearGradient><clipPath id="j"><rect width="32" height="32" x="8" y="8" rx="16"/></clipPath><clipPath id="l"><rect width="32" height="32" x="392.571" y="507.798" rx="16"/></clipPath><clipPath id="n"><rect width="32" height="32" x="392.571" y="507.798" rx="16"/></clipPath><clipPath id="p"><rect width="32" height="32" x="392.571" y="507.798" rx="16"/></clipPath><clipPath id="r"><rect width="32" height="32" x="8" y="8" rx="16"/></clipPath><clipPath id="t"><rect width="32" height="32" x="392.571" y="507.798" rx="16"/></clipPath><clipPath id="u"><rect width="32" height="32" x="392.571" y="507.798" rx="16"/></clipPath><clipPath id="v"><rect width="32" height="32" x="392.571" y="507.798" rx="16"/></clipPath><clipPath id="w"><rect width="32" height="32" x="8" y="8" rx="16"/></clipPath><clipPath id="x"><rect width="32" height="32" x="392.571" y="507.798" rx="16"/></clipPath><clipPath id="y"><rect width="32" height="32" x="392.571" y="507.798" rx="16"/></clipPath><clipPath id="z"><rect width="32" height="32" x="392.571" y="507.798" rx="16"/></clipPath><filter id="s" width="1.12" height="1.12" x="-.06" y="-.06" style="color-interpolation-filters:sRGB"><feGaussianBlur stdDeviation=".4"/></filter></defs><g transform="translate(-384.571 -515.798)"><rect width="28" height="28" x="386.571" y="517.798" rx="14" style="fill:url(#i)"/><path d="M24 8C15.136 8 8 15.136 8 24h16z" style="clip-path:url(#j);stroke-opacity:.550265;fill:url(#k);stroke-width:2.8" transform="matrix(.66347 .17778 -.17778 .66347 388.915 511.608)"/><path d="M408.571 539.798c-8.864 0-16-7.136-16-16h16z" style="clip-path:url(#l);stroke-opacity:.550265;fill:url(#m);stroke-width:2.8" transform="matrix(.66347 .17778 -.17778 .66347 222.615 111.639)"/><path d="M408.571 507.798c8.864 0 16 7.136 16 16h-16z" style="clip-path:url(#n);stroke-opacity:.550265;fill:url(#o);stroke-width:2.8" transform="matrix(.66347 .17778 -.17778 .66347 222.615 111.639)"/><path d="M408.571 539.798c8.864 0 16-7.136 16-16h-16z" style="clip-path:url(#p);stroke-opacity:.550265;fill:url(#q);stroke-width:2.8" transform="matrix(.66347 .17778 -.17778 .66347 222.615 111.639)"/><g style="opacity:.7"><path d="M24 8C15.136 8 8 15.136 8 24h16z" style="clip-path:url(#r);stroke-opacity:.550265;fill:url(#k);opacity:1;stroke-width:2.8;filter:url(#s)" transform="matrix(.68688 0 0 .68688 384.086 515.313)"/><path d="M408.571 539.798c-8.864 0-16-7.136-16-16h16z" style="clip-path:url(#t);stroke-opacity:.550265;fill:url(#m);opacity:1;stroke-width:2.8;filter:url(#s)" transform="matrix(.68688 0 0 .68688 119.934 172.014)"/><path d="M408.571 539.798c8.864 0 16-7.136 16-16h-16z" style="clip-path:url(#u);stroke-opacity:.550265;fill:url(#q);opacity:1;stroke-width:2.8;filter:url(#s)" transform="matrix(.68688 0 0 .68688 119.934 172.014)"/><path d="M408.571 507.798c8.864 0 16 7.136 16 16h-16z" style="clip-path:url(#v);stroke-opacity:.550265;fill:url(#o);opacity:1;stroke-width:2.8;filter:url(#s)" transform="matrix(.68688 0 0 .68688 119.934 172.014)"/></g><path d="M24 8C15.136 8 8 15.136 8 24h16z" style="clip-path:url(#r);stroke-opacity:.550265;fill:url(#k);opacity:.35;stroke-width:2.8" transform="scale(.68688)rotate(45 -602.015 1074.102)"/><path d="M408.571 539.798c-8.864 0-16-7.136-16-16h16z" style="clip-path:url(#t);stroke-opacity:.550265;fill:url(#m);opacity:.35;stroke-width:2.8" transform="scale(.68688)rotate(45 193.58 859.783)"/><path d="M408.571 539.798c8.864 0 16-7.136 16-16h-16z" style="clip-path:url(#u);stroke-opacity:.550265;fill:url(#q);opacity:.35;stroke-width:2.8" transform="scale(.68688)rotate(45 193.58 859.783)"/><path d="M408.571 507.798c8.864 0 16 7.136 16 16h-16z" style="clip-path:url(#v);stroke-opacity:.550265;fill:url(#o);opacity:.35;stroke-width:2.8" transform="scale(.68688)rotate(45 193.58 859.783)"/><path d="M24 8C15.136 8 8 15.136 8 24h16z" style="clip-path:url(#w);stroke-opacity:.550265;fill:url(#k);opacity:.3;stroke-width:2.8" transform="matrix(.17778 .66347 -.66347 .17778 412.228 511.608)"/><path d="M408.571 539.798c-8.864 0-16-7.136-16-16h16z" style="clip-path:url(#x);stroke-opacity:.550265;fill:url(#m);opacity:.3;stroke-width:2.8" transform="matrix(.17778 .66347 -.66347 .17778 675.462 167.604)"/><path d="M408.571 539.798c8.864 0 16-7.136 16-16h-16z" style="clip-path:url(#y);stroke-opacity:.550265;fill:url(#q);opacity:.3;stroke-width:2.8" transform="matrix(.17778 .66347 -.66347 .17778 675.462 167.604)"/><path d="M408.571 507.798c8.864 0 16 7.136 16 16h-16z" style="clip-path:url(#z);stroke-opacity:.550265;fill:url(#o);opacity:.3;stroke-width:2.8" transform="matrix(.17778 .66347 -.66347 .17778 675.462 167.604)"/><path d="m18.7 13-5.35 6 9.32 9.32a14 14 0 0 0 5.666-5.683z" style="fill:url(#A);opacity:.2;fill-rule:evenodd" transform="translate(384.571 515.798)"/><rect width="8" height="8" x="396.571" y="-535.798" rx="4" style="stroke-opacity:.550265;fill:url(#B);stroke-width:2.8" transform="scale(1 -1)"/><path d="m399.571 532.798 1-2 1 2z" style="fill:url(#C);fill-rule:evenodd"/></g></svg>