<svg xmlns="http://www.w3.org/2000/svg" xmlns:xlink="http://www.w3.org/1999/xlink" width="32" height="32"><linearGradient id="b"><stop offset="0" stop-color="#84cbfe"/><stop offset="1" stop-color="#84cbfe" stop-opacity="0"/></linearGradient><linearGradient id="a"><stop offset="0" stop-color="#c6cdd1"/><stop offset="1" stop-color="#e0e5e7"/></linearGradient><linearGradient id="c"><stop offset="0" stop-color="#2f3943"/><stop offset="1" stop-color="#4d5662"/></linearGradient><linearGradient id="e" x1="16" x2="16" y1="3.2" y2="6" gradientUnits="userSpaceOnUse"><stop offset="0" stop-color="#18222a"/><stop offset="1" stop-color="#566069"/></linearGradient><linearGradient xlink:href="#a" id="f" x1="387.238" x2="387.238" y1="543.798" y2="503.798" gradientTransform="matrix(.75 0 0 .6 -290.429 -297.279)" gradientUnits="userSpaceOnUse"/><linearGradient xlink:href="#a" id="g" x1="425.95" x2="425.95" y1="508.509" y2="536.868" gradientTransform="matrix(.68906 0 0 .77577 111.067 134.313)" gradientUnits="userSpaceOnUse"/><linearGradient id="h" x1="434.171" x2="434.171" y1="509.798" y2="534.998" gradientTransform="matrix(.625 0 0 .71429 137.214 166.657)" gradientUnits="userSpaceOnUse"><stop offset="0" stop-color="#2e5d89"/><stop offset="1" stop-color="#1b92f4"/></linearGradient><linearGradient xlink:href="#b" id="j" x1="418.171" x2="418.171" y1="-521.798" y2="-518.798" gradientTransform="matrix(.625 0 0 .66667 137.214 -190.93)" gradientUnits="userSpaceOnUse"/><linearGradient xlink:href="#b" id="i" x1="418.171" x2="418.171" y1="-521.798" y2="-518.798" gradientTransform="matrix(.625 0 0 .66667 137.214 887.666)" gradientUnits="userSpaceOnUse"/><linearGradient id="k" x1="390.571" x2="417.95" y1="507.674" y2="535.71" gradientTransform="matrix(.69397 0 0 .6777 -267.043 -339.051)" gradientUnits="userSpaceOnUse"><stop offset="0"/><stop offset="1" stop-opacity="0"/></linearGradient><linearGradient xlink:href="#a" id="l" x1="29" x2="5" y1="31" y2="25" gradientUnits="userSpaceOnUse"/><linearGradient xlink:href="#c" id="d" x1="22" x2="22" y1="-13" y2="-10" gradientTransform="matrix(1 0 0 -1 0 -8)" gradientUnits="userSpaceOnUse"/><linearGradient xlink:href="#c" id="m" x1="22" x2="22" y1="29" y2="27" gradientUnits="userSpaceOnUse"/><path fill="url(#d)" d="M4 5V3c0-.554.446-1 1-1h22c.554 0 1 .446 1 1v2z"/><path fill="url(#e)" d="M4 3h24v2H4z"/><path fill="url(#f)" d="M4 5h24v24H4z"/><g stroke-linecap="round" stroke-linejoin="bevel"><path fill="url(#g)" d="M381.571 529.798h22v20h-22z" transform="translate(-376.571 -523.798)"/><path fill="url(#h)" d="M382.571 530.798h20v18h-20z" transform="translate(-376.571 -523.798)"/><path fill="#84cbfe" d="M6 15h20v1H6z"/><path fill="url(#i)" d="M382.571 539.798h20v2h-20z" opacity=".2" transform="translate(-376.571 -523.798)"/><path fill="url(#j)" d="M382.571-538.798h20v2h-20z" opacity=".2" transform="matrix(1 0 0 -1 -376.571 -523.798)"/><path fill="#eff0f1" d="M7 9h11v15H7z"/></g><path fill="url(#k)" fill-rule="evenodd" d="m4 5 22 22h2V5z" opacity=".2"/><path fill="url(#l)" d="M4 27v2c0 .554.446 1 1 1h22c.554 0 1-.446 1-1v-2z"/><path fill="url(#m)" d="M7 27v1c0 .554.446 1 1 1h16c.554 0 1-.446 1-1v-1z"/><circle cx="-27.5" cy="-23.5" r=".5" fill="#11d116" transform="scale(1 -1)rotate(90)"/><path fill="#292c2f" d="M4 28v1c0 .554.446 1 1 1h22c.554 0 1-.446 1-1v-1c0 .554-.446 1-1 1H5c-.554 0-1-.446-1-1" opacity=".2"/></svg>