<svg xmlns="http://www.w3.org/2000/svg" xmlns:xlink="http://www.w3.org/1999/xlink" width="32" height="32"><defs><linearGradient xlink:href="#a" id="d" x1="418.17" x2="384.571" y1="503.079" y2="531.458" gradientTransform="matrix(.66667 0 0 .85555 -256.38 -429.026)" gradientUnits="userSpaceOnUse"/><linearGradient id="a"><stop stop-color="#1abc9c"/><stop offset="1" stop-color="#2980b9"/></linearGradient><linearGradient xlink:href="#b" id="f" x1="404.045" x2="430.736" y1="521.633" y2="528.35" gradientTransform="matrix(.66667 0 0 .85555 -256.38 -429.027)" gradientUnits="userSpaceOnUse"/><linearGradient id="b"><stop stop-color="#cc4a5e"/><stop offset="1" stop-color="#aa478a"/></linearGradient><linearGradient xlink:href="#c" id="j" x1="398.092" x2="394.003" y1="542.224" y2="524.9" gradientTransform="matrix(.66667 0 0 .85555 -256.38 -429.027)" gradientUnits="userSpaceOnUse"/><linearGradient id="c"><stop stop-color="#334545"/><stop offset="1" stop-color="#536161"/></linearGradient><linearGradient xlink:href="#c" id="k" x1="431.571" x2="439.571" y1="568.798" y2="562.798" gradientTransform="matrix(-.66667 0 0 .85555 303.047 -463.249)" gradientUnits="userSpaceOnUse"/><linearGradient xlink:href="#c" id="l" x1="406.537" x2="423.32" y1="581.87" y2="572.678" gradientTransform="matrix(-.66667 0 0 .85555 303.048 -463.249)" gradientUnits="userSpaceOnUse"/><linearGradient xlink:href="#c" id="m" x1="423.054" x2="431.225" y1="572.334" y2="566.766" gradientTransform="matrix(-.66667 0 0 .85555 303.047 -463.249)" gradientUnits="userSpaceOnUse"/><linearGradient xlink:href="#c" id="n" x1="431.313" x2="440.632" y1="577.102" y2="571.445" gradientTransform="matrix(-.66667 0 0 .85555 303.048 -463.249)" gradientUnits="userSpaceOnUse"/><linearGradient xlink:href="#c" id="o" x1="430.567" x2="423.75" y1="577.362" y2="591.328" gradientTransform="matrix(-.66667 0 0 .85555 303.048 -463.249)" gradientUnits="userSpaceOnUse"/></defs><linearGradient id="q" x1="15" x2="15" y1="21" y2="7" gradientUnits="userSpaceOnUse"><stop offset="0" stop-color="#eff0f1"/><stop offset="1" stop-color="#fcfcfc"/></linearGradient><linearGradient id="e" x1="15" x2="9" y1="9" y2="9" gradientTransform="matrix(1.66667 0 0 5 -10 -33)" gradientUnits="userSpaceOnUse"><stop offset="0" stop-color="#abdaf9"/><stop offset="1" stop-color="#abdaf9" stop-opacity="0"/></linearGradient><linearGradient id="p" x1="14" x2="26" y1="9" y2="21" gradientUnits="userSpaceOnUse"><stop offset="0" stop-color="#292c2f"/><stop offset="1" stop-opacity="0"/></linearGradient><path d="M5 2a5 5 0 0 0-3.54 1.461A5 5 0 0 0 0 7.001v18a5 5 0 0 0 1.46 3.538A5 5 0 0 0 5 30h22a5 5 0 0 0 3.54-1.46A5 5 0 0 0 32 25V7a5 5 0 0 0-1.46-3.539A5 5 0 0 0 27 2.001Z" style="fill:url(#d)"/><path d="M5 7h10v5H5Z" style="fill:url(#e);fill-rule:evenodd"/><path d="M25.746 30H27a5 5 0 0 0 3.54-1.46A5 5 0 0 0 32 25V7a5 5 0 0 0-1.46-3.54c-.077-.075-.188-.108-.269-.179L9.977 18.316 25.747 30Z" style="fill:url(#f)"/><path d="M.117 25.58c.057.47.098.949.276 1.37a5 5 0 0 0 2.658 2.657A5 5 0 0 0 5 30h20.895L10 18.256Z" style="fill:url(#j)"/><path d="M15.506 22.335 10 18.255v8.16z" style="fill:url(#k)"/><path d="M21.011 26.413V30h4.841l-4.84-3.587z" style="fill:url(#l)"/><path d="M15.506 22.335V30h.666l4.84-3.586z" style="fill:url(#m)"/><path d="M10 26.414V30h4.84z" style="fill:url(#n)"/><path d="M21.011 26.413 16.171 30h4.84z" style="fill:url(#o)"/><path d="M32 9.971v-2.97a5 5 0 0 0-1.46-3.54c-.077-.076-.188-.109-.269-.18L9.977 18.318Z" style="fill:#aa478a"/><path d="M.124 26c.067.317.146.658.269.95a5 5 0 0 0 2.658 2.658A5 5 0 0 0 5 30h22a5 5 0 0 0 3.54-1.46 5 5 0 0 0 1.067-1.59 5.4 5.4 0 0 0 .285-.95z" style="fill:#fff;fill-opacity:.78399999"/><circle cx="28" cy="28" r="1" style="fill:#4d4d4d"/><path d="M2 27v1h1v-1zm1 1v1h1v-1z" style="fill:#4d4d4d"/><path d="m14.242 20.36 5.64 5.64H32v-3.735l-9.634-9.634-.655.654-5.998-5.998L15 8Z" style="opacity:.2;fill:url(#p)"/><path d="M15.594 21.041 22 21l.725-7.251c.152-1.47-1.67-2.082-2.175-.725.006-1.63-1.67-1.834-2.176-.726.064-1.346-1.647-1.867-2.175-.725v-2.9c0-2.175-2.175-2.175-2.175 0v6.526c-3.626-3.626-4.515-1.02-4.515-1.02 2.464 1.663 3.97 6.876 6.085 6.862" style="fill:url(#q)"/></svg>