<svg xmlns="http://www.w3.org/2000/svg" xmlns:xlink="http://www.w3.org/1999/xlink" width="32" height="32"><defs><linearGradient id="b"><stop style="stop-color:#c6cdd1"/><stop offset="1" style="stop-color:#e0e5e7"/></linearGradient><linearGradient xlink:href="#a" id="d" x2="0" y1="545.798" y2="517.798" gradientUnits="userSpaceOnUse"/><linearGradient id="a"><stop style="stop-color:#2a2c2f"/><stop offset="1" style="stop-color:#424649"/></linearGradient><linearGradient xlink:href="#b" id="f" x2="0" y1="543.798" y2="518.798" gradientTransform="matrix(.91304 0 0 .95652 35.137 23.6)" gradientUnits="userSpaceOnUse"/><linearGradient id="c"><stop style="stop-color:#292c2f"/><stop offset="1" style="stop-opacity:0"/></linearGradient><linearGradient xlink:href="#c" id="e" x1="393.571" x2="407.571" y1="524.798" y2="538.798" gradientTransform="translate(-384.571 -515.798)" gradientUnits="userSpaceOnUse"/><linearGradient xlink:href="#a" id="h" x2="0" y1="20" y2="11" gradientTransform="translate(384.571 516.798)" gradientUnits="userSpaceOnUse"/><linearGradient xlink:href="#c" id="g" x1="10" x2="21" y1="14" y2="25" gradientUnits="userSpaceOnUse"/></defs><g transform="translate(-384.571 -515.798)"><rect width="16" height="28" x="392.571" y="517.798" rx="2" ry="2" style="fill:url(#d)"/><path d="M23 5 9 27l3 3h12V6Z" style="opacity:.2;fill:url(#e);fill-rule:evenodd" transform="translate(384.571 515.798)"/><rect width="12" height="1" x="394.571" y="544.798" ry=".427" style="fill:#1c1e20"/><path d="M393.571 520.798h14v22h-14z" style="fill:url(#f)"/><path d="M397.571 518.798h6v1h-6z" style="fill:#212324"/><path d="m14.854 12.146-.708.708 4.5 4.5L18 18l5 5 1 1v-6l-3-3-1.646 1.646zm-1.147 3.147-1.414 1.414 3 3-.855.855 9.193 9.192.369-.37v-3.507l-.54-.54.147-.146z" style="opacity:.2;fill:url(#g)" transform="translate(384.571 515.798)"/><path d="M399.071 527.798a.5.5 0 1 0 0 1 .5.5 0 0 0 0-1M402.571 527.798l-1 1 2 2-2 2 1 1 2-2 1-1-1-1zM397.571 530.798a1 1 0 1 0 0 2 1 1 0 0 0 0-2M400.071 533.798a1.5 1.5 0 1 0 0 3 1.5 1.5 0 0 0 0-3" style="fill:url(#h)"/></g></svg>