<svg xmlns="http://www.w3.org/2000/svg" xmlns:xlink="http://www.w3.org/1999/xlink" width="32" height="32"><linearGradient id="b" x1="378.571" x2="378.571" y1="553.798" y2="525.798" gradientUnits="userSpaceOnUse"><stop offset="0" stop-color="#63984b"/><stop offset="1" stop-color="#8fc278"/></linearGradient><linearGradient id="d" x1="394.571" x2="394.571" y1="549.798" y2="529.798" gradientUnits="userSpaceOnUse"><stop offset="0" stop-color="#999a9c"/><stop offset="1" stop-color="#dcdfdf"/></linearGradient><linearGradient id="e" x1="394.857" x2="394.857" y1="543.798" y2="535.798" gradientUnits="userSpaceOnUse"><stop offset="0" stop-color="#2a2c2f"/><stop offset="1" stop-color="#424649"/></linearGradient><linearGradient xlink:href="#a" id="c" x1="392.571" x2="406.571" y1="539.798" y2="553.798" gradientUnits="userSpaceOnUse"><stop offset="0"/><stop offset="1" stop-opacity="0"/></linearGradient><linearGradient id="a" x1="389.571" x2="399.571" y1="536.798" y2="546.798" gradientUnits="userSpaceOnUse"><stop offset="0" stop-color="#292c2f"/><stop offset="1" stop-opacity="0"/></linearGradient><path fill="url(#b)" d="M378.571 530.798v-2c0-2 1-3 3.076-3h21.784c2.14 0 3.14 1 3.14 3v22c0 2-1 3-2.944 3h-22.056c-2 0-3-1-3-3.016v-16.984l2-1z" transform="translate(-376.571 -523.798)"/><path fill="#e6ea97" fill-rule="evenodd" d="m29 27-2 2h2z"/><path fill="url(#c)" d="m382.571 549.798 4 4h20v-20l-4-4z" opacity=".2" transform="translate(-376.571 -523.798)"/><path fill="url(#d)" d="M382.571 529.798h20v20h-20z" transform="translate(-376.571 -523.798)"/><path fill="url(#a)" d="m391.425 536.944 2.646 2.646h1.5v-.292h.5l6.5 6.5v4h-1l-8-8-.5-.5.647-.646-3-3zm-1.072 2.573-1.063 1.062 2.25 2.25-.676.676 6.291 6.293h3.479z" opacity=".2" transform="translate(-376.571 -523.798)"/><path fill="url(#e)" d="M391.571 541.798c-.554 0-1 .446-1 1s.446 1 1 1 1-.446 1-1-.446-1-1-1m-1.75-2.5a.75.75 0 0 0-.75.75.749.749 0 1 0 1.5 0 .75.75 0 0 0-.75-.75m3.75-2.5-1 1 1.5 1.5-1.5 1.5 1 1 1.5-1.5 1-1-1-1zm-2.5 0a.499.499 0 1 0 0 1 .499.499 0 1 0 0-1" transform="translate(-376.571 -523.798)"/><path fill="#616365" d="M6 25h20v1H6z"/><path fill="#484a4b" d="M7 21h4v1H7zm0 2h2v1H7zM22 7v3h1V9h1V8h-1V7zm2 1h1V7h-1zm0 1v1h1V9z"/><path d="M5 27h1v1H5zm1 1h1v1H6zm1-1h1v1H7zm1 1h1v1H8zm1-1h1v1H9zm1 1h1v1h-1zm1-1h1v1h-1zm14 0h1v1h-1zm-1 1h1v1h-1zm-1-1h1v1h-1zm-1 1h1v1h-1zm-1-1h1v1h-1zm-1 1h1v1h-1zm-1-1h1v1h-1zm-1 1h1v1h-1zm-6 0h1v1h-1zM27 4h1v1h-1zm1 1h1v1h-1zm-1 1h1v1h-1zm1 1h1v1h-1zm-1 1h1v1h-1zm1 1h1v1h-1zm-1 1h1v1h-1zm1 1h1v1h-1zm-1 1h1v1h-1zm1 1h1v1h-1zm-1 11h1v1h-1zm1-1h1v1h-1zm-1-1h1v1h-1zm1-1h1v1h-1zm-1-1h1v1h-1z"/><path fill="#4a7937" d="M3 29h26s-1 1-2 1H5s-1 0-2-1"/></svg>