<svg xmlns="http://www.w3.org/2000/svg" xmlns:xlink="http://www.w3.org/1999/xlink" width="32" height="32"><linearGradient xlink:href="#a" id="c" x1="12" x2="25" y1="12" y2="25" gradientUnits="userSpaceOnUse"/><linearGradient id="f" x1="16" x2="16" y1="22" y2="10" gradientUnits="userSpaceOnUse"><stop offset="0" stop-color="#566472"/><stop offset="1" stop-color="#6c7a89"/></linearGradient><linearGradient id="a"><stop offset="0" stop-color="#292c2f"/><stop offset="1" stop-opacity="0"/></linearGradient><linearGradient id="b" x1="16" x2="16" y1="30" y2="2" gradientUnits="userSpaceOnUse"><stop offset="0" stop-color="#bdc3c7"/><stop offset="1" stop-color="#dadfe1"/></linearGradient><linearGradient id="d" x1="25" x2="25" y1="30" y2="20" gradientUnits="userSpaceOnUse"><stop offset="0" stop-color="#27ae60"/><stop offset="1" stop-color="#2ecc71"/></linearGradient><linearGradient xlink:href="#a" id="e" x1="26" x2="28" y1="26" y2="28" gradientUnits="userSpaceOnUse"/><path fill="url(#b)" d="M16 2A14 14 0 0 0 2 16a14 14 0 0 0 14 14 14 14 0 0 0 14-14A14 14 0 0 0 16 2m0 12a2 2 0 0 1 2 2 2 2 0 0 1-2 2 2 2 0 0 1-2-2 2 2 0 0 1 2-2"/><path fill="url(#c)" d="M20.242 11.758S20.938 13.48 21 16a5 5 0 0 1-5 5c-3.6-.211-4.243-.757-4.242-.758l8.931 8.932a14 14 0 0 0 8.487-8.483z" opacity=".2"/><path fill="#9fa5a8" d="M29.979 15.414A14 14 0 0 1 16 29 14 14 0 0 1 2.021 15.586 14 14 0 0 0 2 16a14 14 0 0 0 14 14 14 14 0 0 0 14-14 14 14 0 0 0-.021-.586"/><path fill="url(#d)" d="M25 20c-2.77 0-5 2.23-5 5s2.23 5 5 5 5-2.23 5-5-2.23-5-5-5"/><path fill="#fcfcfc" d="m27.5 22.5.5.5.5.5L24 28l-2.5-2.5.5-.5.5-.5L24 26z"/><path fill="url(#e)" d="M28.5 23.5 24 28l1.914 1.914A4.99 4.99 0 0 0 30 25z" opacity=".2"/><path fill="#5b686f" d="M16 14a2 2 0 0 0-2 2 2 2 0 0 0 .064.504A2 2 0 0 1 16 15a2 2 0 0 1 1.936 1.496A2 2 0 0 0 18 16a2 2 0 0 0-2-2"/><path fill="url(#f)" d="M16 10a6 6 0 0 0-6 6 6 6 0 0 0 6 6 6 6 0 0 0 6-6 6 6 0 0 0-6-6m0 3a3 3 0 0 1 3 3 3 3 0 0 1-3 3 3 3 0 0 1-3-3 3 3 0 0 1 3-3"/></svg>