<svg xmlns="http://www.w3.org/2000/svg" xmlns:xlink="http://www.w3.org/1999/xlink" viewBox="0 0 32 32"><defs><linearGradient id="a" x2="0" y1="543.8" y2="502.66" gradientTransform="matrix(.66667 0 0 .63518 -256.38 -317.28)" gradientUnits="userSpaceOnUse"><stop offset="0" stop-color="#c6cdd1"/><stop offset="1" stop-color="#e0e5e7"/></linearGradient><linearGradient id="e" x1="393.41" x2="407.41" y1="526.65" y2="526.65" gradientTransform="matrix(1 0 0 .99999 .154 .157)" gradientUnits="userSpaceOnUse"><stop offset="0" stop-color="#2e3436"/><stop offset="1" stop-color="#555753"/></linearGradient><linearGradient id="d" x1="392.57" x2="407.57" y1="521.8" y2="536.8" gradientTransform="translate(0 4)" gradientUnits="userSpaceOnUse"><stop offset="0"/><stop offset="1" stop-opacity="0"/></linearGradient><linearGradient xlink:href="#a" id="b" x2="0" y1="543.8" y2="502.66" gradientTransform="matrix(.66667 0 0 .63518 -256.38 -317.28)" gradientUnits="userSpaceOnUse"/><linearGradient xlink:href="#a" id="c" x2="0" y1="543.8" y2="502.66" gradientTransform="matrix(.66667 0 0 .63518 -256.38 -317.28)" gradientUnits="userSpaceOnUse"/></defs><g transform="translate(-384.57 -515.8)"><path d="m32 9-1-1L1.123 27l2.432 3H28.8c1.774 0 3.2-1.426 3.2-3.2z" style="fill:url(#b)" transform="translate(384.57 515.8)"/><path d="M3.2 2A3.19 3.19 0 0 0 0 5.2v21.6A3.19 3.19 0 0 0 3.2 30h.355l-2.432-3L31 8l1 1V5.2A3.19 3.19 0 0 0 28.8 2Z" style="fill:url(#c)" transform="translate(384.57 515.8)"/><path d="M387.07 517.8a2.49 2.49 0 0 0-2.5 2.5v1.5h32v-1.5a2.49 2.49 0 0 0-2.5-2.5z" style="fill:#566069"/><path d="M384.57 521.8h32v1h-32z" style="fill:#3daee9"/><rect width="30" height="20" x="385.57" y="523.8" ry="2" style="fill:#fff"/><rect width="2" height="2" x="413.57" y="518.8" rx="1" style="fill:#eff0f1"/><path d="M407.43 526.94c.68.686-1.259 3.732-4.332 6.805-1.19 1.189-2.432 2.261-3.545 3.06l7.017 6.995h9l.995-7.726zm-9.848 7.85-.017.013.004.004zm.137.17 1.703 1.714a3.01 3.01 0 0 0-1.703-1.714m.695 1.619c.423.388.4.941.4 1.304 0 1.169-1.746 2.92-5.25 2.92l3.006 2.997h9z" style="opacity:.25;fill:url(#d)"/><path d="M407.14 526.81a1.75 7.875 44.998 0 0-6.514 4.46 1.75 7.875 44.998 0 0-3.1 3.6 3.04 3.04 0 0 1 1.975 1.975 1.75 7.875 44.998 0 0 3.6-3.1 1.75 7.875 44.998 0 0 4.33-6.805 1.75 7.875 44.998 0 0-.29-.13m-10.075 9.324c-3.5.938-.875 3.154-3.5 4.67 3.503 0 5.25-1.752 5.25-2.92 0-.581.06-1.653-1.75-1.75" style="fill:url(#e)"/></g></svg>