<svg xmlns="http://www.w3.org/2000/svg" xmlns:xlink="http://www.w3.org/1999/xlink" width="32" height="32"><linearGradient id="f" x1="15.5" x2="21.248" y1="10.5" y2="16.248" gradientTransform="rotate(-135 16.639 13.75)" gradientUnits="userSpaceOnUse"><stop offset="0" stop-color="#c0392b"/><stop offset="1" stop-color="#e74c3c"/></linearGradient><linearGradient xlink:href="#a" id="g" x1="8" x2="20" y1="10" y2="22" gradientTransform="translate(0 -1)" gradientUnits="userSpaceOnUse"/><linearGradient xlink:href="#a" id="d" x1="15" x2="29" y1="7" y2="21" gradientTransform="translate(0 -1)" gradientUnits="userSpaceOnUse"/><linearGradient id="b" x1="32" x2="32" y1="30" y2="2" gradientUnits="userSpaceOnUse"><stop offset="0" stop-color="#197cf1"/><stop offset="1" stop-color="#20bcfa"/></linearGradient><linearGradient id="c" x2="0" y1="30" y2="2" gradientUnits="userSpaceOnUse"><stop offset="0" stop-color="#54d883"/><stop offset="1" stop-color="#abf9c7"/></linearGradient><linearGradient id="a" x1="15" x2="29" y1="7" y2="21" gradientTransform="translate(20 6)" gradientUnits="userSpaceOnUse"><stop offset="0" stop-color="#292c2f"/><stop offset="1" stop-opacity="0"/></linearGradient><linearGradient id="e" x1="14" x2="14" y1="17" y2="6" gradientUnits="userSpaceOnUse"><stop offset="0" stop-color="#2a2c2f"/><stop offset="1" stop-color="#424649"/></linearGradient><path fill="url(#b)" d="M30 16a14 14 0 0 1-14 14A14 14 0 0 1 2 16 14 14 0 0 1 16 2a14 14 0 0 1 14 14"/><path fill="url(#c)" d="M12.463 2.463A14 14 0 0 0 7 5.295V6h2l1-1v2l1 1-1 2H8l.5.5-.5.5v2l-2 1v1l3 1 2-1-1 2H8l-1 1-2 1v1l4-1 1-1 2 1 2-1h4l1-2h-2l2-2v-2l-1-1-1 1h-1l1-2-1-1-1-2-1-1-1-3zM6 6.22a14 14 0 0 0-3.777 7.37L4 13l1-2V8l1-1zm22.303 3.127L25 11l-1 3-3 3-2 1v2l-2 1-1 1h-2l-1-1h-1l1 4h-2l-1-1H8l-2 1 .742 1.486A14 14 0 0 0 16 30a14 14 0 0 0 14-14 14 14 0 0 0-1.697-6.652z"/><path fill="url(#d)" d="M15 6h1l14 14-5 6.707-9.854-9.853L15 16.5z" opacity=".2"/><path fill="url(#e)" d="M15 6v10.5a.5.5 0 0 0 .5.5H23v-1h-7V6z"/><path fill="url(#f)" d="m7.722 9.429 7.424 7.425.708-.708-7.425-7.424z"/><path fill="url(#g)" d="m15.854 16.146-.708.708 9.5 9.5.708-.708z" opacity=".2"/><path fill="#232629" d="M16 16.5a.5.5 0 0 1-.5.5.5.5 0 0 1-.5-.5.5.5 0 0 1 .5-.5.5.5 0 0 1 .5.5"/><path fill="#292c2f" d="M29.979 15.414A14 14 0 0 1 16 29 14 14 0 0 1 2.021 15.586 14 14 0 0 0 2 16a14 14 0 0 0 14 14 14 14 0 0 0 14-14 14 14 0 0 0-.021-.586" opacity=".2"/></svg>