<svg xmlns="http://www.w3.org/2000/svg" xmlns:xlink="http://www.w3.org/1999/xlink" width="32" height="32"><defs><linearGradient xlink:href="#a" id="d" x2="0" y1="545.798" y2="517.798" gradientUnits="userSpaceOnUse"/><linearGradient xlink:href="#b" id="f" x2="0" y1="537.798" y2="523.798" gradientTransform="translate(-385.571 -514.798)" gradientUnits="userSpaceOnUse"/><linearGradient id="a"><stop style="stop-color:#197cf1"/><stop offset="1" style="stop-color:#20bcfa"/></linearGradient><linearGradient id="b"><stop style="stop-color:#7cbaf8"/><stop offset="1" style="stop-color:#f4fcff"/></linearGradient><linearGradient xlink:href="#c" id="e" x1="9" x2="23" y1="9" y2="23" gradientUnits="userSpaceOnUse"/><linearGradient id="c"><stop style="stop-color:#292c2f"/><stop offset="1" style="stop-opacity:0"/></linearGradient></defs><g transform="translate(-384.571 -515.798)"><rect width="28" height="28" x="386.571" y="517.798" rx="14" style="fill:url(#d)"/><path d="m18 10-1 1v2l1 1 1 1v1l-4-4h-3l-1 1v2l1 1 1 1v1h-2l-1 1-1 2-1 2 6.947 6.947c.349.026.698.053 1.053.053 6.82 0 12.466-4.83 13.73-11.27L21 10h-3" style="fill:url(#e);opacity:.2;fill-rule:evenodd" transform="translate(384.571 515.798)"/><path d="M19 9.1c-1.662 0-3 1.338-3 3a2.994 2.994 0 0 0 2.395 2.94 4.98 4.98 0 0 0-2.977 1.472 6 6 0 0 1 .93.511A3.97 3.97 0 0 1 19 16c2.216 0 4 1.784 4 4h-4.35a6 6 0 0 1 .264 1H24v-1a4.987 4.987 0 0 0-4.395-4.96A2.994 2.994 0 0 0 22 12.1c0-1.662-1.338-3-3-3m0 1c1.108 0 2 .892 2 2s-.892 2-2 2-2-.892-2-2 .892-2 2-2m-6 .9c-1.662 0-3 1.338-3 3s1.338 3 3 3 3-1.338 3-3-1.338-3-3-3m0 6c-2.77 0-5 2.23-5 5v1h10v-1c0-2.77-2.23-5-5-5m0-5c1.108 0 2 .892 2 2s-.892 2-2 2-2-.892-2-2 .892-2 2-2m0 6c2.216 0 4 1.784 4 4H9c0-2.216 1.784-4 4-4" style="fill:url(#f)" transform="translate(384.571 515.798)"/></g></svg>