<svg xmlns="http://www.w3.org/2000/svg" xmlns:xlink="http://www.w3.org/1999/xlink" width="32" height="32"><defs><linearGradient xlink:href="#a" id="c" x2="0" y1="543.798" y2="502.655" gradientTransform="matrix(.66667 0 0 .63518 128.19 198.519)" gradientUnits="userSpaceOnUse"/><linearGradient id="a"><stop style="stop-color:#c6cdd1"/><stop offset="1" style="stop-color:#e0e5e7"/></linearGradient><linearGradient xlink:href="#b" id="d" x1="391.571" x2="406.571" y1="525.798" y2="540.798" gradientUnits="userSpaceOnUse"/><linearGradient id="b"><stop/><stop offset="1" style="stop-opacity:0"/></linearGradient><linearGradient xlink:href="#a" id="e" x2="0" y1="543.798" y2="502.655" gradientTransform="matrix(.47917 0 0 .40833 207.297 318.546)" gradientUnits="userSpaceOnUse"/><linearGradient xlink:href="#b" id="f" x1="10" x2="30" y1="10" y2="30" gradientUnits="userSpaceOnUse"/></defs><g transform="translate(-384.571 -515.798)"><rect width="32" height="28" x="384.571" y="517.798" rx="0" style="fill:url(#c)"/><path d="m385.571 543.798 30-20 1 1v21h-29z" style="fill:url(#d);opacity:.2;fill-rule:evenodd"/><path d="M384.571 517.798h32v4h-32z" style="fill:#566069"/><path d="M384.571 521.798h32v1h-32z" style="fill:#3daee9"/><path d="M385.571 523.798h30v20h-30z" style="fill:#fff"/><rect width="2" height="2" x="413.571" y="518.798" rx="1" style="fill:#eff0f1"/><rect width="17" height="13" x="394.571" y="528.798" rx="0" style="fill:url(#e)"/><path d="M394.571 525.798h17v4h-17z" style="fill:#566069"/><path d="M394.571 529.798h17v1h-17z" style="fill:#3daee9"/><path d="M395.571 531.798h15v8h-15z" style="fill:#fff"/><rect width="2" height="2" x="408.571" y="526.798" rx="1" ry="1" style="fill:#eff0f1"/><path d="M27 10v16H10l4 4h18V15z" style="fill:url(#f);opacity:.2;fill-rule:evenodd" transform="translate(384.571 515.798)"/></g></svg>