<svg xmlns="http://www.w3.org/2000/svg" xmlns:xlink="http://www.w3.org/1999/xlink" viewBox="0 0 32 32"><linearGradient xlink:href="#a" id="h" x1="22" x2="22" y1="30" y2="8" gradientTransform="matrix(0 -1 -1 0 44 44)" gradientUnits="userSpaceOnUse"/><linearGradient id="g" x1="18" x2="30" y1="18" y2="30" gradientUnits="userSpaceOnUse"><stop offset="0" stop-color="#292c2f"/><stop offset="1" stop-opacity="0"/></linearGradient><linearGradient xlink:href="#b" id="d" x1="25" x2="25" y1="8" y2="2" gradientUnits="userSpaceOnUse"/><linearGradient id="b" x2="0" y1="30" y2="8" gradientUnits="userSpaceOnUse"><stop offset="0" stop-color="#cea476"/><stop offset="1" stop-color="#dab58b"/></linearGradient><linearGradient id="e" x1="411.427" x2="411.427" y1="543.8" y2="512.8" gradientTransform="matrix(.35 0 0 .70968 -120 -355.923)" gradientUnits="userSpaceOnUse"><stop offset="0" stop-color="#73ba25"/><stop offset="1" stop-color="#81c13b" stop-opacity=".85"/></linearGradient><linearGradient id="c" x1="408.57" x2="408.57" y1="512.798" y2="504.698" gradientTransform="matrix(.66667 0 0 -.37037 -256.38 197.926)" gradientUnits="userSpaceOnUse"><stop offset="0" stop-color="#ebc69a"/><stop offset="1" stop-color="#73ba25" stop-opacity="0"/></linearGradient><linearGradient xlink:href="#c" id="f" x1="411.57" x2="411.57" y1="512.801" y2="503.801" gradientTransform="translate(-256.38 -333.867)scale(.66667)" gradientUnits="userSpaceOnUse"><stop offset="0" stop-color="#ebc69a"/><stop offset="1" stop-color="#f4e0c8" stop-opacity="0"/></linearGradient><linearGradient id="a" x2="0" y1="30" y2="8" gradientUnits="userSpaceOnUse"><stop offset="0" stop-color="#cfd2d5"/><stop offset="1" stop-color="#eff0f1"/></linearGradient><path fill="url(#d)" fill-rule="evenodd" d="M6 2 2 8h28l-4-6H7z"/><path fill="url(#b)" d="M2 8h28v22H2z"/><path fill="url(#a)" d="M2 8h12v22H2z"/><path fill="url(#e)" d="M14 8h16v22H14z"/><path fill="#5c4c3e" d="M3 24v5h5v-5zm1 1h1v1h1v-1h1v2H6v1H5v-1H4z"/><g stroke-opacity=".55" stroke-width="1.867"><path fill="#f4e0c8" d="M14 2v9l1-1 1 1 1-1s1 1 1 .972V2z"/><path fill="url(#f)" d="M14 2h4v6h-4z"/><path fill="url(#c)" d="M14 8v3l1-1 1 1 1-1s1 1 1 .973V8z"/></g><path fill="url(#g)" d="M18.969 16.844 30 27.875v-6.36l-3.757-3.758L22 16zm-2.125 2.125L27.875 30h-6.36l-3.758-3.757L16 22z" opacity=".2"/><path fill="url(#h)" d="M28 22a5.96 5.96 0 0 1-.844 3.031l-2.687-2.687.718-.719 1.625 1.625c.052-.195.098-.39.125-.594.008-.052.026-.103.032-.156.017-.168.031-.327.031-.5a5 5 0 0 0-5-5c-.243 0-.486.028-.719.063-.136.02-.274.031-.406.062a4.7 4.7 0 0 0-.813.281c-.03.014-.063.018-.093.032-.092.04-.164.108-.25.156-.008.004-.023-.005-.032 0l-.718-.75A5.96 5.96 0 0 1 22 16a6 6 0 0 1 6 6m-2.969 5.156A5.96 5.96 0 0 1 22 28a6 6 0 0 1-6-6 5.96 5.96 0 0 1 .844-3.031l.75.75 1.906 1.937-.688.688-1.625-1.594c-.05.195-.097.39-.125.594-.007.052-.025.103-.03.156-.018.168-.032.327-.032.5s.014.332.031.5.03.337.063.5A5.02 5.02 0 0 0 22 27c.248 0 .48-.028.719-.063.136-.02.274-.031.406-.062.287-.067.548-.167.813-.281.03-.013.063-.018.093-.032.09-.04.165-.108.25-.156h.032z"/><path fill="#adb1b3" d="M2 29v1h12v-1z"/><path fill="#649e26" d="M14 29h16v1H14z"/></svg>