<svg xmlns="http://www.w3.org/2000/svg" xmlns:xlink="http://www.w3.org/1999/xlink" width="32" height="32"><defs><linearGradient xlink:href="#a" id="d" x1="10" x2="10" y1="8" y2="2" gradientUnits="userSpaceOnUse"/><linearGradient id="a" x2="0" y1="30" y2="8" gradientUnits="userSpaceOnUse"><stop offset="0" stop-color="#cea476"/><stop offset="1" stop-color="#dab58b"/></linearGradient><linearGradient xlink:href="#a" id="e" x2="0" y1="30" y2="8" gradientUnits="userSpaceOnUse"/><linearGradient xlink:href="#b" id="h" x2="0" y1="30" y2="8" gradientUnits="userSpaceOnUse"/><linearGradient id="b" x2="0" y1="30" y2="8" gradientUnits="userSpaceOnUse"><stop offset="0" stop-color="#cfd2d5"/><stop offset="1" stop-color="#eff0f1"/></linearGradient><linearGradient id="i" x1="411.427" x2="411.427" y1="543.8" y2="512.8" gradientTransform="matrix(.35 0 0 .70968 -120 -355.923)" gradientUnits="userSpaceOnUse"><stop offset="0" stop-color="#73ba25"/><stop offset="1" stop-color="#81c13b" stop-opacity=".85"/></linearGradient><linearGradient xlink:href="#c" id="j" x1="408.57" x2="408.57" y1="512.801" y2="503.801" gradientTransform="translate(-256.38 -333.867)scale(.66667)" gradientUnits="userSpaceOnUse"><stop offset="0" stop-color="#ebc69a"/><stop offset="1" stop-color="#f4e0c8" stop-opacity="0"/></linearGradient><linearGradient xlink:href="#c" id="k" x1="408.57" x2="408.57" y1="512.798" y2="504.698" gradientTransform="matrix(.66667 0 0 -.37037 -256.38 197.926)" gradientUnits="userSpaceOnUse"/></defs><linearGradient id="c" x1="408.57" x2="408.57" y1="512.798" y2="504.698" gradientTransform="matrix(.66667 0 0 -.37037 -256.38 197.926)" gradientUnits="userSpaceOnUse"><stop offset="0" stop-color="#ebc69a"/><stop offset="1" stop-color="#73ba25" stop-opacity="0"/></linearGradient><path d="M6 2 2 8h28l-4-6H7Z" style="fill:url(#d);fill-rule:evenodd"/><path d="M2 8v19.148A2.846 2.846 0 0 0 4.852 30h22.296A2.846 2.846 0 0 0 30 27.148V8H4.852Z" style="fill:url(#e)"/><path d="M2 8v19.148c0 .79.319 1.503.834 2.018A2.84 2.84 0 0 0 4.852 30H14V8Z" style="fill:url(#h)"/><path d="M14 30h13.148c.79 0 1.503-.319 2.018-.834A2.84 2.84 0 0 0 30 27.148V8H14Z" style="fill:url(#i)"/><g style="stroke-width:1.86699998;stroke-opacity:.55"><path d="M14 2v9l1-1 1 1 1-1s1 1 1 .972V2Z" style="fill:#f4e0c8"/><path d="M14 2h4v6h-4z" style="fill:url(#j)"/><path d="M14 8v3l1-1 1 1 1-1s1 1 1 .973V8Z" style="fill:url(#k)"/></g><path d="M2.766 29c.04.045.026.124.068.166A2.84 2.84 0 0 0 4.852 30H14v-1z" style="fill:#adb1b3"/><path d="M14 29v1h13.148c.79 0 1.503-.319 2.018-.834.042-.042.029-.121.068-.166z" style="fill:#649e26"/></svg>