<svg xmlns="http://www.w3.org/2000/svg" xmlns:xlink="http://www.w3.org/1999/xlink" viewBox="0 0 32 32"><defs><linearGradient xlink:href="#a" id="b" x1="20" x2="44" y1="20" y2="44" gradientTransform="matrix(.63475 0 0 .63475 -4.312 -8.186)" gradientUnits="userSpaceOnUse"/><linearGradient id="a"><stop style="stop-color:#020303"/><stop offset="1" style="stop-color:#424649;stop-opacity:0"/></linearGradient></defs><g fill-rule="evenodd" stroke-width=".538"><path d="M30 4v16c0 1.14-1 2-2 2H16l-7 7v-7H4c-1 0-2-.9-2-2V4c0-.932.953-2 2-2h24c1 0 2 .873 2 2" style="fill:#c83771;fill-opacity:1" transform="translate(0 .5)"/><path d="M2.3 21c.329.416.7 1 1.6 1h5v-1zm13.6 0-7 7v1l7-7h11c1.1 0 2.09.116 2.8-1z" style="fill:#de87aa;fill-opacity:1" transform="translate(0 .5)"/></g><path d="M23.617 5.407 9.355 19.763l5.74 5.74 1.351-1.351h10.791a16.5 16.5 0 0 0 5.129-9.996z" style="opacity:.2;fill:url(#b);fill-rule:evenodd;stroke-width:.634753"/><path d="m22.72 4.509.897.898-6.72 6.719 6.72 6.72-.898.897L16 13.023l-6.72 6.72-.897-.898 6.72-6.719-6.72-6.72.898-.897L16 11.229Z" style="fill:#f4d7e3"/></svg>