<svg xmlns="http://www.w3.org/2000/svg" xmlns:xlink="http://www.w3.org/1999/xlink" width="32" height="32"><defs><linearGradient id="b"><stop style="stop-color:#7cbaf8"/><stop offset="1" style="stop-color:#f4fcff"/></linearGradient><linearGradient id="c"><stop style="stop-color:#292c2f"/><stop offset="1" style="stop-opacity:0"/></linearGradient><linearGradient xlink:href="#a" id="d" x1="2" x2="30" y1="15.5" y2="15.5" gradientUnits="userSpaceOnUse"/><linearGradient id="a"><stop offset="0" style="stop-color:#2a7fff;stop-opacity:1"/><stop offset="1" style="stop-color:#59f;stop-opacity:1"/></linearGradient><linearGradient xlink:href="#b" id="f" x2="0" y1="30" y2="2" gradientTransform="matrix(1.12747 0 0 1.12747 734.818 152.886)" gradientUnits="userSpaceOnUse"/><linearGradient xlink:href="#c" id="e" x1="9" x2="23" y1="9" y2="23" gradientTransform="matrix(1.12747 0 0 1.12747 734.818 152.886)" gradientUnits="userSpaceOnUse"/></defs><g fill-rule="evenodd" stroke-width=".538"><path d="M30 4v16c0 1.14-1 2-2 2H16l-7 7v-7H4c-1 0-2-.9-2-2V4c0-.932.953-2 2-2h24c1 0 2 .873 2 2" style="fill:url(#d)" transform="translate(0 .5)"/><path d="M2.3 21c.329.416.7 1 1.6 1h5v-1zm13.6 0-7 7v1l7-7h11c1.1 0 2.09.116 2.8-1z" style="fill:#80b3ff;fill-opacity:1" transform="translate(0 .5)"/></g><path d="m753.985 163.034-2.255 2.255 2.255 2.255-2.255 9.02 3.915 3.915h12.433v-3.352z" style="opacity:.2;fill:url(#e);fill-rule:evenodd;stroke-width:.563734" transform="translate(-736.857 -157.934)"/><path d="M751.73 163.034v2.255h2.255v-2.255zm0 4.51v9.02h2.255v-9.02z" style="fill:url(#f);stroke-width:.563734" transform="translate(-736.857 -157.934)"/></svg>