<svg xmlns="http://www.w3.org/2000/svg" xmlns:xlink="http://www.w3.org/1999/xlink" width="64" height="64"><defs><linearGradient id="b"><stop/><stop offset="1" style="stop-opacity:0"/></linearGradient><linearGradient id="c"><stop style="stop-color:#555753"/><stop offset="1" style="stop-color:#2e3436"/></linearGradient><linearGradient xlink:href="#a" id="d" x2="0" y1="543.8" y2="502.66" gradientTransform="matrix(.44445 0 0 .42345 -176.254 -216.853)" gradientUnits="userSpaceOnUse"/><linearGradient id="a" x2="0" y1="543.8" y2="502.66" gradientTransform="matrix(.66667 0 0 .63518 -256.38 -317.28)" gradientUnits="userSpaceOnUse"><stop offset="0" stop-color="#c6cdd1"/><stop offset="1" stop-color="#e0e5e7"/></linearGradient><linearGradient xlink:href="#a" id="e" x2="0" y1="543.8" y2="502.66" gradientTransform="matrix(.44445 0 0 .42345 -176.254 -216.853)" gradientUnits="userSpaceOnUse"/><linearGradient xlink:href="#b" id="f" x1="26.516" x2="52.411" y1="28.028" y2="52.383" gradientTransform="translate(737.857 156.934)" gradientUnits="userSpaceOnUse"/><linearGradient xlink:href="#c" id="g" x2="0" y1="537.798" y2="565.798" gradientTransform="translate(353.286 -358.864)" gradientUnits="userSpaceOnUse"/></defs><g style="stroke-width:.666667" transform="matrix(1.5 0 0 1.5 -568.855 -765.7)"><path d="m32 9-1-1L1.123 27l2.432 3H28.8c1.774 0 3.2-1.426 3.2-3.2z" style="fill:url(#d);stroke-width:.666667" transform="translate(384.57 515.8)"/><path d="M3.2 2A3.19 3.19 0 0 0 0 5.2v21.6A3.19 3.19 0 0 0 3.2 30h.355l-2.432-3L31 8l1 1V5.2A3.19 3.19 0 0 0 28.8 2Z" style="fill:url(#e);stroke-width:.666667" transform="translate(384.57 515.8)"/><path d="M387.07 517.8a2.49 2.49 0 0 0-2.5 2.5v1.5h32v-1.5a2.49 2.49 0 0 0-2.5-2.5z" style="fill:#566069;stroke-width:.666667"/><path d="M384.57 521.8h32v1h-32z" style="fill:#3daee9;stroke-width:.666667"/><rect width="30" height="20" x="385.57" y="523.8" rx="1.333" ry="1.333" style="fill:#fff;stroke-width:.666667"/><rect width="2" height="2" x="413.57" y="518.8" rx=".667" ry=".667" style="fill:#eff0f1;stroke-width:.666667"/></g><path d="m769.252 184.806-2.811 1.405-.703 1.406-.702 1.405v5.622h-2.811v9.838l6.324 6.324h22.487v-5.622l-18.973-18.973z" style="opacity:.2;fill:url(#f);fill-rule:evenodd;stroke-width:1" transform="translate(-736.857 -157.934)"/><path d="M769.252 184.806a4.207 4.207 0 0 0-4.216 4.216v5.622h-2.811v9.838h14.054v-9.838h-2.811v-5.622a4.207 4.207 0 0 0-4.216-4.216m0 .703a3.506 3.506 0 0 1 3.513 3.513v5.622h-7.027v-5.622a3.506 3.506 0 0 1 3.514-3.513m-6.325 9.837h12.649v8.433h-12.649z" style="fill:url(#g);stroke-width:1" transform="translate(-736.857 -157.934)"/></svg>