<svg xmlns="http://www.w3.org/2000/svg" xmlns:xlink="http://www.w3.org/1999/xlink" width="32" height="32"><defs><linearGradient id="c"><stop style="stop-color:#292c2f"/><stop offset="1" style="stop-opacity:0"/></linearGradient><linearGradient id="b"><stop style="stop-color:#b985ce"/><stop offset="1" style="stop-color:#e2cdeb"/></linearGradient><linearGradient xlink:href="#a" id="d" x1="2" x2="30" y1="15.5" y2="15.5" gradientUnits="userSpaceOnUse"/><linearGradient id="a"><stop offset="0" style="stop-color:#ab37c8;stop-opacity:1"/><stop offset="1" style="stop-color:#bc5fd3;stop-opacity:1"/></linearGradient><linearGradient xlink:href="#b" id="f" x2="0" y1="38" y2="13" gradientTransform="matrix(.58313 0 0 .58313 734.78 154.896)" gradientUnits="userSpaceOnUse"/><linearGradient xlink:href="#c" id="e" x1="9" x2="23" y1="9" y2="23" gradientTransform="translate(734.197 151.98)scale(1.16625)" gradientUnits="userSpaceOnUse"/></defs><g fill-rule="evenodd" stroke-width=".538"><path d="M30 4v16c0 1.14-1 2-2 2H16l-7 7v-7H4c-1 0-2-.9-2-2V4c0-.932.953-2 2-2h24c1 0 2 .873 2 2" style="fill:url(#d)" transform="translate(0 .5)"/><path d="M2.3 21c.329.416.7 1 1.6 1h5v-1zm13.6 0-7 7v1l7-7h11c1.1 0 2.09.116 2.8-1z" style="fill:#ddafe9;fill-opacity:1" transform="translate(0 .5)"/></g><path d="m755.773 163.602-4.082.895-2.916 2.062 3.5 3.498-.584 1.75 2.332 2.332-2.332 2.333 4.05 4.05h12.86v-4.091z" style="opacity:.2;fill:url(#e);fill-rule:evenodd;stroke-width:.583121" transform="translate(-736.857 -157.934)"/><path d="M752.857 162.477c-1.134 0-2.192.397-2.938 1.143s-1.144 1.805-1.144 2.939h2.333c0-.616.185-1.015.46-1.29.275-.274.674-.46 1.29-.46.615 0 1.014.186 1.288.46.275.275.46.674.46 1.29 0 .534-.105.761-.245.963s-.371.392-.715.632-.798.517-1.22 1.008c-.42.491-.735 1.235-.735 2.061v.584h2.332v-.584c0-.34.049-.397.175-.544.125-.147.4-.344.786-.614.385-.27.884-.626 1.29-1.208s.665-1.375.665-2.298c0-1.134-.398-2.193-1.143-2.939-.746-.746-1.805-1.143-2.939-1.143m-1.166 11.662v2.333h2.332v-2.333z" style="fill:url(#f);stroke-width:1.16626;stroke-linecap:round;stroke-linejoin:round" transform="translate(-736.857 -157.934)"/></svg>