<svg xmlns="http://www.w3.org/2000/svg" xmlns:xlink="http://www.w3.org/1999/xlink" width="32" height="32"><defs><linearGradient xlink:href="#a" id="c" x1="2" x2="30" y1="15.5" y2="15.5" gradientUnits="userSpaceOnUse"/><linearGradient id="a"><stop offset="0" style="stop-color:#00d455;stop-opacity:1"/><stop offset="1" style="stop-color:#2aff80;stop-opacity:1"/></linearGradient><linearGradient id="f" x2="0" y1="199.934" y2="175.934" gradientTransform="matrix(.42043 0 0 .42043 -307.302 -67.873)" gradientUnits="userSpaceOnUse"><stop offset="0" stop-color="#bcfd93"/><stop offset="1" stop-color="#fafff5"/></linearGradient><linearGradient xlink:href="#b" id="d" x1="753.857" x2="781.857" y1="171.934" y2="199.934" gradientTransform="matrix(.42043 0 0 .42043 -307.302 -65.77)" gradientUnits="userSpaceOnUse"/></defs><linearGradient id="b" x1="753.857" x2="781.857" y1="171.934" y2="199.934" gradientTransform="matrix(.44016 0 0 .44016 -378.32 -96.078)" gradientUnits="userSpaceOnUse"><stop offset="0" stop-color="#292c2f"/><stop offset="1" stop-opacity="0"/></linearGradient><linearGradient id="e" x2="0" y1="199.934" y2="175.934" gradientTransform="matrix(.44016 0 0 .44016 -345.444 -131.656)" gradientUnits="userSpaceOnUse"><stop offset="0" stop-color="#bcfd93"/><stop offset="1" stop-color="#fafff5"/></linearGradient><g fill-rule="evenodd" stroke-width=".538"><path d="M30 4v16c0 1.14-1 2-2 2H16l-7 7v-7H4c-1 0-2-.9-2-2V4c0-.932.953-2 2-2h24c1 0 2 .873 2 2" style="fill:url(#c)" transform="translate(0 .5)"/><path d="M2.3 21c.329.416.7 1 1.6 1h5v-1zm13.6 0-7 7v1l7-7h11c1.1 0 2.09.116 2.8-1z" style="fill:#80ffb3;fill-opacity:1" transform="translate(0 .5)"/></g><path fill="url(#b)" d="m20.57 6.094-3.363 5.886-2.943 3.364-2.943-1.262 3.364 3.364 5.045 5.465h7.147V11.56Z" opacity=".2" style="fill:url(#d);fill-rule:evenodd;stroke-width:.420429"/><path fill="url(#e)" d="m20.219 5.864-6.067 9.303-2.587-1.847-.488.684 3.3 2.357 6.546-10.037z" style="fill:url(#f);fill-rule:evenodd"/></svg>