<svg xmlns="http://www.w3.org/2000/svg" width="64" height="64"><defs><radialGradient id="c" cx="16.5" cy="26.5" r="11.5" gradientTransform="matrix(.9167 .91383 -.9167 .91383 40.754 -4.803)" gradientUnits="userSpaceOnUse"><stop offset="0" stop-color="#da4453"/><stop offset="1" stop-color="#da4453"/></radialGradient><linearGradient id="b" x1="47" x2="54" y1="17" y2="24" gradientTransform="matrix(2.0376 0 0 2 -56.03 -16)" gradientUnits="userSpaceOnUse"><stop stop-color="#060606"/><stop offset="1" stop-opacity="0"/></linearGradient></defs><path d="M39.737 4H15.286c-3.387 0-6.113 2.676-6.113 6v44c0 3.324 2.726 6 6.113 6h32.601C51.274 60 54 57.324 54 54V18Z" style="fill:#2b3955;fill-opacity:1;stroke-width:2.01871"/><path fill="#fff" d="M15.286 4a6.092 5.98 0 0 0-4.326 1.754c-.063.062-.04.18-.102.246h28.879V4Z" color="#000" opacity=".5" style="display:inline;stroke-width:2.01871"/><path d="M10.856 58c.061.066.04.184.104.246A6.092 5.98 0 0 0 15.286 60h32.601a6.092 5.98 0 0 0 4.326-1.754c.063-.062.04-.18.102-.246H10.858Z" style="color:#3daee9;display:inline;opacity:1;fill:currentColor;fill-opacity:1;stroke-width:2.01871"/><path fill="#fff" fill-rule="evenodd" d="M54 18 39.737 4v14Z" color="#000" opacity=".5" style="stroke-width:2.01871"/><path fill="url(#b)" fill-rule="evenodd" d="M39.737 18 54 32V18Z" opacity=".1" style="fill:url(#b);stroke-width:2.01871"/><path fill="url(#c)" d="M42.129 23.982a14.909 14.862 0 0 0-21.084 0 14.909 14.862 0 0 0 0 21.018 14.909 14.862 0 0 0 21.084 0 14.909 14.862 0 0 0 0-21.018m-2.713 2.815a10.942 10.994 65.686 0 1 1.226 13.98l-15.199-15.15a10.942 10.994 65.686 0 1 13.973 1.17zm-16.724 1.57 15.151 15.102a10.942 10.994 65.686 0 1-13.99-1.157 10.942 10.994 65.686 0 1-1.16-13.947z" style="fill:#c83771;fill-opacity:1"/></svg>