<svg xmlns="http://www.w3.org/2000/svg" xmlns:xlink="http://www.w3.org/1999/xlink" width="64" height="64"><defs><linearGradient id="c"><stop style="stop-color:#fcd994"/><stop offset="1" style="stop-color:#fff6e1"/></linearGradient><linearGradient id="a"><stop style="stop-color:#292c2f"/><stop offset="1" style="stop-opacity:0"/></linearGradient><linearGradient xlink:href="#a" id="e" x1="9" x2="23" y1="9" y2="23" gradientTransform="matrix(2 0 0 2 735.857 158.934)" gradientUnits="userSpaceOnUse"/><linearGradient id="b"><stop style="stop-color:#faae2a"/><stop offset="1" style="stop-color:#ffc35a"/></linearGradient><linearGradient xlink:href="#b" id="d" x1="32" x2="31" y1="6" y2="57" gradientUnits="userSpaceOnUse"/><linearGradient xlink:href="#c" id="f" x2="0" y1="17" y2="41" gradientUnits="userSpaceOnUse"/></defs><path d="M32 6c-6.333 3.354-12.667 4.725-19 6v25c0 7 10.263 16.561 19 20.998C40.737 53.561 51 44 51 37V12c-6.333-1.275-12.667-2.646-19-6" style="fill:url(#d);stroke-linecap:square;stroke-width:2"/><path d="M769.857 174.934h-2v20l2 2-2 2 16 17h11v-18z" style="fill:url(#e);opacity:.2;fill-rule:evenodd" transform="translate(-736.857 -157.934)"/><path d="M31 17v20h2V17zm0 22v2h2v-2z" style="fill:url(#f);stroke-linecap:square;stroke-width:2"/><path d="M13 35v2c0 7 10.263 16.561 19 20.998C40.737 53.561 51 44 51 37v-2c0 7-10.263 16.561-19 20.998C23.263 51.561 13 42 13 35" style="fill:#e59305;stroke-linecap:square;stroke-width:2"/></svg>