<svg xmlns="http://www.w3.org/2000/svg" xmlns:xlink="http://www.w3.org/1999/xlink" width="64" height="64"><defs><linearGradient id="a"><stop style="stop-color:#292c2f"/><stop offset="1" style="stop-opacity:0"/></linearGradient><linearGradient xlink:href="#a" id="b" x1="9" x2="23" y1="9" y2="23" gradientTransform="matrix(2 0 0 2 735.857 158.934)" gradientUnits="userSpaceOnUse"/></defs><path d="M32 6c-6.333 3.354-12.667 4.725-19 6v25c0 7 10.263 16.561 19 20.998C40.737 53.561 51 44 51 37V12c-6.333-1.275-12.667-2.646-19-6" style="fill:#c83771;stroke-linecap:square;stroke-width:2"/><path d="m779.623 175.168-8.766 9.766-2 2-10 10-1.352 1.117 17.04 17.883h20.312v-25.531z" style="fill:url(#b);opacity:.2;fill-rule:evenodd" transform="translate(-736.857 -157.934)"/><path d="m779.443 174.934 1.414 1.414-10.586 10.586 10.586 10.586-1.414 1.414-10.586-10.586-10.586 10.586-1.414-1.414 10.586-10.586-10.586-10.586 1.414-1.414 10.586 10.586z" style="fill:#e9afc6;fill-opacity:1" transform="translate(-736.857 -157.934)"/><path d="M749.857 192.934v2c0 7 10.263 16.56 19 20.998 8.737-4.437 19-13.998 19-20.998v-2c0 7-10.263 16.56-19 20.998-8.737-4.437-19-13.998-19-20.998" style="fill:#782144;stroke-linecap:square;stroke-width:2" transform="translate(-736.857 -157.934)"/></svg>