<svg xmlns="http://www.w3.org/2000/svg" xmlns:xlink="http://www.w3.org/1999/xlink" width="64" height="64"><defs><linearGradient id="a"><stop style="stop-color:#292c2f"/><stop offset="1" style="stop-opacity:0"/></linearGradient><linearGradient xlink:href="#a" id="e" x1="9" x2="23" y1="9" y2="23" gradientTransform="matrix(2 0 0 2 735.857 158.934)" gradientUnits="userSpaceOnUse"/><linearGradient xlink:href="#b" id="d" x1="32" x2="31" y1="6" y2="57" gradientUnits="userSpaceOnUse"/><linearGradient id="c"><stop style="stop-color:#bcfd93"/><stop offset="1" style="stop-color:#fafff5"/></linearGradient><linearGradient id="b"><stop style="stop-color:#42a603"/><stop offset="1" style="stop-color:#78da06"/></linearGradient><linearGradient xlink:href="#c" id="f" x2="0" y1="199.934" y2="175.934" gradientUnits="userSpaceOnUse"/></defs><path d="M32 6c-6.333 3.354-12.667 4.725-19 6v25c0 7 10.263 16.561 19 20.998C40.737 53.561 51 44 51 37V12c-6.333-1.275-12.667-2.646-19-6" style="fill:url(#d);stroke-linecap:square;stroke-width:2"/><path d="m779.857 175.934-8 14-7 8-7-3 8 8 12 13h17v-27z" style="fill:url(#e);opacity:.2;fill-rule:evenodd" transform="translate(-736.857 -157.934)"/><path d="m779.02 175.387-14.43 22.127-6.153-4.395-1.162 1.629 7.85 5.606 15.57-23.874z" style="shape-rendering:auto;color-interpolation-filters:linearRGB;fill:url(#f);image-rendering:auto;text-rendering:auto;color:#000;fill-rule:evenodd;stroke-width:2;color-rendering:auto;color-interpolation:sRGB" transform="translate(-736.857 -157.934)"/><path d="M749.857 192.934v2c0 7 10.263 16.56 19 20.998 8.737-4.437 19-13.998 19-20.998v-2c0 7-10.263 16.56-19 20.998-8.737-4.437-19-13.998-19-20.998" style="fill:#368902;stroke-linecap:square;stroke-width:2" transform="translate(-736.857 -157.934)"/></svg>