<svg xmlns="http://www.w3.org/2000/svg" viewBox="0 0 64 64"><path fill="currentColor" d="M22 6c-2.216 0-4 1.784-4 4v44c0 2.216 1.784 4 4 4h20c2.216 0 4-1.784 4-4V10c0-2.216-1.784-4-4-4zm0 1h20c1.662 0 3 1.338 3 3v44c0 1.662-1.338 3-3 3H22c-1.662 0-3-1.338-3-3V10c0-1.662 1.338-3 3-3m0 2a1 1 0 1 0 0 2 1 1 0 0 0 0-2m5.5 45a.499.499 0 1 0 0 1h9a.499.499 0 1 0 0-1z" style="color:#fcfcfc"/><path fill="currentColor" d="m32 26-.395.508s-.26.352-1.058.814c-.798.463-2.102.995-4.1 1.21l-.447.046v.45s.013 6.551 5.813 8.896L32 38l.188-.076C37.988 35.58 38 29.027 38 29.027v-.449l-.447-.047c-1.998-.215-3.302-.746-4.1-1.209-.798-.462-1.058-.814-1.058-.814zm0 1.434c.18.188.302.377.953.754.831.48 2.167.966 3.969 1.23-.017.629-.27 5.4-4.922 7.447-4.652-2.047-4.905-6.818-4.922-7.447 1.802-.264 3.138-.75 3.969-1.23.65-.378.772-.566.953-.754" style="color:#3daee9"/></svg>