<svg xmlns="http://www.w3.org/2000/svg" viewBox="0 0 64 64"><path fill="currentColor" d="M22 6c-2.216 0-4 1.784-4 4v44c0 2.216 1.784 4 4 4h20c2.216 0 4-1.784 4-4V10c0-2.216-1.784-4-4-4zm0 1h20c1.662 0 3 1.338 3 3v44c0 1.662-1.338 3-3 3H22c-1.662 0-3-1.338-3-3V10c0-1.662 1.338-3 3-3m0 2a1 1 0 1 0 0 2 1 1 0 0 0 0-2m5.5 45a.499.499 0 1 0 0 1h9a.499.499 0 1 0 0-1z" style="color:#fcfcfc"/><path fill="currentColor" d="M32 26c-.972 0-1.88.34-2.52.98-.639.64-.98 1.548-.98 2.52h2c0-.528.16-.87.395-1.106C31.13 28.16 31.472 28 32 28s.87.159 1.106.394c.235.236.394.578.394 1.106 0 .458-.09.653-.21.826-.121.173-.319.336-.613.542s-.685.443-1.046.864-.63 1.06-.63 1.768v.5h2v-.5c0-.38.043-.448.822-.993.331-.232.759-.537 1.107-1.036s.57-1.18.57-1.971c0-.972-.34-1.88-.98-2.52-.64-.639-1.548-.98-2.52-.98m-1 10v2h2v-2z" style="color:#f67400"/></svg>