<svg xmlns="http://www.w3.org/2000/svg" width="64" height="64"><defs><linearGradient id="b" x1="22.54" x2="35.771" y1="23.775" y2="35.804" gradientTransform="translate(0 988.049)scale(1.33333)" gradientUnits="userSpaceOnUse"><stop stop-color="#292c2f"/><stop offset="1" stop-color="#292c2f" stop-opacity="0"/></linearGradient><linearGradient id="a" x1="389.337" x2="426.898" y1="548.43" y2="500.046" gradientTransform="translate(-572.245 327.217)scale(1.32228)" gradientUnits="userSpaceOnUse"><stop stop-color="#18222a" style="stop-color:#1e2b35;stop-opacity:1"/><stop offset="1" stop-color="#566069" style="stop-color:#6c7984;stop-opacity:1"/></linearGradient></defs><g transform="translate(0 -988.362)"><rect width="52.891" height="52.891" x="-58.446" y="993.382" rx="26.446" style="fill:url(#a);stroke-width:2.79999995;stroke-opacity:.55" transform="scale(-1 1)"/><path d="m22.331 1031.09 4.776-4.901-9.599-9.41 14.493 1.977 1.358-13.333 9.927 9.864 2.198-1.016 12.184 12.057c-2.018 7.734-10.92 17.724-21.345 18.691z" style="color:#000;clip-rule:nonzero;display:inline;overflow:visible;visibility:visible;opacity:.405;isolation:auto;mix-blend-mode:normal;color-interpolation:sRGB;color-interpolation-filters:linearRGB;solid-color:#000;solid-opacity:1;fill:url(#b);fill-opacity:1;fill-rule:nonzero;stroke:none;stroke-width:1;stroke-linecap:butt;stroke-linejoin:miter;stroke-miterlimit:4;stroke-dasharray:none;stroke-dashoffset:0;stroke-opacity:1;color-rendering:auto;image-rendering:auto;shape-rendering:auto;text-rendering:auto"/><path d="m45.318 1014.324-11.945 3.88.001-12.556h-2.683l.002 12.556-11.944-3.88-.83 2.555 11.94 3.878-7.379 10.16 2.173 1.579 7.38-10.16 7.381 10.159 2.171-1.577-7.382-10.159 11.945-3.88z" style="color:#000;clip-rule:nonzero;display:inline;overflow:visible;visibility:visible;opacity:1;isolation:auto;mix-blend-mode:normal;color-interpolation:sRGB;color-interpolation-filters:linearRGB;solid-color:#000;solid-opacity:1;fill:#fff;fill-opacity:1;fill-rule:nonzero;stroke:none;stroke-width:.4;stroke-linecap:round;stroke-linejoin:round;stroke-miterlimit:4;stroke-dasharray:none;stroke-dashoffset:0;stroke-opacity:1;marker:none;color-rendering:auto;image-rendering:auto;shape-rendering:auto;text-rendering:auto"/><path d="M32.002 5.02A26.61 26.61 0 0 0 5.334 31.688c0 .167.01.332.014.5C5.613 17.648 17.396 6.02 32.002 6.02s26.387 11.628 26.652 26.168c.003-.168.014-.333.014-.5A26.61 26.61 0 0 0 32.002 5.02" style="fill:#fff;stroke-width:2.79999995;stroke-opacity:.55;color:#000;clip-rule:nonzero;display:inline;overflow:visible;visibility:visible;opacity:.3;isolation:auto;mix-blend-mode:normal;color-interpolation:sRGB;color-interpolation-filters:linearRGB;solid-color:#000;solid-opacity:1;fill-opacity:1;fill-rule:nonzero;stroke-linecap:butt;stroke-linejoin:miter;stroke-miterlimit:4;stroke-dasharray:none;stroke-dashoffset:0;filter-blend-mode:normal;filter-gaussianBlur-deviation:0;color-rendering:auto;image-rendering:auto;shape-rendering:auto;text-rendering:auto" transform="translate(0 988.362)"/><path d="M32.002 1046.257a26.61 26.61 0 0 1-26.668-26.668c0-.168.01-.333.014-.5.265 14.54 12.048 26.168 26.654 26.168s26.387-11.628 26.652-26.168c.003.167.014.332.014.5a26.61 26.61 0 0 1-26.666 26.668" style="color:#000;clip-rule:nonzero;display:inline;overflow:visible;visibility:visible;opacity:.3;isolation:auto;mix-blend-mode:normal;color-interpolation:sRGB;color-interpolation-filters:linearRGB;solid-color:#000;solid-opacity:1;fill:#000;fill-opacity:1;fill-rule:nonzero;stroke-width:2.79999995;stroke-linecap:butt;stroke-linejoin:miter;stroke-miterlimit:4;stroke-dasharray:none;stroke-dashoffset:0;stroke-opacity:.55;color-rendering:auto;image-rendering:auto;shape-rendering:auto;text-rendering:auto"/></g></svg>