<svg xmlns="http://www.w3.org/2000/svg" width="48" height="48"><defs><linearGradient id="b" x1="1.058" x2="11.642" y1="285.08" y2="296.22" gradientTransform="matrix(3.96848 0 0 3.7702 -1.2 -1071.812)" gradientUnits="userSpaceOnUse"><stop offset="0" stop-color="#535a61"/><stop offset="1" stop-color="#333c45"/></linearGradient></defs><rect width="41.998" height="42" x="3" y="3" fill="url(#b)" rx="20.999" ry="21" style="fill:url(#b);stroke-width:3.96855"/><path d="M24.747 8.085q-.593.409-1.108.854v.001l-.002.002-1.334 1.377-1.429 2.37-.869 2.603-.324 2.858a16.4 16.4 0 0 0 .417 4.194l.001.018h.003c.297 1.266.354 1.863.92 2.874 6.417-1.125 10.67 3.835 9.236 9.19-.757 2.825-3.088 4.186-5.323 4.696-3.15.548-5.806-1.153-6.445-3.539-.125-.787.07-1.845.52-2.111-.26.09-.577.194-.956.551-.638.602-.654.815-1.488 1.048.409-1.15-1.832-2.086-1.428-4.553.01-.058-.1.472-.092.413-.987 5.453 4.598 11.592 10.795 9.931 4.199-1.048 6.702-4.13 7.53-7.61.477-2.01.33-4.083-.104-5.822-.354-1.416-1.076-2.911-2.163-4.283q-.523-.658-1.08-1.217l-.01-.01-.03-.029c-.834-.837-1.698-1.529-2.526-2.183l-2.451-2.12q-.07-.073-.136-.146l-.763-1.008a6 6 0 0 1-.173-.3l-.585-1.674-.208-2.304.285-1.95.04-.124z" style="fill:#f2f2f2;fill-opacity:1;fill-rule:nonzero;stroke:none;stroke-width:.105105;stroke-linecap:round;stroke-linejoin:round;stroke-miterlimit:4;stroke-dasharray:none;stroke-dashoffset:0;stroke-opacity:1"/><path d="M26.604 10.865c-.21.337-.392.7-.555 1.076l-.492.956-.71 2.24a2 2 0 0 0-.086.27l1.113 1.823.568.594q.1.111.21.22l-.198-1.285-.014-.113-.051-4.581zM15.653 22.997l.076 2.493-.532 1.054-.06 1.86.508.932q.055.114.111.222c.204-.91.586-1.78 1.13-2.537l.168-1.06-.485-1.851z" style="fill:#f2f2f2;fill-opacity:1;fill-rule:nonzero;stroke:none;stroke-width:.105105;stroke-linecap:round;stroke-linejoin:round;stroke-miterlimit:4;stroke-dasharray:none;stroke-dashoffset:0;stroke-opacity:1"/><path d="M23.046 26.216a6.46 6.46 0 0 0-6.458 6.458q.003.5.08.993c.074.113.15.225.21.345.054.106.082.23.117.352.02-.014.07-.025.09-.04.14-.116.316-.32.653-.64.439-.412.848-.603 1.116-.658.595-.122.754-.014 1.27.066-.42.174-.55.366-.874.78-.011.014-.189.228-.264.561a3.1 3.1 0 0 0-.035 1.055c.584 2.111 2.971 3.679 5.902 3.169a8.5 8.5 0 0 0 1.822-.65 6.46 6.46 0 0 0 2.83-5.333 6.46 6.46 0 0 0-6.459-6.458z" style="fill:#f2f2f2;fill-opacity:1;fill-rule:nonzero;stroke:none;stroke-width:.100749;stroke-linecap:round;stroke-linejoin:round;stroke-miterlimit:4;stroke-dasharray:none;stroke-dashoffset:0;stroke-opacity:1"/><path d="m26.94 4.079-.114 1.27-.334.502-.144.94.2.504c.05.148.11.283.162.405l.107.27.238-.836q.054-.186.107-.38l.308-1.085-.133-.97Z" style="fill:#f2f2f2;fill-opacity:1;fill-rule:nonzero;stroke:none;stroke-width:.105105;stroke-linecap:round;stroke-linejoin:round;stroke-miterlimit:4;stroke-dasharray:none;stroke-dashoffset:0;stroke-opacity:1"/></svg>