<svg xmlns="http://www.w3.org/2000/svg" xmlns:xlink="http://www.w3.org/1999/xlink" width="48" height="48"><defs><linearGradient id="p" x2="0" y1="543.8" y2="503.8" gradientTransform="matrix(1.04995 0 0 1.05 -452.977 -525.99)" gradientUnits="userSpaceOnUse"><stop stop-color="#c6cdd1"/><stop offset="1" stop-color="#e0e5e7"/></linearGradient><linearGradient id="e"><stop offset="0" style="stop-color:#b4942a;stop-opacity:1"/><stop offset="1" style="stop-color:#e4dcc9;stop-opacity:1"/></linearGradient><linearGradient id="f"><stop offset="0" style="stop-color:#252525;stop-opacity:1"/><stop offset=".5" style="stop-color:#252525;stop-opacity:1"/><stop offset=".75" style="stop-color:#252525;stop-opacity:1"/><stop offset="1" style="stop-color:#000;stop-opacity:1"/></linearGradient><linearGradient id="g"><stop offset="0" style="stop-color:#2d2d2d;stop-opacity:1"/><stop offset=".5" style="stop-color:#000;stop-opacity:1"/><stop offset="1" style="stop-color:#000;stop-opacity:1"/></linearGradient><linearGradient id="h"><stop offset="0" style="stop-color:#fff;stop-opacity:.68345326"/><stop offset="1" style="stop-color:#fff;stop-opacity:0"/></linearGradient><linearGradient id="i"><stop offset="0" style="stop-color:white;stop-opacity:1"/><stop offset="1" style="stop-color:white;stop-opacity:0"/></linearGradient><linearGradient id="j"><stop offset="0" style="stop-color:#fff;stop-opacity:1"/><stop offset="1" style="stop-color:#aeaeae;stop-opacity:1"/></linearGradient><linearGradient id="n"><stop offset="0" style="stop-color:#252525;stop-opacity:1"/><stop offset="1" style="stop-color:#252525;stop-opacity:0"/></linearGradient><linearGradient id="k"><stop offset="0" style="stop-color:#fff;stop-opacity:1"/><stop offset="1" style="stop-color:#252525;stop-opacity:0"/></linearGradient><linearGradient id="o"><stop offset="0" style="stop-color:#000;stop-opacity:1"/><stop offset=".709" style="stop-color:#090909;stop-opacity:.67870039"/><stop offset="1" style="stop-color:#131313;stop-opacity:0"/></linearGradient><linearGradient id="l"><stop offset="0" style="stop-color:#fff;stop-opacity:.55035973"/><stop offset="1" style="stop-color:#fff;stop-opacity:0"/></linearGradient><linearGradient id="m"><stop offset="0" style="stop-color:#fff;stop-opacity:.55035973"/><stop offset="1" style="stop-color:#000;stop-opacity:0"/></linearGradient><linearGradient xlink:href="#n" id="w" x1="48.915" x2="48.913" y1="2.972" y2="2.555" gradientTransform="matrix(.53205 0 0 .46134 7.815 -10.614)" gradientUnits="userSpaceOnUse"/><linearGradient xlink:href="#i" id="y" x1="48.499" x2="48.733" y1=".812" y2="2.366" gradientTransform="matrix(.43245 .30993 -.26943 .37448 12.552 -4.063)" gradientUnits="userSpaceOnUse"/><linearGradient xlink:href="#o" id="z" x1="46.052" x2="46.052" y1="3.1" y2="2.396" gradientTransform="matrix(.52912 0 0 .46134 7.954 -10.614)" gradientUnits="userSpaceOnUse"/><linearGradient xlink:href="#o" id="B" x1="46.052" x2="46.052" y1="3.1" y2="2.396" gradientTransform="matrix(.4102 0 0 .35568 -5.023 -8.013)" gradientUnits="userSpaceOnUse"/><radialGradient xlink:href="#e" id="q" cx="42.618" cy="120.642" r="3.407" fx="42.618" fy="120.642" gradientTransform="matrix(.48798 .38937 -3.1517 3.77413 379.788 -441.032)" gradientUnits="userSpaceOnUse"/><radialGradient xlink:href="#f" id="r" cx="15.727" cy="58.09" r="2.614" fx="15.727" fy="58.09" gradientTransform="matrix(.60374 .44028 -5.50412 7.6106 336.14 -427.64)" gradientUnits="userSpaceOnUse"/><radialGradient xlink:href="#g" id="s" cx="89.455" cy="100.747" r="47.746" fx="89.455" fy="100.747" gradientTransform="matrix(.02083 .0148 -.16464 .23147 43.499 -3.454)" gradientUnits="userSpaceOnUse"/><radialGradient xlink:href="#h" id="t" cx="34.678" cy="7.462" r="47.595" fx="34.678" fy="7.462" gradientTransform="matrix(.19806 -.00433 .00011 .0113 -7.07 -32.266)" gradientUnits="userSpaceOnUse"/><radialGradient xlink:href="#i" id="u" cx="34.678" cy="7.462" r="47.595" fx="34.678" fy="7.462" gradientTransform="matrix(-.23758 .00106 -.00002 -.00365 6.17 -32.908)" gradientUnits="userSpaceOnUse"/><radialGradient xlink:href="#j" id="v" cx="49.01" cy="8.495" r="3.975" fx="47.371" fy="6.77" gradientTransform="matrix(.43245 .30993 -.1015 .14109 11.125 -2.08)" gradientUnits="userSpaceOnUse"/><radialGradient xlink:href="#k" id="x" cx="49.012" cy="2.674" r="1.725" fx="49.012" fy="2.674" gradientTransform="matrix(.53205 0 0 .05613 7.815 -9.543)" gradientUnits="userSpaceOnUse"/><radialGradient xlink:href="#l" id="A" cx="49.012" cy="2.674" r="1.725" fx="49.012" fy="2.674" gradientTransform="matrix(.35283 0 0 .05613 15.073 -9.543)" gradientUnits="userSpaceOnUse"/><radialGradient xlink:href="#m" id="C" cx="49.012" cy="2.674" r="1.725" fx="49.012" fy="2.674" gradientTransform="matrix(.35008 0 0 .05613 -52.57 -9.543)" gradientUnits="userSpaceOnUse"/></defs><rect width="41.998" height="42" x="-44.999" y="3" fill="url(#p)" rx="20.999" style="fill:url(#p)" transform="scale(-1 1)"/><path fill="#99a1a7" d="M3.012 23.475c-.005.175-.013.349-.013.525 0 11.634 9.365 21 20.999 21a20.954 20.954 0 0 0 20.999-21c0-.176-.008-.35-.013-.525A20.95 20.95 0 0 1 23.998 43.95 20.947 20.947 0 0 1 3.012 23.475" style="stroke-width:2.93993;stroke-opacity:.55"/><path d="M11.945 14.147h8v1h-8zM20.945 14.147h5v1h-5zM11.945 16.147h6v1h-6zM18.945 16.147h3v1h-3zM11.945 18.147h4.03v1h-4.03zM16.945 18.147h7v1h-7z" style="fill:#4c4c4c;fill-rule:evenodd;fill-opacity:1"/><path d="M11.945 10.147h5v1h-5zM22.945 10.147h6v1h-6zM11.945 12.147h7v1h-7zM19.945 12.147h3v1h-3z" style="fill:#4c4c4c;fill-opacity:1;fill-rule:evenodd"/><path d="M11.945-27.147h7v1h-7zM19.945-27.147h3v1h-3zM11.945-25.147h4.03v1h-4.03zM16.945-25.147h8v1h-8z" style="fill:#4c4c4c;fill-rule:evenodd;fill-opacity:1" transform="scale(1 -1)"/><path d="M11.945-23.147h10v1h-10zM22.945-23.147h5v1h-5z" style="fill:#4c4c4c;fill-opacity:1;fill-rule:evenodd" transform="scale(1 -1)"/><path d="M11.945 30.147h10v1h-10zM11.945 32.147h7v1h-7zM19.945 32.147h4v1h-4zM11.945 34.147h4v1h-4zM11.945 36.147h7v1h-7z" style="fill:#4c4c4c;fill-opacity:1;fill-rule:evenodd"/><path d="M22.945 16.147h4v1h-4z" style="fill:#4c4c4c;fill-rule:evenodd;fill-opacity:1"/><path d="M17.945 10.147h4v1h-4zM23.945 12.147h7v1h-7zM26.945 14.147h4v1h-4zM27.945 16.147h3v1h-3z" style="fill:#4c4c4c;fill-opacity:1;fill-rule:evenodd"/><path d="M25.945-25.147h4.03v1h-4.03z" style="fill:#4c4c4c;fill-rule:evenodd;fill-opacity:1" transform="scale(1 -1)"/><path d="M22.945 30.147h4v1h-4zM16.945 34.147h8v1h-8zM19.945 36.147h7v1h-7z" style="fill:#4c4c4c;fill-opacity:1;fill-rule:evenodd"/><path d="M19.945-27.147h3v1h-3zM28.945-23.147h2v1h-2zM27.945-31.147h3v1h-3z" style="fill:#4c4c4c;fill-rule:evenodd;fill-opacity:1" transform="scale(1 -1)"/><path d="M24.945 32.147h6v1h-6z" style="fill:#4c4c4c;fill-opacity:1;fill-rule:evenodd"/><path d="M31.311 10.857c.11-.153 1.024-.117 2.134.678 1.121.804 1.464 1.61 1.326 1.802l-.27.374-3.46-2.48z" style="fill:#000;fill-opacity:1;fill-rule:evenodd;stroke:none;stroke-width:.207796px;stroke-linecap:butt;stroke-linejoin:miter;stroke-opacity:1"/><path d="m18.403 28.821-.05.07-2.636 6.443.862.559 5.208-4.488.041-.049z" style="fill:#000;fill-opacity:1;fill-rule:evenodd;stroke:#000;stroke-width:0;stroke-linecap:butt;stroke-linejoin:miter;stroke-miterlimit:4;stroke-dasharray:none;stroke-opacity:1"/><path d="m15.26 36.88 6.438-5.544.036-.05-3.238-2.391-.048.067z" style="fill:url(#q);fill-opacity:1;fill-rule:evenodd;stroke:#000;stroke-width:0;stroke-linecap:butt;stroke-linejoin:miter;stroke-miterlimit:4;stroke-dasharray:none;stroke-opacity:1"/><path d="M19.908 30.378c.427.306.772.164.925.273a.2.2 0 0 1 .059.07l12.853-17.892-1.677-1.202-12.885 17.937c.063-.009.122-.008.17.026.14.1.126.481.555.788" style="fill:url(#r);fill-opacity:1;fill-rule:nonzero;stroke:none;stroke-width:.103899;stroke-linecap:round;stroke-linejoin:round;stroke-miterlimit:4;stroke-dasharray:none;stroke-dashoffset:4;stroke-opacity:1"/><path d="m33.684 12.785-12.84 17.874c.137.114.08.411.337.596.278.199.454-.01.634.117l12.848-17.885z" style="fill:url(#s);fill-opacity:1;fill-rule:nonzero;stroke:none;stroke-width:.103899;stroke-linecap:round;stroke-linejoin:round;stroke-miterlimit:4;stroke-dasharray:none;stroke-dashoffset:4;stroke-opacity:1"/><path d="M18.703 29.505c.268.187.508-.017.65.085l12.84-17.874-.99-.709-12.848 17.885.016.012c.112.08.062.411.332.6" style="fill:#131313;fill-opacity:1;fill-rule:nonzero;stroke:none;stroke-width:.103899;stroke-linecap:round;stroke-linejoin:round;stroke-miterlimit:4;stroke-dasharray:none;stroke-dashoffset:4;stroke-opacity:1"/><ellipse cx="-.201" cy="-32.332" rx="9.408" ry=".536" style="fill:url(#t);fill-opacity:1;fill-rule:nonzero;stroke:none;stroke-width:.0661232;stroke-linecap:round;stroke-linejoin:round;stroke-miterlimit:4;stroke-dasharray:none;stroke-dashoffset:4;stroke-opacity:1" transform="matrix(.58488 -.81112 -.81407 -.58077 0 0)"/><path d="M9.24-32.898a11.308.17 0 0 1-11.22.17 11.308.17 0 0 1-11.395-.168 11.308.17 0 0 1 11.04-.172 11.308.17 0 0 1 11.569.164" style="fill:url(#u);fill-opacity:1;fill-rule:nonzero;stroke:none;stroke-width:.0501985;stroke-linecap:round;stroke-linejoin:round;stroke-miterlimit:4;stroke-dasharray:none;stroke-dashoffset:4;stroke-opacity:1" transform="matrix(.58283 -.8126 -.81337 -.58175 0 0)"/><path d="M30.12 12.516c-.365.274-.67.734-.807 1.122l2.778 1.974.807-1.122zm2.485 1.765-.807 1.121.975.699c.32-.23.65-.67.807-1.122z" style="fill:url(#v);fill-opacity:1;fill-rule:nonzero;stroke:none;stroke-width:.103899;stroke-linecap:round;stroke-linejoin:round;stroke-miterlimit:4;stroke-dasharray:none;stroke-dashoffset:4;stroke-opacity:1"/><path d="m16.352 33.803-1.2 2.906-.122.297.001.006h-.006l.001.006.002.006c0 .002.006.004.008.006l.001.006.01.012.033.029a.3.3 0 0 0 .06.027l.014.004h.006l.007-.001h.006l-.002-.007h.006l.288-.242 2.38-2.054c-.543-.033-1.153-.78-1.495-1.003z" style="fill:#000;fill-opacity:1;fill-rule:evenodd;stroke:none;stroke-width:0;stroke-linecap:butt;stroke-linejoin:miter;stroke-miterlimit:4;stroke-dasharray:none;stroke-opacity:1"/><path d="M32.975-9.408h1.835v.224h-1.835z" style="fill:url(#w);fill-opacity:1;fill-rule:nonzero;stroke:none;stroke-width:0;stroke-linecap:round;stroke-linejoin:round;stroke-miterlimit:4;stroke-dasharray:none;stroke-dashoffset:4;stroke-opacity:1" transform="rotate(35.629)skewX(-.106)"/><path d="M32.975-9.533h1.835v.348h-1.835z" style="fill:url(#x);fill-opacity:1;fill-rule:nonzero;stroke:none;stroke-width:0;stroke-linecap:round;stroke-linejoin:round;stroke-miterlimit:4;stroke-dasharray:none;stroke-dashoffset:4;stroke-opacity:1" transform="rotate(35.629)skewX(-.106)"/><path d="M33.114 11.362c.702.437 1.26 1.056 1.296 1.116.035.06-.696-.628-1.267-.934-.566-.304-1.277-.285-1.336-.322s-.48-.385-.156-.384c.339 0 .92.187 1.463.524" style="fill:url(#y);fill-opacity:1;fill-rule:evenodd;stroke:none;stroke-width:.207796px;stroke-linecap:butt;stroke-linejoin:miter;stroke-opacity:1"/><path d="M31.758-9.408h1.217v.224h-1.217z" style="fill:url(#z);fill-opacity:1;fill-rule:nonzero;stroke:none;stroke-width:0;stroke-linecap:round;stroke-linejoin:round;stroke-miterlimit:4;stroke-dasharray:none;stroke-dashoffset:4;stroke-opacity:1" transform="rotate(35.629)skewX(-.106)"/><path d="M31.758-9.533h1.217v.348h-1.217z" style="fill:url(#A);fill-opacity:1;fill-rule:nonzero;stroke:none;stroke-width:0;stroke-linecap:round;stroke-linejoin:round;stroke-miterlimit:4;stroke-dasharray:none;stroke-dashoffset:4;stroke-opacity:1" transform="rotate(35.629)skewX(-.106)"/><path d="M-36.014-9.408h1.208v.224h-1.208z" style="fill:url(#B);fill-opacity:1;fill-rule:nonzero;stroke:none;stroke-width:0;stroke-linecap:round;stroke-linejoin:round;stroke-miterlimit:4;stroke-dasharray:none;stroke-dashoffset:4;stroke-opacity:1" transform="matrix(-.8128 -.58253 -.58403 .81173 0 0)"/><path d="M-36.014-9.533h1.208v.348h-1.208z" style="fill:url(#C);fill-opacity:1;fill-rule:nonzero;stroke:none;stroke-width:0;stroke-linecap:round;stroke-linejoin:round;stroke-miterlimit:4;stroke-dasharray:none;stroke-dashoffset:4;stroke-opacity:1" transform="matrix(-.8128 -.58253 -.58403 .81173 0 0)"/><path d="M22.854 28.639a.32.32 0 0 0-.073.205.2.2 0 0 0 .096.16q.09.064.182.039a.32.32 0 0 0 .172-.134.32.32 0 0 0 .073-.206.2.2 0 0 0-.096-.16.21.21 0 0 0-.182-.039.32.32 0 0 0-.172.135m-.106-.076q.162-.224.33-.294a.3.3 0 0 1 .308.028q.138.099.124.282-.012.183-.173.406-.162.224-.33.294a.3.3 0 0 1-.308-.028.3.3 0 0 1-.125-.282q.014-.183.174-.406m1.101-.922.521-.114-.18.25-.349.077.039.354-.18.25-.058-.53-.5.11.18-.249.328-.072-.036-.333.18-.251zm-.036-.534.188-.262.354-.066-.05-.356.189-.262.074.589.239.171-.173.24-.239-.172zm1.88-1.504a1.6 1.6 0 0 1-.224.422.9.9 0 0 1-.343.31q-.177.078-.313-.019-.137-.098-.116-.292.02-.194.193-.434.067-.093.138-.17t.147-.137l.118.084a1.2 1.2 0 0 0-.276.27.5.5 0 0 0-.11.255.19.19 0 0 0 .084.177q.09.065.193.025a.48.48 0 0 0 .202-.176l.047-.071a1 1 0 0 0 .032-.064l-.11-.08-.105.147-.098-.07.268-.373zm-.374-.587.465-.645.11.08-.292.405.105.076.275-.382.11.08-.274.381.13.094.302-.42.11.08-.474.658zm.626-.869.192-.267.632-.058-.389-.279.163-.226.567.406-.192.267-.632.058.39.28-.164.226zm1.084-1.505.192-.267.632-.058-.389-.279.163-.226.567.407-.192.267-.632.058.39.279-.164.226zm.93-1.312a.54.54 0 0 1 .192-.178q.098-.047.17.004t.059.158a.54.54 0 0 1-.109.24.55.55 0 0 1-.193.18q-.096.045-.169-.005-.072-.053-.06-.159a.54.54 0 0 1 .11-.24m.175.514.368-.51.076.054-.368.51zm-.11-.467a.15.15 0 0 0-.035.097q.004.045.048.077.045.032.088.02a.15.15 0 0 0 .081-.063.15.15 0 0 0 .034-.096q-.003-.045-.047-.077a.1.1 0 0 0-.089-.02q-.044.01-.08.062m1.208-1.242a.4.4 0 0 1 .154-.105.14.14 0 0 1 .128.018q.084.06.053.197a1 1 0 0 1-.179.34 1.8 1.8 0 0 1-.233.264l-.113-.08q.069-.054.127-.111.058-.06.104-.123a.5.5 0 0 0 .085-.16q.015-.066-.021-.092-.039-.028-.096.01a.6.6 0 0 0-.13.138l-.07.095-.094-.067.073-.1a.5.5 0 0 0 .08-.147q.012-.057-.022-.082-.033-.023-.081.006a.4.4 0 0 0-.105.108 1 1 0 0 0-.137.257l-.107-.077a2 2 0 0 1 .175-.294.9.9 0 0 1 .23-.244q.102-.064.175-.012a.12.12 0 0 1 .05.102.36.36 0 0 1-.046.158" style="font-style:normal;font-variant:normal;font-weight:700;font-stretch:normal;font-size:12px;line-height:125%;font-family:&quot;Bitstream Vera Sans&quot;;text-align:start;writing-mode:lr-tb;text-anchor:start;fill:#999;fill-opacity:1;stroke:none;stroke-width:.207796px;stroke-linecap:butt;stroke-linejoin:miter;stroke-opacity:1"/></svg>