<svg xmlns="http://www.w3.org/2000/svg" xmlns:xlink="http://www.w3.org/1999/xlink" width="64" height="64"><defs><linearGradient id="r"><stop offset="0" style="stop-color:#000;stop-opacity:.188"/><stop offset="1" style="stop-color:#000;stop-opacity:0"/></linearGradient><linearGradient id="s"><stop offset="0" style="stop-color:#000;stop-opacity:.145"/><stop offset="1" style="stop-color:#000;stop-opacity:0"/></linearGradient><linearGradient id="q"><stop offset="0" style="stop-color:#b21b03;stop-opacity:1"/><stop offset="1" style="stop-color:#d94460;stop-opacity:1"/></linearGradient><linearGradient id="p"><stop offset="0" style="stop-color:#cd1f03;stop-opacity:1"/><stop offset="1" style="stop-color:#d94460;stop-opacity:1"/></linearGradient><linearGradient id="c"><stop offset="0" style="stop-color:#cd1f03;stop-opacity:1"/><stop offset="1" style="stop-color:#d94460;stop-opacity:1"/></linearGradient><linearGradient xlink:href="#c" id="x" x1="394.346" x2="383.146" y1="545.128" y2="533.928" gradientTransform="matrix(2.00216 0 0 2.00216 -763.15 -1049.429)" gradientUnits="userSpaceOnUse"/><linearGradient xlink:href="#s" id="w" x1="2.188" x2="31.688" y1="20.018" y2="48.456" gradientTransform="matrix(1.4015 0 0 1.4015 -.234 -17.635)" gradientUnits="userSpaceOnUse"/><linearGradient xlink:href="#r" id="v" x1="11.37" x2="47.999" y1="-12.559" y2="25.998" gradientTransform="matrix(1.4015 0 0 1.4015 -1.635 -17.635)" gradientUnits="userSpaceOnUse"/><linearGradient xlink:href="#q" id="u" x1="403.009" x2="383.146" y1="547.578" y2="533.928" gradientTransform="matrix(2.00216 0 0 2.00216 -739.316 -1079.634)" gradientUnits="userSpaceOnUse"/><linearGradient xlink:href="#p" id="t" x1="394.346" x2="383.146" y1="545.128" y2="533.928" gradientTransform="matrix(2.00216 0 0 2.00216 -764.544 -1050.203)" gradientUnits="userSpaceOnUse"/></defs><path d="M21-4v3h-8v19H4v27h33V18H15V1h6v3l5-4z" style="color:#000;fill:url(#t);fill-opacity:1;fill-rule:nonzero;stroke:none;stroke-width:1;marker:none;visibility:visible;display:inline;overflow:visible" transform="translate(0 16)"/><path d="m5.505 19.442 30.025.006.002 24.103-30.05.022z" style="color:#000;fill:#f5d66c;fill-opacity:1;fill-rule:nonzero;stroke:none;stroke-width:1;marker:none;visibility:visible;display:inline;overflow:visible" transform="translate(0 16)"/><path d="M26-14v27h23v16h-6v-3l-6 4 6 4v-3h8V13h9v-27z" style="color:#000;fill:url(#u);fill-opacity:1;fill-rule:nonzero;stroke:none;stroke-width:1;marker:none;visibility:visible;display:inline;overflow:visible" transform="translate(0 16)"/><path d="m27.438-12.437 31.07-.071V11.53l-31.04.064z" style="color:#000;fill:#f5d66c;fill-opacity:1;fill-rule:nonzero;stroke:none;stroke-width:1;marker:none;visibility:visible;display:inline;overflow:visible" transform="translate(0 16)"/><path d="M44.602-8.561 58.456 3.54l.039 7.944-16.747.078-3.002-3.27 1.839-3.854-2.978-2.715 4.204-4.03-2.277-3.679 1.401-2.19 2.453-.262z" style="fill:url(#v);fill-opacity:1;stroke:none" transform="translate(0 16)"/><path d="M42.518-9.225a3.504 3.504 0 0 0-3.504 3.503 3.49 3.49 0 0 0 2.803 3.416v.044L37.7 1.724l.963 1.007 3.154-3.066v2.278L38.795 8.25l1.27.613 2.453-5.168 2.452 5.168 1.27-.613-3.022-6.307V-.335l3.154 3.066.963-1.007-4.117-4.03a3.49 3.49 0 0 0 2.803-3.416 3.504 3.504 0 0 0-3.503-3.503m0 1.401a2.102 2.102 0 1 1 0 4.205 2.102 2.102 0 0 1 0-4.205" style="color:#000;fill:#d5363e;fill-opacity:1;fill-rule:nonzero;stroke:none;stroke-width:1;marker:none;visibility:visible;display:inline;overflow:visible" transform="translate(0 16)"/><path d="m20.02 21.518 1.92 1.61 5.017 2.044 8.586 9.794v8.619l-16.754-.04-3.786-3.57-5.08-6.565 2.045-6.008 2.663-2.54 5.08-1.672z" style="color:#000;fill:url(#w);fill-opacity:1;fill-rule:nonzero;stroke:none;stroke-width:1px;marker:none;visibility:visible;display:inline;overflow:visible" transform="translate(0 16)"/><path d="m19.385 22.381-.006.638c-1.766.133-3.45.547-4.973 1.405-2.592 1.385-4.35 5.401-4.447 8.197.005.255-.054.541.05.777.246.318.835.413 1.096.059.67-.776 1.71-1.318 2.801-1.263 1.02-.052 1.96.5 2.556 1.24.215.28.67.355.952.122.337-.317.636-.684 1.051-.926a2.8 2.8 0 0 1 .973-.379c.06 2.435-.002 3.508.01 5.943.02.402-.083.8-.366 1.11-.502.636-1.49.87-2.248.503a1.74 1.74 0 0 1-1.026-1.472c-.03-.305-.246-.617-.6-.638-.398-.05-.75.301-.695.667-.024 1.334 1.11 2.54 2.493 2.792 1.486.311 3.115-.56 3.584-1.905.267-.725.124-1.504.17-2.255.011-2.038-.031-2.714.031-4.752.816.158 1.476.7 1.983 1.287.287.257.79.2 1.005-.114.479-.588 1.164-1.057 1.953-1.182 1.019-.195 2.059.18 2.828.796.301.19.525.501.865.633.438.13.968-.246.856-.69.014-2.596-1.38-6.5-3.615-8.028-1.548-1.075-3.435-1.684-5.35-1.87-.179-.03-.36-.019-.517-.062l-.013-.633c.008-.966-1.372-.952-1.401 0m6.81 4.125c.868.661 2.036 2.941 2.322 4.496-.855-.504-1.56-.502-2.583-.407-1.019.067-1.98.891-2.711 1.548-.88-.795-2.1-1.64-3.337-1.553-1.081.026-2.105.494-2.882 1.178-1.179-1.09-3.029-1.486-4.606-.976-.343.104-.703.152-.736-.142.432-2.041 2.852-4.487 3.78-5.017.97-.5 3.033-1.276 4.744-1.214 2.237-.117 5.03 1.185 6.01 2.087" style="color:#000;fill:url(#x);fill-opacity:1;fill-rule:nonzero;stroke:none;stroke-width:1;marker:none;visibility:visible;display:inline;overflow:visible" transform="translate(0 16)"/></svg>