<svg xmlns="http://www.w3.org/2000/svg" width="16" height="16"><g fill="#dedede" fill-rule="evenodd"><path d="M1 4c-.554 0-1 .446-1 1v6c0 .554.446 1 1 1h4.25q0-.12.03-.242L5.468 11H.999V5h4.466l.668-1zm7.75 0q0 .12-.03.242L8.532 5h4.47v6H8.534l-.668 1H13c.554 0 1-.446 1-1V5c0-.554-.446-1-1-1zM15 6.588v2.824A1.5 1.5 0 0 0 16 8a1.5 1.5 0 0 0-1-1.412" style="paint-order:normal"/><path d="M2 6v4h2a1 1 0 0 1-.832-1.555L4.798 6zm8 0a1 1 0 0 1 .832 1.555L9.202 10H12V6z" style="paint-order:normal"/></g><path fill="#dedede" d="M7.334 4 4 9h3l-.75 3h.416L10 7H7l.75-3z"/></svg>