<svg xmlns="http://www.w3.org/2000/svg" viewBox="0 0 16 16"><path fill="#dedede" d="M0 4v7h1v2h14v-2h1V4zm1 1h14v5H1zm1 1v3h2V6zm3 0v3h2V6zm4 0v3h2V6zm3 0v3h2V6zM2 11h1v1H2zm2 0h1v1H4zm2 0h1v1H6zm2 0h2v1H8zm3 0h1v1h-1zm2 0h1v1h-1z" color="#000" style="font-feature-settings:normal;font-variant-alternates:normal;font-variant-caps:normal;font-variant-ligatures:normal;font-variant-numeric:normal;font-variant-position:normal;isolation:auto;mix-blend-mode:normal;shape-padding:0;text-decoration-color:#000;text-decoration-line:none;text-decoration-style:solid;text-indent:0;text-orientation:mixed;text-transform:none;white-space:normal"/></svg>