<svg xmlns="http://www.w3.org/2000/svg" width="16" height="16"><g fill="#dedede"><path d="M7.99.71h.007c.053 0 .096.041.097.092a.095.095 0 0 1-.097.093.095.095 0 0 1-.098-.093c0-.048.04-.089.09-.092zM7.42 1.23h1.156c.094 0 .169.071.169.16s-.075.162-.169.162H7.42a.165.165 0 0 1-.169-.161c0-.09.075-.161.169-.161M6.84 1.24h.01c.087 0 .156.066.157.148 0 .082-.07.148-.156.148a.15.15 0 0 1-.156-.148c0-.078.063-.143.145-.148" opacity=".5"/><path d="M5.17 0c-.65 0-1.173.498-1.173 1.117V2h1v-.306c0-.446.269-.703.738-.703h2.223C7.913.983 7.876.949 7.876.904c0-.049.04-.089.09-.092h.008c.053 0 .096.041.096.092 0 .045-.036.079-.082.087h2.225c.468 0 .783.257.783.703V2h1v-.883C11.996.498 11.473 0 10.823 0zM3.997 14v.883c0 .619.523 1.117 1.173 1.117h5.653c.65 0 1.174-.498 1.174-1.117V14h-1v.306c0 .446-.293.805-.761.805H5.757c-.468 0-.76-.36-.76-.805V14z"/><ellipse cx="8" cy="14.42" rx=".467" ry=".444"/><path d="M4 2v12h8V2H4.934zm1 1h6v10H5z"/><path d="M11 3v10H5V3z" opacity=".35"/></g></svg>