<svg xmlns="http://www.w3.org/2000/svg" width="32" height="32"><defs><linearGradient id="a" x1="385.571" x2="415.571" y1="535.034" y2="535.034" gradientUnits="userSpaceOnUse"><stop stop-color="#f89406"/><stop offset="1" stop-color="#faa938"/></linearGradient></defs><path fill="#fbbf6a" d="M16.002 6.564c-.44 0-.961-.257-1.158-.57l-.885-1.41c-.196-.314-.717-.57-1.157-.57L2.601 4c-.973-.001-1.383.465-1.397 1.493l-.006.433v19.445c0 .351 1.16 1.275 1.6 1.275h26.408c.44 0 1.6-.924 1.6-1.275V7.838c0-.956-.4-1.275-1.6-1.275z"/><path fill="#434c5e" d="M28.889 13.37c0 .659-.398 1.197-1.309 1.197H4.483c-.911 0-1.259-.539-1.259-1.197V9.778c0-.659.349-1.197 1.259-1.197h23.048c.911 0 1.358.539 1.358 1.197z"/><path fill="url(#a)" d="M413.95 526.422h-26.757c-.811 0-1.622.733-1.622 1.466v14.292c0 .969.627 1.466 1.622 1.466h26.757c.998 0 1.622-.497 1.622-1.466v-14.292c0-.733-.811-1.466-1.622-1.466" transform="translate(-384.571 -515.798)"/></svg>