<svg xmlns="http://www.w3.org/2000/svg" width="32" height="32"><defs><linearGradient id="a" x1="385.769" x2="415.377" y1="531.2" y2="531.2" gradientUnits="userSpaceOnUse"><stop offset="0" stop-color="#78acd3"/><stop offset="1" stop-color="#d98cbb"/></linearGradient><linearGradient id="b" x1="385.571" x2="415.571" y1="535.131" y2="535.131" gradientUnits="userSpaceOnUse"><stop offset="0" stop-color="#326e9a"/><stop offset="1" stop-color="#339993"/></linearGradient><path id="c" d="M388.071 540.798h2v2h-2z"/></defs><path fill="url(#a)" d="M400.573 522.378c-.44 0-.961-.258-1.158-.574l-.885-1.419c-.196-.316-.717-.573-1.157-.574l-10.201-.013c-.973-.001-1.383.467-1.397 1.502l-.006.436v19.569c0 .353 1.16 1.283 1.6 1.283h26.408c.44 0 1.6-.93 1.6-1.283v-17.644c0-.962-.4-1.283-1.6-1.283z" transform="translate(-384.571 -515.798)"/><path fill="#f2f2f2" d="M28.889 13.43c0 .663-.398 1.205-1.309 1.205H4.482c-.911 0-1.259-.542-1.259-1.205V9.815c0-.663.349-1.205 1.259-1.205H27.53c.911 0 1.358.542 1.358 1.205z"/><path fill="url(#b)" d="M413.95 526.464h-26.757c-.811 0-1.622.738-1.622 1.475v14.384c0 .976.627 1.475 1.622 1.475h26.757c.998 0 1.622-.5 1.622-1.475v-14.384c0-.738-.811-1.475-1.622-1.475" transform="translate(-384.571 -515.798)"/><g fill="#f2f2f2" transform="translate(-384.571 -515.798)"><use href="#c"/><use x="4" href="#c"/><use x="8" href="#c"/><use x="12" href="#c"/><path d="M386.571 538.798h1.5v2h-1.5z"/><use x="2" y="-2" href="#c"/><use x="6" y="-2" href="#c"/><use x="10" y="-2" href="#c"/><use x="14" y="-2" href="#c"/><use x=".15" y="-4" href="#c"/><use x="4" y="-4" href="#c"/><path d="M409.367 540.61a.281.281 0 1 1-.281.281.28.28 0 0 1 .281-.281m-.281-1.969a.28.28 0 0 1 .281-.281c.155 0 .281.126.281.281v1.125a.281.281 0 1 1-.562 0zm3.937 3.656h-6.75a1.125 1.125 0 0 1-1.125-1.125v-2.531a.28.28 0 0 1 .281-.281c.155 0 .281.126.281.281v2.391c0 .388.315.703.703.703h6.469a.703.703 0 0 0 .703-.703V538.5a.703.703 0 0 0-.703-.703h-5.203a.844.844 0 0 1-.844-.843v-.844a2.812 2.812 0 0 1 5.625 0v.281a.28.28 0 1 1-.562 0v-.281a2.25 2.25 0 1 0-4.5 0v.703c0 .233.189.422.422.422h5.204c.622 0 1.125.503 1.125 1.125v2.813c0 .621-.503 1.125-1.125 1.125zm-7.031-4.5a.28.28 0 1 1 0-.562.28.28 0 1 1 0 .562"/><use x="8" y="-4" href="#c"/><use x="12" y="-4" href="#c"/></g></svg>