<svg xmlns="http://www.w3.org/2000/svg" width="32" height="32"><defs><linearGradient id="a" x1="385.769" x2="415.377" y1="531.2" y2="531.2" gradientUnits="userSpaceOnUse"><stop offset="0" stop-color="#78acd3"/><stop offset="1" stop-color="#d98cbb"/></linearGradient><linearGradient id="b" x1="385.571" x2="415.571" y1="535.131" y2="535.131" gradientUnits="userSpaceOnUse"><stop offset="0" stop-color="#326e9a"/><stop offset="1" stop-color="#339993"/></linearGradient></defs><path fill="url(#a)" d="M400.573 522.378c-.44 0-.961-.258-1.158-.574l-.885-1.419c-.196-.316-.717-.573-1.157-.574l-10.201-.013c-.973-.002-1.383.467-1.397 1.502l-.006.436v19.569c0 .353 1.16 1.283 1.6 1.283h26.408c.44 0 1.6-.93 1.6-1.283v-17.644c0-.962-.4-1.283-1.6-1.283z" transform="translate(-384.571 -515.798)"/><path fill="#f2f2f2" d="M28.889 13.43c0 .663-.398 1.205-1.309 1.205H4.482c-.911 0-1.259-.542-1.259-1.205V9.815c0-.663.349-1.205 1.259-1.205H27.53c.911 0 1.358.542 1.358 1.205z"/><path fill="url(#b)" d="M413.95 526.464h-26.757c-.811 0-1.622.738-1.622 1.475v14.384c0 .976.627 1.475 1.622 1.475h26.757c.998 0 1.622-.5 1.622-1.475v-14.384c0-.738-.811-1.475-1.622-1.475" transform="translate(-384.571 -515.798)"/><g fill="#f2f2f2"><path d="m21.923 23.49.457-.953-1.175-1.175-.705.705.366.366.208-.205.016.017-.208.204.354.354.326-.326.017.017-.326.326.35.35.204-.192.016.017-.204.192zm4.199 1.182.319.319.355-.355-.202-.198.016-.017.202.198.347-.347-.322-.322.017-.017.322.322.361-.361-.206-.194.016-.017.206.195.236-.236-.459-.951-2.398 2.398-2.309-2.309-.46.951.195.195.213-.201.016.017-.212.2.361.361.325-.325.017.017-.325.325.349.349.209-.205.016.017-.209.205.353.353.321-.321.017.017-.321.321.366.366.207-.203.016.017-.206.203.355.355.325-.325.017.017-.325.325.357.357.202-.198.017.017-.202.198.316.316.363-.363-.19-.186.016-.017.19.186.357-.357-.316-.316.017-.017.316.316.355-.355-.199-.195.016-.017.199.195.366-.366-.319-.319zm2.707-2.468.016-.017.202.198.318-.318-.705-.705-1.087 1.087.457.953.261-.261-.197-.185.016-.017.197.186.35-.35-.319-.319.017-.017.319.319.355-.355zm-.667 2.153c.183 0 .477.366.477.366l-.626-1.303-.205.205z"/><path d="M25.63 18.456a.72.72 0 0 1-.659.435h-.022l.938 1.682.024-.006.028-.003h.02a.3.3 0 0 1 .061.008q.017.004.032.01l.033.013.033.016.033.019.033.022.032.025.031.026.029.027.03.029.029.031.029.032.028.033.027.033.051.067.023.032.022.032.022.032.02.031.019.03.017.029.03.05.012.021.01.019.009.018.012.023 1.491 3.086c.183 0 .477.366.477.366z"/><path d="M24.971 17.5a.674.674 0 0 0-.674.674.7.7 0 0 0 .082.322.68.68 0 0 0 .531.349l.027.002.034.001a.67.67 0 0 0 .627-.428.7.7 0 0 0 .047-.246.675.675 0 0 0-.674-.674m0 1.13a.456.456 0 1 1 0-.912.456.456 0 0 1 0 .912"/><path d="m24.338 18.509-1.94 4.046-1.039 2.168s.294-.366.477-.366l.805-1.665.682-1.412s.369-.718.717-.718q.036 0 .07.01l.859-1.556-.074-.131a.72.72 0 0 1-.557-.376"/></g></svg>