<svg xmlns="http://www.w3.org/2000/svg" width="32" height="32"><defs><linearGradient id="a" x1="385.769" x2="415.377" y1="531.2" y2="531.2" gradientUnits="userSpaceOnUse"><stop offset="0" stop-color="#78acd3"/><stop offset="1" stop-color="#d98cbb"/></linearGradient><linearGradient id="b" x1="385.571" x2="415.571" y1="535.131" y2="535.131" gradientUnits="userSpaceOnUse"><stop offset="0" stop-color="#326e9a"/><stop offset="1" stop-color="#339993"/></linearGradient></defs><path fill="url(#a)" d="M400.573 522.378c-.44 0-.961-.258-1.158-.574l-.885-1.419c-.196-.316-.717-.573-1.157-.574l-10.201-.013c-.973-.001-1.383.467-1.397 1.502l-.006.436v19.569c0 .353 1.16 1.283 1.6 1.283h26.408c.44 0 1.6-.93 1.6-1.283v-17.644c0-.962-.4-1.283-1.6-1.283z" transform="translate(-384.571 -515.798)"/><path fill="#f2f2f2" d="M28.889 13.43c0 .663-.398 1.205-1.309 1.205H4.482c-.911 0-1.259-.542-1.259-1.205V9.815c0-.663.349-1.205 1.259-1.205H27.53c.911 0 1.358.542 1.358 1.205z"/><path fill="url(#b)" d="M413.95 526.464h-26.757c-.811 0-1.622.738-1.622 1.475v14.384c0 .976.627 1.475 1.622 1.475h26.757c.998 0 1.622-.5 1.622-1.475v-14.384c0-.738-.811-1.475-1.622-1.475" transform="translate(-384.571 -515.798)"/><path fill="#f2f2f2" fill-rule="evenodd" d="m28.134 24.917-3.611 1.467a2.5 2.5 0 0 1-.927.176 2.5 2.5 0 0 1-.934-.178l-3.603-1.463a1.02 1.02 0 0 1-.558-.906v-4.584a.34.34 0 0 1 .34-.34.34.34 0 0 1 .34.34v4.537c0 .123.067.227.164.287l3.468 1.467.022.008a1.95 1.95 0 0 0 1.518.002l.022-.008 3.471-1.469a.34.34 0 0 0 .165-.287v-3.178a.34.34 0 0 1 .34-.339.34.34 0 0 1 .34.339v3.226c0 .395-.226.735-.555.905zm.216-5.15a.34.34 0 0 1-.34-.34.34.34 0 0 1 .34-.34.34.34 0 0 1 .34.34.34.34 0 0 1-.34.34m-1.643 4.166-1.602.667a.3.3 0 0 1-.142.03.35.35 0 0 1-.349-.349.35.35 0 0 1 .226-.326l1.632-.714a.34.34 0 0 0 .18-.297v-4.447a.17.17 0 0 0-.17-.17.2.2 0 0 0-.07.015l-2.297 1.005a.34.34 0 0 0-.18.296v4.707a.68.68 0 0 1-.679.679.7.7 0 0 1-.265-.054l-2.509-1.046a1.02 1.02 0 0 1-.622-.938v-4.755a.68.68 0 0 1 .679-.679.7.7 0 0 1 .261.053l1.559.649a.356.356 0 1 1-.301.642l-1.279-.56a.2.2 0 0 0-.07-.014.17.17 0 0 0-.17.17v4.447c0 .13.074.24.181.297l2.297 1.005a.2.2 0 0 0 .07.014.17.17 0 0 0 .17-.17v-4.494a1.02 1.02 0 0 1 .623-.939l2.512-1.046a.7.7 0 0 1 .261-.053.68.68 0 0 1 .68.679v4.755a1.02 1.02 0 0 1-.625.939z"/></svg>