<svg xmlns="http://www.w3.org/2000/svg" width="32" height="32"><defs><linearGradient id="a" x1="385.769" x2="415.377" y1="531.2" y2="531.2" gradientUnits="userSpaceOnUse"><stop offset="0" stop-color="#78acd3"/><stop offset="1" stop-color="#d98cbb"/></linearGradient><linearGradient id="b" x1="385.571" x2="415.571" y1="535.131" y2="535.131" gradientUnits="userSpaceOnUse"><stop offset="0" stop-color="#326e9a"/><stop offset="1" stop-color="#339993"/></linearGradient></defs><path fill="url(#a)" d="M400.573 522.378c-.44 0-.961-.258-1.158-.574l-.885-1.419c-.196-.316-.717-.573-1.157-.574l-10.201-.013c-.973-.001-1.383.467-1.397 1.502l-.006.436v19.569c0 .353 1.16 1.283 1.6 1.283h26.408c.44 0 1.6-.93 1.6-1.283v-17.644c0-.962-.4-1.283-1.6-1.283z" transform="translate(-384.571 -515.798)"/><path fill="#f2f2f2" d="M28.889 13.43c0 .663-.398 1.205-1.309 1.205H4.482c-.911 0-1.259-.542-1.259-1.205V9.815c0-.663.349-1.205 1.259-1.205H27.53c.911 0 1.358.542 1.358 1.205z"/><path fill="url(#b)" d="M413.95 526.464h-26.757c-.811 0-1.622.738-1.622 1.475v14.384c0 .976.627 1.475 1.622 1.475h26.757c.998 0 1.622-.5 1.622-1.475v-14.384c0-.738-.811-1.475-1.622-1.475" transform="translate(-384.571 -515.798)"/><g fill="#f2f2f2"><path d="M27.527 15.927c-.058-.489-.104-.876-.39-.912-.26-.031-.421.276-.626.856-.44 1.249-1.708 2.254-3.243 2.584a1.7 1.7 0 0 0-.917-.267c-.39 0-.751.132-1.048.356-1.39-.13-2.407-1.698-2.417-1.715l-.417-.657v3.048a1.7 1.7 0 0 0-.205.574c-.585-.421-1.267-.515-1.753-.176-.278.194-.46.498-.527.88-.098.556.062 1.193.435 1.75.443.66 1.097 1.045 1.685 1.062.394.35 1.054.848 1.663 1.142 1.143.552 2.207.827 3.164.827 1.389 0 2.471-.525 3.317-1.668 1.61-1.95 1.44-6.455 1.279-7.685zm-3.806 4.216c0 .808-.615 1.466-1.37 1.466s-1.37-.657-1.37-1.466.615-1.466 1.37-1.466 1.37.657 1.37 1.466m-4.801.336a3 3 0 0 0-.215-.278 1 1 0 0 1-.008-.134c0-.631.498-1.145 1.11-1.145.343 0 .662.165.871.438a2.1 2.1 0 0 0-.154.784c0 .23.039.45.108.656-.223.36-.52.565-.83.565-.193 0-.383-.083-.555-.234a2.8 2.8 0 0 0-.327-.651zm-2.13 1.485c-.297-.442-.43-.956-.357-1.375.029-.173.111-.41.327-.56a.75.75 0 0 1 .436-.129c.451 0 .991.325 1.353.864.297.442.43.956.357 1.374-.03.173-.111.41-.327.561-.478.334-1.297-.003-1.789-.735m8.858 1.292c-1.547 1.523-3.089 1.599-5.693.409-.372-.225-.627-.362-.966-.728l.081-.086c.19-.271.182-.288.285-.623q.038-.224.022-.461a1.2 1.2 0 0 0 .425.085c.398 0 .771-.207 1.064-.576.332.495.873.82 1.485.82 1.007 0 1.827-.877 1.827-1.954 0-.498-.223-.954-.223-.954 1.78-.736 2.178-1.242 2.883-2.179s.264 3.889-1.175 6.112z"/><path d="M16.605 19.477a.622.781 0 1 0 0 1.562.622.781 0 1 0 0-1.562m5.498-.223c-.024 0-.046.006-.069.008a.44.44 0 0 1 .346.439c0 .246-.186.446-.415.446s-.415-.2-.415-.446a.46.46 0 0 1 .118-.31.9.9 0 0 0-.394.757c0 .493.372.893.83.893s.83-.4.83-.893-.372-.893-.83-.893zm-2.386 0q-.03.002-.061.007a.38.38 0 0 1 .303.384c0 .216-.163.391-.363.391s-.363-.175-.363-.391a.4.4 0 0 1 .103-.272.79.79 0 0 0-.345.662c0 .431.325.781.726.781s.726-.35.726-.781-.325-.781-.726-.781m7.966 4.557c-.31-.341-.746-.413-1.084-.181a9.3 9.3 0 0 0-1.628-.961c-.475-.223-.026-.142-.417-.257l-1.209.669s.248.218 1.158.646c.639.3 1.241.51 1.7.608-.019.176-.001.366.058.56.203.667 1.368 1.012 1.5 1.049l.251.071v-.286c.001-.363-.021-1.575-.332-1.916z"/><path d="M21.221 22.746s3.165.219 3.165-.556c0-.385-.231-.784-.231-.784s.926.529.786 1.232a1 1 0 0 1-.137.336c-.693 1.11-3.583-.228-3.583-.228"/></g></svg>