<svg xmlns="http://www.w3.org/2000/svg" width="32" height="32"><defs><linearGradient id="a" x1="385.769" x2="415.377" y1="531.2" y2="531.2" gradientUnits="userSpaceOnUse"><stop offset="0" stop-color="#78acd3"/><stop offset="1" stop-color="#d98cbb"/></linearGradient><linearGradient id="b" x1="385.571" x2="415.571" y1="535.131" y2="535.131" gradientUnits="userSpaceOnUse"><stop offset="0" stop-color="#326e9a"/><stop offset="1" stop-color="#339993"/></linearGradient></defs><path fill="url(#a)" d="M400.573 522.378c-.44 0-.961-.258-1.158-.574l-.885-1.419c-.196-.316-.717-.573-1.157-.574l-10.201-.013c-.973-.001-1.383.467-1.397 1.502l-.006.436v19.569c0 .353 1.16 1.283 1.6 1.283h26.408c.44 0 1.6-.93 1.6-1.283v-17.644c0-.962-.4-1.283-1.6-1.283z" transform="translate(-384.571 -515.798)"/><path fill="#f2f2f2" d="M28.889 13.43c0 .663-.398 1.205-1.309 1.205H4.482c-.911 0-1.259-.542-1.259-1.205V9.815c0-.663.349-1.205 1.259-1.205H27.53c.911 0 1.358.542 1.358 1.205z"/><path fill="url(#b)" d="M413.95 526.464h-26.757c-.811 0-1.622.738-1.622 1.475v14.384c0 .976.627 1.475 1.622 1.475h26.757c.998 0 1.622-.5 1.622-1.475v-14.384c0-.738-.811-1.475-1.622-1.475" transform="translate(-384.571 -515.798)"/><path fill="#f2f2f2" fill-rule="evenodd" d="M28.065 26.5h-4.822a.322.322 0 1 1 0-.643h4.822a.643.643 0 0 0 .643-.643v-6.429a.643.643 0 0 0-.643-.643h-6.429a.643.643 0 0 0-.643.643v6.107a.32.32 0 0 1-.321.321.32.32 0 0 1-.322-.321v-6.107c0-.71.576-1.286 1.286-1.286h6.429c.71 0 1.285.576 1.285 1.286v6.429c0 .71-.576 1.286-1.285 1.286m-6.107-.643c.177 0 .321.144.321.322a.32.32 0 0 1-.321.321.32.32 0 0 1-.322-.321.32.32 0 0 1 .322-.322m5.182-.829h-1.321a.19.19 0 0 1-.189-.189.19.19 0 0 1 .189-.189h1.226a.47.47 0 0 0 .472-.472v-1.226a.189.189 0 1 1 .378 0v1.321a.755.755 0 0 1-.755.755m-5.094-4.151a.189.189 0 1 1-.189.189.19.19 0 0 1 .189-.189m5.842.853-.01.06-.007.028-.014.049-.008.021-.022.054-.037.07-.044.066-.051.062a1 1 0 0 1-.058.058.75.75 0 0 1-.498.189v.01a.5.5 0 0 0-.094-.01h-1.321a.47.47 0 0 0-.472.472v1.321a.4.4 0 0 0 .01.094h-.01a.75.75 0 0 1-.189.498l-.053.054-.058.049-.063.043-.068.037-.068.029-.021.008-.049.014-.028.007q-.03.007-.06.01a1 1 0 0 1-.098.008H22.61a.755.755 0 0 1-.755-.755v-1.887c0-.417.338-.755.755-.755h1.415a.47.47 0 0 0 .472-.472v-1.321a.47.47 0 0 0-.472-.472h-1.321a.47.47 0 0 0-.472.472v.472a.189.189 0 1 1-.378 0v-.566c0-.417.338-.755.755-.755h1.509a1 1 0 0 1 .081.005l.077.013.026.007.05.014.02.007.055.022.07.036.066.044.062.051a1 1 0 0 1 .058.058.75.75 0 0 1 .189.498h.01a.5.5 0 0 0-.01.094v1.415a.755.755 0 0 1-.755.755h-1.415a.47.47 0 0 0-.472.472v1.698a.47.47 0 0 0 .472.472H24.4a.47.47 0 0 0 .472-.472v-1.415c0-.417.338-.755.755-.755h1.415a.47.47 0 0 0 .472-.472v-1.698a.47.47 0 0 0-.472-.472h-1.604a.189.189 0 1 1 0-.378h1.698c.417 0 .755.338.755.755v1.887a1 1 0 0 1-.005.082z"/></svg>