<svg xmlns="http://www.w3.org/2000/svg" width="32" height="32"><defs><linearGradient id="a" x1="385.769" x2="415.377" y1="531.2" y2="531.2" gradientUnits="userSpaceOnUse"><stop offset="0" stop-color="#78acd3"/><stop offset="1" stop-color="#ffa95c"/></linearGradient></defs><path fill="url(#a)" d="M400.573 522.378c-.44 0-.961-.258-1.158-.574l-.885-1.419c-.196-.316-.717-.573-1.157-.574l-10.201-.013c-.973-.001-1.383.467-1.397 1.502l-.006.436v19.569c0 .353 1.16 1.283 1.6 1.283h26.408c.44 0 1.6-.93 1.6-1.283v-17.644c0-.962-.4-1.283-1.6-1.283z" transform="translate(-384.571 -515.798)"/><path fill="#f2f2f2" d="M28.889 13.43c0 .663-.398 1.205-1.309 1.205H4.483c-.911 0-1.259-.542-1.259-1.205V9.815c0-.663.349-1.205 1.259-1.205h23.048c.911 0 1.358.542 1.358 1.205z"/><path fill="#ff8b23" d="M29.379 10.666H2.622c-.811 0-1.622.738-1.622 1.475v14.384C1 27.5 1.628 28 2.622 28h26.757c.998 0 1.622-.5 1.622-1.475V12.141c0-.738-.811-1.475-1.622-1.475"/><g fill="#eff0f1"><path d="M27.652 26.5h-8.926c-.123 0-.223-.175-.223-.298s.1-.297.223-.297h8.926c.123 0 .223.175.223.297s-.1.298-.223.298m-1.338-1.636h-.001c-.118 0-.216-.092-.222-.21s.087-.229.21-.236l.042-.005a2 2 0 0 0 .137-.022 2.6 2.6 0 0 0 .478-.145c.507-.208.92-.546 1.227-1.007.342-.508.363-.757.361-.821s-.012-.087-.024-.107-.034-.04-.064-.058a.74.74 0 0 0-.334-.063h-.015c-.274 0-.594.079-.645.094a.2.2 0 0 1-.063.01.224.224 0 0 1-.214-.162.22.22 0 0 1 .019-.17.22.22 0 0 1 .134-.106c.129-.035.446-.111.774-.112.167 0 .302.019.424.06a.66.66 0 0 1 .367.278.64.64 0 0 1 .087.337c-.003.288-.138.617-.436 1.069a3.2 3.2 0 0 1-.709.76 3.1 3.1 0 0 1-.72.412 2.8 2.8 0 0 1-.797.204h-.001zm1.115-3.571h-4.686a.223.223 0 0 1 0-.446h4.277v-.669h-7.661v.669h1.153a.223.223 0 0 1 0 .446H18.95a.222.222 0 0 1-.223-.223v-1.116c0-.059.024-.302.065-.344s.099-.065.158-.065h8.479c.059 0 .116.024.158.065s.065.285.065.344v1.116a.222.222 0 0 1-.223.223m-5.802 0a.223.223 0 1 1 0-.446.223.223 0 0 1 0 .446"/><path d="M22.743 20.178a.223.223 0 0 1-.223-.223v-.446c0-.179.07-.347.196-.473s.294-.196.473-.196h2.678a.223.223 0 0 0 0-.446h-4.24c-.179 0-.347-.07-.473-.196s-.196-.294-.196-.473a.223.223 0 0 1 .446 0c0 .123.1.223.223.223h4.24a.667.667 0 0 1 .473 1.142.67.67 0 0 1-.473.196h-2.678c-.123 0-.223.1-.223.223v.446c0 .123-.1.223-.223.223m1.133 6.248H22.52a.2.2 0 0 1-.045-.004 3.95 3.95 0 0 1-1.446-.625 4.4 4.4 0 0 1-1.124-1.083c-.099-.147-.025-.323.08-.408.038-.028.119-.065.203-.088s.213.034.255.091c.616.843 1.218 1.298 2.1 1.484h1.31c.881-.187 1.518-.569 2.131-1.415.623-.86.99-1.956 1.031-3.085h-7.657a6 6 0 0 0 .163 1.153.2.2 0 0 1 .006.053c-.035.119-.143.183-.243.207a1 1 0 0 1-.091.016c-.104 0-.267-.07-.291-.171a6.4 6.4 0 0 1-.172-1.282l-.003-.199a.222.222 0 0 1 .223-.223h8.479a.222.222 0 0 1 .223.223l-.003.199a6.3 6.3 0 0 1-.325 1.822 5.8 5.8 0 0 1-.792 1.549 4.8 4.8 0 0 1-1.165 1.153 3.9 3.9 0 0 1-1.445.628.2.2 0 0 1-.045.004zm-4.396-2.65a.22.22 0 0 1-.203-.131.22.22 0 0 1 .111-.296.223.223 0 0 1 .295.111.223.223 0 0 1-.203.315z"/><path d="M26.871 22.409h-4.909a.223.223 0 0 1 0-.446h4.909a.223.223 0 0 1 0 .446"/></g></svg>