<svg xmlns="http://www.w3.org/2000/svg" width="32" height="32"><defs><linearGradient id="a" x1="385.769" x2="415.377" y1="531.2" y2="531.2" gradientUnits="userSpaceOnUse"><stop offset="0" stop-color="#78acd3"/><stop offset="1" stop-color="#d98cbb"/></linearGradient><linearGradient id="b" x1="385.571" x2="415.571" y1="535.131" y2="535.131" gradientUnits="userSpaceOnUse"><stop offset="0" stop-color="#326e9a"/><stop offset="1" stop-color="#339993"/></linearGradient><path id="c" d="M411.748 537.588h-4.224c-.168 0-.305.101-.305.225s.136.225.305.225h4.224c.168 0 .305-.101.305-.225s-.136-.225-.305-.225"/></defs><path fill="url(#a)" d="M400.573 522.378c-.44 0-.961-.258-1.158-.574l-.885-1.419c-.196-.316-.717-.573-1.157-.574l-10.201-.013c-.973-.001-1.383.467-1.397 1.502l-.006.436v19.569c0 .353 1.16 1.283 1.6 1.283h26.408c.44 0 1.6-.93 1.6-1.283v-17.644c0-.962-.4-1.283-1.6-1.283z" transform="translate(-384.571 -515.798)"/><path fill="#f2f2f2" d="M28.889 13.43c0 .663-.398 1.205-1.309 1.205H4.482c-.911 0-1.259-.542-1.259-1.205V9.815c0-.663.349-1.205 1.259-1.205H27.53c.911 0 1.358.542 1.358 1.205z"/><path fill="url(#b)" d="M413.95 526.464h-26.757c-.811 0-1.622.738-1.622 1.475v14.384c0 .976.627 1.475 1.622 1.475h26.757c.998 0 1.622-.5 1.622-1.475v-14.384c0-.738-.811-1.475-1.622-1.475" transform="translate(-384.571 -515.798)"/><g fill="#f2f2f2" transform="translate(-384.571 -515.798)"><path d="M412.767 536.39c0 .155-.139.281-.31.281s-.309-.126-.309-.281.139-.281.309-.281.31.126.31.281m0 5.903h-4.956c-.685 0-1.239-.504-1.239-1.124v-6.746c0-.621.555-1.124 1.239-1.124h2.478c.342 0 .62.252.62.562v1.687c0 .311.277.562.62.562.171 0 .31.126.31.281s-.139.281-.31.281c-.684 0-1.239-.504-1.239-1.124v-1.686h-2.478c-.342 0-.694.252-.694.562v6.746c0 .31.352.562.694.562h4.956c.342 0 .701-.252.694-.562v-4.943l-1.974-1.724c-.121-.11-.121-.288 0-.397s.317-.11.438 0l1.987 1.803a.27.27 0 0 1 .094.202v5.059c0 .621-.555 1.124-1.239 1.124z"/><use href="#c"/><use y="1.874" href="#c"/></g></svg>