<svg xmlns="http://www.w3.org/2000/svg" width="32" height="32"><defs><linearGradient id="a" x1="385.769" x2="415.377" y1="531.2" y2="531.2" gradientUnits="userSpaceOnUse"><stop offset="0" stop-color="#78acd3"/><stop offset="1" stop-color="#d98cbb"/></linearGradient><linearGradient id="b" x1="385.571" x2="415.571" y1="535.131" y2="535.131" gradientUnits="userSpaceOnUse"><stop offset="0" stop-color="#326e9a"/><stop offset="1" stop-color="#339993"/></linearGradient></defs><path fill="url(#a)" d="M400.573 522.378c-.44 0-.961-.258-1.158-.574l-.885-1.419c-.196-.316-.717-.573-1.157-.574l-10.201-.013c-.973-.001-1.383.467-1.397 1.502l-.006.436v19.569c0 .353 1.16 1.283 1.6 1.283h26.408c.44 0 1.6-.93 1.6-1.283v-17.644c0-.962-.4-1.283-1.6-1.283z" transform="translate(-384.571 -515.798)"/><path fill="#f2f2f2" d="M28.889 13.43c0 .663-.398 1.205-1.309 1.205H4.482c-.911 0-1.259-.542-1.259-1.205V9.815c0-.663.349-1.205 1.259-1.205H27.53c.911 0 1.358.542 1.358 1.205z"/><path fill="url(#b)" d="M413.95 526.464h-26.757c-.811 0-1.622.738-1.622 1.475v14.384c0 .976.627 1.475 1.622 1.475h26.757c.998 0 1.622-.5 1.622-1.475v-14.384c0-.738-.811-1.475-1.622-1.475" transform="translate(-384.571 -515.798)"/><path fill="#f2f2f2" d="M21.673 21.66a.31.31 0 0 1-.398.03l-.008.008-.222-.224a1.597 1.597 0 0 1 0-2.242.31.31 0 0 1 .444 0 .32.32 0 0 1 0 .448.96.96 0 0 0 0 1.345l.222.224-.008.008a.315.315 0 0 1-.03.402zm.812-2.22a.32.32 0 0 1 0-.448.31.31 0 0 1 .444 0 .32.32 0 0 1 0 .448.31.31 0 0 1-.444 0m6.111 2.931-2.015 2.033a.31.31 0 0 1-.444 0 .32.32 0 0 1 0-.448l1.793-1.809.222-.224c.78-.788.859-2.272 0-3.139s-2.251-.867-3.109 0l-.22.222a.625.625 0 0 1-.893 0l-.22-.222c-.858-.867-2.251-.867-3.109 0s-.8 2.332 0 3.139l.666.673 3.331 3.363a.32.32 0 0 1 0 .448.31.31 0 0 1-.444 0l-1.777-1.793-2.221-2.242c-1.045-1.055-1.104-2.921 0-4.036a2.81 2.81 0 0 1 3.998 0l.222.224.222-.224a2.81 2.81 0 0 1 3.998 0c1.104 1.114 1.006 3.02 0 4.036zm-2.795 2.373a.32.32 0 0 1 0 .448.31.31 0 0 1-.444 0 .32.32 0 0 1 0-.448.31.31 0 0 1 .444 0"/></svg>