<svg xmlns="http://www.w3.org/2000/svg" width="32" height="32"><defs><linearGradient id="a" x1="385.769" x2="415.377" y1="531.2" y2="531.2" gradientUnits="userSpaceOnUse"><stop offset="0" stop-color="#78acd3"/><stop offset="1" stop-color="#d98cbb"/></linearGradient><linearGradient id="b" x1="385.571" x2="415.571" y1="535.131" y2="535.131" gradientUnits="userSpaceOnUse"><stop offset="0" stop-color="#326e9a"/><stop offset="1" stop-color="#339993"/></linearGradient></defs><path fill="url(#a)" d="M400.573 522.378c-.44 0-.961-.258-1.158-.574l-.885-1.419c-.196-.316-.717-.573-1.157-.574l-10.201-.013c-.973-.002-1.383.467-1.397 1.502l-.006.436v19.569c0 .353 1.16 1.283 1.6 1.283h26.408c.44 0 1.6-.93 1.6-1.283v-17.644c0-.962-.4-1.283-1.6-1.283z" transform="translate(-384.571 -515.798)"/><path fill="#f2f2f2" d="M28.889 13.43c0 .663-.398 1.205-1.309 1.205H4.482c-.911 0-1.259-.542-1.259-1.205V9.815c0-.663.349-1.205 1.259-1.205H27.53c.911 0 1.358.542 1.358 1.205z"/><path fill="url(#b)" d="M413.95 526.464h-26.757c-.811 0-1.622.738-1.622 1.475v14.384c0 .976.627 1.475 1.622 1.475h26.757c.998 0 1.622-.5 1.622-1.475v-14.384c0-.738-.811-1.475-1.622-1.475" transform="translate(-384.571 -515.798)"/><path fill="#f2f2f2" fill-rule="evenodd" d="M28.476 20.884A1.12 1.12 0 0 1 29.5 22c0 .583-.445 1.064-1.015 1.12-.159.006-.319.032-.378.175s.025.269.135.378a1.117 1.117 0 0 1-.06 1.51 1.12 1.12 0 0 1-1.501.073q-.01.005-.02.008c-.109-.113-.239-.208-.383-.148s-.172.207-.172.363q.001.021.008.039a1.123 1.123 0 0 1-2.233-.03c-.018-.01-.017-.013-.017-.016 0-.143-.025-.303-.169-.362s-.269.025-.379.135q-.01.01-.014.023a1.12 1.12 0 0 1-1.556-1.588l-.009-.024c.101-.101.196-.232.137-.375s-.208-.172-.363-.172q-.015.002-.029.006a1.123 1.123 0 0 1 .037-2.233c.148-.016.303-.042.361-.183s-.024-.268-.134-.377a1.12 1.12 0 0 1 1.58-1.569c.115.094.243.184.383.126s.172-.208.172-.363a1.125 1.125 0 0 1 1.118-1.014 1.13 1.13 0 0 1 1.12 1.021l.009.104h-.004a.281.281 0 1 1-.562 0 .563.563 0 0 0-.563-.563.56.56 0 0 0-.562.563v.281l-.002.002a.42.42 0 0 1-.3.415l-.018.007a3 3 0 0 0-.382.159l-.008-.001a.42.42 0 0 1-.542-.098l-.175-.175a.563.563 0 0 0-.796 0 .56.56 0 0 0 0 .795l.199.199.001.008a.42.42 0 0 1 .078.502l-.003.016q-.092.184-.159.382l-.009.007a.42.42 0 0 1-.459.312h-.238a.563.563 0 1 0 0 1.126h.281l.008.006a.42.42 0 0 1 .405.3l.011.013q.066.198.159.382l-.002.017a.42.42 0 0 1-.101.538l-.171.171a.56.56 0 0 0 0 .795c.22.219.576.219.796 0l.199-.199.008-.002a.42.42 0 0 1 .497-.073h.021a3 3 0 0 0 .382.159l.011.015c.19.056.306.226.306.408l.002.002v.282a.563.563 0 1 0 1.126 0v-.282l.002-.002a.42.42 0 0 1 .3-.406l.017-.016a3 3 0 0 0 .382-.159l.019.002a.42.42 0 0 1 .5.071l.008.002.199.199a.564.564 0 0 0 .796 0 .56.56 0 0 0 0-.795l-.171-.171a.42.42 0 0 1-.107-.529l.004-.028a3 3 0 0 0 .159-.38l.011-.008a.42.42 0 0 1 .406-.305l.008-.006h.281a.563.563 0 0 0 .563-.563.56.56 0 0 0-.563-.562h-.238a.42.42 0 0 1-.456-.297l-.011-.021a3 3 0 0 0-.159-.381l.001-.01a.42.42 0 0 1 .072-.509l.001-.008.199-.199a.56.56 0 0 0 0-.795.6.6 0 0 0-.394-.169.282.282 0 1 1 0-.563q.03 0 .059.006c.264.017.531.126.733.328a1.12 1.12 0 0 1 .069 1.506c-.102.114-.197.244-.138.388s.207.172.363.172zm-1.929-1.416a.281.281 0 1 1 .281-.281.28.28 0 0 1-.281.281m-2.531 3.234a.281.281 0 1 1 0 .562.281.281 0 1 1 0-.562m-.703-.703A1.69 1.69 0 0 1 25 20.312 1.69 1.69 0 0 1 26.687 22 1.69 1.69 0 0 1 25 23.688a.28.28 0 0 1-.281-.281c0-.155.126-.282.281-.282A1.125 1.125 0 1 0 23.875 22a.281.281 0 1 1-.562 0z"/></svg>