<svg xmlns="http://www.w3.org/2000/svg" width="32" height="32"><defs><linearGradient id="a" x1="385.769" x2="415.377" y1="531.2" y2="531.2" gradientUnits="userSpaceOnUse"><stop offset="0" stop-color="#78acd3"/><stop offset="1" stop-color="#d98cbb"/></linearGradient><linearGradient id="b" x1="385.571" x2="415.571" y1="535.131" y2="535.131" gradientUnits="userSpaceOnUse"><stop offset="0" stop-color="#326e9a"/><stop offset="1" stop-color="#339993"/></linearGradient></defs><path fill="url(#a)" d="M400.573 522.378c-.44 0-.961-.258-1.158-.574l-.885-1.419c-.196-.316-.717-.573-1.157-.574l-10.201-.013c-.973-.001-1.383.467-1.397 1.502l-.006.436v19.569c0 .353 1.16 1.283 1.6 1.283h26.408c.44 0 1.6-.93 1.6-1.283v-17.644c0-.962-.4-1.283-1.6-1.283z" transform="translate(-384.571 -515.798)"/><path fill="#f2f2f2" d="M28.889 13.43c0 .663-.398 1.205-1.309 1.205H4.482c-.911 0-1.259-.542-1.259-1.205V9.815c0-.663.349-1.205 1.259-1.205H27.53c.911 0 1.358.542 1.358 1.205z"/><path fill="url(#b)" d="M413.95 526.464h-26.757c-.811 0-1.622.738-1.622 1.475v14.384c0 .976.627 1.475 1.622 1.475h26.757c.998 0 1.622-.5 1.622-1.475v-14.384c0-.738-.811-1.475-1.622-1.475" transform="translate(-384.571 -515.798)"/><path fill="#ececec" d="M25.257 23.755a.2.2 0 0 0 .126.149l1.764.72a6.7 6.7 0 0 1 1.249.752l.112.081.549.87c.038.06.102.13.168.13.036 0 .167.06.2.039.093-.058.026-.288-.033-.38l-.542-.858c.046-.298.181-1.165.03-2.083-.056-.393-.311-1.147-.322-1.179a.198.198 0 0 0-.344-.058l-.06.078c.033-.745-.029-.836-.059-.879a4.6 4.6 0 0 0-1.192-1.189l-.555-.354c-.055-.033-.122-.038-.181-.014s-.102.077-.116.14l-.017.077c-.217-.586-.317-.636-.372-.663l-1.192-.521-.88-.381c-.559-.255-.945-.484-1.152-.606-.17-.1-.21-.124-.28-.124a.21.21 0 0 0-.137.052.2.2 0 0 0-.065.152l-.008.055c-.044.285-.179 1.152-.028 2.071.11.775.513 2.225 1.978 3.227l.516.33c.038.023.121.073.985.114l-.078.069a.2.2 0 0 0-.064.185zm-.654-.717-.481-.308c-1.339-.916-1.708-2.245-1.81-2.96-.117-.709-.05-1.391 0-1.76a12 12 0 0 0 1.108.578l.899.39 1.143.498c.083.119.282.664.422 1.122a.198.198 0 0 0 .383-.015l.111-.504.302.196a4.2 4.2 0 0 1 1.076 1.067c.028.143.004.772-.037 1.293a.198.198 0 0 0 .354.136l.225-.292.191.755c.095.578.069 1.137.028 1.524l-.572-.85a10.5 10.5 0 0 0-2.518-2.765l-1.04-.797a.198.198 0 1 0-.241.315l1.04.797a10.2 10.2 0 0 1 2.428 2.667l.307.456a7 7 0 0 0-.604-.315c-.392-.194-1.086-.465-1.488-.618l.201-.178a.199.199 0 0 0-.125-.347l-1.303-.086z"/></svg>