<svg xmlns="http://www.w3.org/2000/svg" width="32" height="32"><defs><linearGradient id="a" x1="385.769" x2="415.377" y1="531.2" y2="531.2" gradientUnits="userSpaceOnUse"><stop offset="0" stop-color="#78acd3"/><stop offset="1" stop-color="#d98cbb"/></linearGradient><linearGradient id="b" x1="385.571" x2="415.571" y1="535.131" y2="535.131" gradientUnits="userSpaceOnUse"><stop offset="0" stop-color="#326e9a"/><stop offset="1" stop-color="#339993"/></linearGradient></defs><path fill="url(#a)" d="M400.573 522.378c-.44 0-.961-.258-1.158-.574l-.885-1.419c-.196-.316-.717-.573-1.157-.574l-10.201-.013c-.973-.001-1.383.467-1.397 1.502l-.006.436v19.569c0 .353 1.16 1.283 1.6 1.283h26.408c.44 0 1.6-.93 1.6-1.283v-17.644c0-.962-.4-1.283-1.6-1.283z" transform="translate(-384.571 -515.798)"/><path fill="#f2f2f2" d="M28.889 13.43c0 .663-.398 1.205-1.309 1.205H4.482c-.911 0-1.259-.542-1.259-1.205V9.815c0-.663.349-1.205 1.259-1.205H27.53c.911 0 1.358.542 1.358 1.205z"/><path fill="url(#b)" d="M413.95 526.464h-26.757c-.811 0-1.622.738-1.622 1.475v14.384c0 .976.627 1.475 1.622 1.475h26.757c.998 0 1.622-.5 1.622-1.475v-14.384c0-.738-.811-1.475-1.622-1.475" transform="translate(-384.571 -515.798)"/><path d="M19.5 16.5h10v10h-10z" opacity=".001"/><path fill="#f2f2f2" fill-rule="evenodd" d="M28.362 20.26A1.246 1.246 0 0 1 29.5 21.5a1.25 1.25 0 0 1-1.128 1.244c-.176.006-.354.034-.42.193s.027.299.15.421a1.24 1.24 0 0 1-.066 1.678 1.246 1.246 0 0 1-1.668.081q-.01.005-.023.009c-.121-.125-.266-.231-.426-.164s-.191.23-.191.403q0 .023.009.044a1.25 1.25 0 0 1-1.237 1.092 1.25 1.25 0 0 1-1.244-1.125q-.01-.004-.02-.009c.002-.168-.027-.345-.186-.411s-.299.027-.421.15q-.01.011-.016.025a1.245 1.245 0 0 1-1.649-.094 1.244 1.244 0 0 1-.079-1.67l-.01-.027c.113-.113.218-.258.152-.417s-.231-.192-.403-.192q-.016.001-.032.007a1.25 1.25 0 0 1-1.091-1.237 1.25 1.25 0 0 1 1.132-1.244c.165-.018.336-.047.401-.204s-.027-.298-.149-.419c-.4-.49-.378-1.211.08-1.669s1.185-.481 1.676-.075c.128.104.27.204.426.139s.192-.231.192-.403a1.25 1.25 0 0 1 2.486.009l.01.115h-.004a.312.312 0 1 1-.625 0 .625.625 0 0 0-1.25 0v.313l-.002.003a.47.47 0 0 1-.333.461l-.019.008a3 3 0 0 0-.424.177l-.009-.001a.47.47 0 0 1-.603-.108l-.195-.195a.625.625 0 0 0-.884.884l.221.221.001.009a.47.47 0 0 1 .086.557l-.004.018a3 3 0 0 0-.176.425l-.009.007a.47.47 0 0 1-.511.347h-.264a.625.625 0 0 0 0 1.25h.312l.009.007c.202 0 .389.129.45.333l.012.014q.073.22.177.424l-.003.019a.47.47 0 0 1-.112.598l-.19.19a.625.625 0 0 0 .884.884l.221-.221.009-.002a.47.47 0 0 1 .552-.081l.024-.001q.204.103.425.176l.013.016a.47.47 0 0 1 .339.453l.002.002v.313a.625.625 0 0 0 1.25 0v-.313l.002-.002a.47.47 0 0 1 .333-.451l.019-.018q.22-.074.424-.177l.021.003a.47.47 0 0 1 .555.079l.009.002.221.221a.625.625 0 0 0 .884-.884l-.19-.19a.47.47 0 0 1-.119-.587l.004-.031q.103-.204.176-.422l.012-.009a.47.47 0 0 1 .451-.338l.009-.007h.313a.625.625 0 0 0 0-1.25h-.265a.47.47 0 0 1-.507-.33l-.013-.024a3 3 0 0 0-.177-.424l.002-.011a.47.47 0 0 1 .08-.565l.001-.009.221-.221a.625.625 0 0 0 0-.884.68.68 0 0 0-.437-.188.313.313 0 1 1 .065-.619 1.27 1.27 0 0 1 .814.364c.459.459.481 1.183.077 1.674-.114.126-.219.271-.153.431s.23.191.403.191zm-2.143-1.573a.313.313 0 1 1 0-.626.313.313 0 0 1 0 .626m-2.813 3.594a.313.313 0 1 1 0 .626.313.313 0 0 1 0-.626m-.781-.781a1.876 1.876 0 1 1 1.875 1.875.313.313 0 1 1 0-.626 1.25 1.25 0 0 0 1.25-1.25 1.25 1.25 0 0 0-2.5 0 .313.313 0 1 1-.624 0z"/></svg>