<svg xmlns="http://www.w3.org/2000/svg" width="32" height="32"><defs><linearGradient id="a" x1="385.769" x2="415.377" y1="531.2" y2="531.2" gradientUnits="userSpaceOnUse"><stop offset="0" stop-color="#78acd3"/><stop offset="1" stop-color="#d98cbb"/></linearGradient><linearGradient id="b" x1="385.571" x2="415.571" y1="535.131" y2="535.131" gradientUnits="userSpaceOnUse"><stop offset="0" stop-color="#326e9a"/><stop offset="1" stop-color="#339993"/></linearGradient></defs><path fill="url(#a)" d="M400.573 522.378c-.44 0-.961-.258-1.158-.574l-.885-1.419c-.196-.316-.717-.573-1.157-.574l-10.201-.013c-.973-.002-1.383.467-1.397 1.502l-.006.436v19.569c0 .353 1.16 1.283 1.6 1.283h26.408c.44 0 1.6-.93 1.6-1.283v-17.644c0-.962-.4-1.283-1.6-1.283z" transform="translate(-384.571 -515.798)"/><path fill="#f2f2f2" d="M28.889 13.43c0 .663-.398 1.205-1.309 1.205H4.482c-.911 0-1.259-.542-1.259-1.205V9.815c0-.663.349-1.205 1.259-1.205H27.53c.911 0 1.358.542 1.358 1.205z"/><path fill="url(#b)" d="M413.95 526.464h-26.757c-.811 0-1.622.738-1.622 1.475v14.384c0 .976.627 1.475 1.622 1.475h26.757c.998 0 1.622-.5 1.622-1.475v-14.384c0-.738-.811-1.475-1.622-1.475" transform="translate(-384.571 -515.798)"/><path fill="#f2f2f2" d="m24.1 17.5-1.35.45v1.125l-.675.675-.765-.585-.81 1.035.45.9v2.7h1.8v.9h1.35v-.9h1.8v.9h1.35v-.9h1.8v-2.7l.45-.9-.81-1.035-.765.585-.675-.675V17.95l-1.35-.45c-.18.27-.315.585-.45.9h-.9c-.135-.315-.45-.9-.45-.9m-1.125 3.6a1.125 1.125 0 1 1 0 2.25 1.125 1.125 0 1 1 0-2.25m4.05 0a1.125 1.125 0 1 1 0 2.25 1.125 1.125 0 1 1 0-2.25m-4.05.45a.675.675 0 1 0 0 1.35.675.675 0 1 0 0-1.35m2.025 0c.225 0 .45.225.45.45v.9c0 .225-.225.45-.45.45s-.45-.225-.45-.45V22c0-.225.201-.45.45-.45m2.025 0a.675.675 0 1 0 0 1.35.675.675 0 1 0 0-1.35m-6.075 2.7v.225c0 1.485 1.845 2.025 4.05 2.025s4.05-.675 4.05-2.16v-.09H27.7v.9h-2.25v-.9h-.9v.9H22.3v-.9z"/></svg>