<svg xmlns="http://www.w3.org/2000/svg" width="32" height="32"><defs><linearGradient id="a" x1="385.769" x2="415.377" y1="531.2" y2="531.2" gradientUnits="userSpaceOnUse"><stop offset="0" stop-color="#78acd3"/><stop offset="1" stop-color="#d98cbb"/></linearGradient><linearGradient id="b" x1="385.571" x2="415.571" y1="535.131" y2="535.131" gradientUnits="userSpaceOnUse"><stop offset="0" stop-color="#326e9a"/><stop offset="1" stop-color="#339993"/></linearGradient></defs><path fill="url(#a)" d="M400.573 522.378c-.44 0-.961-.258-1.158-.574l-.885-1.419c-.196-.316-.717-.573-1.157-.574l-10.201-.013c-.973-.002-1.383.467-1.397 1.502l-.006.436v19.569c0 .353 1.16 1.283 1.6 1.283h26.408c.44 0 1.6-.93 1.6-1.283v-17.644c0-.962-.4-1.283-1.6-1.283z" transform="translate(-384.571 -515.798)"/><path fill="#f2f2f2" d="M28.889 13.43c0 .663-.398 1.205-1.309 1.205H4.482c-.911 0-1.259-.542-1.259-1.205V9.815c0-.663.349-1.205 1.259-1.205H27.53c.911 0 1.358.542 1.358 1.205z"/><path fill="url(#b)" d="M413.95 526.464h-26.757c-.811 0-1.622.738-1.622 1.475v14.384c0 .976.627 1.475 1.622 1.475h26.757c.998 0 1.622-.5 1.622-1.475v-14.384c0-.738-.811-1.475-1.622-1.475" transform="translate(-384.571 -515.798)"/><g fill="#f2f2f2" fill-rule="evenodd"><path d="M23.568 19.047a.61.61 0 0 1 .554.609.61.61 0 0 1-.55.611c-.086.003-.172.017-.204.095s.013.147.073.207c.201.246.19.6-.032.824s-.574.236-.813.04c-.07-.056-.141-.108-.218-.075s-.093.113-.093.198q0 .011.004.021a.61.61 0 0 1-.603.536.61.61 0 0 1-.606-.553c-.009-.087-.023-.174-.1-.207s-.146.013-.205.073a.6.6 0 0 1-.811-.034.62.62 0 0 1-.039-.82c.05-.068.101-.14.069-.218s-.112-.094-.196-.094a.605.605 0 0 1-.547-.604.61.61 0 0 1 .551-.611c.079-.009.163-.023.195-.1s-.013-.146-.072-.206c-.195-.241-.184-.595.039-.82s.577-.236.816-.037c.062.051.132.1.208.068s.093-.113.093-.198a.61.61 0 0 1 .605-.553.61.61 0 0 1 .606.557l.005.057h-.002c0 .085-.068.154-.152.154s-.152-.069-.152-.154a.305.305 0 1 0-.61 0v.154l-.001.001a.23.23 0 0 1-.162.226l-.009.004q-.107.036-.207.087l-.005-.001a.23.23 0 0 1-.293-.053l-.095-.096a.303.303 0 0 0-.431 0 .31.31 0 0 0 0 .434l.108.109.001.004c.071.07.092.181.042.274l-.002.009a2 2 0 0 0-.086.209l-.005.004a.23.23 0 0 1-.248.17h-.129a.307.307 0 0 0 0 .614h.152l.005.004c.099 0 .19.064.219.164l.006.007a2 2 0 0 0 .086.208l-.001.009a.23.23 0 0 1-.055.294l-.092.093a.31.31 0 0 0 0 .434c.119.12.312.12.431 0l.108-.109.004-.001a.225.225 0 0 1 .269-.04l.011-.001a2 2 0 0 0 .207.087l.006.008a.23.23 0 0 1 .165.223l.001.001v.154a.305.305 0 1 0 .61 0v-.154l.001-.001a.23.23 0 0 1 .162-.222l.01-.009a2 2 0 0 0 .207-.087l.01.002a.23.23 0 0 1 .271.039l.005.001.108.109c.119.12.312.12.431 0a.31.31 0 0 0 0-.434l-.093-.093a.23.23 0 0 1-.058-.289l.002-.015a2 2 0 0 0 .086-.207l.006-.005a.23.23 0 0 1 .22-.166l.005-.004h.152a.307.307 0 0 0 0-.614h-.129a.23.23 0 0 1-.247-.162l-.007-.012a2 2 0 0 0-.086-.208l.001-.005a.23.23 0 0 1 .039-.278l.001-.004.108-.109a.31.31 0 0 0 0-.434.33.33 0 0 0-.213-.092c-.084 0-.152-.069-.152-.154a.152.152 0 0 1 .184-.15.62.62 0 0 1 .397.179.616.616 0 0 1 .038.822c-.056.062-.107.133-.075.211s.112.094.196.094zm-1.044-.773c-.084 0-.152-.069-.152-.154a.152.152 0 1 1 .304 0 .154.154 0 0 1-.152.154m-1.533 2.752h.012zm.218.086.009.009zl.009.009zm6.354.704a.61.61 0 0 1-.604.56.61.61 0 0 1-.606-.554c-.003-.087-.017-.174-.094-.207s-.146.014-.205.073a.6.6 0 0 1-.818-.033.615.615 0 0 1-.04-.819c.056-.071.107-.142.075-.22s-.112-.094-.196-.094a.1.1 0 0 0-.021.005.61.61 0 0 1-.532-.608c0-.318.24-.58.548-.611.088-.009.174-.023.206-.101s-.013-.147-.073-.207a.61.61 0 0 1 .034-.818.603.603 0 0 1 .814-.039c.068.05.139.102.216.069s.093-.113.093-.198a.606.606 0 0 1 .6-.552.61.61 0 0 1 .606.556c.009.081.023.165.099.197s.145-.013.204-.073c.239-.196.59-.185.813.039s.234.582.036.823c-.051.063-.099.133-.068.209s.112.094.196.094a.61.61 0 0 1 .549.61.61.61 0 0 1-.553.611l-.056.005v-.002a.153.153 0 0 1 0-.306.307.307 0 0 0 0-.614h-.152l-.001-.001a.23.23 0 0 1-.225-.164l-.003-.009a2 2 0 0 0-.086-.208l.001-.005a.23.23 0 0 1 .053-.296l.095-.096a.31.31 0 0 0 0-.434.303.303 0 0 0-.431 0l-.108.109-.005.001a.23.23 0 0 1-.272.042l-.009-.002a1.5 1.5 0 0 0-.207-.087l-.004-.005a.23.23 0 0 1-.169-.25v-.13a.305.305 0 1 0-.61 0v.153l-.004.005a.23.23 0 0 1-.162.221l-.007.006q-.107.036-.207.087l-.009-.001a.226.226 0 0 1-.291-.054l-.093-.093a.303.303 0 0 0-.431 0 .31.31 0 0 0 0 .434l.108.109.001.005a.23.23 0 0 1 .04.271l.001.012a2 2 0 0 0-.086.209l-.008.006a.23.23 0 0 1-.221.168l-.001.001h-.152c-.168 0-.305.137-.305.307s.136.307.305.307h.152l.001.001c.099 0 .19.063.22.164l.009.009a2 2 0 0 0 .086.208l-.001.01a.23.23 0 0 1-.039.272l-.001.005-.108.109a.31.31 0 0 0 0 .434c.119.12.312.12.431 0l.093-.093a.226.226 0 0 1 .286-.058l.015.002q.1.051.206.087l.005.006a.23.23 0 0 1 .164.221l.004.005v.154c0 .17.137.307.305.307s.305-.137.305-.307v-.13a.23.23 0 0 1 .161-.249l.011-.007q.107-.036.207-.087l.005.001a.225.225 0 0 1 .275.039l.005.001.108.109c.119.12.312.12.431 0a.33.33 0 0 0 .091-.215c0-.085.068-.154.152-.154a.153.153 0 0 1 .148.186.63.63 0 0 1-.177.4.603.603 0 0 1-.815.038c-.062-.055-.133-.107-.21-.075s-.093.113-.093.198zm.766-1.053a.152.152 0 1 1 .304 0c0 .084-.068.153-.152.153s-.152-.069-.152-.153M25.6 19.218v.011zm-.086.22-.009.009zl-.009.009zM26.25 23.392a.61.61 0 0 1 .554.608.61.61 0 0 1-.55.611c-.086.003-.172.017-.204.095s.013.147.073.207c.201.246.19.6-.032.824s-.574.236-.813.04c-.07-.056-.141-.108-.218-.075s-.093.113-.093.198a.1.1 0 0 0 .005.021.61.61 0 0 1-.603.536.61.61 0 0 1-.606-.553c-.009-.088-.023-.175-.1-.208s-.146.014-.205.073c-.247.201-.592.188-.811-.034s-.234-.579-.039-.82c.05-.068.101-.14.069-.218s-.112-.094-.196-.094a.607.607 0 0 1-.547-.605.61.61 0 0 1 .551-.611c.079-.009.163-.023.195-.1s-.013-.146-.072-.206c-.195-.241-.184-.595.039-.82s.577-.236.817-.037c.062.051.132.1.208.068s.093-.113.093-.198a.61.61 0 0 1 .605-.553.61.61 0 0 1 .606.557l.005.057h-.002c0 .085-.068.154-.152.154s-.152-.069-.152-.154a.305.305 0 1 0-.61 0v.154l-.001.001a.23.23 0 0 1-.162.226l-.009.004q-.107.036-.207.087l-.005-.001a.23.23 0 0 1-.293-.053l-.095-.096a.303.303 0 0 0-.431 0 .31.31 0 0 0 0 .434l.108.109.001.005a.23.23 0 0 1 .042.274l-.002.009a2 2 0 0 0-.086.209l-.005.003a.23.23 0 0 1-.249.17h-.129a.307.307 0 0 0 0 .614h.152l.004.004c.099 0 .19.064.219.164l.006.007q.036.108.086.208l-.001.009a.23.23 0 0 1-.054.294l-.092.093a.31.31 0 0 0 0 .434c.119.12.312.12.431 0l.108-.109.005-.001a.225.225 0 0 1 .269-.04h.012a2 2 0 0 0 .207.087l.006.008a.23.23 0 0 1 .165.223l.001.001v.154a.305.305 0 1 0 .61 0v-.154l.001-.001a.23.23 0 0 1 .162-.222l.009-.009a2 2 0 0 0 .207-.087l.01.001a.23.23 0 0 1 .271.039l.005.001.108.109c.119.12.312.12.431 0a.31.31 0 0 0 0-.434l-.093-.093a.23.23 0 0 1-.058-.289l.002-.015q.05-.1.086-.207l.006-.005a.23.23 0 0 1 .22-.166l.005-.003h.152a.307.307 0 0 0 0-.614h-.129a.23.23 0 0 1-.247-.162l-.007-.011a2 2 0 0 0-.086-.208l.001-.005a.23.23 0 0 1 .039-.278l.001-.005.108-.109a.31.31 0 0 0 0-.434.33.33 0 0 0-.213-.092.154.154 0 0 1 0-.307q.017 0 .032.004a.62.62 0 0 1 .397.179.616.616 0 0 1 .038.822c-.055.062-.106.133-.074.211s.112.094.196.094zm-1.044-.773c-.084 0-.152-.069-.152-.154a.152.152 0 1 1 .304 0 .154.154 0 0 1-.152.154m-1.533 2.752h.012zm.218.086.009.009zl.009.009z"/></g></svg>