<svg xmlns="http://www.w3.org/2000/svg" xml:space="preserve" width="32" height="32"><defs><linearGradient id="a" x1="385.769" x2="415.377" y1="531.2" y2="531.2" gradientTransform="translate(-384.571 -515.798)" gradientUnits="userSpaceOnUse"><stop offset="0" stop-color="#78acd3"/><stop offset="1" stop-color="#d98cbb"/></linearGradient><linearGradient id="b" x1="385.571" x2="415.571" y1="535.131" y2="535.131" gradientTransform="translate(-384.571 -515.798)" gradientUnits="userSpaceOnUse"><stop offset="0" stop-color="#326e9a"/><stop offset="1" stop-color="#339993"/></linearGradient></defs><path fill="url(#a)" d="M16.002 6.58c-.44 0-.961-.258-1.158-.574l-.885-1.419c-.196-.316-.717-.573-1.157-.574L2.601 4c-.973-.002-1.383.467-1.397 1.502l-.006.436v19.569c0 .353 1.16 1.283 1.6 1.283h26.408c.44 0 1.6-.93 1.6-1.283V7.863c0-.962-.4-1.283-1.6-1.283z" style="fill:url(#a)"/><path fill="#f2f2f2" d="M28.889 13.43c0 .663-.398 1.205-1.309 1.205H4.482c-.911 0-1.259-.542-1.259-1.205V9.815c0-.663.349-1.205 1.259-1.205H27.53c.911 0 1.358.542 1.358 1.205z"/><path fill="url(#b)" d="M29.379 10.666H2.622c-.811 0-1.622.738-1.622 1.475v14.384C1 27.501 1.627 28 2.622 28h26.757c.998 0 1.622-.5 1.622-1.475V12.141c0-.738-.811-1.475-1.622-1.475" style="fill:url(#b)"/><path d="M25.045 17.501q-.09.003-.177.01c-2.18.075-3.979 1.753-4.265 3.883q-.011.076-.019.153c-.321 3.047 2.62 5.657 5.721 4.744 1.075-.316 1.729-.922 2.173-1.412v-.002l-.008.003a4.5 4.5 0 0 0 1.062-2.892c-.01-1.932-1.499-4.48-4.487-4.487zm.001.734.012.001c-.001.066-.012.13-.012.196 0 .528.067 1.039.182 1.532a4 4 0 0 1-2.152.924c.23-.975.691-1.859 1.32-2.595q.13-.022.264-.034l.114-.014q.135-.01.272-.01m.545.044.008.002q.18.027.358.072h.002q.181.045.358.11l.013.004c-.161.38-.38.733-.648 1.047a6.3 6.3 0 0 1-.1-1.082c0-.051.008-.101.01-.153m-2.069.285a6.6 6.6 0 0 0-1.003 2.343 4 4 0 0 1-1.007-.162 4 4 0 0 1 .138-.34l.01-.021q.075-.16.167-.314l.005-.009a3.8 3.8 0 0 1 .441-.593l.004-.006q.123-.134.26-.257l.011-.01q.133-.12.277-.225l.016-.012a4 4 0 0 1 .3-.198l.008-.003q.159-.094.327-.172zm3.293.117.003.002a3.8 3.8 0 0 1 .585.391l.033.024.003.003q.126.105.241.221l.032.03.002.003q.093.095.18.2l.074.085q.073.093.14.19l.08.113q.084.132.157.269l.026.045.001.003q.07.135.128.278l.027.06.002.007q.046.12.084.244l.04.121a4.5 4.5 0 0 0-2.059.865 6.2 6.2 0 0 1-.77-1.695c.422-.417.759-.913.99-1.459m-1.436 1.84c.193.594.464 1.152.805 1.662a4.55 4.55 0 0 0-1.316 2.383 6.2 6.2 0 0 1-1.729-.564 6.2 6.2 0 0 1-.235-1.679c0-.304.03-.6.071-.892a4.5 4.5 0 0 0 2.404-.91m-4.01.732q.52.158 1.064.185-.06.44-.065.885c0 .45.047.888.13 1.314a6.2 6.2 0 0 1-1.138-.978v-.001a4 4 0 0 1-.037-.27l-.015-.118a3.7 3.7 0 0 1 .061-1.017m7.39.241a4 4 0 0 1 .035.49 3.75 3.75 0 0 1-.378 1.63l-.012.028a6.3 6.3 0 0 1-1.498-1.376 4 4 0 0 1 1.852-.771m-2.256 1.119a6.8 6.8 0 0 0 1.639 1.485l-.001.003a4 4 0 0 1-.152.198 6.2 6.2 0 0 1-2.068.362c-.175 0-.348-.012-.52-.026a4 4 0 0 1 1.102-2.022m-4.766 1.126q.447.358.952.636.122.375.284.73l-.003-.003a4 4 0 0 1-.284-.21l-.016-.012a3.8 3.8 0 0 1-.933-1.142m1.636.957q.69.28 1.424.4a5 5 0 0 0-.019.37c0 .085.007.17.012.255l-.005-.001a3.8 3.8 0 0 1-.992-.207l-.005-.001a6 6 0 0 1-.415-.815m3.781.382-.001.003a4 4 0 0 1-.312.19l-.007.003h-.003q-.14.077-.285.14l-.07.03a4 4 0 0 1-.276.1l-.077.026a4 4 0 0 1-.258.067l-.116.026a4 4 0 0 1-.241.035 4 4 0 0 1-.179.022c-.006-.084-.015-.169-.015-.256q.002-.15.014-.297c.196.017.393.03.592.03a6.6 6.6 0 0 0 1.235-.118" style="color:#dedede;fill:#f2f2f2;stroke-width:.535526"/></svg>