<svg xmlns="http://www.w3.org/2000/svg" width="32" height="32"><defs><linearGradient id="a" x1="385.769" x2="415.377" y1="531.2" y2="531.2" gradientUnits="userSpaceOnUse"><stop offset="0" stop-color="#78acd3"/><stop offset="1" stop-color="#d98cbb"/></linearGradient><linearGradient id="b" x1="385.571" x2="415.571" y1="535.131" y2="535.131" gradientUnits="userSpaceOnUse"><stop offset="0" stop-color="#326e9a"/><stop offset="1" stop-color="#339993"/></linearGradient></defs><path fill="url(#a)" d="M400.573 522.378c-.44 0-.961-.258-1.158-.574l-.885-1.419c-.196-.316-.717-.573-1.157-.574l-10.201-.013c-.973-.001-1.383.467-1.397 1.502l-.006.436v19.569c0 .353 1.16 1.283 1.6 1.283h26.408c.44 0 1.6-.93 1.6-1.283v-17.644c0-.962-.4-1.283-1.6-1.283z" transform="translate(-384.571 -515.798)"/><path fill="#f2f2f2" d="M28.889 13.43c0 .663-.398 1.205-1.309 1.205H4.482c-.911 0-1.259-.542-1.259-1.205V9.815c0-.663.349-1.205 1.259-1.205H27.53c.911 0 1.358.542 1.358 1.205z"/><path fill="url(#b)" d="M413.95 526.464h-26.757c-.811 0-1.622.738-1.622 1.475v14.384c0 .976.627 1.475 1.622 1.475h26.757c.998 0 1.622-.5 1.622-1.475v-14.384c0-.738-.811-1.475-1.622-1.475" transform="translate(-384.571 -515.798)"/><path fill="#f2f2f2" d="M24.962 20.83c-.64 0-1.159.523-1.159 1.168s.519 1.168 1.159 1.168 1.159-.523 1.159-1.168-.519-1.168-1.159-1.168m-.201.376a.8.8 0 0 0-.511.402.06.06 0 0 1-.051.03.1.1 0 0 1-.027-.007.06.06 0 0 1-.024-.079.93.93 0 0 1 .585-.459c.031-.009.063.011.07.042s-.011.063-.042.071m.605-1.849c-.007-.22-.184-.396-.404-.396s-.397.176-.404.396a2.67 2.67 0 0 0-2.246 2.641 2.67 2.67 0 0 0 2.246 2.641c.007.22.184.396.404.396s.397-.176.404-.396a2.67 2.67 0 0 0 2.246-2.641 2.67 2.67 0 0 0-2.246-2.641m-.007 5.194c-.035-.19-.2-.334-.398-.334s-.363.144-.398.334c-1.225-.194-2.165-1.264-2.165-2.553s.94-2.36 2.165-2.553c.035.19.2.334.398.334s.363-.144.398-.334c1.225.194 2.165 1.264 2.165 2.553s-.94 2.36-2.165 2.553m4.064-2.553a.405.405 0 0 0-.382-.406 4.13 4.13 0 0 0-.911-2.212.41.41 0 0 0-.014-.561.403.403 0 0 0-.557-.014 4.06 4.06 0 0 0-2.194-.918c-.012-.214-.187-.385-.403-.385s-.391.171-.403.385a4.06 4.06 0 0 0-2.194.918.4.4 0 0 0-.557.014.41.41 0 0 0-.014.561 4.13 4.13 0 0 0-.911 2.212.406.406 0 0 0 0 .812 4.13 4.13 0 0 0 .911 2.212.41.41 0 0 0 .014.561.403.403 0 0 0 .557.014 4.06 4.06 0 0 0 2.194.918c.012.214.187.385.403.385s.391-.171.403-.385a4.06 4.06 0 0 0 2.194-.918.4.4 0 0 0 .557-.014.41.41 0 0 0 .014-.561 4.13 4.13 0 0 0 .911-2.212.406.406 0 0 0 .382-.406m-.469.402c-.08.814-.4 1.557-.888 2.158a.4.4 0 0 0-.522.042.41.41 0 0 0-.042.527 4 4 0 0 1-2.14.896c-.03-.195-.197-.345-.399-.345s-.369.15-.399.345a4 4 0 0 1-2.14-.896.41.41 0 0 0-.042-.527.4.4 0 0 0-.523-.042 4.04 4.04 0 0 1-.889-2.157c.194-.03.342-.198.342-.402s-.148-.372-.342-.402a4.04 4.04 0 0 1 .888-2.157.4.4 0 0 0 .523-.042.41.41 0 0 0 .042-.527 4 4 0 0 1 2.14-.896c.03.195.197.345.399.345s.369-.15.399-.345a4 4 0 0 1 2.14.896.41.41 0 0 0 .042.527.4.4 0 0 0 .523.042 4.04 4.04 0 0 1 .888 2.158c-.194.03-.342.198-.342.402s.148.372.342.402z"/></svg>