<svg xmlns="http://www.w3.org/2000/svg" width="32" height="32"><defs><linearGradient id="a" x1="385.769" x2="415.377" y1="531.2" y2="531.2" gradientUnits="userSpaceOnUse"><stop offset="0" stop-color="#78acd3"/><stop offset="1" stop-color="#d98cbb"/></linearGradient><linearGradient id="b" x1="385.571" x2="415.571" y1="535.131" y2="535.131" gradientUnits="userSpaceOnUse"><stop offset="0" stop-color="#326e9a"/><stop offset="1" stop-color="#339993"/></linearGradient></defs><path fill="url(#a)" d="M400.573 522.378c-.44 0-.961-.258-1.158-.574l-.885-1.419c-.196-.316-.717-.573-1.157-.574l-10.201-.013c-.973-.001-1.383.467-1.397 1.502l-.006.436v19.569c0 .353 1.16 1.283 1.6 1.283h26.408c.44 0 1.6-.93 1.6-1.283v-17.644c0-.962-.4-1.283-1.6-1.283z" transform="translate(-384.571 -515.798)"/><path fill="#f2f2f2" d="M28.889 13.43c0 .663-.398 1.205-1.309 1.205H4.482c-.911 0-1.259-.542-1.259-1.205V9.815c0-.663.349-1.205 1.259-1.205H27.53c.911 0 1.358.542 1.358 1.205z"/><path fill="url(#b)" d="M413.95 526.464h-26.757c-.811 0-1.622.738-1.622 1.475v14.384c0 .976.627 1.475 1.622 1.475h26.757c.998 0 1.622-.5 1.622-1.475v-14.384c0-.738-.811-1.475-1.622-1.475" transform="translate(-384.571 -515.798)"/><g fill="#f2f2f2"><path fill-rule="evenodd" d="M28.215 26.5h-4.822a.32.32 0 0 1-.321-.321.32.32 0 0 1 .321-.322h4.822a.643.643 0 0 0 .643-.643v-6.429a.643.643 0 0 0-.643-.643h-6.429a.643.643 0 0 0-.643.643v6.107a.32.32 0 0 1-.321.321.32.32 0 0 1-.322-.321v-6.107c0-.71.576-1.286 1.286-1.286h6.429c.71 0 1.285.576 1.285 1.286v6.429c0 .71-.576 1.286-1.285 1.286m-6.107-.643a.322.322 0 1 1-.322.322.32.32 0 0 1 .322-.322"/><path d="M26.894 20.525v.386c0 .012-.01.021-.021.021h-1.659a.02.02 0 0 0-.02.014l-.928 2.42a.215.215 0 0 1-.395.013l-.451-.977q-.006-.012-.019-.012h-.171a.02.02 0 0 1-.021-.021v-.386c0-.012.01-.021.021-.021h.321c.084 0 .16.049.195.125l.288.624c.005.011.021.01.025-.001l.792-2.067a.21.21 0 0 1 .2-.138h1.821c.012 0 .021.01.021.021zm-.058 2.618a.215.215 0 0 1-.026.317.22.22 0 0 1-.293-.03l-1.237-1.322a.215.215 0 0 1 .026-.317.22.22 0 0 1 .293.03l.443.474c.009.009.023.009.031 0l.449-.48a.215.215 0 0 1 .318.005.22.22 0 0 1-.011.294l-.465.497a.02.02 0 0 0 0 .029zm-.909-.093a.02.02 0 0 1 0 .029l-.328.35a.22.22 0 0 1-.293.03.214.214 0 0 1-.026-.317l.351-.376a.02.02 0 0 1 .031 0z"/></g></svg>