<svg xmlns="http://www.w3.org/2000/svg" width="32" height="32"><defs><linearGradient id="a" x1="385.769" x2="415.377" y1="531.2" y2="531.2" gradientUnits="userSpaceOnUse"><stop offset="0" stop-color="#78acd3"/><stop offset="1" stop-color="#d98cbb"/></linearGradient><linearGradient id="b" x1="385.571" x2="415.571" y1="535.131" y2="535.131" gradientUnits="userSpaceOnUse"><stop offset="0" stop-color="#326e9a"/><stop offset="1" stop-color="#339993"/></linearGradient></defs><path fill="url(#a)" d="M400.573 522.378c-.44 0-.961-.258-1.158-.574l-.885-1.419c-.196-.316-.717-.573-1.157-.574l-10.201-.013c-.973-.002-1.383.467-1.397 1.502l-.006.436v19.569c0 .353 1.16 1.283 1.6 1.283h26.408c.44 0 1.6-.93 1.6-1.283v-17.644c0-.962-.4-1.283-1.6-1.283z" transform="translate(-384.571 -515.798)"/><path fill="#f2f2f2" d="M28.889 13.43c0 .663-.398 1.205-1.309 1.205H4.482c-.911 0-1.259-.542-1.259-1.205V9.815c0-.663.349-1.205 1.259-1.205H27.53c.911 0 1.358.542 1.358 1.205z"/><path fill="url(#b)" d="M413.95 526.464h-26.757c-.811 0-1.622.738-1.622 1.475v14.384c0 .976.627 1.475 1.622 1.475h26.757c.998 0 1.622-.5 1.622-1.475v-14.384c0-.738-.811-1.475-1.622-1.475" transform="translate(-384.571 -515.798)"/><path fill="#f2f2f2" d="M22.989 26.499a.53.53 0 0 0 .435-.277c.07-.128.09-.279.053-.421s-.125-.263-.248-.337a.5.5 0 0 0-.403-.055c-.136.038-.252.131-.322.259s-.089.279-.053.421a.55.55 0 0 0 .248.337.5.5 0 0 0 .29.074zm3.417-.867a.33.33 0 0 0 .237-.103.36.36 0 0 0 .098-.247c0-.193-.15-.35-.335-.35s-.334.157-.334.35.15.35.334.35m-.843-.089a.29.29 0 0 0 .207-.089.3.3 0 0 0 .086-.216c0-.169-.131-.305-.293-.305s-.291.137-.292.305.131.306.292.306zm1.823-.035c.105 0 .205-.043.279-.121s.116-.183.116-.292a.42.42 0 0 0-.116-.292.386.386 0 0 0-.558 0 .42.42 0 0 0-.115.292.42.42 0 0 0 .115.292.39.39 0 0 0 .279.121m-2.517-.214a.26.26 0 0 0 .254-.265.27.27 0 0 0-.074-.188.25.25 0 0 0-.18-.078.26.26 0 0 0-.254.266.26.26 0 0 0 .254.265m-2.026-.288a.45.45 0 0 0 .372-.237c.125-.227.051-.517-.166-.648s-.495-.053-.621.173c-.06.109-.077.239-.046.36s.107.226.212.289a.45.45 0 0 0 .249.063m1.498-.05c.058 0 .115-.024.156-.067a.24.24 0 0 0 0-.326c-.042-.043-.097-.068-.156-.068s-.114.024-.155.068-.065.102-.064.163c0 .127.099.23.219.23m-2.653-.12a.45.45 0 0 0 .372-.237.486.486 0 0 0-.167-.648.44.44 0 0 0-.345-.048.46.46 0 0 0-.276.222.486.486 0 0 0 .167.648.43.43 0 0 0 .249.063m4.566-.218c.185 0 .335-.157.334-.35s-.15-.349-.334-.349-.335.156-.335.349c0 .093.035.182.098.248s.149.102.237.102m-2.305-.062a.18.18 0 0 0 .132-.056.2.2 0 0 0 0-.275.18.18 0 0 0-.264 0 .2.2 0 0 0-.054.138.2.2 0 0 0 .054.138.18.18 0 0 0 .132.056zm1.462-.026a.3.3 0 0 0 .292-.306c0-.169-.131-.305-.292-.305s-.293.136-.293.305c0 .081.031.159.086.216s.129.089.207.089zm1.822-.035c.105 0 .205-.043.28-.121s.115-.182.115-.292a.42.42 0 0 0-.115-.292.385.385 0 0 0-.559 0 .42.42 0 0 0-.115.292.42.42 0 0 0 .115.292.38.38 0 0 0 .279.121m-2.516-.214c.14 0 .253-.119.254-.266s-.114-.265-.254-.266a.25.25 0 0 0-.18.078.27.27 0 0 0-.075.188.26.26 0 0 0 .255.266m3.59-.196c.251 0 .455-.213.455-.475s-.204-.474-.455-.474-.454.212-.454.474.203.475.454.475m-4.118-.142c.122 0 .22-.103.22-.23s-.099-.23-.22-.23-.22.103-.22.23.099.23.22.23m-1.202-.205a.39.39 0 0 0 .323-.205.43.43 0 0 0 .04-.313.4.4 0 0 0-.184-.25c-.189-.114-.43-.046-.539.151s-.044.449.144.563q.101.06.217.055zm-1.155-.17a.4.4 0 0 0 .323-.206.44.44 0 0 0 .04-.313.4.4 0 0 0-.184-.251.38.38 0 0 0-.299-.041.4.4 0 0 0-.24.192.42.42 0 0 0 .145.563c.065.04.141.059.216.055zm3.986-.079a.34.34 0 0 0 .335-.35.36.36 0 0 0-.098-.247.33.33 0 0 0-.237-.103c-.089 0-.174.037-.237.103s-.099.155-.098.247c0 .193.15.35.335.35m-.843-.088a.28.28 0 0 0 .207-.09.3.3 0 0 0 .086-.216c0-.081-.031-.159-.086-.216s-.129-.09-.207-.09a.3.3 0 0 0-.292.306.3.3 0 0 0 .292.306m1.823-.037a.39.39 0 0 0 .279-.12.42.42 0 0 0 .116-.292.42.42 0 0 0-.116-.292.383.383 0 0 0-.558 0 .42.42 0 0 0-.115.292.42.42 0 0 0 .115.292c.074.077.174.12.279.12m-5.884-.165a.39.39 0 0 0 .323-.206.43.43 0 0 0 .04-.313.4.4 0 0 0-.184-.25c-.189-.113-.43-.046-.539.151s-.044.449.144.563c.066.04.141.059.216.055m3.366-.049a.25.25 0 0 0 .18-.078.27.27 0 0 0 .075-.188.26.26 0 0 0-.255-.265.26.26 0 0 0-.254.265.26.26 0 0 0 .254.266m3.591-.196c.251 0 .454-.212.454-.474s-.203-.475-.454-.475-.454.213-.454.475.203.474.454.474m-4.552-.259a.33.33 0 0 0 .275-.175c.092-.168.037-.381-.123-.478s-.365-.039-.457.128-.038.381.122.478c.056.033.12.05.184.047zm-1.155-.17a.33.33 0 0 0 .274-.175.36.36 0 0 0-.122-.478.32.32 0 0 0-.254-.035.34.34 0 0 0-.204.163.36.36 0 0 0 .123.478.33.33 0 0 0 .183.047m3.612-.278a.24.24 0 0 0 .122-.036c.122-.073.163-.236.093-.363s-.226-.17-.347-.097-.163.236-.093.363a.25.25 0 0 0 .226.133zm3.196-.049a.52.52 0 0 0 .375-.163.56.56 0 0 0 .155-.392.543.543 0 0 0-.531-.555.52.52 0 0 0-.376.162.57.57 0 0 0 0 .785.52.52 0 0 0 .376.162zm-7.725-.041a.34.34 0 0 0 .275-.175.36.36 0 0 0-.123-.478.327.327 0 0 0-.457.129.36.36 0 0 0 .122.478.33.33 0 0 0 .184.047zm2.529-.246a.29.29 0 0 0 .239-.153c.039-.07.05-.153.03-.232s-.069-.145-.136-.186-.147-.052-.222-.031-.139.072-.178.142-.05.154-.03.232.069.145.137.186a.3.3 0 0 0 .16.04zm2.731-.03a.2.2 0 0 0 .105-.031.23.23 0 0 0 .103-.139c.014-.059.006-.122-.023-.175s-.077-.091-.134-.107-.116-.007-.167.023a.236.236 0 0 0-.08.314c.04.073.115.117.195.115zm-3.886-.142a.29.29 0 0 0 .239-.152.31.31 0 0 0-.106-.418.284.284 0 0 0-.399.112.314.314 0 0 0 .107.417c.048.03.104.043.16.04zm4.544-.003a.2.2 0 0 0 .088-.026.2.2 0 0 0 .068-.265.18.18 0 0 0-.254-.071c-.043.026-.074.068-.087.118s-.005.103.019.148a.18.18 0 0 0 .165.097zm-1.562-.182a.3.3 0 0 0 .14-.04.3.3 0 0 0 .136-.186.3.3 0 0 0-.03-.232c-.039-.07-.103-.121-.178-.142s-.155-.01-.222.031a.31.31 0 0 0-.107.417.29.29 0 0 0 .26.152zm-3.899-.183a.29.29 0 0 0 .239-.152c.039-.071.05-.154.03-.232s-.069-.145-.136-.186a.284.284 0 0 0-.4.112.314.314 0 0 0 .107.417q.075.045.161.04zm2.591-.024a.25.25 0 0 0 .208-.133c.033-.061.042-.133.025-.202s-.061-.126-.119-.161-.128-.045-.193-.026-.12.063-.154.124a.28.28 0 0 0-.025.202.26.26 0 0 0 .119.161q.064.038.139.035m2.2-.059a.3.3 0 0 0 .122-.035c.122-.073.163-.236.093-.363s-.226-.17-.347-.097-.163.236-.093.363a.25.25 0 0 0 .226.132zm.777-.052a.2.2 0 0 0 .105-.031.23.23 0 0 0 .103-.139c.015-.059.007-.122-.022-.175s-.078-.092-.134-.107-.116-.007-.167.023a.23.23 0 0 0-.102.14.24.24 0 0 0 .023.175.22.22 0 0 0 .195.115zm-4.132-.058a.25.25 0 0 0 .208-.133.27.27 0 0 0-.093-.363c-.058-.035-.128-.045-.193-.026s-.12.063-.154.123a.27.27 0 0 0 .093.363.24.24 0 0 0 .139.036m2.08-.363a.3.3 0 0 0 .16-.047.36.36 0 0 0 .122-.478.327.327 0 0 0-.457-.128.35.35 0 0 0-.156.213.36.36 0 0 0 .033.266.33.33 0 0 0 .298.175zm-1.567 0a.22.22 0 0 0 .181-.114.237.237 0 0 0-.081-.315.215.215 0 0 0-.3.085c-.03.052-.037.115-.022.174s.052.109.102.14a.2.2 0 0 0 .12.03m-1.431-.006a.25.25 0 0 0 .209-.133.28.28 0 0 0 .024-.201c-.017-.068-.06-.126-.118-.162s-.128-.045-.193-.026-.121.063-.154.124-.043.133-.025.202.06.126.118.161q.064.038.139.035m5.037-.166a.25.25 0 0 0 .121-.036.27.27 0 0 0 .119-.161.28.28 0 0 0-.025-.202.25.25 0 0 0-.347-.097.27.27 0 0 0-.119.162.28.28 0 0 0 .025.202.25.25 0 0 0 .226.132m-.937-.047a.3.3 0 0 0 .139-.04.308.308 0 0 0-.071-.56.28.28 0 0 0-.222.031.3.3 0 0 0-.137.186.32.32 0 0 0 .03.232.29.29 0 0 0 .261.152zm-3.587-.149a.22.22 0 0 0 .18-.115.237.237 0 0 0-.08-.315c-.05-.031-.111-.039-.167-.023s-.105.055-.134.108-.037.115-.022.175.052.109.102.139a.23.23 0 0 0 .121.031m.497-.208a.19.19 0 0 0 .152-.096.2.2 0 0 0-.069-.265.18.18 0 0 0-.254.071c-.025.045-.032.098-.019.148s.044.092.087.118a.17.17 0 0 0 .102.025zm1.344-.154a.4.4 0 0 0 .188-.056.423.423 0 0 0 .145-.563c-.052-.095-.138-.164-.24-.192s-.209-.014-.3.041a.4.4 0 0 0-.183.25.43.43 0 0 0 .04.313c.072.13.206.209.351.206zm2.51-.135a.3.3 0 0 0 .14-.04.3.3 0 0 0 .136-.186.3.3 0 0 0-.03-.232c-.039-.071-.102-.122-.178-.143s-.155-.01-.222.031-.116.108-.137.186a.3.3 0 0 0 .03.232.29.29 0 0 0 .26.152zm-1.148-.095a.33.33 0 0 0 .16-.047.35.35 0 0 0 .156-.213.36.36 0 0 0-.033-.266.327.327 0 0 0-.457-.128.36.36 0 0 0-.123.478.33.33 0 0 0 .298.175zm-2.288-.443a.44.44 0 0 0 .216-.063.49.49 0 0 0 .166-.649c-.061-.109-.159-.189-.276-.221s-.241-.016-.345.048a.487.487 0 0 0-.166.648.45.45 0 0 0 .404.238zm3.052-.202a.33.33 0 0 0 .16-.048.36.36 0 0 0 .122-.478c-.092-.167-.297-.225-.457-.128s-.215.31-.123.478a.33.33 0 0 0 .298.176m-1.408-.085a.4.4 0 0 0 .188-.055.424.424 0 0 0 .145-.563.4.4 0 0 0-.24-.192.38.38 0 0 0-.3.041.4.4 0 0 0-.184.251.43.43 0 0 0 .04.313.39.39 0 0 0 .351.206zm-2.885-.21a.5.5 0 0 0 .252-.075.57.57 0 0 0 .195-.757.52.52 0 0 0-.725-.203.57.57 0 0 0-.194.757.53.53 0 0 0 .473.277zm3.65-.436a.4.4 0 0 0 .188-.055.42.42 0 0 0 .145-.563c-.052-.095-.138-.164-.24-.192s-.209-.014-.3.041a.4.4 0 0 0-.183.25.43.43 0 0 0 .04.313c.073.13.207.209.351.206zm-1.691-.027a.44.44 0 0 0 .216-.063.486.486 0 0 0 .167-.648.46.46 0 0 0-.276-.222.44.44 0 0 0-.345.048.47.47 0 0 0-.212.289.5.5 0 0 0 .046.36.45.45 0 0 0 .404.237z"/></svg>