<svg xmlns="http://www.w3.org/2000/svg" width="32" height="32"><defs><linearGradient id="a" x1="385.769" x2="415.377" y1="531.2" y2="531.2" gradientUnits="userSpaceOnUse"><stop offset="0" stop-color="#78acd3"/><stop offset="1" stop-color="#d98cbb"/></linearGradient><linearGradient id="b" x1="385.571" x2="415.571" y1="535.131" y2="535.131" gradientUnits="userSpaceOnUse"><stop offset="0" stop-color="#326e9a"/><stop offset="1" stop-color="#339993"/></linearGradient></defs><path fill="url(#a)" d="M400.573 522.378c-.44 0-.961-.258-1.158-.574l-.885-1.419c-.196-.316-.717-.573-1.157-.574l-10.201-.013c-.973-.002-1.383.467-1.397 1.502l-.006.436v19.569c0 .353 1.16 1.283 1.6 1.283h26.408c.44 0 1.6-.93 1.6-1.283v-17.644c0-.962-.4-1.283-1.6-1.283z" transform="translate(-384.571 -515.798)"/><path fill="#f2f2f2" d="M28.889 13.43c0 .663-.398 1.205-1.309 1.205H4.482c-.911 0-1.259-.542-1.259-1.205V9.815c0-.663.349-1.205 1.259-1.205H27.53c.911 0 1.358.542 1.358 1.205z"/><path fill="url(#b)" d="M413.95 526.464h-26.757c-.811 0-1.622.738-1.622 1.475v14.384c0 .976.627 1.475 1.622 1.475h26.757c.998 0 1.622-.5 1.622-1.475v-14.384c0-.738-.811-1.475-1.622-1.475" transform="translate(-384.571 -515.798)"/><path fill="#f2f2f2" fill-rule="evenodd" d="m29.17 22.561-4.087 1.721a1.9 1.9 0 0 1-.689.129 1.9 1.9 0 0 1-.687-.128l-4.09-1.722a.613.613 0 0 1 .004-1.122l.513-.216a.3.3 0 0 1 .161-.046.315.315 0 0 1 .095.617l-.16.067a.16.16 0 0 0-.085.14.16.16 0 0 0 .081.139l3.646 1.522.03.01a1.3 1.3 0 0 0 .491.097q.26-.002.487-.095l.036-.013 3.644-1.521a.16.16 0 0 0 .082-.139.16.16 0 0 0-.085-.14l-.161-.067a.315.315 0 0 1 .096-.616c.06 0 .115.018.163.046l.513.216a.613.613 0 0 1 .003 1.122zm.001-2.09-4.093 1.723a1.9 1.9 0 0 1-.684.127 1.9 1.9 0 0 1-.682-.126l-4.096-1.725a.6.6 0 0 1-.186-.127.614.614 0 0 1 0-.867.6.6 0 0 1 .188-.127l4.094-1.724c.212-.08.441-.126.681-.126a1.9 1.9 0 0 1 .683.127l.381.16a.32.32 0 0 1 .226.306.32.32 0 0 1-.321.322.3.3 0 0 1-.15-.039l-.302-.126q-.015-.005-.03-.011a1.3 1.3 0 0 0-.487-.096q-.262.002-.491.097l-.025.009-3.65 1.523a.16.16 0 0 0-.083.14.16.16 0 0 0 .081.139l3.651 1.523.026.009c.151.062.317.097.491.097a1.3 1.3 0 0 0 .487-.096l.031-.011 3.65-1.522a.16.16 0 0 0 .081-.139.16.16 0 0 0-.083-.14l-.495-.207a.315.315 0 1 1 .269-.566l.837.353a.6.6 0 0 1 .187.127.614.614 0 0 1-.186.994zm-2.688-1.524a.322.322 0 1 1 0-.643.321.321 0 0 1 0 .642zm-6.862 4.581.515-.217a.3.3 0 0 1 .159-.045.316.316 0 0 1 .091.618l-.156.065a.16.16 0 0 0-.085.14.16.16 0 0 0 .081.139l3.652 1.524.025.009a1.3 1.3 0 0 0 .978.001l.03-.011 3.65-1.523c.049-.028.082-.079.082-.139s-.035-.113-.085-.14l-.157-.065a.316.316 0 0 1 .092-.618q.088.001.157.043l.519.218a.614.614 0 0 1 .005 1.122l-4.094 1.724a1.9 1.9 0 0 1-.685.127 1.9 1.9 0 0 1-.684-.127l-4.096-1.725a.6.6 0 0 1-.184-.126.614.614 0 0 1 0-.867.6.6 0 0 1 .191-.129z"/></svg>