<svg xmlns="http://www.w3.org/2000/svg" width="32" height="32"><defs><linearGradient id="a" x1="385.769" x2="415.377" y1="531.2" y2="531.2" gradientUnits="userSpaceOnUse"><stop offset="0" stop-color="#78acd3"/><stop offset="1" stop-color="#d98cbb"/></linearGradient><linearGradient id="b" x1="385.571" x2="415.571" y1="535.131" y2="535.131" gradientUnits="userSpaceOnUse"><stop offset="0" stop-color="#326e9a"/><stop offset="1" stop-color="#339993"/></linearGradient></defs><path fill="url(#a)" d="M400.573 522.378c-.44 0-.961-.258-1.158-.574l-.885-1.419c-.196-.316-.717-.573-1.157-.574l-10.201-.013c-.973-.002-1.383.467-1.397 1.502l-.006.436v19.569c0 .353 1.16 1.283 1.6 1.283h26.408c.44 0 1.6-.93 1.6-1.283v-17.644c0-.962-.4-1.283-1.6-1.283z" transform="translate(-384.571 -515.798)"/><path fill="#f2f2f2" d="M28.889 13.43c0 .663-.398 1.205-1.309 1.205H4.482c-.911 0-1.259-.542-1.259-1.205V9.815c0-.663.349-1.205 1.259-1.205H27.53c.911 0 1.358.542 1.358 1.205z"/><path fill="url(#b)" d="M413.95 526.464h-26.757c-.811 0-1.622.738-1.622 1.475v14.384c0 .976.627 1.475 1.622 1.475h26.757c.998 0 1.622-.5 1.622-1.475v-14.384c0-.738-.811-1.475-1.622-1.475" transform="translate(-384.571 -515.798)"/><g fill="#f2f2f2"><path fill-rule="evenodd" d="M28.215 26.5h-4.822a.32.32 0 0 1-.321-.321.32.32 0 0 1 .321-.322h4.822a.643.643 0 0 0 .643-.643v-6.429a.643.643 0 0 0-.643-.643h-6.429a.643.643 0 0 0-.643.643v6.107a.32.32 0 0 1-.321.321.32.32 0 0 1-.322-.321v-6.107c0-.71.576-1.286 1.286-1.286h6.429c.71 0 1.285.576 1.285 1.286v6.429c0 .71-.576 1.286-1.285 1.286m-6.107-.643a.322.322 0 1 1-.322.322.32.32 0 0 1 .322-.322"/><path d="M23.117 18.72a.356.356 0 0 0-.49.027.33.33 0 0 0 .027.475c.014.012 1.094.971 1.672 2.621a1.4 1.4 0 0 1 .672-.186c-.627-1.832-1.817-2.882-1.881-2.937m4.295.027a.356.356 0 0 0-.491-.027c-.065.056-1.254 1.105-1.881 2.937a1.4 1.4 0 0 1 .671.186c.578-1.65 1.658-2.609 1.672-2.621a.33.33 0 0 0 .028-.474zm-2.526 3.928h.265c.302 0 .552.277.583.567l.144 1.294c.155-.053.272-.166.272-.335v-1.238c0-.598-.51-1.084-1.129-1.084s-1.128.485-1.128 1.084v1.238c0 .168.115.31.27.364l.138-1.324c.032-.29.284-.567.585-.567z"/><path d="m25.655 24.708-.151-1.443c-.019-.175-.171-.364-.353-.364h-.265c-.182 0-.334.19-.353.364l-.151 1.415a.64.64 0 0 0 .161.493c.121.13.294.212.475.212s.354-.071.475-.202.18-.301.162-.475m-.637.285c-.22 0-.398-.173-.398-.386s.178-.385.398-.385.399.172.399.385-.178.386-.399.386"/></g></svg>