<svg xmlns="http://www.w3.org/2000/svg" width="32" height="32"><defs><linearGradient id="a" x1="385.769" x2="415.377" y1="531.2" y2="531.2" gradientUnits="userSpaceOnUse"><stop offset="0" stop-color="#78acd3"/><stop offset="1" stop-color="#d98cbb"/></linearGradient><linearGradient id="b" x1="385.571" x2="415.571" y1="535.131" y2="535.131" gradientUnits="userSpaceOnUse"><stop offset="0" stop-color="#326e9a"/><stop offset="1" stop-color="#339993"/></linearGradient></defs><path fill="url(#a)" d="M400.573 522.378c-.44 0-.961-.258-1.158-.574l-.885-1.419c-.196-.316-.717-.573-1.157-.574l-10.201-.013c-.973-.002-1.383.467-1.397 1.502l-.006.436v19.569c0 .353 1.16 1.283 1.6 1.283h26.408c.44 0 1.6-.93 1.6-1.283v-17.644c0-.962-.4-1.283-1.6-1.283z" transform="translate(-384.571 -515.798)"/><path fill="#f2f2f2" d="M28.889 13.43c0 .663-.398 1.205-1.309 1.205H4.482c-.911 0-1.259-.542-1.259-1.205V9.815c0-.663.349-1.205 1.259-1.205H27.53c.911 0 1.358.542 1.358 1.205z"/><path fill="url(#b)" d="M413.95 526.464h-26.757c-.811 0-1.622.738-1.622 1.475v14.384c0 .976.627 1.475 1.622 1.475h26.757c.998 0 1.622-.5 1.622-1.475v-14.384c0-.738-.811-1.475-1.622-1.475" transform="translate(-384.571 -515.798)"/><path fill="#f2f2f2" fill-rule="evenodd" d="M29.219 24.813a.281.281 0 1 1 0-.562.281.281 0 0 1 0 .562m.271-2.103-.015.09-.011.042-.021.073-.011.031-.032.081-.01.021-.042.08-.015.024-.053.078-.078.094a1 1 0 0 1-.084.084 1.12 1.12 0 0 1-.743.281v.014a1 1 0 0 0-.141-.014h-6.469a.703.703 0 0 0-.703.703v.843c0 .388.315.703.703.703h6.469c.332 0 .615-.264.773-.466h.001a.28.28 0 0 1 .211-.097.28.28 0 0 1 .281.281c0 .292-.504.844-1.125.844h-6.75a1.125 1.125 0 0 1-1.125-1.125V24.25c0-.621.504-1.125 1.125-1.125h6.61a.703.703 0 0 0 .703-.703v-.844a.703.703 0 0 0-.703-.703h-6.61A1.125 1.125 0 0 1 20.5 19.75v-1.125c0-.621.504-1.125 1.125-1.125h6.75c.621 0 1.125.503 1.125 1.125v.844a.281.281 0 0 1-.562 0v-.703a.703.703 0 0 0-.703-.703h-6.469a.703.703 0 0 0-.703.703v.844c0 .388.315.703.703.703h6.469a.7.7 0 0 0 .141-.014v.014a1.12 1.12 0 0 1 .743.281q.043.038.082.081l.071.086.061.089.015.024.042.08.01.021.032.081.011.031.021.073.011.042.015.09.004.025q.007.06.007.122v1.125a1 1 0 0 1-.007.122zm-8.708-1.272a.28.28 0 0 1 .281.281v.562a.281.281 0 1 1-.562 0v-.562a.28.28 0 0 1 .281-.281"/></svg>