<svg xmlns="http://www.w3.org/2000/svg" width="32" height="32"><defs><linearGradient id="a" x1="385.769" x2="415.377" y1="531.2" y2="531.2" gradientUnits="userSpaceOnUse"><stop offset="0" stop-color="#78acd3"/><stop offset="1" stop-color="#d98cbb"/></linearGradient><linearGradient id="b" x1="385.571" x2="415.571" y1="535.131" y2="535.131" gradientUnits="userSpaceOnUse"><stop offset="0" stop-color="#326e9a"/><stop offset="1" stop-color="#339993"/></linearGradient></defs><path fill="url(#a)" d="M400.573 522.378c-.44 0-.961-.258-1.158-.574l-.885-1.419c-.196-.316-.717-.573-1.157-.574l-10.201-.013c-.973-.002-1.383.467-1.397 1.502l-.006.436v19.569c0 .353 1.16 1.283 1.6 1.283h26.408c.44 0 1.6-.93 1.6-1.283v-17.644c0-.962-.4-1.283-1.6-1.283z" transform="translate(-384.571 -515.798)"/><path fill="#f2f2f2" d="M28.889 13.43c0 .663-.398 1.205-1.309 1.205H4.482c-.911 0-1.259-.542-1.259-1.205V9.815c0-.663.349-1.205 1.259-1.205H27.53c.911 0 1.358.542 1.358 1.205z"/><path fill="url(#b)" d="M413.95 526.464h-26.757c-.811 0-1.622.738-1.622 1.475v14.384c0 .976.627 1.475 1.622 1.475h26.757c.998 0 1.622-.5 1.622-1.475v-14.384c0-.738-.811-1.475-1.622-1.475" transform="translate(-384.571 -515.798)"/><path fill="#f2f2f2" d="M25.282 23.687h1.125a.281.281 0 0 1 0 .563h-1.125a.281.281 0 0 1 0-.563m-1.407.282a.281.281 0 1 1 .561-.001.281.281 0 0 1-.561.001m2.25 1.125a.28.28 0 0 1-.281.281h-2.25a.281.281 0 1 1 0-.562h2.25a.28.28 0 0 1 .281.281m2.499-.281h-.671a.703.703 0 0 1-.703-.703v-.562a.42.42 0 0 0-.422-.422h-3.656a.42.42 0 0 0-.422.422v1.969a.42.42 0 0 0 .422.422h3.656c.183 0 .422-.164.422-.282a.281.281 0 1 1 .562 0c0 .019-.005.038-.006.057a.84.84 0 0 1-.838.787H23.03a.844.844 0 0 1-.844-.844v-2.25c0-.466.378-.844.844-.844h3.938c.466 0 .843.378.843.844v.563c0 .155.126.281.281.281h.141a.703.703 0 0 0 .703-.703V21.72a.281.281 0 1 1 .562 0v2.142c0 .36-.504.952-.876.952zm.032-3.938a.28.28 0 0 1-.281-.281.281.281 0 1 1 .281.281m-1.687 0h-5.204a.703.703 0 0 0-.703.703v2.391c0 .155.126.281.281.281a.281.281 0 1 1 0 .562c-.019 0-.038-.005-.057-.006a.84.84 0 0 1-.787-.838q.002-.064.012-.123a1 1 0 0 1-.012-.158v-2.25c0-.621.504-1.125 1.125-1.125h5.202a.42.42 0 0 0 .422-.422v-1.406a.42.42 0 0 0-.422-.422H23.17a.42.42 0 0 0-.422.422v.984a.281.281 0 1 1-.562 0v-1.125c0-.466.378-.844.844-.844h3.938c.466 0 .843.378.843.844v1.688a.843.843 0 0 1-.843.843zm-5.063.563a.282.282 0 1 1 0 .563.281.281 0 0 1 0-.562z"/></svg>