<svg xmlns="http://www.w3.org/2000/svg" xml:space="preserve" width="32" height="32"><defs><linearGradient id="a" x1="385.769" x2="415.377" y1="531.2" y2="531.2" gradientTransform="translate(-384.571 -515.798)" gradientUnits="userSpaceOnUse"><stop offset="0" stop-color="#78acd3"/><stop offset="1" stop-color="#d98cbb"/></linearGradient><linearGradient id="b" x1="385.571" x2="415.571" y1="535.131" y2="535.131" gradientTransform="translate(-384.571 -515.798)" gradientUnits="userSpaceOnUse"><stop offset="0" stop-color="#326e9a"/><stop offset="1" stop-color="#339993"/></linearGradient></defs><path fill="url(#a)" d="M16.002 6.58c-.44 0-.961-.258-1.158-.574l-.885-1.419c-.196-.316-.717-.573-1.157-.574L2.601 4c-.973-.001-1.383.467-1.397 1.502l-.006.436v19.569c0 .353 1.16 1.283 1.6 1.283h26.408c.44 0 1.6-.93 1.6-1.283V7.863c0-.962-.4-1.283-1.6-1.283z" style="fill:url(#a)"/><path fill="#f2f2f2" d="M28.889 13.43c0 .663-.398 1.205-1.309 1.205H4.482c-.911 0-1.259-.542-1.259-1.205V9.815c0-.663.349-1.205 1.259-1.205H27.53c.911 0 1.358.542 1.358 1.205z"/><path fill="url(#b)" d="M29.379 10.666H2.622c-.811 0-1.622.738-1.622 1.475v14.384C1 27.501 1.627 28 2.622 28h26.757c.998 0 1.622-.5 1.622-1.475V12.141c0-.738-.811-1.475-1.622-1.475" style="fill:url(#b)"/><g style="fill:#f2f2f2"><path d="M10 2c-4.406 0-8 3.594-8 8s3.594 8 8 8c1.838 0 3.455-.73 4.809-1.777l5.484 5.484a1 1 0 0 0 1.414-1.414l-5.484-5.484C17.27 13.455 18 11.838 18 10c0-4.406-3.594-8-8-8m0 1.664A6.32 6.32 0 0 1 16.336 10 6.32 6.32 0 0 1 10 16.336 6.32 6.32 0 0 1 3.664 10 6.32 6.32 0 0 1 10 3.664" style="color:#000;fill:#f2f2f2;stroke-linecap:round;stroke-linejoin:round;-inkscape-stroke:none" transform="rotate(90 6.928 23.518)scale(.44847)"/></g></svg>