<svg xmlns="http://www.w3.org/2000/svg" width="32" height="32"><defs><linearGradient id="a" x1="385.769" x2="415.377" y1="531.2" y2="531.2" gradientUnits="userSpaceOnUse"><stop offset="0" stop-color="#78acd3"/><stop offset="1" stop-color="#d98cbb"/></linearGradient><linearGradient id="b" x1="385.571" x2="415.571" y1="535.131" y2="535.131" gradientUnits="userSpaceOnUse"><stop offset="0" stop-color="#326e9a"/><stop offset="1" stop-color="#339993"/></linearGradient></defs><path fill="url(#a)" d="M400.573 522.378c-.44 0-.961-.258-1.158-.574l-.885-1.419c-.196-.316-.717-.573-1.157-.574l-10.201-.013c-.973-.001-1.383.467-1.397 1.502l-.006.436v19.569c0 .353 1.16 1.283 1.6 1.283h26.408c.44 0 1.6-.93 1.6-1.283v-17.644c0-.962-.4-1.283-1.6-1.283z" transform="translate(-384.571 -515.798)"/><path fill="#f2f2f2" d="M28.889 13.43c0 .663-.398 1.205-1.309 1.205H4.482c-.911 0-1.259-.542-1.259-1.205V9.815c0-.663.349-1.205 1.259-1.205H27.53c.911 0 1.358.542 1.358 1.205z"/><path fill="url(#b)" d="M413.95 526.464h-26.757c-.811 0-1.622.738-1.622 1.475v14.384c0 .976.627 1.475 1.622 1.475h26.757c.998 0 1.622-.5 1.622-1.475v-14.384c0-.738-.811-1.475-1.622-1.475" transform="translate(-384.571 -515.798)"/><g fill="#f2f2f2"><path d="M23.773 26.006a1.1 1.1 0 0 1-.39-.061.63.63 0 0 1-.428-.489c-.036-.208-.105-.24-.41-.295-.2-.036-.449-.082-.631-.278-.353-.368.018-.76.157-.908l.088-.096c-.175-.097-.587-.233-.849-.32-.618-.204-1.008-.343-1.2-.543a.43.43 0 0 1-.123-.374c.048-.283.354-.434.677-.593l-.482-.142c-.587-.16-1.193-.326-1.324-.81-.115-.426.217-.827.478-1.092l3.442-3.585a1.4 1.4 0 0 1 1.008-.415 1.47 1.47 0 0 1 1.017.405l3.58 3.725c.364.37.508.732.428 1.074-.153.657-1.047.969-1.911 1.271l-.736.278c.01.008.013.01.019.011.317.178.795.448.618.896-.198.514-.574.614-.905.703-.226.061-.458.123-.706.322.123.069.26.173.283.36.013.102-.01.254-.18.402a2.63 2.63 0 0 1-1.518.554zm-1.332-1.509c.059.021.138.035.216.049.299.054.799.145.914.802.103.095.673.021 1.105-.227a.48.48 0 0 1-.234-.322c-.017-.098-.01-.249.143-.404.428-.439.843-.55 1.147-.632.271-.073.377-.107.453-.255a3 3 0 0 0-.311-.195c-.265-.15-.515-.29-.53-.555-.01-.082.014-.239.188-.364.27-.193.703-.344 1.159-.504.571-.2 1.433-.501 1.508-.823.037-.158-.15-.378-.266-.495l-3.577-3.72a.84.84 0 0 0-.573-.223.78.78 0 0 0-.562.226l-3.442 3.584c-.354.359-.323.492-.323.493.037.139.589.29.885.37.361.098.735.2 1.003.374a.4.4 0 0 1 .198.366c-.018.275-.29.41-.607.565l-.176.089c.211.092.525.196.74.268.602.199.981.333 1.17.525.359.375-.011.766-.15.913l-.084.092zm3.782-.951h.009zm-5.668-.964"/><path d="M23.498 19.973a.4.4 0 0 1-.116-.022.31.31 0 0 1-.188-.216l-.094-.383-.123.271a.31.31 0 0 1-.284.183l-2.427-.01a.312.312 0 0 1 .001-.625l2.224.01.413-.908a.31.31 0 0 1 .314-.182.31.31 0 0 1 .275.237l.204.833.565-.363a.31.31 0 0 1 .319-.011l.184.101.066-.406a.312.312 0 0 1 .508-.191l.425.353.269-.401a.312.312 0 1 1 .519.348l-.461.69a.3.3 0 0 1-.215.135.32.32 0 0 1-.245-.069l-.272-.226-.049.303a.31.31 0 0 1-.171.23.3.3 0 0 1-.287-.01l-.408-.224-.778.5a.3.3 0 0 1-.17.05zm3.556 5.319a.67.67 0 0 1-.532-.247c-.169-.217-.196-.57.128-.87a.31.31 0 0 1 .273-.077c.464.092.684.39.73.616.037.181-.025.351-.161.444a.8.8 0 0 1-.443.138zm.262-.392h.009zm-6.697.189a.7.7 0 0 1-.47-.178c-.29-.249-.24-.518-.205-.623.115-.341.538-.518.883-.539.322-.014.579.09.727.287.065.087.079.2.041.301-.141.356-.458.649-.79.729a.8.8 0 0 1-.185.023zm-.035-.633c.017.01.039.011.075.005a.4.4 0 0 0 .15-.08.6.6 0 0 0-.225.077zm7.388-.569c-.302 0-.609-.056-.764-.132-.224-.109-.248-.284-.248-.355 0-.026.007-.052.01-.077.098-.385.46-.656.905-.682q.013-.004.025-.004c.481-.019.85.245.928.656a.42.42 0 0 1-.163.428c-.151.119-.42.164-.693.164zm.243-.466"/></g></svg>