<svg xmlns="http://www.w3.org/2000/svg" width="32" height="32"><defs><linearGradient id="a" x1="385.769" x2="415.377" y1="531.2" y2="531.2" gradientUnits="userSpaceOnUse"><stop offset="0" stop-color="#78acd3"/><stop offset="1" stop-color="#d98cbb"/></linearGradient><linearGradient id="b" x1="385.571" x2="415.571" y1="535.131" y2="535.131" gradientUnits="userSpaceOnUse"><stop offset="0" stop-color="#326e9a"/><stop offset="1" stop-color="#339993"/></linearGradient></defs><path fill="url(#a)" d="M400.573 522.378c-.44 0-.961-.258-1.158-.574l-.885-1.419c-.196-.316-.717-.573-1.157-.574l-10.201-.013c-.973-.002-1.383.467-1.397 1.502l-.006.436v19.569c0 .353 1.16 1.283 1.6 1.283h26.408c.44 0 1.6-.93 1.6-1.283v-17.644c0-.962-.4-1.283-1.6-1.283z" transform="translate(-384.571 -515.798)"/><path fill="#f2f2f2" d="M28.889 13.43c0 .663-.398 1.205-1.309 1.205H4.482c-.911 0-1.259-.542-1.259-1.205V9.815c0-.663.349-1.205 1.259-1.205H27.53c.911 0 1.358.542 1.358 1.205z"/><path fill="url(#b)" d="M413.95 526.464h-26.757c-.811 0-1.622.738-1.622 1.475v14.384c0 .976.627 1.475 1.622 1.475h26.757c.998 0 1.622-.5 1.622-1.475v-14.384c0-.738-.811-1.475-1.622-1.475" transform="translate(-384.571 -515.798)"/><path fill="#f2f2f2" d="M24.847 17.5a.614.614 0 0 0-.614.614.61.61 0 0 0 .194.409h-.041l1.432 1.432h-4.705a.614.614 0 0 0 0 1.227h2.25L20.745 23.8a.614.614 0 0 0 .368 1.105.61.61 0 0 0 .45-.205l1.391-1.391a3.273 3.273 0 0 0 3.273 3.191 3.273 3.273 0 0 0 2.045-5.85l-2.986-2.945a.61.61 0 0 0-.44-.205zm1.381 3.682a2.05 2.05 0 0 1 1.227.409l.368.368a2.045 2.045 0 0 1-1.595 3.314 2.046 2.046 0 1 1 0-4.091m0 1.227a.818.818 0 0 0 0 1.636.818.818 0 0 0 0-1.636"/></svg>