<svg xmlns="http://www.w3.org/2000/svg" width="32" height="32"><defs><linearGradient id="a" x1="385.769" x2="415.377" y1="531.2" y2="531.2" gradientUnits="userSpaceOnUse"><stop offset="0" stop-color="#78acd3"/><stop offset="1" stop-color="#d98cbb"/></linearGradient><linearGradient id="b" x1="385.571" x2="415.571" y1="535.131" y2="535.131" gradientUnits="userSpaceOnUse"><stop offset="0" stop-color="#326e9a"/><stop offset="1" stop-color="#339993"/></linearGradient></defs><path fill="url(#a)" d="M400.573 522.378c-.44 0-.961-.258-1.158-.574l-.885-1.419c-.196-.316-.717-.573-1.157-.574l-10.201-.013c-.973-.002-1.383.467-1.397 1.502l-.006.436v19.569c0 .353 1.16 1.283 1.6 1.283h26.408c.44 0 1.6-.93 1.6-1.283v-17.644c0-.962-.4-1.283-1.6-1.283z" transform="translate(-384.571 -515.798)"/><path fill="#f2f2f2" d="M28.889 13.43c0 .663-.398 1.205-1.309 1.205H4.482c-.911 0-1.259-.542-1.259-1.205V9.815c0-.663.349-1.205 1.259-1.205H27.53c.911 0 1.358.542 1.358 1.205z"/><path fill="url(#b)" d="M413.95 526.464h-26.757c-.811 0-1.622.738-1.622 1.475v14.384c0 .976.627 1.475 1.622 1.475h26.757c.998 0 1.622-.5 1.622-1.475v-14.384c0-.738-.811-1.475-1.622-1.475" transform="translate(-384.571 -515.798)"/><path fill="#f2f2f2" d="M24.638 24.801a.281.281 0 1 1 0 .562.281.281 0 1 1 0-.562m-.279-1.968a.28.28 0 0 1 .279-.281.28.28 0 0 1 .279.281v1.124a.28.28 0 0 1-.279.281.28.28 0 0 1-.279-.281zm3.903 3.654H21.57a1.12 1.12 0 0 1-1.115-1.124v-2.53a.28.28 0 0 1 .279-.281.28.28 0 0 1 .279.281v2.389a.7.7 0 0 0 .697.702h6.413a.7.7 0 0 0 .697-.702v-2.53a.7.7 0 0 0-.697-.703h-5.158a.84.84 0 0 1-.836-.843v-.844a2.8 2.8 0 0 1 2.788-2.811 2.8 2.8 0 0 1 2.788 2.811v.281a.28.28 0 0 1-.279.281.28.28 0 0 1-.279-.281v-.281a2.24 2.24 0 0 0-2.23-2.249 2.24 2.24 0 0 0-2.231 2.249v.703a.42.42 0 0 0 .418.422h5.158a1.12 1.12 0 0 1 1.115 1.124v2.811a1.12 1.12 0 0 1-1.115 1.124zm-6.97-4.498a.281.281 0 1 1 0-.562.281.281 0 1 1 0 .562"/></svg>