<svg xmlns="http://www.w3.org/2000/svg" width="32" height="32"><defs><linearGradient id="a" x1="385.769" x2="415.377" y1="531.2" y2="531.2" gradientUnits="userSpaceOnUse"><stop offset="0" stop-color="#78acd3"/><stop offset="1" stop-color="#d98cbb"/></linearGradient><linearGradient id="b" x1="385.571" x2="415.571" y1="535.131" y2="535.131" gradientUnits="userSpaceOnUse"><stop offset="0" stop-color="#326e9a"/><stop offset="1" stop-color="#339993"/></linearGradient></defs><path fill="url(#a)" d="M400.573 522.378c-.44 0-.961-.258-1.158-.574l-.885-1.419c-.196-.316-.717-.573-1.157-.574l-10.201-.013c-.973-.001-1.383.467-1.397 1.502l-.006.436v19.569c0 .353 1.16 1.283 1.6 1.283h26.408c.44 0 1.6-.93 1.6-1.283v-17.644c0-.962-.4-1.283-1.6-1.283z" transform="translate(-384.571 -515.798)"/><path fill="#f2f2f2" d="M28.889 13.43c0 .663-.398 1.205-1.309 1.205H4.482c-.911 0-1.259-.542-1.259-1.205V9.815c0-.663.349-1.205 1.259-1.205H27.53c.911 0 1.358.542 1.358 1.205z"/><path fill="url(#b)" d="M413.95 526.464h-26.757c-.811 0-1.622.738-1.622 1.475v14.384c0 .976.627 1.475 1.622 1.475h26.757c.998 0 1.622-.5 1.622-1.475v-14.384c0-.738-.811-1.475-1.622-1.475" transform="translate(-384.571 -515.798)"/><path fill="#f2f2f2" fill-rule="evenodd" d="M21.114 21.738a.282.282 0 1 1 .563 0 .281.281 0 1 1-.562 0zm.984-1.969a.282.282 0 1 1 .563 0 .281.281 0 1 1-.562 0zm2.109-.844a.282.282 0 1 1 .563 0 .281.281 0 1 1-.562 0zm2.587.924a.285.285 0 0 1 0 .404l-1.82 1.82a.286.286 0 0 1-.404-.404l1.82-1.82a.285.285 0 0 1 .404 0m.788 1.607a.282.282 0 1 1 0 .563.281.281 0 1 1 0-.562zm-3.937 2.813h1.688a.282.282 0 1 1 0 .563h-1.687a.281.281 0 1 1 0-.562zm.844 2.25a4.5 4.5 0 0 1-3.177-1.313.28.28 0 0 1 .189-.489.28.28 0 0 1 .203.087l.001-.001a3.92 3.92 0 0 0 2.784 1.153 3.94 3.94 0 0 0 3.938-3.937 3.94 3.94 0 0 0-3.937-3.937 3.94 3.94 0 0 0-3.937 3.938c0 .26.03.513.08.758a.56.56 0 0 0 .526.367H23.4a.21.21 0 0 0 .171-.088c.211-.288.542-.475.919-.475a1.12 1.12 0 0 1 .912.471.23.23 0 0 0 .178.092h1.441a.282.282 0 1 1 0 .563H25.54a.7.7 0 0 1-.578-.304.56.56 0 0 0-.945 0 .7.7 0 0 1-.578.304h-2.281c-.527 0-.966-.364-1.088-.852a4.5 4.5 0 0 1-.081-.835 4.5 4.5 0 1 1 9 0 4.5 4.5 0 0 1-4.5 4.5z"/></svg>