<svg xmlns="http://www.w3.org/2000/svg" width="32" height="32"><defs><linearGradient id="a" x1="385.769" x2="415.377" y1="531.2" y2="531.2" gradientUnits="userSpaceOnUse"><stop offset="0" stop-color="#78acd3"/><stop offset="1" stop-color="#d98cbb"/></linearGradient><linearGradient id="b" x1="385.571" x2="415.571" y1="535.131" y2="535.131" gradientUnits="userSpaceOnUse"><stop offset="0" stop-color="#326e9a"/><stop offset="1" stop-color="#339993"/></linearGradient></defs><path fill="url(#a)" d="M400.573 522.378c-.44 0-.961-.258-1.158-.574l-.885-1.419c-.196-.316-.717-.573-1.157-.574l-10.201-.014c-.973-.001-1.383.467-1.397 1.502l-.006.436v19.569c0 .353 1.16 1.283 1.6 1.283h26.408c.44 0 1.6-.93 1.6-1.283V523.66c0-.962-.4-1.283-1.6-1.283z" transform="translate(-384.571 -515.798)"/><path fill="#f2f2f2" d="M28.889 13.43c0 .663-.398 1.205-1.309 1.205H4.482c-.911 0-1.259-.542-1.259-1.205V9.815c0-.663.349-1.205 1.259-1.205H27.53c.911 0 1.358.542 1.358 1.205z"/><path fill="url(#b)" d="M413.95 526.464h-26.757c-.811 0-1.622.738-1.622 1.475v14.384c0 .976.627 1.475 1.622 1.475h26.757c.998 0 1.622-.5 1.622-1.475v-14.384c0-.738-.811-1.475-1.622-1.475" transform="translate(-384.571 -515.798)"/><path fill="#f2f2f2" d="M29.05 24.759a.3.3 0 0 1-.3-.302v-4.839a.3.3 0 0 0-.3-.302h-.6a.3.3 0 0 0-.3.302v6.2a.753.753 0 0 1-.75.756h-.3a.753.753 0 0 1-.75-.756v-3.176a.3.3 0 0 0-.3-.302h-.6a.3.3 0 0 0-.3.302v3.176a.753.753 0 0 1-.75.756h-.3a.753.753 0 0 1-.75-.756v-1.966a.3.3 0 0 0-.3-.302h-.6a.3.3 0 0 0-.3.302v2.117a.603.603 0 0 1-.6.605c-.663 0-1.2-.542-1.2-1.21v-7.561a.3.3 0 1 1 .6 0v7.562c0 .334.231.605.45.605a.15.15 0 0 0 .15-.151v-2.117c0-.418.336-.756.75-.756h.9c.414 0 .75.338.75.756v1.966a.3.3 0 1 0 .6 0v-3.176c0-.418.336-.756.75-.756h.9c.414 0 .75.338.75.756v3.176a.3.3 0 1 0 .6 0v-6.2c0-.418.336-.756.75-.756h.9c.414 0 .75.338.75.756v4.99a.3.3 0 0 1-.3.302zm0 .605c.166 0 .3.135.3.302a.3.3 0 1 1-.6 0 .3.3 0 0 1 .3-.302"/></svg>