<svg xmlns="http://www.w3.org/2000/svg" xml:space="preserve" width="32" height="32"><defs><linearGradient id="a" x1="385.769" x2="415.377" y1="531.2" y2="531.2" gradientTransform="translate(-384.571 -515.798)" gradientUnits="userSpaceOnUse"><stop offset="0" stop-color="#78acd3"/><stop offset="1" stop-color="#d98cbb"/></linearGradient><linearGradient id="b" x1="385.571" x2="415.571" y1="535.131" y2="535.131" gradientTransform="translate(-384.571 -515.798)" gradientUnits="userSpaceOnUse"><stop offset="0" stop-color="#326e9a"/><stop offset="1" stop-color="#339993"/></linearGradient></defs><path fill="url(#a)" d="M16.002 6.58c-.44 0-.961-.258-1.158-.574l-.885-1.419c-.196-.316-.717-.573-1.157-.574L2.601 4c-.973-.002-1.383.467-1.397 1.502l-.006.436v19.569c0 .353 1.16 1.283 1.6 1.283h26.408c.44 0 1.6-.93 1.6-1.283V7.863c0-.962-.4-1.283-1.6-1.283z" style="fill:url(#a)"/><path fill="#f2f2f2" d="M28.889 13.43c0 .663-.398 1.205-1.309 1.205H4.482c-.911 0-1.259-.542-1.259-1.205V9.815c0-.663.349-1.205 1.259-1.205H27.53c.911 0 1.358.542 1.358 1.205z"/><path fill="url(#b)" d="M29.379 10.666H2.622c-.811 0-1.622.738-1.622 1.475v14.384C1 27.501 1.627 28 2.622 28h26.757c.998 0 1.622-.5 1.622-1.475V12.141c0-.738-.811-1.475-1.622-1.475" style="fill:url(#b)"/><path d="M20.049 17.518a1.38 1.38 0 0 0-1.383 1.382v6.225c0 .766.616 1.385 1.383 1.385h8.05c.767 0 1.383-.619 1.383-1.385V18.9a1.38 1.38 0 0 0-1.382-1.382zm0 .66h8.05c.384 0 .727.314.727.7v6.27l-3.4-3.48-2.406 2.766-1.745-1.383-1.953 2.096v-6.269c0-.386.344-.7.727-.7m1.728 1.414c-1.384 0-1.384 2.076 0 2.076s1.384-2.076 0-2.076m3.647 3.092 3.026 3.008c-.182.177-.252.193-.51.21l-4.003-.027-3.687.004c-.384-.008-.467-.094-.573-.218.566-.545 1.02-1.107 1.59-1.647l1.76 1.302z" style="color:#dedede;fill:#f2f2f2;stroke-width:.691654"/></svg>