<svg xmlns="http://www.w3.org/2000/svg" width="32" height="32"><defs><linearGradient id="a" x1="385.769" x2="415.377" y1="531.2" y2="531.2" gradientUnits="userSpaceOnUse"><stop offset="0" stop-color="#78acd3"/><stop offset="1" stop-color="#d98cbb"/></linearGradient><linearGradient id="b" x1="385.571" x2="415.571" y1="535.131" y2="535.131" gradientUnits="userSpaceOnUse"><stop offset="0" stop-color="#326e9a"/><stop offset="1" stop-color="#339993"/></linearGradient></defs><path fill="url(#a)" d="M400.573 522.378c-.44 0-.961-.258-1.158-.574l-.885-1.419c-.196-.316-.717-.573-1.157-.574l-10.201-.013c-.973-.001-1.383.467-1.397 1.502l-.006.436v19.569c0 .353 1.16 1.283 1.6 1.283h26.408c.44 0 1.6-.93 1.6-1.283v-17.644c0-.962-.4-1.283-1.6-1.283z" transform="translate(-384.571 -515.798)"/><path fill="#f2f2f2" d="M28.889 13.43c0 .663-.398 1.205-1.309 1.205H4.482c-.911 0-1.259-.542-1.259-1.205V9.815c0-.663.349-1.205 1.259-1.205H27.53c.911 0 1.358.542 1.358 1.205z"/><path fill="url(#b)" d="M413.95 526.464h-26.757c-.811 0-1.622.738-1.622 1.475v14.384c0 .976.627 1.475 1.622 1.475h26.757c.998 0 1.622-.5 1.622-1.475v-14.384c0-.738-.811-1.475-1.622-1.475" transform="translate(-384.571 -515.798)"/><path fill="#f2f2f2" fill-rule="evenodd" d="M27.825 22.715a.32.32 0 0 0-.322.321v.161c0 .444-.36.804-.803.804a.8.8 0 0 1-.47-.152l-.765-.573-.025-.019a1.28 1.28 0 0 1-.508-1.024v-.643a.804.804 0 0 0-.804-.804H19.95a.804.804 0 0 0-.804.804v2.25a.8.8 0 0 0 .543.756q.018.046.1.047c.238 0 .643.36.643.803v.322a.16.16 0 0 0 .161.161.17.17 0 0 0 .092-.029l1.352-1.013a1.2 1.2 0 0 1 .727-.243h1.205a.322.322 0 1 1 0 .643h-1.125a.8.8 0 0 0-.489.166l-1.291.968a.8.8 0 0 1-.47.152.804.804 0 0 1-.804-.803v-.161a.32.32 0 0 0-.321-.321c-.036 0-.043-.021-.034-.051a1.284 1.284 0 0 1-.93-1.234v-2.571c0-.71.575-1.286 1.286-1.286h4.5c.71 0 1.286.575 1.286 1.286v.803a.64.64 0 0 0 .258.515l.775.582a.16.16 0 0 0 .092.028.16.16 0 0 0 .161-.161v-.321c0-.444.405-.804.643-.804.31 0 .643-.36.643-.803v-2.25a.804.804 0 0 0-.803-.804h-4.179a.804.804 0 0 0-.804.804v.161a.322.322 0 1 1-.643 0v-.322c0-.71.576-1.286 1.286-1.286h4.5c.71 0 1.286.576 1.286 1.286v2.572c0 .71-.509 1.286-.964 1.286zm-2.572 1.286a.322.322 0 0 1 0 .643.322.322 0 1 1 0-.643"/></svg>