<svg xmlns="http://www.w3.org/2000/svg" width="32" height="32"><defs><linearGradient id="a" x1="385.769" x2="415.377" y1="531.2" y2="531.2" gradientUnits="userSpaceOnUse"><stop offset="0" stop-color="#78acd3"/><stop offset="1" stop-color="#d98cbb"/></linearGradient><linearGradient id="b" x1="385.571" x2="415.571" y1="535.131" y2="535.131" gradientUnits="userSpaceOnUse"><stop offset="0" stop-color="#326e9a"/><stop offset="1" stop-color="#339993"/></linearGradient></defs><path fill="url(#a)" d="M400.573 522.378c-.44 0-.961-.258-1.158-.574l-.885-1.419c-.196-.316-.717-.573-1.157-.574l-10.201-.013c-.973-.001-1.383.467-1.397 1.502l-.006.436v19.569c0 .353 1.16 1.283 1.6 1.283h26.408c.44 0 1.6-.93 1.6-1.283v-17.644c0-.962-.4-1.283-1.6-1.283z" transform="translate(-384.571 -515.798)"/><path fill="#f2f2f2" d="M28.889 13.43c0 .663-.398 1.205-1.309 1.205H4.482c-.911 0-1.259-.542-1.259-1.205V9.815c0-.663.349-1.205 1.259-1.205H27.53c.911 0 1.358.542 1.358 1.205z"/><path fill="url(#b)" d="M413.95 526.464h-26.757c-.811 0-1.622.738-1.622 1.475v14.384c0 .976.627 1.475 1.622 1.475h26.757c.998 0 1.622-.5 1.622-1.475v-14.384c0-.738-.811-1.475-1.622-1.475" transform="translate(-384.571 -515.798)"/><path fill="#f2f2f2" fill-rule="evenodd" d="M26.882 19.469a.28.28 0 1 1-.281-.282.28.28 0 0 1 .281.281zm-1.688 0a.281.281 0 1 1-.562 0 .281.281 0 1 1 .562 0m3.972 3.971a.283.283 0 0 1-.483-.2.28.28 0 0 1 .095-.21.28.28 0 0 0 .072-.187v-1.688a.281.281 0 1 0-.562 0v2.531a1.12 1.12 0 0 1-.45.898.29.29 0 0 0-.113.227v.844a.843.843 0 0 1-1.687 0v-.633a.21.21 0 0 0-.211-.211h-.141a.21.21 0 0 0-.211.211v.633a.843.843 0 0 1-1.688 0v-.844a.28.28 0 0 0-.11-.223 1.13 1.13 0 0 1-.453-.902v-.051a.8.8 0 0 1-.281.051.844.844 0 0 1-.844-.843v-1.688a.84.84 0 0 1 .787-.838.3.3 0 0 1 .057-.006h3.938c.31 0 .563-.252.563-.563a.56.56 0 0 0-.101-.32 1.967 1.967 0 0 0-3.355.302h-.001a.283.283 0 0 1-.537-.124.28.28 0 0 1 .067-.181c.208-.399.518-.735.896-.974l-.306-.53a.281.281 0 0 1 .487-.281l.326.565a2.52 2.52 0 0 1 1.672.001l.327-.566a.28.28 0 0 1 .384-.103c.134.078.18.25.103.384l-.307.531a2.6 2.6 0 0 1 .696.645 1.12 1.12 0 0 1 .211.652c0 .621-.504 1.125-1.125 1.125h-3.938a.28.28 0 0 0-.281.281v1.688a.281.281 0 1 0 .562 0v-1.125a.281.281 0 1 1 .562 0v1.969a.56.56 0 0 0 .288.488.56.56 0 0 1 .274.483v.998a.281.281 0 0 0 .562 0v-.703c0-.389.315-.703.703-.703h.281c.389 0 .703.315.703.703v.703a.281.281 0 1 0 .562 0v-.998a.56.56 0 0 1 .274-.483.56.56 0 0 0 .288-.488v-2.531a.843.843 0 0 1 1.688 0v1.688a.84.84 0 0 1-.247.596z"/></svg>