<svg xmlns="http://www.w3.org/2000/svg" width="32" height="32"><defs><linearGradient id="a" x1="385.769" x2="415.377" y1="531.2" y2="531.2" gradientUnits="userSpaceOnUse"><stop offset="0" stop-color="#78acd3"/><stop offset="1" stop-color="#d98cbb"/></linearGradient><linearGradient id="b" x1="385.571" x2="415.571" y1="535.131" y2="535.131" gradientUnits="userSpaceOnUse"><stop offset="0" stop-color="#326e9a"/><stop offset="1" stop-color="#339993"/></linearGradient></defs><path fill="url(#a)" d="M400.573 522.378c-.44 0-.961-.258-1.158-.574l-.885-1.419c-.196-.316-.717-.573-1.157-.574l-10.201-.013c-.973-.001-1.383.467-1.397 1.502l-.006.436v19.569c0 .353 1.16 1.283 1.6 1.283h26.408c.44 0 1.6-.93 1.6-1.283v-17.644c0-.962-.4-1.283-1.6-1.283z" transform="translate(-384.571 -515.798)"/><path fill="#f2f2f2" d="M28.889 13.43c0 .663-.398 1.205-1.309 1.205H4.482c-.911 0-1.259-.542-1.259-1.205V9.815c0-.663.349-1.205 1.259-1.205H27.53c.911 0 1.358.542 1.358 1.205z"/><path fill="url(#b)" d="M413.95 526.464h-26.757c-.811 0-1.622.738-1.622 1.475v14.384c0 .976.627 1.475 1.622 1.475h26.757c.998 0 1.622-.5 1.622-1.475v-14.384c0-.738-.811-1.475-1.622-1.475" transform="translate(-384.571 -515.798)"/><path fill="#f2f2f2" d="M29.517 26.225a.35.35 0 0 1-.343.275.4.4 0 0 1-.076-.008 3.2 3.2 0 0 1-1.416-.816 4.04 4.04 0 0 1-1.61.817.4.4 0 0 1-.072.007.35.35 0 0 1-.347-.316.35.35 0 0 1 .276-.379 3.3 3.3 0 0 0 1.265-.644 5.7 5.7 0 0 1-.659-.958.35.35 0 0 1 .33-.517.35.35 0 0 1 .296.197 5 5 0 0 0 .558.811c.393-.393.716-.851.954-1.353H26a.352.352 0 1 1 0-.703h1.237v-.44a.352.352 0 1 1 .703 0v.44h1.237a.35.35 0 0 1 .341.444 5.06 5.06 0 0 1-1.306 2.121 2.44 2.44 0 0 0 1.043.601.35.35 0 0 1 .265.419zm-3.87-4.368H23.91a1.432 1.432 0 0 1 0-2.864h1.737v-.087a.703.703 0 0 0-.703-.703h-1.763a.352.352 0 1 1 0-.703h1.763c.776 0 1.405.629 1.405 1.405v2.959a.352.352 0 1 1-.703 0zm0-.703v-1.459H23.91a.73.73 0 0 0-.714.729.73.73 0 0 0 .714.729z"/></svg>