<svg xmlns="http://www.w3.org/2000/svg" width="32" height="32"><defs><linearGradient id="a" x1="1.197" x2="30.806" y1="15.402" y2="15.402" gradientUnits="userSpaceOnUse"><stop offset="0" stop-color="#78acd3"/><stop offset="1" stop-color="#d98cbb"/></linearGradient><linearGradient id="b" x1="1" x2="31" y1="19.333" y2="19.333" gradientUnits="userSpaceOnUse"><stop offset="0" stop-color="#326e9a"/><stop offset="1" stop-color="#339993"/></linearGradient></defs><path fill="url(#a)" d="M16.002 6.58c-.44 0-.961-.258-1.158-.574l-.885-1.419c-.196-.316-.717-.573-1.157-.574L2.6 4c-.973-.002-1.383.467-1.397 1.502l-.006.436v19.569c0 .353 1.16 1.283 1.6 1.283h26.408c.44 0 1.6-.93 1.6-1.283V7.863c0-.962-.4-1.283-1.6-1.283z"/><path fill="#f2f2f2" d="M28.889 13.43c0 .663-.398 1.205-1.309 1.205H4.483c-.911 0-1.259-.542-1.259-1.205V9.815c0-.663.349-1.205 1.259-1.205h23.048c.911 0 1.358.542 1.358 1.205z"/><path fill="url(#b)" d="M29.378 10.666H2.622c-.811 0-1.622.738-1.622 1.475v14.384C1 27.5 1.627 28 2.622 28h26.757c.998 0 1.622-.5 1.622-1.475V12.141c0-.738-.811-1.475-1.622-1.475z"/><g fill="#f2f2f2"><path d="M29.341 24.528c-.08.281-.289.444-.568.363s-.278-.373-.198-.655a1.64 1.64 0 0 0-.021-.962l-1.182-3.596c-.22-.67-1.001-1.366-1.701-1.366h-6.059c-.7 0-1.318.696-1.539 1.366l-1.223 3.596c-.137.416-.023.944.172 1.34a2.33 2.33 0 0 0 1.141.989c.409.136 1.009.02 1.397-.18s.678-.703.815-1.12l.078-.236c.219-.666.672-.951 1.368-.951h1.805c.696 0 1.149.284 1.368.951l.078.236c.221.67 1.015 1.383 1.701 1.383a1.6 1.6 0 0 0 .392-.049c.281-.071.567-.062.637.221s-.101.489-.382.56a2.617 2.617 0 0 1-2.198-.429 2.7 2.7 0 0 1-.984-1.354l-.078-.236a.56.56 0 0 0-.533-.388H21.82a.56.56 0 0 0-.534.388l-.078.237c-.225.683-.698 1.239-1.334 1.566s-1.365.386-2.043.16-1.227-.709-1.548-1.358-.372-1.38-.147-2.063l1.182-3.596a2.67 2.67 0 0 1 2.536-1.846h5.734a2.67 2.67 0 0 1 2.536 1.846l1.182 3.596a2.7 2.7 0 0 1 .033 1.586zm-4.124-5.122c-.29 0-.525.237-.525.529s.235.529.525.529.525-.237.525-.529-.235-.529-.525-.529m0 3.177c.29 0 .525-.237.525-.529s-.235-.529-.525-.529-.525.237-.525.529.235.529.525.529m-1.05-2.118c-.29 0-.525.237-.525.529s.235.529.525.529.525-.237.525-.529-.235-.529-.525-.529m2.101 1.059c.29 0 .525-.237.525-.529s-.235-.529-.525-.529-.525.237-.525.529.235.529.525.529m-6.039 1.059c.29 0 .525-.237.525-.529v-.529h.525c.29 0 .525-.237.525-.529s-.235-.529-.525-.529h-.525v-.529c0-.292-.235-.529-.525-.529s-.525.237-.525.529v.529h-.525c-.29 0-.525.237-.525.529s.235.529.525.529h.525v.529c0 .292.235.529.525.529"/><ellipse cx="28.743" cy="25.714" rx=".41" ry=".413"/></g></svg>