<svg xmlns="http://www.w3.org/2000/svg" width="32" height="32"><defs><linearGradient id="a" x1="385.769" x2="415.377" y1="531.2" y2="531.2" gradientUnits="userSpaceOnUse"><stop offset="0" stop-color="#78acd3"/><stop offset="1" stop-color="#d98cbb"/></linearGradient><linearGradient id="b" x1="385.571" x2="415.571" y1="535.131" y2="535.131" gradientUnits="userSpaceOnUse"><stop offset="0" stop-color="#326e9a"/><stop offset="1" stop-color="#339993"/></linearGradient></defs><path fill="url(#a)" d="M400.573 522.378c-.44 0-.961-.258-1.158-.574l-.885-1.419c-.196-.316-.717-.573-1.157-.574l-10.201-.013c-.973-.001-1.383.467-1.397 1.502l-.006.436v19.569c0 .353 1.16 1.283 1.6 1.283h26.408c.44 0 1.6-.93 1.6-1.283v-17.644c0-.962-.4-1.283-1.6-1.283z" transform="translate(-384.571 -515.798)"/><path fill="#f2f2f2" d="M28.889 13.43c0 .663-.398 1.205-1.309 1.205H4.482c-.911 0-1.259-.542-1.259-1.205V9.815c0-.663.349-1.205 1.259-1.205H27.53c.911 0 1.358.542 1.358 1.205z"/><path fill="url(#b)" d="M413.95 526.464h-26.757c-.811 0-1.622.738-1.622 1.475v14.384c0 .976.627 1.475 1.622 1.475h26.757c.998 0 1.622-.5 1.622-1.475v-14.384c0-.738-.811-1.475-1.622-1.475" transform="translate(-384.571 -515.798)"/><path fill="#f2f2f2" d="M25.672 26.358a4.99 4.99 0 0 1-5.876-3.174 4.9 4.9 0 0 1-.18-2.724c.011-.023.022-.056.034-.079 0 .023 0 .056.011.079 0 .011.011.034.022.045 0-.023.011-.034.011-.056 0-.067 0-.135.011-.214.067.056.022.135.045.191.034.09.034.18.034.281-.011.146.124.248.225.259.191.023.304.169.473.225a.22.22 0 0 1 .135.135c.022.146.135.191.225.248.022.011.045.034.067 0 .079-.158.09-.045.124.023.079.169.011.304-.079.439-.067.09-.146.18-.067.304.011.011 0 .045-.011.056-.056.09-.022.158.034.236.079.113.146.225.203.349.079.158.146.304.326.383.113.045.18.146.191.281l.146 1.137c.034.225.214.383.293.585a.8.8 0 0 0 .158.248c.124.146.304.158.462.236h.045c-.011-.011-.034-.023-.045-.034-.101-.09-.315-.113-.18-.326 0-.011-.011-.034-.011-.034-.158-.034-.079-.146-.067-.225 0-.045.045-.079-.022-.09-.011 0-.022-.023-.022-.034.124.034.079-.146.18-.146.146 0 .203-.056.124-.203-.022-.034-.056-.079.034-.056s.135-.011.158-.09.056-.158.124-.225a.27.27 0 0 0 .067-.248c-.034-.169.135-.203.236-.214.214-.023.225-.169.27-.315a.9.9 0 0 0 .022-.349c-.011-.124.09-.203.158-.293.09-.113.146-.259.056-.36s-.203-.214-.36-.225c-.225-.011-.394-.158-.585-.236-.067-.023-.067-.135-.09-.203-.056-.158-.158-.225-.315-.248-.191-.023-.27-.169-.349-.304-.056-.101-.135-.056-.18-.045a.34.34 0 0 1-.281-.045c-.191-.101-.349-.067-.484.135-.022.034-.056.09-.113.034-.034-.034-.079-.034-.135-.011-.101.045-.191-.034-.18-.146 0-.045.011-.09.022-.135.034-.191.022-.214-.169-.191-.079.011-.09-.011-.056-.079s.067-.135.079-.214c.011-.045.079-.101 0-.135-.056-.023-.158 0-.169.079-.022.135-.101.169-.214.146-.124-.034-.113-.158-.09-.248.022-.18.034-.383.225-.495a.17.17 0 0 1 .146-.034c.056.011.101.011.158-.045.079-.079.169-.023.259 0 .067.023.034.09.045.135.011.067.011.169.079.158.079 0 .09-.101.067-.18-.045-.169.011-.315.169-.394.169-.09.248-.236.349-.383.067-.113.191-.169.304-.248.113-.067.203-.191.349-.248.022-.011.045-.011.056-.023-.011.023-.011.034-.022.056s-.022.034 0 .045c.011 0 .034 0 .045-.011.034-.045.09-.056.146-.067.034-.011.09-.034.101-.056 0-.045-.056-.023-.079-.045-.045-.034-.045-.067-.022-.101.022-.056.101-.113-.034-.113 0 0-.011-.011-.011-.023.011 0 .022-.011.034-.011.158-.034.326.023.473-.09.011 0 .022.011.034.011-.011.011-.011.023-.022.034-.034.079-.18.113-.135.203.022.045.158-.034.248.034.034.023.09 0 .067-.034-.034-.056.079-.146-.022-.146-.101-.011-.067-.045-.045-.09.067-.113.09-.203-.056-.259-.079-.034-.034-.113-.056-.169-.022-.09-.034-.158-.146-.067-.045.034-.169.146-.135-.056.011-.045-.067-.09-.101-.09-.09 0-.203-.056-.248.056-.045.09-.158.146-.158.27 0 .034-.056.067-.101.09-.09.034-.158.079-.169.18-.011.056-.056.101-.113.079-.067-.034-.011-.09.011-.124.045-.056.045-.101-.045-.09s-.146-.079-.248-.09c-.034 0-.034-.09.011-.124.146-.146.338-.191.507-.304.045-.034.056.101.09.034s.248.045.146-.146l.158-.056c.079-.034.101-.135.203-.158.09-.011.191-.023.203.056s-.101.101-.169.135c-.034.011-.067 0-.101.011-.022.011-.056.034-.056.045 0 .034.045.023.067.023.067-.011.124-.011.169.056.034.045.158.067.158.045.011-.101.27-.023.135-.203v-.034c.022-.023.045-.011.067.011.079.09.146.011.18-.034.045-.067-.079-.067-.079-.09 0-.146-.135-.124-.203-.169s-.124-.045-.191-.034c.022.011.022.045 0 .034-.09-.056-.158-.011-.236 0-.079.023-.146.023-.214-.023-.045-.034-.09-.023-.135 0-.011 0-.022.011-.022.023 0 0 .011.011.022.011.034 0 .067-.056.101-.011a.35.35 0 0 1-.146.067c-.135-.023-.18.023-.169.135 0 .023-.011.045-.022.067-.056-.045-.169.034-.169-.011 0-.067-.034-.169.056-.225 1.081-.642 2.229-.878 3.467-.664a5.05 5.05 0 0 1 2.217.979c.034.023.056.056.079.079-.045.023-.067-.023-.101-.034-.101-.045-.191-.124-.304-.146-.146-.023-.293-.045-.405.079a.54.54 0 0 1-.281.158c-.09.023-.113.067-.067.158.034.09.079.146.169.101.079-.045.113-.011.158.045.056.067.034.09-.011.135-.011.011.011.056-.034.045-.056.011-.045-.011-.045-.045s.045-.09-.022-.09c-.056 0-.101.056-.079.113.045.09-.011.113-.079.113-.113.011-.158.146-.259.158-.056.124-.191.056-.281.113-.022.011-.067 0-.079.034 0 .011.034.034.056.045a.5.5 0 0 1 .113.09c.045.056.034.113.011.169-.022.067-.079.034-.124.034h-.022c-.293-.034-.383.056-.338.349.011.056.011.135.113.124.079 0 .113.056.056.124-.113.135-.236.27-.293.45-.034.079-.158.079-.214.18-.079.18-.281.304-.203.552.034.101 0 .203-.034.315-.034.101-.034.225.067.315.169.135.225.36.416.473a.32.32 0 0 0 .225.045c.214-.023.416-.09.619-.101.124-.011.259.124.394.18.079.034 0 .18-.011.27-.011.079-.011.135.045.191.169.18.191.405.236.63.022.101-.09.169-.113.27-.034.135-.056.259.022.383s.113.259.09.405c-.011.146.113.225.135.349.045.248.056.236.315.191.293-.056.428-.293.552-.529.034-.056.034-.113.101-.135a.17.17 0 0 0 .079-.191c-.034-.146.045-.248.146-.315.214-.135.236-.338.18-.529-.101-.371.079-.63.293-.878.169-.191.225-.405.259-.63.011-.056 0-.101-.079-.056a.3.3 0 0 1-.113.045c-.056.011-.124.034-.158-.045-.045-.101.056-.079.09-.09.203-.113.416-.225.45-.495a.28.28 0 0 0-.056-.225c-.034-.045-.056-.101-.034-.158.248.27.214.63.225.945.124 2.398-1.486 4.48-3.771 5.043zm-4.334-5.707c-.124-.079-.225-.203-.394-.203-.045.011-.101.023-.146.067-.011.011-.022.056.011.045.18-.067.281.011.394.135.022.023.09.045.146.011a.2.2 0 0 0-.011-.056zm.338.124c-.045-.067-.113-.079-.191-.09-.101-.023-.056.124-.135.113.034.011.067.034.113.045.067-.034.146-.045.214-.067zm3.895-3.253c0-.045-.045-.056-.079-.056h-.27c-.034 0-.079-.034-.101.011.045.023.011.101.079.124.034.011.079.011.124.023l.18-.045c.034-.023.067-.023.067-.056zm.36.608c.067.034.18.045.056.158-.034.034 0 .113-.045.158.056.034.101-.011.146-.011.067 0 .146-.011.214-.023 0-.101-.056-.18-.135-.259-.022-.023-.056-.056-.056-.09.011-.113-.056-.169-.146-.146-.09.034-.079.124-.034.214zm-.101-.023c-.056.011-.146.034-.146.101 0 .045-.067.113 0 .135a.23.23 0 0 0 .169-.045c.045-.045.056-.113.079-.169-.034-.011-.067-.023-.101-.023zm-.732-.788c.045 0 .09-.034.135-.056.022-.011.045-.023.034-.045-.124-.135.045-.056.067-.09.022-.023.09-.034.101-.056.034-.146.146-.169.281-.169-.011 0 .011-.011.022-.011-.011-.011-.022-.023-.045-.023l-.371-.067c-.529-.067-1.058.045-1.598.011-.304-.023-.585.113-.889.146-.045 0-.09.034-.135.045-.011 0-.045.034-.011.034.101.023 0 .045 0 .045-.034.045-.09.023-.135.034-.022.011-.056.034-.056.045.011.034.045.011.067.011l.236-.011c.169-.124.36-.169.552-.236.022-.011.045 0 .067-.011 0 .203.146.067.214.09.09.023.225-.034.191.146 0 .011.011.023.022.034.067.056.045.113-.022.135-.135.034-.113.146-.124.248 0 .158.135.169.236.214.09.034.124-.045.169-.09.09-.079.146-.191.27-.203.248-.034.473-.158.72-.169zm3.917 5.752c-.011-.034-.022-.056-.022-.09-.022.023-.045.045-.056.067-.022.034-.034.101-.079.124-.214.146-.158.383-.236.585-.011.034-.011.079.034.09.034.011.067-.011.09-.045.113-.236.214-.473.27-.732zm-.799-3.23c-.034.079-.113 0-.158.011-.191.045-.338-.045-.495-.124-.056-.023-.124-.011-.135.034-.079.259-.18-.023-.259.011-.011 0-.034-.056-.045-.056-.18-.023-.304-.079-.248-.304.011-.034-.056-.056-.09-.045-.225.034-.473-.045-.675.113-.022.023-.067 0-.101 0s-.101.011-.101-.034c0-.056.056-.045.101-.056.113-.011.169-.079.214-.18.056-.146.203-.214.304-.281.225-.169.304.034.428.124a.6.6 0 0 0 .146.09c.034.023.067.056.056.09-.011.056-.056.045-.101.045-.022.011-.067-.023-.079.023 0 .011.022.034.045.045.034.011.079.067.101.023.022-.056.067-.09.101-.146.113-.169-.079-.146-.124-.214-.011-.023-.056-.023-.056-.045-.022-.056-.135-.101-.079-.158s.101.056.158.079c.214.079.236.304.349.45.022.034.034.101.09.079.045-.023.067-.079.045-.135-.011-.056-.056-.113.022-.135.09-.023.101.056.113.113.022.146.113.203.259.203.079 0 .146.067.236.034.011 0 .034.011.034.034a.66.66 0 0 1-.056.315zm-1.43-.664c-.022-.056.011-.124-.045-.18-.011.056-.034.113-.045.169.034.023-.011.09.056.09.034-.011.045-.056.034-.079m1.328-.214c-.045.011-.079.011-.113-.034s-.067-.124-.124-.067a.24.24 0 0 0-.079.236c.022.067.09.101.146.079.135-.056.248-.023.36.045.034.023.09.056.113 0s-.022-.079-.056-.101c-.056-.045-.124-.09-.169-.146-.022-.034.022-.101-.067-.09-.011 0-.022 0-.022.011-.022.045.034.034.045.056 0 .011-.011.011-.034.011m.349 1.463c-.034-.101-.101-.18-.158-.27-.011-.023-.034-.045-.067-.034-.045.011-.022.045-.011.067.135.27.248.552.36.822.022.056.09.101.146.158.011.011.022.011.034.023 0-.011.011-.034 0-.011 0-.326-.214-.507-.304-.754zm-1.238-2.533c-.045-.079-.011-.113.056-.146.011-.011.034-.034.011-.034-.022-.011-.067-.011-.067 0-.034.079-.293.067-.09.236v.034c-.079.056-.056.225-.214.203-.011 0-.045 0-.022.023.09.113.214 0 .326.034.034.011.056-.034.067-.079.011-.124.045-.225.203-.146.011.011.045.011.045-.011 0 0-.022-.023-.045-.023h-.079c-.079-.011-.146-.011-.191-.09zm2.026 2.443c-.113-.056-.214-.124-.248-.248-.011-.023-.034-.067-.067-.045s-.022.056 0 .09c.045.067.101.113.124.18.056.214.113.146.191.023m-7.069-3.039c-.079.045.045.056.011.113s.056.09.079.079c.101-.011.101-.101.079-.18-.011-.045-.056-.011-.09 0-.034.023-.056.023-.079-.011zm-.799 1.441c.011-.045-.034-.056-.067-.056a.28.28 0 0 0-.169.09c-.011.023.067-.011.09.023.045-.034.135.034.146-.056zm-.011.18c-.022.023.011.056.022.045.045-.034.101-.067.135-.113.011-.011-.056-.034-.101-.034-.09-.023-.022.067-.056.101zm6.9 3.23c-.056 0-.079.034-.09.079 0 .034-.011.079.045.079s.056-.067.079-.101c.022-.045-.011-.045-.034-.056zm-7.012-3.275c-.056.011-.09.056-.113.101a.6.6 0 0 0-.056.124c.011 0 .022.011.034 0 .067-.056.067-.158.158-.214-.022 0-.022-.011-.022-.011z"/></svg>