<svg xmlns="http://www.w3.org/2000/svg" width="32" height="32"><defs><linearGradient id="a" x1="385.769" x2="415.377" y1="531.2" y2="531.2" gradientUnits="userSpaceOnUse"><stop offset="0" stop-color="#78acd3"/><stop offset="1" stop-color="#d98cbb"/></linearGradient><linearGradient id="b" x1="385.571" x2="415.571" y1="535.131" y2="535.131" gradientUnits="userSpaceOnUse"><stop offset="0" stop-color="#326e9a"/><stop offset="1" stop-color="#339993"/></linearGradient></defs><path fill="url(#a)" d="M400.573 522.378c-.44 0-.961-.258-1.158-.574l-.885-1.419c-.196-.316-.717-.573-1.157-.574l-10.201-.013c-.973-.001-1.383.467-1.397 1.502l-.006.436v19.569c0 .353 1.16 1.283 1.6 1.283h26.408c.44 0 1.6-.93 1.6-1.283v-17.644c0-.962-.4-1.283-1.6-1.283z" transform="translate(-384.571 -515.798)"/><path fill="#f2f2f2" d="M28.889 13.43c0 .663-.398 1.205-1.309 1.205H4.482c-.911 0-1.259-.542-1.259-1.205V9.815c0-.663.349-1.205 1.259-1.205H27.53c.911 0 1.358.542 1.358 1.205z"/><path fill="url(#b)" d="M413.95 526.464h-26.757c-.811 0-1.622.738-1.622 1.475v14.384c0 .976.627 1.475 1.622 1.475h26.757c.998 0 1.622-.5 1.622-1.475v-14.384c0-.738-.811-1.475-1.622-1.475" transform="translate(-384.571 -515.798)"/><g fill="#f2f2f2"><path d="M28.989 21.725a.28.28 0 0 1-.279.281.28.28 0 0 1-.279-.281c0-.074-.465-.427-.576-.538l-.303-.305h.009a1.13 1.13 0 0 1-.246-.703v-1.265a.28.28 0 0 0-.279-.281h-.558a.28.28 0 0 0-.279.281v.096a.21.21 0 0 1-.209.211.2.2 0 0 1-.145-.06l-.925-.933a.554.554 0 0 0-.789 0l-3.353 3.38a.56.56 0 0 0-.164.398h.006c0 .31.234.562.466.562.266 0 .65.378.65.844v1.968a.56.56 0 0 0 .558.562h.837a.28.28 0 0 0 .279-.281v-1.828a.7.7 0 0 1 .697-.703h.837a.7.7 0 0 1 .697.703v1.828a.28.28 0 0 0 .279.281h.837a.56.56 0 0 0 .558-.562v-1.968a.28.28 0 0 1 .279-.281.28.28 0 0 1 .279.281v1.968a1.12 1.12 0 0 1-1.115 1.125h-.837a.84.84 0 0 1-.837-.844v-1.687a.28.28 0 0 0-.279-.281h-.558a.28.28 0 0 0-.279.281v1.687a.84.84 0 0 1-.837.844h-.837a1.12 1.12 0 0 1-1.116-1.125v-1.968c0-.155-.13-.271-.279-.316a1.13 1.13 0 0 1-.837-1.09v.062a1.12 1.12 0 0 1 .321-.858l3.353-3.38a1.1 1.1 0 0 1 .788-.325c.286 0 .572.106.79.325l.49.495a.69.69 0 0 1 .534-.256h.836a.7.7 0 0 1 .697.703v1.406a.56.56 0 0 0 .157.389l.638.643c.219.221.321.33.321.514zm-.837.844a.281.281 0 1 1 0 .562.281.281 0 1 1 0-.562"/><path d="M26.566 21.657H21.03c-.644 0-.644.75 0 .75h5.536c.473 0 .412-.75 0-.75"/></g></svg>