<svg xmlns="http://www.w3.org/2000/svg" width="32" height="32"><defs><linearGradient id="a" x1="385.769" x2="415.377" y1="531.2" y2="531.2" gradientUnits="userSpaceOnUse"><stop offset="0" stop-color="#78acd3"/><stop offset="1" stop-color="#d98cbb"/></linearGradient><linearGradient id="b" x1="385.571" x2="415.571" y1="535.131" y2="535.131" gradientUnits="userSpaceOnUse"><stop offset="0" stop-color="#326e9a"/><stop offset="1" stop-color="#339993"/></linearGradient></defs><path fill="url(#a)" d="M400.573 522.378c-.44 0-.961-.258-1.158-.574l-.885-1.419c-.196-.316-.717-.573-1.157-.574l-10.201-.013c-.973-.002-1.383.467-1.397 1.502l-.006.436v19.569c0 .353 1.16 1.283 1.6 1.283h26.408c.44 0 1.6-.93 1.6-1.283v-17.644c0-.962-.4-1.283-1.6-1.283z" transform="translate(-384.571 -515.798)"/><path fill="#f2f2f2" d="M28.889 13.43c0 .663-.398 1.205-1.309 1.205H4.482c-.911 0-1.259-.542-1.259-1.205V9.815c0-.663.349-1.205 1.259-1.205H27.53c.911 0 1.358.542 1.358 1.205z"/><path fill="url(#b)" d="M413.95 526.464h-26.757c-.811 0-1.622.738-1.622 1.475v14.384c0 .976.627 1.475 1.622 1.475h26.757c.998 0 1.622-.5 1.622-1.475v-14.384c0-.738-.811-1.475-1.622-1.475" transform="translate(-384.571 -515.798)"/><g fill="#f2f2f2" transform="translate(-384.571 -515.798)"><path d="M412.715 539.308c.564.501.362 1.153-.077 1.589a1.17 1.17 0 0 1-1.577.078q-.01.005-.021.008c-.115-.119-.252-.22-.402-.156s-.181.219-.181.384q0 .022.009.042a1.183 1.183 0 0 1-1.169 1.041c-.613 0-1.116-.47-1.176-1.072l-.019-.008c.002-.16-.025-.328-.175-.391s-.282.026-.398.143q-.009.011-.015.024a1.17 1.17 0 0 1-1.559-.09 1.194 1.194 0 0 1-.075-1.592l-.01-.026c.106-.107.206-.245.143-.397s-.218-.183-.381-.183q-.016.001-.03.007a1.19 1.19 0 0 1-1.032-1.179c0-.62.47-1.129 1.07-1.185.155-.017.318-.045.379-.194s-.025-.284-.14-.4a1.193 1.193 0 0 1 .076-1.59 1.17 1.17 0 0 1 1.584-.071l.158.131v.678s-.173.033-.304-.132l-.184-.186a.587.587 0 0 0-.836 0 .6.6 0 0 0 0 .842l.209.211.001.009a.45.45 0 0 1 .082.531l-.003.018a3 3 0 0 0-.167.405l-.009.007a.444.444 0 0 1-.482.33h-.25c-.326 0-.591.267-.591.596s.264.596.591.596h.295l.009.007a.44.44 0 0 1 .425.317l.011.013q.07.21.167.404l-.002.018a.45.45 0 0 1-.106.57l-.179.181a.6.6 0 0 0 0 .842.59.59 0 0 0 .836 0l.209-.211.009-.002a.44.44 0 0 1 .522-.078l.022-.001a3 3 0 0 0 .401.168l.012.016a.45.45 0 0 1 .321.432l.002.002v.298c0 .329.264.596.591.596s.591-.267.591-.596v-.298l.002-.002c0-.193.122-.372.315-.43l.018-.016a3 3 0 0 0 .401-.168l.019.003a.44.44 0 0 1 .525.076l.009.002.209.211a.59.59 0 0 0 .836 0c.231-.233.368-.464.138-.696.151-.067.281-.2.356-.472zm-1.155.35a.73.73 0 0 1-.565-.265l-1.401-1.674v1.194c0 .411-.332.745-.739.745s-.739-.334-.739-.745v-4.869c0-.411.332-.745.739-.745s.739.334.739.745v1.194l1.401-1.674a.736.736 0 0 1 1.042-.089.74.74 0 0 1 .26.507.74.74 0 0 1-.172.544l-1.635 1.954 1.635 1.954c.343.413.223.785-.088 1.05a.74.74 0 0 1-.476.176zm-2.038-2.5c.054 0 .106.024.141.066l1.614 1.928a.367.367 0 0 0 .521.044.374.374 0 0 0 .044-.525l-1.736-2.074a.19.19 0 0 1 0-.24l1.736-2.074a.37.37 0 0 0 .086-.272.37.37 0 0 0-.13-.253.37.37 0 0 0-.521.045l-1.727 2.064a.184.184 0 0 1-.326-.12v-1.704c0-.205-.166-.373-.37-.373s-.37.167-.37.373v4.869c0 .205.166.373.37.373s.37-.167.37-.373v-1.432c0-.044.015-.087.044-.12l.113-.136a.18.18 0 0 1 .141-.066"/><ellipse cx="413.53" cy="538.607" rx=".41" ry=".413"/></g></svg>