<svg xmlns="http://www.w3.org/2000/svg" width="32" height="32"><defs><linearGradient id="a" x1="385.769" x2="415.377" y1="531.2" y2="531.2" gradientUnits="userSpaceOnUse"><stop offset="0" stop-color="#78acd3"/><stop offset="1" stop-color="#d98cbb"/></linearGradient><linearGradient id="b" x1="385.571" x2="415.571" y1="535.131" y2="535.131" gradientUnits="userSpaceOnUse"><stop offset="0" stop-color="#326e9a"/><stop offset="1" stop-color="#339993"/></linearGradient></defs><path fill="url(#a)" d="M400.573 522.378c-.44 0-.961-.258-1.158-.574l-.885-1.419c-.196-.316-.717-.573-1.157-.574l-10.201-.013c-.973-.002-1.383.467-1.397 1.502l-.006.436v19.569c0 .353 1.16 1.283 1.6 1.283h26.408c.44 0 1.6-.93 1.6-1.283v-17.644c0-.962-.4-1.283-1.6-1.283z" transform="translate(-384.571 -515.798)"/><path fill="#f2f2f2" d="M28.889 13.43c0 .663-.398 1.205-1.309 1.205H4.482c-.911 0-1.259-.542-1.259-1.205V9.815c0-.663.349-1.205 1.259-1.205H27.53c.911 0 1.358.542 1.358 1.205z"/><path fill="url(#b)" d="M413.95 526.464h-26.757c-.811 0-1.622.738-1.622 1.475v14.384c0 .976.627 1.475 1.622 1.475h26.757c.998 0 1.622-.5 1.622-1.475v-14.384c0-.738-.811-1.475-1.622-1.475" transform="translate(-384.571 -515.798)"/><path fill="#f2f2f2" fill-rule="evenodd" d="M20.525 19.106a.32.32 0 0 1 .319-.321.321.321 0 1 1 0 .642.32.32 0 0 1-.319-.321m1.275 0a.32.32 0 0 1 .319-.321.321.321 0 1 1 0 .642.32.32 0 0 1-.319-.321m1.275 0a.32.32 0 0 1 .319-.321.321.321 0 1 1 0 .642.32.32 0 0 1-.319-.321m6.373 1.767v4.337a1.28 1.28 0 0 1-1.275 1.285h-7.648a1.28 1.28 0 0 1-1.275-1.285v-3.534a.32.32 0 0 1 .319-.321.32.32 0 0 1 .319.321v3.534a.64.64 0 0 0 .637.643h7.647a.64.64 0 0 0 .637-.643v-4.176a.32.32 0 0 0-.319-.321h-8.444a.8.8 0 0 1-.797-.803v-1.124a1.28 1.28 0 0 1 1.275-1.285h7.648a1.28 1.28 0 0 1 1.275 1.285v.321a.32.32 0 0 1-.319.321.32.32 0 0 1-.319-.321v-.321a.64.64 0 0 0-.637-.642h-7.648a.64.64 0 0 0-.637.642v.964a.32.32 0 0 0 .319.321h8.444a.8.8 0 0 1 .797.803zm-3.583 2.902a.13.13 0 0 0-.092.126v1.376a.132.132 0 1 1-.264 0v-1.375a.4.4 0 0 1 .262-.376.4.4 0 0 0 .149-.659.133.133 0 0 1 .093-.227.13.13 0 0 1 .097.044.666.666 0 0 1-.248 1.092zm-.353-1.002a.4.4 0 0 0-.149.659.133.133 0 0 1-.093.227.13.13 0 0 1-.096-.042.67.67 0 0 1-.19-.467c0-.288.182-.533.436-.625a.135.135 0 0 0 .092-.127v-.578c0-.073.059-.133.132-.133s.132.06.132.133v.578a.4.4 0 0 1-.262.376zm.13-1.353c-.073 0-.132-.059-.132-.133a.132.132 0 1 1 .264 0 .13.13 0 0 1-.132.133m-1.096 3.419a.135.135 0 0 0-.092.127v.312a.132.132 0 1 1-.264 0v-.312a.4.4 0 0 1 .262-.376.4.4 0 0 0 .265-.377.4.4 0 0 0-.116-.282.133.133 0 0 1 .093-.227.13.13 0 0 1 .097.044.664.664 0 0 1-.248 1.091zm-.353-1.002a.4.4 0 0 0-.266.377.4.4 0 0 0 .116.282.133.133 0 0 1-.093.227.13.13 0 0 1-.094-.041.664.664 0 0 1 .244-1.094.135.135 0 0 0 .092-.127v-2.174a.132.132 0 1 1 .264 0v2.174a.4.4 0 0 1-.262.376zm-.966-.594a.13.13 0 0 0-.092.126v1.908a.132.132 0 1 1-.264 0v-1.908a.4.4 0 0 1 .262-.376.4.4 0 0 0 .265-.376.4.4 0 0 0-.116-.282.133.133 0 0 1 .093-.227q.058.001.096.043a.67.67 0 0 1 .19.467.66.66 0 0 1-.437.625zm-.353-1.002a.4.4 0 0 0-.149.659.133.133 0 0 1-.093.227.13.13 0 0 1-.096-.042.664.664 0 0 1 .246-1.092.13.13 0 0 0 .092-.127v-.578a.132.132 0 1 1 .264 0v.578a.4.4 0 0 1-.262.376z"/></svg>