<svg xmlns="http://www.w3.org/2000/svg" width="32" height="32"><defs><linearGradient id="a" x1="385.571" x2="415.571" y1="535.131" y2="535.131" gradientUnits="userSpaceOnUse"><stop stop-color="#eb0a42"/><stop offset="1" stop-color="#f62459"/></linearGradient><path id="b" d="M22.679 19.741h1.125v1.125h-1.125z"/></defs><path fill="#f96c8f" d="M16.002 6.58c-.44 0-.961-.258-1.158-.574l-.885-1.419c-.196-.316-.717-.573-1.157-.574L2.601 4c-.973-.001-1.383.467-1.397 1.502l-.006.436v19.569c0 .353 1.16 1.283 1.6 1.283h26.408c.44 0 1.6-.93 1.6-1.283V7.863c0-.962-.4-1.283-1.6-1.283z"/><path fill="#434c5e" d="M28.889 13.43c0 .663-.398 1.205-1.309 1.205H4.483c-.911 0-1.259-.542-1.259-1.205V9.815c0-.663.349-1.205 1.259-1.205h23.048c.911 0 1.358.542 1.358 1.205z"/><path fill="url(#a)" d="M413.95 526.464h-26.757c-.811 0-1.622.738-1.622 1.475v14.384c0 .976.627 1.475 1.622 1.475h26.757c.998 0 1.622-.5 1.622-1.475v-14.384c0-.738-.811-1.475-1.622-1.475" transform="translate(-384.571 -515.798)"/><g fill="#f2f2f2"><path fill-rule="evenodd" d="M28.215 26.532h-4.822a.32.32 0 0 1-.321-.321.32.32 0 0 1 .321-.322h4.822a.643.643 0 0 0 .643-.643v-6.429a.643.643 0 0 0-.643-.643h-6.429a.643.643 0 0 0-.643.643v6.107a.32.32 0 0 1-.321.321.32.32 0 0 1-.322-.321v-6.107c0-.71.576-1.286 1.286-1.286h6.429c.71 0 1.285.576 1.285 1.286v6.429c0 .71-.576 1.286-1.285 1.286m-6.107-.643a.322.322 0 1 1-.322.322.32.32 0 0 1 .322-.322"/><use href="#b"/><use x="1.707" y="1.115" href="#b"/><use x="-.14" y="3.375" href="#b"/><use x="3.554" y="3.375" href="#b"/><use x="1.06" y="2.775" href="#b"/><use x="2.354" y="2.775" href="#b"/><use x="3.375" href="#b"/></g></svg>