<svg xmlns="http://www.w3.org/2000/svg" width="32" height="32"><defs><linearGradient id="a" x1="385.769" x2="415.377" y1="531.2" y2="531.2" gradientUnits="userSpaceOnUse"><stop offset="0" stop-color="#78acd3"/><stop offset="1" stop-color="#d98cbb"/></linearGradient><linearGradient id="b" x1="385.571" x2="415.571" y1="535.131" y2="535.131" gradientUnits="userSpaceOnUse"><stop offset="0" stop-color="#326e9a"/><stop offset="1" stop-color="#339993"/></linearGradient></defs><path fill="url(#a)" d="M400.573 522.378c-.44 0-.961-.258-1.158-.574l-.885-1.419c-.196-.316-.717-.573-1.157-.574l-10.201-.013c-.973-.001-1.383.467-1.397 1.502l-.006.436v19.569c0 .353 1.16 1.283 1.6 1.283h26.408c.44 0 1.6-.93 1.6-1.283v-17.644c0-.962-.4-1.283-1.6-1.283z" transform="translate(-384.571 -515.798)"/><path fill="#f2f2f2" d="M28.889 13.43c0 .663-.398 1.205-1.309 1.205H4.482c-.911 0-1.259-.542-1.259-1.205V9.815c0-.663.349-1.205 1.259-1.205H27.53c.911 0 1.358.542 1.358 1.205z"/><path fill="url(#b)" d="M413.95 526.464h-26.757c-.811 0-1.622.738-1.622 1.475v14.384c0 .976.627 1.475 1.622 1.475h26.757c.998 0 1.622-.5 1.622-1.475v-14.384c0-.738-.811-1.475-1.622-1.475" transform="translate(-384.571 -515.798)"/><path fill="#f2f2f2" d="M29.525 23.372c0 .294-.13.568-.358.753L26.612 26.2a1.36 1.36 0 0 1-1.702 0l-2.555-2.075c-.474-.371-.474-1.134 0-1.506l.762-.619-.762-.619c-.474-.371-.474-1.134 0-1.506L24.91 17.8a1.36 1.36 0 0 1 1.702 0l2.555 2.075c.474.371.474 1.134 0 1.506-.374.28-.794-.238-.444-.546a.266.266 0 0 0 0-.414l-2.555-2.075a.65.65 0 0 0-.815 0l-2.555 2.075a.266.266 0 0 0 0 .414l2.555 2.075a.65.65 0 0 0 .815 0l.412-.326a.352.352 0 1 1 .435.553l-.406.32a1.36 1.36 0 0 1-1.7-.002l-1.235-1.003-.876.712a.266.266 0 0 0 0 .414l2.555 2.075a.65.65 0 0 0 .815 0l2.555-2.075a.266.266 0 0 0 0-.414l-2.555-2.075a.65.65 0 0 0-.815 0l-.412.325a.352.352 0 1 1-.435-.553l.406-.32a1.36 1.36 0 0 1 1.7.002l2.555 2.075a.96.96 0 0 1 .358.753z"/></svg>