<svg xmlns="http://www.w3.org/2000/svg" width="32" height="32"><defs><linearGradient id="a" x1="385.769" x2="415.377" y1="531.2" y2="531.2" gradientUnits="userSpaceOnUse"><stop offset="0" stop-color="#78acd3"/><stop offset="1" stop-color="#d98cbb"/></linearGradient><linearGradient id="b" x1="385.571" x2="415.571" y1="535.131" y2="535.131" gradientUnits="userSpaceOnUse"><stop offset="0" stop-color="#326e9a"/><stop offset="1" stop-color="#339993"/></linearGradient><path id="c" d="M409.196 537.423h-1.125a.375.375 0 0 1-.375-.375v-1.125c0-.207.168-.375.375-.375h1.125c.207 0 .375.168.375.375v1.125a.375.375 0 0 1-.375.375m-.75-.75h.375v-.375h-.375z"/></defs><path fill="url(#a)" d="M400.573 522.378c-.44 0-.961-.258-1.158-.574l-.885-1.419c-.196-.316-.717-.573-1.157-.574l-10.201-.013c-.973-.002-1.383.467-1.397 1.502l-.006.436v19.569c0 .353 1.16 1.283 1.6 1.283h26.408c.44 0 1.6-.93 1.6-1.283v-17.644c0-.962-.4-1.283-1.6-1.283z" transform="translate(-384.571 -515.798)"/><path fill="#f2f2f2" d="M28.889 13.43c0 .663-.398 1.205-1.309 1.205H4.482c-.911 0-1.259-.542-1.259-1.205V9.815c0-.663.349-1.205 1.259-1.205H27.53c.911 0 1.358.542 1.358 1.205z"/><path fill="url(#b)" d="M413.95 526.464h-26.757c-.811 0-1.622.738-1.622 1.475v14.384c0 .976.627 1.475 1.622 1.475h26.757c.998 0 1.622-.5 1.622-1.475v-14.384c0-.738-.811-1.475-1.622-1.475" transform="translate(-384.571 -515.798)"/><g fill="#f2f2f2" transform="translate(-384.571 -515.798)"><path d="M406.946 542.298c-2.082 0-3.375-1.581-3.375-4.125 0-.207.168-.375.375-.375H410a1.8 1.8 0 0 1-.053-.429c0-.955.813-1.695.848-1.726a.376.376 0 0 1 .5 0c.035.031.848.771.848 1.726l-.003.111c.995-.061 1.804.809 1.837.845a.376.376 0 0 1 0 .5c-.031.035-.77.848-1.726.848q-.366 0-.738-.155c-.729 1.566-2.676 2.78-4.566 2.78zm-2.612-3.75c.07 1.026.482 3 2.612 3 1.72 0 3.556-1.221 4.011-2.667a.377.377 0 0 1 .559-.204q.389.245.734.246c.343 0 .665-.184.883-.349-.218-.164-.539-.348-.883-.348a1.2 1.2 0 0 0-.475.111.375.375 0 0 1-.493-.493 1.2 1.2 0 0 0 .111-.475c0-.343-.185-.664-.349-.883-.164.218-.348.539-.348.883a1.3 1.3 0 0 0 .181.623.375.375 0 0 1-.329.555z"/><use href="#c"/><use x="-3.375" href="#c"/><use x="-2.25" y="-1.125" href="#c"/><use x="-2.25" href="#c"/><use x="-1.125" y="-2.25" href="#c"/><use x="-1.125" y="-1.125" href="#c"/><use x="-1.125" href="#c"/><circle cx="405.634" cy="539.486" r=".562"/></g></svg>