<svg xmlns="http://www.w3.org/2000/svg" xml:space="preserve" width="32" height="32"><defs><linearGradient id="a" x1="385.769" x2="415.377" y1="531.2" y2="531.2" gradientTransform="translate(-384.571 -515.798)" gradientUnits="userSpaceOnUse"><stop offset="0" stop-color="#78acd3"/><stop offset="1" stop-color="#d98cbb"/></linearGradient><linearGradient id="b" x1="385.571" x2="415.571" y1="535.131" y2="535.131" gradientTransform="translate(-384.571 -515.798)" gradientUnits="userSpaceOnUse"><stop offset="0" stop-color="#326e9a"/><stop offset="1" stop-color="#339993"/></linearGradient></defs><path fill="url(#a)" d="M16.002 6.58c-.44 0-.961-.258-1.158-.574l-.885-1.419c-.196-.316-.717-.573-1.157-.574L2.601 4c-.973-.001-1.383.467-1.397 1.502l-.006.436v19.569c0 .353 1.16 1.283 1.6 1.283h26.408c.44 0 1.6-.93 1.6-1.283V7.863c0-.962-.4-1.283-1.6-1.283z" style="fill:url(#a)"/><path fill="#f2f2f2" d="M28.889 13.43c0 .663-.398 1.205-1.309 1.205H4.482c-.911 0-1.259-.542-1.259-1.205V9.815c0-.663.349-1.205 1.259-1.205H27.53c.911 0 1.358.542 1.358 1.205z"/><path fill="url(#b)" d="M29.379 10.666H2.622c-.811 0-1.622.738-1.622 1.475v14.384C1 27.501 1.627 28 2.622 28h26.757c.998 0 1.622-.5 1.622-1.475V12.141c0-.738-.811-1.475-1.622-1.475" style="fill:url(#b)"/><path d="M21.316 17.912c-.77 0-1.393.59-1.393 1.321v5.948c0 .732.622 1.321 1.393 1.321h4.174c.77 0 1.39-.589 1.39-1.32v-3.966l-3.478-3.304zm0 .66h1.39v3.305h3.48v3.304c0 .366-.31.66-.696.66h-4.174c-.385 0-.697-.294-.697-.66v-5.948q.002-.138.054-.258a.7.7 0 0 1 .643-.402m2.086.275 2.494 2.37h-2.494z" style="color:#dedede;fill:#ececec;stroke-width:.677973"/><path d="M24.316 17.453q-.271.002-.502.11l.512.486h1.186v1.125l.597.566v-1.443l2.141 2.142h-1.404l.453.43v.168h1.199v2.986a.595.595 0 0 1-.596.598h-.591l.002.598h.59c.661 0 1.193-.534 1.193-1.196V20.44l-2.987-2.986z" style="color:#dedede;fill:#ececec;stroke-width:.597433"/></svg>