<svg xmlns="http://www.w3.org/2000/svg" width="32" height="32"><defs><linearGradient id="a" x1="385.77" x2="415.621" y1="531.2" y2="531.2" gradientUnits="userSpaceOnUse"><stop offset="0" stop-color="#78acd3"/><stop offset="1" stop-color="#d98cbb"/></linearGradient><linearGradient id="b" x1="385.571" x2="415.817" y1="535.131" y2="535.131" gradientUnits="userSpaceOnUse"><stop offset="0" stop-color="#326e9a"/><stop offset="1" stop-color="#339993"/></linearGradient></defs><path fill="url(#a)" d="M400.696 522.378c-.444 0-.969-.258-1.168-.574l-.892-1.419c-.198-.316-.723-.573-1.167-.574l-10.284-.013c-.981-.001-1.394.467-1.408 1.502l-.006.436v19.569c0 .353 1.17 1.283 1.613 1.283h26.623c.444 0 1.613-.93 1.613-1.283v-17.644c0-.962-.403-1.283-1.613-1.283z" transform="translate(-384.571 -515.798)"/><path fill="#f2f2f2" d="M29.117 13.43c0 .663-.401 1.205-1.319 1.205H4.512c-.918 0-1.27-.542-1.27-1.205V9.815c0-.663.351-1.205 1.27-1.205h23.237c.918 0 1.369.542 1.369 1.205z"/><path fill="url(#b)" d="M414.182 526.464h-26.975c-.818 0-1.635.738-1.635 1.475v14.384c0 .976.632 1.475 1.635 1.475h26.975c1.006 0 1.635-.5 1.635-1.475v-14.384c0-.738-.817-1.475-1.635-1.475" transform="translate(-384.571 -515.798)"/><path fill="#f2f2f2" fill-rule="evenodd" d="M28.493 26.487h-1.968a.28.28 0 0 1-.281-.281.28.28 0 0 1 .281-.281h1.827a.703.703 0 0 0 .703-.703v-1.827a.281.281 0 1 1 .562 0v1.968c0 .621-.503 1.124-1.124 1.124m-7.589-6.184a.281.281 0 1 1 0 .562.281.281 0 1 1 0-.562m8.703 1.271a1 1 0 0 1-.015.09l-.011.042-.021.073-.011.031-.033.081-.01.02-.044.084-.065.099-.075.092a1 1 0 0 1-.087.086 1.12 1.12 0 0 1-.742.281v.014a1 1 0 0 0-.141-.014h-1.968a.703.703 0 0 0-.703.703v1.968a1 1 0 0 0 .014.141h-.014a1.12 1.12 0 0 1-.281.742l-.079.081-.088.073-.093.063-.101.054-.02.01-.081.033-.031.011-.073.021-.042.011-.089.015-.025.004a1 1 0 0 1-.122.007h-2.811a1.124 1.124 0 0 1-1.124-1.124v-2.811c0-.621.503-1.124 1.124-1.124h2.108a.703.703 0 0 0 .703-.703V18.76a.703.703 0 0 0-.703-.703h-1.968a.703.703 0 0 0-.703.703v.703a.281.281 0 1 1-.562 0v-.843c0-.621.504-1.124 1.125-1.124h2.249a1 1 0 0 1 .121.007q.013.002.027.005l.088.014.039.01.075.021.031.011.082.033.022.01.083.044.099.066.092.075c.035.032.061.059.086.087a1.12 1.12 0 0 1 .281.742h.014a1 1 0 0 0-.014.14v2.108c0 .621-.504 1.125-1.124 1.125h-2.108a.703.703 0 0 0-.703.703v2.53c0 .388.315.703.703.703h2.53a.703.703 0 0 0 .703-.703v-2.109c0-.621.503-1.124 1.124-1.124h2.108a.703.703 0 0 0 .703-.703v-2.53a.703.703 0 0 0-.703-.703h-2.389a.281.281 0 1 1 0-.562h2.53c.621 0 1.124.503 1.124 1.124v2.811a1 1 0 0 1-.007.122q0 .012-.004.025z"/></svg>