<svg xmlns="http://www.w3.org/2000/svg" xml:space="preserve" width="32" height="32"><defs><linearGradient id="a" x1="385.769" x2="415.377" y1="531.2" y2="531.2" gradientTransform="translate(-384.571 -515.798)" gradientUnits="userSpaceOnUse"><stop offset="0" stop-color="#78acd3"/><stop offset="1" stop-color="#d98cbb"/></linearGradient><linearGradient id="b" x1="385.571" x2="415.571" y1="535.131" y2="535.131" gradientTransform="translate(-384.571 -515.798)" gradientUnits="userSpaceOnUse"><stop offset="0" stop-color="#326e9a"/><stop offset="1" stop-color="#339993"/></linearGradient></defs><path fill="url(#a)" d="M16.002 6.58c-.44 0-.961-.258-1.158-.574l-.885-1.419c-.196-.316-.717-.573-1.157-.574L2.601 4c-.973-.002-1.383.467-1.397 1.502l-.006.436v19.569c0 .353 1.16 1.283 1.6 1.283h26.408c.44 0 1.6-.93 1.6-1.283V7.863c0-.962-.4-1.283-1.6-1.283z" style="fill:url(#a)"/><path fill="#f2f2f2" d="M28.889 13.43c0 .663-.398 1.205-1.309 1.205H4.482c-.911 0-1.259-.542-1.259-1.205V9.815c0-.663.349-1.205 1.259-1.205H27.53c.911 0 1.358.542 1.358 1.205z"/><path fill="url(#b)" d="M29.379 10.666H2.622c-.811 0-1.622.738-1.622 1.475v14.384C1 27.501 1.627 28 2.622 28h26.757c.998 0 1.622-.5 1.622-1.475V12.141c0-.738-.811-1.475-1.622-1.475" style="fill:url(#b)"/><path d="M25.845 17.465c-.276 0-.367.223-.367.5v6.322l-2.492-2.384c-.196-.196-.41-.272-.555-.113-.152.166-.1.374.096.57l3.058 2.951c.19.17.293.174.506.019l.014-.019h.001l3.042-2.921c.196-.196.278-.442.112-.6-.165-.158-.375-.043-.571.153l-2.476 2.344v-6.322c0-.277-.09-.5-.368-.5m-3.163 8.68c-.277 0-.5.14-.5.312 0 .173.223.313.5.313h6.327c.277 0 .5-.14.5-.313s-.223-.313-.5-.313z" style="fill:#f2f2f2;fill-opacity:1;stroke:none;stroke-width:.285195;stroke-linecap:round;stroke-linejoin:round;paint-order:stroke fill markers"/></svg>