<svg xmlns="http://www.w3.org/2000/svg" width="32" height="32"><defs><linearGradient id="a" x1="415.167" x2="385.946" y1="533.291" y2="533.291" gradientUnits="userSpaceOnUse"><stop offset="0" stop-color="#d98cbb"/><stop offset="1" stop-color="#78acd3"/></linearGradient><linearGradient id="b" x1="385.703" x2="415.571" y1="535.289" y2="535.131" gradientUnits="userSpaceOnUse"><stop offset="0" stop-color="#326e9a"/><stop offset="1" stop-color="#339993"/></linearGradient></defs><path fill="url(#a)" d="M400.573 522.378c-.44 0-.961-.258-1.158-.574l-.885-1.419c-.196-.316-.717-.573-1.157-.574l-10.201-.013c-.973-.002-1.383.467-1.397 1.502l-.006.436v19.569c0 .353 1.16 1.283 1.6 1.283h26.408c.44 0 1.6-.93 1.6-1.283v-17.644c0-.962-.4-1.283-1.6-1.283z" transform="translate(-384.571 -515.798)"/><path fill="#f2f2f2" d="M28.889 13.43c0 .663-.398 1.205-1.309 1.205H4.482c-.911 0-1.259-.542-1.259-1.205V9.815c0-.663.349-1.205 1.259-1.205H27.53c.911 0 1.358.542 1.358 1.205z"/><path fill="url(#b)" d="M413.95 526.464h-26.757c-.811 0-1.622.738-1.622 1.475v14.384c0 .976.627 1.475 1.622 1.475h26.757c.998 0 1.622-.5 1.622-1.475v-14.384c0-.738-.811-1.475-1.622-1.475" transform="translate(-384.571 -515.798)"/><path fill="#f2f2f2" fill-rule="evenodd" d="m27.346 21.47.545-.174a.29.29 0 0 1 .361.18.28.28 0 0 1-.184.354l-.545.174a.287.287 0 0 1-.361-.181.28.28 0 0 1 .184-.354zm.065 1.122.28.378a.28.28 0 0 1-.063.393.29.29 0 0 1-.4-.062l-.261-.352a.43.43 0 0 0-.35-.177.43.43 0 0 0-.341.165l-.27.364a.29.29 0 0 1-.4.062.28.28 0 0 1-.063-.393l.267-.36a1.016 1.016 0 0 1 1.399-.214q.118.087.203.196zm-.794-2.28c.158 0 .287.126.287.281v.439a.994.994 0 0 1-1.003.984 1 1 0 0 1-.298-.045l-.437-.139a.28.28 0 0 1-.184-.354.287.287 0 0 1 .361-.18l.435.139q.058.017.123.018c.238 0 .43-.189.43-.422v-.439c0-.155.128-.281.287-.281zm2.245 6.184a.63.63 0 0 1-.437-.176l-1.403-1.376c-.112-.11-.259-.135-.405-.135s-.294.025-.405.135l-1.403 1.376a.62.62 0 0 1-.437.176.616.616 0 0 1-.622-.609v-7.261c0-.621.513-1.124 1.147-1.124h3.153c.158 0 .287.126.287.281s-.128.281-.287.281h-3.153a.567.567 0 0 0-.573.562v7.071c0 .078.064.141.143.141a.14.14 0 0 0 .097-.038l1.243-1.219a1.16 1.16 0 0 1 1.622 0l1.243 1.219a.143.143 0 0 0 .239-.103v-5.666c0-.155.128-.281.287-.281s.287.126.287.281v5.856a.615.615 0 0 1-.621.609zm.191-8.011c-.158 0-.287-.126-.287-.281s.128-.281.287-.281.287.126.287.281-.128.281-.287.281"/></svg>