<svg xmlns="http://www.w3.org/2000/svg" xml:space="preserve" width="32" height="32"><defs><linearGradient id="a" x1="385.769" x2="415.377" y1="531.2" y2="531.2" gradientTransform="translate(-384.571 -515.798)" gradientUnits="userSpaceOnUse"><stop offset="0" stop-color="#78acd3"/><stop offset="1" stop-color="#d98cbb"/></linearGradient><linearGradient id="b" x1="385.571" x2="415.571" y1="535.131" y2="535.131" gradientTransform="translate(-384.571 -515.798)" gradientUnits="userSpaceOnUse"><stop offset="0" stop-color="#326e9a"/><stop offset="1" stop-color="#339993"/></linearGradient></defs><path fill="url(#a)" d="M16.002 6.58c-.44 0-.961-.258-1.158-.574l-.885-1.419c-.196-.316-.717-.573-1.157-.574L2.601 4c-.973-.002-1.383.467-1.397 1.502l-.006.436v19.569c0 .353 1.16 1.283 1.6 1.283h26.408c.44 0 1.6-.93 1.6-1.283V7.863c0-.962-.4-1.283-1.6-1.283z" style="fill:url(#a)"/><path fill="#f2f2f2" d="M28.889 13.43c0 .663-.398 1.205-1.309 1.205H4.482c-.911 0-1.259-.542-1.259-1.205V9.815c0-.663.349-1.205 1.259-1.205H27.53c.911 0 1.358.542 1.358 1.205z"/><path fill="url(#b)" d="M29.379 10.666H2.622c-.811 0-1.622.738-1.622 1.475v14.384C1 27.501 1.627 28 2.622 28h26.757c.998 0 1.622-.5 1.622-1.475V12.141c0-.738-.811-1.475-1.622-1.475" style="fill:url(#b)"/><path d="m25.046 17.476-.086.003v.001l-.021.001h-.017l-.055.004a5 5 0 0 0-.38.03l-.057.008a5 5 0 0 0-.374.068l-.09.021a5 5 0 0 0-.357.104l-.043.015a5 5 0 0 0-.386.153l-.009.004a5 5 0 0 0-.389.2l-.018.013a5 5 0 0 0-.362.236l-.008.006a5 5 0 0 0-.333.269l-.041.037a5 5 0 0 0-.282.277l-.035.04a5 5 0 0 0-.259.312l-.014.021a5 5 0 0 0-.232.344l-.034.058a5 5 0 0 0-.177.33l-.036.079a5 5 0 0 0-.144.35l-.013.039a5 5 0 0 0-.115.377l-.036.151.002.002-.01.047a5 5 0 0 0-.053.31l-.018.154a5 5 0 0 0-.023.348l-.003.096a4.51 4.51 0 0 0 2.584 4.07l.007.004a5 5 0 0 0 .219.098l.005.003a5 5 0 0 0 .348.122l.087.029a5 5 0 0 0 .304.074l.145.032a5 5 0 0 0 .29.04l.155.02a5 5 0 0 0 .364.016 5 5 0 0 0 .373-.018h.008a5 5 0 0 0 .415-.057l.032-.005h.006a5 5 0 0 0 .432-.105 4.5 4.5 0 0 0 2.059-1.287l.01-.012.114-.12v-.002l-.009.003a4.5 4.5 0 0 0 1.068-2.905 4.5 4.5 0 0 0-.148-1.122h.003l-.012-.036-.003-.008a5 5 0 0 0-.109-.35l-.024-.067a4.5 4.5 0 0 0-.62-1.13l-.017-.021-.013-.017a4.5 4.5 0 0 0-.584-.623l-.026-.023-.006-.005a5 5 0 0 0-.317-.252l-.04-.029a5 5 0 0 0-.325-.207l-.05-.03a4.5 4.5 0 0 0-2.217-.588zm0 .563.013.001c-.002.07-.013.136-.013.206 0 .556.07 1.093.192 1.612a4.2 4.2 0 0 1-2.265.972 6.5 6.5 0 0 1 1.388-2.73 4 4 0 0 1 .279-.035l.12-.015a4 4 0 0 1 .286-.01m.574.046.008.002a4 4 0 0 1 .376.075h.003a4 4 0 0 1 .376.115l.014.005a4.2 4.2 0 0 1-.682 1.101 6.6 6.6 0 0 1-.105-1.138c0-.054.008-.106.01-.16m-2.177.299a7 7 0 0 0-1.055 2.465 4.2 4.2 0 0 1-1.06-.17 4 4 0 0 1 .145-.357l.012-.023a4 4 0 0 1 .174-.33l.006-.01a4 4 0 0 1 .216-.321 4 4 0 0 1 .248-.303l.005-.006a4 4 0 0 1 .272-.27l.013-.011a4 4 0 0 1 .29-.237l.018-.012a4 4 0 0 1 .315-.208l.009-.004a4 4 0 0 1 .344-.18zm3.465.123.004.003a4 4 0 0 1 .334.2 4 4 0 0 1 .282.21l.033.026.004.004a4 4 0 0 1 .254.232l.034.03.001.004a4 4 0 0 1 .19.21l.078.09a4 4 0 0 1 .147.2l.084.12a4 4 0 0 1 .165.282l.028.048.001.003a4 4 0 0 1 .134.292l.029.064.002.006a4 4 0 0 1 .088.258l.043.127a4.77 4.77 0 0 0-2.167.91 6.5 6.5 0 0 1-.811-1.783 4.8 4.8 0 0 0 1.043-1.536m-1.511 1.936a7 7 0 0 0 .846 1.749A4.8 4.8 0 0 0 24.86 24.7a6.5 6.5 0 0 1-1.82-.594 6.5 6.5 0 0 1-.247-1.766c0-.32.031-.632.075-.94a4.76 4.76 0 0 0 2.53-.957m-4.22.77a4.6 4.6 0 0 0 1.12.195 7 7 0 0 0-.069.932c0 .473.05.934.138 1.382a6.5 6.5 0 0 1-1.199-1.03 4 4 0 0 1-.038-.283l-.016-.126a4 4 0 0 1-.012-.3 4 4 0 0 1 .02-.395 4 4 0 0 1 .057-.374m7.775.254a4 4 0 0 1 .033.375l.005.14a3.94 3.94 0 0 1-.398 1.716l-.013.03a6.6 6.6 0 0 1-1.576-1.448 4.2 4.2 0 0 1 1.949-.812m-2.374 1.177a7.2 7.2 0 0 0 1.724 1.564v.002a4 4 0 0 1-.16.209c-.682.24-1.411.38-2.176.38q-.277-.001-.546-.027a4.2 4.2 0 0 1 1.158-2.127m-5.014 1.184q.469.377 1 .67.129.394.3.767l-.003-.002a4 4 0 0 1-.299-.22l-.017-.014a4 4 0 0 1-.29-.263 4 4 0 0 1-.264-.293 4 4 0 0 1-.233-.317 4 4 0 0 1-.195-.328m1.722 1.007a7 7 0 0 0 1.498.42 5 5 0 0 0-.02.39c0 .09.007.178.012.268l-.005-.001a4 4 0 0 1-1.044-.218l-.004-.001a6 6 0 0 1-.437-.858m3.978.403-.001.002a4 4 0 0 1-.328.2l-.007.004h-.004a4 4 0 0 1-.3.147l-.074.032a4 4 0 0 1-.29.106l-.08.026a4 4 0 0 1-.273.07l-.121.028a4 4 0 0 1-.254.037 4 4 0 0 1-.188.023c-.007-.089-.016-.178-.016-.269q.002-.157.015-.313.308.029.623.031.668-.001 1.299-.124" style="color:#dedede;fill:#f2f2f2;stroke-width:.563493"/></svg>