<svg xmlns="http://www.w3.org/2000/svg" width="64" height="64"><defs><linearGradient id="a" x1="386.966" x2="446.183" y1="514.602" y2="514.602" gradientUnits="userSpaceOnUse"><stop offset="0" stop-color="#78acd3"/><stop offset="1" stop-color="#d98cbb"/></linearGradient><linearGradient id="b" x1="386.572" x2="446.572" y1="523.771" y2="523.771" gradientUnits="userSpaceOnUse"><stop offset="0" stop-color="#326e9a"/><stop offset="1" stop-color="#339993"/></linearGradient></defs><path fill="url(#a)" d="M416.575 496.958c-.88 0-1.922-.516-2.317-1.148l-1.77-2.837c-.393-.631-1.435-1.147-2.315-1.148l-20.401-.027c-1.946-.003-2.766.935-2.794 3.004l-.012.872v39.138c0 .706 2.321 2.566 3.201 2.566h52.815c.88 0 3.201-1.861 3.201-2.566v-35.288c0-1.925-.8-2.566-3.201-2.566z" transform="translate(-384.571 -483.798)"/><path fill="#f2f2f2" d="M57.779 26.859c0 1.325-.796 2.41-2.617 2.41H8.966c-1.821 0-2.519-1.084-2.519-2.41v-7.23c0-1.325.697-2.41 2.519-2.41h46.096c1.821 0 2.716 1.084 2.716 2.41z"/><path fill="url(#b)" d="M445.076 507.574h-57.009c-1.728 0-3.568 1.553-3.455 3.068l1.96 26.428c.133 1.799 1.254 2.728 3.243 2.728h53.513c1.995 0 3.11-.929 3.243-2.728l1.96-26.428c.114-1.531-1.728-3.068-3.455-3.068" transform="translate(-384.571 -483.798)"/></svg>