<svg xmlns="http://www.w3.org/2000/svg" width="32" height="32"><defs><linearGradient id="a" x1="1.197" x2="30.806" y1="15.402" y2="15.402" gradientUnits="userSpaceOnUse"><stop offset="0" stop-color="#78acd3"/><stop offset="1" stop-color="#d98cbb"/></linearGradient><linearGradient id="b" x1="1" x2="31" y1="19.333" y2="19.333" gradientUnits="userSpaceOnUse"><stop offset="0" stop-color="#326e9a"/><stop offset="1" stop-color="#339993"/></linearGradient></defs><path fill="url(#a)" d="M16.002 6.58c-.44 0-.961-.258-1.158-.574l-.885-1.419c-.196-.316-.717-.573-1.157-.574L2.6 4c-.973-.002-1.383.467-1.397 1.502l-.006.436v19.569c0 .353 1.16 1.283 1.6 1.283h26.408c.44 0 1.6-.93 1.6-1.283V7.863c0-.962-.4-1.283-1.6-1.283z"/><path fill="#f2f2f2" d="M28.889 13.43c0 .663-.398 1.205-1.309 1.205H4.483c-.911 0-1.259-.542-1.259-1.205V9.815c0-.663.349-1.205 1.259-1.205h23.048c.911 0 1.358.542 1.358 1.205z"/><path fill="url(#b)" d="M29.378 10.666H2.622c-.811 0-1.622.738-1.622 1.475v14.384C1 27.5 1.627 28 2.622 28h26.757c.998 0 1.622-.5 1.622-1.475V12.141c0-.738-.811-1.475-1.622-1.475z"/><g fill="#f2f2f2"><path fill-rule="evenodd" d="M28.215 26.5h-4.822a.32.32 0 0 1-.321-.321.32.32 0 0 1 .321-.322h4.822a.643.643 0 0 0 .643-.643v-6.429a.643.643 0 0 0-.643-.643h-6.429a.643.643 0 0 0-.643.643v6.107a.32.32 0 0 1-.321.321.32.32 0 0 1-.322-.321v-6.107c0-.71.576-1.286 1.286-1.286h6.429c.71 0 1.285.576 1.285 1.286v6.429c0 .71-.576 1.286-1.285 1.286m-6.107-.643a.322.322 0 1 1-.322.322.32.32 0 0 1 .322-.322"/><path d="M27.85 20.228h-3.644a.46.46 0 0 0-.431.307l-.757 2.181-.519-.519a.457.457 0 0 0-.78.323.45.45 0 0 0 .134.323l1.035 1.035a.455.455 0 0 0 .754-.173l.889-2.562h3.319a.458.458 0 0 0 0-.914zm0 .651h-3.412a.13.13 0 0 0-.124.088l-.92 2.651a.19.19 0 0 1-.14.126.2.2 0 0 1-.043.005.2.2 0 0 1-.137-.057l-1.035-1.035a.2.2 0 0 1-.057-.137.2.2 0 0 1 .057-.137.194.194 0 0 1 .274 0l.667.667a.13.13 0 0 0 .217-.05l.825-2.379a.195.195 0 0 1 .183-.131h3.644a.194.194 0 0 1 0 .388zm-.318.963a.45.45 0 0 0-.134-.323.46.46 0 0 0-.323-.134.45.45 0 0 0-.323.134l-.533.533-.533-.533a.46.46 0 0 0-.323-.134.45.45 0 0 0-.323.134.46.46 0 0 0-.134.323.45.45 0 0 0 .134.323l.533.533-.533.533a.46.46 0 0 0-.134.323.45.45 0 0 0 .134.323.46.46 0 0 0 .323.134.45.45 0 0 0 .323-.134l.533-.533.533.533a.46.46 0 0 0 .323.134.45.45 0 0 0 .323-.134.46.46 0 0 0 .134-.323.45.45 0 0 0-.134-.323l-.533-.533.533-.533a.46.46 0 0 0 .134-.323m-.319.137-.626.626a.13.13 0 0 0-.038.093q.001.054.038.093l.626.626a.2.2 0 0 1 .057.137.2.2 0 0 1-.057.137.2.2 0 0 1-.137.057.2.2 0 0 1-.137-.057l-.626-.626a.13.13 0 0 0-.093-.038.13.13 0 0 0-.093.038l-.626.626a.2.2 0 0 1-.137.057.2.2 0 0 1-.137-.057.2.2 0 0 1-.057-.137.2.2 0 0 1 .057-.137l.626-.626a.13.13 0 0 0 .038-.093.13.13 0 0 0-.038-.093l-.626-.626a.2.2 0 0 1-.057-.137.2.2 0 0 1 .057-.137.2.2 0 0 1 .137-.057.2.2 0 0 1 .137.057l.626.626a.13.13 0 0 0 .186 0l.626-.626a.2.2 0 0 1 .137-.057.2.2 0 0 1 .137.057.2.2 0 0 1 .057.137.2.2 0 0 1-.057.137"/><path d="M27.824 20.553h-.794c-.072 0-.131.059-.131.131s.059.131.131.131h.794c.072 0 .131-.059.131-.131s-.059-.131-.131-.131m-1.21 0h-.247c-.072 0-.131.059-.131.131s.059.131.131.131h.247c.072 0 .131-.059.131-.131s-.059-.131-.131-.131"/></g></svg>