<svg xmlns="http://www.w3.org/2000/svg" width="32" height="32"><defs><linearGradient id="a" x1="385.769" x2="415.377" y1="531.2" y2="531.2" gradientUnits="userSpaceOnUse"><stop offset="0" stop-color="#78acd3"/><stop offset="1" stop-color="#d98cbb"/></linearGradient><linearGradient id="b" x1="385.571" x2="415.571" y1="535.131" y2="535.131" gradientUnits="userSpaceOnUse"><stop offset="0" stop-color="#326e9a"/><stop offset="1" stop-color="#339993"/></linearGradient></defs><path fill="url(#a)" d="M400.573 522.378c-.44 0-.961-.258-1.158-.574l-.885-1.419c-.196-.316-.717-.573-1.157-.574l-10.201-.013c-.973-.002-1.383.467-1.397 1.502l-.006.436v19.569c0 .353 1.16 1.283 1.6 1.283h26.408c.44 0 1.6-.93 1.6-1.283v-17.644c0-.962-.4-1.283-1.6-1.283z" transform="translate(-384.571 -515.798)"/><path fill="#f2f2f2" d="M28.889 13.43c0 .663-.398 1.205-1.309 1.205H4.482c-.911 0-1.259-.542-1.259-1.205V9.815c0-.663.349-1.205 1.259-1.205H27.53c.911 0 1.358.542 1.358 1.205z"/><path fill="url(#b)" d="M413.95 526.464h-26.757c-.811 0-1.622.738-1.622 1.475v14.384c0 .976.627 1.475 1.622 1.475h26.757c.998 0 1.622-.5 1.622-1.475v-14.384c0-.738-.811-1.475-1.622-1.475" transform="translate(-384.571 -515.798)"/><g fill="#f2f2f2"><path fill-rule="evenodd" d="M20.286 19.107a.322.322 0 1 1 .643 0 .322.322 0 1 1-.643 0m1.286 0a.322.322 0 1 1 .643 0 .322.322 0 1 1-.643 0m1.286 0a.322.322 0 1 1 .643 0 .322.322 0 1 1-.643 0m6.429 1.768v4.339c0 .71-.576 1.286-1.286 1.286h-7.714c-.71 0-1.286-.576-1.286-1.286v-3.536a.322.322 0 1 1 .643 0v3.536c0 .355.288.643.643.643h7.714a.643.643 0 0 0 .643-.643v-4.179a.32.32 0 0 0-.321-.321h-8.518a.804.804 0 0 1-.804-.804v-1.125c0-.71.576-1.286 1.286-1.286h7.714c.71 0 1.286.576 1.286 1.286v.321a.322.322 0 1 1-.643 0v-.321a.643.643 0 0 0-.643-.643h-7.714a.643.643 0 0 0-.643.643v.964a.32.32 0 0 0 .321.321h8.518c.444 0 .804.36.804.804z"/><path d="m24.866 24.812-.724-1.03-.72 1.03h-.657l1.048-1.5-1.048-1.5h.657l.72 1.033.724-1.033h.657l-1.052 1.5 1.052 1.5z" image-rendering="optimizeQuality" shape-rendering="geometricPrecision" text-rendering="geometricPrecision"/></g></svg>