<svg xmlns="http://www.w3.org/2000/svg" width="32" height="32"><defs><linearGradient id="a" x1="385.769" x2="415.377" y1="531.2" y2="531.2" gradientUnits="userSpaceOnUse"><stop offset="0" stop-color="#78acd3"/><stop offset="1" stop-color="#d98cbb"/></linearGradient><linearGradient id="b" x1="385.571" x2="415.571" y1="535.131" y2="535.131" gradientUnits="userSpaceOnUse"><stop offset="0" stop-color="#326e9a"/><stop offset="1" stop-color="#339993"/></linearGradient></defs><path fill="url(#a)" d="M400.573 522.378c-.44 0-.961-.258-1.158-.574l-.885-1.419c-.196-.316-.717-.573-1.157-.574l-10.201-.013c-.973-.001-1.383.467-1.397 1.502l-.006.436v19.569c0 .353 1.16 1.283 1.6 1.283h26.408c.44 0 1.6-.93 1.6-1.283v-17.644c0-.962-.4-1.283-1.6-1.283z" transform="translate(-384.571 -515.798)"/><path fill="#f2f2f2" d="M28.889 13.43c0 .663-.398 1.205-1.309 1.205H4.482c-.911 0-1.259-.542-1.259-1.205V9.815c0-.663.349-1.205 1.259-1.205H27.53c.911 0 1.358.542 1.358 1.205z"/><path fill="url(#b)" d="M413.95 526.464h-26.757c-.811 0-1.622.738-1.622 1.475v14.384c0 .976.627 1.475 1.622 1.475h26.757c.998 0 1.622-.5 1.622-1.475v-14.384c0-.738-.811-1.475-1.622-1.475" transform="translate(-384.571 -515.798)"/><path fill="#f2f2f2" fill-rule="evenodd" d="M25.464 20.176a.3.3 0 0 1 .098.017 5.1 5.1 0 0 1 1.862.766 1.26 1.26 0 0 1 .749-.247 1.28 1.28 0 0 1 1.275 1.285c0 .48-.262.899-.649 1.119l.012.166c0 1.774-1.998 3.212-4.461 3.212s-4.461-1.438-4.461-3.212c0-.056.008-.111.012-.166a1.29 1.29 0 0 1-.649-1.119 1.28 1.28 0 0 1 1.275-1.285 1.26 1.26 0 0 1 .749.246c.652-.448 1.491-.752 2.425-.85a.66.66 0 0 0 .555-.443l.345-1.298a.95.95 0 0 1 1.096-.612l.527.143a.91.91 0 0 1 .676.882.64.64 0 0 0 .637.648.64.64 0 0 0 .548-.965l.002-.001a.3.3 0 0 1-.043-.159.32.32 0 0 1 .319-.321c.117 0 .217.063.273.158l.002-.001c.11.19.174.41.174.646a1.28 1.28 0 0 1-1.275 1.285 1.28 1.28 0 0 1-1.275-1.285.28.28 0 0 0-.179-.259l-.511-.138a.317.317 0 0 0-.373.212l-.332 1.251c-.153.493-.574.83-1.057.891-1.855.177-3.283 1.246-3.283 2.541 0 1.419 1.712 2.57 3.824 2.57s3.824-1.151 3.824-2.57c0-1.172-1.168-2.158-2.762-2.468v-.002a.32.32 0 0 1-.265-.316.32.32 0 0 1 .319-.321zm-4.721 1.221a.6.6 0 0 0-.218-.041.64.64 0 0 0-.472 1.071c.144-.376.38-.723.69-1.03m7.901 1.03a.64.64 0 0 0-.472-1.071.6.6 0 0 0-.219.041c.31.307.546.654.691 1.03m-3.317.214c0-.342.275-.62.615-.62s.615.278.615.62-.275.62-.615.62-.615-.278-.615-.62m-3.186 0c0-.342.275-.62.615-.62s.615.278.615.62-.275.62-.615.62-.615-.278-.615-.62m3.386 1.577a.32.32 0 0 1 .255-.131.32.32 0 0 1 .319.321.3.3 0 0 1-.007.067c-.076.412-.827.735-1.745.735-.895 0-1.631-.308-1.736-.705a.3.3 0 0 1-.017-.098.32.32 0 0 1 .319-.321c.116 0 .215.063.272.156l.003-.001c.164.19.621.327 1.159.327.561 0 1.033-.149 1.178-.351zm2.009-6.074a.321.321 0 1 1 0-.642.321.321 0 1 1 0 .642"/></svg>