<svg xmlns="http://www.w3.org/2000/svg" width="32" height="32"><defs><linearGradient id="a" x1="385.769" x2="415.377" y1="531.2" y2="531.2" gradientUnits="userSpaceOnUse"><stop offset="0" stop-color="#78acd3"/><stop offset="1" stop-color="#d98cbb"/></linearGradient><linearGradient id="b" x1="385.571" x2="415.571" y1="535.131" y2="535.131" gradientUnits="userSpaceOnUse"><stop offset="0" stop-color="#326e9a"/><stop offset="1" stop-color="#339993"/></linearGradient></defs><path fill="url(#a)" d="M400.573 522.378c-.44 0-.961-.258-1.158-.574l-.885-1.419c-.196-.316-.717-.573-1.157-.574l-10.201-.013c-.973-.001-1.383.467-1.397 1.502l-.006.436v19.569c0 .353 1.16 1.283 1.6 1.283h26.408c.44 0 1.6-.93 1.6-1.283v-17.644c0-.962-.4-1.283-1.6-1.283z" transform="translate(-384.571 -515.798)"/><path fill="#f2f2f2" d="M28.889 13.43c0 .663-.398 1.205-1.309 1.205H4.482c-.911 0-1.259-.542-1.259-1.205V9.815c0-.663.349-1.205 1.259-1.205H27.53c.911 0 1.358.542 1.358 1.205z"/><path fill="url(#b)" d="M413.95 526.464h-26.757c-.811 0-1.622.738-1.622 1.475v14.384c0 .976.627 1.475 1.622 1.475h26.757c.998 0 1.622-.5 1.622-1.475v-14.384c0-.738-.811-1.475-1.622-1.475" transform="translate(-384.571 -515.798)"/><path fill="#5f9" fill-opacity=".6" d="M23.582 17.5c.251.098.462.275.618.531l1.12 1.828-.702.372 2.271.03L28 18.395l-.69.384-.639-1.023c-.105-.167-.283-.256-.513-.256zm-.596.088c-.397 0-.722.177-.92.502l-.952 1.542 1.999 1.091 1.235-2.005-.356-.559q-.362-.573-1.005-.571zm5.233 2.693-1.999 1.071 1.235 2.005h.69c.219 0 .44-.05.598-.129.335-.177.575-.549.575-.903a.97.97 0 0 0-.147-.502zm-6.437.452-2.282.04.702.374-.628 1.031a.56.56 0 0 0-.074.265c0 .089.032.187.074.256l1.309 2.113a1 1 0 0 1-.011-.157c0-.167.084-.432.189-.609l1.12-1.819.711.384zm4.144 2.092-1.171 1.838 1.171 1.838v-.756h1.226a.59.59 0 0 0 .513-.265l1.298-2.122c-.22.157-.482.235-.796.235h-2.24zm-4.291.748-.334.561a1.3 1.3 0 0 0-.179.59c0 .56.492 1.021 1.088 1.021h1.906v-2.172z"/></svg>