<svg xmlns="http://www.w3.org/2000/svg" width="32" height="32"><defs><linearGradient id="a" x1="385.769" x2="415.377" y1="531.2" y2="531.2" gradientTransform="translate(-384.571 -515.798)" gradientUnits="userSpaceOnUse"><stop offset="0" stop-color="#78acd3"/><stop offset="1" stop-color="#d98cbb"/></linearGradient><linearGradient id="b" x1="385.571" x2="415.571" y1="535.131" y2="535.131" gradientTransform="translate(-384.571 -515.798)" gradientUnits="userSpaceOnUse"><stop offset="0" stop-color="#326e9a"/><stop offset="1" stop-color="#339993"/></linearGradient></defs><path fill="url(#a)" d="M16.002 6.58c-.44 0-.961-.258-1.158-.574l-.885-1.419c-.196-.316-.717-.573-1.157-.574L2.601 4c-.973-.001-1.383.467-1.397 1.502l-.006.436v19.569c0 .353 1.16 1.283 1.6 1.283h26.408c.44 0 1.6-.93 1.6-1.283V7.863c0-.962-.4-1.283-1.6-1.283z" style="fill:url(#a)"/><path fill="#f2f2f2" d="M28.889 13.43c0 .663-.398 1.205-1.309 1.205H4.482c-.911 0-1.259-.542-1.259-1.205V9.815c0-.663.349-1.205 1.259-1.205H27.53c.911 0 1.358.542 1.358 1.205z"/><path fill="url(#b)" d="M29.379 10.666H2.622c-.811 0-1.622.738-1.622 1.475v14.384C1 27.501 1.627 28 2.622 28h26.757c.998 0 1.622-.5 1.622-1.475V12.141c0-.738-.811-1.475-1.622-1.475" style="fill:url(#b)"/><path d="M26.316 17.49a1.94 1.94 0 0 0-1.944 1.944 1.94 1.94 0 0 0 1.552 1.905 3.23 3.23 0 0 0-1.929.954 4 4 0 0 1 .603.33 2.57 2.57 0 0 1 1.718-.662 2.586 2.586 0 0 1 2.592 2.592H26.09a4 4 0 0 1 .172.648h3.295v-.648a3.23 3.23 0 0 0-2.848-3.214 1.94 1.94 0 0 0 1.552-1.905 1.94 1.94 0 0 0-1.944-1.944m0 .648c.718 0 1.296.578 1.296 1.296s-.578 1.296-1.296 1.296a1.293 1.293 0 0 1-1.296-1.296c0-.718.578-1.296 1.296-1.296m-3.888.583a1.94 1.94 0 0 0-1.944 1.944 1.94 1.94 0 0 0 1.944 1.944 1.94 1.94 0 0 0 1.944-1.944 1.94 1.94 0 0 0-1.944-1.944m0 3.888a3.233 3.233 0 0 0-3.24 3.24v.648h6.48v-.648a3.233 3.233 0 0 0-3.24-3.24m0-3.24c.718 0 1.296.578 1.296 1.296s-.578 1.296-1.296 1.296a1.293 1.293 0 0 1-1.296-1.296c0-.718.578-1.296 1.296-1.296m0 3.888a2.586 2.586 0 0 1 2.592 2.592h-5.184a2.586 2.586 0 0 1 2.592-2.592" style="fill:#f2f2f2;stroke-width:.647983"/></svg>