<svg xmlns="http://www.w3.org/2000/svg" width="32" height="32"><defs><linearGradient id="a" x1="385.769" x2="415.377" y1="531.2" y2="531.2" gradientUnits="userSpaceOnUse"><stop offset="0" stop-color="#78acd3"/><stop offset="1" stop-color="#d98cbb"/></linearGradient><linearGradient id="b" x1="385.571" x2="415.571" y1="535.131" y2="535.131" gradientUnits="userSpaceOnUse"><stop offset="0" stop-color="#326e9a"/><stop offset="1" stop-color="#339993"/></linearGradient></defs><path fill="url(#a)" d="M400.573 522.378c-.44 0-.961-.258-1.158-.574l-.885-1.419c-.196-.316-.717-.573-1.157-.574l-10.201-.013c-.973-.002-1.383.467-1.397 1.502l-.006.436v19.569c0 .353 1.16 1.283 1.6 1.283h26.408c.44 0 1.6-.93 1.6-1.283v-17.644c0-.962-.4-1.283-1.6-1.283z" transform="translate(-384.571 -515.798)"/><path fill="#f2f2f2" d="M28.889 13.43c0 .663-.398 1.205-1.309 1.205H4.482c-.911 0-1.259-.542-1.259-1.205V9.815c0-.663.349-1.205 1.259-1.205H27.53c.911 0 1.358.542 1.358 1.205z"/><path fill="url(#b)" d="M413.95 526.464h-26.757c-.811 0-1.622.738-1.622 1.475v14.384c0 .976.627 1.475 1.622 1.475h26.757c.998 0 1.622-.5 1.622-1.475v-14.384c0-.738-.811-1.475-1.622-1.475" transform="translate(-384.571 -515.798)"/><g fill="#f2f2f2"><path fill-rule="evenodd" d="M28.065 26.5h-4.822a.32.32 0 0 1-.321-.321.32.32 0 0 1 .321-.322h4.822a.643.643 0 0 0 .643-.643v-6.429a.643.643 0 0 0-.643-.643h-6.429a.643.643 0 0 0-.643.643v6.107a.32.32 0 0 1-.321.321.32.32 0 0 1-.322-.321v-6.107c0-.71.576-1.286 1.286-1.286h6.429c.71 0 1.285.576 1.285 1.286v6.429c0 .71-.576 1.286-1.285 1.286m-6.107-.643a.322.322 0 1 1-.322.322.32.32 0 0 1 .322-.322"/><path d="M27.139 19.748c-.084-.083-.236-.064-.708.301-.327.253-.732.618-1.142 1.028l-.804.867a.7.7 0 0 1 .157.117l.084.093.038.049.058.085q.046.078.076.152l.322-.281.59-.561c.409-.409.774-.815 1.028-1.143.364-.472.384-.624.301-.707M24.51 23.657c-.387.386-1.847.543-1.91.55-.045.001-.078-.02-.094-.052s-.01-.079.018-.107c.352-.353.468-.818.504-1.146.029-.272.167-.524.378-.692a.92.92 0 0 1 .686-.198.8.8 0 0 1 .272.078.5.5 0 0 1 .146.104l.071.079.032.041.051.076a1 1 0 0 1 .082.174c.138.368.058.799-.237 1.094z"/></g></svg>