<svg xmlns="http://www.w3.org/2000/svg" width="32" height="32"><defs><linearGradient id="a" x1="385.769" x2="415.377" y1="531.2" y2="531.2" gradientUnits="userSpaceOnUse"><stop offset="0" stop-color="#78acd3"/><stop offset="1" stop-color="#d98cbb"/></linearGradient><linearGradient id="b" x1="385.571" x2="415.571" y1="535.131" y2="535.131" gradientUnits="userSpaceOnUse"><stop offset="0" stop-color="#326e9a"/><stop offset="1" stop-color="#339993"/></linearGradient></defs><path fill="url(#a)" d="M400.573 522.378c-.44 0-.961-.258-1.158-.574l-.885-1.419c-.196-.316-.717-.573-1.157-.574l-10.201-.013c-.973-.001-1.383.467-1.397 1.502l-.006.436v19.569c0 .353 1.16 1.283 1.6 1.283h26.408c.44 0 1.6-.93 1.6-1.283v-17.644c0-.962-.4-1.283-1.6-1.283z" transform="translate(-384.571 -515.798)"/><path fill="#f2f2f2" d="M28.889 13.43c0 .663-.398 1.205-1.309 1.205H4.482c-.911 0-1.259-.542-1.259-1.205V9.815c0-.663.349-1.205 1.259-1.205H27.53c.911 0 1.358.542 1.358 1.205z"/><path fill="url(#b)" d="M413.95 526.464h-26.757c-.811 0-1.622.738-1.622 1.475v14.384c0 .976.627 1.475 1.622 1.475h26.757c.998 0 1.622-.5 1.622-1.475v-14.384c0-.738-.811-1.475-1.622-1.475" transform="translate(-384.571 -515.798)"/><path fill="#f2f2f2" d="M23.901 24.072c0-.158.127-.286.283-.286s.283.128.283.286-.127.286-.283.286-.283-.128-.283-.286m2.787 2.253a.9.9 0 0 1-.236.037.853.853 0 0 1-.85-.857v-1.039a.82.82 0 0 1 .545-.776c.609-.206 1.155-.724 1.155-1.333v-.572c0-.271-.11-.523-.283-.739v-.645c0-.316-.254-.424-.567-.241l-.434.253a1.7 1.7 0 0 0-.416-.057h-1.134a1.7 1.7 0 0 0-.416.057l-.434-.253c-.313-.183-.567-.074-.567.241v.645a1.18 1.18 0 0 0-.283.739v.571c0 .416.257.789.612 1.05a.28.28 0 0 1 .123.235.285.285 0 0 1-.283.286.28.28 0 0 1-.203-.088c-.479-.365-.815-.894-.815-1.484v-.572c0-.331.106-.642.283-.917v-.851c0-.631.507-.847 1.134-.482l.486.284q.182-.033.364-.034h1.134q.181.001.364.034l.486-.284c.626-.365 1.134-.149 1.134.482v.851c.177.275.283.587.283.917v.571c0 .85-.695 1.574-1.515 1.864a.29.29 0 0 0-.185.27v1.013c0 .158.127.286.283.286.024 0 .045-.007.067-.012a4 4 0 0 0 2.483-3.707c0-2.209-1.776-4-3.968-4s-3.968 1.791-3.968 4a4 4 0 0 0 2.641 3.766q.012.002.023.004a.17.17 0 1 0 0-.341c-.945-.027-.946-1.142-1.247-1.142-.157 0-.283-.128-.283-.286s.127-.286.283-.286h.141c.567 0 .486 1.143 1.276 1.143a.57.57 0 0 1 .567.571v.5a.5.5 0 0 1-.496.5q-.044-.001-.087-.012a4.56 4.56 0 0 1-3.385-4.417c0-2.525 2.03-4.571 4.534-4.571s4.534 2.047 4.534 4.571a4.57 4.57 0 0 1-2.881 4.253z"/></svg>