<svg xmlns="http://www.w3.org/2000/svg" width="32" height="32"><defs><linearGradient id="a" x1="385.769" x2="415.377" y1="531.2" y2="531.2" gradientUnits="userSpaceOnUse"><stop offset="0" stop-color="#78acd3"/><stop offset="1" stop-color="#d98cbb"/></linearGradient><linearGradient id="b" x1="385.571" x2="415.571" y1="535.131" y2="535.131" gradientUnits="userSpaceOnUse"><stop offset="0" stop-color="#326e9a"/><stop offset="1" stop-color="#339993"/></linearGradient></defs><path fill="url(#a)" d="M400.573 522.378c-.44 0-.961-.258-1.158-.574l-.885-1.419c-.196-.316-.717-.573-1.157-.574l-10.201-.013c-.973-.001-1.383.467-1.397 1.502l-.006.436v19.569c0 .353 1.16 1.283 1.6 1.283h26.408c.44 0 1.6-.93 1.6-1.283v-17.644c0-.962-.4-1.283-1.6-1.283z" transform="translate(-384.571 -515.798)"/><path fill="#f2f2f2" d="M28.889 13.43c0 .663-.398 1.205-1.309 1.205H4.482c-.911 0-1.259-.542-1.259-1.205V9.815c0-.663.349-1.205 1.259-1.205H27.53c.911 0 1.358.542 1.358 1.205z"/><path fill="url(#b)" d="M413.95 526.464h-26.757c-.811 0-1.622.738-1.622 1.475v14.384c0 .976.627 1.475 1.622 1.475h26.757c.998 0 1.622-.5 1.622-1.475v-14.384c0-.738-.811-1.475-1.622-1.475" transform="translate(-384.571 -515.798)"/><path fill="#f2f2f2" d="M28.045 22.597a.4.4 0 0 1-.162.248.34.34 0 0 1-.423-.045.43.43 0 0 1-.113-.416.45.45 0 0 1 .298-.33c.328-.094.464.273.4.543m-.201-1.042c-.203-.083-.133-1.181.053-2.513.053-.372.142-.548.243-.638.145-.127.408-.132.586-.105.204.03.4.128.548.276.131.131.146.264.101.438-.074.276-.199.541-.32.798a26 26 0 0 1-.313.612c-.604 1.096-.725 1.203-.897 1.132zm-4.1-.495a3.5 3.5 0 0 1 .004 1.52c-.096.393-.356.745-.77.863-.363.104-.785.028-1.045-.228-.426-.421-.675-1.41-.565-2.127.09-.576.391-1.315 1.053-1.347a1 1 0 0 1 .127.001c.674.063 1.042.648 1.194 1.317zm-1.219 1.198a.24.24 0 0 0 .112-.004c.126-.037.198-.172.232-.303a1.06 1.06 0 0 0-.024-.609.65.65 0 0 0-.16-.267c-.268-.253-.536.01-.582.309a.96.96 0 0 0 .158.693.46.46 0 0 0 .262.181zm2.679-.083c-.001.972.093 1.715-.322 1.804-.336.071-.325-.234-.351-.489l-.229-3.629c.027-.428.305-.689.595-.753.446-.099.922-.071 1.317.181.781.498.844 1.412.37 2.158-.259.407-1.043.702-1.38.677zm.1-2.179c-.048.008-.128.03-.151.08-.054.114-.05.84.044 1.144.016.051.048.097.097.115.177.067.337-.157.409-.291a.8.8 0 0 0 .07-.614c-.06-.191-.246-.469-.469-.434m-4.57.484c-.293.638-.779 1.145-1.452 1.396l.582 1.552c.107.28.209.587.116.863-.097.282-.476.361-.751.061-.53-.58-2.321-4.257-2.453-4.533-.112-.237-.28-.492-.276-.766.009-.413.63-.832.927-1.046.416-.299.897-.503 1.412-.505.401 0 .744.113 1.048.313a2.17 2.17 0 0 1 .91 1.356c.105.489.082.99-.064 1.311m-1.365-.698a2.05 2.05 0 0 0-.639-1.005.7.7 0 0 0-.215-.135c-.558-.189-.317.773-.226 1.015.126.34.317.77.572 1.027a.4.4 0 0 0 .198.122c.116.025.223-.059.282-.157a.7.7 0 0 0 .079-.271 1.7 1.7 0 0 0-.051-.597zm8.043 5.582c-.002.564-.337 1.127-1.073 1.127s-1.079-.555-1.079-1.121c0-.706.477-1.143 1.094-1.143.715.007 1.064.553 1.058 1.136zm-1.058-.78c-.462 0-.722.331-.724.783 0 .393.213.761.715.761s.694-.399.694-.765c.007-.38-.189-.77-.685-.779m1.367 1.619v-.47h.339l.025.294a.9.9 0 0 0 .424.114c.262 0 .535-.068.535-.331-.009-.239-.313-.288-.558-.313-.418-.044-.754-.149-.754-.632 0-.43.472-.644.824-.644.283-.007.484.038.739.25l-.002.449h-.328l-.02-.285a.8.8 0 0 0-.373-.081c-.226.001-.466.112-.466.307s.156.244.432.285c.451.062.886.167.886.662-.002.542-.496.684-.92.684-.323.001-.525-.061-.78-.29zm-2.918.104a.175.175 0 0 1-.173.178h-2.003a.175.175 0 0 1-.173-.178v-.016c0-.099.077-.178.173-.178h2.003c.096 0 .173.08.173.178z"/></svg>