<svg xmlns="http://www.w3.org/2000/svg" xml:space="preserve" width="32" height="32"><defs><linearGradient id="a" x1="385.769" x2="415.377" y1="531.2" y2="531.2" gradientUnits="userSpaceOnUse"><stop offset="0" stop-color="#78acd3"/><stop offset="1" stop-color="#d98cbb"/></linearGradient><linearGradient id="b" x1="385.571" x2="415.571" y1="535.131" y2="535.131" gradientUnits="userSpaceOnUse"><stop offset="0" stop-color="#326e9a"/><stop offset="1" stop-color="#339993"/></linearGradient></defs><path fill="url(#a)" d="M400.573 522.378c-.44 0-.961-.258-1.158-.574l-.885-1.419c-.196-.316-.717-.573-1.157-.574l-10.201-.013c-.973-.001-1.383.467-1.397 1.502l-.006.436v19.569c0 .353 1.16 1.283 1.6 1.283h26.408c.44 0 1.6-.93 1.6-1.283v-17.644c0-.962-.4-1.283-1.6-1.283z" transform="translate(-384.571 -515.798)"/><path fill="#f2f2f2" d="M28.889 13.43c0 .663-.398 1.205-1.309 1.205H4.482c-.911 0-1.259-.542-1.259-1.205V9.815c0-.663.349-1.205 1.259-1.205H27.53c.911 0 1.358.542 1.358 1.205z"/><path fill="url(#b)" d="M413.95 526.464h-26.757c-.811 0-1.622.738-1.622 1.475v14.384c0 .976.627 1.475 1.622 1.475h26.757c.998 0 1.622-.5 1.622-1.475v-14.384c0-.738-.811-1.475-1.622-1.475" transform="translate(-384.571 -515.798)"/><path d="m29.416 21.84-2.059-1.664a.353.353 0 0 0-.49 0 .33.33 0 0 0 0 .478l1.784 1.443-1.784 1.442a.33.33 0 0 0 0 .478.35.35 0 0 0 .49 0l2.06-1.664a.33.33 0 0 0 .097-.256.33.33 0 0 0-.098-.256M21.85 23.54l-1.784-1.442 1.784-1.443a.33.33 0 0 0 0-.478.35.35 0 0 0-.49 0l-2.059 1.665a.33.33 0 0 0-.098.256.33.33 0 0 0 .098.256l2.059 1.664a.35.35 0 0 0 .49 0 .33.33 0 0 0 0-.478m4.9-5.963a.347.347 0 0 0-.469.123l-4.296 8.278c-.095.161-.055.408.126.46.222.065.375.038.47-.123l4.295-8.278a.333.333 0 0 0-.125-.46" style="fill:#f2f2f2;fill-rule:evenodd;stroke:none;stroke-width:.343655"/></svg>