<svg xmlns="http://www.w3.org/2000/svg" width="32" height="32"><defs><linearGradient id="a" x1="385.769" x2="415.377" y1="531.2" y2="531.2" gradientUnits="userSpaceOnUse"><stop offset="0" stop-color="#78acd3"/><stop offset="1" stop-color="#d98cbb"/></linearGradient><linearGradient id="b" x1="385.571" x2="415.571" y1="535.131" y2="535.131" gradientUnits="userSpaceOnUse"><stop offset="0" stop-color="#326e9a"/><stop offset="1" stop-color="#339993"/></linearGradient></defs><path fill="url(#a)" d="M400.573 522.378c-.44 0-.961-.258-1.158-.574l-.885-1.419c-.196-.316-.717-.573-1.157-.574l-10.201-.013c-.973-.001-1.383.467-1.397 1.502l-.006.436v19.569c0 .353 1.16 1.283 1.6 1.283h26.408c.44 0 1.6-.93 1.6-1.283v-17.644c0-.962-.4-1.283-1.6-1.283z" transform="translate(-384.571 -515.798)"/><path fill="#f2f2f2" d="M28.889 13.43c0 .663-.398 1.205-1.309 1.205H4.482c-.911 0-1.259-.542-1.259-1.205V9.815c0-.663.349-1.205 1.259-1.205H27.53c.911 0 1.358.542 1.358 1.205z"/><path fill="url(#b)" d="M413.95 526.464h-26.757c-.811 0-1.622.738-1.622 1.475v14.384c0 .976.627 1.475 1.622 1.475h26.757c.998 0 1.622-.5 1.622-1.475v-14.384c0-.738-.811-1.475-1.622-1.475" transform="translate(-384.571 -515.798)"/><path fill="#f2f2f2" d="M23.572 19.429a1.29 1.29 0 0 0-1.286-1.286A1.29 1.29 0 0 0 21 19.429a1.28 1.28 0 0 0 .643 1.107v3.572A1.28 1.28 0 0 0 21 25.215a1.29 1.29 0 0 0 1.286 1.286 1.29 1.29 0 0 0 1.286-1.286 1.28 1.28 0 0 0-.643-1.107v-3.572a1.28 1.28 0 0 0 .643-1.107m-1.286-.643c.354 0 .643.289.643.643s-.289.643-.643.643-.643-.289-.643-.643.289-.643.643-.643m0 7.071a.644.644 0 1 1 .002-1.288.644.644 0 0 1-.002 1.288m6.429-1.75v-3.393a1.93 1.93 0 0 0-1.929-1.929h-.643v-1.286l-1.929 1.929 1.929 1.929v-1.286h.643c.355 0 .643.288.643.643v3.393a1.28 1.28 0 0 0-.603 1.43c.114.462.502.835.967.933a1.29 1.29 0 0 0 1.564-1.256 1.28 1.28 0 0 0-.643-1.107zm-.643 1.75a.643.643 0 1 1 0-1.286.643.643 0 0 1 0 1.286"/></svg>