<svg xmlns="http://www.w3.org/2000/svg" width="32" height="32"><defs><linearGradient id="a" x1="385.769" x2="415.377" y1="531.2" y2="531.2" gradientUnits="userSpaceOnUse"><stop offset="0" stop-color="#78acd3"/><stop offset="1" stop-color="#d98cbb"/></linearGradient><linearGradient id="b" x1="385.571" x2="415.571" y1="535.131" y2="535.131" gradientUnits="userSpaceOnUse"><stop offset="0" stop-color="#326e9a"/><stop offset="1" stop-color="#339993"/></linearGradient></defs><path fill="url(#a)" d="M400.573 522.378c-.44 0-.961-.258-1.158-.574l-.885-1.419c-.196-.316-.717-.573-1.157-.574l-10.201-.013c-.973-.001-1.383.467-1.397 1.502l-.006.436v19.569c0 .353 1.16 1.283 1.6 1.283h26.408c.44 0 1.6-.93 1.6-1.283v-17.644c0-.962-.4-1.283-1.6-1.283z" transform="translate(-384.571 -515.798)"/><path fill="#f2f2f2" d="M28.889 13.43c0 .663-.398 1.205-1.309 1.205H4.482c-.911 0-1.259-.542-1.259-1.205V9.815c0-.663.349-1.205 1.259-1.205H27.53c.911 0 1.358.542 1.358 1.205z"/><path fill="url(#b)" d="M413.95 526.464h-26.757c-.811 0-1.622.738-1.622 1.475v14.384c0 .976.627 1.475 1.622 1.475h26.757c.998 0 1.622-.5 1.622-1.475v-14.384c0-.738-.811-1.475-1.622-1.475" transform="translate(-384.571 -515.798)"/><path fill="#f2f2f2" stroke="#00c5c5" stroke-width=".023" d="M22.703 19.007c.205 0 .371.167.371.374s-.166.374-.371.374a1.49 1.49 0 0 0-1.483 1.495c0 .206-.166.374-.371.374s-.371-.167-.371-.374c0-1.239.996-2.243 2.225-2.243zm4.079 7.476h-6.674a2.607 2.607 0 0 1-2.596-2.617c0-.206.166-.374.371-.374s.371.167.371.374c0 1.032.83 1.869 1.854 1.869h6.674a1.86 1.86 0 0 0 1.854-1.869c0-.784-.48-1.452-1.159-1.729l.024.006a.56.56 0 0 1-.348-.52c0-.592-.457-1.072-1.034-1.113a.4.4 0 0 0-.079-.008c-.268 0-.503-.216-.634-.487a2.97 2.97 0 0 0-2.704-1.756c-1.638 0-2.966 1.339-2.966 2.991a3 3 0 0 0 .483 1.634l-.001.001a.373.373 0 0 1-.297.597.37.37 0 0 1-.335-.216 3.8 3.8 0 0 1-.355-.711l-.014-.039-.078-.239a3.8 3.8 0 0 1-.145-1.026c0-2.065 1.66-3.738 3.708-3.738 1.521 0 2.827.925 3.399 2.246a1.86 1.86 0 0 1 1.786 1.744 2.62 2.62 0 0 1 1.49 2.365 2.607 2.607 0 0 1-2.596 2.617zm-8.528-3.364c-.205 0-.371-.167-.371-.374s.166-.374.371-.374.371.167.371.374-.166.374-.371.374z"/></svg>