<svg xmlns="http://www.w3.org/2000/svg" width="32" height="32"><defs><linearGradient id="a" x1="385.769" x2="415.377" y1="531.2" y2="531.2" gradientUnits="userSpaceOnUse"><stop offset="0" stop-color="#78acd3"/><stop offset="1" stop-color="#d98cbb"/></linearGradient><linearGradient id="b" x1="385.571" x2="415.571" y1="535.131" y2="535.131" gradientUnits="userSpaceOnUse"><stop offset="0" stop-color="#326e9a"/><stop offset="1" stop-color="#339993"/></linearGradient></defs><path fill="url(#a)" d="M400.573 522.378c-.44 0-.961-.258-1.158-.574l-.885-1.419c-.196-.316-.717-.573-1.157-.574l-10.201-.013c-.973-.002-1.383.467-1.397 1.502l-.006.436v19.569c0 .353 1.16 1.283 1.6 1.283h26.408c.44 0 1.6-.93 1.6-1.283v-17.644c0-.962-.4-1.283-1.6-1.283z" transform="translate(-384.571 -515.798)"/><path fill="#f2f2f2" d="M28.889 13.43c0 .663-.398 1.205-1.309 1.205H4.482c-.911 0-1.259-.542-1.259-1.205V9.815c0-.663.349-1.205 1.259-1.205H27.53c.911 0 1.358.542 1.358 1.205z"/><path fill="url(#b)" d="M413.95 526.464h-26.757c-.811 0-1.622.738-1.622 1.475v14.384c0 .976.627 1.475 1.622 1.475h26.757c.998 0 1.622-.5 1.622-1.475v-14.384c0-.738-.811-1.475-1.622-1.475" transform="translate(-384.571 -515.798)"/><path fill="#f2f2f2" d="M23.995 22.641a.32.32 0 0 1-.319-.321v-1.928a.96.96 0 0 1 .956-.964.96.96 0 0 1 .956.964v2.571a1 1 0 0 1-.061.329l-.007.022a1 1 0 0 1-.075.15.946.946 0 0 1-.813.462.1.1 0 0 0-.036.004.32.32 0 0 0-.283.318.32.32 0 0 0 .319.321.32.32 0 0 0 .319-.321.32.32 0 0 1 .319-.321.32.32 0 0 1 .319.321.96.96 0 0 1-.956.964.96.96 0 0 1-.937-1.15 1 1 0 0 1 .042-.144l.007-.022a1 1 0 0 1 .075-.15.946.946 0 0 1 .813-.462.4.4 0 0 0 .073-.009l.022-.007a.32.32 0 0 0 .223-.305v-2.571a.32.32 0 0 0-.318-.321.32.32 0 0 0-.319.321v1.928a.32.32 0 0 1-.319.321m3.506 3.859-2.869-.003H22.72a.322.322 0 1 1 0-.643v-.005l1.912.002h2.695c1.679.01 1.766-.438.918-1.945l-2.415-4.629c-.831-1.517-1.564-1.517-2.395 0l-2.419 4.629c-.327.58-.525.868-.525 1.465a.32.32 0 0 1-.319.321.32.32 0 0 1-.319-.321v.046l-.002-.046q.003-.569.487-1.425l2.722-5.155c.948-1.724 2.194-1.724 3.141 0l2.722 5.155q1.45 2.569-1.421 2.552zm-6.055-.645a.322.322 0 1 1 0 .643.322.322 0 1 1 0-.643m1.27.643"/></svg>