<svg xmlns="http://www.w3.org/2000/svg" width="32" height="32"><defs><linearGradient id="a" x1="385.769" x2="415.377" y1="531.2" y2="531.2" gradientUnits="userSpaceOnUse"><stop offset="0" stop-color="#78acd3"/><stop offset="1" stop-color="#d98cbb"/></linearGradient><linearGradient id="b" x1="385.571" x2="415.571" y1="535.131" y2="535.131" gradientUnits="userSpaceOnUse"><stop offset="0" stop-color="#326e9a"/><stop offset="1" stop-color="#339993"/></linearGradient></defs><path fill="url(#a)" d="M400.573 522.378c-.44 0-.961-.258-1.158-.574l-.885-1.419c-.196-.316-.717-.573-1.157-.574l-10.201-.013c-.973-.002-1.383.467-1.397 1.502l-.006.436v19.569c0 .353 1.16 1.283 1.6 1.283h26.408c.44 0 1.6-.93 1.6-1.283v-17.644c0-.962-.4-1.283-1.6-1.283z" transform="translate(-384.571 -515.798)"/><path fill="#f2f2f2" d="M28.889 13.43c0 .663-.398 1.205-1.309 1.205H4.482c-.911 0-1.259-.542-1.259-1.205V9.815c0-.663.349-1.205 1.259-1.205H27.53c.911 0 1.358.542 1.358 1.205z"/><path fill="url(#b)" d="M413.95 526.464h-26.757c-.811 0-1.622.738-1.622 1.475v14.384c0 .976.627 1.475 1.622 1.475h26.757c.998 0 1.622-.5 1.622-1.475v-14.384c0-.738-.811-1.475-1.622-1.475" transform="translate(-384.571 -515.798)"/><path fill="#f95" d="M29.501 25.375c0 .621-.504 1.125-1.125 1.125h-.562a1.125 1.125 0 0 1-1.125-1.125l-.018-.41-.005-.068-.051-.381-.013-.073-.084-.375-.015-.053-.119-.376-.153-.369-.023-.052-.173-.333-.033-.057-.201-.317-.03-.042-.231-.306-.262-.294-.044-.046-.268-.253-.05-.044-.291-.232-.043-.031-.321-.214-.341-.188-.061-.031-.335-.149-.072-.029-.353-.122-.056-.016a5 5 0 0 0-1.416-.202.56.56 0 0 0-.562.562v.563c0 .311.252.562.562.562s.607.045.891.123l.257.082a3.4 3.4 0 0 1 1.129.685l.042.038.146.148.062.068.122.145.068.091.104.146.068.112.124.224.082.17.049.122.06.165.038.126.046.181.026.12.031.205.014.108.01.201q.006.057.006.117c0 .621-.504 1.125-1.125 1.125h-.563a1.125 1.125 0 0 1-1.125-1.125.563.563 0 1 0-.563.562.281.281 0 1 1 0 .562 1.125 1.125 0 1 1 1.125-1.125.56.56 0 0 0 .562.562h.563a.563.563 0 0 0 .563-.562 2.8 2.8 0 0 0-.267-1.19l-.045-.093-.066-.12-.054-.088-.071-.11-.119-.159-.076-.089-.093-.102-.079-.079-.106-.096-.069-.06-.185-.139-.057-.036-.152-.092-.08-.043-.149-.072-.074-.033-.229-.083-.029-.008-.214-.055-.082-.016-.178-.027-.077-.009-.26-.013a1.125 1.125 0 0 1-1.125-1.125v-.563c0-.621.504-1.125 1.125-1.125l.272.007.099.007.18.014.093.011.178.023.105.017.149.027.119.025.154.036.102.026.15.043.108.033.137.046.118.042.116.046.126.051.106.048.264.128.081.042.135.076.087.05.138.086.075.048.131.09.084.06.118.088.081.064.123.101.064.055.13.116.041.039c.398.377.741.811 1.015 1.29l.01.018.106.196.013.025.099.203.1.229q.234.573.339 1.198a5.7 5.7 0 0 1 .077.925c0 .311.252.562.562.562h.562a.56.56 0 0 0 .562-.562 7.3 7.3 0 0 0-.123-1.333l-.069-.329-.079-.309-.011-.039-.089-.291a7.3 7.3 0 0 0-1.034-2.008l-.174-.228-.034-.044-.166-.198-.049-.056-.173-.189-.049-.051-.174-.175-.066-.063-.177-.162-.066-.058-.181-.152-.085-.067-.175-.134-.089-.064-.186-.13-.041-.027-.489-.296-.026-.015-.151-.079-.156-.08-.15-.07-.153-.069-.165-.068-.157-.062-.152-.054-.18-.061-.146-.045-.183-.052-.158-.041-.178-.041-.163-.034-.188-.034-.154-.025-.225-.028-.122-.014-.255-.019-.106-.007-.084-.002v-.004a.281.281 0 0 1-.196-.48.28.28 0 0 1 .218-.079 7.874 7.874 0 0 1 7.574 7.867zm-8.719-7.312a.281.281 0 1 1 0-.562.281.281 0 1 1 0 .562"/></svg>