<svg xmlns="http://www.w3.org/2000/svg" width="32" height="32"><defs><linearGradient id="a" x1="385.769" x2="415.377" y1="531.2" y2="531.2" gradientUnits="userSpaceOnUse"><stop offset="0" stop-color="#78acd3"/><stop offset="1" stop-color="#d98cbb"/></linearGradient><linearGradient id="b" x1="385.571" x2="415.571" y1="535.131" y2="535.131" gradientUnits="userSpaceOnUse"><stop offset="0" stop-color="#326e9a"/><stop offset="1" stop-color="#339993"/></linearGradient></defs><path fill="url(#a)" d="M400.573 522.378c-.44 0-.961-.258-1.158-.574l-.885-1.419c-.196-.316-.717-.573-1.157-.574l-10.201-.013c-.973-.002-1.383.467-1.397 1.502l-.006.436v19.569c0 .353 1.16 1.283 1.6 1.283h26.408c.44 0 1.6-.93 1.6-1.283v-17.644c0-.962-.4-1.283-1.6-1.283z" transform="translate(-384.571 -515.798)"/><path fill="#f2f2f2" d="M28.889 13.43c0 .663-.398 1.205-1.309 1.205H4.482c-.911 0-1.259-.542-1.259-1.205V9.815c0-.663.349-1.205 1.259-1.205H27.53c.911 0 1.358.542 1.358 1.205z"/><path fill="url(#b)" d="M413.95 526.464h-26.757c-.811 0-1.622.738-1.622 1.475v14.384c0 .976.627 1.475 1.622 1.475h26.757c.998 0 1.622-.5 1.622-1.475v-14.384c0-.738-.811-1.475-1.622-1.475" transform="translate(-384.571 -515.798)"/><g fill="#f2f2f2" transform="translate(-384.571 -515.798)"><path d="M406.569 533.328c-1.067.138-2.178.579-3.202 1.267-1.035.694-1.723 1.626-1.922 2.596a3.1 3.1 0 0 0 .017 1.029 2.35 2.35 0 0 0 1.691 1.723c.315.085.875.091 1.152.012a2.2 2.2 0 0 0 .653-.317c.373-.282.659-.82.659-1.238v-.144l.067.1c.05.077.157.147.487.315.37.185.437.212.548.2.143-.012.254-.1.277-.215a1.2 1.2 0 0 0-.015-.294c-.032-.268.009-.606.088-.711.143-.197.423-.273.755-.212.402.073.612.223 1.14.814l.295.326.51.238c.592.279.694.297.837.156.128-.132.117-.253-.061-.553-.204-.341-.292-.57-.312-.802-.029-.35.023-.376.647-.309.682.073 1.228.047 1.793-.085.423-.1.904-.317 1.076-.485.14-.135.242-.4.233-.606a1 1 0 0 1 .032-.27c.044-.147.006-.323-.169-.802-.265-.729-.434-.911-1.079-1.158-.484-.185-1.77-.488-2.108-.497-.163-.003-.283.065-.327.188-.017.047-.044.085-.058.085s-.178-.038-.365-.085c-.91-.232-1.461-.297-2.426-.294l-.916.029zm2.184.641c.449.068.889.165 1.394.309.399.115.475.123.586.073.073-.035.163-.185.163-.27 0-.035.023-.038.14-.015 1.181.241 1.825.459 2.006.679.085.103.257.506.344.808l.044.156-.102.044c-.268.112-.7.129-1.041.044-.417-.109-.691-.25-1.184-.609-.105-.073-.257-.094-.356-.041-.07.038-.143.179-.143.282s.274.367.574.547c.525.315 1.032.47 1.548.476l.332.003-.122.053c-.446.197-1.164.276-1.893.209-.595-.056-.831-.044-1.015.053a.77.77 0 0 0-.362.444c-.047.179-.041.57.012.741.026.079.044.15.035.156-.029.029-.149-.079-.42-.388-.414-.467-.679-.667-1.082-.814-.166-.059-.242-.068-.583-.068-.502 0-.644.05-.916.315-.213.209-.297.394-.327.726l-.029.206c-.058 0-.163-.085-.175-.144a.87.87 0 0 0-.761-.7c-.117-.015-.169-.044-.327-.191-.455-.417-1.085-.564-1.613-.379-.601.209-.948.826-.799 1.414a1.08 1.08 0 0 0 .63.747c.327.156.749.118.994-.094.14-.121.26-.356.26-.509a.292.292 0 0 0-.499-.206c-.047.047-.085.109-.085.138 0 .097-.088.159-.228.159-.461 0-.674-.544-.353-.897.157-.17.332-.229.633-.215.277.012.455.094.662.303.178.176.265.356.312.629a.7.7 0 0 1-.017.394c-.16.6-.65.908-1.368.864a1.69 1.69 0 0 1-1.446-.967c-.149-.303-.19-.514-.169-.876a1.94 1.94 0 0 1 .228-.858c.426-.864 1.14-1.508 2.359-2.122.714-.359 1.432-.582 2.132-.661a12 12 0 0 1 2.024.053z"/><path d="M412.252 534.677a.51.51 0 0 0-.07.855.57.57 0 0 0 .505.041.494.494 0 0 0 .155-.77.46.46 0 0 0-.589-.126zm.481.259c.085.07.058.162-.058.212-.134.056-.321-.009-.321-.112 0-.141.248-.206.379-.1m-12.819 4.397a.8.8 0 0 0-.423.406c-.055.129-.067.206-.07.45 0 .25.012.315.067.435a.8.8 0 0 0 .172.223c.178.147.335.179.904.179.656 0 .679.009.679.315 0 .315.035.303-.948.303h-.831v.247c0 .235.003.253.079.312s.099.062.971.053c.857-.009.895-.012 1.012-.073a1 1 0 0 0 .379-.385c.064-.132.09-.72.041-.894a.63.63 0 0 0-.306-.356c-.108-.056-.178-.065-.755-.079-.627-.015-.639-.015-.694-.085a.33.33 0 0 1-.055-.2.25.25 0 0 1 .085-.217l.085-.085h1.434v-.25c0-.388.047-.367-.895-.367-.758 0-.784.003-.93.07zm6.328-.038a.96.96 0 0 0-.458.353c-.114.188-.155.464-.111.735s.146.423.359.541c.155.088.155.088.758.103.72.018.709.012.709.312 0 .315.026.306-.965.306h-.828v.235c0 .215.009.244.073.309l.07.073h1.744l.178-.091a.76.76 0 0 0 .394-.409c.05-.106.058-.194.058-.456 0-.447-.076-.614-.344-.758-.105-.059-.175-.065-.729-.079-.414-.009-.633-.026-.677-.053-.128-.073-.122-.37.012-.476.07-.056.117-.059.816-.059h.744l-.012-.238c-.009-.217-.017-.244-.09-.309l-.082-.07-.764.003-.854.029zm3.001.015a.9.9 0 0 0-.475.473c-.058.159-.061.212-.052 1.035.009.979.012.988.248 1.211.225.215.227.217 1.091.226l.779.009.082-.07c.076-.068.085-.091.093-.312l.012-.238h-.714c-.677 0-.717-.003-.79-.062s-.076-.076-.076-.309v-.247h.846c.93 0 .945-.003 1.091-.176.073-.091.076-.1.076-.523 0-.391-.006-.447-.07-.579a.87.87 0 0 0-.379-.406c-.114-.062-.157-.065-.878-.07-.618-.006-.782.003-.881.038zm1.411.641c.076.065.082.088.082.288v.215l-.647.009-.65.006v-.232c0-.217.006-.238.076-.294s.117-.062.569-.062c.475 0 .493.003.572.07zm-8.06.091c-.146.062-.163.168-.149.941.009.635.015.685.079.832.134.303.458.476.889.476.257 0 .464-.053.747-.188a1.2 1.2 0 0 1 .268-.106c.029 0 .093.059.146.132.093.126.099.129.262.132.35 0 .344.018.344-1.132v-.932l-.088-.082a.48.48 0 0 0-.452-.088c-.172.059-.19.135-.19.849v.614l-.09.076c-.088.077-.096.077-.557.077h-.467l-.085-.085-.085-.085v-1.276l-.088-.082a.44.44 0 0 0-.487-.073z"/><ellipse cx="412.556" cy="538.948" rx=".41" ry=".413"/></g></svg>