<svg xmlns="http://www.w3.org/2000/svg" width="32" height="32"><defs><linearGradient id="a" x1="1.197" x2="30.806" y1="15.402" y2="15.402" gradientUnits="userSpaceOnUse"><stop offset="0" stop-color="#78acd3"/><stop offset="1" stop-color="#d98cbb"/></linearGradient><linearGradient id="b" x1="1" x2="31" y1="19.333" y2="19.333" gradientUnits="userSpaceOnUse"><stop offset="0" stop-color="#326e9a"/><stop offset="1" stop-color="#339993"/></linearGradient></defs><path fill="url(#a)" d="M16.002 6.58c-.44 0-.961-.258-1.158-.574l-.885-1.419c-.196-.316-.717-.573-1.157-.574L2.6 4c-.973-.002-1.383.467-1.397 1.502l-.006.436v19.569c0 .353 1.16 1.283 1.6 1.283h26.408c.44 0 1.6-.93 1.6-1.283V7.863c0-.962-.4-1.283-1.6-1.283z"/><path fill="#f2f2f2" d="M28.889 13.43c0 .663-.398 1.205-1.309 1.205H4.483c-.911 0-1.259-.542-1.259-1.205V9.815c0-.663.349-1.205 1.259-1.205h23.048c.911 0 1.358.542 1.358 1.205z"/><path fill="url(#b)" d="M29.378 10.666H2.622c-.811 0-1.622.738-1.622 1.475v14.384C1 27.5 1.627 28 2.622 28h26.757c.998 0 1.622-.5 1.622-1.475V12.141c0-.738-.811-1.475-1.622-1.475z"/><path fill="#f2f2f2" d="M24.719 24.812a.281.281 0 1 1-.281.281.28.28 0 0 1 .281-.281m-.281-1.969a.28.28 0 0 1 .281-.281c.155 0 .281.126.281.281v1.125a.281.281 0 1 1-.562 0zm3.937 3.656h-6.75a1.125 1.125 0 0 1-1.125-1.125v-2.531a.28.28 0 0 1 .281-.281c.155 0 .281.126.281.281v2.391c0 .388.315.703.703.703h6.469a.703.703 0 0 0 .703-.703v-2.532a.703.703 0 0 0-.703-.703h-5.203a.844.844 0 0 1-.844-.843v-.844a2.812 2.812 0 0 1 5.625 0v.281a.28.28 0 1 1-.562 0v-.281a2.25 2.25 0 1 0-4.5 0v.703c0 .233.189.422.422.422h5.204c.622 0 1.125.503 1.125 1.125v2.813c0 .621-.503 1.125-1.125 1.125zM21.344 22a.28.28 0 0 1 0-.562.28.28 0 1 1 0 .562"/></svg>