<svg xmlns="http://www.w3.org/2000/svg" width="32" height="32"><defs><linearGradient id="a" x1="385.571" x2="415.571" y1="535.131" y2="535.131" gradientUnits="userSpaceOnUse"><stop stop-color="#b5006a"/><stop offset="1" stop-color="#c70073"/></linearGradient></defs><path fill="#ff33ab" d="M16.002 6.58c-.44 0-.961-.258-1.158-.574l-.885-1.419c-.196-.316-.717-.573-1.157-.574L2.601 4c-.973-.002-1.383.467-1.397 1.502l-.006.436v19.569c0 .353 1.16 1.283 1.6 1.283h26.408c.44 0 1.6-.93 1.6-1.283V7.863c0-.962-.4-1.283-1.6-1.283z"/><path fill="#434c5e" d="M28.889 13.43c0 .663-.398 1.205-1.309 1.205H4.483c-.911 0-1.259-.542-1.259-1.205V9.815c0-.663.349-1.205 1.259-1.205h23.048c.911 0 1.358.542 1.358 1.205z"/><path fill="url(#a)" d="M413.95 526.464h-26.757c-.811 0-1.622.738-1.622 1.475v14.384c0 .976.627 1.475 1.622 1.475h26.757c.998 0 1.622-.5 1.622-1.475v-14.384c0-.738-.811-1.475-1.622-1.475" transform="translate(-384.571 -515.798)"/><path fill="red" d="M26.443 26.453c-.491-.082-1.185-.368-1.594-.634-.94-.613-1.556-1.295-1.936-2.147-.123-.286-.195-.491-.409-1.226a4 4 0 0 0-.136-.454c-.043-.108-.045-.145-.026-.506.018-.327.082-.818.123-.857.006-.009.02-.011.032-.005q.057.036.109-.323c.019-.132.049-.27.067-.307a2 2 0 0 0 .066-.182c.043-.145.103-.257.285-.538l.186-.3q.04-.073.079-.067c.039.006.065-.027.108-.083.186-.245 1.061-.969 1.142-.945.022.007.115-.024.205-.068.164-.079.237-.098.237-.06 0 .011-.024.036-.053.055-.051.034-.05.035.029.016l.169-.033q.088-.015.075-.044c-.013-.029.01-.036.042-.044.081-.02.206-.017.206.006s-.072.055-.129.05c-.039-.003-.041 0-.012.019s.029.024.002.024q-.029.001-.02.013c.009.012.056-.008.109-.034s.148-.058.213-.071q.119-.024.118-.059c0-.03.037-.033.287-.02l.53.053c.243.038.243.038.333-.012.108-.06.283-.068.329-.015a.4.4 0 0 0 .103.071c.065.032.069.032.042 0-.052-.06 0-.058.2.006a3.1 3.1 0 0 1 1.564 1.098c.093.123.098.179.01.104l-.05-.043.038.072c.021.039.038.084.038.099s.062.124.138.243c.171.268.219.358.208.391-.005.014-.081-.08-.168-.21l-.289-.388c-.106-.125-.134-.146-.155-.12a.14.14 0 0 1-.079.04l-.052.007.052.097c.028.053.055.086.06.073.025-.071.14.022.192.156.017.043.062.133.1.198s.065.124.059.13-.041-.012-.077-.04l-.067-.05.045.075a.5.5 0 0 0 .093.112q.048.037.05.128c.002.115.072.251.109.215.058-.056.07-.021.056.162a.9.9 0 0 0 .02.318q.058.213-.026.112c-.036-.043-.036-.043-.02.002a.8.8 0 0 1 .053.292c-.014.104-.054.061-.068-.072l-.014-.13-.004.138a2.4 2.4 0 0 1-.041.326 1.1 1.1 0 0 0-.024.285c.015.101.004.105-.084.033-.036-.029-.042-.024-.067.064a.27.27 0 0 0 0 .178.4.4 0 0 1 .02.134c-.01.068-.067.089-.067.025 0-.08-.032-.052-.129.116a2.2 2.2 0 0 1-1.147.967 2.5 2.5 0 0 1-.775.151l-.281.016.139.041a.8.8 0 0 0 .34.026 2.7 2.7 0 0 0 .575-.102q.068-.025.091-.002c.037.035-.29.174-.484.205-.33.053-.771-.005-1.161-.152-.264-.1-.657-.361-.597-.397.011-.007.086.027.166.076.102.062.145.078.145.055 0-.044.015-.042.096.014.073.05.298.143.461.19.177.051.108-.011-.129-.117-.75-.336-1.062-.671-1.217-1.312-.057-.235.004-.749.108-.911a.3.3 0 0 0 .048-.112c0-.089.155-.325.314-.477a1.2 1.2 0 0 1 .95-.364c.183.008.261.024.413.082.173.066.39.204.323.205a.7.7 0 0 1-.152-.049c-.104-.041-.17-.05-.405-.051-.33-.001-.492.044-.727.202-.333.225-.519.484-.584.817a1.1 1.1 0 0 0-.011.507c.02.128.034.165.059.156s.033.003.033.031c0 .079.179.4.304.544.3.345.784.566 1.244.566.239 0 .431-.044.609-.139l.2-.103a.75.75 0 0 0 .32-.287c.055-.08.115-.146.133-.146.027 0 .026.011-.006.062-.105.166.141-.136.268-.329l.142-.217-.016-.142c-.015-.137-.012-.145.055-.214s.072-.086.079-.263c.007-.158.002-.191-.027-.191s-.038-.042-.05-.18c-.016-.183-.171-.8-.207-.821a.5.5 0 0 1-.067-.132c-.088-.223-.243-.437-.484-.67a2.9 2.9 0 0 0-1.196-.71c-.351-.098-.947-.062-1.372.082-.207.07-.411.163-.446.203-.016.018-.038.027-.05.02s-.009-.028.008-.048c.078-.091-.181.075-.348.222l-.192.168c-.005.003.015 0 .044-.007.048-.012.05-.009.024.037-.017.029-.102.083-.208.129a.9.9 0 0 0-.383.283c-.036.048-.038.059-.01.048.02-.008.037-.002.037.01 0 .064-.061.136-.151.178-.2.093-.55.59-.738 1.047-.084.203-.082.196-.037.196s.045.052-.021.333c-.096.409-.096.396.008.972.127.701.202.936.343 1.081a.4.4 0 0 1 .08.179c.017.087.046.144.1.199s.066.08.047.087c-.037.013.079.179.185.265.053.043.093.058.136.05.094-.017.189.035.336.182.152.154.168.195.067.181-.065-.009-.067-.008-.035.039a1 1 0 0 0 .151.144c.091.073.114.105.103.14q-.024.076.136.135c.066.024.087.076.037.092-.015.005.077.096.205.203.144.12.241.186.255.173.036-.034.083-.024.084.019s.042.095.191.224c.094.082.118.092.175.077s.086-.005.16.043c.148.096.238.135.315.135s.087.021.047.091c-.021.037-.017.043.032.043.03 0 .117.02.192.045.17.056.242.06.199.011-.063-.073.003-.053.229.068.315.17.474.189 1.102.134.093-.008.123-.003.123.019s-.081.049-.229.083c-.195.045-.298.054-.698.059a4 4 0 0 1-.652-.025zm-.321-3.373a.2.2 0 0 0-.065-.046l-.065-.038.055.046c.054.045.074.055.074.038zm3.228-2.358q-.012-.026-.014.014c-.002.04.005.037.012.029s.009-.027.002-.043m-5.321-2.36q.045-.052-.009-.009a.2.2 0 0 0-.041.039q.002.027.05-.031zm.267-.208c.024-.025.037-.045.03-.045s-.031.02-.054.045-.037.045-.03.045.031-.02.054-.045m.295-.158q.114-.037.138-.014c.024.023.077.007.189-.029.091-.029.161-.056.156-.061s-.08.014-.166.041c-.119.038-.161.044-.175.023-.022-.035-.236.034-.327.105l-.063.049.067-.039c.037-.021.118-.055.181-.076zm.676-.057c.068-.019.12-.039.115-.044-.011-.01-.254.056-.254.07s.002.013.139-.026m.389-.123.094-.016-.082-.002a.3.3 0 0 0-.141.033q-.057.034-.012.018a1 1 0 0 1 .141-.033m.186-.042c.007-.011-.008-.015-.034-.009-.055.014-.062.029-.013.029.019 0 .04-.009.047-.02m.757.007c-.008-.008-.028-.008-.045-.002.039.014.053.01.045.002m-.14-.025a.2.2 0 0 0-.082 0c-.023.006-.004.01.041.01s.064-.005.041-.01m-.234-.024a1 1 0 0 0-.188 0c-.055.005-.016.009.087.009s.148-.003.1-.009zm-.306-.02c-.008-.008-.028-.008-.045-.002s-.013.012.014.014.038-.004.03-.012zm-.159 5.409c-.239-.164-.327-.249-.327-.314 0-.035.008-.063.018-.063.034 0 .433.4.424.425-.005.015-.053-.006-.115-.048m-.123-.417c-.124-.12-.164-.185-.114-.185a1.1 1.1 0 0 1 .261.287c0 .016-.002.028-.007.028a2 2 0 0 1-.141-.13zm1.372-.492c-.065-.025-.025-.072.082-.094a1.3 1.3 0 0 0 .216-.068c.058-.025.109-.041.114-.036s-.021.055-.058.111c-.067.102-.068.102-.196.101a1 1 0 0 1-.158-.013zm.703-.503c-.063-.025-.066-.066-.013-.207.045-.122.092-.145.066-.034l-.028.129-.011.056.047-.051a.36.36 0 0 0 .063-.174c.009-.068.026-.117.037-.111.029.017.026.195-.006.315-.027.104-.052.117-.155.077m-5.549-.282a.7.7 0 0 1-.015-.171c0-.098.008-.132.029-.126.035.011.055.332.021.332-.012 0-.028-.016-.036-.036zm5.641-.526c-.036-.047-.048-.085-.037-.124.021-.081.077-.07.118.025.064.146.008.215-.08.1zm-5.646-.357c-.002-.128 0-.132.059-.129.05.002.062.015.068.071.007.064-.066.19-.109.19-.009 0-.017-.059-.018-.132m6.078-2.766c.003-.201.038-.27.066-.129.019.098-.006.272-.042.301-.02.016-.026-.028-.024-.173zm-3.081-.121a1.4 1.4 0 0 1 .393-.154c.07 0-.056.082-.201.132-.162.055-.205.06-.192.023z"/></svg>