<svg xmlns="http://www.w3.org/2000/svg" width="32" height="32"><defs><linearGradient id="a" x1="385.769" x2="415.377" y1="531.2" y2="531.2" gradientUnits="userSpaceOnUse"><stop offset="0" stop-color="#78acd3"/><stop offset="1" stop-color="#d98cbb"/></linearGradient><linearGradient id="b" x1="385.571" x2="415.571" y1="535.131" y2="535.131" gradientUnits="userSpaceOnUse"><stop offset="0" stop-color="#326e9a"/><stop offset="1" stop-color="#339993"/></linearGradient></defs><path fill="url(#a)" d="M400.573 522.378c-.44 0-.961-.258-1.158-.574l-.885-1.419c-.196-.316-.717-.573-1.157-.574l-10.201-.013c-.973-.001-1.383.467-1.397 1.502l-.006.436v19.569c0 .353 1.16 1.283 1.6 1.283h26.408c.44 0 1.6-.93 1.6-1.283v-17.644c0-.962-.4-1.283-1.6-1.283z" transform="translate(-384.571 -515.798)"/><path fill="#f2f2f2" d="M28.889 13.43c0 .663-.398 1.205-1.309 1.205H4.482c-.911 0-1.259-.542-1.259-1.205V9.815c0-.663.349-1.205 1.259-1.205H27.53c.911 0 1.358.542 1.358 1.205z"/><path fill="url(#b)" d="M413.95 526.464h-26.757c-.811 0-1.622.738-1.622 1.475v14.384c0 .976.627 1.475 1.622 1.475h26.757c.998 0 1.622-.5 1.622-1.475v-14.384c0-.738-.811-1.475-1.622-1.475" transform="translate(-384.571 -515.798)"/><path fill="#f2f2f2" d="M28.108 24.765h-.343c-.19 0-.343-.155-.343-.346s.153-.346.343-.346h.343a.69.69 0 0 0 .686-.692v-1.038a.3.3 0 0 0-.013-.082q-.004-.015-.012-.03c-.008-.015-.009-.024-.015-.035a.72.72 0 0 0-.509-.358 3.4 3.4 0 0 0-1.167-.186c-.438 0-.837.072-1.14.183a.8.8 0 0 0-.389.179l-.002-.002a.3.3 0 0 1-.209.081.318.318 0 0 1-.141-.603c.186-.137.412-.254.674-.342a1.73 1.73 0 0 1-.501-1.084l-.007-.142v-1.038a1.38 1.38 0 0 1 1.373-1.384h.686a1.38 1.38 0 0 1 1.373 1.384v1.038c0 .191-.154.346-.343.346s-.343-.155-.343-.346v-1.038a.69.69 0 0 0-.686-.692h-.686a.69.69 0 0 0-.686.692v1.038c0 .573.461 1.038 1.029 1.038 1.268 0 2.304.566 2.393 1.284a1 1 0 0 1 .009.1v1.038a1.38 1.38 0 0 1-1.373 1.384zm-3.607-2.974q-.006.018-.014.036l-.001.002a.34.34 0 0 1-.307.196.344.344 0 0 1-.314-.485h-.001a1.4 1.4 0 0 0 .107-.805 1 1 0 0 0 .02-.194v-1.408a.927.927 0 0 0-.915-.939h-.915a.927.927 0 0 0-.915.939v1.408a1 1 0 0 0 .02.194 1.4 1.4 0 0 0-.02.226 1.38 1.38 0 0 0 1.373 1.384c2.188 0 3.973.789 4.105 1.784a.6.6 0 0 1 .013.118v.865a1.38 1.38 0 0 1-1.373 1.383h-5.49a1.38 1.38 0 0 1-1.373-1.383v-.865q0-.06.01-.116c.045-.349.293-.67.687-.941a.32.32 0 0 1 .206-.078.32.32 0 0 1 .171.589l.002.004c-.248.167-.39.352-.39.543v.865a.69.69 0 0 0 .686.692h5.49a.69.69 0 0 0 .686-.692v-.865c0-.669-1.536-1.21-3.431-1.21a2.04 2.04 0 0 1-1.42-.575 2.1 2.1 0 0 1-.461-.659l-.067-.174-.013-.037q-.023-.073-.039-.149l-.014-.056-.027-.175-.005-.033a2 2 0 0 1-.012-.217q0-.056.006-.113l-.006-.118v-1.614c0-.892.692-1.615 1.544-1.615h1.03c.853 0 1.544.723 1.544 1.615v1.614q0 .059-.006.118l.006.113a2.1 2.1 0 0 1-.176.831zm-3.77 1.071c0 .191-.154.346-.343.346s-.343-.155-.343-.346.153-.346.343-.346.343.155.343.346"/></svg>