<svg xmlns="http://www.w3.org/2000/svg" width="32" height="32"><defs><linearGradient id="a" x1="385.769" x2="415.377" y1="531.2" y2="531.2" gradientUnits="userSpaceOnUse"><stop offset="0" stop-color="#78acd3"/><stop offset="1" stop-color="#d98cbb"/></linearGradient><linearGradient id="b" x1="385.571" x2="415.571" y1="535.131" y2="535.131" gradientUnits="userSpaceOnUse"><stop offset="0" stop-color="#326e9a"/><stop offset="1" stop-color="#339993"/></linearGradient></defs><path fill="url(#a)" d="M400.573 522.378c-.44 0-.961-.258-1.158-.574l-.885-1.419c-.196-.316-.717-.573-1.157-.574l-10.201-.013c-.973-.002-1.383.467-1.397 1.502l-.006.436v19.569c0 .353 1.16 1.283 1.6 1.283h26.408c.44 0 1.6-.93 1.6-1.283v-17.644c0-.962-.4-1.283-1.6-1.283z" transform="translate(-384.571 -515.798)"/><path fill="#f2f2f2" d="M28.889 13.43c0 .663-.398 1.205-1.309 1.205H4.482c-.911 0-1.259-.542-1.259-1.205V9.815c0-.663.349-1.205 1.259-1.205H27.53c.911 0 1.358.542 1.358 1.205z"/><path fill="url(#b)" d="M413.95 526.464h-26.757c-.811 0-1.622.738-1.622 1.475v14.384c0 .976.627 1.475 1.622 1.475h26.757c.998 0 1.622-.5 1.622-1.475v-14.384c0-.738-.811-1.475-1.622-1.475" transform="translate(-384.571 -515.798)"/><path fill="#f2f2f2" d="m24.999 17.5-1.088 2.577c.273.29.609.627 1.154 1.009-.586-.241-.986-.483-1.284-.734l-3.28 6.148c1.426-.823 2.532-1.331 3.562-1.525a2.6 2.6 0 0 1-.068-.611l.002-.046c.023-.914.498-1.616 1.061-1.569s1.001.828.978 1.741a2.6 2.6 0 0 1-.058.491c1.019.199 2.113.706 3.52 1.518l-.762-1.41c-.372-.289-.761-.664-1.554-1.071.545.142.935.305 1.239.487l-3.424-7.006z"/></svg>