<svg xmlns="http://www.w3.org/2000/svg" xml:space="preserve" width="32" height="32"><defs><linearGradient id="a" x1="385.769" x2="415.377" y1="531.2" y2="531.2" gradientTransform="translate(-384.571 -515.798)" gradientUnits="userSpaceOnUse"><stop offset="0" stop-color="#78acd3"/><stop offset="1" stop-color="#d98cbb"/></linearGradient><linearGradient id="b" x1="385.571" x2="415.571" y1="535.131" y2="535.131" gradientTransform="translate(-384.571 -515.798)" gradientUnits="userSpaceOnUse"><stop offset="0" stop-color="#326e9a"/><stop offset="1" stop-color="#339993"/></linearGradient></defs><path fill="url(#a)" d="M16.002 6.58c-.44 0-.961-.258-1.158-.574l-.885-1.419c-.196-.316-.717-.573-1.157-.574L2.601 4c-.973-.002-1.383.467-1.397 1.502l-.006.436v19.569c0 .353 1.16 1.283 1.6 1.283h26.408c.44 0 1.6-.93 1.6-1.283V7.863c0-.962-.4-1.283-1.6-1.283z" style="fill:url(#a)"/><path fill="#f2f2f2" d="M28.889 13.43c0 .663-.398 1.205-1.309 1.205H4.482c-.911 0-1.259-.542-1.259-1.205V9.815c0-.663.349-1.205 1.259-1.205H27.53c.911 0 1.358.542 1.358 1.205z"/><path fill="url(#b)" d="M29.379 10.666H2.622c-.811 0-1.622.738-1.622 1.475v14.384C1 27.501 1.627 28 2.622 28h26.757c.998 0 1.622-.5 1.622-1.475V12.141c0-.738-.811-1.475-1.622-1.475" style="fill:url(#b)"/><path d="m29.111 17.37-4.785 1.103a.83.83 0 0 0-.58.76v5.265a1.64 1.64 0 0 0-1.176-.127c-.782.203-1.273.859-1.105 1.465s.938.945 1.72.742c.624-.162.995-.62 1.063-1.103l.012-4.479 4.635-1.09v3.434a1.65 1.65 0 0 0-1.178-.127c-.782.203-1.273.859-1.106 1.465.168.606.939.945 1.721.742.624-.162.994-.62 1.063-1.104l.02-6.476c0-.25-.096-.436-.304-.47m-.216.743v1.23l-4.633 1.089.004-1.233z" style="color:#dedede;fill:#f2f2f2;stroke-width:.579337"/></svg>