<svg xmlns="http://www.w3.org/2000/svg" width="32" height="32"><defs><linearGradient id="a" x1="385.769" x2="415.377" y1="531.2" y2="531.2" gradientUnits="userSpaceOnUse"><stop offset="0" stop-color="#78acd3"/><stop offset="1" stop-color="#d98cbb"/></linearGradient><linearGradient id="b" x1="385.571" x2="415.571" y1="535.131" y2="535.131" gradientUnits="userSpaceOnUse"><stop offset="0" stop-color="#326e9a"/><stop offset="1" stop-color="#339993"/></linearGradient></defs><path fill="url(#a)" d="M400.573 522.378c-.44 0-.961-.258-1.158-.574l-.885-1.419c-.196-.316-.717-.573-1.157-.574l-10.201-.013c-.973-.002-1.383.467-1.397 1.502l-.006.436v19.569c0 .353 1.16 1.283 1.6 1.283h26.408c.44 0 1.6-.93 1.6-1.283v-17.644c0-.962-.4-1.283-1.6-1.283z" transform="translate(-384.571 -515.798)"/><path fill="#f2f2f2" d="M28.889 13.43c0 .663-.398 1.205-1.309 1.205H4.482c-.911 0-1.259-.542-1.259-1.205V9.815c0-.663.349-1.205 1.259-1.205H27.53c.911 0 1.358.542 1.358 1.205z"/><path fill="url(#b)" d="M413.95 526.464h-26.757c-.811 0-1.622.738-1.622 1.475v14.384c0 .976.627 1.475 1.622 1.475h26.757c.998 0 1.622-.5 1.622-1.475v-14.384c0-.738-.811-1.475-1.622-1.475" transform="translate(-384.571 -515.798)"/><path fill="#f2f2f2" fill-rule="evenodd" d="M20.108 24.723a.35.35 0 0 1 0-.489l.971-.979a.34.34 0 0 1 .485 0 .35.35 0 0 1 0 .489l-.971.979a.34.34 0 0 1-.485 0m6.981 0-.971-.979a.35.35 0 0 1 0-.489.34.34 0 0 1 .485 0l.971.979a.35.35 0 0 1 0 .489.34.34 0 0 1-.485 0m1.848-5.206-4.125 3.813c-.536.54-1.405.54-1.941 0l-2.42-2.44-.155-.156-.661-.666-.002.001c-.063-.079-.152-.146-.252-.146a.344.344 0 0 0-.343.346v4.843a.69.69 0 0 0 .686.692h8.235a.69.69 0 0 0 .686-.692v-4.151c0-.191.154-.346.343-.346s.343.155.343.346v4.151a1.38 1.38 0 0 1-1.373 1.384h-8.235a1.38 1.38 0 0 1-1.373-1.384v-4.843c0-.573.461-1.038 1.03-1.038.265 0 .504.122.686.299v-.006l3.289 3.316a.68.68 0 0 0 .97 0l4.125-3.813a.69.69 0 0 0 .198-.489h-.004c0-.382-.307-.346-.686-.346h-7.206c-.189 0-.343-.155-.343-.346s.154-.346.343-.346h7.206c.629 0 1.159.19 1.321.692.117.459.014.965-.343 1.325zm-9.556-1.324c-.19 0-.343-.155-.343-.346s.154-.346.343-.346.343.155.343.346-.154.346-.343.346"/></svg>