<svg xmlns="http://www.w3.org/2000/svg" xml:space="preserve" width="32" height="32"><defs><linearGradient id="a" x1="385.769" x2="415.377" y1="531.2" y2="531.2" gradientTransform="translate(-384.571 -515.798)" gradientUnits="userSpaceOnUse"><stop offset="0" stop-color="#78acd3"/><stop offset="1" stop-color="#d98cbb"/></linearGradient><linearGradient id="b" x1="385.571" x2="415.571" y1="535.131" y2="535.131" gradientTransform="translate(-384.571 -515.798)" gradientUnits="userSpaceOnUse"><stop offset="0" stop-color="#326e9a"/><stop offset="1" stop-color="#339993"/></linearGradient></defs><path fill="url(#a)" d="M16.002 6.58c-.44 0-.961-.258-1.158-.574l-.885-1.419c-.196-.316-.717-.573-1.157-.574L2.601 4c-.973-.002-1.383.467-1.397 1.502l-.006.436v19.569c0 .353 1.16 1.283 1.6 1.283h26.408c.44 0 1.6-.93 1.6-1.283V7.863c0-.962-.4-1.283-1.6-1.283z" style="fill:url(#a)"/><path fill="#f2f2f2" d="M28.889 13.43c0 .663-.398 1.205-1.309 1.205H4.482c-.911 0-1.259-.542-1.259-1.205V9.815c0-.663.349-1.205 1.259-1.205H27.53c.911 0 1.358.542 1.358 1.205z"/><path fill="url(#b)" d="M29.379 10.666H2.622c-.811 0-1.622.738-1.622 1.475v14.384C1 27.501 1.627 28 2.622 28h26.757c.998 0 1.622-.5 1.622-1.475V12.141c0-.738-.811-1.475-1.622-1.475" style="fill:url(#b)"/><g stroke="none" style="fill:#f2f2f2;stroke:#000;stroke-width:3"><path d="M33.413 34.273c-3.309.063-6.406 1.023-9.411 3.133-.58.464-.713 1.364-.297 2.01.417.646 1.34.878 1.913.42 4.908-3.305 10.877-3.428 15.766-.302.586.435 1.503.166 1.9-.495.395-.662.235-1.556-.36-1.997-3.149-1.999-6.203-2.833-9.511-2.77M33.568 24.233a24.67 24.67 0 0 0-15.677 5.734c-.562.49-.66 1.394-.22 2.02s1.45.922 2.003.438c8.508-6.492 19.288-6.76 27.865-.17.56.477 1.57.169 2.005-.463.434-.631.326-1.535-.241-2.019-5.005-3.802-10.193-5.574-15.735-5.54" style="color:#000;fill:#f2f2f2;stroke:none;stroke-linecap:round;-inkscape-stroke:none" transform="matrix(.23417 0 0 .25186 16.506 14.215)"/><path d="M33.46 14.186c-7.748.06-15.052 2.908-21.807 8.47-.551.505-.63 1.413-.177 2.027.455.614 1.55.986 2.094.486 12.101-10.224 27.76-10.358 39.916-.309.55.491 1.644.102 2.09-.519.447-.62.357-1.527-.202-2.024-6.941-5.385-14.166-8.19-21.914-8.13M33.48 43.976c-1.337 0-2.422 1.033-2.422 2.308 0 1.276 1.085 2.31 2.422 2.31s2.423-1.034 2.423-2.31c0-1.275-1.085-2.308-2.423-2.308" style="color:#000;fill:#f2f2f2;stroke:none;stroke-linecap:round;-inkscape-stroke:none" transform="matrix(.23417 0 0 .25186 16.506 14.215)"/></g></svg>