<svg xmlns="http://www.w3.org/2000/svg" width="32" height="32"><defs><linearGradient id="a" x1="385.769" x2="415.377" y1="531.2" y2="531.2" gradientUnits="userSpaceOnUse"><stop offset="0" stop-color="#78acd3"/><stop offset="1" stop-color="#d98cbb"/></linearGradient><linearGradient id="b" x1="385.571" x2="415.571" y1="535.131" y2="535.131" gradientUnits="userSpaceOnUse"><stop offset="0" stop-color="#326e9a"/><stop offset="1" stop-color="#339993"/></linearGradient></defs><path fill="url(#a)" d="M400.573 522.378c-.44 0-.961-.258-1.158-.574l-.885-1.419c-.196-.316-.717-.573-1.157-.574l-10.201-.013c-.973-.001-1.383.467-1.397 1.502l-.006.436v19.569c0 .353 1.16 1.283 1.6 1.283h26.408c.44 0 1.6-.93 1.6-1.283v-17.644c0-.962-.4-1.283-1.6-1.283z" transform="translate(-384.571 -515.798)"/><path fill="#f2f2f2" d="M28.889 13.43c0 .663-.398 1.205-1.309 1.205H4.482c-.911 0-1.259-.542-1.259-1.205V9.815c0-.663.349-1.205 1.259-1.205H27.53c.911 0 1.358.542 1.358 1.205z"/><path fill="url(#b)" d="M413.95 526.464h-26.757c-.811 0-1.622.738-1.622 1.475v14.384c0 .976.627 1.475 1.622 1.475h26.757c.998 0 1.622-.5 1.622-1.475v-14.384c0-.738-.811-1.475-1.622-1.475" transform="translate(-384.571 -515.798)"/><path fill="#ececec" fill-rule="evenodd" d="M24.215 24.813a.28.28 0 0 1-.281.281.281.281 0 0 1 0-.562.28.28 0 0 1 .281.281m-1.125 0a.281.281 0 1 1-.562 0 .281.281 0 1 1 .562 0m1.125-5.625a.28.28 0 0 1-.281.281.281.281 0 0 1 0-.562.28.28 0 0 1 .281.281m-1.125 0a.281.281 0 1 1-.562 0 .281.281 0 1 1 .562 0m-.562 2.813a.281.281 0 1 1 .562 0 .281.281 0 1 1-.562 0m1.125 0c0-.155.126-.281.281-.281a.282.282 0 1 1 0 .563.28.28 0 0 1-.281-.281zm4.5 4.5h-5.625a1.125 1.125 0 0 1-1.125-1.125v-.844a.28.28 0 0 1 .281-.281c.155 0 .281.126.281.281v.844c0 .311.252.563.563.563h5.625a.563.563 0 0 0 .563-.563v-1.125a.563.563 0 0 0-.562-.563h-5.625a1.12 1.12 0 0 1-.744-.282 1 1 0 0 1-.153-.165l-.062-.091-.013-.022-.04-.074-.014-.03-.032-.08-.01-.028-.024-.086-.007-.028-.017-.1a1 1 0 0 1-.009-.139v-1.125a1 1 0 0 1 .007-.123l.019-.116.007-.028.024-.086.01-.027.033-.082.012-.025.041-.078.013-.021.056-.084a1.2 1.2 0 0 1 .161-.174 1.12 1.12 0 0 1 .742-.281h5.625a.563.563 0 0 0 .563-.563v-1.125a.56.56 0 0 0-.562-.562H22.53a.56.56 0 0 0-.563.562v.844a.282.282 0 1 1-.563 0v-.844c0-.621.504-1.125 1.125-1.125h5.625c.622 0 1.125.504 1.125 1.125v1.125c0 .621-.504 1.125-1.125 1.125h-5.625a.563.563 0 0 0-.563.563v1.125c0 .311.252.563.563.563h5.625c.622 0 1.125.504 1.125 1.125v1.125c0 .621-.504 1.125-1.125 1.125zm.844-3.938a.28.28 0 0 1-.281-.281v-.563c0-.155.126-.281.281-.281a.28.28 0 0 1 .281.281v.563a.28.28 0 0 1-.281.281"/></svg>