<svg xmlns="http://www.w3.org/2000/svg" width="22" height="22"><defs><linearGradient id="b" x1="-5.783" x2="-18.625" y1="23.821" y2="23.821" href="#a"/><linearGradient id="a" gradientUnits="userSpaceOnUse"><stop offset="0%" stop-color="#096b83"/><stop offset="100%" stop-color="#11c3ee"/></linearGradient><linearGradient id="c" x1="-10.453" x2="-3.667" y1="19.308" y2="19.429" href="#a"/></defs><path d="M0 0h22v22H0z" opacity=".001"/><path fill="#3b5a87" d="M4.196 1h13.607C19.574 1 21 2.445 21 4.24v13.52c0 1.795-1.426 3.24-3.196 3.24H4.196C2.426 21 1 19.555 1 17.76V4.24C1 2.445 2.426 1 4.196 1" opacity=".3"/><g image-rendering="optimizeQuality" shape-rendering="geometricPrecision" text-rendering="geometricPrecision"><path fill="url(#b)" d="M16.165 9.583q0 .924-.383 1.479c-.446 4.683-9.183-.123-12.116 7.272 1.53-10.599 11.988-5.669 12.499-8.751"/><path fill="url(#c)" fill-rule="evenodd" d="M18.333 3.667c0 .678-.191 1.171-.446 1.541-.064.986-.574 1.602-1.339 1.91-.064.308-.191.555-.319.801-.446 4.683-9.183-.185-12.116 7.272.383-2.527 1.212-4.129 2.296-5.238C9.151 2.62 17.823 6.502 18.334 3.667zm-4.4 2.65c0 .37-.064.678-.255.863-.255 2.711-5.293-.062-7.014 4.252.893-6.162 6.951-3.328 7.27-5.115z"/></g></svg>