<?xml version="1.0" encoding="UTF-8"?>
<svg version="1.1" viewBox="0 0 32 32" xmlns="http://www.w3.org/2000/svg" xmlns:xlink="http://www.w3.org/1999/xlink">
 <defs>
  <linearGradient id="c" x1="1" x2="31" y1="15" y2="15" gradientUnits="userSpaceOnUse">
   <stop stop-color="#326e9a" offset="0"/>
   <stop stop-color="#339993" offset="1"/>
  </linearGradient>
  <linearGradient id="d" x1="2" x2="28.784" y1="5.5" y2="5.356" gradientUnits="userSpaceOnUse">
   <stop stop-color="#78acd3" offset="0"/>
   <stop stop-color="#d98cbb" offset="1"/>
  </linearGradient>
 </defs>
 <path d="M2 6v3c-1 0-1 1-1 2v13c0 3 1 4 4 4h22c2.978 0 4-1 4-4V7.99 9c0-1-1-2-2-2 0-3-1-3-4-3h-9s0-2-2-2H6C2.989 2 2 3 2 6" color="#3daee9" fill="url(#c)"/>
 <g fill-rule="evenodd">
  <path d="M6 2C3 2 2 3.033 2 6v3h9l2-2h16c0-3-1-3-4-3h-9s0-2-2-2z" fill="url(#d)"/>
  <path d="m14 2 1 3h12V4H16s0-2-2-2m-1 5-2 2H2c-1 0-1 0-1 1h11z" fill="#fff" fill-opacity=".2" opacity=".01"/>
  <path d="m13 7-2 1H2v1h9zM1.738 27C2.276 27.56 3 28 5 28h22c1.852 0 2.518-.336 3.224-1z" color="#31363b" fill-opacity=".2"/>
 </g>
 <g fill="#c1b6ca" shape-rendering="auto">
  <rect transform="rotate(90)" x="17" y="-11" width="13" height="7" rx="1" ry="1.384" color-rendering="auto" fill-opacity=".50196" image-rendering="auto" style="isolation:auto;mix-blend-mode:normal"/>
  <rect transform="rotate(90)" x="17" y="-28" width="13" height="7" rx="1" ry="1.384" color-rendering="auto" fill-opacity=".50159" image-rendering="auto" style="isolation:auto;mix-blend-mode:normal"/>
  <path d="M5.059 16c-.529 0-.96.364-1.041.842A1 1 0 0 0 4 17v11c0 .554.558 1 1.252 1h4.496c.694 0 1.252-.446 1.252-1v-6.408h10V28c0 .554.558 1 1.252 1h4.496c.694 0 1.252-.446 1.252-1v-7.094a1 1 0 0 0 .059-.314V17c0-.554-.473-1-1.059-1H5.059" color-rendering="auto" image-rendering="auto" style="isolation:auto;mix-blend-mode:normal"/>
 </g>
</svg>
