<svg xmlns="http://www.w3.org/2000/svg" viewBox="0 0 32 32"><defs><linearGradient id="b" x1="6" x2="26" y1="7" y2="29" gradientUnits="userSpaceOnUse"><stop offset="0" stop-color="#2a4c76"/><stop offset="1" stop-color="#d3dae3"/></linearGradient><path id="c" d="M13 9c.554 0 1 .401 1 .9v16.2c0 .499-.446.9-1 .9s-1-.401-1-.9V9.9c0-.499.446-.9 1-.9"/></defs><linearGradient id="d" x1="6" x2="22" y1="8" y2="23.272" gradientUnits="userSpaceOnUse"><stop offset="0" stop-color="#2a4c76"/><stop offset="1" stop-color="#d3dae3"/></linearGradient><path fill="url(#b)" d="M6 7v21.083c0 .508.446.917 1 .917h18c.554 0 1-.409 1-.917V7z"/><path fill="#5284c1" d="M12 3a1 1 0 0 0-1 1v2h2v-.75a.25.25 0 0 1 .233-.25h5.535a.25.25 0 0 1 .232.25V6h2V4a1 1 0 0 0-1-1z"/><path fill="#d3dae3" d="M12.5 4a.5.5 0 0 0-.5.5V6h1v-.75a.25.25 0 0 1 .233-.25h5.535a.25.25 0 0 1 .232.25V6h1V4.5a.5.5 0 0 0-.5-.5z"/><path fill="#5284c1" d="M5 6a1 1 0 0 0-1 1v1h24V7a1 1 0 0 0-1-1z"/><g fill="#2a4c76"><use href="#c"/><use x="-5" href="#c"/><use x="6" href="#c"/><use x="11" href="#c"/></g><path fill="url(#d)" d="M6 8v1.909L26 29V8z" opacity=".2"/><path fill="#d3dae3" d="M4 8h24V7H4.053z"/><path d="M6 27v1a1 1 0 0 0 1 1h18a1 1 0 0 0 1-1v-1a1 1 0 0 1-1 1H7a1 1 0 0 1-1-1" opacity=".2"/></svg>