<svg xmlns="http://www.w3.org/2000/svg" viewBox="0 0 64 64"><defs><linearGradient id="e" x1="12" x2="52" y1="14" y2="58" href="#a"><stop offset="0" stop-color="#5284c1"/><stop offset="1" stop-color="#d3dae3"/></linearGradient><linearGradient id="j" x1="38.49" x2="49.137" y1="15.859" y2="12.639" href="#a"><stop offset="0" stop-color="#e8e8e8"/><stop offset="1" stop-color="#cecece"/></linearGradient><linearGradient id="h" x1="37.565" x2="33.105" y1="13.518" y2="15.233" href="#a"><stop offset="0" stop-color="#b9b9b9"/><stop offset="1" stop-color="#dbdbdb"/></linearGradient><linearGradient id="i" x1="23.494" x2="28.27" y1="14.193" y2="20.371" gradientTransform="matrix(1.21545 0 0 .94116 11.646 .05)" href="#b"/><linearGradient id="d" x1="30.708" x2="30.708" y1="8.483" y2="15.72" href="#a"><stop offset="0" stop-color="#2a4c76"/><stop offset="1" stop-color="#4e82bf"/></linearGradient><linearGradient id="a" gradientUnits="userSpaceOnUse"/><path id="f" d="M26 18c1.108 0 2 .803 2 1.8v32.4c0 .997-.892 1.8-2 1.8s-2-.803-2-1.8V19.8c0-.997.892-1.8 2-1.8"/></defs><linearGradient id="g" x1="28.315" x2="30.997" y1="14.872" y2="23.764" href="#b"/><linearGradient id="b" gradientUnits="userSpaceOnUse"><stop offset="0" stop-color="#292c2f"/><stop offset="1" stop-color="#292c2f" stop-opacity="0"/></linearGradient><path fill="url(#d)" d="m43 7-14 6-6-6-8 6v2l6 16 28.212-17.02-.011-1.056z"/><path fill="url(#e)" d="M12 14v42.167c0 1.016.892 1.833 2 1.833h36c1.108 0 2-.818 2-1.833V14z"/><g fill="#2a4c76"><use href="#f"/><use x="-10" href="#f"/><use x="12" href="#f"/><use x="22" href="#f"/></g><path fill="url(#g)" d="m31.11 35.866 13.38-10.625-8.605-11.856-14.09.635z" opacity=".2"/><path fill="url(#h)" d="m21.947 13.159 3.969 7.596 12-4-4-4z"/><path fill="url(#i)" d="m40.406 26.493 2.055-.339 5.674-12.07-14.596-1.314-.353.004 2.522 4.719-.688.23z" opacity=".2"/><path fill="url(#j)" d="m49.205 12.92-8 8-8.215-8.725z"/><path d="M12 55.166v1c0 1.016.892 1.834 2 1.834h36c1.108 0 2-.818 2-1.834v-1C52 56.182 51.108 57 50 57H14c-1.108 0-2-.818-2-1.834" opacity=".2"/><g fill="#5284c1"><path d="M9.343 9.042a1.996 1.996 0 0 0-1.855 2.135l.14 1.995L55.51 9.8l-.14-1.995a1.996 1.996 0 0 0-2.136-1.855z"/><path d="M22.887 2.073a1.996 1.996 0 0 0-1.855 2.135l.28 3.99 3.991-.28-.105-1.497a.5.5 0 0 1 .43-.531l11.042-.778a.5.5 0 0 1 .498.466l.105 1.496 3.99-.28-.28-3.99A1.996 1.996 0 0 0 38.846.947z"/></g><path fill="#d3dae3" d="M25.092 4.924a1 1 0 0 0-.926 1.069l.14 1.995.997-.07-.105-1.497a.5.5 0 0 1 .43-.531l11.042-.778a.5.5 0 0 1 .498.466l.105 1.496.997-.07-.14-1.995a1 1 0 0 0-1.069-.927zM7.63 13.172 55.51 9.8l-.07-.997-47.776 3.366z"/></svg>