<svg xmlns="http://www.w3.org/2000/svg" width="32" height="32" xmlns:v="https://vecta.io/nano"><defs><linearGradient id="A" x1="415.167" x2="385.946" y1="533.291" y2="533.291" gradientUnits="userSpaceOnUse"><stop offset="0" stop-color="#d98cbb"/><stop offset="1" stop-color="#78acd3"/></linearGradient><linearGradient id="B" x1="385.703" x2="415.571" y1="535.289" y2="535.131" gradientUnits="userSpaceOnUse"><stop offset="0" stop-color="#326e9a"/><stop offset="1" stop-color="#339993"/></linearGradient></defs><path fill="url(#A)" d="M400.573 522.378c-.44 0-.961-.258-1.158-.574l-.885-1.419c-.196-.316-.717-.573-1.157-.574l-10.201-.013c-.973-.002-1.383.467-1.397 1.502l-.006.436v19.569c0 .353 1.16 1.283 1.6 1.283h26.408c.44 0 1.6-.93 1.6-1.283v-17.644c0-.962-.4-1.283-1.6-1.283z" transform="translate(-384.571 -515.798)"/><path fill="#f2f2f2" d="M28.889 13.43c0 .663-.398 1.205-1.309 1.205H4.482c-.911 0-1.259-.542-1.259-1.205V9.815c0-.663.349-1.205 1.259-1.205H27.53c.911 0 1.358.542 1.358 1.205z"/><path fill="url(#B)" d="M413.95 526.464h-26.757c-.811 0-1.622.738-1.622 1.475v14.384c0 .976.627 1.475 1.622 1.475h26.757c.998 0 1.622-.5 1.622-1.475v-14.384c0-.738-.811-1.475-1.622-1.475" transform="translate(-384.571 -515.798)"/><path fill="#f2f2f2" d="M24.796 17.508a.294.294 0 0 0-.276.188l-1.101 2.857-3.053.161a.294.294 0 0 0-.171.523l2.375 1.933-.785 2.956a.294.294 0 0 0 .445.323l2.566-1.663 2.566 1.662a.294.294 0 0 0 .445-.323l-.785-2.956 2.375-1.933a.294.294 0 0 0-.171-.523l-3.053-.161-1.101-2.857a.294.294 0 0 0-.274-.188zm-.001 1.113l.895 2.322a.294.294 0 0 0 .258.188l2.481.131-1.928 1.571a.294.294 0 0 0-.099.304l.638 2.404-2.087-1.352a.294.294 0 0 0-.32 0l-2.087 1.352.638-2.404a.294.294 0 0 0-.099-.304l-1.928-1.571 2.481-.131a.294.294 0 0 0 .258-.188z"/></svg>