<svg xmlns="http://www.w3.org/2000/svg" xml:space="preserve" width="32" height="32"><defs><linearGradient id="a" x1="385.769" x2="415.377" y1="531.2" y2="531.2" gradientTransform="translate(-384.571 -515.798)" gradientUnits="userSpaceOnUse"><stop offset="0" stop-color="#78acd3"/><stop offset="1" stop-color="#d98cbb"/></linearGradient><linearGradient id="b" x1="385.571" x2="415.571" y1="535.131" y2="535.131" gradientTransform="translate(-384.571 -515.798)" gradientUnits="userSpaceOnUse"><stop offset="0" stop-color="#326e9a"/><stop offset="1" stop-color="#339993"/></linearGradient></defs><path fill="url(#a)" d="M16.002 6.58c-.44 0-.961-.258-1.158-.574l-.885-1.419c-.196-.316-.717-.573-1.157-.574L2.601 4c-.973-.002-1.383.467-1.397 1.502l-.006.436v19.569c0 .353 1.16 1.283 1.6 1.283h26.408c.44 0 1.6-.93 1.6-1.283V7.863c0-.962-.4-1.283-1.6-1.283z" style="fill:url(#a)"/><path fill="#f2f2f2" d="M28.889 13.43c0 .663-.398 1.205-1.309 1.205H4.482c-.911 0-1.259-.542-1.259-1.205V9.815c0-.663.349-1.205 1.259-1.205H27.53c.911 0 1.358.542 1.358 1.205z"/><path fill="url(#b)" d="M29.379 10.666H2.622c-.811 0-1.622.738-1.622 1.475v14.384C1 27.501 1.627 28 2.622 28h26.757c.998 0 1.622-.5 1.622-1.475V12.141c0-.738-.811-1.475-1.622-1.475" style="fill:url(#b)"/><path d="M24.893 17.47a.3.3 0 0 0-.213.089l-4.25 4.252c-.422.42.14.879.424.595l.431-.431v3.308a1.2 1.2 0 0 0 1.203 1.201h4.809a1.2 1.2 0 0 0 1.203-1.2v-3.31l.43.432c.283.284.824-.197.425-.595l-4.25-4.252a.3.3 0 0 0-.212-.088m0 .897 3.005 3.006v3.91c0 .333-.268.6-.601.6h-1.201V24.08c0-.666-.537-1.203-1.203-1.203-.667 0-1.204.537-1.204 1.203v1.803h-1.2a.6.6 0 0 1-.602-.6v-3.91zm-.006 5.172c.316-.004.633.166.64.527v1.83h-1.271v-1.83c0-.342.315-.522.63-.527" style="color:#dedede;fill:#f2f2f2;fill-opacity:1;stroke-width:.601166"/></svg>