<svg xmlns="http://www.w3.org/2000/svg" viewBox="0 0 24 24"><path d="M12 1A11 11 0 0 0 1 12a11 11 0 0 0 11 11 11 11 0 0 0 11-11A11 11 0 0 0 12 1M8.255 6.5C9.53 7.706 10.752 8.97 12 10.206c1.248-1.236 2.469-2.5 3.745-3.706L17.5 8.255C16.294 9.53 15.03 10.752 13.794 12c1.236 1.248 2.5 2.469 3.706 3.745L15.745 17.5c-1.276-1.206-2.497-2.47-3.745-3.706-1.248 1.236-2.469 2.5-3.745 3.706L6.5 15.745C7.706 14.47 8.97 13.248 10.206 12 8.97 10.752 7.706 9.531 6.5 8.255z" style="opacity:1;fill:#4d4d4d;fill-opacity:1;stroke:none"/><path d="M8.255 6.5C9.53 7.706 10.752 8.97 12 10.206c1.248-1.236 2.469-2.5 3.745-3.706L17.5 8.255C16.294 9.53 15.03 10.752 13.794 12c1.236 1.248 2.5 2.469 3.706 3.745L15.745 17.5c-1.276-1.206-2.497-2.47-3.745-3.706-1.248 1.236-2.469 2.5-3.745 3.706L6.5 15.745C7.706 14.47 8.97 13.248 10.206 12 8.97 10.752 7.706 9.531 6.5 8.255Z" style="fill:#fff"/></svg>