<svg xmlns="http://www.w3.org/2000/svg" viewBox="0 0 24 24"><path d="M12 1C5.925 1 1 5.925 1 12s4.925 11 11 11 11-4.925 11-11S18.075 1 12 1" style="opacity:1;fill:#4d4d4d;fill-opacity:1;stroke:none"/><path d="M12 15.903a1.42 1.42 0 0 0 1.42-1.42c0-.787-.64-1.418-1.42-1.418a1.42 1.42 0 0 0-1.42 1.419 1.42 1.42 0 0 0 1.42 1.42m4.258-6.388a1.42 1.42 0 0 1 1.42 1.42v7.096a1.42 1.42 0 0 1-1.42 1.42H7.742a1.42 1.42 0 0 1-1.42-1.42v-7.097c0-.787.64-1.419 1.42-1.419h.71v-1.42A3.55 3.55 0 0 1 12 4.549a3.55 3.55 0 0 1 3.548 3.549v1.42zM12 5.966a2.13 2.13 0 0 0-2.129 2.13v1.42h4.258v-1.42A2.13 2.13 0 0 0 12 5.967" style="fill:#fff"/></svg>