<svg xmlns="http://www.w3.org/2000/svg" viewBox="0 0 24 24"><path d="M12 1C5.925 1 1 5.925 1 12s4.925 11 11 11 11-4.925 11-11S18.075 1 12 1" style="opacity:1;fill:#4d4d4d;fill-opacity:1;stroke:none"/><path d="M16.258 9.516a1.42 1.42 0 0 1 1.42 1.42v7.096a1.42 1.42 0 0 1-1.42 1.42H7.742c-.788 0-1.42-.64-1.42-1.42v-7.097a1.42 1.42 0 0 1 1.42-1.419h6.387v-1.42A2.13 2.13 0 0 0 12 5.969a2.13 2.13 0 0 0-2.129 2.129h-1.42A3.55 3.55 0 0 1 12 4.548a3.55 3.55 0 0 1 3.548 3.549v1.42zM12 15.902a1.42 1.42 0 0 0 1.42-1.42A1.42 1.42 0 0 0 12 13.066a1.42 1.42 0 0 0-1.42 1.419 1.42 1.42 0 0 0 1.42 1.42" style="fill:#fff"/></svg>