<svg xmlns="http://www.w3.org/2000/svg" width="16" height="16"><rect width="16" height="16" x="-16" y="-16" fill="#4d4d4d" rx="8.002" ry="8.002" transform="scale(1 -1)rotate(90)"/><g fill="#fff" color="#5d656b"><path d="M9.414 6.586a2.5 2.5 0 0 0-.39-.318l-.734.735a1.486 1.486 0 0 1 .417 2.411l-2.121 2.121c-.594.594-1.528.594-2.121 0s-.594-1.527 0-2.12l.604-.606a3.5 3.5 0 0 1-.205-1.208L3.758 8.707a2.506 2.506 0 0 0 0 3.536 2.506 2.506 0 0 0 3.535 0l2.121-2.122a2.506 2.506 0 0 0 0-3.535" class="ColorScheme-Text"/><path d="M6.586 9.414q.18.181.39.318l.734-.735a1.486 1.486 0 0 1-.417-2.411l2.121-2.122a1.486 1.486 0 0 1 2.121 0 1.486 1.486 0 0 1 0 2.122l-.604.605c.136.39.21.798.205 1.208l1.106-1.106a2.506 2.506 0 0 0 0-3.536 2.506 2.506 0 0 0-3.535 0L6.586 5.88a2.506 2.506 0 0 0 0 3.535" class="ColorScheme-Text"/></g></svg>