<svg xmlns="http://www.w3.org/2000/svg" width="16" height="16"><path d="M8 32.25a7.75 7.75 0 1 0 0 15.5 7.75 7.75 0 0 0 0-15.5" style="display:inline;opacity:1;fill:#9b59b6;fill-opacity:1;fill-rule:evenodd;stroke:none;stroke-width:1.50122643;stroke-linecap:round;stroke-linejoin:round;stroke-miterlimit:4;stroke-dasharray:none;stroke-dashoffset:0;stroke-opacity:1" transform="translate(0 -32)"/><path d="M8.133 36c-.648 0-1.253.227-1.68.654-.426.426-.653 1.031-.653 1.68h1.333c0-.353.106-.58.263-.738.157-.157.385-.263.737-.263s.58.107.737.263.263.385.263.737c0 .306-.06.437-.14.552s-.213.222-.41.36c-.195.137-.454.295-.694.575-.241.281-.422.708-.422 1.18v.333H8.8V41c0-.194.027-.229.099-.312.072-.085.23-.195.45-.35.221-.154.505-.36.737-.692.233-.333.38-.785.38-1.313 0-.648-.227-1.253-.653-1.68-.426-.426-1.032-.653-1.68-.653m-.666 6.667V44H8.8v-1.333z" style="fill:#fff;fill-opacity:1;stroke:none" transform="translate(0 -32)"/></svg>