<svg xmlns="http://www.w3.org/2000/svg" width="32" height="32" xmlns:v="https://vecta.io/nano"><defs><linearGradient id="A" gradientUnits="userSpaceOnUse" x1="4.187" y1="4.187" x2="27.813" y2="27.813"><stop offset="0" stop-color="rgb(14.117647%,72.941176%,30.196078%)"/><stop offset="1" stop-color="rgb(11.372549%,63.921569%,26.666667%)"/></linearGradient></defs><path d="M9 1h14a8 8 0 0 1 8 8v14a8 8 0 0 1-8 8H9a8 8 0 0 1-8-8V9a8 8 0 0 1 8-8zm0 0" fill="url(#A)"/><path d="M16.055 10a1.5 1.5 0 0 1 1.258.77l7.5 13.5L25 28l-2.812-2.27L16 14.59v-4.586c.02 0 .035-.004.055-.004zm0 0" fill-rule="evenodd" fill="rgb(65.882353%,65.882353%,65.882353%)"/><path d="M15.945 10a1.5 1.5 0 0 0-1.258.77l-7.5 13.5L7 28l2.813-2.27 1.055-1.895c3.715 1.77 8.078 1.508 11.559-.691S28.008 17.117 28 13h-3c.012 3.055-1.531 5.902-4.098 7.563a8.97 8.97 0 0 1-8.574.637L16 14.59v-4.586c-.02 0-.035-.004-.055-.004zm0 0" fill="rgb(92.156863%,92.156863%,92.156863%)"/><path d="M14 4v3h-1c-.535-.012-1.051.195-1.426.574S10.988 8.465 11 9v5l3.5 3.5a2.36 2.36 0 0 0 3.164-.164L21 14V9c.012-.535-.195-1.051-.574-1.426S19.535 6.988 19 7h-1V4zm0 0" fill="rgb(27.058824%,27.058824%,27.058824%)"/><path d="M18 11a2 2 0 1 1-4 0 2 2 0 1 1 4 0zm0 0" fill="rgb(100%,100%,100%)"/></svg>