<svg xmlns="http://www.w3.org/2000/svg" width="32" height="32" xmlns:v="https://vecta.io/nano"><defs><linearGradient id="A" x1="386.571" y1="545.798" x2="414.571" y2="517.798" gradientUnits="userSpaceOnUse"><stop offset="0" stop-color="#00b7b7"/><stop offset="1" stop-color="#ab89de"/></linearGradient><linearGradient id="B" x1="-76.14" y1="-9.751" x2="-38.257" y2="37.106" gradientUnits="userSpaceOnUse"><stop offset="0" stop-color="#c6afe9"/><stop offset="1" stop-color="teal"/></linearGradient></defs><g transform="translate(-384.571 -515.798)"><rect height="28" rx="14" y="517.798" x="386.571" width="28" fill="url(#A)"/><rect width="40" x="-73.14" y="-5.751" rx="20" height="40" opacity=".094" fill="url(#B)" transform="matrix(.7 0 0 .7 437.76944 521.82376)"/><path d="M400.564 523.798l-10.785 5.195v.485l10.785 5.195 10.794-5.2v-.475zm-7.048 8.427v3.108l6.502 3.132h1.093l6.484-3.123.018-.041v-3.075l-7.048 3.395-7.048-3.395zm15.295 6.448l.841 1.125h.284l.841-1.125-.556-1.694v-6.046l-.854.431v5.615z" fill="#d8dee9"/></g></svg>