<svg xmlns="http://www.w3.org/2000/svg" width="22" height="22" xmlns:v="https://vecta.io/nano"><path d="M0 0v22h22V0z" fill="#ffffc1" fill-opacity="0" fill-rule="evenodd"/><circle cx="11" cy="11" r="11" opacity=".3" fill="#3b5a87"/><path d="M7.333 4.4a2.933 2.933 0 0 0 0 5.867 2.933 2.933 0 0 0 0-5.867zm7.333 0a2.933 2.933 0 0 0 0 5.867 2.933 2.933 0 1 0 0-5.867zm-7.333 7.333a2.933 2.933 0 1 0 0 5.867 2.933 2.933 0 1 0 0-5.867zm7.333 0a2.933 2.933 0 1 0 0 5.867 2.933 2.933 0 1 0 0-5.867z" fill="#d6dbf1" fill-rule="evenodd"/></svg>