<svg xmlns="http://www.w3.org/2000/svg" width="32" height="32" xmlns:v="https://vecta.io/nano"><defs><linearGradient id="A" x1="398.571" y1="545.798" x2="348.571" y2="503.798" gradientUnits="userSpaceOnUse"><stop offset="0" stop-color="#343b40"/><stop offset="1" stop-color="#555e63"/></linearGradient><linearGradient id="B" x1="372.571" y1="545.798" x2="372.571" y2="503.798" gradientUnits="userSpaceOnUse"><stop offset="0" stop-color="#bd8d48"/><stop offset="1" stop-color="#e8b971"/></linearGradient></defs><g transform="matrix(.666666 0 0 .666666 -232.38079 -333.8651)"><rect y="503.798" x="348.571" height="42" width="48" rx="4.406" fill="url(#A)"/><path d="M351.721 503.798c-1.568-.051-3.05 1.385-3.15 3v36c.173 1.515 1.604 2.878 3.05 3h41.951c1.765-.268 2.816-1.569 3-3.15v-35.85c.01-1.577-1.45-2.826-3-3h0-41.951zm-.15 3h42v36h-42z" fill="url(#B)"/><path d="M351.571 506.73v36.068h0 42 0V506.73h0zm1.5 1.568h39v33h-39z" fill="#aa7f41" fill-opacity=".498"/><path d="M377.071 539.798h6v1.5h-6z" fill="#007ad9"/><path d="M384.571 539.798h6v1.5h-6z" fill="#d6d6d6"/></g></svg>