<svg xmlns="http://www.w3.org/2000/svg" width="32" height="32" xmlns:v="https://vecta.io/nano"><defs><linearGradient id="A" x1="1.699" y1="-15.98" x2="29.792" y2="-15.98" gradientUnits="userSpaceOnUse"><stop offset="0" stop-color="#c5e5ff"/><stop offset="1" stop-color="#fff"/></linearGradient><filter id="B" x="-.053" y="-.05" width="1.117" height="1.114" color-interpolation-filters="sRGB"><feFlood result="A" flood-opacity=".498" flood-color="#000"/><feGaussianBlur in="SourceGraphic" stdDeviation=".5"/><feOffset dx="0.228882" dy="0.338094"/><feComposite operator="in" in="A"/><feComposite in="SourceGraphic"/></filter></defs><circle transform="rotate(90)" r="14.047" cy="-15.98" cx="15.746" fill="url(#A)"/><g transform="matrix(.892373 0 0 .892373 1.714741 1.485845)" filter="url(#B)"><path d="M25.773 16c0-5.305-4.375-9.602-9.773-9.602S6.23 10.695 6.23 16s4.375 9.602 9.77 9.602 9.773-4.297 9.773-9.602zm0 0" fill="#268cf0"/><path d="M26.75 10.316c-1.32-2.687-4.836-3.664-7.852-2.184s-4.391 4.859-3.07 7.547 4.836 3.664 7.852 2.188c3.016-1.484 4.391-4.863 3.07-7.551zm0 0" fill="#33dec2"/><path d="M21.496 22c0-3.312-2.457-6-5.496-6s-5.492 2.688-5.492 6 2.457 6 5.492 6 5.496-2.687 5.496-6zm0 0" fill="#ffbf05"/><path d="M16.172 16.316c-1.32-2.684-4.836-3.664-7.852-2.184S3.93 18.996 5.25 21.68s4.836 3.668 7.852 2.188 4.391-4.863 3.07-7.551zm0 0" fill="#fa8200"/><path d="M13.102 8.133c-3.016-1.477-6.531-.5-7.852 2.188s.055 6.063 3.07 7.547 6.531.504 7.852-2.184-.055-6.066-3.07-7.551zm0 0" fill="#fa3d2e"/><path d="M16 4c-3.172.145-5.629 2.828-5.496 6-.133 3.172 2.324 5.855 5.496 6-1.516-2.582-.383-6.02 2.539-7.676.758-.426 1.59-.707 2.453-.816A5.5 5.5 0 0 0 16 4zm0 12a5.57 5.57 0 0 0 5.227-4.148c-.172.563-.422 1.102-.742 1.602A5.37 5.37 0 0 0 16 16zm5.227-4.148l.133-.531-.133.531zm-.172-4.187l.187.547-.187-.547zm.195.57l.109.477-.109-.477zm.141.625l.055.383-.055-.383zm.078.617l.027.523-.023-.52zm.016.789l-.023.391.023-.391zm-.043.531l-.074.465.074-.465zm0 0" fill="#a342c7"/><path d="M20.57 13.445c-1.859.004-3.594.969-4.57 2.555 3.172.145 5.629 2.828 5.496 6 0 .859-.172 1.703-.504 2.492A5.53 5.53 0 0 0 26.578 22c1.516-2.582.383-6.02-2.539-7.68-1.055-.602-2.254-.902-3.469-.875zm0 0" fill="#009487"/><path d="M22.008 7.445a6.71 6.71 0 0 0-3.469.879C15.621 9.98 14.484 13.418 16 16a5.38 5.38 0 0 1 4.57-2.555 6.74 6.74 0 0 1 5.418 2.547c1.418-1.68 1.652-4.062.59-5.992a5.38 5.38 0 0 0-4.57-2.555zM16 16c.965 1.563 2.66 2.523 4.492 2.547C19.531 16.984 17.836 16.023 16 16zm0 0" fill="#02a8f3"/><path d="M16 16a4.24 4.24 0 0 0 4.492 2.547C19.531 16.984 17.836 16.023 16 16zm0 0" fill="#ffbf05"/></g></svg>