<svg xmlns="http://www.w3.org/2000/svg" width="34.133" height="34.133" viewBox="0 0 32 32" xmlns:v="https://vecta.io/nano"><defs><linearGradient id="A" x1="398.571" y1="545.798" x2="348.571" y2="503.798" gradientUnits="userSpaceOnUse"><stop offset="0" stop-color="#343b40"/><stop offset="1" stop-color="#555e63"/></linearGradient><linearGradient id="B" x1="372.571" y1="545.798" x2="372.571" y2="503.798" gradientUnits="userSpaceOnUse"><stop offset="0" stop-color="#bd8d48"/><stop offset="1" stop-color="#e8b971"/></linearGradient></defs><g transform="translate(-384.571 -515.798)"><g transform="matrix(.666666 0 0 .666666 152.19064 181.9329)"><rect y="503.798" x="348.571" height="42" width="48" ry="4.205" rx="4.222" fill="url(#A)"/><path d="M353.069 503.834c-2.96-.056-4.501 1.482-4.533 4.41l.086 33.028c-.051 3.026 1.387 4.514 4.415 4.565l38.956-.034h0c2.96.029 4.602-1.466 4.507-4.623l.074-32.875c.03-2.951-1.584-4.503-4.248-4.521h0zm-1.497 2.964h42v36h-42z" fill="url(#B)"/><g fill="#aa7f41"><rect y="544.172" x="352.864" height="1.589" width="38.891" ry=".794"/><path d="M351.571 506.73v36.068h0 42 0V506.73h0zm1.5 1.568h39v33h-39z" fill-opacity=".498"/></g></g><path d="M391.571 532.798v1 1 1 2h1 2v1h-5v1h5v2h1v-2h5v-1h-5v-1h3v-1-3-1h-1-5zm1 1h5v1h-5zm0 2h5v1h-5zm3.971-8.928l-1.471-4.072-1.434 4.072h2.905m1.398 3.928l-1.056-3.048h-3.601l-1.093 3.048h-1.074l3.467-9h1.08l3.363 9h-1.086m6.631-3.998v2.997h2.171c.655 0 1.139-.135 1.453-.404s.476-.689.476-1.248-.159-.676-.476-.942-.798-.404-1.453-.404h-2.171m0-4.001v3.013h2.22c.595 0 1.071-.111 1.36-.332s.44-.867.44-1.325-.147-.794-.44-1.019-.765-.338-1.36-.338h-2.22m-1-1.001h3.111c.928 0 1.644.193 2.146.579s.754.934.754 1.646c0 .551-.129 1.289-.386 1.614s-.635.528-1.133.609c1.247.31 1.865 1.171 1.893 2.033 0 .804-.273 1.425-.82 1.863s-1.324.657-2.333.657h-3.231v-9m2.999 11.001v8h-4v1h9v-1h-4v-5h4v-1h-4v-2z" fill="#f2f2f2"/></g></svg>