<svg xmlns="http://www.w3.org/2000/svg" width="32" height="32" xmlns:v="https://vecta.io/nano"><defs><linearGradient id="A" href="#H"><stop stop-color="#2a2c2f"/><stop offset="1" stop-color="#424649"/></linearGradient><linearGradient href="#A" id="B" y1="537.798" y2="531.798" x2="0" x1="0"/><linearGradient href="#A" id="C" y1="-531.798" y2="-521.798" x2="0" x1="0"/><linearGradient id="D" y1="541.798" y2="517.798" x2="0" href="#H"><stop stop-color="#21c9fb"/><stop offset="1" stop-color="#197cf1"/></linearGradient><linearGradient id="E" y1="522.798" x1="393.571" y2="536.798" x2="407.571" href="#H"><stop stop-color="#292c2f"/><stop offset="1" stop-opacity="0"/></linearGradient><linearGradient id="F" y1="544.798" y2="540.798" x2="0" x1="0" href="#H"><stop stop-color="#c6cdd1"/><stop offset="1" stop-color="#e0e5e7"/></linearGradient><linearGradient id="G" href="#A" y1="540.798" y2="517.798" x2="-3" x1="-3"/><linearGradient id="H" gradientUnits="userSpaceOnUse"/></defs><g transform="translate(-384.571 -515.798)"><rect width="32" x="384.571" y="517.798" height="22" rx="3" fill="url(#D)"/><path d="M384.571 534.798h32v3h-32z" fill="url(#B)"/><rect width="12" x="394.571" y="520.798" rx="6" height="12" opacity=".3" fill="#ebf9fe"/><path d="M404.571 523.698l-7 7.1 10 10h9v-5z" opacity=".2" fill="url(#E)" fill-rule="evenodd"/><rect width="10" x="395.571" y="-531.798" rx="5" height="10" transform="scale(1 -1)" fill="url(#C)"/><path d="M398.571 523.798v6l4.5-3z" fill="#fff" fill-rule="evenodd"/><path d="M384.571 520.798v17c0 2 1 3 3 3h25.876c2.124 0 3.124-1 3.124-3v-17c0-2-1-3-3-3h-26.107c-1.893 0-2.893 1-2.893 3zm1 0c0-1.496.707-2 2.012-2h26.091c1.331 0 1.896.661 1.896 2v16h-30z" fill="url(#G)"/><path d="M397.571 540.798h6v4h-6z" fill="url(#F)"/><path d="M394.571 544.798h12v1h-12z" fill="#99a1a7"/><path d="M386.571 535.798h15v1h-15z" fill="#3092df"/><path d="M400.571 535.798h14v1h-14z" fill="#1c1e20"/><path d="M399.571 535.798h1v1h-1z" fill="#daebf9"/></g></svg>