<svg xmlns="http://www.w3.org/2000/svg" width="32" height="32" xmlns:v="https://vecta.io/nano"><defs><linearGradient id="A" gradientUnits="userSpaceOnUse"><stop offset="0"/><stop offset="1" stop-opacity="0"/></linearGradient><linearGradient id="B" x1="401.912" y1="548.84" x2="348.536" y2="503.983" gradientUnits="userSpaceOnUse"><stop offset="0" stop-color="#343b40"/><stop offset="1" stop-color="#555e63"/></linearGradient><linearGradient id="C" x1="374.156" y1="548.84" x2="374.156" y2="503.982" gradientUnits="userSpaceOnUse"><stop offset="0" stop-color="#bd8d48"/><stop offset="1" stop-color="#e8b971"/></linearGradient><linearGradient href="#A" id="D" x1="648.523" y1="93.5" x2="656.405" y2="93.5" gradientTransform="matrix(1.0000001,2.4984527e-4,2.4984527e-4,1.0000001,2.4460664e-6,-2.0393362e-7)"/><linearGradient href="#A" id="E" x1="399.405" y1="539.86" x2="403.938" y2="544.393"/><linearGradient href="#A" id="F" x1="408.436" y1="529.674" x2="413.928" y2="535.166"/></defs><g transform="translate(-384.571 -515.798)"><g transform="matrix(.666139 0 0 .665806 152.39806 182.37665)"><rect y="503.798" x="348.571" height="42" width="48" ry="4.491" rx="4.508" fill="url(#B)"/><path d="M353.069 503.834c-2.96-.056-4.501 1.482-4.533 4.41l.086 33.028c-.051 3.026 1.387 4.514 4.415 4.565l38.956-.034h0c2.96.029 4.602-1.466 4.507-4.623l.074-32.875c.03-2.951-1.584-4.503-4.248-4.521h0zm-1.497 2.964h42v36h-42z" fill="url(#C)"/><g fill="#aa7f41"><rect y="544.172" x="352.864" height="1.589" width="38.891" ry=".849" rx=".848"/><path d="M351.571 506.73v36.068h0 42 0V506.73h0zm1.5 1.568h39v33h-39z" fill-opacity=".498"/></g></g><g stroke="#d6d6d6" fill="none"><ellipse transform="rotate(270)" cx="-531.312" cy="400.403" rx="7.959" ry="3.279"/><ellipse transform="matrix(-.747581 -.66417 -.747581 .66417 0 0)" cx="-667.781" cy="132.183" rx="9.708" ry="4.281" stroke-width="1.004"/><ellipse ry="3.277" rx="8.899" cy="531.313" cx="400.403"/></g><path transform="matrix(.707283 .70693 -.707283 .70693 0 0)" d="M648.767 91.53h19.056v3.729h-19.056z" opacity=".2" fill="url(#D)"/><path d="M400.686 537.398l-2.638 2.637 4.429 4.427h5.275z" opacity=".2" fill="url(#E)"/><path d="M409.094 528.012l-2.636 2.635 8.976 8.973v-5.272z" opacity=".2" fill="url(#F)"/><path d="M392.909 522.886c-1.035 0-1.874.838-1.874 1.873s.839 1.873 1.874 1.873 1.874-.838 1.874-1.873-.839-1.873-1.874-1.873z" fill="#54a3d8"/><path d="M407.897 527.567c-1.035 0-1.874.838-1.874 1.873s.839 1.873 1.874 1.873 1.873-.838 1.873-1.873-.839-1.873-1.873-1.873z" fill="#e05e4c"/><path d="M399.466 536.93c-1.035 0-1.873.838-1.873 1.873s.839 1.873 1.873 1.873 1.874-.838 1.874-1.873-.839-1.873-1.874-1.873z" fill="#ffa92d"/></g></svg>