<svg xmlns="http://www.w3.org/2000/svg" width="32" height="32" xmlns:v="https://vecta.io/nano"><defs><linearGradient id="A" y1="525.798" y2="545.798" x2="0" href="#I"><stop stop-color="#a82936"/><stop offset="1" stop-color="#da4453"/></linearGradient><linearGradient id="B" y1="528.798" y2="523.798" x2="384.571" x1="384.571" href="#I"><stop stop-color="#da4453"/></linearGradient><linearGradient href="#E" id="C" y1="527.798" x1="389.571" y2="543.798" x2="405.571"/><linearGradient id="D" href="#I"><stop stop-color="#c6cdd1"/><stop offset="1" stop-color="#e0e5e7"/></linearGradient><linearGradient id="E" href="#I"><stop stop-color="#383e51"/><stop offset="1" stop-color="#655c6f" stop-opacity="0"/></linearGradient><linearGradient href="#D" id="F" y1="17" y2="12" x2="0"/><linearGradient href="#D" id="G" y1="532.798" y2="527.798" x2="0"/><linearGradient href="#E" id="H" y1="12" x1="21" y2="28" x2="37"/><linearGradient id="I" gradientUnits="userSpaceOnUse"/></defs><g transform="translate(-384.571 -515.798)"><path d="M395.571 517.798c-1.662 0-3 1.338-3 3v3c0 1.309.835 2.407 2 2.818v-5.818a1 1 0 0 1 1-1h10a1 1 0 0 1 1 1v5.818c1.165-.412 2-1.509 2-2.818v-3c0-1.662-1.338-3-3-3h-10z" fill="#4d4d4d"/><path d="M384.571 527.798h32v18h-32z" fill="url(#A)"/><g fill-rule="evenodd"><path d="M387.571 523.798l-3 2v3h3 26 3v-3l-3-2h-26z" fill="url(#B)"/><path d="M389.571 532.798v-5h5l18 18h-5-2-3z" fill="url(#C)" opacity=".2"/><path d="M21 12v5l11 11V18l-6-6h-5z" transform="translate(384.571 515.798)" fill="url(#H)" opacity=".2"/></g><path d="M405.571 527.798v5h5v-5h-5zm1 1h3v3h-3v-3z" fill="url(#G)"/><path d="M384.571 544.798h32v1h-32z" fill="#aa2a37"/><path d="M5 12v5h5v-5H5zm1 1h3v3H6v-3z" transform="translate(384.571 515.798)" fill="url(#F)"/></g></svg>