<svg xmlns="http://www.w3.org/2000/svg" width="32" height="32" xmlns:v="https://vecta.io/nano"><defs><linearGradient id="A" x1="398.571" y1="545.798" x2="348.571" y2="503.798" gradientUnits="userSpaceOnUse"><stop offset="0" stop-color="#343b40"/><stop offset="1" stop-color="#555e63"/></linearGradient><linearGradient id="B" x1="372.571" y1="545.798" x2="372.571" y2="503.798" gradientUnits="userSpaceOnUse"><stop offset="0" stop-color="#bd8d48"/><stop offset="1" stop-color="#e8b971"/></linearGradient><path id="C" d="M106.24 636.718l-.144-1.024 3.23-3.586c.217-.242.425-.554.625-.937a7 7 0 0 0 .444-.975l.144-.394c0-.516-.144-.916-.431-1.199s-.695-.431-1.224-.431c-.883 0-1.578.256-2.086.768l-.362-.937c.575-.541 1.416-.812 2.524-.812.85 0 1.526.231 2.03.693s.756 1.072.756 1.843l-.075.237-.219.568-.344.806c-.121.254-.275.533-.462.837s-.371.558-.562.762l-2.636 2.817h4.329l-.069.962h-5.466"/></defs><g transform="matrix(.666666 0 0 .666666 -232.38079 -333.8651)"><rect y="503.798" x="348.571" height="42" width="48" rx="4.406" fill="url(#A)"/><path d="M351.721 503.798c-1.568-.051-3.05 1.385-3.15 3v36c.173 1.515 1.604 2.878 3.05 3h41.951c1.765-.268 2.816-1.569 3-3.15v-35.85c.01-1.577-1.45-2.826-3-3h0-41.951zm-.15 3h42v36h-42z" fill="url(#B)"/><path d="M351.571 506.73v36.068h0 42 0V506.73h0zm1.5 1.568h39v33h-39z" fill="#aa7f41" fill-opacity=".498"/><path d="M377.071 539.798h6v1.5h-6z" fill="#007ad9"/><path d="M384.571 539.798h6v1.5h-6z" fill="#d6d6d6"/><g transform="matrix(.911577 -.411128 .411129 .911577 0 -.71225)" fill="#f2f2f2"><use href="#C"/><path d="M116.485 632.232h2.436v.85h-2.443v2.68h-.856v-2.68h-2.48v-.85h2.486v-2.649h.856v2.649"/><use href="#C" x="14.019"/><path d="M127.349 634.362v-.887h6.028v.887h-6.028m-.006-2.636v-.9h6.035v.9h-6.035m13.862 2.674h-1.062v2.318h-1.049V634.4h-4.223v-.956l4.104-6.072h1.168v6.122h1.149l-.088.906m-2.111-5.61l-3.123 4.704h3.123v-4.704"/></g></g></svg>