<svg xmlns="http://www.w3.org/2000/svg" width="32" height="32" xmlns:v="https://vecta.io/nano"><defs><linearGradient id="A" href="#K"><stop stop-color="#404245"/><stop offset="1" stop-color="#585d60"/></linearGradient><linearGradient id="B" y1="9" x1="13" y2="25" x2="29" href="#K"><stop stop-color="#020303"/><stop offset="1" stop-color="#424649" stop-opacity="0"/></linearGradient><linearGradient href="#D" id="C" y1="528.798" y2="530.798" x2="0" x1="0"/><linearGradient id="D" href="#K"><stop stop-color="#2a2c2f"/><stop offset="1" stop-color="#424649"/></linearGradient><linearGradient href="#A" id="E" y1="28" x1="15" y2="8" x2="14"/><linearGradient id="F" y1="543.798" y2="524.798" x2="384.571" x1="384.571" href="#K"><stop stop-color="#989a9b"/><stop offset="1" stop-color="#f6f6f7"/></linearGradient><linearGradient href="#A" id="G" y1="28" y2="8" x2="0" x1="0"/><linearGradient id="H" y1="543.93" y2="517.797" x2="128.19" x1="128.19" href="#K"><stop stop-color="#c6cdd1"/><stop offset="1" stop-color="#e0e5e7"/></linearGradient><linearGradient id="I" y1="525.798" y2="540.798" x1="391.571" x2="406.571" href="#K"><stop/><stop offset="1" stop-opacity="0"/></linearGradient><linearGradient href="#D" id="J" y1="543.798" y2="523.798" x2="0"/><linearGradient id="K" gradientUnits="userSpaceOnUse"/></defs><g transform="translate(-384.571 -515.798)"><rect width="32" x="384.571" y="517.798" rx="2" height="28" fill="url(#H)"/><path d="M385.571 543.798l30-20 1 1v21h-29z" opacity=".2" fill="url(#I)" fill-rule="evenodd"/><rect width="32" x="384.571" y="517.798" height="4" ry="2" rx="1.971" fill="#566069"/><rect width="28" x="386.571" y="521.798" height="1" ry=".441" fill="#3daee9"/><path d="M385.571 523.798h30v20h-30z" fill="url(#J)"/><rect width="2" x="413.571" y="518.798" rx="1" height="2" fill="#eff0f1"/><g transform="translate(384.571 515.798)"><path d="M17 9l-4.443 18.756L14.801 30H30v-8z" opacity=".2" fill="url(#B)" fill-rule="evenodd"/><path d="M8 8v3H1v1h7v12H1v1h7v3h1v-3h14v3h1v-3h7v-1h-7V12h7v-1h-7V8h-1v3H9V8zm1 4h14v12H9z" fill="url(#E)"/><path d="M10.783 8A13.5 13.5 0 0 1 1 15.736v1.027A14.5 14.5 0 0 0 11.887 8zM31 19.236A14.5 14.5 0 0 0 20.119 28h1.104A13.5 13.5 0 0 1 31 20.264z" fill="url(#G)"/></g><path d="M399.571 524.798v2.174a3 3 0 0 0-.475 5.436l-1.443 5.391h-1.082v1h.814l-.809 3.016.572 1.719 1.27-4.734h4.303l1.268 4.734.572-1.719-.809-3.016h.818v-1h-1.086l-1.443-5.389a3 3 0 0 0-.471-5.436v-2.176zm.469 7.949a3 3 0 0 0 .531.051 3 3 0 0 0 .529-.047l1.352 5.047h-3.766z" fill="url(#F)"/><circle cx="400.571" cy="529.798" r="1" fill="url(#C)"/></g></svg>