<svg xmlns="http://www.w3.org/2000/svg" width="32" height="32" xmlns:v="https://vecta.io/nano"><defs><linearGradient id="A" y1="515.798" x1="384.571" y2="537.798" x2="407.571" href="#G"><stop stop-color="#fcfcfc" stop-opacity=".261"/><stop offset="1" stop-color="#5ea5fb" stop-opacity="0"/></linearGradient><linearGradient id="B" href="#G"><stop stop-color="#292c2f"/><stop offset="1" stop-opacity="0"/></linearGradient><linearGradient id="C" y1="545.798" y2="517.798" x2="0" href="#G"><stop stop-color="#3889e9"/><stop offset="1" stop-color="#5ea5fb"/></linearGradient><linearGradient href="#B" id="D" y1="524.798" x1="399.571" y2="527.798" x2="402.571"/><linearGradient href="#B" id="E" y1="12" x1="10" y2="23" x2="21"/><linearGradient id="F" y1="23" y2="8" x2="0" href="#G"><stop stop-color="#8cbdf8"/><stop offset="1" stop-color="#d5e8ff"/></linearGradient><linearGradient id="G" gradientUnits="userSpaceOnUse"/></defs><g transform="translate(-384.571 -515.798)"><circle cx="400.571" cy="531.798" r="14" fill="url(#C)"/><path d="M398.571 519.968l-1 .221v3.609h-4v-1.729a12 12 0 0 0-1 .803v.926h-.928a12 12 0 0 0-.807 1h1.734v4h-3.605l-.213 1h3.818v4h-3.83l.221 1h3.609v4h-1.729a12 12 0 0 0 .803 1h.926v.928a12 12 0 0 0 1 .807v-1.734h4v3.604l1 .215v-3.818h4v3.83l1-.221v-3.609h4v1.729a12 12 0 0 0 1-.803v-.926h.928a12 12 0 0 0 .807-1h-1.734v-4h3.604l.215-1h-3.818v-4h3.83l-.221-1h-3.609v-4h1.729a12 12 0 0 0-.803-1h-.926v-.928a12 12 0 0 0-1-.807v1.734h-4v-3.605l-1-.213v3.818h-4v-3.83zm-5 4.83h4v4h-4v-4zm5 0h4v4h-4v-4zm5 0h4v4h-4v-4zm-10 5h4v4h-4v-4zm5 0h4v4h-4v-4zm5 0h4v4h-4v-4zm-10 5h4v4h-4v-4zm5 0h4v4h-4v-4zm5 0h4v4h-4v-4z" fill="#fcfcfc" fill-opacity=".059"/><path d="M20 12l-4 4v1l-6 6 6.965 6.965a14 14 0 0 0 12.986-13.014L25 12h-5z" transform="translate(384.571 515.798)" fill="url(#E)" opacity=".2" fill-rule="evenodd"/><circle cx="400.571" cy="531.798" r="14" fill="url(#A)"/><path d="M400.571 519.798a12 12 0 0 0-12 12 12 12 0 0 0 12 12 12 12 0 0 0 12-12 12 12 0 0 0-12-12zm0 1a11 11 0 0 1 11 11 11 11 0 0 1-11 11 11 11 0 0 1-11-11 11 11 0 0 1 11-11z" fill="#fff" opacity=".2"/><g fill-rule="evenodd"><path d="M399.571 524.798l4 4 2-2-2-2z" fill="url(#D)" opacity=".2"/><path d="M18.143 8.014c-1.047.077-2.143.482-3.143.982 2 0 3 .999 4 2l2 2.002V14l1 1 3-3.002-1-1.002h-1l-2-2c-.81-.809-1.81-1.06-2.857-.982zM19 11l-4 4h-1l-6 6 2 2 6-6v-1l4-4-1-1z" transform="translate(384.571 515.798)" fill="url(#F)"/></g></g></svg>