<svg xmlns="http://www.w3.org/2000/svg" width="64" height="64" xmlns:v="https://vecta.io/nano"><defs><linearGradient id="A" href="#O"><stop offset="0" stop-color="#9f9f9f"/><stop offset="1" stop-color="#f5f6f6"/></linearGradient><linearGradient id="B" y1="541.368" y2="522.038" x2="381.897" x1="381.897" href="#O"><stop offset="0" stop-color="#e3e4e6"/><stop offset="1" stop-color="#424649"/></linearGradient><linearGradient id="C" y1="532.911" y2="525.662" x2="-82.719" x1="-82.719" href="#O"><stop offset="0" stop-color="#585b5b"/><stop offset="1" stop-color="#1c1e1e"/></linearGradient><linearGradient id="D" y1="534.119" y2="522.038" x2="-82.719" x1="-82.719" href="#O"><stop offset="0" stop-color="#dadada"/><stop offset="1" stop-color="#b8bcc0"/></linearGradient><linearGradient id="E" href="#A" y1="537.744" y2="532.911" x2="-81.51" x1="-81.51"/><linearGradient id="F" y1="536.535" y2="534.119" x2="381.897" x1="381.897" href="#O"><stop offset="0"/><stop offset="1" stop-color="#798484"/></linearGradient><linearGradient id="G" y1="528.078" y2="525.662" x2="-82.719" x1="-82.719" href="#O"><stop stop-color="#2980b9"/><stop offset="1" stop-color="#3498db"/></linearGradient><linearGradient id="H" y1="528.078" y2="525.662" x2="-82.719" x1="-82.719" href="#O"><stop stop-color="#27ae60"/><stop offset="1" stop-color="#2ecc71"/></linearGradient><linearGradient id="I" y1="528.079" y2="525.662" x2="-85.136" x1="-85.136" href="#O"><stop stop-color="#c0392b"/><stop offset="1" stop-color="#e74c3c"/></linearGradient><linearGradient id="J" y1="528.079" y2="525.662" x2="-80.303" x1="-80.303" href="#O"><stop stop-color="#f33777"/><stop offset="1" stop-color="#fd2d65"/></linearGradient><linearGradient href="#A" id="K" y1="790.649" x2="-484.195" y2="781.78" x1="-481.641"/><linearGradient href="#A" id="L" y1="790.649" x2="-486.162" y2="781.78" x1="-483.608"/><path id="M" d="M406.785 524.823c-2.449.705-3.863 3.262-3.158 5.711s3.262 3.863 5.711 3.158 3.863-3.262 3.158-5.711-3.262-3.863-5.711-3.158z"/><path id="N" d="M408.074 525.662a1.21 1.21 0 0 0-1.208 1.208 1.21 1.21 0 0 0 1.208 1.208 1.21 1.21 0 0 0 1.208-1.208 1.21 1.21 0 0 0-1.208-1.208z"/><linearGradient id="O" gradientUnits="userSpaceOnUse"/></defs><g transform="matrix(2 0 0 2 -769.14286 -1031.596)"><path d="M387.087 529.287l-.505 9.092c-.046.188-.07.38-.071.573 0 1.334 1.082 2.416 2.416 2.416a2.42 2.42 0 0 0 1.857-.873l.002.004 5.966-7.589zm27.028 0l-9.665 3.624 5.966 7.589.002-.004a2.42 2.42 0 0 0 1.857.873c1.334 0 2.416-1.082 2.416-2.416-.001-.193-.024-.386-.071-.573z" fill="url(#B)"/><path d="M394.336 523.246c-3.923-.797-7.249 2.037-7.249 6.041a7.25 7.25 0 0 0 11.249 6.041h4.531a7.25 7.25 0 0 0 11.248-6.041c0-4.003-3.303-6.716-7.249-6.041l-5.087 1.033h-2.357z" fill="url(#D)"/><use href="#M" fill="url(#K)"/><use href="#N" fill="url(#H)"/><use href="#N" x="-2.416" y="2.416" fill="url(#J)"/><use href="#N" x="2.417" y="2.416" fill="url(#I)"/><use href="#N" y="4.833" fill="url(#G)"/><use href="#M" x="-14.946" fill="url(#L)"/><path d="M391.92 525.662v2.416h-2.416v2.416h2.416v2.416h2.416v-2.416h2.416v-2.416h-2.416v-2.416z" fill="url(#C)"/><path d="M397.424 532.911c-1.334 0-2.416 1.082-2.416 2.416s1.082 2.416 2.416 2.416 2.416-1.082 2.416-2.416-1.082-2.416-2.416-2.416zm6.354 0c-1.334 0-2.416 1.082-2.416 2.416s1.082 2.416 2.416 2.416 2.416-1.082 2.416-2.416-1.082-2.416-2.416-2.416z" fill="url(#E)"/><path d="M397.424 534.119a1.21 1.21 0 0 0-1.208 1.208 1.21 1.21 0 0 0 1.208 1.208 1.21 1.21 0 0 0 1.208-1.208 1.21 1.21 0 0 0-1.208-1.208zm6.354 0a1.21 1.21 0 0 0-1.208 1.208 1.21 1.21 0 0 0 1.208 1.208 1.21 1.21 0 0 0 1.208-1.208 1.21 1.21 0 0 0-1.208-1.208z" fill="url(#F)"/></g></svg>