<svg xmlns="http://www.w3.org/2000/svg" width="32" height="32" xmlns:v="https://vecta.io/nano"><defs><linearGradient id="A" y1="545.798" y2="517.798" x2="114.571" x1="114.571" href="#G"><stop stop-color="#197cf1"/><stop offset="1" stop-color="#21c9fb"/></linearGradient><linearGradient id="B" y1="545.798" y2="517.798" x2="0" href="#G"><stop stop-color="#42a603"/><stop offset="1" stop-color="#78da06"/></linearGradient><linearGradient id="C" href="#G"><stop stop-color="#292c2f"/><stop offset="1" stop-opacity="0"/></linearGradient><linearGradient href="#C" id="D" y1="524.798" x1="401.571" y2="531.798" x2="408.571"/><linearGradient href="#C" id="E" y1="524.798" x1="407.571" y2="531.798" x2="414.571"/><linearGradient id="F" y1="537.798" y2="525.798" x2="0" href="#G"><stop stop-color="#7cbaf8"/><stop offset="1" stop-color="#f4fcff"/></linearGradient><linearGradient id="G" gradientUnits="userSpaceOnUse"/></defs><g transform="translate(-384.571 -515.798)"><path d="M392.571 517.798v28h19.023c1.977 0 2.977-1 2.977-3v-18l-7-7z" fill="url(#B)"/><path d="M414.571 524.798l-7-7v4c0 2 1 3 3.025 3z" fill="#313437" fill-rule="evenodd"/><path d="M386.571 520.798v22c0 2 1 3 3.041 3h18.959v-21l-7-7h-12.019c-1.981 0-2.981 1-2.981 3z" fill="url(#A)"/><g fill-rule="evenodd"><path d="M408.571 524.798l-7-7v4c0 2 1 3 2.953 3z" fill="#313437"/><path d="M401.571 524.798l7 7v-7z" opacity=".01" fill="url(#D)"/><path d="M407.571 524.798l7 7v-7z" opacity=".2" fill="url(#E)"/></g><path d="M392.571 525.798v1 11h1 5l4-4v-8h-9zm1 1h8v7h-3v3h-5z" fill="url(#F)"/></g></svg>