<svg xmlns="http://www.w3.org/2000/svg" width="22" height="22" viewBox="0 0 5.821 5.821"><defs><radialGradient id="a" cx="4.062" cy="291.63" r="7.276" gradientTransform="translate(12.283 -619.24)scale(2.2066)" gradientUnits="userSpaceOnUse"><stop offset="0" stop-color="#ca564d" stop-opacity=".019"/><stop offset="1" stop-color="#f35e4d"/></radialGradient><radialGradient id="b" cx="4.062" cy="291.63" r="7.276" gradientTransform="translate(-5.715 -623.23)scale(2.2066)" gradientUnits="userSpaceOnUse"><stop offset="0" stop-color="#ca564d" stop-opacity=".019"/><stop offset="1" stop-color="#fd5c4f"/></radialGradient></defs><rect width="4.762" height="3.704" x=".529" y="1.058" fill="#ef746d" rx=".529" ry=".529" style="paint-order:stroke markers fill"/><path fill="url(#a)" d="M19.996 12.031a16.06 16.06 0 0 0-11.498 5.967h9.5a1.994 1.994 0 0 0 1.998-2z" style="paint-order:stroke markers fill" transform="scale(.26459)"/><circle cx="4.233" cy="2.116" r=".529" fill="#ffdb8a" style="paint-order:stroke markers fill"/><path fill="url(#b)" d="M3 7.998a16 16 0 0 0-1 .035v7.965c0 1.108.89 2 1.998 2h13.861A16.055 16.055 0 0 0 3 7.998" style="paint-order:stroke markers fill" transform="scale(.26459)"/></svg>