<svg xmlns="http://www.w3.org/2000/svg" width="22" height="22" viewBox="0 0 5.821 5.821"><g transform="translate(1.852 -289.591)"><path fill="gray" d="m1.058 290.385-2.02 1.304-.012.009-.003.002a.21.21 0 0 0-.081.166v2.01c0 .118.094.213.211.213h3.81a.21.21 0 0 0 .212-.212v-2.011a.21.21 0 0 0-.085-.169h.001l-2.033-1.311z"/><rect width="3.175" height="2.646" x="-.529" y="290.915" fill="#f9f9f9" rx="0" ry="0"/><path fill="#999" d="m-1.058 291.866 4.021 2.752H-.832c-.015 0-.226 0-.226-.227z"/><path fill="#b3b3b3" d="M2.948 294.618c.227 0 .227-.227.227-.227v-2.525l-4.022 2.752z"/></g></svg>