<svg xmlns="http://www.w3.org/2000/svg" width="22" height="22" viewBox="0 0 5.821 5.821"><rect width="4.233" height="4.233" x="-5.088" y="-5.027" fill="none" stroke="#000" stroke-width=".397" opacity=".1" rx="2.117" ry="2.117" transform="scale(1 -1)rotate(90)"/><rect width="4.233" height="4.233" x="-5.088" y="-5.027" fill="none" stroke="#000" stroke-width=".132" opacity=".2" rx="2.117" ry="2.117" transform="scale(1 -1)rotate(90)"/><rect width="4.233" height="4.233" x="-5.027" y="-5.027" fill="#4d4d4d" rx="2.117" ry="2.117" transform="scale(1 -1)rotate(90)"/><path fill="#fff" d="M3.285 2.536a.7.7 0 0 0-.103-.084l-.195.195q.06.028.11.076a.393.393 0 0 1 0 .562l-.56.561a.393.393 0 0 1-.562 0 .393.393 0 0 1 0-.561l.16-.16a1 1 0 0 1-.054-.32l-.293.293a.663.663 0 0 0 0 .935.663.663 0 0 0 .935 0l.562-.561a.663.663 0 0 0 0-.936" class="ColorScheme-Text" color="#5d656b"/><path fill="#fff" d="M2.536 3.285q.048.048.103.084l.195-.195a.393.393 0 0 1-.11-.638l.56-.561a.393.393 0 0 1 .562 0 .393.393 0 0 1 0 .561l-.16.16a1 1 0 0 1 .054.32l.293-.293a.663.663 0 0 0 0-.935.663.663 0 0 0-.935 0l-.562.561a.663.663 0 0 0 0 .936" class="ColorScheme-Text" color="#5d656b"/></svg>