<svg xmlns="http://www.w3.org/2000/svg" width="22" height="22"><g transform="matrix(.8 0 0 .8 1.4 1.4)"><circle cx="12" cy="12" r="10" fill="#2e87e6"/><path fill="#fff" fill-rule="evenodd" d="M12.02 5a6.985 6.985 0 0 0-6.496 4.42 7 7 0 0 0-.148.402q-.015.041-.028.083A6.9 6.9 0 0 0 5 12.05C5 15.883 8.13 19 11.98 19a6.99 6.99 0 0 0 6.47-4.347c.075-.175.138-.356.199-.538A6.9 6.9 0 0 0 19 11.95C19 8.117 15.87 5 12.02 5m-.503 1.085v2.34a13 13 0 0 1-1.893-.205c.088-.207.18-.406.282-.587.466-.836 1.03-1.357 1.61-1.548zm.997.039q.079.01.158.024c.525.229 1.03.725 1.453 1.485.1.178.19.373.278.575-.586.114-1.223.188-1.89.214V6.124zm-3.125.479a6 6 0 0 0-.354.548 8 8 0 0 0-.394.834 8 8 0 0 1-.814-.286 6 6 0 0 1 1.562-1.096m5.362.149c.272.109.48.21.69.312q.4.278.748.614-.373.159-.807.29a8 8 0 0 0-.385-.817 6 6 0 0 0-.247-.4zm2.09 1.675a5.9 5.9 0 0 1 1.137 3.03H16.1a11 11 0 0 0-.394-2.547 9 9 0 0 0 1.114-.42q.012-.032.02-.063zm-9.692.066c.358.166.753.31 1.172.434a11 11 0 0 0-.39 2.53h-1.87a5.9 5.9 0 0 1 1.088-2.964m7.589.662c.198.695.327 1.474.364 2.302h-2.588V9.415a13.5 13.5 0 0 0 2.224-.26m-5.449.015c.694.14 1.444.222 2.227.247v2.04H8.93c.037-.823.164-1.596.36-2.287zM6.06 12.45h1.87c.038.925.18 1.8.408 2.594q-.617.181-1.146.421A5.9 5.9 0 0 1 6.06 12.45m2.869 0h2.587v2.109c-.777.024-1.52.106-2.21.243a10 10 0 0 1-.377-2.353zm3.584 0h2.589a10 10 0 0 1-.382 2.367 13.5 13.5 0 0 0-2.207-.256zm3.587 0h1.877a5.9 5.9 0 0 1-1.154 3.045l-.004-.01a9 9 0 0 0-1.131-.424c.231-.797.374-1.68.412-2.612zm-4.584 3.102v2.268c-.58-.191-1.144-.71-1.61-1.546a6 6 0 0 1-.256-.523c.582-.108 1.21-.176 1.866-.2zm.997.002c.657.026 1.284.097 1.863.208a6 6 0 0 1-.251.512c-.466.836-1.03 1.355-1.612 1.546zm-3.846.43c.112.27.233.53.367.772.106.19.222.366.343.536a6 6 0 0 1-1.491-1.036c.244-.099.501-.192.78-.273zm6.69.017c.277.082.531.176.772.275-.435.41-.932.754-1.477 1.02A6 6 0 0 0 15.357 16z"/></g></svg>