<svg xmlns="http://www.w3.org/2000/svg" width="22" height="22" viewBox="0 0 5.821 5.821"><g transform="translate(0 -291.18)"><rect width="4.233" height="4.233" x="-296.206" y="-5.027" fill="#3f51b5" rx="2.117" ry="2.117" transform="scale(1 -1)rotate(90)"/><path fill="#fff" d="m3.241 292.767.03.348a1 1 0 0 1 .303.176l.317-.15.33.574-.287.2a1 1 0 0 1 .016.175 1 1 0 0 1-.015.176l.287.199-.331.572-.316-.148a1 1 0 0 1-.305.174l-.029.35H2.58l-.03-.349a1 1 0 0 1-.303-.176l-.317.15-.33-.573.287-.2a1 1 0 0 1-.016-.175 1 1 0 0 1 .015-.176l-.287-.2.331-.572.316.148a1 1 0 0 1 .305-.174l.029-.35zm-.33.882a.44.44 0 0 0-.442.44.44.44 0 0 0 .441.442.44.44 0 0 0 .441-.441.44.44 0 0 0-.44-.441"/></g></svg>