<svg xmlns="http://www.w3.org/2000/svg" viewBox="0 0 4.233 4.233" height="16" width="16" fill="#dedede" xmlns:v="https://vecta.io/nano"><path d="M4.233 1.323H3.97V.133A.132.132 0 0 0 3.836 0H2.778a.132.132 0 0 0-.132.132v1.19H0v.53h.53v2.249c0 .073.058.132.131.132H1.72a.132.132 0 0 0 .132-.132V1.852h.265v1.455c0 .074.059.133.132.133h1.058a.132.132 0 0 0 .133-.133V1.852h.793zM3.704.265v1.058H2.91V.265zm-.529 1.587v1.323h-.794V1.852zm-1.587 0V3.97H.794V1.852z"/><path opacity=".3" fill-opacity=".931" d="M3.704.265v1.323H2.91V.265z"/><path d="M3.175 1.587h-.794v1.588h.794zm-1.587 0H.794V3.97h.794z" opacity=".1" fill-opacity=".931"/></svg>