<svg xmlns="http://www.w3.org/2000/svg" width="16" height="16" xmlns:v="https://vecta.io/nano"><path d="M6.127.26c-.064-.009-.13-.004-.197.014a.5.5 0 0 0-.354.611l.137.51a7 7 0 0 0-1.172.529c-.013.006-.028.006-.041.014s-.021.021-.033.029a7 7 0 0 0-1.045.748l-.371-.371a.5.5 0 0 0-.707.707l.369.369a7 7 0 0 0-.775 1.08 7 7 0 0 0-.549 1.211l-.504-.135a.5.5 0 0 0-.611.354.5.5 0 0 0 .354.611l.506.137a7 7 0 0 0-.002 2.647l-.504.135a.5.5 0 0 0-.354.611.5.5 0 0 0 .611.354l.51-.137a7 7 0 0 0 1.32 2.291l-.371.371a.5.5 0 0 0 .707.707l.369-.369a7 7 0 0 0 1.08.775 7 7 0 0 0 1.211.549l-.135.504a.5.5 0 0 0 .354.611.5.5 0 0 0 .611-.354l.137-.506a7 7 0 0 0 2.647.002l.135.504a.5.5 0 0 0 .611.354.5.5 0 0 0 .354-.611l-.137-.51a7 7 0 0 0 2.291-1.32l.371.371a.5.5 0 0 0 .707-.707l-.369-.369a7 7 0 0 0 .775-1.08 7 7 0 0 0 .549-1.211l.504.135a.5.5 0 0 0 .611-.354.5.5 0 0 0-.354-.611l-.506-.137a7 7 0 0 0 .127-1.295C14.995 8.018 15 8.01 15 8s-.007-.023-.008-.035a7 7 0 0 0-.123-1.289l.504-.135a.5.5 0 0 0 .354-.611.5.5 0 0 0-.611-.354l-.51.137a7 7 0 0 0-1.32-2.291l.371-.371a.5.5 0 0 0-.707-.707l-.369.369a7 7 0 0 0-1.08-.775 7 7 0 0 0-1.211-.549l.135-.504a.5.5 0 0 0-.354-.611.5.5 0 0 0-.611.354l-.137.506a7 7 0 0 0-2.646-.002L6.541.627A.5.5 0 0 0 6.127.26zm1.59 1.746A6 6 0 0 1 13.973 7.5H9.934A2 2 0 0 0 8 6a2 2 0 0 0-.533.074l-2.022-3.5a6 6 0 0 1 2.271-.568zM4.58 3.078L6.6 6.574a2 2 0 0 0-.002 2.852l-2.019 3.498A6 6 0 0 1 2.805 5 6 6 0 0 1 4.58 3.078zM8 7a1 1 0 1 1 0 2 1 1 0 1 1 0-2zm1.935 1.5h4.037a6 6 0 0 1-.777 2.5 6 6 0 0 1-7.75 2.424l2.019-3.496A2 2 0 0 0 9.935 8.5z" fill="#dedede"/></svg>