<svg xmlns="http://www.w3.org/2000/svg" width="16" height="16" fill="#dedede" xmlns:v="https://vecta.io/nano"><path d="M3 1c-1.108 0-2 .892-2 2v10c0 1.108.892 2 2 2h5v-1H3a1 1 0 0 1-1-1V3a1 1 0 0 1 1-1h10a1 1 0 0 1 1 1v5h1V3c0-1.108-.892-2-2-2H3zm1.5 4a.5.5 0 1 0 0 1h7a.5.5 0 1 0 0-1h-7zm0 2a.5.5 0 1 0 0 1h3.857c.474-.417 1.04-.701 1.643-.857v-.139L4.5 7zm0 2a.5.5 0 1 0 0 1h2.633a4 4 0 0 1 .158-.488l.012-.031A4 4 0 0 1 7.547 9H4.5zm0 2a.5.5 0 1 0 0 1h2.633A4 4 0 0 1 7 11H4.5zm6.457-2.999a3 3 0 1 0 1.781 5.445l1.797 1.797a.5.5 0 0 0 .707-.707l-1.801-1.801a3 3 0 0 0-2.484-4.734zm.072 1a2 2 0 0 1 1.385 3.414 2 2 0 0 1-2.828-2.828 2 2 0 0 1 1.443-.586z"/></svg>