<svg xmlns="http://www.w3.org/2000/svg" width="16" height="16" xmlns:v="https://vecta.io/nano"><path d="M14.49 1a.5.5 0 0 0-.344.15l-.486.486a1.5 1.5 0 0 0-1.721.307L10.293 3.59l-.939-.939a.5.5 0 1 0-.707.707l.939.939-6.147 6.147c-.355.342-.509.828-.439 1.299v.555L1.146 14.15l.707.707 1.853-1.853h.545c.474.072.964-.081 1.309-.439l6.147-6.147.939.939c.471.49 1.197-.236.707-.707l-.939-.939 1.647-1.647a1.5 1.5 0 0 0 .305-1.719l.488-.488A.5.5 0 0 0 14.49 1zm-4.094 3.9l.707.707-3.397 3.397H6.293z" fill="#dedede"/></svg>