<svg xmlns="http://www.w3.org/2000/svg" height="16" width="16" fill="#dedede" xmlns:v="https://vecta.io/nano"><path d="M8 1c-.529 0-1.032.098-1.494.295-.46.188-.868.463-1.207.82l-.002.004-.002.002a3.82 3.82 0 0 0-.766 1.28 4.551 4.551 0 0 0-.27 1.6c0 .58.087 1.122.27 1.612.18.482.436.908.766 1.266l.002.002.002.002c.338.356.743.636 1.201.832l.004.002.004.002C6.97 8.907 7.472 9 8 9s1.028-.093 1.49-.281v-.002a3.47 3.47 0 0 0 1.19-.834c.34-.358.6-.786.78-1.27.185-.49.272-1.031.272-1.613h.008c0-.573-.087-1.109-.27-1.598a3.692 3.692 0 0 0-.78-1.283 3.332 3.332 0 0 0-1.196-.824A3.78 3.78 0 0 0 8 1zm0 1c.406 0 .77.073 1.102.215l.01.004.01.002a2.3 2.3 0 0 1 .837.576v.01a2.69 2.69 0 0 1 .569.94v.005c.13.351.194.753.199 1.202V5c0 .482-.072.9-.207 1.262v.002a2.708 2.708 0 0 1-.57.931l-.01.004v.004c-.234.253-.514.45-.848.594A2.889 2.889 0 0 1 8 8a2.92 2.92 0 0 1-1.11-.207h-.003a2.58 2.58 0 0 1-.838-.582l-.051-.07-.008-.006a2.798 2.798 0 0 1-.523-.871A3.595 3.595 0 0 1 5.259 5c0-.471.071-.886.208-1.25l.002-.002v-.004c.137-.376.324-.684.554-.936l.012-.01c.24-.25.52-.443.85-.578l.006-.004.008-.002C7.229 2.074 7.594 2 8 2zm.03 9.025c-2.882 0-4.43.266-5.579 1.133-.575.434-.954 1.025-1.168 1.713S1.002 15.083 1 15.998L2 16c.002-.865.072-1.3.238-1.834s.412-.903.817-1.209c.81-.61 2.162-.934 4.974-.934l1.971.079v-1.014a27.464 27.464 0 0 0-1.97-.063z" letter-spacing="0" word-spacing="0"/><path d="M13 11v2h-2v1h2v2h1v-2h2v-1h-2v-2z"/></svg>