<svg xmlns="http://www.w3.org/2000/svg" width="16" height="16" xmlns:v="https://vecta.io/nano"><path d="M5 0C3.892 0 3 .892 3 2v2H2C.892 4 0 4.892 0 6v5c0 1.108.892 2 2 2h1v1c0 1.108.892 2 2 2h6c1.108 0 2-.892 2-2v-1h1c1.108 0 2-.892 2-2V6c0-1.108-.892-2-2-2h-1V2c0-1.108-.892-2-2-2H5zm0 1h6a1 1 0 0 1 1 1v2H4V2a1 1 0 0 1 1-1zM2 5h1 1 8 1 1a1 1 0 0 1 1 1v5a1 1 0 0 1-1 1h-1v-1c0-1.108-.892-2-2-2H5c-1.108 0-2 .892-2 2v1H2a1 1 0 0 1-1-1V6a1 1 0 0 1 1-1zm11.5 1a.5.5 0 1 0 0 1 .5.5 0 1 0 0-1zM5 10h6a1 1 0 0 1 1 1v1 1 1a1 1 0 0 1-1 1H5a1 1 0 0 1-1-1v-1-1-1a1 1 0 0 1 1-1zm0 1v1h6v-1H5zm0 2v1h6v-1H5z" fill="#dedede"/></svg>