<svg xmlns="http://www.w3.org/2000/svg" width="16" height="16.007" fill="#dedede" xmlns:v="https://vecta.io/nano"><path d="M5 .008c-1.108 0-2 .892-2 2v2H2c-1.108 0-2 .892-2 2v5c0 1.108.892 2 2 2h1v1c0 1.108.892 2 2 2h6a1.99 1.99 0 0 0 1.779-1.1l-.264-.264a4.19 4.19 0 0 1-1.182.295c-.105.037-.216.068-.334.068H5a1 1 0 0 1-1-1v-3a1 1 0 0 1 1-1h2.146a3.96 3.96 0 0 1 .408-1H5c-1.108 0-2 .892-2 2v1H2a1 1 0 0 1-1-1v-5a1 1 0 0 1 1-1h12a1 1 0 0 1 1 1v5a.99.99 0 0 1-.074.367 4.19 4.19 0 0 1-.293 1.145l.266.266C15.55 12.456 16 11.79 16 11.008v-5c0-1.108-.892-2-2-2h-1v-2c0-1.108-.892-2-2-2zm0 1h6a1 1 0 0 1 1 1v2H4v-2a1 1 0 0 1 1-1zm8.5 5a.5.5 0 1 0 0 1 .5.5 0 1 0 0-1zm-8.5 5v1h2.146c-.084-.329-.141-.663-.141-1zm0 2v1h3.373l-.201-.172c-.251-.251-.447-.533-.617-.828zm5.957-5a3 3 0 1 0 1.781 5.445l1.797 1.797a.5.5 0 0 0 .707-.707l-1.801-1.801a3 3 0 0 0-2.484-4.734zm.072 1a2 2 0 0 1 1.385 3.414 2 2 0 0 1-2.828-2.828 2 2 0 0 1 1.443-.586z"/></svg>