<svg xmlns="http://www.w3.org/2000/svg" viewBox="0 0 16 16" xmlns:v="https://vecta.io/nano"><path d="M4 1c-1.108 0-2 .892-2 2v10c0 1.108.892 2 2 2h4.762a4.5 4.5 0 0 1-.498-1H4a1 1 0 0 1-1-1V3a1 1 0 0 1 1-1h4v4 1h5v1.031a4.5 4.5 0 0 1 1 .232v-.85V7 6L9 1H8 4zm5 1.414L12.586 6H9V2.414z" fill="#dedede"/><path d="M11.326 10.157v3.498h2.332v-1.166h-1.166v-2.332zm1.166-1.166a3.49 3.49 0 0 0-3.498 3.498 3.49 3.49 0 0 0 3.498 3.498 3.49 3.49 0 0 0 3.498-3.498 3.49 3.49 0 0 0-3.498-3.498zm0 1.166c1.288 0 2.332 1.044 2.332 2.332s-1.044 2.332-2.332 2.332-2.332-1.044-2.332-2.332 1.044-2.332 2.332-2.332z" fill="#e6e6e6"/></svg>