<svg xmlns="http://www.w3.org/2000/svg" width="16" height="16" fill="#333" xmlns:v="https://vecta.io/nano"><path d="M1 5v8c0 1.108.892 2 2 2h9c1.108 0 2-.892 2-2V5h-1v8a1 1 0 0 1-1 1H3a1 1 0 0 1-1-1V5H1zm4.201 3.286l3.006 3.006L7.5 12 4.494 8.994z" paint-order="markers stroke fill"/><path d="M9.8 8.287l-3.006 3.006L7.5 12l3.006-3.006z" paint-order="markers stroke fill"/><path d="M7 6h1v5H7zM1 1a1 1 0 0 0-1 1v2a1 1 0 0 0 1 1h13a1 1 0 0 0 1-1V2a1 1 0 0 0-1-1H1zm0 1h13v2H1V2z" paint-order="markers stroke fill"/></svg>