<svg xmlns="http://www.w3.org/2000/svg" width="16" height="16" xmlns:v="https://vecta.io/nano"><path d="M8 0a2 2 0 0 0-2 2H5h-.939H4v.006c-1.113.033-2 .933-2 2.055v8.879C2 14.081 2.919 15 4.061 15h7.879c1.142 0 2.06-.919 2.06-2.061V4.061C14 2.919 13.081 2 11.939 2H11h-1a2.09 2.09 0 0 0-.031-.406A2.01 2.01 0 0 0 8 0zm-.012 1c.426 0 .766.266.918.625A.94.94 0 0 1 9 2c0 .888-1.072 1.335-1.703.711S7.1 1.01 7.988 1zM4 3h1 1v1S5 4 5 5h6c0-.75-.563-.953-.844-1H10V3h1 1a1 1 0 0 1 1 1v9a1 1 0 0 1-1 1H4a1 1 0 0 1-1-1V4a1 1 0 0 1 1-1z" fill="#dedede"/></svg>