<svg xmlns="http://www.w3.org/2000/svg" height="16" width="16" xmlns:v="https://vecta.io/nano"><path d="M11.098.045c-.558-.041-.89.442-1.114.879L6.912 6.139 5.08 5.03c-.526-.32-1.34.012-1.376.646l-.014.763 6.02 3.522c.36-.139.817-.192.956-.626.25-.57-.223-1.09-.712-1.318l-1.339-.828 3.357-5.706c.328-.63-.164-1.44-.874-1.438zM3.024 7.203c-1.428.55-2.304 2.203-1.927 3.692.322 1.522 1.776 2.504 3.218 2.821 1.826.418 3.828.25 5.685.284h.76c-.987-.154-2.12-.552-2.53-1.547-.283-.68.152-1.53.868-1.697L3.024 7.203z" fill="#dedede"/></svg>