<svg xmlns="http://www.w3.org/2000/svg" height="16" width="16" fill="#dedede" xmlns:v="https://vecta.io/nano"><path d="M7 1C3.69 1 1 3.69 1 7a5.96 5.96 0 0 0 .924 3.186l.115-.217.006-.008.088-.137.463-.469A4.998 4.998 0 0 1 2 7a5 5 0 0 1 5-5 5 5 0 0 1 2.295.563l.726-.739A5.955 5.955 0 0 0 7 1zm5.986 6.152l-1.164 1.149a5 5 0 0 1-3.593 3.54L7.06 12.995a5.951 5.951 0 0 0 3.603-1.267l2.863 2.863 1.063-1.063-2.863-2.863a5.956 5.956 0 0 0 1.26-3.512z"/><path d="M12.238 1l-.353.36-8.969 9.095-.03.045c-.061.099-.27.45-.583 1.088a18.25 18.25 0 0 0-1.012 2.492L1 15l.92-.291a18.163 18.163 0 0 0 2.492-1.012l1.088-.584.045-.029L15 3.762zm-8.347 9.89l1.218 1.22-.177.175c.007-.005-.379.227-.961.514-.214.105-.536.222-.834.338l-.274-.274.338-.834.514-.96z" letter-spacing="0" word-spacing="0"/></svg>