<svg xmlns="http://www.w3.org/2000/svg" width="16" height="16" xmlns:v="https://vecta.io/nano"><path d="M6 0a1 1 0 0 0-1 1v1H.5a.5.5 0 1 0 0 1h.498l.547 11.061C1.606 15.077 2.451 16 3.543 16h7.914c1.092 0 1.937-.924 1.998-1.94L14.002 3h.498a.5.5 0 1 0 0-1H10V1a1 1 0 0 0-1-1H6zm0 1h3v1H6V1zM2 3h11l-.543 11c-.033.553-.446 1-1 1H3.543c-.554 0-.967-.447-1-1L2 3zm2.5 2a.5.5 0 0 0-.5.5v7a.5.5 0 1 0 1 0v-7a.5.5 0 0 0-.5-.5zm3 0a.5.5 0 0 0-.5.5v7a.5.5 0 1 0 1 0v-7a.5.5 0 0 0-.5-.5zm3 0a.5.5 0 0 0-.5.5v7a.5.5 0 1 0 1 0v-7a.5.5 0 0 0-.5-.5z" fill="#dedede"/></svg>