<svg xmlns="http://www.w3.org/2000/svg" height="16" width="16" fill="#dedede" xmlns:v="https://vecta.io/nano"><path d="M13.238 1l-.353.36-8.969 9.095-.03.045c-.061.099-.27.45-.583 1.088a18.25 18.25 0 0 0-1.012 2.492L2 15l.92-.291a18.163 18.163 0 0 0 2.492-1.012l1.088-.584.045-.029L16 3.762zm-8.347 9.89l1.218 1.22-.177.175c.007-.005-.379.227-.961.514-.214.105-.536.222-.834.338l-.274-.274.338-.834.514-.96z" letter-spacing="0" word-spacing="0"/><path d="M12 1H5.5C4 1 3.007 1.64 2.526 2.558s-.525 2.018-.525 3.07v.373h-2l1.166 2.325 1.334 2.258 1.32-2.258A43.07 43.07 0 0 0 5 6H3v-.37c0-1.013.079-1.975.41-2.606S4.25 2 5.5 2H12z"/></svg>