<svg xmlns="http://www.w3.org/2000/svg" height="16" width="16" fill="#dedede" xmlns:v="https://vecta.io/nano"><path d="M13 11v2h-2v1h2v2h1v-2h2v-1h-2v-2zM7.996 1.002l-.002.002-.002.002c-.843 1.81-1.494 3.655-1.865 4.785-1.219.001-3.227.047-5.14.295l.001.002v.002l.002.002v.002c1.461 1.362 3.015 2.55 3.975 3.252-.376 1.16-.953 3.084-1.309 4.98h.008c1.747-.968 3.359-2.078 4.323-2.775L10 12.936V11.66l-1.425-.918-.586-.425-.586.423c-.476.345-1.397.888-2.131 1.368l.644-2.453.223-.688-.584-.428c-.474-.346-1.275-1.053-1.959-1.603l2.533-.145.723-.002.227-.687c.183-.558.608-1.538.92-2.358l.92 2.364.224.687.723.002c.588.002 1.652.103 2.529.147L10.43 8.549l-.586.426.223.69c.025.076.061.242.088.335h1.049l-.186-.642c.986-.718 2.582-1.935 3.984-3.26L15 6.096h-.002l-.002-.002v-.002c-1.982-.243-3.937-.292-5.127-.295C9.492 4.638 8.825 2.744 8 1.002z"/></svg>