<svg xmlns="http://www.w3.org/2000/svg" width="16" height="16" fill="#dedede" xmlns:v="https://vecta.io/nano"><path d="M8 8H2v1h6zm0 5H2v1h6zM8 3H2v1h6zm2.681 1.948V4.36h1.212V1.658l-1.174.593V1.63l1.226-.644h.924V4.36h1.122v.588zm-.061 5.101v-.556q.188-.345.535-.673.35-.328.877-.684.507-.342.709-.564.206-.222.206-.436 0-.524-.634-.524-.308 0-.473.14-.161.137-.209.413l-.97-.046q.082-.559.5-.852.421-.294 1.145-.294.781 0 1.199.296.418.296.418.832 0 .282-.134.51-.134.228-.343.422-.209.191-.466.359-.254.168-.493.328-.24.16-.439.322-.195.162-.291.348h2.241v.658zm3.378 3.828q0 .587-.428.907-.428.32-1.219.32-.748 0-1.189-.308-.441-.311-.517-.895l.942-.074q.089.602.761.602.333 0 .517-.148.184-.148.184-.454 0-.279-.224-.427-.224-.148-.665-.148h-.323v-.673h.303q.399 0 .6-.145.201-.148.201-.421 0-.258-.161-.403-.158-.148-.464-.148-.287 0-.464.142-.175.142-.201.403l-.926-.059q.072-.54.497-.845.425-.305 1.11-.305.728 0 1.137.296.412.293.412.815 0 .391-.257.643-.254.252-.735.335v.012q.534.056.82.317.29.258.29.661z"/></svg>