<svg xmlns="http://www.w3.org/2000/svg" width="16" height="16" fill="#dedede" xmlns:v="https://vecta.io/nano"><path d="M2 14v1h12v-1zm9.765-8.746c0-.72-.043-.921-.274-1.411C10.916 2.633 9.692 2 7.921 2 5.617 2 4.192 3.181 4.192 5.081c0 1.281.677 2.088 2.059 2.448l2.606.691c1.339.346 1.929.878 1.929 1.699a1.85 1.85 0 0 1-.749 1.454c-.418.302-1.08.446-1.929.446-1.152 0-1.915-.274-2.419-.878-.389-.461-.562-.965-.547-1.613H3.875c.014.965.202 1.598.619 2.174.72.993 1.929 1.497 3.528 1.497 1.253 0 2.275-.288 2.952-.806.706-.562 1.152-1.497 1.152-2.404 0-1.296-.806-2.246-2.232-2.635l-2.635-.705C5.991 6.104 5.531 5.7 5.531 4.894c0-1.065.936-1.771 2.347-1.771 1.67 0 2.606.749 2.62 2.131z"/></svg>