<svg xmlns="http://www.w3.org/2000/svg" width="16" height="16" xmlns:v="https://vecta.io/nano"><path d="M13.178 3.349l-.318 1.65q-.744-.751-1.58-1.116-.829-.364-1.797-.364-1.325 0-2.332.635-.999.635-1.728 1.937-.465.837-.713 1.774-.24.93-.24 1.875 0 1.58.813 2.409.821.829 2.378.829 1.077 0 2.068-.341.992-.349 1.929-1.038l-.364 1.851q-.922.395-1.867.597-.937.201-1.882.201-2.223 0-3.478-1.209Q2.82 11.832 2.82 9.678q0-1.379.473-2.711.48-1.332 1.371-2.432.945-1.17 2.154-1.728 1.216-.558 2.828-.558.992 0 1.875.279.891.271 1.658.821z" fill="#dedede"/></svg>