<svg xmlns="http://www.w3.org/2000/svg" width="16" height="16" xmlns:v="https://vecta.io/nano"><path d="M8 0a8.01 8.01 0 0 0-8 8 8.01 8.01 0 0 0 8 8 8.01 8.01 0 0 0 8-8 8.01 8.01 0 0 0-8-8zm-.039 1.002l-.022.617.916.137.617-.598a6.93 6.93 0 0 1 1.732.625l-.215.346.609.541-.609.51.238.609 1.356-.645.848.645.045-.139c.184.231.35.477.504.73l-.855.154-.508-.543-1.559.102-.949 1.492.645 1.592 2.102.645.406 2.475.508 1.287.357-.203C12.933 13.537 10.636 15 8 15c-3.862 0-7-3.138-7-7a6.96 6.96 0 0 1 .4-2.314l.033.137 1.084.305 1.424 1.051.033 1.525.916 1.254.541 3.391.982.609-.27-1.254 1.66-2.305.711-1.559-1.66-1.561-1.797-.846-.744.439-.883-1.322-.508.238-.439-.746.779-.406.744.439 1.289-1.592L7.16 2.332l-.508-.949-1.525.543-.189-.211c.915-.448 1.938-.707 3.023-.713z" fill="#dedede"/></svg>