<svg xmlns="http://www.w3.org/2000/svg" viewBox="0 0 16 16" xmlns:v="https://vecta.io/nano"><path d="M4.111 1.777L1 8l3.111 6.223H15V1.778H4.111zm4.275 2.557v.525c-.632 0-.646.212-.646.982v.904c0 .369-.11.919-.643 1.146.532.228.643.777.643 1.146v.896c0 .77.015.982.646.982v.527c-.948 0-1.352-.314-1.352-1.115V9.242c0-.495-.036-1.066-.551-1.066h-.262v-.574h.262c.514 0 .551-.571.551-1.066V5.447c0-.801.404-1.113 1.352-1.113zm2.789 0c.948 0 1.346.312 1.346 1.113v1.088c0 .495.018 1.066.541 1.066h.271v.574h-.271c-.523 0-.541.571-.541 1.066v1.088c0 .801-.398 1.115-1.346 1.115v-.527c.64 0 .641-.212.641-.982v-.896c0-.369.11-.919.643-1.146-.532-.228-.643-.777-.643-1.146v-.904c0-.77-.009-.982-.641-.982v-.525z" fill="#dedede"/></svg>