<svg xmlns="http://www.w3.org/2000/svg" width="16" height="16" xmlns:v="https://vecta.io/nano"><path d="M8 1c-.558 0-.827.299-.998.494s-.283.388-.395.596c-.223.415-.42.894-.609 1.379l-.52 1.342-.193.441c-.005.01-.008.01-.014.02s-.009.009-.02.014l-.441.193-1.342.52-1.379.609c-.208.111-.4.223-.596.395S1 7.442 1 8s.299.827.494.998.388.283.596.395c.415.223.894.42 1.379.609l1.342.52.441.193c.011.005.012.008.021.014s.007.01.012.02l.193.441.52 1.342.609 1.379c.111.208.223.4.395.596S7.442 15 8 15s.827-.299.998-.494.283-.388.395-.596c.223-.415.42-.894.609-1.379l.52-1.342.193-.441c.005-.011.008-.012.014-.021s.01-.007.02-.012l.441-.193 1.342-.52 1.379-.609c.208-.111.4-.223.596-.395S15 8.558 15 8s-.299-.827-.494-.998-.388-.283-.596-.395c-.415-.223-.894-.42-1.379-.609l-1.342-.52-.441-.193c-.01-.005-.01-.008-.02-.014s-.009-.009-.014-.02l-.193-.441-.52-1.342-.609-1.379c-.111-.208-.223-.4-.395-.596S8.558 1 8 1zm0 1c.617 0 1.569 3.558 2.006 3.994S14 7.383 14 8s-3.558 1.569-3.994 2.006S8.617 14 8 14s-1.569-3.558-2.006-3.994S2 8.617 2 8s3.558-1.569 3.994-2.006S7.383 2 8 2z" dominant-baseline="auto" fill="#dedede"/></svg>