<svg xmlns="http://www.w3.org/2000/svg" width="16" height="16" fill="#dedede" xmlns:v="https://vecta.io/nano"><path d="M1 8v1h1V8zm2 0v1h1V8zm2 0v1h1V8zm2 0v1h1V8zm2 0v1h1V8zm2 0v1h1V8zm2 0v1h1V8zm2 0v1h1V8zm-1.969-6.713a2.03 2.03 0 0 0-.406.016L1.729 2.811C.631 2.963-.13 3.969.022 5.066L.289 7h1.01l-.287-2.07c-.076-.549.305-1.051.854-1.127l10.896-1.51c.549-.076 1.051.305 1.127.854L14.424 7h1.01l-.553-3.992c-.133-.96-.92-1.662-1.85-1.721zm-8.248 3.15A1.5 1.5 0 0 0 3.199 6.14a1.49 1.49 0 0 0 .438.86h2.1c.325-.321.503-.784.436-1.272a1.5 1.5 0 0 0-1.389-1.291zm5.557 2.229L10.121 7h.57l-.352-.334zM.705 10l.414 2.992c.152 1.098 1.158 1.857 2.256 1.705l10.896-1.508c1.098-.152 1.859-1.158 1.707-2.256L15.849 10h-1.01l.148 1.07L13.859 10H8.163l-.723 1.105L5.566 10H4.269l-2.158 2.854L1.714 10H.704z"/></svg>