<svg xmlns="http://www.w3.org/2000/svg" width="16" height="16" fill="#dedede" xmlns:v="https://vecta.io/nano"><path d="M5.027 2.047c-1.556.049-2.777.314-3.521.654-.406.185-.705.381-.912.543s-.365.342-.365.342A1 1 0 0 0 0 4.223V13c0 .874 1.042 1.328 1.682.732 0 0-.044.031.043-.021s.254-.142.527-.238c.547-.192 1.518-.414 3.092-.414 1.242 0 2.177.211 3.19.445s2.108.496 3.492.496c2.364 0 3.74-1.578 3.74-1.578a1 1 0 0 0 .234-.645V3c0-.854-1.001-1.315-1.65-.76 0 0-.724.668-2.357.668-1.474 0-2.255-.198-3.152-.424-.837-.211-1.858-.42-3.26-.451l-.553.014zM5.344 3c2.948 0 3.508.908 6.648.908C13.937 3.908 15 3 15 3v8.777S13.97 13 12.025 13c-2.519 0-3.967-.941-6.682-.941C2.009 12.059 1 13 1 13V4.223S2.009 3 5.344 3z" dominant-baseline="auto"/><path d="M7.578 5.054c1.325 0 2.369 1.078 2.369 2.431S8.903 9.948 7.578 9.948s-2.4-1.109-2.4-2.463 1.075-2.431 2.4-2.431zm-4.551.966l.966 1.029-.935-.031.935.997-.966-.031.966 1.029-.997-.031.031-.997h-.031l.031-.966h-.031zm4.551 0c-.792 0-1.465.656-1.465 1.465s.673 1.465 1.465 1.465 1.434-.656 1.434-1.465-.642-1.465-1.434-1.465zm4.364 0v.997l.031.966h-.031l.031.997-.997.031.966-1.029-.966.031.935-.997-.935.031zM4.025 8.982l.966 1.029-.997-.031zm6.92 0l.031.997-.997.031zm-5.922.997l.966 1.029-.997-.031zm4.925 0l.031.997-.997.031z"/></svg>