<svg xmlns="http://www.w3.org/2000/svg" width="16" height="16" xmlns:v="https://vecta.io/nano"><path d="M2.344 9.414c-1.175 1.175-1.175 3.067 0 4.243s3.067 1.175 4.243 0l2.828-2.828c1.175-1.175 1.175-3.067 0-4.243-.25-.25-.535-.435-.836-.579L8 6.586c-.064.064-.099.139-.142.211a1.98 1.98 0 0 1 .849.496c.783.783.783 2.045 0 2.828L5.879 12.95c-.783.783-2.045.783-2.828 0s-.783-2.045 0-2.828L4.86 8.312c-.111-.424-.15-.859-.12-1.294zm4.243-4.243c-1.175 1.175-1.175 3.067 0 4.243.25.25.535.435.836.579L8 9.414c.064-.064.099-.139.142-.211a1.98 1.98 0 0 1-.849-.496c-.783-.783-.783-2.045 0-2.828l2.828-2.828c.783-.783 2.045-.783 2.828 0s.783 2.045 0 2.828l-1.809 1.809c.111.424.15.859.12 1.294l2.396-2.396c1.175-1.175 1.175-3.067 0-4.243s-3.067-1.175-4.243 0z" fill="#dedede"/></svg>