<svg xmlns="http://www.w3.org/2000/svg" viewBox="0 0 16 16" fill="#dedede" xmlns:v="https://vecta.io/nano"><path d="M12.5 8a3.5 3.5 0 1 0 0 7 3.5 3.5 0 1 0 0-7zM12 9h1v2h2v1h-2v2h-1v-2h-2v-1h2V9zM2 2C.892 2 0 2.892 0 4v8c0 1.108.892 2 2 2h6.762a4.5 4.5 0 0 1-.498-1H2c-.489 0-.874-.354-.963-.816l4.461-3.551 1.17.932c.434.345 1.033.48 1.602.416A4.5 4.5 0 0 1 9.358 8.28l-.818.652a.89.89 0 0 1-1.078 0L1.037 3.816C1.126 3.354 1.511 3 2 3h12c.489 0 .874.354.963.816l-4.891 3.895A4.5 4.5 0 0 1 12.5 7a4.5 4.5 0 0 1 .047.002L15 5.049V7.76a4.5 4.5 0 0 1 1 .914V4c0-1.108-.892-2-2-2zM1 5.049L4.705 8 1 10.951z"/></svg>