<svg xmlns="http://www.w3.org/2000/svg" width="16" height="15.974" xmlns:v="https://vecta.io/nano"><path d="M14.706 1.259a.5.5 0 0 0-.025-.022.5.5 0 0 0-.048-.035.5.5 0 0 0-.012-.007.5.5 0 0 0-.068-.035.5.5 0 0 0-.047-.017.5.5 0 0 0-.017-.006.5.5 0 0 0-.037-.007.5.5 0 0 0-.011-.003.5.5 0 0 0-.033-.003.5.5 0 0 0-.05-.003.5.5 0 0 0-.033.003.5.5 0 0 0-.017 0 .5.5 0 0 0-.017.003.5.5 0 0 0-.033.006.5.5 0 0 0-.043.01.5.5 0 0 0-.01.004.5.5 0 0 0-.012.004.5.5 0 0 0-.029.012.5.5 0 0 0-.004.001L1.432 6.823a.5.5 0 0 0 .007.916l4.766 2.043 2.043 4.766a.5.5 0 0 0 .916.007l5.643-12.698a.5.5 0 0 0 .046-.126.5.5 0 0 0 .003-.017.5.5 0 0 0 .004-.032.5.5 0 0 0 .004-.043.5.5 0 0 0 0-.008.5.5 0 0 0 0-.017.5.5 0 0 0-.001-.032.5.5 0 0 0-.001-.018.5.5 0 0 0-.005-.033.5.5 0 0 0-.004-.015.5.5 0 0 0-.007-.032.5.5 0 0 0-.005-.017.5.5 0 0 0-.011-.03.5.5 0 0 0-.021-.046.5.5 0 0 0-.017-.03.5.5 0 0 0-.008-.014.5.5 0 0 0-.01-.012.5.5 0 0 0-.032-.04.5.5 0 0 0-.035-.037zm-2.601 1.915L6.472 8.808 2.887 7.272zm.707.707L8.715 13.1 7.179 9.515z" dominant-baseline="auto" fill="#dedede"/></svg>