<svg xmlns="http://www.w3.org/2000/svg" width="16" height="16" fill="#dedede" xmlns:v="https://vecta.io/nano"><path d="M1.49 7L.205 8.678A1 1 0 0 0 0 9.285V13c0 1.108.892 2 2 2h11c1.108 0 1.998-.892 2-2V9.285a1 1 0 0 0-.205-.607L13.51 7h-1.26l1.531 2H9.949a2.5 2.5 0 0 1-4.894 0H1.219L2.75 7zM1 10h3.342A3.5 3.5 0 0 0 7.5 12c1.35-.003 2.569-.786 3.147-2H14v3a1 1 0 0 1-1 1H2a1 1 0 0 1-1-1zm4.5-2a.5.5 0 0 1-.5-.5V2.707L3.732 3.975a.5.5 0 0 1-.707-.707l2.121-2.121a.49.49 0 0 1 .166-.109A.5.5 0 0 1 5.5 1a.5.5 0 0 1 .188.037.49.49 0 0 1 .166.109l2.121 2.121a.5.5 0 0 1-.707.707L6 2.707V7.5a.5.5 0 0 1-.5.5zm4-7a.5.5 0 0 0-.5.5v4.793L7.732 5.025a.5.5 0 0 0-.707.707l2.121 2.121a.49.49 0 0 0 .166.109A.5.5 0 0 0 9.5 8a.5.5 0 0 0 .188-.037.49.49 0 0 0 .166-.109l2.121-2.121a.5.5 0 0 0-.707-.707L10 6.293V1.5a.5.5 0 0 0-.5-.5z"/></svg>