<svg xmlns="http://www.w3.org/2000/svg" height="16" width="16.002" xmlns:v="https://vecta.io/nano"><path d="M3.5 4.052a1.5 1.5 0 0 0-1.5 1.5v7a1.5 1.5 0 0 0 1.5 1.5h11c.831 0 1.5-.669 1.5-1.5v-7c0-.831-.669-1.5-1.5-1.5zm.475 1h10.049L9 8.923zM15 5.564v6.988a.5.5 0 0 1-.5.5h-11a.499.499 0 0 1-.5-.5V5.566l5.692 4.382c.015.013.034.016.05.026a.56.56 0 0 0 .17.064c.03.006.058.006.088.006s.059 0 .088-.006a.49.49 0 0 0 .115-.037l.055-.027c.017-.01.035-.013.05-.026zM0 2.052v1h1v-1zm2 0v1h1v-1zm2 0v1h1v-1zm2 0v1h1v-1zm2 0v1h1v-1zm2 0v1h1v-1zm2 0v1h1v-1zm-12 2v1h1v-1zm0 2v1h1v-1zm0 2v1h1v-1zm0 2v.5a1.48 1.48 0 0 0 .092.5H1v-1z" fill="#dedede"/></svg>