<svg xmlns="http://www.w3.org/2000/svg" width="16" height="16" fill="#dedede" xmlns:v="https://vecta.io/nano"><path d="M4 3.34c-.573.278-.98.663-1.17.91L.205 7.678A1 1 0 0 0 0 8.285V8.5 9v3c0 1.108.892 2 2 2h11c1.108 0 1.998-.892 2-2V9v-.5-.215a1 1 0 0 0-.205-.607L12.17 4.25c-.19-.248-.597-.632-1.17-.91v1.131a2.44 2.44 0 0 1 .375.387L13.781 8H12h-1.041-.881-.129a2.5 2.5 0 0 1-4.894 0h-.133-.883-2.82l2.406-3.143c.098-.129.225-.262.375-.387V3.34zM1 9h3.342A3.5 3.5 0 0 0 7.5 11c1.35-.003 2.569-.786 3.146-2h.012H12h2v3a1 1 0 0 1-1 1H2a1 1 0 0 1-1-1V9zm6.5-1a.5.5 0 0 1-.5-.5V2.707L5.732 3.975a.5.5 0 0 1-.707-.707l2.121-2.121a.49.49 0 0 1 .166-.109A.5.5 0 0 1 7.5 1a.5.5 0 0 1 .188.037.49.49 0 0 1 .166.109l2.121 2.121a.5.5 0 0 1-.707.707L8 2.707V7.5a.5.5 0 0 1-.5.5z"/></svg>