<svg xmlns="http://www.w3.org/2000/svg" width="16" height="15.974" xmlns:v="https://vecta.io/nano"><path d="M1.294 1.259a.5.5 0 0 1 .025-.022.5.5 0 0 1 .048-.035.5.5 0 0 1 .012-.007.5.5 0 0 1 .037-.021.5.5 0 0 1 .03-.014.5.5 0 0 1 .047-.017.5.5 0 0 1 .017-.006.5.5 0 0 1 .037-.007.5.5 0 0 1 .011-.003.5.5 0 0 1 .033-.003.5.5 0 0 1 .05-.003.5.5 0 0 1 .033.003.5.5 0 0 1 .017 0 .5.5 0 0 1 .017.003.5.5 0 0 1 .033.006.5.5 0 0 1 .043.01.5.5 0 0 1 .01.004.5.5 0 0 1 .012.004.5.5 0 0 1 .029.012.5.5 0 0 1 .004.001l12.728 5.657a.5.5 0 0 1-.007.916L9.795 9.782l-2.043 4.766a.5.5 0 0 1-.916.007L1.193 1.857a.5.5 0 0 1-.046-.126.5.5 0 0 1-.003-.017.5.5 0 0 1-.004-.032.5.5 0 0 1-.004-.043.5.5 0 0 1 0-.008.5.5 0 0 1 0-.017.5.5 0 0 1 .001-.032.5.5 0 0 1 .001-.018.5.5 0 0 1 .006-.033.5.5 0 0 1 .004-.015.5.5 0 0 1 .007-.032.5.5 0 0 1 .006-.017.5.5 0 0 1 .011-.03.5.5 0 0 1 .021-.046.5.5 0 0 1 .017-.03.5.5 0 0 1 .008-.014.5.5 0 0 1 .01-.012.5.5 0 0 1 .032-.04.5.5 0 0 1 .035-.037zm2.601 1.915l5.633 5.633 3.585-1.536zm-.707.707L7.285 13.1l1.536-3.585z" dominant-baseline="auto" fill="#dedede"/></svg>