<svg xmlns="http://www.w3.org/2000/svg" width="16" height="16" fill="#dedede" xmlns:v="https://vecta.io/nano"><path d="M2 4C.892 4 0 4.892 0 6v8c0 1.108.892 2 2 2h12c1.108 0 2-.892 2-2V6c0-1.108-.892-2-2-2zm0 1h12c.489 0 .874.354.963.816l-6.424 5.115a.89.89 0 0 1-1.078 0L1.037 5.816C1.126 5.354 1.511 5 2 5zM1 7.049L4.705 10 1 12.951V7.049zm14 0v5.902L11.295 10 15 7.049zm-9.502 3.584l1.17.932c.731.582 1.933.582 2.664 0l1.17-.932 4.461 3.551c-.088.462-.474.816-.963.816H2c-.489 0-.874-.354-.963-.816l4.461-3.551zM3.5 0a.5.5 0 1 0 0 1h9a.5.5 0 1 0 0-1h-9zm-1 2a.5.5 0 1 0 0 1h11a.5.5 0 1 0 0-1h-11z"/></svg>