<svg xmlns="http://www.w3.org/2000/svg" width="16" height="16" xmlns:v="https://vecta.io/nano"><path d="M7.5 1a.5.5 0 0 0-.5.5v4.793L5.732 5.025a.5.5 0 0 0-.707.707l2.121 2.121c.047.047.103.084.166.109A.5.5 0 0 0 7.5 8a.5.5 0 0 0 .188-.037c.063-.025.119-.062.166-.109l2.121-2.121a.5.5 0 0 0-.707-.707L8 6.293V1.5a.5.5 0 0 0-.5-.5zM5 3.029c-1.141.135-1.884.847-2.17 1.221L.205 7.678A1 1 0 0 0 0 8.285V8.5 9v3c0 1.108.892 2 2 2h11c1.108 0 1.998-.892 2-2V9v-.5-.215a1 1 0 0 0-.205-.607L12.17 4.25c-.286-.374-1.029-1.086-2.17-1.221v1.016a1.92 1.92 0 0 1 1.375.813L13.781 8h-2.197-.625H10h-.051a2.5 2.5 0 0 1-4.894 0h-.275-.74-2.82l2.406-3.143A1.92 1.92 0 0 1 5 4.045V3.029zM1 9h3.342A3.5 3.5 0 0 0 7.5 11a3.5 3.5 0 0 0 3.152-2h.006.926H14v3a1 1 0 0 1-1 1H2a1 1 0 0 1-1-1V9z" fill="#dedede"/></svg>