<svg xmlns="http://www.w3.org/2000/svg" viewBox="0 0 16 16" fill="#dedede" xmlns:v="https://vecta.io/nano"><path d="M4.121 2l1 1H13l-2.535 2.535.707.707 3.535-3.535L14 2H4.121zm-1.133.281A1.99 1.99 0 0 0 2 4v3.039c.065-.011.123-.039.191-.039H3V4c0-.467.324-.841.756-.951l-.768-.768zM14 8.961c-.065.011-.123.039-.191.039H13v1.879l1 1V8.961zm-9.172.797l-3.535 3.535L2 14h10a1.99 1.99 0 0 0 1.719-.988l-.768-.768c-.111.432-.484.756-.951.756H3l2.535-2.535-.707-.707z"/><path d="M1.282.575l14.142 14.142-.707.707L.575 1.282z"/></svg>