<svg xmlns="http://www.w3.org/2000/svg" width="16" height="16" fill="#dedede" xmlns:v="https://vecta.io/nano"><path d="M2.5 1a.5.5 0 0 0-.5.5v6.555A2.5 2.5 0 0 1 2.5 8a2.5 2.5 0 0 1 .5.051V1.5a.5.5 0 0 0-.5-.5zM3 12.945a2.5 2.5 0 0 1-.5.055 2.5 2.5 0 0 1-.5-.051V14.5a.5.5 0 1 0 1 0v-1.555zM7.5 1a.5.5 0 0 0-.5.5v1.555A2.5 2.5 0 0 1 7.5 3a2.5 2.5 0 0 1 .5.051V1.5a.5.5 0 0 0-.5-.5zM8 7.945A2.5 2.5 0 0 1 7.5 8a2.5 2.5 0 0 1-.5-.051V14.5a.5.5 0 1 0 1 0V7.945zM12.5 1a.5.5 0 0 0-.5.5v6.555A2.5 2.5 0 0 1 12.5 8a2.5 2.5 0 0 1 .5.051V1.5a.5.5 0 0 0-.5-.5zm.5 11.945a2.5 2.5 0 0 1-.5.055 2.5 2.5 0 0 1-.5-.051V14.5a.5.5 0 1 0 1 0v-1.555z"/><circle cx="2.5" cy="10.5" r="1.5"/><circle cx="7.5" cy="5.5" r="1.5"/><circle cx="12.5" cy="10.5" r="1.5"/></svg>