<svg xmlns="http://www.w3.org/2000/svg" height="16" width="16" fill="#dedede" xmlns:v="https://vecta.io/nano"><path d="M13.909 1.307l-3.304 3.307 2.306.764 2.375.612a48.514 48.514 0 0 0-.621-2.366 40.298 40.298 0 0 0-.756-2.316zm-1.153 10.349l-.072.084.75.66.091-.103.04-.05.48-.72-.832-.554zm-1.11 1.108l-.34.226.555.832.368-.244.05-.039.422-.37-.658-.751zm-1.353.779l-.676.23.322.948.717-.246.06-.024.218-.11-.442-.896zm-2.326.459l.066.996.801-.053-.066-.998zM8 6a2 2 0 1 1 0 4 2 2 0 1 1 0-4zm0 1a1 1 0 1 0 0 2 1 1 0 1 0 0-2z"/><path d="M7.574 1.014a6.981 6.981 0 0 0-2.347.558 7.005 7.005 0 0 0-4.082 7.844A7.005 7.005 0 0 0 8 15h.5v-1H8a5.996 5.996 0 0 1-5.877-4.787 5.995 5.995 0 0 1 10.791-4.654l.287.41.82-.574-.287-.41a7.006 7.006 0 0 0-6.16-2.971z"/></svg>