<svg xmlns="http://www.w3.org/2000/svg" width="16" height="16" xmlns:v="https://vecta.io/nano"><path d="M9.414.929c-.783-.783-2.045-.783-2.828 0L5.172 2.343l.707.707 1.414-1.414a1 1 0 0 1 1.414 0l1.414 1.414.707-.707zm4.243 4.243l-.707.707 1.414 1.414a1 1 0 0 1 0 1.414l-1.414 1.414.707.707 1.414-1.414c.783-.783.783-2.045 0-2.828zm-11.314 0L.929 6.586c-.783.783-.783 2.045 0 2.828l1.414 1.414.707-.707-1.414-1.414a1 1 0 0 1 0-1.414L3.05 5.879zm7.778 7.778l-1.414 1.414a1 1 0 0 1-1.414 0L5.878 12.95l-.707.707 1.414 1.414c.783.783 2.045.783 2.828 0l1.414-1.414z" fill="#dedede"/></svg>