<svg xmlns="http://www.w3.org/2000/svg" width="16" height="16" xmlns:v="https://vecta.io/nano"><g fill="#dedede"><path d="M3 4v1h3.133a4 4 0 0 1 .408-1zm0 10h7v1H3zM15 3v6h-1V3z" opacity=".25" paint-order="normal"/><path d="M.5 3a.5.5 0 0 0-.5.5v2a.5.5 0 0 0 .5.5h2a.5.5 0 0 0 .5-.5v-2a.5.5 0 0 0-.5-.5zm.75 1h.5a.25.25 0 0 1 .25.25v.5a.25.25 0 0 1-.25.25h-.5A.25.25 0 0 1 1 4.75v-.5A.25.25 0 0 1 1.25 4z" opacity=".8" paint-order="normal"/><use href="#B" opacity=".8" paint-order="normal"/><use href="#B" x="-13" y="13" opacity=".8" paint-order="normal"/><use href="#B" x="-3" y="13" opacity=".8" paint-order="normal"/><path d="M10.117 2.002A4 4 0 0 0 6 6a4 4 0 0 0 .014.287A4 4 0 0 1 6 6H3.5a.5.5 0 0 0-.5.5v6a.5.5 0 0 0 .5.5h6a.5.5 0 0 0 .5-.5V9.996A4 4 0 0 0 14 6a4 4 0 0 0-3.883-3.998zm-.031 1A3 3 0 1 1 7 6a3 3 0 0 1 3.086-2.998zM6.041 6.545a4 4 0 0 0 .018.115 4 4 0 0 1-.018-.115zM4.25 7h1.881A4 4 0 0 0 9 9.869v1.881a.25.25 0 0 1-.25.25h-4.5a.25.25 0 0 1-.25-.25v-4.5A.25.25 0 0 1 4.25 7z" paint-order="normal"/><path d="M13 6a3 3 0 1 1-6 0 3 3 0 1 1 6 0z" opacity=".25" paint-order="normal"/><use href="#B" y="9" opacity=".8" paint-order="normal"/><path opacity=".25" d="M2 6v7H1V6zm10 3.455a4 4 0 0 1-1 .408V13h1z" paint-order="normal"/><path d="M4.5 0a.5.5 0 0 0-.5.5v2a.5.5 0 0 0 .5.5h2a.5.5 0 0 0 .5-.5v-2a.5.5 0 0 0-.5-.5zm.75 1h.5a.25.25 0 0 1 .25.25v.5a.25.25 0 0 1-.25.25h-.5A.25.25 0 0 1 5 1.75v-.5A.25.25 0 0 1 5.25 1z" opacity=".8" paint-order="normal"/><use href="#B" x="-9" y="9" opacity=".8" paint-order="normal"/><path opacity=".25" d="M6 3v6H5V3zm7 8H7v-1h6zm0-9H7V1h6z" paint-order="normal"/></g><defs ><path id="B" d="M13.5 0a.5.5 0 0 0-.5.5v2a.5.5 0 0 0 .5.5h2a.5.5 0 0 0 .5-.5v-2a.5.5 0 0 0-.5-.5zm.75 1h.5a.25.25 0 0 1 .25.25v.5a.25.25 0 0 1-.25.25h-.5a.25.25 0 0 1-.25-.25v-.5a.25.25 0 0 1 .25-.25z"/></defs></svg>