<svg xmlns="http://www.w3.org/2000/svg" viewBox="0 0 16 16" fill="#dedede" xmlns:v="https://vecta.io/nano"><path d="M1 8v1h1V8zm2 0v1h1V8zm2 0v1h1V8zm2 0v1h1V8zm2 0v1h1V8zm2 0v1h1V8zm2 0v1h1V8zm2 0v1h1V8zm-4.289-6.896a2.06 2.06 0 0 0-.4.066L2.584 3.24C1.514 3.527.883 4.619 1.17 5.689L1.521 7h1.033l-.42-1.57a1 1 0 0 1 .707-1.225l7.729-2.07a1 1 0 0 1 1.225.707L12.908 7h1.035L12.76 2.584c-.251-.936-1.119-1.537-2.049-1.48zM2.324 10l.916 3.416c.287 1.07 1.379 1.701 2.449 1.414l7.727-2.07c1.07-.287 1.701-1.379 1.414-2.449L14.746 10h-1.033l.152.57a1 1 0 0 1-.707 1.225l-7.728 2.07a1 1 0 0 1-1.225-.707L3.36 10H2.324z"/></svg>