<svg xmlns="http://www.w3.org/2000/svg" height="16" width="16" fill="#dedede" xmlns:v="https://vecta.io/nano"><path d="M2.091 1.307l3.304 3.307-2.306.764-2.375.612.621-2.366.756-2.316zm1.153 10.349l.072.084-.75.66-.091-.103-.04-.05-.48-.72.832-.554zm1.11 1.108l.34.226-.555.832-.367-.244-.051-.039-.422-.37.658-.751zm1.353.779l.676.23-.322.948-.717-.246-.06-.024-.218-.11.442-.896zm2.326.459l-.066.996-.801-.053.066-.998zM8 6a2 2 0 1 0 0 4 2 2 0 1 0 0-4zm0 1a1 1 0 1 1 0 2 1 1 0 1 1 0-2z"/><path d="M8.426 1.014a6.97 6.97 0 0 1 2.347.558A7.005 7.005 0 0 1 8 15h-.5v-1H8c2.85 0 5.3-1.997 5.877-4.787A5.995 5.995 0 0 0 3.086 4.56l-.287.41-.82-.574.287-.41a7.006 7.006 0 0 1 6.16-2.971z"/></svg>