<svg xmlns="http://www.w3.org/2000/svg" width="16" height="16" fill="#dedede" xmlns:v="https://vecta.io/nano"><path d="M10.174.002A6 6 0 0 0 4.09 5H1a1 1 0 0 0-1 1v9a1 1 0 0 0 1 1h9a1 1 0 0 0 1-1v-3.084A6 6 0 0 0 10.174.002zm-.027 1A5 5 0 0 1 15 6a5 5 0 0 1-5 4.996V14.5a.5.5 0 0 1-.5.5h-8a.5.5 0 0 1-.5-.5v-8a.5.5 0 0 1 .5-.5H5a5 5 0 0 1 5.146-4.998z" paint-order="normal"/><path d="M10.146 1.002A5 5 0 0 0 5 6H1.5a.5.5 0 0 0-.5.5v8a.5.5 0 0 0 .5.5h8a.5.5 0 0 0 .5-.5v-3.504A5 5 0 0 0 15 6a5 5 0 0 0-4.854-4.998z" opacity=".25" paint-order="normal"/></svg>