<svg xmlns="http://www.w3.org/2000/svg" width="16" height="16" xmlns:v="https://vecta.io/nano"><path d="M10.174.002A6 6 0 0 0 4.09 5H1a1 1 0 0 0-1 1v9a1 1 0 0 0 1 1h9a1 1 0 0 0 1-1v-3.088a6 6 0 0 0-.826-11.91zm-.029 1a5 5 0 0 1 .002 0 5 5 0 0 1 3.186 1.27 5 5 0 0 1 .674.736 5 5 0 0 1 .279.414 5 5 0 0 1 0 .002A5 5 0 0 1 15 6a5 5 0 0 1-.611 2.396 5 5 0 0 1 0 .002 5 5 0 0 1-.1.16 5 5 0 0 1-.463.662 5 5 0 0 1-5.443 1.512 5 5 0 0 1-.461-.184 5 5 0 0 1-.002-.002 5 5 0 0 1-1.605-1.166 5 5 0 0 1-.068-.082 5 5 0 0 1-.252-.307 5 5 0 0 1-.277-.41 5 5 0 0 1-.002-.004 5 5 0 0 1-.568-1.377 5 5 0 0 1-.059-.303 5 5 0 0 1-.037-.191 5 5 0 0 1-.047-.494 5 5 0 0 1 0-.004 5 5 0 0 1 .021-.707 5 5 0 0 1 0-.002 5 5 0 0 1 .074-.492 5 5 0 0 1 0-.002 5 5 0 0 1 .123-.482 5 5 0 0 1 0-.002 5 5 0 0 1 .172-.469 5 5 0 0 1 .479-.877 5 5 0 0 1 .303-.396A5 5 0 0 1 8.187 1.34a5 5 0 0 1 1.957-.338zM1.5 6H4a6 6 0 0 0 6 5.996V14.5a.5.5 0 0 1-.5.5h-8a.5.5 0 0 1-.5-.5v-8a.5.5 0 0 1 .5-.5z" fill="#dedede" paint-order="normal"/></svg>