<svg xmlns="http://www.w3.org/2000/svg" width="16" height="16" fill="#dedede" xmlns:v="https://vecta.io/nano"><path d="M10.174.002A6 6 0 0 0 4.09 5H1a1 1 0 0 0-1 1v9a1 1 0 0 0 1 1h9a1 1 0 0 0 1-1v-3.088a6 6 0 0 0-.826-11.91zm-.029 1a5 5 0 0 1 .002 0 5 5 0 0 1 3.186 1.27 5 5 0 0 1 .674.736 5 5 0 0 1 .279.414 5 5 0 0 1 0 .002A5 5 0 0 1 15 6a5 5 0 0 1-.611 2.397 5 5 0 0 1 0 .002 5 5 0 0 1-.1.16 5 5 0 0 1-.463.662 5 5 0 0 1-5.443 1.512 5 5 0 0 1-.461-.184 5 5 0 0 1-.002-.002 5 5 0 0 1-1.606-1.166 5 5 0 0 1-.068-.082 5 5 0 0 1-.252-.307 5 5 0 0 1-.277-.41 5 5 0 0 1-.002-.004 5 5 0 0 1-.568-1.377 5 5 0 0 1-.059-.303 5 5 0 0 1-.037-.191 5 5 0 0 1-.047-.494 5 5 0 0 1 0-.004A5 5 0 0 1 5 6a5 5 0 0 1 .025-.498 5 5 0 0 1 0-.002 5 5 0 0 1 .074-.492 5 5 0 0 1 0-.002 5 5 0 0 1 .123-.482 5 5 0 0 1 0-.002 5 5 0 0 1 .172-.469 5 5 0 0 1 .479-.877 5 5 0 0 1 .303-.396A5 5 0 0 1 8.188 1.34a5 5 0 0 1 1.957-.338zM1.5 6H4a6 6 0 0 0 6 5.996V14.5a.5.5 0 0 1-.5.5h-8a.5.5 0 0 1-.5-.5v-8a.5.5 0 0 1 .5-.5z" paint-order="normal"/><path d="M1.5 6a.5.5 0 0 0-.5.5v8a.5.5 0 0 0 .5.5h8a.5.5 0 0 0 .5-.5v-2.506A6 6 0 0 1 4 6zm3.518.363a5 5 0 0 0 .023.242 5 5 0 0 1-.023-.242zm.061.482a5 5 0 0 0 .045.238 5 5 0 0 1-.045-.238zm.121.531a5 5 0 0 0 .051.168 5 5 0 0 1-.051-.168zm.158.465a5 5 0 0 0 .076.184 5 5 0 0 1-.076-.184zm.205.449a5 5 0 0 0 .088.166 5 5 0 0 1-.088-.166zm.266.455a5 5 0 0 0 .088.129 5 5 0 0 1-.088-.129zm.295.402a5 5 0 0 0 .092.113 5 5 0 0 1-.092-.113zm.355.395a5 5 0 0 0 .074.072 5 5 0 0 1-.074-.072zm.357.32a5 5 0 0 0 .1.082 5 5 0 0 1-.1-.082zm.434.318a5 5 0 0 0 .057.037 5 5 0 0 1-.057-.037zm.434.254a5 5 0 0 0 .057.029 5 5 0 0 1-.057-.029zm.438.199a5 5 0 0 0 .086.035 5 5 0 0 1-.086-.035zm.492.17a5 5 0 0 0 .057.016 5 5 0 0 1-.057-.016zm.484.111a5 5 0 0 0 .063.012 5 5 0 0 1-.062-.012zm.48.063a5 5 0 0 0 .104.008 5 5 0 0 1-.104-.008z" opacity=".25" paint-order="normal"/></svg>