<svg xmlns="http://www.w3.org/2000/svg" width="16" height="16" fill="#dedede" xmlns:v="https://vecta.io/nano"><path d="M3 16c-.75-.018-1.411-.094-1.937-.385-.376-.208-.673-.559-.838-.998S0 13.658 0 13v-3c0-.658.06-1.178.225-1.617s.462-.79.838-.998c.282-.156.599-.233.938-.287v1.025c-.187.035-.347.079-.455.139-.183.101-.287.213-.385.473S1 9.408 1 10v3c0 .592.063 1.006.16 1.266s.201.371.385.473c.366.202 1.197.247 2.455.262h8c1.258-.015 2.087-.06 2.453-.262.183-.101.289-.213.387-.473S15 13.592 15 13v-3c0-.592-.063-1.006-.16-1.266s-.203-.371-.387-.473c-.108-.059-.267-.103-.453-.139V7.098c.338.054.655.131.938.287.376.208.673.559.838.998S16 9.342 16 10v3c0 .658-.06 1.178-.225 1.617s-.462.79-.838.998c-.527.291-1.188.367-1.937.385zm0-6v-.5V4h10v5.5.5h-1v-.5V5H4v4.5.5zm2-1V8h6v1zm0-2V6h6v1zM3 3V2h10v1zm0-2V0h10v1z" dominant-baseline="auto"/></svg>