<svg xmlns="http://www.w3.org/2000/svg" width="16" height="16" xmlns:v="https://vecta.io/nano"><path d="M4.5 1C2.686 1 2.523 3.461 4 3.92V10v1c0 1.662 1.338 3 3 3h1 2 1.086c.175.55.641 1 1.414 1 2 0 2-3 0-3a1.4 1.4 0 0 0-1.414 1H10 8 7c-1.108 0-2-.892-2-2v-1h4.086c.175.55.641 1 1.414 1 2 0 2-3 0-3a1.4 1.4 0 0 0-1.414 1H5V6h6.086c.175.55.641 1 1.414 1 2 0 2-3 0-3a1.4 1.4 0 0 0-1.414 1H5V3.92C6.477 3.461 6.314 1 4.5 1zm0 1c.667 0 .667 1 0 1s-.667-1 0-1zm8 3c.667 0 .667 1 0 1s-.667-1 0-1zm-2 4c.667 0 .667 1 0 1s-.667-1 0-1zm2 4c.667 0 .667 1 0 1s-.667-1 0-1z" fill="#dedede" paint-order="stroke fill markers"/></svg>