<svg xmlns="http://www.w3.org/2000/svg" width="16" height="16.001" fill="#dedede" xmlns:v="https://vecta.io/nano"><rect x="5" width="5" height="2" rx="1"/><path d="M11.53 3a1.5 1.5 0 0 0-1.248.629 6.5 6.5 0 0 0-3.113-.621 6.5 6.5 0 1 0 6.825 6.164v-.004a6.5 6.5 0 0 0-1.377-3.666A1.5 1.5 0 0 0 11.53 3zM7.77 4.006a5.5 5.5 0 0 1 5.223 5.213v.004a5.5 5.5 0 0 1-5.213 5.769 5.5 5.5 0 0 1-5.771-5.213A5.5 5.5 0 0 1 7.22 4.008a5.5 5.5 0 0 1 .551-.002zM7.3 5h.5l.2 5H7z"/><path d="M8.5 9.45a1 1 0 0 1-1.997.101A1 1 0 0 1 8.5 9.449"/></svg>