<svg xmlns="http://www.w3.org/2000/svg" width="16" height="16" xmlns:v="https://vecta.io/nano"><path d="M3.05 3.05a7 7 0 1 0 9.9 9.9 7 7 0 0 0 1.427-2.092 7 7 0 0 0 .012-.004 7 7 0 0 0 .052-.133 7 7 0 0 0 .094-.243 7 7 0 0 0 .159-.457 7 7 0 0 0 .052-.193 7 7 0 0 0 .097-.356 6 6 0 0 1-.007.004 6 6 0 0 1-.005.003 6 6 0 0 1-1.211.606 6 6 0 0 1-.001.001 6 6 0 0 1-6.325-1.378 6 6 0 0 1-1.189-6.763 6 6 0 0 1 .149-.298 6 6 0 0 1 .137-.244 6 6 0 0 1 .145-.239 6 6 0 0 1 .004-.007A7 7 0 0 0 3.05 3.05zm.707.707a6 6 0 0 1 .945-.765 7 7 0 0 0 1.884 6.422 7 7 0 0 0 6.41 1.891 6 6 0 0 1-.753.938 6 6 0 1 1-8.485-8.485z" fill="#dedede"/></svg>