<svg xmlns="http://www.w3.org/2000/svg" width="16.003" height="16" fill="#dedede" xmlns:v="https://vecta.io/nano"><path d="M7.945.5A7.5 7.5 0 0 0 .502 8a7.5 7.5 0 1 0 15 0 7.5 7.5 0 0 0-7.5-7.5 7.5 7.5 0 0 0-.057 0zm.003 1a6.5 6.5 0 0 1 .054 0 6.5 6.5 0 1 1 0 13 6.5 6.5 0 0 1-6.5-6.5 6.5 6.5 0 0 1 6.446-6.5z" paint-order="stroke fill markers"/><rect x="4.502" y="6" width="7" height="1" ry=".5" paint-order="stroke fill markers"/><rect transform="rotate(45)" x="8.875" y="-3.683" width="4" height="1" ry=".5" paint-order="stroke fill markers"/><rect transform="scale(-1)" x="-11.502" y="-10" width="7" height="1" ry=".5" paint-order="stroke fill markers"/><rect transform="rotate(225)" x="-13.755" y="-3.681" width="4" height="1" ry=".5" paint-order="stroke fill markers"/></svg>