<svg xmlns="http://www.w3.org/2000/svg" width="16" height="16" fill="#dedede" xmlns:v="https://vecta.io/nano"><path d="M14 1v7l-7 7-7-7 7-7zm-1 1H7.438l-6 6L7 13.563l6-6V4zm-2 1a1 1 0 1 0 0 2 1 1 0 0 0 0-2z"/><path d="M14.117 3.988a2.507 2.507 0 0 0-1.126-.737c-.584-.187-1.248-.118-1.849.302a.52.52 0 0 0-.128.7.52.52 0 0 0 .702.12c.368-.258.675-.264.993-.162s.627.372.84.71.324.73.277 1.103-.21.719-.653 1.029c-1.773 1.242-2.035 3.212-1.12 4.447.51.689 1.358 1.11 2.365 1.09l.497-1.034c-.966.217-1.674-.132-2.061-.655-.572-.773-.532-2.032.893-3.03a2.503 2.503 0 0 0 1.07-1.74c.08-.637-.107-1.245-.43-1.759-.082-.128-.17-.27-.27-.384zm1.614 7.263c-.081.04-.162.06-.24.092l-.545 1.183.207-.03zm-.412.174c-.086.032-.176.044-.258.067l-.505 1.078.226-.005z"/></svg>