<svg xmlns="http://www.w3.org/2000/svg" width="16" height="16" fill="#dedede" xmlns:v="https://vecta.io/nano"><path d="M5 0C3.896 0 3 1.096 3 2.449V3l2.857 5L3 13v.551C3 14.904 3.896 16 5 16h5c1.104 0 2-1.096 2-2.449V13L9.16 8 12 3v-.551C12 1.096 11.104 0 10 0zm2.025 1.012l3.102.047c.677.17.868 1.018.832 1.637L8 8l2.959 5.305c.036.619-.155 1.467-.832 1.637l-5.18.012c-.726-.13-.953-1.013-.926-1.65L7 8 4.021 2.697c-.028-.637.199-1.52.926-1.65l2.078-.035zM5.75 4l1.746 3.438L9.25 4zM7.5 9l-.395 3.025c-1.212.157-2.102.994-2.102 1.975h5v-.102c-.061-.947-.946-1.729-2.119-1.873z"/><rect x="2" width="11" height="1" rx=".5"/><rect x="2" y="15" width="11" height="1" rx=".5"/></svg>