<svg xmlns="http://www.w3.org/2000/svg" height="16" width="16.005" fill="#dedede" xmlns:v="https://vecta.io/nano"><path d="M4.304 2l-2.857 8h1.279l.605-1.715h3.182L7.12 10h1.344L5.447 2zm.61 1.871L6.12 7.143H3.726zM10.005 5v1h2.5c.214 0 .5.307.5.5V7h-2.5c-.46 0-.868.192-1.125.484A1.51 1.51 0 0 0 9.005 8.5c.003.36.135.726.39 1.016s.656.484 1.11.484h3.5v-.422c.008-.047 0-.078 0-.078v-3a1.5 1.5 0 0 0-1.5-1.5zm.5 3h2.5v1h-2.5c-.199 0-.283-.055-.36-.14a.57.57 0 0 1-.14-.36.56.56 0 0 1 .125-.36c.073-.082.164-.14.375-.14zm-8 2.793L.151 13.146a.5.5 0 0 0 0 .708.5.5 0 0 0 .708 0l1.646-1.647 2 2 2-2 2 2 2-2 2 2 2.354-2.353a.501.501 0 1 0-.708-.708l-1.646 1.647-2-2-2 2-2-2-2 2z"/></svg>