<svg xmlns="http://www.w3.org/2000/svg" width="16" height="16" fill="#dedede" xmlns:v="https://vecta.io/nano"><path d="M6.74 12.72c-.3.83.27 1.79 1.26 2.15 1 .35 2.04-.03 2.34-.86z"/><path d="M10.412.959c-.54-.003-1.049.259-1.463.637-1.95.055-3.708 1.255-4.373 3.117a1 1 0 0 0-.002.006 12.82 12.82 0 0 1-.959 2.07 5.4 5.4 0 0 1-.475.699c-.094.111-.13.102-.014.068a1 1 0 0 0-.223.098c-.298.179-.531.451-.66.773a1 1 0 0 0-.012.031c-.293.807.14 1.687.93 1.975a1 1 0 0 0 .004.002l7.871 2.818c.796.289 1.67-.152 1.957-.916.148-.385.122-.799-.02-1.129a1 1 0 0 0-.07-.135c.047.074.021.056.02-.08-.003-.191.024-.498.078-.844.109-.691.33-1.551.57-2.211a1 1 0 0 0 0-.002c.671-1.859-.002-3.788-1.377-5.049-.064-.784-.44-1.536-1.223-1.826a1 1 0 0 0-.014-.006 1.66 1.66 0 0 0-.547-.098zm-.18.98a1.07 1.07 0 0 1 .393.061c.525.195.796.736.678 1.27a3.77 3.77 0 0 1 1.33 4.328c-.534 1.465-.923 3.591-.576 4.006.051.119.059.254.008.381-.102.279-.406.432-.686.33l-7.875-2.82c-.279-.102-.432-.414-.33-.693.048-.12.133-.223.244-.289.542-.102 1.585-1.989 2.102-3.463a3.77 3.77 0 0 1 3.775-2.498c.178-.372.546-.599.938-.611z" dominant-baseline="auto"/></svg>