<svg xmlns="http://www.w3.org/2000/svg" width="16" height="16" fill="#dedede" xmlns:v="https://vecta.io/nano"><path d="M.929 7.821L8 .75l.707.707-7.071 7.071z"/><path d="M15.071 7.821L8 .75l-.707.707 7.071 7.071z"/><path d="M1.994 7l.01.096c-.018-.186-.023-.167.002.049l.676 5.969c.08.704.312 1.372.744 1.92S4.557 16 5.344 16h5.313c.786 0 1.486-.419 1.918-.967s.664-1.216.744-1.92l.676-5.971c.024-.213.019-.232.002-.049L14.004 7H13c-.001.011.001.021 0 .031L12.324 13c-.125 1.101-.745 2-1.668 2H5.344c-.923 0-1.543-.899-1.668-2L3 7.031c-.001-.011.001-.021 0-.031z" dominant-baseline="auto"/><path d="M7.949 7A3 3 0 1 0 8 13a3 3 0 1 0 0-6 3 3 0 0 0-.051 0zm.002 1A2 2 0 0 1 8 8a2 2 0 1 1 0 4 2 2 0 0 1-2-2 2 2 0 0 1 1.951-2z"/></svg>