<svg xmlns="http://www.w3.org/2000/svg" width="16" height="16" fill="#dedede" xmlns:v="https://vecta.io/nano"><path d="M2 0C1.139 0 .57.32.287.699S0 1.5 0 1.5v13s.004.424.287.801S1.139 16 2 16a.5.5 0 0 0 .307-.104l5.5-4.25A.5.5 0 0 0 8 11.25V4.5a.5.5 0 0 0-.205-.404l-5.5-4A.5.5 0 0 0 2 0zm0 1.119l5 3.637v6.248l-5 3.863V1.119z"/><path d="M14 0a.5.5 0 0 0-.295.096l-5.5 4A.5.5 0 0 0 8 4.5v6.75a.5.5 0 0 0 .193.396l5.5 4.25A.5.5 0 0 0 14 16c.861 0 1.43-.321 1.713-.7s.287-.8.287-.8v-13s-.004-.423-.287-.8S14.86 0 14 0zm0 1.12v13.747l-5-3.863V4.756z" opacity=".5"/></svg>