<svg xmlns="http://www.w3.org/2000/svg" width="16" height="16" fill="#dedede" xmlns:v="https://vecta.io/nano"><path d="M7.998 2.039C4.228 2.044.928 4.406-.01 7.77c-.044.157-.044.322 0 .479.381 1.351 1.147 2.536 2.168 3.475l.711-.711C1.993 10.196 1.33 9.177 1 8.008 1.821 5.063 4.7 3.004 8 3a7.78 7.78 0 0 1 2.471.41l.76-.76A8.86 8.86 0 0 0 8 2.039zm5.846 2.24l-.711.711c.875.815 1.538 1.833 1.867 3.002-.821 2.944-3.7 5.004-7 5.008a7.76 7.76 0 0 1-2.469-.408l-.758.758A8.83 8.83 0 0 0 8 13.961c3.772-.005 7.072-2.367 8.01-5.73a.89.89 0 0 0 0-.48c-.38-1.35-1.147-2.533-2.166-3.471zM8 5a3 3 0 0 0-3 3 3 3 0 0 0 .105.775l.9-.9a2 2 0 0 1 1.869-1.869l.902-.902A3 3 0 0 0 8 5zm2.894 2.228l-.9.9a2 2 0 0 1-1.865 1.865l-.902.902A3 3 0 0 0 11 8a3 3 0 0 0-.105-.771zM1.99 13.304L13.304 1.99l.707.707L2.697 14.011z"/></svg>