<svg xmlns="http://www.w3.org/2000/svg" width="16" height="16" xmlns:v="https://vecta.io/nano"><path d="M5 3v1h9V3zm0 4v1h9V7zm0 4v1h9v-1z" fill="#dedede"/><path d="M2.5 2a1.5 1.5 0 1 0 0 3 1.5 1.5 0 1 0 0-3zm-.012 1A.5.5 0 0 1 2.5 3a.5.5 0 1 1-.5.5.5.5 0 0 1 .488-.5zM2.5 6a1.5 1.5 0 1 0 0 3 1.5 1.5 0 1 0 0-3zm-.012 1A.5.5 0 0 1 2.5 7a.5.5 0 1 1-.5.5.5.5 0 0 1 .488-.5zm.012 3a1.5 1.5 0 1 0 0 3 1.5 1.5 0 1 0 0-3zm-.012 1a.5.5 0 0 1 .012 0 .5.5 0 1 1-.5.5.5.5 0 0 1 .488-.5z" paint-order="markers stroke fill" fill="#333"/></svg>