<svg xmlns="http://www.w3.org/2000/svg" width="16" height="16" fill="#dedede" xmlns:v="https://vecta.io/nano"><path d="M7.998 2.039C4.228 2.044.928 4.406-.01 7.77c-.044.157-.044.322 0 .479.946 3.356 4.246 5.711 8.01 5.713 3.772-.005 7.072-2.367 8.01-5.73a.89.89 0 0 0 0-.48C15.064 4.396 11.764 2.043 8 2.041zM8 3c3.295.002 6.172 2.054 7 4.992-.821 2.944-3.7 5.004-7 5.008-3.295-.002-6.172-2.054-7-4.992C1.821 5.063 4.7 3.004 8 3zm0 2a3 3 0 1 0 0 6 3 3 0 1 0 0-6zm0 1a2 2 0 1 1 0 4 2 2 0 1 1 0-4z"/></svg>