<svg xmlns="http://www.w3.org/2000/svg" width="16" height="16" fill="#dedede" xmlns:v="https://vecta.io/nano"><path d="M7.01 0l-.004.004a44.79 44.79 0 0 0-1.865 4.785c-1.219.001-3.227.047-5.141.295l.002.002v.002l.002.002v.002c1.461 1.361 3.014 2.55 3.975 3.252-.376 1.16-.953 3.084-1.309 4.98h.008A44.82 44.82 0 0 0 7 10.549l.088.061a4.5 4.5 0 0 1 .328-.994l-.414-.301-.586.424c-.476.344-1.397.887-2.131 1.367l.645-2.453.223-.687-.584-.428c-.474-.347-1.275-1.053-1.959-1.604l2.533-.145.723-.002.227-.687c.183-.558.608-1.538.92-2.357l.92 2.363.225.688.723.002c.588.002 1.652.103 2.529.146L9.6 7.42a4.5 4.5 0 0 1 2.193-.41l2.223-1.914-.002-.002h-.002l-.002-.002V5.09c-1.982-.243-3.937-.292-5.127-.295C8.505 3.636 7.839 1.742 7.012 0H7.01z"/><path d="M11.5 8a3.5 3.5 0 1 0 0 7 3.5 3.5 0 1 0 0-7zM9 11h5v1H9v-1z" paint-order="markers stroke fill"/></svg>