<svg xmlns="http://www.w3.org/2000/svg" width="16" height="16" xmlns:v="https://vecta.io/nano"><path d="M3 3C1.02 3 0 4.172 0 6.607V8.5a1.5 1.5 0 1 0 3 0A1.5 1.5 0 0 0 1.51 7l-.008-.402c0-.949.112-1.598.338-1.952S2.453 4.037 3 4zm4 0C5.02 3 4 4.172 4 6.607V8.5a1.5 1.5 0 1 0 3 0A1.5 1.5 0 0 0 5.51 7l-.008-.402c0-.949.112-1.598.338-1.952S6.453 4.037 7 4zm2.5 2a1.5 1.5 0 1 0-.01 3l.008.402c0 .949-.112 1.598-.338 1.952S8.547 10.963 8 11v1c1.98 0 3-1.172 3-3.607V6.5A1.5 1.5 0 0 0 9.5 5zm4 0a1.5 1.5 0 1 0-.01 3l.008.402c0 .949-.112 1.598-.338 1.952s-.613.609-1.16.646v1c1.98 0 3-1.172 3-3.607V6.5A1.5 1.5 0 0 0 13.5 5z" fill="#dedede"/></svg>