<svg xmlns="http://www.w3.org/2000/svg" width="16" height="16" fill="#dedede" xmlns:v="https://vecta.io/nano"><path d="M12.238 1l-.352.36-8.97 9.094-.029.046c-.061.099-.271.449-.584 1.087s-.7 1.511-1.012 2.493L1 15l.92-.29c.855-.275 1.688-.614 2.493-1.012l1.087-.584.046-.029L15 3.762zm-7.811 9.159l7.778-7.778 1.414 1.414-7.778 7.778zm-.537.731l1.221 1.221-.178.175c.007-.005-.379.227-.961.514-.214.105-.536.221-.834.337l-.273-.273.337-.834.515-.96z"/><path d="M2 13h12a1 1 0 1 1 0 2H1z" opacity=".25" paint-order="markers stroke fill"/></svg>