<svg xmlns="http://www.w3.org/2000/svg" width="16" height="16" fill="#dedede" xmlns:v="https://vecta.io/nano"><path d="M6 5h.4c.07-.001.138.016.199.051L9.4 6.65c.124.069.188.209.188.35s-.063.281-.187.35L6.6 8.949A.4.4 0 0 1 6.4 9H6V5zM0 2v1h1v8.035a1.01 1.01 0 0 0 1 1h5v1.215l-2.72 1.844a.54.54 0 0 0-.188.75c.164.236.541.26.75.062L7.5 14.094l2.658 1.812c.209.198.587.174.75-.062a.54.54 0 0 0-.187-.75L8 13.25v-1.215h5a1.01 1.01 0 0 0 1-1V3h1V2zm2 1h11v7.5c0 .5-.5.5-.5.5h-10c-.5 0-.5-.5-.5-.5z"/></svg>