<svg xmlns="http://www.w3.org/2000/svg" viewBox="0 0 16 240"><defs><style id="current-color-scheme" type="text/css">.ColorScheme-Text{color:#eff0f1}</style></defs><g fill="currentColor"><path d="M7.309 2a.23.23 0 0 0-.233.23l-.408 1.84a4 4 0 0 0-.508.207l-1.586-1.01c-.108-.068-.236-.09-.326 0l-.98.981a.23.23 0 0 0 0 .326l1.011 1.59a4 4 0 0 0-.209.504l-1.84.408A.23.23 0 0 0 2 7.31V8.69c0 .128.106.205.23.233l1.84.408q.086.257.203.5L3.26 11.426c-.069.108-.09.236 0 .326l.978.98c.09.09.238.09.328 0l1.594-1.015q.247.123.508.213l.408 1.84c0 .127.105.23.233.23H8.69c.128 0 .205-.106.233-.23l.408-1.84q.26-.087.508-.207l1.586 1.01c.09.09.236.09.326 0l.98-.981c.09-.09.069-.218 0-.326l-1.011-1.59a4 4 0 0 0 .209-.504l1.84-.408c.124-.028.23-.105.23-.233V7.31a.23.23 0 0 0-.23-.233l-1.84-.408a4 4 0 0 0-.211-.514l1.006-1.58a.23.23 0 0 0 0-.326l-.979-.98c-.09-.09-.218-.069-.326 0l-1.588 1.01a4 4 0 0 0-.5-.208l-.408-1.84C8.896 2.106 8.819 2 8.69 2zM8 6a2 2 0 0 1 2 2 2 2 0 0 1-2 2 2 2 0 0 1-2-2 2 2 0 0 1 2-2M7.94 17.96a.23.23 0 0 0-.256.206l-.598 1.787a4 4 0 0 0-.527.152l-1.471-1.17c-.1-.08-.225-.114-.325-.034l-1.077.873a.23.23 0 0 0-.034.324l.84 1.687a4 4 0 0 0-.26.48l-1.873.213a.23.23 0 0 0-.254.207l-.144 1.375c-.014.128.083.215.205.256l1.787.598q.057.264.15.518l-1.175 1.48c-.08.1-.115.225-.034.324l.87 1.077c.08.1.227.115.327.035l1.69-.844q.233.148.483.265l.214 1.872c-.013.128.08.24.207.254l1.375.144c.128.014.215-.083.256-.205l.598-1.787q.269-.059.527-.152l1.471 1.17c.08.099.225.114.325.034l1.077-.873c.1-.08.091-.21.034-.324l-.84-1.687q.147-.231.26-.48l1.873-.213c.127-.015.24-.08.254-.207l.144-1.375a.23.23 0 0 0-.205-.256l-1.787-.598a4 4 0 0 0-.156-.533l1.166-1.466a.23.23 0 0 0 .034-.325l-.87-1.077c-.081-.1-.21-.09-.325-.034l-1.685.838a4 4 0 0 0-.475-.258l-.214-1.872c-.015-.127-.08-.24-.207-.254zm.27 4.051a2 2 0 0 1 1.779 2.198 2 2 0 0 1-2.198 1.78 2 2 0 0 1-1.78-2.198 2 2 0 0 1 2.198-1.78M8.571 33.987a.23.23 0 0 0-.275.177l-.782 1.715a4 4 0 0 0-.54.097L5.633 34.66c-.091-.09-.212-.138-.319-.068l-1.163.755a.23.23 0 0 0-.068.32l.66 1.765a4 4 0 0 0-.31.449l-1.884.017a.23.23 0 0 0-.274.18l-.288 1.352c-.026.125.061.222.177.275l1.715.782q.03.269.095.531L2.65 42.365c-.09.092-.137.212-.068.32l.754 1.162c.07.107.213.138.32.068l1.77-.662q.217.173.453.314l.017 1.884a.23.23 0 0 0 .18.274l1.352.288c.125.026.222-.061.275-.177l.782-1.715a4 4 0 0 0 .54-.097l1.341 1.317a.23.23 0 0 0 .32.068l1.162-.755c.107-.07.112-.2.068-.32l-.66-1.765q.17-.214.31-.449l1.884-.017c.128 0 .248-.054.274-.18l.288-1.352a.23.23 0 0 0-.177-.275l-1.715-.782a4 4 0 0 0-.1-.546l1.313-1.337a.23.23 0 0 0 .067-.319l-.753-1.162c-.07-.107-.2-.113-.319-.068l-1.763.658a4 4 0 0 0-.446-.307l-.017-1.884c0-.128-.054-.248-.18-.274zm-.155 4.057a2 2 0 0 1 1.54 2.372 2 2 0 0 1-2.372 1.54 2 2 0 0 1-1.54-2.372 2 2 0 0 1 2.372-1.54M9.197 50.08a.23.23 0 0 0-.293.147l-.957 1.624a4 4 0 0 0-.546.04l-1.197-1.45c-.081-.099-.196-.16-.31-.101l-1.235.63a.23.23 0 0 0-.101.31l.47 1.824q-.19.196-.354.415l-1.876-.18a.23.23 0 0 0-.29.15l-.428 1.314c-.04.122.037.228.147.293l1.624.956q.001.27.039.539l-1.457 1.202c-.098.082-.159.197-.1.31l.627 1.235c.058.114.198.16.312.102l1.83-.474q.197.195.417.36l-.18 1.876a.23.23 0 0 0 .15.29l1.315.428c.121.04.227-.037.292-.147l.957-1.624q.274-.002.546-.04l1.197 1.45a.23.23 0 0 0 .31.101l1.235-.63c.114-.057.133-.186.101-.31l-.47-1.824q.19-.195.354-.415l1.876.18c.127.013.251-.028.29-.15l.428-1.315a.23.23 0 0 0-.147-.292l-1.624-.957a4 4 0 0 0-.042-.553l1.445-1.192a.23.23 0 0 0 .1-.31l-.627-1.235c-.058-.114-.186-.133-.31-.101l-1.822.47a4 4 0 0 0-.412-.352l.18-1.876c.013-.127-.028-.251-.15-.29zm-.579 4.018a2 2 0 0 1 1.284 2.52 2 2 0 0 1-2.52 1.284 2 2 0 0 1-1.284-2.52 2 2 0 0 1 2.52-1.284M9.809 66.237a.23.23 0 0 0-.306.116L8.38 67.868a4 4 0 0 0-.548-.017l-1.038-1.568c-.07-.106-.178-.178-.298-.132l-1.294.496a.23.23 0 0 0-.133.298l.278 1.864q-.21.175-.396.376l-1.847-.376a.23.23 0 0 0-.305.119l-.563 1.263c-.052.117.014.23.116.306l1.515 1.121q-.027.27-.018.54L2.276 73.2c-.106.071-.178.18-.133.298l.496 1.294c.045.12.18.18.3.134l1.868-.28q.176.213.378.401l-.376 1.847a.23.23 0 0 0 .119.305l1.263.562c.117.052.23-.013.306-.116l1.122-1.514q.273.026.548.017l1.038 1.568a.23.23 0 0 0 .298.132l1.294-.497c.12-.046.152-.171.133-.298l-.278-1.863q.21-.175.396-.376l1.847.376c.125.025.253-.002.305-.119l.562-1.263a.23.23 0 0 0-.116-.306l-1.514-1.122q.027-.277.016-.555l1.561-1.034a.23.23 0 0 0 .133-.298l-.495-1.294c-.046-.12-.172-.151-.298-.132l-1.861.276q-.174-.209-.373-.392l.376-1.847c.025-.125-.002-.253-.12-.305zm-.996 3.936a2 2 0 0 1 1.014 2.64 2 2 0 0 1-2.64 1.014 2 2 0 0 1-1.014-2.64 2 2 0 0 1 2.64-1.014M10.401 82.459a.23.23 0 0 0-.316.083l-1.274 1.39a4 4 0 0 0-.543-.075l-.869-1.668c-.059-.113-.159-.196-.282-.163l-1.34.359a.23.23 0 0 0-.163.283l.082 1.882a4 4 0 0 0-.433.332l-1.798-.566a.23.23 0 0 0-.316.086l-.69 1.197c-.065.111-.012.23.082.317l1.39 1.273a4 4 0 0 0-.074.535l-1.675.873c-.113.06-.196.16-.163.283l.357 1.338c.033.124.16.197.284.164l1.888-.083q.152.23.334.439l-.567 1.797a.23.23 0 0 0 .086.316l1.198.691c.11.064.23.011.316-.083l1.274-1.39q.269.057.543.076l.869 1.667a.23.23 0 0 0 .282.163l1.34-.359c.123-.033.168-.155.162-.282l-.08-1.883q.226-.152.432-.332l1.798.566c.121.039.252.025.315-.086l.692-1.197a.23.23 0 0 0-.084-.317l-1.389-1.273q.056-.274.074-.55l1.661-.866a.23.23 0 0 0 .163-.282l-.357-1.339c-.033-.123-.154-.168-.282-.163l-1.88.08a4 4 0 0 0-.33-.429l.567-1.797c.038-.122.024-.252-.086-.316zM9 86.269A2 2 0 0 1 9.732 89 2 2 0 0 1 7 89.733 2 2 0 0 1 6.268 87 2 2 0 0 1 9 86.269M10.967 98.74a.23.23 0 0 0-.323.05l-1.412 1.25a4 4 0 0 0-.532-.132l-.69-1.749c-.047-.119-.137-.212-.264-.192l-1.37.217a.23.23 0 0 0-.191.264l-.116 1.881a4 4 0 0 0-.465.285l-1.729-.751a.23.23 0 0 0-.323.052l-.813 1.119c-.075.103-.034.228.05.323l1.249 1.412a4 4 0 0 0-.13.524l-1.757.694c-.118.046-.211.137-.191.263l.215 1.369c.02.126.14.213.265.193l1.887.115q.127.245.286.47l-.752 1.729a.23.23 0 0 0 .053.323l1.119.813c.103.075.227.035.323-.05l1.412-1.249q.262.084.532.131l.69 1.75a.23.23 0 0 0 .264.191l1.37-.217c.126-.02.183-.136.191-.264l.116-1.88a4 4 0 0 0 .465-.285l1.729.75c.117.052.248.052.323-.052l.812-1.118a.23.23 0 0 0-.05-.324l-1.248-1.412q.084-.265.131-.54l1.743-.686a.23.23 0 0 0 .191-.264l-.215-1.368c-.02-.127-.136-.184-.264-.192l-1.878-.117a4 4 0 0 0-.283-.461l.751-1.728c.052-.118.051-.248-.052-.324zm-1.791 3.643a2 2 0 0 1 .442 2.794 2 2 0 0 1-2.794.442 2 2 0 0 1-.442-2.793 2 2 0 0 1 2.794-.443M11.5 115.08a.23.23 0 0 0-.326.016L9.64 116.19a4 4 0 0 0-.516-.186l-.503-1.811c-.034-.123-.115-.225-.243-.219l-1.384.073a.23.23 0 0 0-.219.242l-.312 1.859q-.254.101-.492.235l-1.64-.928a.23.23 0 0 0-.327.018l-.926 1.028c-.085.095-.058.223.016.327l1.094 1.534a4 4 0 0 0-.183.508l-1.82.506c-.123.034-.225.115-.218.242l.07 1.384a.233.233 0 0 0 .245.22l1.864.31q.1.258.235.499l-.928 1.64a.23.23 0 0 0 .018.327l1.028.925c.095.086.223.059.327-.015l1.534-1.094q.252.11.516.186l.503 1.811a.23.23 0 0 0 .243.218l1.384-.072c.128-.007.197-.117.218-.243l.312-1.858q.255-.101.493-.235l1.64.928c.112.063.242.076.327-.018l.925-1.028a.23.23 0 0 0-.015-.327l-1.095-1.535q.112-.255.187-.522l1.805-.502a.23.23 0 0 0 .218-.242l-.07-1.383c-.008-.128-.117-.197-.243-.219l-1.856-.312a4 4 0 0 0-.233-.488l.928-1.64c.063-.112.076-.242-.019-.327zm-2.162 3.436a2 2 0 0 1 .148 2.824 2 2 0 0 1-2.824.148 2 2 0 0 1-.148-2.824 2 2 0 0 1 2.824-.148M11.996 131.474a.23.23 0 0 0-.327-.019l-1.64.928a4 4 0 0 0-.494-.239l-.31-1.854c-.022-.126-.091-.236-.219-.242l-1.384-.073a.23.23 0 0 0-.243.218l-.504 1.816q-.264.075-.515.182l-1.534-1.094a.23.23 0 0 0-.327-.016l-1.028.925c-.095.086-.081.216-.018.327l.927 1.64q-.133.236-.235.486l-1.863.313c-.126.021-.236.09-.242.218l-.074 1.384a.233.233 0 0 0 .22.243l1.82.505q.075.266.182.52l-1.094 1.535a.23.23 0 0 0-.016.326l.926 1.028c.085.095.215.082.326.019l1.64-.928q.24.135.494.239l.311 1.854a.23.23 0 0 0 .218.242l1.385.073c.128.006.208-.095.243-.218l.504-1.816q.264-.075.514-.182l1.535 1.094c.104.075.232.101.327.016l1.027-.925a.23.23 0 0 0 .019-.327l-.928-1.64a4 4 0 0 0 .24-.5l1.848-.31a.23.23 0 0 0 .242-.219l.074-1.383c.006-.128-.095-.208-.218-.243l-1.813-.504a4 4 0 0 0-.18-.51l1.093-1.535c.075-.104.102-.232.016-.327zm-2.51 3.19a2 2 0 0 1-.148 2.825 2 2 0 0 1-2.824-.148 2 2 0 0 1 .148-2.825 2 2 0 0 1 2.824.148M12.448 147.917a.23.23 0 0 0-.323-.053l-1.729.752a4 4 0 0 0-.466-.29l-.115-1.876c-.008-.128-.066-.244-.192-.264l-1.37-.217a.23.23 0 0 0-.263.192l-.692 1.753a4 4 0 0 0-.53.127l-1.412-1.249a.23.23 0 0 0-.324-.05l-1.118.813c-.104.075-.104.206-.053.323l.751 1.729q-.158.22-.285.458l-1.885.117c-.127.008-.244.065-.264.191l-.218 1.368a.233.233 0 0 0 .193.266l1.758.692q.045.273.127.536l-1.249 1.412a.23.23 0 0 0-.05.323l.813 1.12c.075.103.206.103.323.052l1.729-.752q.223.16.465.29l.116 1.876a.23.23 0 0 0 .191.264l1.37.217c.126.02.217-.073.264-.192l.691-1.753q.27-.046.53-.127l1.413 1.249c.095.084.22.124.323.05l1.119-.813a.23.23 0 0 0 .052-.323l-.75-1.729q.16-.226.29-.472l1.87-.115a.23.23 0 0 0 .264-.192l.218-1.368c.02-.127-.073-.217-.192-.264l-1.75-.691a4 4 0 0 0-.126-.526l1.248-1.412c.085-.096.125-.22.05-.323zm-2.83 2.91a2 2 0 0 1-.443 2.794 2 2 0 0 1-2.793-.442 2 2 0 0 1 .442-2.794 2 2 0 0 1 2.794.443M12.85 164.405a.23.23 0 0 0-.316-.086l-1.797.566a4 4 0 0 0-.433-.336l.081-1.879c.005-.127-.04-.249-.163-.282l-1.339-.359a.23.23 0 0 0-.283.163l-.87 1.671a4 4 0 0 0-.541.071l-1.274-1.389a.23.23 0 0 0-.316-.083l-1.198.691c-.11.064-.124.194-.086.316l.566 1.797q-.18.202-.331.426l-1.887-.08c-.128-.006-.25.039-.283.162l-.36 1.338a.233.233 0 0 0 .165.284l1.676.873q.016.274.07.546l-1.39 1.273a.23.23 0 0 0-.083.317l.691 1.197c.064.111.194.125.316.086l1.798-.566q.205.182.433.336l-.082 1.879a.23.23 0 0 0 .163.282l1.34.359c.123.032.223-.05.282-.163l.871-1.671q.273-.018.54-.071l1.274 1.389c.087.094.206.147.317.083l1.197-.691a.23.23 0 0 0 .087-.316l-.567-1.797q.184-.209.34-.44l1.87.081a.23.23 0 0 0 .283-.163l.36-1.338c.032-.123-.05-.223-.163-.282l-1.668-.87a4 4 0 0 0-.071-.537l1.39-1.273c.093-.087.146-.206.082-.317zm-3.118 2.599A2 2 0 0 1 9 169.736a2 2 0 0 1-2.732-.732A2 2 0 0 1 7 166.272a2 2 0 0 1 2.732.732M13.2 180.932a.23.23 0 0 0-.305-.119l-1.847.376a4 4 0 0 0-.396-.38l.278-1.86c.018-.126-.014-.252-.133-.297l-1.294-.497a.23.23 0 0 0-.298.132l-1.041 1.571a4 4 0 0 0-.546.014l-1.121-1.514a.23.23 0 0 0-.306-.116l-1.263.562c-.117.052-.144.18-.119.305l.375 1.847a4 4 0 0 0-.374.389l-1.868-.278c-.126-.018-.252.013-.298.133l-.498 1.292a.233.233 0 0 0 .134.3l1.576 1.043q-.012.276.012.55l-1.515 1.122a.23.23 0 0 0-.116.306l.563 1.263c.052.117.18.144.305.119l1.846-.376q.186.203.396.38l-.277 1.86a.23.23 0 0 0 .132.297l1.295.497c.12.045.227-.026.298-.132l1.04-1.571q.274.01.546-.014l1.121 1.514c.076.103.19.168.306.116l1.264-.562a.23.23 0 0 0 .118-.305l-.375-1.847q.205-.188.383-.402l1.853.277a.23.23 0 0 0 .298-.133l.498-1.293c.045-.12-.027-.227-.133-.298l-1.568-1.04a4 4 0 0 0-.015-.54l1.515-1.122c.103-.076.168-.19.116-.306zm-3.373 2.259a2 2 0 0 1-1.014 2.64 2 2 0 0 1-2.64-1.013 2 2 0 0 1 1.013-2.641 2 2 0 0 1 2.64 1.014M13.492 197.493a.23.23 0 0 0-.29-.15l-1.877.18a4 4 0 0 0-.353-.419l.47-1.82c.031-.124.013-.252-.1-.31l-1.236-.63a.23.23 0 0 0-.31.101l-1.2 1.453a4 4 0 0 0-.544-.043l-.957-1.623a.23.23 0 0 0-.292-.148l-1.315.428c-.122.04-.162.163-.15.29l.18 1.877a4 4 0 0 0-.412.347l-1.83-.471c-.123-.032-.252-.013-.31.1l-.63 1.234a.233.233 0 0 0 .102.312l1.458 1.202a4 4 0 0 0-.045.549l-1.624.957a.23.23 0 0 0-.147.292l.427 1.315c.04.122.164.162.29.15l1.877-.18q.163.22.354.419l-.47 1.82a.23.23 0 0 0 .1.31l1.236.63c.114.057.228-.002.31-.101l1.2-1.454q.27.039.543.043l.957 1.624c.064.11.17.187.292.147l1.315-.427c.122-.04.19-.17.15-.291l-.18-1.876q.224-.165.423-.36l1.814.469a.23.23 0 0 0 .31-.1l.63-1.234c.057-.115-.002-.23-.1-.31l-1.452-1.199q.039-.268.043-.54l1.623-.956c.11-.065.187-.171.147-.292zm-3.59 1.893a2 2 0 0 1-1.284 2.52 2 2 0 0 1-2.52-1.284 2 2 0 0 1 1.284-2.52 2 2 0 0 1 2.52 1.284M13.725 214.08a.23.23 0 0 0-.274-.179l-1.885-.016a4 4 0 0 0-.308-.454l.658-1.761c.045-.12.04-.25-.067-.32l-1.163-.755a.23.23 0 0 0-.32.068l-1.344 1.32a4 4 0 0 0-.536-.1l-.782-1.714a.23.23 0 0 0-.276-.177l-1.352.287c-.125.027-.178.146-.18.274l-.016 1.885q-.234.136-.447.302l-1.77-.66c-.12-.044-.25-.04-.319.068l-.756 1.16a.233.233 0 0 0 .069.322l1.324 1.348q-.069.267-.102.54l-1.715.782a.23.23 0 0 0-.177.276l.287 1.352c.027.125.146.178.274.18l1.885.016q.138.238.308.454l-.658 1.761a.23.23 0 0 0 .067.32l1.163.754c.108.07.228.022.32-.067l1.344-1.32a4 4 0 0 0 .536.1l.782 1.714c.053.116.15.203.276.177l1.352-.288a.23.23 0 0 0 .18-.273l.016-1.885q.24-.14.459-.313l1.755.655c.107.07.25.04.319-.067l.755-1.161c.07-.108.022-.228-.068-.32l-1.317-1.343q.066-.262.098-.532l1.715-.782c.116-.053.204-.15.177-.275zm-3.77 1.509a2 2 0 0 1-1.54 2.372 2 2 0 0 1-2.372-1.54 2 2 0 0 1 1.54-2.373 2 2 0 0 1 2.373 1.54M13.894 230.69a.23.23 0 0 0-.253-.207l-1.872-.214a4 4 0 0 0-.26-.483l.84-1.683c.056-.115.064-.244-.035-.325l-1.078-.872a.23.23 0 0 0-.324.034l-1.475 1.172a4 4 0 0 0-.523-.155l-.599-1.787a.23.23 0 0 0-.255-.205l-1.375.145c-.127.013-.193.126-.207.253l-.214 1.873q-.246.111-.476.254l-1.691-.842c-.115-.056-.244-.065-.324.034l-.873 1.076c-.08.1-.065.246.034.326l1.177 1.48a4 4 0 0 0-.159.526l-1.787.599a.23.23 0 0 0-.205.255l.145 1.375c.013.127.126.193.253.207l1.872.214q.114.25.26.483l-.84 1.683a.23.23 0 0 0 .035.325l1.078.872c.1.08.224.046.324-.034l1.475-1.172q.258.094.523.155l.599 1.787c.04.121.128.218.255.205l1.375-.145a.23.23 0 0 0 .207-.253l.214-1.873q.254-.115.489-.263l1.676.835c.1.08.244.065.325-.034l.872-1.076c.08-.1.046-.224-.034-.324l-1.17-1.474a4 4 0 0 0 .154-.519l1.787-.598c.121-.04.218-.128.205-.255zm-3.905 1.106a2 2 0 0 1-1.78 2.198 2 2 0 0 1-2.198-1.78 2 2 0 0 1 1.78-2.198 2 2 0 0 1 2.198 1.78" class="ColorScheme-Text"/></g></svg>