<svg xmlns="http://www.w3.org/2000/svg" width="16" height="16"><path fill="#dedede" stroke-linecap="square" d="M3 1c-1.108 0-2 .892-2 2v10c0 1.108.892 2 2 2h1a4 4 0 0 1 .295-1.508q.008-.028.017-.054.013-.025.026-.05a4 4 0 0 1 .293-.542q.059-.091.12-.178a4 4 0 0 1 .325-.396l.016-.018c.026-.028.045-.063.072-.09.032-.032.07-.055.104-.086a4 4 0 0 1 .39-.32q.096-.069.196-.133a4 4 0 0 1 .486-.264c.031-.014.058-.035.09-.048.031-.014.065-.02.097-.032a4 4 0 0 1 .604-.185l.107-.022A4 4 0 0 1 8 11a4 4 0 0 1 .254.01 4.5 4.5 0 0 1 .601-1.149 3 3 0 0 1-.855.14Q7.383 10 6.836 9.765q-.547-.243-.953-.649c-.406-.406-.487-.588-.649-.953A2.9 2.9 0 0 1 5 7q0-.617.234-1.164.243-.547.649-.953c.406-.406.588-.485.953-.64A2.8 2.8 0 0 1 8 4q.617 0 1.164.242.547.235.953.64.407.408.64.954Q11 6.382 11 7t-.242 1.164c-.037.087-.09.163-.133.244a4.5 4.5 0 0 1 1.234-.361l.008-.024A4 4 0 0 0 12 7q0-.828-.312-1.555a3.9 3.9 0 0 0-.86-1.273 3.9 3.9 0 0 0-1.273-.86A3.9 3.9 0 0 0 8 3a3.95 3.95 0 0 0-1.562.313 3.99 3.99 0 0 0-2.125 2.133A3.9 3.9 0 0 0 4.003 7q-.002.524.13 1.023.132.501.383.954.257.444.617.82.36.367.812.633-.554.241-1.023.61a5 5 0 0 0-1.46 1.835q-.252.54-.368 1.125H3c-.554 0-1-.446-1-1V3c0-.554.446-1 1-1h10c.554 0 1 .446 1 1v5.258a4.5 4.5 0 0 1 1 .5V3c0-1.108-.892-2-2-2z" aria-label="" style="paint-order:stroke fill markers"/><path fill="#dedede" d="M12.5 9a3.5 3.5 0 1 0 0 7 3.5 3.5 0 0 0 0-7m.914 2.172.707.707L12 14l-1.414-1.414.707-.707.707.707z" style="paint-order:stroke fill markers"/></svg>