<svg xmlns="http://www.w3.org/2000/svg" width="16" height="16"><path fill="#dedede" stroke-linecap="square" stroke-width="2.667" d="M14 6q.406 0 .773.164.368.156.633.43.274.265.43.633Q16 7.594 16 8q0 .414-.164.781-.156.36-.43.633-.265.266-.633.43Q14.406 10 14 10h-3.5l-3 6H4l2-6H4l-.5 1H0l1-3-1-3h3.5L4 6h2L4 0h3.5l3 6zm0 3q.21 0 .39-.078t.313-.211q.14-.14.219-.32T15 8t-.078-.39-.219-.313q-.133-.14-.312-.219Q14.21 7 14 7H9.883q-.774-1.5-1.508-2.992Q7.641 2.508 6.883 1H5.39q.5 1.508.992 3.008Q6.875 5.5 7.39 7H3.383l-.5-1H1.39q.164.5.32 1 .164.5.344 1-.18.5-.344 1-.156.5-.32 1h1.492l.5-1H7.39q-.516 1.5-1.008 3-.492 1.492-.992 3h1.492q.758-1.508 1.492-3 .734-1.5 1.508-3z" aria-label="" opacity=".35" style="paint-order:stroke fill markers"/></svg>