<svg xmlns="http://www.w3.org/2000/svg" width="16" height="16"><path fill="#dedede" stroke-linecap="round" stroke-linejoin="round" stroke-width="2.001" d="M5.292 1.997h.711v12.006h-.711l-3.001-3.001H0V4.999h2.29zm-.29 1.712-2.29 2.29H1.002v4.002h1.712l2.29 2.29z" aria-label="" style="paint-order:stroke fill markers"/><path fill="#dedede" d="M13.077.926q.703.704 1.243 1.524.547.821.922 1.728.375.9.563 1.868Q16 7.006 16 8q0 .993-.195 1.962a9.8 9.8 0 0 1-1.485 3.588 9.6 9.6 0 0 1-1.243 1.524l-.703-.704a8.7 8.7 0 0 0 1.117-1.368q.493-.742.829-1.555c.336-.813.393-1.102.508-1.68a8.8 8.8 0 0 0 0-3.526 8.9 8.9 0 0 0-1.337-3.236 8.6 8.6 0 0 0-1.117-1.375zm-2.118 2.118q.492.494.867 1.071.384.57.641 1.204.266.633.399 1.313a6.7 6.7 0 0 1 0 2.744 6.7 6.7 0 0 1-.399 1.305 6.9 6.9 0 0 1-1.508 2.274l-.711-.71a5.9 5.9 0 0 0 1.297-1.947q.46-1.102.461-2.298c.001-1.196-.154-1.563-.461-2.298a5.9 5.9 0 0 0-1.297-1.946zM8.833 5.17q.563.563.867 1.298c.304.735.305 1 .305 1.532A4 4 0 0 1 9.7 9.532q-.305.735-.867 1.297l-.704-.703q.422-.421.65-.97A3 3 0 0 0 9.004 8q0-.601-.227-1.15a2.9 2.9 0 0 0-.649-.976z" opacity=".35" style="paint-order:stroke fill markers"/></svg>