<svg xmlns="http://www.w3.org/2000/svg" width="16" height="16"><path fill="#f55" d="M7.334 5q.74 0 1.203.44Q9 5.87 9 6.544q0 .292-.154.594a2 2 0 0 1-.276.43 7 7 0 0 1-.326.318l-.039.04q-.495.447-.496.893v.327h-.766v-.383q0-.366.155-.625.154-.27.545-.627.22-.204.308-.301a1.2 1.2 0 0 0 .188-.283.8.8 0 0 0 .097-.383q0-.375-.244-.602-.235-.227-.658-.228-.7 0-.959.781l-.7-.293a2.05 2.05 0 0 1 .587-.83Q6.684 5 7.334 5m-.008 4.895q.236 0 .39.162.164.162.163.39c-.001.228-.054.282-.162.39a.52.52 0 0 1-.39.163.54.54 0 0 1-.554-.553q0-.228.155-.39a.54.54 0 0 1 .398-.162" class="error"/><path fill="#dedede" d="M2 3C.892 3 0 3.892 0 5v6c0 1.108.892 2 2 2h11c1.108 0 2-.892 2-2V9h1V7h-1V5c0-1.108-.892-2-2-2zm0 1h11c.554 0 1 .446 1 1v6c0 .554-.446 1-1 1H2c-.554 0-1-.446-1-1V5c0-.554.446-1 1-1" style="paint-order:stroke fill markers"/></svg>