<svg xmlns="http://www.w3.org/2000/svg" width="16" height="16"><path fill="#dedede" stroke-linecap="round" stroke-linejoin="round" stroke-width="2.219" d="M7 0v6.656l-2.937-2.93-.782.782L6.766 8 3.28 11.492l.781.781L7 9.343V16l2-2.004v-1.574l-.89.89V9.344L9.765 11h.246c.004-.386.087-.756.224-1.098L8.334 8l3.328-3.328zm1.11 2.688 1.984 1.984-1.985 1.984z" aria-label="" style="paint-order:stroke fill markers"/><path fill="#dedede" d="M13 8.999c-1.108 0-2 .911-2 2.031V12h-1v4h6v-4h-1v-.97C15 9.91 14.108 9 13 9zm0 1c.554 0 1 .443 1 1v1h-2v-1c0-.557.446-1 1-1" color="#000" style="font-feature-settings:normal;font-variant-alternates:normal;font-variant-caps:normal;font-variant-east-asian:normal;font-variant-ligatures:normal;font-variant-numeric:normal;font-variant-position:normal;font-variation-settings:normal;inline-size:0;isolation:auto;mix-blend-mode:normal;shape-margin:0;shape-padding:0;text-decoration-color:#000;text-decoration-line:none;text-decoration-style:solid;text-indent:0;text-orientation:mixed;text-transform:none;white-space:normal"/></svg>