<svg xmlns="http://www.w3.org/2000/svg" width="16" height="16"><path fill="#dedede" d="M620.25-190a.25.25 0 0 0-.25.25v1.5c0 .139.112.25.25.25h.5a.25.25 0 0 0 .25-.25v-1.5a.25.25 0 0 0-.25-.25zm-4.699 1.947a.25.25 0 0 0-.178.073l-.353.353a.25.25 0 0 0 0 .354l1.06 1.06a.25.25 0 0 0 .354 0l.353-.353a.25.25 0 0 0 0-.354l-1.06-1.06a.25.25 0 0 0-.176-.073m9.898 0a.25.25 0 0 0-.175.073l-1.06 1.06a.25.25 0 0 0 0 .354l.353.353a.25.25 0 0 0 .353 0l1.06-1.06a.25.25 0 0 0 0-.354l-.353-.353a.25.25 0 0 0-.178-.073M620.5-186a3.5 3.5 0 0 0-3.5 3.5 3.5 3.5 0 0 0 3.5 3.5 3.5 3.5 0 0 0 3.5-3.5 3.5 3.5 0 0 0-3.5-3.5m0 1a2.5 2.5 0 0 1 2.5 2.5 2.5 2.5 0 0 1-2.5 2.5 2.5 2.5 0 0 1-2.5-2.5 2.5 2.5 0 0 1 2.5-2.5m-7.25 2a.25.25 0 0 0-.25.25v.5c0 .139.112.25.25.25h1.5a.25.25 0 0 0 .25-.25v-.5a.25.25 0 0 0-.25-.25zm13 0a.25.25 0 0 0-.25.25v.5c0 .139.112.25.25.25h1.5a.25.25 0 0 0 .25-.25v-.5a.25.25 0 0 0-.25-.25zm-9.992 4.139a.25.25 0 0 0-.178.074l-1.06 1.06a.25.25 0 0 0 0 .354l.353.353a.25.25 0 0 0 .354 0l1.06-1.06a.25.25 0 0 0 0-.354l-.353-.353a.25.25 0 0 0-.176-.074m8.484 0a.25.25 0 0 0-.175.074l-.354.353a.25.25 0 0 0 0 .354l1.06 1.06a.25.25 0 0 0 .354 0l.354-.353a.25.25 0 0 0 0-.354l-1.06-1.06a.25.25 0 0 0-.179-.074M620.25-177a.25.25 0 0 0-.25.25v1.5c0 .139.112.25.25.25h.5a.25.25 0 0 0 .25-.25v-1.5a.25.25 0 0 0-.25-.25z" opacity=".35" overflow="visible" style="isolation:auto;mix-blend-mode:normal" transform="translate(-613 191)"/></svg>