<svg xmlns="http://www.w3.org/2000/svg" width="16" height="16"><g fill="#dedede" color="#dedede" transform="translate(-260 327)"><path d="M270.5-324c-.277 0-.5.223-.5.5v11c0 .277.223.5.5.5h.5v-3h.242l-.242-1.938V-322h1v-1.5c0-.277-.223-.5-.5-.5z"/><rect width="2" height="9" x="267" y="-321" overflow="visible" ry=".5"/><rect width="2" height="6" x="264" y="-318" overflow="visible" ry=".5"/><rect width="2" height="3" x="261" y="-315" overflow="visible" ry=".5"/><path d="M273.5-327c-.277 0-.5.223-.5.5v4.5h2v-4.5c0-.277-.223-.5-.5-.5zm1.5 10.062-.242 1.938H275z"/></g><path fill="#f55" d="M12 6v4l.25 2h1.5l.25-2V6zm0 7v2h2v-2z" class="warning"/></svg>