<svg xmlns="http://www.w3.org/2000/svg" width="16" height="16.001"><g fill="#dedede" color="#dedede"><path d="M13.5 0c-.277 0-.5.223-.5.5v14c0 .277.223.5.5.5h1c.277 0 .5-.223.5-.5V.5c0-.277-.223-.5-.5-.5zm-3 3c-.277 0-.5.223-.5.5v11c0 .277.223.5.5.5h1c.277 0 .5-.223.5-.5v-11c0-.277-.223-.5-.5-.5z" opacity=".35" overflow="visible" style="marker:none"/><path d="M7.5 6c-.277 0-.5.223-.5.5v8c0 .277.223.5.5.5h1c.277 0 .5-.223.5-.5v-8c0-.277-.223-.5-.5-.5zm-3 3c-.277 0-.5.223-.5.5v5c0 .277.223.5.5.5h1c.277 0 .5-.223.5-.5v-5c0-.277-.223-.5-.5-.5zm-3 3c-.277 0-.5.223-.5.5v2c0 .277.223.5.5.5h1c.277 0 .5-.223.5-.5v-2c0-.277-.223-.5-.5-.5z" overflow="visible" style="marker:none"/></g></svg>