<svg xmlns="http://www.w3.org/2000/svg" width="16" height="16"><path fill="#dedede" d="M13 6q.406 0 .773.164.367.156.633.43.274.266.43.633Q15 7.593 15 8v1h1v5h-6V9h1V8a1.96 1.96 0 0 1 .586-1.406A2.03 2.03 0 0 1 13 6m-1 3h2V8a.95.95 0 0 0-.078-.383.9.9 0 0 0-.219-.32.9.9 0 0 0-.32-.219A.95.95 0 0 0 13 7q-.21 0-.39.078c-.18.078-.227.125-.32.219q-.134.133-.212.312A.8.8 0 0 0 12 8zm3 1h-4v3h4z" color="#000" style="font-feature-settings:normal;font-variant-alternates:normal;font-variant-caps:normal;font-variant-east-asian:normal;font-variant-ligatures:normal;font-variant-numeric:normal;font-variant-position:normal;font-variation-settings:normal;inline-size:0;isolation:auto;mix-blend-mode:normal;paint-order:stroke fill markers;shape-margin:0;shape-padding:0;text-decoration-color:#000;text-decoration-line:none;text-decoration-style:solid;text-indent:0;text-orientation:mixed;text-transform:none;white-space:normal"/><path fill="#dedede" d="M1 2c-.554 0-1 .446-1 1v4c0 .554.446 1 1 1h1v6h1v-3h5v2H5v1h4v-4H3V8h1c.554 0 1-.446 1-1V3h10v2h1V3c0-.554-.446-1-1-1H1m0 1h3v1H1zm0 2h1v1h1V5h1v2H1z" style="paint-order:stroke fill markers"/></svg>