<svg xmlns="http://www.w3.org/2000/svg" width="16" height="16"><g fill="#dedede" color="#dedede"><path d="M10.5 3c-.277 0-.5.222-.5.5v11a.5.5 0 0 0 .5.5h1a.5.5 0 0 0 .5-.5v-11c0-.278-.223-.5-.5-.5zm-3 3c-.277 0-.5.222-.5.5v8a.5.5 0 0 0 .5.5h1a.5.5 0 0 0 .5-.5v-8c0-.278-.223-.5-.5-.5zm-3 3c-.277 0-.5.222-.5.5v5a.5.5 0 0 0 .5.5h1a.5.5 0 0 0 .5-.5v-5c0-.278-.223-.5-.5-.5zm-3 3c-.277 0-.5.222-.5.5v2a.5.5 0 0 0 .5.5h1a.5.5 0 0 0 .5-.5v-2c0-.278-.223-.5-.5-.5z" overflow="visible" style="marker:none"/><path d="M13.5 0h1c.277 0 .5.223.5.5v14c0 .277-.223.5-.5.5h-1a.5.5 0 0 1-.5-.5V.5c0-.277.223-.5.5-.5" opacity=".35" overflow="visible" style="marker:none"/></g></svg>