<svg xmlns="http://www.w3.org/2000/svg" width="16" height="16.007"><path fill="#dedede" d="M3.938.006c-.36.047-.938.25-.938 1v2s-1 0-1 1v3H1s-1 0-1 1v5.5c0 .5.5.5.5.5H1c0 1 1 1 1 1s0 1 1 1h5.106a1.4 1.4 0 0 1 .023-1H3v-1h5.67l.568-1H1V8.569c0-.422.378-.536.563-.563a.3.3 0 0 1 .093 0h12.688s.656 0 .656.563v3.096l1 1.763V8.006c0-1-1-1-1-1h-1v-3c0-1-1-1-1-1v-2c0-1-1-1-1.187-1H4.188c-.047 0-.13-.015-.25 0m.062 1h8v6H4zm7.002 12.946-.031.054h.03zm2.994 0 .004.054v1s.262-.002.518-.136z" color="#000"/><path fill="#dedede" d="M3 8.006v4h6.805l1.443-2.544.002-.002a1.44 1.44 0 0 1 1.184-.725h.002a1.4 1.4 0 0 1 .564.101v-.83z" opacity=".5"/><path fill="#f9c440" d="M12.48 9.734a.44.44 0 0 0-.361.22l-3.06 5.397a.437.437 0 0 0 .378.655h6.125a.437.437 0 0 0 .379-.655l-3.06-5.396a.44.44 0 0 0-.401-.22zM12 11.006h1v2h-1zm0 3h1v1h-1z" class="warning" color="#000"/></svg>