<svg xmlns="http://www.w3.org/2000/svg" width="16" height="16.007"><g fill="#dedede"><path d="M796.938-270.993c-.36.047-.938.25-.938 1v2s-1 0-1 1v3h-1s-1 0-1 1v5.5c0 .5.5.5.5.5h.5c0 1 1 1 1 1s0 1 1 1h10c1 0 1-1 1-1s1 0 1-1h.5c.5 0 .5-.42.5-.5v-5.5c0-1-1-1-1-1h-1v-3c0-1-1-1-1-1v-2c0-1-1-1-1.187-1h-7.625c-.047 0-.13-.016-.25 0m.062 1h8v6h-8zm-2.437 7a.3.3 0 0 1 .093 0h12.688s.656 0 .656.562v4.438h-14v-4.438c0-.421.378-.536.563-.562m1.437 6h10v1h-10z" color="#000" font-family="Sans" font-weight="400" overflow="visible" style="line-height:normal;-inkscape-font-specification:Sans;text-indent:0;text-align:start;text-decoration-line:none;text-transform:none;marker:none" transform="translate(-793 271)"/><path d="M3 8.007v4h10v-4z" opacity=".5"/><path d="m7 2 2.03.011L9 3h1L8.04 6.002 6 3l.993.002z" class="success"/></g></svg>