<svg xmlns="http://www.w3.org/2000/svg" width="16" height="16.01"><path fill="#dedede" d="M3.938.007c-.36.047-.938.25-.938 1v2s-1 0-1 1v3H1s-1 0-1 1v5.5c0 .5.5.5.5.5H1c0 1 1 1 1 1s0 1 1 1h6.719a4.6 4.6 0 0 1-.938-1h-5.78v-1h5.28a4.4 4.4 0 0 1-.218-1H1V8.569c0-.421.378-.536.563-.562a.3.3 0 0 1 .093 0h12.688s.656 0 .656.563v.218c.381.258.714.579 1 .938V8.007c0-1-1-1-1-1h-1v-3c0-1-1-1-1-1v-2c0-1-1-1-1.187-1H4.188c-.047 0-.13-.016-.25 0m.062 1h8v6H4z" color="#000"/><path fill="#dedede" d="M3 8.007v4h5.063c.253-2.238 2.135-4 4.437-4zm9.5 0c.171 0 .334.044.5.063v-.063z" opacity=".5"/><path fill="#ef2929" d="M12.5 9.007a3.5 3.5 0 1 0 0 7 3.5 3.5 0 0 0 0-7m-.5 1h1v3h-1zm0 4h1v1h-1z" class="error"/></svg>