<svg xmlns="http://www.w3.org/2000/svg" width="16" height="16"><path fill="currentColor" d="M14 8a.5.5 0 1 1-1 0 .5.5 0 0 1 1 0m-.804-3a.5.5 0 1 1-.866.5.5.5 0 0 1 .866-.5M11 2.804a.5.5 0 1 1-.5.866.5.5 0 0 1 .5-.866M8 2a.5.5 0 1 1 0 1 .5.5 0 0 1 0-1m-3 .804a.5.5 0 1 1 .5.866.5.5 0 0 1-.5-.866M2.804 5a.5.5 0 1 1 .866.5.5.5 0 0 1-.866-.5M2 8a.5.5 0 1 1 1 0 .5.5 0 0 1-1 0m.804 3a.5.5 0 1 1 .866-.5.5.5 0 0 1-.866.5M5 13.196a.5.5 0 1 1 .5-.866.5.5 0 0 1-.5.866M8 14a.5.5 0 1 1 0-1 .5.5 0 0 1 0 1m3-.804a.5.5 0 1 1-.5-.866.5.5 0 0 1 .5.866M13.196 11a.5.5 0 1 1-.866-.5.5.5 0 0 1 .866.5M12.5 8a1 1 0 1 1-2 0 1 1 0 0 1 2 0m-1.318-3.182a1 1 0 1 1-1.414 1.414 1 1 0 0 1 1.414-1.414M8 3.5a1 1 0 1 1 0 2 1 1 0 0 1 0-2M4.818 4.818a1 1 0 1 1 1.414 1.414 1 1 0 0 1-1.414-1.414M3.5 8a1 1 0 1 1 2 0 1 1 0 0 1-2 0m1.318 3.182a1 1 0 1 1 1.414-1.414 1 1 0 0 1-1.414 1.414M8 12.5a1 1 0 1 1 0-2 1 1 0 0 1 0 2m3.182-1.318a1 1 0 1 1-1.414-1.414 1 1 0 0 1 1.414 1.414M9.5 8A1.5 1.5 0 0 1 8 9.5 1.5 1.5 0 0 1 6.5 8 1.5 1.5 0 0 1 8 6.5 1.5 1.5 0 0 1 9.5 8" style="color:#fcfcfc"/></svg>