<svg xmlns="http://www.w3.org/2000/svg" viewBox="0 0 16 16"><path d="M3 4v8c0 2 2 2 2 2h6s2 0 2-2V5l-3-3H5S3 2 3 4m1 0c0-1 1-1 1-1h4v3h3v6c0 1-1 1-1 1H5s-1 0-1-1zm3.455 2a1.5 1.5 0 0 0-1.367 1H5v1h1.088A1.5 1.5 0 0 0 7.5 9a1.5 1.5 0 0 0 1.412-1H11V7H8.912a1.5 1.5 0 0 0-1.457-1M7.5 7a.5.5 0 1 1 0 1 .5.5 0 0 1 0-1m.955 2a1.5 1.5 0 0 0-1.367 1H5v1h2.088A1.5 1.5 0 0 0 8.5 12a1.5 1.5 0 0 0 1.412-1H11v-1H9.912a1.5 1.5 0 0 0-1.457-1m.045 1a.5.5 0 1 1 0 1 .5.5 0 0 1 0-1" style="color:#bebebe;fill:currentColor;fill-opacity:1;stroke:none"/></svg>