<svg xmlns="http://www.w3.org/2000/svg" viewBox="0 0 16 16"><defs><style id="current-color-scheme" type="text/css">.ColorScheme-Text{color:#fcfcfc}</style></defs><path d="M3 4v6c0 2 2 2 2 2h1v-1H5s-1 0-1-1V4c0-1 1-1 1-1h2v1.25L10 4 8 2H5S3 2 3 4" class="ColorScheme-Text" style="fill:currentColor;fill-opacity:.5;stroke:none"/><path d="M6 6v6c0 2 2 2 2 2h4s2 0 2-2V7l-3-3H8S6 4 6 6m1 0c0-1 1-1 1-1h2v3h3v4c0 1-1 1-1 1H8s-1 0-1-1z" class="ColorScheme-Text" style="fill:currentColor;fill-opacity:1;stroke:none"/></svg>