<svg xmlns="http://www.w3.org/2000/svg" fill="#dedede" viewBox="0 0 16 16"><path d="M11.345 9.179v3.48h2.32v-1.16h-1.16v-2.32zm1.16-1.16c-1.928 0-3.48 1.552-3.48 3.48s1.552 3.48 3.48 3.48 3.48-1.552 3.48-3.48-1.552-3.48-3.48-3.48m0 1.16a2.32 2.32 0 1 1 0 4.64 2.32 2.32 0 1 1 0-4.64M2 2C.892 2 0 2.892 0 4v9c0 1.108.892 2 2 2h7.678a4.5 4.5 0 0 1-.916-1H2a1 1 0 0 1-1-1V7h14v.76a4.5 4.5 0 0 1 1 .914V5c0-1.108-.892-2-2-2H6.371c-.58-.023-.605.077-1.039-.357S4.719 2 4 2zm0 1h2c.311 0 .52 0 .998.471s.639.529 1 .529H14a1 1 0 0 1 1 1v1H1V4a1 1 0 0 1 1-1"/></svg>