<svg xmlns="http://www.w3.org/2000/svg" width="16" height="16"><path d="M256.523 369.505v1h14v-1zm7 1-2 2h1s.007 1.128 0 2.281c-.597.346-1 .98-1 1.719s.403 1.373 1 1.719c.007 1.186 0 2.312 0 2.312h-1l1.969 1.969h-6.938v1h13.97v-1h-6.97l1.97-1.969-1.032-.03v-2.25a1.99 1.99 0 0 0 1.031-1.75c0-.755-.414-1.41-1.031-1.75v-2.22l1.031-.03zm-.125 5.031h.25c.488.066.875.463.875.969a1 1 0 0 1-2 0c0-.506.387-.902.875-.969" style="color:#31363b;fill:currentColor;fill-opacity:1;stroke:none" transform="translate(-255.536 -368.505)"/><path fill="none" d="M.013 0h16v16h-16z" style="fill:#566060;fill-opacity:0;stroke:none" transform="translate(-.013)"/></svg>