<svg xmlns="http://www.w3.org/2000/svg" viewBox="0 0 16 16"><path d="M4 3v1h3v9h5v-1H8V3h-.5z" style="color:#dedede;fill:currentColor;fill-opacity:1;stroke:none"/><path d="M3.5 2A1.5 1.5 0 0 0 2 3.5 1.5 1.5 0 0 0 3.5 5 1.5 1.5 0 0 0 5 3.5 1.5 1.5 0 0 0 3.5 2m0 1a.5.5 0 0 1 .5.5.5.5 0 0 1-.5.5.5.5 0 0 1-.5-.5.5.5 0 0 1 .5-.5m9.004 8a1.5 1.5 0 0 0-1.5 1.5 1.5 1.5 0 0 0 1.5 1.5 1.5 1.5 0 0 0 1.5-1.5 1.5 1.5 0 0 0-1.5-1.5m0 1a.5.5 0 0 1 .5.5.5.5 0 0 1-.5.5.5.5 0 0 1-.5-.5.5.5 0 0 1 .5-.5" style="color:#3daee9;fill:currentColor;fill-opacity:1;stroke:none"/></svg>