<svg xmlns="http://www.w3.org/2000/svg" viewBox="0 0 16 16"><path d="M2.003 0v5h5V4H3.42a5 5 0 0 1 9.48 1h1.018A6 6 0 0 0 3.003 2.684V0zm8.084 4a2 2 0 1 0 0 4 2 2 0 0 0 0-4M4.329 6a2 2 0 1 0 0 4 2 2 0 0 0 0-4m5.773 3c-1.519 0-2.764 1.163-2.978 2.672.583.662.963 1.328.963 2.328h4.43c.392-.54.606-1.199.607-1.875C13.124 10.399 11.77 9 10.102 9m-.049 1c1.103 0 1.996.84 1.996 1.875 0 .406-.14.8-.4 1.125H8.83a2.53 2.53 0 0 0-.742-1.398C8.228 10.696 9.05 10 10.053 10M4.33 11c-1.657 0-3 1.4-3 3.125.001.677.214 1.335.605 1.875h4.793c.39-.54.601-1.199.602-1.875 0-1.726-1.343-3.125-3-3.125m0 1c1.104 0 2 1.007 2 2.25-.001.256-.04.51-.117.75H2.446a2.5 2.5 0 0 1-.117-.75c0-1.243.895-2.25 2-2.25" style="color:#fcfcfc;fill:currentColor"/></svg>