<svg xmlns="http://www.w3.org/2000/svg" viewBox="0 0 16 16"><defs><style id="current-color-scheme" type="text/css">.ColorScheme-Text{color:#fcfcfc}</style></defs><path d="M3 4v1h1v6H3v1h3v-1H5V5h1V4zm4 7h5V9h-1v1H8V9H7z" class="ColorScheme-Text" style="fill-opacity:1;stroke:none;fill:currentColor"/><path d="M15 4v8c0 2-2 2-2 2H3s-2 0-2-2V4c0-2 2-2 2-2h10s2 0 2 2M3 2.98 13 3s.927 0 .964 1 .036 7 .033 8S13 13 13 13H3s-1 0-1-1V4c0-1 1-1.02 1-1.02" class="ColorScheme-Text" style="fill-opacity:1;stroke:none;fill-rule:evenodd;fill:currentColor"/></svg>