<svg xmlns="http://www.w3.org/2000/svg" id="svg22" version="1.1" viewBox="0 0 16 16"><style id="current-color-scheme" type="text/css">.ColorScheme-Text{color:#fcfcfc}.ColorScheme-NegativeText{color:#da4453}</style><g fill="currentColor" stroke-linecap="square"><g id="g8" fill="currentColor" class="ColorScheme-Text"><path id="path2" d="M3.5 2A1.5 1.5 0 0 0 2 3.5 1.5 1.5 0 0 0 3.5 5 1.5 1.5 0 0 0 5 3.5 1.5 1.5 0 0 0 3.5 2m-.012 1H3.5a.5.5 0 0 1 .5.5.5.5 0 0 1-.5.5.5.5 0 0 1-.5-.5.5.5 0 0 1 .488-.5"/><path id="path4" d="M3 4h1v8H3z"/><path id="path6" d="M11 4v2a1 1 0 0 1-1 1H4.951A2 2 0 0 0 3 9h1a1 1 0 0 1 1-1h5.049A2 2 0 0 0 12 6V4z"/></g><path id="path10" fill="currentColor" d="M11.5 2A1.5 1.5 0 0 0 10 3.5 1.5 1.5 0 0 0 11.5 5 1.5 1.5 0 0 0 13 3.5 1.5 1.5 0 0 0 11.5 2m-.012 1h.012a.5.5 0 0 1 .5.5.5.5 0 0 1-.5.5.5.5 0 0 1-.5-.5.5.5 0 0 1 .488-.5" class="ColorScheme-NegativeText"/><path id="path12" fill="currentColor" d="M3.5 11A1.5 1.5 0 0 0 2 12.5 1.5 1.5 0 0 0 3.5 14 1.5 1.5 0 0 0 5 12.5 1.5 1.5 0 0 0 3.5 11m-.012 1H3.5a.5.5 0 0 1 .5.5.5.5 0 0 1-.5.5.5.5 0 0 1-.5-.5.5.5 0 0 1 .488-.5" class="ColorScheme-Text"/></g><g id="g18" fill="currentColor" stroke-linecap="square" class="ColorScheme-NegativeText" shape-rendering="auto"><path id="path14" d="m8.5 8.793-.707.707.353.354 4 4 .354.353.707-.707-.353-.354-4-4z" color="#000" color-rendering="auto" dominant-baseline="auto" image-rendering="auto" stop-color="#000"/><path id="path16" d="m12.5 8.793-.354.353-4 4-.353.354.707.707.354-.353 4-4 .353-.354z" color="#000" color-rendering="auto" dominant-baseline="auto" image-rendering="auto" stop-color="#000"/></g></svg>