<svg xmlns="http://www.w3.org/2000/svg" viewBox="0 0 16 16"><path d="M4 2S2 2 2 4v8c0 2 2 2 2 2h8s2 0 2-2V4c0-2-2-2-2-2ZM3 5c0-1 1-1 1-1h5v9H4s-1 0-1-1zm7-1h2s1 0 1 1v7c0 1-1 1-1 1h-2z" style="color:#fcfcfc;fill:currentColor;fill-opacity:1;stroke:none"/><path d="m425.957 537.79-.707.708 1.793 1.793-1.793 1.793.707.707 1.793-1.793 1.793 1.793.707-.707-1.793-1.793 1.793-1.793-.707-.707-1.793 1.793z" style="color:#da4453;fill:currentColor;fill-opacity:1;stroke:none" transform="translate(-421.714 -531.79)"/></svg>