<svg xmlns="http://www.w3.org/2000/svg" width="32" height="32"><path d="m34 10.207 3.293 3.293L34 16.793c.013.025.707.707.707.707L38 14.207l3.293 3.293.707-.707-3.293-3.293L42 10.207l-.707-.707L38 12.793 34.707 9.5Z" style="color:#da4453;fill:currentColor;fill-opacity:1;stroke:none" transform="translate(-22)"/><path d="M30 4s-4 0-4 4v17c0 3 3 3 3 3h18s3 0 3-3V8s0-4-4-4zm-3 4c0-3 3-3 3-3h16c3 0 3 3 3 3v14H27zm0 15h10v4h-8c-2 0-2-2-2-2zm12 0h10v2c0 2-2 2-2 2h-8z" style="color:#fcfcfc;fill:currentColor;fill-opacity:.6;stroke:none" transform="translate(-22)"/><path d="M22 0v32h32V0z" style="opacity:1;fill:none" transform="translate(-22)"/></svg>