<svg xmlns="http://www.w3.org/2000/svg" viewBox="0 0 22 22"><path fill="#5e81ac" d="M10.992 2.5a8.2 8.2 0 0 0-2.576.414c-2.567.837-4.446 2.88-5.152 5.602C3 9.523 2.996 9.617 3 12.536c.004 2.444.009 2.654.082 3.009.26 1.26 1.097 2.25 2.285 2.736.128.052.26.106.397.147.052.015.114.024.166.045.115.046.212.11.26.15.03.026.064.039.097.053q.01.047.039.076c.084.078.168.08.229.096.133.057.287.038.433.04l.063.003a2 2 0 0 0 .513-.057c.145-.039.271-.09.344-.215.035-.06.024-.066.027-.092l.01-.091q.007-.11.012-.288c.004-.126.005-.324.008-.492.404 1.225.506 1.495.51 1.338.002-.106.518-4.038.552-4.213.044-.225.167-.19.252.07.04.124.342 1.351.67 2.73h-.002c.375 1.573.61 2.471.635 2.417.02-.048.208-1.407.414-3.021.47-3.68.434-3.469.594-3.415.094.033.09.023.666 2.803.26 1.253.48 2.298.49 2.324.029.074.073-.186.27-1.619.313-2.275.451-3.168.501-3.215.085-.079.162.05.313.524l.129.398c.016.961.034 2.038.037 2.52l.008 1.353.166.121a.9.9 0 0 0 .295.137h.004l.004.002.01.002a1 1 0 0 0 .077.012c.104.012.246.018.373.012q.28-.01.479-.092a.6.6 0 0 0 .186-.121q.08-.048.166-.118c.029-.026.195-.09.293-.134.09-.04.201-.058.308-.094.6-.2.997-.45 1.473-.922.473-.468.726-.86.937-1.451.31-1.053.205-2.219.211-3.31.013-3.186-.046-3.25-.285-4.217a7.66 7.66 0 0 0-2.13-3.72 7.8 7.8 0 0 0-3.016-1.827 8.2 8.2 0 0 0-2.56-.43zm.156 1.324c.417 0 .824.024 1.084.069 1.995.347 3.747 1.662 4.686 3.521.407.805.509 1.487.615 2.432.36 2.017.533 1.99-1.205 1.384a6 6 0 0 1-.598-.218l-.148-.116c-.222-.172-.553-.204-.867-.177a1.6 1.6 0 0 0-.444.097c-.132.052-.25.124-.314.246-.028.05-.023.068-.026.1a2 2 0 0 0-.01.123c-.004.1-.007.243-.007.438 0 .163.008.55.012.795l-.243-.737c-.202-.616-.313-.888-.338-.83-.02.047-.11.678-.199 1.4-.177 1.437-.304 2.35-.347 2.477-.016.046-.061.082-.098.082-.135 0-.185-.172-.815-2.863-.228-.968-.443-1.878-.48-2.02l-.066-.257-.07.562c-.213 1.705-.756 5.51-.8 5.6-.06.126-.137.135-.203.023-.07-.117-.626-2.241-1.01-3.85-.18-.754-.343-1.372-.363-1.372s-.052.195-.07.435c-.06.753-.403 3.937-.469 4.35-.063.4-.142.508-.244.338-.011-.02-.081-.246-.12-.354.009-.676.012-1.205.024-1.883.025-1.335.043-1.95.006-2.285-.019-.167-.054-.283-.138-.363s-.172-.097-.254-.131c-.24-.097-.556-.104-.84-.067a1.6 1.6 0 0 0-.383.094.46.46 0 0 0-.22.15 4 4 0 0 1-.45.173c-1.776.94-1.704.452-1.285-1.383.48-3.341 2.4-5.431 5.558-5.914a8 8 0 0 1 1.14-.069"/></svg>