<svg xmlns="http://www.w3.org/2000/svg" width="22" height="22"><rect width="15.036" height="15.036" x="3.482" y="3.482" fill="none" stroke="#88c0d0" stroke-linecap="round" stroke-linejoin="round" stroke-width=".964" rx=".861" ry=".861"/><path fill="#88c0d0" d="M9.804 4.617v2.4H8.53l2.475 2.8 2.475-2.8h-1.275v-2.4zM10.567 10.217c-.07 0-.112.118-.112.263v.912c-.279.063-.541.177-.776.325l-.65-.65c-.102-.102-.213-.149-.262-.1l-.613.612c-.048.05-.002.16.1.263l.65.65a2.5 2.5 0 0 0-.325.775h-.912c-.145 0-.263.043-.263.113v.874c0 .07.118.113.263.113h.912c.064.278.177.54.325.775l-.65.65c-.102.102-.148.214-.1.263l.613.612c.049.05.16 0 .262-.1l.65-.65c.235.148.497.262.775.325v.913c0 .144.044.262.113.262h.875c.07 0 .113-.118.113-.262v-.913c.278-.063.54-.177.775-.325l.65.65c.102.102.213.149.262.1l.613-.612c.048-.05.002-.16-.1-.263l-.65-.65c.148-.234.261-.496.325-.775h.912c.145 0 .263-.043.263-.113v-.874c0-.07-.118-.113-.263-.113h-.913a2.5 2.5 0 0 0-.324-.775l.65-.65c.102-.102.148-.214.1-.263l-.613-.612c-.049-.049-.16 0-.262.1l-.65.65a2.5 2.5 0 0 0-.775-.325v-.913c0-.144-.044-.262-.113-.262zm.438 2.488c.61 0 1.112.5 1.112 1.112s-.501 1.113-1.112 1.113a1.116 1.116 0 0 1-1.113-1.113c0-.611.501-1.112 1.113-1.112"/></svg>