<svg xmlns="http://www.w3.org/2000/svg" width="22" height="22"><path fill="#8096a0" d="M13.108 8.394q.032-.236.034-.48-.002-.244-.034-.48l1.042-.816a.246.246 0 0 0 .059-.315l-.986-1.707c-.061-.106-.19-.15-.3-.106l-1.227.495a3.7 3.7 0 0 0-.832-.485l-.185-1.305a.25.25 0 0 0-.246-.207H8.462a.25.25 0 0 0-.244.207L8.033 4.5q-.45.19-.832.485L5.974 4.49a.246.246 0 0 0-.3.106l-.986 1.707a.25.25 0 0 0 .06.315l1.039.816c-.02.157-.034.318-.034.48 0 .163.014.323.034.48l-1.04.816a.246.246 0 0 0-.059.315l.986 1.707c.061.106.19.15.3.106l1.227-.495c.254.194.532.36.832.485l.185 1.306a.25.25 0 0 0 .244.207h1.97a.25.25 0 0 0 .244-.207l.185-1.306q.452-.189.833-.485l1.226.495c.111.042.24 0 .301-.106l.985-1.707a.25.25 0 0 0-.059-.315zm-3.66 1.244a1.723 1.723 0 0 1-1.725-1.724 1.723 1.723 0 1 1 3.449 0c0 .953-.771 1.724-1.725 1.724zm6.479 7.462q.104-.14.191-.296.084-.158.146-.321l.956-.159a.18.18 0 0 0 .148-.181l-.034-1.443a.18.18 0 0 0-.156-.174l-.962-.112a2.7 2.7 0 0 0-.365-.603l.34-.904a.185.185 0 0 0-.086-.22l-1.267-.69a.18.18 0 0 0-.23.047l-.576.774a2.7 2.7 0 0 0-.705.02l-.615-.749a.18.18 0 0 0-.23-.037l-1.232.751a.18.18 0 0 0-.073.224l.383.888a3 3 0 0 0-.191.297 3 3 0 0 0-.146.32l-.954.16a.18.18 0 0 0-.149.182l.035 1.443c.002.09.069.163.155.173l.963.112c.094.214.215.418.364.604l-.339.904a.18.18 0 0 0 .084.218l1.267.692c.079.043.176.02.229-.048l.577-.774q.356.037.705-.02l.615.748a.18.18 0 0 0 .23.038l1.232-.752a.18.18 0 0 0 .072-.223zm-2.788-.484a1.261 1.261 0 1 1 1.21-2.216 1.261 1.261 0 1 1-1.21 2.216"/></svg>