<svg xmlns="http://www.w3.org/2000/svg" width="22" height="22"><path d="M6.97 2.998a.26.26 0 0 0-.253.211l-.192 1.324a3.9 3.9 0 0 0-.869.492l-1.281-.502a.26.26 0 0 0-.312.108L3.035 6.363a.25.25 0 0 0 .06.32l1.085.829q-.033.24-.035.488c0 .164.015.326.035.486l-1.084.828a.244.244 0 0 0-.06.32l1.027 1.733a.26.26 0 0 0 .312.108l1.281-.502c.265.197.556.364.87.492l.19 1.324c.022.118.126.211.255.211h2.056a.26.26 0 0 0 .254-.21l.192-1.325q.47-.192.869-.492l1.28.502c.115.042.25 0 .314-.108l1.027-1.732a.25.25 0 0 0-.06-.32l-1.085-.829A4 4 0 0 0 11.854 8a4 4 0 0 0-.036-.488l1.086-.828a.244.244 0 0 0 .06-.32L11.938 4.63a.26.26 0 0 0-.312-.108l-1.281.502a4 4 0 0 0-.87-.492l-.19-1.324a.26.26 0 0 0-.257-.211zM8 6a2 2 0 0 1 2 2 2 2 0 0 1-2 2 2 2 0 0 1-2-2 2 2 0 0 1 2-2M14.135 11.006a.195.195 0 0 0-.227.113l-.383.973a3 3 0 0 0-.736.215l-.861-.62a.2.2 0 0 0-.254.024l-1.076 1.129a.196.196 0 0 0-.012.256l.658.83a3 3 0 0 0-.115.363 3 3 0 0 0-.06.379l-.958.43a.193.193 0 0 0-.103.232l.453 1.506c.03.094.12.153.213.14l1.045-.146c.16.199.346.381.556.535l-.093 1.043a.2.2 0 0 0 .152.207l1.53.38a.2.2 0 0 0 .228-.114l.383-.973q.383-.06.734-.215l.863.62a.196.196 0 0 0 .252-.026l1.078-1.129a.193.193 0 0 0 .012-.254l-.66-.832q.069-.176.115-.365.043-.19.06-.377l.96-.43a.19.19 0 0 0 .103-.23l-.453-1.508a.2.2 0 0 0-.213-.139l-1.045.145a3 3 0 0 0-.556-.533l.093-1.045a.2.2 0 0 0-.152-.205zM14 13a2 2 0 0 1 2 2 2 2 0 0 1-2 2 2 2 0 0 1-2-2 2 2 0 0 1 2-2" style="fill:#555"/><path d="M327 548.362v3h3v-3zm4 0v3h3v-3zm-4 4v3h3v-3zm4 0v3h3v-3z" style="color:#000;color-interpolation:sRGB;color-interpolation-filters:linearRGB;fill:#555;color-rendering:auto;image-rendering:auto;shape-rendering:auto;text-rendering:auto" transform="translate(-326 -534.362)"/></svg>