<svg xmlns="http://www.w3.org/2000/svg" width="22" height="22"><path fill="#a3be8c" d="M4.334 3C3.595 3 3 3.595 3 4.334v13.332C3 18.405 3.595 19 4.334 19h13.332c.739 0 1.334-.595 1.334-1.334V4.334C19 3.595 18.405 3 17.666 3zM4 4h14v14H4zm1 1v1h3V5zm4 0v1h4V5zm5 0v1h3V5zM5 7v1h3V7zm4 0v1h4V7zm5 0v1h3V7zM5 9v1h3V9zm4 0v1h4V9zm5 0v1h3V9zm-9 2v1h3v-1zm4 0v1h4v-1zm5 0v1h3v-1zm-9 2v1h3v-1zm4 0v1h4v-1zm5 0v1h3v-1zm-9 2v1h3v-1zm4 0v1h4v-1zm5 0v1h3v-1z"/><path fill="#2e3440" d="M4.334 3C3.595 3 3 3.595 3 4.334v13.332C3 18.405 3.595 19 4.334 19h13.332c.739 0 1.334-.595 1.334-1.334V4.334C19 3.595 18.405 3 17.666 3zM4 4h14v14H4zm1 1v1h3V5zm4 0v1h4V5zm5 0v1h3V5zM5 7v1h3V7zm4 0v1h4V7zm5 0v1h3V7zM5 9v1h3V9zm4 0v1h4V9zm5 0v1h3V9zm-9 2v1h3v-1zm4 0v1h4v-1zm5 0v1h3v-1zm-9 2v1h3v-1zm4 0v1h4v-1zm5 0v1h3v-1zm-9 2v1h3v-1zm4 0v1h4v-1zm5 0v1h3v-1z" opacity=".4"/></svg>