<svg xmlns="http://www.w3.org/2000/svg" viewBox="0 0 22 22"><path d="M9.207 2.686c-.806.18-1.603.429-2.35.805.018.66.06 1.291.147 1.933-.29.186-.595.346-.866.563-.276.212-.557.415-.806.662a15 15 0 0 0-1.568-.912c-.586.63-1.133 1.31-1.58 2.07.351.552.728 1.107 1.077 1.539v4.67h.026l2.863.277c.15.014.267.135.277.285l.089 1.264 2.497.178.172-1.166a.31.31 0 0 1 .305-.264h3.02c.153 0 .283.113.305.264l.172 1.166 2.497-.178.089-1.264c.01-.15.128-.27.277-.285l2.862-.276.026-.001v-4.67c.404-.507.786-1.067 1.078-1.538-.447-.761-.995-1.44-1.58-2.07-.543.272-1.07.582-1.568.911-.25-.247-.53-.45-.806-.662-.27-.217-.576-.377-.865-.563.086-.642.128-1.274.146-1.933-.747-.376-1.544-.626-2.35-.805-.322.541-.616 1.127-.872 1.7-.304-.052-.61-.07-.915-.074h-.012a6 6 0 0 0-.915.073 17 17 0 0 0-.872-1.699M6.942 9.517a1.725 1.725 0 1 1 .001 3.45 1.725 1.725 0 0 1-.001-3.45m8.116 0a1.725 1.725 0 1 1 0 3.45 1.725 1.725 0 0 1 0-3.45M11 10.527c.307 0 .556.226.556.504v1.588c0 .279-.25.505-.556.505s-.555-.226-.555-.505v-1.588c0-.278.248-.505.555-.505" style="fill:#eeb652;fill-opacity:1;fill-rule:nonzero;stroke:none;stroke-width:.0253333"/><path d="m16.17 14.881-.09 1.27a.31.31 0 0 1-.285.287l-3.05.217-.021.001a.31.31 0 0 1-.305-.263l-.175-1.186H9.756l-.175 1.186a.31.31 0 0 1-.327.262l-3.05-.217a.31.31 0 0 1-.285-.286l-.088-1.27-2.574-.249c0 .277.004.58.004.64 0 2.719 3.449 4.026 7.734 4.04h.01c4.285-.014 7.733-1.321 7.733-4.04l.005-.64z" style="fill:#eeb652;fill-opacity:1;fill-rule:nonzero;stroke:none;stroke-width:.0253333"/></svg>