<svg xmlns="http://www.w3.org/2000/svg" width="22" height="22"><path fill="#5e81ac" d="M7 3a4 4 0 0 0-4 4v1l.314.494.797 1.254.002.002L10 19v-8h5a4 4 0 0 0 0-8zm8 1a3 3 0 0 1 .576.059l.02.002q.026.006.052.013a3 3 0 0 1 .52.162 3 3 0 0 1 .478.258q.021.012.041.026l.006.003a3 3 0 0 1 .41.34l.026.024a3 3 0 0 1 .322.39l.053.075a3 3 0 0 1 .242.449l.024.053a3 3 0 0 1 .154.492l.02.082A3 3 0 0 1 18 7a3 3 0 0 1-.059.576l-.002.02c-.003.018-.01.034-.013.052a3 3 0 0 1-.162.52 3 3 0 0 1-.258.478q-.012.021-.026.041l-.003.006a3 3 0 0 1-.34.41l-.024.026a3 3 0 0 1-.39.322l-.075.053a3 3 0 0 1-.449.242l-.053.024a3 3 0 0 1-.492.154l-.082.02A3 3 0 0 1 15 10a3 3 0 0 1-3-3 3 3 0 0 1 3-3"/></svg>