<svg xmlns="http://www.w3.org/2000/svg" width="22" height="22"><g fill="#4c566a" stroke-width="2" transform="translate(-326 -534.36)"><path d="M331 537.36v16h15v-16zm1 1h13v14h-13z"/><rect width="5" height="5" x="333" y="543.36" rx="0"/><rect width="11" height="1" x="333" y="550.36" rx="0"/><rect width="5" height="1" x="339" y="547.36" rx="0"/><rect width="5" height="1" x="339" y="543.36" rx="0"/><rect width="11" height="1" x="333" y="540.36" rx="0"/><rect width="1" height="9" x="328" y="541.36" rx="0"/><rect width="2" height="1" x="329" y="541.36" rx="0"/><path d="M328 550.36a3 3 0 0 0 3 3v-1a2 2 0 0 1-2-2z"/></g></svg>