<svg xmlns="http://www.w3.org/2000/svg" width="22" height="22"><path fill="#88c0d0" d="M9 5v2h2V5zm3 0v2h2V5zm4.684 2.674c-.637.436-.789 1.225-.59 1.97s.707 1.282 1.476 1.342a1.82 1.82 0 0 0 1.715 1.215A1.82 1.82 0 0 0 21 10.986a1.82 1.82 0 0 0-1.715-1.213 1.8 1.8 0 0 0-1.03.323c.124-.347.139-.725.044-1.08a1.82 1.82 0 0 0-1.615-1.342m.886 3.312H3c0 4.024 3.262 6.073 7.285 6.073 4.024 0 7.285-2.05 7.285-6.073M5 8v2h2V8zm3 0v2h2V8zm3 0v2h2V8zm3 0v2h2V8zm-8 4a1 1 0 0 1 1 1 1 1 0 0 1-1 1 1 1 0 0 1-1-1 1 1 0 0 1 1-1" overflow="visible" style="isolation:auto;mix-blend-mode:normal"/></svg>