<svg xmlns="http://www.w3.org/2000/svg" viewBox="0 0 16 16" xmlns:v="https://vecta.io/nano"><path d="M4 4a2 4 0 0 0-2 4v2.5a1.5 1.5 0 0 0 2.6 1.1l.9-1a1.5 1.5 0 0 0 1 .4A1.5 1.5 0 0 0 8 9.5a1.5 1.5 0 0 0 2.5 1.1l.9 1a1.5 1.5 0 0 0 2.6-1.1V8a2 4 0 0 0-2-4H4zm0 1h8a1 3 0 0 1 1 3v2.5a.5.5 0 0 1-.9.3l-1.7-1.7a.6.6 0 0 0 .1 0 .6.6 0 0 0 0-1.2.6.6 0 0 0-.6.6.6.6 0 0 0 .3.5H10v.5a.5.5 0 0 1-1 0V9H7v.5a.5.5 0 0 1-1 0V9 8h1V7H6V6H5v1H4v1h1v1h.7l-1.9 1.8a.5.5 0 0 1-.8-.3V8a1 3 0 0 1 1-3zm6.5.9a.6.6 0 0 0 0 1.2.6.6 0 0 0 0-1.2zm-1 1a.6.6 0 0 0 0 1.2.6.6 0 0 0 0-1.2zm2 0a.6.6 0 0 0 0 1.2.6.6 0 0 0 0-1.2z" fill="#eff0f1"/></svg>