<svg xmlns="http://www.w3.org/2000/svg" viewBox="0 0 16 16"><defs id="defs3051"><style id="current-color-scheme" type="text/css">.ColorScheme-Text{color:#fcfcfc}</style></defs><path d="M8 2a6 6 0 1 0 0 12v-1a5 5 0 1 1 5-5h1a6 6 0 0 0-6-6m0 4a2 2 0 1 0 0 4V9a1 1 0 1 1 1-1h1a2 2 0 0 0-2-2m1 3v5h2l1-1 1-1V9zm1 1h2v2h-1v1h-1z" class="ColorScheme-Text" style="fill:currentColor;fill-opacity:1;stroke:none"/><path d="M8 2a6 6 0 1 0 0 12v-1a5 5 0 1 1 5-5h1a6 6 0 0 0-6-6m0 4a2 2 0 1 0 0 4V9a1 1 0 1 1 1-1h1a2 2 0 0 0-2-2m1 3v5h2l1-1 1-1V9zm1 1h2v2h-1v1h-1z" class="ColorScheme-Text" style="fill:currentColor;fill-opacity:1;stroke:none"/></svg>