<svg xmlns="http://www.w3.org/2000/svg" viewBox="0 0 16 16"><g style="color:#fcfcfc;fill:currentColor"><path d="M.168 4.21A14.95 14.95 0 0 1 8 2v1C5.36 3 2.902 3.737.799 4.998zM2.148 6.688A10.96 10.96 0 0 1 8 5v1a9.97 9.97 0 0 0-5.22 1.473zM8 8a7 7 0 0 0-3.871 1.162l.63.787A6 6 0 0 1 8 9zM6.94 11.44a1.5 1.5 0 1 1 2.12 2.12 1.5 1.5 0 0 1-2.12-2.12M11.81 2H11v3.293L9.354 3.646 9 4.668 10.5 6 9 7.332l.354 1.022L11 6.707V10h.81a2 2 0 0 0 1.519-.698l1.33-1.552L13 6l1.659-1.75-1.33-1.552A2 2 0 0 0 11.81 2m.636 3.295c-.112.13-.275.305-.446.305V3c.171 0 .334.075.446.205l.896 1.045zM12 9V6.4c.171 0 .334.175.446.305l.896 1.045-.896 1.045A.59.59 0 0 1 12 9"/></g></svg>