<svg xmlns="http://www.w3.org/2000/svg" id="svg2" version="1.1" viewBox="0 0 16 16"><style id="current-color-scheme" type="text/css">.ColorScheme-Text{color:#31363b}</style><g id="16-16-phone-battery" transform="translate(-303 -537.36)"><path id="rect1" fill="none" d="M303 537.36h16v16h-16z"/><path id="path1" fill="currentColor" d="m311 547.63 1-3h-1v-2l-1 3h1z" class="ColorScheme-Text"/><path id="path2" fill="currentColor" d="M309.21 539.41c-.969 0-1.76.791-1.76 1.76v8.387c0 .968.791 1.76 1.76 1.76h3.582c.969 0 1.76-.792 1.76-1.76v-8.387c0-.969-.791-1.76-1.76-1.76zm0 .758h3.582a.99.99 0 0 1 1.002 1.002v8.387a.99.99 0 0 1-1.002 1.002h-3.582a.99.99 0 0 1-1.002-1.002v-8.387a.99.99 0 0 1 1.002-1.002m.295.726a.49.49 0 0 0-.484.493.49.49 0 0 0 .49.486.49.49 0 0 0 .488-.49v-.006a.49.49 0 0 0-.494-.483zm.113 7.903a.367.367 0 0 0-.367.367.367.367 0 0 0 .367.367h2.77a.367.367 0 0 0 .367-.367.367.367 0 0 0-.367-.367z" class="ColorScheme-Text"/></g></svg>