<svg xmlns="http://www.w3.org/2000/svg" viewBox="0 0 16 16"><path fill="currentColor" d="M6.209 2.047c-.969 0-1.76.791-1.76 1.76v8.386c0 .969.791 1.76 1.76 1.76h3.582c.969 0 1.76-.791 1.76-1.76V3.807c0-.969-.791-1.76-1.76-1.76zm0 .758h3.582a.99.99 0 0 1 1.002 1.002v8.386a.99.99 0 0 1-1.002 1.002H6.209a.99.99 0 0 1-1.002-1.002V3.807a.99.99 0 0 1 1.002-1.002m.295.726a.49.49 0 0 0-.484.492.49.49 0 0 0 .49.487.49.49 0 0 0 .488-.49v-.006a.49.49 0 0 0-.494-.483m.113 7.903a.367.367 0 0 0-.367.367.367.367 0 0 0 .367.367h2.77a.367.367 0 0 0 .367-.367.367.367 0 0 0-.367-.367z" style="color:#fcfcfc"/></svg>