<svg xmlns="http://www.w3.org/2000/svg" width="16" height="16"><linearGradient id="a" x1="0" x2="0" y1="16" y2="0" gradientUnits="userSpaceOnUse"><stop offset="0" stop-color="#be1111"/><stop offset="1" stop-color="#e74c3c"/></linearGradient><linearGradient id="d" x1="2" x2="30" y1="4" y2="32" gradientUnits="userSpaceOnUse"><stop offset="0" stop-color="#fcfcfc"/><stop offset="1" stop-color="#e74c3c"/></linearGradient><linearGradient id="b" x1="6" x2="14" y1="8" y2="16" gradientUnits="userSpaceOnUse"><stop offset="0"/><stop offset="1" stop-opacity="0"/></linearGradient><rect width="16" height="16" fill="url(#a)" ry="2"/><path fill="url(#b)" d="m6 12 4 4h6v-6l-2-2-2 2-2-2z" opacity=".2"/><path fill="url(#d)" d="M6 4 2 8l4 4 4-4zm4 0L9 5l3 3-3 3 1 1 4-4z"/><path fill="#8e0d0d" d="M0 13v1c0 1.108.892 2 2 2h12c1.108 0 2-.892 2-2v-1c0 1.108-.892 2-2 2H2c-1.108 0-2-.892-2-2"/></svg>