<svg xmlns="http://www.w3.org/2000/svg" width="22" height="22"><style id="current-color-scheme" type="text/css">.ColorScheme-Text{color:#fcfcfc}</style><g id="22-22-cantata" transform="translate(0 -10)"><path id="path7" d="M11 13a8 8 0 0 0-8 8 8 8 0 0 0 8 8 8 8 0 0 0 8-8 8 8 0 0 0-8-8m0 1a7 7 0 0 1 7 7 7 7 0 0 1-7 7 7 7 0 0 1-7-7 7 7 0 0 1 7-7" class="ColorScheme-Text" style="fill:currentColor;fill-opacity:.6;stroke:none"/><path id="path9" d="M10 13v11.045c-.837-.361-1.81-.264-2.846.166-1.734.718-2.73 2.293-2.222 3.517.506 1.225 2.325 1.637 4.06.918 1.369-.568 2.207-2.045 2.207-2.935V17s3.201.4 3.201 3.6c0 2.4-.8 3.2-2.8 5.2 2-1.2 3.6-2.8 3.6-5.2 0-3.2-2.47-4.64-3.102-5.272-.4-.4-.899-1.928-.899-1.928z" class="ColorScheme-Text" style="fill:currentColor;fill-opacity:1;stroke:none"/><path id="path11" d="M0 10v22h22V10z" style="opacity:1;fill:none"/></g></svg>