<svg xmlns="http://www.w3.org/2000/svg" width="16" height="16" fill="none"><style id="current-color-scheme" type="text/css">.ColorScheme-Text{color:#fcfcfc}</style><path fill="currentColor" fill-rule="evenodd" d="M2 5a2 2 0 0 1 2-2h8a2 2 0 0 1 2 2v6a2 2 0 0 1-2 2H4a2 2 0 0 1-2-2zm1 0a1 1 0 0 1 1-1h8a1 1 0 0 1 1 1v4a1 1 0 0 1-1 1H4a1 1 0 0 1-1-1zm10 5.732V11a1 1 0 0 1-1 1H4a1 1 0 0 1-1-1v-.268c.294.17.636.268 1 .268h8a2 2 0 0 0 1-.268" class="ColorScheme-Text" clip-rule="evenodd"/><path fill="currentColor" fill-rule="evenodd" d="M6 5a2 2 0 1 0 0 4h4a2 2 0 1 0 0-4zM5 7a1 1 0 1 1 2 0 1 1 0 0 1-2 0m4 0a1 1 0 1 1 2 0 1 1 0 0 1-2 0" class="ColorScheme-Text" clip-rule="evenodd"/></svg>