<svg xmlns="http://www.w3.org/2000/svg" id="svg1" width="22" height="22" fill="none" version="1.1"><style id="current-color-scheme" type="text/css">.ColorScheme-Text{color:#fcfcfc}</style><g id="22-22-kate" transform="translate(-32 -10)"><g id="g1112"><path id="rect2" d="M32 10h22v22H32z" style="opacity:.00100002"/><path id="path905-7" d="M40.49 17.605c-.607-2.019-4.044-1.53-4.618-1.573.645-.32 1.227-.584 2.556-1.547 2.56-1.854 5.272-1.45 6.63-.713-3.712.14-3.005 2.163-2.458 3.228-.696.202-1.793.507-2.11.605" class="ColorScheme-Text" style="stroke-opacity:1;stroke-dasharray:none;stroke-miterlimit:4;stroke-linejoin:miter;stroke-linecap:butt;stroke-width:.0502859;stroke:none;fill-opacity:1;fill:currentColor"/><path id="path907-5" d="M49.652 14.827c-1.337 1.765-3.559 4.15-5.99 4.464s-4.75-.034-5.287 1.777c-.495 1.668 1.244 3.225 3.048 2.85 1.928-.4 1.511-2.585.457-4.073.8-.046.652-.034 2.01-.102 2.024 1.725 2.695 2.217 6.23 4.734-2.724-.286-3.716-.548-5.67-1.717.506 1.271 1.588 4.155 1.822 6.393-1.127-1.62-1.554-2.215-3.301-3.383-2.238-1.497-4.05-1.548-5.099-3.753-1.046-2.2.339-3.785 2.818-4.472 3.543-.98 6.595-1.91 8.962-2.718" style="fill:#e6e6e6;fill-opacity:1;stroke:none;stroke-width:.0502859;stroke-linecap:butt;stroke-linejoin:miter;stroke-miterlimit:4;stroke-dasharray:none;stroke-opacity:1"/><path id="path909-3" d="M41.88 19.845c.8-.046.652-.034 2.01-.102 2.024 1.725 2.695 2.217 6.23 4.734-3.554-.254-6.243-1.303-8.24-4.632" style="fill:#e6e6e6;fill-opacity:1;stroke:none;stroke-width:.0502859;stroke-linecap:butt;stroke-linejoin:miter;stroke-miterlimit:4;stroke-dasharray:none;stroke-opacity:1"/><path id="path911-5" d="M49.652 14.827c-1.337 1.765-3.559 4.15-5.99 4.464s-4.75-.034-5.287 1.777c-.495 1.668 1.244 3.225 3.048 2.85 1.928-.4 1.511-2.585.457-4.073.8-.046.652-.034 2.01-.102 2.024 1.725 2.695 2.217 6.23 4.734-2.724-.286-3.716-.548-5.67-1.717.506 1.271 1.588 4.155 1.822 6.393-1.127-1.62-1.554-2.215-3.301-3.383-2.238-1.497-4.05-1.548-5.099-3.753-1.046-2.2.339-3.785 2.818-4.472 3.543-.98 6.595-1.91 8.962-2.718" class="ColorScheme-Text" style="stroke-opacity:1;stroke-dasharray:none;stroke-miterlimit:4;stroke-linejoin:miter;stroke-linecap:butt;stroke-width:.0502859;stroke:none;fill-opacity:1;fill:currentColor"/><path id="path913-6" d="M41.88 19.845c.8-.046.652-.034 2.01-.102 2.024 1.725 2.695 2.217 6.23 4.734-3.554-.254-6.243-1.303-8.24-4.632" class="ColorScheme-Text" style="stroke-opacity:1;stroke-dasharray:none;stroke-miterlimit:4;stroke-linejoin:miter;stroke-linecap:butt;stroke-width:.0502859;stroke:none;fill-opacity:1;fill:currentColor"/><path id="path915-2" d="M35.872 16.032c.645-.32 1.227-.584 2.556-1.547 2.56-1.854 5.272-1.45 6.63-.713-3.712.14-3.234.88-3.248 1.46-2.465-.52-3.185.187-5.938.8" class="ColorScheme-Text" style="stroke-opacity:1;stroke-dasharray:none;stroke-miterlimit:4;stroke-linejoin:miter;stroke-linecap:butt;stroke-width:.0502859;stroke:none;fill-opacity:1;fill:currentColor"/><path id="path917-9" d="M45.057 13.772c-3.711.14-3.004 2.163-2.457 3.228-.433.126-.903.27-1.482.422-2.336-4.162 2.033-4.703 3.94-3.65" class="ColorScheme-Text" style="stroke-opacity:1;stroke-dasharray:none;stroke-miterlimit:4;stroke-linejoin:miter;stroke-linecap:butt;stroke-width:.0502859;stroke:none;fill-opacity:1;fill:currentColor"/><path id="path919-1" d="M38.54 23.054c-1.815-2.338-1.48-4.482 2.076-5.595 3.51-1.1 6.669-1.825 9.036-2.632-6.387 2.433-14.385 4.06-11.111 8.227" class="ColorScheme-Text" style="stroke-opacity:1;stroke-dasharray:none;stroke-miterlimit:4;stroke-linejoin:miter;stroke-linecap:butt;stroke-width:.0502859;stroke:none;fill-opacity:1;fill:currentColor"/></g></g></svg>