<svg xmlns="http://www.w3.org/2000/svg" width="16" height="16"><path d="M303 537.362h16v16h-16z" style="opacity:1;fill:none;fill-opacity:1;stroke:none;stroke-width:.10079;stroke-linecap:square;stroke-linejoin:miter;stroke-miterlimit:4;stroke-dasharray:none;stroke-dashoffset:0;stroke-opacity:1" transform="translate(-303 -537.362)"/><path d="M-14 12v8c0 2 2 2 2 2v-1s-1 0-1-1v-8s0-1 1-1h4c1 0 1 1 1 1v2h1v-2s0-2-2-2h-4c-2 0-2 2-2 2m3-.532h2V12h-2zM-8.5 14l-.277 1.107a3 3 0 0 0-.721.297l-.977-.586-.707.707.586.977a3 3 0 0 0-.3.723L-12 17.5v1l1.107.277a3 3 0 0 0 .297.721l-.586.977.707.707.977-.586a3 3 0 0 0 .723.3L-8.5 22h1l.277-1.107a3 3 0 0 0 .721-.297l.977.586.707-.707-.586-.977a3 3 0 0 0 .3-.723L-4 18.5v-1l-1.107-.277a3 3 0 0 0-.297-.721l.586-.977-.707-.707-.977.586a3 3 0 0 0-.723-.3L-7.5 14Zm.5 2a1.99 1.99 0 0 1 1.863 1.275 2 2 0 0 1 .108.385 2 2 0 0 1 .02.54 2 2 0 0 1-.235.759 2 2 0 0 1-.227.33 2 2 0 0 1-1.388.705l-.084.01h-.137l-.12-.01a2 2 0 0 1-.759-.234 2 2 0 0 1-.418-.309l-.088-.088A2 2 0 0 1-8.14 16.01 2 2 0 0 1-8 16" style="color:#eff0f1;opacity:1;fill:currentColor;fill-opacity:1;stroke:none" transform="translate(18 -8)"/></svg>