<svg xmlns="http://www.w3.org/2000/svg" fill="none" viewBox="0 0 16 16"><linearGradient id="a" x1="8" x2="8" y2="16" gradientUnits="userSpaceOnUse"><stop offset="0" stop-color="#34495e"/><stop offset="1" stop-color="#391847"/></linearGradient><linearGradient id="b" x1="8" x2="8" y1="11.6" y2="16" gradientUnits="userSpaceOnUse"><stop offset="0" stop-color="#494d76"/><stop offset="1" stop-color="#552968"/></linearGradient><linearGradient id="c" x1="4" x2="3.635" y1="5" y2="14.192" gradientUnits="userSpaceOnUse"><stop offset="0" stop-color="#538094"/><stop offset="1" stop-color="#136b2f"/></linearGradient><linearGradient id="d" x1="2.8" x2="2.376" y1="5" y2="14.18" gradientUnits="userSpaceOnUse"><stop offset="0" stop-color="#6599af"/><stop offset="1" stop-color="#1da848"/></linearGradient><linearGradient id="e" x1="3.8" x2="3.8" y1="8.2" y2="14.2" gradientUnits="userSpaceOnUse"><stop offset="0" stop-color="#2ecc71"/><stop offset="1" stop-color="#cef829"/></linearGradient><linearGradient id="f" x1="3.8" x2="3.8" y1="9.8" y2="14.2" gradientUnits="userSpaceOnUse"><stop offset="0" stop-color="#84fe9f"/><stop offset="1" stop-color="#84fe9f" stop-opacity="0"/></linearGradient><linearGradient id="g" x1="7.047" x2="6.789" y1="3" y2="14.194" gradientUnits="userSpaceOnUse"><stop offset="0" stop-color="#537594"/><stop offset="1" stop-color="#11686d"/></linearGradient><linearGradient id="h" x1="6" x2="5.502" y1="3.4" y2="14.177" gradientUnits="userSpaceOnUse"><stop offset="0" stop-color="#5d8da8"/><stop offset="1" stop-color="#0e957d"/></linearGradient><linearGradient id="i" x1="7" x2="7" y1="8.2" y2="14.2" gradientUnits="userSpaceOnUse"><stop offset="0" stop-color="#3daee9"/><stop offset="1" stop-color="#1cdc9a"/></linearGradient><linearGradient id="j" x1="7" x2="7" y1="8.2" y2="14.2" gradientUnits="userSpaceOnUse"><stop offset="0" stop-color="#55def0"/><stop offset="1" stop-color="#55def0" stop-opacity="0"/></linearGradient><linearGradient id="k" x1="6" x2="8" y1="3.5" y2="3.5" gradientUnits="userSpaceOnUse"><stop offset="0" stop-color="#70a2b9"/><stop offset="1" stop-color="#507694"/></linearGradient><linearGradient id="l" x1="11" x2="11.062" y1="3.2" y2="14.4" gradientUnits="userSpaceOnUse"><stop offset="0" stop-color="#537594"/><stop offset="1" stop-color="#9a265e"/></linearGradient><linearGradient id="m" x1="9.5" x2="9.5" y1="2.792" y2="14" gradientUnits="userSpaceOnUse"><stop offset="0" stop-color="#7998be" stop-opacity=".8"/><stop offset=".5" stop-color="#9265a2"/><stop offset="1" stop-color="#622e2e"/></linearGradient><linearGradient id="n" x1="10.984" x2="10.984" y1="10.424" y2="13.515" gradientUnits="userSpaceOnUse"><stop offset="0" stop-color="#e74c3c"/><stop offset=".5" stop-color="#da4453"/><stop offset="1" stop-color="#9b59b6"/></linearGradient><linearGradient id="o" x1="9" x2="9" y1="10.524" y2="13" gradientUnits="userSpaceOnUse"><stop offset="0" stop-color="#fa8e6c"/><stop offset="1" stop-color="#fa8e6c" stop-opacity="0"/></linearGradient><linearGradient id="p" x1="9.4" x2="12.2" y1="3.4" y2="3.4" gradientUnits="userSpaceOnUse"><stop offset="0" stop-color="#99afd2"/><stop offset="1" stop-color="#6a87ab"/></linearGradient><path fill="url(#a)" d="M0 2a2 2 0 0 1 2-2h12a2 2 0 0 1 2 2v12a2 2 0 0 1-2 2H2a2 2 0 0 1-2-2z"/><path fill="url(#b)" d="M0 11h16v3a2 2 0 0 1-2 2H2a2 2 0 0 1-2-2z"/><path fill="#3f175a" d="M0 13v1a2 2 0 0 0 2 2h12a2 2 0 0 0 2-2v-1a2 2 0 0 1-2 2H2a2 2 0 0 1-2-2"/><path fill="#43566d" d="M0 3V2a2 2 0 0 1 2-2h12a2 2 0 0 1 2 2v1a2 2 0 0 0-2-2H2a2 2 0 0 0-2 2"/><path fill="url(#c)" d="M2 5h3v8a1 1 0 1 1-2 0V7z"/><path fill="url(#d)" fill-rule="evenodd" d="M4 5H2l1 .5V13a1 1 0 0 0 1 1z" clip-rule="evenodd"/><path fill="url(#e)" d="M3 10a2.24 2.24 0 0 1 2 0v3a1 1 0 1 1-2 0z"/><path fill="url(#f)" fill-rule="evenodd" d="M4 9.764c-.342 0-.685.079-1 .236v2a1 1 0 0 0 1 1z" clip-rule="evenodd"/><path fill="#99ad1d" d="M3 12v1a1 1 0 1 0 2 0v-1a1 1 0 1 1-2 0"/><path fill="url(#g)" d="M6 3h2v10a1 1 0 1 1-2 0z"/><path fill="url(#h)" fill-rule="evenodd" d="m7 5-1-.5V13a1 1 0 0 0 1 1z" clip-rule="evenodd"/><path fill="url(#i)" d="m6 8 2 .5V13a1 1 0 0 1-2 0z"/><path fill="url(#j)" d="M7 8.25 6 8v4a1 1 0 0 0 1 1z"/><path fill="#149b8b" d="M6 12v1a1 1 0 0 0 2 0v-1a1 1 0 0 1-2 0"/><path fill="url(#k)" d="M5.5 3h3v1h-3z"/><path fill="url(#l)" d="M10 3h2v4.5l3 5.5a1 1 0 0 1-1 1H8a1 1 0 0 1-1-1l3-5.5z"/><path fill="url(#m)" fill-rule="evenodd" d="m11 5-1-.5v3L7 13h4z" clip-rule="evenodd"/><path fill="url(#n)" fill-rule="evenodd" d="m15 13-1.636-3-5 .5L7 13z" clip-rule="evenodd"/><path fill="url(#o)" d="m11 10.237-2.636.263L7 13h4z"/><path fill="url(#p)" d="M9.5 3h3v1h-3z"/></svg>