<svg xmlns="http://www.w3.org/2000/svg" xmlns:xlink="http://www.w3.org/1999/xlink" fill="none" viewBox="0 0 16 16"><linearGradient id="b" x1="5" x2="16" y1="5" y2="16" gradientUnits="userSpaceOnUse"><stop offset="0" stop-color="#eff0f1"/><stop offset="1" stop-color="#e3e5e7"/></linearGradient><linearGradient id="d" x2="16" y1="48" y2="64" gradientUnits="userSpaceOnUse"><stop offset="0" stop-color="#d6d9dc"/><stop offset="1" stop-color="#c9cdd1"/></linearGradient><linearGradient xlink:href="#a" id="c" x1="2" x2="14" y1="2" y2="13" gradientUnits="userSpaceOnUse"/><linearGradient xlink:href="#a" id="e" x1="3" x2="13" y1="3" y2="12" gradientTransform="matrix(1.2 0 0 1.22222 -1.6 -1.667)" gradientUnits="userSpaceOnUse"/><linearGradient id="f" x1="2" x2="14" y1="50" y2="61" gradientUnits="userSpaceOnUse"><stop offset="0" stop-opacity=".071"/><stop offset="1" stop-opacity=".051"/></linearGradient><linearGradient id="j" x1="4" x2="12" y1="3" y2="11" gradientUnits="userSpaceOnUse"><stop offset="0" stop-color="#fceaca"/><stop offset="1" stop-color="#fdcf7e"/></linearGradient><linearGradient id="g" x1="4" x2="14" y1="3" y2="13" gradientTransform="rotate(45 -68.962 55.435)scale(28.2843)" gradientUnits="userSpaceOnUse"><stop offset="0" stop-color="#c9963c" stop-opacity=".8"/><stop offset=".499" stop-color="#c9963c" stop-opacity=".6"/><stop offset="1" stop-color="#ca973c" stop-opacity="0"/></linearGradient><linearGradient id="a" x1="14.9" x2="33.1" y1="14.9" y2="33.1" gradientTransform="translate(0 48)" gradientUnits="userSpaceOnUse"><stop offset="0" stop-color="#fdbd4c"/><stop offset=".25" stop-color="#f6cd7b"/><stop offset=".5" stop-color="#f0b754"/><stop offset=".75" stop-color="#e9b969"/><stop offset="1" stop-color="#fdbc4b"/></linearGradient><circle cx="8" cy="8" r="8" fill="url(#b)"/><path fill="#8e98a2" d="M15.979 7.424A8 8 0 0 1 8 15 8 8 0 0 1 .021 7.576 8 8 0 0 0 0 8a8 8 0 0 0 8 8 8 8 0 0 0 8-8 8 8 0 0 0-.021-.576"/><path fill="url(#c)" d="M8 2a6 5.5 0 0 0-6 5.5A6 5.5 0 0 0 8 13a6 5.5 0 0 0 6-5.5A6 5.5 0 0 0 8 2m0 1a5 4.5 0 0 1 5 4.5A5 4.5 0 0 1 8 12a5 4.5 0 0 1-5-4.5A5 4.5 0 0 1 8 3"/><path fill="url(#d)" d="M8 0C3.606 0 0 3.344 0 7.5S3.606 15 8 15s8-3.344 8-7.5S12.394 0 8 0m0 1c3.89 0 7 2.923 7 6.5S11.89 14 8 14s-7-2.923-7-6.5S4.11 1 8 1"/><ellipse cx="8" cy="7.5" fill="url(#e)" rx="6" ry="5.5"/><path fill="url(#f)" d="M8 2a6 5.5 0 0 0-6 5.5A6 5.5 0 0 0 8 13a6 5.5 0 0 0 6-5.5A6 5.5 0 0 0 8 2m0 1a5 4.5 0 0 1 5 4.5A5 4.5 0 0 1 8 12a5 4.5 0 0 1-5-4.5A5 4.5 0 0 1 8 3"/><path fill="url(#g)" d="M7 3v4H4l1 1-1 1 2 2v.5l1.477 1.477q.26.021.523.023c3.314 0 6-2.462 6-5.5q0-.448-.082-.89l-2.865-2.866L9 5z"/><path fill="#000" d="m7 4-1 .217V7H4l1 1h7V7H8.797l2.256-2.256v-1l-.707.293L7.383 7H7zM4 9l1 1h1v2.5l1-.215V10h.658l2.594 2.596q.162-.063.32-.133l.48-.48v-1L9.073 10H12V9H6z" opacity=".08"/><path fill="url(#f)" d="M8 2a6 5.5 0 0 0-6 5.5A6 5.5 0 0 0 8 13a6 5.5 0 0 0 6-5.5A6 5.5 0 0 0 8 2m0 1a5 4.5 0 0 1 5 4.5A5 4.5 0 0 1 8 12a5 4.5 0 0 1-5-4.5A5 4.5 0 0 1 8 3"/><path fill="url(#j)" d="m7 3-1 .217V6H4v1h2v1H4v1h2v2.5l1-.215V9h.658l2.688 2.69.707-.708L9.073 9H12V8H7.918l-.77-.637L7.643 7H12V6H8.797l2.256-2.256-.707-.707L7.383 6H7Z"/></svg>