<svg xmlns="http://www.w3.org/2000/svg" xmlns:xlink="http://www.w3.org/1999/xlink" viewBox="0 0 16 16"><linearGradient id="g" x2="0" y1="34" y2="4" gradientUnits="userSpaceOnUse"><stop offset="0" stop-color="#7cbaf8"/><stop offset="1" stop-color="#f4fcff"/></linearGradient><linearGradient id="a" x1="405.57" x2="427.57" y1="509.8" y2="533.8" gradientUnits="userSpaceOnUse"><stop offset="0" stop-opacity=".286"/><stop offset="1" stop-opacity="0"/></linearGradient><linearGradient xlink:href="#a" id="f" x1="412.57" x2="425.57" y1="514.8" y2="527.8" gradientUnits="userSpaceOnUse"/><linearGradient id="c" x2="0" y1="44" y2="4" gradientTransform="matrix(-1 0 0 1 432.57 499.8)" gradientUnits="userSpaceOnUse"><stop offset="0" stop-color="#2f74c8"/><stop offset="1" stop-color="#4699d7"/></linearGradient><linearGradient xlink:href="#a" id="e" x1="405.57" x2="427.57" y1="509.8" y2="533.8" gradientUnits="userSpaceOnUse"/><g fill-rule="evenodd"><path fill="url(#c)" d="M428.57 508.8v20c0 2.5-2.5 5-4.97 5h-15.03l-10 10v-10h-5c-2.5 0-5-2.5-5-5.042V508.8c0-2.5 2.5-5 4.901-5h29.98c2.619 0 5.119 2.5 5.119 5" transform="matrix(.4 0 0 .4 -155.428 -201.52)"/><path fill="url(#e)" d="m403.57 536.3-7.5-7.5v-2.5l-2.5-2.5v-10h2.5l2.5 2.5v-2.5l20-6.25 10 10v16.25h-24.989z" opacity=".2" transform="matrix(.4 0 0 .4 -155.428 -201.52)"/><path fill="url(#f)" d="m421.07 523.8 7.5 7.5v-12.5l-5-5h-2.5z" opacity=".2" transform="matrix(.4 0 0 .4 -155.428 -201.52)"/><path fill="url(#g)" d="M34 7.75 14 14v10l20 6.25zM9 14v10h2.5V14Zm27.5 0v10H39V14Zm-25 10v5H14v-5z" transform="matrix(.4 0 0 .4 -1.6 -1.6)"/></g></svg>