<svg xmlns="http://www.w3.org/2000/svg" xmlns:xlink="http://www.w3.org/1999/xlink" width="16" height="16"><defs><linearGradient id="c"><stop offset="0" style="stop-color:#000;stop-opacity:1"/><stop offset="1" style="stop-color:#000;stop-opacity:.384"/></linearGradient><linearGradient id="b"><stop offset="0" style="stop-color:#e7e7e7;stop-opacity:1"/><stop offset="1" style="stop-color:#f3f3f3;stop-opacity:1"/></linearGradient><linearGradient id="a" x1="17" x2="44" y1="11" y2="41" gradientTransform="translate(0 1004.36)" gradientUnits="userSpaceOnUse"><stop/><stop offset="1" stop-opacity="0"/></linearGradient><linearGradient id="g" x2="0" y1="40" y2="6" gradientTransform="matrix(.42353 0 0 .4103 -1.965 1035.498)" gradientUnits="userSpaceOnUse"><stop stop-color="#b1b1b1"/><stop offset="1" stop-color="#ddd"/></linearGradient><linearGradient xlink:href="#a" id="h" x1="23" x2="40" y1="21" y2="39" gradientTransform="matrix(.45 0 0 .45 -2.6 1032.562)" gradientUnits="userSpaceOnUse"/><linearGradient id="i" x2="0" y1="1040.95" y2="1012.95" gradientTransform="matrix(.45 0 0 .45 -2.6 582.6)" gradientUnits="userSpaceOnUse"><stop stop-color="#f2f2f2"/><stop offset="1" stop-color="#fff"/></linearGradient><linearGradient id="l" x1="49.23" x2="50.745" y1="27.449" y2="14.459" gradientTransform="matrix(-.40165 0 0 -.40165 31.451 1051.17)" gradientUnits="userSpaceOnUse"><stop/><stop offset="1" stop-color="#655c6f" stop-opacity="0"/></linearGradient><linearGradient xlink:href="#b" id="k" x1="37.044" x2="30.045" y1="12.889" y2="5.495" gradientTransform="matrix(.45 0 0 .45 -2.6 1034.562)" gradientUnits="userSpaceOnUse"/><linearGradient xlink:href="#c" id="j" x1="13" x2="13" y1="44.006" y2="3.172" gradientTransform="matrix(.45 0 0 .45 -2.6 1034.562)" gradientUnits="userSpaceOnUse"/><linearGradient id="m" x1="406.501" x2="419.974" y1="527.014" y2="539.825" gradientTransform="matrix(.45 0 0 .45 -196.313 806.841)" gradientUnits="userSpaceOnUse"><stop stop-color="#292c2f"/><stop offset="1" stop-opacity="0"/></linearGradient><linearGradient id="n" x2="0" y1="40" y2="6" gradientTransform="matrix(.42353 0 0 .4103 -22.492 1032.687)" gradientUnits="userSpaceOnUse"><stop stop-color="#b1b1b1"/><stop offset="1" stop-color="#ddd"/></linearGradient><linearGradient xlink:href="#a" id="o" x1="23" x2="40" y1="21" y2="39" gradientTransform="matrix(.45 0 0 .45 -23.128 1031.751)" gradientUnits="userSpaceOnUse"/><linearGradient id="p" x2="0" y1="1040.95" y2="1012.95" gradientTransform="matrix(.45 0 0 .45 -23.128 579.789)" gradientUnits="userSpaceOnUse"><stop stop-color="#f2f2f2"/><stop offset="1" stop-color="#fff"/></linearGradient><linearGradient id="s" x1="49.23" x2="50.745" y1="27.449" y2="14.459" gradientTransform="matrix(-.40165 0 0 -.40165 10.924 1048.358)" gradientUnits="userSpaceOnUse"><stop/><stop offset="1" stop-color="#655c6f" stop-opacity="0"/></linearGradient><linearGradient xlink:href="#b" id="r" x1="37.044" x2="30.045" y1="12.889" y2="5.495" gradientTransform="matrix(.45 0 0 .45 -23.128 1031.751)" gradientUnits="userSpaceOnUse"/><linearGradient xlink:href="#c" id="q" x1="13" x2="13" y1="44.006" y2="3.172" gradientTransform="matrix(.45 0 0 .45 -23.128 1031.751)" gradientUnits="userSpaceOnUse"/></defs><g transform="translate(0 -1036.362)"><rect width="14" height="16" x="1" y="1036.362" rx="1" ry="1" style="fill:url(#g);fill-rule:evenodd"/><path d="M14.07 1051.362h-12l1 1h12v-14l-1-1z" style="opacity:.2;fill:url(#h);fill-rule:evenodd"/><path d="M2.07 1037.362v14h12v-14z" style="fill:url(#i);fill-rule:evenodd"/><path d="M3.07 1037.362H4v14h-.93z" style="color:#000;clip-rule:nonzero;display:inline;overflow:visible;visibility:visible;opacity:.08200001;isolation:auto;mix-blend-mode:normal;color-interpolation:sRGB;color-interpolation-filters:linearRGB;solid-color:#000;solid-opacity:1;fill:url(#j);fill-opacity:1;fill-rule:nonzero;stroke:none;stroke-width:1px;stroke-linecap:butt;stroke-linejoin:miter;stroke-miterlimit:4;stroke-dasharray:none;stroke-dashoffset:0;stroke-opacity:1;marker:none;color-rendering:auto;image-rendering:auto;shape-rendering:auto;text-rendering:auto"/><path d="M2.07 1037.362H3v14h-.93z" style="color:#000;clip-rule:nonzero;display:inline;overflow:visible;visibility:visible;opacity:.37300002;isolation:auto;mix-blend-mode:normal;color-interpolation:sRGB;color-interpolation-filters:linearRGB;solid-color:#000;solid-opacity:1;fill:#fff;fill-opacity:1;fill-rule:nonzero;stroke:none;stroke-width:1px;stroke-linecap:butt;stroke-linejoin:miter;stroke-miterlimit:4;stroke-dasharray:none;stroke-dashoffset:0;stroke-opacity:1;marker:none;color-rendering:auto;image-rendering:auto;shape-rendering:auto;text-rendering:auto"/><path d="M4.561 1041.316h4.657v.665H4.561zM10.862 1041.316h1.746v.665h-1.746zM4.478 1042.648h3.493v.665H4.478zM8.553 1042.648h1.746v.665H8.553zM4.416 1043.978h2.346v.665H4.416zM7.909 1043.978h4.075v.665H7.909zM4.459 1038.655H7.37v.665H4.459zM10.862 1038.655h1.746v.665h-1.746zM4.478 1039.986h4.075v.665H4.478zM9.135 1039.986h1.746v.665H9.135z" style="color:#000;clip-rule:nonzero;display:inline;overflow:visible;visibility:visible;opacity:1;isolation:auto;mix-blend-mode:normal;color-interpolation:sRGB;color-interpolation-filters:linearRGB;solid-color:#000;solid-opacity:1;fill:#bcbcbc;fill-opacity:1;fill-rule:evenodd;stroke-width:1;stroke-linecap:butt;stroke-linejoin:miter;stroke-miterlimit:4;stroke-dasharray:none;stroke-dashoffset:0;stroke-opacity:1;color-rendering:auto;image-rendering:auto;shape-rendering:auto;text-rendering:auto"/><path d="M4.459-1048.637h2.346v.665H4.459zM7.369-1048.637h4.657v.665H7.369zM4.416-1047.305h5.821v.665H4.416zM10.819-1047.305h1.164v.665h-1.164zM4.459-1045.975h4.075v.665H4.459zM9.116-1045.975h2.911v.665H9.116z" style="color:#000;clip-rule:nonzero;display:inline;overflow:visible;visibility:visible;opacity:1;isolation:auto;mix-blend-mode:normal;color-interpolation:sRGB;color-interpolation-filters:linearRGB;solid-color:#000;solid-opacity:1;fill:#bcbcbc;fill-opacity:1;fill-rule:evenodd;stroke-width:1;stroke-linecap:butt;stroke-linejoin:miter;stroke-miterlimit:4;stroke-dasharray:none;stroke-dashoffset:0;stroke-opacity:1;color-rendering:auto;image-rendering:auto;shape-rendering:auto;text-rendering:auto" transform="scale(1 -1)"/><path d="M11.444 1042.648h1.309v.665h-1.309zM7.952 1038.655h2.328v.665H7.952z" style="color:#000;clip-rule:nonzero;display:inline;overflow:visible;visibility:visible;opacity:1;isolation:auto;mix-blend-mode:normal;color-interpolation:sRGB;color-interpolation-filters:linearRGB;solid-color:#000;solid-opacity:1;fill:#bcbcbc;fill-opacity:1;fill-rule:evenodd;stroke-width:1;stroke-linecap:butt;stroke-linejoin:miter;stroke-miterlimit:4;stroke-dasharray:none;stroke-dashoffset:0;stroke-opacity:1;color-rendering:auto;image-rendering:auto;shape-rendering:auto;text-rendering:auto"/><path d="m14.07 1041.362-4-4v4z" style="fill:url(#k);fill-opacity:1;fill-rule:evenodd"/><path d="m10.07 1041.362 4 4v-4z" style="opacity:.2;fill:url(#l);fill-rule:evenodd"/><path d="m10.07 1037.362 4 4v-4z" style="fill:#fdfdfd;fill-opacity:1;fill-rule:evenodd"/><path d="M2.07 1050.925h12v.437h-12z" style="opacity:.43700005;fill:#1b1b1b;fill-opacity:1;fill-rule:evenodd"/><path d="m-14.067 1047.051 4.314 4.314h6.3v-2.7l-6.114-6.114z" style="opacity:.4;fill:url(#m);fill-rule:evenodd"/><rect width="14.143" height="18" x="-19.528" y="1033.551" rx=".643" ry=".643" style="fill:url(#n);fill-rule:evenodd"/><path d="M-6.458 1050.551h-12l1 1h12v-16l-1-1z" style="opacity:.2;fill:url(#o);fill-rule:evenodd"/><path d="M-18.458 1034.551v16h12v-16z" style="fill:url(#p);fill-rule:evenodd"/><path d="M-16.458 1038.837h4.571v.571h-4.571z" style="fill:#bcbcbc;fill-rule:evenodd"/><path d="M-18.458 1050.113h12v.437h-12z" style="opacity:.43700005;fill:#1b1b1b;fill-opacity:1;fill-rule:evenodd"/><path d="M-17.458 1034.551h1v15.5h-1z" style="color:#000;clip-rule:nonzero;display:inline;overflow:visible;visibility:visible;opacity:.08200001;isolation:auto;mix-blend-mode:normal;color-interpolation:sRGB;color-interpolation-filters:linearRGB;solid-color:#000;solid-opacity:1;fill:url(#q);fill-opacity:1;fill-rule:nonzero;stroke:none;stroke-width:1px;stroke-linecap:butt;stroke-linejoin:miter;stroke-miterlimit:4;stroke-dasharray:none;stroke-dashoffset:0;stroke-opacity:1;marker:none;color-rendering:auto;image-rendering:auto;shape-rendering:auto;text-rendering:auto"/><path d="M-18.458 1034.551h1v15.563h-1z" style="color:#000;clip-rule:nonzero;display:inline;overflow:visible;visibility:visible;opacity:.37300002;isolation:auto;mix-blend-mode:normal;color-interpolation:sRGB;color-interpolation-filters:linearRGB;solid-color:#000;solid-opacity:1;fill:#fff;fill-opacity:1;fill-rule:nonzero;stroke:none;stroke-width:1px;stroke-linecap:butt;stroke-linejoin:miter;stroke-miterlimit:4;stroke-dasharray:none;stroke-dashoffset:0;stroke-opacity:1;marker:none;color-rendering:auto;image-rendering:auto;shape-rendering:auto;text-rendering:auto"/><path d="M-11.315 1038.837h2.857v.571h-2.857zM-16.458 1039.98h3.429v.571h-3.429zM-12.458 1039.98h4v.571h-4zM-16.458 1041.122h2.303v.571h-2.303zM-13.6 1041.122h2.286v.571H-13.6z" style="fill:#bcbcbc;fill-rule:evenodd"/><path d="M-16.458 1036.551h2.857v.571h-2.857zM-16.458 1037.694h4v.571h-4zM-11.886 1037.694h1.714v.571h-1.714zM-13.029 1036.551h2.286v.571h-2.286z" style="fill:#bcbcbc;fill-opacity:1;fill-rule:evenodd"/><path d="m-6.458 1038.551-4-4v4z" style="fill:url(#r);fill-opacity:1;fill-rule:evenodd"/><path d="m-10.458 1038.551 4 4v-4z" style="opacity:.2;fill:url(#s);fill-rule:evenodd"/><path d="m-10.458 1034.551 4 4v-4z" style="fill:#fdfdfd;fill-opacity:1;fill-rule:evenodd"/><path d="M-16.458 1042.98h3.429v.571h-3.429zM-12.458 1042.98h4v.571h-4zM-16.458 1044.122h2.303v.571h-2.303zM-13.6 1044.122h2.286v.571H-13.6zM-16.458 1045.98h3.429v.571h-3.429zM-12.458 1045.98h4v.571h-4zM-16.458 1047.122h2.303v.571h-2.303zM-13.6 1047.122h2.286v.571H-13.6z" style="fill:#bcbcbc;fill-rule:evenodd"/></g></svg>