<svg xmlns="http://www.w3.org/2000/svg" width="16" height="16"><linearGradient id="a" x2="0" y1="785.71" y2="727.71" gradientTransform="matrix(.72727 0 0 .68966 .727 1.931)" gradientUnits="userSpaceOnUse"><stop offset="0" stop-color="#6c7a89"/><stop offset="1" stop-color="#768492"/></linearGradient><linearGradient id="b" x1="389.57" x2="398.57" y1="505.8" y2="514.8" gradientUnits="userSpaceOnUse"><stop offset="0" stop-color="#383e51"/><stop offset="1" stop-color="#655c6f" stop-opacity="0"/></linearGradient><linearGradient id="c" x1="364.022" x2="364.022" y1="511.801" y2="504.795" gradientUnits="userSpaceOnUse"><stop offset="0" stop-color="#a0aab4"/><stop offset="1" stop-color="#d8dce0"/></linearGradient><path fill="url(#a)" d="M386.57 502.8v13h12v-10.5l-5.5-5.5h-3.58c-1.92 0-2.92 1-2.92 3" transform="translate(-384.57 -499.8)"/><path fill="#2e3132" fill-opacity=".294" d="M2 15h12v1H2z"/><path fill="#59646f" d="M14 4s.02-3.99 0-4h-4z"/><g fill-rule="evenodd"><path fill="url(#b)" d="m398.57 507.8-1.797-2h-4l-2.203 4-.062 2.24-.938-.24 3 3h6z" opacity=".2" transform="translate(-384.57 -499.8)"/><path fill="url(#c)" d="m392.773 505.8-2.203 4.04v-3.04h-2v1h1v4l.938.24 2.859-5.24h3.203v-1zm2.297 2a1.5 1.5 0 0 0-1.5 1.5v1a1.5 1.5 0 0 0 1.5 1.5h1.5v-2.5a1.5 1.5 0 0 0-1.5-1.5m0 1a.5.5 0 0 1 .5.5v1.5h-.5a.5.5 0 0 1-.5-.5v-1a.5.5 0 0 1 .5-.5" clip-rule="evenodd" transform="translate(-384.57 -499.8)"/></g></svg>