<svg xmlns="http://www.w3.org/2000/svg" width="16" height="16"><linearGradient id="a" x2="0" y1="785.71" y2="727.71" gradientTransform="matrix(.66725 0 0 .68966 34.383 1.931)" gradientUnits="userSpaceOnUse"><stop offset="0" stop-color="#22a7f0"/><stop offset="1" stop-color="#19b5fe"/></linearGradient><linearGradient id="d" x2="0" y1="20" y2="4" gradientTransform="translate(396.57 514.468)" gradientUnits="userSpaceOnUse"><stop offset="0" stop-color="#60c0f4"/><stop offset="1" stop-color="#b9e9ff"/></linearGradient><linearGradient id="b" x1="16" x2="32" y1="16" y2="32" gradientUnits="userSpaceOnUse"><stop offset="0" stop-color="#383e51"/><stop offset="1" stop-color="#655c6f" stop-opacity="0"/></linearGradient><path fill="url(#a)" d="M393.9 511.789v34.679h32.01v-28.01l-14.944-14.672h-9.195c-5.204 0-7.871 2.667-7.871 8.003" transform="matrix(.37487 0 0 .37487 -145.66 -188.853)"/><path fill="url(#b)" fill-rule="evenodd" d="M36.006 17.324H14.665v2.667l2.667 2.668-2.667 2.668 2.667 2.667v2.668h-2.667l2.667 2.668h-2.667v2.667l10.67 10.67h16.006V22.66z" opacity=".2" transform="matrix(.37487 0 0 .37487 -1.497 -1.494)"/><path fill="#2e3132" fill-opacity=".294" d="M2.001 15H14v1H2.001Z"/><path fill="url(#d)" d="M399.235 517.124v2.667h21.34v-2.667zm0 5.335v2.668h16.005v-2.668zm0 5.335v2.668h2.667v-2.668zm0 5.336v2.667h13.338v-2.667zm16.005 0v2.667h2.668v-2.667z" transform="matrix(.37487 0 0 .37487 -145.66 -188.853)"/><path fill="#2584b7" d="M14 0v4l-4-4z"/></svg>