<svg xmlns="http://www.w3.org/2000/svg" width="16" height="16"><linearGradient id="c" x1="4" x2="14" y1="5" y2="15" gradientUnits="userSpaceOnUse"><stop offset="0" stop-color="#383e51"/><stop offset="1" stop-color="#655c6f" stop-opacity="0"/></linearGradient><linearGradient id="a" x2="0" y1="785.71" y2="727.71" gradientTransform="matrix(.72727 0 0 .68966 .727 1.931)" gradientUnits="userSpaceOnUse"><stop offset="0" stop-color="#26c281"/><stop offset="1" stop-color="#3fc380"/></linearGradient><linearGradient id="d" x2="0" y1="531.8" y2="515.8" gradientTransform="translate(-15 -20)" gradientUnits="userSpaceOnUse"><stop offset="0" stop-color="#70e4b3"/><stop offset="1" stop-color="#c8f0dc"/></linearGradient><path fill="url(#a)" d="M386.57 502.8v13h12v-10.5l-5.5-5.5h-3.531c-1.969 0-2.969 1-2.969 3" transform="translate(-384.57 -499.8)"/><path fill="#2e3132" fill-opacity=".294" d="M2 15h12v1H2z"/><path fill="url(#c)" fill-rule="evenodd" d="M4 5v7l3 3h7V7l-2-2Z" opacity=".2"/><path fill="url(#d)" d="M388.57 504.8v7h8v-7zm1 1h6v1h-6zm0 2h2v1h-2zm4 0h2v1h-2zm-4 2h2v1h-2zm4 0h2v1h-2z" transform="translate(-384.57 -499.8)"/><path fill="#289769" d="M14 4V0h-4z"/></svg>