<svg xmlns="http://www.w3.org/2000/svg" viewBox="0 0 16 16"><path d="M8 2a6 6 0 0 0-6 6 6 6 0 0 0 6 6 6 6 0 0 0 6-6 6 6 0 0 0-6-6M2 3v2l2-2zm6 0a5 5 0 0 1 2.39.61L8.87 5.13A3 3 0 0 0 8 5a3 3 0 0 0-.87.13L5.614 3.614A5 5 0 0 1 8 3m4 0 2 2V3zM3.61 5.61l1.52 1.52A3 3 0 0 0 5 8a3 3 0 0 0 .13.87l-1.517 1.517A5 5 0 0 1 3 8a5 5 0 0 1 .61-2.39m8.777.003A5 5 0 0 1 13 8a5 5 0 0 1-.61 2.39l-1.52-1.52A3 3 0 0 0 11 8a3 3 0 0 0-.13-.87zM8 6a2 2 0 0 1 2 2 2 2 0 0 1-2 2 2 2 0 0 1-2-2 2 2 0 0 1 2-2m-.87 4.87A3 3 0 0 0 8 11a3 3 0 0 0 .87-.13l1.517 1.517A5 5 0 0 1 8 13a5 5 0 0 1-2.39-.61zM2 11v2h2zm12 0-2 2h2z" style="color:#eff0f1;fill:currentColor;fill-opacity:1;stroke:none"/></svg>