<svg xmlns="http://www.w3.org/2000/svg" width="16" height="16"><linearGradient id="c" x1="4" x2="16" y1="4" y2="16" gradientUnits="userSpaceOnUse"><stop offset="0"/><stop offset="1" stop-opacity="0"/></linearGradient><linearGradient id="a" x1="-1.143" x2="8.571" y1="-1.714" y2="9.143" gradientUnits="userSpaceOnUse"><stop offset="0" stop-color="#fff"/><stop offset="1" stop-color="#fff" stop-opacity="0"/></linearGradient><path fill="#2d3033" d="M15 0H1a1 1 0 0 0-1 1v14a1 1 0 0 0 1 1h14a1 1 0 0 0 1-1V1a1 1 0 0 0-1-1"/><path fill="url(#a)" d="M15 0H1a1 1 0 0 0-1 1v14a1 1 0 0 0 1 1h14a1 1 0 0 0 1-1V1a1 1 0 0 0-1-1" opacity=".276"/><path fill="url(#c)" d="m12.5 4.5-1.071 1.214L2 5.5 6.5 10l-4.5.5L7 16h8a1 1 0 0 0 1-1V8z" opacity=".4"/><path fill="#3daee9" d="M2.5 5a.5.5 0 1 0 0 1H11V5z"/><path fill="#fafafa" d="M11.5 7a1.5 1.5 0 1 0 0-3 1.5 1.5 0 0 0 0 3"/><path fill="#fcfcfc" d="M11 5v1h2.5c.276 0 .5-.216.5-.492A.506.506 0 0 0 13.5 5z" opacity=".2"/><path fill="#3daee9" d="M2.5 10a.5.5 0 0 0 0 1H6v-1z"/><path fill="#fafafa" d="M6.5 12a1.5 1.5 0 1 0 0-3 1.5 1.5 0 0 0 0 3"/><path fill="#fcfcfc" d="M6 10v1h7.5a.5.5 0 1 0 0-1z" opacity=".2"/><path d="M1 16c-.554 0-1-.446-1-1v-1c0 .554.446 1 1 1h14c.554 0 1-.446 1-1v1c0 .554-.446 1-1 1z" opacity=".3"/><path fill="#fff" d="M1 0C.446 0 0 .446 0 1v1c0-.554.446-1 1-1h14c.554 0 1 .446 1 1V1c0-.554-.446-1-1-1z" opacity=".3"/></svg>