<svg xmlns="http://www.w3.org/2000/svg" xmlns:xlink="http://www.w3.org/1999/xlink" width="16" height="16"><defs><linearGradient id="a"><stop offset="0" style="stop-color:#cd1f03;stop-opacity:1"/><stop offset="1" style="stop-color:#d94460;stop-opacity:1"/></linearGradient><linearGradient id="e"><stop offset="0" style="stop-color:#cd1f03;stop-opacity:1"/><stop offset="1" style="stop-color:#d94460;stop-opacity:1"/></linearGradient><linearGradient xlink:href="#e" id="g" x1="394.346" x2="383.146" y1="545.128" y2="533.928" gradientTransform="matrix(1.17849 0 0 1.17849 -453.024 -628.212)" gradientUnits="userSpaceOnUse"/><linearGradient xlink:href="#a" id="f" x1="394.346" x2="383.146" y1="545.128" y2="533.928" gradientTransform="translate(-384.228 -533.064)scale(1.00246)" gradientUnits="userSpaceOnUse"/></defs><rect width="16" height="16" rx="1" ry="1" style="color:#000;clip-rule:nonzero;display:inline;overflow:visible;visibility:visible;opacity:1;isolation:auto;mix-blend-mode:normal;color-interpolation:sRGB;color-interpolation-filters:linearRGB;solid-color:#000;solid-opacity:1;fill:url(#f);fill-opacity:1;fill-rule:nonzero;stroke:none;stroke-width:1;stroke-linecap:butt;stroke-linejoin:miter;stroke-miterlimit:4;stroke-dasharray:none;stroke-dashoffset:0;stroke-opacity:1;marker:none;color-rendering:auto;image-rendering:auto;shape-rendering:auto;text-rendering:auto"/><path d="M1.37 1.482h13.17V14.54l-13.17-.023z" style="color:#000;fill:#f5d66c;fill-opacity:1;fill-rule:nonzero;stroke:none;stroke-width:1;marker:none;visibility:visible;display:inline;overflow:visible"/><path d="m7.984 2.065-.004.376C4.298 2.628 2.049 5.725 2 9h6c.036 1.433-.007 1.567 0 3 .012.237-.112.63-.279.813-.295.374-.812.353-1.26.137-.352-.158-.393-.584-.412-.946-.018-.18-.017-.969-.528-.981-.553.002-.537.862-.505 1.077-.014.786.502 1.964 1.903 1.9 1.175.076 1.781-.346 1.945-1 .17-.24.11-1.558.136-2 .007-1.2-.037-.8 0-2h5.066c-.046-3.086-1.55-6.324-4.8-6.492-.104-.018-.132-.045-.225-.07l-.007-.373c.004-.569-1.033-.56-1.05 0m4.52 5.68H3.541C3.763 5.131 5.636 3.56 8.1 3.595c2.918.066 4.28 1.429 4.404 4.15" style="color:#000;fill:url(#g);fill-opacity:1;fill-rule:nonzero;stroke:none;stroke-width:1;marker:none;visibility:visible;display:inline;overflow:visible"/><path d="M1 0C.446 0 0 .446 0 1v1c0-.554.446-1 1-1h14c.554 0 1 .446 1 1V1c0-.554-.446-1-1-1z" style="color:#000;clip-rule:nonzero;display:inline;overflow:visible;visibility:visible;opacity:.3;isolation:auto;mix-blend-mode:normal;color-interpolation:sRGB;color-interpolation-filters:linearRGB;solid-color:#000;solid-opacity:1;fill:#fff;fill-opacity:1;fill-rule:nonzero;stroke:none;stroke-width:1;stroke-linecap:butt;stroke-linejoin:miter;stroke-miterlimit:4;stroke-dasharray:none;stroke-dashoffset:0;stroke-opacity:1;marker:none;color-rendering:auto;image-rendering:auto;shape-rendering:auto;text-rendering:auto"/><path d="M1 16c-.554 0-1-.446-1-1v-1c0 .554.446 1 1 1h14c.554 0 1-.446 1-1v1c0 .554-.446 1-1 1z" style="color:#000;clip-rule:nonzero;display:inline;overflow:visible;visibility:visible;opacity:.1;isolation:auto;mix-blend-mode:normal;color-interpolation:sRGB;color-interpolation-filters:linearRGB;solid-color:#000;solid-opacity:1;fill:#000;fill-opacity:1;fill-rule:nonzero;stroke:none;stroke-width:1;stroke-linecap:butt;stroke-linejoin:miter;stroke-miterlimit:4;stroke-dasharray:none;stroke-dashoffset:0;stroke-opacity:1;marker:none;color-rendering:auto;image-rendering:auto;shape-rendering:auto;text-rendering:auto"/></svg>