<svg xmlns="http://www.w3.org/2000/svg" width="16" height="16"><defs><linearGradient id="c" x1="406.501" x2="419.974" y1="527.014" y2="539.825" gradientTransform="translate(-154.372 836.215)scale(.39741)" gradientUnits="userSpaceOnUse"><stop stop-color="#292c2f"/><stop offset="1" stop-opacity="0"/></linearGradient><linearGradient id="b" x1="34.068" x2="13.938" y1="39.054" y2="11.375" gradientTransform="translate(-1.54 1034.842)scale(.39741)" gradientUnits="userSpaceOnUse"><stop stop-color="#536161" style="stop-color:#d9dfdf;stop-opacity:1"/><stop offset="1" stop-color="#f4f5f5" style="stop-color:#f7f7f7;stop-opacity:1"/></linearGradient><linearGradient id="a" x1="428.816" x2="388.865" y1="547.634" y2="499.679" gradientTransform="translate(-154.372 836.215)scale(.39741)" gradientUnits="userSpaceOnUse"><stop stop-color="#2a2c2f"/><stop offset="1" stop-color="#536161"/></linearGradient></defs><g transform="translate(0 -1036.362)"><rect width="16" height="16" y="1036.362" rx="1" ry="1" style="fill:url(#a)"/><path d="m6.574 1040.405-.562.562 3.412 3.412-3.412 3.413.562.562 3.974-3.975-.562-.562z" style="fill:url(#b);stroke:none;stroke-width:.07948237;stroke-miterlimit:4;stroke-dasharray:none;stroke-opacity:1"/><path d="m6.576 1048.354 3.81 3.81h5.563v-2.385l-5.399-5.4z" style="opacity:.4;fill:url(#c);fill-rule:evenodd"/><path d="M1 0C.446 0 0 .446 0 1v1c0-.554.446-1 1-1h14c.554 0 1 .446 1 1V1c0-.554-.446-1-1-1z" style="fill:#fff;color:#000;clip-rule:nonzero;display:inline;overflow:visible;visibility:visible;opacity:.3;isolation:auto;mix-blend-mode:normal;color-interpolation:sRGB;color-interpolation-filters:linearRGB;solid-color:#000;solid-opacity:1;fill-opacity:1;fill-rule:nonzero;stroke-width:1;stroke-linecap:butt;stroke-linejoin:miter;stroke-miterlimit:4;stroke-dasharray:none;stroke-dashoffset:0;stroke-opacity:1;filter-blend-mode:normal;filter-gaussianBlur-deviation:0;color-rendering:auto;image-rendering:auto;shape-rendering:auto;text-rendering:auto" transform="translate(0 1036.362)"/><path d="M1 1052.362c-.554 0-1-.446-1-1v-1c0 .554.446 1 1 1h14c.554 0 1-.446 1-1v1c0 .554-.446 1-1 1z" style="color:#000;clip-rule:nonzero;display:inline;overflow:visible;visibility:visible;opacity:.3;isolation:auto;mix-blend-mode:normal;color-interpolation:sRGB;color-interpolation-filters:linearRGB;solid-color:#000;solid-opacity:1;fill:#000;fill-opacity:1;fill-rule:nonzero;stroke-width:1;stroke-linecap:butt;stroke-linejoin:miter;stroke-miterlimit:4;stroke-dasharray:none;stroke-dashoffset:0;stroke-opacity:1;color-rendering:auto;image-rendering:auto;shape-rendering:auto;text-rendering:auto;filter-blend-mode:normal;filter-gaussianBlur-deviation:0"/></g></svg>