<svg xmlns="http://www.w3.org/2000/svg" viewBox="0 0 16 16"><linearGradient id="a" x1="8" x2="8" y1="24" y2="-44.418" gradientUnits="userSpaceOnUse"><stop offset="0" stop-color="#da4453"/><stop offset="1" stop-color="#fcfcfc"/></linearGradient><linearGradient id="b" x1="37.707" x2="37.707" y1="-372.4" y2="-315.339" gradientUnits="userSpaceOnUse"><stop offset="0" stop-color="#da4453"/><stop offset="1" stop-color="#da4453" stop-opacity=".075"/></linearGradient><linearGradient id="c" x1="4.874" x2="4.874" y1="5.528" y2="12.861" gradientUnits="userSpaceOnUse"><stop offset="0" stop-color="#da4453"/><stop offset="1" stop-color="#da4453" stop-opacity="0"/></linearGradient><path fill="#34495e" d="M0 2a2 2 0 0 1 2-2h12a2 2 0 0 1 2 2v12a2 2 0 0 1-2 2H2a2 2 0 0 1-2-2z"/><path fill="url(#a)" d="M0 1.875C0 .839.895 0 2 0h12c1.105 0 2 .84 2 1.875v11.25C16 14.161 15.105 15 14 15H2c-1.105 0-2-.84-2-1.875z"/><path fill="url(#b)" fill-rule="evenodd" d="M2 0a2 2 0 0 0-2 2v6h16V2a2 2 0 0 0-2-2z" clip-rule="evenodd"/><path fill="url(#c)" d="M5.85 2.15 3.998 5.3 2.85 4.15l-1.7 5.7L7.146 16H14a2 2 0 0 0 2-2V5.3l-1.15-1.15-1.15-.146-1.85-1.854L10 5.297 8.85 4.15 7.703 4z"/><path fill="#da4453" d="M2.5 4h-1a.5.5 0 0 0-.5.5v5a.5.5 0 0 0 .5.5h1a.5.5 0 0 0 .5-.5v-5a.5.5 0 0 0-.5-.5m3-2h-1a.5.5 0 0 0-.5.5v9a.5.5 0 0 0 .5.5h1a.5.5 0 0 0 .5-.5v-9a.5.5 0 0 0-.5-.5m3 2h-1a.5.5 0 0 0-.5.5v9a.5.5 0 0 0 .5.5h1a.5.5 0 0 0 .5-.5v-9a.5.5 0 0 0-.5-.5m3-2h-1a.5.5 0 0 0-.5.5v9a.5.5 0 0 0 .5.5h1a.5.5 0 0 0 .5-.5v-9a.5.5 0 0 0-.5-.5m3 2h-1a.5.5 0 0 0-.5.5v5a.5.5 0 0 0 .5.5h1a.5.5 0 0 0 .5-.5v-5a.5.5 0 0 0-.5-.5"/><path fill="#fcfcfc" d="M2.5 4h-1a.5.5 0 0 0-.5.5v4a.5.5 0 0 0 .5.5h1a.5.5 0 0 0 .5-.5v-4a.5.5 0 0 0-.5-.5m3-2h-1a.5.5 0 0 0-.5.5v8a.5.5 0 0 0 .5.5h1a.5.5 0 0 0 .5-.5v-8a.5.5 0 0 0-.5-.5m3 2h-1a.5.5 0 0 0-.5.5v8a.5.5 0 0 0 .5.5h1a.5.5 0 0 0 .5-.5v-8a.5.5 0 0 0-.5-.5m3-2h-1a.5.5 0 0 0-.5.5v8a.5.5 0 0 0 .5.5h1a.5.5 0 0 0 .5-.5v-8a.5.5 0 0 0-.5-.5m3 2h-1a.5.5 0 0 0-.5.5v4a.5.5 0 0 0 .5.5h1a.5.5 0 0 0 .5-.5v-4a.5.5 0 0 0-.5-.5"/></svg>