<svg xmlns="http://www.w3.org/2000/svg" width="32" height="32"><path d="M0 0v32h32V0Z" style="fill:none"/><path d="M30 5.8v20.4c0 1.15-.591 1.8-1.933 1.8H4.033C2.691 28 2 27.35 2 26.2V5.8C2 4.65 2.691 4 4.033 4h23.931C29.309 3.997 30 4.65 30 5.8M3 25.794C3 26.8 3.275 27 4.133 27h23.731c.954 0 1.136-.2 1.136-1.086V6.326C29 5.2 28.807 5 27.864 5H3.933C3.311 5 3 5.2 3 6.326Z" class="ColorScheme-Text" style="color:#d6dbf1;fill:#d6dbf1;fill-opacity:1;stroke-width:.30159"/><path d="M29 9H3v1h26z" style="fill:#d6dbf1;fill-opacity:1;stroke-width:.349927"/><path d="M26 7a1 1 0 1 1 2 0 1 1 0 0 1-2 0M18 7a1 1 0 1 1 2 0 1 1 0 0 1-2 0M22 7a1 1 0 1 1 2 0 1 1 0 0 1-2 0" class="ColorScheme-Text" style="color:#e5e9ef;fill:#bac8df;fill-opacity:1;stroke-width:.011905"/><path d="m16 20.119 4.046 4.046a1.145 1.145 0 0 0 1.619-1.619L17.618 18.5l4.047-4.046a1.144 1.144 0 1 0-1.619-1.619L16 16.881l-4.046-4.046a1.144 1.144 0 0 0-1.619 1.619l4.046 4.046-4.046 4.046a1.144 1.144 0 1 0 1.619 1.619z" style="fill:#c83771;fill-opacity:1;fill-rule:evenodd;stroke:none;stroke-width:.762915"/></svg>