<svg xmlns="http://www.w3.org/2000/svg" viewBox="0 0 22 22"><path fill="currentColor" d="m5.121 3 2 2H8v.879l1 1V5h4v3h-2.879l1 1h3.172l1 1H16v3h-.707l-.086.086.707.707.086-.086v.172l1 1V5.293L14.707 3ZM14 5h1c.554 0 1 .446 1 1v3.293L14.707 8H14ZM5 7.121V17s0 2 2 2h9.879l-1.244-1.244A.98.98 0 0 1 15 18h-1v-1.879l-1-1V18H9v-3h3.879l-1-1H7.707l-1-1H6v-3h.707l.586-.586-.707-.707L6 9.293V8.121Zm1 6.586L7.293 15H8v3H7c-.554 0-1-.446-1-1Z" style="color:#fcfcfc"/><path fill="currentColor" d="m3.5 2.793-.707.707 15.353 15.354.354.353.707-.707-.353-.354-15-15z" style="color:#da4453"/></svg>