<svg xmlns="http://www.w3.org/2000/svg" viewBox="0 0 22 22"><g fill="currentColor" style="color:#fcfcfc"><path d="M5 5v12c0 2 2 2 2 2h6v-1H9v-3h5v-1H7.707l-1-1H6v-3h.707l1-1h6.586l1 1H16v2h1V5.293L14.707 3H7S5 3 5 5m2 0h1v3h-.707L6 9.293V6c0-.554.446-1 1-1m2 0h4v3H9Zm5 0h1c.554 0 1 .446 1 1v3.293L14.707 8H14Zm-8 8.707L7.293 15H8v3H7c-.554 0-1-.446-1-1Z"/><path fill-rule="evenodd" d="M16.5 13a1.5 1.5 0 0 0-1.5 1.5V16s-1 0-1 1v1c0 1 1 1 1 1h3s1 0 1-1v-1c0-1-1-1-1-1v-1.5a1.5 1.5 0 0 0-1.5-1.5m0 1a.5.5 0 0 1 .5.5V16h-1v-1.5a.5.5 0 0 1 .5-.5"/></g></svg>