<svg xmlns="http://www.w3.org/2000/svg" width="22" height="22"><path d="M4 15s-1 0-1-1V8c0-1 1-1 1-1h13c1 0 1 1 1 1v6s0 1-1 1zM1 8v6c0 3 3 3 3 3h13c3 0 3-3 3-3v-1h.5c.277 0 .5-.223.5-.5v-3c0-.277-.223-.5-.5-.5H20V8s0-3-3-3H4S1 5 1 8m1 0c0-2 2-2 2-2h13c2 0 2 2 2 2v6s0 2-2 2H4s-2 0-2-2z" style="color:#fcfcfc;fill:currentColor;fill-opacity:1;stroke:none"/><path d="M15 11h6c.554 0 1 .446 1 1v6c0 .554-.446 1-1 1h-6c-.554 0-1-.446-1-1v-6c0-.554.446-1 1-1" style="color:#da4453;fill:currentColor;fill-opacity:1;stroke:none"/><path fill="#fff" d="m15.707 12-.707.707L17.293 15 15 17.293l.707.707L18 15.707 20.293 18l.707-.707L18.707 15 21 12.707 20.293 12 18 14.293z"/></svg>