<svg xmlns="http://www.w3.org/2000/svg" width="22" height="22"><path d="M2 1040.362v6s0 3 3 3h12c3 0 3-3 3-3v-6s0-2-2-2H4c-2 0-2 2-2 2m2-1h14c1 0 1 1 1 1H3s0-1 1-1m-1 2h16v5s0 2-2 2H5c-2 0-2-2-2-2zm1 1v1h2v-1zm3 0v1h2v-1zm3 0v1h2v-1zm3 0v1h2v-1zm3 0v1h2v-1zm-12 2v1h2v-1zm3 0v1h2v-1zm3 0v1h2v-1zm3 0v1h2v-1zm3 0v1h2v-1zm-12 2v1h2v-1zm3 0v1h8v-1zm9 0v1h2v-1z" style="color:#fcfcfc;fill:currentColor;fill-opacity:1;stroke:none" transform="translate(0 -1030.362)"/><path d="M0 0h22v22H0z" style="fill:none;fill-opacity:1;stroke:none;stroke-linejoin:bevel"/></svg>