<svg xmlns="http://www.w3.org/2000/svg" viewBox="0 0 22 22"><path d="M3 6v9.996S3 19 6 19h10c3 0 3-3 3-3V6s0-3-3-3H6C3 3 3 6 3 6m2-1h5.549l-.051.549s-.328 3.52-1.225 6.129a46 46 0 0 1 1.838 3.011l-.869.49a51 51 0 0 0-1.422-2.374c-1.394 3.125-3.365 4.488-3.365 4.488l-.557-.832s1.97-1.314 3.264-4.656c-.766-1.107-1.635-2.222-3.053-3.99l.782-.628c1.18 1.475 1.973 2.493 2.668 3.456.55-1.906.798-4 .869-4.643H5Zm6 0h6v.5c0 2.147-.833 4.968-1.707 6.908-.111.247-.242.466-.367.694.624 1.083 1.46 2.113 2.844 3.23l-.627.78c-1.282-1.035-2.147-2.042-2.803-3.065-1.393 1.987-3.104 3.037-3.104 3.037l-.517-.855s1.78-1.101 3.068-3.143a20 20 0 0 1-.887-1.992C12.142 9.137 11.692 6.592 11.59 6H11Zm1.607 1c.14.765.569 3.033 1.227 4.732.173.448.351.868.539 1.282.003-.006.005-.006.008-.016.757-1.68 1.434-4.145 1.543-5.998z" style="color:#fcfcfc;fill:currentColor;fill-opacity:1;stroke:none"/></svg>