<svg xmlns="http://www.w3.org/2000/svg" viewBox="0 0 22 22"><path d="M3 6v10c0 3 3 3 3 3h10s3 0 3-3V6c0-3-3-2.998-3-2.998H6S3 3 3 6m1 0c0-2 2-2 2-2h10s2 0 2 2v10c0 2-2 2-2 2H6s-2 0-2-2zm6.898-.496a5.5 5.5 0 0 0-3.597 1.424 5.51 5.51 0 0 0-.826 7.199A5.51 5.51 0 0 0 13.5 15.9c2.19-1.117 3.332-3.545 2.898-5.9h-2.056l.002.008H11v2h3.336a3.46 3.46 0 0 1-1.746 2.111c-1.57.8-3.47.321-4.47-1.129a3.49 3.49 0 0 1 .526-4.582 3.49 3.49 0 0 1 4.61-.084l1.29-1.53a5.5 5.5 0 0 0-3.648-1.29" style="color:#fcfcfc;fill:currentColor;fill-opacity:1;stroke:none"/></svg>