<svg xmlns="http://www.w3.org/2000/svg" width="22" height="22"><path d="M94 37s-3 0-3 3v10c0 3 3 3 3 3h10s3 0 3-3V40c0-3-3-3-3-3zm-2 3c0-2 2-2 2-2h10s2 0 2 2v10c0 2-2 2-2 2H94s-2 0-2-2zm1-1v1h1v3h-1v8h6v-8h-2v-3h2v-1zm6 4 .4.3s.399-.51.797-1.3H102v2h-2v1h5v-1h-2v-2h2v-1h-2v-2h-1v2h-1.383c.218-.611.383-1.291.383-2h-1c0 1.75-1.4 3.7-1.4 3.7zm-4-3h1v3h-1zm0 4h1v3h1v-3h1v6h-4v-1h3v-1h-3v-1h1zm5 2v5h5v-5zm1 1h3v3h-3z" style="color:#fcfcfc;fill:currentColor;fill-opacity:1;stroke:none" transform="translate(-88 -34)"/><path d="M0 0h22v22H0z" style="fill:none;fill-opacity:1;stroke:none;stroke-linejoin:miter"/></svg>