<svg xmlns="http://www.w3.org/2000/svg" width="22" height="22"><g style="fill:#ccc"><path d="M0 0h22v22H0z" style="fill:none;fill-rule:evenodd;stroke:none;stroke-width:1px;stroke-linecap:butt;stroke-linejoin:miter;stroke-opacity:1"/><path d="M91 40v10s0 3 3 3h10c3 0 3-3 3-3V40s0-3-3-3H94c-3 0-3 3-3 3m1 0s.289-2 2-2h10c2 0 2 2 2 2v10s0 2-2 2H94c-2 0-2-2-2-2zm7.3-1.4-.6.8 2 1.5.6-.8zm-5.946.046-.708.708 2 2 .708-.708zM96 41v1h4v3h-3v1h3v4h-4v1h9v-1h-4v-4h3v-1h-3v-3h4v-1zm-2.646.646-.708.708 2 2 .708-.708zm1.171 3.196-2 6 .95.316 2-6z" style="color:#fcfcfc;fill:currentColor;fill-opacity:1;stroke:none" transform="translate(-88 -34)"/></g></svg>