<svg xmlns="http://www.w3.org/2000/svg" id="svg1" width="22" height="22" version="1.1"><style id="current-color-scheme" type="text/css">.ColorScheme-Text{color:#fcfcfc}</style><g id="fcitx-bopomofo-libpinyin" style="fill:#ccc"><path id="rect4147" d="M0 0h22v22H0z" style="fill:none;fill-rule:evenodd;stroke:none;stroke-width:1px;stroke-linecap:butt;stroke-linejoin:miter;stroke-opacity:1"/><path id="path4274" d="M3 5v12c0 1 1 2 1.908 2h12.097C18 19 19 18 19.058 17L19 5c0-1-.697-2-2.11-2H4.908C4 3 3 4 3 5" class="ColorScheme-Text" style="fill:currentColor;fill-opacity:1;stroke:none"/><path id="path4270" d="m11.3 4.6-.6.8 2 1.5.6-.8z" class="ColorScheme-Text" style="fill:currentColor;fill-opacity:1;stroke:none"/><path id="path4268" d="m5.354 4.646-.708.708 2 2 .708-.708z" class="ColorScheme-Text" style="fill:currentColor;fill-opacity:1;stroke:none"/><path id="path4266" d="M8 7v1h4v3H9v1h3v4H8v1h9v-1h-4v-4h3v-1h-3V8h4V7z" class="ColorScheme-Text" style="fill:currentColor;fill-opacity:1;stroke:none"/><path id="path4264" d="m5.354 7.646-.708.708 2 2 .708-.708z" class="ColorScheme-Text" style="fill:currentColor;fill-opacity:1;stroke:none"/><path id="path4166" d="m6.525 10.842-2 6 .95.316 2-6z" class="ColorScheme-Text" style="fill:currentColor;fill-opacity:1;stroke:none"/></g></svg>