<svg xmlns="http://www.w3.org/2000/svg" width="22" height="22"><path d="M6 3C3 3 3 6 3 6h8V3zm6 0v3h7s0-3-3-3zM3 7v3h3V7Zm4 0v3h8V7Zm9 0v3h3V7ZM3 11v3h8v-3zm0 4s0 3 3 3v-3zm4 0v3h4v-3z" style="color:#fcfcfc;fill:currentColor;fill-opacity:1;stroke:none"/><path d="M13 11c-.554 0-1 .446-1 1v6c0 .554.446 1 1 1h6c.554 0 1-.446 1-1v-6c0-.554-.446-1-1-1z" style="color:#f67400;fill:currentColor;fill-opacity:1;stroke:none"/><path fill="#fff" d="M16 12a2 2 0 0 0-2 2l.002 1S13 15 13 16s-.083 0 0 1 1.045 1 1.045 1h3.957S19 18 19 17.03v-1.022C19 15 18 15 18 15v-1a2 2 0 0 0-2-2m0 1a1 1 0 0 1 1 1v1h-2v-1a1 1 0 0 1 1-1"/></svg>