<svg xmlns="http://www.w3.org/2000/svg" viewBox="0 0 22 22"><path d="M3 8v7c0 3 3 3 3 3h10s3 0 3-3V8c0-3-3-3-3-3H6S3 5 3 8m1 0c0-2 2-2 2-2h10s2 0 2 2v7c0 2-2 2-2 2H6s-2 0-2-2zm6.488-1.416c-2.697.274-4.686 2.572-4.498 5.195s2.487 4.632 5.198 4.541 4.862-2.25 4.86-4.88L16 10.763c-.376-2.606-2.813-4.454-5.512-4.18m.094.963c2.15-.22 4.094 1.26 4.393 3.348l.039.54a3.85 3.85 0 0 1-.934 2.506L8.56 8.42a4.07 4.07 0 0 1 2.022-.873M7.826 9.1l5.508 5.51a4.1 4.1 0 0 1-2.195.734c-2.161.073-3.993-1.535-4.143-3.637a3.84 3.84 0 0 1 .83-2.607" style="color:#da4453;fill:currentColor;fill-opacity:1;stroke:none"/></svg>