<svg xmlns="http://www.w3.org/2000/svg" width="22" height="22"><path d="M3 6v10s0 3 3 3h10c3 0 3-3 3-3V6s0-3-3-3H6C3 3 3 6 3 6m1 0s0-2 2-2h10c2 0 2 2 2 2v10s0 2-2 2H6c-2 0-2-2-2-2zm6.898-.496a5.5 5.5 0 0 0-3.597 1.424 5.51 5.51 0 0 0-.826 7.199A5.51 5.51 0 0 0 13.5 15.9c2.19-1.117 3.332-3.545 2.898-5.9h-2.056l.002.008H11v2h3.336a3.46 3.46 0 0 1-1.746 2.111c-1.57.8-3.47.321-4.47-1.129a3.49 3.49 0 0 1 .526-4.582 3.49 3.49 0 0 1 4.61-.084l1.29-1.53a5.5 5.5 0 0 0-3.648-1.29" style="color:#fcfcfc;fill:currentColor;fill-opacity:1;stroke:none"/><path d="M0 0h22v22H0z" style="fill:none;fill-opacity:1;stroke:none"/></svg>