<svg xmlns="http://www.w3.org/2000/svg" width="22" height="22"><path d="M113 18v10s0 3 3 3h10c3 0 3-3 3-3V18s0-3-3-3h-10c-3 0-3 3-3 3m1 0s0-2 2-2h10c2 0 2 2 2 2v10s0 2-2 2h-10c-2 0-2-2-2-2zm6-1v6.982c-1.811-.081-2.72-.606-3.262-1.492-.59-.965-.738-2.51-.738-4.49h-1c0 2.02.102 3.725.887 5.01.726 1.189 2.063 1.874 4.113 1.97V28h-5v1h11v-1h-5v-3.02c2.05-.096 3.387-.781 4.113-1.97.785-1.285.887-2.99.887-5.01h-1c0 1.98-.148 3.525-.738 4.49-.541.886-1.451 1.41-3.262 1.492V17Z" style="color:#fcfcfc;fill:currentColor;fill-opacity:1;stroke:none" transform="translate(-110 -12)"/><path d="M0 0h22v22H0z" style="fill:none;fill-opacity:1;stroke:none;stroke-linejoin:miter"/></svg>