<svg xmlns="http://www.w3.org/2000/svg" width="22" height="22"><path d="M3 6v10s0 3 3 3h10c3 0 3-3 3-3V6s0-3-3-3H6C3 3 3 6 3 6m7.9-1.299 1.5 2-.398.299h1.996l-.398-.299 1.5-2 .8.6L14.625 7H17v1h-2v3h2v1h-2v5h-1v-5h-2.041c-.096 1.119-.477 2.03-.926 2.807-.62 1.075-1.691 2.058-1.691 2.058l-.684-.728s1.013-.97 1.51-1.83c.401-.695.704-1.412.793-2.307H9v-.941l-1 .5V17H5v-1h2v-3.941l-1.777.888-.446-.894L7 10.94V8H5V7h2V5h1v2h1v1H8v2.441l.777-.388.446.894-.106.053H11V8h-1V7h1.375L10.1 5.3ZM12 8v3h2V8Z" style="color:#fcfcfc;fill:currentColor;fill-opacity:1;stroke:none"/><path d="M0 0h22v22H0z" style="fill:none;fill-opacity:1;stroke:none"/></svg>