<svg xmlns="http://www.w3.org/2000/svg" width="22" height="22"><path d="M94 37c-3 0-3 3-3 3v10s0 3 3 3h10c3 0 3-3 3-3V40s0-3-3-3zm-1 2h6v1h-2v3h2l-.4-.3s1.4-1.95 1.4-3.7h1c0 .709-.165 1.389-.383 2H102v-2h1v2h2v1h-2v2h2v1h-5v-1h2v-2h-1.803c-.398.79-.797 1.3-.797 1.3L99 43v8h-6v-8h1v-3h-1zm2 1v3h1v-3zm0 4v3h-1v1h3v1h-3v1h4v-6h-1v3h-1v-3zm5 2h5v5h-5v-4.5zm1 1v3h3v-3z" style="color:#fcfcfc;fill:currentColor;fill-opacity:1;stroke:none" transform="translate(-88 -34)"/><path d="M0 0h22v22H0z" style="fill:none;fill-opacity:1;stroke:none;stroke-linejoin:miter"/></svg>