<svg xmlns="http://www.w3.org/2000/svg" width="22" height="22"><path d="M0 170h22v22H0z" style="fill:none;fill-opacity:1;stroke:none" transform="translate(0 -170)"/><path d="M6 103c-3 0-3 3-3 3v10s0 3 3 3h10c3 0 3-3 3-3v-10s0-3-3-3zm-2 3s0-2 2-2h10c2 0 2 2 2 2v10s0 2-2 2H6c-2 0-2-2-2-2zm4-1v1h2v-1zm6 1v8h1v-4h2v-1h-2v-3zm-8 1v1h6v-1zm3 2c-1.597 0-3 1.058-3 2.5s1.403 2.5 3 2.5 3-1.058 3-2.5-1.403-2.5-3-2.5m0 1c1.165 0 2 .733 2 1.5s-.835 1.5-2 1.5-2-.733-2-1.5.835-1.5 2-1.5m-1 5v2h8v-1H9v-1z" style="color:#fcfcfc;fill:currentColor;fill-opacity:1;stroke:none" transform="translate(0 -100)"/></svg>