<svg xmlns="http://www.w3.org/2000/svg" width="22" height="22"><path d="M179 18v10s0 3 3 3h10c3 0 3-3 3-3V18s0-3-3-3h-10c-3 0-3 3-3 3m1 0s0-2 2-2h10c2 0 2 2 2 2v10s0 2-2 2h-10c-2 0-2-2-2-2zm6.584-1.277c-1.844 2.765-5.647 3.28-5.647 3.28l.125.993s.834-.124 1.938-.535V24.5c0 .833-.454 1.913-.934 2.752-.48.84-.957 1.436-.957 1.436l.782.625s.522-.654 1.043-1.565c.022-.039.044-.085.066-.125V29h8v-3h-7.275a5.3 5.3 0 0 0 .22-1H191v-4.54c1.104.412 1.938.536 1.938.536l.125-.992s-3.803-.516-5.647-3.281zm.416.98c.859 1.07 1.933 1.799 2.934 2.297H187.5l.277-.416-1.5-1-.554.832.875.584h-2.532c1-.498 2.075-1.227 2.934-2.297M184 21h6v3h-6v-1h5v-1h-5zm0 6h6v1h-6z" style="color:#fcfcfc;fill:currentColor;fill-opacity:1;stroke:none" transform="translate(-176 -12)"/><path d="M0 0h22v22H0z" style="fill:none;fill-opacity:1;stroke:none;stroke-linejoin:miter"/></svg>