<svg xmlns="http://www.w3.org/2000/svg" width="22" height="22"><path d="M0 170h22v22H0z" style="fill:none;fill-opacity:1;stroke:none" transform="translate(0 -170)"/><path d="M50.022 81.021c-3 0-3 3-3 3v10s0 3 3 3h10c3 0 3-3 3-3v-10s0-3-3-3zm-2 3s0-2 2-2h10c2 0 2 2 2 2v10s0 2-2 2h-10c-2 0-2-2-2-2zM53 85v8h1v-2.293L56.293 93H58v-2.293L60.293 93h1.414l-3-3 3-3h-1.414L58 89.293V85h-1v2h-.707L54 89.293V85Zm0 6c0-.583-.154-1.11-.521-1.479C52.11 89.154 51.583 89 51 89c-.417 0-.64-.096-.771-.229C50.096 88.64 50 88.417 50 88s.096-.64.229-.771c.132-.133.354-.229.771-.229s.64.096.771.229c.133.132.229.354.229.771h1c0-.583-.154-1.11-.521-1.479C52.11 86.154 51.583 86 51 86s-1.11.154-1.479.521C49.154 86.89 49 87.417 49 88s.154 1.11.521 1.479c.368.367.896.521 1.479.521.417 0 .64.096.771.229.133.132.229.354.229.771s-.096.64-.229.771c-.132.133-.354.229-.771.229s-.64-.096-.771-.229C50.096 91.64 50 91.417 50 91h-1c0 .583.154 1.11.521 1.479.368.367.896.521 1.479.521s1.11-.154 1.479-.521c.367-.368.521-.896.521-1.479m4-3.293v4.586L54.707 90Z" style="color:#fcfcfc;fill:currentColor;fill-opacity:1;stroke:none" transform="translate(-44.022 -78.021)"/></svg>