<svg xmlns="http://www.w3.org/2000/svg" width="22" height="22"><path d="M3 6v10s0 3 3 3h10c3 0 3-3 3-3V6s0-3-3-3H6C3 3 3 6 3 6m1 0s0-2 2-2h10c2 0 2 2 2 2v10s0 2-2 2H6c-2 0-2-2-2-2Zm6.9-1.299-.8.6L11.375 7H10v1h1v3H9.117l.106-.053-.446-.894L8 10.44V8h1V7H8V5H7v2H5v1h2v2.941l-2.223 1.112.446.894L7 12.06V16H5v1h3v-5.441l1-.5V12h1.96c-.088.895-.39 1.612-.792 2.307-.497.86-1.51 1.83-1.51 1.83l.684.728s1.07-.983 1.691-2.058c.449-.778.83-1.688.926-2.807H14v5h1v-5h2v-1h-2V8h2V7h-2.375L15.9 5.3l-.8-.599-1.5 2 .398.299h-1.996l.398-.299ZM12 8h2v3h-2z" style="color:#fcfcfc;fill:currentColor;fill-opacity:1;stroke:none"/><path d="M0 0h22v22H0z" style="fill:none;fill-opacity:1;stroke:none"/></svg>