<svg xmlns="http://www.w3.org/2000/svg" viewBox="0 0 22 22"><path d="M3 6v10c0 3 3 3 3 3h10s3 0 3-3V6c0-3-3-3-3-3H6S3 3 3 6m1.028 0C4 4 6 4 6 4h10s2 0 2 2v10c0 2-2 2-2 2H6s-2 0-2-2 .056-8 .028-10M6 15s-1 0-1 1 1 1 1 1h3s1 0 1-.982S9 15 9 15Zm7 0s-1 0-1 1 1 1 1 1h3s1 0 1-.951C17 15.097 16 15 16 15Z" style="color:#fcfcfc;fill:currentColor;fill-opacity:1;stroke:none"/><path d="M11 6a4 4 0 0 0-4 4 4 4 0 0 0 4 4 4 4 0 0 0 4-4 4 4 0 0 0-4-4m0 1c1.662 0 3 1.338 3 3s-1.338 3-3 3-3-1.338-3-3 1.338-3 3-3m0 2a1 1 0 0 0-1 1 1 1 0 0 0 1 1 1 1 0 0 0 1-1 1 1 0 0 0-1-1" style="color:#27ae60;fill:currentColor;fill-opacity:1;stroke:none"/></svg>