<svg xmlns="http://www.w3.org/2000/svg" width="22" height="22"><g transform="translate(-370 -534.362)"><rect width="22" height="22" x="370" y="534.362" fill="none" ry="0"/><path fill="currentColor" d="M20 112v11l7 2 7-2v-9h-1v4c0 2-2 2-2 2h-8s-2 0-2-2v-6c0-2 2-2 2-2h6v-1h-6s-3 0-3 3m12-3a2 2 0 1 0 0 4 2 2 0 0 0 0-4m0 1v2a1 1 0 1 1 0-2m-5.562 2L24 118h1.074l.406-1h3.04l.406 1H30l-2.44-6h-.537l-.023.01-.023-.01Zm.562 1.258L28.113 116h-2.226ZM21 121h12v1H21Z" style="color:#fcfcfc" transform="translate(354 428.362)"/></g></svg>