<svg xmlns="http://www.w3.org/2000/svg" width="22" height="22"><path d="M326 534.362h22v22h-22z" style="opacity:1;fill:none;fill-opacity:1;stroke:none;stroke-width:.1;stroke-linecap:square;stroke-linejoin:miter;stroke-miterlimit:4;stroke-dasharray:none;stroke-dashoffset:0;stroke-opacity:1" transform="translate(-324 -550)"/><path d="M0 0h22v22H0z" style="opacity:.00100002"/><path d="M9.835 13.665a.886.886 0 0 1-.885-.885V8.884c.002-1.179 1.769-1.179 1.77 0v3.896a.886.886 0 0 1-.885.885M12.314 13.665a.886.886 0 0 1-.885-.885V8.884c.002-1.179 1.769-1.179 1.77 0v3.896a.886.886 0 0 1-.885.885m0-5.312" class="ColorScheme-NegativeText" style="color:#bf616a;fill:#00b2b2;fill-opacity:1;stroke-width:.177075"/><path d="M17.815 15.534c-1.068-.764-1.68-1.93-1.68-3.202V9.666c0-2.233-1.58-4.122-3.733-4.704v-.628c0-.735-.628-1.334-1.4-1.334S9.6 3.598 9.6 4.334v.628c-2.154.582-3.734 2.47-3.734 4.704v2.666c0 1.27-.612 2.436-1.68 3.202a.43.43 0 0 0-.163.496.465.465 0 0 0 .442.304h4.247a2 2 0 0 0-.048.444c0 1.224 1.047 2.222 2.333 2.222 1.285 0 2.333-.998 2.333-2.222a2 2 0 0 0-.046-.444h4.246c.2 0 .379-.123.442-.304a.425.425 0 0 0-.157-.496m-7.278-11.2c0-.245.209-.444.466-.444s.466.199.466.444v.465a4.86 4.86 0 0 0-.933 0zm1.866 12.442c0 .735-.627 1.334-1.4 1.334s-1.4-.598-1.4-1.334q0-.23.08-.444h2.64q.08.215.08.444M5.63 15.444c.239-.274.446-.575.616-.89a4.64 4.64 0 0 0 .559-2.222V9.666c0-2.206 1.884-4 4.2-4 2.314 0 4.2 1.794 4.2 4v2.666c0 .782.188 1.53.558 2.22.17.317.378.616.614.89H5.63Z" style="fill:#d3dae3;fill-opacity:1;stroke-width:.0167295"/></svg>