<svg xmlns="http://www.w3.org/2000/svg" id="svg6" width="22" height="22" version="1.1"><style id="current-color-scheme" type="text/css">.ColorScheme-Text{color:#bac8df}</style><g id="22-22-kdeconnect-7" transform="translate(-3.962 -38.981)"><g id="g1123"><path id="rect3841-5" d="M3.962 38.981h22v22h-22z" style="fill:#000;fill-opacity:0;stroke:none"/><path id="path2077-3-2" d="M11.858 41.981h6.208c1.046.003 1.893.778 1.896 1.736v12.529c-.003.957-.85 1.733-1.896 1.735h-6.208c-1.047-.001-1.895-.778-1.896-1.737V43.717c.002-.958.85-1.734 1.896-1.736m3.103 14.11c.692 0 1.04.766.55 1.214-.488.449-1.325.132-1.325-.502.001-.392.347-.71.775-.711M19 55V44h-8v11z" class="cls-1 ColorScheme-Text" style="stroke-width:.136053;fill-rule:evenodd;fill-opacity:1;fill:currentColor"/><path id="path72-3-3" d="M16.5 49.5a1.5 1.5 0 1 1-2.999.001A1.5 1.5 0 0 1 16.5 49.5" class="ColorScheme-Text" style="stroke-width:.0178575;fill-opacity:1;fill:currentColor"/></g></g></svg>