<svg xmlns="http://www.w3.org/2000/svg" id="svg6" width="22" height="22" version="1.1"><style id="current-color-scheme" type="text/css">.ColorScheme-Text{color:#31363b}</style><g id="22-22-konv_message-2"><path id="rect2-7" d="M0 0h22v22H0z" style="opacity:.00100002;fill:#556fa6;fill-opacity:1"/><path id="path2653-0-9" d="M7.374 8h7.252c.18 0 .374-.224.374-.5s-.193-.5-.374-.5H7.374C7.194 7 7 7.224 7 7.5s.193.5.374.5" style="fill:#4e70ac;fill-opacity:1;stroke-width:.202035"/><path id="path2655-9-4" d="M7.516 11h6.968a.51.51 0 0 0 .516-.5c0-.276-.231-.5-.516-.5H7.516a.51.51 0 0 0-.516.5c0 .276.231.5.516.5" style="fill:#4e70ac;fill-opacity:1;stroke-width:.254"/><path id="path7-3-6" d="M-17.086-15.327a7.47 7.47 0 0 1 10.413-1.76 7.47 7.47 0 0 1 1.76 10.414 7.47 7.47 0 0 1-10.413 1.76 7.47 7.47 0 0 1-1.761-10.413" class="ColorScheme-Text" style="color:#d6dbf1;fill:none;fill-opacity:1;stroke:#4e70ac;stroke-width:1.06935;stroke-linecap:round;stroke-miterlimit:4;stroke-dasharray:none;stroke-opacity:1;stop-color:#31363b" transform="scale(-1)"/><path id="path2655-9-4-7" d="M7.516 14h6.968a.51.51 0 0 0 .516-.5c0-.276-.231-.5-.516-.5H7.516a.51.51 0 0 0-.516.5c0 .276.231.5.516.5" style="fill:#4e70ac;fill-opacity:1;stroke-width:.254"/><path id="path72-3-5" d="M19.4 17.5a1.5 1.5 0 1 1-2.999.001A1.5 1.5 0 0 1 19.4 17.5" class="ColorScheme-Text" style="color:#e5e9ef;fill:#4e70ac;fill-opacity:1;stroke-width:.0178572"/></g></svg>