<svg xmlns="http://www.w3.org/2000/svg" width="22" height="22"><path d="m7 7-3 3v6s0 3 3 3h8c3 0 3.1-3 3.1-3v-6l-3-3h-6Zm.3 1h7.4l2 2H5.3ZM9 11h4v5l-1-1-1 1-1-1-1 1z" style="color:#fcfcfc;fill:currentColor;fill-rule:evenodd;stroke:none;stroke-width:1px;stroke-linecap:butt;stroke-linejoin:miter;stroke-opacity:1"/><path d="M16 3a3 3 0 0 0-3 3 3 3 0 0 0 3 3 3 3 0 0 0 3-3 3 3 0 0 0-3-3" style="opacity:1;fill:#2ecc71;fill-opacity:1;stroke:none"/><path d="m16 4 2 2h-1v2h-2V6h-1l1-1z" style="color:#eff0f1;opacity:1;fill:currentColor;fill-opacity:1;stroke:none"/><path d="M0 0h22v22H0z" style="opacity:1;fill:none;fill-opacity:.59905659;stroke:none"/></svg>