<svg xmlns="http://www.w3.org/2000/svg" width="22" height="22"><path d="m29 7-3 3v6s0 3 3 3h8c3 0 3.1-3 3.1-3v-6l-3-3h-6Zm.3 1h7.4l2 2H27.3Zm1.7 3h4v5l-1-1-1 1-1-1-1 1z" style="color:#fcfcfc;fill:currentColor;fill-rule:evenodd;stroke:none;stroke-width:1px;stroke-linecap:butt;stroke-linejoin:miter;stroke-opacity:1" transform="translate(-22)"/><path d="M38 3c0 1-2 1-2 1v3c0 1 1 1 2 2 1-1 2-1 2-2V4s-2 0-2-1" style="fill:#fdbc4b;fill-opacity:1;fill-rule:evenodd;stroke:none;stroke-width:1px;stroke-linecap:butt;stroke-linejoin:miter;stroke-opacity:1" transform="translate(-22)"/><path d="M22 0h22v22H22z" style="opacity:1;fill:none;fill-opacity:.59905659;stroke:none" transform="translate(-22)"/></svg>