<svg xmlns="http://www.w3.org/2000/svg" width="22" height="22"><path d="M1 5v12s0 2 2 2h16c2 0 2-2 2-2V5s0-2-2-2H3C1 3 1 5 1 5m1-1h.049l5.974 5.977L2 16Zm1.463 0h15.074L11 11.537ZM19.95 4H20v12l-6.023-6.023Zm-11.22 6.684L11 12.95l2.27-2.267 6.267 6.267.463.463V18H2v-.586l.463-.463z" style="color:#fcfcfc;fill:currentColor"/><path d="M0 0h22v22H0z" style="opacity:1;fill:none;fill-opacity:1;stroke:none;stroke-width:.1;stroke-linecap:square;stroke-linejoin:miter;stroke-miterlimit:4;stroke-dasharray:none;stroke-dashoffset:0;stroke-opacity:1"/></svg>