<svg xmlns="http://www.w3.org/2000/svg" id="svg1" width="32" height="32" version="1.1"><defs id="defs1"><style id="style1" type="text/css">.ColorScheme-Text{color:#d8dee9}</style></defs><g id="media-playback-stop" style="fill:#bac8df;fill-opacity:1"><path id="path72" d="M0 0h32v32H0Z" style="opacity:.00100002;fill:#bac8df;fill-opacity:1"/><path id="path8" d="M19.967 21.15h-7.884c-.653 0-1.183-.53-1.183-1.183v-7.884c0-.653.53-1.183 1.183-1.183h7.884c.653 0 1.183.53 1.183 1.183v7.884c0 .653-.53 1.183-1.183 1.183m-8.279-9.067" class="ColorScheme-Text" style="stroke-width:.394232;fill-opacity:1;fill:currentColor"/><path id="path2-36-912-3-3" d="M24.485 7.515A11.92 11.92 0 0 0 16 4a11.92 11.92 0 0 0-8.485 3.515A11.92 11.92 0 0 0 4 16c0 3.205 1.248 6.219 3.515 8.485A11.92 11.92 0 0 0 16 28c3.205 0 6.219-1.248 8.485-3.515A11.92 11.92 0 0 0 28 16c0-3.205-1.248-6.219-3.515-8.485m-1.37 16.3c-2.21 1.874-3.992 2.76-7.115 2.737-3.316-.024-4.546-.647-7.115-2.738C6.798 21.727 5.448 18.952 5.448 16S6.84 9.91 8.885 8.185C11.179 6.169 13.091 5.47 16 5.448c2.952-.022 4.928.92 7.115 2.737 2.087 2.088 3.437 4.863 3.437 7.815s-1.35 5.727-3.437 7.815" class="ColorScheme-Text" style="stroke-width:.0374999;fill-opacity:1;fill:currentColor"/></g></svg>