<svg xmlns="http://www.w3.org/2000/svg" id="svg1" width="32" height="32" version="1.1"><defs id="defs1"><style id="style1" type="text/css">.ColorScheme-Text{color:#d8dee9}</style></defs><g id="media-playback-start" style="fill:#bac8df;fill-opacity:1" transform="translate(0 32)"><path id="path62" d="M0-32h32V0H0Z" style="opacity:.00100002;fill:#bac8df;fill-opacity:1"/><path id="path2-36-912-3" d="M24.485-24.485A11.92 11.92 0 0 0 16-28a11.92 11.92 0 0 0-8.485 3.515A11.92 11.92 0 0 0 4-16c0 3.205 1.248 6.219 3.515 8.485A11.92 11.92 0 0 0 16-4c3.205 0 6.219-1.248 8.485-3.515A11.92 11.92 0 0 0 28-16c0-3.205-1.248-6.219-3.515-8.485m-1.37 16.3c-2.21 1.874-3.992 2.76-7.115 2.737-3.316-.024-4.546-.647-7.115-2.738C6.798-10.273 5.448-13.048 5.448-16s1.392-6.09 3.437-7.815c2.294-2.016 4.206-2.715 7.115-2.737 2.952-.022 4.928.92 7.115 2.737 2.087 2.088 3.437 4.863 3.437 7.815s-1.35 5.727-3.437 7.815" class="ColorScheme-Text" style="stroke-width:.0374999;fill-opacity:1;fill:currentColor"/><path id="path4-3-3-9-1" d="M21.6-16a.72.72 0 0 1-.212.512l-5.932 5.338c-.58.44-2 .598-2-.895v-8.607c0-.559-.124-1.632.37-2.128a1.27 1.27 0 0 1 1.795 0l5.767 5.267c.136.136.213.32.212.513" class="ColorScheme-Text" style="stroke-width:.36249;fill-opacity:1;fill:currentColor"/></g></svg>