<svg xmlns="http://www.w3.org/2000/svg" viewBox="0 0 22 22"><path fill="currentColor" d="m3.5 2.793-.707.707.353.354 15 15 .354.353.707-.707-.353-.354-15-15z" style="color:#da4453"/><g fill="currentColor" style="color:#232629"><path d="M8 3a3 3 0 0 0-2.121.879L11 9V6a3 3 0 0 0-3-3M5 7v4a3 3 0 0 0 3 3 2.99 2.99 0 0 0 2.555-1.445zM3 9v2a5 5 0 0 0 4 4.9V18H5v1h6v-1H9v-2.1a4.99 4.99 0 0 0 2.99-1.91l-.71-.71A3.99 3.99 0 0 1 8 15a4 4 0 0 1-4-4V9zm9 0v1l1 1V9z"/><g opacity=".35"><path d="m14.28 3.828-.452.893.447.226c1.112.561 2.067 1.438 2.72 2.498S18 9.755 18 11a6.84 6.84 0 0 1-1.006 3.555c-.055.09-.124.169-.183.256l.714.714c.107-.149.224-.29.32-.447C18.598 13.858 19 12.433 19 11s-.403-2.858-1.154-4.078-1.842-2.223-3.121-2.87zm.482 12.934c-.161.099-.318.206-.487.29l-.447.227.451.893.446-.225c.265-.134.517-.293.765-.457z"/><path d="m13.219 6.55-.438.9c.66.32 1.23.835 1.62 1.456.388.622.599 1.36.599 2.094 0 .562-.126 1.127-.36 1.64l.739.739A4.96 4.96 0 0 0 16 11c0-.924-.262-1.84-.752-2.623a4.97 4.97 0 0 0-2.03-1.826"/></g></g></svg>