<svg xmlns="http://www.w3.org/2000/svg" viewBox="0 0 22 22"><g fill="currentColor" style="color:#fcfcfc"><path d="M3 9v2a5 5 0 0 0 4 4.9V18H5v1h6v-1H9v-2.1a5 5 0 0 0 4-4.9V9h-1v2a4 4 0 1 1-8 0V9zm5-6a3 3 0 0 0-3 3v5a3 3 0 0 0 6 0V6a3 3 0 0 0-3-3"/><g opacity=".35"><path d="m14.28 3.828-.452.893.447.226a6.83 6.83 0 0 1 2.72 2.498C17.645 8.505 18 9.755 18 11s-.354 2.495-1.006 3.555a6.83 6.83 0 0 1-2.719 2.498l-.447.226.451.893.446-.225c1.279-.646 2.37-1.648 3.12-2.869S19 12.433 19 11s-.403-2.858-1.154-4.078-1.842-2.223-3.121-2.87z"/><path d="m13.219 6.55-.438.9c.66.32 1.23.835 1.62 1.456.388.622.599 1.36.599 2.094s-.211 1.472-.6 2.094a4 4 0 0 1-1.619 1.457l.438.898c.83-.405 1.54-1.042 2.029-1.826S16 11.924 16 11s-.262-1.84-.752-2.623-1.199-1.421-2.03-1.826"/></g></g></svg>