<svg xmlns="http://www.w3.org/2000/svg" width="22" height="22"><defs id="defs4157"><style id="current-color-scheme" type="text/css">.ColorScheme-Text{color:#fcfcfc}</style></defs><path id="path5156" d="M19 3 3 19h11v-3l1-1v-2l1-1 1-1h2z" class="ColorScheme-Text" style="opacity:.35;fill:currentColor;fill-opacity:1;fill-rule:evenodd;stroke:none;stroke-width:1px;stroke-linecap:butt;stroke-linejoin:miter;stroke-opacity:1"/><path id="path5158" d="M18 12c-1.108 0-2 .892-2 2v2h-1v3h6v-3h-1v-2c0-1.108-.892-2-2-2m0 1c.554 0 1 .446 1 1v2h-2v-2c0-.554.446-1 1-1" class="ColorScheme-Text" style="fill:currentColor;fill-opacity:1;stroke:none;stroke-width:.1;stroke-miterlimit:4;stroke-dasharray:none;stroke-opacity:1"/><path id="path4317" d="m10 12-7 7h7z" class="ColorScheme-Text" style="fill:currentColor;fill-opacity:1;fill-rule:evenodd;stroke:none;stroke-width:1px;stroke-linecap:butt;stroke-linejoin:miter;stroke-opacity:1"/><path id="path5066" d="M3 3v5h4V5H5v1h1v1H4V4h3V3H4Z" class="ColorScheme-Text" style="fill:currentColor;fill-opacity:1;stroke:none"/></svg>