<svg xmlns="http://www.w3.org/2000/svg" viewBox="0 0 22 22"><defs id="defs3051"><style id="current-color-scheme" type="text/css">.ColorScheme-Text{color:#fcfcfc}</style></defs><path d="M11 15c-1.108 0-2 .892-2 2s.892 2 2 2 2-.892 2-2-.892-2-2-2m0 1c.554 0 1 .446 1 1s-.446 1-1 1-1-.446-1-1 .446-1 1-1M11 3A14.95 14.95 0 0 0 .383 7.383l.709.709A13.96 13.96 0 0 1 11 4c3.878 0 7.378 1.561 9.908 4.092l.71-.71A14.95 14.95 0 0 0 11 3m0 4a10.97 10.97 0 0 0-7.785 3.215l.707.707A9.97 9.97 0 0 1 11 8a9.97 9.97 0 0 1 7.078 2.922l.707-.707A10.97 10.97 0 0 0 11 7m0 4a6.98 6.98 0 0 0-4.955 2.045l.709.709A5.98 5.98 0 0 1 11 12a5.98 5.98 0 0 1 4.246 1.754l.71-.71A6.98 6.98 0 0 0 11 11" class="ColorScheme-Text" style="opacity:.5;fill:currentColor;fill-opacity:1;stroke:none"/></svg>