<svg xmlns="http://www.w3.org/2000/svg" width="22" height="22"><style id="current-color-scheme" type="text/css">.ColorScheme-Text{color:#31363b}</style><g id="network-wireless-available" transform="translate(22 -22)"><path id="rect4517" d="M-22 22H0v22h-22z" style="opacity:.55;fill:none;fill-opacity:1;stroke:none;stroke-width:3.56737041px;stroke-linecap:butt;stroke-linejoin:miter;stroke-miterlimit:4;stroke-dasharray:none;stroke-dashoffset:0;stroke-opacity:1"/><g id="g4527" transform="translate(-51.975 12.978)"><path id="path4519" d="M40.975 12.022a14.95 14.95 0 0 0-10.618 4.383l.71.71a13.96 13.96 0 0 1 9.908-4.093c3.878 0 7.377 1.562 9.908 4.092l.709-.709a14.95 14.95 0 0 0-10.617-4.383" class="ColorScheme-Text" style="opacity:.35;fill:currentColor;fill-opacity:1;stroke:none"/><path id="path4521" d="M40.975 16.022a10.97 10.97 0 0 0-7.786 3.215l.708.707a9.97 9.97 0 0 1 7.078-2.922 9.97 9.97 0 0 1 7.078 2.922l.707-.707a10.97 10.97 0 0 0-7.785-3.215" class="ColorScheme-Text" style="opacity:.35;fill:currentColor;fill-opacity:1;stroke:none"/><path id="path4523" d="M40.975 20.022a6.98 6.98 0 0 0-4.955 2.045l.709.71a5.98 5.98 0 0 1 4.246-1.755 5.98 5.98 0 0 1 4.246 1.754l.709-.709a6.98 6.98 0 0 0-4.955-2.045" class="ColorScheme-Text" style="opacity:.35;fill:currentColor;fill-opacity:1;stroke:none"/><path id="path4525" d="M40.975 24.022c-1.108 0-2 .892-2 2s.892 2 2 2 2-.892 2-2-.892-2-2-2m0 1c.554 0 1 .446 1 1s-.446 1-1 1-1-.446-1-1 .446-1 1-1" class="ColorScheme-Text" style="opacity:.35;fill:currentColor;fill-opacity:1;stroke:none"/></g><path id="path4891" d="M-3.234 35.014a2 2 0 0 0-1.768 1.896V37h1a1 1 0 0 1 .883-.994h.115v-.992zm.232.002v1a1 1 0 0 1 .994.882v.116h.006a1 1 0 0 1-.883.994H-3V38a2 2 0 0 0-.2.002 2 2 0 0 0-.8.219v-.207h-.002v2h1V39h.232a2 2 0 0 0 1.768-1.896v-.09h-.014v-.23a2 2 0 0 0-1.896-1.768zM-4 41v1h1v-1z" style="fill:#fdbc4b;fill-opacity:1;stroke:none"/></g></svg>