<svg xmlns="http://www.w3.org/2000/svg" width="22" height="22"><style id="current-color-scheme" type="text/css">.ColorScheme-Text{color:#31363b}</style><g id="network-wireless-60-locked" transform="translate(-22 -44)"><path id="rect4334" d="M22 44h22v22H22z" style="opacity:.55;fill:none;fill-opacity:1;stroke:none;stroke-width:3.56737041px;stroke-linecap:butt;stroke-linejoin:miter;stroke-miterlimit:4;stroke-dasharray:none;stroke-dashoffset:0;stroke-opacity:1"/><path id="path4304" d="M33 59c-1.108 0-2 .892-2 2s.892 2 2 2 2-.892 2-2-.892-2-2-2m0 1c.554 0 1 .446 1 1s-.446 1-1 1-1-.446-1-1 .446-1 1-1" class="ColorScheme-Text" style="opacity:1;fill:currentColor;fill-opacity:1;stroke:none"/><path id="path4306" d="M33 55a6.98 6.98 0 0 0-4.955 2.045l.709.709A5.98 5.98 0 0 1 33 56a5.98 5.98 0 0 1 4.246 1.754l.71-.71A6.98 6.98 0 0 0 33 55" class="ColorScheme-Text" style="opacity:1;fill:currentColor;fill-opacity:1;stroke:none"/><path id="path4308" d="M33 51a10.97 10.97 0 0 0-7.785 3.215l.707.707A9.97 9.97 0 0 1 33 52a9.97 9.97 0 0 1 7.078 2.922l.707-.707A10.97 10.97 0 0 0 33 51" class="ColorScheme-Text" style="opacity:.35;fill:currentColor;fill-opacity:1;stroke:none"/><path id="path4310" d="M33 47a14.95 14.95 0 0 0-10.617 4.383l.709.709A13.96 13.96 0 0 1 33 48c3.878 0 7.378 1.561 9.908 4.092l.71-.71A14.95 14.95 0 0 0 33 47" class="ColorScheme-Text" style="opacity:.35;fill:currentColor;fill-opacity:1;stroke:none"/><path id="path4359" d="M41 76c-1.108 0-2 .892-2 2v2h-1v3h6v-3h-1v-2c0-1.108-.892-2-2-2m0 1c.554 0 1 .446 1 1v2h-2v-2c0-.554.446-1 1-1" class="ColorScheme-Text" style="opacity:1;fill:currentColor;fill-opacity:1;stroke:none;stroke-width:.1;stroke-miterlimit:4;stroke-dasharray:none;stroke-opacity:1" transform="translate(0 -20)"/></g></svg>