<svg xmlns="http://www.w3.org/2000/svg" width="22" height="22"><path d="m14.848 14-.848.848L16.152 17 14 19.15l.848.849L17 17.848 19.152 20 20 19.15 17.848 17 20 14.848 19.152 14 17 16.15Z" style="color:#e74c3c;fill:currentColor;fill-opacity:1;stroke:none;stroke-width:1.2"/><path d="M8 3a5 5 0 0 0-5 5h1a4 4 0 0 1 4-4Zm3 0s-1 0-1 3v2.5l-1.1.55V9h-.8v.55H8v.2l-2 1v-.5h-.1V9.7h-.8v.55H5v1l-2 1v1l2.191-.273.11.273h.398l.143-.355 2.752-.344h.105l.006-.014L10 12.125V15c0 .488.24.972.484 1.344L8 18v1l3-1 2 .672v-1.344l-1.484-.984c.243-.372.484-.856.484-1.344v-2.875l1.295.162.006.014h.105l2.752.344.143.355h.398l.11-.273L19 13v-1l-2-1v-1h-.1v-.55h-.8V10H16v.5l-2-1v-.2h-.1v-.55h-.8v.05L12 8.5V6c0-3-1-3-1-3M8 5a3 3 0 0 0-3 3h1a2 2 0 0 1 2-2Zm0 2S7 7 7 8h1z" style="color:#31363b;opacity:.35;fill:currentColor;fill-opacity:1;fill-rule:evenodd;stroke:none;stroke-width:1px;stroke-linecap:butt;stroke-linejoin:miter;stroke-opacity:1"/></svg>