<svg xmlns="http://www.w3.org/2000/svg" id="svg1" width="22" height="22" version="1.1"><style id="current-color-scheme" type="text/css">.ColorScheme-Text{color:#d3dae3}</style><g id="22-22-network-wired-activated-locked" transform="translate(175 65)"><path id="rect4574-7" d="M-175-65h22v22h-22z" style="fill:none;fill-opacity:1;stroke:none"/><path id="rect4144-9-6-7-3-2" d="M-170-62c-1 0-2 1-2 2v8c0 1 1.046 2 2.022 2h3.794s0 1 .998 1v1h-6.29c-.699 0-.699 1 0 1h6.29s0 1 .999 1c.998 0 .998-1 .998-1h5.891c.799 0 .799-1 0-1h-5.89v-1c.998 0 .998-1 .998-1l-1.024-1v-10c.7 0 .7-1 0-1zm.521 1h6.265v10l1.024 1h.973c.7 0 .7-1 0-1h-8.39c-.845 0-1.393-.507-1.393-1.5v-7c0-1 .523-1.5 1.521-1.5" class="ColorScheme-Text" style="stroke-width:.99922;stroke:none;fill-opacity:1;fill:currentColor"/><path id="path5-3-5-5-7" stroke-opacity="0" stroke-width=".335" d="M-159.994-63c-.416 0-1.006.5-1.006 1v3c0 .5.59 1 1.006 1h.994v2.5c0 .7 1 .7 1 0V-58h1.002c.499 0 .998-.5.998-1v-3c0-.5-.5-1-.998-1zm-.006 1h3.002-.002v3h-3l.006-1z" class="ColorScheme-Text" style="fill-opacity:1;fill:currentColor"/><path id="path10095" d="M-158.55-54c-.646 0-1.167.51-1.167 1.143v.571a.576.576 0 0 0-.583.572v1.143c0 .316.26.571.583.571h2.334a.576.576 0 0 0 .583-.571v-1.143a.576.576 0 0 0-.583-.572v-.571c0-.633-.52-1.143-1.167-1.143m0 .571c.323 0 .583.255.583.572v.571h-1.166v-.571c0-.317.26-.572.583-.572m0 1.715c.323 0 .583.255.583.571 0 .317-.26.572-.583.572a.576.576 0 0 1-.583-.572c0-.316.26-.571.583-.571" class="ColorScheme-Text" style="stroke-width:.57735;fill-opacity:1;fill:currentColor"/></g></svg>