<svg xmlns="http://www.w3.org/2000/svg" width="22" height="22"><path d="M10.998 3v7.041L7.705 6.748l-.002.002-.996-.996L6 6.46l4.545 4.541L6 15.543l.707.707.996-.996h.002L11 11.96V19h1l4-4-4-4 4-4-4-4ZM12 4.416l2.586 2.586L12 9.588ZM1 10a1 1 0 0 0-1 1 1 1 0 0 0 1 1 1 1 0 0 0 1-1 1 1 0 0 0-1-1m4 0a1 1 0 0 0-1 1 1 1 0 0 0 1 1 1 1 0 0 0 1-1 1 1 0 0 0-1-1m12 0a1 1 0 0 0-1 1 1 1 0 0 0 1 1 1 1 0 0 0 1-1 1 1 0 0 0-1-1m4 0a1 1 0 0 0-1 1 1 1 0 0 0 1 1 1 1 0 0 0 1-1 1 1 0 0 0-1-1m-9 2.416 2.586 2.586L12 17.588Z" style="color:#fcfcfc;text-decoration:none;text-decoration-line:none;text-decoration-style:solid;display:inline;overflow:visible;visibility:visible;isolation:auto;mix-blend-mode:normal;color-interpolation:sRGB;color-interpolation-filters:linearRGB;fill:currentColor;fill-opacity:1;fill-rule:nonzero;stroke:none;stroke-width:1;stroke-linecap:butt;stroke-linejoin:miter;stroke-miterlimit:4;stroke-dasharray:none;stroke-dashoffset:0;stroke-opacity:1;color-rendering:auto;image-rendering:auto;shape-rendering:auto;text-rendering:auto"/></svg>