<svg xmlns="http://www.w3.org/2000/svg" id="svg1" width="22" height="22" version="1.1"><style id="current-color-scheme" type="text/css">.ColorScheme-Text{color:#31363b}</style><path id="rect4509-9-6" d="M0 0h22v22H0z" style="fill:none;fill-opacity:1;stroke:none"/><path id="rect4144-9-6-6" d="M5 3C4 3 3 4 3 5v8c0 1 1.046 2 2.022 2h3.794s0 1 .999 1v1h-6.29c-.7 0-.7 1 0 1h6.29s0 1 .998 1 .998-1 .998-1h5.891c.799 0 .799-1 0-1h-5.89v-1c.998 0 .998-1 .998-1l-1.024-1V4c.7 0 .7-1 0-1zm.521 1h6.265v10l1.024 1h.973c.7 0 .7-1 0-1h-8.39C4.549 14 4 13.493 4 12.5v-7C4 4.5 4.523 4 5.521 4" class="ColorScheme-Text" style="color:#e5e9ef;fill:#d3dae3;fill-opacity:1;stroke:none;stroke-width:.99922"/><path id="path5-3-2" stroke-opacity="0" stroke-width=".335" d="M15.006 2C14.59 2 14 2.5 14 3v3c0 .5.59 1 1.006 1H16v2h1v2h-1v2c0 .7 1 .7 1 0V7h1.002C18.5 7 19 6.5 19 6V3c0-.5-.499-1-.998-1zM15 3h3.002H18v3h-3l.006-1z" class="ColorScheme-Text" style="color:#d1d5e9;fill:#d3dae3;fill-opacity:1"/></svg>