<svg xmlns="http://www.w3.org/2000/svg" viewBox="0 0 22 22"><path d="M18.766 12.514a2 2 0 0 0-1.768 1.896v.09h1a1 1 0 0 1 .883-.994h.115v-.992zm.232.002v1a1 1 0 0 1 .994.882v.116h.006a1 1 0 0 1-.883.994H19V15.5a2 2 0 0 0-.2.002 2 2 0 0 0-.8.219v-.207h-.002v2h1V16.5h.232a2 2 0 0 0 1.768-1.896v-.09h-.014v-.23a2 2 0 0 0-1.896-1.768zM18 18.5v1h1v-1z" style="fill:#fdbc4b;fill-opacity:1;stroke:none"/><path d="M11 2.5A14.95 14.95 0 0 0 .383 6.883l.709.709A13.96 13.96 0 0 1 11 3.5c3.878 0 7.378 1.561 9.908 4.092l.71-.71A14.95 14.95 0 0 0 11 2.5m0 4a10.97 10.97 0 0 0-7.785 3.215l.707.707A9.97 9.97 0 0 1 11 7.5a9.97 9.97 0 0 1 7.078 2.922l.707-.707A10.97 10.97 0 0 0 11 6.5m0 4a6.98 6.98 0 0 0-4.955 2.045l.709.709A5.98 5.98 0 0 1 11 11.5a5.98 5.98 0 0 1 4.246 1.754l.71-.71A6.98 6.98 0 0 0 11 10.5m0 4c-1.108 0-2 .892-2 2s.892 2 2 2 2-.892 2-2-.892-2-2-2m0 1c.554 0 1 .446 1 1s-.446 1-1 1-1-.446-1-1 .446-1 1-1" style="color:#fcfcfc;opacity:.5;fill:currentColor;fill-opacity:1;stroke:none"/></svg>