<svg xmlns="http://www.w3.org/2000/svg" width="22" height="22"><path d="M22 128h22v22H22z" style="opacity:1;fill:none;fill-opacity:1;stroke:none" transform="translate(-22 -128)"/><path d="M33 131s-2 2.658-8 3.324c0 0 0 9.334 8 12.676 8-3.342 8-12.676 8-12.676-6-.666-8-3.324-8-3.324m0 1.377c1.587 1.345 3.877 2.242 6.846 2.693-.162 1.446-.316 2.533-.69 3.584-.785 2.21-1.7 3.553-2.521 4.52-1.272 1.498-2.428 2.104-3.635 2.707-1.207-.603-2.363-1.21-3.635-2.707-.82-.967-1.736-2.31-2.521-4.52-.374-1.05-.528-2.138-.69-3.584 2.969-.551 5.259-1.348 6.846-2.693m0 1.2c-1.743 1.21-3.702 1.822-5.668 2.24.93 5.281 2.936 7.54 5.668 8.954 2.732-1.414 4.737-3.673 5.668-8.955-1.966-.417-3.925-1.03-5.668-2.24" style="color:#31363b;fill:currentColor;fill-opacity:1;stroke:none" transform="translate(-22 -128)"/></svg>