<svg xmlns="http://www.w3.org/2000/svg" width="22" height="22"><path d="M10.998 3v7.041L7.705 6.748l-.002.002-.996-.996L6 6.46l4.545 4.541L6 15.543l.707.707.996-.996h.002L11 11.96V19h1l4-4-4-4 4-4-4-4ZM12 4.416l2.586 2.586L12 9.588ZM1 10a1 1 0 1 0 0 2 1 1 0 0 0 0-2m4 0a1 1 0 1 0 0 2 1 1 0 0 0 0-2m14 2c-1.108 0-2 .892-2 2v2h-1v3h6v-3h-1v-2c0-1.108-.892-2-2-2m-7 .416 2.586 2.586L12 17.588ZM19 13c.554 0 1 .446 1 1v2h-2v-2c0-.554.446-1 1-1" style="color:#fcfcfc;fill:currentColor;fill-opacity:1;stroke:none"/></svg>