<svg xmlns="http://www.w3.org/2000/svg" width="22" height="22"><style id="current-color-scheme" type="text/css">.ColorScheme-Text{color:#31363b}</style><g id="network-wireless-off" transform="translate(-234 -44)"><g id="g1692" transform="matrix(-1 0 0 1 498 -23.75)"><path id="rect4504-5" d="M242 67.75h22v22h-22z" style="opacity:.2;fill:none;fill-opacity:1;stroke:none;stroke-width:3.56737041px;stroke-linecap:butt;stroke-linejoin:miter;stroke-miterlimit:4;stroke-dasharray:none;stroke-dashoffset:0;stroke-opacity:1"/><path id="path4506-3" d="M253 70.75a14.95 14.95 0 0 0-10.617 4.383l.709.709A13.96 13.96 0 0 1 253 71.75c1.696 0 3.312.313 4.814.861l.782-.779A15 15 0 0 0 253 70.75m7.988 2.307-.728.728a14 14 0 0 1 2.648 2.057l.71-.71a15 15 0 0 0-2.63-2.075" class="ColorScheme-Text" style="opacity:.35;fill:currentColor;fill-opacity:1;stroke:none"/><path id="path4508-5" d="M253 74.75a10.97 10.97 0 0 0-7.785 3.215l.707.707A9.97 9.97 0 0 1 253 75.75a10 10 0 0 1 1.547.13l.86-.86a11 11 0 0 0-2.407-.27m5.063 1.232-.749.75a10 10 0 0 1 2.764 1.94l.707-.707a11 11 0 0 0-2.723-1.983" class="ColorScheme-Text" style="opacity:.35;fill:currentColor;fill-opacity:1;stroke:none"/><path id="path4510-6" d="M251.52 78.908a6.97 6.97 0 0 0-3.475 1.887l.709.709q.423-.422.924-.754zm3.484.133-.824.824a5.97 5.97 0 0 1 3.066 1.639l.71-.71a7 7 0 0 0-2.952-1.753" class="ColorScheme-Text" style="opacity:.35;fill:currentColor;fill-opacity:1;stroke:none"/><path id="path4512-2" d="M253 82.75c-1.108 0-2 .892-2 2s.892 2 2 2 2-.892 2-2-.892-2-2-2m0 1c.554 0 1 .446 1 1s-.446 1-1 1-1-.446-1-1 .446-1 1-1" class="ColorScheme-Text" style="opacity:.35;fill:currentColor;fill-opacity:1;stroke:none"/><path id="rect1560" d="M113.28 234.426h22.764v1.002H113.28z" style="color:#e74c3c;opacity:1;fill:currentColor;fill-opacity:1;stroke:none" transform="rotate(-45)"/></g></g></svg>