<svg xmlns="http://www.w3.org/2000/svg" width="22" height="22"><style id="current-color-scheme" type="text/css">.ColorScheme-Text{color:#31363b}</style><g id="network-wireless-connected-20" transform="translate(-44 -22)"><path id="rect4492" d="M44 22h22v22H44z" style="opacity:.55;fill:none;fill-opacity:1;stroke:none;stroke-width:3.56737041px;stroke-linecap:butt;stroke-linejoin:miter;stroke-miterlimit:4;stroke-dasharray:none;stroke-dashoffset:0;stroke-opacity:1"/><path id="path4494" d="M55 25a14.95 14.95 0 0 0-10.617 4.383l.709.709A13.96 13.96 0 0 1 55 26c3.878 0 7.378 1.561 9.908 4.092l.71-.71A14.95 14.95 0 0 0 55 25" class="ColorScheme-Text" style="opacity:.35;fill:currentColor;fill-opacity:1;stroke:none"/><path id="path4496" d="M55 29a10.97 10.97 0 0 0-7.785 3.215l.707.707A9.97 9.97 0 0 1 55 30a9.97 9.97 0 0 1 7.078 2.922l.707-.707A10.97 10.97 0 0 0 55 29" class="ColorScheme-Text" style="opacity:.35;fill:currentColor;fill-opacity:1;stroke:none"/><path id="path4498" d="M55 33a6.98 6.98 0 0 0-4.955 2.045l.709.709A5.98 5.98 0 0 1 55 34a5.98 5.98 0 0 1 4.246 1.754l.71-.71A6.98 6.98 0 0 0 55 33" class="ColorScheme-Text" style="opacity:.35;fill:currentColor;fill-opacity:1;stroke:none"/><path id="path4500" d="M55 37c-1.108 0-2 .892-2 2s.892 2 2 2 2-.892 2-2-.892-2-2-2m0 1c.554 0 1 .446 1 1s-.446 1-1 1-1-.446-1-1 .446-1 1-1" class="ColorScheme-Text" style="opacity:.35;fill:currentColor;fill-opacity:1;stroke:none"/></g></svg>