<svg xmlns="http://www.w3.org/2000/svg" viewBox="0 0 22 22"><path fill="currentColor" d="M10.89 3c-.512.013-2.647.166-3.982 1.777l-.004.006.715.715q.029-.042.059-.082C8.832 4.023 10.996 4 10.996 4h.008s2.164.023 3.318 1.416c.486.587.727 1.511.66 2.473-.066.961-.435 1.94-1.06 2.625-.22.24-.41.474-.584.703l.713.713c.173-.236.373-.484.61-.742.807-.885 1.24-2.066 1.32-3.231s-.188-2.333-.89-3.18C13.58 2.952 11.049 3 11.005 3h-.008c-.005 0-.037-.002-.105 0M6.042 8.162c.114 1.097.538 2.193 1.299 3.025.962 1.053 1.365 1.936 1.537 2.538.115.405.128.647.125.77L9 14.5v.06l-.004.034a1 1 0 0 0 .004.078V17.5a.5.5 0 0 0 .146.354l1 1A.5.5 0 0 0 10.5 19h1a.5.5 0 0 0 .354-.146l1-1.002a.5.5 0 0 0 .08-.104.5.5 0 0 0 .048-.121.5.5 0 0 0 .018-.129v-2.377l-.973-.973c-.012.121-.02.232-.021.319L12 14.5v.5h-2v-.5a1 1 0 0 0-.006-.072l-.002-.014a4 4 0 0 0-.154-.965c-.215-.753-.704-1.779-1.76-2.935a3.8 3.8 0 0 1-.619-.934zM10 16h2v1h-2z" style="color:#232629;-inkscape-stroke:none;paint-order:markers fill stroke"/><path fill="currentColor" d="M3.707 3 3 3.707l.354.354L18.293 19l.707-.707L4.06 3.353z" style="color:#da4453;-inkscape-stroke:none;paint-order:markers stroke fill"/></svg>