<svg xmlns="http://www.w3.org/2000/svg" viewBox="0 0 22 22"><path fill="currentColor" d="M11.121 4.414S9 2.293 6.88 4.414L4.414 6.88c-2.121 2.121 0 4.242 0 4.242l6.465 6.465s2.121 2.121 4.242 0l2.465-2.465c2.121-2.121 0-4.242 0-4.242zM12 3.002a7 7 0 0 0-.807.072l.934.934a6 6 0 0 1 5.041 2.994H15V8h3.998L19 4h-1v2.426a7 7 0 0 0-6-3.424m-1.586 2.12 6.465 6.464s1.414 1.414 0 2.828l-2.465 2.465c-1.414 1.414-2.828 0-2.828 0L5.12 10.414S3.707 9 5.121 7.586L7.586 5.12c1.414-1.414 2.828 0 2.828 0M3.002 14 3 18h1v-2.426a7 7 0 0 0 6 3.424q.406-.013.807-.072l-.934-.934a6 6 0 0 1-5.041-2.994h2.17V14h-3.7Z" style="color:#fcfcfc;paint-order:markers fill stroke"/></svg>