<svg xmlns="http://www.w3.org/2000/svg" viewBox="0 0 22 22"><path d="M11 3S9 5.658 3 6.324c0 0 0 9.334 8 12.676 8-3.342 8-12.676 8-12.676C13 5.658 11 3 11 3m0 1.377c1.587 1.345 3.877 2.242 6.846 2.693-.162 1.446-.316 2.533-.69 3.584-.785 2.21-1.7 3.553-2.521 4.52-1.272 1.498-2.428 2.104-3.635 2.707-1.207-.603-2.363-1.21-3.635-2.707-.82-.967-1.736-2.31-2.521-4.52-.374-1.05-.528-2.138-.69-3.584C7.123 6.62 9.413 5.722 11 4.377" style="color:#232629;fill:currentColor;fill-opacity:1;stroke:none"/><path d="M12 11c-.554 0-1 .446-1 1v6c0 .554.446 1 1 1h6c.554 0 1-.446 1-1v-6c0-.554-.446-1-1-1z" style="color:#da4453;fill:currentColor;fill-opacity:1;stroke:none"/><path d="m13 12-1 1 2 2-2 2 1 1 2-2 2 2 1-1-2-2 2-2-1-1-2 2z" style="fill:#fff"/></svg>