<svg xmlns="http://www.w3.org/2000/svg" viewBox="0 0 22 22"><path d="M11 3S9 5.658 3 6.324c0 0 0 9.334 8 12.676 8-3.342 8-12.676 8-12.676C13 5.658 11 3 11 3m0 1.377c1.587 1.345 3.877 2.242 6.846 2.693-.162 1.446-.316 2.533-.69 3.584-.785 2.21-1.7 3.553-2.521 4.52-1.272 1.497-2.428 2.104-3.635 2.707-1.207-.603-2.363-1.21-3.635-2.707-.82-.967-1.736-2.31-2.521-4.52-.374-1.05-.528-2.138-.69-3.584C7.123 6.62 9.413 5.722 11 4.377m0 1.2c-1.743 1.21-3.702 1.822-5.668 2.24.93 5.281 2.936 7.54 5.668 8.954z" style="color:#232629;opacity:1;fill:currentColor;fill-opacity:1;stroke:none"/><path d="M15.5 1041.36h.004a.5.5 0 0 1 .44.27h.003l3.987 6.974h-.002a.5.5 0 0 1 .068.252.5.5 0 0 1-.5.5h-8a.5.5 0 0 1-.5-.5.5.5 0 0 1 .068-.252h-.002l3.987-6.972h.004a.5.5 0 0 1 .443-.272" style="color:#f67400;fill:currentColor;fill-opacity:1;stroke:none" transform="translate(0 -1030.362)"/><path d="M15 13v3h1v-3zm0 4v1h1v-1z" style="opacity:1;fill:#fff;fill-opacity:1;stroke:none"/></svg>