<svg xmlns="http://www.w3.org/2000/svg" viewBox="0 0 22 22"><path fill="currentColor" d="M7.836 2.94c-.724 0-1.319.592-1.319 1.316v13.488c0 .724.595 1.316 1.319 1.316h6.375a1.32 1.32 0 0 0 1.316-1.316V4.256a1.32 1.32 0 0 0-1.316-1.316zm0 .66h6.375c.368 0 .654.287.654.656v13.488a.647.647 0 0 1-.654.656H7.836a.65.65 0 0 1-.656-.656V4.256c0-.369.287-.656.656-.656m5.93.615a.444.444 0 0 0-.44.447.444.444 0 0 0 .445.44.444.444 0 0 0 .442-.444v-.006a.444.444 0 0 0-.447-.437m-5.637.006a.444.444 0 0 0-.44.447.444.444 0 0 0 .446.441.444.444 0 0 0 .443-.445v-.006a.444.444 0 0 0-.45-.437m4.34 0a.444.444 0 0 0-.44.447.444.444 0 0 0 .446.441.444.444 0 0 0 .441-.445v-.006a.444.444 0 0 0-.447-.437M9.576 17.258a.18.18 0 0 0-.178.177.18.18 0 0 0 .178.178h2.955a.18.18 0 0 0 .18-.178.18.18 0 0 0-.18-.177z" style="color:#232629"/><path fill="#f47750" d="M11.114 13.012q-.166 0-.28-.106-.105-.113-.105-.279 0-.294.151-.641.151-.355.468-.627.211-.181.385-.355.181-.18.287-.407.113-.234.113-.566 0-.242-.113-.453-.114-.211-.325-.34-.204-.135-.506-.135-.37 0-.61.135t-.363.378q-.113.241-.113.566 0 .166-.106.279-.106.106-.28.106-.165 0-.278-.106-.106-.113-.106-.28 0-.528.226-.928.234-.4.65-.626.422-.234.98-.234.491 0 .868.211.385.204.604.574.227.362.227.853 0 .422-.136.732t-.37.558q-.234.242-.536.483-.196.159-.272.416-.075.249-.075.407 0 .166-.106.28-.105.105-.279.105m0 1.396q-.211 0-.37-.15-.15-.16-.15-.37 0-.22.15-.37.159-.159.37-.159.219 0 .37.159.158.15.158.37 0 .21-.158.37-.151.15-.37.15" aria-label="?"/></svg>