<svg xmlns="http://www.w3.org/2000/svg" viewBox="0 0 22 22"><style id="current-color-scheme" type="text/css">.ColorScheme-Text{color:#232629}</style><path fill="currentColor" d="M7.836 2.94c-.724 0-1.319.592-1.319 1.316v13.488c0 .724.595 1.316 1.319 1.316h6.375a1.32 1.32 0 0 0 1.316-1.316V4.256a1.32 1.32 0 0 0-1.316-1.316zm0 .66h6.375c.368 0 .654.287.654.656v13.488a.647.647 0 0 1-.654.656H7.836a.65.65 0 0 1-.656-.656V4.256c0-.369.287-.656.656-.656m5.93.615a.444.444 0 0 0-.44.447.444.444 0 0 0 .445.44.444.444 0 0 0 .442-.444v-.006a.444.444 0 0 0-.447-.437m-5.637.006a.444.444 0 0 0-.44.447.444.444 0 0 0 .446.441.444.444 0 0 0 .443-.445v-.006a.444.444 0 0 0-.45-.437m4.34 0a.444.444 0 0 0-.44.447.444.444 0 0 0 .446.441.444.444 0 0 0 .441-.445v-.006a.444.444 0 0 0-.447-.437M9.576 17.258a.18.18 0 0 0-.178.177.18.18 0 0 0 .178.178h2.955a.18.18 0 0 0 .18-.178.18.18 0 0 0-.18-.177z" class="ColorScheme-Text"/><path fill="#1fb65f" stroke="#1fb65f" stroke-width=".423" d="m13.149 9.78-2.763 2.736-1.053-1.043-.263.261 1.052 1.042.264.26.394-.39 2.632-2.605z" class="ColorScheme-Text" color="#232629"/></svg>