<svg xmlns="http://www.w3.org/2000/svg" viewBox="0 0 22 22"><path d="M432.714 529.79a6 6 0 0 0-6 6l.004.13a4 4 0 0 0-3.004 3.87 4 4 0 0 0 4 4h9a5 5 0 0 0 5-5 5 5 0 0 0-3.242-4.675 6 6 0 0 0-5.758-4.324m0 1a5 5 0 0 1 4.92 4.112 4 4 0 0 1 3.08 3.889 4 4 0 0 1-4 4h-9a3 3 0 0 1-3-3 3 3 0 0 1 3-3l.108.006a5 5 0 0 1-.108-1.006 5 5 0 0 1 5-5z" style="color:#232629;opacity:1;fill:currentColor;fill-opacity:1;stroke:none" transform="translate(-421.714 -525.79)"/><path d="M441.714 540.29a4.5 4.5 0 0 1-4.5 4.5 4.5 4.5 0 0 1-4.5-4.5 4.5 4.5 0 0 1 4.5-4.5 4.5 4.5 0 0 1 4.5 4.5" style="color:#3daee9;fill:currentColor;fill-opacity:1;stroke:none" transform="translate(-421.714 -525.79)"/><path d="M15 11.992v1h1v-1zm0 2v3h1v-3z" style="opacity:1;fill:#fff"/></svg>