<svg xmlns="http://www.w3.org/2000/svg" id="svg7" version="1.1" viewBox="0 0 22 22"><style id="current-color-scheme" type="text/css">.ColorScheme-Text{color:#232629}</style><path id="path2" fill="currentColor" stroke-width=".889" d="M11 5.667v.889h2.038L11.26 8.333l-.26.26v.63h3.556v-.89h-2.039l1.778-1.777.26-.26v-.63h-.628zM15.444 3v.889h2.039l-1.778 1.778-.26.26v.629H19v-.89h-2.038L18.74 3.89l.26-.26V3h-.628z" class="ColorScheme-Text"/><path id="path1" fill="currentColor" d="M6 11c-1.108 0-2 .892-2 2v2H3v4h6v-4H8v-2c0-1.108-.892-2-2-2m0 .5c.83 0 1.5.78 1.5 1.75V15h-3v-1.75c0-.97.669-1.75 1.5-1.75" class="ColorScheme-Text"/></svg>