<svg xmlns="http://www.w3.org/2000/svg" width="22" height="22"><path d="M6 13c-3 0-3 3-3 3v11s0 2 2 2h12c2 0 2-2 2-2V16s0-3-3-3zm-2 3s0-2 2-2h10c2 0 2 2 2 2v9H4Zm0 10h6v2H5c-1 0-1-1-1-1zm8 0h6v1s0 1-1 1h-5z" style="color:#fcfcfc;fill:currentColor;fill-opacity:.6;stroke:none" transform="translate(0 -10)"/><path d="M0 10v22h22V10z" style="opacity:1;fill:none" transform="translate(0 -10)"/><path d="M8.848 17 8 17.848 10.152 20 8 22.152l.848.848L11 20.848 13.152 23l.848-.848L11.848 20 14 17.848 13.152 17 11 19.152z" style="color:#da4453;fill:currentColor;fill-opacity:1;stroke:none" transform="translate(0 -10)"/></svg>