<svg xmlns="http://www.w3.org/2000/svg" viewBox="0 0 22 22"><path fill="currentColor" d="M11 3a8 8 0 0 0-8 8h1a7 7 0 0 1 7-7 7 7 0 0 1 7 7 7 7 0 0 1-.17 1.445 4 4 0 0 1 .887.621A8 8 0 0 0 19 11a8 8 0 0 0-8-8m0 3-4 4h2v5h3.135A4 4 0 0 1 13 13.357V10h2zm-8 7v4h1v-2.195A8 8 0 0 0 11 19a8 8 0 0 0 2.072-.285 4 4 0 0 1-.619-.887A7 7 0 0 1 11 18a7 7 0 0 1-6.31-4H7v-1H3" style="color:#232629;paint-order:markers fill stroke"/><path fill="currentColor" d="M19 16a3 3 0 0 1-3 3 3 3 0 0 1-3-3 3 3 0 0 1 3-3 3 3 0 0 1 3 3" style="color:#da4453;paint-order:markers fill stroke"/></svg>