<svg xmlns="http://www.w3.org/2000/svg" id="svg1" width="22" height="22" version="1.1"><style id="current-color-scheme" type="text/css">.ColorScheme-Text{color:#fcfcfc}</style><g id="22-22-wallet-closed" transform="translate(-32 22)"><path id="rect12-7-6" d="M32-22h22V0H32z" style="opacity:.00100002;fill:#d3dae3;fill-opacity:1;stroke-width:.6875"/><path id="path2-3-5-2" d="M49-10v3c0 .666 0 1-1 1H37c-1 0-1-.334-1-1v-8c0-.666 0-1 1-1h11c1 0 1 .334 1 1v3l1-.33-.007-2.645.007-.688c0-.667-.625-1.333-1.25-1.333-1.247-.011-2.603.005-3.85.005h-8.033l.008-.005h-.625c-.625 0-1.25.666-1.25 1.333l.01 3.862L35-6.333C35-5.666 35.625-5 36.25-5h12.5C49.375-5 50-5.666 50-6.333l-.009-.713v-1.585L50-9.665c-.059-.102-1-.335-1-.335" class="ColorScheme-Text" style="color:#d6dbf1;fill:#d3dae3;fill-opacity:1;stroke-width:.0367089"/><path id="path72-3-7-36-3-7" d="M51.512-10.988a2 2 0 1 1-3.999.001 2 2 0 0 1 3.999-.001" class="ColorScheme-Text" style="color:#e5e9ef;fill:#d3dae3;fill-opacity:1;stroke:none;stroke-width:.0238105;stroke-opacity:1"/><path id="path72-3-7-36-3-7-9" d="M50.5-11a1 1 0 1 1-2 0 1 1 0 0 1 2 0" class="ColorScheme-Text" style="color:#e5e9ef;fill:#000;fill-opacity:1;stroke:none;stroke-width:.011905;stroke-opacity:1"/><text xml:space="preserve" id="text18313-1" x="35.173" y="14.407" style="font-weight:700;font-size:3.51497px;font-family:&quot;Open Sans&quot;;-inkscape-font-specification:&quot;Open Sans, Bold&quot;;fill:#d3dae3;fill-opacity:1;fill-rule:evenodd;stroke-width:2.28357" transform="matrix(.84666 -.53579 .5337 .84337 0 0)"><tspan id="tspan18311-9" x="35.173" y="14.407" style="fill:#d3dae3;fill-opacity:1;stroke-width:2.28357">closed</tspan></text></g></svg>