<svg xmlns="http://www.w3.org/2000/svg" id="svg1" width="22" height="22" version="1.1"><style id="current-color-scheme" type="text/css">.ColorScheme-Text{color:#fcfcfc}</style><path id="rect12-7" d="M0 0h22v22H0z" style="opacity:.00100002;fill:#d3dae3;fill-opacity:1;stroke-width:.6875"/><path id="path2-3-5" d="M17 12v3c0 .666 0 1-1 1H5c-1 0-1-.334-1-1V7c0-.666 0-1 1-1h11c1 0 1 .334 1 1v3l1-.33-.007-2.645.007-.688c0-.667-.625-1.333-1.25-1.333-1.247-.011-2.603.005-3.85.005H4.867l.008-.005H4.25C3.625 5.004 3 5.67 3 6.337l.01 3.862L3 15.667C3 16.334 3.625 17 4.25 17h12.5c.625 0 1.25-.666 1.25-1.333l-.009-.713v-1.585L18 12.335c-.059-.102-1-.335-1-.335" class="ColorScheme-Text" style="color:#d6dbf1;fill:#d3dae3;fill-opacity:1;stroke-width:.0367089"/><path id="path72-3-7-36-3" d="M19.512 11.012a2 2 0 1 1-3.999.001 2 2 0 0 1 3.999-.001" class="ColorScheme-Text" style="color:#e5e9ef;fill:#d3dae3;fill-opacity:1;stroke:none;stroke-width:.0238105;stroke-opacity:1"/><path id="path1454-5" d="M8 8.1a3 3 0 1 0-.001 5.999A3 3 0 0 0 8 8.1m-.149 2.424.678.35c.403.21.621.635.547 1.09-.057.35-.28.63-.586.766v.092a.415.415 0 1 1-.831 0v-.066c-.324-.11-.6-.35-.744-.678a.416.416 0 0 1 .761-.333.4.4 0 0 0 .403.241c.131-.022.162-.092.17-.153.004-.035.013-.153-.105-.215l-.677-.35a1.03 1.03 0 0 1-.543-1.111c.079-.398.359-.7.735-.801V9.19a.415.415 0 1 1 .83 0v.258c.263.127.473.337.596.613a.416.416 0 0 1-.215.547.42.42 0 0 1-.55-.215.4.4 0 0 0-.403-.24c-.123.013-.158.104-.166.157-.01.044-.018.153.1.214m2.388.824" style="fill:#d3dae3;fill-opacity:1;stroke-width:.0249989"/><path id="path72-3-7-36-3-7-9-1" d="M18.5 11a1 1 0 1 1-2 0 1 1 0 0 1 2 0" class="ColorScheme-Text" style="color:#e5e9ef;fill:#000;fill-opacity:1;stroke:none;stroke-width:.011905;stroke-opacity:1"/></svg>